<svg xmlns="http://www.w3.org/2000/svg" xmlns:xlink="http://www.w3.org/1999/xlink" xmlns:ev="http://www.w3.org/2001/xml-events" id="networkSVG" width="100%" height="100%" style="display:block;"><g id="container" transform="scale(1)"><g id="p_pLinksWide"></g><g id="proteinLower"><g class="protein lowerGroup" transform="translate(986 711) scale(1) rotate(0)"><rect stroke="rgb(255, 255, 153)" stroke-width="5" fill="none" stroke-opacity="1" ry="0" rx="0" y="-12.5" x="-508.4646279594138" height="25" width="1022.06595264938"></rect><g opacity="1" transform=""></g><g transform="scale(40.5, 1)"></g></g></g><g class="highlights"></g><g id="res_resLinks"></g><g id="p_pLinks"></g><g id="proteinUpper"><g class="protein upperGroup" transform="translate(986 711) scale(1) rotate(0)"><g><path class="link" fill="none" stroke="rgb(253, 192, 134)" stroke-width="10" stroke-opacity="0" transform="scale(1, 1)" d=" M -143.8275084554679,0 Q -143.8275084554679,-13 -143.8275084554679,-13 A 20.546786922209705,20.546786922209705  0 0 1 -102.73393461104848,-13 Q -102.73393461104848,0 -102.73393461104848,0" x1="842.1724915445321" y1="711"></path><path class="link" fill="none" stroke="rgb(253, 192, 134)" stroke-width="10" stroke-opacity="0" transform="scale(1, 1)" d=" M -138.69081172491545,0 Q -138.69081172491545,-13 -138.69081172491545,-13 A 17.978438556933483,17.978438556933483  0 0 1 -102.73393461104848,-13 Q -102.73393461104848,0 -102.73393461104848,0" x1="847.3091882750846" y1="711"></path><path class="link" fill="none" stroke="rgb(253, 192, 134)" stroke-width="10" stroke-opacity="0" transform="scale(1, 1)" d=" M -210.6045659526494,0 Q -210.6045659526494,-13 -210.6045659526494,-13 A 354.4320744081173,354.4320744081173  0 0 1 498.25958286358514,-13 Q 498.25958286358514,0 498.25958286358514,0" x1="775.3954340473506" y1="711"></path><path class="link" fill="none" stroke="rgb(253, 192, 134)" stroke-width="10" stroke-opacity="0" transform="scale(1, 1)" d=" M -138.69081172491545,0 Q -138.69081172491545,-13 -138.69081172491545,-13 A 64.2087091319053,64.2087091319053  0 0 1 -10.273393461104849,-13 Q -10.273393461104849,0 -10.273393461104849,0" x1="847.3091882750846" y1="711"></path><path class="link" fill="none" stroke="rgb(253, 192, 134)" stroke-width="10" stroke-opacity="0" transform="scale(1, 1)" d=" M -303.06510710259306,0 Q -303.06510710259306,-13 -303.06510710259306,-13 A 146.39585682074411,146.39585682074411  0 0 1 -10.273393461104849,-13 Q -10.273393461104849,0 -10.273393461104849,0" x1="682.9348928974069" y1="711"></path><path class="link" fill="none" stroke="rgb(253, 192, 134)" stroke-width="10" stroke-opacity="0" transform="scale(1, 1)" d=" M -272.2449267192785,0 Q -272.2449267192785,-13 -272.2449267192785,-13 A 130.98576662908684,130.98576662908684  0 0 1 -10.273393461104849,-13 Q -10.273393461104849,0 -10.273393461104849,0" x1="713.7550732807215" y1="711"></path><path class="link" fill="none" stroke="rgb(253, 192, 134)" stroke-width="10" stroke-opacity="0" transform="scale(1, -1)" d=" M -10.273393461104849,0 Q -19.849957474223572,-26.311393382005434 -10.273393461104849,-28 A 0,0  0 0 1 -10.273393461104849,-28 Q -0.6968294479861257,-26.311393382005434 -10.273393461104849,0" x1="975.7266065388951" y1="711"></path><path class="link" fill="none" stroke="rgb(253, 192, 134)" stroke-width="10" stroke-opacity="0" transform="scale(1, 1)" d=" M -87.32384441939122,0 Q -87.32384441939122,-13 -87.32384441939122,-13 A 38.52522547914319,38.52522547914319  0 0 1 -10.273393461104849,-13 Q -10.273393461104849,0 -10.273393461104849,0" x1="898.6761555806088" y1="711"></path><path class="link" fill="none" stroke="rgb(253, 192, 134)" stroke-width="10" stroke-opacity="0" transform="scale(1, 1)" d=" M -138.69081172491545,0 Q -138.69081172491545,-13 -138.69081172491545,-13 A 43.661922209695604,43.661922209695604  0 0 1 -51.36696730552424,-13 Q -51.36696730552424,0 -51.36696730552424,0" x1="847.3091882750846" y1="711"></path><path class="link" fill="none" stroke="rgb(253, 192, 134)" stroke-width="10" stroke-opacity="0" transform="scale(1, 1)" d=" M -138.69081172491545,0 Q -138.69081172491545,-13 -138.69081172491545,-13 A 33.38852874859075,33.38852874859075  0 0 1 -71.91375422773395,-13 Q -71.91375422773395,0 -71.91375422773395,0" x1="847.3091882750846" y1="711"></path><path class="link" fill="none" stroke="rgb(253, 192, 134)" stroke-width="10" stroke-opacity="0" transform="scale(1, 1)" d=" M -10.273393461104849,0 Q -10.273393461104849,-13 -10.273393461104849,-13 A 77.05045095828638,77.05045095828638  0 0 1 143.8275084554679,-13 Q 143.8275084554679,0 143.8275084554679,0" x1="975.7266065388951" y1="711"></path><path class="link" fill="none" stroke="rgb(255, 255, 153)" stroke-width="10" stroke-opacity="0" transform="scale(1, 1)" d=" M -102.73393461104848,0 Q -102.73393461104848,-13 -102.73393461104848,-13 A 123.28072153325819,123.28072153325819  0 0 1 143.8275084554679,-13 Q 143.8275084554679,0 143.8275084554679,0" x1="883.2660653889516" y1="711"></path><path class="link" fill="none" stroke="rgb(253, 192, 134)" stroke-width="10" stroke-opacity="0" transform="scale(1, 1)" d=" M -303.06510710259306,0 Q -303.06510710259306,-13 -303.06510710259306,-13 A 100.16558624577229,100.16558624577229  0 0 1 -102.73393461104848,-13 Q -102.73393461104848,0 -102.73393461104848,0" x1="682.9348928974069" y1="711"></path><path class="link" fill="none" stroke="rgb(253, 192, 134)" stroke-width="10" stroke-opacity="0" transform="scale(1, 1)" d=" M -210.6045659526494,0 Q -210.6045659526494,-13 -210.6045659526494,-13 A 53.93531567080046,53.93531567080046  0 0 1 -102.73393461104848,-13 Q -102.73393461104848,0 -102.73393461104848,0" x1="775.3954340473506" y1="711"></path><path class="link" fill="none" stroke="rgb(253, 192, 134)" stroke-width="10" stroke-opacity="0" transform="scale(1, 1)" d=" M -195.1944757609921,0 Q -195.1944757609921,-13 -195.1944757609921,-13 A 346.7270293122886,346.7270293122886  0 0 1 498.25958286358514,-13 Q 498.25958286358514,0 498.25958286358514,0" x1="790.8055242390079" y1="711"></path><path class="link" fill="none" stroke="rgb(253, 192, 134)" stroke-width="10" stroke-opacity="0" transform="scale(1, 1)" d=" M -272.2449267192785,0 Q -272.2449267192785,-13 -272.2449267192785,-13 A 84.75549605411501,84.75549605411501  0 0 1 -102.73393461104848,-13 Q -102.73393461104848,0 -102.73393461104848,0" x1="713.7550732807215" y1="711"></path><path class="link" fill="none" stroke="rgb(253, 192, 134)" stroke-width="10" stroke-opacity="0" transform="scale(1, 1)" d=" M -272.2449267192785,0 Q -272.2449267192785,-13 -272.2449267192785,-13 A 385.2522547914318,385.2522547914318  0 0 1 498.25958286358514,-13 Q 498.25958286358514,0 498.25958286358514,0" x1="713.7550732807215" y1="711"></path><path class="link" fill="none" stroke="rgb(253, 192, 134)" stroke-width="10" stroke-opacity="0" transform="scale(1, 1)" d=" M -138.69081172491545,0 Q -138.69081172491545,-13 -138.69081172491545,-13 A 25.683483652762114,25.683483652762114  0 0 1 -87.32384441939122,-13 Q -87.32384441939122,0 -87.32384441939122,0" x1="847.3091882750846" y1="711"></path><path class="link" fill="none" stroke="rgb(253, 192, 134)" stroke-width="10" stroke-opacity="0" transform="scale(1, 1)" d=" M -195.1944757609921,0 Q -195.1944757609921,-13 -195.1944757609921,-13 A 92.46054114994362,92.46054114994362  0 0 1 -10.273393461104849,-13 Q -10.273393461104849,0 -10.273393461104849,0" x1="790.8055242390079" y1="711"></path><path class="link" fill="none" stroke="rgb(253, 192, 134)" stroke-width="10" stroke-opacity="0" transform="scale(1, 1)" d=" M -102.73393461104848,0 Q -102.73393461104848,-13 -102.73393461104848,-13 A 46.23027057497182,46.23027057497182  0 0 1 -10.273393461104849,-13 Q -10.273393461104849,0 -10.273393461104849,0" x1="883.2660653889516" y1="711"></path><path class="link" fill="none" stroke="rgb(253, 192, 134)" stroke-width="10" stroke-opacity="0" transform="scale(1, 1)" d=" M -102.73393461104848,0 Q -102.73393461104848,-20.29495490417137 -102.73393461104848,-20.29495490417137 A 7.7050450958286305,7.7050450958286305  0 0 1 -87.32384441939122,-20.29495490417137 Q -87.32384441939122,0 -87.32384441939122,0" x1="883.2660653889516" y1="711"></path><path class="link" fill="none" stroke="rgb(253, 192, 134)" stroke-width="10" stroke-opacity="0" transform="scale(1, 1)" d=" M -159.23759864712517,0 Q -159.23759864712517,-13 -159.23759864712517,-13 A 74.48210259301015,74.48210259301015  0 0 1 -10.273393461104849,-13 Q -10.273393461104849,0 -10.273393461104849,0" x1="826.7624013528748" y1="711"></path><path class="link" fill="none" stroke="rgb(253, 192, 134)" stroke-width="10" stroke-opacity="0" transform="scale(1, 1)" d=" M -71.91375422773395,0 Q -71.91375422773395,-13 -71.91375422773395,-13 A 30.82018038331455,30.82018038331455  0 0 1 -10.273393461104849,-13 Q -10.273393461104849,0 -10.273393461104849,0" x1="914.086245772266" y1="711"></path><path class="link" fill="none" stroke="rgb(255, 255, 153)" stroke-width="10" stroke-opacity="0" transform="scale(1, 1)" d=" M -102.73393461104848,0 Q -102.73393461104848,-13 -102.73393461104848,-13 A 115.57567643742955,115.57567643742955  0 0 1 128.41741826381062,-13 Q 128.41741826381062,0 128.41741826381062,0" x1="883.2660653889516" y1="711"></path><path class="link" fill="none" stroke="rgb(253, 192, 134)" stroke-width="10" stroke-opacity="0" transform="scale(1, 1)" d=" M -71.91375422773395,0 Q -71.91375422773395,-13 -71.91375422773395,-13 A 285.08666854565956,285.08666854565956  0 0 1 498.25958286358514,-13 Q 498.25958286358514,0 498.25958286358514,0" x1="914.086245772266" y1="711"></path><path class="link" fill="none" stroke="rgb(253, 192, 134)" stroke-width="10" stroke-opacity="0" transform="scale(1, 1)" d=" M -195.1944757609921,0 Q -195.1944757609921,-13 -195.1944757609921,-13 A 46.23027057497181,46.23027057497181  0 0 1 -102.73393461104848,-13 Q -102.73393461104848,0 -102.73393461104848,0" x1="790.8055242390079" y1="711"></path><path class="link" fill="none" stroke="rgb(253, 192, 134)" stroke-width="10" stroke-opacity="0" transform="scale(1, 1)" d=" M -87.32384441939122,0 Q -87.32384441939122,-13 -87.32384441939122,-13 A 292.7917136414882,292.7917136414882  0 0 1 498.25958286358514,-13 Q 498.25958286358514,0 498.25958286358514,0" x1="898.6761555806088" y1="711"></path><path class="link" fill="none" stroke="rgb(253, 192, 134)" stroke-width="10" stroke-opacity="0" transform="scale(1, 1)" d=" M -138.69081172491545,0 Q -138.69081172491545,-13 -138.69081172491545,-13 A 30.820180383314543,30.820180383314543  0 0 1 -77.05045095828636,-13 Q -77.05045095828636,0 -77.05045095828636,0" x1="847.3091882750846" y1="711"></path><path class="link" fill="none" stroke="rgb(253, 192, 134)" stroke-width="10" stroke-opacity="0" transform="scale(1, 1)" d=" M -10.273393461104849,0 Q -10.273393461104849,-13 -10.273393461104849,-13 A 254.26648816234498,254.26648816234498  0 0 1 498.25958286358514,-13 Q 498.25958286358514,0 498.25958286358514,0" x1="975.7266065388951" y1="711"></path><path class="link" fill="none" stroke="rgb(253, 192, 134)" stroke-width="10" stroke-opacity="0" transform="scale(1, 1)" d=" M -51.36696730552424,0 Q -51.36696730552424,-13 -51.36696730552424,-13 A 274.8132750845547,274.8132750845547  0 0 1 498.25958286358514,-13 Q 498.25958286358514,0 498.25958286358514,0" x1="934.6330326944758" y1="711"></path><path class="link" fill="none" stroke="rgb(253, 192, 134)" stroke-width="10" stroke-opacity="0" transform="scale(1, 1)" d=" M -51.36696730552424,0 Q -51.36696730552424,-13 -51.36696730552424,-13 A 20.546786922209698,20.546786922209698  0 0 1 -10.273393461104849,-13 Q -10.273393461104849,0 -10.273393461104849,0" x1="934.6330326944758" y1="711"></path><path class="link" fill="none" stroke="rgb(255, 255, 153)" stroke-width="10" stroke-opacity="0" transform="scale(1, 1)" d=" M 128.41741826381062,0 Q 128.41741826381062,-13 128.41741826381062,-13 A 184.92108229988725,184.92108229988725  0 0 1 498.25958286358514,-13 Q 498.25958286358514,0 498.25958286358514,0" x1="1114.4174182638105" y1="711"></path><path class="link" fill="none" stroke="rgb(253, 192, 134)" stroke-width="10" stroke-opacity="0" transform="scale(1, 1)" d=" M 143.8275084554679,0 Q 143.8275084554679,-13 143.8275084554679,-13 A 177.21603720405864,177.21603720405864  0 0 1 498.25958286358514,-13 Q 498.25958286358514,0 498.25958286358514,0" x1="1129.827508455468" y1="711"></path></g><g><path stroke="rgb(153, 112, 171)" class="link" fill="none" stroke-width="1.3" d=" M -143.8275084554679,0 Q -143.8275084554679,-13 -143.8275084554679,-13 A 20.546786922209705,20.546786922209705  0 0 1 -102.73393461104848,-13 Q -102.73393461104848,0 -102.73393461104848,0" transform="scale(1, 1)" x1="842.1724915445321" y1="711"></path><path stroke="rgb(153, 112, 171)" class="link" fill="none" stroke-width="1.3" d=" M -138.69081172491545,0 Q -138.69081172491545,-13 -138.69081172491545,-13 A 17.978438556933483,17.978438556933483  0 0 1 -102.73393461104848,-13 Q -102.73393461104848,0 -102.73393461104848,0" transform="scale(1, 1)" x1="847.3091882750846" y1="711"></path><path stroke="rgb(153, 112, 171)" class="link" fill="none" stroke-width="1.3" d=" M -210.6045659526494,0 Q -210.6045659526494,-13 -210.6045659526494,-13 A 354.4320744081173,354.4320744081173  0 0 1 498.25958286358514,-13 Q 498.25958286358514,0 498.25958286358514,0" transform="scale(1, 1)" x1="775.3954340473506" y1="711"></path><path stroke="rgb(153, 112, 171)" class="link" fill="none" stroke-width="1.3" d=" M -138.69081172491545,0 Q -138.69081172491545,-13 -138.69081172491545,-13 A 64.2087091319053,64.2087091319053  0 0 1 -10.273393461104849,-13 Q -10.273393461104849,0 -10.273393461104849,0" transform="scale(1, 1)" x1="847.3091882750846" y1="711"></path><path stroke="rgb(153, 112, 171)" class="link" fill="none" stroke-width="1.3" d=" M -303.06510710259306,0 Q -303.06510710259306,-13 -303.06510710259306,-13 A 146.39585682074411,146.39585682074411  0 0 1 -10.273393461104849,-13 Q -10.273393461104849,0 -10.273393461104849,0" transform="scale(1, 1)" x1="682.9348928974069" y1="711"></path><path stroke="rgb(153, 112, 171)" class="link" fill="none" stroke-width="1.3" d=" M -272.2449267192785,0 Q -272.2449267192785,-13 -272.2449267192785,-13 A 130.98576662908684,130.98576662908684  0 0 1 -10.273393461104849,-13 Q -10.273393461104849,0 -10.273393461104849,0" transform="scale(1, 1)" x1="713.7550732807215" y1="711"></path><path stroke="rgb(165, 15, 21)" class="link" fill="none" stroke-width="1.3" d=" M -10.273393461104849,0 Q -19.849957474223572,-26.311393382005434 -10.273393461104849,-28 A 0,0  0 0 1 -10.273393461104849,-28 Q -0.6968294479861257,-26.311393382005434 -10.273393461104849,0" transform="scale(1, -1)" x1="975.7266065388951" y1="711"></path><path stroke="rgb(153, 112, 171)" class="link" fill="none" stroke-width="1.3" d=" M -87.32384441939122,0 Q -87.32384441939122,-13 -87.32384441939122,-13 A 38.52522547914319,38.52522547914319  0 0 1 -10.273393461104849,-13 Q -10.273393461104849,0 -10.273393461104849,0" transform="scale(1, 1)" x1="898.6761555806088" y1="711"></path><path stroke="rgb(153, 112, 171)" class="link" fill="none" stroke-width="1.3" d=" M -138.69081172491545,0 Q -138.69081172491545,-13 -138.69081172491545,-13 A 43.661922209695604,43.661922209695604  0 0 1 -51.36696730552424,-13 Q -51.36696730552424,0 -51.36696730552424,0" transform="scale(1, 1)" x1="847.3091882750846" y1="711"></path><path stroke="rgb(153, 112, 171)" class="link" fill="none" stroke-width="1.3" d=" M -138.69081172491545,0 Q -138.69081172491545,-13 -138.69081172491545,-13 A 33.38852874859075,33.38852874859075  0 0 1 -71.91375422773395,-13 Q -71.91375422773395,0 -71.91375422773395,0" transform="scale(1, 1)" x1="847.3091882750846" y1="711"></path><path stroke="rgb(153, 112, 171)" class="link" fill="none" stroke-width="1.3" d=" M -10.273393461104849,0 Q -10.273393461104849,-13 -10.273393461104849,-13 A 77.05045095828638,77.05045095828638  0 0 1 143.8275084554679,-13 Q 143.8275084554679,0 143.8275084554679,0" transform="scale(1, 1)" x1="975.7266065388951" y1="711"></path><path stroke="rgb(153, 112, 171)" class="link" fill="none" stroke-width="1.3" d=" M -102.73393461104848,0 Q -102.73393461104848,-13 -102.73393461104848,-13 A 123.28072153325819,123.28072153325819  0 0 1 143.8275084554679,-13 Q 143.8275084554679,0 143.8275084554679,0" transform="scale(1, 1)" x1="883.2660653889516" y1="711"></path><path stroke="rgb(153, 112, 171)" class="link" fill="none" stroke-width="1.3" d=" M -303.06510710259306,0 Q -303.06510710259306,-13 -303.06510710259306,-13 A 100.16558624577229,100.16558624577229  0 0 1 -102.73393461104848,-13 Q -102.73393461104848,0 -102.73393461104848,0" transform="scale(1, 1)" x1="682.9348928974069" y1="711"></path><path stroke="rgb(153, 112, 171)" class="link" fill="none" stroke-width="1.3" d=" M -210.6045659526494,0 Q -210.6045659526494,-13 -210.6045659526494,-13 A 53.93531567080046,53.93531567080046  0 0 1 -102.73393461104848,-13 Q -102.73393461104848,0 -102.73393461104848,0" transform="scale(1, 1)" x1="775.3954340473506" y1="711"></path><path stroke="rgb(153, 112, 171)" class="link" fill="none" stroke-width="1.3" d=" M -195.1944757609921,0 Q -195.1944757609921,-13 -195.1944757609921,-13 A 346.7270293122886,346.7270293122886  0 0 1 498.25958286358514,-13 Q 498.25958286358514,0 498.25958286358514,0" transform="scale(1, 1)" x1="790.8055242390079" y1="711"></path><path stroke="rgb(153, 112, 171)" class="link" fill="none" stroke-width="1.3" d=" M -272.2449267192785,0 Q -272.2449267192785,-13 -272.2449267192785,-13 A 84.75549605411501,84.75549605411501  0 0 1 -102.73393461104848,-13 Q -102.73393461104848,0 -102.73393461104848,0" transform="scale(1, 1)" x1="713.7550732807215" y1="711"></path><path stroke="rgb(153, 112, 171)" class="link" fill="none" stroke-width="1.3" d=" M -272.2449267192785,0 Q -272.2449267192785,-13 -272.2449267192785,-13 A 385.2522547914318,385.2522547914318  0 0 1 498.25958286358514,-13 Q 498.25958286358514,0 498.25958286358514,0" transform="scale(1, 1)" x1="713.7550732807215" y1="711"></path><path stroke="rgb(153, 112, 171)" class="link" fill="none" stroke-width="1.3" d=" M -138.69081172491545,0 Q -138.69081172491545,-13 -138.69081172491545,-13 A 25.683483652762114,25.683483652762114  0 0 1 -87.32384441939122,-13 Q -87.32384441939122,0 -87.32384441939122,0" transform="scale(1, 1)" x1="847.3091882750846" y1="711"></path><path stroke="rgb(153, 112, 171)" class="link" fill="none" stroke-width="1.3" d=" M -195.1944757609921,0 Q -195.1944757609921,-13 -195.1944757609921,-13 A 92.46054114994362,92.46054114994362  0 0 1 -10.273393461104849,-13 Q -10.273393461104849,0 -10.273393461104849,0" transform="scale(1, 1)" x1="790.8055242390079" y1="711"></path><path stroke="rgb(153, 112, 171)" class="link" fill="none" stroke-width="1.3" d=" M -102.73393461104848,0 Q -102.73393461104848,-13 -102.73393461104848,-13 A 46.23027057497182,46.23027057497182  0 0 1 -10.273393461104849,-13 Q -10.273393461104849,0 -10.273393461104849,0" transform="scale(1, 1)" x1="883.2660653889516" y1="711"></path><path stroke="rgb(153, 112, 171)" class="link" fill="none" stroke-width="1.3" d=" M -102.73393461104848,0 Q -102.73393461104848,-20.29495490417137 -102.73393461104848,-20.29495490417137 A 7.7050450958286305,7.7050450958286305  0 0 1 -87.32384441939122,-20.29495490417137 Q -87.32384441939122,0 -87.32384441939122,0" transform="scale(1, 1)" x1="883.2660653889516" y1="711"></path><path stroke="rgb(153, 112, 171)" class="link" fill="none" stroke-width="1.3" d=" M -159.23759864712517,0 Q -159.23759864712517,-13 -159.23759864712517,-13 A 74.48210259301015,74.48210259301015  0 0 1 -10.273393461104849,-13 Q -10.273393461104849,0 -10.273393461104849,0" transform="scale(1, 1)" x1="826.7624013528748" y1="711"></path><path stroke="rgb(153, 112, 171)" class="link" fill="none" stroke-width="1.3" d=" M -71.91375422773395,0 Q -71.91375422773395,-13 -71.91375422773395,-13 A 30.82018038331455,30.82018038331455  0 0 1 -10.273393461104849,-13 Q -10.273393461104849,0 -10.273393461104849,0" transform="scale(1, 1)" x1="914.086245772266" y1="711"></path><path stroke="rgb(153, 112, 171)" class="link" fill="none" stroke-width="1.3" d=" M -102.73393461104848,0 Q -102.73393461104848,-13 -102.73393461104848,-13 A 115.57567643742955,115.57567643742955  0 0 1 128.41741826381062,-13 Q 128.41741826381062,0 128.41741826381062,0" transform="scale(1, 1)" x1="883.2660653889516" y1="711"></path><path stroke="rgb(153, 112, 171)" class="link" fill="none" stroke-width="1.3" d=" M -71.91375422773395,0 Q -71.91375422773395,-13 -71.91375422773395,-13 A 285.08666854565956,285.08666854565956  0 0 1 498.25958286358514,-13 Q 498.25958286358514,0 498.25958286358514,0" transform="scale(1, 1)" x1="914.086245772266" y1="711"></path><path stroke="rgb(153, 112, 171)" class="link" fill="none" stroke-width="1.3" d=" M -195.1944757609921,0 Q -195.1944757609921,-13 -195.1944757609921,-13 A 46.23027057497181,46.23027057497181  0 0 1 -102.73393461104848,-13 Q -102.73393461104848,0 -102.73393461104848,0" transform="scale(1, 1)" x1="790.8055242390079" y1="711"></path><path stroke="rgb(153, 112, 171)" class="link" fill="none" stroke-width="1.3" d=" M -87.32384441939122,0 Q -87.32384441939122,-13 -87.32384441939122,-13 A 292.7917136414882,292.7917136414882  0 0 1 498.25958286358514,-13 Q 498.25958286358514,0 498.25958286358514,0" transform="scale(1, 1)" x1="898.6761555806088" y1="711"></path><path stroke="rgb(153, 112, 171)" class="link" fill="none" stroke-width="1.3" d=" M -138.69081172491545,0 Q -138.69081172491545,-13 -138.69081172491545,-13 A 30.820180383314543,30.820180383314543  0 0 1 -77.05045095828636,-13 Q -77.05045095828636,0 -77.05045095828636,0" transform="scale(1, 1)" x1="847.3091882750846" y1="711"></path><path stroke="rgb(153, 112, 171)" class="link" fill="none" stroke-width="1.3" d=" M -10.273393461104849,0 Q -10.273393461104849,-13 -10.273393461104849,-13 A 254.26648816234498,254.26648816234498  0 0 1 498.25958286358514,-13 Q 498.25958286358514,0 498.25958286358514,0" transform="scale(1, 1)" x1="975.7266065388951" y1="711"></path><path stroke="rgb(153, 112, 171)" class="link" fill="none" stroke-width="1.3" d=" M -51.36696730552424,0 Q -51.36696730552424,-13 -51.36696730552424,-13 A 274.8132750845547,274.8132750845547  0 0 1 498.25958286358514,-13 Q 498.25958286358514,0 498.25958286358514,0" transform="scale(1, 1)" x1="934.6330326944758" y1="711"></path><path stroke="rgb(153, 112, 171)" class="link" fill="none" stroke-width="1.3" d=" M -51.36696730552424,0 Q -51.36696730552424,-13 -51.36696730552424,-13 A 20.546786922209698,20.546786922209698  0 0 1 -10.273393461104849,-13 Q -10.273393461104849,0 -10.273393461104849,0" transform="scale(1, 1)" x1="934.6330326944758" y1="711"></path><path stroke="rgb(153, 112, 171)" class="link" fill="none" stroke-width="1.3" d=" M 128.41741826381062,0 Q 128.41741826381062,-13 128.41741826381062,-13 A 184.92108229988725,184.92108229988725  0 0 1 498.25958286358514,-13 Q 498.25958286358514,0 498.25958286358514,0" transform="scale(1, 1)" x1="1114.4174182638105" y1="711"></path><path stroke="rgb(153, 112, 171)" class="link" fill="none" stroke-width="1.3" d=" M 143.8275084554679,0 Q 143.8275084554679,-13 143.8275084554679,-13 A 177.21603720405864,177.21603720405864  0 0 1 498.25958286358514,-13 Q 498.25958286358514,0 498.25958286358514,0" transform="scale(1, 1)" x1="1129.827508455468" y1="711"></path></g><text text-anchor="end" fill="black" x="0" y="10" class="protein xlv_text proteinLabel" font-family="Arial" font-size="16" transform="matrix(1 0 0 1 -518.533 -5)">YP_009725304.1</text><rect stroke="black" stroke-width="1" fill="#ffffff" ry="0" rx="0" height="20" width="1017.06595264938" y="-10" x="-505.9646279594138" fill-opacity="0" stroke-opacity="1"></rect><g opacity="1" transform="scale(1,1)"><g transform="translate(-503.3962795941376 0)"><text class="protein xlv_text proteinLabel" font-family="'Courier New', monospace" font-size="14" text-anchor="middle" x="0" y="24" transform="scale(1,1)">1</text></g><line x1="-457.1660090191658" y1="5" x2="-457.1660090191658" y2="10" stroke="black"></line><line x1="-405.79904171364154" y1="5" x2="-405.79904171364154" y2="10" stroke="black"></line><g transform="translate(-405.79904171364154 0)"><text class="protein xlv_text proteinLabel" font-family="'Courier New', monospace" font-size="14" text-anchor="middle" x="0" y="24" transform="scale(1,1)">20</text></g><line x1="-354.43207440811733" y1="5" x2="-354.43207440811733" y2="10" stroke="black"></line><line x1="-303.06510710259306" y1="5" x2="-303.06510710259306" y2="10" stroke="black"></line><g transform="translate(-303.06510710259306 0)"><text class="protein xlv_text proteinLabel" font-family="'Courier New', monospace" font-size="14" text-anchor="middle" x="0" y="24" transform="scale(1,1)">40</text></g><line x1="-251.6981397970688" y1="5" x2="-251.6981397970688" y2="10" stroke="black"></line><line x1="-200.33117249154455" y1="5" x2="-200.33117249154455" y2="10" stroke="black"></line><g transform="translate(-200.33117249154455 0)"><text class="protein xlv_text proteinLabel" font-family="'Courier New', monospace" font-size="14" text-anchor="middle" x="0" y="24" transform="scale(1,1)">60</text></g><line x1="-148.9642051860203" y1="5" x2="-148.9642051860203" y2="10" stroke="black"></line><line x1="-97.59723788049605" y1="5" x2="-97.59723788049605" y2="10" stroke="black"></line><g transform="translate(-97.59723788049605 0)"><text class="protein xlv_text proteinLabel" font-family="'Courier New', monospace" font-size="14" text-anchor="middle" x="0" y="24" transform="scale(1,1)">80</text></g><line x1="-46.230270574971826" y1="5" x2="-46.230270574971826" y2="10" stroke="black"></line><line x1="5.1366967305524245" y1="5" x2="5.1366967305524245" y2="10" stroke="black"></line><g transform="translate(5.1366967305524245 0)"><text class="protein xlv_text proteinLabel" font-family="'Courier New', monospace" font-size="14" text-anchor="middle" x="0" y="24" transform="scale(1,1)">100</text></g><line x1="56.50366403607667" y1="5" x2="56.50366403607667" y2="10" stroke="black"></line><line x1="107.87063134160091" y1="5" x2="107.87063134160091" y2="10" stroke="black"></line><g transform="translate(107.87063134160091 0)"><text class="protein xlv_text proteinLabel" font-family="'Courier New', monospace" font-size="14" text-anchor="middle" x="0" y="24" transform="scale(1,1)">120</text></g><line x1="159.23759864712517" y1="5" x2="159.23759864712517" y2="10" stroke="black"></line><line x1="210.6045659526494" y1="5" x2="210.6045659526494" y2="10" stroke="black"></line><g transform="translate(210.6045659526494 0)"><text class="protein xlv_text proteinLabel" font-family="'Courier New', monospace" font-size="14" text-anchor="middle" x="0" y="24" transform="scale(1,1)">140</text></g><line x1="261.9715332581737" y1="5" x2="261.9715332581737" y2="10" stroke="black"></line><line x1="313.3385005636979" y1="5" x2="313.3385005636979" y2="10" stroke="black"></line><g transform="translate(313.3385005636979 0)"><text class="protein xlv_text proteinLabel" font-family="'Courier New', monospace" font-size="14" text-anchor="middle" x="0" y="24" transform="scale(1,1)">160</text></g><line x1="364.70546786922216" y1="5" x2="364.70546786922216" y2="10" stroke="black"></line><line x1="416.0724351747464" y1="5" x2="416.0724351747464" y2="10" stroke="black"></line><g transform="translate(416.0724351747464 0)"><text class="protein xlv_text proteinLabel" font-family="'Courier New', monospace" font-size="14" text-anchor="middle" x="0" y="24" transform="scale(1,1)">180</text></g><line x1="467.43940248027064" y1="5" x2="467.43940248027064" y2="10" stroke="black"></line><g transform="translate(508.53297632469 0)"><text class="protein xlv_text proteinLabel" font-family="'Courier New', monospace" font-size="14" text-anchor="middle" x="0" y="24" transform="scale(1,1)">198</text></g></g><g opacity="0" transform=""></g><g transform="translate(-523.4646279594137 0)"><circle r="14" stroke="none" fill="gray" fill-opacity="0.0"></circle><g class="PV_rotator"><g transform="rotate(45) scale (0.7, 0.7)" display="none"><circle r="20" stroke="black" stroke-width="1" fill="none"></circle><path d="M 19.818182,-3 L 16,3.10345 L 23.636363,3.10345 L 19.818182,-3 z " stroke="black" stroke-width="1" fill="black"></path><path d="M 19.818182,-3 L 16,3.10345 L 23.636363,3.10345 L 19.818182,-3 z " stroke="black" stroke-width="1" fill="black" transform="rotate(180)"></path></g></g></g><g transform="translate(528.6013246899662 0)"><circle r="14" stroke="none" fill="gray" fill-opacity="0.0"></circle><g class="PV_rotator"><g transform="rotate(45) scale (0.7, 0.7)" display="none"><circle r="20" stroke="black" stroke-width="1" fill="none"></circle><path d="M 19.818182,-3 L 16,3.10345 L 23.636363,3.10345 L 19.818182,-3 z " stroke="black" stroke-width="1" fill="black"></path><path d="M 19.818182,-3 L 16,3.10345 L 23.636363,3.10345 L 19.818182,-3 z " stroke="black" stroke-width="1" fill="black" transform="rotate(180)"></path></g></g></g></g></g></g><rect fill="white" stroke="white" class="tooltip_bg" opacity="1" stroke-width="1" display="none" x="345" y="28" width="643.28125" height="28"></rect><rect class="tooltip_bg" fill-opacity="0.75" stroke-opacity="1" stroke-width="1" display="none" x="345" y="28" width="643.28125" fill="white" stroke="grey" height="28"></rect><text x="351" y="47" display="none">YP_009725304.1_124-YP_009725304.1_196 (1 match), top score:81.57</text></svg>