<?xml version="1.0" encoding="utf-8" standalone="no"?>
<!DOCTYPE svg PUBLIC "-//W3C//DTD SVG 1.1//EN"
  "http://www.w3.org/Graphics/SVG/1.1/DTD/svg11.dtd">
<svg xmlns:xlink="http://www.w3.org/1999/xlink" width="460.8pt" height="345.6pt" viewBox="0 0 460.8 345.6" xmlns="http://www.w3.org/2000/svg" version="1.1">
 <metadata>
  <rdf:RDF xmlns:dc="http://purl.org/dc/elements/1.1/" xmlns:cc="http://creativecommons.org/ns#" xmlns:rdf="http://www.w3.org/1999/02/22-rdf-syntax-ns#">
   <cc:Work>
    <dc:type rdf:resource="http://purl.org/dc/dcmitype/StillImage"/>
    <dc:date>2022-08-11T14:33:23.407401</dc:date>
    <dc:format>image/svg+xml</dc:format>
    <dc:creator>
     <cc:Agent>
      <dc:title>Matplotlib v3.5.1, https://matplotlib.org/</dc:title>
     </cc:Agent>
    </dc:creator>
   </cc:Work>
  </rdf:RDF>
 </metadata>
 <defs>
  <style type="text/css">*{stroke-linejoin: round; stroke-linecap: butt}</style>
 </defs>
 <g id="figure_1">
  <g id="patch_1">
   <path d="M 0 345.6 
L 460.8 345.6 
L 460.8 0 
L 0 0 
z
" style="fill: #ffffff"/>
  </g>
  <g id="axes_1">
   <g id="patch_2">
    <path d="M 57.6 307.584 
L 414.72 307.584 
L 414.72 41.472 
L 57.6 41.472 
z
" style="fill: #ffffff"/>
   </g>
   <g id="PolyCollection_1">
    <path d="M 73.832727 81.762462 
L 73.832727 307.584 
L 73.864973 307.584 
L 74.090697 307.584 
L 74.574389 307.584 
L 74.961344 307.584 
L 75.928729 307.584 
L 75.993221 307.584 
L 76.073837 307.584 
L 76.992853 307.584 
L 77.105715 307.584 
L 77.18633 307.584 
L 77.927992 307.584 
L 78.669654 307.584 
L 79.104978 307.584 
L 79.395193 307.584 
L 79.508055 307.584 
L 79.766024 307.584 
L 79.911132 307.584 
L 80.120732 307.584 
L 80.362579 307.584 
L 80.378702 307.584 
L 80.507687 307.584 
L 80.668918 307.584 
L 81.023626 307.584 
L 81.41058 307.584 
L 81.926519 307.584 
L 82.490827 307.584 
L 82.603688 307.584 
L 82.668181 307.584 
L 82.684304 307.584 
L 82.781042 307.584 
L 82.974519 307.584 
L 83.877413 307.584 
L 84.506213 307.584 
L 84.619075 307.584 
L 85.521968 307.584 
L 85.779937 307.584 
L 85.812183 307.584 
L 86.586092 307.584 
L 87.472862 307.584 
L 88.198401 307.584 
L 89.423756 307.584 
L 89.665602 307.584 
L 90.213787 307.584 
L 90.375018 307.584 
L 92.245296 307.584 
L 92.325912 307.584 
L 93.148189 307.584 
L 95.195822 307.584 
L 95.792376 307.584 
L 96.550161 307.584 
L 96.582408 307.584 
L 96.920993 307.584 
L 97.549793 307.584 
L 97.711024 307.584 
L 97.775516 307.584 
L 97.968993 307.584 
L 98.533302 307.584 
L 100.210103 307.584 
L 101.209735 307.584 
L 102.547951 307.584 
L 103.563706 307.584 
L 103.789429 307.584 
L 103.821675 307.584 
L 103.886168 307.584 
L 104.434353 307.584 
L 106.417493 307.584 
L 106.949555 307.584 
L 106.997924 307.584 
L 107.546109 307.584 
L 107.755709 307.584 
L 107.91694 307.584 
L 109.416387 307.584 
L 109.948449 307.584 
L 109.996819 307.584 
L 110.15805 307.584 
L 110.416019 307.584 
L 110.867466 307.584 
L 112.737744 307.584 
L 112.786113 307.584 
L 113.898607 307.584 
L 114.495161 307.584 
L 114.591899 307.584 
L 114.608023 307.584 
L 114.720884 307.584 
L 114.785377 307.584 
L 115.2207 307.584 
L 115.559285 307.584 
L 116.31707 307.584 
L 116.833009 307.584 
L 117.268332 307.584 
L 117.913256 307.584 
L 119.65455 307.584 
L 119.993135 307.584 
L 120.251104 307.584 
L 120.670304 307.584 
L 121.863413 307.584 
L 122.024644 307.584 
L 122.959783 307.584 
L 123.507968 307.584 
L 123.540215 307.584 
L 123.653076 307.584 
L 124.652708 307.584 
L 125.442739 307.584 
L 125.894186 307.584 
L 126.087663 307.584 
L 126.152155 307.584 
L 126.28114 307.584 
L 127.345264 307.584 
L 127.909572 307.584 
L 130.263543 307.584 
L 130.521513 307.584 
L 131.537267 307.584 
L 133.197946 307.584 
L 134.278193 307.584 
L 134.326562 307.584 
L 136.761149 307.584 
L 137.148103 307.584 
L 138.341211 307.584 
L 139.276351 307.584 
L 142.226876 307.584 
L 142.678323 307.584 
L 142.855677 307.584 
L 143.258754 307.584 
L 143.7102 307.584 
L 144.193893 307.584 
L 144.677586 307.584 
L 145.757833 307.584 
L 146.177033 307.584 
L 146.386633 307.584 
L 146.41888 307.584 
L 146.499495 307.584 
L 147.837712 307.584 
L 149.127559 307.584 
L 149.514513 307.584 
L 150.481898 307.584 
L 151.06233 307.584 
L 152.239315 307.584 
L 152.868116 307.584 
L 153.561409 307.584 
L 153.593655 307.584 
L 153.88387 307.584 
L 154.061224 307.584 
L 154.093471 307.584 
L 154.496548 307.584 
L 154.625533 307.584 
L 154.883502 307.584 
L 155.44781 307.584 
L 156.495811 307.584 
L 156.721534 307.584 
L 158.753044 307.584 
L 158.849782 307.584 
L 159.784921 307.584 
L 160.123506 307.584 
L 160.30086 307.584 
L 160.752307 307.584 
L 160.97803 307.584 
L 161.993785 307.584 
L 162.300124 307.584 
L 162.445231 307.584 
L 163.009539 307.584 
L 163.912433 307.584 
L 165.782711 307.584 
L 165.976188 307.584 
L 166.04068 307.584 
L 166.476004 307.584 
L 166.540496 307.584 
L 166.991943 307.584 
L 167.024189 307.584 
L 167.781974 307.584 
L 168.217298 307.584 
L 171.425793 307.584 
L 172.119085 307.584 
L 172.796255 307.584 
L 173.425056 307.584 
L 174.053856 307.584 
L 174.150595 307.584 
L 174.360195 307.584 
L 174.634288 307.584 
L 175.101857 307.584 
L 175.359827 307.584 
L 175.440442 307.584 
L 175.553304 307.584 
L 175.730658 307.584 
L 176.423951 307.584 
L 177.165613 307.584 
L 178.971399 307.584 
L 179.293861 307.584 
L 179.777553 307.584 
L 181.099647 307.584 
L 181.438232 307.584 
L 181.954171 307.584 
L 182.937679 307.584 
L 183.211772 307.584 
L 183.77608 307.584 
L 184.082418 307.584 
L 184.485496 307.584 
L 184.501619 307.584 
L 185.227158 307.584 
L 185.275527 307.584 
L 185.888205 307.584 
L 186.952329 307.584 
L 187.032944 307.584 
L 187.081313 307.584 
L 188.064822 307.584 
L 188.258299 307.584 
L 188.290545 307.584 
L 189.419161 307.584 
L 190.064085 307.584 
L 190.1447 307.584 
L 190.322054 307.584 
L 192.708272 307.584 
L 192.756641 307.584 
L 193.27258 307.584 
L 194.175473 307.584 
L 194.675289 307.584 
L 194.884889 307.584 
L 195.513689 307.584 
L 195.610428 307.584 
L 195.642674 307.584 
L 195.852274 307.584 
L 195.93289 307.584 
L 196.013505 307.584 
L 196.35209 307.584 
L 196.980891 307.584 
L 197.674184 307.584 
L 198.528707 307.584 
L 198.738308 307.584 
L 199.157508 307.584 
L 201.237386 307.584 
L 201.382494 307.584 
L 202.494988 307.584 
L 204.042804 307.584 
L 204.96182 307.584 
L 205.090805 307.584 
L 205.171421 307.584 
L 205.332651 307.584 
L 205.413267 307.584 
L 205.606744 307.584 
L 206.558006 307.584 
L 206.654745 307.584 
L 207.251299 307.584 
L 208.073577 307.584 
L 208.2993 307.584 
L 208.654008 307.584 
L 209.105455 307.584 
L 209.379547 307.584 
L 209.959978 307.584 
L 210.443671 307.584 
L 211.104718 307.584 
L 212.201088 307.584 
L 212.26558 307.584 
L 214.200351 307.584 
L 214.393828 307.584 
L 215.006506 307.584 
L 215.828783 307.584 
L 216.264107 307.584 
L 216.328599 307.584 
L 217.295984 307.584 
L 218.456847 307.584 
L 218.537462 307.584 
L 218.908293 307.584 
L 219.375863 307.584 
L 219.811186 307.584 
L 220.004664 307.584 
L 221.165526 307.584 
L 221.713711 307.584 
L 222.423127 307.584 
L 222.471496 307.584 
L 223.019681 307.584 
L 223.406636 307.584 
L 224.503006 307.584 
L 224.986698 307.584 
L 226.921469 307.584 
L 226.985962 307.584 
L 228.43704 307.584 
L 230.049349 307.584 
L 230.581411 307.584 
L 230.597534 307.584 
L 231.677781 307.584 
L 232.161474 307.584 
L 232.177597 307.584 
L 235.627938 307.584 
L 235.869784 307.584 
L 236.143877 307.584 
L 236.192246 307.584 
L 236.514708 307.584 
L 237.498216 307.584 
L 237.756186 307.584 
L 237.885171 307.584 
L 238.546217 307.584 
L 238.61071 307.584 
L 239.368495 307.584 
L 240.174649 307.584 
L 240.206896 307.584 
L 240.400373 307.584 
L 240.448742 307.584 
L 241.464497 307.584 
L 242.222282 307.584 
L 243.899083 307.584 
L 246.511024 307.584 
L 248.010471 307.584 
L 248.10721 307.584 
L 248.187825 307.584 
L 248.73601 307.584 
L 248.816626 307.584 
L 249.010103 307.584 
L 249.493796 307.584 
L 251.267336 307.584 
L 252.089613 307.584 
L 252.137982 307.584 
L 252.412075 307.584 
L 255.007893 307.584 
L 255.443216 307.584 
L 257.329618 307.584 
L 257.797187 307.584 
L 258.361495 307.584 
L 258.941927 307.584 
L 258.990296 307.584 
L 259.119281 307.584 
L 260.070543 307.584 
L 260.135035 307.584 
L 260.812205 307.584 
L 261.698975 307.584 
L 262.005314 307.584 
L 262.843714 307.584 
L 264.101315 307.584 
L 265.890978 307.584 
L 266.052209 307.584 
L 266.310179 307.584 
L 269.421935 307.584 
L 270.276459 307.584 
L 270.373198 307.584 
L 271.469568 307.584 
L 272.453076 307.584 
L 274.049262 307.584 
L 278.450866 307.584 
L 279.25702 307.584 
L 279.676221 307.584 
L 280.159913 307.584 
L 281.369145 307.584 
L 281.91733 307.584 
L 282.481638 307.584 
L 282.530008 307.584 
L 284.206809 307.584 
L 285.46441 307.584 
L 286.576903 307.584 
L 287.044473 307.584 
L 287.850627 307.584 
L 288.092474 307.584 
L 288.447182 307.584 
L 289.172721 307.584 
L 289.204967 307.584 
L 291.107492 307.584 
L 292.252231 307.584 
L 297.701836 307.584 
L 300.217038 307.584 
L 301.63587 307.584 
L 303.135317 307.584 
L 304.489657 307.584 
L 304.876611 307.584 
L 306.90812 307.584 
L 307.230582 307.584 
L 307.956121 307.584 
L 308.230213 307.584 
L 312.43834 307.584 
L 313.341233 307.584 
L 313.824926 307.584 
L 318.887576 307.584 
L 327.174845 307.584 
L 330.33497 307.584 
L 333.269373 307.584 
L 333.946542 307.584 
L 335.139651 307.584 
L 342.830365 307.584 
L 342.910981 307.584 
L 360.194933 307.584 
L 366.8054 307.584 
L 394.424254 307.584 
L 397.648872 307.584 
L 398.487273 307.584 
L 398.487273 307.042462 
L 398.487273 307.042462 
L 397.648872 306.500923 
L 394.424254 305.959385 
L 366.8054 305.417846 
L 360.194933 304.876308 
L 342.910981 304.334769 
L 342.830365 303.793231 
L 335.139651 303.251692 
L 333.946542 302.710154 
L 333.269373 302.168615 
L 330.33497 301.627077 
L 327.174845 301.085538 
L 318.887576 300.544 
L 313.824926 300.002462 
L 313.341233 299.460923 
L 312.43834 298.919385 
L 308.230213 298.377846 
L 307.956121 297.294769 
L 307.230582 296.753231 
L 306.90812 296.211692 
L 304.876611 295.670154 
L 304.489657 295.128615 
L 303.135317 294.587077 
L 301.63587 294.045538 
L 300.217038 293.504 
L 297.701836 292.962462 
L 292.252231 292.420923 
L 291.107492 291.879385 
L 289.204967 291.337846 
L 289.172721 290.796308 
L 288.447182 290.254769 
L 288.092474 289.713231 
L 287.850627 288.630154 
L 287.044473 288.088615 
L 286.576903 287.547077 
L 285.46441 287.005538 
L 284.206809 286.464 
L 282.530008 285.922462 
L 282.481638 285.380923 
L 281.91733 284.839385 
L 281.369145 284.297846 
L 280.159913 283.214769 
L 279.676221 282.673231 
L 279.25702 282.131692 
L 278.450866 281.590154 
L 274.049262 281.048615 
L 272.453076 280.507077 
L 271.469568 279.424 
L 270.373198 278.882462 
L 270.276459 278.340923 
L 269.421935 277.799385 
L 266.310179 277.257846 
L 266.052209 276.716308 
L 265.890978 276.174769 
L 264.101315 275.633231 
L 262.843714 275.091692 
L 262.005314 274.008615 
L 261.698975 272.925538 
L 260.812205 272.384 
L 260.135035 271.842462 
L 260.070543 271.300923 
L 259.119281 270.759385 
L 258.990296 270.217846 
L 258.941927 269.134769 
L 258.361495 268.593231 
L 257.797187 268.593231 
L 257.329618 268.051692 
L 255.443216 267.510154 
L 255.007893 266.968615 
L 252.412075 266.427077 
L 252.137982 265.885538 
L 252.089613 265.344 
L 251.267336 264.260923 
L 249.493796 263.719385 
L 249.010103 261.553231 
L 248.816626 261.011692 
L 248.73601 260.470154 
L 248.187825 259.928615 
L 248.10721 259.387077 
L 248.010471 258.304 
L 246.511024 257.762462 
L 243.899083 257.220923 
L 242.222282 256.679385 
L 241.464497 256.137846 
L 240.448742 255.596308 
L 240.400373 255.054769 
L 240.206896 254.513231 
L 240.174649 253.971692 
L 239.368495 253.430154 
L 238.61071 252.347077 
L 238.546217 251.264 
L 237.885171 250.722462 
L 237.756186 250.180923 
L 237.498216 249.639385 
L 236.514708 248.556308 
L 236.192246 248.014769 
L 236.143877 247.473231 
L 235.869784 246.931692 
L 235.627938 245.848615 
L 232.177597 245.307077 
L 232.161474 244.765538 
L 231.677781 244.224 
L 230.597534 242.599385 
L 230.581411 242.057846 
L 230.049349 241.516308 
L 228.43704 240.433231 
L 226.985962 239.891692 
L 226.921469 239.350154 
L 224.986698 238.808615 
L 224.503006 238.267077 
L 223.406636 237.725538 
L 223.019681 237.184 
L 222.471496 236.100923 
L 222.423127 235.559385 
L 221.713711 235.017846 
L 221.165526 234.476308 
L 220.004664 233.934769 
L 219.811186 233.393231 
L 219.375863 232.851692 
L 218.908293 232.310154 
L 218.537462 231.768615 
L 218.456847 229.602462 
L 217.295984 229.060923 
L 216.328599 228.519385 
L 216.264107 227.977846 
L 215.828783 227.436308 
L 215.006506 226.894769 
L 214.393828 226.353231 
L 214.200351 225.811692 
L 212.26558 225.270154 
L 212.201088 224.728615 
L 211.104718 224.187077 
L 210.443671 223.104 
L 209.959978 222.562462 
L 209.379547 220.396308 
L 209.105455 219.854769 
L 208.654008 219.313231 
L 208.2993 218.771692 
L 208.073577 218.230154 
L 207.251299 216.605538 
L 206.654745 215.522462 
L 206.558006 214.980923 
L 205.606744 214.439385 
L 205.413267 213.897846 
L 205.332651 212.814769 
L 205.171421 212.273231 
L 205.090805 211.731692 
L 204.96182 211.190154 
L 204.042804 210.648615 
L 202.494988 210.107077 
L 201.382494 209.024 
L 201.237386 208.482462 
L 199.157508 207.940923 
L 198.738308 207.399385 
L 198.528707 206.857846 
L 197.674184 206.316308 
L 196.980891 205.233231 
L 196.35209 203.067077 
L 196.013505 202.525538 
L 195.93289 201.984 
L 195.852274 201.442462 
L 195.642674 200.900923 
L 195.610428 200.359385 
L 195.513689 199.817846 
L 194.884889 198.734769 
L 194.675289 198.193231 
L 194.175473 197.651692 
L 193.27258 197.110154 
L 192.756641 196.568615 
L 192.708272 196.027077 
L 190.322054 194.944 
L 190.1447 193.860923 
L 190.064085 193.319385 
L 189.419161 192.777846 
L 188.290545 192.236308 
L 188.258299 191.694769 
L 188.064822 191.153231 
L 187.081313 190.611692 
L 187.032944 189.528615 
L 186.952329 188.445538 
L 185.888205 187.362462 
L 185.275527 186.820923 
L 185.227158 186.279385 
L 184.501619 185.196308 
L 184.485496 184.113231 
L 184.082418 183.571692 
L 183.77608 183.030154 
L 183.211772 182.488615 
L 182.937679 181.947077 
L 181.954171 180.864 
L 181.438232 180.864 
L 181.099647 180.322462 
L 179.777553 179.780923 
L 179.293861 179.239385 
L 178.971399 178.156308 
L 177.165613 177.614769 
L 176.423951 177.073231 
L 175.730658 176.531692 
L 175.553304 175.990154 
L 175.440442 175.448615 
L 175.359827 174.907077 
L 175.101857 174.365538 
L 174.634288 173.824 
L 174.360195 173.282462 
L 174.150595 172.740923 
L 174.053856 172.199385 
L 173.425056 171.116308 
L 172.796255 170.033231 
L 172.119085 169.491692 
L 171.425793 168.950154 
L 168.217298 168.408615 
L 167.781974 167.867077 
L 167.024189 166.784 
L 166.991943 166.242462 
L 166.540496 165.700923 
L 166.476004 165.159385 
L 166.04068 164.617846 
L 165.976188 164.076308 
L 165.782711 162.993231 
L 163.912433 162.993231 
L 163.009539 162.451692 
L 162.445231 161.910154 
L 162.300124 161.368615 
L 161.993785 160.827077 
L 160.97803 160.285538 
L 160.752307 159.744 
L 160.30086 159.202462 
L 160.123506 158.660923 
L 159.784921 157.577846 
L 158.849782 157.036308 
L 158.753044 156.494769 
L 156.721534 155.953231 
L 156.495811 155.411692 
L 155.44781 154.870154 
L 154.883502 154.328615 
L 154.625533 153.787077 
L 154.496548 152.704 
L 154.093471 152.162462 
L 154.061224 151.620923 
L 153.88387 151.079385 
L 153.593655 150.537846 
L 153.561409 149.996308 
L 152.868116 148.913231 
L 152.239315 148.913231 
L 151.06233 148.371692 
L 150.481898 147.830154 
L 149.514513 147.288615 
L 149.127559 146.205538 
L 147.837712 145.664 
L 146.499495 145.122462 
L 146.41888 144.580923 
L 146.386633 144.039385 
L 146.177033 143.497846 
L 145.757833 143.497846 
L 144.677586 141.873231 
L 144.193893 141.331692 
L 143.7102 140.790154 
L 143.258754 139.707077 
L 142.855677 139.165538 
L 142.678323 138.624 
L 142.226876 138.082462 
L 139.276351 137.540923 
L 138.341211 136.457846 
L 137.148103 135.916308 
L 136.761149 135.374769 
L 134.326562 134.833231 
L 134.278193 134.291692 
L 133.197946 133.208615 
L 131.537267 132.667077 
L 130.521513 132.125538 
L 130.263543 131.584 
L 127.909572 130.500923 
L 127.345264 129.959385 
L 126.28114 129.417846 
L 126.152155 129.417846 
L 126.087663 127.793231 
L 125.894186 127.251692 
L 125.442739 126.710154 
L 124.652708 126.710154 
L 123.653076 126.168615 
L 123.540215 126.168615 
L 123.507968 125.627077 
L 122.959783 125.627077 
L 122.024644 125.085538 
L 121.863413 124.544 
L 120.670304 124.002462 
L 120.251104 123.460923 
L 119.993135 122.919385 
L 119.65455 122.919385 
L 117.913256 121.294769 
L 117.268332 120.753231 
L 116.833009 120.211692 
L 116.31707 119.670154 
L 115.559285 119.128615 
L 115.2207 119.128615 
L 114.785377 118.587077 
L 114.720884 118.045538 
L 114.608023 117.504 
L 114.591899 116.420923 
L 114.495161 115.879385 
L 113.898607 114.796308 
L 112.786113 114.254769 
L 112.737744 113.713231 
L 110.867466 113.713231 
L 110.416019 113.171692 
L 110.15805 112.630154 
L 109.996819 112.088615 
L 109.948449 111.547077 
L 109.416387 111.005538 
L 107.91694 110.464 
L 107.755709 109.922462 
L 107.546109 109.380923 
L 106.997924 108.839385 
L 106.949555 108.839385 
L 106.417493 108.297846 
L 104.434353 107.756308 
L 103.886168 107.214769 
L 103.821675 106.673231 
L 103.789429 106.131692 
L 103.563706 105.590154 
L 102.547951 105.048615 
L 101.209735 104.507077 
L 100.210103 104.507077 
L 98.533302 103.965538 
L 97.968993 103.424 
L 97.775516 102.882462 
L 97.711024 102.340923 
L 97.549793 101.799385 
L 96.920993 101.799385 
L 96.582408 101.257846 
L 96.550161 100.716308 
L 95.792376 100.174769 
L 95.195822 99.633231 
L 93.148189 98.550154 
L 92.325912 98.008615 
L 92.245296 97.467077 
L 90.375018 97.467077 
L 90.213787 96.925538 
L 89.665602 96.384 
L 89.423756 95.842462 
L 88.198401 95.300923 
L 87.472862 94.759385 
L 86.586092 94.759385 
L 85.812183 94.217846 
L 85.779937 94.217846 
L 85.521968 93.676308 
L 84.619075 93.134769 
L 84.506213 92.593231 
L 83.877413 92.051692 
L 82.974519 92.051692 
L 82.781042 90.968615 
L 82.684304 89.885538 
L 82.668181 89.344 
L 82.603688 89.344 
L 82.490827 89.344 
L 81.926519 88.802462 
L 81.41058 88.260923 
L 81.023626 88.260923 
L 80.668918 88.260923 
L 80.507687 87.719385 
L 80.378702 87.177846 
L 80.362579 86.636308 
L 80.120732 86.636308 
L 79.911132 86.094769 
L 79.766024 85.553231 
L 79.508055 85.553231 
L 79.395193 85.553231 
L 79.104978 85.011692 
L 78.669654 85.011692 
L 77.927992 85.011692 
L 77.18633 84.470154 
L 77.105715 83.928615 
L 76.992853 83.928615 
L 76.073837 82.845538 
L 75.993221 82.845538 
L 75.928729 82.845538 
L 74.961344 82.845538 
L 74.574389 82.845538 
L 74.090697 82.845538 
L 73.864973 82.304 
L 73.832727 81.762462 
z
" clip-path="url(#p933a259ceb)" style="fill: #008000"/>
   </g>
   <g id="PolyCollection_2">
    <path d="M 73.832727 81.762462 
L 73.832727 81.762462 
L 73.864973 82.304 
L 74.090697 82.845538 
L 74.574389 82.845538 
L 74.961344 82.845538 
L 75.928729 82.845538 
L 75.993221 82.845538 
L 76.073837 82.845538 
L 76.992853 83.928615 
L 77.105715 83.928615 
L 77.18633 84.470154 
L 77.927992 85.011692 
L 78.669654 85.011692 
L 79.104978 85.011692 
L 79.395193 85.553231 
L 79.508055 85.553231 
L 79.766024 85.553231 
L 79.911132 86.094769 
L 80.120732 86.636308 
L 80.362579 86.636308 
L 80.378702 87.177846 
L 80.507687 87.719385 
L 80.668918 88.260923 
L 81.023626 88.260923 
L 81.41058 88.260923 
L 81.926519 88.802462 
L 82.490827 89.344 
L 82.603688 89.344 
L 82.668181 89.344 
L 82.684304 89.885538 
L 82.781042 90.968615 
L 82.974519 92.051692 
L 83.877413 92.051692 
L 84.506213 92.593231 
L 84.619075 93.134769 
L 85.521968 93.676308 
L 85.779937 94.217846 
L 85.812183 94.217846 
L 86.586092 94.759385 
L 87.472862 94.759385 
L 88.198401 95.300923 
L 89.423756 95.842462 
L 89.665602 96.384 
L 90.213787 96.925538 
L 90.375018 97.467077 
L 92.245296 97.467077 
L 92.325912 98.008615 
L 93.148189 98.550154 
L 95.195822 99.633231 
L 95.792376 100.174769 
L 96.550161 100.716308 
L 96.582408 101.257846 
L 96.920993 101.799385 
L 97.549793 101.799385 
L 97.711024 102.340923 
L 97.775516 102.882462 
L 97.968993 103.424 
L 98.533302 103.965538 
L 100.210103 104.507077 
L 101.209735 104.507077 
L 102.547951 105.048615 
L 103.563706 105.590154 
L 103.789429 106.131692 
L 103.821675 106.673231 
L 103.886168 107.214769 
L 104.434353 107.756308 
L 106.417493 108.297846 
L 106.949555 108.839385 
L 106.997924 108.839385 
L 107.546109 109.380923 
L 107.755709 109.922462 
L 107.91694 110.464 
L 109.416387 111.005538 
L 109.948449 111.547077 
L 109.996819 112.088615 
L 110.15805 112.630154 
L 110.416019 113.171692 
L 110.867466 113.713231 
L 112.737744 113.713231 
L 112.786113 114.254769 
L 113.898607 114.796308 
L 114.495161 115.879385 
L 114.591899 116.420923 
L 114.608023 117.504 
L 114.720884 118.045538 
L 114.785377 118.587077 
L 115.2207 119.128615 
L 115.559285 119.128615 
L 116.31707 119.670154 
L 116.833009 120.211692 
L 117.268332 120.753231 
L 117.913256 121.294769 
L 119.65455 122.919385 
L 119.993135 122.919385 
L 120.251104 123.460923 
L 120.670304 124.002462 
L 121.863413 124.544 
L 122.024644 125.085538 
L 122.959783 125.627077 
L 123.507968 125.627077 
L 123.540215 126.168615 
L 123.653076 126.168615 
L 124.652708 126.710154 
L 125.442739 126.710154 
L 125.894186 127.251692 
L 126.087663 127.793231 
L 126.152155 129.417846 
L 126.28114 129.417846 
L 127.345264 129.959385 
L 127.909572 130.500923 
L 130.263543 131.584 
L 130.521513 132.125538 
L 131.537267 132.667077 
L 133.197946 133.208615 
L 134.278193 134.291692 
L 134.326562 134.833231 
L 136.761149 135.374769 
L 137.148103 135.916308 
L 138.341211 136.457846 
L 139.276351 137.540923 
L 142.226876 138.082462 
L 142.678323 138.624 
L 142.855677 139.165538 
L 143.258754 139.707077 
L 143.7102 140.790154 
L 144.193893 141.331692 
L 144.677586 141.873231 
L 145.757833 143.497846 
L 146.177033 143.497846 
L 146.386633 144.039385 
L 146.41888 144.580923 
L 146.499495 145.122462 
L 147.837712 145.664 
L 149.127559 146.205538 
L 149.514513 147.288615 
L 150.481898 147.830154 
L 151.06233 148.371692 
L 152.239315 148.913231 
L 152.868116 148.913231 
L 153.561409 149.996308 
L 153.593655 150.537846 
L 153.88387 151.079385 
L 154.061224 151.620923 
L 154.093471 152.162462 
L 154.496548 152.704 
L 154.625533 153.787077 
L 154.883502 154.328615 
L 155.44781 154.870154 
L 156.495811 155.411692 
L 156.721534 155.953231 
L 158.753044 156.494769 
L 158.849782 157.036308 
L 159.784921 157.577846 
L 160.123506 158.660923 
L 160.30086 159.202462 
L 160.752307 159.744 
L 160.97803 160.285538 
L 161.993785 160.827077 
L 162.300124 161.368615 
L 162.445231 161.910154 
L 163.009539 162.451692 
L 163.912433 162.993231 
L 165.782711 162.993231 
L 165.976188 164.076308 
L 166.04068 164.617846 
L 166.476004 165.159385 
L 166.540496 165.700923 
L 166.991943 166.242462 
L 167.024189 166.784 
L 167.781974 167.867077 
L 168.217298 168.408615 
L 171.425793 168.950154 
L 172.119085 169.491692 
L 172.796255 170.033231 
L 173.425056 171.116308 
L 174.053856 172.199385 
L 174.150595 172.740923 
L 174.360195 173.282462 
L 174.634288 173.824 
L 175.101857 174.365538 
L 175.359827 174.907077 
L 175.440442 175.448615 
L 175.553304 175.990154 
L 175.730658 176.531692 
L 176.423951 177.073231 
L 177.165613 177.614769 
L 178.971399 178.156308 
L 179.293861 179.239385 
L 179.777553 179.780923 
L 181.099647 180.322462 
L 181.438232 180.864 
L 181.954171 180.864 
L 182.937679 181.947077 
L 183.211772 182.488615 
L 183.77608 183.030154 
L 184.082418 183.571692 
L 184.485496 184.113231 
L 184.501619 185.196308 
L 185.227158 186.279385 
L 185.275527 186.820923 
L 185.888205 187.362462 
L 186.952329 188.445538 
L 187.032944 189.528615 
L 187.081313 190.611692 
L 188.064822 191.153231 
L 188.258299 191.694769 
L 188.290545 192.236308 
L 189.419161 192.777846 
L 190.064085 193.319385 
L 190.1447 193.860923 
L 190.322054 194.944 
L 192.708272 196.027077 
L 192.756641 196.568615 
L 193.27258 197.110154 
L 194.175473 197.651692 
L 194.675289 198.193231 
L 194.884889 198.734769 
L 195.513689 199.817846 
L 195.610428 200.359385 
L 195.642674 200.900923 
L 195.852274 201.442462 
L 195.93289 201.984 
L 196.013505 202.525538 
L 196.35209 203.067077 
L 196.980891 205.233231 
L 197.674184 206.316308 
L 198.528707 206.857846 
L 198.738308 207.399385 
L 199.157508 207.940923 
L 201.237386 208.482462 
L 201.382494 209.024 
L 202.494988 210.107077 
L 204.042804 210.648615 
L 204.96182 211.190154 
L 205.090805 211.731692 
L 205.171421 212.273231 
L 205.332651 212.814769 
L 205.413267 213.897846 
L 205.606744 214.439385 
L 206.558006 214.980923 
L 206.654745 215.522462 
L 207.251299 216.605538 
L 208.073577 218.230154 
L 208.2993 218.771692 
L 208.654008 219.313231 
L 209.105455 219.854769 
L 209.379547 220.396308 
L 209.959978 222.562462 
L 210.443671 223.104 
L 211.104718 224.187077 
L 212.201088 224.728615 
L 212.26558 225.270154 
L 214.200351 225.811692 
L 214.393828 226.353231 
L 215.006506 226.894769 
L 215.828783 227.436308 
L 216.264107 227.977846 
L 216.328599 228.519385 
L 217.295984 229.060923 
L 218.456847 229.602462 
L 218.537462 231.768615 
L 218.908293 232.310154 
L 219.375863 232.851692 
L 219.811186 233.393231 
L 220.004664 233.934769 
L 221.165526 234.476308 
L 221.713711 235.017846 
L 222.423127 235.559385 
L 222.471496 236.100923 
L 223.019681 237.184 
L 223.406636 237.725538 
L 224.503006 238.267077 
L 224.986698 238.808615 
L 226.921469 239.350154 
L 226.985962 239.891692 
L 228.43704 240.433231 
L 230.049349 241.516308 
L 230.581411 242.057846 
L 230.597534 242.599385 
L 231.677781 244.224 
L 232.161474 244.765538 
L 232.177597 245.307077 
L 235.627938 245.848615 
L 235.869784 246.931692 
L 236.143877 247.473231 
L 236.192246 248.014769 
L 236.514708 248.556308 
L 237.498216 249.639385 
L 237.756186 250.180923 
L 237.885171 250.722462 
L 238.546217 251.264 
L 238.61071 252.347077 
L 239.368495 253.430154 
L 240.174649 253.971692 
L 240.206896 254.513231 
L 240.400373 255.054769 
L 240.448742 255.596308 
L 241.464497 256.137846 
L 242.222282 256.679385 
L 243.899083 257.220923 
L 246.511024 257.762462 
L 248.010471 258.304 
L 248.10721 259.387077 
L 248.187825 259.928615 
L 248.73601 260.470154 
L 248.816626 261.011692 
L 249.010103 261.553231 
L 249.493796 263.719385 
L 251.267336 264.260923 
L 252.089613 265.344 
L 252.137982 265.885538 
L 252.412075 266.427077 
L 255.007893 266.968615 
L 255.443216 267.510154 
L 257.329618 268.051692 
L 257.797187 268.593231 
L 258.361495 268.593231 
L 258.941927 269.134769 
L 258.990296 270.217846 
L 259.119281 270.759385 
L 260.070543 271.300923 
L 260.135035 271.842462 
L 260.812205 272.384 
L 261.698975 272.925538 
L 262.005314 274.008615 
L 262.843714 275.091692 
L 264.101315 275.633231 
L 265.890978 276.174769 
L 266.052209 276.716308 
L 266.310179 277.257846 
L 269.421935 277.799385 
L 270.276459 278.340923 
L 270.373198 278.882462 
L 271.469568 279.424 
L 272.453076 280.507077 
L 274.049262 281.048615 
L 278.450866 281.590154 
L 279.25702 282.131692 
L 279.676221 282.673231 
L 280.159913 283.214769 
L 281.369145 284.297846 
L 281.91733 284.839385 
L 282.481638 285.380923 
L 282.530008 285.922462 
L 284.206809 286.464 
L 285.46441 287.005538 
L 286.576903 287.547077 
L 287.044473 288.088615 
L 287.850627 288.630154 
L 288.092474 289.713231 
L 288.447182 290.254769 
L 289.172721 290.796308 
L 289.204967 291.337846 
L 291.107492 291.879385 
L 292.252231 292.420923 
L 297.701836 292.962462 
L 300.217038 293.504 
L 301.63587 294.045538 
L 303.135317 294.587077 
L 304.489657 295.128615 
L 304.876611 295.670154 
L 306.90812 296.211692 
L 307.230582 296.753231 
L 307.956121 297.294769 
L 308.230213 298.377846 
L 312.43834 298.919385 
L 313.341233 299.460923 
L 313.824926 300.002462 
L 318.887576 300.544 
L 327.174845 301.085538 
L 330.33497 301.627077 
L 333.269373 302.168615 
L 333.946542 302.710154 
L 335.139651 303.251692 
L 342.830365 303.793231 
L 342.910981 304.334769 
L 360.194933 304.876308 
L 366.8054 305.417846 
L 394.424254 305.959385 
L 397.648872 306.500923 
L 398.487273 307.042462 
L 398.487273 307.042462 
L 398.487273 307.042462 
L 397.648872 306.500923 
L 394.424254 305.959385 
L 366.8054 305.417846 
L 360.194933 304.876308 
L 342.910981 304.334769 
L 342.830365 303.793231 
L 335.139651 303.251692 
L 333.946542 302.710154 
L 333.269373 302.168615 
L 330.33497 301.627077 
L 327.174845 301.085538 
L 318.887576 300.544 
L 313.824926 300.002462 
L 313.341233 299.460923 
L 312.43834 298.919385 
L 308.230213 298.377846 
L 307.956121 297.294769 
L 307.230582 296.753231 
L 306.90812 296.211692 
L 304.876611 295.670154 
L 304.489657 295.128615 
L 303.135317 294.587077 
L 301.63587 294.045538 
L 300.217038 293.504 
L 297.701836 292.962462 
L 292.252231 292.420923 
L 291.107492 291.879385 
L 289.204967 291.337846 
L 289.172721 290.796308 
L 288.447182 290.254769 
L 288.092474 289.713231 
L 287.850627 288.630154 
L 287.044473 288.088615 
L 286.576903 287.547077 
L 285.46441 287.005538 
L 284.206809 286.464 
L 282.530008 285.922462 
L 282.481638 285.380923 
L 281.91733 284.839385 
L 281.369145 284.297846 
L 280.159913 283.214769 
L 279.676221 282.673231 
L 279.25702 282.131692 
L 278.450866 281.590154 
L 274.049262 281.048615 
L 272.453076 280.507077 
L 271.469568 279.424 
L 270.373198 278.882462 
L 270.276459 278.340923 
L 269.421935 277.799385 
L 266.310179 277.257846 
L 266.052209 276.716308 
L 265.890978 276.174769 
L 264.101315 275.633231 
L 262.843714 275.091692 
L 262.005314 274.008615 
L 261.698975 272.925538 
L 260.812205 272.384 
L 260.135035 271.842462 
L 260.070543 271.300923 
L 259.119281 270.759385 
L 258.990296 270.217846 
L 258.941927 269.134769 
L 258.361495 268.593231 
L 257.797187 268.593231 
L 257.329618 268.051692 
L 255.443216 267.510154 
L 255.007893 266.968615 
L 252.412075 266.427077 
L 252.137982 265.885538 
L 252.089613 265.344 
L 251.267336 264.260923 
L 249.493796 263.719385 
L 249.010103 261.553231 
L 248.816626 261.011692 
L 248.73601 260.470154 
L 248.187825 259.928615 
L 248.10721 259.387077 
L 248.010471 258.304 
L 246.511024 257.762462 
L 243.899083 257.220923 
L 242.222282 256.679385 
L 241.464497 256.137846 
L 240.448742 255.596308 
L 240.400373 255.054769 
L 240.206896 254.513231 
L 240.174649 253.971692 
L 239.368495 253.430154 
L 238.61071 252.347077 
L 238.546217 251.264 
L 237.885171 250.722462 
L 237.756186 250.180923 
L 237.498216 249.639385 
L 236.514708 248.556308 
L 236.192246 248.014769 
L 236.143877 247.473231 
L 235.869784 246.931692 
L 235.627938 245.848615 
L 232.177597 245.307077 
L 232.161474 244.765538 
L 231.677781 244.224 
L 230.597534 242.599385 
L 230.581411 242.057846 
L 230.049349 241.516308 
L 228.43704 240.433231 
L 226.985962 239.891692 
L 226.921469 239.350154 
L 224.986698 238.808615 
L 224.503006 238.267077 
L 223.406636 237.725538 
L 223.019681 237.184 
L 222.471496 236.100923 
L 222.423127 235.559385 
L 221.713711 235.017846 
L 221.165526 234.476308 
L 220.004664 233.934769 
L 219.811186 233.393231 
L 219.375863 232.851692 
L 218.908293 232.310154 
L 218.537462 231.768615 
L 218.456847 229.602462 
L 217.295984 229.060923 
L 216.328599 228.519385 
L 216.264107 227.977846 
L 215.828783 227.436308 
L 215.006506 226.894769 
L 214.393828 226.353231 
L 214.200351 225.811692 
L 212.26558 225.270154 
L 212.201088 224.728615 
L 211.104718 224.187077 
L 210.443671 223.104 
L 209.959978 222.562462 
L 209.379547 220.396308 
L 209.105455 219.854769 
L 208.654008 219.313231 
L 208.2993 218.771692 
L 208.073577 218.230154 
L 207.251299 216.605538 
L 206.654745 215.522462 
L 206.558006 214.980923 
L 205.606744 214.439385 
L 205.413267 213.897846 
L 205.332651 212.814769 
L 205.171421 212.273231 
L 205.090805 211.731692 
L 204.96182 211.190154 
L 204.042804 210.648615 
L 202.494988 210.107077 
L 201.382494 209.024 
L 201.237386 208.482462 
L 199.157508 207.940923 
L 198.738308 207.399385 
L 198.528707 206.857846 
L 197.674184 206.316308 
L 196.980891 205.233231 
L 196.35209 203.067077 
L 196.013505 202.525538 
L 195.93289 201.984 
L 195.852274 201.442462 
L 195.642674 200.900923 
L 195.610428 200.359385 
L 195.513689 199.817846 
L 194.884889 198.734769 
L 194.675289 198.193231 
L 194.175473 197.651692 
L 193.27258 197.110154 
L 192.756641 196.568615 
L 192.708272 196.027077 
L 190.322054 194.944 
L 190.1447 193.860923 
L 190.064085 193.319385 
L 189.419161 192.777846 
L 188.290545 192.236308 
L 188.258299 191.694769 
L 188.064822 191.153231 
L 187.081313 190.611692 
L 187.032944 189.528615 
L 186.952329 188.445538 
L 185.888205 187.362462 
L 185.275527 186.820923 
L 185.227158 186.279385 
L 184.501619 185.196308 
L 184.485496 184.113231 
L 184.082418 183.571692 
L 183.77608 183.030154 
L 183.211772 182.488615 
L 182.937679 181.947077 
L 181.954171 180.864 
L 181.438232 180.864 
L 181.099647 180.322462 
L 179.777553 179.780923 
L 179.293861 179.239385 
L 178.971399 178.156308 
L 177.165613 177.614769 
L 176.423951 177.073231 
L 175.730658 176.531692 
L 175.553304 175.990154 
L 175.440442 175.448615 
L 175.359827 174.907077 
L 175.101857 174.365538 
L 174.634288 173.824 
L 174.360195 173.282462 
L 174.150595 172.740923 
L 174.053856 172.199385 
L 173.425056 171.116308 
L 172.796255 170.033231 
L 172.119085 169.491692 
L 171.425793 168.950154 
L 168.217298 168.408615 
L 167.781974 167.867077 
L 167.024189 166.784 
L 166.991943 166.242462 
L 166.540496 165.700923 
L 166.476004 165.159385 
L 166.04068 164.617846 
L 165.976188 164.076308 
L 165.782711 162.993231 
L 163.912433 162.993231 
L 163.009539 162.451692 
L 162.445231 161.910154 
L 162.300124 161.368615 
L 161.993785 160.827077 
L 160.97803 160.285538 
L 160.752307 159.744 
L 160.30086 159.202462 
L 160.123506 158.660923 
L 159.784921 157.577846 
L 158.849782 157.036308 
L 158.753044 156.494769 
L 156.721534 155.953231 
L 156.495811 155.411692 
L 155.44781 154.870154 
L 154.883502 154.328615 
L 154.625533 153.787077 
L 154.496548 152.704 
L 154.093471 152.162462 
L 154.061224 151.620923 
L 153.88387 151.079385 
L 153.593655 150.537846 
L 153.561409 149.996308 
L 152.868116 148.913231 
L 152.239315 148.913231 
L 151.06233 148.371692 
L 150.481898 147.830154 
L 149.514513 147.288615 
L 149.127559 146.205538 
L 147.837712 145.664 
L 146.499495 145.122462 
L 146.41888 144.580923 
L 146.386633 144.039385 
L 146.177033 143.497846 
L 145.757833 143.497846 
L 144.677586 141.873231 
L 144.193893 141.331692 
L 143.7102 140.790154 
L 143.258754 139.707077 
L 142.855677 139.165538 
L 142.678323 138.624 
L 142.226876 138.082462 
L 139.276351 137.540923 
L 138.341211 136.457846 
L 137.148103 135.916308 
L 136.761149 135.374769 
L 134.326562 134.833231 
L 134.278193 134.291692 
L 133.197946 133.208615 
L 131.537267 132.667077 
L 130.521513 132.125538 
L 130.263543 131.584 
L 127.909572 130.500923 
L 127.345264 129.959385 
L 126.28114 129.417846 
L 126.152155 129.417846 
L 126.087663 127.793231 
L 125.894186 127.251692 
L 125.442739 126.710154 
L 124.652708 126.710154 
L 123.653076 126.168615 
L 123.540215 126.168615 
L 123.507968 125.627077 
L 122.959783 125.627077 
L 122.024644 125.085538 
L 121.863413 124.544 
L 120.670304 124.002462 
L 120.251104 123.460923 
L 119.993135 122.919385 
L 119.65455 122.919385 
L 117.913256 121.294769 
L 117.268332 120.753231 
L 116.833009 120.211692 
L 116.31707 119.670154 
L 115.559285 119.128615 
L 115.2207 119.128615 
L 114.785377 118.587077 
L 114.720884 118.045538 
L 114.608023 117.504 
L 114.591899 116.420923 
L 114.495161 115.879385 
L 113.898607 114.796308 
L 112.786113 114.254769 
L 112.737744 113.713231 
L 110.867466 113.713231 
L 110.416019 113.171692 
L 110.15805 112.630154 
L 109.996819 112.088615 
L 109.948449 111.547077 
L 109.416387 111.005538 
L 107.91694 110.464 
L 107.755709 109.922462 
L 107.546109 109.380923 
L 106.997924 108.839385 
L 106.949555 108.839385 
L 106.417493 108.297846 
L 104.434353 107.756308 
L 103.886168 107.214769 
L 103.821675 106.673231 
L 103.789429 106.131692 
L 103.563706 105.590154 
L 102.547951 105.048615 
L 101.209735 104.507077 
L 100.210103 104.507077 
L 98.533302 103.965538 
L 97.968993 103.424 
L 97.775516 102.882462 
L 97.711024 102.340923 
L 97.549793 101.799385 
L 96.920993 101.799385 
L 96.582408 101.257846 
L 96.550161 100.716308 
L 95.792376 100.174769 
L 95.195822 99.633231 
L 93.148189 98.550154 
L 92.325912 98.008615 
L 92.245296 97.467077 
L 90.375018 97.467077 
L 90.213787 96.925538 
L 89.665602 96.384 
L 89.423756 95.842462 
L 88.198401 95.300923 
L 87.472862 94.759385 
L 86.586092 94.759385 
L 85.812183 94.217846 
L 85.779937 94.217846 
L 85.521968 93.676308 
L 84.619075 93.134769 
L 84.506213 92.593231 
L 83.877413 92.051692 
L 82.974519 92.051692 
L 82.781042 90.968615 
L 82.684304 89.885538 
L 82.668181 89.344 
L 82.603688 89.344 
L 82.490827 89.344 
L 81.926519 88.802462 
L 81.41058 88.260923 
L 81.023626 88.260923 
L 80.668918 88.260923 
L 80.507687 87.719385 
L 80.378702 87.177846 
L 80.362579 86.636308 
L 80.120732 86.636308 
L 79.911132 86.094769 
L 79.766024 85.553231 
L 79.508055 85.553231 
L 79.395193 85.553231 
L 79.104978 85.011692 
L 78.669654 85.011692 
L 77.927992 85.011692 
L 77.18633 84.470154 
L 77.105715 83.928615 
L 76.992853 83.928615 
L 76.073837 82.845538 
L 75.993221 82.845538 
L 75.928729 82.845538 
L 74.961344 82.845538 
L 74.574389 82.845538 
L 74.090697 82.845538 
L 73.864973 82.304 
L 73.832727 81.762462 
z
" clip-path="url(#p933a259ceb)" style="fill: #7cfc00"/>
   </g>
   <g id="PolyCollection_3">
    <path d="M 73.832727 54.144 
L 73.832727 81.762462 
L 73.864973 82.304 
L 74.090697 82.845538 
L 74.574389 82.845538 
L 74.961344 82.845538 
L 75.928729 82.845538 
L 75.993221 82.845538 
L 76.073837 82.845538 
L 76.992853 83.928615 
L 77.105715 83.928615 
L 77.18633 84.470154 
L 77.927992 85.011692 
L 78.669654 85.011692 
L 79.104978 85.011692 
L 79.395193 85.553231 
L 79.508055 85.553231 
L 79.766024 85.553231 
L 79.911132 86.094769 
L 80.120732 86.636308 
L 80.362579 86.636308 
L 80.378702 87.177846 
L 80.507687 87.719385 
L 80.668918 88.260923 
L 81.023626 88.260923 
L 81.41058 88.260923 
L 81.926519 88.802462 
L 82.490827 89.344 
L 82.603688 89.344 
L 82.668181 89.344 
L 82.684304 89.885538 
L 82.781042 90.968615 
L 82.974519 92.051692 
L 83.877413 92.051692 
L 84.506213 92.593231 
L 84.619075 93.134769 
L 85.521968 93.676308 
L 85.779937 94.217846 
L 85.812183 94.217846 
L 86.586092 94.759385 
L 87.472862 94.759385 
L 88.198401 95.300923 
L 89.423756 95.842462 
L 89.665602 96.384 
L 90.213787 96.925538 
L 90.375018 97.467077 
L 92.245296 97.467077 
L 92.325912 98.008615 
L 93.148189 98.550154 
L 95.195822 99.633231 
L 95.792376 100.174769 
L 96.550161 100.716308 
L 96.582408 101.257846 
L 96.920993 101.799385 
L 97.549793 101.799385 
L 97.711024 102.340923 
L 97.775516 102.882462 
L 97.968993 103.424 
L 98.533302 103.965538 
L 100.210103 104.507077 
L 101.209735 104.507077 
L 102.547951 105.048615 
L 103.563706 105.590154 
L 103.789429 106.131692 
L 103.821675 106.673231 
L 103.886168 107.214769 
L 104.434353 107.756308 
L 106.417493 108.297846 
L 106.949555 108.839385 
L 106.997924 108.839385 
L 107.546109 109.380923 
L 107.755709 109.922462 
L 107.91694 110.464 
L 109.416387 111.005538 
L 109.948449 111.547077 
L 109.996819 112.088615 
L 110.15805 112.630154 
L 110.416019 113.171692 
L 110.867466 113.713231 
L 112.737744 113.713231 
L 112.786113 114.254769 
L 113.898607 114.796308 
L 114.495161 115.879385 
L 114.591899 116.420923 
L 114.608023 117.504 
L 114.720884 118.045538 
L 114.785377 118.587077 
L 115.2207 119.128615 
L 115.559285 119.128615 
L 116.31707 119.670154 
L 116.833009 120.211692 
L 117.268332 120.753231 
L 117.913256 121.294769 
L 119.65455 122.919385 
L 119.993135 122.919385 
L 120.251104 123.460923 
L 120.670304 124.002462 
L 121.863413 124.544 
L 122.024644 125.085538 
L 122.959783 125.627077 
L 123.507968 125.627077 
L 123.540215 126.168615 
L 123.653076 126.168615 
L 124.652708 126.710154 
L 125.442739 126.710154 
L 125.894186 127.251692 
L 126.087663 127.793231 
L 126.152155 129.417846 
L 126.28114 129.417846 
L 127.345264 129.959385 
L 127.909572 130.500923 
L 130.263543 131.584 
L 130.521513 132.125538 
L 131.537267 132.667077 
L 133.197946 133.208615 
L 134.278193 134.291692 
L 134.326562 134.833231 
L 136.761149 135.374769 
L 137.148103 135.916308 
L 138.341211 136.457846 
L 139.276351 137.540923 
L 142.226876 138.082462 
L 142.678323 138.624 
L 142.855677 139.165538 
L 143.258754 139.707077 
L 143.7102 140.790154 
L 144.193893 141.331692 
L 144.677586 141.873231 
L 145.757833 143.497846 
L 146.177033 143.497846 
L 146.386633 144.039385 
L 146.41888 144.580923 
L 146.499495 145.122462 
L 147.837712 145.664 
L 149.127559 146.205538 
L 149.514513 147.288615 
L 150.481898 147.830154 
L 151.06233 148.371692 
L 152.239315 148.913231 
L 152.868116 148.913231 
L 153.561409 149.996308 
L 153.593655 150.537846 
L 153.88387 151.079385 
L 154.061224 151.620923 
L 154.093471 152.162462 
L 154.496548 152.704 
L 154.625533 153.787077 
L 154.883502 154.328615 
L 155.44781 154.870154 
L 156.495811 155.411692 
L 156.721534 155.953231 
L 158.753044 156.494769 
L 158.849782 157.036308 
L 159.784921 157.577846 
L 160.123506 158.660923 
L 160.30086 159.202462 
L 160.752307 159.744 
L 160.97803 160.285538 
L 161.993785 160.827077 
L 162.300124 161.368615 
L 162.445231 161.910154 
L 163.009539 162.451692 
L 163.912433 162.993231 
L 165.782711 162.993231 
L 165.976188 164.076308 
L 166.04068 164.617846 
L 166.476004 165.159385 
L 166.540496 165.700923 
L 166.991943 166.242462 
L 167.024189 166.784 
L 167.781974 167.867077 
L 168.217298 168.408615 
L 171.425793 168.950154 
L 172.119085 169.491692 
L 172.796255 170.033231 
L 173.425056 171.116308 
L 174.053856 172.199385 
L 174.150595 172.740923 
L 174.360195 173.282462 
L 174.634288 173.824 
L 175.101857 174.365538 
L 175.359827 174.907077 
L 175.440442 175.448615 
L 175.553304 175.990154 
L 175.730658 176.531692 
L 176.423951 177.073231 
L 177.165613 177.614769 
L 178.971399 178.156308 
L 179.293861 179.239385 
L 179.777553 179.780923 
L 181.099647 180.322462 
L 181.438232 180.864 
L 181.954171 180.864 
L 182.937679 181.947077 
L 183.211772 182.488615 
L 183.77608 183.030154 
L 184.082418 183.571692 
L 184.485496 184.113231 
L 184.501619 185.196308 
L 185.227158 186.279385 
L 185.275527 186.820923 
L 185.888205 187.362462 
L 186.952329 188.445538 
L 187.032944 189.528615 
L 187.081313 190.611692 
L 188.064822 191.153231 
L 188.258299 191.694769 
L 188.290545 192.236308 
L 189.419161 192.777846 
L 190.064085 193.319385 
L 190.1447 193.860923 
L 190.322054 194.944 
L 192.708272 196.027077 
L 192.756641 196.568615 
L 193.27258 197.110154 
L 194.175473 197.651692 
L 194.675289 198.193231 
L 194.884889 198.734769 
L 195.513689 199.817846 
L 195.610428 200.359385 
L 195.642674 200.900923 
L 195.852274 201.442462 
L 195.93289 201.984 
L 196.013505 202.525538 
L 196.35209 203.067077 
L 196.980891 205.233231 
L 197.674184 206.316308 
L 198.528707 206.857846 
L 198.738308 207.399385 
L 199.157508 207.940923 
L 201.237386 208.482462 
L 201.382494 209.024 
L 202.494988 210.107077 
L 204.042804 210.648615 
L 204.96182 211.190154 
L 205.090805 211.731692 
L 205.171421 212.273231 
L 205.332651 212.814769 
L 205.413267 213.897846 
L 205.606744 214.439385 
L 206.558006 214.980923 
L 206.654745 215.522462 
L 207.251299 216.605538 
L 208.073577 218.230154 
L 208.2993 218.771692 
L 208.654008 219.313231 
L 209.105455 219.854769 
L 209.379547 220.396308 
L 209.959978 222.562462 
L 210.443671 223.104 
L 211.104718 224.187077 
L 212.201088 224.728615 
L 212.26558 225.270154 
L 214.200351 225.811692 
L 214.393828 226.353231 
L 215.006506 226.894769 
L 215.828783 227.436308 
L 216.264107 227.977846 
L 216.328599 228.519385 
L 217.295984 229.060923 
L 218.456847 229.602462 
L 218.537462 231.768615 
L 218.908293 232.310154 
L 219.375863 232.851692 
L 219.811186 233.393231 
L 220.004664 233.934769 
L 221.165526 234.476308 
L 221.713711 235.017846 
L 222.423127 235.559385 
L 222.471496 236.100923 
L 223.019681 237.184 
L 223.406636 237.725538 
L 224.503006 238.267077 
L 224.986698 238.808615 
L 226.921469 239.350154 
L 226.985962 239.891692 
L 228.43704 240.433231 
L 230.049349 241.516308 
L 230.581411 242.057846 
L 230.597534 242.599385 
L 231.677781 244.224 
L 232.161474 244.765538 
L 232.177597 245.307077 
L 235.627938 245.848615 
L 235.869784 246.931692 
L 236.143877 247.473231 
L 236.192246 248.014769 
L 236.514708 248.556308 
L 237.498216 249.639385 
L 237.756186 250.180923 
L 237.885171 250.722462 
L 238.546217 251.264 
L 238.61071 252.347077 
L 239.368495 253.430154 
L 240.174649 253.971692 
L 240.206896 254.513231 
L 240.400373 255.054769 
L 240.448742 255.596308 
L 241.464497 256.137846 
L 242.222282 256.679385 
L 243.899083 257.220923 
L 246.511024 257.762462 
L 248.010471 258.304 
L 248.10721 259.387077 
L 248.187825 259.928615 
L 248.73601 260.470154 
L 248.816626 261.011692 
L 249.010103 261.553231 
L 249.493796 263.719385 
L 251.267336 264.260923 
L 252.089613 265.344 
L 252.137982 265.885538 
L 252.412075 266.427077 
L 255.007893 266.968615 
L 255.443216 267.510154 
L 257.329618 268.051692 
L 257.797187 268.593231 
L 258.361495 268.593231 
L 258.941927 269.134769 
L 258.990296 270.217846 
L 259.119281 270.759385 
L 260.070543 271.300923 
L 260.135035 271.842462 
L 260.812205 272.384 
L 261.698975 272.925538 
L 262.005314 274.008615 
L 262.843714 275.091692 
L 264.101315 275.633231 
L 265.890978 276.174769 
L 266.052209 276.716308 
L 266.310179 277.257846 
L 269.421935 277.799385 
L 270.276459 278.340923 
L 270.373198 278.882462 
L 271.469568 279.424 
L 272.453076 280.507077 
L 274.049262 281.048615 
L 278.450866 281.590154 
L 279.25702 282.131692 
L 279.676221 282.673231 
L 280.159913 283.214769 
L 281.369145 284.297846 
L 281.91733 284.839385 
L 282.481638 285.380923 
L 282.530008 285.922462 
L 284.206809 286.464 
L 285.46441 287.005538 
L 286.576903 287.547077 
L 287.044473 288.088615 
L 287.850627 288.630154 
L 288.092474 289.713231 
L 288.447182 290.254769 
L 289.172721 290.796308 
L 289.204967 291.337846 
L 291.107492 291.879385 
L 292.252231 292.420923 
L 297.701836 292.962462 
L 300.217038 293.504 
L 301.63587 294.045538 
L 303.135317 294.587077 
L 304.489657 295.128615 
L 304.876611 295.670154 
L 306.90812 296.211692 
L 307.230582 296.753231 
L 307.956121 297.294769 
L 308.230213 298.377846 
L 312.43834 298.919385 
L 313.341233 299.460923 
L 313.824926 300.002462 
L 318.887576 300.544 
L 327.174845 301.085538 
L 330.33497 301.627077 
L 333.269373 302.168615 
L 333.946542 302.710154 
L 335.139651 303.251692 
L 342.830365 303.793231 
L 342.910981 304.334769 
L 360.194933 304.876308 
L 366.8054 305.417846 
L 394.424254 305.959385 
L 397.648872 306.500923 
L 398.487273 307.042462 
L 398.487273 307.042462 
L 398.487273 307.042462 
L 397.648872 306.500923 
L 394.424254 305.959385 
L 366.8054 305.417846 
L 360.194933 304.876308 
L 342.910981 304.334769 
L 342.830365 303.793231 
L 335.139651 303.251692 
L 333.946542 302.710154 
L 333.269373 302.168615 
L 330.33497 301.627077 
L 327.174845 301.085538 
L 318.887576 300.544 
L 313.824926 300.002462 
L 313.341233 299.460923 
L 312.43834 298.919385 
L 308.230213 298.377846 
L 307.956121 297.294769 
L 307.230582 296.753231 
L 306.90812 296.211692 
L 304.876611 295.670154 
L 304.489657 295.128615 
L 303.135317 294.587077 
L 301.63587 294.045538 
L 300.217038 293.504 
L 297.701836 292.962462 
L 292.252231 292.420923 
L 291.107492 291.879385 
L 289.204967 291.337846 
L 289.172721 290.796308 
L 288.447182 290.254769 
L 288.092474 289.713231 
L 287.850627 288.630154 
L 287.044473 288.088615 
L 286.576903 287.547077 
L 285.46441 287.005538 
L 284.206809 286.464 
L 282.530008 285.922462 
L 282.481638 285.380923 
L 281.91733 284.839385 
L 281.369145 284.297846 
L 280.159913 283.214769 
L 279.676221 282.673231 
L 279.25702 282.131692 
L 278.450866 281.590154 
L 274.049262 281.048615 
L 272.453076 280.507077 
L 271.469568 279.424 
L 270.373198 278.882462 
L 270.276459 278.340923 
L 269.421935 277.799385 
L 266.310179 277.257846 
L 266.052209 276.716308 
L 265.890978 276.174769 
L 264.101315 275.633231 
L 262.843714 275.091692 
L 262.005314 274.008615 
L 261.698975 272.925538 
L 260.812205 272.384 
L 260.135035 271.842462 
L 260.070543 271.300923 
L 259.119281 270.759385 
L 258.990296 270.217846 
L 258.941927 269.134769 
L 258.361495 268.593231 
L 257.797187 268.051692 
L 257.329618 267.510154 
L 255.443216 266.968615 
L 255.007893 266.427077 
L 252.412075 265.885538 
L 252.137982 265.344 
L 252.089613 264.802462 
L 251.267336 263.719385 
L 249.493796 263.177846 
L 249.010103 261.011692 
L 248.816626 260.470154 
L 248.73601 259.928615 
L 248.187825 259.387077 
L 248.10721 258.845538 
L 248.010471 257.762462 
L 246.511024 257.220923 
L 243.899083 256.679385 
L 242.222282 256.137846 
L 241.464497 255.596308 
L 240.448742 255.054769 
L 240.400373 254.513231 
L 240.206896 253.971692 
L 240.174649 253.430154 
L 239.368495 252.888615 
L 238.61071 251.805538 
L 238.546217 250.722462 
L 237.885171 250.180923 
L 237.756186 249.639385 
L 237.498216 249.097846 
L 236.514708 248.014769 
L 236.192246 247.473231 
L 236.143877 246.931692 
L 235.869784 246.390154 
L 235.627938 245.307077 
L 232.177597 244.765538 
L 232.161474 244.224 
L 231.677781 243.682462 
L 230.597534 242.057846 
L 230.581411 241.516308 
L 230.049349 240.974769 
L 228.43704 239.891692 
L 226.985962 239.350154 
L 226.921469 238.808615 
L 224.986698 237.725538 
L 224.503006 237.184 
L 223.406636 236.642462 
L 223.019681 236.100923 
L 222.471496 235.017846 
L 222.423127 234.476308 
L 221.713711 233.934769 
L 221.165526 233.393231 
L 220.004664 232.851692 
L 219.811186 232.310154 
L 219.375863 231.768615 
L 218.908293 231.227077 
L 218.537462 230.685538 
L 218.456847 228.519385 
L 217.295984 227.977846 
L 216.328599 227.436308 
L 216.264107 226.894769 
L 215.828783 226.353231 
L 215.006506 225.811692 
L 214.393828 225.270154 
L 214.200351 224.728615 
L 212.26558 224.187077 
L 212.201088 223.645538 
L 211.104718 223.104 
L 210.443671 222.020923 
L 209.959978 221.479385 
L 209.379547 219.313231 
L 209.105455 218.771692 
L 208.654008 218.230154 
L 208.2993 217.688615 
L 208.073577 217.147077 
L 207.251299 215.522462 
L 206.654745 214.439385 
L 206.558006 213.897846 
L 205.606744 213.356308 
L 205.413267 212.814769 
L 205.332651 211.731692 
L 205.171421 211.190154 
L 205.090805 210.648615 
L 204.96182 210.107077 
L 204.042804 209.565538 
L 202.494988 209.024 
L 201.382494 207.940923 
L 201.237386 207.399385 
L 199.157508 206.857846 
L 198.738308 206.316308 
L 198.528707 205.774769 
L 197.674184 205.233231 
L 196.980891 204.150154 
L 196.35209 201.984 
L 196.013505 201.442462 
L 195.93289 200.900923 
L 195.852274 200.359385 
L 195.642674 199.817846 
L 195.610428 199.276308 
L 195.513689 198.734769 
L 194.884889 197.651692 
L 194.675289 197.110154 
L 194.175473 196.568615 
L 193.27258 196.027077 
L 192.756641 195.485538 
L 192.708272 194.944 
L 190.322054 193.860923 
L 190.1447 192.777846 
L 190.064085 192.236308 
L 189.419161 191.694769 
L 188.290545 191.153231 
L 188.258299 190.611692 
L 188.064822 190.070154 
L 187.081313 189.528615 
L 187.032944 188.445538 
L 186.952329 187.362462 
L 185.888205 186.279385 
L 185.275527 185.737846 
L 185.227158 185.196308 
L 184.501619 184.113231 
L 184.485496 183.030154 
L 184.082418 182.488615 
L 183.77608 181.947077 
L 183.211772 181.405538 
L 182.937679 180.864 
L 181.954171 179.780923 
L 181.438232 179.239385 
L 181.099647 178.697846 
L 179.777553 178.156308 
L 179.293861 177.614769 
L 178.971399 176.531692 
L 177.165613 175.990154 
L 176.423951 175.448615 
L 175.730658 174.907077 
L 175.553304 174.365538 
L 175.440442 173.824 
L 175.359827 173.282462 
L 175.101857 172.740923 
L 174.634288 172.199385 
L 174.360195 171.657846 
L 174.150595 171.116308 
L 174.053856 170.574769 
L 173.425056 169.491692 
L 172.796255 168.408615 
L 172.119085 167.867077 
L 171.425793 167.325538 
L 168.217298 166.784 
L 167.781974 166.242462 
L 167.024189 165.159385 
L 166.991943 164.617846 
L 166.540496 164.076308 
L 166.476004 163.534769 
L 166.04068 162.993231 
L 165.976188 162.451692 
L 165.782711 161.368615 
L 163.912433 160.827077 
L 163.009539 160.285538 
L 162.445231 159.744 
L 162.300124 159.202462 
L 161.993785 158.119385 
L 160.97803 157.577846 
L 160.752307 157.036308 
L 160.30086 156.494769 
L 160.123506 155.411692 
L 159.784921 154.328615 
L 158.849782 153.787077 
L 158.753044 153.245538 
L 156.721534 152.704 
L 156.495811 152.162462 
L 155.44781 151.620923 
L 154.883502 151.079385 
L 154.625533 150.537846 
L 154.496548 149.454769 
L 154.093471 148.913231 
L 154.061224 148.371692 
L 153.88387 147.830154 
L 153.593655 147.288615 
L 153.561409 146.747077 
L 152.868116 145.664 
L 152.239315 145.122462 
L 151.06233 144.580923 
L 150.481898 144.039385 
L 149.514513 143.497846 
L 149.127559 142.414769 
L 147.837712 141.873231 
L 146.499495 141.331692 
L 146.41888 140.790154 
L 146.386633 140.248615 
L 146.177033 139.707077 
L 145.757833 139.165538 
L 144.677586 137.540923 
L 144.193893 136.999385 
L 143.7102 136.457846 
L 143.258754 135.374769 
L 142.855677 134.833231 
L 142.678323 134.291692 
L 142.226876 133.750154 
L 139.276351 133.208615 
L 138.341211 132.125538 
L 137.148103 131.584 
L 136.761149 131.042462 
L 134.326562 130.500923 
L 134.278193 129.959385 
L 133.197946 128.876308 
L 131.537267 128.334769 
L 130.521513 127.793231 
L 130.263543 127.251692 
L 127.909572 126.168615 
L 127.345264 125.627077 
L 126.28114 125.085538 
L 126.152155 124.544 
L 126.087663 122.377846 
L 125.894186 121.836308 
L 125.442739 121.294769 
L 124.652708 120.753231 
L 123.653076 120.211692 
L 123.540215 119.670154 
L 123.507968 119.128615 
L 122.959783 118.587077 
L 122.024644 118.045538 
L 121.863413 117.504 
L 120.670304 116.962462 
L 120.251104 116.420923 
L 119.993135 115.879385 
L 119.65455 115.337846 
L 117.913256 113.713231 
L 117.268332 113.171692 
L 116.833009 112.630154 
L 116.31707 112.088615 
L 115.559285 111.547077 
L 115.2207 111.005538 
L 114.785377 110.464 
L 114.720884 109.922462 
L 114.608023 109.380923 
L 114.591899 107.214769 
L 114.495161 106.673231 
L 113.898607 105.590154 
L 112.786113 105.048615 
L 112.737744 104.507077 
L 110.867466 103.965538 
L 110.416019 103.424 
L 110.15805 102.882462 
L 109.996819 102.340923 
L 109.948449 101.799385 
L 109.416387 101.257846 
L 107.91694 100.716308 
L 107.755709 100.174769 
L 107.546109 99.091692 
L 106.997924 98.550154 
L 106.949555 98.008615 
L 106.417493 97.467077 
L 104.434353 96.925538 
L 103.886168 96.384 
L 103.821675 95.842462 
L 103.789429 95.300923 
L 103.563706 94.759385 
L 102.547951 94.217846 
L 101.209735 93.676308 
L 100.210103 93.134769 
L 98.533302 92.593231 
L 97.968993 92.051692 
L 97.775516 91.510154 
L 97.711024 90.968615 
L 97.549793 90.427077 
L 96.920993 89.885538 
L 96.582408 89.344 
L 96.550161 88.802462 
L 95.792376 88.260923 
L 95.195822 87.719385 
L 93.148189 86.636308 
L 92.325912 86.094769 
L 92.245296 85.553231 
L 90.375018 85.011692 
L 90.213787 83.928615 
L 89.665602 83.387077 
L 89.423756 82.845538 
L 88.198401 82.304 
L 87.472862 81.762462 
L 86.586092 81.220923 
L 85.812183 80.137846 
L 85.779937 79.596308 
L 85.521968 79.054769 
L 84.619075 78.513231 
L 84.506213 77.971692 
L 83.877413 77.430154 
L 82.974519 76.888615 
L 82.781042 75.805538 
L 82.684304 74.722462 
L 82.668181 74.180923 
L 82.603688 73.097846 
L 82.490827 72.556308 
L 81.926519 72.014769 
L 81.41058 70.931692 
L 81.023626 70.390154 
L 80.668918 69.848615 
L 80.507687 69.307077 
L 80.378702 68.765538 
L 80.362579 68.224 
L 80.120732 67.682462 
L 79.911132 67.140923 
L 79.766024 66.599385 
L 79.508055 65.516308 
L 79.395193 64.974769 
L 79.104978 64.433231 
L 78.669654 63.891692 
L 77.927992 63.350154 
L 77.18633 62.808615 
L 77.105715 62.267077 
L 76.992853 60.100923 
L 76.073837 59.017846 
L 75.993221 58.476308 
L 75.928729 57.934769 
L 74.961344 56.851692 
L 74.574389 56.310154 
L 74.090697 55.227077 
L 73.864973 54.685538 
L 73.832727 54.144 
z
" clip-path="url(#p933a259ceb)" style="fill: #ff0000"/>
   </g>
   <g id="matplotlib.axis_1">
    <g id="xtick_1">
     <g id="line2d_1">
      <defs>
       <path id="m6f9e077e6f" d="M 0 0 
L 0 3.5 
" style="stroke: #000000; stroke-width: 0.8"/>
      </defs>
      <g>
       <use xlink:href="#m6f9e077e6f" x="58.467422" y="307.584" style="stroke: #000000; stroke-width: 0.8"/>
      </g>
     </g>
     <g id="text_1">
      <!-- 0 -->
      <g transform="translate(55.286172 322.182437)scale(0.1 -0.1)">
       <defs>
        <path id="DejaVuSans-30" d="M 2034 4250 
Q 1547 4250 1301 3770 
Q 1056 3291 1056 2328 
Q 1056 1369 1301 889 
Q 1547 409 2034 409 
Q 2525 409 2770 889 
Q 3016 1369 3016 2328 
Q 3016 3291 2770 3770 
Q 2525 4250 2034 4250 
z
M 2034 4750 
Q 2819 4750 3233 4129 
Q 3647 3509 3647 2328 
Q 3647 1150 3233 529 
Q 2819 -91 2034 -91 
Q 1250 -91 836 529 
Q 422 1150 422 2328 
Q 422 3509 836 4129 
Q 1250 4750 2034 4750 
z
" transform="scale(0.015625)"/>
       </defs>
       <use xlink:href="#DejaVuSans-30"/>
      </g>
     </g>
    </g>
    <g id="xtick_2">
     <g id="line2d_2">
      <g>
       <use xlink:href="#m6f9e077e6f" x="98.775148" y="307.584" style="stroke: #000000; stroke-width: 0.8"/>
      </g>
     </g>
     <g id="text_2">
      <!-- 25 -->
      <g transform="translate(92.412648 322.182437)scale(0.1 -0.1)">
       <defs>
        <path id="DejaVuSans-32" d="M 1228 531 
L 3431 531 
L 3431 0 
L 469 0 
L 469 531 
Q 828 903 1448 1529 
Q 2069 2156 2228 2338 
Q 2531 2678 2651 2914 
Q 2772 3150 2772 3378 
Q 2772 3750 2511 3984 
Q 2250 4219 1831 4219 
Q 1534 4219 1204 4116 
Q 875 4013 500 3803 
L 500 4441 
Q 881 4594 1212 4672 
Q 1544 4750 1819 4750 
Q 2544 4750 2975 4387 
Q 3406 4025 3406 3419 
Q 3406 3131 3298 2873 
Q 3191 2616 2906 2266 
Q 2828 2175 2409 1742 
Q 1991 1309 1228 531 
z
" transform="scale(0.015625)"/>
        <path id="DejaVuSans-35" d="M 691 4666 
L 3169 4666 
L 3169 4134 
L 1269 4134 
L 1269 2991 
Q 1406 3038 1543 3061 
Q 1681 3084 1819 3084 
Q 2600 3084 3056 2656 
Q 3513 2228 3513 1497 
Q 3513 744 3044 326 
Q 2575 -91 1722 -91 
Q 1428 -91 1123 -41 
Q 819 9 494 109 
L 494 744 
Q 775 591 1075 516 
Q 1375 441 1709 441 
Q 2250 441 2565 725 
Q 2881 1009 2881 1497 
Q 2881 1984 2565 2268 
Q 2250 2553 1709 2553 
Q 1456 2553 1204 2497 
Q 953 2441 691 2322 
L 691 4666 
z
" transform="scale(0.015625)"/>
       </defs>
       <use xlink:href="#DejaVuSans-32"/>
       <use xlink:href="#DejaVuSans-35" x="63.623047"/>
      </g>
     </g>
    </g>
    <g id="xtick_3">
     <g id="line2d_3">
      <g>
       <use xlink:href="#m6f9e077e6f" x="139.082874" y="307.584" style="stroke: #000000; stroke-width: 0.8"/>
      </g>
     </g>
     <g id="text_3">
      <!-- 50 -->
      <g transform="translate(132.720374 322.182437)scale(0.1 -0.1)">
       <use xlink:href="#DejaVuSans-35"/>
       <use xlink:href="#DejaVuSans-30" x="63.623047"/>
      </g>
     </g>
    </g>
    <g id="xtick_4">
     <g id="line2d_4">
      <g>
       <use xlink:href="#m6f9e077e6f" x="179.390599" y="307.584" style="stroke: #000000; stroke-width: 0.8"/>
      </g>
     </g>
     <g id="text_4">
      <!-- 75 -->
      <g transform="translate(173.028099 322.182437)scale(0.1 -0.1)">
       <defs>
        <path id="DejaVuSans-37" d="M 525 4666 
L 3525 4666 
L 3525 4397 
L 1831 0 
L 1172 0 
L 2766 4134 
L 525 4134 
L 525 4666 
z
" transform="scale(0.015625)"/>
       </defs>
       <use xlink:href="#DejaVuSans-37"/>
       <use xlink:href="#DejaVuSans-35" x="63.623047"/>
      </g>
     </g>
    </g>
    <g id="xtick_5">
     <g id="line2d_5">
      <g>
       <use xlink:href="#m6f9e077e6f" x="219.698325" y="307.584" style="stroke: #000000; stroke-width: 0.8"/>
      </g>
     </g>
     <g id="text_5">
      <!-- 100 -->
      <g transform="translate(210.154575 322.182437)scale(0.1 -0.1)">
       <defs>
        <path id="DejaVuSans-31" d="M 794 531 
L 1825 531 
L 1825 4091 
L 703 3866 
L 703 4441 
L 1819 4666 
L 2450 4666 
L 2450 531 
L 3481 531 
L 3481 0 
L 794 0 
L 794 531 
z
" transform="scale(0.015625)"/>
       </defs>
       <use xlink:href="#DejaVuSans-31"/>
       <use xlink:href="#DejaVuSans-30" x="63.623047"/>
       <use xlink:href="#DejaVuSans-30" x="127.246094"/>
      </g>
     </g>
    </g>
    <g id="xtick_6">
     <g id="line2d_6">
      <g>
       <use xlink:href="#m6f9e077e6f" x="260.00605" y="307.584" style="stroke: #000000; stroke-width: 0.8"/>
      </g>
     </g>
     <g id="text_6">
      <!-- 125 -->
      <g transform="translate(250.4623 322.182437)scale(0.1 -0.1)">
       <use xlink:href="#DejaVuSans-31"/>
       <use xlink:href="#DejaVuSans-32" x="63.623047"/>
       <use xlink:href="#DejaVuSans-35" x="127.246094"/>
      </g>
     </g>
    </g>
    <g id="xtick_7">
     <g id="line2d_7">
      <g>
       <use xlink:href="#m6f9e077e6f" x="300.313776" y="307.584" style="stroke: #000000; stroke-width: 0.8"/>
      </g>
     </g>
     <g id="text_7">
      <!-- 150 -->
      <g transform="translate(290.770026 322.182437)scale(0.1 -0.1)">
       <use xlink:href="#DejaVuSans-31"/>
       <use xlink:href="#DejaVuSans-35" x="63.623047"/>
       <use xlink:href="#DejaVuSans-30" x="127.246094"/>
      </g>
     </g>
    </g>
    <g id="xtick_8">
     <g id="line2d_8">
      <g>
       <use xlink:href="#m6f9e077e6f" x="340.621502" y="307.584" style="stroke: #000000; stroke-width: 0.8"/>
      </g>
     </g>
     <g id="text_8">
      <!-- 175 -->
      <g transform="translate(331.077752 322.182437)scale(0.1 -0.1)">
       <use xlink:href="#DejaVuSans-31"/>
       <use xlink:href="#DejaVuSans-37" x="63.623047"/>
       <use xlink:href="#DejaVuSans-35" x="127.246094"/>
      </g>
     </g>
    </g>
    <g id="xtick_9">
     <g id="line2d_9">
      <g>
       <use xlink:href="#m6f9e077e6f" x="380.929227" y="307.584" style="stroke: #000000; stroke-width: 0.8"/>
      </g>
     </g>
     <g id="text_9">
      <!-- 200 -->
      <g transform="translate(371.385477 322.182437)scale(0.1 -0.1)">
       <use xlink:href="#DejaVuSans-32"/>
       <use xlink:href="#DejaVuSans-30" x="63.623047"/>
       <use xlink:href="#DejaVuSans-30" x="127.246094"/>
      </g>
     </g>
    </g>
    <g id="text_10">
     <!-- Score -->
     <g transform="translate(222.157656 335.860562)scale(0.1 -0.1)">
      <defs>
       <path id="DejaVuSans-53" d="M 3425 4513 
L 3425 3897 
Q 3066 4069 2747 4153 
Q 2428 4238 2131 4238 
Q 1616 4238 1336 4038 
Q 1056 3838 1056 3469 
Q 1056 3159 1242 3001 
Q 1428 2844 1947 2747 
L 2328 2669 
Q 3034 2534 3370 2195 
Q 3706 1856 3706 1288 
Q 3706 609 3251 259 
Q 2797 -91 1919 -91 
Q 1588 -91 1214 -16 
Q 841 59 441 206 
L 441 856 
Q 825 641 1194 531 
Q 1563 422 1919 422 
Q 2459 422 2753 634 
Q 3047 847 3047 1241 
Q 3047 1584 2836 1778 
Q 2625 1972 2144 2069 
L 1759 2144 
Q 1053 2284 737 2584 
Q 422 2884 422 3419 
Q 422 4038 858 4394 
Q 1294 4750 2059 4750 
Q 2388 4750 2728 4690 
Q 3069 4631 3425 4513 
z
" transform="scale(0.015625)"/>
       <path id="DejaVuSans-63" d="M 3122 3366 
L 3122 2828 
Q 2878 2963 2633 3030 
Q 2388 3097 2138 3097 
Q 1578 3097 1268 2742 
Q 959 2388 959 1747 
Q 959 1106 1268 751 
Q 1578 397 2138 397 
Q 2388 397 2633 464 
Q 2878 531 3122 666 
L 3122 134 
Q 2881 22 2623 -34 
Q 2366 -91 2075 -91 
Q 1284 -91 818 406 
Q 353 903 353 1747 
Q 353 2603 823 3093 
Q 1294 3584 2113 3584 
Q 2378 3584 2631 3529 
Q 2884 3475 3122 3366 
z
" transform="scale(0.015625)"/>
       <path id="DejaVuSans-6f" d="M 1959 3097 
Q 1497 3097 1228 2736 
Q 959 2375 959 1747 
Q 959 1119 1226 758 
Q 1494 397 1959 397 
Q 2419 397 2687 759 
Q 2956 1122 2956 1747 
Q 2956 2369 2687 2733 
Q 2419 3097 1959 3097 
z
M 1959 3584 
Q 2709 3584 3137 3096 
Q 3566 2609 3566 1747 
Q 3566 888 3137 398 
Q 2709 -91 1959 -91 
Q 1206 -91 779 398 
Q 353 888 353 1747 
Q 353 2609 779 3096 
Q 1206 3584 1959 3584 
z
" transform="scale(0.015625)"/>
       <path id="DejaVuSans-72" d="M 2631 2963 
Q 2534 3019 2420 3045 
Q 2306 3072 2169 3072 
Q 1681 3072 1420 2755 
Q 1159 2438 1159 1844 
L 1159 0 
L 581 0 
L 581 3500 
L 1159 3500 
L 1159 2956 
Q 1341 3275 1631 3429 
Q 1922 3584 2338 3584 
Q 2397 3584 2469 3576 
Q 2541 3569 2628 3553 
L 2631 2963 
z
" transform="scale(0.015625)"/>
       <path id="DejaVuSans-65" d="M 3597 1894 
L 3597 1613 
L 953 1613 
Q 991 1019 1311 708 
Q 1631 397 2203 397 
Q 2534 397 2845 478 
Q 3156 559 3463 722 
L 3463 178 
Q 3153 47 2828 -22 
Q 2503 -91 2169 -91 
Q 1331 -91 842 396 
Q 353 884 353 1716 
Q 353 2575 817 3079 
Q 1281 3584 2069 3584 
Q 2775 3584 3186 3129 
Q 3597 2675 3597 1894 
z
M 3022 2063 
Q 3016 2534 2758 2815 
Q 2500 3097 2075 3097 
Q 1594 3097 1305 2825 
Q 1016 2553 972 2059 
L 3022 2063 
z
" transform="scale(0.015625)"/>
      </defs>
      <use xlink:href="#DejaVuSans-53"/>
      <use xlink:href="#DejaVuSans-63" x="63.476562"/>
      <use xlink:href="#DejaVuSans-6f" x="118.457031"/>
      <use xlink:href="#DejaVuSans-72" x="179.638672"/>
      <use xlink:href="#DejaVuSans-65" x="218.501953"/>
     </g>
    </g>
   </g>
   <g id="matplotlib.axis_2">
    <g id="ytick_1">
     <g id="line2d_10">
      <defs>
       <path id="mc3ccc2d02d" d="M 0 0 
L -3.5 0 
" style="stroke: #000000; stroke-width: 0.8"/>
      </defs>
      <g>
       <use xlink:href="#mc3ccc2d02d" x="57.6" y="307.584" style="stroke: #000000; stroke-width: 0.8"/>
      </g>
     </g>
     <g id="text_11">
      <!-- 0 -->
      <g transform="translate(44.2375 311.383219)scale(0.1 -0.1)">
       <use xlink:href="#DejaVuSans-30"/>
      </g>
     </g>
    </g>
    <g id="ytick_2">
     <g id="line2d_11">
      <g>
       <use xlink:href="#mc3ccc2d02d" x="57.6" y="253.430154" style="stroke: #000000; stroke-width: 0.8"/>
      </g>
     </g>
     <g id="text_12">
      <!-- 100 -->
      <g transform="translate(31.5125 257.229373)scale(0.1 -0.1)">
       <use xlink:href="#DejaVuSans-31"/>
       <use xlink:href="#DejaVuSans-30" x="63.623047"/>
       <use xlink:href="#DejaVuSans-30" x="127.246094"/>
      </g>
     </g>
    </g>
    <g id="ytick_3">
     <g id="line2d_12">
      <g>
       <use xlink:href="#mc3ccc2d02d" x="57.6" y="199.276308" style="stroke: #000000; stroke-width: 0.8"/>
      </g>
     </g>
     <g id="text_13">
      <!-- 200 -->
      <g transform="translate(31.5125 203.075526)scale(0.1 -0.1)">
       <use xlink:href="#DejaVuSans-32"/>
       <use xlink:href="#DejaVuSans-30" x="63.623047"/>
       <use xlink:href="#DejaVuSans-30" x="127.246094"/>
      </g>
     </g>
    </g>
    <g id="ytick_4">
     <g id="line2d_13">
      <g>
       <use xlink:href="#mc3ccc2d02d" x="57.6" y="145.122462" style="stroke: #000000; stroke-width: 0.8"/>
      </g>
     </g>
     <g id="text_14">
      <!-- 300 -->
      <g transform="translate(31.5125 148.92168)scale(0.1 -0.1)">
       <defs>
        <path id="DejaVuSans-33" d="M 2597 2516 
Q 3050 2419 3304 2112 
Q 3559 1806 3559 1356 
Q 3559 666 3084 287 
Q 2609 -91 1734 -91 
Q 1441 -91 1130 -33 
Q 819 25 488 141 
L 488 750 
Q 750 597 1062 519 
Q 1375 441 1716 441 
Q 2309 441 2620 675 
Q 2931 909 2931 1356 
Q 2931 1769 2642 2001 
Q 2353 2234 1838 2234 
L 1294 2234 
L 1294 2753 
L 1863 2753 
Q 2328 2753 2575 2939 
Q 2822 3125 2822 3475 
Q 2822 3834 2567 4026 
Q 2313 4219 1838 4219 
Q 1578 4219 1281 4162 
Q 984 4106 628 3988 
L 628 4550 
Q 988 4650 1302 4700 
Q 1616 4750 1894 4750 
Q 2613 4750 3031 4423 
Q 3450 4097 3450 3541 
Q 3450 3153 3228 2886 
Q 3006 2619 2597 2516 
z
" transform="scale(0.015625)"/>
       </defs>
       <use xlink:href="#DejaVuSans-33"/>
       <use xlink:href="#DejaVuSans-30" x="63.623047"/>
       <use xlink:href="#DejaVuSans-30" x="127.246094"/>
      </g>
     </g>
    </g>
    <g id="ytick_5">
     <g id="line2d_14">
      <g>
       <use xlink:href="#mc3ccc2d02d" x="57.6" y="90.968615" style="stroke: #000000; stroke-width: 0.8"/>
      </g>
     </g>
     <g id="text_15">
      <!-- 400 -->
      <g transform="translate(31.5125 94.767834)scale(0.1 -0.1)">
       <defs>
        <path id="DejaVuSans-34" d="M 2419 4116 
L 825 1625 
L 2419 1625 
L 2419 4116 
z
M 2253 4666 
L 3047 4666 
L 3047 1625 
L 3713 1625 
L 3713 1100 
L 3047 1100 
L 3047 0 
L 2419 0 
L 2419 1100 
L 313 1100 
L 313 1709 
L 2253 4666 
z
" transform="scale(0.015625)"/>
       </defs>
       <use xlink:href="#DejaVuSans-34"/>
       <use xlink:href="#DejaVuSans-30" x="63.623047"/>
       <use xlink:href="#DejaVuSans-30" x="127.246094"/>
      </g>
     </g>
    </g>
    <g id="text_16">
     <!-- Number of crosslinks -->
     <g transform="translate(25.432812 227.019406)rotate(-90)scale(0.1 -0.1)">
      <defs>
       <path id="DejaVuSans-4e" d="M 628 4666 
L 1478 4666 
L 3547 763 
L 3547 4666 
L 4159 4666 
L 4159 0 
L 3309 0 
L 1241 3903 
L 1241 0 
L 628 0 
L 628 4666 
z
" transform="scale(0.015625)"/>
       <path id="DejaVuSans-75" d="M 544 1381 
L 544 3500 
L 1119 3500 
L 1119 1403 
Q 1119 906 1312 657 
Q 1506 409 1894 409 
Q 2359 409 2629 706 
Q 2900 1003 2900 1516 
L 2900 3500 
L 3475 3500 
L 3475 0 
L 2900 0 
L 2900 538 
Q 2691 219 2414 64 
Q 2138 -91 1772 -91 
Q 1169 -91 856 284 
Q 544 659 544 1381 
z
M 1991 3584 
L 1991 3584 
z
" transform="scale(0.015625)"/>
       <path id="DejaVuSans-6d" d="M 3328 2828 
Q 3544 3216 3844 3400 
Q 4144 3584 4550 3584 
Q 5097 3584 5394 3201 
Q 5691 2819 5691 2113 
L 5691 0 
L 5113 0 
L 5113 2094 
Q 5113 2597 4934 2840 
Q 4756 3084 4391 3084 
Q 3944 3084 3684 2787 
Q 3425 2491 3425 1978 
L 3425 0 
L 2847 0 
L 2847 2094 
Q 2847 2600 2669 2842 
Q 2491 3084 2119 3084 
Q 1678 3084 1418 2786 
Q 1159 2488 1159 1978 
L 1159 0 
L 581 0 
L 581 3500 
L 1159 3500 
L 1159 2956 
Q 1356 3278 1631 3431 
Q 1906 3584 2284 3584 
Q 2666 3584 2933 3390 
Q 3200 3197 3328 2828 
z
" transform="scale(0.015625)"/>
       <path id="DejaVuSans-62" d="M 3116 1747 
Q 3116 2381 2855 2742 
Q 2594 3103 2138 3103 
Q 1681 3103 1420 2742 
Q 1159 2381 1159 1747 
Q 1159 1113 1420 752 
Q 1681 391 2138 391 
Q 2594 391 2855 752 
Q 3116 1113 3116 1747 
z
M 1159 2969 
Q 1341 3281 1617 3432 
Q 1894 3584 2278 3584 
Q 2916 3584 3314 3078 
Q 3713 2572 3713 1747 
Q 3713 922 3314 415 
Q 2916 -91 2278 -91 
Q 1894 -91 1617 61 
Q 1341 213 1159 525 
L 1159 0 
L 581 0 
L 581 4863 
L 1159 4863 
L 1159 2969 
z
" transform="scale(0.015625)"/>
       <path id="DejaVuSans-20" transform="scale(0.015625)"/>
       <path id="DejaVuSans-66" d="M 2375 4863 
L 2375 4384 
L 1825 4384 
Q 1516 4384 1395 4259 
Q 1275 4134 1275 3809 
L 1275 3500 
L 2222 3500 
L 2222 3053 
L 1275 3053 
L 1275 0 
L 697 0 
L 697 3053 
L 147 3053 
L 147 3500 
L 697 3500 
L 697 3744 
Q 697 4328 969 4595 
Q 1241 4863 1831 4863 
L 2375 4863 
z
" transform="scale(0.015625)"/>
       <path id="DejaVuSans-73" d="M 2834 3397 
L 2834 2853 
Q 2591 2978 2328 3040 
Q 2066 3103 1784 3103 
Q 1356 3103 1142 2972 
Q 928 2841 928 2578 
Q 928 2378 1081 2264 
Q 1234 2150 1697 2047 
L 1894 2003 
Q 2506 1872 2764 1633 
Q 3022 1394 3022 966 
Q 3022 478 2636 193 
Q 2250 -91 1575 -91 
Q 1294 -91 989 -36 
Q 684 19 347 128 
L 347 722 
Q 666 556 975 473 
Q 1284 391 1588 391 
Q 1994 391 2212 530 
Q 2431 669 2431 922 
Q 2431 1156 2273 1281 
Q 2116 1406 1581 1522 
L 1381 1569 
Q 847 1681 609 1914 
Q 372 2147 372 2553 
Q 372 3047 722 3315 
Q 1072 3584 1716 3584 
Q 2034 3584 2315 3537 
Q 2597 3491 2834 3397 
z
" transform="scale(0.015625)"/>
       <path id="DejaVuSans-6c" d="M 603 4863 
L 1178 4863 
L 1178 0 
L 603 0 
L 603 4863 
z
" transform="scale(0.015625)"/>
       <path id="DejaVuSans-69" d="M 603 3500 
L 1178 3500 
L 1178 0 
L 603 0 
L 603 3500 
z
M 603 4863 
L 1178 4863 
L 1178 4134 
L 603 4134 
L 603 4863 
z
" transform="scale(0.015625)"/>
       <path id="DejaVuSans-6e" d="M 3513 2113 
L 3513 0 
L 2938 0 
L 2938 2094 
Q 2938 2591 2744 2837 
Q 2550 3084 2163 3084 
Q 1697 3084 1428 2787 
Q 1159 2491 1159 1978 
L 1159 0 
L 581 0 
L 581 3500 
L 1159 3500 
L 1159 2956 
Q 1366 3272 1645 3428 
Q 1925 3584 2291 3584 
Q 2894 3584 3203 3211 
Q 3513 2838 3513 2113 
z
" transform="scale(0.015625)"/>
       <path id="DejaVuSans-6b" d="M 581 4863 
L 1159 4863 
L 1159 1991 
L 2875 3500 
L 3609 3500 
L 1753 1863 
L 3688 0 
L 2938 0 
L 1159 1709 
L 1159 0 
L 581 0 
L 581 4863 
z
" transform="scale(0.015625)"/>
      </defs>
      <use xlink:href="#DejaVuSans-4e"/>
      <use xlink:href="#DejaVuSans-75" x="74.804688"/>
      <use xlink:href="#DejaVuSans-6d" x="138.183594"/>
      <use xlink:href="#DejaVuSans-62" x="235.595703"/>
      <use xlink:href="#DejaVuSans-65" x="299.072266"/>
      <use xlink:href="#DejaVuSans-72" x="360.595703"/>
      <use xlink:href="#DejaVuSans-20" x="401.708984"/>
      <use xlink:href="#DejaVuSans-6f" x="433.496094"/>
      <use xlink:href="#DejaVuSans-66" x="494.677734"/>
      <use xlink:href="#DejaVuSans-20" x="529.882812"/>
      <use xlink:href="#DejaVuSans-63" x="561.669922"/>
      <use xlink:href="#DejaVuSans-72" x="616.650391"/>
      <use xlink:href="#DejaVuSans-6f" x="655.513672"/>
      <use xlink:href="#DejaVuSans-73" x="716.695312"/>
      <use xlink:href="#DejaVuSans-73" x="768.794922"/>
      <use xlink:href="#DejaVuSans-6c" x="820.894531"/>
      <use xlink:href="#DejaVuSans-69" x="848.677734"/>
      <use xlink:href="#DejaVuSans-6e" x="876.460938"/>
      <use xlink:href="#DejaVuSans-6b" x="939.839844"/>
      <use xlink:href="#DejaVuSans-73" x="997.75"/>
     </g>
    </g>
   </g>
   <g id="patch_3">
    <path d="M 57.6 307.584 
L 57.6 41.472 
" style="fill: none; stroke: #000000; stroke-width: 0.8; stroke-linejoin: miter; stroke-linecap: square"/>
   </g>
   <g id="patch_4">
    <path d="M 414.72 307.584 
L 414.72 41.472 
" style="fill: none; stroke: #000000; stroke-width: 0.8; stroke-linejoin: miter; stroke-linecap: square"/>
   </g>
   <g id="patch_5">
    <path d="M 57.6 307.584 
L 414.72 307.584 
" style="fill: none; stroke: #000000; stroke-width: 0.8; stroke-linejoin: miter; stroke-linecap: square"/>
   </g>
   <g id="patch_6">
    <path d="M 57.6 41.472 
L 414.72 41.472 
" style="fill: none; stroke: #000000; stroke-width: 0.8; stroke-linejoin: miter; stroke-linecap: square"/>
   </g>
   <g id="legend_1">
    <g id="patch_7">
     <path d="M 278.598125 93.506375 
L 407.72 93.506375 
Q 409.72 93.506375 409.72 91.506375 
L 409.72 48.472 
Q 409.72 46.472 407.72 46.472 
L 278.598125 46.472 
Q 276.598125 46.472 276.598125 48.472 
L 276.598125 91.506375 
Q 276.598125 93.506375 278.598125 93.506375 
z
" style="fill: #ffffff; opacity: 0.8; stroke: #cccccc; stroke-linejoin: miter"/>
    </g>
    <g id="patch_8">
     <path d="M 280.598125 58.070438 
L 300.598125 58.070438 
L 300.598125 51.070438 
L 280.598125 51.070438 
z
" style="fill: #008000"/>
    </g>
    <g id="text_17">
     <!-- correct -->
     <g transform="translate(308.598125 58.070438)scale(0.1 -0.1)">
      <defs>
       <path id="DejaVuSans-74" d="M 1172 4494 
L 1172 3500 
L 2356 3500 
L 2356 3053 
L 1172 3053 
L 1172 1153 
Q 1172 725 1289 603 
Q 1406 481 1766 481 
L 2356 481 
L 2356 0 
L 1766 0 
Q 1100 0 847 248 
Q 594 497 594 1153 
L 594 3053 
L 172 3053 
L 172 3500 
L 594 3500 
L 594 4494 
L 1172 4494 
z
" transform="scale(0.015625)"/>
      </defs>
      <use xlink:href="#DejaVuSans-63"/>
      <use xlink:href="#DejaVuSans-6f" x="54.980469"/>
      <use xlink:href="#DejaVuSans-72" x="116.162109"/>
      <use xlink:href="#DejaVuSans-72" x="155.525391"/>
      <use xlink:href="#DejaVuSans-65" x="194.388672"/>
      <use xlink:href="#DejaVuSans-63" x="255.912109"/>
      <use xlink:href="#DejaVuSans-74" x="310.892578"/>
     </g>
    </g>
    <g id="patch_9">
     <path d="M 280.598125 72.748563 
L 300.598125 72.748563 
L 300.598125 65.748563 
L 280.598125 65.748563 
z
" style="fill: #7cfc00"/>
    </g>
    <g id="text_18">
     <!-- correct homeotypic -->
     <g transform="translate(308.598125 72.748563)scale(0.1 -0.1)">
      <defs>
       <path id="DejaVuSans-68" d="M 3513 2113 
L 3513 0 
L 2938 0 
L 2938 2094 
Q 2938 2591 2744 2837 
Q 2550 3084 2163 3084 
Q 1697 3084 1428 2787 
Q 1159 2491 1159 1978 
L 1159 0 
L 581 0 
L 581 4863 
L 1159 4863 
L 1159 2956 
Q 1366 3272 1645 3428 
Q 1925 3584 2291 3584 
Q 2894 3584 3203 3211 
Q 3513 2838 3513 2113 
z
" transform="scale(0.015625)"/>
       <path id="DejaVuSans-79" d="M 2059 -325 
Q 1816 -950 1584 -1140 
Q 1353 -1331 966 -1331 
L 506 -1331 
L 506 -850 
L 844 -850 
Q 1081 -850 1212 -737 
Q 1344 -625 1503 -206 
L 1606 56 
L 191 3500 
L 800 3500 
L 1894 763 
L 2988 3500 
L 3597 3500 
L 2059 -325 
z
" transform="scale(0.015625)"/>
       <path id="DejaVuSans-70" d="M 1159 525 
L 1159 -1331 
L 581 -1331 
L 581 3500 
L 1159 3500 
L 1159 2969 
Q 1341 3281 1617 3432 
Q 1894 3584 2278 3584 
Q 2916 3584 3314 3078 
Q 3713 2572 3713 1747 
Q 3713 922 3314 415 
Q 2916 -91 2278 -91 
Q 1894 -91 1617 61 
Q 1341 213 1159 525 
z
M 3116 1747 
Q 3116 2381 2855 2742 
Q 2594 3103 2138 3103 
Q 1681 3103 1420 2742 
Q 1159 2381 1159 1747 
Q 1159 1113 1420 752 
Q 1681 391 2138 391 
Q 2594 391 2855 752 
Q 3116 1113 3116 1747 
z
" transform="scale(0.015625)"/>
      </defs>
      <use xlink:href="#DejaVuSans-63"/>
      <use xlink:href="#DejaVuSans-6f" x="54.980469"/>
      <use xlink:href="#DejaVuSans-72" x="116.162109"/>
      <use xlink:href="#DejaVuSans-72" x="155.525391"/>
      <use xlink:href="#DejaVuSans-65" x="194.388672"/>
      <use xlink:href="#DejaVuSans-63" x="255.912109"/>
      <use xlink:href="#DejaVuSans-74" x="310.892578"/>
      <use xlink:href="#DejaVuSans-20" x="350.101562"/>
      <use xlink:href="#DejaVuSans-68" x="381.888672"/>
      <use xlink:href="#DejaVuSans-6f" x="445.267578"/>
      <use xlink:href="#DejaVuSans-6d" x="506.449219"/>
      <use xlink:href="#DejaVuSans-65" x="603.861328"/>
      <use xlink:href="#DejaVuSans-6f" x="665.384766"/>
      <use xlink:href="#DejaVuSans-74" x="726.566406"/>
      <use xlink:href="#DejaVuSans-79" x="765.775391"/>
      <use xlink:href="#DejaVuSans-70" x="824.955078"/>
      <use xlink:href="#DejaVuSans-69" x="888.431641"/>
      <use xlink:href="#DejaVuSans-63" x="916.214844"/>
     </g>
    </g>
    <g id="patch_10">
     <path d="M 280.598125 87.426688 
L 300.598125 87.426688 
L 300.598125 80.426688 
L 280.598125 80.426688 
z
" style="fill: #ff0000"/>
    </g>
    <g id="text_19">
     <!-- false -->
     <g transform="translate(308.598125 87.426688)scale(0.1 -0.1)">
      <defs>
       <path id="DejaVuSans-61" d="M 2194 1759 
Q 1497 1759 1228 1600 
Q 959 1441 959 1056 
Q 959 750 1161 570 
Q 1363 391 1709 391 
Q 2188 391 2477 730 
Q 2766 1069 2766 1631 
L 2766 1759 
L 2194 1759 
z
M 3341 1997 
L 3341 0 
L 2766 0 
L 2766 531 
Q 2569 213 2275 61 
Q 1981 -91 1556 -91 
Q 1019 -91 701 211 
Q 384 513 384 1019 
Q 384 1609 779 1909 
Q 1175 2209 1959 2209 
L 2766 2209 
L 2766 2266 
Q 2766 2663 2505 2880 
Q 2244 3097 1772 3097 
Q 1472 3097 1187 3025 
Q 903 2953 641 2809 
L 641 3341 
Q 956 3463 1253 3523 
Q 1550 3584 1831 3584 
Q 2591 3584 2966 3190 
Q 3341 2797 3341 1997 
z
" transform="scale(0.015625)"/>
      </defs>
      <use xlink:href="#DejaVuSans-66"/>
      <use xlink:href="#DejaVuSans-61" x="35.205078"/>
      <use xlink:href="#DejaVuSans-6c" x="96.484375"/>
      <use xlink:href="#DejaVuSans-73" x="124.267578"/>
      <use xlink:href="#DejaVuSans-65" x="176.367188"/>
     </g>
    </g>
   </g>
  </g>
 </g>
 <defs>
  <clipPath id="p933a259ceb">
   <rect x="57.6" y="41.472" width="357.12" height="266.112"/>
  </clipPath>
 </defs>
</svg>
