<?xml version="1.0" encoding="UTF-8" standalone="no"?>
<svg
   id="networkSVG"
   width="1190.3047"
   height="449.25681"
   style="display:block"
   version="1.1"
   sodipodi:docname="unique_links_nsp8_crop.svg"
   inkscape:version="1.1.2 (b8e25be833, 2022-02-05)"
   xmlns:inkscape="http://www.inkscape.org/namespaces/inkscape"
   xmlns:sodipodi="http://sodipodi.sourceforge.net/DTD/sodipodi-0.dtd"
   xmlns="http://www.w3.org/2000/svg"
   xmlns:svg="http://www.w3.org/2000/svg">
  <defs
     id="defs2331" />
  <sodipodi:namedview
     id="namedview2329"
     pagecolor="#ffffff"
     bordercolor="#666666"
     borderopacity="1.0"
     inkscape:pageshadow="2"
     inkscape:pageopacity="0.0"
     inkscape:pagecheckerboard="0"
     showgrid="false"
     fit-margin-top="0"
     fit-margin-left="0"
     fit-margin-right="0"
     fit-margin-bottom="0"
     inkscape:zoom="0.70710678"
     inkscape:cx="618.71843"
     inkscape:cy="73.539105"
     inkscape:window-width="1920"
     inkscape:window-height="1137"
     inkscape:window-x="-8"
     inkscape:window-y="-8"
     inkscape:window-maximized="1"
     inkscape:current-layer="networkSVG" />
  <g
     id="container"
     transform="translate(-302.16614,-299.33771)">
    <g
       id="p_pLinksWide" />
    <g
       id="proteinLower">
      <g
         class="protein lowerGroup"
         transform="translate(958,713)"
         id="g2121">
        <rect
           stroke="#ffff99"
           stroke-width="5"
           fill="none"
           stroke-opacity="1"
           ry="0"
           rx="0"
           y="-12.5"
           x="-508.46463"
           height="25"
           width="1022.066"
           id="rect2115" />
        <g
           opacity="1"
           id="g2117" />
        <g
           transform="scale(40.5,1)"
           id="g2119" />
      </g>
    </g>
    <g
       class="highlights"
       id="g2124" />
    <g
       id="res_resLinks" />
    <g
       id="p_pLinks" />
    <g
       id="proteinUpper">
      <g
         class="protein upperGroup"
         transform="translate(958,713)"
         id="g2318">
        <g
           id="g2162">
          <path
             class="link"
             fill="none"
             stroke="#fdc086"
             stroke-width="10"
             stroke-opacity="0"
             transform="scale(1,-1)"
             d="m -10.273393,0 q -9.576564,-26.311393 0,-28 9.57656355,1.688607 0,28"
             x1="947.7266065388951"
             y1="713"
             id="path2128" />
          <path
             class="link"
             fill="none"
             stroke="#fdc086"
             stroke-width="10"
             stroke-opacity="0"
             d="m -10.273393,0 q 0,-13 0,-13 a 254.26649,254.26649 0 0 1 508.532973,0 q 0,13 0,13"
             x1="947.7266065388951"
             y1="713"
             id="path2130" />
          <path
             class="link"
             fill="none"
             stroke="#fdc086"
             stroke-width="10"
             stroke-opacity="0"
             d="m -138.69081,0 q 0,-13 0,-13 a 43.661922,43.661922 0 0 1 87.323843,0 q 0,13 0,13"
             x1="819.3091882750846"
             y1="713"
             id="path2132" />
          <path
             class="link"
             fill="none"
             stroke="#ffff99"
             stroke-width="10"
             stroke-opacity="0"
             d="m 143.82751,0 q 0,-13 0,-13 a 177.21604,177.21604 0 0 1 354.43207,0 q 0,13 0,13"
             x1="1101.827508455468"
             y1="713"
             id="path2134" />
          <path
             class="link"
             fill="none"
             stroke="#fdc086"
             stroke-width="10"
             stroke-opacity="0"
             d="m -195.19448,0 q 0,-13 0,-13 a 346.72703,346.72703 0 0 1 693.45406,0 q 0,13 0,13"
             x1="762.8055242390079"
             y1="713"
             id="path2136" />
          <path
             class="link"
             fill="none"
             stroke="#fdc086"
             stroke-width="10"
             stroke-opacity="0"
             d="m -210.60457,0 q 0,-13 0,-13 a 354.43208,354.43208 0 0 1 708.86415,0 q 0,13 0,13"
             x1="747.3954340473506"
             y1="713"
             id="path2138" />
          <path
             class="link"
             fill="none"
             stroke="#fdc086"
             stroke-width="10"
             stroke-opacity="0"
             d="m -51.366967,0 q 0,-13 0,-13 a 274.81328,274.81328 0 0 1 549.626547,0 q 0,13 0,13"
             x1="906.6330326944758"
             y1="713"
             id="path2140" />
          <path
             class="link"
             fill="none"
             stroke="#fdc086"
             stroke-width="10"
             stroke-opacity="0"
             d="m -303.06511,0 q 0,-13 0,-13 a 146.39586,146.39586 0 0 1 292.791717,0 q 0,13 0,13"
             x1="654.9348928974069"
             y1="713"
             id="path2142" />
          <path
             class="link"
             fill="none"
             stroke="#fdc086"
             stroke-width="10"
             stroke-opacity="0"
             d="m -87.323844,0 q 0,-13 0,-13 a 292.79171,292.79171 0 0 1 585.583424,0 q 0,13 0,13"
             x1="870.6761555806088"
             y1="713"
             id="path2144" />
          <path
             class="link"
             fill="none"
             stroke="#fdc086"
             stroke-width="10"
             stroke-opacity="0"
             d="m -102.73393,0 q 0,-13 0,-13 a 115.57568,115.57568 0 0 1 231.15135,0 q 0,13 0,13"
             x1="855.2660653889516"
             y1="713"
             id="path2146" />
          <path
             class="link"
             fill="none"
             stroke="#fdc086"
             stroke-width="10"
             stroke-opacity="0"
             d="m -159.2376,0 q 0,-13 0,-13 a 74.482104,74.482104 0 0 1 148.964207,0 q 0,13 0,13"
             x1="798.7624013528748"
             y1="713"
             id="path2148" />
          <path
             class="link"
             fill="none"
             stroke="#fdc086"
             stroke-width="10"
             stroke-opacity="0"
             d="m 128.41742,0 q 0,-13 0,-13 a 184.92108,184.92108 0 0 1 369.84216,0 q 0,13 0,13"
             x1="1086.4174182638105"
             y1="713"
             id="path2150" />
          <path
             class="link"
             fill="none"
             stroke="#fdc086"
             stroke-width="10"
             stroke-opacity="0"
             d="m -272.24493,0 q 0,-13 0,-13 a 385.25226,385.25226 0 0 1 770.50451,0 q 0,13 0,13"
             x1="685.7550732807215"
             y1="713"
             id="path2152" />
          <path
             class="link"
             fill="none"
             stroke="#fdc086"
             stroke-width="10"
             stroke-opacity="0"
             d="m -102.73393,0 q 0,-13 0,-13 a 46.230271,46.230271 0 0 1 92.460537,0 q 0,13 0,13"
             x1="855.2660653889516"
             y1="713"
             id="path2154" />
          <path
             class="link"
             fill="none"
             stroke="#fdc086"
             stroke-width="10"
             stroke-opacity="0"
             d="m -71.913754,0 q 0,-13 0,-13 a 285.08667,285.08667 0 0 1 570.173334,0 q 0,13 0,13"
             x1="886.086245772266"
             y1="713"
             id="path2156" />
          <path
             class="link"
             fill="none"
             stroke="#fdc086"
             stroke-width="10"
             stroke-opacity="0"
             d="m -71.913754,0 q 0,-13 0,-13 a 30.82018,30.82018 0 0 1 61.640361,0 q 0,13 0,13"
             x1="886.086245772266"
             y1="713"
             id="path2158" />
          <path
             class="link"
             fill="none"
             stroke="#fdc086"
             stroke-width="10"
             stroke-opacity="0"
             d="m -138.69081,0 q 0,-13 0,-13 a 30.82018,30.82018 0 0 1 61.640359,0 q 0,13 0,13"
             x1="819.3091882750846"
             y1="713"
             id="path2160" />
        </g>
        <g
           id="g2198">
          <path
             stroke="#a50f15"
             class="link"
             fill="none"
             stroke-width="1.3"
             d="m -10.273393,0 q -9.576564,-26.311393 0,-28 9.57656355,1.688607 0,28"
             transform="scale(1,-1)"
             x1="947.7266065388951"
             y1="713"
             id="path2164" />
          <path
             stroke="#9970ab"
             class="link"
             fill="none"
             stroke-width="1.3"
             d="m -10.273393,0 q 0,-13 0,-13 a 254.26649,254.26649 0 0 1 508.532973,0 q 0,13 0,13"
             x1="947.7266065388951"
             y1="713"
             id="path2166" />
          <path
             stroke="#9970ab"
             class="link"
             fill="none"
             stroke-width="1.3"
             d="m -138.69081,0 q 0,-13 0,-13 a 43.661922,43.661922 0 0 1 87.323843,0 q 0,13 0,13"
             x1="819.3091882750846"
             y1="713"
             id="path2168" />
          <path
             stroke="#9970ab"
             class="link"
             fill="none"
             stroke-width="1.3"
             d="m 143.82751,0 q 0,-13 0,-13 a 177.21604,177.21604 0 0 1 354.43207,0 q 0,13 0,13"
             x1="1101.827508455468"
             y1="713"
             id="path2170" />
          <path
             stroke="#9970ab"
             class="link"
             fill="none"
             stroke-width="1.3"
             d="m -195.19448,0 q 0,-13 0,-13 a 346.72703,346.72703 0 0 1 693.45406,0 q 0,13 0,13"
             x1="762.8055242390079"
             y1="713"
             id="path2172" />
          <path
             stroke="#9970ab"
             class="link"
             fill="none"
             stroke-width="1.3"
             d="m -210.60457,0 q 0,-13 0,-13 a 354.43208,354.43208 0 0 1 708.86415,0 q 0,13 0,13"
             x1="747.3954340473506"
             y1="713"
             id="path2174" />
          <path
             stroke="#9970ab"
             class="link"
             fill="none"
             stroke-width="1.3"
             d="m -51.366967,0 q 0,-13 0,-13 a 274.81328,274.81328 0 0 1 549.626547,0 q 0,13 0,13"
             x1="906.6330326944758"
             y1="713"
             id="path2176" />
          <path
             stroke="#9970ab"
             class="link"
             fill="none"
             stroke-width="1.3"
             d="m -303.06511,0 q 0,-13 0,-13 a 146.39586,146.39586 0 0 1 292.791717,0 q 0,13 0,13"
             x1="654.9348928974069"
             y1="713"
             id="path2178" />
          <path
             stroke="#9970ab"
             class="link"
             fill="none"
             stroke-width="1.3"
             d="m -87.323844,0 q 0,-13 0,-13 a 292.79171,292.79171 0 0 1 585.583424,0 q 0,13 0,13"
             x1="870.6761555806088"
             y1="713"
             id="path2180" />
          <path
             stroke="#9970ab"
             class="link"
             fill="none"
             stroke-width="1.3"
             d="m -102.73393,0 q 0,-13 0,-13 a 115.57568,115.57568 0 0 1 231.15135,0 q 0,13 0,13"
             x1="855.2660653889516"
             y1="713"
             id="path2182" />
          <path
             stroke="#9970ab"
             class="link"
             fill="none"
             stroke-width="1.3"
             d="m -159.2376,0 q 0,-13 0,-13 a 74.482104,74.482104 0 0 1 148.964207,0 q 0,13 0,13"
             x1="798.7624013528748"
             y1="713"
             id="path2184" />
          <path
             stroke="#9970ab"
             class="link"
             fill="none"
             stroke-width="1.3"
             d="m 128.41742,0 q 0,-13 0,-13 a 184.92108,184.92108 0 0 1 369.84216,0 q 0,13 0,13"
             x1="1086.4174182638105"
             y1="713"
             id="path2186" />
          <path
             stroke="#9970ab"
             class="link"
             fill="none"
             stroke-width="1.3"
             d="m -272.24493,0 q 0,-13 0,-13 a 385.25226,385.25226 0 0 1 770.50451,0 q 0,13 0,13"
             x1="685.7550732807215"
             y1="713"
             id="path2188" />
          <path
             stroke="#9970ab"
             class="link"
             fill="none"
             stroke-width="1.3"
             d="m -102.73393,0 q 0,-13 0,-13 a 46.230271,46.230271 0 0 1 92.460537,0 q 0,13 0,13"
             x1="855.2660653889516"
             y1="713"
             id="path2190" />
          <path
             stroke="#9970ab"
             class="link"
             fill="none"
             stroke-width="1.3"
             d="m -71.913754,0 q 0,-13 0,-13 a 285.08667,285.08667 0 0 1 570.173334,0 q 0,13 0,13"
             x1="886.086245772266"
             y1="713"
             id="path2192" />
          <path
             stroke="#9970ab"
             class="link"
             fill="none"
             stroke-width="1.3"
             d="m -71.913754,0 q 0,-13 0,-13 a 30.82018,30.82018 0 0 1 61.640361,0 q 0,13 0,13"
             x1="886.086245772266"
             y1="713"
             id="path2194" />
          <path
             stroke="#9970ab"
             class="link"
             fill="none"
             stroke-width="1.3"
             d="m -138.69081,0 q 0,-13 0,-13 a 30.82018,30.82018 0 0 1 61.640359,0 q 0,13 0,13"
             x1="819.3091882750846"
             y1="713"
             id="path2196" />
        </g>
        <text
           text-anchor="end"
           fill="#000000"
           x="0"
           y="10"
           class="protein xlv_text proteinLabel"
           font-family="Arial"
           font-size="16px"
           transform="translate(-518.533,-5)"
           id="text2200">YP_009725304.1</text>
        <rect
           stroke="#000000"
           stroke-width="1"
           fill="#ffffff"
           ry="0"
           rx="0"
           height="20"
           width="1017.066"
           y="-10"
           x="-505.96463"
           fill-opacity="0"
           stroke-opacity="1"
           id="rect2202" />
        <g
           opacity="1"
           id="g2286">
          <g
             transform="translate(-503.39628)"
             id="g2206">
            <text
               class="protein xlv_text proteinLabel"
               font-family="'Courier New', monospace"
               font-size="14px"
               text-anchor="middle"
               x="0"
               y="24"
               id="text2204">1</text>
          </g>
          <line
             x1="-457.16602"
             y1="5"
             x2="-457.16602"
             y2="10"
             stroke="#000000"
             id="line2208" />
          <line
             x1="-405.79904"
             y1="5"
             x2="-405.79904"
             y2="10"
             stroke="#000000"
             id="line2210" />
          <g
             transform="translate(-405.79904)"
             id="g2214">
            <text
               class="protein xlv_text proteinLabel"
               font-family="'Courier New', monospace"
               font-size="14px"
               text-anchor="middle"
               x="0"
               y="24"
               id="text2212">20</text>
          </g>
          <line
             x1="-354.43207"
             y1="5"
             x2="-354.43207"
             y2="10"
             stroke="#000000"
             id="line2216" />
          <line
             x1="-303.06509"
             y1="5"
             x2="-303.06509"
             y2="10"
             stroke="#000000"
             id="line2218" />
          <g
             transform="translate(-303.06511)"
             id="g2222">
            <text
               class="protein xlv_text proteinLabel"
               font-family="'Courier New', monospace"
               font-size="14px"
               text-anchor="middle"
               x="0"
               y="24"
               id="text2220">40</text>
          </g>
          <line
             x1="-251.69814"
             y1="5"
             x2="-251.69814"
             y2="10"
             stroke="#000000"
             id="line2224" />
          <line
             x1="-200.33118"
             y1="5"
             x2="-200.33118"
             y2="10"
             stroke="#000000"
             id="line2226" />
          <g
             transform="translate(-200.33117)"
             id="g2230">
            <text
               class="protein xlv_text proteinLabel"
               font-family="'Courier New', monospace"
               font-size="14px"
               text-anchor="middle"
               x="0"
               y="24"
               id="text2228">60</text>
          </g>
          <line
             x1="-148.9642"
             y1="5"
             x2="-148.9642"
             y2="10"
             stroke="#000000"
             id="line2232" />
          <line
             x1="-97.597237"
             y1="5"
             x2="-97.597237"
             y2="10"
             stroke="#000000"
             id="line2234" />
          <g
             transform="translate(-97.597238)"
             id="g2238">
            <text
               class="protein xlv_text proteinLabel"
               font-family="'Courier New', monospace"
               font-size="14px"
               text-anchor="middle"
               x="0"
               y="24"
               id="text2236">80</text>
          </g>
          <line
             x1="-46.23027"
             y1="5"
             x2="-46.23027"
             y2="10"
             stroke="#000000"
             id="line2240" />
          <line
             x1="5.1366968"
             y1="5"
             x2="5.1366968"
             y2="10"
             stroke="#000000"
             id="line2242" />
          <g
             transform="translate(5.1366967)"
             id="g2246">
            <text
               class="protein xlv_text proteinLabel"
               font-family="'Courier New', monospace"
               font-size="14px"
               text-anchor="middle"
               x="0"
               y="24"
               id="text2244">100</text>
          </g>
          <line
             x1="56.503666"
             y1="5"
             x2="56.503666"
             y2="10"
             stroke="#000000"
             id="line2248" />
          <line
             x1="107.87063"
             y1="5"
             x2="107.87063"
             y2="10"
             stroke="#000000"
             id="line2250" />
          <g
             transform="translate(107.87063)"
             id="g2254">
            <text
               class="protein xlv_text proteinLabel"
               font-family="'Courier New', monospace"
               font-size="14px"
               text-anchor="middle"
               x="0"
               y="24"
               id="text2252">120</text>
          </g>
          <line
             x1="159.23759"
             y1="5"
             x2="159.23759"
             y2="10"
             stroke="#000000"
             id="line2256" />
          <line
             x1="210.60457"
             y1="5"
             x2="210.60457"
             y2="10"
             stroke="#000000"
             id="line2258" />
          <g
             transform="translate(210.60457)"
             id="g2262">
            <text
               class="protein xlv_text proteinLabel"
               font-family="'Courier New', monospace"
               font-size="14px"
               text-anchor="middle"
               x="0"
               y="24"
               id="text2260">140</text>
          </g>
          <line
             x1="261.97153"
             y1="5"
             x2="261.97153"
             y2="10"
             stroke="#000000"
             id="line2264" />
          <line
             x1="313.3385"
             y1="5"
             x2="313.3385"
             y2="10"
             stroke="#000000"
             id="line2266" />
          <g
             transform="translate(313.3385)"
             id="g2270">
            <text
               class="protein xlv_text proteinLabel"
               font-family="'Courier New', monospace"
               font-size="14px"
               text-anchor="middle"
               x="0"
               y="24"
               id="text2268">160</text>
          </g>
          <line
             x1="364.70547"
             y1="5"
             x2="364.70547"
             y2="10"
             stroke="#000000"
             id="line2272" />
          <line
             x1="416.07245"
             y1="5"
             x2="416.07245"
             y2="10"
             stroke="#000000"
             id="line2274" />
          <g
             transform="translate(416.07244)"
             id="g2278">
            <text
               class="protein xlv_text proteinLabel"
               font-family="'Courier New', monospace"
               font-size="14px"
               text-anchor="middle"
               x="0"
               y="24"
               id="text2276">180</text>
          </g>
          <line
             x1="467.43939"
             y1="5"
             x2="467.43939"
             y2="10"
             stroke="#000000"
             id="line2280" />
          <g
             transform="translate(508.53298)"
             id="g2284">
            <text
               class="protein xlv_text proteinLabel"
               font-family="'Courier New', monospace"
               font-size="14px"
               text-anchor="middle"
               x="0"
               y="24"
               id="text2282">198</text>
          </g>
        </g>
        <g
           opacity="0"
           id="g2288" />
        <g
           transform="translate(-523.46463)"
           id="g2302">
          <circle
             r="14"
             stroke="none"
             fill="#808080"
             fill-opacity="0"
             id="circle2290"
             cx="0"
             cy="0" />
          <g
             class="PV_rotator"
             id="g2300">
            <g
               transform="matrix(0.49497475,0.49497475,-0.49497475,0.49497475,0,0)"
               display="none"
               id="g2298">
              <circle
                 r="20"
                 stroke="#000000"
                 stroke-width="1"
                 fill="none"
                 id="circle2292"
                 cx="0"
                 cy="0" />
              <path
                 d="M 19.818182,-3 16,3.10345 h 7.636363 z"
                 stroke="#000000"
                 stroke-width="1"
                 fill="#000000"
                 id="path2294" />
              <path
                 d="M 19.818182,-3 16,3.10345 h 7.636363 z"
                 stroke="#000000"
                 stroke-width="1"
                 fill="#000000"
                 transform="scale(-1)"
                 id="path2296" />
            </g>
          </g>
        </g>
        <g
           transform="translate(528.60132)"
           id="g2316">
          <circle
             r="14"
             stroke="none"
             fill="#808080"
             fill-opacity="0"
             id="circle2304"
             cx="0"
             cy="0" />
          <g
             class="PV_rotator"
             id="g2314">
            <g
               transform="matrix(0.49497475,0.49497475,-0.49497475,0.49497475,0,0)"
               display="none"
               id="g2312">
              <circle
                 r="20"
                 stroke="#000000"
                 stroke-width="1"
                 fill="none"
                 id="circle2306"
                 cx="0"
                 cy="0" />
              <path
                 d="M 19.818182,-3 16,3.10345 h 7.636363 z"
                 stroke="#000000"
                 stroke-width="1"
                 fill="#000000"
                 id="path2308" />
              <path
                 d="M 19.818182,-3 16,3.10345 h 7.636363 z"
                 stroke="#000000"
                 stroke-width="1"
                 fill="#000000"
                 transform="scale(-1)"
                 id="path2310" />
            </g>
          </g>
        </g>
      </g>
    </g>
  </g>
  <rect
     fill="#ffffff"
     stroke="#ffffff"
     class="tooltip_bg"
     opacity="1"
     stroke-width="1"
     display="none"
     x="-146.16614"
     y="-270.33771"
     width="631.6875"
     height="28"
     id="rect2322" />
  <rect
     class="tooltip_bg"
     fill-opacity="0.75"
     stroke-opacity="1"
     stroke-width="1"
     display="none"
     x="-146.16614"
     y="-270.33771"
     width="631.6875"
     fill="#ffffff"
     stroke="#808080"
     height="28"
     id="rect2324" />
  <text
     x="-140.16614"
     y="-251.33771"
     display="none"
     id="text2326">YP_009725304.1_127-YP_009725304.1_196 (1 match), top score:0.00</text>
</svg>
