<?xml version="1.0" encoding="utf-8" standalone="no"?>
<!DOCTYPE svg PUBLIC "-//W3C//DTD SVG 1.1//EN"
  "http://www.w3.org/Graphics/SVG/1.1/DTD/svg11.dtd">
<svg xmlns:xlink="http://www.w3.org/1999/xlink" width="460.8pt" height="345.6pt" viewBox="0 0 460.8 345.6" xmlns="http://www.w3.org/2000/svg" version="1.1">
 <metadata>
  <rdf:RDF xmlns:dc="http://purl.org/dc/elements/1.1/" xmlns:cc="http://creativecommons.org/ns#" xmlns:rdf="http://www.w3.org/1999/02/22-rdf-syntax-ns#">
   <cc:Work>
    <dc:type rdf:resource="http://purl.org/dc/dcmitype/StillImage"/>
    <dc:date>2022-07-28T13:58:33.682177</dc:date>
    <dc:format>image/svg+xml</dc:format>
    <dc:creator>
     <cc:Agent>
      <dc:title>Matplotlib v3.5.1, https://matplotlib.org/</dc:title>
     </cc:Agent>
    </dc:creator>
   </cc:Work>
  </rdf:RDF>
 </metadata>
 <defs>
  <style type="text/css">*{stroke-linejoin: round; stroke-linecap: butt}</style>
 </defs>
 <g id="figure_1">
  <g id="patch_1">
   <path d="M 0 345.6 
L 460.8 345.6 
L 460.8 0 
L 0 0 
z
" style="fill: #ffffff"/>
  </g>
  <g id="axes_1">
   <g id="patch_2">
    <path d="M 57.6 307.584 
L 414.72 307.584 
L 414.72 41.472 
L 57.6 41.472 
z
" style="fill: #ffffff"/>
   </g>
   <g id="PolyCollection_1">
    <path d="M 73.832727 82.203429 
L 73.832727 307.584 
L 74.291473 307.584 
L 74.673762 307.584 
L 74.734928 307.584 
L 76.202915 307.584 
L 76.707536 307.584 
L 77.303905 307.584 
L 77.533278 307.584 
L 78.068482 307.584 
L 78.573103 307.584 
L 79.857591 307.584 
L 79.934049 307.584 
L 80.866833 307.584 
L 81.386745 307.584 
L 81.509077 307.584 
L 82.487735 307.584 
L 83.971014 307.584 
L 84.353302 307.584 
L 84.888506 307.584 
L 85.179045 307.584 
L 85.484876 307.584 
L 86.310619 307.584 
L 86.754073 307.584 
L 86.799948 307.584 
L 87.71744 307.584 
L 88.329101 307.584 
L 88.61964 307.584 
L 88.81843 307.584 
L 89.628881 307.584 
L 91.280367 307.584 
L 91.922611 307.584 
L 93.176517 307.584 
L 93.191809 307.584 
L 93.482348 307.584 
L 95.347915 307.584 
L 96.617112 307.584 
L 97.244065 307.584 
L 97.381689 307.584 
L 97.427563 307.584 
L 98.253306 307.584 
L 98.406221 307.584 
L 99.537795 307.584 
L 100.271789 307.584 
L 100.516453 307.584 
L 101.021074 307.584 
L 102.917224 307.584 
L 103.345387 307.584 
L 103.513594 307.584 
L 104.538126 307.584 
L 104.629876 307.584 
L 104.813374 307.584 
L 107.458809 307.584 
L 107.779931 307.584 
L 108.972671 307.584 
L 110.501824 307.584 
L 113.223717 307.584 
L 114.018877 307.584 
L 114.966952 307.584 
L 116.725478 307.584 
L 117.13835 307.584 
L 118.529879 307.584 
L 118.866293 307.584 
L 119.737911 307.584 
L 119.906117 307.584 
L 119.9367 307.584 
L 121.588186 307.584 
L 122.612719 307.584 
L 123.943082 307.584 
L 124.677076 307.584 
L 125.961565 307.584 
L 126.649684 307.584 
L 126.970806 307.584 
L 127.918881 307.584 
L 128.331752 307.584 
L 128.790498 307.584 
L 130.594899 307.584 
L 130.625482 307.584 
L 131.267727 307.584 
L 131.818222 307.584 
L 133.240335 307.584 
L 133.530874 307.584 
L 135.396441 307.584 
L 136.298641 307.584 
L 137.414923 307.584 
L 137.751337 307.584 
L 138.668829 307.584 
L 139.326365 307.584 
L 140.335606 307.584 
L 140.748477 307.584 
L 141.100183 307.584 
L 142.063549 307.584 
L 142.155298 307.584 
L 142.598753 307.584 
L 143.378621 307.584 
L 146.345179 307.584 
L 147.308545 307.584 
L 147.492044 307.584 
L 147.813166 307.584 
L 152.461792 307.584 
L 153.547491 307.584 
L 153.83803 307.584 
L 153.945071 307.584 
L 154.357942 307.584 
L 155.015478 307.584 
L 157.890286 307.584 
L 158.440782 307.584 
L 158.532531 307.584 
L 160.428681 307.584 
L 160.52043 307.584 
L 161.850793 307.584 
L 162.019 307.584 
L 162.61537 307.584 
L 166.254755 307.584 
L 167.523952 307.584 
L 168.517902 307.584 
L 168.869607 307.584 
L 169.909432 307.584 
L 170.245845 307.584 
L 170.276428 307.584 
L 170.582259 307.584 
L 174.099312 307.584 
L 174.313393 307.584 
L 175.261468 307.584 
L 175.78138 307.584 
L 176.07192 307.584 
L 176.286001 307.584 
L 176.454208 307.584 
L 176.714164 307.584 
L 177.937487 307.584 
L 181.500414 307.584 
L 181.775661 307.584 
L 183.870602 307.584 
L 184.864551 307.584 
L 185.598545 307.584 
L 187.402946 307.584 
L 187.617027 307.584 
L 188.870933 307.584 
L 190.33892 307.584 
L 192.204487 307.584 
L 192.311528 307.584 
L 192.510318 307.584 
L 192.754982 307.584 
L 193.840681 307.584 
L 194.5288 307.584 
L 195.155753 307.584 
L 195.538042 307.584 
L 195.752123 307.584 
L 196.164994 307.584 
L 197.265985 307.584 
L 197.801188 307.584 
L 198.259934 307.584 
L 198.275226 307.584 
L 199.834962 307.584 
L 200.201959 307.584 
L 202.036943 307.584 
L 203.137934 307.584 
L 205.706911 307.584 
L 206.945525 307.584 
L 207.817143 307.584 
L 209.331005 307.584 
L 210.110873 307.584 
L 210.753117 307.584 
L 211.410653 307.584 
L 212.603393 307.584 
L 214.132546 307.584 
L 214.805374 307.584 
L 215.248828 307.584 
L 215.46291 307.584 
L 216.135737 307.584 
L 218.047179 307.584 
L 220.264451 307.584 
L 222.130018 307.584 
L 223.078093 307.584 
L 223.139259 307.584 
L 223.200425 307.584 
L 223.521548 307.584 
L 225.677654 307.584 
L 225.708237 307.584 
L 226.625729 307.584 
L 226.748061 307.584 
L 227.267973 307.584 
L 228.919459 307.584 
L 232.482386 307.584 
L 233.996248 307.584 
L 236.871056 307.584 
L 239.455325 307.584 
L 240.005821 307.584 
L 241.534974 307.584 
L 244.440365 307.584 
L 247.131675 307.584 
L 247.544547 307.584 
L 248.125625 307.584 
L 248.492622 307.584 
L 251.474471 307.584 
L 252.437837 307.584 
L 252.820126 307.584 
L 255.465561 307.584 
L 258.386244 307.584 
L 259.074363 307.584 
L 259.166112 307.584 
L 261.199886 307.584 
L 263.722989 307.584 
L 263.906487 307.584 
L 265.481515 307.584 
L 266.980086 307.584 
L 268.952693 307.584 
L 270.405389 307.584 
L 273.127282 307.584 
L 275.023432 307.584 
L 277.89824 307.584 
L 278.142905 307.584 
L 278.29582 307.584 
L 284.794722 307.584 
L 286.232126 307.584 
L 288.281192 307.584 
L 293.189774 307.584 
L 301.462493 307.584 
L 307.150944 307.584 
L 308.695389 307.584 
L 309.245884 307.584 
L 312.671187 307.584 
L 315.255456 307.584 
L 320.148747 307.584 
L 325.026746 307.584 
L 325.103204 307.584 
L 359.295073 307.584 
L 388.073738 307.584 
L 398.487273 307.584 
L 398.487273 306.678857 
L 398.487273 306.678857 
L 388.073738 305.773714 
L 359.295073 304.868571 
L 325.103204 303.963429 
L 325.026746 303.058286 
L 320.148747 302.153143 
L 315.255456 301.248 
L 312.671187 300.342857 
L 309.245884 299.437714 
L 308.695389 298.532571 
L 307.150944 297.627429 
L 301.462493 296.722286 
L 293.189774 295.817143 
L 288.281192 294.912 
L 286.232126 294.006857 
L 284.794722 293.101714 
L 278.29582 292.196571 
L 278.142905 291.291429 
L 277.89824 290.386286 
L 275.023432 289.481143 
L 273.127282 288.576 
L 270.405389 286.765714 
L 268.952693 285.860571 
L 266.980086 284.955429 
L 265.481515 284.050286 
L 263.906487 283.145143 
L 263.722989 282.24 
L 261.199886 280.429714 
L 259.166112 278.619429 
L 259.074363 277.714286 
L 258.386244 276.809143 
L 255.465561 275.904 
L 252.820126 274.998857 
L 252.437837 274.093714 
L 251.474471 273.188571 
L 248.492622 272.283429 
L 248.125625 271.378286 
L 247.544547 270.473143 
L 247.131675 269.568 
L 244.440365 268.662857 
L 241.534974 267.757714 
L 240.005821 265.947429 
L 239.455325 265.042286 
L 236.871056 264.137143 
L 233.996248 263.232 
L 232.482386 262.326857 
L 228.919459 261.421714 
L 227.267973 260.516571 
L 226.748061 258.706286 
L 226.625729 257.801143 
L 225.708237 256.896 
L 225.677654 255.085714 
L 223.521548 254.180571 
L 223.200425 253.275429 
L 223.139259 252.370286 
L 223.078093 250.56 
L 222.130018 249.654857 
L 220.264451 248.749714 
L 218.047179 247.844571 
L 216.135737 246.939429 
L 215.46291 246.034286 
L 215.248828 245.129143 
L 214.805374 244.224 
L 214.132546 243.318857 
L 212.603393 242.413714 
L 211.410653 239.698286 
L 210.753117 238.793143 
L 210.110873 237.888 
L 209.331005 236.077714 
L 207.817143 235.172571 
L 206.945525 232.457143 
L 205.706911 231.552 
L 203.137934 229.741714 
L 202.036943 228.836571 
L 200.201959 227.026286 
L 199.834962 226.121143 
L 198.275226 225.216 
L 198.259934 222.500571 
L 197.801188 221.595429 
L 197.265985 220.690286 
L 196.164994 219.785143 
L 195.752123 218.88 
L 195.538042 217.974857 
L 195.155753 217.069714 
L 194.5288 215.259429 
L 193.840681 213.449143 
L 192.754982 212.544 
L 192.510318 211.638857 
L 192.311528 210.733714 
L 192.204487 209.828571 
L 190.33892 208.923429 
L 188.870933 208.018286 
L 187.617027 207.113143 
L 187.402946 206.208 
L 185.598545 205.302857 
L 184.864551 204.397714 
L 183.870602 203.492571 
L 181.775661 202.587429 
L 181.500414 201.682286 
L 177.937487 200.777143 
L 176.714164 199.872 
L 176.454208 198.966857 
L 176.286001 197.156571 
L 176.07192 196.251429 
L 175.78138 195.346286 
L 175.261468 194.441143 
L 174.313393 193.536 
L 174.099312 192.630857 
L 170.582259 191.725714 
L 170.276428 190.820571 
L 170.245845 187.2 
L 169.909432 186.294857 
L 168.869607 185.389714 
L 168.517902 184.484571 
L 167.523952 183.579429 
L 166.254755 182.674286 
L 162.61537 180.864 
L 162.019 179.958857 
L 161.850793 179.053714 
L 160.52043 178.148571 
L 160.428681 177.243429 
L 158.532531 176.338286 
L 158.440782 175.433143 
L 157.890286 174.528 
L 155.015478 171.812571 
L 154.357942 170.907429 
L 153.945071 169.097143 
L 153.83803 168.192 
L 153.547491 167.286857 
L 152.461792 166.381714 
L 147.813166 165.476571 
L 147.492044 164.571429 
L 147.308545 163.666286 
L 146.345179 162.761143 
L 143.378621 161.856 
L 142.598753 161.856 
L 142.155298 160.950857 
L 142.063549 160.045714 
L 141.100183 158.235429 
L 140.748477 157.330286 
L 140.335606 156.425143 
L 139.326365 155.52 
L 138.668829 154.614857 
L 137.751337 152.804571 
L 137.414923 151.899429 
L 136.298641 150.994286 
L 135.396441 150.994286 
L 133.530874 150.089143 
L 133.240335 149.184 
L 131.818222 149.184 
L 131.267727 148.278857 
L 130.625482 146.468571 
L 130.594899 145.563429 
L 128.790498 144.658286 
L 128.331752 142.848 
L 127.918881 141.942857 
L 126.970806 141.037714 
L 126.649684 140.132571 
L 125.961565 139.227429 
L 124.677076 136.512 
L 123.943082 135.606857 
L 122.612719 134.701714 
L 121.588186 133.796571 
L 119.9367 132.891429 
L 119.906117 131.986286 
L 119.737911 131.081143 
L 118.866293 130.176 
L 118.529879 129.270857 
L 117.13835 128.365714 
L 116.725478 127.460571 
L 114.966952 127.460571 
L 114.018877 126.555429 
L 113.223717 125.650286 
L 110.501824 124.745143 
L 108.972671 123.84 
L 107.779931 122.029714 
L 107.458809 122.029714 
L 104.813374 121.124571 
L 104.629876 119.314286 
L 104.538126 119.314286 
L 103.513594 118.409143 
L 103.345387 117.504 
L 102.917224 114.788571 
L 101.021074 113.883429 
L 100.516453 112.978286 
L 100.271789 112.073143 
L 99.537795 111.168 
L 98.406221 110.262857 
L 98.253306 110.262857 
L 97.427563 109.357714 
L 97.381689 108.452571 
L 97.244065 107.547429 
L 96.617112 106.642286 
L 95.347915 106.642286 
L 93.482348 106.642286 
L 93.191809 106.642286 
L 93.176517 103.926857 
L 91.922611 103.021714 
L 91.280367 101.211429 
L 89.628881 100.306286 
L 88.81843 100.306286 
L 88.61964 99.401143 
L 88.329101 98.496 
L 87.71744 97.590857 
L 86.799948 96.685714 
L 86.754073 95.780571 
L 86.310619 94.875429 
L 85.484876 93.970286 
L 85.179045 93.970286 
L 84.888506 93.065143 
L 84.353302 92.16 
L 83.971014 92.16 
L 82.487735 92.16 
L 81.509077 91.254857 
L 81.386745 90.349714 
L 80.866833 89.444571 
L 79.934049 89.444571 
L 79.857591 89.444571 
L 78.573103 88.539429 
L 78.068482 87.634286 
L 77.533278 86.729143 
L 77.303905 85.824 
L 76.707536 84.918857 
L 76.202915 84.918857 
L 74.734928 84.013714 
L 74.673762 82.203429 
L 74.291473 82.203429 
L 73.832727 82.203429 
z
" clip-path="url(#p15235b63ff)" style="fill: #008000"/>
   </g>
   <g id="PolyCollection_2">
    <path d="M 73.832727 82.203429 
L 73.832727 82.203429 
L 74.291473 82.203429 
L 74.673762 82.203429 
L 74.734928 84.013714 
L 76.202915 84.918857 
L 76.707536 84.918857 
L 77.303905 85.824 
L 77.533278 86.729143 
L 78.068482 87.634286 
L 78.573103 88.539429 
L 79.857591 89.444571 
L 79.934049 89.444571 
L 80.866833 89.444571 
L 81.386745 90.349714 
L 81.509077 91.254857 
L 82.487735 92.16 
L 83.971014 92.16 
L 84.353302 92.16 
L 84.888506 93.065143 
L 85.179045 93.970286 
L 85.484876 93.970286 
L 86.310619 94.875429 
L 86.754073 95.780571 
L 86.799948 96.685714 
L 87.71744 97.590857 
L 88.329101 98.496 
L 88.61964 99.401143 
L 88.81843 100.306286 
L 89.628881 100.306286 
L 91.280367 101.211429 
L 91.922611 103.021714 
L 93.176517 103.926857 
L 93.191809 106.642286 
L 93.482348 106.642286 
L 95.347915 106.642286 
L 96.617112 106.642286 
L 97.244065 107.547429 
L 97.381689 108.452571 
L 97.427563 109.357714 
L 98.253306 110.262857 
L 98.406221 110.262857 
L 99.537795 111.168 
L 100.271789 112.073143 
L 100.516453 112.978286 
L 101.021074 113.883429 
L 102.917224 114.788571 
L 103.345387 117.504 
L 103.513594 118.409143 
L 104.538126 119.314286 
L 104.629876 119.314286 
L 104.813374 121.124571 
L 107.458809 122.029714 
L 107.779931 122.029714 
L 108.972671 123.84 
L 110.501824 124.745143 
L 113.223717 125.650286 
L 114.018877 126.555429 
L 114.966952 127.460571 
L 116.725478 127.460571 
L 117.13835 128.365714 
L 118.529879 129.270857 
L 118.866293 130.176 
L 119.737911 131.081143 
L 119.906117 131.986286 
L 119.9367 132.891429 
L 121.588186 133.796571 
L 122.612719 134.701714 
L 123.943082 135.606857 
L 124.677076 136.512 
L 125.961565 139.227429 
L 126.649684 140.132571 
L 126.970806 141.037714 
L 127.918881 141.942857 
L 128.331752 142.848 
L 128.790498 144.658286 
L 130.594899 145.563429 
L 130.625482 146.468571 
L 131.267727 148.278857 
L 131.818222 149.184 
L 133.240335 149.184 
L 133.530874 150.089143 
L 135.396441 150.994286 
L 136.298641 150.994286 
L 137.414923 151.899429 
L 137.751337 152.804571 
L 138.668829 154.614857 
L 139.326365 155.52 
L 140.335606 156.425143 
L 140.748477 157.330286 
L 141.100183 158.235429 
L 142.063549 160.045714 
L 142.155298 160.950857 
L 142.598753 161.856 
L 143.378621 161.856 
L 146.345179 162.761143 
L 147.308545 163.666286 
L 147.492044 164.571429 
L 147.813166 165.476571 
L 152.461792 166.381714 
L 153.547491 167.286857 
L 153.83803 168.192 
L 153.945071 169.097143 
L 154.357942 170.907429 
L 155.015478 171.812571 
L 157.890286 174.528 
L 158.440782 175.433143 
L 158.532531 176.338286 
L 160.428681 177.243429 
L 160.52043 178.148571 
L 161.850793 179.053714 
L 162.019 179.958857 
L 162.61537 180.864 
L 166.254755 182.674286 
L 167.523952 183.579429 
L 168.517902 184.484571 
L 168.869607 185.389714 
L 169.909432 186.294857 
L 170.245845 187.2 
L 170.276428 190.820571 
L 170.582259 191.725714 
L 174.099312 192.630857 
L 174.313393 193.536 
L 175.261468 194.441143 
L 175.78138 195.346286 
L 176.07192 196.251429 
L 176.286001 197.156571 
L 176.454208 198.966857 
L 176.714164 199.872 
L 177.937487 200.777143 
L 181.500414 201.682286 
L 181.775661 202.587429 
L 183.870602 203.492571 
L 184.864551 204.397714 
L 185.598545 205.302857 
L 187.402946 206.208 
L 187.617027 207.113143 
L 188.870933 208.018286 
L 190.33892 208.923429 
L 192.204487 209.828571 
L 192.311528 210.733714 
L 192.510318 211.638857 
L 192.754982 212.544 
L 193.840681 213.449143 
L 194.5288 215.259429 
L 195.155753 217.069714 
L 195.538042 217.974857 
L 195.752123 218.88 
L 196.164994 219.785143 
L 197.265985 220.690286 
L 197.801188 221.595429 
L 198.259934 222.500571 
L 198.275226 225.216 
L 199.834962 226.121143 
L 200.201959 227.026286 
L 202.036943 228.836571 
L 203.137934 229.741714 
L 205.706911 231.552 
L 206.945525 232.457143 
L 207.817143 235.172571 
L 209.331005 236.077714 
L 210.110873 237.888 
L 210.753117 238.793143 
L 211.410653 239.698286 
L 212.603393 242.413714 
L 214.132546 243.318857 
L 214.805374 244.224 
L 215.248828 245.129143 
L 215.46291 246.034286 
L 216.135737 246.939429 
L 218.047179 247.844571 
L 220.264451 248.749714 
L 222.130018 249.654857 
L 223.078093 250.56 
L 223.139259 252.370286 
L 223.200425 253.275429 
L 223.521548 254.180571 
L 225.677654 255.085714 
L 225.708237 256.896 
L 226.625729 257.801143 
L 226.748061 258.706286 
L 227.267973 260.516571 
L 228.919459 261.421714 
L 232.482386 262.326857 
L 233.996248 263.232 
L 236.871056 264.137143 
L 239.455325 265.042286 
L 240.005821 265.947429 
L 241.534974 267.757714 
L 244.440365 268.662857 
L 247.131675 269.568 
L 247.544547 270.473143 
L 248.125625 271.378286 
L 248.492622 272.283429 
L 251.474471 273.188571 
L 252.437837 274.093714 
L 252.820126 274.998857 
L 255.465561 275.904 
L 258.386244 276.809143 
L 259.074363 277.714286 
L 259.166112 278.619429 
L 261.199886 280.429714 
L 263.722989 282.24 
L 263.906487 283.145143 
L 265.481515 284.050286 
L 266.980086 284.955429 
L 268.952693 285.860571 
L 270.405389 286.765714 
L 273.127282 288.576 
L 275.023432 289.481143 
L 277.89824 290.386286 
L 278.142905 291.291429 
L 278.29582 292.196571 
L 284.794722 293.101714 
L 286.232126 294.006857 
L 288.281192 294.912 
L 293.189774 295.817143 
L 301.462493 296.722286 
L 307.150944 297.627429 
L 308.695389 298.532571 
L 309.245884 299.437714 
L 312.671187 300.342857 
L 315.255456 301.248 
L 320.148747 302.153143 
L 325.026746 303.058286 
L 325.103204 303.963429 
L 359.295073 304.868571 
L 388.073738 305.773714 
L 398.487273 306.678857 
L 398.487273 306.678857 
L 398.487273 306.678857 
L 388.073738 305.773714 
L 359.295073 304.868571 
L 325.103204 303.963429 
L 325.026746 303.058286 
L 320.148747 302.153143 
L 315.255456 301.248 
L 312.671187 300.342857 
L 309.245884 299.437714 
L 308.695389 298.532571 
L 307.150944 297.627429 
L 301.462493 296.722286 
L 293.189774 295.817143 
L 288.281192 294.912 
L 286.232126 294.006857 
L 284.794722 293.101714 
L 278.29582 292.196571 
L 278.142905 291.291429 
L 277.89824 290.386286 
L 275.023432 289.481143 
L 273.127282 288.576 
L 270.405389 286.765714 
L 268.952693 285.860571 
L 266.980086 284.955429 
L 265.481515 284.050286 
L 263.906487 283.145143 
L 263.722989 282.24 
L 261.199886 280.429714 
L 259.166112 278.619429 
L 259.074363 277.714286 
L 258.386244 276.809143 
L 255.465561 275.904 
L 252.820126 274.998857 
L 252.437837 274.093714 
L 251.474471 273.188571 
L 248.492622 272.283429 
L 248.125625 271.378286 
L 247.544547 270.473143 
L 247.131675 269.568 
L 244.440365 268.662857 
L 241.534974 267.757714 
L 240.005821 265.947429 
L 239.455325 265.042286 
L 236.871056 264.137143 
L 233.996248 263.232 
L 232.482386 262.326857 
L 228.919459 261.421714 
L 227.267973 260.516571 
L 226.748061 258.706286 
L 226.625729 257.801143 
L 225.708237 256.896 
L 225.677654 255.085714 
L 223.521548 254.180571 
L 223.200425 253.275429 
L 223.139259 252.370286 
L 223.078093 250.56 
L 222.130018 249.654857 
L 220.264451 248.749714 
L 218.047179 247.844571 
L 216.135737 246.939429 
L 215.46291 246.034286 
L 215.248828 245.129143 
L 214.805374 244.224 
L 214.132546 243.318857 
L 212.603393 242.413714 
L 211.410653 239.698286 
L 210.753117 238.793143 
L 210.110873 237.888 
L 209.331005 236.077714 
L 207.817143 235.172571 
L 206.945525 232.457143 
L 205.706911 231.552 
L 203.137934 229.741714 
L 202.036943 228.836571 
L 200.201959 227.026286 
L 199.834962 226.121143 
L 198.275226 225.216 
L 198.259934 222.500571 
L 197.801188 221.595429 
L 197.265985 220.690286 
L 196.164994 219.785143 
L 195.752123 218.88 
L 195.538042 217.974857 
L 195.155753 217.069714 
L 194.5288 215.259429 
L 193.840681 213.449143 
L 192.754982 212.544 
L 192.510318 211.638857 
L 192.311528 210.733714 
L 192.204487 209.828571 
L 190.33892 208.923429 
L 188.870933 208.018286 
L 187.617027 207.113143 
L 187.402946 206.208 
L 185.598545 205.302857 
L 184.864551 204.397714 
L 183.870602 203.492571 
L 181.775661 202.587429 
L 181.500414 201.682286 
L 177.937487 200.777143 
L 176.714164 199.872 
L 176.454208 198.966857 
L 176.286001 197.156571 
L 176.07192 196.251429 
L 175.78138 195.346286 
L 175.261468 194.441143 
L 174.313393 193.536 
L 174.099312 192.630857 
L 170.582259 191.725714 
L 170.276428 190.820571 
L 170.245845 187.2 
L 169.909432 186.294857 
L 168.869607 185.389714 
L 168.517902 184.484571 
L 167.523952 183.579429 
L 166.254755 182.674286 
L 162.61537 180.864 
L 162.019 179.958857 
L 161.850793 179.053714 
L 160.52043 178.148571 
L 160.428681 177.243429 
L 158.532531 176.338286 
L 158.440782 175.433143 
L 157.890286 174.528 
L 155.015478 171.812571 
L 154.357942 170.907429 
L 153.945071 169.097143 
L 153.83803 168.192 
L 153.547491 167.286857 
L 152.461792 166.381714 
L 147.813166 165.476571 
L 147.492044 164.571429 
L 147.308545 163.666286 
L 146.345179 162.761143 
L 143.378621 161.856 
L 142.598753 161.856 
L 142.155298 160.950857 
L 142.063549 160.045714 
L 141.100183 158.235429 
L 140.748477 157.330286 
L 140.335606 156.425143 
L 139.326365 155.52 
L 138.668829 154.614857 
L 137.751337 152.804571 
L 137.414923 151.899429 
L 136.298641 150.994286 
L 135.396441 150.994286 
L 133.530874 150.089143 
L 133.240335 149.184 
L 131.818222 149.184 
L 131.267727 148.278857 
L 130.625482 146.468571 
L 130.594899 145.563429 
L 128.790498 144.658286 
L 128.331752 142.848 
L 127.918881 141.942857 
L 126.970806 141.037714 
L 126.649684 140.132571 
L 125.961565 139.227429 
L 124.677076 136.512 
L 123.943082 135.606857 
L 122.612719 134.701714 
L 121.588186 133.796571 
L 119.9367 132.891429 
L 119.906117 131.986286 
L 119.737911 131.081143 
L 118.866293 130.176 
L 118.529879 129.270857 
L 117.13835 128.365714 
L 116.725478 127.460571 
L 114.966952 127.460571 
L 114.018877 126.555429 
L 113.223717 125.650286 
L 110.501824 124.745143 
L 108.972671 123.84 
L 107.779931 122.029714 
L 107.458809 122.029714 
L 104.813374 121.124571 
L 104.629876 119.314286 
L 104.538126 119.314286 
L 103.513594 118.409143 
L 103.345387 117.504 
L 102.917224 114.788571 
L 101.021074 113.883429 
L 100.516453 112.978286 
L 100.271789 112.073143 
L 99.537795 111.168 
L 98.406221 110.262857 
L 98.253306 110.262857 
L 97.427563 109.357714 
L 97.381689 108.452571 
L 97.244065 107.547429 
L 96.617112 106.642286 
L 95.347915 106.642286 
L 93.482348 106.642286 
L 93.191809 106.642286 
L 93.176517 103.926857 
L 91.922611 103.021714 
L 91.280367 101.211429 
L 89.628881 100.306286 
L 88.81843 100.306286 
L 88.61964 99.401143 
L 88.329101 98.496 
L 87.71744 97.590857 
L 86.799948 96.685714 
L 86.754073 95.780571 
L 86.310619 94.875429 
L 85.484876 93.970286 
L 85.179045 93.970286 
L 84.888506 93.065143 
L 84.353302 92.16 
L 83.971014 92.16 
L 82.487735 92.16 
L 81.509077 91.254857 
L 81.386745 90.349714 
L 80.866833 89.444571 
L 79.934049 89.444571 
L 79.857591 89.444571 
L 78.573103 88.539429 
L 78.068482 87.634286 
L 77.533278 86.729143 
L 77.303905 85.824 
L 76.707536 84.918857 
L 76.202915 84.918857 
L 74.734928 84.013714 
L 74.673762 82.203429 
L 74.291473 82.203429 
L 73.832727 82.203429 
z
" clip-path="url(#p15235b63ff)" style="fill: #7cfc00"/>
   </g>
   <g id="PolyCollection_3">
    <path d="M 73.832727 54.144 
L 73.832727 82.203429 
L 74.291473 82.203429 
L 74.673762 82.203429 
L 74.734928 84.013714 
L 76.202915 84.918857 
L 76.707536 84.918857 
L 77.303905 85.824 
L 77.533278 86.729143 
L 78.068482 87.634286 
L 78.573103 88.539429 
L 79.857591 89.444571 
L 79.934049 89.444571 
L 80.866833 89.444571 
L 81.386745 90.349714 
L 81.509077 91.254857 
L 82.487735 92.16 
L 83.971014 92.16 
L 84.353302 92.16 
L 84.888506 93.065143 
L 85.179045 93.970286 
L 85.484876 93.970286 
L 86.310619 94.875429 
L 86.754073 95.780571 
L 86.799948 96.685714 
L 87.71744 97.590857 
L 88.329101 98.496 
L 88.61964 99.401143 
L 88.81843 100.306286 
L 89.628881 100.306286 
L 91.280367 101.211429 
L 91.922611 103.021714 
L 93.176517 103.926857 
L 93.191809 106.642286 
L 93.482348 106.642286 
L 95.347915 106.642286 
L 96.617112 106.642286 
L 97.244065 107.547429 
L 97.381689 108.452571 
L 97.427563 109.357714 
L 98.253306 110.262857 
L 98.406221 110.262857 
L 99.537795 111.168 
L 100.271789 112.073143 
L 100.516453 112.978286 
L 101.021074 113.883429 
L 102.917224 114.788571 
L 103.345387 117.504 
L 103.513594 118.409143 
L 104.538126 119.314286 
L 104.629876 119.314286 
L 104.813374 121.124571 
L 107.458809 122.029714 
L 107.779931 122.029714 
L 108.972671 123.84 
L 110.501824 124.745143 
L 113.223717 125.650286 
L 114.018877 126.555429 
L 114.966952 127.460571 
L 116.725478 127.460571 
L 117.13835 128.365714 
L 118.529879 129.270857 
L 118.866293 130.176 
L 119.737911 131.081143 
L 119.906117 131.986286 
L 119.9367 132.891429 
L 121.588186 133.796571 
L 122.612719 134.701714 
L 123.943082 135.606857 
L 124.677076 136.512 
L 125.961565 139.227429 
L 126.649684 140.132571 
L 126.970806 141.037714 
L 127.918881 141.942857 
L 128.331752 142.848 
L 128.790498 144.658286 
L 130.594899 145.563429 
L 130.625482 146.468571 
L 131.267727 148.278857 
L 131.818222 149.184 
L 133.240335 149.184 
L 133.530874 150.089143 
L 135.396441 150.994286 
L 136.298641 150.994286 
L 137.414923 151.899429 
L 137.751337 152.804571 
L 138.668829 154.614857 
L 139.326365 155.52 
L 140.335606 156.425143 
L 140.748477 157.330286 
L 141.100183 158.235429 
L 142.063549 160.045714 
L 142.155298 160.950857 
L 142.598753 161.856 
L 143.378621 161.856 
L 146.345179 162.761143 
L 147.308545 163.666286 
L 147.492044 164.571429 
L 147.813166 165.476571 
L 152.461792 166.381714 
L 153.547491 167.286857 
L 153.83803 168.192 
L 153.945071 169.097143 
L 154.357942 170.907429 
L 155.015478 171.812571 
L 157.890286 174.528 
L 158.440782 175.433143 
L 158.532531 176.338286 
L 160.428681 177.243429 
L 160.52043 178.148571 
L 161.850793 179.053714 
L 162.019 179.958857 
L 162.61537 180.864 
L 166.254755 182.674286 
L 167.523952 183.579429 
L 168.517902 184.484571 
L 168.869607 185.389714 
L 169.909432 186.294857 
L 170.245845 187.2 
L 170.276428 190.820571 
L 170.582259 191.725714 
L 174.099312 192.630857 
L 174.313393 193.536 
L 175.261468 194.441143 
L 175.78138 195.346286 
L 176.07192 196.251429 
L 176.286001 197.156571 
L 176.454208 198.966857 
L 176.714164 199.872 
L 177.937487 200.777143 
L 181.500414 201.682286 
L 181.775661 202.587429 
L 183.870602 203.492571 
L 184.864551 204.397714 
L 185.598545 205.302857 
L 187.402946 206.208 
L 187.617027 207.113143 
L 188.870933 208.018286 
L 190.33892 208.923429 
L 192.204487 209.828571 
L 192.311528 210.733714 
L 192.510318 211.638857 
L 192.754982 212.544 
L 193.840681 213.449143 
L 194.5288 215.259429 
L 195.155753 217.069714 
L 195.538042 217.974857 
L 195.752123 218.88 
L 196.164994 219.785143 
L 197.265985 220.690286 
L 197.801188 221.595429 
L 198.259934 222.500571 
L 198.275226 225.216 
L 199.834962 226.121143 
L 200.201959 227.026286 
L 202.036943 228.836571 
L 203.137934 229.741714 
L 205.706911 231.552 
L 206.945525 232.457143 
L 207.817143 235.172571 
L 209.331005 236.077714 
L 210.110873 237.888 
L 210.753117 238.793143 
L 211.410653 239.698286 
L 212.603393 242.413714 
L 214.132546 243.318857 
L 214.805374 244.224 
L 215.248828 245.129143 
L 215.46291 246.034286 
L 216.135737 246.939429 
L 218.047179 247.844571 
L 220.264451 248.749714 
L 222.130018 249.654857 
L 223.078093 250.56 
L 223.139259 252.370286 
L 223.200425 253.275429 
L 223.521548 254.180571 
L 225.677654 255.085714 
L 225.708237 256.896 
L 226.625729 257.801143 
L 226.748061 258.706286 
L 227.267973 260.516571 
L 228.919459 261.421714 
L 232.482386 262.326857 
L 233.996248 263.232 
L 236.871056 264.137143 
L 239.455325 265.042286 
L 240.005821 265.947429 
L 241.534974 267.757714 
L 244.440365 268.662857 
L 247.131675 269.568 
L 247.544547 270.473143 
L 248.125625 271.378286 
L 248.492622 272.283429 
L 251.474471 273.188571 
L 252.437837 274.093714 
L 252.820126 274.998857 
L 255.465561 275.904 
L 258.386244 276.809143 
L 259.074363 277.714286 
L 259.166112 278.619429 
L 261.199886 280.429714 
L 263.722989 282.24 
L 263.906487 283.145143 
L 265.481515 284.050286 
L 266.980086 284.955429 
L 268.952693 285.860571 
L 270.405389 286.765714 
L 273.127282 288.576 
L 275.023432 289.481143 
L 277.89824 290.386286 
L 278.142905 291.291429 
L 278.29582 292.196571 
L 284.794722 293.101714 
L 286.232126 294.006857 
L 288.281192 294.912 
L 293.189774 295.817143 
L 301.462493 296.722286 
L 307.150944 297.627429 
L 308.695389 298.532571 
L 309.245884 299.437714 
L 312.671187 300.342857 
L 315.255456 301.248 
L 320.148747 302.153143 
L 325.026746 303.058286 
L 325.103204 303.963429 
L 359.295073 304.868571 
L 388.073738 305.773714 
L 398.487273 306.678857 
L 398.487273 306.678857 
L 398.487273 306.678857 
L 388.073738 305.773714 
L 359.295073 304.868571 
L 325.103204 303.963429 
L 325.026746 303.058286 
L 320.148747 302.153143 
L 315.255456 301.248 
L 312.671187 300.342857 
L 309.245884 299.437714 
L 308.695389 298.532571 
L 307.150944 297.627429 
L 301.462493 296.722286 
L 293.189774 295.817143 
L 288.281192 294.912 
L 286.232126 294.006857 
L 284.794722 293.101714 
L 278.29582 292.196571 
L 278.142905 291.291429 
L 277.89824 290.386286 
L 275.023432 289.481143 
L 273.127282 288.576 
L 270.405389 286.765714 
L 268.952693 285.860571 
L 266.980086 284.955429 
L 265.481515 284.050286 
L 263.906487 283.145143 
L 263.722989 282.24 
L 261.199886 280.429714 
L 259.166112 278.619429 
L 259.074363 277.714286 
L 258.386244 276.809143 
L 255.465561 275.904 
L 252.820126 274.998857 
L 252.437837 274.093714 
L 251.474471 273.188571 
L 248.492622 272.283429 
L 248.125625 271.378286 
L 247.544547 270.473143 
L 247.131675 269.568 
L 244.440365 268.662857 
L 241.534974 267.757714 
L 240.005821 265.947429 
L 239.455325 265.042286 
L 236.871056 264.137143 
L 233.996248 263.232 
L 232.482386 262.326857 
L 228.919459 261.421714 
L 227.267973 260.516571 
L 226.748061 258.706286 
L 226.625729 257.801143 
L 225.708237 256.896 
L 225.677654 255.085714 
L 223.521548 254.180571 
L 223.200425 253.275429 
L 223.139259 252.370286 
L 223.078093 250.56 
L 222.130018 249.654857 
L 220.264451 248.749714 
L 218.047179 247.844571 
L 216.135737 246.939429 
L 215.46291 246.034286 
L 215.248828 245.129143 
L 214.805374 244.224 
L 214.132546 243.318857 
L 212.603393 242.413714 
L 211.410653 239.698286 
L 210.753117 238.793143 
L 210.110873 237.888 
L 209.331005 236.077714 
L 207.817143 235.172571 
L 206.945525 232.457143 
L 205.706911 231.552 
L 203.137934 229.741714 
L 202.036943 228.836571 
L 200.201959 227.026286 
L 199.834962 226.121143 
L 198.275226 225.216 
L 198.259934 222.500571 
L 197.801188 221.595429 
L 197.265985 220.690286 
L 196.164994 219.785143 
L 195.752123 218.88 
L 195.538042 217.974857 
L 195.155753 217.069714 
L 194.5288 215.259429 
L 193.840681 213.449143 
L 192.754982 212.544 
L 192.510318 211.638857 
L 192.311528 210.733714 
L 192.204487 209.828571 
L 190.33892 208.923429 
L 188.870933 208.018286 
L 187.617027 207.113143 
L 187.402946 206.208 
L 185.598545 205.302857 
L 184.864551 204.397714 
L 183.870602 203.492571 
L 181.775661 202.587429 
L 181.500414 201.682286 
L 177.937487 200.777143 
L 176.714164 199.872 
L 176.454208 198.966857 
L 176.286001 197.156571 
L 176.07192 196.251429 
L 175.78138 195.346286 
L 175.261468 194.441143 
L 174.313393 193.536 
L 174.099312 192.630857 
L 170.582259 191.725714 
L 170.276428 190.820571 
L 170.245845 187.2 
L 169.909432 186.294857 
L 168.869607 185.389714 
L 168.517902 184.484571 
L 167.523952 183.579429 
L 166.254755 182.674286 
L 162.61537 180.864 
L 162.019 179.958857 
L 161.850793 179.053714 
L 160.52043 178.148571 
L 160.428681 177.243429 
L 158.532531 176.338286 
L 158.440782 175.433143 
L 157.890286 174.528 
L 155.015478 171.812571 
L 154.357942 170.907429 
L 153.945071 169.097143 
L 153.83803 168.192 
L 153.547491 167.286857 
L 152.461792 166.381714 
L 147.813166 165.476571 
L 147.492044 164.571429 
L 147.308545 163.666286 
L 146.345179 162.761143 
L 143.378621 161.856 
L 142.598753 160.950857 
L 142.155298 160.045714 
L 142.063549 159.140571 
L 141.100183 157.330286 
L 140.748477 156.425143 
L 140.335606 155.52 
L 139.326365 154.614857 
L 138.668829 153.709714 
L 137.751337 151.899429 
L 137.414923 150.994286 
L 136.298641 150.089143 
L 135.396441 149.184 
L 133.530874 148.278857 
L 133.240335 147.373714 
L 131.818222 146.468571 
L 131.267727 145.563429 
L 130.625482 143.753143 
L 130.594899 142.848 
L 128.790498 141.942857 
L 128.331752 140.132571 
L 127.918881 139.227429 
L 126.970806 138.322286 
L 126.649684 137.417143 
L 125.961565 136.512 
L 124.677076 133.796571 
L 123.943082 132.891429 
L 122.612719 131.986286 
L 121.588186 131.081143 
L 119.9367 130.176 
L 119.906117 129.270857 
L 119.737911 128.365714 
L 118.866293 127.460571 
L 118.529879 126.555429 
L 117.13835 125.650286 
L 116.725478 124.745143 
L 114.966952 123.84 
L 114.018877 122.934857 
L 113.223717 122.029714 
L 110.501824 121.124571 
L 108.972671 120.219429 
L 107.779931 118.409143 
L 107.458809 117.504 
L 104.813374 116.598857 
L 104.629876 114.788571 
L 104.538126 113.883429 
L 103.513594 112.073143 
L 103.345387 111.168 
L 102.917224 108.452571 
L 101.021074 107.547429 
L 100.516453 106.642286 
L 100.271789 105.737143 
L 99.537795 104.832 
L 98.406221 103.926857 
L 98.253306 103.021714 
L 97.427563 102.116571 
L 97.381689 100.306286 
L 97.244065 99.401143 
L 96.617112 98.496 
L 95.347915 97.590857 
L 93.482348 96.685714 
L 93.191809 95.780571 
L 93.176517 93.065143 
L 91.922611 92.16 
L 91.280367 89.444571 
L 89.628881 88.539429 
L 88.81843 87.634286 
L 88.61964 86.729143 
L 88.329101 85.824 
L 87.71744 84.918857 
L 86.799948 83.108571 
L 86.754073 82.203429 
L 86.310619 80.393143 
L 85.484876 79.488 
L 85.179045 78.582857 
L 84.888506 77.677714 
L 84.353302 76.772571 
L 83.971014 75.867429 
L 82.487735 74.962286 
L 81.509077 73.152 
L 81.386745 72.246857 
L 80.866833 69.531429 
L 79.934049 68.626286 
L 79.857591 67.721143 
L 78.573103 66.816 
L 78.068482 65.910857 
L 77.533278 65.005714 
L 77.303905 62.290286 
L 76.707536 61.385143 
L 76.202915 59.574857 
L 74.734928 58.669714 
L 74.673762 56.859429 
L 74.291473 55.049143 
L 73.832727 54.144 
z
" clip-path="url(#p15235b63ff)" style="fill: #ff0000"/>
   </g>
   <g id="matplotlib.axis_1">
    <g id="xtick_1">
     <g id="line2d_1">
      <defs>
       <path id="maccdd62e17" d="M 0 0 
L 0 3.5 
" style="stroke: #000000; stroke-width: 0.8"/>
      </defs>
      <g>
       <use xlink:href="#maccdd62e17" x="127.857715" y="307.584" style="stroke: #000000; stroke-width: 0.8"/>
      </g>
     </g>
     <g id="text_1">
      <!-- 50 -->
      <g transform="translate(121.495215 322.182437)scale(0.1 -0.1)">
       <defs>
        <path id="DejaVuSans-35" d="M 691 4666 
L 3169 4666 
L 3169 4134 
L 1269 4134 
L 1269 2991 
Q 1406 3038 1543 3061 
Q 1681 3084 1819 3084 
Q 2600 3084 3056 2656 
Q 3513 2228 3513 1497 
Q 3513 744 3044 326 
Q 2575 -91 1722 -91 
Q 1428 -91 1123 -41 
Q 819 9 494 109 
L 494 744 
Q 775 591 1075 516 
Q 1375 441 1709 441 
Q 2250 441 2565 725 
Q 2881 1009 2881 1497 
Q 2881 1984 2565 2268 
Q 2250 2553 1709 2553 
Q 1456 2553 1204 2497 
Q 953 2441 691 2322 
L 691 4666 
z
" transform="scale(0.015625)"/>
        <path id="DejaVuSans-30" d="M 2034 4250 
Q 1547 4250 1301 3770 
Q 1056 3291 1056 2328 
Q 1056 1369 1301 889 
Q 1547 409 2034 409 
Q 2525 409 2770 889 
Q 3016 1369 3016 2328 
Q 3016 3291 2770 3770 
Q 2525 4250 2034 4250 
z
M 2034 4750 
Q 2819 4750 3233 4129 
Q 3647 3509 3647 2328 
Q 3647 1150 3233 529 
Q 2819 -91 2034 -91 
Q 1250 -91 836 529 
Q 422 1150 422 2328 
Q 422 3509 836 4129 
Q 1250 4750 2034 4750 
z
" transform="scale(0.015625)"/>
       </defs>
       <use xlink:href="#DejaVuSans-35"/>
       <use xlink:href="#DejaVuSans-30" x="63.623047"/>
      </g>
     </g>
    </g>
    <g id="xtick_2">
     <g id="line2d_2">
      <g>
       <use xlink:href="#maccdd62e17" x="204.315382" y="307.584" style="stroke: #000000; stroke-width: 0.8"/>
      </g>
     </g>
     <g id="text_2">
      <!-- 100 -->
      <g transform="translate(194.771632 322.182437)scale(0.1 -0.1)">
       <defs>
        <path id="DejaVuSans-31" d="M 794 531 
L 1825 531 
L 1825 4091 
L 703 3866 
L 703 4441 
L 1819 4666 
L 2450 4666 
L 2450 531 
L 3481 531 
L 3481 0 
L 794 0 
L 794 531 
z
" transform="scale(0.015625)"/>
       </defs>
       <use xlink:href="#DejaVuSans-31"/>
       <use xlink:href="#DejaVuSans-30" x="63.623047"/>
       <use xlink:href="#DejaVuSans-30" x="127.246094"/>
      </g>
     </g>
    </g>
    <g id="xtick_3">
     <g id="line2d_3">
      <g>
       <use xlink:href="#maccdd62e17" x="280.773049" y="307.584" style="stroke: #000000; stroke-width: 0.8"/>
      </g>
     </g>
     <g id="text_3">
      <!-- 150 -->
      <g transform="translate(271.229299 322.182437)scale(0.1 -0.1)">
       <use xlink:href="#DejaVuSans-31"/>
       <use xlink:href="#DejaVuSans-35" x="63.623047"/>
       <use xlink:href="#DejaVuSans-30" x="127.246094"/>
      </g>
     </g>
    </g>
    <g id="xtick_4">
     <g id="line2d_4">
      <g>
       <use xlink:href="#maccdd62e17" x="357.230716" y="307.584" style="stroke: #000000; stroke-width: 0.8"/>
      </g>
     </g>
     <g id="text_4">
      <!-- 200 -->
      <g transform="translate(347.686966 322.182437)scale(0.1 -0.1)">
       <defs>
        <path id="DejaVuSans-32" d="M 1228 531 
L 3431 531 
L 3431 0 
L 469 0 
L 469 531 
Q 828 903 1448 1529 
Q 2069 2156 2228 2338 
Q 2531 2678 2651 2914 
Q 2772 3150 2772 3378 
Q 2772 3750 2511 3984 
Q 2250 4219 1831 4219 
Q 1534 4219 1204 4116 
Q 875 4013 500 3803 
L 500 4441 
Q 881 4594 1212 4672 
Q 1544 4750 1819 4750 
Q 2544 4750 2975 4387 
Q 3406 4025 3406 3419 
Q 3406 3131 3298 2873 
Q 3191 2616 2906 2266 
Q 2828 2175 2409 1742 
Q 1991 1309 1228 531 
z
" transform="scale(0.015625)"/>
       </defs>
       <use xlink:href="#DejaVuSans-32"/>
       <use xlink:href="#DejaVuSans-30" x="63.623047"/>
       <use xlink:href="#DejaVuSans-30" x="127.246094"/>
      </g>
     </g>
    </g>
    <g id="text_5">
     <!-- Score -->
     <g transform="translate(222.157656 335.860562)scale(0.1 -0.1)">
      <defs>
       <path id="DejaVuSans-53" d="M 3425 4513 
L 3425 3897 
Q 3066 4069 2747 4153 
Q 2428 4238 2131 4238 
Q 1616 4238 1336 4038 
Q 1056 3838 1056 3469 
Q 1056 3159 1242 3001 
Q 1428 2844 1947 2747 
L 2328 2669 
Q 3034 2534 3370 2195 
Q 3706 1856 3706 1288 
Q 3706 609 3251 259 
Q 2797 -91 1919 -91 
Q 1588 -91 1214 -16 
Q 841 59 441 206 
L 441 856 
Q 825 641 1194 531 
Q 1563 422 1919 422 
Q 2459 422 2753 634 
Q 3047 847 3047 1241 
Q 3047 1584 2836 1778 
Q 2625 1972 2144 2069 
L 1759 2144 
Q 1053 2284 737 2584 
Q 422 2884 422 3419 
Q 422 4038 858 4394 
Q 1294 4750 2059 4750 
Q 2388 4750 2728 4690 
Q 3069 4631 3425 4513 
z
" transform="scale(0.015625)"/>
       <path id="DejaVuSans-63" d="M 3122 3366 
L 3122 2828 
Q 2878 2963 2633 3030 
Q 2388 3097 2138 3097 
Q 1578 3097 1268 2742 
Q 959 2388 959 1747 
Q 959 1106 1268 751 
Q 1578 397 2138 397 
Q 2388 397 2633 464 
Q 2878 531 3122 666 
L 3122 134 
Q 2881 22 2623 -34 
Q 2366 -91 2075 -91 
Q 1284 -91 818 406 
Q 353 903 353 1747 
Q 353 2603 823 3093 
Q 1294 3584 2113 3584 
Q 2378 3584 2631 3529 
Q 2884 3475 3122 3366 
z
" transform="scale(0.015625)"/>
       <path id="DejaVuSans-6f" d="M 1959 3097 
Q 1497 3097 1228 2736 
Q 959 2375 959 1747 
Q 959 1119 1226 758 
Q 1494 397 1959 397 
Q 2419 397 2687 759 
Q 2956 1122 2956 1747 
Q 2956 2369 2687 2733 
Q 2419 3097 1959 3097 
z
M 1959 3584 
Q 2709 3584 3137 3096 
Q 3566 2609 3566 1747 
Q 3566 888 3137 398 
Q 2709 -91 1959 -91 
Q 1206 -91 779 398 
Q 353 888 353 1747 
Q 353 2609 779 3096 
Q 1206 3584 1959 3584 
z
" transform="scale(0.015625)"/>
       <path id="DejaVuSans-72" d="M 2631 2963 
Q 2534 3019 2420 3045 
Q 2306 3072 2169 3072 
Q 1681 3072 1420 2755 
Q 1159 2438 1159 1844 
L 1159 0 
L 581 0 
L 581 3500 
L 1159 3500 
L 1159 2956 
Q 1341 3275 1631 3429 
Q 1922 3584 2338 3584 
Q 2397 3584 2469 3576 
Q 2541 3569 2628 3553 
L 2631 2963 
z
" transform="scale(0.015625)"/>
       <path id="DejaVuSans-65" d="M 3597 1894 
L 3597 1613 
L 953 1613 
Q 991 1019 1311 708 
Q 1631 397 2203 397 
Q 2534 397 2845 478 
Q 3156 559 3463 722 
L 3463 178 
Q 3153 47 2828 -22 
Q 2503 -91 2169 -91 
Q 1331 -91 842 396 
Q 353 884 353 1716 
Q 353 2575 817 3079 
Q 1281 3584 2069 3584 
Q 2775 3584 3186 3129 
Q 3597 2675 3597 1894 
z
M 3022 2063 
Q 3016 2534 2758 2815 
Q 2500 3097 2075 3097 
Q 1594 3097 1305 2825 
Q 1016 2553 972 2059 
L 3022 2063 
z
" transform="scale(0.015625)"/>
      </defs>
      <use xlink:href="#DejaVuSans-53"/>
      <use xlink:href="#DejaVuSans-63" x="63.476562"/>
      <use xlink:href="#DejaVuSans-6f" x="118.457031"/>
      <use xlink:href="#DejaVuSans-72" x="179.638672"/>
      <use xlink:href="#DejaVuSans-65" x="218.501953"/>
     </g>
    </g>
   </g>
   <g id="matplotlib.axis_2">
    <g id="ytick_1">
     <g id="line2d_5">
      <defs>
       <path id="m9ee789a1da" d="M 0 0 
L -3.5 0 
" style="stroke: #000000; stroke-width: 0.8"/>
      </defs>
      <g>
       <use xlink:href="#m9ee789a1da" x="57.6" y="307.584" style="stroke: #000000; stroke-width: 0.8"/>
      </g>
     </g>
     <g id="text_6">
      <!-- 0 -->
      <g transform="translate(44.2375 311.383219)scale(0.1 -0.1)">
       <use xlink:href="#DejaVuSans-30"/>
      </g>
     </g>
    </g>
    <g id="ytick_2">
     <g id="line2d_6">
      <g>
       <use xlink:href="#m9ee789a1da" x="57.6" y="262.326857" style="stroke: #000000; stroke-width: 0.8"/>
      </g>
     </g>
     <g id="text_7">
      <!-- 50 -->
      <g transform="translate(37.875 266.126076)scale(0.1 -0.1)">
       <use xlink:href="#DejaVuSans-35"/>
       <use xlink:href="#DejaVuSans-30" x="63.623047"/>
      </g>
     </g>
    </g>
    <g id="ytick_3">
     <g id="line2d_7">
      <g>
       <use xlink:href="#m9ee789a1da" x="57.6" y="217.069714" style="stroke: #000000; stroke-width: 0.8"/>
      </g>
     </g>
     <g id="text_8">
      <!-- 100 -->
      <g transform="translate(31.5125 220.868933)scale(0.1 -0.1)">
       <use xlink:href="#DejaVuSans-31"/>
       <use xlink:href="#DejaVuSans-30" x="63.623047"/>
       <use xlink:href="#DejaVuSans-30" x="127.246094"/>
      </g>
     </g>
    </g>
    <g id="ytick_4">
     <g id="line2d_8">
      <g>
       <use xlink:href="#m9ee789a1da" x="57.6" y="171.812571" style="stroke: #000000; stroke-width: 0.8"/>
      </g>
     </g>
     <g id="text_9">
      <!-- 150 -->
      <g transform="translate(31.5125 175.61179)scale(0.1 -0.1)">
       <use xlink:href="#DejaVuSans-31"/>
       <use xlink:href="#DejaVuSans-35" x="63.623047"/>
       <use xlink:href="#DejaVuSans-30" x="127.246094"/>
      </g>
     </g>
    </g>
    <g id="ytick_5">
     <g id="line2d_9">
      <g>
       <use xlink:href="#m9ee789a1da" x="57.6" y="126.555429" style="stroke: #000000; stroke-width: 0.8"/>
      </g>
     </g>
     <g id="text_10">
      <!-- 200 -->
      <g transform="translate(31.5125 130.354647)scale(0.1 -0.1)">
       <use xlink:href="#DejaVuSans-32"/>
       <use xlink:href="#DejaVuSans-30" x="63.623047"/>
       <use xlink:href="#DejaVuSans-30" x="127.246094"/>
      </g>
     </g>
    </g>
    <g id="ytick_6">
     <g id="line2d_10">
      <g>
       <use xlink:href="#m9ee789a1da" x="57.6" y="81.298286" style="stroke: #000000; stroke-width: 0.8"/>
      </g>
     </g>
     <g id="text_11">
      <!-- 250 -->
      <g transform="translate(31.5125 85.097504)scale(0.1 -0.1)">
       <use xlink:href="#DejaVuSans-32"/>
       <use xlink:href="#DejaVuSans-35" x="63.623047"/>
       <use xlink:href="#DejaVuSans-30" x="127.246094"/>
      </g>
     </g>
    </g>
    <g id="text_12">
     <!-- Number of crosslinks -->
     <g transform="translate(25.432812 227.019406)rotate(-90)scale(0.1 -0.1)">
      <defs>
       <path id="DejaVuSans-4e" d="M 628 4666 
L 1478 4666 
L 3547 763 
L 3547 4666 
L 4159 4666 
L 4159 0 
L 3309 0 
L 1241 3903 
L 1241 0 
L 628 0 
L 628 4666 
z
" transform="scale(0.015625)"/>
       <path id="DejaVuSans-75" d="M 544 1381 
L 544 3500 
L 1119 3500 
L 1119 1403 
Q 1119 906 1312 657 
Q 1506 409 1894 409 
Q 2359 409 2629 706 
Q 2900 1003 2900 1516 
L 2900 3500 
L 3475 3500 
L 3475 0 
L 2900 0 
L 2900 538 
Q 2691 219 2414 64 
Q 2138 -91 1772 -91 
Q 1169 -91 856 284 
Q 544 659 544 1381 
z
M 1991 3584 
L 1991 3584 
z
" transform="scale(0.015625)"/>
       <path id="DejaVuSans-6d" d="M 3328 2828 
Q 3544 3216 3844 3400 
Q 4144 3584 4550 3584 
Q 5097 3584 5394 3201 
Q 5691 2819 5691 2113 
L 5691 0 
L 5113 0 
L 5113 2094 
Q 5113 2597 4934 2840 
Q 4756 3084 4391 3084 
Q 3944 3084 3684 2787 
Q 3425 2491 3425 1978 
L 3425 0 
L 2847 0 
L 2847 2094 
Q 2847 2600 2669 2842 
Q 2491 3084 2119 3084 
Q 1678 3084 1418 2786 
Q 1159 2488 1159 1978 
L 1159 0 
L 581 0 
L 581 3500 
L 1159 3500 
L 1159 2956 
Q 1356 3278 1631 3431 
Q 1906 3584 2284 3584 
Q 2666 3584 2933 3390 
Q 3200 3197 3328 2828 
z
" transform="scale(0.015625)"/>
       <path id="DejaVuSans-62" d="M 3116 1747 
Q 3116 2381 2855 2742 
Q 2594 3103 2138 3103 
Q 1681 3103 1420 2742 
Q 1159 2381 1159 1747 
Q 1159 1113 1420 752 
Q 1681 391 2138 391 
Q 2594 391 2855 752 
Q 3116 1113 3116 1747 
z
M 1159 2969 
Q 1341 3281 1617 3432 
Q 1894 3584 2278 3584 
Q 2916 3584 3314 3078 
Q 3713 2572 3713 1747 
Q 3713 922 3314 415 
Q 2916 -91 2278 -91 
Q 1894 -91 1617 61 
Q 1341 213 1159 525 
L 1159 0 
L 581 0 
L 581 4863 
L 1159 4863 
L 1159 2969 
z
" transform="scale(0.015625)"/>
       <path id="DejaVuSans-20" transform="scale(0.015625)"/>
       <path id="DejaVuSans-66" d="M 2375 4863 
L 2375 4384 
L 1825 4384 
Q 1516 4384 1395 4259 
Q 1275 4134 1275 3809 
L 1275 3500 
L 2222 3500 
L 2222 3053 
L 1275 3053 
L 1275 0 
L 697 0 
L 697 3053 
L 147 3053 
L 147 3500 
L 697 3500 
L 697 3744 
Q 697 4328 969 4595 
Q 1241 4863 1831 4863 
L 2375 4863 
z
" transform="scale(0.015625)"/>
       <path id="DejaVuSans-73" d="M 2834 3397 
L 2834 2853 
Q 2591 2978 2328 3040 
Q 2066 3103 1784 3103 
Q 1356 3103 1142 2972 
Q 928 2841 928 2578 
Q 928 2378 1081 2264 
Q 1234 2150 1697 2047 
L 1894 2003 
Q 2506 1872 2764 1633 
Q 3022 1394 3022 966 
Q 3022 478 2636 193 
Q 2250 -91 1575 -91 
Q 1294 -91 989 -36 
Q 684 19 347 128 
L 347 722 
Q 666 556 975 473 
Q 1284 391 1588 391 
Q 1994 391 2212 530 
Q 2431 669 2431 922 
Q 2431 1156 2273 1281 
Q 2116 1406 1581 1522 
L 1381 1569 
Q 847 1681 609 1914 
Q 372 2147 372 2553 
Q 372 3047 722 3315 
Q 1072 3584 1716 3584 
Q 2034 3584 2315 3537 
Q 2597 3491 2834 3397 
z
" transform="scale(0.015625)"/>
       <path id="DejaVuSans-6c" d="M 603 4863 
L 1178 4863 
L 1178 0 
L 603 0 
L 603 4863 
z
" transform="scale(0.015625)"/>
       <path id="DejaVuSans-69" d="M 603 3500 
L 1178 3500 
L 1178 0 
L 603 0 
L 603 3500 
z
M 603 4863 
L 1178 4863 
L 1178 4134 
L 603 4134 
L 603 4863 
z
" transform="scale(0.015625)"/>
       <path id="DejaVuSans-6e" d="M 3513 2113 
L 3513 0 
L 2938 0 
L 2938 2094 
Q 2938 2591 2744 2837 
Q 2550 3084 2163 3084 
Q 1697 3084 1428 2787 
Q 1159 2491 1159 1978 
L 1159 0 
L 581 0 
L 581 3500 
L 1159 3500 
L 1159 2956 
Q 1366 3272 1645 3428 
Q 1925 3584 2291 3584 
Q 2894 3584 3203 3211 
Q 3513 2838 3513 2113 
z
" transform="scale(0.015625)"/>
       <path id="DejaVuSans-6b" d="M 581 4863 
L 1159 4863 
L 1159 1991 
L 2875 3500 
L 3609 3500 
L 1753 1863 
L 3688 0 
L 2938 0 
L 1159 1709 
L 1159 0 
L 581 0 
L 581 4863 
z
" transform="scale(0.015625)"/>
      </defs>
      <use xlink:href="#DejaVuSans-4e"/>
      <use xlink:href="#DejaVuSans-75" x="74.804688"/>
      <use xlink:href="#DejaVuSans-6d" x="138.183594"/>
      <use xlink:href="#DejaVuSans-62" x="235.595703"/>
      <use xlink:href="#DejaVuSans-65" x="299.072266"/>
      <use xlink:href="#DejaVuSans-72" x="360.595703"/>
      <use xlink:href="#DejaVuSans-20" x="401.708984"/>
      <use xlink:href="#DejaVuSans-6f" x="433.496094"/>
      <use xlink:href="#DejaVuSans-66" x="494.677734"/>
      <use xlink:href="#DejaVuSans-20" x="529.882812"/>
      <use xlink:href="#DejaVuSans-63" x="561.669922"/>
      <use xlink:href="#DejaVuSans-72" x="616.650391"/>
      <use xlink:href="#DejaVuSans-6f" x="655.513672"/>
      <use xlink:href="#DejaVuSans-73" x="716.695312"/>
      <use xlink:href="#DejaVuSans-73" x="768.794922"/>
      <use xlink:href="#DejaVuSans-6c" x="820.894531"/>
      <use xlink:href="#DejaVuSans-69" x="848.677734"/>
      <use xlink:href="#DejaVuSans-6e" x="876.460938"/>
      <use xlink:href="#DejaVuSans-6b" x="939.839844"/>
      <use xlink:href="#DejaVuSans-73" x="997.75"/>
     </g>
    </g>
   </g>
   <g id="patch_3">
    <path d="M 57.6 307.584 
L 57.6 41.472 
" style="fill: none; stroke: #000000; stroke-width: 0.8; stroke-linejoin: miter; stroke-linecap: square"/>
   </g>
   <g id="patch_4">
    <path d="M 414.72 307.584 
L 414.72 41.472 
" style="fill: none; stroke: #000000; stroke-width: 0.8; stroke-linejoin: miter; stroke-linecap: square"/>
   </g>
   <g id="patch_5">
    <path d="M 57.6 307.584 
L 414.72 307.584 
" style="fill: none; stroke: #000000; stroke-width: 0.8; stroke-linejoin: miter; stroke-linecap: square"/>
   </g>
   <g id="patch_6">
    <path d="M 57.6 41.472 
L 414.72 41.472 
" style="fill: none; stroke: #000000; stroke-width: 0.8; stroke-linejoin: miter; stroke-linecap: square"/>
   </g>
   <g id="legend_1">
    <g id="patch_7">
     <path d="M 278.598125 93.506375 
L 407.72 93.506375 
Q 409.72 93.506375 409.72 91.506375 
L 409.72 48.472 
Q 409.72 46.472 407.72 46.472 
L 278.598125 46.472 
Q 276.598125 46.472 276.598125 48.472 
L 276.598125 91.506375 
Q 276.598125 93.506375 278.598125 93.506375 
z
" style="fill: #ffffff; opacity: 0.8; stroke: #cccccc; stroke-linejoin: miter"/>
    </g>
    <g id="patch_8">
     <path d="M 280.598125 58.070438 
L 300.598125 58.070438 
L 300.598125 51.070438 
L 280.598125 51.070438 
z
" style="fill: #008000"/>
    </g>
    <g id="text_13">
     <!-- correct -->
     <g transform="translate(308.598125 58.070438)scale(0.1 -0.1)">
      <defs>
       <path id="DejaVuSans-74" d="M 1172 4494 
L 1172 3500 
L 2356 3500 
L 2356 3053 
L 1172 3053 
L 1172 1153 
Q 1172 725 1289 603 
Q 1406 481 1766 481 
L 2356 481 
L 2356 0 
L 1766 0 
Q 1100 0 847 248 
Q 594 497 594 1153 
L 594 3053 
L 172 3053 
L 172 3500 
L 594 3500 
L 594 4494 
L 1172 4494 
z
" transform="scale(0.015625)"/>
      </defs>
      <use xlink:href="#DejaVuSans-63"/>
      <use xlink:href="#DejaVuSans-6f" x="54.980469"/>
      <use xlink:href="#DejaVuSans-72" x="116.162109"/>
      <use xlink:href="#DejaVuSans-72" x="155.525391"/>
      <use xlink:href="#DejaVuSans-65" x="194.388672"/>
      <use xlink:href="#DejaVuSans-63" x="255.912109"/>
      <use xlink:href="#DejaVuSans-74" x="310.892578"/>
     </g>
    </g>
    <g id="patch_9">
     <path d="M 280.598125 72.748563 
L 300.598125 72.748563 
L 300.598125 65.748563 
L 280.598125 65.748563 
z
" style="fill: #7cfc00"/>
    </g>
    <g id="text_14">
     <!-- correct homeotypic -->
     <g transform="translate(308.598125 72.748563)scale(0.1 -0.1)">
      <defs>
       <path id="DejaVuSans-68" d="M 3513 2113 
L 3513 0 
L 2938 0 
L 2938 2094 
Q 2938 2591 2744 2837 
Q 2550 3084 2163 3084 
Q 1697 3084 1428 2787 
Q 1159 2491 1159 1978 
L 1159 0 
L 581 0 
L 581 4863 
L 1159 4863 
L 1159 2956 
Q 1366 3272 1645 3428 
Q 1925 3584 2291 3584 
Q 2894 3584 3203 3211 
Q 3513 2838 3513 2113 
z
" transform="scale(0.015625)"/>
       <path id="DejaVuSans-79" d="M 2059 -325 
Q 1816 -950 1584 -1140 
Q 1353 -1331 966 -1331 
L 506 -1331 
L 506 -850 
L 844 -850 
Q 1081 -850 1212 -737 
Q 1344 -625 1503 -206 
L 1606 56 
L 191 3500 
L 800 3500 
L 1894 763 
L 2988 3500 
L 3597 3500 
L 2059 -325 
z
" transform="scale(0.015625)"/>
       <path id="DejaVuSans-70" d="M 1159 525 
L 1159 -1331 
L 581 -1331 
L 581 3500 
L 1159 3500 
L 1159 2969 
Q 1341 3281 1617 3432 
Q 1894 3584 2278 3584 
Q 2916 3584 3314 3078 
Q 3713 2572 3713 1747 
Q 3713 922 3314 415 
Q 2916 -91 2278 -91 
Q 1894 -91 1617 61 
Q 1341 213 1159 525 
z
M 3116 1747 
Q 3116 2381 2855 2742 
Q 2594 3103 2138 3103 
Q 1681 3103 1420 2742 
Q 1159 2381 1159 1747 
Q 1159 1113 1420 752 
Q 1681 391 2138 391 
Q 2594 391 2855 752 
Q 3116 1113 3116 1747 
z
" transform="scale(0.015625)"/>
      </defs>
      <use xlink:href="#DejaVuSans-63"/>
      <use xlink:href="#DejaVuSans-6f" x="54.980469"/>
      <use xlink:href="#DejaVuSans-72" x="116.162109"/>
      <use xlink:href="#DejaVuSans-72" x="155.525391"/>
      <use xlink:href="#DejaVuSans-65" x="194.388672"/>
      <use xlink:href="#DejaVuSans-63" x="255.912109"/>
      <use xlink:href="#DejaVuSans-74" x="310.892578"/>
      <use xlink:href="#DejaVuSans-20" x="350.101562"/>
      <use xlink:href="#DejaVuSans-68" x="381.888672"/>
      <use xlink:href="#DejaVuSans-6f" x="445.267578"/>
      <use xlink:href="#DejaVuSans-6d" x="506.449219"/>
      <use xlink:href="#DejaVuSans-65" x="603.861328"/>
      <use xlink:href="#DejaVuSans-6f" x="665.384766"/>
      <use xlink:href="#DejaVuSans-74" x="726.566406"/>
      <use xlink:href="#DejaVuSans-79" x="765.775391"/>
      <use xlink:href="#DejaVuSans-70" x="824.955078"/>
      <use xlink:href="#DejaVuSans-69" x="888.431641"/>
      <use xlink:href="#DejaVuSans-63" x="916.214844"/>
     </g>
    </g>
    <g id="patch_10">
     <path d="M 280.598125 87.426688 
L 300.598125 87.426688 
L 300.598125 80.426688 
L 280.598125 80.426688 
z
" style="fill: #ff0000"/>
    </g>
    <g id="text_15">
     <!-- false -->
     <g transform="translate(308.598125 87.426688)scale(0.1 -0.1)">
      <defs>
       <path id="DejaVuSans-61" d="M 2194 1759 
Q 1497 1759 1228 1600 
Q 959 1441 959 1056 
Q 959 750 1161 570 
Q 1363 391 1709 391 
Q 2188 391 2477 730 
Q 2766 1069 2766 1631 
L 2766 1759 
L 2194 1759 
z
M 3341 1997 
L 3341 0 
L 2766 0 
L 2766 531 
Q 2569 213 2275 61 
Q 1981 -91 1556 -91 
Q 1019 -91 701 211 
Q 384 513 384 1019 
Q 384 1609 779 1909 
Q 1175 2209 1959 2209 
L 2766 2209 
L 2766 2266 
Q 2766 2663 2505 2880 
Q 2244 3097 1772 3097 
Q 1472 3097 1187 3025 
Q 903 2953 641 2809 
L 641 3341 
Q 956 3463 1253 3523 
Q 1550 3584 1831 3584 
Q 2591 3584 2966 3190 
Q 3341 2797 3341 1997 
z
" transform="scale(0.015625)"/>
      </defs>
      <use xlink:href="#DejaVuSans-66"/>
      <use xlink:href="#DejaVuSans-61" x="35.205078"/>
      <use xlink:href="#DejaVuSans-6c" x="96.484375"/>
      <use xlink:href="#DejaVuSans-73" x="124.267578"/>
      <use xlink:href="#DejaVuSans-65" x="176.367188"/>
     </g>
    </g>
   </g>
  </g>
 </g>
 <defs>
  <clipPath id="p15235b63ff">
   <rect x="57.6" y="41.472" width="357.12" height="266.112"/>
  </clipPath>
 </defs>
</svg>
