<?xml version="1.0" encoding="utf-8" standalone="no"?>
<!DOCTYPE svg PUBLIC "-//W3C//DTD SVG 1.1//EN"
  "http://www.w3.org/Graphics/SVG/1.1/DTD/svg11.dtd">
<svg xmlns:xlink="http://www.w3.org/1999/xlink" width="460.8pt" height="345.6pt" viewBox="0 0 460.8 345.6" xmlns="http://www.w3.org/2000/svg" version="1.1">
 <metadata>
  <rdf:RDF xmlns:dc="http://purl.org/dc/elements/1.1/" xmlns:cc="http://creativecommons.org/ns#" xmlns:rdf="http://www.w3.org/1999/02/22-rdf-syntax-ns#">
   <cc:Work>
    <dc:type rdf:resource="http://purl.org/dc/dcmitype/StillImage"/>
    <dc:date>2022-08-11T12:54:22.745301</dc:date>
    <dc:format>image/svg+xml</dc:format>
    <dc:creator>
     <cc:Agent>
      <dc:title>Matplotlib v3.5.1, https://matplotlib.org/</dc:title>
     </cc:Agent>
    </dc:creator>
   </cc:Work>
  </rdf:RDF>
 </metadata>
 <defs>
  <style type="text/css">*{stroke-linejoin: round; stroke-linecap: butt}</style>
 </defs>
 <g id="figure_1">
  <g id="patch_1">
   <path d="M 0 345.6 
L 460.8 345.6 
L 460.8 0 
L 0 0 
z
" style="fill: #ffffff"/>
  </g>
  <g id="axes_1">
   <g id="patch_2">
    <path d="M 57.6 307.584 
L 414.72 307.584 
L 414.72 41.472 
L 57.6 41.472 
z
" style="fill: #ffffff"/>
   </g>
   <g id="PolyCollection_1">
    <path d="M 73.832727 83.960471 
L 73.832727 307.584 
L 73.954179 307.584 
L 74.242625 307.584 
L 75.138329 307.584 
L 76.094758 307.584 
L 76.626108 307.584 
L 76.702015 307.584 
L 76.717196 307.584 
L 76.793103 307.584 
L 78.022798 307.584 
L 78.326426 307.584 
L 79.146222 307.584 
L 79.571302 307.584 
L 79.616846 307.584 
L 81.210895 307.584 
L 81.286802 307.584 
L 82.152142 307.584 
L 83.290748 307.584 
L 83.670284 307.584 
L 84.019456 307.584 
L 84.763346 307.584 
L 85.416146 307.584 
L 85.750138 307.584 
L 86.008222 307.584 
L 86.129673 307.584 
L 86.554752 307.584 
L 86.615478 307.584 
L 87.435275 307.584 
L 89.044504 307.584 
L 90.031296 307.584 
L 90.668916 307.584 
L 90.851093 307.584 
L 91.291354 307.584 
L 91.579801 307.584 
L 92.445141 307.584 
L 92.74877 307.584 
L 93.492659 307.584 
L 93.598929 307.584 
L 95.830597 307.584 
L 96.316402 307.584 
L 96.954021 307.584 
L 97.530915 307.584 
L 99.534862 307.584 
L 99.550043 307.584 
L 99.595587 307.584 
L 100.36984 307.584 
L 103.406122 307.584 
L 103.679388 307.584 
L 105.000171 307.584 
L 105.045715 307.584 
L 105.63779 307.584 
L 106.108414 307.584 
L 106.654945 307.584 
L 107.201476 307.584 
L 107.338109 307.584 
L 108.85625 307.584 
L 109.554595 307.584 
L 109.873405 307.584 
L 111.54336 307.584 
L 111.725537 307.584 
L 111.892533 307.584 
L 112.029166 307.584 
L 114.792183 307.584 
L 116.128148 307.584 
L 116.978307 307.584 
L 117.843647 307.584 
L 118.754532 307.584 
L 119.80205 307.584 
L 120.196767 307.584 
L 122.261439 307.584 
L 122.777607 307.584 
L 124.599377 307.584 
L 124.660102 307.584 
L 124.948549 307.584 
L 125.646894 307.584 
L 126.223788 307.584 
L 127.301669 307.584 
L 128.850173 307.584 
L 130.277226 307.584 
L 132.554438 307.584 
L 133.192057 307.584 
L 133.723407 307.584 
L 135.074553 307.584 
L 136.683783 307.584 
L 136.805234 307.584 
L 137.230314 307.584 
L 138.05011 307.584 
L 138.26265 307.584 
L 140.463955 307.584 
L 140.539862 307.584 
L 140.94976 307.584 
L 141.192663 307.584 
L 142.194636 307.584 
L 142.98407 307.584 
L 143.348423 307.584 
L 143.788685 307.584 
L 143.910136 307.584 
L 143.940499 307.584 
L 144.441485 307.584 
L 144.623662 307.584 
L 144.684388 307.584 
L 145.215737 307.584 
L 148.327927 307.584 
L 149.299538 307.584 
L 149.375445 307.584 
L 149.618348 307.584 
L 149.815706 307.584 
L 150.529232 307.584 
L 151.060582 307.584 
L 151.667839 307.584 
L 152.639449 307.584 
L 153.049347 307.584 
L 153.595878 307.584 
L 154.537126 307.584 
L 155.706095 307.584 
L 155.842727 307.584 
L 158.666471 307.584 
L 159.562174 307.584 
L 159.774714 307.584 
L 161.475032 307.584 
L 161.793842 307.584 
L 162.234103 307.584 
L 163.236076 307.584 
L 164.040691 307.584 
L 164.192505 307.584 
L 164.313957 307.584 
L 167.365421 307.584 
L 169.809629 307.584 
L 170.173983 307.584 
L 171.358133 307.584 
L 171.768031 307.584 
L 172.557465 307.584 
L 172.603009 307.584 
L 173.073633 307.584 
L 173.195084 307.584 
L 173.316535 307.584 
L 173.726434 307.584 
L 173.817522 307.584 
L 174.01488 307.584 
L 174.956128 307.584 
L 175.927739 307.584 
L 177.76469 307.584 
L 179.206924 307.584 
L 179.920451 307.584 
L 180.34553 307.584 
L 180.740247 307.584 
L 182.349477 307.584 
L 182.546835 307.584 
L 183.063003 307.584 
L 183.412176 307.584 
L 184.049795 307.584 
L 184.323061 307.584 
L 185.780477 307.584 
L 186.068923 307.584 
L 187.131622 307.584 
L 188.923029 307.584 
L 193.689993 307.584 
L 193.993622 307.584 
L 194.236524 307.584 
L 195.101865 307.584 
L 195.314405 307.584 
L 195.997568 307.584 
L 197.62198 307.584 
L 198.654316 307.584 
L 198.790949 307.584 
L 199.701833 307.584 
L 199.717015 307.584 
L 201.629873 307.584 
L 203.056926 307.584 
L 204.043718 307.584 
L 204.863514 307.584 
L 206.260204 307.584 
L 207.095182 307.584 
L 208.279333 307.584 
L 208.324877 307.584 
L 210.070739 307.584 
L 212.924845 307.584 
L 213.213292 307.584 
L 214.033089 307.584 
L 214.169721 307.584 
L 214.609982 307.584 
L 215.262783 307.584 
L 216.568385 307.584 
L 217.236367 307.584 
L 217.448907 307.584 
L 217.539995 307.584 
L 217.995438 307.584 
L 220.439645 307.584 
L 220.712911 307.584 
L 221.077265 307.584 
L 221.547889 307.584 
L 222.838309 307.584 
L 224.341269 307.584 
L 225.145884 307.584 
L 226.922109 307.584 
L 226.998016 307.584 
L 227.499003 307.584 
L 227.863357 307.584 
L 227.984808 307.584 
L 228.698335 307.584 
L 230.019118 307.584 
L 231.552441 307.584 
L 231.628348 307.584 
L 232.463326 307.584 
L 233.055401 307.584 
L 233.313485 307.584 
L 233.526025 307.584 
L 234.497635 307.584 
L 234.968259 307.584 
L 235.438883 307.584 
L 236.167591 307.584 
L 237.23029 307.584 
L 241.147095 307.584 
L 241.435541 307.584 
L 241.678444 307.584 
L 242.665236 307.584 
L 244.912085 307.584 
L 246.217687 307.584 
L 248.950342 307.584 
L 249.36024 307.584 
L 249.46651 307.584 
L 250.347032 307.584 
L 253.86912 307.584 
L 255.508713 307.584 
L 259.395155 307.584 
L 260.078318 307.584 
L 262.188535 307.584 
L 262.643977 307.584 
L 264.572017 307.584 
L 264.875645 307.584 
L 264.936371 307.584 
L 266.454512 307.584 
L 267.638663 307.584 
L 278.766639 307.584 
L 278.903272 307.584 
L 282.865621 307.584 
L 288.22466 307.584 
L 289.07482 307.584 
L 293.037169 307.584 
L 293.447067 307.584 
L 293.5837 307.584 
L 299.109735 307.584 
L 299.48927 307.584 
L 307.808685 307.584 
L 310.54134 307.584 
L 313.592804 307.584 
L 315.232397 307.584 
L 317.873963 307.584 
L 319.953816 307.584 
L 323.157095 307.584 
L 332.372213 307.584 
L 338.004518 307.584 
L 352.168778 307.584 
L 386.979761 307.584 
L 388.664898 307.584 
L 398.487273 307.584 
L 398.487273 306.707045 
L 398.487273 306.707045 
L 388.664898 305.83009 
L 386.979761 304.953135 
L 352.168778 304.07618 
L 338.004518 303.199225 
L 332.372213 302.32227 
L 323.157095 301.445315 
L 319.953816 300.56836 
L 317.873963 299.691405 
L 315.232397 298.81445 
L 313.592804 297.937495 
L 310.54134 297.06054 
L 307.808685 296.183585 
L 299.48927 295.30663 
L 299.109735 294.429675 
L 293.5837 293.55272 
L 293.447067 292.675765 
L 293.037169 291.79881 
L 289.07482 290.921855 
L 288.22466 290.0449 
L 282.865621 289.167945 
L 278.903272 288.29099 
L 278.766639 287.414035 
L 267.638663 285.660125 
L 266.454512 284.78317 
L 264.936371 283.02926 
L 264.875645 282.152304 
L 264.572017 281.275349 
L 262.643977 280.398394 
L 262.188535 279.521439 
L 260.078318 278.644484 
L 259.395155 277.767529 
L 255.508713 276.890574 
L 253.86912 275.136664 
L 250.347032 274.259709 
L 249.46651 273.382754 
L 249.36024 272.505799 
L 248.950342 271.628844 
L 246.217687 270.751889 
L 244.912085 269.874934 
L 242.665236 268.997979 
L 241.678444 268.121024 
L 241.435541 267.244069 
L 241.147095 262.859294 
L 237.23029 261.982339 
L 236.167591 261.105384 
L 235.438883 260.228429 
L 234.968259 259.351474 
L 234.497635 258.474519 
L 233.526025 257.597564 
L 233.313485 256.720609 
L 233.055401 255.843654 
L 232.463326 254.966699 
L 231.628348 254.089744 
L 231.552441 253.212789 
L 230.019118 252.335834 
L 228.698335 251.458879 
L 227.984808 249.704969 
L 227.863357 248.828014 
L 227.499003 247.951059 
L 226.998016 246.197149 
L 226.922109 245.320194 
L 225.145884 244.443239 
L 224.341269 243.566284 
L 222.838309 242.689329 
L 221.547889 241.812374 
L 221.077265 240.935419 
L 220.712911 240.058464 
L 220.439645 239.181509 
L 217.995438 238.304554 
L 217.539995 237.427599 
L 217.448907 236.550644 
L 217.236367 235.673689 
L 216.568385 234.796734 
L 215.262783 233.919779 
L 214.609982 233.042824 
L 214.169721 233.042824 
L 214.033089 232.165869 
L 213.213292 230.411958 
L 212.924845 229.535003 
L 210.070739 228.658048 
L 208.324877 226.027183 
L 208.279333 225.150228 
L 207.095182 223.396318 
L 206.260204 222.519363 
L 204.863514 221.642408 
L 204.043718 220.765453 
L 203.056926 219.888498 
L 201.629873 219.011543 
L 199.717015 218.134588 
L 199.701833 217.257633 
L 198.790949 216.380678 
L 198.654316 214.626768 
L 197.62198 212.872858 
L 195.997568 211.995903 
L 195.314405 211.118948 
L 195.101865 210.241993 
L 194.236524 209.365038 
L 193.993622 207.611128 
L 193.689993 205.857218 
L 188.923029 204.980263 
L 187.131622 204.103308 
L 186.068923 203.226353 
L 185.780477 202.349398 
L 184.323061 201.472443 
L 184.049795 200.595488 
L 183.412176 199.718533 
L 183.063003 198.841578 
L 182.546835 197.964623 
L 182.349477 197.087668 
L 180.740247 196.210713 
L 180.34553 195.333758 
L 179.920451 194.456803 
L 179.206924 193.579848 
L 177.76469 192.702893 
L 175.927739 190.948983 
L 174.956128 190.072028 
L 174.01488 189.195073 
L 173.817522 188.318118 
L 173.726434 187.441163 
L 173.316535 186.564208 
L 173.195084 185.687253 
L 173.073633 184.810298 
L 172.603009 183.933343 
L 172.557465 183.056388 
L 171.768031 182.179433 
L 171.358133 181.302478 
L 170.173983 179.548567 
L 169.809629 178.671612 
L 167.365421 177.794657 
L 164.313957 176.040747 
L 164.192505 175.163792 
L 164.040691 173.409882 
L 163.236076 172.532927 
L 162.234103 171.655972 
L 161.793842 170.779017 
L 161.475032 169.902062 
L 159.774714 169.025107 
L 159.562174 168.148152 
L 158.666471 168.148152 
L 155.842727 167.271197 
L 155.706095 166.394242 
L 154.537126 165.517287 
L 153.595878 164.640332 
L 153.049347 163.763377 
L 152.639449 162.886422 
L 151.667839 162.009467 
L 151.060582 161.132512 
L 150.529232 160.255557 
L 149.815706 159.378602 
L 149.618348 158.501647 
L 149.375445 157.624692 
L 149.299538 156.747737 
L 148.327927 155.870782 
L 145.215737 154.993827 
L 144.684388 154.116872 
L 144.623662 153.239917 
L 144.441485 152.362962 
L 143.940499 151.486007 
L 143.910136 150.609052 
L 143.788685 149.732097 
L 143.348423 149.732097 
L 142.98407 148.855142 
L 142.194636 147.978187 
L 141.192663 147.101232 
L 140.94976 146.224277 
L 140.539862 145.347322 
L 140.463955 144.470367 
L 138.26265 143.593412 
L 138.05011 142.716457 
L 137.230314 141.839502 
L 136.805234 140.962547 
L 136.683783 140.085592 
L 135.074553 139.208637 
L 133.723407 138.331682 
L 133.192057 137.454727 
L 132.554438 136.577772 
L 130.277226 134.823862 
L 128.850173 133.946907 
L 127.301669 133.069952 
L 126.223788 132.192997 
L 125.646894 130.439087 
L 124.948549 129.562131 
L 124.660102 128.685176 
L 124.599377 127.808221 
L 122.777607 126.931266 
L 122.261439 126.054311 
L 120.196767 125.177356 
L 119.80205 124.300401 
L 118.754532 123.423446 
L 117.843647 122.546491 
L 116.978307 121.669536 
L 116.128148 120.792581 
L 114.792183 119.915626 
L 112.029166 119.038671 
L 111.892533 119.038671 
L 111.725537 118.161716 
L 111.54336 117.284761 
L 109.873405 116.407806 
L 109.554595 115.530851 
L 108.85625 113.776941 
L 107.338109 112.899986 
L 107.201476 112.023031 
L 106.654945 112.023031 
L 106.108414 111.146076 
L 105.63779 110.269121 
L 105.045715 109.392166 
L 105.000171 108.515211 
L 103.679388 107.638256 
L 103.406122 106.761301 
L 100.36984 105.884346 
L 99.595587 105.007391 
L 99.550043 105.007391 
L 99.534862 104.130436 
L 97.530915 104.130436 
L 96.954021 103.253481 
L 96.316402 102.376526 
L 95.830597 102.376526 
L 93.598929 101.499571 
L 93.492659 101.499571 
L 92.74877 101.499571 
L 92.445141 101.499571 
L 91.579801 100.622616 
L 91.291354 99.745661 
L 90.851093 98.868706 
L 90.668916 97.991751 
L 90.031296 97.114796 
L 89.044504 97.114796 
L 87.435275 97.114796 
L 86.615478 96.237841 
L 86.554752 96.237841 
L 86.129673 95.360886 
L 86.008222 94.483931 
L 85.750138 93.606976 
L 85.416146 91.853066 
L 84.763346 91.853066 
L 84.019456 90.976111 
L 83.670284 89.222201 
L 83.290748 88.345246 
L 82.152142 87.468291 
L 81.286802 86.591336 
L 81.210895 86.591336 
L 79.616846 86.591336 
L 79.571302 85.714381 
L 79.146222 85.714381 
L 78.326426 84.837426 
L 78.022798 84.837426 
L 76.793103 84.837426 
L 76.717196 84.837426 
L 76.702015 84.837426 
L 76.626108 84.837426 
L 76.094758 84.837426 
L 75.138329 84.837426 
L 74.242625 84.837426 
L 73.954179 83.960471 
L 73.832727 83.960471 
z
" clip-path="url(#pb8e4e2342c)" style="fill: #008000"/>
   </g>
   <g id="PolyCollection_2">
    <path d="M 73.832727 83.960471 
L 73.832727 83.960471 
L 73.954179 83.960471 
L 74.242625 84.837426 
L 75.138329 84.837426 
L 76.094758 84.837426 
L 76.626108 84.837426 
L 76.702015 84.837426 
L 76.717196 84.837426 
L 76.793103 84.837426 
L 78.022798 84.837426 
L 78.326426 84.837426 
L 79.146222 85.714381 
L 79.571302 85.714381 
L 79.616846 86.591336 
L 81.210895 86.591336 
L 81.286802 86.591336 
L 82.152142 87.468291 
L 83.290748 88.345246 
L 83.670284 89.222201 
L 84.019456 90.976111 
L 84.763346 91.853066 
L 85.416146 91.853066 
L 85.750138 93.606976 
L 86.008222 94.483931 
L 86.129673 95.360886 
L 86.554752 96.237841 
L 86.615478 96.237841 
L 87.435275 97.114796 
L 89.044504 97.114796 
L 90.031296 97.114796 
L 90.668916 97.991751 
L 90.851093 98.868706 
L 91.291354 99.745661 
L 91.579801 100.622616 
L 92.445141 101.499571 
L 92.74877 101.499571 
L 93.492659 101.499571 
L 93.598929 101.499571 
L 95.830597 102.376526 
L 96.316402 102.376526 
L 96.954021 103.253481 
L 97.530915 104.130436 
L 99.534862 104.130436 
L 99.550043 105.007391 
L 99.595587 105.007391 
L 100.36984 105.884346 
L 103.406122 106.761301 
L 103.679388 107.638256 
L 105.000171 108.515211 
L 105.045715 109.392166 
L 105.63779 110.269121 
L 106.108414 111.146076 
L 106.654945 112.023031 
L 107.201476 112.023031 
L 107.338109 112.899986 
L 108.85625 113.776941 
L 109.554595 115.530851 
L 109.873405 116.407806 
L 111.54336 117.284761 
L 111.725537 118.161716 
L 111.892533 119.038671 
L 112.029166 119.038671 
L 114.792183 119.915626 
L 116.128148 120.792581 
L 116.978307 121.669536 
L 117.843647 122.546491 
L 118.754532 123.423446 
L 119.80205 124.300401 
L 120.196767 125.177356 
L 122.261439 126.054311 
L 122.777607 126.931266 
L 124.599377 127.808221 
L 124.660102 128.685176 
L 124.948549 129.562131 
L 125.646894 130.439087 
L 126.223788 132.192997 
L 127.301669 133.069952 
L 128.850173 133.946907 
L 130.277226 134.823862 
L 132.554438 136.577772 
L 133.192057 137.454727 
L 133.723407 138.331682 
L 135.074553 139.208637 
L 136.683783 140.085592 
L 136.805234 140.962547 
L 137.230314 141.839502 
L 138.05011 142.716457 
L 138.26265 143.593412 
L 140.463955 144.470367 
L 140.539862 145.347322 
L 140.94976 146.224277 
L 141.192663 147.101232 
L 142.194636 147.978187 
L 142.98407 148.855142 
L 143.348423 149.732097 
L 143.788685 149.732097 
L 143.910136 150.609052 
L 143.940499 151.486007 
L 144.441485 152.362962 
L 144.623662 153.239917 
L 144.684388 154.116872 
L 145.215737 154.993827 
L 148.327927 155.870782 
L 149.299538 156.747737 
L 149.375445 157.624692 
L 149.618348 158.501647 
L 149.815706 159.378602 
L 150.529232 160.255557 
L 151.060582 161.132512 
L 151.667839 162.009467 
L 152.639449 162.886422 
L 153.049347 163.763377 
L 153.595878 164.640332 
L 154.537126 165.517287 
L 155.706095 166.394242 
L 155.842727 167.271197 
L 158.666471 168.148152 
L 159.562174 168.148152 
L 159.774714 169.025107 
L 161.475032 169.902062 
L 161.793842 170.779017 
L 162.234103 171.655972 
L 163.236076 172.532927 
L 164.040691 173.409882 
L 164.192505 175.163792 
L 164.313957 176.040747 
L 167.365421 177.794657 
L 169.809629 178.671612 
L 170.173983 179.548567 
L 171.358133 181.302478 
L 171.768031 182.179433 
L 172.557465 183.056388 
L 172.603009 183.933343 
L 173.073633 184.810298 
L 173.195084 185.687253 
L 173.316535 186.564208 
L 173.726434 187.441163 
L 173.817522 188.318118 
L 174.01488 189.195073 
L 174.956128 190.072028 
L 175.927739 190.948983 
L 177.76469 192.702893 
L 179.206924 193.579848 
L 179.920451 194.456803 
L 180.34553 195.333758 
L 180.740247 196.210713 
L 182.349477 197.087668 
L 182.546835 197.964623 
L 183.063003 198.841578 
L 183.412176 199.718533 
L 184.049795 200.595488 
L 184.323061 201.472443 
L 185.780477 202.349398 
L 186.068923 203.226353 
L 187.131622 204.103308 
L 188.923029 204.980263 
L 193.689993 205.857218 
L 193.993622 207.611128 
L 194.236524 209.365038 
L 195.101865 210.241993 
L 195.314405 211.118948 
L 195.997568 211.995903 
L 197.62198 212.872858 
L 198.654316 214.626768 
L 198.790949 216.380678 
L 199.701833 217.257633 
L 199.717015 218.134588 
L 201.629873 219.011543 
L 203.056926 219.888498 
L 204.043718 220.765453 
L 204.863514 221.642408 
L 206.260204 222.519363 
L 207.095182 223.396318 
L 208.279333 225.150228 
L 208.324877 226.027183 
L 210.070739 228.658048 
L 212.924845 229.535003 
L 213.213292 230.411958 
L 214.033089 232.165869 
L 214.169721 233.042824 
L 214.609982 233.042824 
L 215.262783 233.919779 
L 216.568385 234.796734 
L 217.236367 235.673689 
L 217.448907 236.550644 
L 217.539995 237.427599 
L 217.995438 238.304554 
L 220.439645 239.181509 
L 220.712911 240.058464 
L 221.077265 240.935419 
L 221.547889 241.812374 
L 222.838309 242.689329 
L 224.341269 243.566284 
L 225.145884 244.443239 
L 226.922109 245.320194 
L 226.998016 246.197149 
L 227.499003 247.951059 
L 227.863357 248.828014 
L 227.984808 249.704969 
L 228.698335 251.458879 
L 230.019118 252.335834 
L 231.552441 253.212789 
L 231.628348 254.089744 
L 232.463326 254.966699 
L 233.055401 255.843654 
L 233.313485 256.720609 
L 233.526025 257.597564 
L 234.497635 258.474519 
L 234.968259 259.351474 
L 235.438883 260.228429 
L 236.167591 261.105384 
L 237.23029 261.982339 
L 241.147095 262.859294 
L 241.435541 267.244069 
L 241.678444 268.121024 
L 242.665236 268.997979 
L 244.912085 269.874934 
L 246.217687 270.751889 
L 248.950342 271.628844 
L 249.36024 272.505799 
L 249.46651 273.382754 
L 250.347032 274.259709 
L 253.86912 275.136664 
L 255.508713 276.890574 
L 259.395155 277.767529 
L 260.078318 278.644484 
L 262.188535 279.521439 
L 262.643977 280.398394 
L 264.572017 281.275349 
L 264.875645 282.152304 
L 264.936371 283.02926 
L 266.454512 284.78317 
L 267.638663 285.660125 
L 278.766639 287.414035 
L 278.903272 288.29099 
L 282.865621 289.167945 
L 288.22466 290.0449 
L 289.07482 290.921855 
L 293.037169 291.79881 
L 293.447067 292.675765 
L 293.5837 293.55272 
L 299.109735 294.429675 
L 299.48927 295.30663 
L 307.808685 296.183585 
L 310.54134 297.06054 
L 313.592804 297.937495 
L 315.232397 298.81445 
L 317.873963 299.691405 
L 319.953816 300.56836 
L 323.157095 301.445315 
L 332.372213 302.32227 
L 338.004518 303.199225 
L 352.168778 304.07618 
L 386.979761 304.953135 
L 388.664898 305.83009 
L 398.487273 306.707045 
L 398.487273 306.707045 
L 398.487273 306.707045 
L 388.664898 305.83009 
L 386.979761 304.953135 
L 352.168778 304.07618 
L 338.004518 303.199225 
L 332.372213 302.32227 
L 323.157095 301.445315 
L 319.953816 300.56836 
L 317.873963 299.691405 
L 315.232397 298.81445 
L 313.592804 297.937495 
L 310.54134 297.06054 
L 307.808685 296.183585 
L 299.48927 295.30663 
L 299.109735 294.429675 
L 293.5837 293.55272 
L 293.447067 292.675765 
L 293.037169 291.79881 
L 289.07482 290.921855 
L 288.22466 290.0449 
L 282.865621 289.167945 
L 278.903272 288.29099 
L 278.766639 287.414035 
L 267.638663 285.660125 
L 266.454512 284.78317 
L 264.936371 283.02926 
L 264.875645 282.152304 
L 264.572017 281.275349 
L 262.643977 280.398394 
L 262.188535 279.521439 
L 260.078318 278.644484 
L 259.395155 277.767529 
L 255.508713 276.890574 
L 253.86912 275.136664 
L 250.347032 274.259709 
L 249.46651 273.382754 
L 249.36024 272.505799 
L 248.950342 271.628844 
L 246.217687 270.751889 
L 244.912085 269.874934 
L 242.665236 268.997979 
L 241.678444 268.121024 
L 241.435541 267.244069 
L 241.147095 262.859294 
L 237.23029 261.982339 
L 236.167591 261.105384 
L 235.438883 260.228429 
L 234.968259 259.351474 
L 234.497635 258.474519 
L 233.526025 257.597564 
L 233.313485 256.720609 
L 233.055401 255.843654 
L 232.463326 254.966699 
L 231.628348 254.089744 
L 231.552441 253.212789 
L 230.019118 252.335834 
L 228.698335 251.458879 
L 227.984808 249.704969 
L 227.863357 248.828014 
L 227.499003 247.951059 
L 226.998016 246.197149 
L 226.922109 245.320194 
L 225.145884 244.443239 
L 224.341269 243.566284 
L 222.838309 242.689329 
L 221.547889 241.812374 
L 221.077265 240.935419 
L 220.712911 240.058464 
L 220.439645 239.181509 
L 217.995438 238.304554 
L 217.539995 237.427599 
L 217.448907 236.550644 
L 217.236367 235.673689 
L 216.568385 234.796734 
L 215.262783 233.919779 
L 214.609982 233.042824 
L 214.169721 233.042824 
L 214.033089 232.165869 
L 213.213292 230.411958 
L 212.924845 229.535003 
L 210.070739 228.658048 
L 208.324877 226.027183 
L 208.279333 225.150228 
L 207.095182 223.396318 
L 206.260204 222.519363 
L 204.863514 221.642408 
L 204.043718 220.765453 
L 203.056926 219.888498 
L 201.629873 219.011543 
L 199.717015 218.134588 
L 199.701833 217.257633 
L 198.790949 216.380678 
L 198.654316 214.626768 
L 197.62198 212.872858 
L 195.997568 211.995903 
L 195.314405 211.118948 
L 195.101865 210.241993 
L 194.236524 209.365038 
L 193.993622 207.611128 
L 193.689993 205.857218 
L 188.923029 204.980263 
L 187.131622 204.103308 
L 186.068923 203.226353 
L 185.780477 202.349398 
L 184.323061 201.472443 
L 184.049795 200.595488 
L 183.412176 199.718533 
L 183.063003 198.841578 
L 182.546835 197.964623 
L 182.349477 197.087668 
L 180.740247 196.210713 
L 180.34553 195.333758 
L 179.920451 194.456803 
L 179.206924 193.579848 
L 177.76469 192.702893 
L 175.927739 190.948983 
L 174.956128 190.072028 
L 174.01488 189.195073 
L 173.817522 188.318118 
L 173.726434 187.441163 
L 173.316535 186.564208 
L 173.195084 185.687253 
L 173.073633 184.810298 
L 172.603009 183.933343 
L 172.557465 183.056388 
L 171.768031 182.179433 
L 171.358133 181.302478 
L 170.173983 179.548567 
L 169.809629 178.671612 
L 167.365421 177.794657 
L 164.313957 176.040747 
L 164.192505 175.163792 
L 164.040691 173.409882 
L 163.236076 172.532927 
L 162.234103 171.655972 
L 161.793842 170.779017 
L 161.475032 169.902062 
L 159.774714 169.025107 
L 159.562174 168.148152 
L 158.666471 168.148152 
L 155.842727 167.271197 
L 155.706095 166.394242 
L 154.537126 165.517287 
L 153.595878 164.640332 
L 153.049347 163.763377 
L 152.639449 162.886422 
L 151.667839 162.009467 
L 151.060582 161.132512 
L 150.529232 160.255557 
L 149.815706 159.378602 
L 149.618348 158.501647 
L 149.375445 157.624692 
L 149.299538 156.747737 
L 148.327927 155.870782 
L 145.215737 154.993827 
L 144.684388 154.116872 
L 144.623662 153.239917 
L 144.441485 152.362962 
L 143.940499 151.486007 
L 143.910136 150.609052 
L 143.788685 149.732097 
L 143.348423 149.732097 
L 142.98407 148.855142 
L 142.194636 147.978187 
L 141.192663 147.101232 
L 140.94976 146.224277 
L 140.539862 145.347322 
L 140.463955 144.470367 
L 138.26265 143.593412 
L 138.05011 142.716457 
L 137.230314 141.839502 
L 136.805234 140.962547 
L 136.683783 140.085592 
L 135.074553 139.208637 
L 133.723407 138.331682 
L 133.192057 137.454727 
L 132.554438 136.577772 
L 130.277226 134.823862 
L 128.850173 133.946907 
L 127.301669 133.069952 
L 126.223788 132.192997 
L 125.646894 130.439087 
L 124.948549 129.562131 
L 124.660102 128.685176 
L 124.599377 127.808221 
L 122.777607 126.931266 
L 122.261439 126.054311 
L 120.196767 125.177356 
L 119.80205 124.300401 
L 118.754532 123.423446 
L 117.843647 122.546491 
L 116.978307 121.669536 
L 116.128148 120.792581 
L 114.792183 119.915626 
L 112.029166 119.038671 
L 111.892533 119.038671 
L 111.725537 118.161716 
L 111.54336 117.284761 
L 109.873405 116.407806 
L 109.554595 115.530851 
L 108.85625 113.776941 
L 107.338109 112.899986 
L 107.201476 112.023031 
L 106.654945 112.023031 
L 106.108414 111.146076 
L 105.63779 110.269121 
L 105.045715 109.392166 
L 105.000171 108.515211 
L 103.679388 107.638256 
L 103.406122 106.761301 
L 100.36984 105.884346 
L 99.595587 105.007391 
L 99.550043 105.007391 
L 99.534862 104.130436 
L 97.530915 104.130436 
L 96.954021 103.253481 
L 96.316402 102.376526 
L 95.830597 102.376526 
L 93.598929 101.499571 
L 93.492659 101.499571 
L 92.74877 101.499571 
L 92.445141 101.499571 
L 91.579801 100.622616 
L 91.291354 99.745661 
L 90.851093 98.868706 
L 90.668916 97.991751 
L 90.031296 97.114796 
L 89.044504 97.114796 
L 87.435275 97.114796 
L 86.615478 96.237841 
L 86.554752 96.237841 
L 86.129673 95.360886 
L 86.008222 94.483931 
L 85.750138 93.606976 
L 85.416146 91.853066 
L 84.763346 91.853066 
L 84.019456 90.976111 
L 83.670284 89.222201 
L 83.290748 88.345246 
L 82.152142 87.468291 
L 81.286802 86.591336 
L 81.210895 86.591336 
L 79.616846 86.591336 
L 79.571302 85.714381 
L 79.146222 85.714381 
L 78.326426 84.837426 
L 78.022798 84.837426 
L 76.793103 84.837426 
L 76.717196 84.837426 
L 76.702015 84.837426 
L 76.626108 84.837426 
L 76.094758 84.837426 
L 75.138329 84.837426 
L 74.242625 84.837426 
L 73.954179 83.960471 
L 73.832727 83.960471 
z
" clip-path="url(#pb8e4e2342c)" style="fill: #7cfc00"/>
   </g>
   <g id="PolyCollection_3">
    <path d="M 73.832727 54.144 
L 73.832727 83.960471 
L 73.954179 83.960471 
L 74.242625 84.837426 
L 75.138329 84.837426 
L 76.094758 84.837426 
L 76.626108 84.837426 
L 76.702015 84.837426 
L 76.717196 84.837426 
L 76.793103 84.837426 
L 78.022798 84.837426 
L 78.326426 84.837426 
L 79.146222 85.714381 
L 79.571302 85.714381 
L 79.616846 86.591336 
L 81.210895 86.591336 
L 81.286802 86.591336 
L 82.152142 87.468291 
L 83.290748 88.345246 
L 83.670284 89.222201 
L 84.019456 90.976111 
L 84.763346 91.853066 
L 85.416146 91.853066 
L 85.750138 93.606976 
L 86.008222 94.483931 
L 86.129673 95.360886 
L 86.554752 96.237841 
L 86.615478 96.237841 
L 87.435275 97.114796 
L 89.044504 97.114796 
L 90.031296 97.114796 
L 90.668916 97.991751 
L 90.851093 98.868706 
L 91.291354 99.745661 
L 91.579801 100.622616 
L 92.445141 101.499571 
L 92.74877 101.499571 
L 93.492659 101.499571 
L 93.598929 101.499571 
L 95.830597 102.376526 
L 96.316402 102.376526 
L 96.954021 103.253481 
L 97.530915 104.130436 
L 99.534862 104.130436 
L 99.550043 105.007391 
L 99.595587 105.007391 
L 100.36984 105.884346 
L 103.406122 106.761301 
L 103.679388 107.638256 
L 105.000171 108.515211 
L 105.045715 109.392166 
L 105.63779 110.269121 
L 106.108414 111.146076 
L 106.654945 112.023031 
L 107.201476 112.023031 
L 107.338109 112.899986 
L 108.85625 113.776941 
L 109.554595 115.530851 
L 109.873405 116.407806 
L 111.54336 117.284761 
L 111.725537 118.161716 
L 111.892533 119.038671 
L 112.029166 119.038671 
L 114.792183 119.915626 
L 116.128148 120.792581 
L 116.978307 121.669536 
L 117.843647 122.546491 
L 118.754532 123.423446 
L 119.80205 124.300401 
L 120.196767 125.177356 
L 122.261439 126.054311 
L 122.777607 126.931266 
L 124.599377 127.808221 
L 124.660102 128.685176 
L 124.948549 129.562131 
L 125.646894 130.439087 
L 126.223788 132.192997 
L 127.301669 133.069952 
L 128.850173 133.946907 
L 130.277226 134.823862 
L 132.554438 136.577772 
L 133.192057 137.454727 
L 133.723407 138.331682 
L 135.074553 139.208637 
L 136.683783 140.085592 
L 136.805234 140.962547 
L 137.230314 141.839502 
L 138.05011 142.716457 
L 138.26265 143.593412 
L 140.463955 144.470367 
L 140.539862 145.347322 
L 140.94976 146.224277 
L 141.192663 147.101232 
L 142.194636 147.978187 
L 142.98407 148.855142 
L 143.348423 149.732097 
L 143.788685 149.732097 
L 143.910136 150.609052 
L 143.940499 151.486007 
L 144.441485 152.362962 
L 144.623662 153.239917 
L 144.684388 154.116872 
L 145.215737 154.993827 
L 148.327927 155.870782 
L 149.299538 156.747737 
L 149.375445 157.624692 
L 149.618348 158.501647 
L 149.815706 159.378602 
L 150.529232 160.255557 
L 151.060582 161.132512 
L 151.667839 162.009467 
L 152.639449 162.886422 
L 153.049347 163.763377 
L 153.595878 164.640332 
L 154.537126 165.517287 
L 155.706095 166.394242 
L 155.842727 167.271197 
L 158.666471 168.148152 
L 159.562174 168.148152 
L 159.774714 169.025107 
L 161.475032 169.902062 
L 161.793842 170.779017 
L 162.234103 171.655972 
L 163.236076 172.532927 
L 164.040691 173.409882 
L 164.192505 175.163792 
L 164.313957 176.040747 
L 167.365421 177.794657 
L 169.809629 178.671612 
L 170.173983 179.548567 
L 171.358133 181.302478 
L 171.768031 182.179433 
L 172.557465 183.056388 
L 172.603009 183.933343 
L 173.073633 184.810298 
L 173.195084 185.687253 
L 173.316535 186.564208 
L 173.726434 187.441163 
L 173.817522 188.318118 
L 174.01488 189.195073 
L 174.956128 190.072028 
L 175.927739 190.948983 
L 177.76469 192.702893 
L 179.206924 193.579848 
L 179.920451 194.456803 
L 180.34553 195.333758 
L 180.740247 196.210713 
L 182.349477 197.087668 
L 182.546835 197.964623 
L 183.063003 198.841578 
L 183.412176 199.718533 
L 184.049795 200.595488 
L 184.323061 201.472443 
L 185.780477 202.349398 
L 186.068923 203.226353 
L 187.131622 204.103308 
L 188.923029 204.980263 
L 193.689993 205.857218 
L 193.993622 207.611128 
L 194.236524 209.365038 
L 195.101865 210.241993 
L 195.314405 211.118948 
L 195.997568 211.995903 
L 197.62198 212.872858 
L 198.654316 214.626768 
L 198.790949 216.380678 
L 199.701833 217.257633 
L 199.717015 218.134588 
L 201.629873 219.011543 
L 203.056926 219.888498 
L 204.043718 220.765453 
L 204.863514 221.642408 
L 206.260204 222.519363 
L 207.095182 223.396318 
L 208.279333 225.150228 
L 208.324877 226.027183 
L 210.070739 228.658048 
L 212.924845 229.535003 
L 213.213292 230.411958 
L 214.033089 232.165869 
L 214.169721 233.042824 
L 214.609982 233.042824 
L 215.262783 233.919779 
L 216.568385 234.796734 
L 217.236367 235.673689 
L 217.448907 236.550644 
L 217.539995 237.427599 
L 217.995438 238.304554 
L 220.439645 239.181509 
L 220.712911 240.058464 
L 221.077265 240.935419 
L 221.547889 241.812374 
L 222.838309 242.689329 
L 224.341269 243.566284 
L 225.145884 244.443239 
L 226.922109 245.320194 
L 226.998016 246.197149 
L 227.499003 247.951059 
L 227.863357 248.828014 
L 227.984808 249.704969 
L 228.698335 251.458879 
L 230.019118 252.335834 
L 231.552441 253.212789 
L 231.628348 254.089744 
L 232.463326 254.966699 
L 233.055401 255.843654 
L 233.313485 256.720609 
L 233.526025 257.597564 
L 234.497635 258.474519 
L 234.968259 259.351474 
L 235.438883 260.228429 
L 236.167591 261.105384 
L 237.23029 261.982339 
L 241.147095 262.859294 
L 241.435541 267.244069 
L 241.678444 268.121024 
L 242.665236 268.997979 
L 244.912085 269.874934 
L 246.217687 270.751889 
L 248.950342 271.628844 
L 249.36024 272.505799 
L 249.46651 273.382754 
L 250.347032 274.259709 
L 253.86912 275.136664 
L 255.508713 276.890574 
L 259.395155 277.767529 
L 260.078318 278.644484 
L 262.188535 279.521439 
L 262.643977 280.398394 
L 264.572017 281.275349 
L 264.875645 282.152304 
L 264.936371 283.02926 
L 266.454512 284.78317 
L 267.638663 285.660125 
L 278.766639 287.414035 
L 278.903272 288.29099 
L 282.865621 289.167945 
L 288.22466 290.0449 
L 289.07482 290.921855 
L 293.037169 291.79881 
L 293.447067 292.675765 
L 293.5837 293.55272 
L 299.109735 294.429675 
L 299.48927 295.30663 
L 307.808685 296.183585 
L 310.54134 297.06054 
L 313.592804 297.937495 
L 315.232397 298.81445 
L 317.873963 299.691405 
L 319.953816 300.56836 
L 323.157095 301.445315 
L 332.372213 302.32227 
L 338.004518 303.199225 
L 352.168778 304.07618 
L 386.979761 304.953135 
L 388.664898 305.83009 
L 398.487273 306.707045 
L 398.487273 306.707045 
L 398.487273 306.707045 
L 388.664898 305.83009 
L 386.979761 304.953135 
L 352.168778 304.07618 
L 338.004518 303.199225 
L 332.372213 302.32227 
L 323.157095 301.445315 
L 319.953816 300.56836 
L 317.873963 299.691405 
L 315.232397 298.81445 
L 313.592804 297.937495 
L 310.54134 297.06054 
L 307.808685 296.183585 
L 299.48927 295.30663 
L 299.109735 294.429675 
L 293.5837 293.55272 
L 293.447067 292.675765 
L 293.037169 291.79881 
L 289.07482 290.921855 
L 288.22466 290.0449 
L 282.865621 289.167945 
L 278.903272 288.29099 
L 278.766639 287.414035 
L 267.638663 285.660125 
L 266.454512 284.78317 
L 264.936371 283.02926 
L 264.875645 282.152304 
L 264.572017 281.275349 
L 262.643977 280.398394 
L 262.188535 279.521439 
L 260.078318 278.644484 
L 259.395155 277.767529 
L 255.508713 276.890574 
L 253.86912 275.136664 
L 250.347032 274.259709 
L 249.46651 273.382754 
L 249.36024 272.505799 
L 248.950342 271.628844 
L 246.217687 270.751889 
L 244.912085 269.874934 
L 242.665236 268.997979 
L 241.678444 268.121024 
L 241.435541 267.244069 
L 241.147095 262.859294 
L 237.23029 261.982339 
L 236.167591 261.105384 
L 235.438883 260.228429 
L 234.968259 259.351474 
L 234.497635 258.474519 
L 233.526025 257.597564 
L 233.313485 256.720609 
L 233.055401 255.843654 
L 232.463326 254.966699 
L 231.628348 254.089744 
L 231.552441 253.212789 
L 230.019118 252.335834 
L 228.698335 251.458879 
L 227.984808 249.704969 
L 227.863357 248.828014 
L 227.499003 247.951059 
L 226.998016 246.197149 
L 226.922109 245.320194 
L 225.145884 244.443239 
L 224.341269 243.566284 
L 222.838309 242.689329 
L 221.547889 241.812374 
L 221.077265 240.935419 
L 220.712911 240.058464 
L 220.439645 239.181509 
L 217.995438 238.304554 
L 217.539995 237.427599 
L 217.448907 236.550644 
L 217.236367 235.673689 
L 216.568385 234.796734 
L 215.262783 233.919779 
L 214.609982 233.042824 
L 214.169721 232.165869 
L 214.033089 231.288913 
L 213.213292 229.535003 
L 212.924845 228.658048 
L 210.070739 227.781093 
L 208.324877 225.150228 
L 208.279333 224.273273 
L 207.095182 222.519363 
L 206.260204 221.642408 
L 204.863514 220.765453 
L 204.043718 219.888498 
L 203.056926 219.011543 
L 201.629873 218.134588 
L 199.717015 217.257633 
L 199.701833 216.380678 
L 198.790949 215.503723 
L 198.654316 213.749813 
L 197.62198 211.995903 
L 195.997568 211.118948 
L 195.314405 210.241993 
L 195.101865 209.365038 
L 194.236524 208.488083 
L 193.993622 206.734173 
L 193.689993 204.980263 
L 188.923029 204.103308 
L 187.131622 203.226353 
L 186.068923 202.349398 
L 185.780477 201.472443 
L 184.323061 200.595488 
L 184.049795 199.718533 
L 183.412176 198.841578 
L 183.063003 197.964623 
L 182.546835 197.087668 
L 182.349477 196.210713 
L 180.740247 195.333758 
L 180.34553 194.456803 
L 179.920451 193.579848 
L 179.206924 192.702893 
L 177.76469 191.825938 
L 175.927739 190.072028 
L 174.956128 189.195073 
L 174.01488 188.318118 
L 173.817522 187.441163 
L 173.726434 186.564208 
L 173.316535 185.687253 
L 173.195084 184.810298 
L 173.073633 183.933343 
L 172.603009 183.056388 
L 172.557465 182.179433 
L 171.768031 181.302478 
L 171.358133 180.425522 
L 170.173983 178.671612 
L 169.809629 177.794657 
L 167.365421 176.917702 
L 164.313957 175.163792 
L 164.192505 174.286837 
L 164.040691 172.532927 
L 163.236076 171.655972 
L 162.234103 170.779017 
L 161.793842 169.902062 
L 161.475032 169.025107 
L 159.774714 168.148152 
L 159.562174 167.271197 
L 158.666471 166.394242 
L 155.842727 165.517287 
L 155.706095 164.640332 
L 154.537126 163.763377 
L 153.595878 162.886422 
L 153.049347 162.009467 
L 152.639449 161.132512 
L 151.667839 160.255557 
L 151.060582 159.378602 
L 150.529232 158.501647 
L 149.815706 157.624692 
L 149.618348 156.747737 
L 149.375445 155.870782 
L 149.299538 154.993827 
L 148.327927 154.116872 
L 145.215737 153.239917 
L 144.684388 152.362962 
L 144.623662 151.486007 
L 144.441485 150.609052 
L 143.940499 149.732097 
L 143.910136 148.855142 
L 143.788685 147.978187 
L 143.348423 147.101232 
L 142.98407 146.224277 
L 142.194636 145.347322 
L 141.192663 144.470367 
L 140.94976 143.593412 
L 140.539862 142.716457 
L 140.463955 141.839502 
L 138.26265 140.962547 
L 138.05011 140.085592 
L 137.230314 139.208637 
L 136.805234 138.331682 
L 136.683783 137.454727 
L 135.074553 136.577772 
L 133.723407 135.700817 
L 133.192057 134.823862 
L 132.554438 133.946907 
L 130.277226 132.192997 
L 128.850173 131.316042 
L 127.301669 130.439087 
L 126.223788 129.562131 
L 125.646894 127.808221 
L 124.948549 126.931266 
L 124.660102 126.054311 
L 124.599377 125.177356 
L 122.777607 124.300401 
L 122.261439 123.423446 
L 120.196767 122.546491 
L 119.80205 121.669536 
L 118.754532 120.792581 
L 117.843647 119.915626 
L 116.978307 119.038671 
L 116.128148 118.161716 
L 114.792183 117.284761 
L 112.029166 116.407806 
L 111.892533 115.530851 
L 111.725537 114.653896 
L 111.54336 113.776941 
L 109.873405 112.899986 
L 109.554595 112.023031 
L 108.85625 110.269121 
L 107.338109 109.392166 
L 107.201476 108.515211 
L 106.654945 107.638256 
L 106.108414 106.761301 
L 105.63779 105.884346 
L 105.045715 105.007391 
L 105.000171 104.130436 
L 103.679388 103.253481 
L 103.406122 102.376526 
L 100.36984 101.499571 
L 99.595587 100.622616 
L 99.550043 99.745661 
L 99.534862 97.991751 
L 97.530915 97.114796 
L 96.954021 96.237841 
L 96.316402 95.360886 
L 95.830597 94.483931 
L 93.598929 93.606976 
L 93.492659 92.730021 
L 92.74877 91.853066 
L 92.445141 90.976111 
L 91.579801 90.099156 
L 91.291354 89.222201 
L 90.851093 88.345246 
L 90.668916 87.468291 
L 90.031296 86.591336 
L 89.044504 85.714381 
L 87.435275 84.837426 
L 86.615478 83.960471 
L 86.554752 83.083516 
L 86.129673 82.206561 
L 86.008222 80.452651 
L 85.750138 79.575696 
L 85.416146 77.821785 
L 84.763346 76.94483 
L 84.019456 76.067875 
L 83.670284 74.313965 
L 83.290748 73.43701 
L 82.152142 70.806145 
L 81.286802 69.052235 
L 81.210895 68.17528 
L 79.616846 65.544415 
L 79.571302 64.66746 
L 79.146222 63.790505 
L 78.326426 62.91355 
L 78.022798 62.036595 
L 76.793103 61.15964 
L 76.717196 60.282685 
L 76.702015 59.40573 
L 76.626108 58.528775 
L 76.094758 57.65182 
L 75.138329 56.774865 
L 74.242625 55.89791 
L 73.954179 55.020955 
L 73.832727 54.144 
z
" clip-path="url(#pb8e4e2342c)" style="fill: #ff0000"/>
   </g>
   <g id="matplotlib.axis_1">
    <g id="xtick_1">
     <g id="line2d_1">
      <defs>
       <path id="m7a71bbb340" d="M 0 0 
L 0 3.5 
" style="stroke: #000000; stroke-width: 0.8"/>
      </defs>
      <g>
       <use xlink:href="#m7a71bbb340" x="129.806602" y="307.584" style="stroke: #000000; stroke-width: 0.8"/>
      </g>
     </g>
     <g id="text_1">
      <!-- 50 -->
      <g transform="translate(123.444102 322.182437)scale(0.1 -0.1)">
       <defs>
        <path id="DejaVuSans-35" d="M 691 4666 
L 3169 4666 
L 3169 4134 
L 1269 4134 
L 1269 2991 
Q 1406 3038 1543 3061 
Q 1681 3084 1819 3084 
Q 2600 3084 3056 2656 
Q 3513 2228 3513 1497 
Q 3513 744 3044 326 
Q 2575 -91 1722 -91 
Q 1428 -91 1123 -41 
Q 819 9 494 109 
L 494 744 
Q 775 591 1075 516 
Q 1375 441 1709 441 
Q 2250 441 2565 725 
Q 2881 1009 2881 1497 
Q 2881 1984 2565 2268 
Q 2250 2553 1709 2553 
Q 1456 2553 1204 2497 
Q 953 2441 691 2322 
L 691 4666 
z
" transform="scale(0.015625)"/>
        <path id="DejaVuSans-30" d="M 2034 4250 
Q 1547 4250 1301 3770 
Q 1056 3291 1056 2328 
Q 1056 1369 1301 889 
Q 1547 409 2034 409 
Q 2525 409 2770 889 
Q 3016 1369 3016 2328 
Q 3016 3291 2770 3770 
Q 2525 4250 2034 4250 
z
M 2034 4750 
Q 2819 4750 3233 4129 
Q 3647 3509 3647 2328 
Q 3647 1150 3233 529 
Q 2819 -91 2034 -91 
Q 1250 -91 836 529 
Q 422 1150 422 2328 
Q 422 3509 836 4129 
Q 1250 4750 2034 4750 
z
" transform="scale(0.015625)"/>
       </defs>
       <use xlink:href="#DejaVuSans-35"/>
       <use xlink:href="#DejaVuSans-30" x="63.623047"/>
      </g>
     </g>
    </g>
    <g id="xtick_2">
     <g id="line2d_2">
      <g>
       <use xlink:href="#m7a71bbb340" x="205.713674" y="307.584" style="stroke: #000000; stroke-width: 0.8"/>
      </g>
     </g>
     <g id="text_2">
      <!-- 100 -->
      <g transform="translate(196.169924 322.182437)scale(0.1 -0.1)">
       <defs>
        <path id="DejaVuSans-31" d="M 794 531 
L 1825 531 
L 1825 4091 
L 703 3866 
L 703 4441 
L 1819 4666 
L 2450 4666 
L 2450 531 
L 3481 531 
L 3481 0 
L 794 0 
L 794 531 
z
" transform="scale(0.015625)"/>
       </defs>
       <use xlink:href="#DejaVuSans-31"/>
       <use xlink:href="#DejaVuSans-30" x="63.623047"/>
       <use xlink:href="#DejaVuSans-30" x="127.246094"/>
      </g>
     </g>
    </g>
    <g id="xtick_3">
     <g id="line2d_3">
      <g>
       <use xlink:href="#m7a71bbb340" x="281.620745" y="307.584" style="stroke: #000000; stroke-width: 0.8"/>
      </g>
     </g>
     <g id="text_3">
      <!-- 150 -->
      <g transform="translate(272.076995 322.182437)scale(0.1 -0.1)">
       <use xlink:href="#DejaVuSans-31"/>
       <use xlink:href="#DejaVuSans-35" x="63.623047"/>
       <use xlink:href="#DejaVuSans-30" x="127.246094"/>
      </g>
     </g>
    </g>
    <g id="xtick_4">
     <g id="line2d_4">
      <g>
       <use xlink:href="#m7a71bbb340" x="357.527817" y="307.584" style="stroke: #000000; stroke-width: 0.8"/>
      </g>
     </g>
     <g id="text_4">
      <!-- 200 -->
      <g transform="translate(347.984067 322.182437)scale(0.1 -0.1)">
       <defs>
        <path id="DejaVuSans-32" d="M 1228 531 
L 3431 531 
L 3431 0 
L 469 0 
L 469 531 
Q 828 903 1448 1529 
Q 2069 2156 2228 2338 
Q 2531 2678 2651 2914 
Q 2772 3150 2772 3378 
Q 2772 3750 2511 3984 
Q 2250 4219 1831 4219 
Q 1534 4219 1204 4116 
Q 875 4013 500 3803 
L 500 4441 
Q 881 4594 1212 4672 
Q 1544 4750 1819 4750 
Q 2544 4750 2975 4387 
Q 3406 4025 3406 3419 
Q 3406 3131 3298 2873 
Q 3191 2616 2906 2266 
Q 2828 2175 2409 1742 
Q 1991 1309 1228 531 
z
" transform="scale(0.015625)"/>
       </defs>
       <use xlink:href="#DejaVuSans-32"/>
       <use xlink:href="#DejaVuSans-30" x="63.623047"/>
       <use xlink:href="#DejaVuSans-30" x="127.246094"/>
      </g>
     </g>
    </g>
    <g id="text_5">
     <!-- Score -->
     <g transform="translate(222.157656 335.860562)scale(0.1 -0.1)">
      <defs>
       <path id="DejaVuSans-53" d="M 3425 4513 
L 3425 3897 
Q 3066 4069 2747 4153 
Q 2428 4238 2131 4238 
Q 1616 4238 1336 4038 
Q 1056 3838 1056 3469 
Q 1056 3159 1242 3001 
Q 1428 2844 1947 2747 
L 2328 2669 
Q 3034 2534 3370 2195 
Q 3706 1856 3706 1288 
Q 3706 609 3251 259 
Q 2797 -91 1919 -91 
Q 1588 -91 1214 -16 
Q 841 59 441 206 
L 441 856 
Q 825 641 1194 531 
Q 1563 422 1919 422 
Q 2459 422 2753 634 
Q 3047 847 3047 1241 
Q 3047 1584 2836 1778 
Q 2625 1972 2144 2069 
L 1759 2144 
Q 1053 2284 737 2584 
Q 422 2884 422 3419 
Q 422 4038 858 4394 
Q 1294 4750 2059 4750 
Q 2388 4750 2728 4690 
Q 3069 4631 3425 4513 
z
" transform="scale(0.015625)"/>
       <path id="DejaVuSans-63" d="M 3122 3366 
L 3122 2828 
Q 2878 2963 2633 3030 
Q 2388 3097 2138 3097 
Q 1578 3097 1268 2742 
Q 959 2388 959 1747 
Q 959 1106 1268 751 
Q 1578 397 2138 397 
Q 2388 397 2633 464 
Q 2878 531 3122 666 
L 3122 134 
Q 2881 22 2623 -34 
Q 2366 -91 2075 -91 
Q 1284 -91 818 406 
Q 353 903 353 1747 
Q 353 2603 823 3093 
Q 1294 3584 2113 3584 
Q 2378 3584 2631 3529 
Q 2884 3475 3122 3366 
z
" transform="scale(0.015625)"/>
       <path id="DejaVuSans-6f" d="M 1959 3097 
Q 1497 3097 1228 2736 
Q 959 2375 959 1747 
Q 959 1119 1226 758 
Q 1494 397 1959 397 
Q 2419 397 2687 759 
Q 2956 1122 2956 1747 
Q 2956 2369 2687 2733 
Q 2419 3097 1959 3097 
z
M 1959 3584 
Q 2709 3584 3137 3096 
Q 3566 2609 3566 1747 
Q 3566 888 3137 398 
Q 2709 -91 1959 -91 
Q 1206 -91 779 398 
Q 353 888 353 1747 
Q 353 2609 779 3096 
Q 1206 3584 1959 3584 
z
" transform="scale(0.015625)"/>
       <path id="DejaVuSans-72" d="M 2631 2963 
Q 2534 3019 2420 3045 
Q 2306 3072 2169 3072 
Q 1681 3072 1420 2755 
Q 1159 2438 1159 1844 
L 1159 0 
L 581 0 
L 581 3500 
L 1159 3500 
L 1159 2956 
Q 1341 3275 1631 3429 
Q 1922 3584 2338 3584 
Q 2397 3584 2469 3576 
Q 2541 3569 2628 3553 
L 2631 2963 
z
" transform="scale(0.015625)"/>
       <path id="DejaVuSans-65" d="M 3597 1894 
L 3597 1613 
L 953 1613 
Q 991 1019 1311 708 
Q 1631 397 2203 397 
Q 2534 397 2845 478 
Q 3156 559 3463 722 
L 3463 178 
Q 3153 47 2828 -22 
Q 2503 -91 2169 -91 
Q 1331 -91 842 396 
Q 353 884 353 1716 
Q 353 2575 817 3079 
Q 1281 3584 2069 3584 
Q 2775 3584 3186 3129 
Q 3597 2675 3597 1894 
z
M 3022 2063 
Q 3016 2534 2758 2815 
Q 2500 3097 2075 3097 
Q 1594 3097 1305 2825 
Q 1016 2553 972 2059 
L 3022 2063 
z
" transform="scale(0.015625)"/>
      </defs>
      <use xlink:href="#DejaVuSans-53"/>
      <use xlink:href="#DejaVuSans-63" x="63.476562"/>
      <use xlink:href="#DejaVuSans-6f" x="118.457031"/>
      <use xlink:href="#DejaVuSans-72" x="179.638672"/>
      <use xlink:href="#DejaVuSans-65" x="218.501953"/>
     </g>
    </g>
   </g>
   <g id="matplotlib.axis_2">
    <g id="ytick_1">
     <g id="line2d_5">
      <defs>
       <path id="mc59db205b6" d="M 0 0 
L -3.5 0 
" style="stroke: #000000; stroke-width: 0.8"/>
      </defs>
      <g>
       <use xlink:href="#mc59db205b6" x="57.6" y="307.584" style="stroke: #000000; stroke-width: 0.8"/>
      </g>
     </g>
     <g id="text_6">
      <!-- 0 -->
      <g transform="translate(44.2375 311.383219)scale(0.1 -0.1)">
       <use xlink:href="#DejaVuSans-30"/>
      </g>
     </g>
    </g>
    <g id="ytick_2">
     <g id="line2d_6">
      <g>
       <use xlink:href="#mc59db205b6" x="57.6" y="263.736249" style="stroke: #000000; stroke-width: 0.8"/>
      </g>
     </g>
     <g id="text_7">
      <!-- 50 -->
      <g transform="translate(37.875 267.535468)scale(0.1 -0.1)">
       <use xlink:href="#DejaVuSans-35"/>
       <use xlink:href="#DejaVuSans-30" x="63.623047"/>
      </g>
     </g>
    </g>
    <g id="ytick_3">
     <g id="line2d_7">
      <g>
       <use xlink:href="#mc59db205b6" x="57.6" y="219.888498" style="stroke: #000000; stroke-width: 0.8"/>
      </g>
     </g>
     <g id="text_8">
      <!-- 100 -->
      <g transform="translate(31.5125 223.687717)scale(0.1 -0.1)">
       <use xlink:href="#DejaVuSans-31"/>
       <use xlink:href="#DejaVuSans-30" x="63.623047"/>
       <use xlink:href="#DejaVuSans-30" x="127.246094"/>
      </g>
     </g>
    </g>
    <g id="ytick_4">
     <g id="line2d_8">
      <g>
       <use xlink:href="#mc59db205b6" x="57.6" y="176.040747" style="stroke: #000000; stroke-width: 0.8"/>
      </g>
     </g>
     <g id="text_9">
      <!-- 150 -->
      <g transform="translate(31.5125 179.839966)scale(0.1 -0.1)">
       <use xlink:href="#DejaVuSans-31"/>
       <use xlink:href="#DejaVuSans-35" x="63.623047"/>
       <use xlink:href="#DejaVuSans-30" x="127.246094"/>
      </g>
     </g>
    </g>
    <g id="ytick_5">
     <g id="line2d_9">
      <g>
       <use xlink:href="#mc59db205b6" x="57.6" y="132.192997" style="stroke: #000000; stroke-width: 0.8"/>
      </g>
     </g>
     <g id="text_10">
      <!-- 200 -->
      <g transform="translate(31.5125 135.992215)scale(0.1 -0.1)">
       <use xlink:href="#DejaVuSans-32"/>
       <use xlink:href="#DejaVuSans-30" x="63.623047"/>
       <use xlink:href="#DejaVuSans-30" x="127.246094"/>
      </g>
     </g>
    </g>
    <g id="ytick_6">
     <g id="line2d_10">
      <g>
       <use xlink:href="#mc59db205b6" x="57.6" y="88.345246" style="stroke: #000000; stroke-width: 0.8"/>
      </g>
     </g>
     <g id="text_11">
      <!-- 250 -->
      <g transform="translate(31.5125 92.144464)scale(0.1 -0.1)">
       <use xlink:href="#DejaVuSans-32"/>
       <use xlink:href="#DejaVuSans-35" x="63.623047"/>
       <use xlink:href="#DejaVuSans-30" x="127.246094"/>
      </g>
     </g>
    </g>
    <g id="ytick_7">
     <g id="line2d_11">
      <g>
       <use xlink:href="#mc59db205b6" x="57.6" y="44.497495" style="stroke: #000000; stroke-width: 0.8"/>
      </g>
     </g>
     <g id="text_12">
      <!-- 300 -->
      <g transform="translate(31.5125 48.296714)scale(0.1 -0.1)">
       <defs>
        <path id="DejaVuSans-33" d="M 2597 2516 
Q 3050 2419 3304 2112 
Q 3559 1806 3559 1356 
Q 3559 666 3084 287 
Q 2609 -91 1734 -91 
Q 1441 -91 1130 -33 
Q 819 25 488 141 
L 488 750 
Q 750 597 1062 519 
Q 1375 441 1716 441 
Q 2309 441 2620 675 
Q 2931 909 2931 1356 
Q 2931 1769 2642 2001 
Q 2353 2234 1838 2234 
L 1294 2234 
L 1294 2753 
L 1863 2753 
Q 2328 2753 2575 2939 
Q 2822 3125 2822 3475 
Q 2822 3834 2567 4026 
Q 2313 4219 1838 4219 
Q 1578 4219 1281 4162 
Q 984 4106 628 3988 
L 628 4550 
Q 988 4650 1302 4700 
Q 1616 4750 1894 4750 
Q 2613 4750 3031 4423 
Q 3450 4097 3450 3541 
Q 3450 3153 3228 2886 
Q 3006 2619 2597 2516 
z
" transform="scale(0.015625)"/>
       </defs>
       <use xlink:href="#DejaVuSans-33"/>
       <use xlink:href="#DejaVuSans-30" x="63.623047"/>
       <use xlink:href="#DejaVuSans-30" x="127.246094"/>
      </g>
     </g>
    </g>
    <g id="text_13">
     <!-- Number of crosslinks -->
     <g transform="translate(25.432812 227.019406)rotate(-90)scale(0.1 -0.1)">
      <defs>
       <path id="DejaVuSans-4e" d="M 628 4666 
L 1478 4666 
L 3547 763 
L 3547 4666 
L 4159 4666 
L 4159 0 
L 3309 0 
L 1241 3903 
L 1241 0 
L 628 0 
L 628 4666 
z
" transform="scale(0.015625)"/>
       <path id="DejaVuSans-75" d="M 544 1381 
L 544 3500 
L 1119 3500 
L 1119 1403 
Q 1119 906 1312 657 
Q 1506 409 1894 409 
Q 2359 409 2629 706 
Q 2900 1003 2900 1516 
L 2900 3500 
L 3475 3500 
L 3475 0 
L 2900 0 
L 2900 538 
Q 2691 219 2414 64 
Q 2138 -91 1772 -91 
Q 1169 -91 856 284 
Q 544 659 544 1381 
z
M 1991 3584 
L 1991 3584 
z
" transform="scale(0.015625)"/>
       <path id="DejaVuSans-6d" d="M 3328 2828 
Q 3544 3216 3844 3400 
Q 4144 3584 4550 3584 
Q 5097 3584 5394 3201 
Q 5691 2819 5691 2113 
L 5691 0 
L 5113 0 
L 5113 2094 
Q 5113 2597 4934 2840 
Q 4756 3084 4391 3084 
Q 3944 3084 3684 2787 
Q 3425 2491 3425 1978 
L 3425 0 
L 2847 0 
L 2847 2094 
Q 2847 2600 2669 2842 
Q 2491 3084 2119 3084 
Q 1678 3084 1418 2786 
Q 1159 2488 1159 1978 
L 1159 0 
L 581 0 
L 581 3500 
L 1159 3500 
L 1159 2956 
Q 1356 3278 1631 3431 
Q 1906 3584 2284 3584 
Q 2666 3584 2933 3390 
Q 3200 3197 3328 2828 
z
" transform="scale(0.015625)"/>
       <path id="DejaVuSans-62" d="M 3116 1747 
Q 3116 2381 2855 2742 
Q 2594 3103 2138 3103 
Q 1681 3103 1420 2742 
Q 1159 2381 1159 1747 
Q 1159 1113 1420 752 
Q 1681 391 2138 391 
Q 2594 391 2855 752 
Q 3116 1113 3116 1747 
z
M 1159 2969 
Q 1341 3281 1617 3432 
Q 1894 3584 2278 3584 
Q 2916 3584 3314 3078 
Q 3713 2572 3713 1747 
Q 3713 922 3314 415 
Q 2916 -91 2278 -91 
Q 1894 -91 1617 61 
Q 1341 213 1159 525 
L 1159 0 
L 581 0 
L 581 4863 
L 1159 4863 
L 1159 2969 
z
" transform="scale(0.015625)"/>
       <path id="DejaVuSans-20" transform="scale(0.015625)"/>
       <path id="DejaVuSans-66" d="M 2375 4863 
L 2375 4384 
L 1825 4384 
Q 1516 4384 1395 4259 
Q 1275 4134 1275 3809 
L 1275 3500 
L 2222 3500 
L 2222 3053 
L 1275 3053 
L 1275 0 
L 697 0 
L 697 3053 
L 147 3053 
L 147 3500 
L 697 3500 
L 697 3744 
Q 697 4328 969 4595 
Q 1241 4863 1831 4863 
L 2375 4863 
z
" transform="scale(0.015625)"/>
       <path id="DejaVuSans-73" d="M 2834 3397 
L 2834 2853 
Q 2591 2978 2328 3040 
Q 2066 3103 1784 3103 
Q 1356 3103 1142 2972 
Q 928 2841 928 2578 
Q 928 2378 1081 2264 
Q 1234 2150 1697 2047 
L 1894 2003 
Q 2506 1872 2764 1633 
Q 3022 1394 3022 966 
Q 3022 478 2636 193 
Q 2250 -91 1575 -91 
Q 1294 -91 989 -36 
Q 684 19 347 128 
L 347 722 
Q 666 556 975 473 
Q 1284 391 1588 391 
Q 1994 391 2212 530 
Q 2431 669 2431 922 
Q 2431 1156 2273 1281 
Q 2116 1406 1581 1522 
L 1381 1569 
Q 847 1681 609 1914 
Q 372 2147 372 2553 
Q 372 3047 722 3315 
Q 1072 3584 1716 3584 
Q 2034 3584 2315 3537 
Q 2597 3491 2834 3397 
z
" transform="scale(0.015625)"/>
       <path id="DejaVuSans-6c" d="M 603 4863 
L 1178 4863 
L 1178 0 
L 603 0 
L 603 4863 
z
" transform="scale(0.015625)"/>
       <path id="DejaVuSans-69" d="M 603 3500 
L 1178 3500 
L 1178 0 
L 603 0 
L 603 3500 
z
M 603 4863 
L 1178 4863 
L 1178 4134 
L 603 4134 
L 603 4863 
z
" transform="scale(0.015625)"/>
       <path id="DejaVuSans-6e" d="M 3513 2113 
L 3513 0 
L 2938 0 
L 2938 2094 
Q 2938 2591 2744 2837 
Q 2550 3084 2163 3084 
Q 1697 3084 1428 2787 
Q 1159 2491 1159 1978 
L 1159 0 
L 581 0 
L 581 3500 
L 1159 3500 
L 1159 2956 
Q 1366 3272 1645 3428 
Q 1925 3584 2291 3584 
Q 2894 3584 3203 3211 
Q 3513 2838 3513 2113 
z
" transform="scale(0.015625)"/>
       <path id="DejaVuSans-6b" d="M 581 4863 
L 1159 4863 
L 1159 1991 
L 2875 3500 
L 3609 3500 
L 1753 1863 
L 3688 0 
L 2938 0 
L 1159 1709 
L 1159 0 
L 581 0 
L 581 4863 
z
" transform="scale(0.015625)"/>
      </defs>
      <use xlink:href="#DejaVuSans-4e"/>
      <use xlink:href="#DejaVuSans-75" x="74.804688"/>
      <use xlink:href="#DejaVuSans-6d" x="138.183594"/>
      <use xlink:href="#DejaVuSans-62" x="235.595703"/>
      <use xlink:href="#DejaVuSans-65" x="299.072266"/>
      <use xlink:href="#DejaVuSans-72" x="360.595703"/>
      <use xlink:href="#DejaVuSans-20" x="401.708984"/>
      <use xlink:href="#DejaVuSans-6f" x="433.496094"/>
      <use xlink:href="#DejaVuSans-66" x="494.677734"/>
      <use xlink:href="#DejaVuSans-20" x="529.882812"/>
      <use xlink:href="#DejaVuSans-63" x="561.669922"/>
      <use xlink:href="#DejaVuSans-72" x="616.650391"/>
      <use xlink:href="#DejaVuSans-6f" x="655.513672"/>
      <use xlink:href="#DejaVuSans-73" x="716.695312"/>
      <use xlink:href="#DejaVuSans-73" x="768.794922"/>
      <use xlink:href="#DejaVuSans-6c" x="820.894531"/>
      <use xlink:href="#DejaVuSans-69" x="848.677734"/>
      <use xlink:href="#DejaVuSans-6e" x="876.460938"/>
      <use xlink:href="#DejaVuSans-6b" x="939.839844"/>
      <use xlink:href="#DejaVuSans-73" x="997.75"/>
     </g>
    </g>
   </g>
   <g id="patch_3">
    <path d="M 57.6 307.584 
L 57.6 41.472 
" style="fill: none; stroke: #000000; stroke-width: 0.8; stroke-linejoin: miter; stroke-linecap: square"/>
   </g>
   <g id="patch_4">
    <path d="M 414.72 307.584 
L 414.72 41.472 
" style="fill: none; stroke: #000000; stroke-width: 0.8; stroke-linejoin: miter; stroke-linecap: square"/>
   </g>
   <g id="patch_5">
    <path d="M 57.6 307.584 
L 414.72 307.584 
" style="fill: none; stroke: #000000; stroke-width: 0.8; stroke-linejoin: miter; stroke-linecap: square"/>
   </g>
   <g id="patch_6">
    <path d="M 57.6 41.472 
L 414.72 41.472 
" style="fill: none; stroke: #000000; stroke-width: 0.8; stroke-linejoin: miter; stroke-linecap: square"/>
   </g>
   <g id="legend_1">
    <g id="patch_7">
     <path d="M 278.598125 93.506375 
L 407.72 93.506375 
Q 409.72 93.506375 409.72 91.506375 
L 409.72 48.472 
Q 409.72 46.472 407.72 46.472 
L 278.598125 46.472 
Q 276.598125 46.472 276.598125 48.472 
L 276.598125 91.506375 
Q 276.598125 93.506375 278.598125 93.506375 
z
" style="fill: #ffffff; opacity: 0.8; stroke: #cccccc; stroke-linejoin: miter"/>
    </g>
    <g id="patch_8">
     <path d="M 280.598125 58.070438 
L 300.598125 58.070438 
L 300.598125 51.070438 
L 280.598125 51.070438 
z
" style="fill: #008000"/>
    </g>
    <g id="text_14">
     <!-- correct -->
     <g transform="translate(308.598125 58.070438)scale(0.1 -0.1)">
      <defs>
       <path id="DejaVuSans-74" d="M 1172 4494 
L 1172 3500 
L 2356 3500 
L 2356 3053 
L 1172 3053 
L 1172 1153 
Q 1172 725 1289 603 
Q 1406 481 1766 481 
L 2356 481 
L 2356 0 
L 1766 0 
Q 1100 0 847 248 
Q 594 497 594 1153 
L 594 3053 
L 172 3053 
L 172 3500 
L 594 3500 
L 594 4494 
L 1172 4494 
z
" transform="scale(0.015625)"/>
      </defs>
      <use xlink:href="#DejaVuSans-63"/>
      <use xlink:href="#DejaVuSans-6f" x="54.980469"/>
      <use xlink:href="#DejaVuSans-72" x="116.162109"/>
      <use xlink:href="#DejaVuSans-72" x="155.525391"/>
      <use xlink:href="#DejaVuSans-65" x="194.388672"/>
      <use xlink:href="#DejaVuSans-63" x="255.912109"/>
      <use xlink:href="#DejaVuSans-74" x="310.892578"/>
     </g>
    </g>
    <g id="patch_9">
     <path d="M 280.598125 72.748563 
L 300.598125 72.748563 
L 300.598125 65.748563 
L 280.598125 65.748563 
z
" style="fill: #7cfc00"/>
    </g>
    <g id="text_15">
     <!-- correct homeotypic -->
     <g transform="translate(308.598125 72.748563)scale(0.1 -0.1)">
      <defs>
       <path id="DejaVuSans-68" d="M 3513 2113 
L 3513 0 
L 2938 0 
L 2938 2094 
Q 2938 2591 2744 2837 
Q 2550 3084 2163 3084 
Q 1697 3084 1428 2787 
Q 1159 2491 1159 1978 
L 1159 0 
L 581 0 
L 581 4863 
L 1159 4863 
L 1159 2956 
Q 1366 3272 1645 3428 
Q 1925 3584 2291 3584 
Q 2894 3584 3203 3211 
Q 3513 2838 3513 2113 
z
" transform="scale(0.015625)"/>
       <path id="DejaVuSans-79" d="M 2059 -325 
Q 1816 -950 1584 -1140 
Q 1353 -1331 966 -1331 
L 506 -1331 
L 506 -850 
L 844 -850 
Q 1081 -850 1212 -737 
Q 1344 -625 1503 -206 
L 1606 56 
L 191 3500 
L 800 3500 
L 1894 763 
L 2988 3500 
L 3597 3500 
L 2059 -325 
z
" transform="scale(0.015625)"/>
       <path id="DejaVuSans-70" d="M 1159 525 
L 1159 -1331 
L 581 -1331 
L 581 3500 
L 1159 3500 
L 1159 2969 
Q 1341 3281 1617 3432 
Q 1894 3584 2278 3584 
Q 2916 3584 3314 3078 
Q 3713 2572 3713 1747 
Q 3713 922 3314 415 
Q 2916 -91 2278 -91 
Q 1894 -91 1617 61 
Q 1341 213 1159 525 
z
M 3116 1747 
Q 3116 2381 2855 2742 
Q 2594 3103 2138 3103 
Q 1681 3103 1420 2742 
Q 1159 2381 1159 1747 
Q 1159 1113 1420 752 
Q 1681 391 2138 391 
Q 2594 391 2855 752 
Q 3116 1113 3116 1747 
z
" transform="scale(0.015625)"/>
      </defs>
      <use xlink:href="#DejaVuSans-63"/>
      <use xlink:href="#DejaVuSans-6f" x="54.980469"/>
      <use xlink:href="#DejaVuSans-72" x="116.162109"/>
      <use xlink:href="#DejaVuSans-72" x="155.525391"/>
      <use xlink:href="#DejaVuSans-65" x="194.388672"/>
      <use xlink:href="#DejaVuSans-63" x="255.912109"/>
      <use xlink:href="#DejaVuSans-74" x="310.892578"/>
      <use xlink:href="#DejaVuSans-20" x="350.101562"/>
      <use xlink:href="#DejaVuSans-68" x="381.888672"/>
      <use xlink:href="#DejaVuSans-6f" x="445.267578"/>
      <use xlink:href="#DejaVuSans-6d" x="506.449219"/>
      <use xlink:href="#DejaVuSans-65" x="603.861328"/>
      <use xlink:href="#DejaVuSans-6f" x="665.384766"/>
      <use xlink:href="#DejaVuSans-74" x="726.566406"/>
      <use xlink:href="#DejaVuSans-79" x="765.775391"/>
      <use xlink:href="#DejaVuSans-70" x="824.955078"/>
      <use xlink:href="#DejaVuSans-69" x="888.431641"/>
      <use xlink:href="#DejaVuSans-63" x="916.214844"/>
     </g>
    </g>
    <g id="patch_10">
     <path d="M 280.598125 87.426688 
L 300.598125 87.426688 
L 300.598125 80.426688 
L 280.598125 80.426688 
z
" style="fill: #ff0000"/>
    </g>
    <g id="text_16">
     <!-- false -->
     <g transform="translate(308.598125 87.426688)scale(0.1 -0.1)">
      <defs>
       <path id="DejaVuSans-61" d="M 2194 1759 
Q 1497 1759 1228 1600 
Q 959 1441 959 1056 
Q 959 750 1161 570 
Q 1363 391 1709 391 
Q 2188 391 2477 730 
Q 2766 1069 2766 1631 
L 2766 1759 
L 2194 1759 
z
M 3341 1997 
L 3341 0 
L 2766 0 
L 2766 531 
Q 2569 213 2275 61 
Q 1981 -91 1556 -91 
Q 1019 -91 701 211 
Q 384 513 384 1019 
Q 384 1609 779 1909 
Q 1175 2209 1959 2209 
L 2766 2209 
L 2766 2266 
Q 2766 2663 2505 2880 
Q 2244 3097 1772 3097 
Q 1472 3097 1187 3025 
Q 903 2953 641 2809 
L 641 3341 
Q 956 3463 1253 3523 
Q 1550 3584 1831 3584 
Q 2591 3584 2966 3190 
Q 3341 2797 3341 1997 
z
" transform="scale(0.015625)"/>
      </defs>
      <use xlink:href="#DejaVuSans-66"/>
      <use xlink:href="#DejaVuSans-61" x="35.205078"/>
      <use xlink:href="#DejaVuSans-6c" x="96.484375"/>
      <use xlink:href="#DejaVuSans-73" x="124.267578"/>
      <use xlink:href="#DejaVuSans-65" x="176.367188"/>
     </g>
    </g>
   </g>
  </g>
 </g>
 <defs>
  <clipPath id="pb8e4e2342c">
   <rect x="57.6" y="41.472" width="357.12" height="266.112"/>
  </clipPath>
 </defs>
</svg>
