<?xml version="1.0" encoding="utf-8" standalone="no"?>
<!DOCTYPE svg PUBLIC "-//W3C//DTD SVG 1.1//EN"
  "http://www.w3.org/Graphics/SVG/1.1/DTD/svg11.dtd">
<svg xmlns:xlink="http://www.w3.org/1999/xlink" width="460.8pt" height="345.6pt" viewBox="0 0 460.8 345.6" xmlns="http://www.w3.org/2000/svg" version="1.1">
 <metadata>
  <rdf:RDF xmlns:dc="http://purl.org/dc/elements/1.1/" xmlns:cc="http://creativecommons.org/ns#" xmlns:rdf="http://www.w3.org/1999/02/22-rdf-syntax-ns#">
   <cc:Work>
    <dc:type rdf:resource="http://purl.org/dc/dcmitype/StillImage"/>
    <dc:date>2022-08-11T13:05:20.157684</dc:date>
    <dc:format>image/svg+xml</dc:format>
    <dc:creator>
     <cc:Agent>
      <dc:title>Matplotlib v3.5.1, https://matplotlib.org/</dc:title>
     </cc:Agent>
    </dc:creator>
   </cc:Work>
  </rdf:RDF>
 </metadata>
 <defs>
  <style type="text/css">*{stroke-linejoin: round; stroke-linecap: butt}</style>
 </defs>
 <g id="figure_1">
  <g id="patch_1">
   <path d="M 0 345.6 
L 460.8 345.6 
L 460.8 0 
L 0 0 
z
" style="fill: #ffffff"/>
  </g>
  <g id="axes_1">
   <g id="patch_2">
    <path d="M 57.6 307.584 
L 414.72 307.584 
L 414.72 41.472 
L 57.6 41.472 
z
" style="fill: #ffffff"/>
   </g>
   <g id="PolyCollection_1">
    <path d="M 73.832727 140.987077 
L 73.832727 307.584 
L 73.880372 307.584 
L 74.042366 307.584 
L 74.156715 307.584 
L 74.318709 307.584 
L 74.337767 307.584 
L 74.347296 307.584 
L 74.490231 307.584 
L 74.509289 307.584 
L 74.976213 307.584 
L 75.014329 307.584 
L 75.023858 307.584 
L 75.223968 307.584 
L 75.586071 307.584 
L 75.776652 307.584 
L 76.138756 307.584 
L 76.214988 307.584 
L 76.234046 307.584 
L 76.310279 307.584 
L 76.462744 307.584 
L 76.691441 307.584 
L 76.834376 307.584 
L 77.120248 307.584 
L 77.206009 307.584 
L 77.749165 307.584 
L 77.777752 307.584 
L 77.815868 307.584 
L 78.187501 307.584 
L 78.406669 307.584 
L 78.797359 307.584 
L 79.054644 307.584 
L 79.111818 307.584 
L 79.397689 307.584 
L 79.8932 307.584 
L 80.026606 307.584 
L 80.226716 307.584 
L 80.236245 307.584 
L 80.484 307.584 
L 80.78893 307.584 
L 80.807988 307.584 
L 80.912807 307.584 
L 81.332085 307.584 
L 81.722776 307.584 
L 81.999118 307.584 
L 82.227815 307.584 
L 82.599448 307.584 
L 82.913907 307.584 
L 83.599998 307.584 
L 85.820265 307.584 
L 86.144253 307.584 
L 86.830344 307.584 
L 87.478319 307.584 
L 87.754661 307.584 
L 88.507456 307.584 
L 89.212605 307.584 
L 89.488947 307.584 
L 89.517534 307.584 
L 89.831993 307.584 
L 91.080298 307.584 
L 91.480518 307.584 
L 91.65204 307.584 
L 92.309545 307.584 
L 92.709764 307.584 
L 93.157629 307.584 
L 93.500675 307.584 
L 94.84427 307.584 
L 96.24504 307.584 
L 98.379546 307.584 
L 99.561147 307.584 
L 99.93278 307.584 
L 100.180535 307.584 
L 100.571226 307.584 
L 102.591384 307.584 
L 103.039249 307.584 
L 103.248888 307.584 
L 103.687224 307.584 
L 104.154147 307.584 
L 104.640128 307.584 
L 105.907491 307.584 
L 106.479234 307.584 
L 106.71746 307.584 
L 109.566644 307.584 
L 110.414729 307.584 
L 110.681542 307.584 
L 111.196111 307.584 
L 111.853615 307.584 
L 112.492061 307.584 
L 113.19721 307.584 
L 113.702249 307.584 
L 115.398419 307.584 
L 115.970162 307.584 
L 116.560963 307.584 
L 116.827776 307.584 
L 117.78068 307.584 
L 118.342894 307.584 
L 118.752643 307.584 
L 120.248703 307.584 
L 120.27729 307.584 
L 121.325485 307.584 
L 122.421325 307.584 
L 122.535674 307.584 
L 123.078829 307.584 
L 123.183649 307.584 
L 123.297997 307.584 
L 124.746412 307.584 
L 125.051341 307.584 
L 126.118594 307.584 
L 126.537872 307.584 
L 127.223963 307.584 
L 127.633712 307.584 
L 128.281687 307.584 
L 128.815314 307.584 
L 129.634812 307.584 
L 130.416193 307.584 
L 130.625832 307.584 
L 131.359569 307.584 
L 132.026602 307.584 
L 132.779396 307.584 
L 132.950919 307.584 
L 133.008093 307.584 
L 133.151029 307.584 
L 133.455959 307.584 
L 134.113463 307.584 
L 134.14205 307.584 
L 134.904373 307.584 
L 135.028251 307.584 
L 135.647639 307.584 
L 136.762537 307.584 
L 137.172286 307.584 
L 137.267576 307.584 
L 137.458157 307.584 
L 137.867906 307.584 
L 138.334829 307.584 
L 138.411062 307.584 
L 139.03045 307.584 
L 140.374045 307.584 
L 140.888613 307.584 
L 141.012491 307.584 
L 141.107781 307.584 
L 142.098802 307.584 
L 142.108331 307.584 
L 143.185113 307.584 
L 143.852146 307.584 
L 143.918849 307.584 
L 145.052806 307.584 
L 145.20527 307.584 
L 145.271974 307.584 
L 145.281503 307.584 
L 145.662665 307.584 
L 146.558395 307.584 
L 146.739447 307.584 
L 147.130137 307.584 
L 148.530907 307.584 
L 148.711959 307.584 
L 148.854894 307.584 
L 148.893011 307.584 
L 149.579102 307.584 
L 150.312838 307.584 
L 150.855994 307.584 
L 151.38962 307.584 
L 152.218647 307.584 
L 152.428286 307.584 
L 152.552164 307.584 
L 153.123906 307.584 
L 153.848114 307.584 
L 153.933875 307.584 
L 154.696199 307.584 
L 154.724786 307.584 
L 154.772431 307.584 
L 155.201238 307.584 
L 155.267941 307.584 
L 156.173201 307.584 
L 156.325665 307.584 
L 156.487659 307.584 
L 156.544833 307.584 
L 157.116576 307.584 
L 157.726435 307.584 
L 158.736514 307.584 
L 158.97474 307.584 
L 159.003327 307.584 
L 159.098617 307.584 
L 159.260611 307.584 
L 159.613186 307.584 
L 159.975289 307.584 
L 160.337393 307.584 
L 160.661381 307.584 
L 160.756671 307.584 
L 161.337943 307.584 
L 161.56664 307.584 
L 161.928743 307.584 
L 162.338492 307.584 
L 162.929293 307.584 
L 163.205635 307.584 
L 163.615384 307.584 
L 164.091837 307.584 
L 164.272888 307.584 
L 164.311005 307.584 
L 164.387237 307.584 
L 165.035212 307.584 
L 165.149561 307.584 
L 165.206735 307.584 
L 165.483077 307.584 
L 165.873768 307.584 
L 166.312104 307.584 
L 166.331162 307.584 
L 166.759969 307.584 
L 167.169718 307.584 
L 167.274537 307.584 
L 168.008274 307.584 
L 168.132151 307.584 
L 168.589546 307.584 
L 169.037411 307.584 
L 169.561508 307.584 
L 169.847379 307.584 
L 170.114193 307.584 
L 170.171367 307.584 
L 170.209483 307.584 
L 170.781226 307.584 
L 172.115292 307.584 
L 172.639389 307.584 
L 173.106313 307.584 
L 173.1349 307.584 
L 173.239719 307.584 
L 173.249248 307.584 
L 173.487474 307.584 
L 173.601823 307.584 
L 174.12592 307.584 
L 174.440379 307.584 
L 174.468966 307.584 
L 174.478495 307.584 
L 174.993063 307.584 
L 175.498103 307.584 
L 175.612451 307.584 
L 175.803032 307.584 
L 176.060316 307.584 
L 176.651117 307.584 
L 176.832169 307.584 
L 176.936989 307.584 
L 177.013221 307.584 
L 177.032279 307.584 
L 178.166235 307.584 
L 178.452107 307.584 
L 178.985733 307.584 
L 179.21443 307.584 
L 179.929109 307.584 
L 180.100631 307.584 
L 180.853426 307.584 
L 181.11071 307.584 
L 181.244117 307.584 
L 182.330428 307.584 
L 182.397131 307.584 
L 182.749706 307.584 
L 182.778293 307.584 
L 183.235687 307.584 
L 183.330977 307.584 
L 183.340506 307.584 
L 184.207649 307.584 
L 184.426818 307.584 
L 184.626927 307.584 
L 184.817508 307.584 
L 184.989031 307.584 
L 185.151025 307.584 
L 185.274902 307.584 
L 185.484541 307.584 
L 185.579832 307.584 
L 187.361763 307.584 
L 188.162203 307.584 
L 188.800649 307.584 
L 189.505798 307.584 
L 189.68685 307.584 
L 189.696379 307.584 
L 189.724966 307.584 
L 190.048954 307.584 
L 190.277651 307.584 
L 190.296709 307.584 
L 190.534935 307.584 
L 190.744574 307.584 
L 191.030445 307.584 
L 191.545014 307.584 
L 191.554543 307.584 
L 192.345453 307.584 
L 192.402628 307.584 
L 192.736144 307.584 
L 192.764731 307.584 
L 192.78379 307.584 
L 193.984449 307.584 
L 194.413256 307.584 
L 194.965941 307.584 
L 195.080289 307.584 
L 196.509646 307.584 
L 196.87175 307.584 
L 197.281499 307.584 
L 198.177229 307.584 
L 198.405926 307.584 
L 198.444042 307.584 
L 199.053901 307.584 
L 200.092567 307.584 
L 200.349851 307.584 
L 200.368909 307.584 
L 200.864419 307.584 
L 201.026413 307.584 
L 201.798266 307.584 
L 202.370008 307.584 
L 202.560589 307.584 
L 202.95128 307.584 
L 203.027512 307.584 
L 203.932772 307.584 
L 203.989946 307.584 
L 204.094765 307.584 
L 204.64745 307.584 
L 205.066728 307.584 
L 205.200134 307.584 
L 205.409773 307.584 
L 206.229271 307.584 
L 206.486555 307.584 
L 207.010653 307.584 
L 207.315582 307.584 
L 207.630041 307.584 
L 209.03081 307.584 
L 209.183275 307.584 
L 209.669256 307.584 
L 209.907482 307.584 
L 210.145709 307.584 
L 210.488754 307.584 
L 210.622161 307.584 
L 212.013401 307.584 
L 212.670905 307.584 
L 212.985364 307.584 
L 213.795333 307.584 
L 214.214611 307.584 
L 215.643967 307.584 
L 216.082303 307.584 
L 216.120419 307.584 
L 216.444407 307.584 
L 217.025679 307.584 
L 217.778473 307.584 
L 218.131048 307.584 
L 218.359745 307.584 
L 218.740907 307.584 
L 219.865334 307.584 
L 221.132697 307.584 
L 222.581112 307.584 
L 222.971802 307.584 
L 223.286261 307.584 
L 224.353514 307.584 
L 225.28736 307.584 
L 226.831065 307.584 
L 227.793499 307.584 
L 228.18419 307.584 
L 228.298538 307.584 
L 228.58441 307.584 
L 229.737424 307.584 
L 230.271051 307.584 
L 230.356812 307.584 
L 230.747503 307.584 
L 234.120784 307.584 
L 234.873579 307.584 
L 235.083218 307.584 
L 236.198116 307.584 
L 236.464929 307.584 
L 237.970518 307.584 
L 238.380267 307.584 
L 238.418384 307.584 
L 239.437991 307.584 
L 241.553439 307.584 
L 244.850489 307.584 
L 250.272515 307.584 
L 250.796612 307.584 
L 251.034838 307.584 
L 251.730459 307.584 
L 254.379533 307.584 
L 255.065624 307.584 
L 258.105389 307.584 
L 260.19225 307.584 
L 261.08798 307.584 
L 262.307698 307.584 
L 262.38393 307.584 
L 266.462361 307.584 
L 269.807056 307.584 
L 277.258769 307.584 
L 280.022192 307.584 
L 280.813102 307.584 
L 283.748048 307.584 
L 311.2584 307.584 
L 325.942657 307.584 
L 326.00936 307.584 
L 326.228528 307.584 
L 398.487273 307.584 
L 398.487273 306.993231 
L 398.487273 306.993231 
L 326.228528 306.402462 
L 326.00936 305.811692 
L 325.942657 305.220923 
L 311.2584 304.630154 
L 283.748048 304.039385 
L 280.813102 303.448615 
L 280.022192 302.857846 
L 277.258769 302.267077 
L 269.807056 301.085538 
L 266.462361 300.494769 
L 262.38393 299.904 
L 262.307698 299.313231 
L 261.08798 298.722462 
L 260.19225 298.131692 
L 258.105389 297.540923 
L 255.065624 296.950154 
L 254.379533 296.359385 
L 251.730459 296.359385 
L 251.034838 295.768615 
L 250.796612 294.587077 
L 250.272515 293.996308 
L 244.850489 292.814769 
L 241.553439 292.224 
L 239.437991 291.633231 
L 238.418384 291.042462 
L 238.380267 290.451692 
L 237.970518 289.860923 
L 236.464929 289.270154 
L 236.198116 288.679385 
L 235.083218 288.088615 
L 234.873579 287.497846 
L 234.120784 286.907077 
L 230.747503 286.316308 
L 230.356812 285.725538 
L 230.271051 285.134769 
L 229.737424 283.953231 
L 228.58441 283.362462 
L 228.298538 282.771692 
L 228.18419 282.180923 
L 227.793499 281.590154 
L 226.831065 280.999385 
L 225.28736 279.817846 
L 224.353514 279.227077 
L 223.286261 278.636308 
L 222.971802 278.045538 
L 222.581112 277.454769 
L 221.132697 276.864 
L 219.865334 276.273231 
L 218.740907 275.682462 
L 218.359745 275.091692 
L 218.131048 274.500923 
L 217.778473 273.910154 
L 217.025679 273.319385 
L 216.444407 272.728615 
L 216.120419 272.137846 
L 216.082303 271.547077 
L 215.643967 270.956308 
L 214.214611 270.365538 
L 213.795333 269.774769 
L 212.985364 269.184 
L 212.670905 268.593231 
L 212.013401 268.002462 
L 210.622161 267.411692 
L 210.488754 266.820923 
L 210.145709 266.230154 
L 209.907482 265.048615 
L 209.669256 265.048615 
L 209.183275 264.457846 
L 209.03081 263.867077 
L 207.630041 263.276308 
L 207.315582 262.685538 
L 207.010653 262.094769 
L 206.486555 261.504 
L 206.229271 261.504 
L 205.409773 260.322462 
L 205.200134 259.731692 
L 205.066728 259.731692 
L 204.64745 259.140923 
L 204.094765 258.550154 
L 203.989946 257.959385 
L 203.932772 257.368615 
L 203.027512 256.777846 
L 202.95128 256.187077 
L 202.560589 255.596308 
L 202.370008 255.005538 
L 201.798266 254.414769 
L 201.026413 253.824 
L 200.864419 253.233231 
L 200.368909 252.642462 
L 200.349851 252.051692 
L 200.092567 251.460923 
L 199.053901 250.870154 
L 198.444042 250.279385 
L 198.405926 249.688615 
L 198.177229 249.097846 
L 197.281499 248.507077 
L 196.87175 247.916308 
L 196.509646 247.325538 
L 195.080289 246.734769 
L 194.965941 246.144 
L 194.413256 244.962462 
L 193.984449 244.371692 
L 192.78379 243.780923 
L 192.764731 243.190154 
L 192.736144 242.599385 
L 192.402628 242.008615 
L 192.345453 241.417846 
L 191.554543 240.827077 
L 191.545014 240.236308 
L 191.030445 239.645538 
L 190.744574 239.054769 
L 190.534935 238.464 
L 190.296709 237.282462 
L 190.277651 236.691692 
L 190.048954 236.100923 
L 189.724966 235.510154 
L 189.696379 234.919385 
L 189.68685 234.328615 
L 189.505798 233.737846 
L 188.800649 233.147077 
L 188.162203 232.556308 
L 187.361763 231.965538 
L 185.579832 231.374769 
L 185.484541 230.784 
L 185.274902 230.784 
L 185.151025 230.784 
L 184.989031 229.602462 
L 184.817508 229.011692 
L 184.626927 228.420923 
L 184.426818 227.830154 
L 184.207649 227.239385 
L 183.340506 226.648615 
L 183.330977 226.057846 
L 183.235687 225.467077 
L 182.778293 224.876308 
L 182.749706 224.285538 
L 182.397131 223.694769 
L 182.330428 223.104 
L 181.244117 222.513231 
L 181.11071 222.513231 
L 180.853426 221.922462 
L 180.100631 221.922462 
L 179.929109 221.331692 
L 179.21443 220.740923 
L 178.985733 220.150154 
L 178.452107 220.150154 
L 178.166235 219.559385 
L 177.032279 218.968615 
L 177.013221 218.968615 
L 176.936989 218.377846 
L 176.832169 217.787077 
L 176.651117 217.196308 
L 176.060316 216.605538 
L 175.803032 216.014769 
L 175.612451 215.424 
L 175.498103 214.833231 
L 174.993063 214.242462 
L 174.478495 213.651692 
L 174.468966 212.470154 
L 174.440379 211.879385 
L 174.12592 211.288615 
L 173.601823 211.288615 
L 173.487474 210.697846 
L 173.249248 210.107077 
L 173.239719 209.516308 
L 173.1349 208.925538 
L 173.106313 208.925538 
L 172.639389 208.925538 
L 172.115292 208.334769 
L 170.781226 207.744 
L 170.209483 207.153231 
L 170.171367 206.562462 
L 170.114193 205.971692 
L 169.847379 205.380923 
L 169.561508 204.790154 
L 169.037411 204.790154 
L 168.589546 204.199385 
L 168.132151 203.608615 
L 168.008274 203.017846 
L 167.274537 202.427077 
L 167.169718 201.245538 
L 166.759969 200.654769 
L 166.331162 200.064 
L 166.312104 199.473231 
L 165.873768 198.291692 
L 165.483077 197.700923 
L 165.206735 196.519385 
L 165.149561 196.519385 
L 165.035212 195.928615 
L 164.387237 194.747077 
L 164.311005 194.156308 
L 164.272888 193.565538 
L 164.091837 192.974769 
L 163.615384 192.384 
L 163.205635 192.384 
L 162.929293 191.793231 
L 162.338492 191.793231 
L 161.928743 191.202462 
L 161.56664 190.611692 
L 161.337943 190.020923 
L 160.756671 189.430154 
L 160.661381 188.839385 
L 160.337393 188.248615 
L 159.975289 187.657846 
L 159.613186 187.067077 
L 159.260611 187.067077 
L 159.098617 186.476308 
L 159.003327 185.885538 
L 158.97474 184.704 
L 158.736514 184.113231 
L 157.726435 184.113231 
L 157.116576 183.522462 
L 156.544833 183.522462 
L 156.487659 182.931692 
L 156.325665 182.340923 
L 156.173201 181.750154 
L 155.267941 181.159385 
L 155.201238 180.568615 
L 154.772431 179.387077 
L 154.724786 179.387077 
L 154.696199 178.796308 
L 153.933875 178.796308 
L 153.848114 178.796308 
L 153.123906 178.205538 
L 152.552164 177.614769 
L 152.428286 176.433231 
L 152.218647 175.842462 
L 151.38962 175.842462 
L 150.855994 175.251692 
L 150.312838 175.251692 
L 149.579102 175.251692 
L 148.893011 175.251692 
L 148.854894 174.660923 
L 148.711959 174.070154 
L 148.530907 173.479385 
L 147.130137 172.888615 
L 146.739447 172.888615 
L 146.558395 172.297846 
L 145.662665 172.297846 
L 145.281503 171.707077 
L 145.271974 171.707077 
L 145.20527 171.116308 
L 145.052806 170.525538 
L 143.918849 169.934769 
L 143.852146 169.344 
L 143.185113 169.344 
L 142.108331 168.753231 
L 142.098802 168.753231 
L 141.107781 168.753231 
L 141.012491 168.162462 
L 140.888613 168.162462 
L 140.374045 167.571692 
L 139.03045 166.980923 
L 138.411062 166.980923 
L 138.334829 166.390154 
L 137.867906 166.390154 
L 137.458157 166.390154 
L 137.267576 166.390154 
L 137.172286 166.390154 
L 136.762537 165.799385 
L 135.647639 165.208615 
L 135.028251 165.208615 
L 134.904373 164.617846 
L 134.14205 164.027077 
L 134.113463 163.436308 
L 133.455959 163.436308 
L 133.151029 162.845538 
L 133.008093 162.254769 
L 132.950919 162.254769 
L 132.779396 162.254769 
L 132.026602 161.664 
L 131.359569 161.073231 
L 130.625832 160.482462 
L 130.416193 160.482462 
L 129.634812 160.482462 
L 128.815314 159.891692 
L 128.281687 159.891692 
L 127.633712 159.891692 
L 127.223963 159.300923 
L 126.537872 159.300923 
L 126.118594 158.710154 
L 125.051341 158.710154 
L 124.746412 158.119385 
L 123.297997 158.119385 
L 123.183649 158.119385 
L 123.078829 157.528615 
L 122.535674 157.528615 
L 122.421325 157.528615 
L 121.325485 156.937846 
L 120.27729 156.937846 
L 120.248703 156.347077 
L 118.752643 155.756308 
L 118.342894 155.756308 
L 117.78068 155.165538 
L 116.827776 154.574769 
L 116.560963 154.574769 
L 115.970162 153.984 
L 115.398419 153.393231 
L 113.702249 153.393231 
L 113.19721 152.802462 
L 112.492061 152.211692 
L 111.853615 151.620923 
L 111.196111 151.030154 
L 110.681542 150.439385 
L 110.414729 150.439385 
L 109.566644 150.439385 
L 106.71746 150.439385 
L 106.479234 149.848615 
L 105.907491 149.848615 
L 104.640128 149.848615 
L 104.154147 149.848615 
L 103.687224 149.848615 
L 103.248888 149.848615 
L 103.039249 149.257846 
L 102.591384 148.667077 
L 100.571226 148.667077 
L 100.180535 148.667077 
L 99.93278 148.667077 
L 99.561147 148.076308 
L 98.379546 147.485538 
L 96.24504 147.485538 
L 94.84427 147.485538 
L 93.500675 147.485538 
L 93.157629 147.485538 
L 92.709764 146.894769 
L 92.309545 146.894769 
L 91.65204 146.304 
L 91.480518 146.304 
L 91.080298 146.304 
L 89.831993 146.304 
L 89.517534 146.304 
L 89.488947 145.713231 
L 89.212605 145.713231 
L 88.507456 145.713231 
L 87.754661 145.713231 
L 87.478319 145.122462 
L 86.830344 145.122462 
L 86.144253 144.531692 
L 85.820265 144.531692 
L 83.599998 144.531692 
L 82.913907 144.531692 
L 82.599448 144.531692 
L 82.227815 143.940923 
L 81.999118 143.350154 
L 81.722776 143.350154 
L 81.332085 143.350154 
L 80.912807 143.350154 
L 80.807988 143.350154 
L 80.78893 143.350154 
L 80.484 143.350154 
L 80.236245 142.759385 
L 80.226716 142.759385 
L 80.026606 142.759385 
L 79.8932 142.759385 
L 79.397689 142.759385 
L 79.111818 142.759385 
L 79.054644 142.759385 
L 78.797359 142.759385 
L 78.406669 142.759385 
L 78.187501 142.759385 
L 77.815868 142.759385 
L 77.777752 142.759385 
L 77.749165 142.759385 
L 77.206009 142.759385 
L 77.120248 142.168615 
L 76.834376 142.168615 
L 76.691441 142.168615 
L 76.462744 142.168615 
L 76.310279 142.168615 
L 76.234046 142.168615 
L 76.214988 142.168615 
L 76.138756 142.168615 
L 75.776652 141.577846 
L 75.586071 141.577846 
L 75.223968 140.987077 
L 75.023858 140.987077 
L 75.014329 140.987077 
L 74.976213 140.987077 
L 74.509289 140.987077 
L 74.490231 140.987077 
L 74.347296 140.987077 
L 74.337767 140.987077 
L 74.318709 140.987077 
L 74.156715 140.987077 
L 74.042366 140.987077 
L 73.880372 140.987077 
L 73.832727 140.987077 
z
" clip-path="url(#p878ae07fc0)" style="fill: #008000"/>
   </g>
   <g id="PolyCollection_2">
    <path d="M 73.832727 140.987077 
L 73.832727 140.987077 
L 73.880372 140.987077 
L 74.042366 140.987077 
L 74.156715 140.987077 
L 74.318709 140.987077 
L 74.337767 140.987077 
L 74.347296 140.987077 
L 74.490231 140.987077 
L 74.509289 140.987077 
L 74.976213 140.987077 
L 75.014329 140.987077 
L 75.023858 140.987077 
L 75.223968 140.987077 
L 75.586071 141.577846 
L 75.776652 141.577846 
L 76.138756 142.168615 
L 76.214988 142.168615 
L 76.234046 142.168615 
L 76.310279 142.168615 
L 76.462744 142.168615 
L 76.691441 142.168615 
L 76.834376 142.168615 
L 77.120248 142.168615 
L 77.206009 142.759385 
L 77.749165 142.759385 
L 77.777752 142.759385 
L 77.815868 142.759385 
L 78.187501 142.759385 
L 78.406669 142.759385 
L 78.797359 142.759385 
L 79.054644 142.759385 
L 79.111818 142.759385 
L 79.397689 142.759385 
L 79.8932 142.759385 
L 80.026606 142.759385 
L 80.226716 142.759385 
L 80.236245 142.759385 
L 80.484 143.350154 
L 80.78893 143.350154 
L 80.807988 143.350154 
L 80.912807 143.350154 
L 81.332085 143.350154 
L 81.722776 143.350154 
L 81.999118 143.350154 
L 82.227815 143.940923 
L 82.599448 144.531692 
L 82.913907 144.531692 
L 83.599998 144.531692 
L 85.820265 144.531692 
L 86.144253 144.531692 
L 86.830344 145.122462 
L 87.478319 145.122462 
L 87.754661 145.713231 
L 88.507456 145.713231 
L 89.212605 145.713231 
L 89.488947 145.713231 
L 89.517534 146.304 
L 89.831993 146.304 
L 91.080298 146.304 
L 91.480518 146.304 
L 91.65204 146.304 
L 92.309545 146.894769 
L 92.709764 146.894769 
L 93.157629 147.485538 
L 93.500675 147.485538 
L 94.84427 147.485538 
L 96.24504 147.485538 
L 98.379546 147.485538 
L 99.561147 148.076308 
L 99.93278 148.667077 
L 100.180535 148.667077 
L 100.571226 148.667077 
L 102.591384 148.667077 
L 103.039249 149.257846 
L 103.248888 149.848615 
L 103.687224 149.848615 
L 104.154147 149.848615 
L 104.640128 149.848615 
L 105.907491 149.848615 
L 106.479234 149.848615 
L 106.71746 150.439385 
L 109.566644 150.439385 
L 110.414729 150.439385 
L 110.681542 150.439385 
L 111.196111 151.030154 
L 111.853615 151.620923 
L 112.492061 152.211692 
L 113.19721 152.802462 
L 113.702249 153.393231 
L 115.398419 153.393231 
L 115.970162 153.984 
L 116.560963 154.574769 
L 116.827776 154.574769 
L 117.78068 155.165538 
L 118.342894 155.756308 
L 118.752643 155.756308 
L 120.248703 156.347077 
L 120.27729 156.937846 
L 121.325485 156.937846 
L 122.421325 157.528615 
L 122.535674 157.528615 
L 123.078829 157.528615 
L 123.183649 158.119385 
L 123.297997 158.119385 
L 124.746412 158.119385 
L 125.051341 158.710154 
L 126.118594 158.710154 
L 126.537872 159.300923 
L 127.223963 159.300923 
L 127.633712 159.891692 
L 128.281687 159.891692 
L 128.815314 159.891692 
L 129.634812 160.482462 
L 130.416193 160.482462 
L 130.625832 160.482462 
L 131.359569 161.073231 
L 132.026602 161.664 
L 132.779396 162.254769 
L 132.950919 162.254769 
L 133.008093 162.254769 
L 133.151029 162.845538 
L 133.455959 163.436308 
L 134.113463 163.436308 
L 134.14205 164.027077 
L 134.904373 164.617846 
L 135.028251 165.208615 
L 135.647639 165.208615 
L 136.762537 165.799385 
L 137.172286 166.390154 
L 137.267576 166.390154 
L 137.458157 166.390154 
L 137.867906 166.390154 
L 138.334829 166.390154 
L 138.411062 166.980923 
L 139.03045 166.980923 
L 140.374045 167.571692 
L 140.888613 168.162462 
L 141.012491 168.162462 
L 141.107781 168.753231 
L 142.098802 168.753231 
L 142.108331 168.753231 
L 143.185113 169.344 
L 143.852146 169.344 
L 143.918849 169.934769 
L 145.052806 170.525538 
L 145.20527 171.116308 
L 145.271974 171.707077 
L 145.281503 171.707077 
L 145.662665 172.297846 
L 146.558395 172.297846 
L 146.739447 172.888615 
L 147.130137 172.888615 
L 148.530907 173.479385 
L 148.711959 174.070154 
L 148.854894 174.660923 
L 148.893011 175.251692 
L 149.579102 175.251692 
L 150.312838 175.251692 
L 150.855994 175.251692 
L 151.38962 175.842462 
L 152.218647 175.842462 
L 152.428286 176.433231 
L 152.552164 177.614769 
L 153.123906 178.205538 
L 153.848114 178.796308 
L 153.933875 178.796308 
L 154.696199 178.796308 
L 154.724786 179.387077 
L 154.772431 179.387077 
L 155.201238 180.568615 
L 155.267941 181.159385 
L 156.173201 181.750154 
L 156.325665 182.340923 
L 156.487659 182.931692 
L 156.544833 183.522462 
L 157.116576 183.522462 
L 157.726435 184.113231 
L 158.736514 184.113231 
L 158.97474 184.704 
L 159.003327 185.885538 
L 159.098617 186.476308 
L 159.260611 187.067077 
L 159.613186 187.067077 
L 159.975289 187.657846 
L 160.337393 188.248615 
L 160.661381 188.839385 
L 160.756671 189.430154 
L 161.337943 190.020923 
L 161.56664 190.611692 
L 161.928743 191.202462 
L 162.338492 191.793231 
L 162.929293 191.793231 
L 163.205635 192.384 
L 163.615384 192.384 
L 164.091837 192.974769 
L 164.272888 193.565538 
L 164.311005 194.156308 
L 164.387237 194.747077 
L 165.035212 195.928615 
L 165.149561 196.519385 
L 165.206735 196.519385 
L 165.483077 197.700923 
L 165.873768 198.291692 
L 166.312104 199.473231 
L 166.331162 200.064 
L 166.759969 200.654769 
L 167.169718 201.245538 
L 167.274537 202.427077 
L 168.008274 203.017846 
L 168.132151 203.608615 
L 168.589546 204.199385 
L 169.037411 204.790154 
L 169.561508 204.790154 
L 169.847379 205.380923 
L 170.114193 205.971692 
L 170.171367 206.562462 
L 170.209483 207.153231 
L 170.781226 207.744 
L 172.115292 208.334769 
L 172.639389 208.925538 
L 173.106313 208.925538 
L 173.1349 208.925538 
L 173.239719 209.516308 
L 173.249248 210.107077 
L 173.487474 210.697846 
L 173.601823 211.288615 
L 174.12592 211.288615 
L 174.440379 211.879385 
L 174.468966 212.470154 
L 174.478495 213.651692 
L 174.993063 214.242462 
L 175.498103 214.833231 
L 175.612451 215.424 
L 175.803032 216.014769 
L 176.060316 216.605538 
L 176.651117 217.196308 
L 176.832169 217.787077 
L 176.936989 218.377846 
L 177.013221 218.968615 
L 177.032279 218.968615 
L 178.166235 219.559385 
L 178.452107 220.150154 
L 178.985733 220.150154 
L 179.21443 220.740923 
L 179.929109 221.331692 
L 180.100631 221.922462 
L 180.853426 221.922462 
L 181.11071 222.513231 
L 181.244117 222.513231 
L 182.330428 223.104 
L 182.397131 223.694769 
L 182.749706 224.285538 
L 182.778293 224.876308 
L 183.235687 225.467077 
L 183.330977 226.057846 
L 183.340506 226.648615 
L 184.207649 227.239385 
L 184.426818 227.830154 
L 184.626927 228.420923 
L 184.817508 229.011692 
L 184.989031 229.602462 
L 185.151025 230.784 
L 185.274902 230.784 
L 185.484541 230.784 
L 185.579832 231.374769 
L 187.361763 231.965538 
L 188.162203 232.556308 
L 188.800649 233.147077 
L 189.505798 233.737846 
L 189.68685 234.328615 
L 189.696379 234.919385 
L 189.724966 235.510154 
L 190.048954 236.100923 
L 190.277651 236.691692 
L 190.296709 237.282462 
L 190.534935 238.464 
L 190.744574 239.054769 
L 191.030445 239.645538 
L 191.545014 240.236308 
L 191.554543 240.827077 
L 192.345453 241.417846 
L 192.402628 242.008615 
L 192.736144 242.599385 
L 192.764731 243.190154 
L 192.78379 243.780923 
L 193.984449 244.371692 
L 194.413256 244.962462 
L 194.965941 246.144 
L 195.080289 246.734769 
L 196.509646 247.325538 
L 196.87175 247.916308 
L 197.281499 248.507077 
L 198.177229 249.097846 
L 198.405926 249.688615 
L 198.444042 250.279385 
L 199.053901 250.870154 
L 200.092567 251.460923 
L 200.349851 252.051692 
L 200.368909 252.642462 
L 200.864419 253.233231 
L 201.026413 253.824 
L 201.798266 254.414769 
L 202.370008 255.005538 
L 202.560589 255.596308 
L 202.95128 256.187077 
L 203.027512 256.777846 
L 203.932772 257.368615 
L 203.989946 257.959385 
L 204.094765 258.550154 
L 204.64745 259.140923 
L 205.066728 259.731692 
L 205.200134 259.731692 
L 205.409773 260.322462 
L 206.229271 261.504 
L 206.486555 261.504 
L 207.010653 262.094769 
L 207.315582 262.685538 
L 207.630041 263.276308 
L 209.03081 263.867077 
L 209.183275 264.457846 
L 209.669256 265.048615 
L 209.907482 265.048615 
L 210.145709 266.230154 
L 210.488754 266.820923 
L 210.622161 267.411692 
L 212.013401 268.002462 
L 212.670905 268.593231 
L 212.985364 269.184 
L 213.795333 269.774769 
L 214.214611 270.365538 
L 215.643967 270.956308 
L 216.082303 271.547077 
L 216.120419 272.137846 
L 216.444407 272.728615 
L 217.025679 273.319385 
L 217.778473 273.910154 
L 218.131048 274.500923 
L 218.359745 275.091692 
L 218.740907 275.682462 
L 219.865334 276.273231 
L 221.132697 276.864 
L 222.581112 277.454769 
L 222.971802 278.045538 
L 223.286261 278.636308 
L 224.353514 279.227077 
L 225.28736 279.817846 
L 226.831065 280.999385 
L 227.793499 281.590154 
L 228.18419 282.180923 
L 228.298538 282.771692 
L 228.58441 283.362462 
L 229.737424 283.953231 
L 230.271051 285.134769 
L 230.356812 285.725538 
L 230.747503 286.316308 
L 234.120784 286.907077 
L 234.873579 287.497846 
L 235.083218 288.088615 
L 236.198116 288.679385 
L 236.464929 289.270154 
L 237.970518 289.860923 
L 238.380267 290.451692 
L 238.418384 291.042462 
L 239.437991 291.633231 
L 241.553439 292.224 
L 244.850489 292.814769 
L 250.272515 293.996308 
L 250.796612 294.587077 
L 251.034838 295.768615 
L 251.730459 296.359385 
L 254.379533 296.359385 
L 255.065624 296.950154 
L 258.105389 297.540923 
L 260.19225 298.131692 
L 261.08798 298.722462 
L 262.307698 299.313231 
L 262.38393 299.904 
L 266.462361 300.494769 
L 269.807056 301.085538 
L 277.258769 302.267077 
L 280.022192 302.857846 
L 280.813102 303.448615 
L 283.748048 304.039385 
L 311.2584 304.630154 
L 325.942657 305.220923 
L 326.00936 305.811692 
L 326.228528 306.402462 
L 398.487273 306.993231 
L 398.487273 306.993231 
L 398.487273 306.993231 
L 326.228528 306.402462 
L 326.00936 305.811692 
L 325.942657 305.220923 
L 311.2584 304.630154 
L 283.748048 304.039385 
L 280.813102 303.448615 
L 280.022192 302.857846 
L 277.258769 302.267077 
L 269.807056 301.085538 
L 266.462361 300.494769 
L 262.38393 299.904 
L 262.307698 299.313231 
L 261.08798 298.722462 
L 260.19225 298.131692 
L 258.105389 297.540923 
L 255.065624 296.950154 
L 254.379533 296.359385 
L 251.730459 296.359385 
L 251.034838 295.768615 
L 250.796612 294.587077 
L 250.272515 293.996308 
L 244.850489 292.814769 
L 241.553439 292.224 
L 239.437991 291.633231 
L 238.418384 291.042462 
L 238.380267 290.451692 
L 237.970518 289.860923 
L 236.464929 289.270154 
L 236.198116 288.679385 
L 235.083218 288.088615 
L 234.873579 287.497846 
L 234.120784 286.907077 
L 230.747503 286.316308 
L 230.356812 285.725538 
L 230.271051 285.134769 
L 229.737424 283.953231 
L 228.58441 283.362462 
L 228.298538 282.771692 
L 228.18419 282.180923 
L 227.793499 281.590154 
L 226.831065 280.999385 
L 225.28736 279.817846 
L 224.353514 279.227077 
L 223.286261 278.636308 
L 222.971802 278.045538 
L 222.581112 277.454769 
L 221.132697 276.864 
L 219.865334 276.273231 
L 218.740907 275.682462 
L 218.359745 275.091692 
L 218.131048 274.500923 
L 217.778473 273.910154 
L 217.025679 273.319385 
L 216.444407 272.728615 
L 216.120419 272.137846 
L 216.082303 271.547077 
L 215.643967 270.956308 
L 214.214611 270.365538 
L 213.795333 269.774769 
L 212.985364 269.184 
L 212.670905 268.593231 
L 212.013401 268.002462 
L 210.622161 267.411692 
L 210.488754 266.820923 
L 210.145709 266.230154 
L 209.907482 265.048615 
L 209.669256 265.048615 
L 209.183275 264.457846 
L 209.03081 263.867077 
L 207.630041 263.276308 
L 207.315582 262.685538 
L 207.010653 262.094769 
L 206.486555 261.504 
L 206.229271 261.504 
L 205.409773 260.322462 
L 205.200134 259.731692 
L 205.066728 259.731692 
L 204.64745 259.140923 
L 204.094765 258.550154 
L 203.989946 257.959385 
L 203.932772 257.368615 
L 203.027512 256.777846 
L 202.95128 256.187077 
L 202.560589 255.596308 
L 202.370008 255.005538 
L 201.798266 254.414769 
L 201.026413 253.824 
L 200.864419 253.233231 
L 200.368909 252.642462 
L 200.349851 252.051692 
L 200.092567 251.460923 
L 199.053901 250.870154 
L 198.444042 250.279385 
L 198.405926 249.688615 
L 198.177229 249.097846 
L 197.281499 248.507077 
L 196.87175 247.916308 
L 196.509646 247.325538 
L 195.080289 246.734769 
L 194.965941 246.144 
L 194.413256 244.962462 
L 193.984449 244.371692 
L 192.78379 243.780923 
L 192.764731 243.190154 
L 192.736144 242.599385 
L 192.402628 242.008615 
L 192.345453 241.417846 
L 191.554543 240.827077 
L 191.545014 240.236308 
L 191.030445 239.645538 
L 190.744574 239.054769 
L 190.534935 238.464 
L 190.296709 237.282462 
L 190.277651 236.691692 
L 190.048954 236.100923 
L 189.724966 235.510154 
L 189.696379 234.919385 
L 189.68685 234.328615 
L 189.505798 233.737846 
L 188.800649 233.147077 
L 188.162203 232.556308 
L 187.361763 231.965538 
L 185.579832 231.374769 
L 185.484541 230.784 
L 185.274902 230.784 
L 185.151025 230.784 
L 184.989031 229.602462 
L 184.817508 229.011692 
L 184.626927 228.420923 
L 184.426818 227.830154 
L 184.207649 227.239385 
L 183.340506 226.648615 
L 183.330977 226.057846 
L 183.235687 225.467077 
L 182.778293 224.876308 
L 182.749706 224.285538 
L 182.397131 223.694769 
L 182.330428 223.104 
L 181.244117 222.513231 
L 181.11071 222.513231 
L 180.853426 221.922462 
L 180.100631 221.922462 
L 179.929109 221.331692 
L 179.21443 220.740923 
L 178.985733 220.150154 
L 178.452107 220.150154 
L 178.166235 219.559385 
L 177.032279 218.968615 
L 177.013221 218.968615 
L 176.936989 218.377846 
L 176.832169 217.787077 
L 176.651117 217.196308 
L 176.060316 216.605538 
L 175.803032 216.014769 
L 175.612451 215.424 
L 175.498103 214.833231 
L 174.993063 214.242462 
L 174.478495 213.651692 
L 174.468966 212.470154 
L 174.440379 211.879385 
L 174.12592 211.288615 
L 173.601823 211.288615 
L 173.487474 210.697846 
L 173.249248 210.107077 
L 173.239719 209.516308 
L 173.1349 208.925538 
L 173.106313 208.925538 
L 172.639389 208.925538 
L 172.115292 208.334769 
L 170.781226 207.744 
L 170.209483 207.153231 
L 170.171367 206.562462 
L 170.114193 205.971692 
L 169.847379 205.380923 
L 169.561508 204.790154 
L 169.037411 204.790154 
L 168.589546 204.199385 
L 168.132151 203.608615 
L 168.008274 203.017846 
L 167.274537 202.427077 
L 167.169718 201.245538 
L 166.759969 200.654769 
L 166.331162 200.064 
L 166.312104 199.473231 
L 165.873768 198.291692 
L 165.483077 197.700923 
L 165.206735 196.519385 
L 165.149561 196.519385 
L 165.035212 195.928615 
L 164.387237 194.747077 
L 164.311005 194.156308 
L 164.272888 193.565538 
L 164.091837 192.974769 
L 163.615384 192.384 
L 163.205635 192.384 
L 162.929293 191.793231 
L 162.338492 191.793231 
L 161.928743 191.202462 
L 161.56664 190.611692 
L 161.337943 190.020923 
L 160.756671 189.430154 
L 160.661381 188.839385 
L 160.337393 188.248615 
L 159.975289 187.657846 
L 159.613186 187.067077 
L 159.260611 187.067077 
L 159.098617 186.476308 
L 159.003327 185.885538 
L 158.97474 184.704 
L 158.736514 184.113231 
L 157.726435 184.113231 
L 157.116576 183.522462 
L 156.544833 183.522462 
L 156.487659 182.931692 
L 156.325665 182.340923 
L 156.173201 181.750154 
L 155.267941 181.159385 
L 155.201238 180.568615 
L 154.772431 179.387077 
L 154.724786 179.387077 
L 154.696199 178.796308 
L 153.933875 178.796308 
L 153.848114 178.796308 
L 153.123906 178.205538 
L 152.552164 177.614769 
L 152.428286 176.433231 
L 152.218647 175.842462 
L 151.38962 175.842462 
L 150.855994 175.251692 
L 150.312838 175.251692 
L 149.579102 175.251692 
L 148.893011 175.251692 
L 148.854894 174.660923 
L 148.711959 174.070154 
L 148.530907 173.479385 
L 147.130137 172.888615 
L 146.739447 172.888615 
L 146.558395 172.297846 
L 145.662665 172.297846 
L 145.281503 171.707077 
L 145.271974 171.707077 
L 145.20527 171.116308 
L 145.052806 170.525538 
L 143.918849 169.934769 
L 143.852146 169.344 
L 143.185113 169.344 
L 142.108331 168.753231 
L 142.098802 168.753231 
L 141.107781 168.753231 
L 141.012491 168.162462 
L 140.888613 168.162462 
L 140.374045 167.571692 
L 139.03045 166.980923 
L 138.411062 166.980923 
L 138.334829 166.390154 
L 137.867906 166.390154 
L 137.458157 166.390154 
L 137.267576 166.390154 
L 137.172286 166.390154 
L 136.762537 165.799385 
L 135.647639 165.208615 
L 135.028251 165.208615 
L 134.904373 164.617846 
L 134.14205 164.027077 
L 134.113463 163.436308 
L 133.455959 163.436308 
L 133.151029 162.845538 
L 133.008093 162.254769 
L 132.950919 162.254769 
L 132.779396 162.254769 
L 132.026602 161.664 
L 131.359569 161.073231 
L 130.625832 160.482462 
L 130.416193 160.482462 
L 129.634812 160.482462 
L 128.815314 159.891692 
L 128.281687 159.891692 
L 127.633712 159.891692 
L 127.223963 159.300923 
L 126.537872 159.300923 
L 126.118594 158.710154 
L 125.051341 158.710154 
L 124.746412 158.119385 
L 123.297997 158.119385 
L 123.183649 158.119385 
L 123.078829 157.528615 
L 122.535674 157.528615 
L 122.421325 157.528615 
L 121.325485 156.937846 
L 120.27729 156.937846 
L 120.248703 156.347077 
L 118.752643 155.756308 
L 118.342894 155.756308 
L 117.78068 155.165538 
L 116.827776 154.574769 
L 116.560963 154.574769 
L 115.970162 153.984 
L 115.398419 153.393231 
L 113.702249 153.393231 
L 113.19721 152.802462 
L 112.492061 152.211692 
L 111.853615 151.620923 
L 111.196111 151.030154 
L 110.681542 150.439385 
L 110.414729 150.439385 
L 109.566644 150.439385 
L 106.71746 150.439385 
L 106.479234 149.848615 
L 105.907491 149.848615 
L 104.640128 149.848615 
L 104.154147 149.848615 
L 103.687224 149.848615 
L 103.248888 149.848615 
L 103.039249 149.257846 
L 102.591384 148.667077 
L 100.571226 148.667077 
L 100.180535 148.667077 
L 99.93278 148.667077 
L 99.561147 148.076308 
L 98.379546 147.485538 
L 96.24504 147.485538 
L 94.84427 147.485538 
L 93.500675 147.485538 
L 93.157629 147.485538 
L 92.709764 146.894769 
L 92.309545 146.894769 
L 91.65204 146.304 
L 91.480518 146.304 
L 91.080298 146.304 
L 89.831993 146.304 
L 89.517534 146.304 
L 89.488947 145.713231 
L 89.212605 145.713231 
L 88.507456 145.713231 
L 87.754661 145.713231 
L 87.478319 145.122462 
L 86.830344 145.122462 
L 86.144253 144.531692 
L 85.820265 144.531692 
L 83.599998 144.531692 
L 82.913907 144.531692 
L 82.599448 144.531692 
L 82.227815 143.940923 
L 81.999118 143.350154 
L 81.722776 143.350154 
L 81.332085 143.350154 
L 80.912807 143.350154 
L 80.807988 143.350154 
L 80.78893 143.350154 
L 80.484 143.350154 
L 80.236245 142.759385 
L 80.226716 142.759385 
L 80.026606 142.759385 
L 79.8932 142.759385 
L 79.397689 142.759385 
L 79.111818 142.759385 
L 79.054644 142.759385 
L 78.797359 142.759385 
L 78.406669 142.759385 
L 78.187501 142.759385 
L 77.815868 142.759385 
L 77.777752 142.759385 
L 77.749165 142.759385 
L 77.206009 142.759385 
L 77.120248 142.168615 
L 76.834376 142.168615 
L 76.691441 142.168615 
L 76.462744 142.168615 
L 76.310279 142.168615 
L 76.234046 142.168615 
L 76.214988 142.168615 
L 76.138756 142.168615 
L 75.776652 141.577846 
L 75.586071 141.577846 
L 75.223968 140.987077 
L 75.023858 140.987077 
L 75.014329 140.987077 
L 74.976213 140.987077 
L 74.509289 140.987077 
L 74.490231 140.987077 
L 74.347296 140.987077 
L 74.337767 140.987077 
L 74.318709 140.987077 
L 74.156715 140.987077 
L 74.042366 140.987077 
L 73.880372 140.987077 
L 73.832727 140.987077 
z
" clip-path="url(#p878ae07fc0)" style="fill: #7cfc00"/>
   </g>
   <g id="PolyCollection_3">
    <path d="M 73.832727 54.144 
L 73.832727 140.987077 
L 73.880372 140.987077 
L 74.042366 140.987077 
L 74.156715 140.987077 
L 74.318709 140.987077 
L 74.337767 140.987077 
L 74.347296 140.987077 
L 74.490231 140.987077 
L 74.509289 140.987077 
L 74.976213 140.987077 
L 75.014329 140.987077 
L 75.023858 140.987077 
L 75.223968 140.987077 
L 75.586071 141.577846 
L 75.776652 141.577846 
L 76.138756 142.168615 
L 76.214988 142.168615 
L 76.234046 142.168615 
L 76.310279 142.168615 
L 76.462744 142.168615 
L 76.691441 142.168615 
L 76.834376 142.168615 
L 77.120248 142.168615 
L 77.206009 142.759385 
L 77.749165 142.759385 
L 77.777752 142.759385 
L 77.815868 142.759385 
L 78.187501 142.759385 
L 78.406669 142.759385 
L 78.797359 142.759385 
L 79.054644 142.759385 
L 79.111818 142.759385 
L 79.397689 142.759385 
L 79.8932 142.759385 
L 80.026606 142.759385 
L 80.226716 142.759385 
L 80.236245 142.759385 
L 80.484 143.350154 
L 80.78893 143.350154 
L 80.807988 143.350154 
L 80.912807 143.350154 
L 81.332085 143.350154 
L 81.722776 143.350154 
L 81.999118 143.350154 
L 82.227815 143.940923 
L 82.599448 144.531692 
L 82.913907 144.531692 
L 83.599998 144.531692 
L 85.820265 144.531692 
L 86.144253 144.531692 
L 86.830344 145.122462 
L 87.478319 145.122462 
L 87.754661 145.713231 
L 88.507456 145.713231 
L 89.212605 145.713231 
L 89.488947 145.713231 
L 89.517534 146.304 
L 89.831993 146.304 
L 91.080298 146.304 
L 91.480518 146.304 
L 91.65204 146.304 
L 92.309545 146.894769 
L 92.709764 146.894769 
L 93.157629 147.485538 
L 93.500675 147.485538 
L 94.84427 147.485538 
L 96.24504 147.485538 
L 98.379546 147.485538 
L 99.561147 148.076308 
L 99.93278 148.667077 
L 100.180535 148.667077 
L 100.571226 148.667077 
L 102.591384 148.667077 
L 103.039249 149.257846 
L 103.248888 149.848615 
L 103.687224 149.848615 
L 104.154147 149.848615 
L 104.640128 149.848615 
L 105.907491 149.848615 
L 106.479234 149.848615 
L 106.71746 150.439385 
L 109.566644 150.439385 
L 110.414729 150.439385 
L 110.681542 150.439385 
L 111.196111 151.030154 
L 111.853615 151.620923 
L 112.492061 152.211692 
L 113.19721 152.802462 
L 113.702249 153.393231 
L 115.398419 153.393231 
L 115.970162 153.984 
L 116.560963 154.574769 
L 116.827776 154.574769 
L 117.78068 155.165538 
L 118.342894 155.756308 
L 118.752643 155.756308 
L 120.248703 156.347077 
L 120.27729 156.937846 
L 121.325485 156.937846 
L 122.421325 157.528615 
L 122.535674 157.528615 
L 123.078829 157.528615 
L 123.183649 158.119385 
L 123.297997 158.119385 
L 124.746412 158.119385 
L 125.051341 158.710154 
L 126.118594 158.710154 
L 126.537872 159.300923 
L 127.223963 159.300923 
L 127.633712 159.891692 
L 128.281687 159.891692 
L 128.815314 159.891692 
L 129.634812 160.482462 
L 130.416193 160.482462 
L 130.625832 160.482462 
L 131.359569 161.073231 
L 132.026602 161.664 
L 132.779396 162.254769 
L 132.950919 162.254769 
L 133.008093 162.254769 
L 133.151029 162.845538 
L 133.455959 163.436308 
L 134.113463 163.436308 
L 134.14205 164.027077 
L 134.904373 164.617846 
L 135.028251 165.208615 
L 135.647639 165.208615 
L 136.762537 165.799385 
L 137.172286 166.390154 
L 137.267576 166.390154 
L 137.458157 166.390154 
L 137.867906 166.390154 
L 138.334829 166.390154 
L 138.411062 166.980923 
L 139.03045 166.980923 
L 140.374045 167.571692 
L 140.888613 168.162462 
L 141.012491 168.162462 
L 141.107781 168.753231 
L 142.098802 168.753231 
L 142.108331 168.753231 
L 143.185113 169.344 
L 143.852146 169.344 
L 143.918849 169.934769 
L 145.052806 170.525538 
L 145.20527 171.116308 
L 145.271974 171.707077 
L 145.281503 171.707077 
L 145.662665 172.297846 
L 146.558395 172.297846 
L 146.739447 172.888615 
L 147.130137 172.888615 
L 148.530907 173.479385 
L 148.711959 174.070154 
L 148.854894 174.660923 
L 148.893011 175.251692 
L 149.579102 175.251692 
L 150.312838 175.251692 
L 150.855994 175.251692 
L 151.38962 175.842462 
L 152.218647 175.842462 
L 152.428286 176.433231 
L 152.552164 177.614769 
L 153.123906 178.205538 
L 153.848114 178.796308 
L 153.933875 178.796308 
L 154.696199 178.796308 
L 154.724786 179.387077 
L 154.772431 179.387077 
L 155.201238 180.568615 
L 155.267941 181.159385 
L 156.173201 181.750154 
L 156.325665 182.340923 
L 156.487659 182.931692 
L 156.544833 183.522462 
L 157.116576 183.522462 
L 157.726435 184.113231 
L 158.736514 184.113231 
L 158.97474 184.704 
L 159.003327 185.885538 
L 159.098617 186.476308 
L 159.260611 187.067077 
L 159.613186 187.067077 
L 159.975289 187.657846 
L 160.337393 188.248615 
L 160.661381 188.839385 
L 160.756671 189.430154 
L 161.337943 190.020923 
L 161.56664 190.611692 
L 161.928743 191.202462 
L 162.338492 191.793231 
L 162.929293 191.793231 
L 163.205635 192.384 
L 163.615384 192.384 
L 164.091837 192.974769 
L 164.272888 193.565538 
L 164.311005 194.156308 
L 164.387237 194.747077 
L 165.035212 195.928615 
L 165.149561 196.519385 
L 165.206735 196.519385 
L 165.483077 197.700923 
L 165.873768 198.291692 
L 166.312104 199.473231 
L 166.331162 200.064 
L 166.759969 200.654769 
L 167.169718 201.245538 
L 167.274537 202.427077 
L 168.008274 203.017846 
L 168.132151 203.608615 
L 168.589546 204.199385 
L 169.037411 204.790154 
L 169.561508 204.790154 
L 169.847379 205.380923 
L 170.114193 205.971692 
L 170.171367 206.562462 
L 170.209483 207.153231 
L 170.781226 207.744 
L 172.115292 208.334769 
L 172.639389 208.925538 
L 173.106313 208.925538 
L 173.1349 208.925538 
L 173.239719 209.516308 
L 173.249248 210.107077 
L 173.487474 210.697846 
L 173.601823 211.288615 
L 174.12592 211.288615 
L 174.440379 211.879385 
L 174.468966 212.470154 
L 174.478495 213.651692 
L 174.993063 214.242462 
L 175.498103 214.833231 
L 175.612451 215.424 
L 175.803032 216.014769 
L 176.060316 216.605538 
L 176.651117 217.196308 
L 176.832169 217.787077 
L 176.936989 218.377846 
L 177.013221 218.968615 
L 177.032279 218.968615 
L 178.166235 219.559385 
L 178.452107 220.150154 
L 178.985733 220.150154 
L 179.21443 220.740923 
L 179.929109 221.331692 
L 180.100631 221.922462 
L 180.853426 221.922462 
L 181.11071 222.513231 
L 181.244117 222.513231 
L 182.330428 223.104 
L 182.397131 223.694769 
L 182.749706 224.285538 
L 182.778293 224.876308 
L 183.235687 225.467077 
L 183.330977 226.057846 
L 183.340506 226.648615 
L 184.207649 227.239385 
L 184.426818 227.830154 
L 184.626927 228.420923 
L 184.817508 229.011692 
L 184.989031 229.602462 
L 185.151025 230.784 
L 185.274902 230.784 
L 185.484541 230.784 
L 185.579832 231.374769 
L 187.361763 231.965538 
L 188.162203 232.556308 
L 188.800649 233.147077 
L 189.505798 233.737846 
L 189.68685 234.328615 
L 189.696379 234.919385 
L 189.724966 235.510154 
L 190.048954 236.100923 
L 190.277651 236.691692 
L 190.296709 237.282462 
L 190.534935 238.464 
L 190.744574 239.054769 
L 191.030445 239.645538 
L 191.545014 240.236308 
L 191.554543 240.827077 
L 192.345453 241.417846 
L 192.402628 242.008615 
L 192.736144 242.599385 
L 192.764731 243.190154 
L 192.78379 243.780923 
L 193.984449 244.371692 
L 194.413256 244.962462 
L 194.965941 246.144 
L 195.080289 246.734769 
L 196.509646 247.325538 
L 196.87175 247.916308 
L 197.281499 248.507077 
L 198.177229 249.097846 
L 198.405926 249.688615 
L 198.444042 250.279385 
L 199.053901 250.870154 
L 200.092567 251.460923 
L 200.349851 252.051692 
L 200.368909 252.642462 
L 200.864419 253.233231 
L 201.026413 253.824 
L 201.798266 254.414769 
L 202.370008 255.005538 
L 202.560589 255.596308 
L 202.95128 256.187077 
L 203.027512 256.777846 
L 203.932772 257.368615 
L 203.989946 257.959385 
L 204.094765 258.550154 
L 204.64745 259.140923 
L 205.066728 259.731692 
L 205.200134 259.731692 
L 205.409773 260.322462 
L 206.229271 261.504 
L 206.486555 261.504 
L 207.010653 262.094769 
L 207.315582 262.685538 
L 207.630041 263.276308 
L 209.03081 263.867077 
L 209.183275 264.457846 
L 209.669256 265.048615 
L 209.907482 265.048615 
L 210.145709 266.230154 
L 210.488754 266.820923 
L 210.622161 267.411692 
L 212.013401 268.002462 
L 212.670905 268.593231 
L 212.985364 269.184 
L 213.795333 269.774769 
L 214.214611 270.365538 
L 215.643967 270.956308 
L 216.082303 271.547077 
L 216.120419 272.137846 
L 216.444407 272.728615 
L 217.025679 273.319385 
L 217.778473 273.910154 
L 218.131048 274.500923 
L 218.359745 275.091692 
L 218.740907 275.682462 
L 219.865334 276.273231 
L 221.132697 276.864 
L 222.581112 277.454769 
L 222.971802 278.045538 
L 223.286261 278.636308 
L 224.353514 279.227077 
L 225.28736 279.817846 
L 226.831065 280.999385 
L 227.793499 281.590154 
L 228.18419 282.180923 
L 228.298538 282.771692 
L 228.58441 283.362462 
L 229.737424 283.953231 
L 230.271051 285.134769 
L 230.356812 285.725538 
L 230.747503 286.316308 
L 234.120784 286.907077 
L 234.873579 287.497846 
L 235.083218 288.088615 
L 236.198116 288.679385 
L 236.464929 289.270154 
L 237.970518 289.860923 
L 238.380267 290.451692 
L 238.418384 291.042462 
L 239.437991 291.633231 
L 241.553439 292.224 
L 244.850489 292.814769 
L 250.272515 293.996308 
L 250.796612 294.587077 
L 251.034838 295.768615 
L 251.730459 296.359385 
L 254.379533 296.359385 
L 255.065624 296.950154 
L 258.105389 297.540923 
L 260.19225 298.131692 
L 261.08798 298.722462 
L 262.307698 299.313231 
L 262.38393 299.904 
L 266.462361 300.494769 
L 269.807056 301.085538 
L 277.258769 302.267077 
L 280.022192 302.857846 
L 280.813102 303.448615 
L 283.748048 304.039385 
L 311.2584 304.630154 
L 325.942657 305.220923 
L 326.00936 305.811692 
L 326.228528 306.402462 
L 398.487273 306.993231 
L 398.487273 306.993231 
L 398.487273 306.993231 
L 326.228528 306.402462 
L 326.00936 305.811692 
L 325.942657 305.220923 
L 311.2584 304.630154 
L 283.748048 304.039385 
L 280.813102 303.448615 
L 280.022192 302.857846 
L 277.258769 302.267077 
L 269.807056 301.085538 
L 266.462361 300.494769 
L 262.38393 299.904 
L 262.307698 299.313231 
L 261.08798 298.722462 
L 260.19225 298.131692 
L 258.105389 297.540923 
L 255.065624 296.950154 
L 254.379533 296.359385 
L 251.730459 295.768615 
L 251.034838 295.177846 
L 250.796612 293.996308 
L 250.272515 293.405538 
L 244.850489 292.224 
L 241.553439 291.633231 
L 239.437991 291.042462 
L 238.418384 290.451692 
L 238.380267 289.860923 
L 237.970518 289.270154 
L 236.464929 288.679385 
L 236.198116 288.088615 
L 235.083218 287.497846 
L 234.873579 286.907077 
L 234.120784 286.316308 
L 230.747503 285.725538 
L 230.356812 285.134769 
L 230.271051 284.544 
L 229.737424 283.362462 
L 228.58441 282.771692 
L 228.298538 282.180923 
L 228.18419 281.590154 
L 227.793499 280.999385 
L 226.831065 280.408615 
L 225.28736 279.227077 
L 224.353514 278.636308 
L 223.286261 278.045538 
L 222.971802 277.454769 
L 222.581112 276.864 
L 221.132697 276.273231 
L 219.865334 275.682462 
L 218.740907 275.091692 
L 218.359745 274.500923 
L 218.131048 273.910154 
L 217.778473 273.319385 
L 217.025679 272.728615 
L 216.444407 272.137846 
L 216.120419 271.547077 
L 216.082303 270.956308 
L 215.643967 270.365538 
L 214.214611 269.774769 
L 213.795333 269.184 
L 212.985364 268.593231 
L 212.670905 268.002462 
L 212.013401 267.411692 
L 210.622161 266.820923 
L 210.488754 266.230154 
L 210.145709 265.639385 
L 209.907482 264.457846 
L 209.669256 263.867077 
L 209.183275 263.276308 
L 209.03081 262.685538 
L 207.630041 262.094769 
L 207.315582 261.504 
L 207.010653 260.913231 
L 206.486555 260.322462 
L 206.229271 259.731692 
L 205.409773 257.959385 
L 205.200134 257.368615 
L 205.066728 256.777846 
L 204.64745 256.187077 
L 204.094765 255.005538 
L 203.989946 254.414769 
L 203.932772 253.824 
L 203.027512 253.233231 
L 202.95128 252.642462 
L 202.560589 252.051692 
L 202.370008 251.460923 
L 201.798266 250.870154 
L 201.026413 250.279385 
L 200.864419 249.688615 
L 200.368909 249.097846 
L 200.349851 248.507077 
L 200.092567 247.916308 
L 199.053901 247.325538 
L 198.444042 246.734769 
L 198.405926 246.144 
L 198.177229 245.553231 
L 197.281499 244.962462 
L 196.87175 244.371692 
L 196.509646 243.780923 
L 195.080289 243.190154 
L 194.965941 242.599385 
L 194.413256 240.827077 
L 193.984449 240.236308 
L 192.78379 239.645538 
L 192.764731 239.054769 
L 192.736144 238.464 
L 192.402628 237.873231 
L 192.345453 237.282462 
L 191.554543 236.691692 
L 191.545014 236.100923 
L 191.030445 235.510154 
L 190.744574 234.919385 
L 190.534935 234.328615 
L 190.296709 233.147077 
L 190.277651 232.556308 
L 190.048954 231.965538 
L 189.724966 231.374769 
L 189.696379 230.784 
L 189.68685 230.193231 
L 189.505798 229.602462 
L 188.800649 229.011692 
L 188.162203 228.420923 
L 187.361763 227.830154 
L 185.579832 227.239385 
L 185.484541 226.648615 
L 185.274902 226.057846 
L 185.151025 225.467077 
L 184.989031 224.285538 
L 184.817508 223.694769 
L 184.626927 223.104 
L 184.426818 222.513231 
L 184.207649 221.922462 
L 183.340506 221.331692 
L 183.330977 220.740923 
L 183.235687 220.150154 
L 182.778293 219.559385 
L 182.749706 218.968615 
L 182.397131 218.377846 
L 182.330428 217.787077 
L 181.244117 217.196308 
L 181.11071 216.605538 
L 180.853426 216.014769 
L 180.100631 215.424 
L 179.929109 214.833231 
L 179.21443 214.242462 
L 178.985733 213.651692 
L 178.452107 213.060923 
L 178.166235 212.470154 
L 177.032279 211.879385 
L 177.013221 211.288615 
L 176.936989 210.697846 
L 176.832169 210.107077 
L 176.651117 209.516308 
L 176.060316 208.925538 
L 175.803032 208.334769 
L 175.612451 207.744 
L 175.498103 207.153231 
L 174.993063 206.562462 
L 174.478495 205.971692 
L 174.468966 204.790154 
L 174.440379 204.199385 
L 174.12592 203.608615 
L 173.601823 203.017846 
L 173.487474 202.427077 
L 173.249248 201.836308 
L 173.239719 201.245538 
L 173.1349 200.654769 
L 173.106313 200.064 
L 172.639389 198.882462 
L 172.115292 198.291692 
L 170.781226 197.700923 
L 170.209483 197.110154 
L 170.171367 196.519385 
L 170.114193 195.928615 
L 169.847379 195.337846 
L 169.561508 194.747077 
L 169.037411 194.156308 
L 168.589546 193.565538 
L 168.132151 192.974769 
L 168.008274 192.384 
L 167.274537 191.793231 
L 167.169718 190.611692 
L 166.759969 190.020923 
L 166.331162 189.430154 
L 166.312104 188.839385 
L 165.873768 187.657846 
L 165.483077 187.067077 
L 165.206735 185.885538 
L 165.149561 185.294769 
L 165.035212 184.704 
L 164.387237 183.522462 
L 164.311005 182.340923 
L 164.272888 181.750154 
L 164.091837 181.159385 
L 163.615384 180.568615 
L 163.205635 179.387077 
L 162.929293 178.796308 
L 162.338492 178.205538 
L 161.928743 177.614769 
L 161.56664 177.024 
L 161.337943 176.433231 
L 160.756671 175.842462 
L 160.661381 175.251692 
L 160.337393 174.660923 
L 159.975289 174.070154 
L 159.613186 173.479385 
L 159.260611 172.888615 
L 159.098617 172.297846 
L 159.003327 171.707077 
L 158.97474 170.525538 
L 158.736514 169.934769 
L 157.726435 169.344 
L 157.116576 168.753231 
L 156.544833 168.162462 
L 156.487659 167.571692 
L 156.325665 166.980923 
L 156.173201 166.390154 
L 155.267941 165.799385 
L 155.201238 165.208615 
L 154.772431 164.027077 
L 154.724786 163.436308 
L 154.696199 162.845538 
L 153.933875 162.254769 
L 153.848114 161.664 
L 153.123906 161.073231 
L 152.552164 160.482462 
L 152.428286 159.300923 
L 152.218647 158.710154 
L 151.38962 158.119385 
L 150.855994 157.528615 
L 150.312838 156.937846 
L 149.579102 156.347077 
L 148.893011 155.756308 
L 148.854894 155.165538 
L 148.711959 154.574769 
L 148.530907 153.984 
L 147.130137 153.393231 
L 146.739447 152.802462 
L 146.558395 151.620923 
L 145.662665 151.030154 
L 145.281503 150.439385 
L 145.271974 149.848615 
L 145.20527 149.257846 
L 145.052806 148.076308 
L 143.918849 147.485538 
L 143.852146 146.894769 
L 143.185113 146.304 
L 142.108331 145.713231 
L 142.098802 145.122462 
L 141.107781 144.531692 
L 141.012491 143.940923 
L 140.888613 143.350154 
L 140.374045 142.759385 
L 139.03045 142.168615 
L 138.411062 141.577846 
L 138.334829 140.987077 
L 137.867906 140.396308 
L 137.458157 139.805538 
L 137.267576 139.214769 
L 137.172286 138.624 
L 136.762537 138.033231 
L 135.647639 137.442462 
L 135.028251 136.851692 
L 134.904373 136.260923 
L 134.14205 135.670154 
L 134.113463 135.079385 
L 133.455959 134.488615 
L 133.151029 133.897846 
L 133.008093 133.307077 
L 132.950919 132.716308 
L 132.779396 132.125538 
L 132.026602 131.534769 
L 131.359569 130.944 
L 130.625832 130.353231 
L 130.416193 129.762462 
L 129.634812 129.171692 
L 128.815314 128.580923 
L 128.281687 127.990154 
L 127.633712 127.399385 
L 127.223963 126.808615 
L 126.537872 126.217846 
L 126.118594 125.627077 
L 125.051341 125.036308 
L 124.746412 124.445538 
L 123.297997 123.854769 
L 123.183649 123.264 
L 123.078829 122.673231 
L 122.535674 122.082462 
L 122.421325 121.491692 
L 121.325485 120.900923 
L 120.27729 120.310154 
L 120.248703 119.719385 
L 118.752643 119.128615 
L 118.342894 118.537846 
L 117.78068 117.947077 
L 116.827776 117.356308 
L 116.560963 116.765538 
L 115.970162 116.174769 
L 115.398419 115.584 
L 113.702249 114.993231 
L 113.19721 114.402462 
L 112.492061 113.811692 
L 111.853615 113.220923 
L 111.196111 112.630154 
L 110.681542 112.039385 
L 110.414729 111.448615 
L 109.566644 110.857846 
L 106.71746 110.267077 
L 106.479234 109.676308 
L 105.907491 109.085538 
L 104.640128 107.904 
L 104.154147 107.313231 
L 103.687224 106.722462 
L 103.248888 106.131692 
L 103.039249 105.540923 
L 102.591384 104.950154 
L 100.571226 104.359385 
L 100.180535 103.768615 
L 99.93278 103.177846 
L 99.561147 102.587077 
L 98.379546 101.996308 
L 96.24504 101.405538 
L 94.84427 100.814769 
L 93.500675 100.224 
L 93.157629 99.633231 
L 92.709764 99.042462 
L 92.309545 98.451692 
L 91.65204 97.860923 
L 91.480518 97.270154 
L 91.080298 96.679385 
L 89.831993 96.088615 
L 89.517534 95.497846 
L 89.488947 94.907077 
L 89.212605 94.316308 
L 88.507456 93.725538 
L 87.754661 93.134769 
L 87.478319 92.544 
L 86.830344 91.953231 
L 86.144253 91.362462 
L 85.820265 90.180923 
L 83.599998 88.999385 
L 82.913907 87.817846 
L 82.599448 87.227077 
L 82.227815 86.636308 
L 81.999118 86.045538 
L 81.722776 84.864 
L 81.332085 84.273231 
L 80.912807 83.682462 
L 80.807988 83.091692 
L 80.78893 82.500923 
L 80.484 81.910154 
L 80.236245 81.319385 
L 80.226716 80.137846 
L 80.026606 79.547077 
L 79.8932 78.956308 
L 79.397689 78.365538 
L 79.111818 77.774769 
L 79.054644 77.184 
L 78.797359 76.593231 
L 78.406669 76.002462 
L 78.187501 74.820923 
L 77.815868 74.230154 
L 77.777752 73.048615 
L 77.749165 72.457846 
L 77.206009 71.276308 
L 77.120248 70.685538 
L 76.834376 70.094769 
L 76.691441 69.504 
L 76.462744 68.322462 
L 76.310279 67.731692 
L 76.234046 67.140923 
L 76.214988 66.550154 
L 76.138756 65.959385 
L 75.776652 64.777846 
L 75.586071 64.187077 
L 75.223968 63.596308 
L 75.023858 62.414769 
L 75.014329 61.824 
L 74.976213 61.233231 
L 74.509289 60.051692 
L 74.490231 59.460923 
L 74.347296 58.870154 
L 74.337767 58.279385 
L 74.318709 57.688615 
L 74.156715 55.916308 
L 74.042366 55.325538 
L 73.880372 54.734769 
L 73.832727 54.144 
z
" clip-path="url(#p878ae07fc0)" style="fill: #ff0000"/>
   </g>
   <g id="matplotlib.axis_1">
    <g id="xtick_1">
     <g id="line2d_1">
      <defs>
       <path id="m3416c600b7" d="M 0 0 
L 0 3.5 
" style="stroke: #000000; stroke-width: 0.8"/>
      </defs>
      <g>
       <use xlink:href="#m3416c600b7" x="67.457797" y="307.584" style="stroke: #000000; stroke-width: 0.8"/>
      </g>
     </g>
     <g id="text_1">
      <!-- 0 -->
      <g transform="translate(64.276547 322.182437)scale(0.1 -0.1)">
       <defs>
        <path id="DejaVuSans-30" d="M 2034 4250 
Q 1547 4250 1301 3770 
Q 1056 3291 1056 2328 
Q 1056 1369 1301 889 
Q 1547 409 2034 409 
Q 2525 409 2770 889 
Q 3016 1369 3016 2328 
Q 3016 3291 2770 3770 
Q 2525 4250 2034 4250 
z
M 2034 4750 
Q 2819 4750 3233 4129 
Q 3647 3509 3647 2328 
Q 3647 1150 3233 529 
Q 2819 -91 2034 -91 
Q 1250 -91 836 529 
Q 422 1150 422 2328 
Q 422 3509 836 4129 
Q 1250 4750 2034 4750 
z
" transform="scale(0.015625)"/>
       </defs>
       <use xlink:href="#DejaVuSans-30"/>
      </g>
     </g>
    </g>
    <g id="xtick_2">
     <g id="line2d_2">
      <g>
       <use xlink:href="#m3416c600b7" x="115.103019" y="307.584" style="stroke: #000000; stroke-width: 0.8"/>
      </g>
     </g>
     <g id="text_2">
      <!-- 50 -->
      <g transform="translate(108.740519 322.182437)scale(0.1 -0.1)">
       <defs>
        <path id="DejaVuSans-35" d="M 691 4666 
L 3169 4666 
L 3169 4134 
L 1269 4134 
L 1269 2991 
Q 1406 3038 1543 3061 
Q 1681 3084 1819 3084 
Q 2600 3084 3056 2656 
Q 3513 2228 3513 1497 
Q 3513 744 3044 326 
Q 2575 -91 1722 -91 
Q 1428 -91 1123 -41 
Q 819 9 494 109 
L 494 744 
Q 775 591 1075 516 
Q 1375 441 1709 441 
Q 2250 441 2565 725 
Q 2881 1009 2881 1497 
Q 2881 1984 2565 2268 
Q 2250 2553 1709 2553 
Q 1456 2553 1204 2497 
Q 953 2441 691 2322 
L 691 4666 
z
" transform="scale(0.015625)"/>
       </defs>
       <use xlink:href="#DejaVuSans-35"/>
       <use xlink:href="#DejaVuSans-30" x="63.623047"/>
      </g>
     </g>
    </g>
    <g id="xtick_3">
     <g id="line2d_3">
      <g>
       <use xlink:href="#m3416c600b7" x="162.748241" y="307.584" style="stroke: #000000; stroke-width: 0.8"/>
      </g>
     </g>
     <g id="text_3">
      <!-- 100 -->
      <g transform="translate(153.204491 322.182437)scale(0.1 -0.1)">
       <defs>
        <path id="DejaVuSans-31" d="M 794 531 
L 1825 531 
L 1825 4091 
L 703 3866 
L 703 4441 
L 1819 4666 
L 2450 4666 
L 2450 531 
L 3481 531 
L 3481 0 
L 794 0 
L 794 531 
z
" transform="scale(0.015625)"/>
       </defs>
       <use xlink:href="#DejaVuSans-31"/>
       <use xlink:href="#DejaVuSans-30" x="63.623047"/>
       <use xlink:href="#DejaVuSans-30" x="127.246094"/>
      </g>
     </g>
    </g>
    <g id="xtick_4">
     <g id="line2d_4">
      <g>
       <use xlink:href="#m3416c600b7" x="210.393464" y="307.584" style="stroke: #000000; stroke-width: 0.8"/>
      </g>
     </g>
     <g id="text_4">
      <!-- 150 -->
      <g transform="translate(200.849714 322.182437)scale(0.1 -0.1)">
       <use xlink:href="#DejaVuSans-31"/>
       <use xlink:href="#DejaVuSans-35" x="63.623047"/>
       <use xlink:href="#DejaVuSans-30" x="127.246094"/>
      </g>
     </g>
    </g>
    <g id="xtick_5">
     <g id="line2d_5">
      <g>
       <use xlink:href="#m3416c600b7" x="258.038686" y="307.584" style="stroke: #000000; stroke-width: 0.8"/>
      </g>
     </g>
     <g id="text_5">
      <!-- 200 -->
      <g transform="translate(248.494936 322.182437)scale(0.1 -0.1)">
       <defs>
        <path id="DejaVuSans-32" d="M 1228 531 
L 3431 531 
L 3431 0 
L 469 0 
L 469 531 
Q 828 903 1448 1529 
Q 2069 2156 2228 2338 
Q 2531 2678 2651 2914 
Q 2772 3150 2772 3378 
Q 2772 3750 2511 3984 
Q 2250 4219 1831 4219 
Q 1534 4219 1204 4116 
Q 875 4013 500 3803 
L 500 4441 
Q 881 4594 1212 4672 
Q 1544 4750 1819 4750 
Q 2544 4750 2975 4387 
Q 3406 4025 3406 3419 
Q 3406 3131 3298 2873 
Q 3191 2616 2906 2266 
Q 2828 2175 2409 1742 
Q 1991 1309 1228 531 
z
" transform="scale(0.015625)"/>
       </defs>
       <use xlink:href="#DejaVuSans-32"/>
       <use xlink:href="#DejaVuSans-30" x="63.623047"/>
       <use xlink:href="#DejaVuSans-30" x="127.246094"/>
      </g>
     </g>
    </g>
    <g id="xtick_6">
     <g id="line2d_6">
      <g>
       <use xlink:href="#m3416c600b7" x="305.683909" y="307.584" style="stroke: #000000; stroke-width: 0.8"/>
      </g>
     </g>
     <g id="text_6">
      <!-- 250 -->
      <g transform="translate(296.140159 322.182437)scale(0.1 -0.1)">
       <use xlink:href="#DejaVuSans-32"/>
       <use xlink:href="#DejaVuSans-35" x="63.623047"/>
       <use xlink:href="#DejaVuSans-30" x="127.246094"/>
      </g>
     </g>
    </g>
    <g id="xtick_7">
     <g id="line2d_7">
      <g>
       <use xlink:href="#m3416c600b7" x="353.329131" y="307.584" style="stroke: #000000; stroke-width: 0.8"/>
      </g>
     </g>
     <g id="text_7">
      <!-- 300 -->
      <g transform="translate(343.785381 322.182437)scale(0.1 -0.1)">
       <defs>
        <path id="DejaVuSans-33" d="M 2597 2516 
Q 3050 2419 3304 2112 
Q 3559 1806 3559 1356 
Q 3559 666 3084 287 
Q 2609 -91 1734 -91 
Q 1441 -91 1130 -33 
Q 819 25 488 141 
L 488 750 
Q 750 597 1062 519 
Q 1375 441 1716 441 
Q 2309 441 2620 675 
Q 2931 909 2931 1356 
Q 2931 1769 2642 2001 
Q 2353 2234 1838 2234 
L 1294 2234 
L 1294 2753 
L 1863 2753 
Q 2328 2753 2575 2939 
Q 2822 3125 2822 3475 
Q 2822 3834 2567 4026 
Q 2313 4219 1838 4219 
Q 1578 4219 1281 4162 
Q 984 4106 628 3988 
L 628 4550 
Q 988 4650 1302 4700 
Q 1616 4750 1894 4750 
Q 2613 4750 3031 4423 
Q 3450 4097 3450 3541 
Q 3450 3153 3228 2886 
Q 3006 2619 2597 2516 
z
" transform="scale(0.015625)"/>
       </defs>
       <use xlink:href="#DejaVuSans-33"/>
       <use xlink:href="#DejaVuSans-30" x="63.623047"/>
       <use xlink:href="#DejaVuSans-30" x="127.246094"/>
      </g>
     </g>
    </g>
    <g id="xtick_8">
     <g id="line2d_8">
      <g>
       <use xlink:href="#m3416c600b7" x="400.974353" y="307.584" style="stroke: #000000; stroke-width: 0.8"/>
      </g>
     </g>
     <g id="text_8">
      <!-- 350 -->
      <g transform="translate(391.430603 322.182437)scale(0.1 -0.1)">
       <use xlink:href="#DejaVuSans-33"/>
       <use xlink:href="#DejaVuSans-35" x="63.623047"/>
       <use xlink:href="#DejaVuSans-30" x="127.246094"/>
      </g>
     </g>
    </g>
    <g id="text_9">
     <!-- Score -->
     <g transform="translate(222.157656 335.860562)scale(0.1 -0.1)">
      <defs>
       <path id="DejaVuSans-53" d="M 3425 4513 
L 3425 3897 
Q 3066 4069 2747 4153 
Q 2428 4238 2131 4238 
Q 1616 4238 1336 4038 
Q 1056 3838 1056 3469 
Q 1056 3159 1242 3001 
Q 1428 2844 1947 2747 
L 2328 2669 
Q 3034 2534 3370 2195 
Q 3706 1856 3706 1288 
Q 3706 609 3251 259 
Q 2797 -91 1919 -91 
Q 1588 -91 1214 -16 
Q 841 59 441 206 
L 441 856 
Q 825 641 1194 531 
Q 1563 422 1919 422 
Q 2459 422 2753 634 
Q 3047 847 3047 1241 
Q 3047 1584 2836 1778 
Q 2625 1972 2144 2069 
L 1759 2144 
Q 1053 2284 737 2584 
Q 422 2884 422 3419 
Q 422 4038 858 4394 
Q 1294 4750 2059 4750 
Q 2388 4750 2728 4690 
Q 3069 4631 3425 4513 
z
" transform="scale(0.015625)"/>
       <path id="DejaVuSans-63" d="M 3122 3366 
L 3122 2828 
Q 2878 2963 2633 3030 
Q 2388 3097 2138 3097 
Q 1578 3097 1268 2742 
Q 959 2388 959 1747 
Q 959 1106 1268 751 
Q 1578 397 2138 397 
Q 2388 397 2633 464 
Q 2878 531 3122 666 
L 3122 134 
Q 2881 22 2623 -34 
Q 2366 -91 2075 -91 
Q 1284 -91 818 406 
Q 353 903 353 1747 
Q 353 2603 823 3093 
Q 1294 3584 2113 3584 
Q 2378 3584 2631 3529 
Q 2884 3475 3122 3366 
z
" transform="scale(0.015625)"/>
       <path id="DejaVuSans-6f" d="M 1959 3097 
Q 1497 3097 1228 2736 
Q 959 2375 959 1747 
Q 959 1119 1226 758 
Q 1494 397 1959 397 
Q 2419 397 2687 759 
Q 2956 1122 2956 1747 
Q 2956 2369 2687 2733 
Q 2419 3097 1959 3097 
z
M 1959 3584 
Q 2709 3584 3137 3096 
Q 3566 2609 3566 1747 
Q 3566 888 3137 398 
Q 2709 -91 1959 -91 
Q 1206 -91 779 398 
Q 353 888 353 1747 
Q 353 2609 779 3096 
Q 1206 3584 1959 3584 
z
" transform="scale(0.015625)"/>
       <path id="DejaVuSans-72" d="M 2631 2963 
Q 2534 3019 2420 3045 
Q 2306 3072 2169 3072 
Q 1681 3072 1420 2755 
Q 1159 2438 1159 1844 
L 1159 0 
L 581 0 
L 581 3500 
L 1159 3500 
L 1159 2956 
Q 1341 3275 1631 3429 
Q 1922 3584 2338 3584 
Q 2397 3584 2469 3576 
Q 2541 3569 2628 3553 
L 2631 2963 
z
" transform="scale(0.015625)"/>
       <path id="DejaVuSans-65" d="M 3597 1894 
L 3597 1613 
L 953 1613 
Q 991 1019 1311 708 
Q 1631 397 2203 397 
Q 2534 397 2845 478 
Q 3156 559 3463 722 
L 3463 178 
Q 3153 47 2828 -22 
Q 2503 -91 2169 -91 
Q 1331 -91 842 396 
Q 353 884 353 1716 
Q 353 2575 817 3079 
Q 1281 3584 2069 3584 
Q 2775 3584 3186 3129 
Q 3597 2675 3597 1894 
z
M 3022 2063 
Q 3016 2534 2758 2815 
Q 2500 3097 2075 3097 
Q 1594 3097 1305 2825 
Q 1016 2553 972 2059 
L 3022 2063 
z
" transform="scale(0.015625)"/>
      </defs>
      <use xlink:href="#DejaVuSans-53"/>
      <use xlink:href="#DejaVuSans-63" x="63.476562"/>
      <use xlink:href="#DejaVuSans-6f" x="118.457031"/>
      <use xlink:href="#DejaVuSans-72" x="179.638672"/>
      <use xlink:href="#DejaVuSans-65" x="218.501953"/>
     </g>
    </g>
   </g>
   <g id="matplotlib.axis_2">
    <g id="ytick_1">
     <g id="line2d_9">
      <defs>
       <path id="m61542e70ff" d="M 0 0 
L -3.5 0 
" style="stroke: #000000; stroke-width: 0.8"/>
      </defs>
      <g>
       <use xlink:href="#m61542e70ff" x="57.6" y="307.584" style="stroke: #000000; stroke-width: 0.8"/>
      </g>
     </g>
     <g id="text_10">
      <!-- 0 -->
      <g transform="translate(44.2375 311.383219)scale(0.1 -0.1)">
       <use xlink:href="#DejaVuSans-30"/>
      </g>
     </g>
    </g>
    <g id="ytick_2">
     <g id="line2d_10">
      <g>
       <use xlink:href="#m61542e70ff" x="57.6" y="248.507077" style="stroke: #000000; stroke-width: 0.8"/>
      </g>
     </g>
     <g id="text_11">
      <!-- 100 -->
      <g transform="translate(31.5125 252.306296)scale(0.1 -0.1)">
       <use xlink:href="#DejaVuSans-31"/>
       <use xlink:href="#DejaVuSans-30" x="63.623047"/>
       <use xlink:href="#DejaVuSans-30" x="127.246094"/>
      </g>
     </g>
    </g>
    <g id="ytick_3">
     <g id="line2d_11">
      <g>
       <use xlink:href="#m61542e70ff" x="57.6" y="189.430154" style="stroke: #000000; stroke-width: 0.8"/>
      </g>
     </g>
     <g id="text_12">
      <!-- 200 -->
      <g transform="translate(31.5125 193.229373)scale(0.1 -0.1)">
       <use xlink:href="#DejaVuSans-32"/>
       <use xlink:href="#DejaVuSans-30" x="63.623047"/>
       <use xlink:href="#DejaVuSans-30" x="127.246094"/>
      </g>
     </g>
    </g>
    <g id="ytick_4">
     <g id="line2d_12">
      <g>
       <use xlink:href="#m61542e70ff" x="57.6" y="130.353231" style="stroke: #000000; stroke-width: 0.8"/>
      </g>
     </g>
     <g id="text_13">
      <!-- 300 -->
      <g transform="translate(31.5125 134.15245)scale(0.1 -0.1)">
       <use xlink:href="#DejaVuSans-33"/>
       <use xlink:href="#DejaVuSans-30" x="63.623047"/>
       <use xlink:href="#DejaVuSans-30" x="127.246094"/>
      </g>
     </g>
    </g>
    <g id="ytick_5">
     <g id="line2d_13">
      <g>
       <use xlink:href="#m61542e70ff" x="57.6" y="71.276308" style="stroke: #000000; stroke-width: 0.8"/>
      </g>
     </g>
     <g id="text_14">
      <!-- 400 -->
      <g transform="translate(31.5125 75.075526)scale(0.1 -0.1)">
       <defs>
        <path id="DejaVuSans-34" d="M 2419 4116 
L 825 1625 
L 2419 1625 
L 2419 4116 
z
M 2253 4666 
L 3047 4666 
L 3047 1625 
L 3713 1625 
L 3713 1100 
L 3047 1100 
L 3047 0 
L 2419 0 
L 2419 1100 
L 313 1100 
L 313 1709 
L 2253 4666 
z
" transform="scale(0.015625)"/>
       </defs>
       <use xlink:href="#DejaVuSans-34"/>
       <use xlink:href="#DejaVuSans-30" x="63.623047"/>
       <use xlink:href="#DejaVuSans-30" x="127.246094"/>
      </g>
     </g>
    </g>
    <g id="text_15">
     <!-- Number of crosslinks -->
     <g transform="translate(25.432812 227.019406)rotate(-90)scale(0.1 -0.1)">
      <defs>
       <path id="DejaVuSans-4e" d="M 628 4666 
L 1478 4666 
L 3547 763 
L 3547 4666 
L 4159 4666 
L 4159 0 
L 3309 0 
L 1241 3903 
L 1241 0 
L 628 0 
L 628 4666 
z
" transform="scale(0.015625)"/>
       <path id="DejaVuSans-75" d="M 544 1381 
L 544 3500 
L 1119 3500 
L 1119 1403 
Q 1119 906 1312 657 
Q 1506 409 1894 409 
Q 2359 409 2629 706 
Q 2900 1003 2900 1516 
L 2900 3500 
L 3475 3500 
L 3475 0 
L 2900 0 
L 2900 538 
Q 2691 219 2414 64 
Q 2138 -91 1772 -91 
Q 1169 -91 856 284 
Q 544 659 544 1381 
z
M 1991 3584 
L 1991 3584 
z
" transform="scale(0.015625)"/>
       <path id="DejaVuSans-6d" d="M 3328 2828 
Q 3544 3216 3844 3400 
Q 4144 3584 4550 3584 
Q 5097 3584 5394 3201 
Q 5691 2819 5691 2113 
L 5691 0 
L 5113 0 
L 5113 2094 
Q 5113 2597 4934 2840 
Q 4756 3084 4391 3084 
Q 3944 3084 3684 2787 
Q 3425 2491 3425 1978 
L 3425 0 
L 2847 0 
L 2847 2094 
Q 2847 2600 2669 2842 
Q 2491 3084 2119 3084 
Q 1678 3084 1418 2786 
Q 1159 2488 1159 1978 
L 1159 0 
L 581 0 
L 581 3500 
L 1159 3500 
L 1159 2956 
Q 1356 3278 1631 3431 
Q 1906 3584 2284 3584 
Q 2666 3584 2933 3390 
Q 3200 3197 3328 2828 
z
" transform="scale(0.015625)"/>
       <path id="DejaVuSans-62" d="M 3116 1747 
Q 3116 2381 2855 2742 
Q 2594 3103 2138 3103 
Q 1681 3103 1420 2742 
Q 1159 2381 1159 1747 
Q 1159 1113 1420 752 
Q 1681 391 2138 391 
Q 2594 391 2855 752 
Q 3116 1113 3116 1747 
z
M 1159 2969 
Q 1341 3281 1617 3432 
Q 1894 3584 2278 3584 
Q 2916 3584 3314 3078 
Q 3713 2572 3713 1747 
Q 3713 922 3314 415 
Q 2916 -91 2278 -91 
Q 1894 -91 1617 61 
Q 1341 213 1159 525 
L 1159 0 
L 581 0 
L 581 4863 
L 1159 4863 
L 1159 2969 
z
" transform="scale(0.015625)"/>
       <path id="DejaVuSans-20" transform="scale(0.015625)"/>
       <path id="DejaVuSans-66" d="M 2375 4863 
L 2375 4384 
L 1825 4384 
Q 1516 4384 1395 4259 
Q 1275 4134 1275 3809 
L 1275 3500 
L 2222 3500 
L 2222 3053 
L 1275 3053 
L 1275 0 
L 697 0 
L 697 3053 
L 147 3053 
L 147 3500 
L 697 3500 
L 697 3744 
Q 697 4328 969 4595 
Q 1241 4863 1831 4863 
L 2375 4863 
z
" transform="scale(0.015625)"/>
       <path id="DejaVuSans-73" d="M 2834 3397 
L 2834 2853 
Q 2591 2978 2328 3040 
Q 2066 3103 1784 3103 
Q 1356 3103 1142 2972 
Q 928 2841 928 2578 
Q 928 2378 1081 2264 
Q 1234 2150 1697 2047 
L 1894 2003 
Q 2506 1872 2764 1633 
Q 3022 1394 3022 966 
Q 3022 478 2636 193 
Q 2250 -91 1575 -91 
Q 1294 -91 989 -36 
Q 684 19 347 128 
L 347 722 
Q 666 556 975 473 
Q 1284 391 1588 391 
Q 1994 391 2212 530 
Q 2431 669 2431 922 
Q 2431 1156 2273 1281 
Q 2116 1406 1581 1522 
L 1381 1569 
Q 847 1681 609 1914 
Q 372 2147 372 2553 
Q 372 3047 722 3315 
Q 1072 3584 1716 3584 
Q 2034 3584 2315 3537 
Q 2597 3491 2834 3397 
z
" transform="scale(0.015625)"/>
       <path id="DejaVuSans-6c" d="M 603 4863 
L 1178 4863 
L 1178 0 
L 603 0 
L 603 4863 
z
" transform="scale(0.015625)"/>
       <path id="DejaVuSans-69" d="M 603 3500 
L 1178 3500 
L 1178 0 
L 603 0 
L 603 3500 
z
M 603 4863 
L 1178 4863 
L 1178 4134 
L 603 4134 
L 603 4863 
z
" transform="scale(0.015625)"/>
       <path id="DejaVuSans-6e" d="M 3513 2113 
L 3513 0 
L 2938 0 
L 2938 2094 
Q 2938 2591 2744 2837 
Q 2550 3084 2163 3084 
Q 1697 3084 1428 2787 
Q 1159 2491 1159 1978 
L 1159 0 
L 581 0 
L 581 3500 
L 1159 3500 
L 1159 2956 
Q 1366 3272 1645 3428 
Q 1925 3584 2291 3584 
Q 2894 3584 3203 3211 
Q 3513 2838 3513 2113 
z
" transform="scale(0.015625)"/>
       <path id="DejaVuSans-6b" d="M 581 4863 
L 1159 4863 
L 1159 1991 
L 2875 3500 
L 3609 3500 
L 1753 1863 
L 3688 0 
L 2938 0 
L 1159 1709 
L 1159 0 
L 581 0 
L 581 4863 
z
" transform="scale(0.015625)"/>
      </defs>
      <use xlink:href="#DejaVuSans-4e"/>
      <use xlink:href="#DejaVuSans-75" x="74.804688"/>
      <use xlink:href="#DejaVuSans-6d" x="138.183594"/>
      <use xlink:href="#DejaVuSans-62" x="235.595703"/>
      <use xlink:href="#DejaVuSans-65" x="299.072266"/>
      <use xlink:href="#DejaVuSans-72" x="360.595703"/>
      <use xlink:href="#DejaVuSans-20" x="401.708984"/>
      <use xlink:href="#DejaVuSans-6f" x="433.496094"/>
      <use xlink:href="#DejaVuSans-66" x="494.677734"/>
      <use xlink:href="#DejaVuSans-20" x="529.882812"/>
      <use xlink:href="#DejaVuSans-63" x="561.669922"/>
      <use xlink:href="#DejaVuSans-72" x="616.650391"/>
      <use xlink:href="#DejaVuSans-6f" x="655.513672"/>
      <use xlink:href="#DejaVuSans-73" x="716.695312"/>
      <use xlink:href="#DejaVuSans-73" x="768.794922"/>
      <use xlink:href="#DejaVuSans-6c" x="820.894531"/>
      <use xlink:href="#DejaVuSans-69" x="848.677734"/>
      <use xlink:href="#DejaVuSans-6e" x="876.460938"/>
      <use xlink:href="#DejaVuSans-6b" x="939.839844"/>
      <use xlink:href="#DejaVuSans-73" x="997.75"/>
     </g>
    </g>
   </g>
   <g id="patch_3">
    <path d="M 57.6 307.584 
L 57.6 41.472 
" style="fill: none; stroke: #000000; stroke-width: 0.8; stroke-linejoin: miter; stroke-linecap: square"/>
   </g>
   <g id="patch_4">
    <path d="M 414.72 307.584 
L 414.72 41.472 
" style="fill: none; stroke: #000000; stroke-width: 0.8; stroke-linejoin: miter; stroke-linecap: square"/>
   </g>
   <g id="patch_5">
    <path d="M 57.6 307.584 
L 414.72 307.584 
" style="fill: none; stroke: #000000; stroke-width: 0.8; stroke-linejoin: miter; stroke-linecap: square"/>
   </g>
   <g id="patch_6">
    <path d="M 57.6 41.472 
L 414.72 41.472 
" style="fill: none; stroke: #000000; stroke-width: 0.8; stroke-linejoin: miter; stroke-linecap: square"/>
   </g>
   <g id="legend_1">
    <g id="patch_7">
     <path d="M 278.598125 93.506375 
L 407.72 93.506375 
Q 409.72 93.506375 409.72 91.506375 
L 409.72 48.472 
Q 409.72 46.472 407.72 46.472 
L 278.598125 46.472 
Q 276.598125 46.472 276.598125 48.472 
L 276.598125 91.506375 
Q 276.598125 93.506375 278.598125 93.506375 
z
" style="fill: #ffffff; opacity: 0.8; stroke: #cccccc; stroke-linejoin: miter"/>
    </g>
    <g id="patch_8">
     <path d="M 280.598125 58.070438 
L 300.598125 58.070438 
L 300.598125 51.070438 
L 280.598125 51.070438 
z
" style="fill: #008000"/>
    </g>
    <g id="text_16">
     <!-- correct -->
     <g transform="translate(308.598125 58.070438)scale(0.1 -0.1)">
      <defs>
       <path id="DejaVuSans-74" d="M 1172 4494 
L 1172 3500 
L 2356 3500 
L 2356 3053 
L 1172 3053 
L 1172 1153 
Q 1172 725 1289 603 
Q 1406 481 1766 481 
L 2356 481 
L 2356 0 
L 1766 0 
Q 1100 0 847 248 
Q 594 497 594 1153 
L 594 3053 
L 172 3053 
L 172 3500 
L 594 3500 
L 594 4494 
L 1172 4494 
z
" transform="scale(0.015625)"/>
      </defs>
      <use xlink:href="#DejaVuSans-63"/>
      <use xlink:href="#DejaVuSans-6f" x="54.980469"/>
      <use xlink:href="#DejaVuSans-72" x="116.162109"/>
      <use xlink:href="#DejaVuSans-72" x="155.525391"/>
      <use xlink:href="#DejaVuSans-65" x="194.388672"/>
      <use xlink:href="#DejaVuSans-63" x="255.912109"/>
      <use xlink:href="#DejaVuSans-74" x="310.892578"/>
     </g>
    </g>
    <g id="patch_9">
     <path d="M 280.598125 72.748563 
L 300.598125 72.748563 
L 300.598125 65.748563 
L 280.598125 65.748563 
z
" style="fill: #7cfc00"/>
    </g>
    <g id="text_17">
     <!-- correct homeotypic -->
     <g transform="translate(308.598125 72.748563)scale(0.1 -0.1)">
      <defs>
       <path id="DejaVuSans-68" d="M 3513 2113 
L 3513 0 
L 2938 0 
L 2938 2094 
Q 2938 2591 2744 2837 
Q 2550 3084 2163 3084 
Q 1697 3084 1428 2787 
Q 1159 2491 1159 1978 
L 1159 0 
L 581 0 
L 581 4863 
L 1159 4863 
L 1159 2956 
Q 1366 3272 1645 3428 
Q 1925 3584 2291 3584 
Q 2894 3584 3203 3211 
Q 3513 2838 3513 2113 
z
" transform="scale(0.015625)"/>
       <path id="DejaVuSans-79" d="M 2059 -325 
Q 1816 -950 1584 -1140 
Q 1353 -1331 966 -1331 
L 506 -1331 
L 506 -850 
L 844 -850 
Q 1081 -850 1212 -737 
Q 1344 -625 1503 -206 
L 1606 56 
L 191 3500 
L 800 3500 
L 1894 763 
L 2988 3500 
L 3597 3500 
L 2059 -325 
z
" transform="scale(0.015625)"/>
       <path id="DejaVuSans-70" d="M 1159 525 
L 1159 -1331 
L 581 -1331 
L 581 3500 
L 1159 3500 
L 1159 2969 
Q 1341 3281 1617 3432 
Q 1894 3584 2278 3584 
Q 2916 3584 3314 3078 
Q 3713 2572 3713 1747 
Q 3713 922 3314 415 
Q 2916 -91 2278 -91 
Q 1894 -91 1617 61 
Q 1341 213 1159 525 
z
M 3116 1747 
Q 3116 2381 2855 2742 
Q 2594 3103 2138 3103 
Q 1681 3103 1420 2742 
Q 1159 2381 1159 1747 
Q 1159 1113 1420 752 
Q 1681 391 2138 391 
Q 2594 391 2855 752 
Q 3116 1113 3116 1747 
z
" transform="scale(0.015625)"/>
      </defs>
      <use xlink:href="#DejaVuSans-63"/>
      <use xlink:href="#DejaVuSans-6f" x="54.980469"/>
      <use xlink:href="#DejaVuSans-72" x="116.162109"/>
      <use xlink:href="#DejaVuSans-72" x="155.525391"/>
      <use xlink:href="#DejaVuSans-65" x="194.388672"/>
      <use xlink:href="#DejaVuSans-63" x="255.912109"/>
      <use xlink:href="#DejaVuSans-74" x="310.892578"/>
      <use xlink:href="#DejaVuSans-20" x="350.101562"/>
      <use xlink:href="#DejaVuSans-68" x="381.888672"/>
      <use xlink:href="#DejaVuSans-6f" x="445.267578"/>
      <use xlink:href="#DejaVuSans-6d" x="506.449219"/>
      <use xlink:href="#DejaVuSans-65" x="603.861328"/>
      <use xlink:href="#DejaVuSans-6f" x="665.384766"/>
      <use xlink:href="#DejaVuSans-74" x="726.566406"/>
      <use xlink:href="#DejaVuSans-79" x="765.775391"/>
      <use xlink:href="#DejaVuSans-70" x="824.955078"/>
      <use xlink:href="#DejaVuSans-69" x="888.431641"/>
      <use xlink:href="#DejaVuSans-63" x="916.214844"/>
     </g>
    </g>
    <g id="patch_10">
     <path d="M 280.598125 87.426688 
L 300.598125 87.426688 
L 300.598125 80.426688 
L 280.598125 80.426688 
z
" style="fill: #ff0000"/>
    </g>
    <g id="text_18">
     <!-- false -->
     <g transform="translate(308.598125 87.426688)scale(0.1 -0.1)">
      <defs>
       <path id="DejaVuSans-61" d="M 2194 1759 
Q 1497 1759 1228 1600 
Q 959 1441 959 1056 
Q 959 750 1161 570 
Q 1363 391 1709 391 
Q 2188 391 2477 730 
Q 2766 1069 2766 1631 
L 2766 1759 
L 2194 1759 
z
M 3341 1997 
L 3341 0 
L 2766 0 
L 2766 531 
Q 2569 213 2275 61 
Q 1981 -91 1556 -91 
Q 1019 -91 701 211 
Q 384 513 384 1019 
Q 384 1609 779 1909 
Q 1175 2209 1959 2209 
L 2766 2209 
L 2766 2266 
Q 2766 2663 2505 2880 
Q 2244 3097 1772 3097 
Q 1472 3097 1187 3025 
Q 903 2953 641 2809 
L 641 3341 
Q 956 3463 1253 3523 
Q 1550 3584 1831 3584 
Q 2591 3584 2966 3190 
Q 3341 2797 3341 1997 
z
" transform="scale(0.015625)"/>
      </defs>
      <use xlink:href="#DejaVuSans-66"/>
      <use xlink:href="#DejaVuSans-61" x="35.205078"/>
      <use xlink:href="#DejaVuSans-6c" x="96.484375"/>
      <use xlink:href="#DejaVuSans-73" x="124.267578"/>
      <use xlink:href="#DejaVuSans-65" x="176.367188"/>
     </g>
    </g>
   </g>
  </g>
 </g>
 <defs>
  <clipPath id="p878ae07fc0">
   <rect x="57.6" y="41.472" width="357.12" height="266.112"/>
  </clipPath>
 </defs>
</svg>
