<?xml version="1.0" encoding="utf-8" standalone="no"?>
<!DOCTYPE svg PUBLIC "-//W3C//DTD SVG 1.1//EN"
  "http://www.w3.org/Graphics/SVG/1.1/DTD/svg11.dtd">
<svg xmlns:xlink="http://www.w3.org/1999/xlink" width="460.8pt" height="345.6pt" viewBox="0 0 460.8 345.6" xmlns="http://www.w3.org/2000/svg" version="1.1">
 <metadata>
  <rdf:RDF xmlns:dc="http://purl.org/dc/elements/1.1/" xmlns:cc="http://creativecommons.org/ns#" xmlns:rdf="http://www.w3.org/1999/02/22-rdf-syntax-ns#">
   <cc:Work>
    <dc:type rdf:resource="http://purl.org/dc/dcmitype/StillImage"/>
    <dc:date>2022-07-28T12:41:06.195058</dc:date>
    <dc:format>image/svg+xml</dc:format>
    <dc:creator>
     <cc:Agent>
      <dc:title>Matplotlib v3.5.1, https://matplotlib.org/</dc:title>
     </cc:Agent>
    </dc:creator>
   </cc:Work>
  </rdf:RDF>
 </metadata>
 <defs>
  <style type="text/css">*{stroke-linejoin: round; stroke-linecap: butt}</style>
 </defs>
 <g id="figure_1">
  <g id="patch_1">
   <path d="M 0 345.6 
L 460.8 345.6 
L 460.8 0 
L 0 0 
z
" style="fill: #ffffff"/>
  </g>
  <g id="axes_1">
   <g id="patch_2">
    <path d="M 57.6 307.584 
L 414.72 307.584 
L 414.72 41.472 
L 57.6 41.472 
z
" style="fill: #ffffff"/>
   </g>
   <g id="PolyCollection_1">
    <path d="M 73.832727 171.304851 
L 73.832727 307.584 
L 74.000594 307.584 
L 74.224417 307.584 
L 74.280372 307.584 
L 74.350317 307.584 
L 74.532173 307.584 
L 74.742006 307.584 
L 74.769984 307.584 
L 74.909873 307.584 
L 75.021784 307.584 
L 75.049762 307.584 
L 75.175662 307.584 
L 75.189651 307.584 
L 75.273585 307.584 
L 75.301562 307.584 
L 75.497407 307.584 
L 75.805163 307.584 
L 75.875108 307.584 
L 75.903085 307.584 
L 75.97303 307.584 
L 76.140897 307.584 
L 76.238819 307.584 
L 76.49062 307.584 
L 76.980231 307.584 
L 77.078154 307.584 
L 77.413887 307.584 
L 77.427876 307.584 
L 77.483832 307.584 
L 77.679677 307.584 
L 77.693666 307.584 
L 77.88951 307.584 
L 78.029399 307.584 
L 78.127322 307.584 
L 78.141311 307.584 
L 78.155299 307.584 
L 78.169288 307.584 
L 78.239233 307.584 
L 78.379122 307.584 
L 78.602944 307.584 
L 78.672889 307.584 
L 78.812778 307.584 
L 78.980645 307.584 
L 79.008623 307.584 
L 79.120534 307.584 
L 79.148512 307.584 
L 79.162501 307.584 
L 79.456268 307.584 
L 79.638124 307.584 
L 79.666101 307.584 
L 79.889924 307.584 
L 79.987846 307.584 
L 80.015824 307.584 
L 80.057791 307.584 
L 80.267624 307.584 
L 80.32358 307.584 
L 80.393524 307.584 
L 80.659314 307.584 
L 80.911114 307.584 
L 80.939092 307.584 
L 81.023025 307.584 
L 81.051003 307.584 
L 81.148925 307.584 
L 81.610559 307.584 
L 82.030227 307.584 
L 82.044215 307.584 
L 82.24006 307.584 
L 82.36596 307.584 
L 82.505849 307.584 
L 82.701694 307.584 
L 83.107372 307.584 
L 83.205295 307.584 
L 83.26125 307.584 
L 83.331195 307.584 
L 83.750862 307.584 
L 84.128563 307.584 
L 84.15654 307.584 
L 84.268452 307.584 
L 84.436319 307.584 
L 84.450307 307.584 
L 84.54823 307.584 
L 84.702108 307.584 
L 85.135764 307.584 
L 85.163742 307.584 
L 85.345597 307.584 
L 85.583409 307.584 
L 85.723298 307.584 
L 86.100998 307.584 
L 86.184932 307.584 
L 86.21291 307.584 
L 86.310832 307.584 
L 86.422743 307.584 
L 86.800444 307.584 
L 87.052244 307.584 
L 87.178144 307.584 
L 87.318033 307.584 
L 87.332022 307.584 
L 87.36 307.584 
L 87.513878 307.584 
L 87.583823 307.584 
L 87.625789 307.584 
L 87.639778 307.584 
L 87.807645 307.584 
L 87.891578 307.584 
L 88.325235 307.584 
L 88.423157 307.584 
L 88.50709 307.584 
L 88.730913 307.584 
L 88.89878 307.584 
L 88.954735 307.584 
L 88.996702 307.584 
L 89.066647 307.584 
L 89.15058 307.584 
L 89.836036 307.584 
L 89.961937 307.584 
L 90.283681 307.584 
L 90.647393 307.584 
L 90.745315 307.584 
L 91.19296 307.584 
L 91.206949 307.584 
L 91.318861 307.584 
L 91.416783 307.584 
L 91.752517 307.584 
L 91.780495 307.584 
L 92.35404 307.584 
L 92.549884 307.584 
L 92.85764 307.584 
L 93.109441 307.584 
L 93.221352 307.584 
L 93.291296 307.584 
L 93.599052 307.584 
L 93.850853 307.584 
L 94.088664 307.584 
L 94.158609 307.584 
L 94.298498 307.584 
L 95.081876 307.584 
L 95.137832 307.584 
L 95.305699 307.584 
L 95.445588 307.584 
L 95.487555 307.584 
L 95.8093 307.584 
L 96.452789 307.584 
L 96.494756 307.584 
L 97.096279 307.584 
L 97.306113 307.584 
L 97.404035 307.584 
L 97.641846 307.584 
L 97.753758 307.584 
L 98.145447 307.584 
L 98.201403 307.584 
L 98.313314 307.584 
L 98.411236 307.584 
L 98.49517 307.584 
L 99.51636 307.584 
L 99.922038 307.584 
L 99.991983 307.584 
L 100.257772 307.584 
L 100.439628 307.584 
L 101.278962 307.584 
L 102.104308 307.584 
L 102.775775 307.584 
L 103.573143 307.584 
L 104.538377 307.584 
L 105.125911 307.584 
L 105.90929 307.584 
L 106.55278 307.584 
L 106.692669 307.584 
L 107.140314 307.584 
L 107.462059 307.584 
L 107.727848 307.584 
L 110.105962 307.584 
L 110.119951 307.584 
L 110.161918 307.584 
L 110.455685 307.584 
L 110.819396 307.584 
L 110.875352 307.584 
L 111.183108 307.584 
L 111.938509 307.584 
L 113.673133 307.584 
L 115.141969 307.584 
L 115.183935 307.584 
L 116.163159 307.584 
L 116.666759 307.584 
L 117.17036 307.584 
L 117.394183 307.584 
L 117.436149 307.584 
L 118.695151 307.584 
L 119.338641 307.584 
L 119.632408 307.584 
L 121.339054 307.584 
L 121.492932 307.584 
L 121.548888 307.584 
L 124.066891 307.584 
L 124.164813 307.584 
L 125.339882 307.584 
L 126.179216 307.584 
L 126.780739 307.584 
L 126.976584 307.584 
L 128.319519 307.584 
L 128.781153 307.584 
L 129.508576 307.584 
L 129.802343 307.584 
L 130.725611 307.584 
L 131.047355 307.584 
L 133.257603 307.584 
L 133.523392 307.584 
L 134.166882 307.584 
L 134.292782 307.584 
L 137.090563 307.584 
L 137.118541 307.584 
L 137.803997 307.584 
L 138.433498 307.584 
L 139.272833 307.584 
L 140.503856 307.584 
L 140.531834 307.584 
L 140.797623 307.584 
L 141.60898 307.584 
L 141.972692 307.584 
L 142.853993 307.584 
L 144.336817 307.584 
L 144.448728 307.584 
L 144.966318 307.584 
L 145.595818 307.584 
L 145.791663 307.584 
L 147.889999 307.584 
L 149.79249 307.584 
L 150.142213 307.584 
L 150.477947 307.584 
L 150.883625 307.584 
L 150.995536 307.584 
L 151.023514 307.584 
L 151.485148 307.584 
L 151.653015 307.584 
L 151.708971 307.584 
L 152.548305 307.584 
L 152.772127 307.584 
L 155.066308 307.584 
L 155.961598 307.584 
L 156.031543 307.584 
L 156.255365 307.584 
L 156.437221 307.584 
L 157.0947 307.584 
L 158.143868 307.584 
L 159.920459 307.584 
L 160.787771 307.584 
L 160.983616 307.584 
L 161.864917 307.584 
L 161.990817 307.584 
L 162.242617 307.584 
L 163.277796 307.584 
L 165.418099 307.584 
L 167.474468 307.584 
L 168.48167 307.584 
L 169.544827 307.584 
L 169.684716 307.584 
L 169.796627 307.584 
L 170.719895 307.584 
L 172.608397 307.584 
L 174.860611 307.584 
L 175.196345 307.584 
L 176.28748 307.584 
L 176.66518 307.584 
L 176.777091 307.584 
L 177.392603 307.584 
L 177.43457 307.584 
L 177.868226 307.584 
L 177.980137 307.584 
L 178.092049 307.584 
L 178.469749 307.584 
L 180.106451 307.584 
L 180.49814 307.584 
L 181.029719 307.584 
L 181.365453 307.584 
L 182.190798 307.584 
L 183.519744 307.584 
L 184.526946 307.584 
L 184.568912 307.584 
L 185.590102 307.584 
L 186.415448 307.584 
L 187.072927 307.584 
L 187.394671 307.584 
L 187.982206 307.584 
L 188.234006 307.584 
L 188.373895 307.584 
L 188.835529 307.584 
L 189.84273 307.584 
L 190.430264 307.584 
L 190.807965 307.584 
L 190.821954 307.584 
L 192.472645 307.584 
L 196.543416 307.584 
L 196.62735 307.584 
L 196.865161 307.584 
L 197.144939 307.584 
L 198.361974 307.584 
L 198.515852 307.584 
L 198.991475 307.584 
L 200.488288 307.584 
L 201.439534 307.584 
L 201.565434 307.584 
L 202.055046 307.584 
L 202.404768 307.584 
L 205.496317 307.584 
L 206.265706 307.584 
L 207.160997 307.584 
L 208.447976 307.584 
L 209.217366 307.584 
L 210.308501 307.584 
L 210.350467 307.584 
L 211.959192 307.584 
L 213.372071 307.584 
L 214.589106 307.584 
L 214.854895 307.584 
L 215.610296 307.584 
L 215.736196 307.584 
L 216.141875 307.584 
L 216.743398 307.584 
L 218.841734 307.584 
L 220.506413 307.584 
L 221.513615 307.584 
L 222.101149 307.584 
L 222.534805 307.584 
L 223.388128 307.584 
L 224.968875 307.584 
L 225.108764 307.584 
L 227.444911 307.584 
L 227.486878 307.584 
L 227.556822 307.584 
L 228.018456 307.584 
L 228.466101 307.584 
L 229.12358 307.584 
L 230.340615 307.584 
L 231.753494 307.584 
L 231.823439 307.584 
L 232.508895 307.584 
L 232.592829 307.584 
L 232.900585 307.584 
L 233.138396 307.584 
L 233.376208 307.584 
L 233.572052 307.584 
L 234.467342 307.584 
L 234.900998 307.584 
L 236.006122 307.584 
L 236.090055 307.584 
L 236.607645 307.584 
L 236.985345 307.584 
L 240.594483 307.584 
L 240.860273 307.584 
L 241.084095 307.584 
L 241.685618 307.584 
L 241.993374 307.584 
L 244.385477 307.584 
L 245.266778 307.584 
L 247.784781 307.584 
L 248.022593 307.584 
L 248.162482 307.584 
L 248.260404 307.584 
L 249.071761 307.584 
L 250.302785 307.584 
L 251.086163 307.584 
L 252.317187 307.584 
L 253.827989 307.584 
L 257.409149 307.584 
L 258.03865 307.584 
L 259.983108 307.584 
L 260.402775 307.584 
L 261.661777 307.584 
L 262.459144 307.584 
L 262.5151 307.584 
L 263.913991 307.584 
L 265.005126 307.584 
L 271.188222 307.584 
L 275.258994 307.584 
L 275.384894 307.584 
L 278.056775 307.584 
L 279.035999 307.584 
L 284.757462 307.584 
L 288.408566 307.584 
L 288.912167 307.584 
L 294.004129 307.584 
L 294.353852 307.584 
L 297.249555 307.584 
L 300.746782 307.584 
L 303.600519 307.584 
L 304.537776 307.584 
L 306.104533 307.584 
L 307.349546 307.584 
L 308.860348 307.584 
L 311.294418 307.584 
L 313.210898 307.584 
L 316.931947 307.584 
L 329.843708 307.584 
L 342.895358 307.584 
L 374.971921 307.584 
L 385.575512 307.584 
L 398.487273 307.584 
L 398.487273 307.093787 
L 398.487273 307.093787 
L 385.575512 306.603574 
L 374.971921 306.113362 
L 342.895358 305.623149 
L 329.843708 305.132936 
L 316.931947 304.642723 
L 313.210898 304.152511 
L 311.294418 303.662298 
L 308.860348 303.172085 
L 307.349546 302.681872 
L 306.104533 302.19166 
L 304.537776 301.701447 
L 303.600519 301.211234 
L 300.746782 300.230809 
L 297.249555 299.740596 
L 294.353852 299.250383 
L 294.004129 298.76017 
L 288.912167 298.269957 
L 288.408566 297.779745 
L 284.757462 296.799319 
L 279.035999 296.309106 
L 278.056775 295.818894 
L 275.384894 295.328681 
L 275.258994 294.838468 
L 271.188222 294.348255 
L 265.005126 293.36783 
L 263.913991 292.877617 
L 262.5151 291.897191 
L 262.459144 290.916766 
L 261.661777 290.426553 
L 260.402775 289.93634 
L 259.983108 289.446128 
L 258.03865 288.955915 
L 257.409149 288.465702 
L 253.827989 287.975489 
L 252.317187 286.995064 
L 251.086163 286.504851 
L 250.302785 286.014638 
L 249.071761 285.524426 
L 248.260404 285.034213 
L 248.162482 284.544 
L 248.022593 284.053787 
L 247.784781 283.563574 
L 245.266778 283.073362 
L 244.385477 282.583149 
L 241.993374 282.092936 
L 241.685618 281.602723 
L 241.084095 281.112511 
L 240.860273 280.622298 
L 240.594483 279.15166 
L 236.985345 278.171234 
L 236.607645 277.681021 
L 236.090055 277.190809 
L 236.006122 276.700596 
L 234.900998 275.72017 
L 234.467342 275.229957 
L 233.572052 274.739745 
L 233.376208 273.759319 
L 233.138396 273.269106 
L 232.900585 272.778894 
L 232.592829 272.288681 
L 232.508895 271.798468 
L 231.823439 271.308255 
L 231.753494 270.818043 
L 230.340615 270.32783 
L 229.12358 269.837617 
L 228.466101 269.347404 
L 228.018456 268.857191 
L 227.556822 267.876766 
L 227.486878 266.89634 
L 227.444911 266.406128 
L 225.108764 265.915915 
L 224.968875 265.425702 
L 223.388128 264.935489 
L 222.534805 264.445277 
L 222.101149 263.955064 
L 221.513615 262.974638 
L 220.506413 262.484426 
L 218.841734 261.994213 
L 216.743398 261.504 
L 216.141875 261.013787 
L 215.736196 261.013787 
L 215.610296 260.523574 
L 214.854895 259.543149 
L 214.589106 259.052936 
L 213.372071 258.562723 
L 211.959192 258.072511 
L 210.350467 257.092085 
L 210.308501 256.601872 
L 209.217366 255.621447 
L 208.447976 255.131234 
L 207.160997 254.641021 
L 206.265706 254.641021 
L 205.496317 254.150809 
L 202.404768 253.660596 
L 202.055046 253.170383 
L 201.565434 252.68017 
L 201.439534 251.699745 
L 200.488288 250.719319 
L 198.991475 250.229106 
L 198.515852 249.738894 
L 198.361974 249.248681 
L 197.144939 247.778043 
L 196.865161 246.797617 
L 196.62735 246.307404 
L 196.543416 245.817191 
L 192.472645 245.326979 
L 190.821954 244.836766 
L 190.807965 244.346553 
L 190.430264 243.85634 
L 189.84273 243.366128 
L 188.835529 242.875915 
L 188.373895 242.385702 
L 188.234006 241.895489 
L 187.982206 241.405277 
L 187.394671 240.915064 
L 187.072927 240.424851 
L 186.415448 239.934638 
L 185.590102 239.444426 
L 184.568912 238.954213 
L 184.526946 238.464 
L 183.519744 237.973787 
L 182.190798 237.483574 
L 181.365453 236.993362 
L 181.029719 236.993362 
L 180.49814 236.012936 
L 180.106451 235.522723 
L 178.469749 235.032511 
L 178.092049 234.542298 
L 177.980137 234.052085 
L 177.868226 233.07166 
L 177.43457 232.581447 
L 177.392603 231.601021 
L 176.777091 231.110809 
L 176.66518 230.620596 
L 176.28748 230.130383 
L 175.196345 229.149957 
L 174.860611 228.659745 
L 172.608397 228.169532 
L 170.719895 227.679319 
L 169.796627 226.698894 
L 169.684716 226.208681 
L 169.544827 225.718468 
L 168.48167 225.228255 
L 167.474468 224.738043 
L 165.418099 224.24783 
L 163.277796 223.757617 
L 162.242617 223.267404 
L 161.990817 222.777191 
L 161.864917 222.286979 
L 160.983616 221.796766 
L 160.787771 221.306553 
L 159.920459 220.81634 
L 158.143868 220.326128 
L 157.0947 219.835915 
L 156.437221 219.345702 
L 156.255365 218.855489 
L 156.031543 218.365277 
L 155.961598 217.384851 
L 155.066308 216.894638 
L 152.772127 216.404426 
L 152.548305 215.914213 
L 151.708971 215.424 
L 151.653015 214.933787 
L 151.485148 214.443574 
L 151.023514 213.953362 
L 150.995536 212.972936 
L 150.883625 212.482723 
L 150.477947 212.482723 
L 150.142213 211.992511 
L 149.79249 211.502298 
L 147.889999 211.012085 
L 145.791663 210.521872 
L 145.595818 210.03166 
L 144.966318 209.541447 
L 144.448728 209.051234 
L 144.336817 208.561021 
L 142.853993 208.070809 
L 141.972692 207.580596 
L 141.60898 207.090383 
L 140.797623 206.60017 
L 140.531834 206.109957 
L 140.503856 205.619745 
L 139.272833 205.619745 
L 138.433498 204.639319 
L 137.803997 204.149106 
L 137.118541 203.658894 
L 137.090563 203.168681 
L 134.292782 202.678468 
L 134.166882 202.188255 
L 133.523392 201.698043 
L 133.257603 201.20783 
L 131.047355 200.717617 
L 130.725611 200.717617 
L 129.802343 200.717617 
L 129.508576 200.227404 
L 128.781153 199.737191 
L 128.319519 199.737191 
L 126.976584 199.246979 
L 126.780739 199.246979 
L 126.179216 198.756766 
L 125.339882 198.266553 
L 124.164813 197.77634 
L 124.066891 197.77634 
L 121.548888 196.305702 
L 121.492932 196.305702 
L 121.339054 195.815489 
L 119.632408 195.325277 
L 119.338641 194.835064 
L 118.695151 194.344851 
L 117.436149 194.344851 
L 117.394183 194.344851 
L 117.17036 193.854638 
L 116.666759 193.854638 
L 116.163159 193.364426 
L 115.183935 192.874213 
L 115.141969 192.384 
L 113.673133 191.403574 
L 111.938509 190.913362 
L 111.183108 190.423149 
L 110.875352 189.442723 
L 110.819396 188.952511 
L 110.455685 188.462298 
L 110.161918 187.972085 
L 110.119951 187.972085 
L 110.105962 187.481872 
L 107.727848 186.99166 
L 107.462059 186.99166 
L 107.140314 186.501447 
L 106.692669 186.501447 
L 106.55278 186.501447 
L 105.90929 186.011234 
L 105.125911 185.521021 
L 104.538377 185.521021 
L 103.573143 185.521021 
L 102.775775 185.030809 
L 102.104308 184.540596 
L 101.278962 184.540596 
L 100.439628 184.540596 
L 100.257772 184.540596 
L 99.991983 184.540596 
L 99.922038 184.540596 
L 99.51636 184.540596 
L 98.49517 184.540596 
L 98.411236 184.050383 
L 98.313314 184.050383 
L 98.201403 183.56017 
L 98.145447 183.56017 
L 97.753758 183.069957 
L 97.641846 182.579745 
L 97.404035 182.089532 
L 97.306113 182.089532 
L 97.096279 181.109106 
L 96.494756 181.109106 
L 96.452789 181.109106 
L 95.8093 180.618894 
L 95.487555 180.128681 
L 95.445588 180.128681 
L 95.305699 180.128681 
L 95.137832 180.128681 
L 95.081876 180.128681 
L 94.298498 180.128681 
L 94.158609 179.638468 
L 94.088664 179.638468 
L 93.850853 179.148255 
L 93.599052 179.148255 
L 93.291296 178.658043 
L 93.221352 178.658043 
L 93.109441 178.16783 
L 92.85764 178.16783 
L 92.549884 178.16783 
L 92.35404 178.16783 
L 91.780495 178.16783 
L 91.752517 178.16783 
L 91.416783 178.16783 
L 91.318861 178.16783 
L 91.206949 178.16783 
L 91.19296 178.16783 
L 90.745315 178.16783 
L 90.647393 178.16783 
L 90.283681 178.16783 
L 89.961937 178.16783 
L 89.836036 178.16783 
L 89.15058 178.16783 
L 89.066647 178.16783 
L 88.996702 178.16783 
L 88.954735 178.16783 
L 88.89878 178.16783 
L 88.730913 178.16783 
L 88.50709 178.16783 
L 88.423157 178.16783 
L 88.325235 178.16783 
L 87.891578 178.16783 
L 87.807645 178.16783 
L 87.639778 178.16783 
L 87.625789 178.16783 
L 87.583823 178.16783 
L 87.513878 178.16783 
L 87.36 178.16783 
L 87.332022 178.16783 
L 87.318033 178.16783 
L 87.178144 177.677617 
L 87.052244 177.677617 
L 86.800444 177.677617 
L 86.422743 177.677617 
L 86.310832 177.187404 
L 86.21291 177.187404 
L 86.184932 177.187404 
L 86.100998 177.187404 
L 85.723298 177.187404 
L 85.583409 177.187404 
L 85.345597 177.187404 
L 85.163742 177.187404 
L 85.135764 177.187404 
L 84.702108 177.187404 
L 84.54823 177.187404 
L 84.450307 177.187404 
L 84.436319 177.187404 
L 84.268452 177.187404 
L 84.15654 177.187404 
L 84.128563 177.187404 
L 83.750862 177.187404 
L 83.331195 177.187404 
L 83.26125 177.187404 
L 83.205295 177.187404 
L 83.107372 176.697191 
L 82.701694 176.206979 
L 82.505849 176.206979 
L 82.36596 176.206979 
L 82.24006 176.206979 
L 82.044215 176.206979 
L 82.030227 175.716766 
L 81.610559 175.716766 
L 81.148925 175.716766 
L 81.051003 175.716766 
L 81.023025 175.716766 
L 80.939092 175.716766 
L 80.911114 175.716766 
L 80.659314 175.716766 
L 80.393524 175.226553 
L 80.32358 174.73634 
L 80.267624 174.73634 
L 80.057791 174.73634 
L 80.015824 174.73634 
L 79.987846 174.73634 
L 79.889924 174.73634 
L 79.666101 174.73634 
L 79.638124 174.73634 
L 79.456268 174.73634 
L 79.162501 173.755915 
L 79.148512 173.755915 
L 79.120534 173.755915 
L 79.008623 173.755915 
L 78.980645 173.755915 
L 78.812778 173.265702 
L 78.672889 173.265702 
L 78.602944 173.265702 
L 78.379122 173.265702 
L 78.239233 173.265702 
L 78.169288 173.265702 
L 78.155299 173.265702 
L 78.141311 173.265702 
L 78.127322 173.265702 
L 78.029399 173.265702 
L 77.88951 173.265702 
L 77.693666 173.265702 
L 77.679677 173.265702 
L 77.483832 173.265702 
L 77.427876 173.265702 
L 77.413887 173.265702 
L 77.078154 173.265702 
L 76.980231 172.775489 
L 76.49062 172.285277 
L 76.238819 172.285277 
L 76.140897 172.285277 
L 75.97303 172.285277 
L 75.903085 172.285277 
L 75.875108 172.285277 
L 75.805163 172.285277 
L 75.497407 172.285277 
L 75.301562 172.285277 
L 75.273585 171.795064 
L 75.189651 171.795064 
L 75.175662 171.795064 
L 75.049762 171.795064 
L 75.021784 171.795064 
L 74.909873 171.795064 
L 74.769984 171.795064 
L 74.742006 171.795064 
L 74.532173 171.795064 
L 74.350317 171.795064 
L 74.280372 171.795064 
L 74.224417 171.795064 
L 74.000594 171.795064 
L 73.832727 171.304851 
z
" clip-path="url(#pc43182d6ef)" style="fill: #008000"/>
   </g>
   <g id="PolyCollection_2">
    <path d="M 73.832727 171.304851 
L 73.832727 171.304851 
L 74.000594 171.795064 
L 74.224417 171.795064 
L 74.280372 171.795064 
L 74.350317 171.795064 
L 74.532173 171.795064 
L 74.742006 171.795064 
L 74.769984 171.795064 
L 74.909873 171.795064 
L 75.021784 171.795064 
L 75.049762 171.795064 
L 75.175662 171.795064 
L 75.189651 171.795064 
L 75.273585 171.795064 
L 75.301562 172.285277 
L 75.497407 172.285277 
L 75.805163 172.285277 
L 75.875108 172.285277 
L 75.903085 172.285277 
L 75.97303 172.285277 
L 76.140897 172.285277 
L 76.238819 172.285277 
L 76.49062 172.285277 
L 76.980231 172.775489 
L 77.078154 173.265702 
L 77.413887 173.265702 
L 77.427876 173.265702 
L 77.483832 173.265702 
L 77.679677 173.265702 
L 77.693666 173.265702 
L 77.88951 173.265702 
L 78.029399 173.265702 
L 78.127322 173.265702 
L 78.141311 173.265702 
L 78.155299 173.265702 
L 78.169288 173.265702 
L 78.239233 173.265702 
L 78.379122 173.265702 
L 78.602944 173.265702 
L 78.672889 173.265702 
L 78.812778 173.265702 
L 78.980645 173.755915 
L 79.008623 173.755915 
L 79.120534 173.755915 
L 79.148512 173.755915 
L 79.162501 173.755915 
L 79.456268 174.73634 
L 79.638124 174.73634 
L 79.666101 174.73634 
L 79.889924 174.73634 
L 79.987846 174.73634 
L 80.015824 174.73634 
L 80.057791 174.73634 
L 80.267624 174.73634 
L 80.32358 174.73634 
L 80.393524 175.226553 
L 80.659314 175.716766 
L 80.911114 175.716766 
L 80.939092 175.716766 
L 81.023025 175.716766 
L 81.051003 175.716766 
L 81.148925 175.716766 
L 81.610559 175.716766 
L 82.030227 175.716766 
L 82.044215 176.206979 
L 82.24006 176.206979 
L 82.36596 176.206979 
L 82.505849 176.206979 
L 82.701694 176.206979 
L 83.107372 176.697191 
L 83.205295 177.187404 
L 83.26125 177.187404 
L 83.331195 177.187404 
L 83.750862 177.187404 
L 84.128563 177.187404 
L 84.15654 177.187404 
L 84.268452 177.187404 
L 84.436319 177.187404 
L 84.450307 177.187404 
L 84.54823 177.187404 
L 84.702108 177.187404 
L 85.135764 177.187404 
L 85.163742 177.187404 
L 85.345597 177.187404 
L 85.583409 177.187404 
L 85.723298 177.187404 
L 86.100998 177.187404 
L 86.184932 177.187404 
L 86.21291 177.187404 
L 86.310832 177.187404 
L 86.422743 177.677617 
L 86.800444 177.677617 
L 87.052244 177.677617 
L 87.178144 177.677617 
L 87.318033 178.16783 
L 87.332022 178.16783 
L 87.36 178.16783 
L 87.513878 178.16783 
L 87.583823 178.16783 
L 87.625789 178.16783 
L 87.639778 178.16783 
L 87.807645 178.16783 
L 87.891578 178.16783 
L 88.325235 178.16783 
L 88.423157 178.16783 
L 88.50709 178.16783 
L 88.730913 178.16783 
L 88.89878 178.16783 
L 88.954735 178.16783 
L 88.996702 178.16783 
L 89.066647 178.16783 
L 89.15058 178.16783 
L 89.836036 178.16783 
L 89.961937 178.16783 
L 90.283681 178.16783 
L 90.647393 178.16783 
L 90.745315 178.16783 
L 91.19296 178.16783 
L 91.206949 178.16783 
L 91.318861 178.16783 
L 91.416783 178.16783 
L 91.752517 178.16783 
L 91.780495 178.16783 
L 92.35404 178.16783 
L 92.549884 178.16783 
L 92.85764 178.16783 
L 93.109441 178.16783 
L 93.221352 178.658043 
L 93.291296 178.658043 
L 93.599052 179.148255 
L 93.850853 179.148255 
L 94.088664 179.638468 
L 94.158609 179.638468 
L 94.298498 180.128681 
L 95.081876 180.128681 
L 95.137832 180.128681 
L 95.305699 180.128681 
L 95.445588 180.128681 
L 95.487555 180.128681 
L 95.8093 180.618894 
L 96.452789 181.109106 
L 96.494756 181.109106 
L 97.096279 181.109106 
L 97.306113 182.089532 
L 97.404035 182.089532 
L 97.641846 182.579745 
L 97.753758 183.069957 
L 98.145447 183.56017 
L 98.201403 183.56017 
L 98.313314 184.050383 
L 98.411236 184.050383 
L 98.49517 184.540596 
L 99.51636 184.540596 
L 99.922038 184.540596 
L 99.991983 184.540596 
L 100.257772 184.540596 
L 100.439628 184.540596 
L 101.278962 184.540596 
L 102.104308 184.540596 
L 102.775775 185.030809 
L 103.573143 185.521021 
L 104.538377 185.521021 
L 105.125911 185.521021 
L 105.90929 186.011234 
L 106.55278 186.501447 
L 106.692669 186.501447 
L 107.140314 186.501447 
L 107.462059 186.99166 
L 107.727848 186.99166 
L 110.105962 187.481872 
L 110.119951 187.972085 
L 110.161918 187.972085 
L 110.455685 188.462298 
L 110.819396 188.952511 
L 110.875352 189.442723 
L 111.183108 190.423149 
L 111.938509 190.913362 
L 113.673133 191.403574 
L 115.141969 192.384 
L 115.183935 192.874213 
L 116.163159 193.364426 
L 116.666759 193.854638 
L 117.17036 193.854638 
L 117.394183 194.344851 
L 117.436149 194.344851 
L 118.695151 194.344851 
L 119.338641 194.835064 
L 119.632408 195.325277 
L 121.339054 195.815489 
L 121.492932 196.305702 
L 121.548888 196.305702 
L 124.066891 197.77634 
L 124.164813 197.77634 
L 125.339882 198.266553 
L 126.179216 198.756766 
L 126.780739 199.246979 
L 126.976584 199.246979 
L 128.319519 199.737191 
L 128.781153 199.737191 
L 129.508576 200.227404 
L 129.802343 200.717617 
L 130.725611 200.717617 
L 131.047355 200.717617 
L 133.257603 201.20783 
L 133.523392 201.698043 
L 134.166882 202.188255 
L 134.292782 202.678468 
L 137.090563 203.168681 
L 137.118541 203.658894 
L 137.803997 204.149106 
L 138.433498 204.639319 
L 139.272833 205.619745 
L 140.503856 205.619745 
L 140.531834 206.109957 
L 140.797623 206.60017 
L 141.60898 207.090383 
L 141.972692 207.580596 
L 142.853993 208.070809 
L 144.336817 208.561021 
L 144.448728 209.051234 
L 144.966318 209.541447 
L 145.595818 210.03166 
L 145.791663 210.521872 
L 147.889999 211.012085 
L 149.79249 211.502298 
L 150.142213 211.992511 
L 150.477947 212.482723 
L 150.883625 212.482723 
L 150.995536 212.972936 
L 151.023514 213.953362 
L 151.485148 214.443574 
L 151.653015 214.933787 
L 151.708971 215.424 
L 152.548305 215.914213 
L 152.772127 216.404426 
L 155.066308 216.894638 
L 155.961598 217.384851 
L 156.031543 218.365277 
L 156.255365 218.855489 
L 156.437221 219.345702 
L 157.0947 219.835915 
L 158.143868 220.326128 
L 159.920459 220.81634 
L 160.787771 221.306553 
L 160.983616 221.796766 
L 161.864917 222.286979 
L 161.990817 222.777191 
L 162.242617 223.267404 
L 163.277796 223.757617 
L 165.418099 224.24783 
L 167.474468 224.738043 
L 168.48167 225.228255 
L 169.544827 225.718468 
L 169.684716 226.208681 
L 169.796627 226.698894 
L 170.719895 227.679319 
L 172.608397 228.169532 
L 174.860611 228.659745 
L 175.196345 229.149957 
L 176.28748 230.130383 
L 176.66518 230.620596 
L 176.777091 231.110809 
L 177.392603 231.601021 
L 177.43457 232.581447 
L 177.868226 233.07166 
L 177.980137 234.052085 
L 178.092049 234.542298 
L 178.469749 235.032511 
L 180.106451 235.522723 
L 180.49814 236.012936 
L 181.029719 236.993362 
L 181.365453 236.993362 
L 182.190798 237.483574 
L 183.519744 237.973787 
L 184.526946 238.464 
L 184.568912 238.954213 
L 185.590102 239.444426 
L 186.415448 239.934638 
L 187.072927 240.424851 
L 187.394671 240.915064 
L 187.982206 241.405277 
L 188.234006 241.895489 
L 188.373895 242.385702 
L 188.835529 242.875915 
L 189.84273 243.366128 
L 190.430264 243.85634 
L 190.807965 244.346553 
L 190.821954 244.836766 
L 192.472645 245.326979 
L 196.543416 245.817191 
L 196.62735 246.307404 
L 196.865161 246.797617 
L 197.144939 247.778043 
L 198.361974 249.248681 
L 198.515852 249.738894 
L 198.991475 250.229106 
L 200.488288 250.719319 
L 201.439534 251.699745 
L 201.565434 252.68017 
L 202.055046 253.170383 
L 202.404768 253.660596 
L 205.496317 254.150809 
L 206.265706 254.641021 
L 207.160997 254.641021 
L 208.447976 255.131234 
L 209.217366 255.621447 
L 210.308501 256.601872 
L 210.350467 257.092085 
L 211.959192 258.072511 
L 213.372071 258.562723 
L 214.589106 259.052936 
L 214.854895 259.543149 
L 215.610296 260.523574 
L 215.736196 261.013787 
L 216.141875 261.013787 
L 216.743398 261.504 
L 218.841734 261.994213 
L 220.506413 262.484426 
L 221.513615 262.974638 
L 222.101149 263.955064 
L 222.534805 264.445277 
L 223.388128 264.935489 
L 224.968875 265.425702 
L 225.108764 265.915915 
L 227.444911 266.406128 
L 227.486878 266.89634 
L 227.556822 267.876766 
L 228.018456 268.857191 
L 228.466101 269.347404 
L 229.12358 269.837617 
L 230.340615 270.32783 
L 231.753494 270.818043 
L 231.823439 271.308255 
L 232.508895 271.798468 
L 232.592829 272.288681 
L 232.900585 272.778894 
L 233.138396 273.269106 
L 233.376208 273.759319 
L 233.572052 274.739745 
L 234.467342 275.229957 
L 234.900998 275.72017 
L 236.006122 276.700596 
L 236.090055 277.190809 
L 236.607645 277.681021 
L 236.985345 278.171234 
L 240.594483 279.15166 
L 240.860273 280.622298 
L 241.084095 281.112511 
L 241.685618 281.602723 
L 241.993374 282.092936 
L 244.385477 282.583149 
L 245.266778 283.073362 
L 247.784781 283.563574 
L 248.022593 284.053787 
L 248.162482 284.544 
L 248.260404 285.034213 
L 249.071761 285.524426 
L 250.302785 286.014638 
L 251.086163 286.504851 
L 252.317187 286.995064 
L 253.827989 287.975489 
L 257.409149 288.465702 
L 258.03865 288.955915 
L 259.983108 289.446128 
L 260.402775 289.93634 
L 261.661777 290.426553 
L 262.459144 290.916766 
L 262.5151 291.897191 
L 263.913991 292.877617 
L 265.005126 293.36783 
L 271.188222 294.348255 
L 275.258994 294.838468 
L 275.384894 295.328681 
L 278.056775 295.818894 
L 279.035999 296.309106 
L 284.757462 296.799319 
L 288.408566 297.779745 
L 288.912167 298.269957 
L 294.004129 298.76017 
L 294.353852 299.250383 
L 297.249555 299.740596 
L 300.746782 300.230809 
L 303.600519 301.211234 
L 304.537776 301.701447 
L 306.104533 302.19166 
L 307.349546 302.681872 
L 308.860348 303.172085 
L 311.294418 303.662298 
L 313.210898 304.152511 
L 316.931947 304.642723 
L 329.843708 305.132936 
L 342.895358 305.623149 
L 374.971921 306.113362 
L 385.575512 306.603574 
L 398.487273 307.093787 
L 398.487273 307.093787 
L 398.487273 307.093787 
L 385.575512 306.603574 
L 374.971921 306.113362 
L 342.895358 305.623149 
L 329.843708 305.132936 
L 316.931947 304.642723 
L 313.210898 304.152511 
L 311.294418 303.662298 
L 308.860348 303.172085 
L 307.349546 302.681872 
L 306.104533 302.19166 
L 304.537776 301.701447 
L 303.600519 301.211234 
L 300.746782 300.230809 
L 297.249555 299.740596 
L 294.353852 299.250383 
L 294.004129 298.76017 
L 288.912167 298.269957 
L 288.408566 297.779745 
L 284.757462 296.799319 
L 279.035999 296.309106 
L 278.056775 295.818894 
L 275.384894 295.328681 
L 275.258994 294.838468 
L 271.188222 294.348255 
L 265.005126 293.36783 
L 263.913991 292.877617 
L 262.5151 291.897191 
L 262.459144 290.916766 
L 261.661777 290.426553 
L 260.402775 289.93634 
L 259.983108 289.446128 
L 258.03865 288.955915 
L 257.409149 288.465702 
L 253.827989 287.975489 
L 252.317187 286.995064 
L 251.086163 286.504851 
L 250.302785 286.014638 
L 249.071761 285.524426 
L 248.260404 285.034213 
L 248.162482 284.544 
L 248.022593 284.053787 
L 247.784781 283.563574 
L 245.266778 283.073362 
L 244.385477 282.583149 
L 241.993374 282.092936 
L 241.685618 281.602723 
L 241.084095 281.112511 
L 240.860273 280.622298 
L 240.594483 279.15166 
L 236.985345 278.171234 
L 236.607645 277.681021 
L 236.090055 277.190809 
L 236.006122 276.700596 
L 234.900998 275.72017 
L 234.467342 275.229957 
L 233.572052 274.739745 
L 233.376208 273.759319 
L 233.138396 273.269106 
L 232.900585 272.778894 
L 232.592829 272.288681 
L 232.508895 271.798468 
L 231.823439 271.308255 
L 231.753494 270.818043 
L 230.340615 270.32783 
L 229.12358 269.837617 
L 228.466101 269.347404 
L 228.018456 268.857191 
L 227.556822 267.876766 
L 227.486878 266.89634 
L 227.444911 266.406128 
L 225.108764 265.915915 
L 224.968875 265.425702 
L 223.388128 264.935489 
L 222.534805 264.445277 
L 222.101149 263.955064 
L 221.513615 262.974638 
L 220.506413 262.484426 
L 218.841734 261.994213 
L 216.743398 261.504 
L 216.141875 261.013787 
L 215.736196 261.013787 
L 215.610296 260.523574 
L 214.854895 259.543149 
L 214.589106 259.052936 
L 213.372071 258.562723 
L 211.959192 258.072511 
L 210.350467 257.092085 
L 210.308501 256.601872 
L 209.217366 255.621447 
L 208.447976 255.131234 
L 207.160997 254.641021 
L 206.265706 254.641021 
L 205.496317 254.150809 
L 202.404768 253.660596 
L 202.055046 253.170383 
L 201.565434 252.68017 
L 201.439534 251.699745 
L 200.488288 250.719319 
L 198.991475 250.229106 
L 198.515852 249.738894 
L 198.361974 249.248681 
L 197.144939 247.778043 
L 196.865161 246.797617 
L 196.62735 246.307404 
L 196.543416 245.817191 
L 192.472645 245.326979 
L 190.821954 244.836766 
L 190.807965 244.346553 
L 190.430264 243.85634 
L 189.84273 243.366128 
L 188.835529 242.875915 
L 188.373895 242.385702 
L 188.234006 241.895489 
L 187.982206 241.405277 
L 187.394671 240.915064 
L 187.072927 240.424851 
L 186.415448 239.934638 
L 185.590102 239.444426 
L 184.568912 238.954213 
L 184.526946 238.464 
L 183.519744 237.973787 
L 182.190798 237.483574 
L 181.365453 236.993362 
L 181.029719 236.993362 
L 180.49814 236.012936 
L 180.106451 235.522723 
L 178.469749 235.032511 
L 178.092049 234.542298 
L 177.980137 234.052085 
L 177.868226 233.07166 
L 177.43457 232.581447 
L 177.392603 231.601021 
L 176.777091 231.110809 
L 176.66518 230.620596 
L 176.28748 230.130383 
L 175.196345 229.149957 
L 174.860611 228.659745 
L 172.608397 228.169532 
L 170.719895 227.679319 
L 169.796627 226.698894 
L 169.684716 226.208681 
L 169.544827 225.718468 
L 168.48167 225.228255 
L 167.474468 224.738043 
L 165.418099 224.24783 
L 163.277796 223.757617 
L 162.242617 223.267404 
L 161.990817 222.777191 
L 161.864917 222.286979 
L 160.983616 221.796766 
L 160.787771 221.306553 
L 159.920459 220.81634 
L 158.143868 220.326128 
L 157.0947 219.835915 
L 156.437221 219.345702 
L 156.255365 218.855489 
L 156.031543 218.365277 
L 155.961598 217.384851 
L 155.066308 216.894638 
L 152.772127 216.404426 
L 152.548305 215.914213 
L 151.708971 215.424 
L 151.653015 214.933787 
L 151.485148 214.443574 
L 151.023514 213.953362 
L 150.995536 212.972936 
L 150.883625 212.482723 
L 150.477947 212.482723 
L 150.142213 211.992511 
L 149.79249 211.502298 
L 147.889999 211.012085 
L 145.791663 210.521872 
L 145.595818 210.03166 
L 144.966318 209.541447 
L 144.448728 209.051234 
L 144.336817 208.561021 
L 142.853993 208.070809 
L 141.972692 207.580596 
L 141.60898 207.090383 
L 140.797623 206.60017 
L 140.531834 206.109957 
L 140.503856 205.619745 
L 139.272833 205.619745 
L 138.433498 204.639319 
L 137.803997 204.149106 
L 137.118541 203.658894 
L 137.090563 203.168681 
L 134.292782 202.678468 
L 134.166882 202.188255 
L 133.523392 201.698043 
L 133.257603 201.20783 
L 131.047355 200.717617 
L 130.725611 200.717617 
L 129.802343 200.717617 
L 129.508576 200.227404 
L 128.781153 199.737191 
L 128.319519 199.737191 
L 126.976584 199.246979 
L 126.780739 199.246979 
L 126.179216 198.756766 
L 125.339882 198.266553 
L 124.164813 197.77634 
L 124.066891 197.77634 
L 121.548888 196.305702 
L 121.492932 196.305702 
L 121.339054 195.815489 
L 119.632408 195.325277 
L 119.338641 194.835064 
L 118.695151 194.344851 
L 117.436149 194.344851 
L 117.394183 194.344851 
L 117.17036 193.854638 
L 116.666759 193.854638 
L 116.163159 193.364426 
L 115.183935 192.874213 
L 115.141969 192.384 
L 113.673133 191.403574 
L 111.938509 190.913362 
L 111.183108 190.423149 
L 110.875352 189.442723 
L 110.819396 188.952511 
L 110.455685 188.462298 
L 110.161918 187.972085 
L 110.119951 187.972085 
L 110.105962 187.481872 
L 107.727848 186.99166 
L 107.462059 186.99166 
L 107.140314 186.501447 
L 106.692669 186.501447 
L 106.55278 186.501447 
L 105.90929 186.011234 
L 105.125911 185.521021 
L 104.538377 185.521021 
L 103.573143 185.521021 
L 102.775775 185.030809 
L 102.104308 184.540596 
L 101.278962 184.540596 
L 100.439628 184.540596 
L 100.257772 184.540596 
L 99.991983 184.540596 
L 99.922038 184.540596 
L 99.51636 184.540596 
L 98.49517 184.540596 
L 98.411236 184.050383 
L 98.313314 184.050383 
L 98.201403 183.56017 
L 98.145447 183.56017 
L 97.753758 183.069957 
L 97.641846 182.579745 
L 97.404035 182.089532 
L 97.306113 182.089532 
L 97.096279 181.109106 
L 96.494756 181.109106 
L 96.452789 181.109106 
L 95.8093 180.618894 
L 95.487555 180.128681 
L 95.445588 180.128681 
L 95.305699 180.128681 
L 95.137832 180.128681 
L 95.081876 180.128681 
L 94.298498 180.128681 
L 94.158609 179.638468 
L 94.088664 179.638468 
L 93.850853 179.148255 
L 93.599052 179.148255 
L 93.291296 178.658043 
L 93.221352 178.658043 
L 93.109441 178.16783 
L 92.85764 178.16783 
L 92.549884 178.16783 
L 92.35404 178.16783 
L 91.780495 178.16783 
L 91.752517 178.16783 
L 91.416783 178.16783 
L 91.318861 178.16783 
L 91.206949 178.16783 
L 91.19296 178.16783 
L 90.745315 178.16783 
L 90.647393 178.16783 
L 90.283681 178.16783 
L 89.961937 178.16783 
L 89.836036 178.16783 
L 89.15058 178.16783 
L 89.066647 178.16783 
L 88.996702 178.16783 
L 88.954735 178.16783 
L 88.89878 178.16783 
L 88.730913 178.16783 
L 88.50709 178.16783 
L 88.423157 178.16783 
L 88.325235 178.16783 
L 87.891578 178.16783 
L 87.807645 178.16783 
L 87.639778 178.16783 
L 87.625789 178.16783 
L 87.583823 178.16783 
L 87.513878 178.16783 
L 87.36 178.16783 
L 87.332022 178.16783 
L 87.318033 178.16783 
L 87.178144 177.677617 
L 87.052244 177.677617 
L 86.800444 177.677617 
L 86.422743 177.677617 
L 86.310832 177.187404 
L 86.21291 177.187404 
L 86.184932 177.187404 
L 86.100998 177.187404 
L 85.723298 177.187404 
L 85.583409 177.187404 
L 85.345597 177.187404 
L 85.163742 177.187404 
L 85.135764 177.187404 
L 84.702108 177.187404 
L 84.54823 177.187404 
L 84.450307 177.187404 
L 84.436319 177.187404 
L 84.268452 177.187404 
L 84.15654 177.187404 
L 84.128563 177.187404 
L 83.750862 177.187404 
L 83.331195 177.187404 
L 83.26125 177.187404 
L 83.205295 177.187404 
L 83.107372 176.697191 
L 82.701694 176.206979 
L 82.505849 176.206979 
L 82.36596 176.206979 
L 82.24006 176.206979 
L 82.044215 176.206979 
L 82.030227 175.716766 
L 81.610559 175.716766 
L 81.148925 175.716766 
L 81.051003 175.716766 
L 81.023025 175.716766 
L 80.939092 175.716766 
L 80.911114 175.716766 
L 80.659314 175.716766 
L 80.393524 175.226553 
L 80.32358 174.73634 
L 80.267624 174.73634 
L 80.057791 174.73634 
L 80.015824 174.73634 
L 79.987846 174.73634 
L 79.889924 174.73634 
L 79.666101 174.73634 
L 79.638124 174.73634 
L 79.456268 174.73634 
L 79.162501 173.755915 
L 79.148512 173.755915 
L 79.120534 173.755915 
L 79.008623 173.755915 
L 78.980645 173.755915 
L 78.812778 173.265702 
L 78.672889 173.265702 
L 78.602944 173.265702 
L 78.379122 173.265702 
L 78.239233 173.265702 
L 78.169288 173.265702 
L 78.155299 173.265702 
L 78.141311 173.265702 
L 78.127322 173.265702 
L 78.029399 173.265702 
L 77.88951 173.265702 
L 77.693666 173.265702 
L 77.679677 173.265702 
L 77.483832 173.265702 
L 77.427876 173.265702 
L 77.413887 173.265702 
L 77.078154 173.265702 
L 76.980231 172.775489 
L 76.49062 172.285277 
L 76.238819 172.285277 
L 76.140897 172.285277 
L 75.97303 172.285277 
L 75.903085 172.285277 
L 75.875108 172.285277 
L 75.805163 172.285277 
L 75.497407 172.285277 
L 75.301562 172.285277 
L 75.273585 171.795064 
L 75.189651 171.795064 
L 75.175662 171.795064 
L 75.049762 171.795064 
L 75.021784 171.795064 
L 74.909873 171.795064 
L 74.769984 171.795064 
L 74.742006 171.795064 
L 74.532173 171.795064 
L 74.350317 171.795064 
L 74.280372 171.795064 
L 74.224417 171.795064 
L 74.000594 171.795064 
L 73.832727 171.304851 
z
" clip-path="url(#pc43182d6ef)" style="fill: #7cfc00"/>
   </g>
   <g id="PolyCollection_3">
    <path d="M 73.832727 54.144 
L 73.832727 171.304851 
L 74.000594 171.795064 
L 74.224417 171.795064 
L 74.280372 171.795064 
L 74.350317 171.795064 
L 74.532173 171.795064 
L 74.742006 171.795064 
L 74.769984 171.795064 
L 74.909873 171.795064 
L 75.021784 171.795064 
L 75.049762 171.795064 
L 75.175662 171.795064 
L 75.189651 171.795064 
L 75.273585 171.795064 
L 75.301562 172.285277 
L 75.497407 172.285277 
L 75.805163 172.285277 
L 75.875108 172.285277 
L 75.903085 172.285277 
L 75.97303 172.285277 
L 76.140897 172.285277 
L 76.238819 172.285277 
L 76.49062 172.285277 
L 76.980231 172.775489 
L 77.078154 173.265702 
L 77.413887 173.265702 
L 77.427876 173.265702 
L 77.483832 173.265702 
L 77.679677 173.265702 
L 77.693666 173.265702 
L 77.88951 173.265702 
L 78.029399 173.265702 
L 78.127322 173.265702 
L 78.141311 173.265702 
L 78.155299 173.265702 
L 78.169288 173.265702 
L 78.239233 173.265702 
L 78.379122 173.265702 
L 78.602944 173.265702 
L 78.672889 173.265702 
L 78.812778 173.265702 
L 78.980645 173.755915 
L 79.008623 173.755915 
L 79.120534 173.755915 
L 79.148512 173.755915 
L 79.162501 173.755915 
L 79.456268 174.73634 
L 79.638124 174.73634 
L 79.666101 174.73634 
L 79.889924 174.73634 
L 79.987846 174.73634 
L 80.015824 174.73634 
L 80.057791 174.73634 
L 80.267624 174.73634 
L 80.32358 174.73634 
L 80.393524 175.226553 
L 80.659314 175.716766 
L 80.911114 175.716766 
L 80.939092 175.716766 
L 81.023025 175.716766 
L 81.051003 175.716766 
L 81.148925 175.716766 
L 81.610559 175.716766 
L 82.030227 175.716766 
L 82.044215 176.206979 
L 82.24006 176.206979 
L 82.36596 176.206979 
L 82.505849 176.206979 
L 82.701694 176.206979 
L 83.107372 176.697191 
L 83.205295 177.187404 
L 83.26125 177.187404 
L 83.331195 177.187404 
L 83.750862 177.187404 
L 84.128563 177.187404 
L 84.15654 177.187404 
L 84.268452 177.187404 
L 84.436319 177.187404 
L 84.450307 177.187404 
L 84.54823 177.187404 
L 84.702108 177.187404 
L 85.135764 177.187404 
L 85.163742 177.187404 
L 85.345597 177.187404 
L 85.583409 177.187404 
L 85.723298 177.187404 
L 86.100998 177.187404 
L 86.184932 177.187404 
L 86.21291 177.187404 
L 86.310832 177.187404 
L 86.422743 177.677617 
L 86.800444 177.677617 
L 87.052244 177.677617 
L 87.178144 177.677617 
L 87.318033 178.16783 
L 87.332022 178.16783 
L 87.36 178.16783 
L 87.513878 178.16783 
L 87.583823 178.16783 
L 87.625789 178.16783 
L 87.639778 178.16783 
L 87.807645 178.16783 
L 87.891578 178.16783 
L 88.325235 178.16783 
L 88.423157 178.16783 
L 88.50709 178.16783 
L 88.730913 178.16783 
L 88.89878 178.16783 
L 88.954735 178.16783 
L 88.996702 178.16783 
L 89.066647 178.16783 
L 89.15058 178.16783 
L 89.836036 178.16783 
L 89.961937 178.16783 
L 90.283681 178.16783 
L 90.647393 178.16783 
L 90.745315 178.16783 
L 91.19296 178.16783 
L 91.206949 178.16783 
L 91.318861 178.16783 
L 91.416783 178.16783 
L 91.752517 178.16783 
L 91.780495 178.16783 
L 92.35404 178.16783 
L 92.549884 178.16783 
L 92.85764 178.16783 
L 93.109441 178.16783 
L 93.221352 178.658043 
L 93.291296 178.658043 
L 93.599052 179.148255 
L 93.850853 179.148255 
L 94.088664 179.638468 
L 94.158609 179.638468 
L 94.298498 180.128681 
L 95.081876 180.128681 
L 95.137832 180.128681 
L 95.305699 180.128681 
L 95.445588 180.128681 
L 95.487555 180.128681 
L 95.8093 180.618894 
L 96.452789 181.109106 
L 96.494756 181.109106 
L 97.096279 181.109106 
L 97.306113 182.089532 
L 97.404035 182.089532 
L 97.641846 182.579745 
L 97.753758 183.069957 
L 98.145447 183.56017 
L 98.201403 183.56017 
L 98.313314 184.050383 
L 98.411236 184.050383 
L 98.49517 184.540596 
L 99.51636 184.540596 
L 99.922038 184.540596 
L 99.991983 184.540596 
L 100.257772 184.540596 
L 100.439628 184.540596 
L 101.278962 184.540596 
L 102.104308 184.540596 
L 102.775775 185.030809 
L 103.573143 185.521021 
L 104.538377 185.521021 
L 105.125911 185.521021 
L 105.90929 186.011234 
L 106.55278 186.501447 
L 106.692669 186.501447 
L 107.140314 186.501447 
L 107.462059 186.99166 
L 107.727848 186.99166 
L 110.105962 187.481872 
L 110.119951 187.972085 
L 110.161918 187.972085 
L 110.455685 188.462298 
L 110.819396 188.952511 
L 110.875352 189.442723 
L 111.183108 190.423149 
L 111.938509 190.913362 
L 113.673133 191.403574 
L 115.141969 192.384 
L 115.183935 192.874213 
L 116.163159 193.364426 
L 116.666759 193.854638 
L 117.17036 193.854638 
L 117.394183 194.344851 
L 117.436149 194.344851 
L 118.695151 194.344851 
L 119.338641 194.835064 
L 119.632408 195.325277 
L 121.339054 195.815489 
L 121.492932 196.305702 
L 121.548888 196.305702 
L 124.066891 197.77634 
L 124.164813 197.77634 
L 125.339882 198.266553 
L 126.179216 198.756766 
L 126.780739 199.246979 
L 126.976584 199.246979 
L 128.319519 199.737191 
L 128.781153 199.737191 
L 129.508576 200.227404 
L 129.802343 200.717617 
L 130.725611 200.717617 
L 131.047355 200.717617 
L 133.257603 201.20783 
L 133.523392 201.698043 
L 134.166882 202.188255 
L 134.292782 202.678468 
L 137.090563 203.168681 
L 137.118541 203.658894 
L 137.803997 204.149106 
L 138.433498 204.639319 
L 139.272833 205.619745 
L 140.503856 205.619745 
L 140.531834 206.109957 
L 140.797623 206.60017 
L 141.60898 207.090383 
L 141.972692 207.580596 
L 142.853993 208.070809 
L 144.336817 208.561021 
L 144.448728 209.051234 
L 144.966318 209.541447 
L 145.595818 210.03166 
L 145.791663 210.521872 
L 147.889999 211.012085 
L 149.79249 211.502298 
L 150.142213 211.992511 
L 150.477947 212.482723 
L 150.883625 212.482723 
L 150.995536 212.972936 
L 151.023514 213.953362 
L 151.485148 214.443574 
L 151.653015 214.933787 
L 151.708971 215.424 
L 152.548305 215.914213 
L 152.772127 216.404426 
L 155.066308 216.894638 
L 155.961598 217.384851 
L 156.031543 218.365277 
L 156.255365 218.855489 
L 156.437221 219.345702 
L 157.0947 219.835915 
L 158.143868 220.326128 
L 159.920459 220.81634 
L 160.787771 221.306553 
L 160.983616 221.796766 
L 161.864917 222.286979 
L 161.990817 222.777191 
L 162.242617 223.267404 
L 163.277796 223.757617 
L 165.418099 224.24783 
L 167.474468 224.738043 
L 168.48167 225.228255 
L 169.544827 225.718468 
L 169.684716 226.208681 
L 169.796627 226.698894 
L 170.719895 227.679319 
L 172.608397 228.169532 
L 174.860611 228.659745 
L 175.196345 229.149957 
L 176.28748 230.130383 
L 176.66518 230.620596 
L 176.777091 231.110809 
L 177.392603 231.601021 
L 177.43457 232.581447 
L 177.868226 233.07166 
L 177.980137 234.052085 
L 178.092049 234.542298 
L 178.469749 235.032511 
L 180.106451 235.522723 
L 180.49814 236.012936 
L 181.029719 236.993362 
L 181.365453 236.993362 
L 182.190798 237.483574 
L 183.519744 237.973787 
L 184.526946 238.464 
L 184.568912 238.954213 
L 185.590102 239.444426 
L 186.415448 239.934638 
L 187.072927 240.424851 
L 187.394671 240.915064 
L 187.982206 241.405277 
L 188.234006 241.895489 
L 188.373895 242.385702 
L 188.835529 242.875915 
L 189.84273 243.366128 
L 190.430264 243.85634 
L 190.807965 244.346553 
L 190.821954 244.836766 
L 192.472645 245.326979 
L 196.543416 245.817191 
L 196.62735 246.307404 
L 196.865161 246.797617 
L 197.144939 247.778043 
L 198.361974 249.248681 
L 198.515852 249.738894 
L 198.991475 250.229106 
L 200.488288 250.719319 
L 201.439534 251.699745 
L 201.565434 252.68017 
L 202.055046 253.170383 
L 202.404768 253.660596 
L 205.496317 254.150809 
L 206.265706 254.641021 
L 207.160997 254.641021 
L 208.447976 255.131234 
L 209.217366 255.621447 
L 210.308501 256.601872 
L 210.350467 257.092085 
L 211.959192 258.072511 
L 213.372071 258.562723 
L 214.589106 259.052936 
L 214.854895 259.543149 
L 215.610296 260.523574 
L 215.736196 261.013787 
L 216.141875 261.013787 
L 216.743398 261.504 
L 218.841734 261.994213 
L 220.506413 262.484426 
L 221.513615 262.974638 
L 222.101149 263.955064 
L 222.534805 264.445277 
L 223.388128 264.935489 
L 224.968875 265.425702 
L 225.108764 265.915915 
L 227.444911 266.406128 
L 227.486878 266.89634 
L 227.556822 267.876766 
L 228.018456 268.857191 
L 228.466101 269.347404 
L 229.12358 269.837617 
L 230.340615 270.32783 
L 231.753494 270.818043 
L 231.823439 271.308255 
L 232.508895 271.798468 
L 232.592829 272.288681 
L 232.900585 272.778894 
L 233.138396 273.269106 
L 233.376208 273.759319 
L 233.572052 274.739745 
L 234.467342 275.229957 
L 234.900998 275.72017 
L 236.006122 276.700596 
L 236.090055 277.190809 
L 236.607645 277.681021 
L 236.985345 278.171234 
L 240.594483 279.15166 
L 240.860273 280.622298 
L 241.084095 281.112511 
L 241.685618 281.602723 
L 241.993374 282.092936 
L 244.385477 282.583149 
L 245.266778 283.073362 
L 247.784781 283.563574 
L 248.022593 284.053787 
L 248.162482 284.544 
L 248.260404 285.034213 
L 249.071761 285.524426 
L 250.302785 286.014638 
L 251.086163 286.504851 
L 252.317187 286.995064 
L 253.827989 287.975489 
L 257.409149 288.465702 
L 258.03865 288.955915 
L 259.983108 289.446128 
L 260.402775 289.93634 
L 261.661777 290.426553 
L 262.459144 290.916766 
L 262.5151 291.897191 
L 263.913991 292.877617 
L 265.005126 293.36783 
L 271.188222 294.348255 
L 275.258994 294.838468 
L 275.384894 295.328681 
L 278.056775 295.818894 
L 279.035999 296.309106 
L 284.757462 296.799319 
L 288.408566 297.779745 
L 288.912167 298.269957 
L 294.004129 298.76017 
L 294.353852 299.250383 
L 297.249555 299.740596 
L 300.746782 300.230809 
L 303.600519 301.211234 
L 304.537776 301.701447 
L 306.104533 302.19166 
L 307.349546 302.681872 
L 308.860348 303.172085 
L 311.294418 303.662298 
L 313.210898 304.152511 
L 316.931947 304.642723 
L 329.843708 305.132936 
L 342.895358 305.623149 
L 374.971921 306.113362 
L 385.575512 306.603574 
L 398.487273 307.093787 
L 398.487273 307.093787 
L 398.487273 307.093787 
L 385.575512 306.603574 
L 374.971921 306.113362 
L 342.895358 305.623149 
L 329.843708 305.132936 
L 316.931947 304.642723 
L 313.210898 304.152511 
L 311.294418 303.662298 
L 308.860348 303.172085 
L 307.349546 302.681872 
L 306.104533 302.19166 
L 304.537776 301.701447 
L 303.600519 301.211234 
L 300.746782 300.230809 
L 297.249555 299.740596 
L 294.353852 299.250383 
L 294.004129 298.76017 
L 288.912167 298.269957 
L 288.408566 297.779745 
L 284.757462 296.799319 
L 279.035999 296.309106 
L 278.056775 295.818894 
L 275.384894 295.328681 
L 275.258994 294.838468 
L 271.188222 294.348255 
L 265.005126 293.36783 
L 263.913991 292.877617 
L 262.5151 291.897191 
L 262.459144 290.916766 
L 261.661777 290.426553 
L 260.402775 289.93634 
L 259.983108 289.446128 
L 258.03865 288.955915 
L 257.409149 288.465702 
L 253.827989 287.975489 
L 252.317187 286.995064 
L 251.086163 286.504851 
L 250.302785 286.014638 
L 249.071761 285.524426 
L 248.260404 285.034213 
L 248.162482 284.544 
L 248.022593 284.053787 
L 247.784781 283.563574 
L 245.266778 283.073362 
L 244.385477 282.583149 
L 241.993374 282.092936 
L 241.685618 281.602723 
L 241.084095 281.112511 
L 240.860273 280.622298 
L 240.594483 279.15166 
L 236.985345 278.171234 
L 236.607645 277.681021 
L 236.090055 277.190809 
L 236.006122 276.700596 
L 234.900998 275.72017 
L 234.467342 275.229957 
L 233.572052 274.739745 
L 233.376208 273.759319 
L 233.138396 273.269106 
L 232.900585 272.778894 
L 232.592829 272.288681 
L 232.508895 271.798468 
L 231.823439 271.308255 
L 231.753494 270.818043 
L 230.340615 270.32783 
L 229.12358 269.837617 
L 228.466101 269.347404 
L 228.018456 268.857191 
L 227.556822 267.876766 
L 227.486878 266.89634 
L 227.444911 266.406128 
L 225.108764 265.915915 
L 224.968875 265.425702 
L 223.388128 264.935489 
L 222.534805 264.445277 
L 222.101149 263.955064 
L 221.513615 262.974638 
L 220.506413 262.484426 
L 218.841734 261.994213 
L 216.743398 261.504 
L 216.141875 261.013787 
L 215.736196 260.523574 
L 215.610296 260.033362 
L 214.854895 259.052936 
L 214.589106 258.562723 
L 213.372071 258.072511 
L 211.959192 257.582298 
L 210.350467 256.601872 
L 210.308501 256.11166 
L 209.217366 255.131234 
L 208.447976 254.641021 
L 207.160997 254.150809 
L 206.265706 253.660596 
L 205.496317 253.170383 
L 202.404768 252.68017 
L 202.055046 252.189957 
L 201.565434 251.699745 
L 201.439534 250.719319 
L 200.488288 249.738894 
L 198.991475 249.248681 
L 198.515852 248.758468 
L 198.361974 248.268255 
L 197.144939 246.797617 
L 196.865161 245.817191 
L 196.62735 245.326979 
L 196.543416 244.836766 
L 192.472645 244.346553 
L 190.821954 243.85634 
L 190.807965 243.366128 
L 190.430264 242.875915 
L 189.84273 242.385702 
L 188.835529 241.895489 
L 188.373895 241.405277 
L 188.234006 240.915064 
L 187.982206 240.424851 
L 187.394671 239.934638 
L 187.072927 239.444426 
L 186.415448 238.954213 
L 185.590102 238.464 
L 184.568912 237.973787 
L 184.526946 237.483574 
L 183.519744 236.993362 
L 182.190798 236.503149 
L 181.365453 236.012936 
L 181.029719 235.522723 
L 180.49814 234.542298 
L 180.106451 234.052085 
L 178.469749 233.561872 
L 178.092049 233.07166 
L 177.980137 232.581447 
L 177.868226 231.601021 
L 177.43457 231.110809 
L 177.392603 230.130383 
L 176.777091 229.64017 
L 176.66518 229.149957 
L 176.28748 228.659745 
L 175.196345 227.679319 
L 174.860611 227.189106 
L 172.608397 226.698894 
L 170.719895 226.208681 
L 169.796627 225.228255 
L 169.684716 224.738043 
L 169.544827 224.24783 
L 168.48167 223.757617 
L 167.474468 223.267404 
L 165.418099 222.777191 
L 163.277796 222.286979 
L 162.242617 221.796766 
L 161.990817 221.306553 
L 161.864917 220.81634 
L 160.983616 220.326128 
L 160.787771 219.835915 
L 159.920459 219.345702 
L 158.143868 218.855489 
L 157.0947 218.365277 
L 156.437221 217.875064 
L 156.255365 217.384851 
L 156.031543 216.894638 
L 155.961598 215.914213 
L 155.066308 215.424 
L 152.772127 214.933787 
L 152.548305 214.443574 
L 151.708971 213.953362 
L 151.653015 213.463149 
L 151.485148 212.972936 
L 151.023514 212.482723 
L 150.995536 211.502298 
L 150.883625 211.012085 
L 150.477947 210.521872 
L 150.142213 210.03166 
L 149.79249 209.541447 
L 147.889999 209.051234 
L 145.791663 208.561021 
L 145.595818 208.070809 
L 144.966318 207.580596 
L 144.448728 207.090383 
L 144.336817 206.60017 
L 142.853993 206.109957 
L 141.972692 205.619745 
L 141.60898 205.129532 
L 140.797623 204.639319 
L 140.531834 204.149106 
L 140.503856 203.658894 
L 139.272833 203.168681 
L 138.433498 202.188255 
L 137.803997 201.698043 
L 137.118541 201.20783 
L 137.090563 200.717617 
L 134.292782 200.227404 
L 134.166882 199.737191 
L 133.523392 199.246979 
L 133.257603 198.756766 
L 131.047355 198.266553 
L 130.725611 197.77634 
L 129.802343 197.286128 
L 129.508576 196.795915 
L 128.781153 196.305702 
L 128.319519 195.815489 
L 126.976584 195.325277 
L 126.780739 194.835064 
L 126.179216 194.344851 
L 125.339882 193.854638 
L 124.164813 193.364426 
L 124.066891 192.874213 
L 121.548888 191.403574 
L 121.492932 190.913362 
L 121.339054 190.423149 
L 119.632408 189.932936 
L 119.338641 189.442723 
L 118.695151 188.952511 
L 117.436149 188.462298 
L 117.394183 187.972085 
L 117.17036 187.481872 
L 116.666759 186.99166 
L 116.163159 186.501447 
L 115.183935 186.011234 
L 115.141969 185.521021 
L 113.673133 184.540596 
L 111.938509 184.050383 
L 111.183108 183.56017 
L 110.875352 182.089532 
L 110.819396 181.599319 
L 110.455685 181.109106 
L 110.161918 180.618894 
L 110.119951 179.638468 
L 110.105962 178.658043 
L 107.727848 178.16783 
L 107.462059 177.677617 
L 107.140314 177.187404 
L 106.692669 176.697191 
L 106.55278 176.206979 
L 105.90929 175.716766 
L 105.125911 175.226553 
L 104.538377 174.73634 
L 103.573143 174.246128 
L 102.775775 173.755915 
L 102.104308 172.775489 
L 101.278962 172.285277 
L 100.439628 171.795064 
L 100.257772 171.304851 
L 99.991983 170.814638 
L 99.922038 170.324426 
L 99.51636 169.834213 
L 98.49517 168.853787 
L 98.411236 168.363574 
L 98.313314 167.873362 
L 98.201403 167.383149 
L 98.145447 166.402723 
L 97.753758 165.912511 
L 97.641846 164.932085 
L 97.404035 164.441872 
L 97.306113 163.95166 
L 97.096279 162.971234 
L 96.494756 161.500596 
L 96.452789 161.010383 
L 95.8093 160.52017 
L 95.487555 158.559319 
L 95.445588 158.069106 
L 95.305699 157.578894 
L 95.137832 157.088681 
L 95.081876 156.598468 
L 94.298498 156.108255 
L 94.158609 155.618043 
L 94.088664 154.147404 
L 93.850853 153.657191 
L 93.599052 153.166979 
L 93.291296 152.676766 
L 93.221352 151.69634 
L 93.109441 151.206128 
L 92.85764 150.715915 
L 92.549884 150.225702 
L 92.35404 149.735489 
L 91.780495 149.245277 
L 91.752517 147.774638 
L 91.416783 147.284426 
L 91.318861 146.304 
L 91.206949 145.813787 
L 91.19296 145.323574 
L 90.745315 144.833362 
L 90.647393 144.343149 
L 90.283681 143.852936 
L 89.961937 142.872511 
L 89.836036 142.382298 
L 89.15058 141.892085 
L 89.066647 141.401872 
L 88.996702 140.421447 
L 88.954735 139.931234 
L 88.89878 139.441021 
L 88.730913 138.950809 
L 88.50709 138.460596 
L 88.423157 137.48017 
L 88.325235 136.989957 
L 87.891578 136.499745 
L 87.807645 135.519319 
L 87.639778 134.538894 
L 87.625789 132.578043 
L 87.583823 132.08783 
L 87.513878 131.597617 
L 87.36 131.107404 
L 87.332022 130.617191 
L 87.318033 129.636766 
L 87.178144 129.146553 
L 87.052244 128.65634 
L 86.800444 128.166128 
L 86.422743 126.205277 
L 86.310832 123.754213 
L 86.21291 123.264 
L 86.184932 122.773787 
L 86.100998 122.283574 
L 85.723298 121.793362 
L 85.583409 121.303149 
L 85.345597 120.322723 
L 85.163742 119.832511 
L 85.135764 119.342298 
L 84.702108 118.361872 
L 84.54823 117.87166 
L 84.450307 117.381447 
L 84.436319 116.891234 
L 84.268452 115.420596 
L 84.15654 114.930383 
L 84.128563 112.969532 
L 83.750862 111.989106 
L 83.331195 111.498894 
L 83.26125 111.008681 
L 83.205295 110.518468 
L 83.107372 109.04783 
L 82.701694 108.067404 
L 82.505849 107.086979 
L 82.36596 106.106553 
L 82.24006 105.126128 
L 82.044215 104.635915 
L 82.030227 102.675064 
L 81.610559 101.204426 
L 81.148925 100.714213 
L 81.051003 100.224 
L 81.023025 99.733787 
L 80.939092 98.263149 
L 80.911114 97.772936 
L 80.659314 97.282723 
L 80.393524 96.302298 
L 80.32358 95.321872 
L 80.267624 94.83166 
L 80.057791 94.341447 
L 80.015824 93.851234 
L 79.987846 92.870809 
L 79.889924 92.380596 
L 79.666101 91.40017 
L 79.638124 87.968681 
L 79.456268 87.478468 
L 79.162501 85.027404 
L 79.148512 84.046979 
L 79.120534 83.066553 
L 79.008623 82.57634 
L 78.980645 82.086128 
L 78.812778 81.595915 
L 78.672889 81.105702 
L 78.602944 80.125277 
L 78.379122 79.144851 
L 78.239233 78.654638 
L 78.169288 77.674213 
L 78.155299 76.693787 
L 78.141311 76.203574 
L 78.127322 75.223149 
L 78.029399 74.732936 
L 77.88951 73.752511 
L 77.693666 73.262298 
L 77.679677 72.772085 
L 77.483832 72.281872 
L 77.427876 71.301447 
L 77.413887 70.811234 
L 77.078154 70.321021 
L 76.980231 67.869957 
L 76.49062 67.379745 
L 76.238819 66.889532 
L 76.140897 66.399319 
L 75.97303 65.909106 
L 75.903085 65.418894 
L 75.875108 64.928681 
L 75.805163 64.438468 
L 75.497407 63.948255 
L 75.301562 62.96783 
L 75.273585 61.006979 
L 75.189651 60.516766 
L 75.175662 60.026553 
L 75.049762 59.53634 
L 75.021784 59.046128 
L 74.909873 58.555915 
L 74.769984 57.575489 
L 74.742006 57.085277 
L 74.532173 56.595064 
L 74.350317 56.104851 
L 74.280372 55.614638 
L 74.224417 55.124426 
L 74.000594 54.634213 
L 73.832727 54.144 
z
" clip-path="url(#pc43182d6ef)" style="fill: #ff0000"/>
   </g>
   <g id="matplotlib.axis_1">
    <g id="xtick_1">
     <g id="line2d_1">
      <defs>
       <path id="m7232ea302d" d="M 0 0 
L 0 3.5 
" style="stroke: #000000; stroke-width: 0.8"/>
      </defs>
      <g>
       <use xlink:href="#m7232ea302d" x="68.055309" y="307.584" style="stroke: #000000; stroke-width: 0.8"/>
      </g>
     </g>
     <g id="text_1">
      <!-- 0 -->
      <g transform="translate(64.874059 322.182437)scale(0.1 -0.1)">
       <defs>
        <path id="DejaVuSans-30" d="M 2034 4250 
Q 1547 4250 1301 3770 
Q 1056 3291 1056 2328 
Q 1056 1369 1301 889 
Q 1547 409 2034 409 
Q 2525 409 2770 889 
Q 3016 1369 3016 2328 
Q 3016 3291 2770 3770 
Q 2525 4250 2034 4250 
z
M 2034 4750 
Q 2819 4750 3233 4129 
Q 3647 3509 3647 2328 
Q 3647 1150 3233 529 
Q 2819 -91 2034 -91 
Q 1250 -91 836 529 
Q 422 1150 422 2328 
Q 422 3509 836 4129 
Q 1250 4750 2034 4750 
z
" transform="scale(0.015625)"/>
       </defs>
       <use xlink:href="#DejaVuSans-30"/>
      </g>
     </g>
    </g>
    <g id="xtick_2">
     <g id="line2d_2">
      <g>
       <use xlink:href="#m7232ea302d" x="137.999842" y="307.584" style="stroke: #000000; stroke-width: 0.8"/>
      </g>
     </g>
     <g id="text_2">
      <!-- 50 -->
      <g transform="translate(131.637342 322.182437)scale(0.1 -0.1)">
       <defs>
        <path id="DejaVuSans-35" d="M 691 4666 
L 3169 4666 
L 3169 4134 
L 1269 4134 
L 1269 2991 
Q 1406 3038 1543 3061 
Q 1681 3084 1819 3084 
Q 2600 3084 3056 2656 
Q 3513 2228 3513 1497 
Q 3513 744 3044 326 
Q 2575 -91 1722 -91 
Q 1428 -91 1123 -41 
Q 819 9 494 109 
L 494 744 
Q 775 591 1075 516 
Q 1375 441 1709 441 
Q 2250 441 2565 725 
Q 2881 1009 2881 1497 
Q 2881 1984 2565 2268 
Q 2250 2553 1709 2553 
Q 1456 2553 1204 2497 
Q 953 2441 691 2322 
L 691 4666 
z
" transform="scale(0.015625)"/>
       </defs>
       <use xlink:href="#DejaVuSans-35"/>
       <use xlink:href="#DejaVuSans-30" x="63.623047"/>
      </g>
     </g>
    </g>
    <g id="xtick_3">
     <g id="line2d_3">
      <g>
       <use xlink:href="#m7232ea302d" x="207.944375" y="307.584" style="stroke: #000000; stroke-width: 0.8"/>
      </g>
     </g>
     <g id="text_3">
      <!-- 100 -->
      <g transform="translate(198.400625 322.182437)scale(0.1 -0.1)">
       <defs>
        <path id="DejaVuSans-31" d="M 794 531 
L 1825 531 
L 1825 4091 
L 703 3866 
L 703 4441 
L 1819 4666 
L 2450 4666 
L 2450 531 
L 3481 531 
L 3481 0 
L 794 0 
L 794 531 
z
" transform="scale(0.015625)"/>
       </defs>
       <use xlink:href="#DejaVuSans-31"/>
       <use xlink:href="#DejaVuSans-30" x="63.623047"/>
       <use xlink:href="#DejaVuSans-30" x="127.246094"/>
      </g>
     </g>
    </g>
    <g id="xtick_4">
     <g id="line2d_4">
      <g>
       <use xlink:href="#m7232ea302d" x="277.888909" y="307.584" style="stroke: #000000; stroke-width: 0.8"/>
      </g>
     </g>
     <g id="text_4">
      <!-- 150 -->
      <g transform="translate(268.345159 322.182437)scale(0.1 -0.1)">
       <use xlink:href="#DejaVuSans-31"/>
       <use xlink:href="#DejaVuSans-35" x="63.623047"/>
       <use xlink:href="#DejaVuSans-30" x="127.246094"/>
      </g>
     </g>
    </g>
    <g id="xtick_5">
     <g id="line2d_5">
      <g>
       <use xlink:href="#m7232ea302d" x="347.833442" y="307.584" style="stroke: #000000; stroke-width: 0.8"/>
      </g>
     </g>
     <g id="text_5">
      <!-- 200 -->
      <g transform="translate(338.289692 322.182437)scale(0.1 -0.1)">
       <defs>
        <path id="DejaVuSans-32" d="M 1228 531 
L 3431 531 
L 3431 0 
L 469 0 
L 469 531 
Q 828 903 1448 1529 
Q 2069 2156 2228 2338 
Q 2531 2678 2651 2914 
Q 2772 3150 2772 3378 
Q 2772 3750 2511 3984 
Q 2250 4219 1831 4219 
Q 1534 4219 1204 4116 
Q 875 4013 500 3803 
L 500 4441 
Q 881 4594 1212 4672 
Q 1544 4750 1819 4750 
Q 2544 4750 2975 4387 
Q 3406 4025 3406 3419 
Q 3406 3131 3298 2873 
Q 3191 2616 2906 2266 
Q 2828 2175 2409 1742 
Q 1991 1309 1228 531 
z
" transform="scale(0.015625)"/>
       </defs>
       <use xlink:href="#DejaVuSans-32"/>
       <use xlink:href="#DejaVuSans-30" x="63.623047"/>
       <use xlink:href="#DejaVuSans-30" x="127.246094"/>
      </g>
     </g>
    </g>
    <g id="text_6">
     <!-- Score -->
     <g transform="translate(222.157656 335.860562)scale(0.1 -0.1)">
      <defs>
       <path id="DejaVuSans-53" d="M 3425 4513 
L 3425 3897 
Q 3066 4069 2747 4153 
Q 2428 4238 2131 4238 
Q 1616 4238 1336 4038 
Q 1056 3838 1056 3469 
Q 1056 3159 1242 3001 
Q 1428 2844 1947 2747 
L 2328 2669 
Q 3034 2534 3370 2195 
Q 3706 1856 3706 1288 
Q 3706 609 3251 259 
Q 2797 -91 1919 -91 
Q 1588 -91 1214 -16 
Q 841 59 441 206 
L 441 856 
Q 825 641 1194 531 
Q 1563 422 1919 422 
Q 2459 422 2753 634 
Q 3047 847 3047 1241 
Q 3047 1584 2836 1778 
Q 2625 1972 2144 2069 
L 1759 2144 
Q 1053 2284 737 2584 
Q 422 2884 422 3419 
Q 422 4038 858 4394 
Q 1294 4750 2059 4750 
Q 2388 4750 2728 4690 
Q 3069 4631 3425 4513 
z
" transform="scale(0.015625)"/>
       <path id="DejaVuSans-63" d="M 3122 3366 
L 3122 2828 
Q 2878 2963 2633 3030 
Q 2388 3097 2138 3097 
Q 1578 3097 1268 2742 
Q 959 2388 959 1747 
Q 959 1106 1268 751 
Q 1578 397 2138 397 
Q 2388 397 2633 464 
Q 2878 531 3122 666 
L 3122 134 
Q 2881 22 2623 -34 
Q 2366 -91 2075 -91 
Q 1284 -91 818 406 
Q 353 903 353 1747 
Q 353 2603 823 3093 
Q 1294 3584 2113 3584 
Q 2378 3584 2631 3529 
Q 2884 3475 3122 3366 
z
" transform="scale(0.015625)"/>
       <path id="DejaVuSans-6f" d="M 1959 3097 
Q 1497 3097 1228 2736 
Q 959 2375 959 1747 
Q 959 1119 1226 758 
Q 1494 397 1959 397 
Q 2419 397 2687 759 
Q 2956 1122 2956 1747 
Q 2956 2369 2687 2733 
Q 2419 3097 1959 3097 
z
M 1959 3584 
Q 2709 3584 3137 3096 
Q 3566 2609 3566 1747 
Q 3566 888 3137 398 
Q 2709 -91 1959 -91 
Q 1206 -91 779 398 
Q 353 888 353 1747 
Q 353 2609 779 3096 
Q 1206 3584 1959 3584 
z
" transform="scale(0.015625)"/>
       <path id="DejaVuSans-72" d="M 2631 2963 
Q 2534 3019 2420 3045 
Q 2306 3072 2169 3072 
Q 1681 3072 1420 2755 
Q 1159 2438 1159 1844 
L 1159 0 
L 581 0 
L 581 3500 
L 1159 3500 
L 1159 2956 
Q 1341 3275 1631 3429 
Q 1922 3584 2338 3584 
Q 2397 3584 2469 3576 
Q 2541 3569 2628 3553 
L 2631 2963 
z
" transform="scale(0.015625)"/>
       <path id="DejaVuSans-65" d="M 3597 1894 
L 3597 1613 
L 953 1613 
Q 991 1019 1311 708 
Q 1631 397 2203 397 
Q 2534 397 2845 478 
Q 3156 559 3463 722 
L 3463 178 
Q 3153 47 2828 -22 
Q 2503 -91 2169 -91 
Q 1331 -91 842 396 
Q 353 884 353 1716 
Q 353 2575 817 3079 
Q 1281 3584 2069 3584 
Q 2775 3584 3186 3129 
Q 3597 2675 3597 1894 
z
M 3022 2063 
Q 3016 2534 2758 2815 
Q 2500 3097 2075 3097 
Q 1594 3097 1305 2825 
Q 1016 2553 972 2059 
L 3022 2063 
z
" transform="scale(0.015625)"/>
      </defs>
      <use xlink:href="#DejaVuSans-53"/>
      <use xlink:href="#DejaVuSans-63" x="63.476562"/>
      <use xlink:href="#DejaVuSans-6f" x="118.457031"/>
      <use xlink:href="#DejaVuSans-72" x="179.638672"/>
      <use xlink:href="#DejaVuSans-65" x="218.501953"/>
     </g>
    </g>
   </g>
   <g id="matplotlib.axis_2">
    <g id="ytick_1">
     <g id="line2d_6">
      <defs>
       <path id="m8a7fea086d" d="M 0 0 
L -3.5 0 
" style="stroke: #000000; stroke-width: 0.8"/>
      </defs>
      <g>
       <use xlink:href="#m8a7fea086d" x="57.6" y="307.584" style="stroke: #000000; stroke-width: 0.8"/>
      </g>
     </g>
     <g id="text_7">
      <!-- 0 -->
      <g transform="translate(44.2375 311.383219)scale(0.1 -0.1)">
       <use xlink:href="#DejaVuSans-30"/>
      </g>
     </g>
    </g>
    <g id="ytick_2">
     <g id="line2d_7">
      <g>
       <use xlink:href="#m8a7fea086d" x="57.6" y="258.562723" style="stroke: #000000; stroke-width: 0.8"/>
      </g>
     </g>
     <g id="text_8">
      <!-- 100 -->
      <g transform="translate(31.5125 262.361942)scale(0.1 -0.1)">
       <use xlink:href="#DejaVuSans-31"/>
       <use xlink:href="#DejaVuSans-30" x="63.623047"/>
       <use xlink:href="#DejaVuSans-30" x="127.246094"/>
      </g>
     </g>
    </g>
    <g id="ytick_3">
     <g id="line2d_8">
      <g>
       <use xlink:href="#m8a7fea086d" x="57.6" y="209.541447" style="stroke: #000000; stroke-width: 0.8"/>
      </g>
     </g>
     <g id="text_9">
      <!-- 200 -->
      <g transform="translate(31.5125 213.340666)scale(0.1 -0.1)">
       <use xlink:href="#DejaVuSans-32"/>
       <use xlink:href="#DejaVuSans-30" x="63.623047"/>
       <use xlink:href="#DejaVuSans-30" x="127.246094"/>
      </g>
     </g>
    </g>
    <g id="ytick_4">
     <g id="line2d_9">
      <g>
       <use xlink:href="#m8a7fea086d" x="57.6" y="160.52017" style="stroke: #000000; stroke-width: 0.8"/>
      </g>
     </g>
     <g id="text_10">
      <!-- 300 -->
      <g transform="translate(31.5125 164.319389)scale(0.1 -0.1)">
       <defs>
        <path id="DejaVuSans-33" d="M 2597 2516 
Q 3050 2419 3304 2112 
Q 3559 1806 3559 1356 
Q 3559 666 3084 287 
Q 2609 -91 1734 -91 
Q 1441 -91 1130 -33 
Q 819 25 488 141 
L 488 750 
Q 750 597 1062 519 
Q 1375 441 1716 441 
Q 2309 441 2620 675 
Q 2931 909 2931 1356 
Q 2931 1769 2642 2001 
Q 2353 2234 1838 2234 
L 1294 2234 
L 1294 2753 
L 1863 2753 
Q 2328 2753 2575 2939 
Q 2822 3125 2822 3475 
Q 2822 3834 2567 4026 
Q 2313 4219 1838 4219 
Q 1578 4219 1281 4162 
Q 984 4106 628 3988 
L 628 4550 
Q 988 4650 1302 4700 
Q 1616 4750 1894 4750 
Q 2613 4750 3031 4423 
Q 3450 4097 3450 3541 
Q 3450 3153 3228 2886 
Q 3006 2619 2597 2516 
z
" transform="scale(0.015625)"/>
       </defs>
       <use xlink:href="#DejaVuSans-33"/>
       <use xlink:href="#DejaVuSans-30" x="63.623047"/>
       <use xlink:href="#DejaVuSans-30" x="127.246094"/>
      </g>
     </g>
    </g>
    <g id="ytick_5">
     <g id="line2d_10">
      <g>
       <use xlink:href="#m8a7fea086d" x="57.6" y="111.498894" style="stroke: #000000; stroke-width: 0.8"/>
      </g>
     </g>
     <g id="text_11">
      <!-- 400 -->
      <g transform="translate(31.5125 115.298112)scale(0.1 -0.1)">
       <defs>
        <path id="DejaVuSans-34" d="M 2419 4116 
L 825 1625 
L 2419 1625 
L 2419 4116 
z
M 2253 4666 
L 3047 4666 
L 3047 1625 
L 3713 1625 
L 3713 1100 
L 3047 1100 
L 3047 0 
L 2419 0 
L 2419 1100 
L 313 1100 
L 313 1709 
L 2253 4666 
z
" transform="scale(0.015625)"/>
       </defs>
       <use xlink:href="#DejaVuSans-34"/>
       <use xlink:href="#DejaVuSans-30" x="63.623047"/>
       <use xlink:href="#DejaVuSans-30" x="127.246094"/>
      </g>
     </g>
    </g>
    <g id="ytick_6">
     <g id="line2d_11">
      <g>
       <use xlink:href="#m8a7fea086d" x="57.6" y="62.477617" style="stroke: #000000; stroke-width: 0.8"/>
      </g>
     </g>
     <g id="text_12">
      <!-- 500 -->
      <g transform="translate(31.5125 66.276836)scale(0.1 -0.1)">
       <use xlink:href="#DejaVuSans-35"/>
       <use xlink:href="#DejaVuSans-30" x="63.623047"/>
       <use xlink:href="#DejaVuSans-30" x="127.246094"/>
      </g>
     </g>
    </g>
    <g id="text_13">
     <!-- Number of crosslinks -->
     <g transform="translate(25.432812 227.019406)rotate(-90)scale(0.1 -0.1)">
      <defs>
       <path id="DejaVuSans-4e" d="M 628 4666 
L 1478 4666 
L 3547 763 
L 3547 4666 
L 4159 4666 
L 4159 0 
L 3309 0 
L 1241 3903 
L 1241 0 
L 628 0 
L 628 4666 
z
" transform="scale(0.015625)"/>
       <path id="DejaVuSans-75" d="M 544 1381 
L 544 3500 
L 1119 3500 
L 1119 1403 
Q 1119 906 1312 657 
Q 1506 409 1894 409 
Q 2359 409 2629 706 
Q 2900 1003 2900 1516 
L 2900 3500 
L 3475 3500 
L 3475 0 
L 2900 0 
L 2900 538 
Q 2691 219 2414 64 
Q 2138 -91 1772 -91 
Q 1169 -91 856 284 
Q 544 659 544 1381 
z
M 1991 3584 
L 1991 3584 
z
" transform="scale(0.015625)"/>
       <path id="DejaVuSans-6d" d="M 3328 2828 
Q 3544 3216 3844 3400 
Q 4144 3584 4550 3584 
Q 5097 3584 5394 3201 
Q 5691 2819 5691 2113 
L 5691 0 
L 5113 0 
L 5113 2094 
Q 5113 2597 4934 2840 
Q 4756 3084 4391 3084 
Q 3944 3084 3684 2787 
Q 3425 2491 3425 1978 
L 3425 0 
L 2847 0 
L 2847 2094 
Q 2847 2600 2669 2842 
Q 2491 3084 2119 3084 
Q 1678 3084 1418 2786 
Q 1159 2488 1159 1978 
L 1159 0 
L 581 0 
L 581 3500 
L 1159 3500 
L 1159 2956 
Q 1356 3278 1631 3431 
Q 1906 3584 2284 3584 
Q 2666 3584 2933 3390 
Q 3200 3197 3328 2828 
z
" transform="scale(0.015625)"/>
       <path id="DejaVuSans-62" d="M 3116 1747 
Q 3116 2381 2855 2742 
Q 2594 3103 2138 3103 
Q 1681 3103 1420 2742 
Q 1159 2381 1159 1747 
Q 1159 1113 1420 752 
Q 1681 391 2138 391 
Q 2594 391 2855 752 
Q 3116 1113 3116 1747 
z
M 1159 2969 
Q 1341 3281 1617 3432 
Q 1894 3584 2278 3584 
Q 2916 3584 3314 3078 
Q 3713 2572 3713 1747 
Q 3713 922 3314 415 
Q 2916 -91 2278 -91 
Q 1894 -91 1617 61 
Q 1341 213 1159 525 
L 1159 0 
L 581 0 
L 581 4863 
L 1159 4863 
L 1159 2969 
z
" transform="scale(0.015625)"/>
       <path id="DejaVuSans-20" transform="scale(0.015625)"/>
       <path id="DejaVuSans-66" d="M 2375 4863 
L 2375 4384 
L 1825 4384 
Q 1516 4384 1395 4259 
Q 1275 4134 1275 3809 
L 1275 3500 
L 2222 3500 
L 2222 3053 
L 1275 3053 
L 1275 0 
L 697 0 
L 697 3053 
L 147 3053 
L 147 3500 
L 697 3500 
L 697 3744 
Q 697 4328 969 4595 
Q 1241 4863 1831 4863 
L 2375 4863 
z
" transform="scale(0.015625)"/>
       <path id="DejaVuSans-73" d="M 2834 3397 
L 2834 2853 
Q 2591 2978 2328 3040 
Q 2066 3103 1784 3103 
Q 1356 3103 1142 2972 
Q 928 2841 928 2578 
Q 928 2378 1081 2264 
Q 1234 2150 1697 2047 
L 1894 2003 
Q 2506 1872 2764 1633 
Q 3022 1394 3022 966 
Q 3022 478 2636 193 
Q 2250 -91 1575 -91 
Q 1294 -91 989 -36 
Q 684 19 347 128 
L 347 722 
Q 666 556 975 473 
Q 1284 391 1588 391 
Q 1994 391 2212 530 
Q 2431 669 2431 922 
Q 2431 1156 2273 1281 
Q 2116 1406 1581 1522 
L 1381 1569 
Q 847 1681 609 1914 
Q 372 2147 372 2553 
Q 372 3047 722 3315 
Q 1072 3584 1716 3584 
Q 2034 3584 2315 3537 
Q 2597 3491 2834 3397 
z
" transform="scale(0.015625)"/>
       <path id="DejaVuSans-6c" d="M 603 4863 
L 1178 4863 
L 1178 0 
L 603 0 
L 603 4863 
z
" transform="scale(0.015625)"/>
       <path id="DejaVuSans-69" d="M 603 3500 
L 1178 3500 
L 1178 0 
L 603 0 
L 603 3500 
z
M 603 4863 
L 1178 4863 
L 1178 4134 
L 603 4134 
L 603 4863 
z
" transform="scale(0.015625)"/>
       <path id="DejaVuSans-6e" d="M 3513 2113 
L 3513 0 
L 2938 0 
L 2938 2094 
Q 2938 2591 2744 2837 
Q 2550 3084 2163 3084 
Q 1697 3084 1428 2787 
Q 1159 2491 1159 1978 
L 1159 0 
L 581 0 
L 581 3500 
L 1159 3500 
L 1159 2956 
Q 1366 3272 1645 3428 
Q 1925 3584 2291 3584 
Q 2894 3584 3203 3211 
Q 3513 2838 3513 2113 
z
" transform="scale(0.015625)"/>
       <path id="DejaVuSans-6b" d="M 581 4863 
L 1159 4863 
L 1159 1991 
L 2875 3500 
L 3609 3500 
L 1753 1863 
L 3688 0 
L 2938 0 
L 1159 1709 
L 1159 0 
L 581 0 
L 581 4863 
z
" transform="scale(0.015625)"/>
      </defs>
      <use xlink:href="#DejaVuSans-4e"/>
      <use xlink:href="#DejaVuSans-75" x="74.804688"/>
      <use xlink:href="#DejaVuSans-6d" x="138.183594"/>
      <use xlink:href="#DejaVuSans-62" x="235.595703"/>
      <use xlink:href="#DejaVuSans-65" x="299.072266"/>
      <use xlink:href="#DejaVuSans-72" x="360.595703"/>
      <use xlink:href="#DejaVuSans-20" x="401.708984"/>
      <use xlink:href="#DejaVuSans-6f" x="433.496094"/>
      <use xlink:href="#DejaVuSans-66" x="494.677734"/>
      <use xlink:href="#DejaVuSans-20" x="529.882812"/>
      <use xlink:href="#DejaVuSans-63" x="561.669922"/>
      <use xlink:href="#DejaVuSans-72" x="616.650391"/>
      <use xlink:href="#DejaVuSans-6f" x="655.513672"/>
      <use xlink:href="#DejaVuSans-73" x="716.695312"/>
      <use xlink:href="#DejaVuSans-73" x="768.794922"/>
      <use xlink:href="#DejaVuSans-6c" x="820.894531"/>
      <use xlink:href="#DejaVuSans-69" x="848.677734"/>
      <use xlink:href="#DejaVuSans-6e" x="876.460938"/>
      <use xlink:href="#DejaVuSans-6b" x="939.839844"/>
      <use xlink:href="#DejaVuSans-73" x="997.75"/>
     </g>
    </g>
   </g>
   <g id="patch_3">
    <path d="M 57.6 307.584 
L 57.6 41.472 
" style="fill: none; stroke: #000000; stroke-width: 0.8; stroke-linejoin: miter; stroke-linecap: square"/>
   </g>
   <g id="patch_4">
    <path d="M 414.72 307.584 
L 414.72 41.472 
" style="fill: none; stroke: #000000; stroke-width: 0.8; stroke-linejoin: miter; stroke-linecap: square"/>
   </g>
   <g id="patch_5">
    <path d="M 57.6 307.584 
L 414.72 307.584 
" style="fill: none; stroke: #000000; stroke-width: 0.8; stroke-linejoin: miter; stroke-linecap: square"/>
   </g>
   <g id="patch_6">
    <path d="M 57.6 41.472 
L 414.72 41.472 
" style="fill: none; stroke: #000000; stroke-width: 0.8; stroke-linejoin: miter; stroke-linecap: square"/>
   </g>
   <g id="legend_1">
    <g id="patch_7">
     <path d="M 278.598125 93.506375 
L 407.72 93.506375 
Q 409.72 93.506375 409.72 91.506375 
L 409.72 48.472 
Q 409.72 46.472 407.72 46.472 
L 278.598125 46.472 
Q 276.598125 46.472 276.598125 48.472 
L 276.598125 91.506375 
Q 276.598125 93.506375 278.598125 93.506375 
z
" style="fill: #ffffff; opacity: 0.8; stroke: #cccccc; stroke-linejoin: miter"/>
    </g>
    <g id="patch_8">
     <path d="M 280.598125 58.070438 
L 300.598125 58.070438 
L 300.598125 51.070438 
L 280.598125 51.070438 
z
" style="fill: #008000"/>
    </g>
    <g id="text_14">
     <!-- correct -->
     <g transform="translate(308.598125 58.070438)scale(0.1 -0.1)">
      <defs>
       <path id="DejaVuSans-74" d="M 1172 4494 
L 1172 3500 
L 2356 3500 
L 2356 3053 
L 1172 3053 
L 1172 1153 
Q 1172 725 1289 603 
Q 1406 481 1766 481 
L 2356 481 
L 2356 0 
L 1766 0 
Q 1100 0 847 248 
Q 594 497 594 1153 
L 594 3053 
L 172 3053 
L 172 3500 
L 594 3500 
L 594 4494 
L 1172 4494 
z
" transform="scale(0.015625)"/>
      </defs>
      <use xlink:href="#DejaVuSans-63"/>
      <use xlink:href="#DejaVuSans-6f" x="54.980469"/>
      <use xlink:href="#DejaVuSans-72" x="116.162109"/>
      <use xlink:href="#DejaVuSans-72" x="155.525391"/>
      <use xlink:href="#DejaVuSans-65" x="194.388672"/>
      <use xlink:href="#DejaVuSans-63" x="255.912109"/>
      <use xlink:href="#DejaVuSans-74" x="310.892578"/>
     </g>
    </g>
    <g id="patch_9">
     <path d="M 280.598125 72.748563 
L 300.598125 72.748563 
L 300.598125 65.748563 
L 280.598125 65.748563 
z
" style="fill: #7cfc00"/>
    </g>
    <g id="text_15">
     <!-- correct homeotypic -->
     <g transform="translate(308.598125 72.748563)scale(0.1 -0.1)">
      <defs>
       <path id="DejaVuSans-68" d="M 3513 2113 
L 3513 0 
L 2938 0 
L 2938 2094 
Q 2938 2591 2744 2837 
Q 2550 3084 2163 3084 
Q 1697 3084 1428 2787 
Q 1159 2491 1159 1978 
L 1159 0 
L 581 0 
L 581 4863 
L 1159 4863 
L 1159 2956 
Q 1366 3272 1645 3428 
Q 1925 3584 2291 3584 
Q 2894 3584 3203 3211 
Q 3513 2838 3513 2113 
z
" transform="scale(0.015625)"/>
       <path id="DejaVuSans-79" d="M 2059 -325 
Q 1816 -950 1584 -1140 
Q 1353 -1331 966 -1331 
L 506 -1331 
L 506 -850 
L 844 -850 
Q 1081 -850 1212 -737 
Q 1344 -625 1503 -206 
L 1606 56 
L 191 3500 
L 800 3500 
L 1894 763 
L 2988 3500 
L 3597 3500 
L 2059 -325 
z
" transform="scale(0.015625)"/>
       <path id="DejaVuSans-70" d="M 1159 525 
L 1159 -1331 
L 581 -1331 
L 581 3500 
L 1159 3500 
L 1159 2969 
Q 1341 3281 1617 3432 
Q 1894 3584 2278 3584 
Q 2916 3584 3314 3078 
Q 3713 2572 3713 1747 
Q 3713 922 3314 415 
Q 2916 -91 2278 -91 
Q 1894 -91 1617 61 
Q 1341 213 1159 525 
z
M 3116 1747 
Q 3116 2381 2855 2742 
Q 2594 3103 2138 3103 
Q 1681 3103 1420 2742 
Q 1159 2381 1159 1747 
Q 1159 1113 1420 752 
Q 1681 391 2138 391 
Q 2594 391 2855 752 
Q 3116 1113 3116 1747 
z
" transform="scale(0.015625)"/>
      </defs>
      <use xlink:href="#DejaVuSans-63"/>
      <use xlink:href="#DejaVuSans-6f" x="54.980469"/>
      <use xlink:href="#DejaVuSans-72" x="116.162109"/>
      <use xlink:href="#DejaVuSans-72" x="155.525391"/>
      <use xlink:href="#DejaVuSans-65" x="194.388672"/>
      <use xlink:href="#DejaVuSans-63" x="255.912109"/>
      <use xlink:href="#DejaVuSans-74" x="310.892578"/>
      <use xlink:href="#DejaVuSans-20" x="350.101562"/>
      <use xlink:href="#DejaVuSans-68" x="381.888672"/>
      <use xlink:href="#DejaVuSans-6f" x="445.267578"/>
      <use xlink:href="#DejaVuSans-6d" x="506.449219"/>
      <use xlink:href="#DejaVuSans-65" x="603.861328"/>
      <use xlink:href="#DejaVuSans-6f" x="665.384766"/>
      <use xlink:href="#DejaVuSans-74" x="726.566406"/>
      <use xlink:href="#DejaVuSans-79" x="765.775391"/>
      <use xlink:href="#DejaVuSans-70" x="824.955078"/>
      <use xlink:href="#DejaVuSans-69" x="888.431641"/>
      <use xlink:href="#DejaVuSans-63" x="916.214844"/>
     </g>
    </g>
    <g id="patch_10">
     <path d="M 280.598125 87.426688 
L 300.598125 87.426688 
L 300.598125 80.426688 
L 280.598125 80.426688 
z
" style="fill: #ff0000"/>
    </g>
    <g id="text_16">
     <!-- false -->
     <g transform="translate(308.598125 87.426688)scale(0.1 -0.1)">
      <defs>
       <path id="DejaVuSans-61" d="M 2194 1759 
Q 1497 1759 1228 1600 
Q 959 1441 959 1056 
Q 959 750 1161 570 
Q 1363 391 1709 391 
Q 2188 391 2477 730 
Q 2766 1069 2766 1631 
L 2766 1759 
L 2194 1759 
z
M 3341 1997 
L 3341 0 
L 2766 0 
L 2766 531 
Q 2569 213 2275 61 
Q 1981 -91 1556 -91 
Q 1019 -91 701 211 
Q 384 513 384 1019 
Q 384 1609 779 1909 
Q 1175 2209 1959 2209 
L 2766 2209 
L 2766 2266 
Q 2766 2663 2505 2880 
Q 2244 3097 1772 3097 
Q 1472 3097 1187 3025 
Q 903 2953 641 2809 
L 641 3341 
Q 956 3463 1253 3523 
Q 1550 3584 1831 3584 
Q 2591 3584 2966 3190 
Q 3341 2797 3341 1997 
z
" transform="scale(0.015625)"/>
      </defs>
      <use xlink:href="#DejaVuSans-66"/>
      <use xlink:href="#DejaVuSans-61" x="35.205078"/>
      <use xlink:href="#DejaVuSans-6c" x="96.484375"/>
      <use xlink:href="#DejaVuSans-73" x="124.267578"/>
      <use xlink:href="#DejaVuSans-65" x="176.367188"/>
     </g>
    </g>
   </g>
  </g>
 </g>
 <defs>
  <clipPath id="pc43182d6ef">
   <rect x="57.6" y="41.472" width="357.12" height="266.112"/>
  </clipPath>
 </defs>
</svg>
