<?xml version="1.0" encoding="utf-8" standalone="no"?>
<!DOCTYPE svg PUBLIC "-//W3C//DTD SVG 1.1//EN"
  "http://www.w3.org/Graphics/SVG/1.1/DTD/svg11.dtd">
<svg xmlns:xlink="http://www.w3.org/1999/xlink" width="460.8pt" height="345.6pt" viewBox="0 0 460.8 345.6" xmlns="http://www.w3.org/2000/svg" version="1.1">
 <metadata>
  <rdf:RDF xmlns:dc="http://purl.org/dc/elements/1.1/" xmlns:cc="http://creativecommons.org/ns#" xmlns:rdf="http://www.w3.org/1999/02/22-rdf-syntax-ns#">
   <cc:Work>
    <dc:type rdf:resource="http://purl.org/dc/dcmitype/StillImage"/>
    <dc:date>2022-07-28T12:19:19.636520</dc:date>
    <dc:format>image/svg+xml</dc:format>
    <dc:creator>
     <cc:Agent>
      <dc:title>Matplotlib v3.5.1, https://matplotlib.org/</dc:title>
     </cc:Agent>
    </dc:creator>
   </cc:Work>
  </rdf:RDF>
 </metadata>
 <defs>
  <style type="text/css">*{stroke-linejoin: round; stroke-linecap: butt}</style>
 </defs>
 <g id="figure_1">
  <g id="patch_1">
   <path d="M 0 345.6 
L 460.8 345.6 
L 460.8 0 
L 0 0 
z
" style="fill: #ffffff"/>
  </g>
  <g id="axes_1">
   <g id="patch_2">
    <path d="M 57.6 307.584 
L 414.72 307.584 
L 414.72 41.472 
L 57.6 41.472 
z
" style="fill: #ffffff"/>
   </g>
   <g id="PolyCollection_1">
    <path d="M 73.832727 132.730047 
L 73.832727 307.584 
L 74.281405 307.584 
L 74.310352 307.584 
L 74.498507 307.584 
L 74.744556 307.584 
L 74.889291 307.584 
L 75.280075 307.584 
L 75.366916 307.584 
L 75.395863 307.584 
L 75.497177 307.584 
L 75.612965 307.584 
L 76.003749 307.584 
L 76.264271 307.584 
L 76.394533 307.584 
L 76.539267 307.584 
L 76.553741 307.584 
L 76.582688 307.584 
L 76.741896 307.584 
L 76.814263 307.584 
L 76.857684 307.584 
L 76.872157 307.584 
L 77.045839 307.584 
L 77.13268 307.584 
L 77.581358 307.584 
L 77.682672 307.584 
L 77.769513 307.584 
L 78.001088 307.584 
L 78.17477 307.584 
L 78.232664 307.584 
L 78.276084 307.584 
L 78.348452 307.584 
L 78.435293 307.584 
L 79.144493 307.584 
L 79.274754 307.584 
L 79.607644 307.584 
L 79.983955 307.584 
L 80.085269 307.584 
L 80.54842 307.584 
L 80.562894 307.584 
L 80.678682 307.584 
L 80.779996 307.584 
L 81.127359 307.584 
L 81.156306 307.584 
L 81.749719 307.584 
L 81.952347 307.584 
L 82.270764 307.584 
L 82.531286 307.584 
L 82.647074 307.584 
L 82.719442 307.584 
L 83.037858 307.584 
L 83.298381 307.584 
L 83.54443 307.584 
L 83.616797 307.584 
L 83.761532 307.584 
L 84.572047 307.584 
L 84.629941 307.584 
L 84.803622 307.584 
L 84.948357 307.584 
L 84.991777 307.584 
L 85.324667 307.584 
L 85.990447 307.584 
L 86.033868 307.584 
L 86.656227 307.584 
L 86.873329 307.584 
L 86.974644 307.584 
L 87.220693 307.584 
L 87.336481 307.584 
L 87.741738 307.584 
L 87.799632 307.584 
L 87.91542 307.584 
L 88.016734 307.584 
L 88.103575 307.584 
L 89.160139 307.584 
L 89.579869 307.584 
L 89.652237 307.584 
L 89.927233 307.584 
L 90.115388 307.584 
L 90.983797 307.584 
L 91.837732 307.584 
L 92.532459 307.584 
L 93.357447 307.584 
L 94.356117 307.584 
L 94.964003 307.584 
L 95.774517 307.584 
L 96.440297 307.584 
L 96.585032 307.584 
L 97.048183 307.584 
L 97.381073 307.584 
L 97.656069 307.584 
L 100.11656 307.584 
L 100.131034 307.584 
L 100.174454 307.584 
L 100.478397 307.584 
L 100.854707 307.584 
L 100.912601 307.584 
L 101.231018 307.584 
L 102.012586 307.584 
L 103.807297 307.584 
L 105.327012 307.584 
L 105.370432 307.584 
L 106.383575 307.584 
L 106.90462 307.584 
L 107.425666 307.584 
L 107.657241 307.584 
L 107.700662 307.584 
L 109.003275 307.584 
L 109.669054 307.584 
L 109.972997 307.584 
L 111.738762 307.584 
L 111.89797 307.584 
L 111.955864 307.584 
L 114.561089 307.584 
L 114.662404 307.584 
L 115.878176 307.584 
L 116.746584 307.584 
L 117.368944 307.584 
L 117.571572 307.584 
L 118.961026 307.584 
L 119.438651 307.584 
L 120.191272 307.584 
L 120.495215 307.584 
L 121.450464 307.584 
L 121.783354 307.584 
L 124.070163 307.584 
L 124.345159 307.584 
L 125.010939 307.584 
L 125.141201 307.584 
L 128.035896 307.584 
L 128.064843 307.584 
L 128.774043 307.584 
L 129.425349 307.584 
L 130.293758 307.584 
L 131.567424 307.584 
L 131.596371 307.584 
L 131.871367 307.584 
L 132.710829 307.584 
L 133.087139 307.584 
L 133.998968 307.584 
L 135.533156 307.584 
L 135.648944 307.584 
L 136.184463 307.584 
L 136.835769 307.584 
L 137.038398 307.584 
L 139.209419 307.584 
L 141.177812 307.584 
L 141.539649 307.584 
L 141.887013 307.584 
L 142.306743 307.584 
L 142.422531 307.584 
L 142.451478 307.584 
L 142.929103 307.584 
L 143.102785 307.584 
L 143.160678 307.584 
L 144.029087 307.584 
L 144.260663 307.584 
L 146.634313 307.584 
L 147.560615 307.584 
L 147.632983 307.584 
L 147.864558 307.584 
L 148.052713 307.584 
L 148.732967 307.584 
L 149.818478 307.584 
L 151.656609 307.584 
L 152.553965 307.584 
L 152.756593 307.584 
L 153.668422 307.584 
L 153.798683 307.584 
L 154.059206 307.584 
L 155.130243 307.584 
L 157.344685 307.584 
L 159.472286 307.584 
L 160.514376 307.584 
L 161.614361 307.584 
L 161.759095 307.584 
L 161.874883 307.584 
L 162.830133 307.584 
L 164.784052 307.584 
L 167.114282 307.584 
L 167.461645 307.584 
L 168.590576 307.584 
L 168.98136 307.584 
L 169.097148 307.584 
L 169.733981 307.584 
L 169.777401 307.584 
L 170.226079 307.584 
L 170.341867 307.584 
L 170.457655 307.584 
L 170.848438 307.584 
L 172.541835 307.584 
L 172.947093 307.584 
L 173.497085 307.584 
L 173.844448 307.584 
L 174.698383 307.584 
L 176.073363 307.584 
L 177.115454 307.584 
L 177.158874 307.584 
L 178.215438 307.584 
L 179.069373 307.584 
L 179.749626 307.584 
L 180.082516 307.584 
L 180.690402 307.584 
L 180.950925 307.584 
L 181.09566 307.584 
L 181.573284 307.584 
L 182.615375 307.584 
L 183.223261 307.584 
L 183.614045 307.584 
L 183.628518 307.584 
L 185.336388 307.584 
L 189.54817 307.584 
L 189.635011 307.584 
L 189.88106 307.584 
L 190.170529 307.584 
L 191.429722 307.584 
L 191.58893 307.584 
L 192.081028 307.584 
L 193.62969 307.584 
L 194.613886 307.584 
L 194.744148 307.584 
L 195.250719 307.584 
L 195.612556 307.584 
L 198.811195 307.584 
L 199.607236 307.584 
L 200.533538 307.584 
L 201.865098 307.584 
L 202.661139 307.584 
L 203.79007 307.584 
L 203.833491 307.584 
L 205.497941 307.584 
L 206.959762 307.584 
L 208.218954 307.584 
L 208.49395 307.584 
L 209.275518 307.584 
L 209.405779 307.584 
L 209.82551 307.584 
L 210.447869 307.584 
L 212.618891 307.584 
L 214.341235 307.584 
L 215.383325 307.584 
L 215.991211 307.584 
L 216.439889 307.584 
L 217.322771 307.584 
L 218.958273 307.584 
L 219.103008 307.584 
L 221.520079 307.584 
L 221.563499 307.584 
L 221.635867 307.584 
L 222.113491 307.584 
L 222.576643 307.584 
L 223.256896 307.584 
L 224.516088 307.584 
L 225.977909 307.584 
L 226.050277 307.584 
L 226.759477 307.584 
L 226.846318 307.584 
L 227.164735 307.584 
L 227.410784 307.584 
L 227.656833 307.584 
L 227.859461 307.584 
L 228.785764 307.584 
L 229.234442 307.584 
L 230.377846 307.584 
L 230.464687 307.584 
L 231.000206 307.584 
L 231.39099 307.584 
L 235.125146 307.584 
L 235.400142 307.584 
L 235.631718 307.584 
L 236.254078 307.584 
L 236.572494 307.584 
L 239.047459 307.584 
L 239.959288 307.584 
L 242.564513 307.584 
L 242.810562 307.584 
L 242.955297 307.584 
L 243.056611 307.584 
L 243.896073 307.584 
L 245.169739 307.584 
L 245.980254 307.584 
L 247.25392 307.584 
L 248.817055 307.584 
L 252.522265 307.584 
L 253.173571 307.584 
L 255.185385 307.584 
L 255.619589 307.584 
L 256.922202 307.584 
L 257.74719 307.584 
L 257.805084 307.584 
L 259.252431 307.584 
L 260.381362 307.584 
L 266.778639 307.584 
L 270.990421 307.584 
L 271.120682 307.584 
L 273.885116 307.584 
L 274.898259 307.584 
L 280.817911 307.584 
L 284.595488 307.584 
L 285.116533 307.584 
L 290.384879 307.584 
L 290.746716 307.584 
L 293.742725 307.584 
L 297.361094 307.584 
L 300.313683 307.584 
L 301.283406 307.584 
L 302.904436 307.584 
L 304.192575 307.584 
L 305.75571 307.584 
L 308.274095 307.584 
L 310.256962 307.584 
L 314.106906 307.584 
L 327.465925 307.584 
L 340.969678 307.584 
L 374.157359 307.584 
L 385.128254 307.584 
L 398.487273 307.584 
L 398.487273 306.929116 
L 398.487273 306.929116 
L 385.128254 306.274233 
L 374.157359 305.619349 
L 340.969678 304.964465 
L 327.465925 304.309581 
L 314.106906 303.654698 
L 310.256962 302.999814 
L 308.274095 302.34493 
L 305.75571 301.690047 
L 304.192575 301.035163 
L 302.904436 300.380279 
L 301.283406 299.725395 
L 300.313683 299.070512 
L 297.361094 297.760744 
L 293.742725 297.10586 
L 290.746716 296.450977 
L 290.384879 295.796093 
L 285.116533 295.141209 
L 284.595488 294.486326 
L 280.817911 293.176558 
L 274.898259 292.521674 
L 273.885116 291.866791 
L 271.120682 291.211907 
L 270.990421 290.557023 
L 266.778639 289.90214 
L 260.381362 288.592372 
L 259.252431 287.937488 
L 257.805084 286.627721 
L 257.74719 285.317953 
L 256.922202 284.66307 
L 255.619589 284.008186 
L 255.185385 283.353302 
L 253.173571 282.698419 
L 252.522265 282.043535 
L 248.817055 281.388651 
L 247.25392 280.078884 
L 245.980254 279.424 
L 245.169739 278.769116 
L 243.896073 278.114233 
L 243.056611 277.459349 
L 242.955297 276.804465 
L 242.810562 276.149581 
L 242.564513 275.494698 
L 239.959288 274.839814 
L 239.047459 274.18493 
L 236.572494 273.530047 
L 236.254078 272.875163 
L 235.631718 272.220279 
L 235.400142 271.565395 
L 235.125146 269.600744 
L 231.39099 268.290977 
L 231.000206 267.636093 
L 230.464687 266.981209 
L 230.377846 266.326326 
L 229.234442 265.016558 
L 228.785764 264.361674 
L 227.859461 263.706791 
L 227.656833 262.397023 
L 227.410784 261.74214 
L 227.164735 261.087256 
L 226.846318 260.432372 
L 226.759477 259.777488 
L 226.050277 259.122605 
L 225.977909 258.467721 
L 224.516088 257.812837 
L 223.256896 257.157953 
L 222.576643 256.50307 
L 222.113491 255.848186 
L 221.635867 254.538419 
L 221.563499 253.228651 
L 221.520079 252.573767 
L 219.103008 251.918884 
L 218.958273 251.264 
L 217.322771 250.609116 
L 216.439889 249.954233 
L 215.991211 249.299349 
L 215.383325 247.989581 
L 214.341235 247.334698 
L 212.618891 246.679814 
L 210.447869 246.02493 
L 209.82551 245.370047 
L 209.405779 245.370047 
L 209.275518 244.715163 
L 208.49395 243.405395 
L 208.218954 242.750512 
L 206.959762 242.095628 
L 205.497941 241.440744 
L 203.833491 240.130977 
L 203.79007 239.476093 
L 202.661139 238.166326 
L 201.865098 237.511442 
L 200.533538 236.856558 
L 199.607236 236.856558 
L 198.811195 236.201674 
L 195.612556 235.546791 
L 195.250719 234.891907 
L 194.744148 234.237023 
L 194.613886 232.927256 
L 193.62969 231.617488 
L 192.081028 230.962605 
L 191.58893 230.307721 
L 191.429722 229.652837 
L 190.170529 227.688186 
L 189.88106 226.378419 
L 189.635011 225.723535 
L 189.54817 225.068651 
L 185.336388 224.413767 
L 183.628518 223.758884 
L 183.614045 223.104 
L 183.223261 222.449116 
L 182.615375 221.794233 
L 181.573284 221.139349 
L 181.09566 220.484465 
L 180.950925 219.829581 
L 180.690402 219.174698 
L 180.082516 218.519814 
L 179.749626 217.86493 
L 179.069373 217.210047 
L 178.215438 216.555163 
L 177.158874 215.900279 
L 177.115454 215.245395 
L 176.073363 214.590512 
L 174.698383 213.935628 
L 173.844448 213.280744 
L 173.497085 213.280744 
L 172.947093 211.970977 
L 172.541835 211.316093 
L 170.848438 210.661209 
L 170.457655 210.006326 
L 170.341867 209.351442 
L 170.226079 208.041674 
L 169.777401 207.386791 
L 169.733981 206.077023 
L 169.097148 205.42214 
L 168.98136 204.767256 
L 168.590576 204.112372 
L 167.461645 202.802605 
L 167.114282 202.147721 
L 164.784052 201.492837 
L 162.830133 200.837953 
L 161.874883 199.528186 
L 161.759095 198.873302 
L 161.614361 198.218419 
L 160.514376 197.563535 
L 159.472286 196.908651 
L 157.344685 196.253767 
L 155.130243 195.598884 
L 154.059206 194.944 
L 153.798683 194.289116 
L 153.668422 193.634233 
L 152.756593 192.979349 
L 152.553965 192.324465 
L 151.656609 191.669581 
L 149.818478 191.014698 
L 148.732967 190.359814 
L 148.052713 189.70493 
L 147.864558 189.050047 
L 147.632983 188.395163 
L 147.560615 187.085395 
L 146.634313 186.430512 
L 144.260663 185.775628 
L 144.029087 185.120744 
L 143.160678 184.46586 
L 143.102785 183.810977 
L 142.929103 183.156093 
L 142.451478 182.501209 
L 142.422531 181.191442 
L 142.306743 180.536558 
L 141.887013 180.536558 
L 141.539649 179.881674 
L 141.177812 179.226791 
L 139.209419 178.571907 
L 137.038398 177.917023 
L 136.835769 177.26214 
L 136.184463 176.607256 
L 135.648944 175.952372 
L 135.533156 175.297488 
L 133.998968 174.642605 
L 133.087139 173.987721 
L 132.710829 173.332837 
L 131.871367 172.677953 
L 131.596371 172.02307 
L 131.567424 171.368186 
L 130.293758 171.368186 
L 129.425349 170.058419 
L 128.774043 169.403535 
L 128.064843 168.748651 
L 128.035896 168.093767 
L 125.141201 167.438884 
L 125.010939 166.784 
L 124.345159 166.129116 
L 124.070163 165.474233 
L 121.783354 164.819349 
L 121.450464 164.819349 
L 120.495215 164.819349 
L 120.191272 164.164465 
L 119.438651 163.509581 
L 118.961026 163.509581 
L 117.571572 162.854698 
L 117.368944 162.854698 
L 116.746584 162.199814 
L 115.878176 161.54493 
L 114.662404 160.890047 
L 114.561089 160.890047 
L 111.955864 158.925395 
L 111.89797 158.925395 
L 111.738762 158.270512 
L 109.972997 157.615628 
L 109.669054 156.960744 
L 109.003275 156.30586 
L 107.700662 156.30586 
L 107.657241 156.30586 
L 107.425666 155.650977 
L 106.90462 155.650977 
L 106.383575 154.996093 
L 105.370432 154.341209 
L 105.327012 153.686326 
L 103.807297 152.376558 
L 102.012586 151.721674 
L 101.231018 151.066791 
L 100.912601 149.757023 
L 100.854707 149.10214 
L 100.478397 148.447256 
L 100.174454 147.792372 
L 100.131034 147.792372 
L 100.11656 147.137488 
L 97.656069 146.482605 
L 97.381073 146.482605 
L 97.048183 145.827721 
L 96.585032 145.827721 
L 96.440297 145.827721 
L 95.774517 145.172837 
L 94.964003 144.517953 
L 94.356117 144.517953 
L 93.357447 144.517953 
L 92.532459 143.86307 
L 91.837732 143.208186 
L 90.983797 143.208186 
L 90.115388 143.208186 
L 89.927233 143.208186 
L 89.652237 143.208186 
L 89.579869 143.208186 
L 89.160139 143.208186 
L 88.103575 143.208186 
L 88.016734 142.553302 
L 87.91542 142.553302 
L 87.799632 141.898419 
L 87.741738 141.898419 
L 87.336481 141.243535 
L 87.220693 140.588651 
L 86.974644 139.933767 
L 86.873329 139.933767 
L 86.656227 138.624 
L 86.033868 138.624 
L 85.990447 138.624 
L 85.324667 137.969116 
L 84.991777 137.314233 
L 84.948357 137.314233 
L 84.803622 137.314233 
L 84.629941 137.314233 
L 84.572047 137.314233 
L 83.761532 137.314233 
L 83.616797 136.659349 
L 83.54443 136.659349 
L 83.298381 136.004465 
L 83.037858 136.004465 
L 82.719442 135.349581 
L 82.647074 135.349581 
L 82.531286 134.694698 
L 82.270764 134.694698 
L 81.952347 134.694698 
L 81.749719 134.694698 
L 81.156306 134.694698 
L 81.127359 134.694698 
L 80.779996 134.694698 
L 80.678682 134.694698 
L 80.562894 134.694698 
L 80.54842 134.694698 
L 80.085269 134.694698 
L 79.983955 134.694698 
L 79.607644 134.694698 
L 79.274754 134.694698 
L 79.144493 134.694698 
L 78.435293 134.694698 
L 78.348452 134.694698 
L 78.276084 134.694698 
L 78.232664 134.694698 
L 78.17477 134.694698 
L 78.001088 134.694698 
L 77.769513 134.694698 
L 77.682672 134.694698 
L 77.581358 134.694698 
L 77.13268 134.694698 
L 77.045839 134.694698 
L 76.872157 134.694698 
L 76.857684 134.694698 
L 76.814263 134.694698 
L 76.741896 134.694698 
L 76.582688 134.694698 
L 76.553741 134.694698 
L 76.539267 134.694698 
L 76.394533 134.039814 
L 76.264271 134.039814 
L 76.003749 134.039814 
L 75.612965 134.039814 
L 75.497177 133.38493 
L 75.395863 133.38493 
L 75.366916 133.38493 
L 75.280075 133.38493 
L 74.889291 133.38493 
L 74.744556 133.38493 
L 74.498507 133.38493 
L 74.310352 133.38493 
L 74.281405 133.38493 
L 73.832727 132.730047 
z
" clip-path="url(#p9a57e72398)" style="fill: #008000"/>
   </g>
   <g id="PolyCollection_2">
    <path d="M 73.832727 132.730047 
L 73.832727 132.730047 
L 74.281405 133.38493 
L 74.310352 133.38493 
L 74.498507 133.38493 
L 74.744556 133.38493 
L 74.889291 133.38493 
L 75.280075 133.38493 
L 75.366916 133.38493 
L 75.395863 133.38493 
L 75.497177 133.38493 
L 75.612965 134.039814 
L 76.003749 134.039814 
L 76.264271 134.039814 
L 76.394533 134.039814 
L 76.539267 134.694698 
L 76.553741 134.694698 
L 76.582688 134.694698 
L 76.741896 134.694698 
L 76.814263 134.694698 
L 76.857684 134.694698 
L 76.872157 134.694698 
L 77.045839 134.694698 
L 77.13268 134.694698 
L 77.581358 134.694698 
L 77.682672 134.694698 
L 77.769513 134.694698 
L 78.001088 134.694698 
L 78.17477 134.694698 
L 78.232664 134.694698 
L 78.276084 134.694698 
L 78.348452 134.694698 
L 78.435293 134.694698 
L 79.144493 134.694698 
L 79.274754 134.694698 
L 79.607644 134.694698 
L 79.983955 134.694698 
L 80.085269 134.694698 
L 80.54842 134.694698 
L 80.562894 134.694698 
L 80.678682 134.694698 
L 80.779996 134.694698 
L 81.127359 134.694698 
L 81.156306 134.694698 
L 81.749719 134.694698 
L 81.952347 134.694698 
L 82.270764 134.694698 
L 82.531286 134.694698 
L 82.647074 135.349581 
L 82.719442 135.349581 
L 83.037858 136.004465 
L 83.298381 136.004465 
L 83.54443 136.659349 
L 83.616797 136.659349 
L 83.761532 137.314233 
L 84.572047 137.314233 
L 84.629941 137.314233 
L 84.803622 137.314233 
L 84.948357 137.314233 
L 84.991777 137.314233 
L 85.324667 137.969116 
L 85.990447 138.624 
L 86.033868 138.624 
L 86.656227 138.624 
L 86.873329 139.933767 
L 86.974644 139.933767 
L 87.220693 140.588651 
L 87.336481 141.243535 
L 87.741738 141.898419 
L 87.799632 141.898419 
L 87.91542 142.553302 
L 88.016734 142.553302 
L 88.103575 143.208186 
L 89.160139 143.208186 
L 89.579869 143.208186 
L 89.652237 143.208186 
L 89.927233 143.208186 
L 90.115388 143.208186 
L 90.983797 143.208186 
L 91.837732 143.208186 
L 92.532459 143.86307 
L 93.357447 144.517953 
L 94.356117 144.517953 
L 94.964003 144.517953 
L 95.774517 145.172837 
L 96.440297 145.827721 
L 96.585032 145.827721 
L 97.048183 145.827721 
L 97.381073 146.482605 
L 97.656069 146.482605 
L 100.11656 147.137488 
L 100.131034 147.792372 
L 100.174454 147.792372 
L 100.478397 148.447256 
L 100.854707 149.10214 
L 100.912601 149.757023 
L 101.231018 151.066791 
L 102.012586 151.721674 
L 103.807297 152.376558 
L 105.327012 153.686326 
L 105.370432 154.341209 
L 106.383575 154.996093 
L 106.90462 155.650977 
L 107.425666 155.650977 
L 107.657241 156.30586 
L 107.700662 156.30586 
L 109.003275 156.30586 
L 109.669054 156.960744 
L 109.972997 157.615628 
L 111.738762 158.270512 
L 111.89797 158.925395 
L 111.955864 158.925395 
L 114.561089 160.890047 
L 114.662404 160.890047 
L 115.878176 161.54493 
L 116.746584 162.199814 
L 117.368944 162.854698 
L 117.571572 162.854698 
L 118.961026 163.509581 
L 119.438651 163.509581 
L 120.191272 164.164465 
L 120.495215 164.819349 
L 121.450464 164.819349 
L 121.783354 164.819349 
L 124.070163 165.474233 
L 124.345159 166.129116 
L 125.010939 166.784 
L 125.141201 167.438884 
L 128.035896 168.093767 
L 128.064843 168.748651 
L 128.774043 169.403535 
L 129.425349 170.058419 
L 130.293758 171.368186 
L 131.567424 171.368186 
L 131.596371 172.02307 
L 131.871367 172.677953 
L 132.710829 173.332837 
L 133.087139 173.987721 
L 133.998968 174.642605 
L 135.533156 175.297488 
L 135.648944 175.952372 
L 136.184463 176.607256 
L 136.835769 177.26214 
L 137.038398 177.917023 
L 139.209419 178.571907 
L 141.177812 179.226791 
L 141.539649 179.881674 
L 141.887013 180.536558 
L 142.306743 180.536558 
L 142.422531 181.191442 
L 142.451478 182.501209 
L 142.929103 183.156093 
L 143.102785 183.810977 
L 143.160678 184.46586 
L 144.029087 185.120744 
L 144.260663 185.775628 
L 146.634313 186.430512 
L 147.560615 187.085395 
L 147.632983 188.395163 
L 147.864558 189.050047 
L 148.052713 189.70493 
L 148.732967 190.359814 
L 149.818478 191.014698 
L 151.656609 191.669581 
L 152.553965 192.324465 
L 152.756593 192.979349 
L 153.668422 193.634233 
L 153.798683 194.289116 
L 154.059206 194.944 
L 155.130243 195.598884 
L 157.344685 196.253767 
L 159.472286 196.908651 
L 160.514376 197.563535 
L 161.614361 198.218419 
L 161.759095 198.873302 
L 161.874883 199.528186 
L 162.830133 200.837953 
L 164.784052 201.492837 
L 167.114282 202.147721 
L 167.461645 202.802605 
L 168.590576 204.112372 
L 168.98136 204.767256 
L 169.097148 205.42214 
L 169.733981 206.077023 
L 169.777401 207.386791 
L 170.226079 208.041674 
L 170.341867 209.351442 
L 170.457655 210.006326 
L 170.848438 210.661209 
L 172.541835 211.316093 
L 172.947093 211.970977 
L 173.497085 213.280744 
L 173.844448 213.280744 
L 174.698383 213.935628 
L 176.073363 214.590512 
L 177.115454 215.245395 
L 177.158874 215.900279 
L 178.215438 216.555163 
L 179.069373 217.210047 
L 179.749626 217.86493 
L 180.082516 218.519814 
L 180.690402 219.174698 
L 180.950925 219.829581 
L 181.09566 220.484465 
L 181.573284 221.139349 
L 182.615375 221.794233 
L 183.223261 222.449116 
L 183.614045 223.104 
L 183.628518 223.758884 
L 185.336388 224.413767 
L 189.54817 225.068651 
L 189.635011 225.723535 
L 189.88106 226.378419 
L 190.170529 227.688186 
L 191.429722 229.652837 
L 191.58893 230.307721 
L 192.081028 230.962605 
L 193.62969 231.617488 
L 194.613886 232.927256 
L 194.744148 234.237023 
L 195.250719 234.891907 
L 195.612556 235.546791 
L 198.811195 236.201674 
L 199.607236 236.856558 
L 200.533538 236.856558 
L 201.865098 237.511442 
L 202.661139 238.166326 
L 203.79007 239.476093 
L 203.833491 240.130977 
L 205.497941 241.440744 
L 206.959762 242.095628 
L 208.218954 242.750512 
L 208.49395 243.405395 
L 209.275518 244.715163 
L 209.405779 245.370047 
L 209.82551 245.370047 
L 210.447869 246.02493 
L 212.618891 246.679814 
L 214.341235 247.334698 
L 215.383325 247.989581 
L 215.991211 249.299349 
L 216.439889 249.954233 
L 217.322771 250.609116 
L 218.958273 251.264 
L 219.103008 251.918884 
L 221.520079 252.573767 
L 221.563499 253.228651 
L 221.635867 254.538419 
L 222.113491 255.848186 
L 222.576643 256.50307 
L 223.256896 257.157953 
L 224.516088 257.812837 
L 225.977909 258.467721 
L 226.050277 259.122605 
L 226.759477 259.777488 
L 226.846318 260.432372 
L 227.164735 261.087256 
L 227.410784 261.74214 
L 227.656833 262.397023 
L 227.859461 263.706791 
L 228.785764 264.361674 
L 229.234442 265.016558 
L 230.377846 266.326326 
L 230.464687 266.981209 
L 231.000206 267.636093 
L 231.39099 268.290977 
L 235.125146 269.600744 
L 235.400142 271.565395 
L 235.631718 272.220279 
L 236.254078 272.875163 
L 236.572494 273.530047 
L 239.047459 274.18493 
L 239.959288 274.839814 
L 242.564513 275.494698 
L 242.810562 276.149581 
L 242.955297 276.804465 
L 243.056611 277.459349 
L 243.896073 278.114233 
L 245.169739 278.769116 
L 245.980254 279.424 
L 247.25392 280.078884 
L 248.817055 281.388651 
L 252.522265 282.043535 
L 253.173571 282.698419 
L 255.185385 283.353302 
L 255.619589 284.008186 
L 256.922202 284.66307 
L 257.74719 285.317953 
L 257.805084 286.627721 
L 259.252431 287.937488 
L 260.381362 288.592372 
L 266.778639 289.90214 
L 270.990421 290.557023 
L 271.120682 291.211907 
L 273.885116 291.866791 
L 274.898259 292.521674 
L 280.817911 293.176558 
L 284.595488 294.486326 
L 285.116533 295.141209 
L 290.384879 295.796093 
L 290.746716 296.450977 
L 293.742725 297.10586 
L 297.361094 297.760744 
L 300.313683 299.070512 
L 301.283406 299.725395 
L 302.904436 300.380279 
L 304.192575 301.035163 
L 305.75571 301.690047 
L 308.274095 302.34493 
L 310.256962 302.999814 
L 314.106906 303.654698 
L 327.465925 304.309581 
L 340.969678 304.964465 
L 374.157359 305.619349 
L 385.128254 306.274233 
L 398.487273 306.929116 
L 398.487273 306.929116 
L 398.487273 306.929116 
L 385.128254 306.274233 
L 374.157359 305.619349 
L 340.969678 304.964465 
L 327.465925 304.309581 
L 314.106906 303.654698 
L 310.256962 302.999814 
L 308.274095 302.34493 
L 305.75571 301.690047 
L 304.192575 301.035163 
L 302.904436 300.380279 
L 301.283406 299.725395 
L 300.313683 299.070512 
L 297.361094 297.760744 
L 293.742725 297.10586 
L 290.746716 296.450977 
L 290.384879 295.796093 
L 285.116533 295.141209 
L 284.595488 294.486326 
L 280.817911 293.176558 
L 274.898259 292.521674 
L 273.885116 291.866791 
L 271.120682 291.211907 
L 270.990421 290.557023 
L 266.778639 289.90214 
L 260.381362 288.592372 
L 259.252431 287.937488 
L 257.805084 286.627721 
L 257.74719 285.317953 
L 256.922202 284.66307 
L 255.619589 284.008186 
L 255.185385 283.353302 
L 253.173571 282.698419 
L 252.522265 282.043535 
L 248.817055 281.388651 
L 247.25392 280.078884 
L 245.980254 279.424 
L 245.169739 278.769116 
L 243.896073 278.114233 
L 243.056611 277.459349 
L 242.955297 276.804465 
L 242.810562 276.149581 
L 242.564513 275.494698 
L 239.959288 274.839814 
L 239.047459 274.18493 
L 236.572494 273.530047 
L 236.254078 272.875163 
L 235.631718 272.220279 
L 235.400142 271.565395 
L 235.125146 269.600744 
L 231.39099 268.290977 
L 231.000206 267.636093 
L 230.464687 266.981209 
L 230.377846 266.326326 
L 229.234442 265.016558 
L 228.785764 264.361674 
L 227.859461 263.706791 
L 227.656833 262.397023 
L 227.410784 261.74214 
L 227.164735 261.087256 
L 226.846318 260.432372 
L 226.759477 259.777488 
L 226.050277 259.122605 
L 225.977909 258.467721 
L 224.516088 257.812837 
L 223.256896 257.157953 
L 222.576643 256.50307 
L 222.113491 255.848186 
L 221.635867 254.538419 
L 221.563499 253.228651 
L 221.520079 252.573767 
L 219.103008 251.918884 
L 218.958273 251.264 
L 217.322771 250.609116 
L 216.439889 249.954233 
L 215.991211 249.299349 
L 215.383325 247.989581 
L 214.341235 247.334698 
L 212.618891 246.679814 
L 210.447869 246.02493 
L 209.82551 245.370047 
L 209.405779 245.370047 
L 209.275518 244.715163 
L 208.49395 243.405395 
L 208.218954 242.750512 
L 206.959762 242.095628 
L 205.497941 241.440744 
L 203.833491 240.130977 
L 203.79007 239.476093 
L 202.661139 238.166326 
L 201.865098 237.511442 
L 200.533538 236.856558 
L 199.607236 236.856558 
L 198.811195 236.201674 
L 195.612556 235.546791 
L 195.250719 234.891907 
L 194.744148 234.237023 
L 194.613886 232.927256 
L 193.62969 231.617488 
L 192.081028 230.962605 
L 191.58893 230.307721 
L 191.429722 229.652837 
L 190.170529 227.688186 
L 189.88106 226.378419 
L 189.635011 225.723535 
L 189.54817 225.068651 
L 185.336388 224.413767 
L 183.628518 223.758884 
L 183.614045 223.104 
L 183.223261 222.449116 
L 182.615375 221.794233 
L 181.573284 221.139349 
L 181.09566 220.484465 
L 180.950925 219.829581 
L 180.690402 219.174698 
L 180.082516 218.519814 
L 179.749626 217.86493 
L 179.069373 217.210047 
L 178.215438 216.555163 
L 177.158874 215.900279 
L 177.115454 215.245395 
L 176.073363 214.590512 
L 174.698383 213.935628 
L 173.844448 213.280744 
L 173.497085 213.280744 
L 172.947093 211.970977 
L 172.541835 211.316093 
L 170.848438 210.661209 
L 170.457655 210.006326 
L 170.341867 209.351442 
L 170.226079 208.041674 
L 169.777401 207.386791 
L 169.733981 206.077023 
L 169.097148 205.42214 
L 168.98136 204.767256 
L 168.590576 204.112372 
L 167.461645 202.802605 
L 167.114282 202.147721 
L 164.784052 201.492837 
L 162.830133 200.837953 
L 161.874883 199.528186 
L 161.759095 198.873302 
L 161.614361 198.218419 
L 160.514376 197.563535 
L 159.472286 196.908651 
L 157.344685 196.253767 
L 155.130243 195.598884 
L 154.059206 194.944 
L 153.798683 194.289116 
L 153.668422 193.634233 
L 152.756593 192.979349 
L 152.553965 192.324465 
L 151.656609 191.669581 
L 149.818478 191.014698 
L 148.732967 190.359814 
L 148.052713 189.70493 
L 147.864558 189.050047 
L 147.632983 188.395163 
L 147.560615 187.085395 
L 146.634313 186.430512 
L 144.260663 185.775628 
L 144.029087 185.120744 
L 143.160678 184.46586 
L 143.102785 183.810977 
L 142.929103 183.156093 
L 142.451478 182.501209 
L 142.422531 181.191442 
L 142.306743 180.536558 
L 141.887013 180.536558 
L 141.539649 179.881674 
L 141.177812 179.226791 
L 139.209419 178.571907 
L 137.038398 177.917023 
L 136.835769 177.26214 
L 136.184463 176.607256 
L 135.648944 175.952372 
L 135.533156 175.297488 
L 133.998968 174.642605 
L 133.087139 173.987721 
L 132.710829 173.332837 
L 131.871367 172.677953 
L 131.596371 172.02307 
L 131.567424 171.368186 
L 130.293758 171.368186 
L 129.425349 170.058419 
L 128.774043 169.403535 
L 128.064843 168.748651 
L 128.035896 168.093767 
L 125.141201 167.438884 
L 125.010939 166.784 
L 124.345159 166.129116 
L 124.070163 165.474233 
L 121.783354 164.819349 
L 121.450464 164.819349 
L 120.495215 164.819349 
L 120.191272 164.164465 
L 119.438651 163.509581 
L 118.961026 163.509581 
L 117.571572 162.854698 
L 117.368944 162.854698 
L 116.746584 162.199814 
L 115.878176 161.54493 
L 114.662404 160.890047 
L 114.561089 160.890047 
L 111.955864 158.925395 
L 111.89797 158.925395 
L 111.738762 158.270512 
L 109.972997 157.615628 
L 109.669054 156.960744 
L 109.003275 156.30586 
L 107.700662 156.30586 
L 107.657241 156.30586 
L 107.425666 155.650977 
L 106.90462 155.650977 
L 106.383575 154.996093 
L 105.370432 154.341209 
L 105.327012 153.686326 
L 103.807297 152.376558 
L 102.012586 151.721674 
L 101.231018 151.066791 
L 100.912601 149.757023 
L 100.854707 149.10214 
L 100.478397 148.447256 
L 100.174454 147.792372 
L 100.131034 147.792372 
L 100.11656 147.137488 
L 97.656069 146.482605 
L 97.381073 146.482605 
L 97.048183 145.827721 
L 96.585032 145.827721 
L 96.440297 145.827721 
L 95.774517 145.172837 
L 94.964003 144.517953 
L 94.356117 144.517953 
L 93.357447 144.517953 
L 92.532459 143.86307 
L 91.837732 143.208186 
L 90.983797 143.208186 
L 90.115388 143.208186 
L 89.927233 143.208186 
L 89.652237 143.208186 
L 89.579869 143.208186 
L 89.160139 143.208186 
L 88.103575 143.208186 
L 88.016734 142.553302 
L 87.91542 142.553302 
L 87.799632 141.898419 
L 87.741738 141.898419 
L 87.336481 141.243535 
L 87.220693 140.588651 
L 86.974644 139.933767 
L 86.873329 139.933767 
L 86.656227 138.624 
L 86.033868 138.624 
L 85.990447 138.624 
L 85.324667 137.969116 
L 84.991777 137.314233 
L 84.948357 137.314233 
L 84.803622 137.314233 
L 84.629941 137.314233 
L 84.572047 137.314233 
L 83.761532 137.314233 
L 83.616797 136.659349 
L 83.54443 136.659349 
L 83.298381 136.004465 
L 83.037858 136.004465 
L 82.719442 135.349581 
L 82.647074 135.349581 
L 82.531286 134.694698 
L 82.270764 134.694698 
L 81.952347 134.694698 
L 81.749719 134.694698 
L 81.156306 134.694698 
L 81.127359 134.694698 
L 80.779996 134.694698 
L 80.678682 134.694698 
L 80.562894 134.694698 
L 80.54842 134.694698 
L 80.085269 134.694698 
L 79.983955 134.694698 
L 79.607644 134.694698 
L 79.274754 134.694698 
L 79.144493 134.694698 
L 78.435293 134.694698 
L 78.348452 134.694698 
L 78.276084 134.694698 
L 78.232664 134.694698 
L 78.17477 134.694698 
L 78.001088 134.694698 
L 77.769513 134.694698 
L 77.682672 134.694698 
L 77.581358 134.694698 
L 77.13268 134.694698 
L 77.045839 134.694698 
L 76.872157 134.694698 
L 76.857684 134.694698 
L 76.814263 134.694698 
L 76.741896 134.694698 
L 76.582688 134.694698 
L 76.553741 134.694698 
L 76.539267 134.694698 
L 76.394533 134.039814 
L 76.264271 134.039814 
L 76.003749 134.039814 
L 75.612965 134.039814 
L 75.497177 133.38493 
L 75.395863 133.38493 
L 75.366916 133.38493 
L 75.280075 133.38493 
L 74.889291 133.38493 
L 74.744556 133.38493 
L 74.498507 133.38493 
L 74.310352 133.38493 
L 74.281405 133.38493 
L 73.832727 132.730047 
z
" clip-path="url(#p9a57e72398)" style="fill: #7cfc00"/>
   </g>
   <g id="PolyCollection_3">
    <path d="M 73.832727 54.144 
L 73.832727 132.730047 
L 74.281405 133.38493 
L 74.310352 133.38493 
L 74.498507 133.38493 
L 74.744556 133.38493 
L 74.889291 133.38493 
L 75.280075 133.38493 
L 75.366916 133.38493 
L 75.395863 133.38493 
L 75.497177 133.38493 
L 75.612965 134.039814 
L 76.003749 134.039814 
L 76.264271 134.039814 
L 76.394533 134.039814 
L 76.539267 134.694698 
L 76.553741 134.694698 
L 76.582688 134.694698 
L 76.741896 134.694698 
L 76.814263 134.694698 
L 76.857684 134.694698 
L 76.872157 134.694698 
L 77.045839 134.694698 
L 77.13268 134.694698 
L 77.581358 134.694698 
L 77.682672 134.694698 
L 77.769513 134.694698 
L 78.001088 134.694698 
L 78.17477 134.694698 
L 78.232664 134.694698 
L 78.276084 134.694698 
L 78.348452 134.694698 
L 78.435293 134.694698 
L 79.144493 134.694698 
L 79.274754 134.694698 
L 79.607644 134.694698 
L 79.983955 134.694698 
L 80.085269 134.694698 
L 80.54842 134.694698 
L 80.562894 134.694698 
L 80.678682 134.694698 
L 80.779996 134.694698 
L 81.127359 134.694698 
L 81.156306 134.694698 
L 81.749719 134.694698 
L 81.952347 134.694698 
L 82.270764 134.694698 
L 82.531286 134.694698 
L 82.647074 135.349581 
L 82.719442 135.349581 
L 83.037858 136.004465 
L 83.298381 136.004465 
L 83.54443 136.659349 
L 83.616797 136.659349 
L 83.761532 137.314233 
L 84.572047 137.314233 
L 84.629941 137.314233 
L 84.803622 137.314233 
L 84.948357 137.314233 
L 84.991777 137.314233 
L 85.324667 137.969116 
L 85.990447 138.624 
L 86.033868 138.624 
L 86.656227 138.624 
L 86.873329 139.933767 
L 86.974644 139.933767 
L 87.220693 140.588651 
L 87.336481 141.243535 
L 87.741738 141.898419 
L 87.799632 141.898419 
L 87.91542 142.553302 
L 88.016734 142.553302 
L 88.103575 143.208186 
L 89.160139 143.208186 
L 89.579869 143.208186 
L 89.652237 143.208186 
L 89.927233 143.208186 
L 90.115388 143.208186 
L 90.983797 143.208186 
L 91.837732 143.208186 
L 92.532459 143.86307 
L 93.357447 144.517953 
L 94.356117 144.517953 
L 94.964003 144.517953 
L 95.774517 145.172837 
L 96.440297 145.827721 
L 96.585032 145.827721 
L 97.048183 145.827721 
L 97.381073 146.482605 
L 97.656069 146.482605 
L 100.11656 147.137488 
L 100.131034 147.792372 
L 100.174454 147.792372 
L 100.478397 148.447256 
L 100.854707 149.10214 
L 100.912601 149.757023 
L 101.231018 151.066791 
L 102.012586 151.721674 
L 103.807297 152.376558 
L 105.327012 153.686326 
L 105.370432 154.341209 
L 106.383575 154.996093 
L 106.90462 155.650977 
L 107.425666 155.650977 
L 107.657241 156.30586 
L 107.700662 156.30586 
L 109.003275 156.30586 
L 109.669054 156.960744 
L 109.972997 157.615628 
L 111.738762 158.270512 
L 111.89797 158.925395 
L 111.955864 158.925395 
L 114.561089 160.890047 
L 114.662404 160.890047 
L 115.878176 161.54493 
L 116.746584 162.199814 
L 117.368944 162.854698 
L 117.571572 162.854698 
L 118.961026 163.509581 
L 119.438651 163.509581 
L 120.191272 164.164465 
L 120.495215 164.819349 
L 121.450464 164.819349 
L 121.783354 164.819349 
L 124.070163 165.474233 
L 124.345159 166.129116 
L 125.010939 166.784 
L 125.141201 167.438884 
L 128.035896 168.093767 
L 128.064843 168.748651 
L 128.774043 169.403535 
L 129.425349 170.058419 
L 130.293758 171.368186 
L 131.567424 171.368186 
L 131.596371 172.02307 
L 131.871367 172.677953 
L 132.710829 173.332837 
L 133.087139 173.987721 
L 133.998968 174.642605 
L 135.533156 175.297488 
L 135.648944 175.952372 
L 136.184463 176.607256 
L 136.835769 177.26214 
L 137.038398 177.917023 
L 139.209419 178.571907 
L 141.177812 179.226791 
L 141.539649 179.881674 
L 141.887013 180.536558 
L 142.306743 180.536558 
L 142.422531 181.191442 
L 142.451478 182.501209 
L 142.929103 183.156093 
L 143.102785 183.810977 
L 143.160678 184.46586 
L 144.029087 185.120744 
L 144.260663 185.775628 
L 146.634313 186.430512 
L 147.560615 187.085395 
L 147.632983 188.395163 
L 147.864558 189.050047 
L 148.052713 189.70493 
L 148.732967 190.359814 
L 149.818478 191.014698 
L 151.656609 191.669581 
L 152.553965 192.324465 
L 152.756593 192.979349 
L 153.668422 193.634233 
L 153.798683 194.289116 
L 154.059206 194.944 
L 155.130243 195.598884 
L 157.344685 196.253767 
L 159.472286 196.908651 
L 160.514376 197.563535 
L 161.614361 198.218419 
L 161.759095 198.873302 
L 161.874883 199.528186 
L 162.830133 200.837953 
L 164.784052 201.492837 
L 167.114282 202.147721 
L 167.461645 202.802605 
L 168.590576 204.112372 
L 168.98136 204.767256 
L 169.097148 205.42214 
L 169.733981 206.077023 
L 169.777401 207.386791 
L 170.226079 208.041674 
L 170.341867 209.351442 
L 170.457655 210.006326 
L 170.848438 210.661209 
L 172.541835 211.316093 
L 172.947093 211.970977 
L 173.497085 213.280744 
L 173.844448 213.280744 
L 174.698383 213.935628 
L 176.073363 214.590512 
L 177.115454 215.245395 
L 177.158874 215.900279 
L 178.215438 216.555163 
L 179.069373 217.210047 
L 179.749626 217.86493 
L 180.082516 218.519814 
L 180.690402 219.174698 
L 180.950925 219.829581 
L 181.09566 220.484465 
L 181.573284 221.139349 
L 182.615375 221.794233 
L 183.223261 222.449116 
L 183.614045 223.104 
L 183.628518 223.758884 
L 185.336388 224.413767 
L 189.54817 225.068651 
L 189.635011 225.723535 
L 189.88106 226.378419 
L 190.170529 227.688186 
L 191.429722 229.652837 
L 191.58893 230.307721 
L 192.081028 230.962605 
L 193.62969 231.617488 
L 194.613886 232.927256 
L 194.744148 234.237023 
L 195.250719 234.891907 
L 195.612556 235.546791 
L 198.811195 236.201674 
L 199.607236 236.856558 
L 200.533538 236.856558 
L 201.865098 237.511442 
L 202.661139 238.166326 
L 203.79007 239.476093 
L 203.833491 240.130977 
L 205.497941 241.440744 
L 206.959762 242.095628 
L 208.218954 242.750512 
L 208.49395 243.405395 
L 209.275518 244.715163 
L 209.405779 245.370047 
L 209.82551 245.370047 
L 210.447869 246.02493 
L 212.618891 246.679814 
L 214.341235 247.334698 
L 215.383325 247.989581 
L 215.991211 249.299349 
L 216.439889 249.954233 
L 217.322771 250.609116 
L 218.958273 251.264 
L 219.103008 251.918884 
L 221.520079 252.573767 
L 221.563499 253.228651 
L 221.635867 254.538419 
L 222.113491 255.848186 
L 222.576643 256.50307 
L 223.256896 257.157953 
L 224.516088 257.812837 
L 225.977909 258.467721 
L 226.050277 259.122605 
L 226.759477 259.777488 
L 226.846318 260.432372 
L 227.164735 261.087256 
L 227.410784 261.74214 
L 227.656833 262.397023 
L 227.859461 263.706791 
L 228.785764 264.361674 
L 229.234442 265.016558 
L 230.377846 266.326326 
L 230.464687 266.981209 
L 231.000206 267.636093 
L 231.39099 268.290977 
L 235.125146 269.600744 
L 235.400142 271.565395 
L 235.631718 272.220279 
L 236.254078 272.875163 
L 236.572494 273.530047 
L 239.047459 274.18493 
L 239.959288 274.839814 
L 242.564513 275.494698 
L 242.810562 276.149581 
L 242.955297 276.804465 
L 243.056611 277.459349 
L 243.896073 278.114233 
L 245.169739 278.769116 
L 245.980254 279.424 
L 247.25392 280.078884 
L 248.817055 281.388651 
L 252.522265 282.043535 
L 253.173571 282.698419 
L 255.185385 283.353302 
L 255.619589 284.008186 
L 256.922202 284.66307 
L 257.74719 285.317953 
L 257.805084 286.627721 
L 259.252431 287.937488 
L 260.381362 288.592372 
L 266.778639 289.90214 
L 270.990421 290.557023 
L 271.120682 291.211907 
L 273.885116 291.866791 
L 274.898259 292.521674 
L 280.817911 293.176558 
L 284.595488 294.486326 
L 285.116533 295.141209 
L 290.384879 295.796093 
L 290.746716 296.450977 
L 293.742725 297.10586 
L 297.361094 297.760744 
L 300.313683 299.070512 
L 301.283406 299.725395 
L 302.904436 300.380279 
L 304.192575 301.035163 
L 305.75571 301.690047 
L 308.274095 302.34493 
L 310.256962 302.999814 
L 314.106906 303.654698 
L 327.465925 304.309581 
L 340.969678 304.964465 
L 374.157359 305.619349 
L 385.128254 306.274233 
L 398.487273 306.929116 
L 398.487273 306.929116 
L 398.487273 306.929116 
L 385.128254 306.274233 
L 374.157359 305.619349 
L 340.969678 304.964465 
L 327.465925 304.309581 
L 314.106906 303.654698 
L 310.256962 302.999814 
L 308.274095 302.34493 
L 305.75571 301.690047 
L 304.192575 301.035163 
L 302.904436 300.380279 
L 301.283406 299.725395 
L 300.313683 299.070512 
L 297.361094 297.760744 
L 293.742725 297.10586 
L 290.746716 296.450977 
L 290.384879 295.796093 
L 285.116533 295.141209 
L 284.595488 294.486326 
L 280.817911 293.176558 
L 274.898259 292.521674 
L 273.885116 291.866791 
L 271.120682 291.211907 
L 270.990421 290.557023 
L 266.778639 289.90214 
L 260.381362 288.592372 
L 259.252431 287.937488 
L 257.805084 286.627721 
L 257.74719 285.317953 
L 256.922202 284.66307 
L 255.619589 284.008186 
L 255.185385 283.353302 
L 253.173571 282.698419 
L 252.522265 282.043535 
L 248.817055 281.388651 
L 247.25392 280.078884 
L 245.980254 279.424 
L 245.169739 278.769116 
L 243.896073 278.114233 
L 243.056611 277.459349 
L 242.955297 276.804465 
L 242.810562 276.149581 
L 242.564513 275.494698 
L 239.959288 274.839814 
L 239.047459 274.18493 
L 236.572494 273.530047 
L 236.254078 272.875163 
L 235.631718 272.220279 
L 235.400142 271.565395 
L 235.125146 269.600744 
L 231.39099 268.290977 
L 231.000206 267.636093 
L 230.464687 266.981209 
L 230.377846 266.326326 
L 229.234442 265.016558 
L 228.785764 264.361674 
L 227.859461 263.706791 
L 227.656833 262.397023 
L 227.410784 261.74214 
L 227.164735 261.087256 
L 226.846318 260.432372 
L 226.759477 259.777488 
L 226.050277 259.122605 
L 225.977909 258.467721 
L 224.516088 257.812837 
L 223.256896 257.157953 
L 222.576643 256.50307 
L 222.113491 255.848186 
L 221.635867 254.538419 
L 221.563499 253.228651 
L 221.520079 252.573767 
L 219.103008 251.918884 
L 218.958273 251.264 
L 217.322771 250.609116 
L 216.439889 249.954233 
L 215.991211 249.299349 
L 215.383325 247.989581 
L 214.341235 247.334698 
L 212.618891 246.679814 
L 210.447869 246.02493 
L 209.82551 245.370047 
L 209.405779 244.715163 
L 209.275518 244.060279 
L 208.49395 242.750512 
L 208.218954 242.095628 
L 206.959762 241.440744 
L 205.497941 240.78586 
L 203.833491 239.476093 
L 203.79007 238.821209 
L 202.661139 237.511442 
L 201.865098 236.856558 
L 200.533538 236.201674 
L 199.607236 235.546791 
L 198.811195 234.891907 
L 195.612556 234.237023 
L 195.250719 233.58214 
L 194.744148 232.927256 
L 194.613886 231.617488 
L 193.62969 230.307721 
L 192.081028 229.652837 
L 191.58893 228.997953 
L 191.429722 228.34307 
L 190.170529 226.378419 
L 189.88106 225.068651 
L 189.635011 224.413767 
L 189.54817 223.758884 
L 185.336388 223.104 
L 183.628518 222.449116 
L 183.614045 221.794233 
L 183.223261 221.139349 
L 182.615375 220.484465 
L 181.573284 219.829581 
L 181.09566 219.174698 
L 180.950925 218.519814 
L 180.690402 217.86493 
L 180.082516 217.210047 
L 179.749626 216.555163 
L 179.069373 215.900279 
L 178.215438 215.245395 
L 177.158874 214.590512 
L 177.115454 213.935628 
L 176.073363 213.280744 
L 174.698383 212.62586 
L 173.844448 211.970977 
L 173.497085 211.316093 
L 172.947093 210.006326 
L 172.541835 209.351442 
L 170.848438 208.696558 
L 170.457655 208.041674 
L 170.341867 207.386791 
L 170.226079 206.077023 
L 169.777401 205.42214 
L 169.733981 204.112372 
L 169.097148 203.457488 
L 168.98136 202.802605 
L 168.590576 202.147721 
L 167.461645 200.837953 
L 167.114282 200.18307 
L 164.784052 199.528186 
L 162.830133 198.873302 
L 161.874883 197.563535 
L 161.759095 196.908651 
L 161.614361 196.253767 
L 160.514376 195.598884 
L 159.472286 194.944 
L 157.344685 194.289116 
L 155.130243 193.634233 
L 154.059206 192.979349 
L 153.798683 192.324465 
L 153.668422 191.669581 
L 152.756593 191.014698 
L 152.553965 190.359814 
L 151.656609 189.70493 
L 149.818478 189.050047 
L 148.732967 188.395163 
L 148.052713 187.740279 
L 147.864558 187.085395 
L 147.632983 186.430512 
L 147.560615 185.120744 
L 146.634313 184.46586 
L 144.260663 183.810977 
L 144.029087 183.156093 
L 143.160678 182.501209 
L 143.102785 181.846326 
L 142.929103 181.191442 
L 142.451478 180.536558 
L 142.422531 179.226791 
L 142.306743 178.571907 
L 141.887013 177.917023 
L 141.539649 177.26214 
L 141.177812 176.607256 
L 139.209419 175.952372 
L 137.038398 175.297488 
L 136.835769 174.642605 
L 136.184463 173.987721 
L 135.648944 173.332837 
L 135.533156 172.677953 
L 133.998968 172.02307 
L 133.087139 171.368186 
L 132.710829 170.713302 
L 131.871367 170.058419 
L 131.596371 169.403535 
L 131.567424 168.748651 
L 130.293758 168.093767 
L 129.425349 166.784 
L 128.774043 166.129116 
L 128.064843 165.474233 
L 128.035896 164.819349 
L 125.141201 164.164465 
L 125.010939 163.509581 
L 124.345159 162.854698 
L 124.070163 162.199814 
L 121.783354 161.54493 
L 121.450464 160.890047 
L 120.495215 160.235163 
L 120.191272 159.580279 
L 119.438651 158.925395 
L 118.961026 158.270512 
L 117.571572 157.615628 
L 117.368944 156.960744 
L 116.746584 156.30586 
L 115.878176 155.650977 
L 114.662404 154.996093 
L 114.561089 154.341209 
L 111.955864 152.376558 
L 111.89797 151.721674 
L 111.738762 151.066791 
L 109.972997 150.411907 
L 109.669054 149.757023 
L 109.003275 149.10214 
L 107.700662 148.447256 
L 107.657241 147.792372 
L 107.425666 147.137488 
L 106.90462 146.482605 
L 106.383575 145.827721 
L 105.370432 145.172837 
L 105.327012 144.517953 
L 103.807297 143.208186 
L 102.012586 142.553302 
L 101.231018 141.898419 
L 100.912601 139.933767 
L 100.854707 139.278884 
L 100.478397 138.624 
L 100.174454 137.969116 
L 100.131034 136.659349 
L 100.11656 135.349581 
L 97.656069 134.694698 
L 97.381073 134.039814 
L 97.048183 133.38493 
L 96.585032 132.730047 
L 96.440297 132.075163 
L 95.774517 131.420279 
L 94.964003 130.765395 
L 94.356117 130.110512 
L 93.357447 129.455628 
L 92.532459 128.800744 
L 91.837732 127.490977 
L 90.983797 126.836093 
L 90.115388 126.181209 
L 89.927233 125.526326 
L 89.652237 124.871442 
L 89.579869 124.216558 
L 89.160139 123.561674 
L 88.103575 122.251907 
L 88.016734 121.597023 
L 87.91542 120.94214 
L 87.799632 120.287256 
L 87.741738 118.977488 
L 87.336481 118.322605 
L 87.220693 117.012837 
L 86.974644 116.357953 
L 86.873329 115.70307 
L 86.656227 114.393302 
L 86.033868 112.428651 
L 85.990447 111.773767 
L 85.324667 111.118884 
L 84.991777 108.499349 
L 84.948357 107.844465 
L 84.803622 107.189581 
L 84.629941 106.534698 
L 84.572047 105.879814 
L 83.761532 105.22493 
L 83.616797 104.570047 
L 83.54443 102.605395 
L 83.298381 101.950512 
L 83.037858 101.295628 
L 82.719442 100.640744 
L 82.647074 99.330977 
L 82.531286 98.676093 
L 82.270764 98.021209 
L 81.952347 97.366326 
L 81.749719 96.711442 
L 81.156306 96.056558 
L 81.127359 94.091907 
L 80.779996 93.437023 
L 80.678682 92.127256 
L 80.562894 91.472372 
L 80.54842 90.817488 
L 80.085269 90.162605 
L 79.983955 89.507721 
L 79.607644 88.852837 
L 79.274754 87.54307 
L 79.144493 86.888186 
L 78.435293 86.233302 
L 78.348452 85.578419 
L 78.276084 84.268651 
L 78.232664 83.613767 
L 78.17477 82.958884 
L 78.001088 82.304 
L 77.769513 81.649116 
L 77.682672 80.339349 
L 77.581358 79.684465 
L 77.13268 79.029581 
L 77.045839 77.719814 
L 76.872157 76.410047 
L 76.857684 73.790512 
L 76.814263 73.135628 
L 76.741896 72.480744 
L 76.582688 71.82586 
L 76.553741 71.170977 
L 76.539267 69.861209 
L 76.394533 69.206326 
L 76.264271 68.551442 
L 76.003749 67.896558 
L 75.612965 65.277023 
L 75.497177 62.002605 
L 75.395863 61.347721 
L 75.366916 60.692837 
L 75.280075 60.037953 
L 74.889291 59.38307 
L 74.744556 58.728186 
L 74.498507 57.418419 
L 74.310352 56.763535 
L 74.281405 56.108651 
L 73.832727 54.144 
z
" clip-path="url(#p9a57e72398)" style="fill: #ff0000"/>
   </g>
   <g id="matplotlib.axis_1">
    <g id="xtick_1">
     <g id="line2d_1">
      <defs>
       <path id="mce1c468e2a" d="M 0 0 
L 0 3.5 
" style="stroke: #000000; stroke-width: 0.8"/>
      </defs>
      <g>
       <use xlink:href="#mce1c468e2a" x="128.976672" y="307.584" style="stroke: #000000; stroke-width: 0.8"/>
      </g>
     </g>
     <g id="text_1">
      <!-- 50 -->
      <g transform="translate(122.614172 322.182437)scale(0.1 -0.1)">
       <defs>
        <path id="DejaVuSans-35" d="M 691 4666 
L 3169 4666 
L 3169 4134 
L 1269 4134 
L 1269 2991 
Q 1406 3038 1543 3061 
Q 1681 3084 1819 3084 
Q 2600 3084 3056 2656 
Q 3513 2228 3513 1497 
Q 3513 744 3044 326 
Q 2575 -91 1722 -91 
Q 1428 -91 1123 -41 
Q 819 9 494 109 
L 494 744 
Q 775 591 1075 516 
Q 1375 441 1709 441 
Q 2250 441 2565 725 
Q 2881 1009 2881 1497 
Q 2881 1984 2565 2268 
Q 2250 2553 1709 2553 
Q 1456 2553 1204 2497 
Q 953 2441 691 2322 
L 691 4666 
z
" transform="scale(0.015625)"/>
        <path id="DejaVuSans-30" d="M 2034 4250 
Q 1547 4250 1301 3770 
Q 1056 3291 1056 2328 
Q 1056 1369 1301 889 
Q 1547 409 2034 409 
Q 2525 409 2770 889 
Q 3016 1369 3016 2328 
Q 3016 3291 2770 3770 
Q 2525 4250 2034 4250 
z
M 2034 4750 
Q 2819 4750 3233 4129 
Q 3647 3509 3647 2328 
Q 3647 1150 3233 529 
Q 2819 -91 2034 -91 
Q 1250 -91 836 529 
Q 422 1150 422 2328 
Q 422 3509 836 4129 
Q 1250 4750 2034 4750 
z
" transform="scale(0.015625)"/>
       </defs>
       <use xlink:href="#DejaVuSans-35"/>
       <use xlink:href="#DejaVuSans-30" x="63.623047"/>
      </g>
     </g>
    </g>
    <g id="xtick_2">
     <g id="line2d_2">
      <g>
       <use xlink:href="#mce1c468e2a" x="201.344053" y="307.584" style="stroke: #000000; stroke-width: 0.8"/>
      </g>
     </g>
     <g id="text_2">
      <!-- 100 -->
      <g transform="translate(191.800303 322.182437)scale(0.1 -0.1)">
       <defs>
        <path id="DejaVuSans-31" d="M 794 531 
L 1825 531 
L 1825 4091 
L 703 3866 
L 703 4441 
L 1819 4666 
L 2450 4666 
L 2450 531 
L 3481 531 
L 3481 0 
L 794 0 
L 794 531 
z
" transform="scale(0.015625)"/>
       </defs>
       <use xlink:href="#DejaVuSans-31"/>
       <use xlink:href="#DejaVuSans-30" x="63.623047"/>
       <use xlink:href="#DejaVuSans-30" x="127.246094"/>
      </g>
     </g>
    </g>
    <g id="xtick_3">
     <g id="line2d_3">
      <g>
       <use xlink:href="#mce1c468e2a" x="273.711434" y="307.584" style="stroke: #000000; stroke-width: 0.8"/>
      </g>
     </g>
     <g id="text_3">
      <!-- 150 -->
      <g transform="translate(264.167684 322.182437)scale(0.1 -0.1)">
       <use xlink:href="#DejaVuSans-31"/>
       <use xlink:href="#DejaVuSans-35" x="63.623047"/>
       <use xlink:href="#DejaVuSans-30" x="127.246094"/>
      </g>
     </g>
    </g>
    <g id="xtick_4">
     <g id="line2d_4">
      <g>
       <use xlink:href="#mce1c468e2a" x="346.078815" y="307.584" style="stroke: #000000; stroke-width: 0.8"/>
      </g>
     </g>
     <g id="text_4">
      <!-- 200 -->
      <g transform="translate(336.535065 322.182437)scale(0.1 -0.1)">
       <defs>
        <path id="DejaVuSans-32" d="M 1228 531 
L 3431 531 
L 3431 0 
L 469 0 
L 469 531 
Q 828 903 1448 1529 
Q 2069 2156 2228 2338 
Q 2531 2678 2651 2914 
Q 2772 3150 2772 3378 
Q 2772 3750 2511 3984 
Q 2250 4219 1831 4219 
Q 1534 4219 1204 4116 
Q 875 4013 500 3803 
L 500 4441 
Q 881 4594 1212 4672 
Q 1544 4750 1819 4750 
Q 2544 4750 2975 4387 
Q 3406 4025 3406 3419 
Q 3406 3131 3298 2873 
Q 3191 2616 2906 2266 
Q 2828 2175 2409 1742 
Q 1991 1309 1228 531 
z
" transform="scale(0.015625)"/>
       </defs>
       <use xlink:href="#DejaVuSans-32"/>
       <use xlink:href="#DejaVuSans-30" x="63.623047"/>
       <use xlink:href="#DejaVuSans-30" x="127.246094"/>
      </g>
     </g>
    </g>
    <g id="text_5">
     <!-- Score -->
     <g transform="translate(222.157656 335.860562)scale(0.1 -0.1)">
      <defs>
       <path id="DejaVuSans-53" d="M 3425 4513 
L 3425 3897 
Q 3066 4069 2747 4153 
Q 2428 4238 2131 4238 
Q 1616 4238 1336 4038 
Q 1056 3838 1056 3469 
Q 1056 3159 1242 3001 
Q 1428 2844 1947 2747 
L 2328 2669 
Q 3034 2534 3370 2195 
Q 3706 1856 3706 1288 
Q 3706 609 3251 259 
Q 2797 -91 1919 -91 
Q 1588 -91 1214 -16 
Q 841 59 441 206 
L 441 856 
Q 825 641 1194 531 
Q 1563 422 1919 422 
Q 2459 422 2753 634 
Q 3047 847 3047 1241 
Q 3047 1584 2836 1778 
Q 2625 1972 2144 2069 
L 1759 2144 
Q 1053 2284 737 2584 
Q 422 2884 422 3419 
Q 422 4038 858 4394 
Q 1294 4750 2059 4750 
Q 2388 4750 2728 4690 
Q 3069 4631 3425 4513 
z
" transform="scale(0.015625)"/>
       <path id="DejaVuSans-63" d="M 3122 3366 
L 3122 2828 
Q 2878 2963 2633 3030 
Q 2388 3097 2138 3097 
Q 1578 3097 1268 2742 
Q 959 2388 959 1747 
Q 959 1106 1268 751 
Q 1578 397 2138 397 
Q 2388 397 2633 464 
Q 2878 531 3122 666 
L 3122 134 
Q 2881 22 2623 -34 
Q 2366 -91 2075 -91 
Q 1284 -91 818 406 
Q 353 903 353 1747 
Q 353 2603 823 3093 
Q 1294 3584 2113 3584 
Q 2378 3584 2631 3529 
Q 2884 3475 3122 3366 
z
" transform="scale(0.015625)"/>
       <path id="DejaVuSans-6f" d="M 1959 3097 
Q 1497 3097 1228 2736 
Q 959 2375 959 1747 
Q 959 1119 1226 758 
Q 1494 397 1959 397 
Q 2419 397 2687 759 
Q 2956 1122 2956 1747 
Q 2956 2369 2687 2733 
Q 2419 3097 1959 3097 
z
M 1959 3584 
Q 2709 3584 3137 3096 
Q 3566 2609 3566 1747 
Q 3566 888 3137 398 
Q 2709 -91 1959 -91 
Q 1206 -91 779 398 
Q 353 888 353 1747 
Q 353 2609 779 3096 
Q 1206 3584 1959 3584 
z
" transform="scale(0.015625)"/>
       <path id="DejaVuSans-72" d="M 2631 2963 
Q 2534 3019 2420 3045 
Q 2306 3072 2169 3072 
Q 1681 3072 1420 2755 
Q 1159 2438 1159 1844 
L 1159 0 
L 581 0 
L 581 3500 
L 1159 3500 
L 1159 2956 
Q 1341 3275 1631 3429 
Q 1922 3584 2338 3584 
Q 2397 3584 2469 3576 
Q 2541 3569 2628 3553 
L 2631 2963 
z
" transform="scale(0.015625)"/>
       <path id="DejaVuSans-65" d="M 3597 1894 
L 3597 1613 
L 953 1613 
Q 991 1019 1311 708 
Q 1631 397 2203 397 
Q 2534 397 2845 478 
Q 3156 559 3463 722 
L 3463 178 
Q 3153 47 2828 -22 
Q 2503 -91 2169 -91 
Q 1331 -91 842 396 
Q 353 884 353 1716 
Q 353 2575 817 3079 
Q 1281 3584 2069 3584 
Q 2775 3584 3186 3129 
Q 3597 2675 3597 1894 
z
M 3022 2063 
Q 3016 2534 2758 2815 
Q 2500 3097 2075 3097 
Q 1594 3097 1305 2825 
Q 1016 2553 972 2059 
L 3022 2063 
z
" transform="scale(0.015625)"/>
      </defs>
      <use xlink:href="#DejaVuSans-53"/>
      <use xlink:href="#DejaVuSans-63" x="63.476562"/>
      <use xlink:href="#DejaVuSans-6f" x="118.457031"/>
      <use xlink:href="#DejaVuSans-72" x="179.638672"/>
      <use xlink:href="#DejaVuSans-65" x="218.501953"/>
     </g>
    </g>
   </g>
   <g id="matplotlib.axis_2">
    <g id="ytick_1">
     <g id="line2d_5">
      <defs>
       <path id="m77b6534f8e" d="M 0 0 
L -3.5 0 
" style="stroke: #000000; stroke-width: 0.8"/>
      </defs>
      <g>
       <use xlink:href="#m77b6534f8e" x="57.6" y="307.584" style="stroke: #000000; stroke-width: 0.8"/>
      </g>
     </g>
     <g id="text_6">
      <!-- 0 -->
      <g transform="translate(44.2375 311.383219)scale(0.1 -0.1)">
       <use xlink:href="#DejaVuSans-30"/>
      </g>
     </g>
    </g>
    <g id="ytick_2">
     <g id="line2d_6">
      <g>
       <use xlink:href="#m77b6534f8e" x="57.6" y="274.839814" style="stroke: #000000; stroke-width: 0.8"/>
      </g>
     </g>
     <g id="text_7">
      <!-- 50 -->
      <g transform="translate(37.875 278.639033)scale(0.1 -0.1)">
       <use xlink:href="#DejaVuSans-35"/>
       <use xlink:href="#DejaVuSans-30" x="63.623047"/>
      </g>
     </g>
    </g>
    <g id="ytick_3">
     <g id="line2d_7">
      <g>
       <use xlink:href="#m77b6534f8e" x="57.6" y="242.095628" style="stroke: #000000; stroke-width: 0.8"/>
      </g>
     </g>
     <g id="text_8">
      <!-- 100 -->
      <g transform="translate(31.5125 245.894847)scale(0.1 -0.1)">
       <use xlink:href="#DejaVuSans-31"/>
       <use xlink:href="#DejaVuSans-30" x="63.623047"/>
       <use xlink:href="#DejaVuSans-30" x="127.246094"/>
      </g>
     </g>
    </g>
    <g id="ytick_4">
     <g id="line2d_8">
      <g>
       <use xlink:href="#m77b6534f8e" x="57.6" y="209.351442" style="stroke: #000000; stroke-width: 0.8"/>
      </g>
     </g>
     <g id="text_9">
      <!-- 150 -->
      <g transform="translate(31.5125 213.150661)scale(0.1 -0.1)">
       <use xlink:href="#DejaVuSans-31"/>
       <use xlink:href="#DejaVuSans-35" x="63.623047"/>
       <use xlink:href="#DejaVuSans-30" x="127.246094"/>
      </g>
     </g>
    </g>
    <g id="ytick_5">
     <g id="line2d_9">
      <g>
       <use xlink:href="#m77b6534f8e" x="57.6" y="176.607256" style="stroke: #000000; stroke-width: 0.8"/>
      </g>
     </g>
     <g id="text_10">
      <!-- 200 -->
      <g transform="translate(31.5125 180.406475)scale(0.1 -0.1)">
       <use xlink:href="#DejaVuSans-32"/>
       <use xlink:href="#DejaVuSans-30" x="63.623047"/>
       <use xlink:href="#DejaVuSans-30" x="127.246094"/>
      </g>
     </g>
    </g>
    <g id="ytick_6">
     <g id="line2d_10">
      <g>
       <use xlink:href="#m77b6534f8e" x="57.6" y="143.86307" style="stroke: #000000; stroke-width: 0.8"/>
      </g>
     </g>
     <g id="text_11">
      <!-- 250 -->
      <g transform="translate(31.5125 147.662289)scale(0.1 -0.1)">
       <use xlink:href="#DejaVuSans-32"/>
       <use xlink:href="#DejaVuSans-35" x="63.623047"/>
       <use xlink:href="#DejaVuSans-30" x="127.246094"/>
      </g>
     </g>
    </g>
    <g id="ytick_7">
     <g id="line2d_11">
      <g>
       <use xlink:href="#m77b6534f8e" x="57.6" y="111.118884" style="stroke: #000000; stroke-width: 0.8"/>
      </g>
     </g>
     <g id="text_12">
      <!-- 300 -->
      <g transform="translate(31.5125 114.918102)scale(0.1 -0.1)">
       <defs>
        <path id="DejaVuSans-33" d="M 2597 2516 
Q 3050 2419 3304 2112 
Q 3559 1806 3559 1356 
Q 3559 666 3084 287 
Q 2609 -91 1734 -91 
Q 1441 -91 1130 -33 
Q 819 25 488 141 
L 488 750 
Q 750 597 1062 519 
Q 1375 441 1716 441 
Q 2309 441 2620 675 
Q 2931 909 2931 1356 
Q 2931 1769 2642 2001 
Q 2353 2234 1838 2234 
L 1294 2234 
L 1294 2753 
L 1863 2753 
Q 2328 2753 2575 2939 
Q 2822 3125 2822 3475 
Q 2822 3834 2567 4026 
Q 2313 4219 1838 4219 
Q 1578 4219 1281 4162 
Q 984 4106 628 3988 
L 628 4550 
Q 988 4650 1302 4700 
Q 1616 4750 1894 4750 
Q 2613 4750 3031 4423 
Q 3450 4097 3450 3541 
Q 3450 3153 3228 2886 
Q 3006 2619 2597 2516 
z
" transform="scale(0.015625)"/>
       </defs>
       <use xlink:href="#DejaVuSans-33"/>
       <use xlink:href="#DejaVuSans-30" x="63.623047"/>
       <use xlink:href="#DejaVuSans-30" x="127.246094"/>
      </g>
     </g>
    </g>
    <g id="ytick_8">
     <g id="line2d_12">
      <g>
       <use xlink:href="#m77b6534f8e" x="57.6" y="78.374698" style="stroke: #000000; stroke-width: 0.8"/>
      </g>
     </g>
     <g id="text_13">
      <!-- 350 -->
      <g transform="translate(31.5125 82.173916)scale(0.1 -0.1)">
       <use xlink:href="#DejaVuSans-33"/>
       <use xlink:href="#DejaVuSans-35" x="63.623047"/>
       <use xlink:href="#DejaVuSans-30" x="127.246094"/>
      </g>
     </g>
    </g>
    <g id="ytick_9">
     <g id="line2d_13">
      <g>
       <use xlink:href="#m77b6534f8e" x="57.6" y="45.630512" style="stroke: #000000; stroke-width: 0.8"/>
      </g>
     </g>
     <g id="text_14">
      <!-- 400 -->
      <g transform="translate(31.5125 49.42973)scale(0.1 -0.1)">
       <defs>
        <path id="DejaVuSans-34" d="M 2419 4116 
L 825 1625 
L 2419 1625 
L 2419 4116 
z
M 2253 4666 
L 3047 4666 
L 3047 1625 
L 3713 1625 
L 3713 1100 
L 3047 1100 
L 3047 0 
L 2419 0 
L 2419 1100 
L 313 1100 
L 313 1709 
L 2253 4666 
z
" transform="scale(0.015625)"/>
       </defs>
       <use xlink:href="#DejaVuSans-34"/>
       <use xlink:href="#DejaVuSans-30" x="63.623047"/>
       <use xlink:href="#DejaVuSans-30" x="127.246094"/>
      </g>
     </g>
    </g>
    <g id="text_15">
     <!-- Number of crosslinks -->
     <g transform="translate(25.432812 227.019406)rotate(-90)scale(0.1 -0.1)">
      <defs>
       <path id="DejaVuSans-4e" d="M 628 4666 
L 1478 4666 
L 3547 763 
L 3547 4666 
L 4159 4666 
L 4159 0 
L 3309 0 
L 1241 3903 
L 1241 0 
L 628 0 
L 628 4666 
z
" transform="scale(0.015625)"/>
       <path id="DejaVuSans-75" d="M 544 1381 
L 544 3500 
L 1119 3500 
L 1119 1403 
Q 1119 906 1312 657 
Q 1506 409 1894 409 
Q 2359 409 2629 706 
Q 2900 1003 2900 1516 
L 2900 3500 
L 3475 3500 
L 3475 0 
L 2900 0 
L 2900 538 
Q 2691 219 2414 64 
Q 2138 -91 1772 -91 
Q 1169 -91 856 284 
Q 544 659 544 1381 
z
M 1991 3584 
L 1991 3584 
z
" transform="scale(0.015625)"/>
       <path id="DejaVuSans-6d" d="M 3328 2828 
Q 3544 3216 3844 3400 
Q 4144 3584 4550 3584 
Q 5097 3584 5394 3201 
Q 5691 2819 5691 2113 
L 5691 0 
L 5113 0 
L 5113 2094 
Q 5113 2597 4934 2840 
Q 4756 3084 4391 3084 
Q 3944 3084 3684 2787 
Q 3425 2491 3425 1978 
L 3425 0 
L 2847 0 
L 2847 2094 
Q 2847 2600 2669 2842 
Q 2491 3084 2119 3084 
Q 1678 3084 1418 2786 
Q 1159 2488 1159 1978 
L 1159 0 
L 581 0 
L 581 3500 
L 1159 3500 
L 1159 2956 
Q 1356 3278 1631 3431 
Q 1906 3584 2284 3584 
Q 2666 3584 2933 3390 
Q 3200 3197 3328 2828 
z
" transform="scale(0.015625)"/>
       <path id="DejaVuSans-62" d="M 3116 1747 
Q 3116 2381 2855 2742 
Q 2594 3103 2138 3103 
Q 1681 3103 1420 2742 
Q 1159 2381 1159 1747 
Q 1159 1113 1420 752 
Q 1681 391 2138 391 
Q 2594 391 2855 752 
Q 3116 1113 3116 1747 
z
M 1159 2969 
Q 1341 3281 1617 3432 
Q 1894 3584 2278 3584 
Q 2916 3584 3314 3078 
Q 3713 2572 3713 1747 
Q 3713 922 3314 415 
Q 2916 -91 2278 -91 
Q 1894 -91 1617 61 
Q 1341 213 1159 525 
L 1159 0 
L 581 0 
L 581 4863 
L 1159 4863 
L 1159 2969 
z
" transform="scale(0.015625)"/>
       <path id="DejaVuSans-20" transform="scale(0.015625)"/>
       <path id="DejaVuSans-66" d="M 2375 4863 
L 2375 4384 
L 1825 4384 
Q 1516 4384 1395 4259 
Q 1275 4134 1275 3809 
L 1275 3500 
L 2222 3500 
L 2222 3053 
L 1275 3053 
L 1275 0 
L 697 0 
L 697 3053 
L 147 3053 
L 147 3500 
L 697 3500 
L 697 3744 
Q 697 4328 969 4595 
Q 1241 4863 1831 4863 
L 2375 4863 
z
" transform="scale(0.015625)"/>
       <path id="DejaVuSans-73" d="M 2834 3397 
L 2834 2853 
Q 2591 2978 2328 3040 
Q 2066 3103 1784 3103 
Q 1356 3103 1142 2972 
Q 928 2841 928 2578 
Q 928 2378 1081 2264 
Q 1234 2150 1697 2047 
L 1894 2003 
Q 2506 1872 2764 1633 
Q 3022 1394 3022 966 
Q 3022 478 2636 193 
Q 2250 -91 1575 -91 
Q 1294 -91 989 -36 
Q 684 19 347 128 
L 347 722 
Q 666 556 975 473 
Q 1284 391 1588 391 
Q 1994 391 2212 530 
Q 2431 669 2431 922 
Q 2431 1156 2273 1281 
Q 2116 1406 1581 1522 
L 1381 1569 
Q 847 1681 609 1914 
Q 372 2147 372 2553 
Q 372 3047 722 3315 
Q 1072 3584 1716 3584 
Q 2034 3584 2315 3537 
Q 2597 3491 2834 3397 
z
" transform="scale(0.015625)"/>
       <path id="DejaVuSans-6c" d="M 603 4863 
L 1178 4863 
L 1178 0 
L 603 0 
L 603 4863 
z
" transform="scale(0.015625)"/>
       <path id="DejaVuSans-69" d="M 603 3500 
L 1178 3500 
L 1178 0 
L 603 0 
L 603 3500 
z
M 603 4863 
L 1178 4863 
L 1178 4134 
L 603 4134 
L 603 4863 
z
" transform="scale(0.015625)"/>
       <path id="DejaVuSans-6e" d="M 3513 2113 
L 3513 0 
L 2938 0 
L 2938 2094 
Q 2938 2591 2744 2837 
Q 2550 3084 2163 3084 
Q 1697 3084 1428 2787 
Q 1159 2491 1159 1978 
L 1159 0 
L 581 0 
L 581 3500 
L 1159 3500 
L 1159 2956 
Q 1366 3272 1645 3428 
Q 1925 3584 2291 3584 
Q 2894 3584 3203 3211 
Q 3513 2838 3513 2113 
z
" transform="scale(0.015625)"/>
       <path id="DejaVuSans-6b" d="M 581 4863 
L 1159 4863 
L 1159 1991 
L 2875 3500 
L 3609 3500 
L 1753 1863 
L 3688 0 
L 2938 0 
L 1159 1709 
L 1159 0 
L 581 0 
L 581 4863 
z
" transform="scale(0.015625)"/>
      </defs>
      <use xlink:href="#DejaVuSans-4e"/>
      <use xlink:href="#DejaVuSans-75" x="74.804688"/>
      <use xlink:href="#DejaVuSans-6d" x="138.183594"/>
      <use xlink:href="#DejaVuSans-62" x="235.595703"/>
      <use xlink:href="#DejaVuSans-65" x="299.072266"/>
      <use xlink:href="#DejaVuSans-72" x="360.595703"/>
      <use xlink:href="#DejaVuSans-20" x="401.708984"/>
      <use xlink:href="#DejaVuSans-6f" x="433.496094"/>
      <use xlink:href="#DejaVuSans-66" x="494.677734"/>
      <use xlink:href="#DejaVuSans-20" x="529.882812"/>
      <use xlink:href="#DejaVuSans-63" x="561.669922"/>
      <use xlink:href="#DejaVuSans-72" x="616.650391"/>
      <use xlink:href="#DejaVuSans-6f" x="655.513672"/>
      <use xlink:href="#DejaVuSans-73" x="716.695312"/>
      <use xlink:href="#DejaVuSans-73" x="768.794922"/>
      <use xlink:href="#DejaVuSans-6c" x="820.894531"/>
      <use xlink:href="#DejaVuSans-69" x="848.677734"/>
      <use xlink:href="#DejaVuSans-6e" x="876.460938"/>
      <use xlink:href="#DejaVuSans-6b" x="939.839844"/>
      <use xlink:href="#DejaVuSans-73" x="997.75"/>
     </g>
    </g>
   </g>
   <g id="patch_3">
    <path d="M 57.6 307.584 
L 57.6 41.472 
" style="fill: none; stroke: #000000; stroke-width: 0.8; stroke-linejoin: miter; stroke-linecap: square"/>
   </g>
   <g id="patch_4">
    <path d="M 414.72 307.584 
L 414.72 41.472 
" style="fill: none; stroke: #000000; stroke-width: 0.8; stroke-linejoin: miter; stroke-linecap: square"/>
   </g>
   <g id="patch_5">
    <path d="M 57.6 307.584 
L 414.72 307.584 
" style="fill: none; stroke: #000000; stroke-width: 0.8; stroke-linejoin: miter; stroke-linecap: square"/>
   </g>
   <g id="patch_6">
    <path d="M 57.6 41.472 
L 414.72 41.472 
" style="fill: none; stroke: #000000; stroke-width: 0.8; stroke-linejoin: miter; stroke-linecap: square"/>
   </g>
   <g id="legend_1">
    <g id="patch_7">
     <path d="M 278.598125 93.506375 
L 407.72 93.506375 
Q 409.72 93.506375 409.72 91.506375 
L 409.72 48.472 
Q 409.72 46.472 407.72 46.472 
L 278.598125 46.472 
Q 276.598125 46.472 276.598125 48.472 
L 276.598125 91.506375 
Q 276.598125 93.506375 278.598125 93.506375 
z
" style="fill: #ffffff; opacity: 0.8; stroke: #cccccc; stroke-linejoin: miter"/>
    </g>
    <g id="patch_8">
     <path d="M 280.598125 58.070438 
L 300.598125 58.070438 
L 300.598125 51.070438 
L 280.598125 51.070438 
z
" style="fill: #008000"/>
    </g>
    <g id="text_16">
     <!-- correct -->
     <g transform="translate(308.598125 58.070438)scale(0.1 -0.1)">
      <defs>
       <path id="DejaVuSans-74" d="M 1172 4494 
L 1172 3500 
L 2356 3500 
L 2356 3053 
L 1172 3053 
L 1172 1153 
Q 1172 725 1289 603 
Q 1406 481 1766 481 
L 2356 481 
L 2356 0 
L 1766 0 
Q 1100 0 847 248 
Q 594 497 594 1153 
L 594 3053 
L 172 3053 
L 172 3500 
L 594 3500 
L 594 4494 
L 1172 4494 
z
" transform="scale(0.015625)"/>
      </defs>
      <use xlink:href="#DejaVuSans-63"/>
      <use xlink:href="#DejaVuSans-6f" x="54.980469"/>
      <use xlink:href="#DejaVuSans-72" x="116.162109"/>
      <use xlink:href="#DejaVuSans-72" x="155.525391"/>
      <use xlink:href="#DejaVuSans-65" x="194.388672"/>
      <use xlink:href="#DejaVuSans-63" x="255.912109"/>
      <use xlink:href="#DejaVuSans-74" x="310.892578"/>
     </g>
    </g>
    <g id="patch_9">
     <path d="M 280.598125 72.748563 
L 300.598125 72.748563 
L 300.598125 65.748563 
L 280.598125 65.748563 
z
" style="fill: #7cfc00"/>
    </g>
    <g id="text_17">
     <!-- correct homeotypic -->
     <g transform="translate(308.598125 72.748563)scale(0.1 -0.1)">
      <defs>
       <path id="DejaVuSans-68" d="M 3513 2113 
L 3513 0 
L 2938 0 
L 2938 2094 
Q 2938 2591 2744 2837 
Q 2550 3084 2163 3084 
Q 1697 3084 1428 2787 
Q 1159 2491 1159 1978 
L 1159 0 
L 581 0 
L 581 4863 
L 1159 4863 
L 1159 2956 
Q 1366 3272 1645 3428 
Q 1925 3584 2291 3584 
Q 2894 3584 3203 3211 
Q 3513 2838 3513 2113 
z
" transform="scale(0.015625)"/>
       <path id="DejaVuSans-79" d="M 2059 -325 
Q 1816 -950 1584 -1140 
Q 1353 -1331 966 -1331 
L 506 -1331 
L 506 -850 
L 844 -850 
Q 1081 -850 1212 -737 
Q 1344 -625 1503 -206 
L 1606 56 
L 191 3500 
L 800 3500 
L 1894 763 
L 2988 3500 
L 3597 3500 
L 2059 -325 
z
" transform="scale(0.015625)"/>
       <path id="DejaVuSans-70" d="M 1159 525 
L 1159 -1331 
L 581 -1331 
L 581 3500 
L 1159 3500 
L 1159 2969 
Q 1341 3281 1617 3432 
Q 1894 3584 2278 3584 
Q 2916 3584 3314 3078 
Q 3713 2572 3713 1747 
Q 3713 922 3314 415 
Q 2916 -91 2278 -91 
Q 1894 -91 1617 61 
Q 1341 213 1159 525 
z
M 3116 1747 
Q 3116 2381 2855 2742 
Q 2594 3103 2138 3103 
Q 1681 3103 1420 2742 
Q 1159 2381 1159 1747 
Q 1159 1113 1420 752 
Q 1681 391 2138 391 
Q 2594 391 2855 752 
Q 3116 1113 3116 1747 
z
" transform="scale(0.015625)"/>
      </defs>
      <use xlink:href="#DejaVuSans-63"/>
      <use xlink:href="#DejaVuSans-6f" x="54.980469"/>
      <use xlink:href="#DejaVuSans-72" x="116.162109"/>
      <use xlink:href="#DejaVuSans-72" x="155.525391"/>
      <use xlink:href="#DejaVuSans-65" x="194.388672"/>
      <use xlink:href="#DejaVuSans-63" x="255.912109"/>
      <use xlink:href="#DejaVuSans-74" x="310.892578"/>
      <use xlink:href="#DejaVuSans-20" x="350.101562"/>
      <use xlink:href="#DejaVuSans-68" x="381.888672"/>
      <use xlink:href="#DejaVuSans-6f" x="445.267578"/>
      <use xlink:href="#DejaVuSans-6d" x="506.449219"/>
      <use xlink:href="#DejaVuSans-65" x="603.861328"/>
      <use xlink:href="#DejaVuSans-6f" x="665.384766"/>
      <use xlink:href="#DejaVuSans-74" x="726.566406"/>
      <use xlink:href="#DejaVuSans-79" x="765.775391"/>
      <use xlink:href="#DejaVuSans-70" x="824.955078"/>
      <use xlink:href="#DejaVuSans-69" x="888.431641"/>
      <use xlink:href="#DejaVuSans-63" x="916.214844"/>
     </g>
    </g>
    <g id="patch_10">
     <path d="M 280.598125 87.426688 
L 300.598125 87.426688 
L 300.598125 80.426688 
L 280.598125 80.426688 
z
" style="fill: #ff0000"/>
    </g>
    <g id="text_18">
     <!-- false -->
     <g transform="translate(308.598125 87.426688)scale(0.1 -0.1)">
      <defs>
       <path id="DejaVuSans-61" d="M 2194 1759 
Q 1497 1759 1228 1600 
Q 959 1441 959 1056 
Q 959 750 1161 570 
Q 1363 391 1709 391 
Q 2188 391 2477 730 
Q 2766 1069 2766 1631 
L 2766 1759 
L 2194 1759 
z
M 3341 1997 
L 3341 0 
L 2766 0 
L 2766 531 
Q 2569 213 2275 61 
Q 1981 -91 1556 -91 
Q 1019 -91 701 211 
Q 384 513 384 1019 
Q 384 1609 779 1909 
Q 1175 2209 1959 2209 
L 2766 2209 
L 2766 2266 
Q 2766 2663 2505 2880 
Q 2244 3097 1772 3097 
Q 1472 3097 1187 3025 
Q 903 2953 641 2809 
L 641 3341 
Q 956 3463 1253 3523 
Q 1550 3584 1831 3584 
Q 2591 3584 2966 3190 
Q 3341 2797 3341 1997 
z
" transform="scale(0.015625)"/>
      </defs>
      <use xlink:href="#DejaVuSans-66"/>
      <use xlink:href="#DejaVuSans-61" x="35.205078"/>
      <use xlink:href="#DejaVuSans-6c" x="96.484375"/>
      <use xlink:href="#DejaVuSans-73" x="124.267578"/>
      <use xlink:href="#DejaVuSans-65" x="176.367188"/>
     </g>
    </g>
   </g>
  </g>
 </g>
 <defs>
  <clipPath id="p9a57e72398">
   <rect x="57.6" y="41.472" width="357.12" height="266.112"/>
  </clipPath>
 </defs>
</svg>
