<?xml version="1.0" encoding="utf-8" standalone="no"?>
<!DOCTYPE svg PUBLIC "-//W3C//DTD SVG 1.1//EN"
  "http://www.w3.org/Graphics/SVG/1.1/DTD/svg11.dtd">
<svg xmlns:xlink="http://www.w3.org/1999/xlink" width="460.8pt" height="345.6pt" viewBox="0 0 460.8 345.6" xmlns="http://www.w3.org/2000/svg" version="1.1">
 <metadata>
  <rdf:RDF xmlns:dc="http://purl.org/dc/elements/1.1/" xmlns:cc="http://creativecommons.org/ns#" xmlns:rdf="http://www.w3.org/1999/02/22-rdf-syntax-ns#">
   <cc:Work>
    <dc:type rdf:resource="http://purl.org/dc/dcmitype/StillImage"/>
    <dc:date>2022-07-28T12:01:09.472883</dc:date>
    <dc:format>image/svg+xml</dc:format>
    <dc:creator>
     <cc:Agent>
      <dc:title>Matplotlib v3.5.1, https://matplotlib.org/</dc:title>
     </cc:Agent>
    </dc:creator>
   </cc:Work>
  </rdf:RDF>
 </metadata>
 <defs>
  <style type="text/css">*{stroke-linejoin: round; stroke-linecap: butt}</style>
 </defs>
 <g id="figure_1">
  <g id="patch_1">
   <path d="M 0 345.6 
L 460.8 345.6 
L 460.8 0 
L 0 0 
z
" style="fill: #ffffff"/>
  </g>
  <g id="axes_1">
   <g id="patch_2">
    <path d="M 57.6 307.584 
L 414.72 307.584 
L 414.72 41.472 
L 57.6 41.472 
z
" style="fill: #ffffff"/>
   </g>
   <g id="PolyCollection_1">
    <path d="M 73.832727 111.647193 
L 73.832727 307.584 
L 74.09866 307.584 
L 74.118359 307.584 
L 74.364593 307.584 
L 74.492634 307.584 
L 74.660073 307.584 
L 75.280583 307.584 
L 75.310131 307.584 
L 75.516968 307.584 
L 75.645009 307.584 
L 75.674557 307.584 
L 75.723804 307.584 
L 76.354163 307.584 
L 76.373862 307.584 
L 76.718589 307.584 
L 76.85648 307.584 
L 77.309551 307.584 
L 77.516387 307.584 
L 78.23539 307.584 
L 78.816503 307.584 
L 79.131682 307.584 
L 80.303756 307.584 
L 80.589387 307.584 
L 80.658333 307.584 
L 81.682666 307.584 
L 81.987996 307.584 
L 82.017544 307.584 
L 82.431217 307.584 
L 83.041877 307.584 
L 83.238864 307.584 
L 83.248714 307.584 
L 83.435852 307.584 
L 84.637473 307.584 
L 85.45497 307.584 
L 85.957287 307.584 
L 88.06505 307.584 
L 88.774204 307.584 
L 89.512906 307.584 
L 89.897031 307.584 
L 90.556938 307.584 
L 90.616034 307.584 
L 92.448014 307.584 
L 92.645001 307.584 
L 93.324607 307.584 
L 94.762613 307.584 
L 95.767248 307.584 
L 96.072578 307.584 
L 96.66354 307.584 
L 97.520434 307.584 
L 99.785786 307.584 
L 99.805485 307.584 
L 100.731325 307.584 
L 103.528542 307.584 
L 103.607337 307.584 
L 104.129353 307.584 
L 104.355888 307.584 
L 105.961334 307.584 
L 106.532597 307.584 
L 107.084161 307.584 
L 107.359943 307.584 
L 107.39934 307.584 
L 108.344878 307.584 
L 112.540705 307.584 
L 113.141516 307.584 
L 113.259708 307.584 
L 114.047657 307.584 
L 115.456115 307.584 
L 115.544759 307.584 
L 116.963067 307.584 
L 119.198871 307.584 
L 119.750435 307.584 
L 120.59748 307.584 
L 120.942208 307.584 
L 121.119496 307.584 
L 121.424826 307.584 
L 122.380214 307.584 
L 123.069669 307.584 
L 123.847768 307.584 
L 124.025057 307.584 
L 124.084153 307.584 
L 124.231893 307.584 
L 125.256227 307.584 
L 126.044175 307.584 
L 126.812425 307.584 
L 127.472332 307.584 
L 127.9648 307.584 
L 128.486816 307.584 
L 129.107326 307.584 
L 129.589944 307.584 
L 129.629342 307.584 
L 131.451473 307.584 
L 132.229572 307.584 
L 132.357614 307.584 
L 132.87963 307.584 
L 133.480441 307.584 
L 133.49029 307.584 
L 134.790405 307.584 
L 135.095735 307.584 
L 135.351819 307.584 
L 136.533742 307.584 
L 136.681482 307.584 
L 136.760277 307.584 
L 136.770126 307.584 
L 138.08994 307.584 
L 138.680902 307.584 
L 140.128757 307.584 
L 141.369777 307.584 
L 141.970587 307.584 
L 142.532001 307.584 
L 143.940459 307.584 
L 144.157145 307.584 
L 144.285187 307.584 
L 144.728408 307.584 
L 144.876148 307.584 
L 145.624699 307.584 
L 145.673946 307.584 
L 146.501292 307.584 
L 146.580087 307.584 
L 147.023308 307.584 
L 147.092254 307.584 
L 147.377885 307.584 
L 148.027943 307.584 
L 148.077189 307.584 
L 148.352972 307.584 
L 148.412068 307.584 
L 149.003029 307.584 
L 150.244048 307.584 
L 150.67742 307.584 
L 150.923654 307.584 
L 150.953202 307.584 
L 151.051696 307.584 
L 151.366875 307.584 
L 151.583561 307.584 
L 151.957837 307.584 
L 152.332112 307.584 
L 152.548798 307.584 
L 152.66699 307.584 
L 152.765484 307.584 
L 153.602679 307.584 
L 153.976955 307.584 
L 155.011138 307.584 
L 155.178577 307.584 
L 155.720291 307.584 
L 156.212759 307.584 
L 156.399897 307.584 
L 156.439295 307.584 
L 156.518089 307.584 
L 157.187846 307.584 
L 157.365134 307.584 
L 157.650766 307.584 
L 158.054589 307.584 
L 158.50766 307.584 
L 158.527359 307.584 
L 158.97058 307.584 
L 159.394102 307.584 
L 159.502445 307.584 
L 159.945666 307.584 
L 160.260846 307.584 
L 160.388887 307.584 
L 161.324576 307.584 
L 161.866291 307.584 
L 162.161772 307.584 
L 162.437554 307.584 
L 162.536047 307.584 
L 163.127009 307.584 
L 164.505919 307.584 
L 165.047634 307.584 
L 165.5598 307.584 
L 165.668143 307.584 
L 165.677993 307.584 
L 166.584134 307.584 
L 166.909162 307.584 
L 166.93871 307.584 
L 166.94856 307.584 
L 167.135698 307.584 
L 167.480425 307.584 
L 167.519823 307.584 
L 167.578919 307.584 
L 168.002441 307.584 
L 168.583553 307.584 
L 169.381351 307.584 
L 169.489694 307.584 
L 169.588188 307.584 
L 171.055742 307.584 
L 171.607306 307.584 
L 171.843691 307.584 
L 172.257364 307.584 
L 172.582393 307.584 
L 172.759681 307.584 
L 173.498383 307.584 
L 173.53778 307.584 
L 173.803713 307.584 
L 175.064431 307.584 
L 175.497803 307.584 
L 175.527351 307.584 
L 175.990271 307.584 
L 176.00012 307.584 
L 176.098614 307.584 
L 176.108463 307.584 
L 177.004755 307.584 
L 177.23129 307.584 
L 177.635113 307.584 
L 177.812402 307.584 
L 177.979841 307.584 
L 178.324569 307.584 
L 178.423062 307.584 
L 178.580652 307.584 
L 180.264892 307.584 
L 181.092238 307.584 
L 181.752145 307.584 
L 181.939283 307.584 
L 182.480998 307.584 
L 182.668136 307.584 
L 182.677985 307.584 
L 182.707533 307.584 
L 183.042411 307.584 
L 183.278796 307.584 
L 183.298494 307.584 
L 183.544728 307.584 
L 183.761414 307.584 
L 184.056895 307.584 
L 184.58876 307.584 
L 184.59861 307.584 
L 185.416106 307.584 
L 185.475203 307.584 
L 185.81993 307.584 
L 185.849478 307.584 
L 185.869177 307.584 
L 187.110196 307.584 
L 187.553417 307.584 
L 187.868597 307.584 
L 188.12468 307.584 
L 188.242872 307.584 
L 189.720276 307.584 
L 190.094552 307.584 
L 191.207529 307.584 
L 191.443914 307.584 
L 191.680298 307.584 
L 191.719696 307.584 
L 192.350055 307.584 
L 193.423635 307.584 
L 193.689567 307.584 
L 193.709266 307.584 
L 194.221433 307.584 
L 194.388872 307.584 
L 195.777631 307.584 
L 195.974618 307.584 
L 196.378442 307.584 
L 196.457237 307.584 
L 197.392926 307.584 
L 197.452022 307.584 
L 197.560365 307.584 
L 198.131628 307.584 
L 198.565 307.584 
L 198.702891 307.584 
L 198.919577 307.584 
L 200.032554 307.584 
L 200.574269 307.584 
L 200.889448 307.584 
L 201.214477 307.584 
L 202.662333 307.584 
L 202.819922 307.584 
L 203.568474 307.584 
L 203.814708 307.584 
L 204.169285 307.584 
L 205.558044 307.584 
L 205.745182 307.584 
L 206.424788 307.584 
L 206.749816 307.584 
L 207.587012 307.584 
L 208.020384 307.584 
L 209.497787 307.584 
L 209.950858 307.584 
L 209.990255 307.584 
L 210.325133 307.584 
L 210.925944 307.584 
L 211.704044 307.584 
L 212.304854 307.584 
L 212.698829 307.584 
L 213.861053 307.584 
L 215.171018 307.584 
L 216.66812 307.584 
L 217.071944 307.584 
L 218.500101 307.584 
L 219.465338 307.584 
L 222.055719 307.584 
L 222.242857 307.584 
L 222.577735 307.584 
L 222.873216 307.584 
L 224.064988 307.584 
L 224.616552 307.584 
L 224.705196 307.584 
L 228.595693 307.584 
L 229.373792 307.584 
L 229.590478 307.584 
L 230.742853 307.584 
L 231.018635 307.584 
L 232.31875 307.584 
L 232.574834 307.584 
L 232.998356 307.584 
L 233.037753 307.584 
L 234.091635 307.584 
L 236.278192 307.584 
L 237.637404 307.584 
L 237.716199 307.584 
L 239.68607 307.584 
L 245.290355 307.584 
L 245.83207 307.584 
L 246.797307 307.584 
L 249.535428 307.584 
L 250.244582 307.584 
L 253.386528 307.584 
L 255.543537 307.584 
L 256.469377 307.584 
L 257.730094 307.584 
L 257.808889 307.584 
L 262.024415 307.584 
L 264.654193 307.584 
L 265.481539 307.584 
L 273.183738 307.584 
L 276.040051 307.584 
L 276.857548 307.584 
L 279.89115 307.584 
L 308.326248 307.584 
L 323.504109 307.584 
L 323.573054 307.584 
L 323.799589 307.584 
L 398.487273 307.584 
L 398.487273 306.874084 
L 398.487273 306.874084 
L 323.799589 306.164168 
L 323.573054 305.454252 
L 323.504109 304.744336 
L 308.326248 304.03442 
L 279.89115 303.324504 
L 276.857548 302.614588 
L 276.040051 301.904672 
L 273.183738 301.194756 
L 265.481539 299.774924 
L 264.654193 299.065008 
L 262.024415 298.355092 
L 257.808889 297.645176 
L 257.730094 296.935261 
L 256.469377 296.225345 
L 255.543537 295.515429 
L 253.386528 294.805513 
L 250.244582 294.095597 
L 249.535428 292.675765 
L 246.797307 292.675765 
L 245.83207 291.255933 
L 245.290355 290.546017 
L 239.68607 289.126185 
L 237.716199 288.416269 
L 237.637404 287.706353 
L 236.278192 286.996437 
L 234.091635 286.286521 
L 233.037753 285.576605 
L 232.998356 284.866689 
L 232.574834 284.156773 
L 232.31875 283.446857 
L 231.018635 282.736941 
L 230.742853 282.027025 
L 229.590478 281.317109 
L 229.373792 280.607193 
L 228.595693 279.897277 
L 224.705196 279.187361 
L 224.616552 278.477445 
L 224.064988 277.057613 
L 222.873216 276.347697 
L 222.577735 275.637782 
L 222.242857 274.927866 
L 222.055719 274.21795 
L 219.465338 272.798118 
L 218.500101 272.088202 
L 217.071944 271.378286 
L 216.66812 270.66837 
L 215.171018 269.958454 
L 213.861053 269.248538 
L 212.698829 268.538622 
L 212.304854 267.828706 
L 211.704044 267.11879 
L 210.925944 266.408874 
L 210.325133 265.698958 
L 209.990255 264.989042 
L 209.950858 264.279126 
L 209.497787 263.56921 
L 208.020384 262.859294 
L 207.587012 262.149378 
L 206.749816 261.439462 
L 206.424788 260.729546 
L 205.745182 260.01963 
L 205.558044 259.309714 
L 204.169285 258.599798 
L 203.814708 257.889882 
L 203.568474 256.47005 
L 202.819922 255.760134 
L 202.662333 255.050218 
L 201.214477 254.340303 
L 200.889448 253.630387 
L 200.574269 252.920471 
L 200.032554 252.210555 
L 198.919577 250.790723 
L 198.702891 250.080807 
L 198.565 250.080807 
L 198.131628 249.370891 
L 197.560365 248.660975 
L 197.452022 247.951059 
L 197.392926 247.241143 
L 196.457237 246.531227 
L 196.378442 245.821311 
L 195.974618 245.111395 
L 195.777631 244.401479 
L 194.388872 243.691563 
L 194.221433 242.981647 
L 193.709266 242.271731 
L 193.689567 241.561815 
L 193.423635 240.851899 
L 192.350055 240.141983 
L 191.719696 239.432067 
L 191.680298 238.722151 
L 191.443914 238.012235 
L 191.207529 237.302319 
L 190.094552 236.592403 
L 189.720276 235.882487 
L 188.242872 235.172571 
L 188.12468 234.462655 
L 187.868597 233.752739 
L 187.553417 232.332908 
L 187.110196 231.622992 
L 185.869177 230.913076 
L 185.849478 230.20316 
L 185.81993 229.493244 
L 185.475203 228.783328 
L 185.416106 228.073412 
L 184.59861 227.363496 
L 184.58876 226.65358 
L 184.056895 225.943664 
L 183.761414 225.233748 
L 183.544728 224.523832 
L 183.298494 223.104 
L 183.278796 222.394084 
L 183.042411 221.684168 
L 182.707533 220.974252 
L 182.677985 220.264336 
L 182.668136 219.55442 
L 182.480998 218.844504 
L 181.939283 218.134588 
L 181.752145 217.424672 
L 181.092238 216.714756 
L 180.264892 216.00484 
L 178.580652 215.294924 
L 178.423062 214.585008 
L 178.324569 213.875092 
L 177.979841 213.875092 
L 177.812402 213.165176 
L 177.635113 212.455261 
L 177.23129 211.745345 
L 177.004755 211.035429 
L 176.108463 210.325513 
L 176.098614 209.615597 
L 176.00012 208.905681 
L 175.990271 208.195765 
L 175.527351 207.485849 
L 175.497803 206.775933 
L 175.064431 206.066017 
L 173.803713 206.066017 
L 173.53778 205.356101 
L 173.498383 204.646185 
L 172.759681 204.646185 
L 172.582393 203.936269 
L 172.257364 203.936269 
L 171.843691 203.226353 
L 171.607306 202.516437 
L 171.055742 202.516437 
L 169.588188 201.806521 
L 169.489694 201.096605 
L 169.381351 200.386689 
L 168.583553 199.676773 
L 168.002441 198.966857 
L 167.578919 198.256941 
L 167.519823 197.547025 
L 167.480425 196.837109 
L 167.135698 196.127193 
L 166.94856 195.417277 
L 166.93871 194.707361 
L 166.909162 193.997445 
L 166.584134 193.287529 
L 165.677993 192.577613 
L 165.668143 191.867697 
L 165.5598 191.157782 
L 165.047634 191.157782 
L 164.505919 190.447866 
L 163.127009 189.73795 
L 162.536047 189.028034 
L 162.437554 188.318118 
L 162.161772 187.608202 
L 161.866291 186.898286 
L 161.324576 186.18837 
L 160.388887 185.478454 
L 160.260846 184.768538 
L 159.945666 184.768538 
L 159.502445 184.058622 
L 159.394102 182.63879 
L 158.97058 181.928874 
L 158.527359 181.218958 
L 158.50766 180.509042 
L 158.054589 179.799126 
L 157.650766 179.08921 
L 157.365134 177.669378 
L 157.187846 176.959462 
L 156.518089 175.53963 
L 156.439295 174.829714 
L 156.399897 174.119798 
L 156.212759 173.409882 
L 155.720291 172.699966 
L 155.178577 171.99005 
L 155.011138 171.280134 
L 153.976955 170.570218 
L 153.602679 169.860303 
L 152.765484 169.150387 
L 152.66699 168.440471 
L 152.548798 168.440471 
L 152.332112 167.730555 
L 151.957837 167.020639 
L 151.583561 166.310723 
L 151.366875 165.600807 
L 151.051696 164.890891 
L 150.953202 164.180975 
L 150.923654 162.761143 
L 150.67742 162.051227 
L 150.244048 161.341311 
L 149.003029 160.631395 
L 148.412068 160.631395 
L 148.352972 159.921479 
L 148.077189 159.211563 
L 148.027943 158.501647 
L 147.377885 157.791731 
L 147.092254 157.081815 
L 147.023308 156.371899 
L 146.580087 154.952067 
L 146.501292 154.242151 
L 145.673946 153.532235 
L 145.624699 153.532235 
L 144.876148 152.822319 
L 144.728408 152.112403 
L 144.285187 151.402487 
L 144.157145 150.692571 
L 143.940459 149.982655 
L 142.532001 149.272739 
L 141.970587 149.272739 
L 141.369777 148.562824 
L 140.128757 147.852908 
L 138.680902 147.142992 
L 138.08994 146.433076 
L 136.770126 145.72316 
L 136.760277 145.72316 
L 136.681482 145.013244 
L 136.533742 144.303328 
L 135.351819 144.303328 
L 135.095735 143.593412 
L 134.790405 143.593412 
L 133.49029 142.883496 
L 133.480441 142.883496 
L 132.87963 142.17358 
L 132.357614 141.463664 
L 132.229572 141.463664 
L 131.451473 140.753748 
L 129.629342 140.043832 
L 129.589944 139.333916 
L 129.107326 139.333916 
L 128.486816 139.333916 
L 127.9648 138.624 
L 127.472332 137.914084 
L 126.812425 137.204168 
L 126.044175 136.494252 
L 125.256227 135.784336 
L 124.231893 135.07442 
L 124.084153 134.364504 
L 124.025057 134.364504 
L 123.847768 134.364504 
L 123.069669 133.654588 
L 122.380214 132.944672 
L 121.424826 132.234756 
L 121.119496 131.52484 
L 120.942208 130.814924 
L 120.59748 130.814924 
L 119.750435 130.105008 
L 119.198871 130.105008 
L 116.963067 129.395092 
L 115.544759 128.685176 
L 115.456115 127.975261 
L 114.047657 127.975261 
L 113.259708 127.975261 
L 113.141516 127.975261 
L 112.540705 127.265345 
L 108.344878 126.555429 
L 107.39934 126.555429 
L 107.359943 125.845513 
L 107.084161 125.845513 
L 106.532597 125.135597 
L 105.961334 124.425681 
L 104.355888 123.715765 
L 104.129353 123.715765 
L 103.607337 123.005849 
L 103.528542 122.295933 
L 100.731325 122.295933 
L 99.805485 122.295933 
L 99.785786 120.876101 
L 97.520434 120.166185 
L 96.66354 119.456269 
L 96.072578 119.456269 
L 95.767248 119.456269 
L 94.762613 119.456269 
L 93.324607 119.456269 
L 92.645001 118.746353 
L 92.448014 118.036437 
L 90.616034 118.036437 
L 90.556938 118.036437 
L 89.897031 118.036437 
L 89.512906 117.326521 
L 88.774204 117.326521 
L 88.06505 117.326521 
L 85.957287 117.326521 
L 85.45497 117.326521 
L 84.637473 117.326521 
L 83.435852 117.326521 
L 83.248714 117.326521 
L 83.238864 116.616605 
L 83.041877 116.616605 
L 82.431217 115.906689 
L 82.017544 115.196773 
L 81.987996 115.196773 
L 81.682666 115.196773 
L 80.658333 115.196773 
L 80.589387 115.196773 
L 80.303756 114.486857 
L 79.131682 114.486857 
L 78.816503 113.776941 
L 78.23539 113.067025 
L 77.516387 113.067025 
L 77.309551 113.067025 
L 76.85648 113.067025 
L 76.718589 113.067025 
L 76.373862 113.067025 
L 76.354163 113.067025 
L 75.723804 113.067025 
L 75.674557 113.067025 
L 75.645009 112.357109 
L 75.516968 112.357109 
L 75.310131 112.357109 
L 75.280583 112.357109 
L 74.660073 112.357109 
L 74.492634 112.357109 
L 74.364593 112.357109 
L 74.118359 112.357109 
L 74.09866 112.357109 
L 73.832727 111.647193 
z
" clip-path="url(#p2eeec7707e)" style="fill: #008000"/>
   </g>
   <g id="PolyCollection_2">
    <path d="M 73.832727 111.647193 
L 73.832727 111.647193 
L 74.09866 112.357109 
L 74.118359 112.357109 
L 74.364593 112.357109 
L 74.492634 112.357109 
L 74.660073 112.357109 
L 75.280583 112.357109 
L 75.310131 112.357109 
L 75.516968 112.357109 
L 75.645009 112.357109 
L 75.674557 113.067025 
L 75.723804 113.067025 
L 76.354163 113.067025 
L 76.373862 113.067025 
L 76.718589 113.067025 
L 76.85648 113.067025 
L 77.309551 113.067025 
L 77.516387 113.067025 
L 78.23539 113.067025 
L 78.816503 113.776941 
L 79.131682 114.486857 
L 80.303756 114.486857 
L 80.589387 115.196773 
L 80.658333 115.196773 
L 81.682666 115.196773 
L 81.987996 115.196773 
L 82.017544 115.196773 
L 82.431217 115.906689 
L 83.041877 116.616605 
L 83.238864 116.616605 
L 83.248714 117.326521 
L 83.435852 117.326521 
L 84.637473 117.326521 
L 85.45497 117.326521 
L 85.957287 117.326521 
L 88.06505 117.326521 
L 88.774204 117.326521 
L 89.512906 117.326521 
L 89.897031 118.036437 
L 90.556938 118.036437 
L 90.616034 118.036437 
L 92.448014 118.036437 
L 92.645001 118.746353 
L 93.324607 119.456269 
L 94.762613 119.456269 
L 95.767248 119.456269 
L 96.072578 119.456269 
L 96.66354 119.456269 
L 97.520434 120.166185 
L 99.785786 120.876101 
L 99.805485 122.295933 
L 100.731325 122.295933 
L 103.528542 122.295933 
L 103.607337 123.005849 
L 104.129353 123.715765 
L 104.355888 123.715765 
L 105.961334 124.425681 
L 106.532597 125.135597 
L 107.084161 125.845513 
L 107.359943 125.845513 
L 107.39934 126.555429 
L 108.344878 126.555429 
L 112.540705 127.265345 
L 113.141516 127.975261 
L 113.259708 127.975261 
L 114.047657 127.975261 
L 115.456115 127.975261 
L 115.544759 128.685176 
L 116.963067 129.395092 
L 119.198871 130.105008 
L 119.750435 130.105008 
L 120.59748 130.814924 
L 120.942208 130.814924 
L 121.119496 131.52484 
L 121.424826 132.234756 
L 122.380214 132.944672 
L 123.069669 133.654588 
L 123.847768 134.364504 
L 124.025057 134.364504 
L 124.084153 134.364504 
L 124.231893 135.07442 
L 125.256227 135.784336 
L 126.044175 136.494252 
L 126.812425 137.204168 
L 127.472332 137.914084 
L 127.9648 138.624 
L 128.486816 139.333916 
L 129.107326 139.333916 
L 129.589944 139.333916 
L 129.629342 140.043832 
L 131.451473 140.753748 
L 132.229572 141.463664 
L 132.357614 141.463664 
L 132.87963 142.17358 
L 133.480441 142.883496 
L 133.49029 142.883496 
L 134.790405 143.593412 
L 135.095735 143.593412 
L 135.351819 144.303328 
L 136.533742 144.303328 
L 136.681482 145.013244 
L 136.760277 145.72316 
L 136.770126 145.72316 
L 138.08994 146.433076 
L 138.680902 147.142992 
L 140.128757 147.852908 
L 141.369777 148.562824 
L 141.970587 149.272739 
L 142.532001 149.272739 
L 143.940459 149.982655 
L 144.157145 150.692571 
L 144.285187 151.402487 
L 144.728408 152.112403 
L 144.876148 152.822319 
L 145.624699 153.532235 
L 145.673946 153.532235 
L 146.501292 154.242151 
L 146.580087 154.952067 
L 147.023308 156.371899 
L 147.092254 157.081815 
L 147.377885 157.791731 
L 148.027943 158.501647 
L 148.077189 159.211563 
L 148.352972 159.921479 
L 148.412068 160.631395 
L 149.003029 160.631395 
L 150.244048 161.341311 
L 150.67742 162.051227 
L 150.923654 162.761143 
L 150.953202 164.180975 
L 151.051696 164.890891 
L 151.366875 165.600807 
L 151.583561 166.310723 
L 151.957837 167.020639 
L 152.332112 167.730555 
L 152.548798 168.440471 
L 152.66699 168.440471 
L 152.765484 169.150387 
L 153.602679 169.860303 
L 153.976955 170.570218 
L 155.011138 171.280134 
L 155.178577 171.99005 
L 155.720291 172.699966 
L 156.212759 173.409882 
L 156.399897 174.119798 
L 156.439295 174.829714 
L 156.518089 175.53963 
L 157.187846 176.959462 
L 157.365134 177.669378 
L 157.650766 179.08921 
L 158.054589 179.799126 
L 158.50766 180.509042 
L 158.527359 181.218958 
L 158.97058 181.928874 
L 159.394102 182.63879 
L 159.502445 184.058622 
L 159.945666 184.768538 
L 160.260846 184.768538 
L 160.388887 185.478454 
L 161.324576 186.18837 
L 161.866291 186.898286 
L 162.161772 187.608202 
L 162.437554 188.318118 
L 162.536047 189.028034 
L 163.127009 189.73795 
L 164.505919 190.447866 
L 165.047634 191.157782 
L 165.5598 191.157782 
L 165.668143 191.867697 
L 165.677993 192.577613 
L 166.584134 193.287529 
L 166.909162 193.997445 
L 166.93871 194.707361 
L 166.94856 195.417277 
L 167.135698 196.127193 
L 167.480425 196.837109 
L 167.519823 197.547025 
L 167.578919 198.256941 
L 168.002441 198.966857 
L 168.583553 199.676773 
L 169.381351 200.386689 
L 169.489694 201.096605 
L 169.588188 201.806521 
L 171.055742 202.516437 
L 171.607306 202.516437 
L 171.843691 203.226353 
L 172.257364 203.936269 
L 172.582393 203.936269 
L 172.759681 204.646185 
L 173.498383 204.646185 
L 173.53778 205.356101 
L 173.803713 206.066017 
L 175.064431 206.066017 
L 175.497803 206.775933 
L 175.527351 207.485849 
L 175.990271 208.195765 
L 176.00012 208.905681 
L 176.098614 209.615597 
L 176.108463 210.325513 
L 177.004755 211.035429 
L 177.23129 211.745345 
L 177.635113 212.455261 
L 177.812402 213.165176 
L 177.979841 213.875092 
L 178.324569 213.875092 
L 178.423062 214.585008 
L 178.580652 215.294924 
L 180.264892 216.00484 
L 181.092238 216.714756 
L 181.752145 217.424672 
L 181.939283 218.134588 
L 182.480998 218.844504 
L 182.668136 219.55442 
L 182.677985 220.264336 
L 182.707533 220.974252 
L 183.042411 221.684168 
L 183.278796 222.394084 
L 183.298494 223.104 
L 183.544728 224.523832 
L 183.761414 225.233748 
L 184.056895 225.943664 
L 184.58876 226.65358 
L 184.59861 227.363496 
L 185.416106 228.073412 
L 185.475203 228.783328 
L 185.81993 229.493244 
L 185.849478 230.20316 
L 185.869177 230.913076 
L 187.110196 231.622992 
L 187.553417 232.332908 
L 187.868597 233.752739 
L 188.12468 234.462655 
L 188.242872 235.172571 
L 189.720276 235.882487 
L 190.094552 236.592403 
L 191.207529 237.302319 
L 191.443914 238.012235 
L 191.680298 238.722151 
L 191.719696 239.432067 
L 192.350055 240.141983 
L 193.423635 240.851899 
L 193.689567 241.561815 
L 193.709266 242.271731 
L 194.221433 242.981647 
L 194.388872 243.691563 
L 195.777631 244.401479 
L 195.974618 245.111395 
L 196.378442 245.821311 
L 196.457237 246.531227 
L 197.392926 247.241143 
L 197.452022 247.951059 
L 197.560365 248.660975 
L 198.131628 249.370891 
L 198.565 250.080807 
L 198.702891 250.080807 
L 198.919577 250.790723 
L 200.032554 252.210555 
L 200.574269 252.920471 
L 200.889448 253.630387 
L 201.214477 254.340303 
L 202.662333 255.050218 
L 202.819922 255.760134 
L 203.568474 256.47005 
L 203.814708 257.889882 
L 204.169285 258.599798 
L 205.558044 259.309714 
L 205.745182 260.01963 
L 206.424788 260.729546 
L 206.749816 261.439462 
L 207.587012 262.149378 
L 208.020384 262.859294 
L 209.497787 263.56921 
L 209.950858 264.279126 
L 209.990255 264.989042 
L 210.325133 265.698958 
L 210.925944 266.408874 
L 211.704044 267.11879 
L 212.304854 267.828706 
L 212.698829 268.538622 
L 213.861053 269.248538 
L 215.171018 269.958454 
L 216.66812 270.66837 
L 217.071944 271.378286 
L 218.500101 272.088202 
L 219.465338 272.798118 
L 222.055719 274.21795 
L 222.242857 274.927866 
L 222.577735 275.637782 
L 222.873216 276.347697 
L 224.064988 277.057613 
L 224.616552 278.477445 
L 224.705196 279.187361 
L 228.595693 279.897277 
L 229.373792 280.607193 
L 229.590478 281.317109 
L 230.742853 282.027025 
L 231.018635 282.736941 
L 232.31875 283.446857 
L 232.574834 284.156773 
L 232.998356 284.866689 
L 233.037753 285.576605 
L 234.091635 286.286521 
L 236.278192 286.996437 
L 237.637404 287.706353 
L 237.716199 288.416269 
L 239.68607 289.126185 
L 245.290355 290.546017 
L 245.83207 291.255933 
L 246.797307 292.675765 
L 249.535428 292.675765 
L 250.244582 294.095597 
L 253.386528 294.805513 
L 255.543537 295.515429 
L 256.469377 296.225345 
L 257.730094 296.935261 
L 257.808889 297.645176 
L 262.024415 298.355092 
L 264.654193 299.065008 
L 265.481539 299.774924 
L 273.183738 301.194756 
L 276.040051 301.904672 
L 276.857548 302.614588 
L 279.89115 303.324504 
L 308.326248 304.03442 
L 323.504109 304.744336 
L 323.573054 305.454252 
L 323.799589 306.164168 
L 398.487273 306.874084 
L 398.487273 306.874084 
L 398.487273 306.874084 
L 323.799589 306.164168 
L 323.573054 305.454252 
L 323.504109 304.744336 
L 308.326248 304.03442 
L 279.89115 303.324504 
L 276.857548 302.614588 
L 276.040051 301.904672 
L 273.183738 301.194756 
L 265.481539 299.774924 
L 264.654193 299.065008 
L 262.024415 298.355092 
L 257.808889 297.645176 
L 257.730094 296.935261 
L 256.469377 296.225345 
L 255.543537 295.515429 
L 253.386528 294.805513 
L 250.244582 294.095597 
L 249.535428 292.675765 
L 246.797307 292.675765 
L 245.83207 291.255933 
L 245.290355 290.546017 
L 239.68607 289.126185 
L 237.716199 288.416269 
L 237.637404 287.706353 
L 236.278192 286.996437 
L 234.091635 286.286521 
L 233.037753 285.576605 
L 232.998356 284.866689 
L 232.574834 284.156773 
L 232.31875 283.446857 
L 231.018635 282.736941 
L 230.742853 282.027025 
L 229.590478 281.317109 
L 229.373792 280.607193 
L 228.595693 279.897277 
L 224.705196 279.187361 
L 224.616552 278.477445 
L 224.064988 277.057613 
L 222.873216 276.347697 
L 222.577735 275.637782 
L 222.242857 274.927866 
L 222.055719 274.21795 
L 219.465338 272.798118 
L 218.500101 272.088202 
L 217.071944 271.378286 
L 216.66812 270.66837 
L 215.171018 269.958454 
L 213.861053 269.248538 
L 212.698829 268.538622 
L 212.304854 267.828706 
L 211.704044 267.11879 
L 210.925944 266.408874 
L 210.325133 265.698958 
L 209.990255 264.989042 
L 209.950858 264.279126 
L 209.497787 263.56921 
L 208.020384 262.859294 
L 207.587012 262.149378 
L 206.749816 261.439462 
L 206.424788 260.729546 
L 205.745182 260.01963 
L 205.558044 259.309714 
L 204.169285 258.599798 
L 203.814708 257.889882 
L 203.568474 256.47005 
L 202.819922 255.760134 
L 202.662333 255.050218 
L 201.214477 254.340303 
L 200.889448 253.630387 
L 200.574269 252.920471 
L 200.032554 252.210555 
L 198.919577 250.790723 
L 198.702891 250.080807 
L 198.565 250.080807 
L 198.131628 249.370891 
L 197.560365 248.660975 
L 197.452022 247.951059 
L 197.392926 247.241143 
L 196.457237 246.531227 
L 196.378442 245.821311 
L 195.974618 245.111395 
L 195.777631 244.401479 
L 194.388872 243.691563 
L 194.221433 242.981647 
L 193.709266 242.271731 
L 193.689567 241.561815 
L 193.423635 240.851899 
L 192.350055 240.141983 
L 191.719696 239.432067 
L 191.680298 238.722151 
L 191.443914 238.012235 
L 191.207529 237.302319 
L 190.094552 236.592403 
L 189.720276 235.882487 
L 188.242872 235.172571 
L 188.12468 234.462655 
L 187.868597 233.752739 
L 187.553417 232.332908 
L 187.110196 231.622992 
L 185.869177 230.913076 
L 185.849478 230.20316 
L 185.81993 229.493244 
L 185.475203 228.783328 
L 185.416106 228.073412 
L 184.59861 227.363496 
L 184.58876 226.65358 
L 184.056895 225.943664 
L 183.761414 225.233748 
L 183.544728 224.523832 
L 183.298494 223.104 
L 183.278796 222.394084 
L 183.042411 221.684168 
L 182.707533 220.974252 
L 182.677985 220.264336 
L 182.668136 219.55442 
L 182.480998 218.844504 
L 181.939283 218.134588 
L 181.752145 217.424672 
L 181.092238 216.714756 
L 180.264892 216.00484 
L 178.580652 215.294924 
L 178.423062 214.585008 
L 178.324569 213.875092 
L 177.979841 213.875092 
L 177.812402 213.165176 
L 177.635113 212.455261 
L 177.23129 211.745345 
L 177.004755 211.035429 
L 176.108463 210.325513 
L 176.098614 209.615597 
L 176.00012 208.905681 
L 175.990271 208.195765 
L 175.527351 207.485849 
L 175.497803 206.775933 
L 175.064431 206.066017 
L 173.803713 206.066017 
L 173.53778 205.356101 
L 173.498383 204.646185 
L 172.759681 204.646185 
L 172.582393 203.936269 
L 172.257364 203.936269 
L 171.843691 203.226353 
L 171.607306 202.516437 
L 171.055742 202.516437 
L 169.588188 201.806521 
L 169.489694 201.096605 
L 169.381351 200.386689 
L 168.583553 199.676773 
L 168.002441 198.966857 
L 167.578919 198.256941 
L 167.519823 197.547025 
L 167.480425 196.837109 
L 167.135698 196.127193 
L 166.94856 195.417277 
L 166.93871 194.707361 
L 166.909162 193.997445 
L 166.584134 193.287529 
L 165.677993 192.577613 
L 165.668143 191.867697 
L 165.5598 191.157782 
L 165.047634 191.157782 
L 164.505919 190.447866 
L 163.127009 189.73795 
L 162.536047 189.028034 
L 162.437554 188.318118 
L 162.161772 187.608202 
L 161.866291 186.898286 
L 161.324576 186.18837 
L 160.388887 185.478454 
L 160.260846 184.768538 
L 159.945666 184.768538 
L 159.502445 184.058622 
L 159.394102 182.63879 
L 158.97058 181.928874 
L 158.527359 181.218958 
L 158.50766 180.509042 
L 158.054589 179.799126 
L 157.650766 179.08921 
L 157.365134 177.669378 
L 157.187846 176.959462 
L 156.518089 175.53963 
L 156.439295 174.829714 
L 156.399897 174.119798 
L 156.212759 173.409882 
L 155.720291 172.699966 
L 155.178577 171.99005 
L 155.011138 171.280134 
L 153.976955 170.570218 
L 153.602679 169.860303 
L 152.765484 169.150387 
L 152.66699 168.440471 
L 152.548798 168.440471 
L 152.332112 167.730555 
L 151.957837 167.020639 
L 151.583561 166.310723 
L 151.366875 165.600807 
L 151.051696 164.890891 
L 150.953202 164.180975 
L 150.923654 162.761143 
L 150.67742 162.051227 
L 150.244048 161.341311 
L 149.003029 160.631395 
L 148.412068 160.631395 
L 148.352972 159.921479 
L 148.077189 159.211563 
L 148.027943 158.501647 
L 147.377885 157.791731 
L 147.092254 157.081815 
L 147.023308 156.371899 
L 146.580087 154.952067 
L 146.501292 154.242151 
L 145.673946 153.532235 
L 145.624699 153.532235 
L 144.876148 152.822319 
L 144.728408 152.112403 
L 144.285187 151.402487 
L 144.157145 150.692571 
L 143.940459 149.982655 
L 142.532001 149.272739 
L 141.970587 149.272739 
L 141.369777 148.562824 
L 140.128757 147.852908 
L 138.680902 147.142992 
L 138.08994 146.433076 
L 136.770126 145.72316 
L 136.760277 145.72316 
L 136.681482 145.013244 
L 136.533742 144.303328 
L 135.351819 144.303328 
L 135.095735 143.593412 
L 134.790405 143.593412 
L 133.49029 142.883496 
L 133.480441 142.883496 
L 132.87963 142.17358 
L 132.357614 141.463664 
L 132.229572 141.463664 
L 131.451473 140.753748 
L 129.629342 140.043832 
L 129.589944 139.333916 
L 129.107326 139.333916 
L 128.486816 139.333916 
L 127.9648 138.624 
L 127.472332 137.914084 
L 126.812425 137.204168 
L 126.044175 136.494252 
L 125.256227 135.784336 
L 124.231893 135.07442 
L 124.084153 134.364504 
L 124.025057 134.364504 
L 123.847768 134.364504 
L 123.069669 133.654588 
L 122.380214 132.944672 
L 121.424826 132.234756 
L 121.119496 131.52484 
L 120.942208 130.814924 
L 120.59748 130.814924 
L 119.750435 130.105008 
L 119.198871 130.105008 
L 116.963067 129.395092 
L 115.544759 128.685176 
L 115.456115 127.975261 
L 114.047657 127.975261 
L 113.259708 127.975261 
L 113.141516 127.975261 
L 112.540705 127.265345 
L 108.344878 126.555429 
L 107.39934 126.555429 
L 107.359943 125.845513 
L 107.084161 125.845513 
L 106.532597 125.135597 
L 105.961334 124.425681 
L 104.355888 123.715765 
L 104.129353 123.715765 
L 103.607337 123.005849 
L 103.528542 122.295933 
L 100.731325 122.295933 
L 99.805485 122.295933 
L 99.785786 120.876101 
L 97.520434 120.166185 
L 96.66354 119.456269 
L 96.072578 119.456269 
L 95.767248 119.456269 
L 94.762613 119.456269 
L 93.324607 119.456269 
L 92.645001 118.746353 
L 92.448014 118.036437 
L 90.616034 118.036437 
L 90.556938 118.036437 
L 89.897031 118.036437 
L 89.512906 117.326521 
L 88.774204 117.326521 
L 88.06505 117.326521 
L 85.957287 117.326521 
L 85.45497 117.326521 
L 84.637473 117.326521 
L 83.435852 117.326521 
L 83.248714 117.326521 
L 83.238864 116.616605 
L 83.041877 116.616605 
L 82.431217 115.906689 
L 82.017544 115.196773 
L 81.987996 115.196773 
L 81.682666 115.196773 
L 80.658333 115.196773 
L 80.589387 115.196773 
L 80.303756 114.486857 
L 79.131682 114.486857 
L 78.816503 113.776941 
L 78.23539 113.067025 
L 77.516387 113.067025 
L 77.309551 113.067025 
L 76.85648 113.067025 
L 76.718589 113.067025 
L 76.373862 113.067025 
L 76.354163 113.067025 
L 75.723804 113.067025 
L 75.674557 113.067025 
L 75.645009 112.357109 
L 75.516968 112.357109 
L 75.310131 112.357109 
L 75.280583 112.357109 
L 74.660073 112.357109 
L 74.492634 112.357109 
L 74.364593 112.357109 
L 74.118359 112.357109 
L 74.09866 112.357109 
L 73.832727 111.647193 
z
" clip-path="url(#p2eeec7707e)" style="fill: #7cfc00"/>
   </g>
   <g id="PolyCollection_3">
    <path d="M 73.832727 54.144 
L 73.832727 111.647193 
L 74.09866 112.357109 
L 74.118359 112.357109 
L 74.364593 112.357109 
L 74.492634 112.357109 
L 74.660073 112.357109 
L 75.280583 112.357109 
L 75.310131 112.357109 
L 75.516968 112.357109 
L 75.645009 112.357109 
L 75.674557 113.067025 
L 75.723804 113.067025 
L 76.354163 113.067025 
L 76.373862 113.067025 
L 76.718589 113.067025 
L 76.85648 113.067025 
L 77.309551 113.067025 
L 77.516387 113.067025 
L 78.23539 113.067025 
L 78.816503 113.776941 
L 79.131682 114.486857 
L 80.303756 114.486857 
L 80.589387 115.196773 
L 80.658333 115.196773 
L 81.682666 115.196773 
L 81.987996 115.196773 
L 82.017544 115.196773 
L 82.431217 115.906689 
L 83.041877 116.616605 
L 83.238864 116.616605 
L 83.248714 117.326521 
L 83.435852 117.326521 
L 84.637473 117.326521 
L 85.45497 117.326521 
L 85.957287 117.326521 
L 88.06505 117.326521 
L 88.774204 117.326521 
L 89.512906 117.326521 
L 89.897031 118.036437 
L 90.556938 118.036437 
L 90.616034 118.036437 
L 92.448014 118.036437 
L 92.645001 118.746353 
L 93.324607 119.456269 
L 94.762613 119.456269 
L 95.767248 119.456269 
L 96.072578 119.456269 
L 96.66354 119.456269 
L 97.520434 120.166185 
L 99.785786 120.876101 
L 99.805485 122.295933 
L 100.731325 122.295933 
L 103.528542 122.295933 
L 103.607337 123.005849 
L 104.129353 123.715765 
L 104.355888 123.715765 
L 105.961334 124.425681 
L 106.532597 125.135597 
L 107.084161 125.845513 
L 107.359943 125.845513 
L 107.39934 126.555429 
L 108.344878 126.555429 
L 112.540705 127.265345 
L 113.141516 127.975261 
L 113.259708 127.975261 
L 114.047657 127.975261 
L 115.456115 127.975261 
L 115.544759 128.685176 
L 116.963067 129.395092 
L 119.198871 130.105008 
L 119.750435 130.105008 
L 120.59748 130.814924 
L 120.942208 130.814924 
L 121.119496 131.52484 
L 121.424826 132.234756 
L 122.380214 132.944672 
L 123.069669 133.654588 
L 123.847768 134.364504 
L 124.025057 134.364504 
L 124.084153 134.364504 
L 124.231893 135.07442 
L 125.256227 135.784336 
L 126.044175 136.494252 
L 126.812425 137.204168 
L 127.472332 137.914084 
L 127.9648 138.624 
L 128.486816 139.333916 
L 129.107326 139.333916 
L 129.589944 139.333916 
L 129.629342 140.043832 
L 131.451473 140.753748 
L 132.229572 141.463664 
L 132.357614 141.463664 
L 132.87963 142.17358 
L 133.480441 142.883496 
L 133.49029 142.883496 
L 134.790405 143.593412 
L 135.095735 143.593412 
L 135.351819 144.303328 
L 136.533742 144.303328 
L 136.681482 145.013244 
L 136.760277 145.72316 
L 136.770126 145.72316 
L 138.08994 146.433076 
L 138.680902 147.142992 
L 140.128757 147.852908 
L 141.369777 148.562824 
L 141.970587 149.272739 
L 142.532001 149.272739 
L 143.940459 149.982655 
L 144.157145 150.692571 
L 144.285187 151.402487 
L 144.728408 152.112403 
L 144.876148 152.822319 
L 145.624699 153.532235 
L 145.673946 153.532235 
L 146.501292 154.242151 
L 146.580087 154.952067 
L 147.023308 156.371899 
L 147.092254 157.081815 
L 147.377885 157.791731 
L 148.027943 158.501647 
L 148.077189 159.211563 
L 148.352972 159.921479 
L 148.412068 160.631395 
L 149.003029 160.631395 
L 150.244048 161.341311 
L 150.67742 162.051227 
L 150.923654 162.761143 
L 150.953202 164.180975 
L 151.051696 164.890891 
L 151.366875 165.600807 
L 151.583561 166.310723 
L 151.957837 167.020639 
L 152.332112 167.730555 
L 152.548798 168.440471 
L 152.66699 168.440471 
L 152.765484 169.150387 
L 153.602679 169.860303 
L 153.976955 170.570218 
L 155.011138 171.280134 
L 155.178577 171.99005 
L 155.720291 172.699966 
L 156.212759 173.409882 
L 156.399897 174.119798 
L 156.439295 174.829714 
L 156.518089 175.53963 
L 157.187846 176.959462 
L 157.365134 177.669378 
L 157.650766 179.08921 
L 158.054589 179.799126 
L 158.50766 180.509042 
L 158.527359 181.218958 
L 158.97058 181.928874 
L 159.394102 182.63879 
L 159.502445 184.058622 
L 159.945666 184.768538 
L 160.260846 184.768538 
L 160.388887 185.478454 
L 161.324576 186.18837 
L 161.866291 186.898286 
L 162.161772 187.608202 
L 162.437554 188.318118 
L 162.536047 189.028034 
L 163.127009 189.73795 
L 164.505919 190.447866 
L 165.047634 191.157782 
L 165.5598 191.157782 
L 165.668143 191.867697 
L 165.677993 192.577613 
L 166.584134 193.287529 
L 166.909162 193.997445 
L 166.93871 194.707361 
L 166.94856 195.417277 
L 167.135698 196.127193 
L 167.480425 196.837109 
L 167.519823 197.547025 
L 167.578919 198.256941 
L 168.002441 198.966857 
L 168.583553 199.676773 
L 169.381351 200.386689 
L 169.489694 201.096605 
L 169.588188 201.806521 
L 171.055742 202.516437 
L 171.607306 202.516437 
L 171.843691 203.226353 
L 172.257364 203.936269 
L 172.582393 203.936269 
L 172.759681 204.646185 
L 173.498383 204.646185 
L 173.53778 205.356101 
L 173.803713 206.066017 
L 175.064431 206.066017 
L 175.497803 206.775933 
L 175.527351 207.485849 
L 175.990271 208.195765 
L 176.00012 208.905681 
L 176.098614 209.615597 
L 176.108463 210.325513 
L 177.004755 211.035429 
L 177.23129 211.745345 
L 177.635113 212.455261 
L 177.812402 213.165176 
L 177.979841 213.875092 
L 178.324569 213.875092 
L 178.423062 214.585008 
L 178.580652 215.294924 
L 180.264892 216.00484 
L 181.092238 216.714756 
L 181.752145 217.424672 
L 181.939283 218.134588 
L 182.480998 218.844504 
L 182.668136 219.55442 
L 182.677985 220.264336 
L 182.707533 220.974252 
L 183.042411 221.684168 
L 183.278796 222.394084 
L 183.298494 223.104 
L 183.544728 224.523832 
L 183.761414 225.233748 
L 184.056895 225.943664 
L 184.58876 226.65358 
L 184.59861 227.363496 
L 185.416106 228.073412 
L 185.475203 228.783328 
L 185.81993 229.493244 
L 185.849478 230.20316 
L 185.869177 230.913076 
L 187.110196 231.622992 
L 187.553417 232.332908 
L 187.868597 233.752739 
L 188.12468 234.462655 
L 188.242872 235.172571 
L 189.720276 235.882487 
L 190.094552 236.592403 
L 191.207529 237.302319 
L 191.443914 238.012235 
L 191.680298 238.722151 
L 191.719696 239.432067 
L 192.350055 240.141983 
L 193.423635 240.851899 
L 193.689567 241.561815 
L 193.709266 242.271731 
L 194.221433 242.981647 
L 194.388872 243.691563 
L 195.777631 244.401479 
L 195.974618 245.111395 
L 196.378442 245.821311 
L 196.457237 246.531227 
L 197.392926 247.241143 
L 197.452022 247.951059 
L 197.560365 248.660975 
L 198.131628 249.370891 
L 198.565 250.080807 
L 198.702891 250.080807 
L 198.919577 250.790723 
L 200.032554 252.210555 
L 200.574269 252.920471 
L 200.889448 253.630387 
L 201.214477 254.340303 
L 202.662333 255.050218 
L 202.819922 255.760134 
L 203.568474 256.47005 
L 203.814708 257.889882 
L 204.169285 258.599798 
L 205.558044 259.309714 
L 205.745182 260.01963 
L 206.424788 260.729546 
L 206.749816 261.439462 
L 207.587012 262.149378 
L 208.020384 262.859294 
L 209.497787 263.56921 
L 209.950858 264.279126 
L 209.990255 264.989042 
L 210.325133 265.698958 
L 210.925944 266.408874 
L 211.704044 267.11879 
L 212.304854 267.828706 
L 212.698829 268.538622 
L 213.861053 269.248538 
L 215.171018 269.958454 
L 216.66812 270.66837 
L 217.071944 271.378286 
L 218.500101 272.088202 
L 219.465338 272.798118 
L 222.055719 274.21795 
L 222.242857 274.927866 
L 222.577735 275.637782 
L 222.873216 276.347697 
L 224.064988 277.057613 
L 224.616552 278.477445 
L 224.705196 279.187361 
L 228.595693 279.897277 
L 229.373792 280.607193 
L 229.590478 281.317109 
L 230.742853 282.027025 
L 231.018635 282.736941 
L 232.31875 283.446857 
L 232.574834 284.156773 
L 232.998356 284.866689 
L 233.037753 285.576605 
L 234.091635 286.286521 
L 236.278192 286.996437 
L 237.637404 287.706353 
L 237.716199 288.416269 
L 239.68607 289.126185 
L 245.290355 290.546017 
L 245.83207 291.255933 
L 246.797307 292.675765 
L 249.535428 292.675765 
L 250.244582 294.095597 
L 253.386528 294.805513 
L 255.543537 295.515429 
L 256.469377 296.225345 
L 257.730094 296.935261 
L 257.808889 297.645176 
L 262.024415 298.355092 
L 264.654193 299.065008 
L 265.481539 299.774924 
L 273.183738 301.194756 
L 276.040051 301.904672 
L 276.857548 302.614588 
L 279.89115 303.324504 
L 308.326248 304.03442 
L 323.504109 304.744336 
L 323.573054 305.454252 
L 323.799589 306.164168 
L 398.487273 306.874084 
L 398.487273 306.874084 
L 398.487273 306.874084 
L 323.799589 306.164168 
L 323.573054 305.454252 
L 323.504109 304.744336 
L 308.326248 304.03442 
L 279.89115 303.324504 
L 276.857548 302.614588 
L 276.040051 301.904672 
L 273.183738 301.194756 
L 265.481539 299.774924 
L 264.654193 299.065008 
L 262.024415 298.355092 
L 257.808889 297.645176 
L 257.730094 296.935261 
L 256.469377 296.225345 
L 255.543537 295.515429 
L 253.386528 294.805513 
L 250.244582 294.095597 
L 249.535428 292.675765 
L 246.797307 291.965849 
L 245.83207 290.546017 
L 245.290355 289.836101 
L 239.68607 288.416269 
L 237.716199 287.706353 
L 237.637404 286.996437 
L 236.278192 286.286521 
L 234.091635 285.576605 
L 233.037753 284.866689 
L 232.998356 284.156773 
L 232.574834 283.446857 
L 232.31875 282.736941 
L 231.018635 282.027025 
L 230.742853 281.317109 
L 229.590478 280.607193 
L 229.373792 279.897277 
L 228.595693 279.187361 
L 224.705196 278.477445 
L 224.616552 277.767529 
L 224.064988 276.347697 
L 222.873216 275.637782 
L 222.577735 274.927866 
L 222.242857 274.21795 
L 222.055719 273.508034 
L 219.465338 272.088202 
L 218.500101 271.378286 
L 217.071944 270.66837 
L 216.66812 269.958454 
L 215.171018 269.248538 
L 213.861053 268.538622 
L 212.698829 267.828706 
L 212.304854 267.11879 
L 211.704044 266.408874 
L 210.925944 265.698958 
L 210.325133 264.989042 
L 209.990255 264.279126 
L 209.950858 263.56921 
L 209.497787 262.859294 
L 208.020384 262.149378 
L 207.587012 261.439462 
L 206.749816 260.729546 
L 206.424788 260.01963 
L 205.745182 259.309714 
L 205.558044 258.599798 
L 204.169285 257.889882 
L 203.814708 257.179966 
L 203.568474 255.760134 
L 202.819922 255.050218 
L 202.662333 254.340303 
L 201.214477 253.630387 
L 200.889448 252.920471 
L 200.574269 252.210555 
L 200.032554 251.500639 
L 198.919577 250.080807 
L 198.702891 249.370891 
L 198.565 248.660975 
L 198.131628 247.951059 
L 197.560365 246.531227 
L 197.452022 245.821311 
L 197.392926 245.111395 
L 196.457237 244.401479 
L 196.378442 243.691563 
L 195.974618 242.981647 
L 195.777631 242.271731 
L 194.388872 241.561815 
L 194.221433 240.851899 
L 193.709266 240.141983 
L 193.689567 239.432067 
L 193.423635 238.722151 
L 192.350055 238.012235 
L 191.719696 237.302319 
L 191.680298 236.592403 
L 191.443914 235.882487 
L 191.207529 235.172571 
L 190.094552 234.462655 
L 189.720276 233.752739 
L 188.242872 233.042824 
L 188.12468 232.332908 
L 187.868597 231.622992 
L 187.553417 230.20316 
L 187.110196 229.493244 
L 185.869177 228.783328 
L 185.849478 228.073412 
L 185.81993 227.363496 
L 185.475203 226.65358 
L 185.416106 225.943664 
L 184.59861 225.233748 
L 184.58876 224.523832 
L 184.056895 223.813916 
L 183.761414 223.104 
L 183.544728 222.394084 
L 183.298494 220.974252 
L 183.278796 220.264336 
L 183.042411 219.55442 
L 182.707533 218.844504 
L 182.677985 218.134588 
L 182.668136 217.424672 
L 182.480998 216.714756 
L 181.939283 216.00484 
L 181.752145 215.294924 
L 181.092238 214.585008 
L 180.264892 213.875092 
L 178.580652 213.165176 
L 178.423062 212.455261 
L 178.324569 211.745345 
L 177.979841 211.035429 
L 177.812402 210.325513 
L 177.635113 209.615597 
L 177.23129 208.905681 
L 177.004755 208.195765 
L 176.108463 207.485849 
L 176.098614 206.775933 
L 176.00012 206.066017 
L 175.990271 205.356101 
L 175.527351 204.646185 
L 175.497803 203.936269 
L 175.064431 203.226353 
L 173.803713 202.516437 
L 173.53778 201.806521 
L 173.498383 201.096605 
L 172.759681 200.386689 
L 172.582393 199.676773 
L 172.257364 198.966857 
L 171.843691 198.256941 
L 171.607306 197.547025 
L 171.055742 196.837109 
L 169.588188 196.127193 
L 169.489694 195.417277 
L 169.381351 194.707361 
L 168.583553 193.997445 
L 168.002441 193.287529 
L 167.578919 192.577613 
L 167.519823 191.867697 
L 167.480425 191.157782 
L 167.135698 190.447866 
L 166.94856 189.73795 
L 166.93871 189.028034 
L 166.909162 188.318118 
L 166.584134 187.608202 
L 165.677993 186.898286 
L 165.668143 186.18837 
L 165.5598 185.478454 
L 165.047634 184.058622 
L 164.505919 183.348706 
L 163.127009 182.63879 
L 162.536047 181.928874 
L 162.437554 181.218958 
L 162.161772 180.509042 
L 161.866291 179.799126 
L 161.324576 179.08921 
L 160.388887 178.379294 
L 160.260846 177.669378 
L 159.945666 176.959462 
L 159.502445 176.249546 
L 159.394102 174.829714 
L 158.97058 174.119798 
L 158.527359 173.409882 
L 158.50766 172.699966 
L 158.054589 171.99005 
L 157.650766 171.280134 
L 157.365134 169.860303 
L 157.187846 169.150387 
L 156.518089 167.730555 
L 156.439295 167.020639 
L 156.399897 166.310723 
L 156.212759 165.600807 
L 155.720291 164.890891 
L 155.178577 164.180975 
L 155.011138 163.471059 
L 153.976955 162.761143 
L 153.602679 162.051227 
L 152.765484 161.341311 
L 152.66699 160.631395 
L 152.548798 159.921479 
L 152.332112 159.211563 
L 151.957837 158.501647 
L 151.583561 157.791731 
L 151.366875 157.081815 
L 151.051696 156.371899 
L 150.953202 155.661983 
L 150.923654 154.242151 
L 150.67742 153.532235 
L 150.244048 152.822319 
L 149.003029 152.112403 
L 148.412068 151.402487 
L 148.352972 150.692571 
L 148.077189 149.982655 
L 148.027943 149.272739 
L 147.377885 148.562824 
L 147.092254 147.852908 
L 147.023308 147.142992 
L 146.580087 145.72316 
L 146.501292 145.013244 
L 145.673946 144.303328 
L 145.624699 143.593412 
L 144.876148 142.883496 
L 144.728408 142.17358 
L 144.285187 141.463664 
L 144.157145 140.753748 
L 143.940459 140.043832 
L 142.532001 139.333916 
L 141.970587 138.624 
L 141.369777 137.914084 
L 140.128757 137.204168 
L 138.680902 136.494252 
L 138.08994 135.784336 
L 136.770126 135.07442 
L 136.760277 134.364504 
L 136.681482 133.654588 
L 136.533742 132.944672 
L 135.351819 132.234756 
L 135.095735 131.52484 
L 134.790405 130.814924 
L 133.49029 130.105008 
L 133.480441 129.395092 
L 132.87963 128.685176 
L 132.357614 127.975261 
L 132.229572 127.265345 
L 131.451473 126.555429 
L 129.629342 125.845513 
L 129.589944 125.135597 
L 129.107326 124.425681 
L 128.486816 123.715765 
L 127.9648 123.005849 
L 127.472332 122.295933 
L 126.812425 121.586017 
L 126.044175 120.876101 
L 125.256227 120.166185 
L 124.231893 119.456269 
L 124.084153 118.746353 
L 124.025057 118.036437 
L 123.847768 117.326521 
L 123.069669 116.616605 
L 122.380214 115.906689 
L 121.424826 115.196773 
L 121.119496 114.486857 
L 120.942208 113.776941 
L 120.59748 113.067025 
L 119.750435 112.357109 
L 119.198871 111.647193 
L 116.963067 110.937277 
L 115.544759 110.227361 
L 115.456115 109.517445 
L 114.047657 108.807529 
L 113.259708 108.097613 
L 113.141516 107.387697 
L 112.540705 106.677782 
L 108.344878 105.967866 
L 107.39934 105.25795 
L 107.359943 104.548034 
L 107.084161 103.838118 
L 106.532597 103.128202 
L 105.961334 102.418286 
L 104.355888 101.70837 
L 104.129353 100.998454 
L 103.607337 100.288538 
L 103.528542 99.578622 
L 100.731325 98.868706 
L 99.805485 98.15879 
L 99.785786 96.738958 
L 97.520434 96.029042 
L 96.66354 95.319126 
L 96.072578 94.60921 
L 95.767248 93.899294 
L 94.762613 93.189378 
L 93.324607 92.479462 
L 92.645001 91.769546 
L 92.448014 91.05963 
L 90.616034 90.349714 
L 90.556938 89.639798 
L 89.897031 88.929882 
L 89.512906 88.219966 
L 88.774204 87.51005 
L 88.06505 86.800134 
L 85.957287 86.090218 
L 85.45497 85.380303 
L 84.637473 84.670387 
L 83.435852 83.960471 
L 83.248714 83.250555 
L 83.238864 82.540639 
L 83.041877 81.830723 
L 82.431217 81.120807 
L 82.017544 79.700975 
L 81.987996 78.991059 
L 81.682666 78.281143 
L 80.658333 77.571227 
L 80.589387 76.861311 
L 80.303756 74.731563 
L 79.131682 74.021647 
L 78.816503 72.601815 
L 78.23539 71.891899 
L 77.516387 69.052235 
L 77.309551 68.342319 
L 76.85648 67.632403 
L 76.718589 66.922487 
L 76.373862 66.212571 
L 76.354163 64.792739 
L 75.723804 64.082824 
L 75.674557 63.372908 
L 75.645009 61.953076 
L 75.516968 61.24316 
L 75.310131 60.533244 
L 75.280583 59.823328 
L 74.660073 57.69358 
L 74.492634 56.983664 
L 74.364593 56.273748 
L 74.118359 55.563832 
L 74.09866 54.853916 
L 73.832727 54.144 
z
" clip-path="url(#p2eeec7707e)" style="fill: #ff0000"/>
   </g>
   <g id="matplotlib.axis_1">
    <g id="xtick_1">
     <g id="line2d_1">
      <defs>
       <path id="m05eea56dc3" d="M 0 0 
L 0 3.5 
" style="stroke: #000000; stroke-width: 0.8"/>
      </defs>
      <g>
       <use xlink:href="#m05eea56dc3" x="105.577209" y="307.584" style="stroke: #000000; stroke-width: 0.8"/>
      </g>
     </g>
     <g id="text_1">
      <!-- 50 -->
      <g transform="translate(99.214709 322.182437)scale(0.1 -0.1)">
       <defs>
        <path id="DejaVuSans-35" d="M 691 4666 
L 3169 4666 
L 3169 4134 
L 1269 4134 
L 1269 2991 
Q 1406 3038 1543 3061 
Q 1681 3084 1819 3084 
Q 2600 3084 3056 2656 
Q 3513 2228 3513 1497 
Q 3513 744 3044 326 
Q 2575 -91 1722 -91 
Q 1428 -91 1123 -41 
Q 819 9 494 109 
L 494 744 
Q 775 591 1075 516 
Q 1375 441 1709 441 
Q 2250 441 2565 725 
Q 2881 1009 2881 1497 
Q 2881 1984 2565 2268 
Q 2250 2553 1709 2553 
Q 1456 2553 1204 2497 
Q 953 2441 691 2322 
L 691 4666 
z
" transform="scale(0.015625)"/>
        <path id="DejaVuSans-30" d="M 2034 4250 
Q 1547 4250 1301 3770 
Q 1056 3291 1056 2328 
Q 1056 1369 1301 889 
Q 1547 409 2034 409 
Q 2525 409 2770 889 
Q 3016 1369 3016 2328 
Q 3016 3291 2770 3770 
Q 2525 4250 2034 4250 
z
M 2034 4750 
Q 2819 4750 3233 4129 
Q 3647 3509 3647 2328 
Q 3647 1150 3233 529 
Q 2819 -91 2034 -91 
Q 1250 -91 836 529 
Q 422 1150 422 2328 
Q 422 3509 836 4129 
Q 1250 4750 2034 4750 
z
" transform="scale(0.015625)"/>
       </defs>
       <use xlink:href="#DejaVuSans-35"/>
       <use xlink:href="#DejaVuSans-30" x="63.623047"/>
      </g>
     </g>
    </g>
    <g id="xtick_2">
     <g id="line2d_2">
      <g>
       <use xlink:href="#m05eea56dc3" x="154.824" y="307.584" style="stroke: #000000; stroke-width: 0.8"/>
      </g>
     </g>
     <g id="text_2">
      <!-- 100 -->
      <g transform="translate(145.28025 322.182437)scale(0.1 -0.1)">
       <defs>
        <path id="DejaVuSans-31" d="M 794 531 
L 1825 531 
L 1825 4091 
L 703 3866 
L 703 4441 
L 1819 4666 
L 2450 4666 
L 2450 531 
L 3481 531 
L 3481 0 
L 794 0 
L 794 531 
z
" transform="scale(0.015625)"/>
       </defs>
       <use xlink:href="#DejaVuSans-31"/>
       <use xlink:href="#DejaVuSans-30" x="63.623047"/>
       <use xlink:href="#DejaVuSans-30" x="127.246094"/>
      </g>
     </g>
    </g>
    <g id="xtick_3">
     <g id="line2d_3">
      <g>
       <use xlink:href="#m05eea56dc3" x="204.070791" y="307.584" style="stroke: #000000; stroke-width: 0.8"/>
      </g>
     </g>
     <g id="text_3">
      <!-- 150 -->
      <g transform="translate(194.527041 322.182437)scale(0.1 -0.1)">
       <use xlink:href="#DejaVuSans-31"/>
       <use xlink:href="#DejaVuSans-35" x="63.623047"/>
       <use xlink:href="#DejaVuSans-30" x="127.246094"/>
      </g>
     </g>
    </g>
    <g id="xtick_4">
     <g id="line2d_4">
      <g>
       <use xlink:href="#m05eea56dc3" x="253.317582" y="307.584" style="stroke: #000000; stroke-width: 0.8"/>
      </g>
     </g>
     <g id="text_4">
      <!-- 200 -->
      <g transform="translate(243.773832 322.182437)scale(0.1 -0.1)">
       <defs>
        <path id="DejaVuSans-32" d="M 1228 531 
L 3431 531 
L 3431 0 
L 469 0 
L 469 531 
Q 828 903 1448 1529 
Q 2069 2156 2228 2338 
Q 2531 2678 2651 2914 
Q 2772 3150 2772 3378 
Q 2772 3750 2511 3984 
Q 2250 4219 1831 4219 
Q 1534 4219 1204 4116 
Q 875 4013 500 3803 
L 500 4441 
Q 881 4594 1212 4672 
Q 1544 4750 1819 4750 
Q 2544 4750 2975 4387 
Q 3406 4025 3406 3419 
Q 3406 3131 3298 2873 
Q 3191 2616 2906 2266 
Q 2828 2175 2409 1742 
Q 1991 1309 1228 531 
z
" transform="scale(0.015625)"/>
       </defs>
       <use xlink:href="#DejaVuSans-32"/>
       <use xlink:href="#DejaVuSans-30" x="63.623047"/>
       <use xlink:href="#DejaVuSans-30" x="127.246094"/>
      </g>
     </g>
    </g>
    <g id="xtick_5">
     <g id="line2d_5">
      <g>
       <use xlink:href="#m05eea56dc3" x="302.564373" y="307.584" style="stroke: #000000; stroke-width: 0.8"/>
      </g>
     </g>
     <g id="text_5">
      <!-- 250 -->
      <g transform="translate(293.020623 322.182437)scale(0.1 -0.1)">
       <use xlink:href="#DejaVuSans-32"/>
       <use xlink:href="#DejaVuSans-35" x="63.623047"/>
       <use xlink:href="#DejaVuSans-30" x="127.246094"/>
      </g>
     </g>
    </g>
    <g id="xtick_6">
     <g id="line2d_6">
      <g>
       <use xlink:href="#m05eea56dc3" x="351.811164" y="307.584" style="stroke: #000000; stroke-width: 0.8"/>
      </g>
     </g>
     <g id="text_6">
      <!-- 300 -->
      <g transform="translate(342.267414 322.182437)scale(0.1 -0.1)">
       <defs>
        <path id="DejaVuSans-33" d="M 2597 2516 
Q 3050 2419 3304 2112 
Q 3559 1806 3559 1356 
Q 3559 666 3084 287 
Q 2609 -91 1734 -91 
Q 1441 -91 1130 -33 
Q 819 25 488 141 
L 488 750 
Q 750 597 1062 519 
Q 1375 441 1716 441 
Q 2309 441 2620 675 
Q 2931 909 2931 1356 
Q 2931 1769 2642 2001 
Q 2353 2234 1838 2234 
L 1294 2234 
L 1294 2753 
L 1863 2753 
Q 2328 2753 2575 2939 
Q 2822 3125 2822 3475 
Q 2822 3834 2567 4026 
Q 2313 4219 1838 4219 
Q 1578 4219 1281 4162 
Q 984 4106 628 3988 
L 628 4550 
Q 988 4650 1302 4700 
Q 1616 4750 1894 4750 
Q 2613 4750 3031 4423 
Q 3450 4097 3450 3541 
Q 3450 3153 3228 2886 
Q 3006 2619 2597 2516 
z
" transform="scale(0.015625)"/>
       </defs>
       <use xlink:href="#DejaVuSans-33"/>
       <use xlink:href="#DejaVuSans-30" x="63.623047"/>
       <use xlink:href="#DejaVuSans-30" x="127.246094"/>
      </g>
     </g>
    </g>
    <g id="xtick_7">
     <g id="line2d_7">
      <g>
       <use xlink:href="#m05eea56dc3" x="401.057955" y="307.584" style="stroke: #000000; stroke-width: 0.8"/>
      </g>
     </g>
     <g id="text_7">
      <!-- 350 -->
      <g transform="translate(391.514205 322.182437)scale(0.1 -0.1)">
       <use xlink:href="#DejaVuSans-33"/>
       <use xlink:href="#DejaVuSans-35" x="63.623047"/>
       <use xlink:href="#DejaVuSans-30" x="127.246094"/>
      </g>
     </g>
    </g>
    <g id="text_8">
     <!-- Score -->
     <g transform="translate(222.157656 335.860562)scale(0.1 -0.1)">
      <defs>
       <path id="DejaVuSans-53" d="M 3425 4513 
L 3425 3897 
Q 3066 4069 2747 4153 
Q 2428 4238 2131 4238 
Q 1616 4238 1336 4038 
Q 1056 3838 1056 3469 
Q 1056 3159 1242 3001 
Q 1428 2844 1947 2747 
L 2328 2669 
Q 3034 2534 3370 2195 
Q 3706 1856 3706 1288 
Q 3706 609 3251 259 
Q 2797 -91 1919 -91 
Q 1588 -91 1214 -16 
Q 841 59 441 206 
L 441 856 
Q 825 641 1194 531 
Q 1563 422 1919 422 
Q 2459 422 2753 634 
Q 3047 847 3047 1241 
Q 3047 1584 2836 1778 
Q 2625 1972 2144 2069 
L 1759 2144 
Q 1053 2284 737 2584 
Q 422 2884 422 3419 
Q 422 4038 858 4394 
Q 1294 4750 2059 4750 
Q 2388 4750 2728 4690 
Q 3069 4631 3425 4513 
z
" transform="scale(0.015625)"/>
       <path id="DejaVuSans-63" d="M 3122 3366 
L 3122 2828 
Q 2878 2963 2633 3030 
Q 2388 3097 2138 3097 
Q 1578 3097 1268 2742 
Q 959 2388 959 1747 
Q 959 1106 1268 751 
Q 1578 397 2138 397 
Q 2388 397 2633 464 
Q 2878 531 3122 666 
L 3122 134 
Q 2881 22 2623 -34 
Q 2366 -91 2075 -91 
Q 1284 -91 818 406 
Q 353 903 353 1747 
Q 353 2603 823 3093 
Q 1294 3584 2113 3584 
Q 2378 3584 2631 3529 
Q 2884 3475 3122 3366 
z
" transform="scale(0.015625)"/>
       <path id="DejaVuSans-6f" d="M 1959 3097 
Q 1497 3097 1228 2736 
Q 959 2375 959 1747 
Q 959 1119 1226 758 
Q 1494 397 1959 397 
Q 2419 397 2687 759 
Q 2956 1122 2956 1747 
Q 2956 2369 2687 2733 
Q 2419 3097 1959 3097 
z
M 1959 3584 
Q 2709 3584 3137 3096 
Q 3566 2609 3566 1747 
Q 3566 888 3137 398 
Q 2709 -91 1959 -91 
Q 1206 -91 779 398 
Q 353 888 353 1747 
Q 353 2609 779 3096 
Q 1206 3584 1959 3584 
z
" transform="scale(0.015625)"/>
       <path id="DejaVuSans-72" d="M 2631 2963 
Q 2534 3019 2420 3045 
Q 2306 3072 2169 3072 
Q 1681 3072 1420 2755 
Q 1159 2438 1159 1844 
L 1159 0 
L 581 0 
L 581 3500 
L 1159 3500 
L 1159 2956 
Q 1341 3275 1631 3429 
Q 1922 3584 2338 3584 
Q 2397 3584 2469 3576 
Q 2541 3569 2628 3553 
L 2631 2963 
z
" transform="scale(0.015625)"/>
       <path id="DejaVuSans-65" d="M 3597 1894 
L 3597 1613 
L 953 1613 
Q 991 1019 1311 708 
Q 1631 397 2203 397 
Q 2534 397 2845 478 
Q 3156 559 3463 722 
L 3463 178 
Q 3153 47 2828 -22 
Q 2503 -91 2169 -91 
Q 1331 -91 842 396 
Q 353 884 353 1716 
Q 353 2575 817 3079 
Q 1281 3584 2069 3584 
Q 2775 3584 3186 3129 
Q 3597 2675 3597 1894 
z
M 3022 2063 
Q 3016 2534 2758 2815 
Q 2500 3097 2075 3097 
Q 1594 3097 1305 2825 
Q 1016 2553 972 2059 
L 3022 2063 
z
" transform="scale(0.015625)"/>
      </defs>
      <use xlink:href="#DejaVuSans-53"/>
      <use xlink:href="#DejaVuSans-63" x="63.476562"/>
      <use xlink:href="#DejaVuSans-6f" x="118.457031"/>
      <use xlink:href="#DejaVuSans-72" x="179.638672"/>
      <use xlink:href="#DejaVuSans-65" x="218.501953"/>
     </g>
    </g>
   </g>
   <g id="matplotlib.axis_2">
    <g id="ytick_1">
     <g id="line2d_8">
      <defs>
       <path id="m2678f30f46" d="M 0 0 
L -3.5 0 
" style="stroke: #000000; stroke-width: 0.8"/>
      </defs>
      <g>
       <use xlink:href="#m2678f30f46" x="57.6" y="307.584" style="stroke: #000000; stroke-width: 0.8"/>
      </g>
     </g>
     <g id="text_9">
      <!-- 0 -->
      <g transform="translate(44.2375 311.383219)scale(0.1 -0.1)">
       <use xlink:href="#DejaVuSans-30"/>
      </g>
     </g>
    </g>
    <g id="ytick_2">
     <g id="line2d_9">
      <g>
       <use xlink:href="#m2678f30f46" x="57.6" y="272.088202" style="stroke: #000000; stroke-width: 0.8"/>
      </g>
     </g>
     <g id="text_10">
      <!-- 50 -->
      <g transform="translate(37.875 275.88742)scale(0.1 -0.1)">
       <use xlink:href="#DejaVuSans-35"/>
       <use xlink:href="#DejaVuSans-30" x="63.623047"/>
      </g>
     </g>
    </g>
    <g id="ytick_3">
     <g id="line2d_10">
      <g>
       <use xlink:href="#m2678f30f46" x="57.6" y="236.592403" style="stroke: #000000; stroke-width: 0.8"/>
      </g>
     </g>
     <g id="text_11">
      <!-- 100 -->
      <g transform="translate(31.5125 240.391622)scale(0.1 -0.1)">
       <use xlink:href="#DejaVuSans-31"/>
       <use xlink:href="#DejaVuSans-30" x="63.623047"/>
       <use xlink:href="#DejaVuSans-30" x="127.246094"/>
      </g>
     </g>
    </g>
    <g id="ytick_4">
     <g id="line2d_11">
      <g>
       <use xlink:href="#m2678f30f46" x="57.6" y="201.096605" style="stroke: #000000; stroke-width: 0.8"/>
      </g>
     </g>
     <g id="text_12">
      <!-- 150 -->
      <g transform="translate(31.5125 204.895824)scale(0.1 -0.1)">
       <use xlink:href="#DejaVuSans-31"/>
       <use xlink:href="#DejaVuSans-35" x="63.623047"/>
       <use xlink:href="#DejaVuSans-30" x="127.246094"/>
      </g>
     </g>
    </g>
    <g id="ytick_5">
     <g id="line2d_12">
      <g>
       <use xlink:href="#m2678f30f46" x="57.6" y="165.600807" style="stroke: #000000; stroke-width: 0.8"/>
      </g>
     </g>
     <g id="text_13">
      <!-- 200 -->
      <g transform="translate(31.5125 169.400025)scale(0.1 -0.1)">
       <use xlink:href="#DejaVuSans-32"/>
       <use xlink:href="#DejaVuSans-30" x="63.623047"/>
       <use xlink:href="#DejaVuSans-30" x="127.246094"/>
      </g>
     </g>
    </g>
    <g id="ytick_6">
     <g id="line2d_13">
      <g>
       <use xlink:href="#m2678f30f46" x="57.6" y="130.105008" style="stroke: #000000; stroke-width: 0.8"/>
      </g>
     </g>
     <g id="text_14">
      <!-- 250 -->
      <g transform="translate(31.5125 133.904227)scale(0.1 -0.1)">
       <use xlink:href="#DejaVuSans-32"/>
       <use xlink:href="#DejaVuSans-35" x="63.623047"/>
       <use xlink:href="#DejaVuSans-30" x="127.246094"/>
      </g>
     </g>
    </g>
    <g id="ytick_7">
     <g id="line2d_14">
      <g>
       <use xlink:href="#m2678f30f46" x="57.6" y="94.60921" style="stroke: #000000; stroke-width: 0.8"/>
      </g>
     </g>
     <g id="text_15">
      <!-- 300 -->
      <g transform="translate(31.5125 98.408429)scale(0.1 -0.1)">
       <use xlink:href="#DejaVuSans-33"/>
       <use xlink:href="#DejaVuSans-30" x="63.623047"/>
       <use xlink:href="#DejaVuSans-30" x="127.246094"/>
      </g>
     </g>
    </g>
    <g id="ytick_8">
     <g id="line2d_15">
      <g>
       <use xlink:href="#m2678f30f46" x="57.6" y="59.113412" style="stroke: #000000; stroke-width: 0.8"/>
      </g>
     </g>
     <g id="text_16">
      <!-- 350 -->
      <g transform="translate(31.5125 62.912631)scale(0.1 -0.1)">
       <use xlink:href="#DejaVuSans-33"/>
       <use xlink:href="#DejaVuSans-35" x="63.623047"/>
       <use xlink:href="#DejaVuSans-30" x="127.246094"/>
      </g>
     </g>
    </g>
    <g id="text_17">
     <!-- Number of crosslinks -->
     <g transform="translate(25.432812 227.019406)rotate(-90)scale(0.1 -0.1)">
      <defs>
       <path id="DejaVuSans-4e" d="M 628 4666 
L 1478 4666 
L 3547 763 
L 3547 4666 
L 4159 4666 
L 4159 0 
L 3309 0 
L 1241 3903 
L 1241 0 
L 628 0 
L 628 4666 
z
" transform="scale(0.015625)"/>
       <path id="DejaVuSans-75" d="M 544 1381 
L 544 3500 
L 1119 3500 
L 1119 1403 
Q 1119 906 1312 657 
Q 1506 409 1894 409 
Q 2359 409 2629 706 
Q 2900 1003 2900 1516 
L 2900 3500 
L 3475 3500 
L 3475 0 
L 2900 0 
L 2900 538 
Q 2691 219 2414 64 
Q 2138 -91 1772 -91 
Q 1169 -91 856 284 
Q 544 659 544 1381 
z
M 1991 3584 
L 1991 3584 
z
" transform="scale(0.015625)"/>
       <path id="DejaVuSans-6d" d="M 3328 2828 
Q 3544 3216 3844 3400 
Q 4144 3584 4550 3584 
Q 5097 3584 5394 3201 
Q 5691 2819 5691 2113 
L 5691 0 
L 5113 0 
L 5113 2094 
Q 5113 2597 4934 2840 
Q 4756 3084 4391 3084 
Q 3944 3084 3684 2787 
Q 3425 2491 3425 1978 
L 3425 0 
L 2847 0 
L 2847 2094 
Q 2847 2600 2669 2842 
Q 2491 3084 2119 3084 
Q 1678 3084 1418 2786 
Q 1159 2488 1159 1978 
L 1159 0 
L 581 0 
L 581 3500 
L 1159 3500 
L 1159 2956 
Q 1356 3278 1631 3431 
Q 1906 3584 2284 3584 
Q 2666 3584 2933 3390 
Q 3200 3197 3328 2828 
z
" transform="scale(0.015625)"/>
       <path id="DejaVuSans-62" d="M 3116 1747 
Q 3116 2381 2855 2742 
Q 2594 3103 2138 3103 
Q 1681 3103 1420 2742 
Q 1159 2381 1159 1747 
Q 1159 1113 1420 752 
Q 1681 391 2138 391 
Q 2594 391 2855 752 
Q 3116 1113 3116 1747 
z
M 1159 2969 
Q 1341 3281 1617 3432 
Q 1894 3584 2278 3584 
Q 2916 3584 3314 3078 
Q 3713 2572 3713 1747 
Q 3713 922 3314 415 
Q 2916 -91 2278 -91 
Q 1894 -91 1617 61 
Q 1341 213 1159 525 
L 1159 0 
L 581 0 
L 581 4863 
L 1159 4863 
L 1159 2969 
z
" transform="scale(0.015625)"/>
       <path id="DejaVuSans-20" transform="scale(0.015625)"/>
       <path id="DejaVuSans-66" d="M 2375 4863 
L 2375 4384 
L 1825 4384 
Q 1516 4384 1395 4259 
Q 1275 4134 1275 3809 
L 1275 3500 
L 2222 3500 
L 2222 3053 
L 1275 3053 
L 1275 0 
L 697 0 
L 697 3053 
L 147 3053 
L 147 3500 
L 697 3500 
L 697 3744 
Q 697 4328 969 4595 
Q 1241 4863 1831 4863 
L 2375 4863 
z
" transform="scale(0.015625)"/>
       <path id="DejaVuSans-73" d="M 2834 3397 
L 2834 2853 
Q 2591 2978 2328 3040 
Q 2066 3103 1784 3103 
Q 1356 3103 1142 2972 
Q 928 2841 928 2578 
Q 928 2378 1081 2264 
Q 1234 2150 1697 2047 
L 1894 2003 
Q 2506 1872 2764 1633 
Q 3022 1394 3022 966 
Q 3022 478 2636 193 
Q 2250 -91 1575 -91 
Q 1294 -91 989 -36 
Q 684 19 347 128 
L 347 722 
Q 666 556 975 473 
Q 1284 391 1588 391 
Q 1994 391 2212 530 
Q 2431 669 2431 922 
Q 2431 1156 2273 1281 
Q 2116 1406 1581 1522 
L 1381 1569 
Q 847 1681 609 1914 
Q 372 2147 372 2553 
Q 372 3047 722 3315 
Q 1072 3584 1716 3584 
Q 2034 3584 2315 3537 
Q 2597 3491 2834 3397 
z
" transform="scale(0.015625)"/>
       <path id="DejaVuSans-6c" d="M 603 4863 
L 1178 4863 
L 1178 0 
L 603 0 
L 603 4863 
z
" transform="scale(0.015625)"/>
       <path id="DejaVuSans-69" d="M 603 3500 
L 1178 3500 
L 1178 0 
L 603 0 
L 603 3500 
z
M 603 4863 
L 1178 4863 
L 1178 4134 
L 603 4134 
L 603 4863 
z
" transform="scale(0.015625)"/>
       <path id="DejaVuSans-6e" d="M 3513 2113 
L 3513 0 
L 2938 0 
L 2938 2094 
Q 2938 2591 2744 2837 
Q 2550 3084 2163 3084 
Q 1697 3084 1428 2787 
Q 1159 2491 1159 1978 
L 1159 0 
L 581 0 
L 581 3500 
L 1159 3500 
L 1159 2956 
Q 1366 3272 1645 3428 
Q 1925 3584 2291 3584 
Q 2894 3584 3203 3211 
Q 3513 2838 3513 2113 
z
" transform="scale(0.015625)"/>
       <path id="DejaVuSans-6b" d="M 581 4863 
L 1159 4863 
L 1159 1991 
L 2875 3500 
L 3609 3500 
L 1753 1863 
L 3688 0 
L 2938 0 
L 1159 1709 
L 1159 0 
L 581 0 
L 581 4863 
z
" transform="scale(0.015625)"/>
      </defs>
      <use xlink:href="#DejaVuSans-4e"/>
      <use xlink:href="#DejaVuSans-75" x="74.804688"/>
      <use xlink:href="#DejaVuSans-6d" x="138.183594"/>
      <use xlink:href="#DejaVuSans-62" x="235.595703"/>
      <use xlink:href="#DejaVuSans-65" x="299.072266"/>
      <use xlink:href="#DejaVuSans-72" x="360.595703"/>
      <use xlink:href="#DejaVuSans-20" x="401.708984"/>
      <use xlink:href="#DejaVuSans-6f" x="433.496094"/>
      <use xlink:href="#DejaVuSans-66" x="494.677734"/>
      <use xlink:href="#DejaVuSans-20" x="529.882812"/>
      <use xlink:href="#DejaVuSans-63" x="561.669922"/>
      <use xlink:href="#DejaVuSans-72" x="616.650391"/>
      <use xlink:href="#DejaVuSans-6f" x="655.513672"/>
      <use xlink:href="#DejaVuSans-73" x="716.695312"/>
      <use xlink:href="#DejaVuSans-73" x="768.794922"/>
      <use xlink:href="#DejaVuSans-6c" x="820.894531"/>
      <use xlink:href="#DejaVuSans-69" x="848.677734"/>
      <use xlink:href="#DejaVuSans-6e" x="876.460938"/>
      <use xlink:href="#DejaVuSans-6b" x="939.839844"/>
      <use xlink:href="#DejaVuSans-73" x="997.75"/>
     </g>
    </g>
   </g>
   <g id="patch_3">
    <path d="M 57.6 307.584 
L 57.6 41.472 
" style="fill: none; stroke: #000000; stroke-width: 0.8; stroke-linejoin: miter; stroke-linecap: square"/>
   </g>
   <g id="patch_4">
    <path d="M 414.72 307.584 
L 414.72 41.472 
" style="fill: none; stroke: #000000; stroke-width: 0.8; stroke-linejoin: miter; stroke-linecap: square"/>
   </g>
   <g id="patch_5">
    <path d="M 57.6 307.584 
L 414.72 307.584 
" style="fill: none; stroke: #000000; stroke-width: 0.8; stroke-linejoin: miter; stroke-linecap: square"/>
   </g>
   <g id="patch_6">
    <path d="M 57.6 41.472 
L 414.72 41.472 
" style="fill: none; stroke: #000000; stroke-width: 0.8; stroke-linejoin: miter; stroke-linecap: square"/>
   </g>
   <g id="legend_1">
    <g id="patch_7">
     <path d="M 278.598125 93.506375 
L 407.72 93.506375 
Q 409.72 93.506375 409.72 91.506375 
L 409.72 48.472 
Q 409.72 46.472 407.72 46.472 
L 278.598125 46.472 
Q 276.598125 46.472 276.598125 48.472 
L 276.598125 91.506375 
Q 276.598125 93.506375 278.598125 93.506375 
z
" style="fill: #ffffff; opacity: 0.8; stroke: #cccccc; stroke-linejoin: miter"/>
    </g>
    <g id="patch_8">
     <path d="M 280.598125 58.070438 
L 300.598125 58.070438 
L 300.598125 51.070438 
L 280.598125 51.070438 
z
" style="fill: #008000"/>
    </g>
    <g id="text_18">
     <!-- correct -->
     <g transform="translate(308.598125 58.070438)scale(0.1 -0.1)">
      <defs>
       <path id="DejaVuSans-74" d="M 1172 4494 
L 1172 3500 
L 2356 3500 
L 2356 3053 
L 1172 3053 
L 1172 1153 
Q 1172 725 1289 603 
Q 1406 481 1766 481 
L 2356 481 
L 2356 0 
L 1766 0 
Q 1100 0 847 248 
Q 594 497 594 1153 
L 594 3053 
L 172 3053 
L 172 3500 
L 594 3500 
L 594 4494 
L 1172 4494 
z
" transform="scale(0.015625)"/>
      </defs>
      <use xlink:href="#DejaVuSans-63"/>
      <use xlink:href="#DejaVuSans-6f" x="54.980469"/>
      <use xlink:href="#DejaVuSans-72" x="116.162109"/>
      <use xlink:href="#DejaVuSans-72" x="155.525391"/>
      <use xlink:href="#DejaVuSans-65" x="194.388672"/>
      <use xlink:href="#DejaVuSans-63" x="255.912109"/>
      <use xlink:href="#DejaVuSans-74" x="310.892578"/>
     </g>
    </g>
    <g id="patch_9">
     <path d="M 280.598125 72.748563 
L 300.598125 72.748563 
L 300.598125 65.748563 
L 280.598125 65.748563 
z
" style="fill: #7cfc00"/>
    </g>
    <g id="text_19">
     <!-- correct homeotypic -->
     <g transform="translate(308.598125 72.748563)scale(0.1 -0.1)">
      <defs>
       <path id="DejaVuSans-68" d="M 3513 2113 
L 3513 0 
L 2938 0 
L 2938 2094 
Q 2938 2591 2744 2837 
Q 2550 3084 2163 3084 
Q 1697 3084 1428 2787 
Q 1159 2491 1159 1978 
L 1159 0 
L 581 0 
L 581 4863 
L 1159 4863 
L 1159 2956 
Q 1366 3272 1645 3428 
Q 1925 3584 2291 3584 
Q 2894 3584 3203 3211 
Q 3513 2838 3513 2113 
z
" transform="scale(0.015625)"/>
       <path id="DejaVuSans-79" d="M 2059 -325 
Q 1816 -950 1584 -1140 
Q 1353 -1331 966 -1331 
L 506 -1331 
L 506 -850 
L 844 -850 
Q 1081 -850 1212 -737 
Q 1344 -625 1503 -206 
L 1606 56 
L 191 3500 
L 800 3500 
L 1894 763 
L 2988 3500 
L 3597 3500 
L 2059 -325 
z
" transform="scale(0.015625)"/>
       <path id="DejaVuSans-70" d="M 1159 525 
L 1159 -1331 
L 581 -1331 
L 581 3500 
L 1159 3500 
L 1159 2969 
Q 1341 3281 1617 3432 
Q 1894 3584 2278 3584 
Q 2916 3584 3314 3078 
Q 3713 2572 3713 1747 
Q 3713 922 3314 415 
Q 2916 -91 2278 -91 
Q 1894 -91 1617 61 
Q 1341 213 1159 525 
z
M 3116 1747 
Q 3116 2381 2855 2742 
Q 2594 3103 2138 3103 
Q 1681 3103 1420 2742 
Q 1159 2381 1159 1747 
Q 1159 1113 1420 752 
Q 1681 391 2138 391 
Q 2594 391 2855 752 
Q 3116 1113 3116 1747 
z
" transform="scale(0.015625)"/>
      </defs>
      <use xlink:href="#DejaVuSans-63"/>
      <use xlink:href="#DejaVuSans-6f" x="54.980469"/>
      <use xlink:href="#DejaVuSans-72" x="116.162109"/>
      <use xlink:href="#DejaVuSans-72" x="155.525391"/>
      <use xlink:href="#DejaVuSans-65" x="194.388672"/>
      <use xlink:href="#DejaVuSans-63" x="255.912109"/>
      <use xlink:href="#DejaVuSans-74" x="310.892578"/>
      <use xlink:href="#DejaVuSans-20" x="350.101562"/>
      <use xlink:href="#DejaVuSans-68" x="381.888672"/>
      <use xlink:href="#DejaVuSans-6f" x="445.267578"/>
      <use xlink:href="#DejaVuSans-6d" x="506.449219"/>
      <use xlink:href="#DejaVuSans-65" x="603.861328"/>
      <use xlink:href="#DejaVuSans-6f" x="665.384766"/>
      <use xlink:href="#DejaVuSans-74" x="726.566406"/>
      <use xlink:href="#DejaVuSans-79" x="765.775391"/>
      <use xlink:href="#DejaVuSans-70" x="824.955078"/>
      <use xlink:href="#DejaVuSans-69" x="888.431641"/>
      <use xlink:href="#DejaVuSans-63" x="916.214844"/>
     </g>
    </g>
    <g id="patch_10">
     <path d="M 280.598125 87.426688 
L 300.598125 87.426688 
L 300.598125 80.426688 
L 280.598125 80.426688 
z
" style="fill: #ff0000"/>
    </g>
    <g id="text_20">
     <!-- false -->
     <g transform="translate(308.598125 87.426688)scale(0.1 -0.1)">
      <defs>
       <path id="DejaVuSans-61" d="M 2194 1759 
Q 1497 1759 1228 1600 
Q 959 1441 959 1056 
Q 959 750 1161 570 
Q 1363 391 1709 391 
Q 2188 391 2477 730 
Q 2766 1069 2766 1631 
L 2766 1759 
L 2194 1759 
z
M 3341 1997 
L 3341 0 
L 2766 0 
L 2766 531 
Q 2569 213 2275 61 
Q 1981 -91 1556 -91 
Q 1019 -91 701 211 
Q 384 513 384 1019 
Q 384 1609 779 1909 
Q 1175 2209 1959 2209 
L 2766 2209 
L 2766 2266 
Q 2766 2663 2505 2880 
Q 2244 3097 1772 3097 
Q 1472 3097 1187 3025 
Q 903 2953 641 2809 
L 641 3341 
Q 956 3463 1253 3523 
Q 1550 3584 1831 3584 
Q 2591 3584 2966 3190 
Q 3341 2797 3341 1997 
z
" transform="scale(0.015625)"/>
      </defs>
      <use xlink:href="#DejaVuSans-66"/>
      <use xlink:href="#DejaVuSans-61" x="35.205078"/>
      <use xlink:href="#DejaVuSans-6c" x="96.484375"/>
      <use xlink:href="#DejaVuSans-73" x="124.267578"/>
      <use xlink:href="#DejaVuSans-65" x="176.367188"/>
     </g>
    </g>
   </g>
  </g>
 </g>
 <defs>
  <clipPath id="p2eeec7707e">
   <rect x="57.6" y="41.472" width="357.12" height="266.112"/>
  </clipPath>
 </defs>
</svg>
