<?xml version="1.0" encoding="utf-8" standalone="no"?>
<!DOCTYPE svg PUBLIC "-//W3C//DTD SVG 1.1//EN"
  "http://www.w3.org/Graphics/SVG/1.1/DTD/svg11.dtd">
<svg xmlns:xlink="http://www.w3.org/1999/xlink" width="460.8pt" height="345.6pt" viewBox="0 0 460.8 345.6" xmlns="http://www.w3.org/2000/svg" version="1.1">
 <metadata>
  <rdf:RDF xmlns:dc="http://purl.org/dc/elements/1.1/" xmlns:cc="http://creativecommons.org/ns#" xmlns:rdf="http://www.w3.org/1999/02/22-rdf-syntax-ns#">
   <cc:Work>
    <dc:type rdf:resource="http://purl.org/dc/dcmitype/StillImage"/>
    <dc:date>2022-07-28T14:47:24.186740</dc:date>
    <dc:format>image/svg+xml</dc:format>
    <dc:creator>
     <cc:Agent>
      <dc:title>Matplotlib v3.5.1, https://matplotlib.org/</dc:title>
     </cc:Agent>
    </dc:creator>
   </cc:Work>
  </rdf:RDF>
 </metadata>
 <defs>
  <style type="text/css">*{stroke-linejoin: round; stroke-linecap: butt}</style>
 </defs>
 <g id="figure_1">
  <g id="patch_1">
   <path d="M 0 345.6 
L 460.8 345.6 
L 460.8 0 
L 0 0 
z
" style="fill: #ffffff"/>
  </g>
  <g id="axes_1">
   <g id="patch_2">
    <path d="M 57.6 307.584 
L 414.72 307.584 
L 414.72 41.472 
L 57.6 41.472 
z
" style="fill: #ffffff"/>
   </g>
   <g id="PolyCollection_1">
    <path d="M 73.832727 111.946105 
L 73.832727 307.584 
L 74.438923 307.584 
L 74.557205 307.584 
L 74.616346 307.584 
L 74.631131 307.584 
L 74.675487 307.584 
L 74.941621 307.584 
L 75.399964 307.584 
L 75.503461 307.584 
L 75.799166 307.584 
L 76.361005 307.584 
L 76.479287 307.584 
L 76.508858 307.584 
L 76.62714 307.584 
L 76.863704 307.584 
L 77.21855 307.584 
L 77.307261 307.584 
L 77.440329 307.584 
L 77.662107 307.584 
L 77.883886 307.584 
L 78.016953 307.584 
L 78.593578 307.584 
L 78.859713 307.584 
L 78.904068 307.584 
L 78.963209 307.584 
L 79.037136 307.584 
L 79.539834 307.584 
L 79.879895 307.584 
L 80.48609 307.584 
L 80.515661 307.584 
L 80.574802 307.584 
L 80.885292 307.584 
L 80.974004 307.584 
L 81.417561 307.584 
L 82.186394 307.584 
L 82.304676 307.584 
L 82.393388 307.584 
L 82.703878 307.584 
L 83.10308 307.584 
L 83.576208 307.584 
L 83.605778 307.584 
L 83.768416 307.584 
L 84.418967 307.584 
L 84.581605 307.584 
L 85.025162 307.584 
L 85.394794 307.584 
L 85.453935 307.584 
L 86.873319 307.584 
L 87.361232 307.584 
L 87.937857 307.584 
L 88.159636 307.584 
L 88.440555 307.584 
L 88.677119 307.584 
L 89.165033 307.584 
L 90.406994 307.584 
L 90.48092 307.584 
L 91.38282 307.584 
L 91.885519 307.584 
L 92.003801 307.584 
L 92.950057 307.584 
L 94.384226 307.584 
L 94.753858 307.584 
L 95.271341 307.584 
L 95.552261 307.584 
L 95.847966 307.584 
L 96.64637 307.584 
L 97.075142 307.584 
L 97.119498 307.584 
L 98.006613 307.584 
L 98.598023 307.584 
L 98.878943 307.584 
L 99.071151 307.584 
L 99.854769 307.584 
L 101.451576 307.584 
L 102.072557 307.584 
L 103.284948 307.584 
L 103.299733 307.584 
L 103.580653 307.584 
L 105.384453 307.584 
L 106.611629 307.584 
L 107.217824 307.584 
L 107.350892 307.584 
L 107.395247 307.584 
L 108.193651 307.584 
L 108.341504 307.584 
L 109.435612 307.584 
L 110.145304 307.584 
L 110.381868 307.584 
L 110.869781 307.584 
L 112.703153 307.584 
L 113.11714 307.584 
L 113.279777 307.584 
L 114.270389 307.584 
L 114.359101 307.584 
L 114.536524 307.584 
L 117.094372 307.584 
L 117.404863 307.584 
L 118.558112 307.584 
L 120.036637 307.584 
L 122.668412 307.584 
L 123.437245 307.584 
L 124.353931 307.584 
L 126.054234 307.584 
L 126.453436 307.584 
L 127.798894 307.584 
L 128.12417 307.584 
L 128.966929 307.584 
L 129.129567 307.584 
L 129.159137 307.584 
L 130.755944 307.584 
L 131.746556 307.584 
L 133.032873 307.584 
L 133.742565 307.584 
L 134.984526 307.584 
L 135.649862 307.584 
L 135.960353 307.584 
L 136.877038 307.584 
L 137.27624 307.584 
L 137.719798 307.584 
L 139.464457 307.584 
L 139.494028 307.584 
L 140.115008 307.584 
L 140.647277 307.584 
L 142.022306 307.584 
L 142.303225 307.584 
L 144.107026 307.584 
L 144.979356 307.584 
L 146.058679 307.584 
L 146.383955 307.584 
L 147.27107 307.584 
L 147.906836 307.584 
L 148.882662 307.584 
L 149.281864 307.584 
L 149.621925 307.584 
L 150.553396 307.584 
L 150.642107 307.584 
L 151.070879 307.584 
L 151.824927 307.584 
L 154.693266 307.584 
L 155.624737 307.584 
L 155.80216 307.584 
L 156.11265 307.584 
L 160.607366 307.584 
L 161.657119 307.584 
L 161.938039 307.584 
L 162.041536 307.584 
L 162.440738 307.584 
L 163.076503 307.584 
L 165.856131 307.584 
L 166.3884 307.584 
L 166.477111 307.584 
L 168.310482 307.584 
L 168.399194 307.584 
L 169.685511 307.584 
L 169.848148 307.584 
L 170.424773 307.584 
L 173.943663 307.584 
L 175.170839 307.584 
L 176.13188 307.584 
L 176.471941 307.584 
L 177.477338 307.584 
L 177.802614 307.584 
L 177.832184 307.584 
L 178.127889 307.584 
L 181.528497 307.584 
L 181.73549 307.584 
L 182.652176 307.584 
L 183.154875 307.584 
L 183.435794 307.584 
L 183.642788 307.584 
L 183.805426 307.584 
L 184.056775 307.584 
L 185.239595 307.584 
L 188.684558 307.584 
L 188.950693 307.584 
L 190.976272 307.584 
L 191.937314 307.584 
L 192.647006 307.584 
L 194.391665 307.584 
L 194.598659 307.584 
L 195.81105 307.584 
L 197.230434 307.584 
L 199.034234 307.584 
L 199.137731 307.584 
L 199.329939 307.584 
L 199.566503 307.584 
L 200.616256 307.584 
L 201.281592 307.584 
L 201.887788 307.584 
L 202.257419 307.584 
L 202.464413 307.584 
L 202.863614 307.584 
L 203.928152 307.584 
L 204.445636 307.584 
L 204.889194 307.584 
L 204.903979 307.584 
L 206.412075 307.584 
L 206.766921 307.584 
L 208.541151 307.584 
L 209.605689 307.584 
L 212.089611 307.584 
L 213.287216 307.584 
L 214.129976 307.584 
L 215.593716 307.584 
L 216.347763 307.584 
L 216.968744 307.584 
L 217.60451 307.584 
L 218.757759 307.584 
L 220.236284 307.584 
L 220.886836 307.584 
L 221.315608 307.584 
L 221.522601 307.584 
L 222.173152 307.584 
L 224.021309 307.584 
L 226.16517 307.584 
L 227.968971 307.584 
L 228.885656 307.584 
L 228.944797 307.584 
L 229.003938 307.584 
L 229.314429 307.584 
L 231.399149 307.584 
L 231.42872 307.584 
L 232.315835 307.584 
L 232.434117 307.584 
L 232.936815 307.584 
L 234.533622 307.584 
L 237.978586 307.584 
L 239.442326 307.584 
L 242.221953 307.584 
L 244.72066 307.584 
L 245.252929 307.584 
L 246.731455 307.584 
L 249.540652 307.584 
L 252.142857 307.584 
L 252.542058 307.584 
L 253.103898 307.584 
L 253.458744 307.584 
L 256.341868 307.584 
L 257.273339 307.584 
L 257.64297 307.584 
L 260.200818 307.584 
L 263.024801 307.584 
L 263.690138 307.584 
L 263.778849 307.584 
L 265.745288 307.584 
L 268.184854 307.584 
L 268.362277 307.584 
L 269.885158 307.584 
L 271.334113 307.584 
L 273.24141 307.584 
L 274.646009 307.584 
L 277.277784 307.584 
L 279.111155 307.584 
L 281.890782 307.584 
L 282.127346 307.584 
L 282.275198 307.584 
L 288.55893 307.584 
L 289.948744 307.584 
L 291.929967 307.584 
L 296.676033 307.584 
L 304.674854 307.584 
L 310.174967 307.584 
L 311.668278 307.584 
L 312.200547 307.584 
L 315.512443 307.584 
L 318.011151 307.584 
L 322.742431 307.584 
L 327.458926 307.584 
L 327.532852 307.584 
L 360.592674 307.584 
L 388.418517 307.584 
L 398.487273 307.584 
L 398.487273 306.842947 
L 398.487273 306.842947 
L 388.418517 306.101895 
L 360.592674 305.360842 
L 327.532852 304.619789 
L 327.458926 303.878737 
L 322.742431 303.137684 
L 318.011151 302.396632 
L 315.512443 301.655579 
L 312.200547 300.914526 
L 311.668278 300.173474 
L 310.174967 299.432421 
L 304.674854 298.691368 
L 296.676033 297.950316 
L 291.929967 297.209263 
L 289.948744 296.468211 
L 288.55893 295.727158 
L 282.275198 294.986105 
L 282.127346 294.245053 
L 281.890782 293.504 
L 279.111155 292.762947 
L 277.277784 292.021895 
L 274.646009 290.539789 
L 273.24141 289.798737 
L 271.334113 289.057684 
L 269.885158 288.316632 
L 268.362277 287.575579 
L 268.184854 286.834526 
L 265.745288 285.352421 
L 263.778849 283.870316 
L 263.690138 283.129263 
L 263.024801 282.388211 
L 260.200818 281.647158 
L 257.64297 280.906105 
L 257.273339 280.165053 
L 256.341868 279.424 
L 253.458744 278.682947 
L 253.103898 277.941895 
L 252.542058 277.200842 
L 252.142857 276.459789 
L 249.540652 275.718737 
L 246.731455 274.977684 
L 245.252929 273.495579 
L 244.72066 272.754526 
L 242.221953 272.013474 
L 239.442326 271.272421 
L 237.978586 270.531368 
L 234.533622 269.790316 
L 232.936815 269.049263 
L 232.434117 267.567158 
L 232.315835 266.826105 
L 231.42872 266.085053 
L 231.399149 264.602947 
L 229.314429 263.861895 
L 229.003938 263.120842 
L 228.944797 262.379789 
L 228.885656 260.897684 
L 227.968971 260.156632 
L 226.16517 259.415579 
L 224.021309 258.674526 
L 222.173152 257.933474 
L 221.522601 257.192421 
L 221.315608 256.451368 
L 220.886836 255.710316 
L 220.236284 254.969263 
L 218.757759 254.228211 
L 217.60451 252.005053 
L 216.968744 251.264 
L 216.347763 250.522947 
L 215.593716 249.040842 
L 214.129976 248.299789 
L 213.287216 246.076632 
L 212.089611 245.335579 
L 209.605689 243.853474 
L 208.541151 243.112421 
L 206.766921 241.630316 
L 206.412075 240.889263 
L 204.903979 240.148211 
L 204.889194 237.925053 
L 204.445636 237.184 
L 203.928152 236.442947 
L 202.863614 235.701895 
L 202.464413 234.960842 
L 202.257419 234.219789 
L 201.887788 233.478737 
L 201.281592 231.996632 
L 200.616256 230.514526 
L 199.566503 229.773474 
L 199.329939 229.032421 
L 199.137731 228.291368 
L 199.034234 227.550316 
L 197.230434 226.809263 
L 195.81105 226.068211 
L 194.598659 225.327158 
L 194.391665 224.586105 
L 192.647006 223.845053 
L 191.937314 223.104 
L 190.976272 222.362947 
L 188.950693 221.621895 
L 188.684558 220.880842 
L 185.239595 220.139789 
L 184.056775 219.398737 
L 183.805426 218.657684 
L 183.642788 217.175579 
L 183.435794 216.434526 
L 183.154875 215.693474 
L 182.652176 214.952421 
L 181.73549 214.211368 
L 181.528497 213.470316 
L 178.127889 212.729263 
L 177.832184 211.988211 
L 177.802614 209.024 
L 177.477338 208.282947 
L 176.471941 207.541895 
L 176.13188 206.800842 
L 175.170839 206.059789 
L 173.943663 205.318737 
L 170.424773 203.836632 
L 169.848148 203.095579 
L 169.685511 202.354526 
L 168.399194 201.613474 
L 168.310482 200.872421 
L 166.477111 200.131368 
L 166.3884 199.390316 
L 165.856131 198.649263 
L 163.076503 196.426105 
L 162.440738 195.685053 
L 162.041536 194.202947 
L 161.938039 193.461895 
L 161.657119 192.720842 
L 160.607366 191.979789 
L 156.11265 191.238737 
L 155.80216 190.497684 
L 155.624737 189.756632 
L 154.693266 189.015579 
L 151.824927 188.274526 
L 151.070879 188.274526 
L 150.642107 187.533474 
L 150.553396 186.792421 
L 149.621925 185.310316 
L 149.281864 184.569263 
L 148.882662 183.828211 
L 147.906836 183.087158 
L 147.27107 182.346105 
L 146.383955 180.864 
L 146.058679 180.122947 
L 144.979356 179.381895 
L 144.107026 179.381895 
L 142.303225 178.640842 
L 142.022306 177.899789 
L 140.647277 177.899789 
L 140.115008 177.158737 
L 139.494028 175.676632 
L 139.464457 174.935579 
L 137.719798 174.194526 
L 137.27624 172.712421 
L 136.877038 171.971368 
L 135.960353 171.230316 
L 135.649862 170.489263 
L 134.984526 169.748211 
L 133.742565 167.525053 
L 133.032873 166.784 
L 131.746556 166.042947 
L 130.755944 165.301895 
L 129.159137 164.560842 
L 129.129567 163.819789 
L 128.966929 163.078737 
L 128.12417 162.337684 
L 127.798894 161.596632 
L 126.453436 160.855579 
L 126.054234 160.114526 
L 124.353931 160.114526 
L 123.437245 159.373474 
L 122.668412 158.632421 
L 120.036637 157.891368 
L 118.558112 157.150316 
L 117.404863 155.668211 
L 117.094372 155.668211 
L 114.536524 154.927158 
L 114.359101 153.445053 
L 114.270389 153.445053 
L 113.279777 152.704 
L 113.11714 151.962947 
L 112.703153 149.739789 
L 110.869781 148.998737 
L 110.381868 148.257684 
L 110.145304 147.516632 
L 109.435612 146.775579 
L 108.341504 146.034526 
L 108.193651 146.034526 
L 107.395247 145.293474 
L 107.350892 144.552421 
L 107.217824 143.811368 
L 106.611629 143.070316 
L 105.384453 143.070316 
L 103.580653 143.070316 
L 103.299733 143.070316 
L 103.284948 140.847158 
L 102.072557 140.106105 
L 101.451576 138.624 
L 99.854769 137.882947 
L 99.071151 137.882947 
L 98.878943 137.141895 
L 98.598023 136.400842 
L 98.006613 135.659789 
L 97.119498 134.918737 
L 97.075142 134.177684 
L 96.64637 133.436632 
L 95.847966 132.695579 
L 95.552261 132.695579 
L 95.271341 131.954526 
L 94.753858 131.213474 
L 94.384226 131.213474 
L 92.950057 131.213474 
L 92.003801 130.472421 
L 91.885519 129.731368 
L 91.38282 128.990316 
L 90.48092 128.990316 
L 90.406994 128.990316 
L 89.165033 128.249263 
L 88.677119 127.508211 
L 88.440555 126.767158 
L 88.159636 126.026105 
L 87.937857 125.285053 
L 87.361232 124.544 
L 86.873319 124.544 
L 85.453935 123.802947 
L 85.394794 122.320842 
L 85.025162 122.320842 
L 84.581605 122.320842 
L 84.418967 122.320842 
L 83.768416 122.320842 
L 83.605778 122.320842 
L 83.576208 122.320842 
L 83.10308 122.320842 
L 82.703878 122.320842 
L 82.393388 122.320842 
L 82.304676 121.579789 
L 82.186394 120.838737 
L 81.417561 120.097684 
L 80.974004 120.097684 
L 80.885292 120.097684 
L 80.574802 119.356632 
L 80.515661 118.615579 
L 80.48609 117.874526 
L 79.879895 117.874526 
L 79.539834 117.874526 
L 79.037136 117.133474 
L 78.963209 116.392421 
L 78.904068 116.392421 
L 78.859713 116.392421 
L 78.593578 115.651368 
L 78.016953 115.651368 
L 77.883886 114.910316 
L 77.662107 114.910316 
L 77.440329 114.910316 
L 77.307261 114.169263 
L 77.21855 114.169263 
L 76.863704 114.169263 
L 76.62714 114.169263 
L 76.508858 114.169263 
L 76.479287 114.169263 
L 76.361005 114.169263 
L 75.799166 113.428211 
L 75.503461 113.428211 
L 75.399964 112.687158 
L 74.941621 111.946105 
L 74.675487 111.946105 
L 74.631131 111.946105 
L 74.616346 111.946105 
L 74.557205 111.946105 
L 74.438923 111.946105 
L 73.832727 111.946105 
z
" clip-path="url(#p757b08c374)" style="fill: #008000"/>
   </g>
   <g id="PolyCollection_2">
    <path d="M 73.832727 111.946105 
L 73.832727 111.946105 
L 74.438923 111.946105 
L 74.557205 111.946105 
L 74.616346 111.946105 
L 74.631131 111.946105 
L 74.675487 111.946105 
L 74.941621 111.946105 
L 75.399964 112.687158 
L 75.503461 113.428211 
L 75.799166 113.428211 
L 76.361005 114.169263 
L 76.479287 114.169263 
L 76.508858 114.169263 
L 76.62714 114.169263 
L 76.863704 114.169263 
L 77.21855 114.169263 
L 77.307261 114.169263 
L 77.440329 114.910316 
L 77.662107 114.910316 
L 77.883886 114.910316 
L 78.016953 115.651368 
L 78.593578 115.651368 
L 78.859713 116.392421 
L 78.904068 116.392421 
L 78.963209 116.392421 
L 79.037136 117.133474 
L 79.539834 117.874526 
L 79.879895 117.874526 
L 80.48609 117.874526 
L 80.515661 118.615579 
L 80.574802 119.356632 
L 80.885292 120.097684 
L 80.974004 120.097684 
L 81.417561 120.097684 
L 82.186394 120.838737 
L 82.304676 121.579789 
L 82.393388 122.320842 
L 82.703878 122.320842 
L 83.10308 122.320842 
L 83.576208 122.320842 
L 83.605778 122.320842 
L 83.768416 122.320842 
L 84.418967 122.320842 
L 84.581605 122.320842 
L 85.025162 122.320842 
L 85.394794 122.320842 
L 85.453935 123.802947 
L 86.873319 124.544 
L 87.361232 124.544 
L 87.937857 125.285053 
L 88.159636 126.026105 
L 88.440555 126.767158 
L 88.677119 127.508211 
L 89.165033 128.249263 
L 90.406994 128.990316 
L 90.48092 128.990316 
L 91.38282 128.990316 
L 91.885519 129.731368 
L 92.003801 130.472421 
L 92.950057 131.213474 
L 94.384226 131.213474 
L 94.753858 131.213474 
L 95.271341 131.954526 
L 95.552261 132.695579 
L 95.847966 132.695579 
L 96.64637 133.436632 
L 97.075142 134.177684 
L 97.119498 134.918737 
L 98.006613 135.659789 
L 98.598023 136.400842 
L 98.878943 137.141895 
L 99.071151 137.882947 
L 99.854769 137.882947 
L 101.451576 138.624 
L 102.072557 140.106105 
L 103.284948 140.847158 
L 103.299733 143.070316 
L 103.580653 143.070316 
L 105.384453 143.070316 
L 106.611629 143.070316 
L 107.217824 143.811368 
L 107.350892 144.552421 
L 107.395247 145.293474 
L 108.193651 146.034526 
L 108.341504 146.034526 
L 109.435612 146.775579 
L 110.145304 147.516632 
L 110.381868 148.257684 
L 110.869781 148.998737 
L 112.703153 149.739789 
L 113.11714 151.962947 
L 113.279777 152.704 
L 114.270389 153.445053 
L 114.359101 153.445053 
L 114.536524 154.927158 
L 117.094372 155.668211 
L 117.404863 155.668211 
L 118.558112 157.150316 
L 120.036637 157.891368 
L 122.668412 158.632421 
L 123.437245 159.373474 
L 124.353931 160.114526 
L 126.054234 160.114526 
L 126.453436 160.855579 
L 127.798894 161.596632 
L 128.12417 162.337684 
L 128.966929 163.078737 
L 129.129567 163.819789 
L 129.159137 164.560842 
L 130.755944 165.301895 
L 131.746556 166.042947 
L 133.032873 166.784 
L 133.742565 167.525053 
L 134.984526 169.748211 
L 135.649862 170.489263 
L 135.960353 171.230316 
L 136.877038 171.971368 
L 137.27624 172.712421 
L 137.719798 174.194526 
L 139.464457 174.935579 
L 139.494028 175.676632 
L 140.115008 177.158737 
L 140.647277 177.899789 
L 142.022306 177.899789 
L 142.303225 178.640842 
L 144.107026 179.381895 
L 144.979356 179.381895 
L 146.058679 180.122947 
L 146.383955 180.864 
L 147.27107 182.346105 
L 147.906836 183.087158 
L 148.882662 183.828211 
L 149.281864 184.569263 
L 149.621925 185.310316 
L 150.553396 186.792421 
L 150.642107 187.533474 
L 151.070879 188.274526 
L 151.824927 188.274526 
L 154.693266 189.015579 
L 155.624737 189.756632 
L 155.80216 190.497684 
L 156.11265 191.238737 
L 160.607366 191.979789 
L 161.657119 192.720842 
L 161.938039 193.461895 
L 162.041536 194.202947 
L 162.440738 195.685053 
L 163.076503 196.426105 
L 165.856131 198.649263 
L 166.3884 199.390316 
L 166.477111 200.131368 
L 168.310482 200.872421 
L 168.399194 201.613474 
L 169.685511 202.354526 
L 169.848148 203.095579 
L 170.424773 203.836632 
L 173.943663 205.318737 
L 175.170839 206.059789 
L 176.13188 206.800842 
L 176.471941 207.541895 
L 177.477338 208.282947 
L 177.802614 209.024 
L 177.832184 211.988211 
L 178.127889 212.729263 
L 181.528497 213.470316 
L 181.73549 214.211368 
L 182.652176 214.952421 
L 183.154875 215.693474 
L 183.435794 216.434526 
L 183.642788 217.175579 
L 183.805426 218.657684 
L 184.056775 219.398737 
L 185.239595 220.139789 
L 188.684558 220.880842 
L 188.950693 221.621895 
L 190.976272 222.362947 
L 191.937314 223.104 
L 192.647006 223.845053 
L 194.391665 224.586105 
L 194.598659 225.327158 
L 195.81105 226.068211 
L 197.230434 226.809263 
L 199.034234 227.550316 
L 199.137731 228.291368 
L 199.329939 229.032421 
L 199.566503 229.773474 
L 200.616256 230.514526 
L 201.281592 231.996632 
L 201.887788 233.478737 
L 202.257419 234.219789 
L 202.464413 234.960842 
L 202.863614 235.701895 
L 203.928152 236.442947 
L 204.445636 237.184 
L 204.889194 237.925053 
L 204.903979 240.148211 
L 206.412075 240.889263 
L 206.766921 241.630316 
L 208.541151 243.112421 
L 209.605689 243.853474 
L 212.089611 245.335579 
L 213.287216 246.076632 
L 214.129976 248.299789 
L 215.593716 249.040842 
L 216.347763 250.522947 
L 216.968744 251.264 
L 217.60451 252.005053 
L 218.757759 254.228211 
L 220.236284 254.969263 
L 220.886836 255.710316 
L 221.315608 256.451368 
L 221.522601 257.192421 
L 222.173152 257.933474 
L 224.021309 258.674526 
L 226.16517 259.415579 
L 227.968971 260.156632 
L 228.885656 260.897684 
L 228.944797 262.379789 
L 229.003938 263.120842 
L 229.314429 263.861895 
L 231.399149 264.602947 
L 231.42872 266.085053 
L 232.315835 266.826105 
L 232.434117 267.567158 
L 232.936815 269.049263 
L 234.533622 269.790316 
L 237.978586 270.531368 
L 239.442326 271.272421 
L 242.221953 272.013474 
L 244.72066 272.754526 
L 245.252929 273.495579 
L 246.731455 274.977684 
L 249.540652 275.718737 
L 252.142857 276.459789 
L 252.542058 277.200842 
L 253.103898 277.941895 
L 253.458744 278.682947 
L 256.341868 279.424 
L 257.273339 280.165053 
L 257.64297 280.906105 
L 260.200818 281.647158 
L 263.024801 282.388211 
L 263.690138 283.129263 
L 263.778849 283.870316 
L 265.745288 285.352421 
L 268.184854 286.834526 
L 268.362277 287.575579 
L 269.885158 288.316632 
L 271.334113 289.057684 
L 273.24141 289.798737 
L 274.646009 290.539789 
L 277.277784 292.021895 
L 279.111155 292.762947 
L 281.890782 293.504 
L 282.127346 294.245053 
L 282.275198 294.986105 
L 288.55893 295.727158 
L 289.948744 296.468211 
L 291.929967 297.209263 
L 296.676033 297.950316 
L 304.674854 298.691368 
L 310.174967 299.432421 
L 311.668278 300.173474 
L 312.200547 300.914526 
L 315.512443 301.655579 
L 318.011151 302.396632 
L 322.742431 303.137684 
L 327.458926 303.878737 
L 327.532852 304.619789 
L 360.592674 305.360842 
L 388.418517 306.101895 
L 398.487273 306.842947 
L 398.487273 306.842947 
L 398.487273 306.842947 
L 388.418517 306.101895 
L 360.592674 305.360842 
L 327.532852 304.619789 
L 327.458926 303.878737 
L 322.742431 303.137684 
L 318.011151 302.396632 
L 315.512443 301.655579 
L 312.200547 300.914526 
L 311.668278 300.173474 
L 310.174967 299.432421 
L 304.674854 298.691368 
L 296.676033 297.950316 
L 291.929967 297.209263 
L 289.948744 296.468211 
L 288.55893 295.727158 
L 282.275198 294.986105 
L 282.127346 294.245053 
L 281.890782 293.504 
L 279.111155 292.762947 
L 277.277784 292.021895 
L 274.646009 290.539789 
L 273.24141 289.798737 
L 271.334113 289.057684 
L 269.885158 288.316632 
L 268.362277 287.575579 
L 268.184854 286.834526 
L 265.745288 285.352421 
L 263.778849 283.870316 
L 263.690138 283.129263 
L 263.024801 282.388211 
L 260.200818 281.647158 
L 257.64297 280.906105 
L 257.273339 280.165053 
L 256.341868 279.424 
L 253.458744 278.682947 
L 253.103898 277.941895 
L 252.542058 277.200842 
L 252.142857 276.459789 
L 249.540652 275.718737 
L 246.731455 274.977684 
L 245.252929 273.495579 
L 244.72066 272.754526 
L 242.221953 272.013474 
L 239.442326 271.272421 
L 237.978586 270.531368 
L 234.533622 269.790316 
L 232.936815 269.049263 
L 232.434117 267.567158 
L 232.315835 266.826105 
L 231.42872 266.085053 
L 231.399149 264.602947 
L 229.314429 263.861895 
L 229.003938 263.120842 
L 228.944797 262.379789 
L 228.885656 260.897684 
L 227.968971 260.156632 
L 226.16517 259.415579 
L 224.021309 258.674526 
L 222.173152 257.933474 
L 221.522601 257.192421 
L 221.315608 256.451368 
L 220.886836 255.710316 
L 220.236284 254.969263 
L 218.757759 254.228211 
L 217.60451 252.005053 
L 216.968744 251.264 
L 216.347763 250.522947 
L 215.593716 249.040842 
L 214.129976 248.299789 
L 213.287216 246.076632 
L 212.089611 245.335579 
L 209.605689 243.853474 
L 208.541151 243.112421 
L 206.766921 241.630316 
L 206.412075 240.889263 
L 204.903979 240.148211 
L 204.889194 237.925053 
L 204.445636 237.184 
L 203.928152 236.442947 
L 202.863614 235.701895 
L 202.464413 234.960842 
L 202.257419 234.219789 
L 201.887788 233.478737 
L 201.281592 231.996632 
L 200.616256 230.514526 
L 199.566503 229.773474 
L 199.329939 229.032421 
L 199.137731 228.291368 
L 199.034234 227.550316 
L 197.230434 226.809263 
L 195.81105 226.068211 
L 194.598659 225.327158 
L 194.391665 224.586105 
L 192.647006 223.845053 
L 191.937314 223.104 
L 190.976272 222.362947 
L 188.950693 221.621895 
L 188.684558 220.880842 
L 185.239595 220.139789 
L 184.056775 219.398737 
L 183.805426 218.657684 
L 183.642788 217.175579 
L 183.435794 216.434526 
L 183.154875 215.693474 
L 182.652176 214.952421 
L 181.73549 214.211368 
L 181.528497 213.470316 
L 178.127889 212.729263 
L 177.832184 211.988211 
L 177.802614 209.024 
L 177.477338 208.282947 
L 176.471941 207.541895 
L 176.13188 206.800842 
L 175.170839 206.059789 
L 173.943663 205.318737 
L 170.424773 203.836632 
L 169.848148 203.095579 
L 169.685511 202.354526 
L 168.399194 201.613474 
L 168.310482 200.872421 
L 166.477111 200.131368 
L 166.3884 199.390316 
L 165.856131 198.649263 
L 163.076503 196.426105 
L 162.440738 195.685053 
L 162.041536 194.202947 
L 161.938039 193.461895 
L 161.657119 192.720842 
L 160.607366 191.979789 
L 156.11265 191.238737 
L 155.80216 190.497684 
L 155.624737 189.756632 
L 154.693266 189.015579 
L 151.824927 188.274526 
L 151.070879 188.274526 
L 150.642107 187.533474 
L 150.553396 186.792421 
L 149.621925 185.310316 
L 149.281864 184.569263 
L 148.882662 183.828211 
L 147.906836 183.087158 
L 147.27107 182.346105 
L 146.383955 180.864 
L 146.058679 180.122947 
L 144.979356 179.381895 
L 144.107026 179.381895 
L 142.303225 178.640842 
L 142.022306 177.899789 
L 140.647277 177.899789 
L 140.115008 177.158737 
L 139.494028 175.676632 
L 139.464457 174.935579 
L 137.719798 174.194526 
L 137.27624 172.712421 
L 136.877038 171.971368 
L 135.960353 171.230316 
L 135.649862 170.489263 
L 134.984526 169.748211 
L 133.742565 167.525053 
L 133.032873 166.784 
L 131.746556 166.042947 
L 130.755944 165.301895 
L 129.159137 164.560842 
L 129.129567 163.819789 
L 128.966929 163.078737 
L 128.12417 162.337684 
L 127.798894 161.596632 
L 126.453436 160.855579 
L 126.054234 160.114526 
L 124.353931 160.114526 
L 123.437245 159.373474 
L 122.668412 158.632421 
L 120.036637 157.891368 
L 118.558112 157.150316 
L 117.404863 155.668211 
L 117.094372 155.668211 
L 114.536524 154.927158 
L 114.359101 153.445053 
L 114.270389 153.445053 
L 113.279777 152.704 
L 113.11714 151.962947 
L 112.703153 149.739789 
L 110.869781 148.998737 
L 110.381868 148.257684 
L 110.145304 147.516632 
L 109.435612 146.775579 
L 108.341504 146.034526 
L 108.193651 146.034526 
L 107.395247 145.293474 
L 107.350892 144.552421 
L 107.217824 143.811368 
L 106.611629 143.070316 
L 105.384453 143.070316 
L 103.580653 143.070316 
L 103.299733 143.070316 
L 103.284948 140.847158 
L 102.072557 140.106105 
L 101.451576 138.624 
L 99.854769 137.882947 
L 99.071151 137.882947 
L 98.878943 137.141895 
L 98.598023 136.400842 
L 98.006613 135.659789 
L 97.119498 134.918737 
L 97.075142 134.177684 
L 96.64637 133.436632 
L 95.847966 132.695579 
L 95.552261 132.695579 
L 95.271341 131.954526 
L 94.753858 131.213474 
L 94.384226 131.213474 
L 92.950057 131.213474 
L 92.003801 130.472421 
L 91.885519 129.731368 
L 91.38282 128.990316 
L 90.48092 128.990316 
L 90.406994 128.990316 
L 89.165033 128.249263 
L 88.677119 127.508211 
L 88.440555 126.767158 
L 88.159636 126.026105 
L 87.937857 125.285053 
L 87.361232 124.544 
L 86.873319 124.544 
L 85.453935 123.802947 
L 85.394794 122.320842 
L 85.025162 122.320842 
L 84.581605 122.320842 
L 84.418967 122.320842 
L 83.768416 122.320842 
L 83.605778 122.320842 
L 83.576208 122.320842 
L 83.10308 122.320842 
L 82.703878 122.320842 
L 82.393388 122.320842 
L 82.304676 121.579789 
L 82.186394 120.838737 
L 81.417561 120.097684 
L 80.974004 120.097684 
L 80.885292 120.097684 
L 80.574802 119.356632 
L 80.515661 118.615579 
L 80.48609 117.874526 
L 79.879895 117.874526 
L 79.539834 117.874526 
L 79.037136 117.133474 
L 78.963209 116.392421 
L 78.904068 116.392421 
L 78.859713 116.392421 
L 78.593578 115.651368 
L 78.016953 115.651368 
L 77.883886 114.910316 
L 77.662107 114.910316 
L 77.440329 114.910316 
L 77.307261 114.169263 
L 77.21855 114.169263 
L 76.863704 114.169263 
L 76.62714 114.169263 
L 76.508858 114.169263 
L 76.479287 114.169263 
L 76.361005 114.169263 
L 75.799166 113.428211 
L 75.503461 113.428211 
L 75.399964 112.687158 
L 74.941621 111.946105 
L 74.675487 111.946105 
L 74.631131 111.946105 
L 74.616346 111.946105 
L 74.557205 111.946105 
L 74.438923 111.946105 
L 73.832727 111.946105 
z
" clip-path="url(#p757b08c374)" style="fill: #7cfc00"/>
   </g>
   <g id="PolyCollection_3">
    <path d="M 73.832727 54.144 
L 73.832727 111.946105 
L 74.438923 111.946105 
L 74.557205 111.946105 
L 74.616346 111.946105 
L 74.631131 111.946105 
L 74.675487 111.946105 
L 74.941621 111.946105 
L 75.399964 112.687158 
L 75.503461 113.428211 
L 75.799166 113.428211 
L 76.361005 114.169263 
L 76.479287 114.169263 
L 76.508858 114.169263 
L 76.62714 114.169263 
L 76.863704 114.169263 
L 77.21855 114.169263 
L 77.307261 114.169263 
L 77.440329 114.910316 
L 77.662107 114.910316 
L 77.883886 114.910316 
L 78.016953 115.651368 
L 78.593578 115.651368 
L 78.859713 116.392421 
L 78.904068 116.392421 
L 78.963209 116.392421 
L 79.037136 117.133474 
L 79.539834 117.874526 
L 79.879895 117.874526 
L 80.48609 117.874526 
L 80.515661 118.615579 
L 80.574802 119.356632 
L 80.885292 120.097684 
L 80.974004 120.097684 
L 81.417561 120.097684 
L 82.186394 120.838737 
L 82.304676 121.579789 
L 82.393388 122.320842 
L 82.703878 122.320842 
L 83.10308 122.320842 
L 83.576208 122.320842 
L 83.605778 122.320842 
L 83.768416 122.320842 
L 84.418967 122.320842 
L 84.581605 122.320842 
L 85.025162 122.320842 
L 85.394794 122.320842 
L 85.453935 123.802947 
L 86.873319 124.544 
L 87.361232 124.544 
L 87.937857 125.285053 
L 88.159636 126.026105 
L 88.440555 126.767158 
L 88.677119 127.508211 
L 89.165033 128.249263 
L 90.406994 128.990316 
L 90.48092 128.990316 
L 91.38282 128.990316 
L 91.885519 129.731368 
L 92.003801 130.472421 
L 92.950057 131.213474 
L 94.384226 131.213474 
L 94.753858 131.213474 
L 95.271341 131.954526 
L 95.552261 132.695579 
L 95.847966 132.695579 
L 96.64637 133.436632 
L 97.075142 134.177684 
L 97.119498 134.918737 
L 98.006613 135.659789 
L 98.598023 136.400842 
L 98.878943 137.141895 
L 99.071151 137.882947 
L 99.854769 137.882947 
L 101.451576 138.624 
L 102.072557 140.106105 
L 103.284948 140.847158 
L 103.299733 143.070316 
L 103.580653 143.070316 
L 105.384453 143.070316 
L 106.611629 143.070316 
L 107.217824 143.811368 
L 107.350892 144.552421 
L 107.395247 145.293474 
L 108.193651 146.034526 
L 108.341504 146.034526 
L 109.435612 146.775579 
L 110.145304 147.516632 
L 110.381868 148.257684 
L 110.869781 148.998737 
L 112.703153 149.739789 
L 113.11714 151.962947 
L 113.279777 152.704 
L 114.270389 153.445053 
L 114.359101 153.445053 
L 114.536524 154.927158 
L 117.094372 155.668211 
L 117.404863 155.668211 
L 118.558112 157.150316 
L 120.036637 157.891368 
L 122.668412 158.632421 
L 123.437245 159.373474 
L 124.353931 160.114526 
L 126.054234 160.114526 
L 126.453436 160.855579 
L 127.798894 161.596632 
L 128.12417 162.337684 
L 128.966929 163.078737 
L 129.129567 163.819789 
L 129.159137 164.560842 
L 130.755944 165.301895 
L 131.746556 166.042947 
L 133.032873 166.784 
L 133.742565 167.525053 
L 134.984526 169.748211 
L 135.649862 170.489263 
L 135.960353 171.230316 
L 136.877038 171.971368 
L 137.27624 172.712421 
L 137.719798 174.194526 
L 139.464457 174.935579 
L 139.494028 175.676632 
L 140.115008 177.158737 
L 140.647277 177.899789 
L 142.022306 177.899789 
L 142.303225 178.640842 
L 144.107026 179.381895 
L 144.979356 179.381895 
L 146.058679 180.122947 
L 146.383955 180.864 
L 147.27107 182.346105 
L 147.906836 183.087158 
L 148.882662 183.828211 
L 149.281864 184.569263 
L 149.621925 185.310316 
L 150.553396 186.792421 
L 150.642107 187.533474 
L 151.070879 188.274526 
L 151.824927 188.274526 
L 154.693266 189.015579 
L 155.624737 189.756632 
L 155.80216 190.497684 
L 156.11265 191.238737 
L 160.607366 191.979789 
L 161.657119 192.720842 
L 161.938039 193.461895 
L 162.041536 194.202947 
L 162.440738 195.685053 
L 163.076503 196.426105 
L 165.856131 198.649263 
L 166.3884 199.390316 
L 166.477111 200.131368 
L 168.310482 200.872421 
L 168.399194 201.613474 
L 169.685511 202.354526 
L 169.848148 203.095579 
L 170.424773 203.836632 
L 173.943663 205.318737 
L 175.170839 206.059789 
L 176.13188 206.800842 
L 176.471941 207.541895 
L 177.477338 208.282947 
L 177.802614 209.024 
L 177.832184 211.988211 
L 178.127889 212.729263 
L 181.528497 213.470316 
L 181.73549 214.211368 
L 182.652176 214.952421 
L 183.154875 215.693474 
L 183.435794 216.434526 
L 183.642788 217.175579 
L 183.805426 218.657684 
L 184.056775 219.398737 
L 185.239595 220.139789 
L 188.684558 220.880842 
L 188.950693 221.621895 
L 190.976272 222.362947 
L 191.937314 223.104 
L 192.647006 223.845053 
L 194.391665 224.586105 
L 194.598659 225.327158 
L 195.81105 226.068211 
L 197.230434 226.809263 
L 199.034234 227.550316 
L 199.137731 228.291368 
L 199.329939 229.032421 
L 199.566503 229.773474 
L 200.616256 230.514526 
L 201.281592 231.996632 
L 201.887788 233.478737 
L 202.257419 234.219789 
L 202.464413 234.960842 
L 202.863614 235.701895 
L 203.928152 236.442947 
L 204.445636 237.184 
L 204.889194 237.925053 
L 204.903979 240.148211 
L 206.412075 240.889263 
L 206.766921 241.630316 
L 208.541151 243.112421 
L 209.605689 243.853474 
L 212.089611 245.335579 
L 213.287216 246.076632 
L 214.129976 248.299789 
L 215.593716 249.040842 
L 216.347763 250.522947 
L 216.968744 251.264 
L 217.60451 252.005053 
L 218.757759 254.228211 
L 220.236284 254.969263 
L 220.886836 255.710316 
L 221.315608 256.451368 
L 221.522601 257.192421 
L 222.173152 257.933474 
L 224.021309 258.674526 
L 226.16517 259.415579 
L 227.968971 260.156632 
L 228.885656 260.897684 
L 228.944797 262.379789 
L 229.003938 263.120842 
L 229.314429 263.861895 
L 231.399149 264.602947 
L 231.42872 266.085053 
L 232.315835 266.826105 
L 232.434117 267.567158 
L 232.936815 269.049263 
L 234.533622 269.790316 
L 237.978586 270.531368 
L 239.442326 271.272421 
L 242.221953 272.013474 
L 244.72066 272.754526 
L 245.252929 273.495579 
L 246.731455 274.977684 
L 249.540652 275.718737 
L 252.142857 276.459789 
L 252.542058 277.200842 
L 253.103898 277.941895 
L 253.458744 278.682947 
L 256.341868 279.424 
L 257.273339 280.165053 
L 257.64297 280.906105 
L 260.200818 281.647158 
L 263.024801 282.388211 
L 263.690138 283.129263 
L 263.778849 283.870316 
L 265.745288 285.352421 
L 268.184854 286.834526 
L 268.362277 287.575579 
L 269.885158 288.316632 
L 271.334113 289.057684 
L 273.24141 289.798737 
L 274.646009 290.539789 
L 277.277784 292.021895 
L 279.111155 292.762947 
L 281.890782 293.504 
L 282.127346 294.245053 
L 282.275198 294.986105 
L 288.55893 295.727158 
L 289.948744 296.468211 
L 291.929967 297.209263 
L 296.676033 297.950316 
L 304.674854 298.691368 
L 310.174967 299.432421 
L 311.668278 300.173474 
L 312.200547 300.914526 
L 315.512443 301.655579 
L 318.011151 302.396632 
L 322.742431 303.137684 
L 327.458926 303.878737 
L 327.532852 304.619789 
L 360.592674 305.360842 
L 388.418517 306.101895 
L 398.487273 306.842947 
L 398.487273 306.842947 
L 398.487273 306.842947 
L 388.418517 306.101895 
L 360.592674 305.360842 
L 327.532852 304.619789 
L 327.458926 303.878737 
L 322.742431 303.137684 
L 318.011151 302.396632 
L 315.512443 301.655579 
L 312.200547 300.914526 
L 311.668278 300.173474 
L 310.174967 299.432421 
L 304.674854 298.691368 
L 296.676033 297.950316 
L 291.929967 297.209263 
L 289.948744 296.468211 
L 288.55893 295.727158 
L 282.275198 294.986105 
L 282.127346 294.245053 
L 281.890782 293.504 
L 279.111155 292.762947 
L 277.277784 292.021895 
L 274.646009 290.539789 
L 273.24141 289.798737 
L 271.334113 289.057684 
L 269.885158 288.316632 
L 268.362277 287.575579 
L 268.184854 286.834526 
L 265.745288 285.352421 
L 263.778849 283.870316 
L 263.690138 283.129263 
L 263.024801 282.388211 
L 260.200818 281.647158 
L 257.64297 280.906105 
L 257.273339 280.165053 
L 256.341868 279.424 
L 253.458744 278.682947 
L 253.103898 277.941895 
L 252.542058 277.200842 
L 252.142857 276.459789 
L 249.540652 275.718737 
L 246.731455 274.977684 
L 245.252929 273.495579 
L 244.72066 272.754526 
L 242.221953 272.013474 
L 239.442326 271.272421 
L 237.978586 270.531368 
L 234.533622 269.790316 
L 232.936815 269.049263 
L 232.434117 267.567158 
L 232.315835 266.826105 
L 231.42872 266.085053 
L 231.399149 264.602947 
L 229.314429 263.861895 
L 229.003938 263.120842 
L 228.944797 262.379789 
L 228.885656 260.897684 
L 227.968971 260.156632 
L 226.16517 259.415579 
L 224.021309 258.674526 
L 222.173152 257.933474 
L 221.522601 257.192421 
L 221.315608 256.451368 
L 220.886836 255.710316 
L 220.236284 254.969263 
L 218.757759 254.228211 
L 217.60451 252.005053 
L 216.968744 251.264 
L 216.347763 250.522947 
L 215.593716 249.040842 
L 214.129976 248.299789 
L 213.287216 246.076632 
L 212.089611 245.335579 
L 209.605689 243.853474 
L 208.541151 243.112421 
L 206.766921 241.630316 
L 206.412075 240.889263 
L 204.903979 240.148211 
L 204.889194 237.925053 
L 204.445636 237.184 
L 203.928152 236.442947 
L 202.863614 235.701895 
L 202.464413 234.960842 
L 202.257419 234.219789 
L 201.887788 233.478737 
L 201.281592 231.996632 
L 200.616256 230.514526 
L 199.566503 229.773474 
L 199.329939 229.032421 
L 199.137731 228.291368 
L 199.034234 227.550316 
L 197.230434 226.809263 
L 195.81105 226.068211 
L 194.598659 225.327158 
L 194.391665 224.586105 
L 192.647006 223.845053 
L 191.937314 223.104 
L 190.976272 222.362947 
L 188.950693 221.621895 
L 188.684558 220.880842 
L 185.239595 220.139789 
L 184.056775 219.398737 
L 183.805426 218.657684 
L 183.642788 217.175579 
L 183.435794 216.434526 
L 183.154875 215.693474 
L 182.652176 214.952421 
L 181.73549 214.211368 
L 181.528497 213.470316 
L 178.127889 212.729263 
L 177.832184 211.988211 
L 177.802614 209.024 
L 177.477338 208.282947 
L 176.471941 207.541895 
L 176.13188 206.800842 
L 175.170839 206.059789 
L 173.943663 205.318737 
L 170.424773 203.836632 
L 169.848148 203.095579 
L 169.685511 202.354526 
L 168.399194 201.613474 
L 168.310482 200.872421 
L 166.477111 200.131368 
L 166.3884 199.390316 
L 165.856131 198.649263 
L 163.076503 196.426105 
L 162.440738 195.685053 
L 162.041536 194.202947 
L 161.938039 193.461895 
L 161.657119 192.720842 
L 160.607366 191.979789 
L 156.11265 191.238737 
L 155.80216 190.497684 
L 155.624737 189.756632 
L 154.693266 189.015579 
L 151.824927 188.274526 
L 151.070879 187.533474 
L 150.642107 186.792421 
L 150.553396 186.051368 
L 149.621925 184.569263 
L 149.281864 183.828211 
L 148.882662 183.087158 
L 147.906836 182.346105 
L 147.27107 181.605053 
L 146.383955 180.122947 
L 146.058679 179.381895 
L 144.979356 178.640842 
L 144.107026 177.899789 
L 142.303225 177.158737 
L 142.022306 176.417684 
L 140.647277 175.676632 
L 140.115008 174.935579 
L 139.494028 173.453474 
L 139.464457 172.712421 
L 137.719798 171.971368 
L 137.27624 170.489263 
L 136.877038 169.748211 
L 135.960353 169.007158 
L 135.649862 168.266105 
L 134.984526 167.525053 
L 133.742565 165.301895 
L 133.032873 164.560842 
L 131.746556 163.819789 
L 130.755944 163.078737 
L 129.159137 162.337684 
L 129.129567 161.596632 
L 128.966929 160.855579 
L 128.12417 160.114526 
L 127.798894 159.373474 
L 126.453436 158.632421 
L 126.054234 157.891368 
L 124.353931 157.150316 
L 123.437245 156.409263 
L 122.668412 155.668211 
L 120.036637 154.927158 
L 118.558112 154.186105 
L 117.404863 152.704 
L 117.094372 151.962947 
L 114.536524 151.221895 
L 114.359101 149.739789 
L 114.270389 148.998737 
L 113.279777 147.516632 
L 113.11714 146.775579 
L 112.703153 144.552421 
L 110.869781 143.811368 
L 110.381868 143.070316 
L 110.145304 142.329263 
L 109.435612 141.588211 
L 108.341504 140.847158 
L 108.193651 140.106105 
L 107.395247 139.365053 
L 107.350892 137.882947 
L 107.217824 137.141895 
L 106.611629 136.400842 
L 105.384453 135.659789 
L 103.580653 134.918737 
L 103.299733 134.177684 
L 103.284948 131.954526 
L 102.072557 131.213474 
L 101.451576 128.990316 
L 99.854769 128.249263 
L 99.071151 127.508211 
L 98.878943 126.767158 
L 98.598023 126.026105 
L 98.006613 125.285053 
L 97.119498 123.802947 
L 97.075142 123.061895 
L 96.64637 121.579789 
L 95.847966 120.838737 
L 95.552261 120.097684 
L 95.271341 119.356632 
L 94.753858 118.615579 
L 94.384226 117.874526 
L 92.950057 117.133474 
L 92.003801 115.651368 
L 91.885519 114.910316 
L 91.38282 112.687158 
L 90.48092 111.946105 
L 90.406994 111.205053 
L 89.165033 110.464 
L 88.677119 109.722947 
L 88.440555 108.981895 
L 88.159636 108.240842 
L 87.937857 106.017684 
L 87.361232 105.276632 
L 86.873319 103.794526 
L 85.453935 103.053474 
L 85.394794 101.571368 
L 85.025162 100.089263 
L 84.581605 99.348211 
L 84.418967 98.607158 
L 83.768416 97.866105 
L 83.605778 97.125053 
L 83.576208 96.384 
L 83.10308 95.642947 
L 82.703878 94.160842 
L 82.393388 93.419789 
L 82.304676 92.678737 
L 82.186394 89.714526 
L 81.417561 88.232421 
L 80.974004 87.491368 
L 80.885292 86.750316 
L 80.574802 86.009263 
L 80.515661 85.268211 
L 80.48609 83.045053 
L 79.879895 82.304 
L 79.539834 80.821895 
L 79.037136 80.080842 
L 78.963209 78.598737 
L 78.904068 77.116632 
L 78.859713 76.375579 
L 78.593578 74.893474 
L 78.016953 72.670316 
L 77.883886 71.929263 
L 77.662107 71.188211 
L 77.440329 70.447158 
L 77.307261 69.706105 
L 77.21855 68.965053 
L 76.863704 67.482947 
L 76.62714 66.741895 
L 76.508858 66.000842 
L 76.479287 65.259789 
L 76.361005 64.518737 
L 75.799166 62.295579 
L 75.503461 61.554526 
L 75.399964 60.813474 
L 74.941621 60.072421 
L 74.675487 59.331368 
L 74.631131 57.849263 
L 74.616346 57.108211 
L 74.557205 56.367158 
L 74.438923 55.626105 
L 73.832727 54.144 
z
" clip-path="url(#p757b08c374)" style="fill: #ff0000"/>
   </g>
   <g id="matplotlib.axis_1">
    <g id="xtick_1">
     <g id="line2d_1">
      <defs>
       <path id="m533e896736" d="M 0 0 
L 0 3.5 
" style="stroke: #000000; stroke-width: 0.8"/>
      </defs>
      <g>
       <use xlink:href="#m533e896736" x="62.891641" y="307.584" style="stroke: #000000; stroke-width: 0.8"/>
      </g>
     </g>
     <g id="text_1">
      <!-- 0 -->
      <g transform="translate(59.710391 322.182437)scale(0.1 -0.1)">
       <defs>
        <path id="DejaVuSans-30" d="M 2034 4250 
Q 1547 4250 1301 3770 
Q 1056 3291 1056 2328 
Q 1056 1369 1301 889 
Q 1547 409 2034 409 
Q 2525 409 2770 889 
Q 3016 1369 3016 2328 
Q 3016 3291 2770 3770 
Q 2525 4250 2034 4250 
z
M 2034 4750 
Q 2819 4750 3233 4129 
Q 3647 3509 3647 2328 
Q 3647 1150 3233 529 
Q 2819 -91 2034 -91 
Q 1250 -91 836 529 
Q 422 1150 422 2328 
Q 422 3509 836 4129 
Q 1250 4750 2034 4750 
z
" transform="scale(0.015625)"/>
       </defs>
       <use xlink:href="#DejaVuSans-30"/>
      </g>
     </g>
    </g>
    <g id="xtick_2">
     <g id="line2d_2">
      <g>
       <use xlink:href="#m533e896736" x="136.817897" y="307.584" style="stroke: #000000; stroke-width: 0.8"/>
      </g>
     </g>
     <g id="text_2">
      <!-- 50 -->
      <g transform="translate(130.455397 322.182437)scale(0.1 -0.1)">
       <defs>
        <path id="DejaVuSans-35" d="M 691 4666 
L 3169 4666 
L 3169 4134 
L 1269 4134 
L 1269 2991 
Q 1406 3038 1543 3061 
Q 1681 3084 1819 3084 
Q 2600 3084 3056 2656 
Q 3513 2228 3513 1497 
Q 3513 744 3044 326 
Q 2575 -91 1722 -91 
Q 1428 -91 1123 -41 
Q 819 9 494 109 
L 494 744 
Q 775 591 1075 516 
Q 1375 441 1709 441 
Q 2250 441 2565 725 
Q 2881 1009 2881 1497 
Q 2881 1984 2565 2268 
Q 2250 2553 1709 2553 
Q 1456 2553 1204 2497 
Q 953 2441 691 2322 
L 691 4666 
z
" transform="scale(0.015625)"/>
       </defs>
       <use xlink:href="#DejaVuSans-35"/>
       <use xlink:href="#DejaVuSans-30" x="63.623047"/>
      </g>
     </g>
    </g>
    <g id="xtick_3">
     <g id="line2d_3">
      <g>
       <use xlink:href="#m533e896736" x="210.744153" y="307.584" style="stroke: #000000; stroke-width: 0.8"/>
      </g>
     </g>
     <g id="text_3">
      <!-- 100 -->
      <g transform="translate(201.200403 322.182437)scale(0.1 -0.1)">
       <defs>
        <path id="DejaVuSans-31" d="M 794 531 
L 1825 531 
L 1825 4091 
L 703 3866 
L 703 4441 
L 1819 4666 
L 2450 4666 
L 2450 531 
L 3481 531 
L 3481 0 
L 794 0 
L 794 531 
z
" transform="scale(0.015625)"/>
       </defs>
       <use xlink:href="#DejaVuSans-31"/>
       <use xlink:href="#DejaVuSans-30" x="63.623047"/>
       <use xlink:href="#DejaVuSans-30" x="127.246094"/>
      </g>
     </g>
    </g>
    <g id="xtick_4">
     <g id="line2d_4">
      <g>
       <use xlink:href="#m533e896736" x="284.670409" y="307.584" style="stroke: #000000; stroke-width: 0.8"/>
      </g>
     </g>
     <g id="text_4">
      <!-- 150 -->
      <g transform="translate(275.126659 322.182437)scale(0.1 -0.1)">
       <use xlink:href="#DejaVuSans-31"/>
       <use xlink:href="#DejaVuSans-35" x="63.623047"/>
       <use xlink:href="#DejaVuSans-30" x="127.246094"/>
      </g>
     </g>
    </g>
    <g id="xtick_5">
     <g id="line2d_5">
      <g>
       <use xlink:href="#m533e896736" x="358.596665" y="307.584" style="stroke: #000000; stroke-width: 0.8"/>
      </g>
     </g>
     <g id="text_5">
      <!-- 200 -->
      <g transform="translate(349.052915 322.182437)scale(0.1 -0.1)">
       <defs>
        <path id="DejaVuSans-32" d="M 1228 531 
L 3431 531 
L 3431 0 
L 469 0 
L 469 531 
Q 828 903 1448 1529 
Q 2069 2156 2228 2338 
Q 2531 2678 2651 2914 
Q 2772 3150 2772 3378 
Q 2772 3750 2511 3984 
Q 2250 4219 1831 4219 
Q 1534 4219 1204 4116 
Q 875 4013 500 3803 
L 500 4441 
Q 881 4594 1212 4672 
Q 1544 4750 1819 4750 
Q 2544 4750 2975 4387 
Q 3406 4025 3406 3419 
Q 3406 3131 3298 2873 
Q 3191 2616 2906 2266 
Q 2828 2175 2409 1742 
Q 1991 1309 1228 531 
z
" transform="scale(0.015625)"/>
       </defs>
       <use xlink:href="#DejaVuSans-32"/>
       <use xlink:href="#DejaVuSans-30" x="63.623047"/>
       <use xlink:href="#DejaVuSans-30" x="127.246094"/>
      </g>
     </g>
    </g>
    <g id="text_6">
     <!-- Score -->
     <g transform="translate(222.157656 335.860562)scale(0.1 -0.1)">
      <defs>
       <path id="DejaVuSans-53" d="M 3425 4513 
L 3425 3897 
Q 3066 4069 2747 4153 
Q 2428 4238 2131 4238 
Q 1616 4238 1336 4038 
Q 1056 3838 1056 3469 
Q 1056 3159 1242 3001 
Q 1428 2844 1947 2747 
L 2328 2669 
Q 3034 2534 3370 2195 
Q 3706 1856 3706 1288 
Q 3706 609 3251 259 
Q 2797 -91 1919 -91 
Q 1588 -91 1214 -16 
Q 841 59 441 206 
L 441 856 
Q 825 641 1194 531 
Q 1563 422 1919 422 
Q 2459 422 2753 634 
Q 3047 847 3047 1241 
Q 3047 1584 2836 1778 
Q 2625 1972 2144 2069 
L 1759 2144 
Q 1053 2284 737 2584 
Q 422 2884 422 3419 
Q 422 4038 858 4394 
Q 1294 4750 2059 4750 
Q 2388 4750 2728 4690 
Q 3069 4631 3425 4513 
z
" transform="scale(0.015625)"/>
       <path id="DejaVuSans-63" d="M 3122 3366 
L 3122 2828 
Q 2878 2963 2633 3030 
Q 2388 3097 2138 3097 
Q 1578 3097 1268 2742 
Q 959 2388 959 1747 
Q 959 1106 1268 751 
Q 1578 397 2138 397 
Q 2388 397 2633 464 
Q 2878 531 3122 666 
L 3122 134 
Q 2881 22 2623 -34 
Q 2366 -91 2075 -91 
Q 1284 -91 818 406 
Q 353 903 353 1747 
Q 353 2603 823 3093 
Q 1294 3584 2113 3584 
Q 2378 3584 2631 3529 
Q 2884 3475 3122 3366 
z
" transform="scale(0.015625)"/>
       <path id="DejaVuSans-6f" d="M 1959 3097 
Q 1497 3097 1228 2736 
Q 959 2375 959 1747 
Q 959 1119 1226 758 
Q 1494 397 1959 397 
Q 2419 397 2687 759 
Q 2956 1122 2956 1747 
Q 2956 2369 2687 2733 
Q 2419 3097 1959 3097 
z
M 1959 3584 
Q 2709 3584 3137 3096 
Q 3566 2609 3566 1747 
Q 3566 888 3137 398 
Q 2709 -91 1959 -91 
Q 1206 -91 779 398 
Q 353 888 353 1747 
Q 353 2609 779 3096 
Q 1206 3584 1959 3584 
z
" transform="scale(0.015625)"/>
       <path id="DejaVuSans-72" d="M 2631 2963 
Q 2534 3019 2420 3045 
Q 2306 3072 2169 3072 
Q 1681 3072 1420 2755 
Q 1159 2438 1159 1844 
L 1159 0 
L 581 0 
L 581 3500 
L 1159 3500 
L 1159 2956 
Q 1341 3275 1631 3429 
Q 1922 3584 2338 3584 
Q 2397 3584 2469 3576 
Q 2541 3569 2628 3553 
L 2631 2963 
z
" transform="scale(0.015625)"/>
       <path id="DejaVuSans-65" d="M 3597 1894 
L 3597 1613 
L 953 1613 
Q 991 1019 1311 708 
Q 1631 397 2203 397 
Q 2534 397 2845 478 
Q 3156 559 3463 722 
L 3463 178 
Q 3153 47 2828 -22 
Q 2503 -91 2169 -91 
Q 1331 -91 842 396 
Q 353 884 353 1716 
Q 353 2575 817 3079 
Q 1281 3584 2069 3584 
Q 2775 3584 3186 3129 
Q 3597 2675 3597 1894 
z
M 3022 2063 
Q 3016 2534 2758 2815 
Q 2500 3097 2075 3097 
Q 1594 3097 1305 2825 
Q 1016 2553 972 2059 
L 3022 2063 
z
" transform="scale(0.015625)"/>
      </defs>
      <use xlink:href="#DejaVuSans-53"/>
      <use xlink:href="#DejaVuSans-63" x="63.476562"/>
      <use xlink:href="#DejaVuSans-6f" x="118.457031"/>
      <use xlink:href="#DejaVuSans-72" x="179.638672"/>
      <use xlink:href="#DejaVuSans-65" x="218.501953"/>
     </g>
    </g>
   </g>
   <g id="matplotlib.axis_2">
    <g id="ytick_1">
     <g id="line2d_6">
      <defs>
       <path id="m3289a3e45c" d="M 0 0 
L -3.5 0 
" style="stroke: #000000; stroke-width: 0.8"/>
      </defs>
      <g>
       <use xlink:href="#m3289a3e45c" x="57.6" y="307.584" style="stroke: #000000; stroke-width: 0.8"/>
      </g>
     </g>
     <g id="text_7">
      <!-- 0 -->
      <g transform="translate(44.2375 311.383219)scale(0.1 -0.1)">
       <use xlink:href="#DejaVuSans-30"/>
      </g>
     </g>
    </g>
    <g id="ytick_2">
     <g id="line2d_7">
      <g>
       <use xlink:href="#m3289a3e45c" x="57.6" y="270.531368" style="stroke: #000000; stroke-width: 0.8"/>
      </g>
     </g>
     <g id="text_8">
      <!-- 50 -->
      <g transform="translate(37.875 274.330587)scale(0.1 -0.1)">
       <use xlink:href="#DejaVuSans-35"/>
       <use xlink:href="#DejaVuSans-30" x="63.623047"/>
      </g>
     </g>
    </g>
    <g id="ytick_3">
     <g id="line2d_8">
      <g>
       <use xlink:href="#m3289a3e45c" x="57.6" y="233.478737" style="stroke: #000000; stroke-width: 0.8"/>
      </g>
     </g>
     <g id="text_9">
      <!-- 100 -->
      <g transform="translate(31.5125 237.277956)scale(0.1 -0.1)">
       <use xlink:href="#DejaVuSans-31"/>
       <use xlink:href="#DejaVuSans-30" x="63.623047"/>
       <use xlink:href="#DejaVuSans-30" x="127.246094"/>
      </g>
     </g>
    </g>
    <g id="ytick_4">
     <g id="line2d_9">
      <g>
       <use xlink:href="#m3289a3e45c" x="57.6" y="196.426105" style="stroke: #000000; stroke-width: 0.8"/>
      </g>
     </g>
     <g id="text_10">
      <!-- 150 -->
      <g transform="translate(31.5125 200.225324)scale(0.1 -0.1)">
       <use xlink:href="#DejaVuSans-31"/>
       <use xlink:href="#DejaVuSans-35" x="63.623047"/>
       <use xlink:href="#DejaVuSans-30" x="127.246094"/>
      </g>
     </g>
    </g>
    <g id="ytick_5">
     <g id="line2d_10">
      <g>
       <use xlink:href="#m3289a3e45c" x="57.6" y="159.373474" style="stroke: #000000; stroke-width: 0.8"/>
      </g>
     </g>
     <g id="text_11">
      <!-- 200 -->
      <g transform="translate(31.5125 163.172692)scale(0.1 -0.1)">
       <use xlink:href="#DejaVuSans-32"/>
       <use xlink:href="#DejaVuSans-30" x="63.623047"/>
       <use xlink:href="#DejaVuSans-30" x="127.246094"/>
      </g>
     </g>
    </g>
    <g id="ytick_6">
     <g id="line2d_11">
      <g>
       <use xlink:href="#m3289a3e45c" x="57.6" y="122.320842" style="stroke: #000000; stroke-width: 0.8"/>
      </g>
     </g>
     <g id="text_12">
      <!-- 250 -->
      <g transform="translate(31.5125 126.120061)scale(0.1 -0.1)">
       <use xlink:href="#DejaVuSans-32"/>
       <use xlink:href="#DejaVuSans-35" x="63.623047"/>
       <use xlink:href="#DejaVuSans-30" x="127.246094"/>
      </g>
     </g>
    </g>
    <g id="ytick_7">
     <g id="line2d_12">
      <g>
       <use xlink:href="#m3289a3e45c" x="57.6" y="85.268211" style="stroke: #000000; stroke-width: 0.8"/>
      </g>
     </g>
     <g id="text_13">
      <!-- 300 -->
      <g transform="translate(31.5125 89.067429)scale(0.1 -0.1)">
       <defs>
        <path id="DejaVuSans-33" d="M 2597 2516 
Q 3050 2419 3304 2112 
Q 3559 1806 3559 1356 
Q 3559 666 3084 287 
Q 2609 -91 1734 -91 
Q 1441 -91 1130 -33 
Q 819 25 488 141 
L 488 750 
Q 750 597 1062 519 
Q 1375 441 1716 441 
Q 2309 441 2620 675 
Q 2931 909 2931 1356 
Q 2931 1769 2642 2001 
Q 2353 2234 1838 2234 
L 1294 2234 
L 1294 2753 
L 1863 2753 
Q 2328 2753 2575 2939 
Q 2822 3125 2822 3475 
Q 2822 3834 2567 4026 
Q 2313 4219 1838 4219 
Q 1578 4219 1281 4162 
Q 984 4106 628 3988 
L 628 4550 
Q 988 4650 1302 4700 
Q 1616 4750 1894 4750 
Q 2613 4750 3031 4423 
Q 3450 4097 3450 3541 
Q 3450 3153 3228 2886 
Q 3006 2619 2597 2516 
z
" transform="scale(0.015625)"/>
       </defs>
       <use xlink:href="#DejaVuSans-33"/>
       <use xlink:href="#DejaVuSans-30" x="63.623047"/>
       <use xlink:href="#DejaVuSans-30" x="127.246094"/>
      </g>
     </g>
    </g>
    <g id="ytick_8">
     <g id="line2d_13">
      <g>
       <use xlink:href="#m3289a3e45c" x="57.6" y="48.215579" style="stroke: #000000; stroke-width: 0.8"/>
      </g>
     </g>
     <g id="text_14">
      <!-- 350 -->
      <g transform="translate(31.5125 52.014798)scale(0.1 -0.1)">
       <use xlink:href="#DejaVuSans-33"/>
       <use xlink:href="#DejaVuSans-35" x="63.623047"/>
       <use xlink:href="#DejaVuSans-30" x="127.246094"/>
      </g>
     </g>
    </g>
    <g id="text_15">
     <!-- Number of crosslinks -->
     <g transform="translate(25.432812 227.019406)rotate(-90)scale(0.1 -0.1)">
      <defs>
       <path id="DejaVuSans-4e" d="M 628 4666 
L 1478 4666 
L 3547 763 
L 3547 4666 
L 4159 4666 
L 4159 0 
L 3309 0 
L 1241 3903 
L 1241 0 
L 628 0 
L 628 4666 
z
" transform="scale(0.015625)"/>
       <path id="DejaVuSans-75" d="M 544 1381 
L 544 3500 
L 1119 3500 
L 1119 1403 
Q 1119 906 1312 657 
Q 1506 409 1894 409 
Q 2359 409 2629 706 
Q 2900 1003 2900 1516 
L 2900 3500 
L 3475 3500 
L 3475 0 
L 2900 0 
L 2900 538 
Q 2691 219 2414 64 
Q 2138 -91 1772 -91 
Q 1169 -91 856 284 
Q 544 659 544 1381 
z
M 1991 3584 
L 1991 3584 
z
" transform="scale(0.015625)"/>
       <path id="DejaVuSans-6d" d="M 3328 2828 
Q 3544 3216 3844 3400 
Q 4144 3584 4550 3584 
Q 5097 3584 5394 3201 
Q 5691 2819 5691 2113 
L 5691 0 
L 5113 0 
L 5113 2094 
Q 5113 2597 4934 2840 
Q 4756 3084 4391 3084 
Q 3944 3084 3684 2787 
Q 3425 2491 3425 1978 
L 3425 0 
L 2847 0 
L 2847 2094 
Q 2847 2600 2669 2842 
Q 2491 3084 2119 3084 
Q 1678 3084 1418 2786 
Q 1159 2488 1159 1978 
L 1159 0 
L 581 0 
L 581 3500 
L 1159 3500 
L 1159 2956 
Q 1356 3278 1631 3431 
Q 1906 3584 2284 3584 
Q 2666 3584 2933 3390 
Q 3200 3197 3328 2828 
z
" transform="scale(0.015625)"/>
       <path id="DejaVuSans-62" d="M 3116 1747 
Q 3116 2381 2855 2742 
Q 2594 3103 2138 3103 
Q 1681 3103 1420 2742 
Q 1159 2381 1159 1747 
Q 1159 1113 1420 752 
Q 1681 391 2138 391 
Q 2594 391 2855 752 
Q 3116 1113 3116 1747 
z
M 1159 2969 
Q 1341 3281 1617 3432 
Q 1894 3584 2278 3584 
Q 2916 3584 3314 3078 
Q 3713 2572 3713 1747 
Q 3713 922 3314 415 
Q 2916 -91 2278 -91 
Q 1894 -91 1617 61 
Q 1341 213 1159 525 
L 1159 0 
L 581 0 
L 581 4863 
L 1159 4863 
L 1159 2969 
z
" transform="scale(0.015625)"/>
       <path id="DejaVuSans-20" transform="scale(0.015625)"/>
       <path id="DejaVuSans-66" d="M 2375 4863 
L 2375 4384 
L 1825 4384 
Q 1516 4384 1395 4259 
Q 1275 4134 1275 3809 
L 1275 3500 
L 2222 3500 
L 2222 3053 
L 1275 3053 
L 1275 0 
L 697 0 
L 697 3053 
L 147 3053 
L 147 3500 
L 697 3500 
L 697 3744 
Q 697 4328 969 4595 
Q 1241 4863 1831 4863 
L 2375 4863 
z
" transform="scale(0.015625)"/>
       <path id="DejaVuSans-73" d="M 2834 3397 
L 2834 2853 
Q 2591 2978 2328 3040 
Q 2066 3103 1784 3103 
Q 1356 3103 1142 2972 
Q 928 2841 928 2578 
Q 928 2378 1081 2264 
Q 1234 2150 1697 2047 
L 1894 2003 
Q 2506 1872 2764 1633 
Q 3022 1394 3022 966 
Q 3022 478 2636 193 
Q 2250 -91 1575 -91 
Q 1294 -91 989 -36 
Q 684 19 347 128 
L 347 722 
Q 666 556 975 473 
Q 1284 391 1588 391 
Q 1994 391 2212 530 
Q 2431 669 2431 922 
Q 2431 1156 2273 1281 
Q 2116 1406 1581 1522 
L 1381 1569 
Q 847 1681 609 1914 
Q 372 2147 372 2553 
Q 372 3047 722 3315 
Q 1072 3584 1716 3584 
Q 2034 3584 2315 3537 
Q 2597 3491 2834 3397 
z
" transform="scale(0.015625)"/>
       <path id="DejaVuSans-6c" d="M 603 4863 
L 1178 4863 
L 1178 0 
L 603 0 
L 603 4863 
z
" transform="scale(0.015625)"/>
       <path id="DejaVuSans-69" d="M 603 3500 
L 1178 3500 
L 1178 0 
L 603 0 
L 603 3500 
z
M 603 4863 
L 1178 4863 
L 1178 4134 
L 603 4134 
L 603 4863 
z
" transform="scale(0.015625)"/>
       <path id="DejaVuSans-6e" d="M 3513 2113 
L 3513 0 
L 2938 0 
L 2938 2094 
Q 2938 2591 2744 2837 
Q 2550 3084 2163 3084 
Q 1697 3084 1428 2787 
Q 1159 2491 1159 1978 
L 1159 0 
L 581 0 
L 581 3500 
L 1159 3500 
L 1159 2956 
Q 1366 3272 1645 3428 
Q 1925 3584 2291 3584 
Q 2894 3584 3203 3211 
Q 3513 2838 3513 2113 
z
" transform="scale(0.015625)"/>
       <path id="DejaVuSans-6b" d="M 581 4863 
L 1159 4863 
L 1159 1991 
L 2875 3500 
L 3609 3500 
L 1753 1863 
L 3688 0 
L 2938 0 
L 1159 1709 
L 1159 0 
L 581 0 
L 581 4863 
z
" transform="scale(0.015625)"/>
      </defs>
      <use xlink:href="#DejaVuSans-4e"/>
      <use xlink:href="#DejaVuSans-75" x="74.804688"/>
      <use xlink:href="#DejaVuSans-6d" x="138.183594"/>
      <use xlink:href="#DejaVuSans-62" x="235.595703"/>
      <use xlink:href="#DejaVuSans-65" x="299.072266"/>
      <use xlink:href="#DejaVuSans-72" x="360.595703"/>
      <use xlink:href="#DejaVuSans-20" x="401.708984"/>
      <use xlink:href="#DejaVuSans-6f" x="433.496094"/>
      <use xlink:href="#DejaVuSans-66" x="494.677734"/>
      <use xlink:href="#DejaVuSans-20" x="529.882812"/>
      <use xlink:href="#DejaVuSans-63" x="561.669922"/>
      <use xlink:href="#DejaVuSans-72" x="616.650391"/>
      <use xlink:href="#DejaVuSans-6f" x="655.513672"/>
      <use xlink:href="#DejaVuSans-73" x="716.695312"/>
      <use xlink:href="#DejaVuSans-73" x="768.794922"/>
      <use xlink:href="#DejaVuSans-6c" x="820.894531"/>
      <use xlink:href="#DejaVuSans-69" x="848.677734"/>
      <use xlink:href="#DejaVuSans-6e" x="876.460938"/>
      <use xlink:href="#DejaVuSans-6b" x="939.839844"/>
      <use xlink:href="#DejaVuSans-73" x="997.75"/>
     </g>
    </g>
   </g>
   <g id="patch_3">
    <path d="M 57.6 307.584 
L 57.6 41.472 
" style="fill: none; stroke: #000000; stroke-width: 0.8; stroke-linejoin: miter; stroke-linecap: square"/>
   </g>
   <g id="patch_4">
    <path d="M 414.72 307.584 
L 414.72 41.472 
" style="fill: none; stroke: #000000; stroke-width: 0.8; stroke-linejoin: miter; stroke-linecap: square"/>
   </g>
   <g id="patch_5">
    <path d="M 57.6 307.584 
L 414.72 307.584 
" style="fill: none; stroke: #000000; stroke-width: 0.8; stroke-linejoin: miter; stroke-linecap: square"/>
   </g>
   <g id="patch_6">
    <path d="M 57.6 41.472 
L 414.72 41.472 
" style="fill: none; stroke: #000000; stroke-width: 0.8; stroke-linejoin: miter; stroke-linecap: square"/>
   </g>
   <g id="legend_1">
    <g id="patch_7">
     <path d="M 278.598125 93.506375 
L 407.72 93.506375 
Q 409.72 93.506375 409.72 91.506375 
L 409.72 48.472 
Q 409.72 46.472 407.72 46.472 
L 278.598125 46.472 
Q 276.598125 46.472 276.598125 48.472 
L 276.598125 91.506375 
Q 276.598125 93.506375 278.598125 93.506375 
z
" style="fill: #ffffff; opacity: 0.8; stroke: #cccccc; stroke-linejoin: miter"/>
    </g>
    <g id="patch_8">
     <path d="M 280.598125 58.070438 
L 300.598125 58.070438 
L 300.598125 51.070438 
L 280.598125 51.070438 
z
" style="fill: #008000"/>
    </g>
    <g id="text_16">
     <!-- correct -->
     <g transform="translate(308.598125 58.070438)scale(0.1 -0.1)">
      <defs>
       <path id="DejaVuSans-74" d="M 1172 4494 
L 1172 3500 
L 2356 3500 
L 2356 3053 
L 1172 3053 
L 1172 1153 
Q 1172 725 1289 603 
Q 1406 481 1766 481 
L 2356 481 
L 2356 0 
L 1766 0 
Q 1100 0 847 248 
Q 594 497 594 1153 
L 594 3053 
L 172 3053 
L 172 3500 
L 594 3500 
L 594 4494 
L 1172 4494 
z
" transform="scale(0.015625)"/>
      </defs>
      <use xlink:href="#DejaVuSans-63"/>
      <use xlink:href="#DejaVuSans-6f" x="54.980469"/>
      <use xlink:href="#DejaVuSans-72" x="116.162109"/>
      <use xlink:href="#DejaVuSans-72" x="155.525391"/>
      <use xlink:href="#DejaVuSans-65" x="194.388672"/>
      <use xlink:href="#DejaVuSans-63" x="255.912109"/>
      <use xlink:href="#DejaVuSans-74" x="310.892578"/>
     </g>
    </g>
    <g id="patch_9">
     <path d="M 280.598125 72.748563 
L 300.598125 72.748563 
L 300.598125 65.748563 
L 280.598125 65.748563 
z
" style="fill: #7cfc00"/>
    </g>
    <g id="text_17">
     <!-- correct homeotypic -->
     <g transform="translate(308.598125 72.748563)scale(0.1 -0.1)">
      <defs>
       <path id="DejaVuSans-68" d="M 3513 2113 
L 3513 0 
L 2938 0 
L 2938 2094 
Q 2938 2591 2744 2837 
Q 2550 3084 2163 3084 
Q 1697 3084 1428 2787 
Q 1159 2491 1159 1978 
L 1159 0 
L 581 0 
L 581 4863 
L 1159 4863 
L 1159 2956 
Q 1366 3272 1645 3428 
Q 1925 3584 2291 3584 
Q 2894 3584 3203 3211 
Q 3513 2838 3513 2113 
z
" transform="scale(0.015625)"/>
       <path id="DejaVuSans-79" d="M 2059 -325 
Q 1816 -950 1584 -1140 
Q 1353 -1331 966 -1331 
L 506 -1331 
L 506 -850 
L 844 -850 
Q 1081 -850 1212 -737 
Q 1344 -625 1503 -206 
L 1606 56 
L 191 3500 
L 800 3500 
L 1894 763 
L 2988 3500 
L 3597 3500 
L 2059 -325 
z
" transform="scale(0.015625)"/>
       <path id="DejaVuSans-70" d="M 1159 525 
L 1159 -1331 
L 581 -1331 
L 581 3500 
L 1159 3500 
L 1159 2969 
Q 1341 3281 1617 3432 
Q 1894 3584 2278 3584 
Q 2916 3584 3314 3078 
Q 3713 2572 3713 1747 
Q 3713 922 3314 415 
Q 2916 -91 2278 -91 
Q 1894 -91 1617 61 
Q 1341 213 1159 525 
z
M 3116 1747 
Q 3116 2381 2855 2742 
Q 2594 3103 2138 3103 
Q 1681 3103 1420 2742 
Q 1159 2381 1159 1747 
Q 1159 1113 1420 752 
Q 1681 391 2138 391 
Q 2594 391 2855 752 
Q 3116 1113 3116 1747 
z
" transform="scale(0.015625)"/>
      </defs>
      <use xlink:href="#DejaVuSans-63"/>
      <use xlink:href="#DejaVuSans-6f" x="54.980469"/>
      <use xlink:href="#DejaVuSans-72" x="116.162109"/>
      <use xlink:href="#DejaVuSans-72" x="155.525391"/>
      <use xlink:href="#DejaVuSans-65" x="194.388672"/>
      <use xlink:href="#DejaVuSans-63" x="255.912109"/>
      <use xlink:href="#DejaVuSans-74" x="310.892578"/>
      <use xlink:href="#DejaVuSans-20" x="350.101562"/>
      <use xlink:href="#DejaVuSans-68" x="381.888672"/>
      <use xlink:href="#DejaVuSans-6f" x="445.267578"/>
      <use xlink:href="#DejaVuSans-6d" x="506.449219"/>
      <use xlink:href="#DejaVuSans-65" x="603.861328"/>
      <use xlink:href="#DejaVuSans-6f" x="665.384766"/>
      <use xlink:href="#DejaVuSans-74" x="726.566406"/>
      <use xlink:href="#DejaVuSans-79" x="765.775391"/>
      <use xlink:href="#DejaVuSans-70" x="824.955078"/>
      <use xlink:href="#DejaVuSans-69" x="888.431641"/>
      <use xlink:href="#DejaVuSans-63" x="916.214844"/>
     </g>
    </g>
    <g id="patch_10">
     <path d="M 280.598125 87.426688 
L 300.598125 87.426688 
L 300.598125 80.426688 
L 280.598125 80.426688 
z
" style="fill: #ff0000"/>
    </g>
    <g id="text_18">
     <!-- false -->
     <g transform="translate(308.598125 87.426688)scale(0.1 -0.1)">
      <defs>
       <path id="DejaVuSans-61" d="M 2194 1759 
Q 1497 1759 1228 1600 
Q 959 1441 959 1056 
Q 959 750 1161 570 
Q 1363 391 1709 391 
Q 2188 391 2477 730 
Q 2766 1069 2766 1631 
L 2766 1759 
L 2194 1759 
z
M 3341 1997 
L 3341 0 
L 2766 0 
L 2766 531 
Q 2569 213 2275 61 
Q 1981 -91 1556 -91 
Q 1019 -91 701 211 
Q 384 513 384 1019 
Q 384 1609 779 1909 
Q 1175 2209 1959 2209 
L 2766 2209 
L 2766 2266 
Q 2766 2663 2505 2880 
Q 2244 3097 1772 3097 
Q 1472 3097 1187 3025 
Q 903 2953 641 2809 
L 641 3341 
Q 956 3463 1253 3523 
Q 1550 3584 1831 3584 
Q 2591 3584 2966 3190 
Q 3341 2797 3341 1997 
z
" transform="scale(0.015625)"/>
      </defs>
      <use xlink:href="#DejaVuSans-66"/>
      <use xlink:href="#DejaVuSans-61" x="35.205078"/>
      <use xlink:href="#DejaVuSans-6c" x="96.484375"/>
      <use xlink:href="#DejaVuSans-73" x="124.267578"/>
      <use xlink:href="#DejaVuSans-65" x="176.367188"/>
     </g>
    </g>
   </g>
  </g>
 </g>
 <defs>
  <clipPath id="p757b08c374">
   <rect x="57.6" y="41.472" width="357.12" height="266.112"/>
  </clipPath>
 </defs>
</svg>
