<?xml version="1.0" encoding="utf-8" standalone="no"?>
<!DOCTYPE svg PUBLIC "-//W3C//DTD SVG 1.1//EN"
  "http://www.w3.org/Graphics/SVG/1.1/DTD/svg11.dtd">
<svg xmlns:xlink="http://www.w3.org/1999/xlink" width="460.8pt" height="345.6pt" viewBox="0 0 460.8 345.6" xmlns="http://www.w3.org/2000/svg" version="1.1">
 <metadata>
  <rdf:RDF xmlns:dc="http://purl.org/dc/elements/1.1/" xmlns:cc="http://creativecommons.org/ns#" xmlns:rdf="http://www.w3.org/1999/02/22-rdf-syntax-ns#">
   <cc:Work>
    <dc:type rdf:resource="http://purl.org/dc/dcmitype/StillImage"/>
    <dc:date>2022-07-28T14:37:44.157091</dc:date>
    <dc:format>image/svg+xml</dc:format>
    <dc:creator>
     <cc:Agent>
      <dc:title>Matplotlib v3.5.1, https://matplotlib.org/</dc:title>
     </cc:Agent>
    </dc:creator>
   </cc:Work>
  </rdf:RDF>
 </metadata>
 <defs>
  <style type="text/css">*{stroke-linejoin: round; stroke-linecap: butt}</style>
 </defs>
 <g id="figure_1">
  <g id="patch_1">
   <path d="M 0 345.6 
L 460.8 345.6 
L 460.8 0 
L 0 0 
z
" style="fill: #ffffff"/>
  </g>
  <g id="axes_1">
   <g id="patch_2">
    <path d="M 57.6 307.584 
L 414.72 307.584 
L 414.72 41.472 
L 57.6 41.472 
z
" style="fill: #ffffff"/>
   </g>
   <g id="PolyCollection_1">
    <path d="M 73.832727 136.704 
L 73.832727 307.584 
L 73.949211 307.584 
L 74.036574 307.584 
L 74.284101 307.584 
L 74.415146 307.584 
L 74.473387 307.584 
L 74.677234 307.584 
L 74.837399 307.584 
L 74.983004 307.584 
L 75.245092 307.584 
L 75.405257 307.584 
L 75.419817 307.584 
L 75.50718 307.584 
L 75.536301 307.584 
L 75.725587 307.584 
L 75.82751 307.584 
L 76.060477 307.584 
L 76.13328 307.584 
L 76.162401 307.584 
L 76.206082 307.584 
L 76.322566 307.584 
L 76.511852 307.584 
L 76.584654 307.584 
L 76.77394 307.584 
L 76.846742 307.584 
L 76.875863 307.584 
L 77.152512 307.584 
L 77.385479 307.584 
L 77.574765 307.584 
L 77.705809 307.584 
L 77.73493 307.584 
L 77.807732 307.584 
L 78.011579 307.584 
L 78.05526 307.584 
L 78.229986 307.584 
L 78.477514 307.584 
L 78.506634 307.584 
L 78.521195 307.584 
L 78.739602 307.584 
L 78.768723 307.584 
L 79.365702 307.584 
L 79.482185 307.584 
L 79.540427 307.584 
L 79.554988 307.584 
L 79.598669 307.584 
L 79.860757 307.584 
L 80.312131 307.584 
L 80.414055 307.584 
L 80.705264 307.584 
L 81.258561 307.584 
L 81.375045 307.584 
L 81.404166 307.584 
L 81.520649 307.584 
L 81.753617 307.584 
L 82.103068 307.584 
L 82.190431 307.584 
L 82.321475 307.584 
L 82.539882 307.584 
L 82.758288 307.584 
L 82.889333 307.584 
L 83.45719 307.584 
L 83.719279 307.584 
L 83.76296 307.584 
L 83.821202 307.584 
L 83.894004 307.584 
L 84.38906 307.584 
L 84.72395 307.584 
L 85.320929 307.584 
L 85.35005 307.584 
L 85.408292 307.584 
L 85.714061 307.584 
L 85.801424 307.584 
L 86.238238 307.584 
L 86.995382 307.584 
L 87.111866 307.584 
L 87.199228 307.584 
L 87.504998 307.584 
L 87.89813 307.584 
L 88.364065 307.584 
L 88.393186 307.584 
L 88.553351 307.584 
L 89.194011 307.584 
L 89.354176 307.584 
L 89.79099 307.584 
L 90.155001 307.584 
L 90.213243 307.584 
L 91.611047 307.584 
L 92.091542 307.584 
L 92.6594 307.584 
L 92.877807 307.584 
L 93.387423 307.584 
L 93.867918 307.584 
L 95.090997 307.584 
L 95.163799 307.584 
L 96.051987 307.584 
L 96.547043 307.584 
L 96.663526 307.584 
L 97.595396 307.584 
L 99.00776 307.584 
L 99.371772 307.584 
L 99.881388 307.584 
L 100.158036 307.584 
L 100.449246 307.584 
L 101.23551 307.584 
L 101.657764 307.584 
L 101.701445 307.584 
L 102.575073 307.584 
L 103.157491 307.584 
L 103.43414 307.584 
L 103.623426 307.584 
L 104.39513 307.584 
L 105.967659 307.584 
L 106.579199 307.584 
L 107.773156 307.584 
L 107.787717 307.584 
L 108.064365 307.584 
L 109.840741 307.584 
L 111.049259 307.584 
L 111.646238 307.584 
L 111.777282 307.584 
L 111.820964 307.584 
L 112.607229 307.584 
L 112.752833 307.584 
L 113.830307 307.584 
L 114.529209 307.584 
L 114.762176 307.584 
L 115.242672 307.584 
L 117.048168 307.584 
L 117.455861 307.584 
L 117.616026 307.584 
L 118.591577 307.584 
L 118.67894 307.584 
L 118.853665 307.584 
L 121.372625 307.584 
L 121.678394 307.584 
L 122.81411 307.584 
L 124.270156 307.584 
L 126.861918 307.584 
L 127.619061 307.584 
L 128.52181 307.584 
L 130.196263 307.584 
L 130.589395 307.584 
L 131.914397 307.584 
L 132.234727 307.584 
L 133.064673 307.584 
L 133.224838 307.584 
L 133.253959 307.584 
L 134.826488 307.584 
L 135.802039 307.584 
L 137.068799 307.584 
L 137.767701 307.584 
L 138.99078 307.584 
L 139.646 307.584 
L 139.95177 307.584 
L 140.854518 307.584 
L 141.247651 307.584 
L 141.684464 307.584 
L 143.402598 307.584 
L 143.431719 307.584 
L 144.043259 307.584 
L 144.567435 307.584 
L 145.921558 307.584 
L 146.198207 307.584 
L 147.974582 307.584 
L 148.83365 307.584 
L 149.896563 307.584 
L 150.216893 307.584 
L 151.090521 307.584 
L 151.71662 307.584 
L 152.677611 307.584 
L 153.070743 307.584 
L 153.405634 307.584 
L 154.322942 307.584 
L 154.410305 307.584 
L 154.832558 307.584 
L 155.575142 307.584 
L 158.399871 307.584 
L 159.31718 307.584 
L 159.491905 307.584 
L 159.797675 307.584 
L 164.224054 307.584 
L 165.257847 307.584 
L 165.534496 307.584 
L 165.636419 307.584 
L 166.029551 307.584 
L 166.655651 307.584 
L 169.393017 307.584 
L 169.917194 307.584 
L 170.004556 307.584 
L 171.810053 307.584 
L 171.897416 307.584 
L 173.164176 307.584 
L 173.324341 307.584 
L 173.892199 307.584 
L 177.357588 307.584 
L 178.566106 307.584 
L 179.512536 307.584 
L 179.847426 307.584 
L 180.837538 307.584 
L 181.157868 307.584 
L 181.186989 307.584 
L 181.478198 307.584 
L 184.827103 307.584 
L 185.03095 307.584 
L 185.933698 307.584 
L 186.428754 307.584 
L 186.705402 307.584 
L 186.909249 307.584 
L 187.069414 307.584 
L 187.316942 307.584 
L 188.481778 307.584 
L 191.874365 307.584 
L 192.136453 307.584 
L 194.131236 307.584 
L 195.077666 307.584 
L 195.776568 307.584 
L 197.494702 307.584 
L 197.698549 307.584 
L 198.892506 307.584 
L 200.29031 307.584 
L 202.066686 307.584 
L 202.168609 307.584 
L 202.357895 307.584 
L 202.590863 307.584 
L 203.624655 307.584 
L 204.279876 307.584 
L 204.876855 307.584 
L 205.240866 307.584 
L 205.444713 307.584 
L 205.837845 307.584 
L 206.886198 307.584 
L 207.395814 307.584 
L 207.832628 307.584 
L 207.847188 307.584 
L 209.332355 307.584 
L 209.681806 307.584 
L 211.429061 307.584 
L 212.477414 307.584 
L 214.923571 307.584 
L 216.102968 307.584 
L 216.932914 307.584 
L 218.3744 307.584 
L 219.116983 307.584 
L 219.728522 307.584 
L 220.354622 307.584 
L 221.490338 307.584 
L 222.946384 307.584 
L 223.587044 307.584 
L 224.009297 307.584 
L 224.213144 307.584 
L 224.853804 307.584 
L 226.673861 307.584 
L 228.785128 307.584 
L 230.561504 307.584 
L 231.464252 307.584 
L 231.522494 307.584 
L 231.580736 307.584 
L 231.886505 307.584 
L 233.93953 307.584 
L 233.968651 307.584 
L 234.842278 307.584 
L 234.958762 307.584 
L 235.453818 307.584 
L 237.026347 307.584 
L 240.418934 307.584 
L 241.86042 307.584 
L 244.597786 307.584 
L 247.058503 307.584 
L 247.58268 307.584 
L 249.038726 307.584 
L 251.805213 307.584 
L 254.367853 307.584 
L 254.760986 307.584 
L 255.314283 307.584 
L 255.663734 307.584 
L 258.503024 307.584 
L 259.420333 307.584 
L 259.784344 307.584 
L 262.303303 307.584 
L 265.084351 307.584 
L 265.739572 307.584 
L 265.826934 307.584 
L 267.763475 307.584 
L 270.165951 307.584 
L 270.340677 307.584 
L 271.840404 307.584 
L 273.267329 307.584 
L 275.145628 307.584 
L 276.528871 307.584 
L 279.120633 307.584 
L 280.92613 307.584 
L 283.663496 307.584 
L 283.896464 307.584 
L 284.042068 307.584 
L 290.230263 307.584 
L 291.598946 307.584 
L 293.550048 307.584 
L 298.223955 307.584 
L 306.101163 307.584 
L 311.517653 307.584 
L 312.98826 307.584 
L 313.512436 307.584 
L 316.773979 307.584 
L 319.234697 307.584 
L 323.894043 307.584 
L 328.53883 307.584 
L 328.611632 307.584 
L 361.168817 307.584 
L 388.5716 307.584 
L 398.487273 307.584 
L 398.487273 306.944 
L 398.487273 306.944 
L 388.5716 306.304 
L 361.168817 305.664 
L 328.611632 305.024 
L 328.53883 304.384 
L 323.894043 303.744 
L 319.234697 303.104 
L 316.773979 302.464 
L 313.512436 301.824 
L 312.98826 301.184 
L 311.517653 300.544 
L 306.101163 299.904 
L 298.223955 299.264 
L 293.550048 298.624 
L 291.598946 297.984 
L 290.230263 297.344 
L 284.042068 296.704 
L 283.896464 296.064 
L 283.663496 295.424 
L 280.92613 294.784 
L 279.120633 294.144 
L 276.528871 292.864 
L 275.145628 292.224 
L 273.267329 291.584 
L 271.840404 290.944 
L 270.340677 290.304 
L 270.165951 289.664 
L 267.763475 288.384 
L 265.826934 287.104 
L 265.739572 286.464 
L 265.084351 285.824 
L 262.303303 285.184 
L 259.784344 284.544 
L 259.420333 283.904 
L 258.503024 283.264 
L 255.663734 282.624 
L 255.314283 281.984 
L 254.760986 281.344 
L 254.367853 280.704 
L 251.805213 280.064 
L 249.038726 279.424 
L 247.58268 278.144 
L 247.058503 277.504 
L 244.597786 276.864 
L 241.86042 276.224 
L 240.418934 275.584 
L 237.026347 274.944 
L 235.453818 274.304 
L 234.958762 273.024 
L 234.842278 272.384 
L 233.968651 271.744 
L 233.93953 270.464 
L 231.886505 269.824 
L 231.580736 269.184 
L 231.522494 268.544 
L 231.464252 267.264 
L 230.561504 266.624 
L 228.785128 265.984 
L 226.673861 265.344 
L 224.853804 264.704 
L 224.213144 264.064 
L 224.009297 263.424 
L 223.587044 262.784 
L 222.946384 262.144 
L 221.490338 261.504 
L 220.354622 259.584 
L 219.728522 258.944 
L 219.116983 258.304 
L 218.3744 257.024 
L 216.932914 256.384 
L 216.102968 254.464 
L 214.923571 253.824 
L 212.477414 252.544 
L 211.429061 251.904 
L 209.681806 250.624 
L 209.332355 249.984 
L 207.847188 249.344 
L 207.832628 247.424 
L 207.395814 246.784 
L 206.886198 246.144 
L 205.837845 245.504 
L 205.444713 244.864 
L 205.240866 244.224 
L 204.876855 243.584 
L 204.279876 242.304 
L 203.624655 241.024 
L 202.590863 240.384 
L 202.357895 239.744 
L 202.168609 239.104 
L 202.066686 238.464 
L 200.29031 237.824 
L 198.892506 237.184 
L 197.698549 236.544 
L 197.494702 235.904 
L 195.776568 235.264 
L 195.077666 234.624 
L 194.131236 233.984 
L 192.136453 233.344 
L 191.874365 232.704 
L 188.481778 232.064 
L 187.316942 231.424 
L 187.069414 230.784 
L 186.909249 229.504 
L 186.705402 228.864 
L 186.428754 228.224 
L 185.933698 227.584 
L 185.03095 226.944 
L 184.827103 226.304 
L 181.478198 225.664 
L 181.186989 225.024 
L 181.157868 222.464 
L 180.837538 221.824 
L 179.847426 221.184 
L 179.512536 220.544 
L 178.566106 219.904 
L 177.357588 219.264 
L 173.892199 217.984 
L 173.324341 217.344 
L 173.164176 216.704 
L 171.897416 216.064 
L 171.810053 215.424 
L 170.004556 214.784 
L 169.917194 214.144 
L 169.393017 213.504 
L 166.655651 211.584 
L 166.029551 210.944 
L 165.636419 209.664 
L 165.534496 209.024 
L 165.257847 208.384 
L 164.224054 207.744 
L 159.797675 207.104 
L 159.491905 206.464 
L 159.31718 205.824 
L 158.399871 205.184 
L 155.575142 204.544 
L 154.832558 204.544 
L 154.410305 203.904 
L 154.322942 203.264 
L 153.405634 201.984 
L 153.070743 201.344 
L 152.677611 200.704 
L 151.71662 200.064 
L 151.090521 199.424 
L 150.216893 198.144 
L 149.896563 197.504 
L 148.83365 196.864 
L 147.974582 196.864 
L 146.198207 196.224 
L 145.921558 195.584 
L 144.567435 195.584 
L 144.043259 194.944 
L 143.431719 193.664 
L 143.402598 193.024 
L 141.684464 192.384 
L 141.247651 191.104 
L 140.854518 190.464 
L 139.95177 189.824 
L 139.646 189.184 
L 138.99078 188.544 
L 137.767701 186.624 
L 137.068799 185.984 
L 135.802039 185.344 
L 134.826488 184.704 
L 133.253959 184.064 
L 133.224838 183.424 
L 133.064673 182.784 
L 132.234727 182.144 
L 131.914397 181.504 
L 130.589395 180.864 
L 130.196263 180.224 
L 128.52181 180.224 
L 127.619061 179.584 
L 126.861918 178.944 
L 124.270156 178.304 
L 122.81411 177.664 
L 121.678394 176.384 
L 121.372625 176.384 
L 118.853665 175.744 
L 118.67894 174.464 
L 118.591577 174.464 
L 117.616026 173.824 
L 117.455861 173.184 
L 117.048168 171.264 
L 115.242672 170.624 
L 114.762176 169.984 
L 114.529209 169.344 
L 113.830307 168.704 
L 112.752833 168.064 
L 112.607229 168.064 
L 111.820964 167.424 
L 111.777282 166.784 
L 111.646238 166.144 
L 111.049259 165.504 
L 109.840741 165.504 
L 108.064365 165.504 
L 107.787717 165.504 
L 107.773156 163.584 
L 106.579199 162.944 
L 105.967659 161.664 
L 104.39513 161.024 
L 103.623426 161.024 
L 103.43414 160.384 
L 103.157491 159.744 
L 102.575073 159.104 
L 101.701445 158.464 
L 101.657764 157.824 
L 101.23551 157.184 
L 100.449246 156.544 
L 100.158036 156.544 
L 99.881388 155.904 
L 99.371772 155.264 
L 99.00776 155.264 
L 97.595396 155.264 
L 96.663526 154.624 
L 96.547043 153.984 
L 96.051987 153.344 
L 95.163799 153.344 
L 95.090997 153.344 
L 93.867918 152.704 
L 93.387423 152.064 
L 92.877807 151.424 
L 92.6594 150.784 
L 92.091542 150.144 
L 91.611047 150.144 
L 90.213243 149.504 
L 90.155001 148.224 
L 89.79099 148.224 
L 89.354176 148.224 
L 89.194011 148.224 
L 88.553351 148.224 
L 88.393186 148.224 
L 88.364065 147.584 
L 87.89813 147.584 
L 87.504998 147.584 
L 87.199228 147.584 
L 87.111866 146.944 
L 86.995382 146.304 
L 86.238238 145.664 
L 85.801424 145.664 
L 85.714061 145.664 
L 85.408292 145.024 
L 85.35005 144.384 
L 85.320929 143.744 
L 84.72395 143.744 
L 84.38906 143.744 
L 83.894004 143.104 
L 83.821202 142.464 
L 83.76296 142.464 
L 83.719279 142.464 
L 83.45719 141.824 
L 82.889333 141.824 
L 82.758288 141.184 
L 82.539882 141.184 
L 82.321475 141.184 
L 82.190431 140.544 
L 82.103068 140.544 
L 81.753617 140.544 
L 81.520649 140.544 
L 81.404166 140.544 
L 81.375045 140.544 
L 81.258561 140.544 
L 80.705264 139.904 
L 80.414055 139.904 
L 80.312131 139.264 
L 79.860757 138.624 
L 79.598669 138.624 
L 79.554988 138.624 
L 79.540427 138.624 
L 79.482185 138.624 
L 79.365702 138.624 
L 78.768723 138.624 
L 78.739602 138.624 
L 78.521195 138.624 
L 78.506634 138.624 
L 78.477514 138.624 
L 78.229986 138.624 
L 78.05526 137.984 
L 78.011579 137.984 
L 77.807732 137.984 
L 77.73493 137.984 
L 77.705809 137.344 
L 77.574765 137.344 
L 77.385479 137.344 
L 77.152512 137.344 
L 76.875863 137.344 
L 76.846742 137.344 
L 76.77394 136.704 
L 76.584654 136.704 
L 76.511852 136.704 
L 76.322566 136.704 
L 76.206082 136.704 
L 76.162401 136.704 
L 76.13328 136.704 
L 76.060477 136.704 
L 75.82751 136.704 
L 75.725587 136.704 
L 75.536301 136.704 
L 75.50718 136.704 
L 75.419817 136.704 
L 75.405257 136.704 
L 75.245092 136.704 
L 74.983004 136.704 
L 74.837399 136.704 
L 74.677234 136.704 
L 74.473387 136.704 
L 74.415146 136.704 
L 74.284101 136.704 
L 74.036574 136.704 
L 73.949211 136.704 
L 73.832727 136.704 
z
" clip-path="url(#pa85db41ebb)" style="fill: #008000"/>
   </g>
   <g id="PolyCollection_2">
    <path d="M 73.832727 136.704 
L 73.832727 136.704 
L 73.949211 136.704 
L 74.036574 136.704 
L 74.284101 136.704 
L 74.415146 136.704 
L 74.473387 136.704 
L 74.677234 136.704 
L 74.837399 136.704 
L 74.983004 136.704 
L 75.245092 136.704 
L 75.405257 136.704 
L 75.419817 136.704 
L 75.50718 136.704 
L 75.536301 136.704 
L 75.725587 136.704 
L 75.82751 136.704 
L 76.060477 136.704 
L 76.13328 136.704 
L 76.162401 136.704 
L 76.206082 136.704 
L 76.322566 136.704 
L 76.511852 136.704 
L 76.584654 136.704 
L 76.77394 136.704 
L 76.846742 137.344 
L 76.875863 137.344 
L 77.152512 137.344 
L 77.385479 137.344 
L 77.574765 137.344 
L 77.705809 137.344 
L 77.73493 137.984 
L 77.807732 137.984 
L 78.011579 137.984 
L 78.05526 137.984 
L 78.229986 138.624 
L 78.477514 138.624 
L 78.506634 138.624 
L 78.521195 138.624 
L 78.739602 138.624 
L 78.768723 138.624 
L 79.365702 138.624 
L 79.482185 138.624 
L 79.540427 138.624 
L 79.554988 138.624 
L 79.598669 138.624 
L 79.860757 138.624 
L 80.312131 139.264 
L 80.414055 139.904 
L 80.705264 139.904 
L 81.258561 140.544 
L 81.375045 140.544 
L 81.404166 140.544 
L 81.520649 140.544 
L 81.753617 140.544 
L 82.103068 140.544 
L 82.190431 140.544 
L 82.321475 141.184 
L 82.539882 141.184 
L 82.758288 141.184 
L 82.889333 141.824 
L 83.45719 141.824 
L 83.719279 142.464 
L 83.76296 142.464 
L 83.821202 142.464 
L 83.894004 143.104 
L 84.38906 143.744 
L 84.72395 143.744 
L 85.320929 143.744 
L 85.35005 144.384 
L 85.408292 145.024 
L 85.714061 145.664 
L 85.801424 145.664 
L 86.238238 145.664 
L 86.995382 146.304 
L 87.111866 146.944 
L 87.199228 147.584 
L 87.504998 147.584 
L 87.89813 147.584 
L 88.364065 147.584 
L 88.393186 148.224 
L 88.553351 148.224 
L 89.194011 148.224 
L 89.354176 148.224 
L 89.79099 148.224 
L 90.155001 148.224 
L 90.213243 149.504 
L 91.611047 150.144 
L 92.091542 150.144 
L 92.6594 150.784 
L 92.877807 151.424 
L 93.387423 152.064 
L 93.867918 152.704 
L 95.090997 153.344 
L 95.163799 153.344 
L 96.051987 153.344 
L 96.547043 153.984 
L 96.663526 154.624 
L 97.595396 155.264 
L 99.00776 155.264 
L 99.371772 155.264 
L 99.881388 155.904 
L 100.158036 156.544 
L 100.449246 156.544 
L 101.23551 157.184 
L 101.657764 157.824 
L 101.701445 158.464 
L 102.575073 159.104 
L 103.157491 159.744 
L 103.43414 160.384 
L 103.623426 161.024 
L 104.39513 161.024 
L 105.967659 161.664 
L 106.579199 162.944 
L 107.773156 163.584 
L 107.787717 165.504 
L 108.064365 165.504 
L 109.840741 165.504 
L 111.049259 165.504 
L 111.646238 166.144 
L 111.777282 166.784 
L 111.820964 167.424 
L 112.607229 168.064 
L 112.752833 168.064 
L 113.830307 168.704 
L 114.529209 169.344 
L 114.762176 169.984 
L 115.242672 170.624 
L 117.048168 171.264 
L 117.455861 173.184 
L 117.616026 173.824 
L 118.591577 174.464 
L 118.67894 174.464 
L 118.853665 175.744 
L 121.372625 176.384 
L 121.678394 176.384 
L 122.81411 177.664 
L 124.270156 178.304 
L 126.861918 178.944 
L 127.619061 179.584 
L 128.52181 180.224 
L 130.196263 180.224 
L 130.589395 180.864 
L 131.914397 181.504 
L 132.234727 182.144 
L 133.064673 182.784 
L 133.224838 183.424 
L 133.253959 184.064 
L 134.826488 184.704 
L 135.802039 185.344 
L 137.068799 185.984 
L 137.767701 186.624 
L 138.99078 188.544 
L 139.646 189.184 
L 139.95177 189.824 
L 140.854518 190.464 
L 141.247651 191.104 
L 141.684464 192.384 
L 143.402598 193.024 
L 143.431719 193.664 
L 144.043259 194.944 
L 144.567435 195.584 
L 145.921558 195.584 
L 146.198207 196.224 
L 147.974582 196.864 
L 148.83365 196.864 
L 149.896563 197.504 
L 150.216893 198.144 
L 151.090521 199.424 
L 151.71662 200.064 
L 152.677611 200.704 
L 153.070743 201.344 
L 153.405634 201.984 
L 154.322942 203.264 
L 154.410305 203.904 
L 154.832558 204.544 
L 155.575142 204.544 
L 158.399871 205.184 
L 159.31718 205.824 
L 159.491905 206.464 
L 159.797675 207.104 
L 164.224054 207.744 
L 165.257847 208.384 
L 165.534496 209.024 
L 165.636419 209.664 
L 166.029551 210.944 
L 166.655651 211.584 
L 169.393017 213.504 
L 169.917194 214.144 
L 170.004556 214.784 
L 171.810053 215.424 
L 171.897416 216.064 
L 173.164176 216.704 
L 173.324341 217.344 
L 173.892199 217.984 
L 177.357588 219.264 
L 178.566106 219.904 
L 179.512536 220.544 
L 179.847426 221.184 
L 180.837538 221.824 
L 181.157868 222.464 
L 181.186989 225.024 
L 181.478198 225.664 
L 184.827103 226.304 
L 185.03095 226.944 
L 185.933698 227.584 
L 186.428754 228.224 
L 186.705402 228.864 
L 186.909249 229.504 
L 187.069414 230.784 
L 187.316942 231.424 
L 188.481778 232.064 
L 191.874365 232.704 
L 192.136453 233.344 
L 194.131236 233.984 
L 195.077666 234.624 
L 195.776568 235.264 
L 197.494702 235.904 
L 197.698549 236.544 
L 198.892506 237.184 
L 200.29031 237.824 
L 202.066686 238.464 
L 202.168609 239.104 
L 202.357895 239.744 
L 202.590863 240.384 
L 203.624655 241.024 
L 204.279876 242.304 
L 204.876855 243.584 
L 205.240866 244.224 
L 205.444713 244.864 
L 205.837845 245.504 
L 206.886198 246.144 
L 207.395814 246.784 
L 207.832628 247.424 
L 207.847188 249.344 
L 209.332355 249.984 
L 209.681806 250.624 
L 211.429061 251.904 
L 212.477414 252.544 
L 214.923571 253.824 
L 216.102968 254.464 
L 216.932914 256.384 
L 218.3744 257.024 
L 219.116983 258.304 
L 219.728522 258.944 
L 220.354622 259.584 
L 221.490338 261.504 
L 222.946384 262.144 
L 223.587044 262.784 
L 224.009297 263.424 
L 224.213144 264.064 
L 224.853804 264.704 
L 226.673861 265.344 
L 228.785128 265.984 
L 230.561504 266.624 
L 231.464252 267.264 
L 231.522494 268.544 
L 231.580736 269.184 
L 231.886505 269.824 
L 233.93953 270.464 
L 233.968651 271.744 
L 234.842278 272.384 
L 234.958762 273.024 
L 235.453818 274.304 
L 237.026347 274.944 
L 240.418934 275.584 
L 241.86042 276.224 
L 244.597786 276.864 
L 247.058503 277.504 
L 247.58268 278.144 
L 249.038726 279.424 
L 251.805213 280.064 
L 254.367853 280.704 
L 254.760986 281.344 
L 255.314283 281.984 
L 255.663734 282.624 
L 258.503024 283.264 
L 259.420333 283.904 
L 259.784344 284.544 
L 262.303303 285.184 
L 265.084351 285.824 
L 265.739572 286.464 
L 265.826934 287.104 
L 267.763475 288.384 
L 270.165951 289.664 
L 270.340677 290.304 
L 271.840404 290.944 
L 273.267329 291.584 
L 275.145628 292.224 
L 276.528871 292.864 
L 279.120633 294.144 
L 280.92613 294.784 
L 283.663496 295.424 
L 283.896464 296.064 
L 284.042068 296.704 
L 290.230263 297.344 
L 291.598946 297.984 
L 293.550048 298.624 
L 298.223955 299.264 
L 306.101163 299.904 
L 311.517653 300.544 
L 312.98826 301.184 
L 313.512436 301.824 
L 316.773979 302.464 
L 319.234697 303.104 
L 323.894043 303.744 
L 328.53883 304.384 
L 328.611632 305.024 
L 361.168817 305.664 
L 388.5716 306.304 
L 398.487273 306.944 
L 398.487273 306.944 
L 398.487273 306.944 
L 388.5716 306.304 
L 361.168817 305.664 
L 328.611632 305.024 
L 328.53883 304.384 
L 323.894043 303.744 
L 319.234697 303.104 
L 316.773979 302.464 
L 313.512436 301.824 
L 312.98826 301.184 
L 311.517653 300.544 
L 306.101163 299.904 
L 298.223955 299.264 
L 293.550048 298.624 
L 291.598946 297.984 
L 290.230263 297.344 
L 284.042068 296.704 
L 283.896464 296.064 
L 283.663496 295.424 
L 280.92613 294.784 
L 279.120633 294.144 
L 276.528871 292.864 
L 275.145628 292.224 
L 273.267329 291.584 
L 271.840404 290.944 
L 270.340677 290.304 
L 270.165951 289.664 
L 267.763475 288.384 
L 265.826934 287.104 
L 265.739572 286.464 
L 265.084351 285.824 
L 262.303303 285.184 
L 259.784344 284.544 
L 259.420333 283.904 
L 258.503024 283.264 
L 255.663734 282.624 
L 255.314283 281.984 
L 254.760986 281.344 
L 254.367853 280.704 
L 251.805213 280.064 
L 249.038726 279.424 
L 247.58268 278.144 
L 247.058503 277.504 
L 244.597786 276.864 
L 241.86042 276.224 
L 240.418934 275.584 
L 237.026347 274.944 
L 235.453818 274.304 
L 234.958762 273.024 
L 234.842278 272.384 
L 233.968651 271.744 
L 233.93953 270.464 
L 231.886505 269.824 
L 231.580736 269.184 
L 231.522494 268.544 
L 231.464252 267.264 
L 230.561504 266.624 
L 228.785128 265.984 
L 226.673861 265.344 
L 224.853804 264.704 
L 224.213144 264.064 
L 224.009297 263.424 
L 223.587044 262.784 
L 222.946384 262.144 
L 221.490338 261.504 
L 220.354622 259.584 
L 219.728522 258.944 
L 219.116983 258.304 
L 218.3744 257.024 
L 216.932914 256.384 
L 216.102968 254.464 
L 214.923571 253.824 
L 212.477414 252.544 
L 211.429061 251.904 
L 209.681806 250.624 
L 209.332355 249.984 
L 207.847188 249.344 
L 207.832628 247.424 
L 207.395814 246.784 
L 206.886198 246.144 
L 205.837845 245.504 
L 205.444713 244.864 
L 205.240866 244.224 
L 204.876855 243.584 
L 204.279876 242.304 
L 203.624655 241.024 
L 202.590863 240.384 
L 202.357895 239.744 
L 202.168609 239.104 
L 202.066686 238.464 
L 200.29031 237.824 
L 198.892506 237.184 
L 197.698549 236.544 
L 197.494702 235.904 
L 195.776568 235.264 
L 195.077666 234.624 
L 194.131236 233.984 
L 192.136453 233.344 
L 191.874365 232.704 
L 188.481778 232.064 
L 187.316942 231.424 
L 187.069414 230.784 
L 186.909249 229.504 
L 186.705402 228.864 
L 186.428754 228.224 
L 185.933698 227.584 
L 185.03095 226.944 
L 184.827103 226.304 
L 181.478198 225.664 
L 181.186989 225.024 
L 181.157868 222.464 
L 180.837538 221.824 
L 179.847426 221.184 
L 179.512536 220.544 
L 178.566106 219.904 
L 177.357588 219.264 
L 173.892199 217.984 
L 173.324341 217.344 
L 173.164176 216.704 
L 171.897416 216.064 
L 171.810053 215.424 
L 170.004556 214.784 
L 169.917194 214.144 
L 169.393017 213.504 
L 166.655651 211.584 
L 166.029551 210.944 
L 165.636419 209.664 
L 165.534496 209.024 
L 165.257847 208.384 
L 164.224054 207.744 
L 159.797675 207.104 
L 159.491905 206.464 
L 159.31718 205.824 
L 158.399871 205.184 
L 155.575142 204.544 
L 154.832558 204.544 
L 154.410305 203.904 
L 154.322942 203.264 
L 153.405634 201.984 
L 153.070743 201.344 
L 152.677611 200.704 
L 151.71662 200.064 
L 151.090521 199.424 
L 150.216893 198.144 
L 149.896563 197.504 
L 148.83365 196.864 
L 147.974582 196.864 
L 146.198207 196.224 
L 145.921558 195.584 
L 144.567435 195.584 
L 144.043259 194.944 
L 143.431719 193.664 
L 143.402598 193.024 
L 141.684464 192.384 
L 141.247651 191.104 
L 140.854518 190.464 
L 139.95177 189.824 
L 139.646 189.184 
L 138.99078 188.544 
L 137.767701 186.624 
L 137.068799 185.984 
L 135.802039 185.344 
L 134.826488 184.704 
L 133.253959 184.064 
L 133.224838 183.424 
L 133.064673 182.784 
L 132.234727 182.144 
L 131.914397 181.504 
L 130.589395 180.864 
L 130.196263 180.224 
L 128.52181 180.224 
L 127.619061 179.584 
L 126.861918 178.944 
L 124.270156 178.304 
L 122.81411 177.664 
L 121.678394 176.384 
L 121.372625 176.384 
L 118.853665 175.744 
L 118.67894 174.464 
L 118.591577 174.464 
L 117.616026 173.824 
L 117.455861 173.184 
L 117.048168 171.264 
L 115.242672 170.624 
L 114.762176 169.984 
L 114.529209 169.344 
L 113.830307 168.704 
L 112.752833 168.064 
L 112.607229 168.064 
L 111.820964 167.424 
L 111.777282 166.784 
L 111.646238 166.144 
L 111.049259 165.504 
L 109.840741 165.504 
L 108.064365 165.504 
L 107.787717 165.504 
L 107.773156 163.584 
L 106.579199 162.944 
L 105.967659 161.664 
L 104.39513 161.024 
L 103.623426 161.024 
L 103.43414 160.384 
L 103.157491 159.744 
L 102.575073 159.104 
L 101.701445 158.464 
L 101.657764 157.824 
L 101.23551 157.184 
L 100.449246 156.544 
L 100.158036 156.544 
L 99.881388 155.904 
L 99.371772 155.264 
L 99.00776 155.264 
L 97.595396 155.264 
L 96.663526 154.624 
L 96.547043 153.984 
L 96.051987 153.344 
L 95.163799 153.344 
L 95.090997 153.344 
L 93.867918 152.704 
L 93.387423 152.064 
L 92.877807 151.424 
L 92.6594 150.784 
L 92.091542 150.144 
L 91.611047 150.144 
L 90.213243 149.504 
L 90.155001 148.224 
L 89.79099 148.224 
L 89.354176 148.224 
L 89.194011 148.224 
L 88.553351 148.224 
L 88.393186 148.224 
L 88.364065 147.584 
L 87.89813 147.584 
L 87.504998 147.584 
L 87.199228 147.584 
L 87.111866 146.944 
L 86.995382 146.304 
L 86.238238 145.664 
L 85.801424 145.664 
L 85.714061 145.664 
L 85.408292 145.024 
L 85.35005 144.384 
L 85.320929 143.744 
L 84.72395 143.744 
L 84.38906 143.744 
L 83.894004 143.104 
L 83.821202 142.464 
L 83.76296 142.464 
L 83.719279 142.464 
L 83.45719 141.824 
L 82.889333 141.824 
L 82.758288 141.184 
L 82.539882 141.184 
L 82.321475 141.184 
L 82.190431 140.544 
L 82.103068 140.544 
L 81.753617 140.544 
L 81.520649 140.544 
L 81.404166 140.544 
L 81.375045 140.544 
L 81.258561 140.544 
L 80.705264 139.904 
L 80.414055 139.904 
L 80.312131 139.264 
L 79.860757 138.624 
L 79.598669 138.624 
L 79.554988 138.624 
L 79.540427 138.624 
L 79.482185 138.624 
L 79.365702 138.624 
L 78.768723 138.624 
L 78.739602 138.624 
L 78.521195 138.624 
L 78.506634 138.624 
L 78.477514 138.624 
L 78.229986 138.624 
L 78.05526 137.984 
L 78.011579 137.984 
L 77.807732 137.984 
L 77.73493 137.984 
L 77.705809 137.344 
L 77.574765 137.344 
L 77.385479 137.344 
L 77.152512 137.344 
L 76.875863 137.344 
L 76.846742 137.344 
L 76.77394 136.704 
L 76.584654 136.704 
L 76.511852 136.704 
L 76.322566 136.704 
L 76.206082 136.704 
L 76.162401 136.704 
L 76.13328 136.704 
L 76.060477 136.704 
L 75.82751 136.704 
L 75.725587 136.704 
L 75.536301 136.704 
L 75.50718 136.704 
L 75.419817 136.704 
L 75.405257 136.704 
L 75.245092 136.704 
L 74.983004 136.704 
L 74.837399 136.704 
L 74.677234 136.704 
L 74.473387 136.704 
L 74.415146 136.704 
L 74.284101 136.704 
L 74.036574 136.704 
L 73.949211 136.704 
L 73.832727 136.704 
z
" clip-path="url(#pa85db41ebb)" style="fill: #7cfc00"/>
   </g>
   <g id="PolyCollection_3">
    <path d="M 73.832727 54.144 
L 73.832727 136.704 
L 73.949211 136.704 
L 74.036574 136.704 
L 74.284101 136.704 
L 74.415146 136.704 
L 74.473387 136.704 
L 74.677234 136.704 
L 74.837399 136.704 
L 74.983004 136.704 
L 75.245092 136.704 
L 75.405257 136.704 
L 75.419817 136.704 
L 75.50718 136.704 
L 75.536301 136.704 
L 75.725587 136.704 
L 75.82751 136.704 
L 76.060477 136.704 
L 76.13328 136.704 
L 76.162401 136.704 
L 76.206082 136.704 
L 76.322566 136.704 
L 76.511852 136.704 
L 76.584654 136.704 
L 76.77394 136.704 
L 76.846742 137.344 
L 76.875863 137.344 
L 77.152512 137.344 
L 77.385479 137.344 
L 77.574765 137.344 
L 77.705809 137.344 
L 77.73493 137.984 
L 77.807732 137.984 
L 78.011579 137.984 
L 78.05526 137.984 
L 78.229986 138.624 
L 78.477514 138.624 
L 78.506634 138.624 
L 78.521195 138.624 
L 78.739602 138.624 
L 78.768723 138.624 
L 79.365702 138.624 
L 79.482185 138.624 
L 79.540427 138.624 
L 79.554988 138.624 
L 79.598669 138.624 
L 79.860757 138.624 
L 80.312131 139.264 
L 80.414055 139.904 
L 80.705264 139.904 
L 81.258561 140.544 
L 81.375045 140.544 
L 81.404166 140.544 
L 81.520649 140.544 
L 81.753617 140.544 
L 82.103068 140.544 
L 82.190431 140.544 
L 82.321475 141.184 
L 82.539882 141.184 
L 82.758288 141.184 
L 82.889333 141.824 
L 83.45719 141.824 
L 83.719279 142.464 
L 83.76296 142.464 
L 83.821202 142.464 
L 83.894004 143.104 
L 84.38906 143.744 
L 84.72395 143.744 
L 85.320929 143.744 
L 85.35005 144.384 
L 85.408292 145.024 
L 85.714061 145.664 
L 85.801424 145.664 
L 86.238238 145.664 
L 86.995382 146.304 
L 87.111866 146.944 
L 87.199228 147.584 
L 87.504998 147.584 
L 87.89813 147.584 
L 88.364065 147.584 
L 88.393186 148.224 
L 88.553351 148.224 
L 89.194011 148.224 
L 89.354176 148.224 
L 89.79099 148.224 
L 90.155001 148.224 
L 90.213243 149.504 
L 91.611047 150.144 
L 92.091542 150.144 
L 92.6594 150.784 
L 92.877807 151.424 
L 93.387423 152.064 
L 93.867918 152.704 
L 95.090997 153.344 
L 95.163799 153.344 
L 96.051987 153.344 
L 96.547043 153.984 
L 96.663526 154.624 
L 97.595396 155.264 
L 99.00776 155.264 
L 99.371772 155.264 
L 99.881388 155.904 
L 100.158036 156.544 
L 100.449246 156.544 
L 101.23551 157.184 
L 101.657764 157.824 
L 101.701445 158.464 
L 102.575073 159.104 
L 103.157491 159.744 
L 103.43414 160.384 
L 103.623426 161.024 
L 104.39513 161.024 
L 105.967659 161.664 
L 106.579199 162.944 
L 107.773156 163.584 
L 107.787717 165.504 
L 108.064365 165.504 
L 109.840741 165.504 
L 111.049259 165.504 
L 111.646238 166.144 
L 111.777282 166.784 
L 111.820964 167.424 
L 112.607229 168.064 
L 112.752833 168.064 
L 113.830307 168.704 
L 114.529209 169.344 
L 114.762176 169.984 
L 115.242672 170.624 
L 117.048168 171.264 
L 117.455861 173.184 
L 117.616026 173.824 
L 118.591577 174.464 
L 118.67894 174.464 
L 118.853665 175.744 
L 121.372625 176.384 
L 121.678394 176.384 
L 122.81411 177.664 
L 124.270156 178.304 
L 126.861918 178.944 
L 127.619061 179.584 
L 128.52181 180.224 
L 130.196263 180.224 
L 130.589395 180.864 
L 131.914397 181.504 
L 132.234727 182.144 
L 133.064673 182.784 
L 133.224838 183.424 
L 133.253959 184.064 
L 134.826488 184.704 
L 135.802039 185.344 
L 137.068799 185.984 
L 137.767701 186.624 
L 138.99078 188.544 
L 139.646 189.184 
L 139.95177 189.824 
L 140.854518 190.464 
L 141.247651 191.104 
L 141.684464 192.384 
L 143.402598 193.024 
L 143.431719 193.664 
L 144.043259 194.944 
L 144.567435 195.584 
L 145.921558 195.584 
L 146.198207 196.224 
L 147.974582 196.864 
L 148.83365 196.864 
L 149.896563 197.504 
L 150.216893 198.144 
L 151.090521 199.424 
L 151.71662 200.064 
L 152.677611 200.704 
L 153.070743 201.344 
L 153.405634 201.984 
L 154.322942 203.264 
L 154.410305 203.904 
L 154.832558 204.544 
L 155.575142 204.544 
L 158.399871 205.184 
L 159.31718 205.824 
L 159.491905 206.464 
L 159.797675 207.104 
L 164.224054 207.744 
L 165.257847 208.384 
L 165.534496 209.024 
L 165.636419 209.664 
L 166.029551 210.944 
L 166.655651 211.584 
L 169.393017 213.504 
L 169.917194 214.144 
L 170.004556 214.784 
L 171.810053 215.424 
L 171.897416 216.064 
L 173.164176 216.704 
L 173.324341 217.344 
L 173.892199 217.984 
L 177.357588 219.264 
L 178.566106 219.904 
L 179.512536 220.544 
L 179.847426 221.184 
L 180.837538 221.824 
L 181.157868 222.464 
L 181.186989 225.024 
L 181.478198 225.664 
L 184.827103 226.304 
L 185.03095 226.944 
L 185.933698 227.584 
L 186.428754 228.224 
L 186.705402 228.864 
L 186.909249 229.504 
L 187.069414 230.784 
L 187.316942 231.424 
L 188.481778 232.064 
L 191.874365 232.704 
L 192.136453 233.344 
L 194.131236 233.984 
L 195.077666 234.624 
L 195.776568 235.264 
L 197.494702 235.904 
L 197.698549 236.544 
L 198.892506 237.184 
L 200.29031 237.824 
L 202.066686 238.464 
L 202.168609 239.104 
L 202.357895 239.744 
L 202.590863 240.384 
L 203.624655 241.024 
L 204.279876 242.304 
L 204.876855 243.584 
L 205.240866 244.224 
L 205.444713 244.864 
L 205.837845 245.504 
L 206.886198 246.144 
L 207.395814 246.784 
L 207.832628 247.424 
L 207.847188 249.344 
L 209.332355 249.984 
L 209.681806 250.624 
L 211.429061 251.904 
L 212.477414 252.544 
L 214.923571 253.824 
L 216.102968 254.464 
L 216.932914 256.384 
L 218.3744 257.024 
L 219.116983 258.304 
L 219.728522 258.944 
L 220.354622 259.584 
L 221.490338 261.504 
L 222.946384 262.144 
L 223.587044 262.784 
L 224.009297 263.424 
L 224.213144 264.064 
L 224.853804 264.704 
L 226.673861 265.344 
L 228.785128 265.984 
L 230.561504 266.624 
L 231.464252 267.264 
L 231.522494 268.544 
L 231.580736 269.184 
L 231.886505 269.824 
L 233.93953 270.464 
L 233.968651 271.744 
L 234.842278 272.384 
L 234.958762 273.024 
L 235.453818 274.304 
L 237.026347 274.944 
L 240.418934 275.584 
L 241.86042 276.224 
L 244.597786 276.864 
L 247.058503 277.504 
L 247.58268 278.144 
L 249.038726 279.424 
L 251.805213 280.064 
L 254.367853 280.704 
L 254.760986 281.344 
L 255.314283 281.984 
L 255.663734 282.624 
L 258.503024 283.264 
L 259.420333 283.904 
L 259.784344 284.544 
L 262.303303 285.184 
L 265.084351 285.824 
L 265.739572 286.464 
L 265.826934 287.104 
L 267.763475 288.384 
L 270.165951 289.664 
L 270.340677 290.304 
L 271.840404 290.944 
L 273.267329 291.584 
L 275.145628 292.224 
L 276.528871 292.864 
L 279.120633 294.144 
L 280.92613 294.784 
L 283.663496 295.424 
L 283.896464 296.064 
L 284.042068 296.704 
L 290.230263 297.344 
L 291.598946 297.984 
L 293.550048 298.624 
L 298.223955 299.264 
L 306.101163 299.904 
L 311.517653 300.544 
L 312.98826 301.184 
L 313.512436 301.824 
L 316.773979 302.464 
L 319.234697 303.104 
L 323.894043 303.744 
L 328.53883 304.384 
L 328.611632 305.024 
L 361.168817 305.664 
L 388.5716 306.304 
L 398.487273 306.944 
L 398.487273 306.944 
L 398.487273 306.944 
L 388.5716 306.304 
L 361.168817 305.664 
L 328.611632 305.024 
L 328.53883 304.384 
L 323.894043 303.744 
L 319.234697 303.104 
L 316.773979 302.464 
L 313.512436 301.824 
L 312.98826 301.184 
L 311.517653 300.544 
L 306.101163 299.904 
L 298.223955 299.264 
L 293.550048 298.624 
L 291.598946 297.984 
L 290.230263 297.344 
L 284.042068 296.704 
L 283.896464 296.064 
L 283.663496 295.424 
L 280.92613 294.784 
L 279.120633 294.144 
L 276.528871 292.864 
L 275.145628 292.224 
L 273.267329 291.584 
L 271.840404 290.944 
L 270.340677 290.304 
L 270.165951 289.664 
L 267.763475 288.384 
L 265.826934 287.104 
L 265.739572 286.464 
L 265.084351 285.824 
L 262.303303 285.184 
L 259.784344 284.544 
L 259.420333 283.904 
L 258.503024 283.264 
L 255.663734 282.624 
L 255.314283 281.984 
L 254.760986 281.344 
L 254.367853 280.704 
L 251.805213 280.064 
L 249.038726 279.424 
L 247.58268 278.144 
L 247.058503 277.504 
L 244.597786 276.864 
L 241.86042 276.224 
L 240.418934 275.584 
L 237.026347 274.944 
L 235.453818 274.304 
L 234.958762 273.024 
L 234.842278 272.384 
L 233.968651 271.744 
L 233.93953 270.464 
L 231.886505 269.824 
L 231.580736 269.184 
L 231.522494 268.544 
L 231.464252 267.264 
L 230.561504 266.624 
L 228.785128 265.984 
L 226.673861 265.344 
L 224.853804 264.704 
L 224.213144 264.064 
L 224.009297 263.424 
L 223.587044 262.784 
L 222.946384 262.144 
L 221.490338 261.504 
L 220.354622 259.584 
L 219.728522 258.944 
L 219.116983 258.304 
L 218.3744 257.024 
L 216.932914 256.384 
L 216.102968 254.464 
L 214.923571 253.824 
L 212.477414 252.544 
L 211.429061 251.904 
L 209.681806 250.624 
L 209.332355 249.984 
L 207.847188 249.344 
L 207.832628 247.424 
L 207.395814 246.784 
L 206.886198 246.144 
L 205.837845 245.504 
L 205.444713 244.864 
L 205.240866 244.224 
L 204.876855 243.584 
L 204.279876 242.304 
L 203.624655 241.024 
L 202.590863 240.384 
L 202.357895 239.744 
L 202.168609 239.104 
L 202.066686 238.464 
L 200.29031 237.824 
L 198.892506 237.184 
L 197.698549 236.544 
L 197.494702 235.904 
L 195.776568 235.264 
L 195.077666 234.624 
L 194.131236 233.984 
L 192.136453 233.344 
L 191.874365 232.704 
L 188.481778 232.064 
L 187.316942 231.424 
L 187.069414 230.784 
L 186.909249 229.504 
L 186.705402 228.864 
L 186.428754 228.224 
L 185.933698 227.584 
L 185.03095 226.944 
L 184.827103 226.304 
L 181.478198 225.664 
L 181.186989 225.024 
L 181.157868 222.464 
L 180.837538 221.824 
L 179.847426 221.184 
L 179.512536 220.544 
L 178.566106 219.904 
L 177.357588 219.264 
L 173.892199 217.984 
L 173.324341 217.344 
L 173.164176 216.704 
L 171.897416 216.064 
L 171.810053 215.424 
L 170.004556 214.784 
L 169.917194 214.144 
L 169.393017 213.504 
L 166.655651 211.584 
L 166.029551 210.944 
L 165.636419 209.664 
L 165.534496 209.024 
L 165.257847 208.384 
L 164.224054 207.744 
L 159.797675 207.104 
L 159.491905 206.464 
L 159.31718 205.824 
L 158.399871 205.184 
L 155.575142 204.544 
L 154.832558 203.904 
L 154.410305 203.264 
L 154.322942 202.624 
L 153.405634 201.344 
L 153.070743 200.704 
L 152.677611 200.064 
L 151.71662 199.424 
L 151.090521 198.784 
L 150.216893 197.504 
L 149.896563 196.864 
L 148.83365 196.224 
L 147.974582 195.584 
L 146.198207 194.944 
L 145.921558 194.304 
L 144.567435 193.664 
L 144.043259 193.024 
L 143.431719 191.744 
L 143.402598 191.104 
L 141.684464 190.464 
L 141.247651 189.184 
L 140.854518 188.544 
L 139.95177 187.904 
L 139.646 187.264 
L 138.99078 186.624 
L 137.767701 184.704 
L 137.068799 184.064 
L 135.802039 183.424 
L 134.826488 182.784 
L 133.253959 182.144 
L 133.224838 181.504 
L 133.064673 180.864 
L 132.234727 180.224 
L 131.914397 179.584 
L 130.589395 178.944 
L 130.196263 178.304 
L 128.52181 177.664 
L 127.619061 177.024 
L 126.861918 176.384 
L 124.270156 175.744 
L 122.81411 175.104 
L 121.678394 173.824 
L 121.372625 173.184 
L 118.853665 172.544 
L 118.67894 171.264 
L 118.591577 170.624 
L 117.616026 169.344 
L 117.455861 168.704 
L 117.048168 166.784 
L 115.242672 166.144 
L 114.762176 165.504 
L 114.529209 164.864 
L 113.830307 164.224 
L 112.752833 163.584 
L 112.607229 162.944 
L 111.820964 162.304 
L 111.777282 161.024 
L 111.646238 160.384 
L 111.049259 159.744 
L 109.840741 159.104 
L 108.064365 158.464 
L 107.787717 157.824 
L 107.773156 155.904 
L 106.579199 155.264 
L 105.967659 153.344 
L 104.39513 152.704 
L 103.623426 152.064 
L 103.43414 151.424 
L 103.157491 150.784 
L 102.575073 150.144 
L 101.701445 148.864 
L 101.657764 148.224 
L 101.23551 146.944 
L 100.449246 146.304 
L 100.158036 145.664 
L 99.881388 145.024 
L 99.371772 144.384 
L 99.00776 143.744 
L 97.595396 143.104 
L 96.663526 141.824 
L 96.547043 141.184 
L 96.051987 139.264 
L 95.163799 138.624 
L 95.090997 137.984 
L 93.867918 137.344 
L 93.387423 136.704 
L 92.877807 136.064 
L 92.6594 134.144 
L 92.091542 133.504 
L 91.611047 132.224 
L 90.213243 131.584 
L 90.155001 130.304 
L 89.79099 129.024 
L 89.354176 128.384 
L 89.194011 127.744 
L 88.553351 127.104 
L 88.393186 126.464 
L 88.364065 125.184 
L 87.89813 124.544 
L 87.504998 123.264 
L 87.199228 122.624 
L 87.111866 121.984 
L 86.995382 119.424 
L 86.238238 118.144 
L 85.801424 117.504 
L 85.714061 116.864 
L 85.408292 116.224 
L 85.35005 115.584 
L 85.320929 113.664 
L 84.72395 113.024 
L 84.38906 111.744 
L 83.894004 111.104 
L 83.821202 109.824 
L 83.76296 108.544 
L 83.719279 107.904 
L 83.45719 106.624 
L 82.889333 104.704 
L 82.758288 104.064 
L 82.539882 103.424 
L 82.321475 102.784 
L 82.190431 102.144 
L 82.103068 101.504 
L 81.753617 100.224 
L 81.520649 99.584 
L 81.404166 98.944 
L 81.375045 98.304 
L 81.258561 97.664 
L 80.705264 95.744 
L 80.414055 95.104 
L 80.312131 94.464 
L 79.860757 93.824 
L 79.598669 93.184 
L 79.554988 91.904 
L 79.540427 91.264 
L 79.482185 90.624 
L 79.365702 89.984 
L 78.768723 88.704 
L 78.739602 87.424 
L 78.521195 86.784 
L 78.506634 86.144 
L 78.477514 85.504 
L 78.229986 83.584 
L 78.05526 82.304 
L 78.011579 81.664 
L 77.807732 81.024 
L 77.73493 79.744 
L 77.705809 79.104 
L 77.574765 78.464 
L 77.385479 77.184 
L 77.152512 76.544 
L 76.875863 75.264 
L 76.846742 74.624 
L 76.77394 72.064 
L 76.584654 71.424 
L 76.511852 70.144 
L 76.322566 69.504 
L 76.206082 68.864 
L 76.162401 68.224 
L 76.13328 67.584 
L 76.060477 66.944 
L 75.82751 66.304 
L 75.725587 65.664 
L 75.536301 65.024 
L 75.50718 64.384 
L 75.419817 63.744 
L 75.405257 62.464 
L 75.245092 61.824 
L 74.983004 60.544 
L 74.837399 59.904 
L 74.677234 59.264 
L 74.473387 57.344 
L 74.415146 56.704 
L 74.284101 56.064 
L 74.036574 55.424 
L 73.949211 54.784 
L 73.832727 54.144 
z
" clip-path="url(#pa85db41ebb)" style="fill: #ff0000"/>
   </g>
   <g id="matplotlib.axis_1">
    <g id="xtick_1">
     <g id="line2d_1">
      <defs>
       <path id="m57b61fd358" d="M 0 0 
L 0 3.5 
" style="stroke: #000000; stroke-width: 0.8"/>
      </defs>
      <g>
       <use xlink:href="#m57b61fd358" x="67.993983" y="307.584" style="stroke: #000000; stroke-width: 0.8"/>
      </g>
     </g>
     <g id="text_1">
      <!-- 0 -->
      <g transform="translate(64.812733 322.182437)scale(0.1 -0.1)">
       <defs>
        <path id="DejaVuSans-30" d="M 2034 4250 
Q 1547 4250 1301 3770 
Q 1056 3291 1056 2328 
Q 1056 1369 1301 889 
Q 1547 409 2034 409 
Q 2525 409 2770 889 
Q 3016 1369 3016 2328 
Q 3016 3291 2770 3770 
Q 2525 4250 2034 4250 
z
M 2034 4750 
Q 2819 4750 3233 4129 
Q 3647 3509 3647 2328 
Q 3647 1150 3233 529 
Q 2819 -91 2034 -91 
Q 1250 -91 836 529 
Q 422 1150 422 2328 
Q 422 3509 836 4129 
Q 1250 4750 2034 4750 
z
" transform="scale(0.015625)"/>
       </defs>
       <use xlink:href="#DejaVuSans-30"/>
      </g>
     </g>
    </g>
    <g id="xtick_2">
     <g id="line2d_2">
      <g>
       <use xlink:href="#m57b61fd358" x="140.796276" y="307.584" style="stroke: #000000; stroke-width: 0.8"/>
      </g>
     </g>
     <g id="text_2">
      <!-- 50 -->
      <g transform="translate(134.433776 322.182437)scale(0.1 -0.1)">
       <defs>
        <path id="DejaVuSans-35" d="M 691 4666 
L 3169 4666 
L 3169 4134 
L 1269 4134 
L 1269 2991 
Q 1406 3038 1543 3061 
Q 1681 3084 1819 3084 
Q 2600 3084 3056 2656 
Q 3513 2228 3513 1497 
Q 3513 744 3044 326 
Q 2575 -91 1722 -91 
Q 1428 -91 1123 -41 
Q 819 9 494 109 
L 494 744 
Q 775 591 1075 516 
Q 1375 441 1709 441 
Q 2250 441 2565 725 
Q 2881 1009 2881 1497 
Q 2881 1984 2565 2268 
Q 2250 2553 1709 2553 
Q 1456 2553 1204 2497 
Q 953 2441 691 2322 
L 691 4666 
z
" transform="scale(0.015625)"/>
       </defs>
       <use xlink:href="#DejaVuSans-35"/>
       <use xlink:href="#DejaVuSans-30" x="63.623047"/>
      </g>
     </g>
    </g>
    <g id="xtick_3">
     <g id="line2d_3">
      <g>
       <use xlink:href="#m57b61fd358" x="213.598569" y="307.584" style="stroke: #000000; stroke-width: 0.8"/>
      </g>
     </g>
     <g id="text_3">
      <!-- 100 -->
      <g transform="translate(204.054819 322.182437)scale(0.1 -0.1)">
       <defs>
        <path id="DejaVuSans-31" d="M 794 531 
L 1825 531 
L 1825 4091 
L 703 3866 
L 703 4441 
L 1819 4666 
L 2450 4666 
L 2450 531 
L 3481 531 
L 3481 0 
L 794 0 
L 794 531 
z
" transform="scale(0.015625)"/>
       </defs>
       <use xlink:href="#DejaVuSans-31"/>
       <use xlink:href="#DejaVuSans-30" x="63.623047"/>
       <use xlink:href="#DejaVuSans-30" x="127.246094"/>
      </g>
     </g>
    </g>
    <g id="xtick_4">
     <g id="line2d_4">
      <g>
       <use xlink:href="#m57b61fd358" x="286.400862" y="307.584" style="stroke: #000000; stroke-width: 0.8"/>
      </g>
     </g>
     <g id="text_4">
      <!-- 150 -->
      <g transform="translate(276.857112 322.182437)scale(0.1 -0.1)">
       <use xlink:href="#DejaVuSans-31"/>
       <use xlink:href="#DejaVuSans-35" x="63.623047"/>
       <use xlink:href="#DejaVuSans-30" x="127.246094"/>
      </g>
     </g>
    </g>
    <g id="xtick_5">
     <g id="line2d_5">
      <g>
       <use xlink:href="#m57b61fd358" x="359.203155" y="307.584" style="stroke: #000000; stroke-width: 0.8"/>
      </g>
     </g>
     <g id="text_5">
      <!-- 200 -->
      <g transform="translate(349.659405 322.182437)scale(0.1 -0.1)">
       <defs>
        <path id="DejaVuSans-32" d="M 1228 531 
L 3431 531 
L 3431 0 
L 469 0 
L 469 531 
Q 828 903 1448 1529 
Q 2069 2156 2228 2338 
Q 2531 2678 2651 2914 
Q 2772 3150 2772 3378 
Q 2772 3750 2511 3984 
Q 2250 4219 1831 4219 
Q 1534 4219 1204 4116 
Q 875 4013 500 3803 
L 500 4441 
Q 881 4594 1212 4672 
Q 1544 4750 1819 4750 
Q 2544 4750 2975 4387 
Q 3406 4025 3406 3419 
Q 3406 3131 3298 2873 
Q 3191 2616 2906 2266 
Q 2828 2175 2409 1742 
Q 1991 1309 1228 531 
z
" transform="scale(0.015625)"/>
       </defs>
       <use xlink:href="#DejaVuSans-32"/>
       <use xlink:href="#DejaVuSans-30" x="63.623047"/>
       <use xlink:href="#DejaVuSans-30" x="127.246094"/>
      </g>
     </g>
    </g>
    <g id="text_6">
     <!-- Score -->
     <g transform="translate(222.157656 335.860562)scale(0.1 -0.1)">
      <defs>
       <path id="DejaVuSans-53" d="M 3425 4513 
L 3425 3897 
Q 3066 4069 2747 4153 
Q 2428 4238 2131 4238 
Q 1616 4238 1336 4038 
Q 1056 3838 1056 3469 
Q 1056 3159 1242 3001 
Q 1428 2844 1947 2747 
L 2328 2669 
Q 3034 2534 3370 2195 
Q 3706 1856 3706 1288 
Q 3706 609 3251 259 
Q 2797 -91 1919 -91 
Q 1588 -91 1214 -16 
Q 841 59 441 206 
L 441 856 
Q 825 641 1194 531 
Q 1563 422 1919 422 
Q 2459 422 2753 634 
Q 3047 847 3047 1241 
Q 3047 1584 2836 1778 
Q 2625 1972 2144 2069 
L 1759 2144 
Q 1053 2284 737 2584 
Q 422 2884 422 3419 
Q 422 4038 858 4394 
Q 1294 4750 2059 4750 
Q 2388 4750 2728 4690 
Q 3069 4631 3425 4513 
z
" transform="scale(0.015625)"/>
       <path id="DejaVuSans-63" d="M 3122 3366 
L 3122 2828 
Q 2878 2963 2633 3030 
Q 2388 3097 2138 3097 
Q 1578 3097 1268 2742 
Q 959 2388 959 1747 
Q 959 1106 1268 751 
Q 1578 397 2138 397 
Q 2388 397 2633 464 
Q 2878 531 3122 666 
L 3122 134 
Q 2881 22 2623 -34 
Q 2366 -91 2075 -91 
Q 1284 -91 818 406 
Q 353 903 353 1747 
Q 353 2603 823 3093 
Q 1294 3584 2113 3584 
Q 2378 3584 2631 3529 
Q 2884 3475 3122 3366 
z
" transform="scale(0.015625)"/>
       <path id="DejaVuSans-6f" d="M 1959 3097 
Q 1497 3097 1228 2736 
Q 959 2375 959 1747 
Q 959 1119 1226 758 
Q 1494 397 1959 397 
Q 2419 397 2687 759 
Q 2956 1122 2956 1747 
Q 2956 2369 2687 2733 
Q 2419 3097 1959 3097 
z
M 1959 3584 
Q 2709 3584 3137 3096 
Q 3566 2609 3566 1747 
Q 3566 888 3137 398 
Q 2709 -91 1959 -91 
Q 1206 -91 779 398 
Q 353 888 353 1747 
Q 353 2609 779 3096 
Q 1206 3584 1959 3584 
z
" transform="scale(0.015625)"/>
       <path id="DejaVuSans-72" d="M 2631 2963 
Q 2534 3019 2420 3045 
Q 2306 3072 2169 3072 
Q 1681 3072 1420 2755 
Q 1159 2438 1159 1844 
L 1159 0 
L 581 0 
L 581 3500 
L 1159 3500 
L 1159 2956 
Q 1341 3275 1631 3429 
Q 1922 3584 2338 3584 
Q 2397 3584 2469 3576 
Q 2541 3569 2628 3553 
L 2631 2963 
z
" transform="scale(0.015625)"/>
       <path id="DejaVuSans-65" d="M 3597 1894 
L 3597 1613 
L 953 1613 
Q 991 1019 1311 708 
Q 1631 397 2203 397 
Q 2534 397 2845 478 
Q 3156 559 3463 722 
L 3463 178 
Q 3153 47 2828 -22 
Q 2503 -91 2169 -91 
Q 1331 -91 842 396 
Q 353 884 353 1716 
Q 353 2575 817 3079 
Q 1281 3584 2069 3584 
Q 2775 3584 3186 3129 
Q 3597 2675 3597 1894 
z
M 3022 2063 
Q 3016 2534 2758 2815 
Q 2500 3097 2075 3097 
Q 1594 3097 1305 2825 
Q 1016 2553 972 2059 
L 3022 2063 
z
" transform="scale(0.015625)"/>
      </defs>
      <use xlink:href="#DejaVuSans-53"/>
      <use xlink:href="#DejaVuSans-63" x="63.476562"/>
      <use xlink:href="#DejaVuSans-6f" x="118.457031"/>
      <use xlink:href="#DejaVuSans-72" x="179.638672"/>
      <use xlink:href="#DejaVuSans-65" x="218.501953"/>
     </g>
    </g>
   </g>
   <g id="matplotlib.axis_2">
    <g id="ytick_1">
     <g id="line2d_6">
      <defs>
       <path id="m5ea6839969" d="M 0 0 
L -3.5 0 
" style="stroke: #000000; stroke-width: 0.8"/>
      </defs>
      <g>
       <use xlink:href="#m5ea6839969" x="57.6" y="307.584" style="stroke: #000000; stroke-width: 0.8"/>
      </g>
     </g>
     <g id="text_7">
      <!-- 0 -->
      <g transform="translate(44.2375 311.383219)scale(0.1 -0.1)">
       <use xlink:href="#DejaVuSans-30"/>
      </g>
     </g>
    </g>
    <g id="ytick_2">
     <g id="line2d_7">
      <g>
       <use xlink:href="#m5ea6839969" x="57.6" y="275.584" style="stroke: #000000; stroke-width: 0.8"/>
      </g>
     </g>
     <g id="text_8">
      <!-- 50 -->
      <g transform="translate(37.875 279.383219)scale(0.1 -0.1)">
       <use xlink:href="#DejaVuSans-35"/>
       <use xlink:href="#DejaVuSans-30" x="63.623047"/>
      </g>
     </g>
    </g>
    <g id="ytick_3">
     <g id="line2d_8">
      <g>
       <use xlink:href="#m5ea6839969" x="57.6" y="243.584" style="stroke: #000000; stroke-width: 0.8"/>
      </g>
     </g>
     <g id="text_9">
      <!-- 100 -->
      <g transform="translate(31.5125 247.383219)scale(0.1 -0.1)">
       <use xlink:href="#DejaVuSans-31"/>
       <use xlink:href="#DejaVuSans-30" x="63.623047"/>
       <use xlink:href="#DejaVuSans-30" x="127.246094"/>
      </g>
     </g>
    </g>
    <g id="ytick_4">
     <g id="line2d_9">
      <g>
       <use xlink:href="#m5ea6839969" x="57.6" y="211.584" style="stroke: #000000; stroke-width: 0.8"/>
      </g>
     </g>
     <g id="text_10">
      <!-- 150 -->
      <g transform="translate(31.5125 215.383219)scale(0.1 -0.1)">
       <use xlink:href="#DejaVuSans-31"/>
       <use xlink:href="#DejaVuSans-35" x="63.623047"/>
       <use xlink:href="#DejaVuSans-30" x="127.246094"/>
      </g>
     </g>
    </g>
    <g id="ytick_5">
     <g id="line2d_10">
      <g>
       <use xlink:href="#m5ea6839969" x="57.6" y="179.584" style="stroke: #000000; stroke-width: 0.8"/>
      </g>
     </g>
     <g id="text_11">
      <!-- 200 -->
      <g transform="translate(31.5125 183.383219)scale(0.1 -0.1)">
       <use xlink:href="#DejaVuSans-32"/>
       <use xlink:href="#DejaVuSans-30" x="63.623047"/>
       <use xlink:href="#DejaVuSans-30" x="127.246094"/>
      </g>
     </g>
    </g>
    <g id="ytick_6">
     <g id="line2d_11">
      <g>
       <use xlink:href="#m5ea6839969" x="57.6" y="147.584" style="stroke: #000000; stroke-width: 0.8"/>
      </g>
     </g>
     <g id="text_12">
      <!-- 250 -->
      <g transform="translate(31.5125 151.383219)scale(0.1 -0.1)">
       <use xlink:href="#DejaVuSans-32"/>
       <use xlink:href="#DejaVuSans-35" x="63.623047"/>
       <use xlink:href="#DejaVuSans-30" x="127.246094"/>
      </g>
     </g>
    </g>
    <g id="ytick_7">
     <g id="line2d_12">
      <g>
       <use xlink:href="#m5ea6839969" x="57.6" y="115.584" style="stroke: #000000; stroke-width: 0.8"/>
      </g>
     </g>
     <g id="text_13">
      <!-- 300 -->
      <g transform="translate(31.5125 119.383219)scale(0.1 -0.1)">
       <defs>
        <path id="DejaVuSans-33" d="M 2597 2516 
Q 3050 2419 3304 2112 
Q 3559 1806 3559 1356 
Q 3559 666 3084 287 
Q 2609 -91 1734 -91 
Q 1441 -91 1130 -33 
Q 819 25 488 141 
L 488 750 
Q 750 597 1062 519 
Q 1375 441 1716 441 
Q 2309 441 2620 675 
Q 2931 909 2931 1356 
Q 2931 1769 2642 2001 
Q 2353 2234 1838 2234 
L 1294 2234 
L 1294 2753 
L 1863 2753 
Q 2328 2753 2575 2939 
Q 2822 3125 2822 3475 
Q 2822 3834 2567 4026 
Q 2313 4219 1838 4219 
Q 1578 4219 1281 4162 
Q 984 4106 628 3988 
L 628 4550 
Q 988 4650 1302 4700 
Q 1616 4750 1894 4750 
Q 2613 4750 3031 4423 
Q 3450 4097 3450 3541 
Q 3450 3153 3228 2886 
Q 3006 2619 2597 2516 
z
" transform="scale(0.015625)"/>
       </defs>
       <use xlink:href="#DejaVuSans-33"/>
       <use xlink:href="#DejaVuSans-30" x="63.623047"/>
       <use xlink:href="#DejaVuSans-30" x="127.246094"/>
      </g>
     </g>
    </g>
    <g id="ytick_8">
     <g id="line2d_13">
      <g>
       <use xlink:href="#m5ea6839969" x="57.6" y="83.584" style="stroke: #000000; stroke-width: 0.8"/>
      </g>
     </g>
     <g id="text_14">
      <!-- 350 -->
      <g transform="translate(31.5125 87.383219)scale(0.1 -0.1)">
       <use xlink:href="#DejaVuSans-33"/>
       <use xlink:href="#DejaVuSans-35" x="63.623047"/>
       <use xlink:href="#DejaVuSans-30" x="127.246094"/>
      </g>
     </g>
    </g>
    <g id="ytick_9">
     <g id="line2d_14">
      <g>
       <use xlink:href="#m5ea6839969" x="57.6" y="51.584" style="stroke: #000000; stroke-width: 0.8"/>
      </g>
     </g>
     <g id="text_15">
      <!-- 400 -->
      <g transform="translate(31.5125 55.383219)scale(0.1 -0.1)">
       <defs>
        <path id="DejaVuSans-34" d="M 2419 4116 
L 825 1625 
L 2419 1625 
L 2419 4116 
z
M 2253 4666 
L 3047 4666 
L 3047 1625 
L 3713 1625 
L 3713 1100 
L 3047 1100 
L 3047 0 
L 2419 0 
L 2419 1100 
L 313 1100 
L 313 1709 
L 2253 4666 
z
" transform="scale(0.015625)"/>
       </defs>
       <use xlink:href="#DejaVuSans-34"/>
       <use xlink:href="#DejaVuSans-30" x="63.623047"/>
       <use xlink:href="#DejaVuSans-30" x="127.246094"/>
      </g>
     </g>
    </g>
    <g id="text_16">
     <!-- Number of crosslinks -->
     <g transform="translate(25.432812 227.019406)rotate(-90)scale(0.1 -0.1)">
      <defs>
       <path id="DejaVuSans-4e" d="M 628 4666 
L 1478 4666 
L 3547 763 
L 3547 4666 
L 4159 4666 
L 4159 0 
L 3309 0 
L 1241 3903 
L 1241 0 
L 628 0 
L 628 4666 
z
" transform="scale(0.015625)"/>
       <path id="DejaVuSans-75" d="M 544 1381 
L 544 3500 
L 1119 3500 
L 1119 1403 
Q 1119 906 1312 657 
Q 1506 409 1894 409 
Q 2359 409 2629 706 
Q 2900 1003 2900 1516 
L 2900 3500 
L 3475 3500 
L 3475 0 
L 2900 0 
L 2900 538 
Q 2691 219 2414 64 
Q 2138 -91 1772 -91 
Q 1169 -91 856 284 
Q 544 659 544 1381 
z
M 1991 3584 
L 1991 3584 
z
" transform="scale(0.015625)"/>
       <path id="DejaVuSans-6d" d="M 3328 2828 
Q 3544 3216 3844 3400 
Q 4144 3584 4550 3584 
Q 5097 3584 5394 3201 
Q 5691 2819 5691 2113 
L 5691 0 
L 5113 0 
L 5113 2094 
Q 5113 2597 4934 2840 
Q 4756 3084 4391 3084 
Q 3944 3084 3684 2787 
Q 3425 2491 3425 1978 
L 3425 0 
L 2847 0 
L 2847 2094 
Q 2847 2600 2669 2842 
Q 2491 3084 2119 3084 
Q 1678 3084 1418 2786 
Q 1159 2488 1159 1978 
L 1159 0 
L 581 0 
L 581 3500 
L 1159 3500 
L 1159 2956 
Q 1356 3278 1631 3431 
Q 1906 3584 2284 3584 
Q 2666 3584 2933 3390 
Q 3200 3197 3328 2828 
z
" transform="scale(0.015625)"/>
       <path id="DejaVuSans-62" d="M 3116 1747 
Q 3116 2381 2855 2742 
Q 2594 3103 2138 3103 
Q 1681 3103 1420 2742 
Q 1159 2381 1159 1747 
Q 1159 1113 1420 752 
Q 1681 391 2138 391 
Q 2594 391 2855 752 
Q 3116 1113 3116 1747 
z
M 1159 2969 
Q 1341 3281 1617 3432 
Q 1894 3584 2278 3584 
Q 2916 3584 3314 3078 
Q 3713 2572 3713 1747 
Q 3713 922 3314 415 
Q 2916 -91 2278 -91 
Q 1894 -91 1617 61 
Q 1341 213 1159 525 
L 1159 0 
L 581 0 
L 581 4863 
L 1159 4863 
L 1159 2969 
z
" transform="scale(0.015625)"/>
       <path id="DejaVuSans-20" transform="scale(0.015625)"/>
       <path id="DejaVuSans-66" d="M 2375 4863 
L 2375 4384 
L 1825 4384 
Q 1516 4384 1395 4259 
Q 1275 4134 1275 3809 
L 1275 3500 
L 2222 3500 
L 2222 3053 
L 1275 3053 
L 1275 0 
L 697 0 
L 697 3053 
L 147 3053 
L 147 3500 
L 697 3500 
L 697 3744 
Q 697 4328 969 4595 
Q 1241 4863 1831 4863 
L 2375 4863 
z
" transform="scale(0.015625)"/>
       <path id="DejaVuSans-73" d="M 2834 3397 
L 2834 2853 
Q 2591 2978 2328 3040 
Q 2066 3103 1784 3103 
Q 1356 3103 1142 2972 
Q 928 2841 928 2578 
Q 928 2378 1081 2264 
Q 1234 2150 1697 2047 
L 1894 2003 
Q 2506 1872 2764 1633 
Q 3022 1394 3022 966 
Q 3022 478 2636 193 
Q 2250 -91 1575 -91 
Q 1294 -91 989 -36 
Q 684 19 347 128 
L 347 722 
Q 666 556 975 473 
Q 1284 391 1588 391 
Q 1994 391 2212 530 
Q 2431 669 2431 922 
Q 2431 1156 2273 1281 
Q 2116 1406 1581 1522 
L 1381 1569 
Q 847 1681 609 1914 
Q 372 2147 372 2553 
Q 372 3047 722 3315 
Q 1072 3584 1716 3584 
Q 2034 3584 2315 3537 
Q 2597 3491 2834 3397 
z
" transform="scale(0.015625)"/>
       <path id="DejaVuSans-6c" d="M 603 4863 
L 1178 4863 
L 1178 0 
L 603 0 
L 603 4863 
z
" transform="scale(0.015625)"/>
       <path id="DejaVuSans-69" d="M 603 3500 
L 1178 3500 
L 1178 0 
L 603 0 
L 603 3500 
z
M 603 4863 
L 1178 4863 
L 1178 4134 
L 603 4134 
L 603 4863 
z
" transform="scale(0.015625)"/>
       <path id="DejaVuSans-6e" d="M 3513 2113 
L 3513 0 
L 2938 0 
L 2938 2094 
Q 2938 2591 2744 2837 
Q 2550 3084 2163 3084 
Q 1697 3084 1428 2787 
Q 1159 2491 1159 1978 
L 1159 0 
L 581 0 
L 581 3500 
L 1159 3500 
L 1159 2956 
Q 1366 3272 1645 3428 
Q 1925 3584 2291 3584 
Q 2894 3584 3203 3211 
Q 3513 2838 3513 2113 
z
" transform="scale(0.015625)"/>
       <path id="DejaVuSans-6b" d="M 581 4863 
L 1159 4863 
L 1159 1991 
L 2875 3500 
L 3609 3500 
L 1753 1863 
L 3688 0 
L 2938 0 
L 1159 1709 
L 1159 0 
L 581 0 
L 581 4863 
z
" transform="scale(0.015625)"/>
      </defs>
      <use xlink:href="#DejaVuSans-4e"/>
      <use xlink:href="#DejaVuSans-75" x="74.804688"/>
      <use xlink:href="#DejaVuSans-6d" x="138.183594"/>
      <use xlink:href="#DejaVuSans-62" x="235.595703"/>
      <use xlink:href="#DejaVuSans-65" x="299.072266"/>
      <use xlink:href="#DejaVuSans-72" x="360.595703"/>
      <use xlink:href="#DejaVuSans-20" x="401.708984"/>
      <use xlink:href="#DejaVuSans-6f" x="433.496094"/>
      <use xlink:href="#DejaVuSans-66" x="494.677734"/>
      <use xlink:href="#DejaVuSans-20" x="529.882812"/>
      <use xlink:href="#DejaVuSans-63" x="561.669922"/>
      <use xlink:href="#DejaVuSans-72" x="616.650391"/>
      <use xlink:href="#DejaVuSans-6f" x="655.513672"/>
      <use xlink:href="#DejaVuSans-73" x="716.695312"/>
      <use xlink:href="#DejaVuSans-73" x="768.794922"/>
      <use xlink:href="#DejaVuSans-6c" x="820.894531"/>
      <use xlink:href="#DejaVuSans-69" x="848.677734"/>
      <use xlink:href="#DejaVuSans-6e" x="876.460938"/>
      <use xlink:href="#DejaVuSans-6b" x="939.839844"/>
      <use xlink:href="#DejaVuSans-73" x="997.75"/>
     </g>
    </g>
   </g>
   <g id="patch_3">
    <path d="M 57.6 307.584 
L 57.6 41.472 
" style="fill: none; stroke: #000000; stroke-width: 0.8; stroke-linejoin: miter; stroke-linecap: square"/>
   </g>
   <g id="patch_4">
    <path d="M 414.72 307.584 
L 414.72 41.472 
" style="fill: none; stroke: #000000; stroke-width: 0.8; stroke-linejoin: miter; stroke-linecap: square"/>
   </g>
   <g id="patch_5">
    <path d="M 57.6 307.584 
L 414.72 307.584 
" style="fill: none; stroke: #000000; stroke-width: 0.8; stroke-linejoin: miter; stroke-linecap: square"/>
   </g>
   <g id="patch_6">
    <path d="M 57.6 41.472 
L 414.72 41.472 
" style="fill: none; stroke: #000000; stroke-width: 0.8; stroke-linejoin: miter; stroke-linecap: square"/>
   </g>
   <g id="legend_1">
    <g id="patch_7">
     <path d="M 278.598125 93.506375 
L 407.72 93.506375 
Q 409.72 93.506375 409.72 91.506375 
L 409.72 48.472 
Q 409.72 46.472 407.72 46.472 
L 278.598125 46.472 
Q 276.598125 46.472 276.598125 48.472 
L 276.598125 91.506375 
Q 276.598125 93.506375 278.598125 93.506375 
z
" style="fill: #ffffff; opacity: 0.8; stroke: #cccccc; stroke-linejoin: miter"/>
    </g>
    <g id="patch_8">
     <path d="M 280.598125 58.070438 
L 300.598125 58.070438 
L 300.598125 51.070438 
L 280.598125 51.070438 
z
" style="fill: #008000"/>
    </g>
    <g id="text_17">
     <!-- correct -->
     <g transform="translate(308.598125 58.070438)scale(0.1 -0.1)">
      <defs>
       <path id="DejaVuSans-74" d="M 1172 4494 
L 1172 3500 
L 2356 3500 
L 2356 3053 
L 1172 3053 
L 1172 1153 
Q 1172 725 1289 603 
Q 1406 481 1766 481 
L 2356 481 
L 2356 0 
L 1766 0 
Q 1100 0 847 248 
Q 594 497 594 1153 
L 594 3053 
L 172 3053 
L 172 3500 
L 594 3500 
L 594 4494 
L 1172 4494 
z
" transform="scale(0.015625)"/>
      </defs>
      <use xlink:href="#DejaVuSans-63"/>
      <use xlink:href="#DejaVuSans-6f" x="54.980469"/>
      <use xlink:href="#DejaVuSans-72" x="116.162109"/>
      <use xlink:href="#DejaVuSans-72" x="155.525391"/>
      <use xlink:href="#DejaVuSans-65" x="194.388672"/>
      <use xlink:href="#DejaVuSans-63" x="255.912109"/>
      <use xlink:href="#DejaVuSans-74" x="310.892578"/>
     </g>
    </g>
    <g id="patch_9">
     <path d="M 280.598125 72.748563 
L 300.598125 72.748563 
L 300.598125 65.748563 
L 280.598125 65.748563 
z
" style="fill: #7cfc00"/>
    </g>
    <g id="text_18">
     <!-- correct homeotypic -->
     <g transform="translate(308.598125 72.748563)scale(0.1 -0.1)">
      <defs>
       <path id="DejaVuSans-68" d="M 3513 2113 
L 3513 0 
L 2938 0 
L 2938 2094 
Q 2938 2591 2744 2837 
Q 2550 3084 2163 3084 
Q 1697 3084 1428 2787 
Q 1159 2491 1159 1978 
L 1159 0 
L 581 0 
L 581 4863 
L 1159 4863 
L 1159 2956 
Q 1366 3272 1645 3428 
Q 1925 3584 2291 3584 
Q 2894 3584 3203 3211 
Q 3513 2838 3513 2113 
z
" transform="scale(0.015625)"/>
       <path id="DejaVuSans-79" d="M 2059 -325 
Q 1816 -950 1584 -1140 
Q 1353 -1331 966 -1331 
L 506 -1331 
L 506 -850 
L 844 -850 
Q 1081 -850 1212 -737 
Q 1344 -625 1503 -206 
L 1606 56 
L 191 3500 
L 800 3500 
L 1894 763 
L 2988 3500 
L 3597 3500 
L 2059 -325 
z
" transform="scale(0.015625)"/>
       <path id="DejaVuSans-70" d="M 1159 525 
L 1159 -1331 
L 581 -1331 
L 581 3500 
L 1159 3500 
L 1159 2969 
Q 1341 3281 1617 3432 
Q 1894 3584 2278 3584 
Q 2916 3584 3314 3078 
Q 3713 2572 3713 1747 
Q 3713 922 3314 415 
Q 2916 -91 2278 -91 
Q 1894 -91 1617 61 
Q 1341 213 1159 525 
z
M 3116 1747 
Q 3116 2381 2855 2742 
Q 2594 3103 2138 3103 
Q 1681 3103 1420 2742 
Q 1159 2381 1159 1747 
Q 1159 1113 1420 752 
Q 1681 391 2138 391 
Q 2594 391 2855 752 
Q 3116 1113 3116 1747 
z
" transform="scale(0.015625)"/>
      </defs>
      <use xlink:href="#DejaVuSans-63"/>
      <use xlink:href="#DejaVuSans-6f" x="54.980469"/>
      <use xlink:href="#DejaVuSans-72" x="116.162109"/>
      <use xlink:href="#DejaVuSans-72" x="155.525391"/>
      <use xlink:href="#DejaVuSans-65" x="194.388672"/>
      <use xlink:href="#DejaVuSans-63" x="255.912109"/>
      <use xlink:href="#DejaVuSans-74" x="310.892578"/>
      <use xlink:href="#DejaVuSans-20" x="350.101562"/>
      <use xlink:href="#DejaVuSans-68" x="381.888672"/>
      <use xlink:href="#DejaVuSans-6f" x="445.267578"/>
      <use xlink:href="#DejaVuSans-6d" x="506.449219"/>
      <use xlink:href="#DejaVuSans-65" x="603.861328"/>
      <use xlink:href="#DejaVuSans-6f" x="665.384766"/>
      <use xlink:href="#DejaVuSans-74" x="726.566406"/>
      <use xlink:href="#DejaVuSans-79" x="765.775391"/>
      <use xlink:href="#DejaVuSans-70" x="824.955078"/>
      <use xlink:href="#DejaVuSans-69" x="888.431641"/>
      <use xlink:href="#DejaVuSans-63" x="916.214844"/>
     </g>
    </g>
    <g id="patch_10">
     <path d="M 280.598125 87.426688 
L 300.598125 87.426688 
L 300.598125 80.426688 
L 280.598125 80.426688 
z
" style="fill: #ff0000"/>
    </g>
    <g id="text_19">
     <!-- false -->
     <g transform="translate(308.598125 87.426688)scale(0.1 -0.1)">
      <defs>
       <path id="DejaVuSans-61" d="M 2194 1759 
Q 1497 1759 1228 1600 
Q 959 1441 959 1056 
Q 959 750 1161 570 
Q 1363 391 1709 391 
Q 2188 391 2477 730 
Q 2766 1069 2766 1631 
L 2766 1759 
L 2194 1759 
z
M 3341 1997 
L 3341 0 
L 2766 0 
L 2766 531 
Q 2569 213 2275 61 
Q 1981 -91 1556 -91 
Q 1019 -91 701 211 
Q 384 513 384 1019 
Q 384 1609 779 1909 
Q 1175 2209 1959 2209 
L 2766 2209 
L 2766 2266 
Q 2766 2663 2505 2880 
Q 2244 3097 1772 3097 
Q 1472 3097 1187 3025 
Q 903 2953 641 2809 
L 641 3341 
Q 956 3463 1253 3523 
Q 1550 3584 1831 3584 
Q 2591 3584 2966 3190 
Q 3341 2797 3341 1997 
z
" transform="scale(0.015625)"/>
      </defs>
      <use xlink:href="#DejaVuSans-66"/>
      <use xlink:href="#DejaVuSans-61" x="35.205078"/>
      <use xlink:href="#DejaVuSans-6c" x="96.484375"/>
      <use xlink:href="#DejaVuSans-73" x="124.267578"/>
      <use xlink:href="#DejaVuSans-65" x="176.367188"/>
     </g>
    </g>
   </g>
  </g>
 </g>
 <defs>
  <clipPath id="pa85db41ebb">
   <rect x="57.6" y="41.472" width="357.12" height="266.112"/>
  </clipPath>
 </defs>
</svg>
