<?xml version="1.0" encoding="utf-8" standalone="no"?>
<!DOCTYPE svg PUBLIC "-//W3C//DTD SVG 1.1//EN"
  "http://www.w3.org/Graphics/SVG/1.1/DTD/svg11.dtd">
<svg xmlns:xlink="http://www.w3.org/1999/xlink" width="460.8pt" height="345.6pt" viewBox="0 0 460.8 345.6" xmlns="http://www.w3.org/2000/svg" version="1.1">
 <metadata>
  <rdf:RDF xmlns:dc="http://purl.org/dc/elements/1.1/" xmlns:cc="http://creativecommons.org/ns#" xmlns:rdf="http://www.w3.org/1999/02/22-rdf-syntax-ns#">
   <cc:Work>
    <dc:type rdf:resource="http://purl.org/dc/dcmitype/StillImage"/>
    <dc:date>2022-08-11T13:05:04.514903</dc:date>
    <dc:format>image/svg+xml</dc:format>
    <dc:creator>
     <cc:Agent>
      <dc:title>Matplotlib v3.5.1, https://matplotlib.org/</dc:title>
     </cc:Agent>
    </dc:creator>
   </cc:Work>
  </rdf:RDF>
 </metadata>
 <defs>
  <style type="text/css">*{stroke-linejoin: round; stroke-linecap: butt}</style>
 </defs>
 <g id="figure_1">
  <g id="patch_1">
   <path d="M 0 345.6 
L 460.8 345.6 
L 460.8 0 
L 0 0 
z
" style="fill: #ffffff"/>
  </g>
  <g id="axes_1">
   <g id="patch_2">
    <path d="M 57.6 307.584 
L 414.72 307.584 
L 414.72 41.472 
L 57.6 41.472 
z
" style="fill: #ffffff"/>
   </g>
   <g id="PolyCollection_1">
    <path d="M 73.832727 97.414244 
L 73.832727 307.584 
L 74.115953 307.584 
L 74.350346 307.584 
L 75.053527 307.584 
L 75.756707 307.584 
L 76.567318 307.584 
L 78.032278 307.584 
L 78.364335 307.584 
L 79.067516 307.584 
L 80.014856 307.584 
L 80.786401 307.584 
L 81.509115 307.584 
L 81.79234 307.584 
L 81.821639 307.584 
L 82.983841 307.584 
L 84.683194 307.584 
L 85.093382 307.584 
L 85.552403 307.584 
L 85.903993 307.584 
L 86.089555 307.584 
L 87.281055 307.584 
L 90.904388 307.584 
L 92.115421 307.584 
L 92.496311 307.584 
L 93.150659 307.584 
L 95.221135 307.584 
L 95.895016 307.584 
L 97.32091 307.584 
L 98.619841 307.584 
L 99.205825 307.584 
L 102.086912 307.584 
L 102.858457 307.584 
L 103.239347 307.584 
L 103.512806 307.584 
L 104.040191 307.584 
L 105.368421 307.584 
L 106.013003 307.584 
L 106.091134 307.584 
L 106.608753 307.584 
L 106.83338 307.584 
L 107.272868 307.584 
L 108.347172 307.584 
L 108.933156 307.584 
L 109.538672 307.584 
L 109.812131 307.584 
L 110.788771 307.584 
L 111.364988 307.584 
L 111.784943 307.584 
L 115.545006 307.584 
L 115.662203 307.584 
L 117.928007 307.584 
L 119.334368 307.584 
L 120.46727 307.584 
L 121.55134 307.584 
L 122.098258 307.584 
L 122.938168 307.584 
L 123.758545 307.584 
L 124.705886 307.584 
L 125.389533 307.584 
L 126.161079 307.584 
L 126.336874 307.584 
L 126.395472 307.584 
L 126.541968 307.584 
L 127.557673 307.584 
L 128.338985 307.584 
L 129.100764 307.584 
L 129.755112 307.584 
L 130.243432 307.584 
L 130.399695 307.584 
L 130.663387 307.584 
L 130.761051 307.584 
L 131.376334 307.584 
L 131.854888 307.584 
L 132.567835 307.584 
L 134.472282 307.584 
L 134.599245 307.584 
L 135.116864 307.584 
L 135.712614 307.584 
L 135.722381 307.584 
L 137.509631 307.584 
L 137.577996 307.584 
L 138.740197 307.584 
L 138.964824 307.584 
L 138.974591 307.584 
L 140.283288 307.584 
L 140.468849 307.584 
L 140.869271 307.584 
L 142.304932 307.584 
L 142.490493 307.584 
L 142.636989 307.584 
L 144.131248 307.584 
L 144.687932 307.584 
L 145.234851 307.584 
L 146.084527 307.584 
L 146.299388 307.584 
L 146.426351 307.584 
L 146.865839 307.584 
L 147.012335 307.584 
L 147.754581 307.584 
L 148.62379 307.584 
L 148.701921 307.584 
L 149.141409 307.584 
L 149.209774 307.584 
L 150.137581 307.584 
L 150.186413 307.584 
L 150.459873 307.584 
L 150.518471 307.584 
L 151.104455 307.584 
L 152.764742 307.584 
L 153.008902 307.584 
L 153.038201 307.584 
L 153.135865 307.584 
L 153.663251 307.584 
L 154.034374 307.584 
L 154.405497 307.584 
L 154.737554 307.584 
L 154.835218 307.584 
L 155.665362 307.584 
L 156.036485 307.584 
L 157.061956 307.584 
L 157.345182 307.584 
L 157.765137 307.584 
L 158.253457 307.584 
L 158.439018 307.584 
L 158.478084 307.584 
L 158.556215 307.584 
L 159.22033 307.584 
L 159.396125 307.584 
L 159.679351 307.584 
L 160.079773 307.584 
L 160.529027 307.584 
L 160.54856 307.584 
L 160.988048 307.584 
L 161.408003 307.584 
L 161.515433 307.584 
L 162.267446 307.584 
L 162.394409 307.584 
L 163.859368 307.584 
L 164.15236 307.584 
L 164.425819 307.584 
L 164.523483 307.584 
L 165.109467 307.584 
L 166.476762 307.584 
L 167.013914 307.584 
L 167.521767 307.584 
L 167.629197 307.584 
L 167.638964 307.584 
L 168.537472 307.584 
L 168.859763 307.584 
L 168.889062 307.584 
L 168.898829 307.584 
L 169.426214 307.584 
L 169.46528 307.584 
L 169.943833 307.584 
L 170.520051 307.584 
L 171.125567 307.584 
L 171.311129 307.584 
L 171.418559 307.584 
L 171.516223 307.584 
L 172.678424 307.584 
L 172.971416 307.584 
L 173.518334 307.584 
L 173.752728 307.584 
L 174.485207 307.584 
L 174.661003 307.584 
L 175.432548 307.584 
L 175.696241 307.584 
L 175.83297 307.584 
L 176.946339 307.584 
L 177.014704 307.584 
L 177.376061 307.584 
L 177.40536 307.584 
L 177.874147 307.584 
L 177.971811 307.584 
L 177.981577 307.584 
L 178.870319 307.584 
L 179.094946 307.584 
L 179.495369 307.584 
L 179.671164 307.584 
L 179.837193 307.584 
L 180.179016 307.584 
L 180.27668 307.584 
L 182.102997 307.584 
L 182.923374 307.584 
L 183.577722 307.584 
L 184.300436 307.584 
L 184.485997 307.584 
L 184.495764 307.584 
L 184.525063 307.584 
L 184.85712 307.584 
L 185.091514 307.584 
L 185.111047 307.584 
L 185.355207 307.584 
L 185.570067 307.584 
L 185.863059 307.584 
L 186.390445 307.584 
L 186.400211 307.584 
L 187.210822 307.584 
L 187.26942 307.584 
L 187.611244 307.584 
L 187.640543 307.584 
L 187.660076 307.584 
L 188.890642 307.584 
L 189.33013 307.584 
L 189.896581 307.584 
L 190.013778 307.584 
L 191.478737 307.584 
L 191.84986 307.584 
L 192.269815 307.584 
L 193.187856 307.584 
L 193.42225 307.584 
L 193.461315 307.584 
L 194.086365 307.584 
L 195.150902 307.584 
L 195.414595 307.584 
L 195.434127 307.584 
L 195.94198 307.584 
L 196.108009 307.584 
L 196.899087 307.584 
L 197.485071 307.584 
L 197.680399 307.584 
L 198.080821 307.584 
L 198.158952 307.584 
L 199.08676 307.584 
L 199.145358 307.584 
L 199.252788 307.584 
L 199.819239 307.584 
L 200.248961 307.584 
L 200.38569 307.584 
L 200.600551 307.584 
L 201.704154 307.584 
L 202.241306 307.584 
L 202.55383 307.584 
L 202.876121 307.584 
L 204.311782 307.584 
L 204.468044 307.584 
L 205.21029 307.584 
L 205.45445 307.584 
L 205.80604 307.584 
L 207.368664 307.584 
L 208.042545 307.584 
L 208.364836 307.584 
L 209.19498 307.584 
L 209.624701 307.584 
L 211.089661 307.584 
L 211.538915 307.584 
L 211.577981 307.584 
L 211.910038 307.584 
L 212.505788 307.584 
L 213.277333 307.584 
L 213.63869 307.584 
L 213.873084 307.584 
L 214.26374 307.584 
L 215.416174 307.584 
L 216.715105 307.584 
L 218.199597 307.584 
L 218.600019 307.584 
L 218.922311 307.584 
L 220.016147 307.584 
L 220.973254 307.584 
L 222.55541 307.584 
L 223.541816 307.584 
L 223.942238 307.584 
L 224.059435 307.584 
L 224.352427 307.584 
L 225.534161 307.584 
L 226.081079 307.584 
L 226.168977 307.584 
L 226.569399 307.584 
L 230.026703 307.584 
L 230.798248 307.584 
L 231.013109 307.584 
L 232.155778 307.584 
L 232.429237 307.584 
L 233.972327 307.584 
L 234.392282 307.584 
L 234.431348 307.584 
L 235.476352 307.584 
L 237.644492 307.584 
L 241.023665 307.584 
L 246.580745 307.584 
L 247.117897 307.584 
L 247.362057 307.584 
L 248.075003 307.584 
L 250.790062 307.584 
L 251.493242 307.584 
L 254.608723 307.584 
L 256.747563 307.584 
L 257.665605 307.584 
L 258.915703 307.584 
L 258.993835 307.584 
L 263.173852 307.584 
L 266.601857 307.584 
L 274.239179 307.584 
L 277.071434 307.584 
L 277.882045 307.584 
L 280.890095 307.584 
L 309.085681 307.584 
L 324.135698 307.584 
L 324.204063 307.584 
L 324.42869 307.584 
L 398.487273 307.584 
L 398.487273 306.811317 
L 398.487273 306.811317 
L 324.42869 306.038634 
L 324.204063 305.265951 
L 324.135698 304.493268 
L 309.085681 303.720585 
L 280.890095 302.947902 
L 277.882045 302.17522 
L 277.071434 301.402537 
L 274.239179 300.629854 
L 266.601857 299.084488 
L 263.173852 298.311805 
L 258.993835 297.539122 
L 258.915703 296.766439 
L 257.665605 295.993756 
L 256.747563 295.221073 
L 254.608723 294.44839 
L 251.493242 293.675707 
L 250.790062 292.903024 
L 248.075003 292.903024 
L 247.362057 292.130341 
L 247.117897 290.584976 
L 246.580745 289.812293 
L 241.023665 288.266927 
L 237.644492 287.494244 
L 235.476352 286.721561 
L 234.431348 285.948878 
L 234.392282 285.176195 
L 233.972327 284.403512 
L 232.429237 283.630829 
L 232.155778 282.858146 
L 231.013109 282.085463 
L 230.798248 281.31278 
L 230.026703 280.540098 
L 226.569399 279.767415 
L 226.168977 278.994732 
L 226.081079 278.222049 
L 225.534161 276.676683 
L 224.352427 275.904 
L 224.059435 275.131317 
L 223.942238 274.358634 
L 223.541816 273.585951 
L 222.55541 272.813268 
L 220.973254 271.267902 
L 220.016147 270.49522 
L 218.922311 269.722537 
L 218.600019 268.949854 
L 218.199597 268.177171 
L 216.715105 267.404488 
L 215.416174 266.631805 
L 214.26374 265.859122 
L 213.873084 265.086439 
L 213.63869 264.313756 
L 213.277333 263.541073 
L 212.505788 262.76839 
L 211.910038 261.995707 
L 211.577981 261.223024 
L 211.538915 260.450341 
L 211.089661 259.677659 
L 209.624701 258.904976 
L 209.19498 258.132293 
L 208.364836 257.35961 
L 208.042545 256.586927 
L 207.368664 255.814244 
L 205.80604 255.041561 
L 205.45445 254.268878 
L 205.21029 252.723512 
L 204.468044 251.950829 
L 204.311782 251.178146 
L 202.876121 250.405463 
L 202.55383 249.63278 
L 202.241306 248.860098 
L 201.704154 248.087415 
L 200.600551 246.542049 
L 200.38569 245.769366 
L 200.248961 245.769366 
L 199.819239 244.996683 
L 199.252788 244.224 
L 199.145358 243.451317 
L 199.08676 242.678634 
L 198.158952 241.905951 
L 198.080821 241.133268 
L 197.680399 240.360585 
L 197.485071 239.587902 
L 196.899087 238.81522 
L 196.108009 238.042537 
L 195.94198 237.269854 
L 195.434127 236.497171 
L 195.414595 235.724488 
L 195.150902 234.951805 
L 194.086365 234.179122 
L 193.461315 233.406439 
L 193.42225 232.633756 
L 193.187856 231.861073 
L 192.269815 231.08839 
L 191.84986 230.315707 
L 191.478737 229.543024 
L 190.013778 228.770341 
L 189.896581 227.997659 
L 189.33013 226.452293 
L 188.890642 225.67961 
L 187.660076 224.906927 
L 187.640543 224.134244 
L 187.611244 223.361561 
L 187.26942 222.588878 
L 187.210822 221.816195 
L 186.400211 221.043512 
L 186.390445 220.270829 
L 185.863059 219.498146 
L 185.570067 218.725463 
L 185.355207 217.95278 
L 185.111047 216.407415 
L 185.091514 215.634732 
L 184.85712 214.862049 
L 184.525063 214.089366 
L 184.495764 213.316683 
L 184.485997 212.544 
L 184.300436 211.771317 
L 183.577722 210.998634 
L 182.923374 210.225951 
L 182.102997 209.453268 
L 180.27668 208.680585 
L 180.179016 207.907902 
L 179.837193 207.907902 
L 179.671164 206.362537 
L 179.495369 205.589854 
L 179.094946 204.817171 
L 178.870319 204.044488 
L 177.981577 203.271805 
L 177.971811 202.499122 
L 177.874147 201.726439 
L 177.40536 200.953756 
L 177.376061 200.181073 
L 177.014704 199.40839 
L 176.946339 198.635707 
L 175.83297 197.863024 
L 175.696241 197.863024 
L 175.432548 197.090341 
L 174.661003 197.090341 
L 174.485207 196.317659 
L 173.752728 195.544976 
L 173.518334 194.772293 
L 172.971416 194.772293 
L 172.678424 193.99961 
L 171.516223 193.226927 
L 171.418559 192.454244 
L 171.311129 191.681561 
L 171.125567 190.908878 
L 170.520051 190.136195 
L 169.943833 189.363512 
L 169.46528 188.590829 
L 169.426214 187.818146 
L 168.898829 187.045463 
L 168.889062 186.27278 
L 168.859763 185.500098 
L 168.537472 184.727415 
L 167.638964 183.954732 
L 167.629197 183.182049 
L 167.521767 182.409366 
L 167.013914 182.409366 
L 166.476762 181.636683 
L 165.109467 180.864 
L 164.523483 180.091317 
L 164.425819 179.318634 
L 164.15236 178.545951 
L 163.859368 177.773268 
L 162.394409 177.000585 
L 162.267446 176.227902 
L 161.515433 175.45522 
L 161.408003 173.909854 
L 160.988048 173.137171 
L 160.54856 172.364488 
L 160.529027 171.591805 
L 160.079773 170.046439 
L 159.679351 169.273756 
L 159.396125 167.72839 
L 159.22033 166.955707 
L 158.556215 165.410341 
L 158.478084 164.637659 
L 158.439018 163.864976 
L 158.253457 163.092293 
L 157.765137 162.31961 
L 157.345182 162.31961 
L 157.061956 161.546927 
L 156.036485 160.774244 
L 155.665362 160.001561 
L 154.835218 159.228878 
L 154.737554 158.456195 
L 154.405497 157.683512 
L 154.034374 156.910829 
L 153.663251 156.138146 
L 153.135865 155.365463 
L 153.038201 154.59278 
L 153.008902 153.047415 
L 152.764742 152.274732 
L 151.104455 151.502049 
L 150.518471 151.502049 
L 150.459873 150.729366 
L 150.186413 149.956683 
L 150.137581 149.184 
L 149.209774 148.411317 
L 149.141409 147.638634 
L 148.701921 146.093268 
L 148.62379 145.320585 
L 147.754581 145.320585 
L 147.012335 144.547902 
L 146.865839 143.77522 
L 146.426351 143.002537 
L 146.299388 142.229854 
L 146.084527 141.457171 
L 145.234851 141.457171 
L 144.687932 140.684488 
L 144.131248 140.684488 
L 142.636989 139.911805 
L 142.490493 139.139122 
L 142.304932 138.366439 
L 140.869271 137.593756 
L 140.468849 137.593756 
L 140.283288 136.821073 
L 138.974591 136.04839 
L 138.964824 136.04839 
L 138.740197 135.275707 
L 137.577996 134.503024 
L 137.509631 133.730341 
L 135.722381 132.957659 
L 135.712614 132.957659 
L 135.116864 132.184976 
L 134.599245 131.412293 
L 134.472282 131.412293 
L 132.567835 130.63961 
L 131.854888 129.866927 
L 131.376334 129.866927 
L 130.761051 129.866927 
L 130.663387 129.866927 
L 130.399695 129.866927 
L 130.243432 129.094244 
L 129.755112 128.321561 
L 129.100764 127.548878 
L 128.338985 126.776195 
L 127.557673 126.003512 
L 126.541968 125.230829 
L 126.395472 124.458146 
L 126.336874 124.458146 
L 126.161079 124.458146 
L 125.389533 123.685463 
L 124.705886 122.91278 
L 123.758545 122.140098 
L 122.938168 122.140098 
L 122.098258 121.367415 
L 121.55134 121.367415 
L 120.46727 120.594732 
L 119.334368 119.822049 
L 117.928007 119.049366 
L 115.662203 119.049366 
L 115.545006 119.049366 
L 111.784943 118.276683 
L 111.364988 118.276683 
L 110.788771 117.504 
L 109.812131 116.731317 
L 109.538672 116.731317 
L 108.933156 115.958634 
L 108.347172 115.185951 
L 107.272868 114.413268 
L 106.83338 113.640585 
L 106.608753 113.640585 
L 106.091134 112.867902 
L 106.013003 112.09522 
L 105.368421 111.322537 
L 104.040191 110.549854 
L 103.512806 109.777171 
L 103.239347 109.777171 
L 102.858457 109.004488 
L 102.086912 108.231805 
L 99.205825 107.459122 
L 98.619841 107.459122 
L 97.32091 107.459122 
L 95.895016 107.459122 
L 95.221135 106.686439 
L 93.150659 106.686439 
L 92.496311 106.686439 
L 92.115421 105.141073 
L 90.904388 104.36839 
L 87.281055 104.36839 
L 86.089555 104.36839 
L 85.903993 104.36839 
L 85.552403 104.36839 
L 85.093382 103.595707 
L 84.683194 102.823024 
L 82.983841 102.050341 
L 81.821639 102.050341 
L 81.79234 101.277659 
L 81.509115 100.504976 
L 80.786401 100.504976 
L 80.014856 100.504976 
L 79.067516 100.504976 
L 78.364335 99.732293 
L 78.032278 99.732293 
L 76.567318 98.95961 
L 75.756707 98.95961 
L 75.053527 98.95961 
L 74.350346 98.186927 
L 74.115953 97.414244 
L 73.832727 97.414244 
z
" clip-path="url(#pec28c9ba10)" style="fill: #008000"/>
   </g>
   <g id="PolyCollection_2">
    <path d="M 73.832727 97.414244 
L 73.832727 97.414244 
L 74.115953 97.414244 
L 74.350346 98.186927 
L 75.053527 98.95961 
L 75.756707 98.95961 
L 76.567318 98.95961 
L 78.032278 99.732293 
L 78.364335 99.732293 
L 79.067516 100.504976 
L 80.014856 100.504976 
L 80.786401 100.504976 
L 81.509115 100.504976 
L 81.79234 101.277659 
L 81.821639 102.050341 
L 82.983841 102.050341 
L 84.683194 102.823024 
L 85.093382 103.595707 
L 85.552403 104.36839 
L 85.903993 104.36839 
L 86.089555 104.36839 
L 87.281055 104.36839 
L 90.904388 104.36839 
L 92.115421 105.141073 
L 92.496311 106.686439 
L 93.150659 106.686439 
L 95.221135 106.686439 
L 95.895016 107.459122 
L 97.32091 107.459122 
L 98.619841 107.459122 
L 99.205825 107.459122 
L 102.086912 108.231805 
L 102.858457 109.004488 
L 103.239347 109.777171 
L 103.512806 109.777171 
L 104.040191 110.549854 
L 105.368421 111.322537 
L 106.013003 112.09522 
L 106.091134 112.867902 
L 106.608753 113.640585 
L 106.83338 113.640585 
L 107.272868 114.413268 
L 108.347172 115.185951 
L 108.933156 115.958634 
L 109.538672 116.731317 
L 109.812131 116.731317 
L 110.788771 117.504 
L 111.364988 118.276683 
L 111.784943 118.276683 
L 115.545006 119.049366 
L 115.662203 119.049366 
L 117.928007 119.049366 
L 119.334368 119.822049 
L 120.46727 120.594732 
L 121.55134 121.367415 
L 122.098258 121.367415 
L 122.938168 122.140098 
L 123.758545 122.140098 
L 124.705886 122.91278 
L 125.389533 123.685463 
L 126.161079 124.458146 
L 126.336874 124.458146 
L 126.395472 124.458146 
L 126.541968 125.230829 
L 127.557673 126.003512 
L 128.338985 126.776195 
L 129.100764 127.548878 
L 129.755112 128.321561 
L 130.243432 129.094244 
L 130.399695 129.866927 
L 130.663387 129.866927 
L 130.761051 129.866927 
L 131.376334 129.866927 
L 131.854888 129.866927 
L 132.567835 130.63961 
L 134.472282 131.412293 
L 134.599245 131.412293 
L 135.116864 132.184976 
L 135.712614 132.957659 
L 135.722381 132.957659 
L 137.509631 133.730341 
L 137.577996 134.503024 
L 138.740197 135.275707 
L 138.964824 136.04839 
L 138.974591 136.04839 
L 140.283288 136.821073 
L 140.468849 137.593756 
L 140.869271 137.593756 
L 142.304932 138.366439 
L 142.490493 139.139122 
L 142.636989 139.911805 
L 144.131248 140.684488 
L 144.687932 140.684488 
L 145.234851 141.457171 
L 146.084527 141.457171 
L 146.299388 142.229854 
L 146.426351 143.002537 
L 146.865839 143.77522 
L 147.012335 144.547902 
L 147.754581 145.320585 
L 148.62379 145.320585 
L 148.701921 146.093268 
L 149.141409 147.638634 
L 149.209774 148.411317 
L 150.137581 149.184 
L 150.186413 149.956683 
L 150.459873 150.729366 
L 150.518471 151.502049 
L 151.104455 151.502049 
L 152.764742 152.274732 
L 153.008902 153.047415 
L 153.038201 154.59278 
L 153.135865 155.365463 
L 153.663251 156.138146 
L 154.034374 156.910829 
L 154.405497 157.683512 
L 154.737554 158.456195 
L 154.835218 159.228878 
L 155.665362 160.001561 
L 156.036485 160.774244 
L 157.061956 161.546927 
L 157.345182 162.31961 
L 157.765137 162.31961 
L 158.253457 163.092293 
L 158.439018 163.864976 
L 158.478084 164.637659 
L 158.556215 165.410341 
L 159.22033 166.955707 
L 159.396125 167.72839 
L 159.679351 169.273756 
L 160.079773 170.046439 
L 160.529027 171.591805 
L 160.54856 172.364488 
L 160.988048 173.137171 
L 161.408003 173.909854 
L 161.515433 175.45522 
L 162.267446 176.227902 
L 162.394409 177.000585 
L 163.859368 177.773268 
L 164.15236 178.545951 
L 164.425819 179.318634 
L 164.523483 180.091317 
L 165.109467 180.864 
L 166.476762 181.636683 
L 167.013914 182.409366 
L 167.521767 182.409366 
L 167.629197 183.182049 
L 167.638964 183.954732 
L 168.537472 184.727415 
L 168.859763 185.500098 
L 168.889062 186.27278 
L 168.898829 187.045463 
L 169.426214 187.818146 
L 169.46528 188.590829 
L 169.943833 189.363512 
L 170.520051 190.136195 
L 171.125567 190.908878 
L 171.311129 191.681561 
L 171.418559 192.454244 
L 171.516223 193.226927 
L 172.678424 193.99961 
L 172.971416 194.772293 
L 173.518334 194.772293 
L 173.752728 195.544976 
L 174.485207 196.317659 
L 174.661003 197.090341 
L 175.432548 197.090341 
L 175.696241 197.863024 
L 175.83297 197.863024 
L 176.946339 198.635707 
L 177.014704 199.40839 
L 177.376061 200.181073 
L 177.40536 200.953756 
L 177.874147 201.726439 
L 177.971811 202.499122 
L 177.981577 203.271805 
L 178.870319 204.044488 
L 179.094946 204.817171 
L 179.495369 205.589854 
L 179.671164 206.362537 
L 179.837193 207.907902 
L 180.179016 207.907902 
L 180.27668 208.680585 
L 182.102997 209.453268 
L 182.923374 210.225951 
L 183.577722 210.998634 
L 184.300436 211.771317 
L 184.485997 212.544 
L 184.495764 213.316683 
L 184.525063 214.089366 
L 184.85712 214.862049 
L 185.091514 215.634732 
L 185.111047 216.407415 
L 185.355207 217.95278 
L 185.570067 218.725463 
L 185.863059 219.498146 
L 186.390445 220.270829 
L 186.400211 221.043512 
L 187.210822 221.816195 
L 187.26942 222.588878 
L 187.611244 223.361561 
L 187.640543 224.134244 
L 187.660076 224.906927 
L 188.890642 225.67961 
L 189.33013 226.452293 
L 189.896581 227.997659 
L 190.013778 228.770341 
L 191.478737 229.543024 
L 191.84986 230.315707 
L 192.269815 231.08839 
L 193.187856 231.861073 
L 193.42225 232.633756 
L 193.461315 233.406439 
L 194.086365 234.179122 
L 195.150902 234.951805 
L 195.414595 235.724488 
L 195.434127 236.497171 
L 195.94198 237.269854 
L 196.108009 238.042537 
L 196.899087 238.81522 
L 197.485071 239.587902 
L 197.680399 240.360585 
L 198.080821 241.133268 
L 198.158952 241.905951 
L 199.08676 242.678634 
L 199.145358 243.451317 
L 199.252788 244.224 
L 199.819239 244.996683 
L 200.248961 245.769366 
L 200.38569 245.769366 
L 200.600551 246.542049 
L 201.704154 248.087415 
L 202.241306 248.860098 
L 202.55383 249.63278 
L 202.876121 250.405463 
L 204.311782 251.178146 
L 204.468044 251.950829 
L 205.21029 252.723512 
L 205.45445 254.268878 
L 205.80604 255.041561 
L 207.368664 255.814244 
L 208.042545 256.586927 
L 208.364836 257.35961 
L 209.19498 258.132293 
L 209.624701 258.904976 
L 211.089661 259.677659 
L 211.538915 260.450341 
L 211.577981 261.223024 
L 211.910038 261.995707 
L 212.505788 262.76839 
L 213.277333 263.541073 
L 213.63869 264.313756 
L 213.873084 265.086439 
L 214.26374 265.859122 
L 215.416174 266.631805 
L 216.715105 267.404488 
L 218.199597 268.177171 
L 218.600019 268.949854 
L 218.922311 269.722537 
L 220.016147 270.49522 
L 220.973254 271.267902 
L 222.55541 272.813268 
L 223.541816 273.585951 
L 223.942238 274.358634 
L 224.059435 275.131317 
L 224.352427 275.904 
L 225.534161 276.676683 
L 226.081079 278.222049 
L 226.168977 278.994732 
L 226.569399 279.767415 
L 230.026703 280.540098 
L 230.798248 281.31278 
L 231.013109 282.085463 
L 232.155778 282.858146 
L 232.429237 283.630829 
L 233.972327 284.403512 
L 234.392282 285.176195 
L 234.431348 285.948878 
L 235.476352 286.721561 
L 237.644492 287.494244 
L 241.023665 288.266927 
L 246.580745 289.812293 
L 247.117897 290.584976 
L 247.362057 292.130341 
L 248.075003 292.903024 
L 250.790062 292.903024 
L 251.493242 293.675707 
L 254.608723 294.44839 
L 256.747563 295.221073 
L 257.665605 295.993756 
L 258.915703 296.766439 
L 258.993835 297.539122 
L 263.173852 298.311805 
L 266.601857 299.084488 
L 274.239179 300.629854 
L 277.071434 301.402537 
L 277.882045 302.17522 
L 280.890095 302.947902 
L 309.085681 303.720585 
L 324.135698 304.493268 
L 324.204063 305.265951 
L 324.42869 306.038634 
L 398.487273 306.811317 
L 398.487273 306.811317 
L 398.487273 306.811317 
L 324.42869 306.038634 
L 324.204063 305.265951 
L 324.135698 304.493268 
L 309.085681 303.720585 
L 280.890095 302.947902 
L 277.882045 302.17522 
L 277.071434 301.402537 
L 274.239179 300.629854 
L 266.601857 299.084488 
L 263.173852 298.311805 
L 258.993835 297.539122 
L 258.915703 296.766439 
L 257.665605 295.993756 
L 256.747563 295.221073 
L 254.608723 294.44839 
L 251.493242 293.675707 
L 250.790062 292.903024 
L 248.075003 292.903024 
L 247.362057 292.130341 
L 247.117897 290.584976 
L 246.580745 289.812293 
L 241.023665 288.266927 
L 237.644492 287.494244 
L 235.476352 286.721561 
L 234.431348 285.948878 
L 234.392282 285.176195 
L 233.972327 284.403512 
L 232.429237 283.630829 
L 232.155778 282.858146 
L 231.013109 282.085463 
L 230.798248 281.31278 
L 230.026703 280.540098 
L 226.569399 279.767415 
L 226.168977 278.994732 
L 226.081079 278.222049 
L 225.534161 276.676683 
L 224.352427 275.904 
L 224.059435 275.131317 
L 223.942238 274.358634 
L 223.541816 273.585951 
L 222.55541 272.813268 
L 220.973254 271.267902 
L 220.016147 270.49522 
L 218.922311 269.722537 
L 218.600019 268.949854 
L 218.199597 268.177171 
L 216.715105 267.404488 
L 215.416174 266.631805 
L 214.26374 265.859122 
L 213.873084 265.086439 
L 213.63869 264.313756 
L 213.277333 263.541073 
L 212.505788 262.76839 
L 211.910038 261.995707 
L 211.577981 261.223024 
L 211.538915 260.450341 
L 211.089661 259.677659 
L 209.624701 258.904976 
L 209.19498 258.132293 
L 208.364836 257.35961 
L 208.042545 256.586927 
L 207.368664 255.814244 
L 205.80604 255.041561 
L 205.45445 254.268878 
L 205.21029 252.723512 
L 204.468044 251.950829 
L 204.311782 251.178146 
L 202.876121 250.405463 
L 202.55383 249.63278 
L 202.241306 248.860098 
L 201.704154 248.087415 
L 200.600551 246.542049 
L 200.38569 245.769366 
L 200.248961 245.769366 
L 199.819239 244.996683 
L 199.252788 244.224 
L 199.145358 243.451317 
L 199.08676 242.678634 
L 198.158952 241.905951 
L 198.080821 241.133268 
L 197.680399 240.360585 
L 197.485071 239.587902 
L 196.899087 238.81522 
L 196.108009 238.042537 
L 195.94198 237.269854 
L 195.434127 236.497171 
L 195.414595 235.724488 
L 195.150902 234.951805 
L 194.086365 234.179122 
L 193.461315 233.406439 
L 193.42225 232.633756 
L 193.187856 231.861073 
L 192.269815 231.08839 
L 191.84986 230.315707 
L 191.478737 229.543024 
L 190.013778 228.770341 
L 189.896581 227.997659 
L 189.33013 226.452293 
L 188.890642 225.67961 
L 187.660076 224.906927 
L 187.640543 224.134244 
L 187.611244 223.361561 
L 187.26942 222.588878 
L 187.210822 221.816195 
L 186.400211 221.043512 
L 186.390445 220.270829 
L 185.863059 219.498146 
L 185.570067 218.725463 
L 185.355207 217.95278 
L 185.111047 216.407415 
L 185.091514 215.634732 
L 184.85712 214.862049 
L 184.525063 214.089366 
L 184.495764 213.316683 
L 184.485997 212.544 
L 184.300436 211.771317 
L 183.577722 210.998634 
L 182.923374 210.225951 
L 182.102997 209.453268 
L 180.27668 208.680585 
L 180.179016 207.907902 
L 179.837193 207.907902 
L 179.671164 206.362537 
L 179.495369 205.589854 
L 179.094946 204.817171 
L 178.870319 204.044488 
L 177.981577 203.271805 
L 177.971811 202.499122 
L 177.874147 201.726439 
L 177.40536 200.953756 
L 177.376061 200.181073 
L 177.014704 199.40839 
L 176.946339 198.635707 
L 175.83297 197.863024 
L 175.696241 197.863024 
L 175.432548 197.090341 
L 174.661003 197.090341 
L 174.485207 196.317659 
L 173.752728 195.544976 
L 173.518334 194.772293 
L 172.971416 194.772293 
L 172.678424 193.99961 
L 171.516223 193.226927 
L 171.418559 192.454244 
L 171.311129 191.681561 
L 171.125567 190.908878 
L 170.520051 190.136195 
L 169.943833 189.363512 
L 169.46528 188.590829 
L 169.426214 187.818146 
L 168.898829 187.045463 
L 168.889062 186.27278 
L 168.859763 185.500098 
L 168.537472 184.727415 
L 167.638964 183.954732 
L 167.629197 183.182049 
L 167.521767 182.409366 
L 167.013914 182.409366 
L 166.476762 181.636683 
L 165.109467 180.864 
L 164.523483 180.091317 
L 164.425819 179.318634 
L 164.15236 178.545951 
L 163.859368 177.773268 
L 162.394409 177.000585 
L 162.267446 176.227902 
L 161.515433 175.45522 
L 161.408003 173.909854 
L 160.988048 173.137171 
L 160.54856 172.364488 
L 160.529027 171.591805 
L 160.079773 170.046439 
L 159.679351 169.273756 
L 159.396125 167.72839 
L 159.22033 166.955707 
L 158.556215 165.410341 
L 158.478084 164.637659 
L 158.439018 163.864976 
L 158.253457 163.092293 
L 157.765137 162.31961 
L 157.345182 162.31961 
L 157.061956 161.546927 
L 156.036485 160.774244 
L 155.665362 160.001561 
L 154.835218 159.228878 
L 154.737554 158.456195 
L 154.405497 157.683512 
L 154.034374 156.910829 
L 153.663251 156.138146 
L 153.135865 155.365463 
L 153.038201 154.59278 
L 153.008902 153.047415 
L 152.764742 152.274732 
L 151.104455 151.502049 
L 150.518471 151.502049 
L 150.459873 150.729366 
L 150.186413 149.956683 
L 150.137581 149.184 
L 149.209774 148.411317 
L 149.141409 147.638634 
L 148.701921 146.093268 
L 148.62379 145.320585 
L 147.754581 145.320585 
L 147.012335 144.547902 
L 146.865839 143.77522 
L 146.426351 143.002537 
L 146.299388 142.229854 
L 146.084527 141.457171 
L 145.234851 141.457171 
L 144.687932 140.684488 
L 144.131248 140.684488 
L 142.636989 139.911805 
L 142.490493 139.139122 
L 142.304932 138.366439 
L 140.869271 137.593756 
L 140.468849 137.593756 
L 140.283288 136.821073 
L 138.974591 136.04839 
L 138.964824 136.04839 
L 138.740197 135.275707 
L 137.577996 134.503024 
L 137.509631 133.730341 
L 135.722381 132.957659 
L 135.712614 132.957659 
L 135.116864 132.184976 
L 134.599245 131.412293 
L 134.472282 131.412293 
L 132.567835 130.63961 
L 131.854888 129.866927 
L 131.376334 129.866927 
L 130.761051 129.866927 
L 130.663387 129.866927 
L 130.399695 129.866927 
L 130.243432 129.094244 
L 129.755112 128.321561 
L 129.100764 127.548878 
L 128.338985 126.776195 
L 127.557673 126.003512 
L 126.541968 125.230829 
L 126.395472 124.458146 
L 126.336874 124.458146 
L 126.161079 124.458146 
L 125.389533 123.685463 
L 124.705886 122.91278 
L 123.758545 122.140098 
L 122.938168 122.140098 
L 122.098258 121.367415 
L 121.55134 121.367415 
L 120.46727 120.594732 
L 119.334368 119.822049 
L 117.928007 119.049366 
L 115.662203 119.049366 
L 115.545006 119.049366 
L 111.784943 118.276683 
L 111.364988 118.276683 
L 110.788771 117.504 
L 109.812131 116.731317 
L 109.538672 116.731317 
L 108.933156 115.958634 
L 108.347172 115.185951 
L 107.272868 114.413268 
L 106.83338 113.640585 
L 106.608753 113.640585 
L 106.091134 112.867902 
L 106.013003 112.09522 
L 105.368421 111.322537 
L 104.040191 110.549854 
L 103.512806 109.777171 
L 103.239347 109.777171 
L 102.858457 109.004488 
L 102.086912 108.231805 
L 99.205825 107.459122 
L 98.619841 107.459122 
L 97.32091 107.459122 
L 95.895016 107.459122 
L 95.221135 106.686439 
L 93.150659 106.686439 
L 92.496311 106.686439 
L 92.115421 105.141073 
L 90.904388 104.36839 
L 87.281055 104.36839 
L 86.089555 104.36839 
L 85.903993 104.36839 
L 85.552403 104.36839 
L 85.093382 103.595707 
L 84.683194 102.823024 
L 82.983841 102.050341 
L 81.821639 102.050341 
L 81.79234 101.277659 
L 81.509115 100.504976 
L 80.786401 100.504976 
L 80.014856 100.504976 
L 79.067516 100.504976 
L 78.364335 99.732293 
L 78.032278 99.732293 
L 76.567318 98.95961 
L 75.756707 98.95961 
L 75.053527 98.95961 
L 74.350346 98.186927 
L 74.115953 97.414244 
L 73.832727 97.414244 
z
" clip-path="url(#pec28c9ba10)" style="fill: #7cfc00"/>
   </g>
   <g id="PolyCollection_3">
    <path d="M 73.832727 54.144 
L 73.832727 97.414244 
L 74.115953 97.414244 
L 74.350346 98.186927 
L 75.053527 98.95961 
L 75.756707 98.95961 
L 76.567318 98.95961 
L 78.032278 99.732293 
L 78.364335 99.732293 
L 79.067516 100.504976 
L 80.014856 100.504976 
L 80.786401 100.504976 
L 81.509115 100.504976 
L 81.79234 101.277659 
L 81.821639 102.050341 
L 82.983841 102.050341 
L 84.683194 102.823024 
L 85.093382 103.595707 
L 85.552403 104.36839 
L 85.903993 104.36839 
L 86.089555 104.36839 
L 87.281055 104.36839 
L 90.904388 104.36839 
L 92.115421 105.141073 
L 92.496311 106.686439 
L 93.150659 106.686439 
L 95.221135 106.686439 
L 95.895016 107.459122 
L 97.32091 107.459122 
L 98.619841 107.459122 
L 99.205825 107.459122 
L 102.086912 108.231805 
L 102.858457 109.004488 
L 103.239347 109.777171 
L 103.512806 109.777171 
L 104.040191 110.549854 
L 105.368421 111.322537 
L 106.013003 112.09522 
L 106.091134 112.867902 
L 106.608753 113.640585 
L 106.83338 113.640585 
L 107.272868 114.413268 
L 108.347172 115.185951 
L 108.933156 115.958634 
L 109.538672 116.731317 
L 109.812131 116.731317 
L 110.788771 117.504 
L 111.364988 118.276683 
L 111.784943 118.276683 
L 115.545006 119.049366 
L 115.662203 119.049366 
L 117.928007 119.049366 
L 119.334368 119.822049 
L 120.46727 120.594732 
L 121.55134 121.367415 
L 122.098258 121.367415 
L 122.938168 122.140098 
L 123.758545 122.140098 
L 124.705886 122.91278 
L 125.389533 123.685463 
L 126.161079 124.458146 
L 126.336874 124.458146 
L 126.395472 124.458146 
L 126.541968 125.230829 
L 127.557673 126.003512 
L 128.338985 126.776195 
L 129.100764 127.548878 
L 129.755112 128.321561 
L 130.243432 129.094244 
L 130.399695 129.866927 
L 130.663387 129.866927 
L 130.761051 129.866927 
L 131.376334 129.866927 
L 131.854888 129.866927 
L 132.567835 130.63961 
L 134.472282 131.412293 
L 134.599245 131.412293 
L 135.116864 132.184976 
L 135.712614 132.957659 
L 135.722381 132.957659 
L 137.509631 133.730341 
L 137.577996 134.503024 
L 138.740197 135.275707 
L 138.964824 136.04839 
L 138.974591 136.04839 
L 140.283288 136.821073 
L 140.468849 137.593756 
L 140.869271 137.593756 
L 142.304932 138.366439 
L 142.490493 139.139122 
L 142.636989 139.911805 
L 144.131248 140.684488 
L 144.687932 140.684488 
L 145.234851 141.457171 
L 146.084527 141.457171 
L 146.299388 142.229854 
L 146.426351 143.002537 
L 146.865839 143.77522 
L 147.012335 144.547902 
L 147.754581 145.320585 
L 148.62379 145.320585 
L 148.701921 146.093268 
L 149.141409 147.638634 
L 149.209774 148.411317 
L 150.137581 149.184 
L 150.186413 149.956683 
L 150.459873 150.729366 
L 150.518471 151.502049 
L 151.104455 151.502049 
L 152.764742 152.274732 
L 153.008902 153.047415 
L 153.038201 154.59278 
L 153.135865 155.365463 
L 153.663251 156.138146 
L 154.034374 156.910829 
L 154.405497 157.683512 
L 154.737554 158.456195 
L 154.835218 159.228878 
L 155.665362 160.001561 
L 156.036485 160.774244 
L 157.061956 161.546927 
L 157.345182 162.31961 
L 157.765137 162.31961 
L 158.253457 163.092293 
L 158.439018 163.864976 
L 158.478084 164.637659 
L 158.556215 165.410341 
L 159.22033 166.955707 
L 159.396125 167.72839 
L 159.679351 169.273756 
L 160.079773 170.046439 
L 160.529027 171.591805 
L 160.54856 172.364488 
L 160.988048 173.137171 
L 161.408003 173.909854 
L 161.515433 175.45522 
L 162.267446 176.227902 
L 162.394409 177.000585 
L 163.859368 177.773268 
L 164.15236 178.545951 
L 164.425819 179.318634 
L 164.523483 180.091317 
L 165.109467 180.864 
L 166.476762 181.636683 
L 167.013914 182.409366 
L 167.521767 182.409366 
L 167.629197 183.182049 
L 167.638964 183.954732 
L 168.537472 184.727415 
L 168.859763 185.500098 
L 168.889062 186.27278 
L 168.898829 187.045463 
L 169.426214 187.818146 
L 169.46528 188.590829 
L 169.943833 189.363512 
L 170.520051 190.136195 
L 171.125567 190.908878 
L 171.311129 191.681561 
L 171.418559 192.454244 
L 171.516223 193.226927 
L 172.678424 193.99961 
L 172.971416 194.772293 
L 173.518334 194.772293 
L 173.752728 195.544976 
L 174.485207 196.317659 
L 174.661003 197.090341 
L 175.432548 197.090341 
L 175.696241 197.863024 
L 175.83297 197.863024 
L 176.946339 198.635707 
L 177.014704 199.40839 
L 177.376061 200.181073 
L 177.40536 200.953756 
L 177.874147 201.726439 
L 177.971811 202.499122 
L 177.981577 203.271805 
L 178.870319 204.044488 
L 179.094946 204.817171 
L 179.495369 205.589854 
L 179.671164 206.362537 
L 179.837193 207.907902 
L 180.179016 207.907902 
L 180.27668 208.680585 
L 182.102997 209.453268 
L 182.923374 210.225951 
L 183.577722 210.998634 
L 184.300436 211.771317 
L 184.485997 212.544 
L 184.495764 213.316683 
L 184.525063 214.089366 
L 184.85712 214.862049 
L 185.091514 215.634732 
L 185.111047 216.407415 
L 185.355207 217.95278 
L 185.570067 218.725463 
L 185.863059 219.498146 
L 186.390445 220.270829 
L 186.400211 221.043512 
L 187.210822 221.816195 
L 187.26942 222.588878 
L 187.611244 223.361561 
L 187.640543 224.134244 
L 187.660076 224.906927 
L 188.890642 225.67961 
L 189.33013 226.452293 
L 189.896581 227.997659 
L 190.013778 228.770341 
L 191.478737 229.543024 
L 191.84986 230.315707 
L 192.269815 231.08839 
L 193.187856 231.861073 
L 193.42225 232.633756 
L 193.461315 233.406439 
L 194.086365 234.179122 
L 195.150902 234.951805 
L 195.414595 235.724488 
L 195.434127 236.497171 
L 195.94198 237.269854 
L 196.108009 238.042537 
L 196.899087 238.81522 
L 197.485071 239.587902 
L 197.680399 240.360585 
L 198.080821 241.133268 
L 198.158952 241.905951 
L 199.08676 242.678634 
L 199.145358 243.451317 
L 199.252788 244.224 
L 199.819239 244.996683 
L 200.248961 245.769366 
L 200.38569 245.769366 
L 200.600551 246.542049 
L 201.704154 248.087415 
L 202.241306 248.860098 
L 202.55383 249.63278 
L 202.876121 250.405463 
L 204.311782 251.178146 
L 204.468044 251.950829 
L 205.21029 252.723512 
L 205.45445 254.268878 
L 205.80604 255.041561 
L 207.368664 255.814244 
L 208.042545 256.586927 
L 208.364836 257.35961 
L 209.19498 258.132293 
L 209.624701 258.904976 
L 211.089661 259.677659 
L 211.538915 260.450341 
L 211.577981 261.223024 
L 211.910038 261.995707 
L 212.505788 262.76839 
L 213.277333 263.541073 
L 213.63869 264.313756 
L 213.873084 265.086439 
L 214.26374 265.859122 
L 215.416174 266.631805 
L 216.715105 267.404488 
L 218.199597 268.177171 
L 218.600019 268.949854 
L 218.922311 269.722537 
L 220.016147 270.49522 
L 220.973254 271.267902 
L 222.55541 272.813268 
L 223.541816 273.585951 
L 223.942238 274.358634 
L 224.059435 275.131317 
L 224.352427 275.904 
L 225.534161 276.676683 
L 226.081079 278.222049 
L 226.168977 278.994732 
L 226.569399 279.767415 
L 230.026703 280.540098 
L 230.798248 281.31278 
L 231.013109 282.085463 
L 232.155778 282.858146 
L 232.429237 283.630829 
L 233.972327 284.403512 
L 234.392282 285.176195 
L 234.431348 285.948878 
L 235.476352 286.721561 
L 237.644492 287.494244 
L 241.023665 288.266927 
L 246.580745 289.812293 
L 247.117897 290.584976 
L 247.362057 292.130341 
L 248.075003 292.903024 
L 250.790062 292.903024 
L 251.493242 293.675707 
L 254.608723 294.44839 
L 256.747563 295.221073 
L 257.665605 295.993756 
L 258.915703 296.766439 
L 258.993835 297.539122 
L 263.173852 298.311805 
L 266.601857 299.084488 
L 274.239179 300.629854 
L 277.071434 301.402537 
L 277.882045 302.17522 
L 280.890095 302.947902 
L 309.085681 303.720585 
L 324.135698 304.493268 
L 324.204063 305.265951 
L 324.42869 306.038634 
L 398.487273 306.811317 
L 398.487273 306.811317 
L 398.487273 306.811317 
L 324.42869 306.038634 
L 324.204063 305.265951 
L 324.135698 304.493268 
L 309.085681 303.720585 
L 280.890095 302.947902 
L 277.882045 302.17522 
L 277.071434 301.402537 
L 274.239179 300.629854 
L 266.601857 299.084488 
L 263.173852 298.311805 
L 258.993835 297.539122 
L 258.915703 296.766439 
L 257.665605 295.993756 
L 256.747563 295.221073 
L 254.608723 294.44839 
L 251.493242 293.675707 
L 250.790062 292.903024 
L 248.075003 292.130341 
L 247.362057 291.357659 
L 247.117897 289.812293 
L 246.580745 289.03961 
L 241.023665 287.494244 
L 237.644492 286.721561 
L 235.476352 285.948878 
L 234.431348 285.176195 
L 234.392282 284.403512 
L 233.972327 283.630829 
L 232.429237 282.858146 
L 232.155778 282.085463 
L 231.013109 281.31278 
L 230.798248 280.540098 
L 230.026703 279.767415 
L 226.569399 278.994732 
L 226.168977 278.222049 
L 226.081079 277.449366 
L 225.534161 275.904 
L 224.352427 275.131317 
L 224.059435 274.358634 
L 223.942238 273.585951 
L 223.541816 272.813268 
L 222.55541 272.040585 
L 220.973254 270.49522 
L 220.016147 269.722537 
L 218.922311 268.949854 
L 218.600019 268.177171 
L 218.199597 267.404488 
L 216.715105 266.631805 
L 215.416174 265.859122 
L 214.26374 265.086439 
L 213.873084 264.313756 
L 213.63869 263.541073 
L 213.277333 262.76839 
L 212.505788 261.995707 
L 211.910038 261.223024 
L 211.577981 260.450341 
L 211.538915 259.677659 
L 211.089661 258.904976 
L 209.624701 258.132293 
L 209.19498 257.35961 
L 208.364836 256.586927 
L 208.042545 255.814244 
L 207.368664 255.041561 
L 205.80604 254.268878 
L 205.45445 253.496195 
L 205.21029 251.950829 
L 204.468044 251.178146 
L 204.311782 250.405463 
L 202.876121 249.63278 
L 202.55383 248.860098 
L 202.241306 248.087415 
L 201.704154 247.314732 
L 200.600551 245.769366 
L 200.38569 244.996683 
L 200.248961 244.224 
L 199.819239 243.451317 
L 199.252788 241.905951 
L 199.145358 241.133268 
L 199.08676 240.360585 
L 198.158952 239.587902 
L 198.080821 238.81522 
L 197.680399 238.042537 
L 197.485071 237.269854 
L 196.899087 236.497171 
L 196.108009 235.724488 
L 195.94198 234.951805 
L 195.434127 234.179122 
L 195.414595 233.406439 
L 195.150902 232.633756 
L 194.086365 231.861073 
L 193.461315 231.08839 
L 193.42225 230.315707 
L 193.187856 229.543024 
L 192.269815 228.770341 
L 191.84986 227.997659 
L 191.478737 227.224976 
L 190.013778 226.452293 
L 189.896581 225.67961 
L 189.33013 224.134244 
L 188.890642 223.361561 
L 187.660076 222.588878 
L 187.640543 221.816195 
L 187.611244 221.043512 
L 187.26942 220.270829 
L 187.210822 219.498146 
L 186.400211 218.725463 
L 186.390445 217.95278 
L 185.863059 217.180098 
L 185.570067 216.407415 
L 185.355207 215.634732 
L 185.111047 214.089366 
L 185.091514 213.316683 
L 184.85712 212.544 
L 184.525063 211.771317 
L 184.495764 210.998634 
L 184.485997 210.225951 
L 184.300436 209.453268 
L 183.577722 208.680585 
L 182.923374 207.907902 
L 182.102997 207.13522 
L 180.27668 206.362537 
L 180.179016 205.589854 
L 179.837193 204.817171 
L 179.671164 203.271805 
L 179.495369 202.499122 
L 179.094946 201.726439 
L 178.870319 200.953756 
L 177.981577 200.181073 
L 177.971811 199.40839 
L 177.874147 198.635707 
L 177.40536 197.863024 
L 177.376061 197.090341 
L 177.014704 196.317659 
L 176.946339 195.544976 
L 175.83297 194.772293 
L 175.696241 193.99961 
L 175.432548 193.226927 
L 174.661003 192.454244 
L 174.485207 191.681561 
L 173.752728 190.908878 
L 173.518334 190.136195 
L 172.971416 189.363512 
L 172.678424 188.590829 
L 171.516223 187.818146 
L 171.418559 187.045463 
L 171.311129 186.27278 
L 171.125567 185.500098 
L 170.520051 184.727415 
L 169.943833 183.954732 
L 169.46528 183.182049 
L 169.426214 182.409366 
L 168.898829 181.636683 
L 168.889062 180.864 
L 168.859763 180.091317 
L 168.537472 179.318634 
L 167.638964 178.545951 
L 167.629197 177.773268 
L 167.521767 177.000585 
L 167.013914 175.45522 
L 166.476762 174.682537 
L 165.109467 173.909854 
L 164.523483 173.137171 
L 164.425819 172.364488 
L 164.15236 171.591805 
L 163.859368 170.819122 
L 162.394409 170.046439 
L 162.267446 169.273756 
L 161.515433 168.501073 
L 161.408003 166.955707 
L 160.988048 166.183024 
L 160.54856 165.410341 
L 160.529027 164.637659 
L 160.079773 163.092293 
L 159.679351 162.31961 
L 159.396125 160.774244 
L 159.22033 160.001561 
L 158.556215 158.456195 
L 158.478084 157.683512 
L 158.439018 156.910829 
L 158.253457 156.138146 
L 157.765137 155.365463 
L 157.345182 154.59278 
L 157.061956 153.820098 
L 156.036485 153.047415 
L 155.665362 152.274732 
L 154.835218 151.502049 
L 154.737554 150.729366 
L 154.405497 149.956683 
L 154.034374 149.184 
L 153.663251 148.411317 
L 153.135865 147.638634 
L 153.038201 146.865951 
L 153.008902 145.320585 
L 152.764742 144.547902 
L 151.104455 143.77522 
L 150.518471 143.002537 
L 150.459873 142.229854 
L 150.186413 141.457171 
L 150.137581 140.684488 
L 149.209774 139.911805 
L 149.141409 139.139122 
L 148.701921 137.593756 
L 148.62379 136.821073 
L 147.754581 136.04839 
L 147.012335 135.275707 
L 146.865839 134.503024 
L 146.426351 133.730341 
L 146.299388 132.957659 
L 146.084527 132.184976 
L 145.234851 131.412293 
L 144.687932 130.63961 
L 144.131248 129.866927 
L 142.636989 129.094244 
L 142.490493 128.321561 
L 142.304932 127.548878 
L 140.869271 126.776195 
L 140.468849 126.003512 
L 140.283288 125.230829 
L 138.974591 124.458146 
L 138.964824 123.685463 
L 138.740197 122.91278 
L 137.577996 122.140098 
L 137.509631 121.367415 
L 135.722381 120.594732 
L 135.712614 119.822049 
L 135.116864 119.049366 
L 134.599245 118.276683 
L 134.472282 117.504 
L 132.567835 116.731317 
L 131.854888 115.958634 
L 131.376334 115.185951 
L 130.761051 114.413268 
L 130.663387 113.640585 
L 130.399695 112.867902 
L 130.243432 112.09522 
L 129.755112 111.322537 
L 129.100764 110.549854 
L 128.338985 109.777171 
L 127.557673 109.004488 
L 126.541968 108.231805 
L 126.395472 107.459122 
L 126.336874 106.686439 
L 126.161079 105.913756 
L 125.389533 105.141073 
L 124.705886 104.36839 
L 123.758545 103.595707 
L 122.938168 102.823024 
L 122.098258 102.050341 
L 121.55134 101.277659 
L 120.46727 100.504976 
L 119.334368 99.732293 
L 117.928007 98.95961 
L 115.662203 98.186927 
L 115.545006 97.414244 
L 111.784943 96.641561 
L 111.364988 95.868878 
L 110.788771 95.096195 
L 109.812131 94.323512 
L 109.538672 93.550829 
L 108.933156 92.778146 
L 108.347172 92.005463 
L 107.272868 91.23278 
L 106.83338 90.460098 
L 106.608753 89.687415 
L 106.091134 88.914732 
L 106.013003 88.142049 
L 105.368421 87.369366 
L 104.040191 86.596683 
L 103.512806 85.824 
L 103.239347 85.051317 
L 102.858457 84.278634 
L 102.086912 83.505951 
L 99.205825 82.733268 
L 98.619841 81.960585 
L 97.32091 80.41522 
L 95.895016 79.642537 
L 95.221135 78.869854 
L 93.150659 78.097171 
L 92.496311 77.324488 
L 92.115421 75.779122 
L 90.904388 75.006439 
L 87.281055 74.233756 
L 86.089555 73.461073 
L 85.903993 72.68839 
L 85.552403 71.915707 
L 85.093382 71.143024 
L 84.683194 69.597659 
L 82.983841 68.824976 
L 81.821639 68.052293 
L 81.79234 67.27961 
L 81.509115 65.734244 
L 80.786401 64.961561 
L 80.014856 64.188878 
L 79.067516 63.416195 
L 78.364335 62.643512 
L 78.032278 61.098146 
L 76.567318 60.325463 
L 75.756707 58.780098 
L 75.053527 57.234732 
L 74.350346 56.462049 
L 74.115953 55.689366 
L 73.832727 54.144 
z
" clip-path="url(#pec28c9ba10)" style="fill: #ff0000"/>
   </g>
   <g id="matplotlib.axis_1">
    <g id="xtick_1">
     <g id="line2d_1">
      <defs>
       <path id="mdda82fcdbe" d="M 0 0 
L 0 3.5 
" style="stroke: #000000; stroke-width: 0.8"/>
      </defs>
      <g>
       <use xlink:href="#mdda82fcdbe" x="59.212432" y="307.584" style="stroke: #000000; stroke-width: 0.8"/>
      </g>
     </g>
     <g id="text_1">
      <!-- 0 -->
      <g transform="translate(56.031182 322.182437)scale(0.1 -0.1)">
       <defs>
        <path id="DejaVuSans-30" d="M 2034 4250 
Q 1547 4250 1301 3770 
Q 1056 3291 1056 2328 
Q 1056 1369 1301 889 
Q 1547 409 2034 409 
Q 2525 409 2770 889 
Q 3016 1369 3016 2328 
Q 3016 3291 2770 3770 
Q 2525 4250 2034 4250 
z
M 2034 4750 
Q 2819 4750 3233 4129 
Q 3647 3509 3647 2328 
Q 3647 1150 3233 529 
Q 2819 -91 2034 -91 
Q 1250 -91 836 529 
Q 422 1150 422 2328 
Q 422 3509 836 4129 
Q 1250 4750 2034 4750 
z
" transform="scale(0.015625)"/>
       </defs>
       <use xlink:href="#DejaVuSans-30"/>
      </g>
     </g>
    </g>
    <g id="xtick_2">
     <g id="line2d_2">
      <g>
       <use xlink:href="#mdda82fcdbe" x="108.044413" y="307.584" style="stroke: #000000; stroke-width: 0.8"/>
      </g>
     </g>
     <g id="text_2">
      <!-- 50 -->
      <g transform="translate(101.681913 322.182437)scale(0.1 -0.1)">
       <defs>
        <path id="DejaVuSans-35" d="M 691 4666 
L 3169 4666 
L 3169 4134 
L 1269 4134 
L 1269 2991 
Q 1406 3038 1543 3061 
Q 1681 3084 1819 3084 
Q 2600 3084 3056 2656 
Q 3513 2228 3513 1497 
Q 3513 744 3044 326 
Q 2575 -91 1722 -91 
Q 1428 -91 1123 -41 
Q 819 9 494 109 
L 494 744 
Q 775 591 1075 516 
Q 1375 441 1709 441 
Q 2250 441 2565 725 
Q 2881 1009 2881 1497 
Q 2881 1984 2565 2268 
Q 2250 2553 1709 2553 
Q 1456 2553 1204 2497 
Q 953 2441 691 2322 
L 691 4666 
z
" transform="scale(0.015625)"/>
       </defs>
       <use xlink:href="#DejaVuSans-35"/>
       <use xlink:href="#DejaVuSans-30" x="63.623047"/>
      </g>
     </g>
    </g>
    <g id="xtick_3">
     <g id="line2d_3">
      <g>
       <use xlink:href="#mdda82fcdbe" x="156.876395" y="307.584" style="stroke: #000000; stroke-width: 0.8"/>
      </g>
     </g>
     <g id="text_3">
      <!-- 100 -->
      <g transform="translate(147.332645 322.182437)scale(0.1 -0.1)">
       <defs>
        <path id="DejaVuSans-31" d="M 794 531 
L 1825 531 
L 1825 4091 
L 703 3866 
L 703 4441 
L 1819 4666 
L 2450 4666 
L 2450 531 
L 3481 531 
L 3481 0 
L 794 0 
L 794 531 
z
" transform="scale(0.015625)"/>
       </defs>
       <use xlink:href="#DejaVuSans-31"/>
       <use xlink:href="#DejaVuSans-30" x="63.623047"/>
       <use xlink:href="#DejaVuSans-30" x="127.246094"/>
      </g>
     </g>
    </g>
    <g id="xtick_4">
     <g id="line2d_4">
      <g>
       <use xlink:href="#mdda82fcdbe" x="205.708376" y="307.584" style="stroke: #000000; stroke-width: 0.8"/>
      </g>
     </g>
     <g id="text_4">
      <!-- 150 -->
      <g transform="translate(196.164626 322.182437)scale(0.1 -0.1)">
       <use xlink:href="#DejaVuSans-31"/>
       <use xlink:href="#DejaVuSans-35" x="63.623047"/>
       <use xlink:href="#DejaVuSans-30" x="127.246094"/>
      </g>
     </g>
    </g>
    <g id="xtick_5">
     <g id="line2d_5">
      <g>
       <use xlink:href="#mdda82fcdbe" x="254.540358" y="307.584" style="stroke: #000000; stroke-width: 0.8"/>
      </g>
     </g>
     <g id="text_5">
      <!-- 200 -->
      <g transform="translate(244.996608 322.182437)scale(0.1 -0.1)">
       <defs>
        <path id="DejaVuSans-32" d="M 1228 531 
L 3431 531 
L 3431 0 
L 469 0 
L 469 531 
Q 828 903 1448 1529 
Q 2069 2156 2228 2338 
Q 2531 2678 2651 2914 
Q 2772 3150 2772 3378 
Q 2772 3750 2511 3984 
Q 2250 4219 1831 4219 
Q 1534 4219 1204 4116 
Q 875 4013 500 3803 
L 500 4441 
Q 881 4594 1212 4672 
Q 1544 4750 1819 4750 
Q 2544 4750 2975 4387 
Q 3406 4025 3406 3419 
Q 3406 3131 3298 2873 
Q 3191 2616 2906 2266 
Q 2828 2175 2409 1742 
Q 1991 1309 1228 531 
z
" transform="scale(0.015625)"/>
       </defs>
       <use xlink:href="#DejaVuSans-32"/>
       <use xlink:href="#DejaVuSans-30" x="63.623047"/>
       <use xlink:href="#DejaVuSans-30" x="127.246094"/>
      </g>
     </g>
    </g>
    <g id="xtick_6">
     <g id="line2d_6">
      <g>
       <use xlink:href="#mdda82fcdbe" x="303.372339" y="307.584" style="stroke: #000000; stroke-width: 0.8"/>
      </g>
     </g>
     <g id="text_6">
      <!-- 250 -->
      <g transform="translate(293.828589 322.182437)scale(0.1 -0.1)">
       <use xlink:href="#DejaVuSans-32"/>
       <use xlink:href="#DejaVuSans-35" x="63.623047"/>
       <use xlink:href="#DejaVuSans-30" x="127.246094"/>
      </g>
     </g>
    </g>
    <g id="xtick_7">
     <g id="line2d_7">
      <g>
       <use xlink:href="#mdda82fcdbe" x="352.204321" y="307.584" style="stroke: #000000; stroke-width: 0.8"/>
      </g>
     </g>
     <g id="text_7">
      <!-- 300 -->
      <g transform="translate(342.660571 322.182437)scale(0.1 -0.1)">
       <defs>
        <path id="DejaVuSans-33" d="M 2597 2516 
Q 3050 2419 3304 2112 
Q 3559 1806 3559 1356 
Q 3559 666 3084 287 
Q 2609 -91 1734 -91 
Q 1441 -91 1130 -33 
Q 819 25 488 141 
L 488 750 
Q 750 597 1062 519 
Q 1375 441 1716 441 
Q 2309 441 2620 675 
Q 2931 909 2931 1356 
Q 2931 1769 2642 2001 
Q 2353 2234 1838 2234 
L 1294 2234 
L 1294 2753 
L 1863 2753 
Q 2328 2753 2575 2939 
Q 2822 3125 2822 3475 
Q 2822 3834 2567 4026 
Q 2313 4219 1838 4219 
Q 1578 4219 1281 4162 
Q 984 4106 628 3988 
L 628 4550 
Q 988 4650 1302 4700 
Q 1616 4750 1894 4750 
Q 2613 4750 3031 4423 
Q 3450 4097 3450 3541 
Q 3450 3153 3228 2886 
Q 3006 2619 2597 2516 
z
" transform="scale(0.015625)"/>
       </defs>
       <use xlink:href="#DejaVuSans-33"/>
       <use xlink:href="#DejaVuSans-30" x="63.623047"/>
       <use xlink:href="#DejaVuSans-30" x="127.246094"/>
      </g>
     </g>
    </g>
    <g id="xtick_8">
     <g id="line2d_8">
      <g>
       <use xlink:href="#mdda82fcdbe" x="401.036302" y="307.584" style="stroke: #000000; stroke-width: 0.8"/>
      </g>
     </g>
     <g id="text_8">
      <!-- 350 -->
      <g transform="translate(391.492552 322.182437)scale(0.1 -0.1)">
       <use xlink:href="#DejaVuSans-33"/>
       <use xlink:href="#DejaVuSans-35" x="63.623047"/>
       <use xlink:href="#DejaVuSans-30" x="127.246094"/>
      </g>
     </g>
    </g>
    <g id="text_9">
     <!-- Score -->
     <g transform="translate(222.157656 335.860562)scale(0.1 -0.1)">
      <defs>
       <path id="DejaVuSans-53" d="M 3425 4513 
L 3425 3897 
Q 3066 4069 2747 4153 
Q 2428 4238 2131 4238 
Q 1616 4238 1336 4038 
Q 1056 3838 1056 3469 
Q 1056 3159 1242 3001 
Q 1428 2844 1947 2747 
L 2328 2669 
Q 3034 2534 3370 2195 
Q 3706 1856 3706 1288 
Q 3706 609 3251 259 
Q 2797 -91 1919 -91 
Q 1588 -91 1214 -16 
Q 841 59 441 206 
L 441 856 
Q 825 641 1194 531 
Q 1563 422 1919 422 
Q 2459 422 2753 634 
Q 3047 847 3047 1241 
Q 3047 1584 2836 1778 
Q 2625 1972 2144 2069 
L 1759 2144 
Q 1053 2284 737 2584 
Q 422 2884 422 3419 
Q 422 4038 858 4394 
Q 1294 4750 2059 4750 
Q 2388 4750 2728 4690 
Q 3069 4631 3425 4513 
z
" transform="scale(0.015625)"/>
       <path id="DejaVuSans-63" d="M 3122 3366 
L 3122 2828 
Q 2878 2963 2633 3030 
Q 2388 3097 2138 3097 
Q 1578 3097 1268 2742 
Q 959 2388 959 1747 
Q 959 1106 1268 751 
Q 1578 397 2138 397 
Q 2388 397 2633 464 
Q 2878 531 3122 666 
L 3122 134 
Q 2881 22 2623 -34 
Q 2366 -91 2075 -91 
Q 1284 -91 818 406 
Q 353 903 353 1747 
Q 353 2603 823 3093 
Q 1294 3584 2113 3584 
Q 2378 3584 2631 3529 
Q 2884 3475 3122 3366 
z
" transform="scale(0.015625)"/>
       <path id="DejaVuSans-6f" d="M 1959 3097 
Q 1497 3097 1228 2736 
Q 959 2375 959 1747 
Q 959 1119 1226 758 
Q 1494 397 1959 397 
Q 2419 397 2687 759 
Q 2956 1122 2956 1747 
Q 2956 2369 2687 2733 
Q 2419 3097 1959 3097 
z
M 1959 3584 
Q 2709 3584 3137 3096 
Q 3566 2609 3566 1747 
Q 3566 888 3137 398 
Q 2709 -91 1959 -91 
Q 1206 -91 779 398 
Q 353 888 353 1747 
Q 353 2609 779 3096 
Q 1206 3584 1959 3584 
z
" transform="scale(0.015625)"/>
       <path id="DejaVuSans-72" d="M 2631 2963 
Q 2534 3019 2420 3045 
Q 2306 3072 2169 3072 
Q 1681 3072 1420 2755 
Q 1159 2438 1159 1844 
L 1159 0 
L 581 0 
L 581 3500 
L 1159 3500 
L 1159 2956 
Q 1341 3275 1631 3429 
Q 1922 3584 2338 3584 
Q 2397 3584 2469 3576 
Q 2541 3569 2628 3553 
L 2631 2963 
z
" transform="scale(0.015625)"/>
       <path id="DejaVuSans-65" d="M 3597 1894 
L 3597 1613 
L 953 1613 
Q 991 1019 1311 708 
Q 1631 397 2203 397 
Q 2534 397 2845 478 
Q 3156 559 3463 722 
L 3463 178 
Q 3153 47 2828 -22 
Q 2503 -91 2169 -91 
Q 1331 -91 842 396 
Q 353 884 353 1716 
Q 353 2575 817 3079 
Q 1281 3584 2069 3584 
Q 2775 3584 3186 3129 
Q 3597 2675 3597 1894 
z
M 3022 2063 
Q 3016 2534 2758 2815 
Q 2500 3097 2075 3097 
Q 1594 3097 1305 2825 
Q 1016 2553 972 2059 
L 3022 2063 
z
" transform="scale(0.015625)"/>
      </defs>
      <use xlink:href="#DejaVuSans-53"/>
      <use xlink:href="#DejaVuSans-63" x="63.476562"/>
      <use xlink:href="#DejaVuSans-6f" x="118.457031"/>
      <use xlink:href="#DejaVuSans-72" x="179.638672"/>
      <use xlink:href="#DejaVuSans-65" x="218.501953"/>
     </g>
    </g>
   </g>
   <g id="matplotlib.axis_2">
    <g id="ytick_1">
     <g id="line2d_9">
      <defs>
       <path id="m4281c6b3c6" d="M 0 0 
L -3.5 0 
" style="stroke: #000000; stroke-width: 0.8"/>
      </defs>
      <g>
       <use xlink:href="#m4281c6b3c6" x="57.6" y="307.584" style="stroke: #000000; stroke-width: 0.8"/>
      </g>
     </g>
     <g id="text_10">
      <!-- 0 -->
      <g transform="translate(44.2375 311.383219)scale(0.1 -0.1)">
       <use xlink:href="#DejaVuSans-30"/>
      </g>
     </g>
    </g>
    <g id="ytick_2">
     <g id="line2d_10">
      <g>
       <use xlink:href="#m4281c6b3c6" x="57.6" y="268.949854" style="stroke: #000000; stroke-width: 0.8"/>
      </g>
     </g>
     <g id="text_11">
      <!-- 50 -->
      <g transform="translate(37.875 272.749072)scale(0.1 -0.1)">
       <use xlink:href="#DejaVuSans-35"/>
       <use xlink:href="#DejaVuSans-30" x="63.623047"/>
      </g>
     </g>
    </g>
    <g id="ytick_3">
     <g id="line2d_11">
      <g>
       <use xlink:href="#m4281c6b3c6" x="57.6" y="230.315707" style="stroke: #000000; stroke-width: 0.8"/>
      </g>
     </g>
     <g id="text_12">
      <!-- 100 -->
      <g transform="translate(31.5125 234.114926)scale(0.1 -0.1)">
       <use xlink:href="#DejaVuSans-31"/>
       <use xlink:href="#DejaVuSans-30" x="63.623047"/>
       <use xlink:href="#DejaVuSans-30" x="127.246094"/>
      </g>
     </g>
    </g>
    <g id="ytick_4">
     <g id="line2d_12">
      <g>
       <use xlink:href="#m4281c6b3c6" x="57.6" y="191.681561" style="stroke: #000000; stroke-width: 0.8"/>
      </g>
     </g>
     <g id="text_13">
      <!-- 150 -->
      <g transform="translate(31.5125 195.48078)scale(0.1 -0.1)">
       <use xlink:href="#DejaVuSans-31"/>
       <use xlink:href="#DejaVuSans-35" x="63.623047"/>
       <use xlink:href="#DejaVuSans-30" x="127.246094"/>
      </g>
     </g>
    </g>
    <g id="ytick_5">
     <g id="line2d_13">
      <g>
       <use xlink:href="#m4281c6b3c6" x="57.6" y="153.047415" style="stroke: #000000; stroke-width: 0.8"/>
      </g>
     </g>
     <g id="text_14">
      <!-- 200 -->
      <g transform="translate(31.5125 156.846633)scale(0.1 -0.1)">
       <use xlink:href="#DejaVuSans-32"/>
       <use xlink:href="#DejaVuSans-30" x="63.623047"/>
       <use xlink:href="#DejaVuSans-30" x="127.246094"/>
      </g>
     </g>
    </g>
    <g id="ytick_6">
     <g id="line2d_14">
      <g>
       <use xlink:href="#m4281c6b3c6" x="57.6" y="114.413268" style="stroke: #000000; stroke-width: 0.8"/>
      </g>
     </g>
     <g id="text_15">
      <!-- 250 -->
      <g transform="translate(31.5125 118.212487)scale(0.1 -0.1)">
       <use xlink:href="#DejaVuSans-32"/>
       <use xlink:href="#DejaVuSans-35" x="63.623047"/>
       <use xlink:href="#DejaVuSans-30" x="127.246094"/>
      </g>
     </g>
    </g>
    <g id="ytick_7">
     <g id="line2d_15">
      <g>
       <use xlink:href="#m4281c6b3c6" x="57.6" y="75.779122" style="stroke: #000000; stroke-width: 0.8"/>
      </g>
     </g>
     <g id="text_16">
      <!-- 300 -->
      <g transform="translate(31.5125 79.578341)scale(0.1 -0.1)">
       <use xlink:href="#DejaVuSans-33"/>
       <use xlink:href="#DejaVuSans-30" x="63.623047"/>
       <use xlink:href="#DejaVuSans-30" x="127.246094"/>
      </g>
     </g>
    </g>
    <g id="text_17">
     <!-- Number of crosslinks -->
     <g transform="translate(25.432812 227.019406)rotate(-90)scale(0.1 -0.1)">
      <defs>
       <path id="DejaVuSans-4e" d="M 628 4666 
L 1478 4666 
L 3547 763 
L 3547 4666 
L 4159 4666 
L 4159 0 
L 3309 0 
L 1241 3903 
L 1241 0 
L 628 0 
L 628 4666 
z
" transform="scale(0.015625)"/>
       <path id="DejaVuSans-75" d="M 544 1381 
L 544 3500 
L 1119 3500 
L 1119 1403 
Q 1119 906 1312 657 
Q 1506 409 1894 409 
Q 2359 409 2629 706 
Q 2900 1003 2900 1516 
L 2900 3500 
L 3475 3500 
L 3475 0 
L 2900 0 
L 2900 538 
Q 2691 219 2414 64 
Q 2138 -91 1772 -91 
Q 1169 -91 856 284 
Q 544 659 544 1381 
z
M 1991 3584 
L 1991 3584 
z
" transform="scale(0.015625)"/>
       <path id="DejaVuSans-6d" d="M 3328 2828 
Q 3544 3216 3844 3400 
Q 4144 3584 4550 3584 
Q 5097 3584 5394 3201 
Q 5691 2819 5691 2113 
L 5691 0 
L 5113 0 
L 5113 2094 
Q 5113 2597 4934 2840 
Q 4756 3084 4391 3084 
Q 3944 3084 3684 2787 
Q 3425 2491 3425 1978 
L 3425 0 
L 2847 0 
L 2847 2094 
Q 2847 2600 2669 2842 
Q 2491 3084 2119 3084 
Q 1678 3084 1418 2786 
Q 1159 2488 1159 1978 
L 1159 0 
L 581 0 
L 581 3500 
L 1159 3500 
L 1159 2956 
Q 1356 3278 1631 3431 
Q 1906 3584 2284 3584 
Q 2666 3584 2933 3390 
Q 3200 3197 3328 2828 
z
" transform="scale(0.015625)"/>
       <path id="DejaVuSans-62" d="M 3116 1747 
Q 3116 2381 2855 2742 
Q 2594 3103 2138 3103 
Q 1681 3103 1420 2742 
Q 1159 2381 1159 1747 
Q 1159 1113 1420 752 
Q 1681 391 2138 391 
Q 2594 391 2855 752 
Q 3116 1113 3116 1747 
z
M 1159 2969 
Q 1341 3281 1617 3432 
Q 1894 3584 2278 3584 
Q 2916 3584 3314 3078 
Q 3713 2572 3713 1747 
Q 3713 922 3314 415 
Q 2916 -91 2278 -91 
Q 1894 -91 1617 61 
Q 1341 213 1159 525 
L 1159 0 
L 581 0 
L 581 4863 
L 1159 4863 
L 1159 2969 
z
" transform="scale(0.015625)"/>
       <path id="DejaVuSans-20" transform="scale(0.015625)"/>
       <path id="DejaVuSans-66" d="M 2375 4863 
L 2375 4384 
L 1825 4384 
Q 1516 4384 1395 4259 
Q 1275 4134 1275 3809 
L 1275 3500 
L 2222 3500 
L 2222 3053 
L 1275 3053 
L 1275 0 
L 697 0 
L 697 3053 
L 147 3053 
L 147 3500 
L 697 3500 
L 697 3744 
Q 697 4328 969 4595 
Q 1241 4863 1831 4863 
L 2375 4863 
z
" transform="scale(0.015625)"/>
       <path id="DejaVuSans-73" d="M 2834 3397 
L 2834 2853 
Q 2591 2978 2328 3040 
Q 2066 3103 1784 3103 
Q 1356 3103 1142 2972 
Q 928 2841 928 2578 
Q 928 2378 1081 2264 
Q 1234 2150 1697 2047 
L 1894 2003 
Q 2506 1872 2764 1633 
Q 3022 1394 3022 966 
Q 3022 478 2636 193 
Q 2250 -91 1575 -91 
Q 1294 -91 989 -36 
Q 684 19 347 128 
L 347 722 
Q 666 556 975 473 
Q 1284 391 1588 391 
Q 1994 391 2212 530 
Q 2431 669 2431 922 
Q 2431 1156 2273 1281 
Q 2116 1406 1581 1522 
L 1381 1569 
Q 847 1681 609 1914 
Q 372 2147 372 2553 
Q 372 3047 722 3315 
Q 1072 3584 1716 3584 
Q 2034 3584 2315 3537 
Q 2597 3491 2834 3397 
z
" transform="scale(0.015625)"/>
       <path id="DejaVuSans-6c" d="M 603 4863 
L 1178 4863 
L 1178 0 
L 603 0 
L 603 4863 
z
" transform="scale(0.015625)"/>
       <path id="DejaVuSans-69" d="M 603 3500 
L 1178 3500 
L 1178 0 
L 603 0 
L 603 3500 
z
M 603 4863 
L 1178 4863 
L 1178 4134 
L 603 4134 
L 603 4863 
z
" transform="scale(0.015625)"/>
       <path id="DejaVuSans-6e" d="M 3513 2113 
L 3513 0 
L 2938 0 
L 2938 2094 
Q 2938 2591 2744 2837 
Q 2550 3084 2163 3084 
Q 1697 3084 1428 2787 
Q 1159 2491 1159 1978 
L 1159 0 
L 581 0 
L 581 3500 
L 1159 3500 
L 1159 2956 
Q 1366 3272 1645 3428 
Q 1925 3584 2291 3584 
Q 2894 3584 3203 3211 
Q 3513 2838 3513 2113 
z
" transform="scale(0.015625)"/>
       <path id="DejaVuSans-6b" d="M 581 4863 
L 1159 4863 
L 1159 1991 
L 2875 3500 
L 3609 3500 
L 1753 1863 
L 3688 0 
L 2938 0 
L 1159 1709 
L 1159 0 
L 581 0 
L 581 4863 
z
" transform="scale(0.015625)"/>
      </defs>
      <use xlink:href="#DejaVuSans-4e"/>
      <use xlink:href="#DejaVuSans-75" x="74.804688"/>
      <use xlink:href="#DejaVuSans-6d" x="138.183594"/>
      <use xlink:href="#DejaVuSans-62" x="235.595703"/>
      <use xlink:href="#DejaVuSans-65" x="299.072266"/>
      <use xlink:href="#DejaVuSans-72" x="360.595703"/>
      <use xlink:href="#DejaVuSans-20" x="401.708984"/>
      <use xlink:href="#DejaVuSans-6f" x="433.496094"/>
      <use xlink:href="#DejaVuSans-66" x="494.677734"/>
      <use xlink:href="#DejaVuSans-20" x="529.882812"/>
      <use xlink:href="#DejaVuSans-63" x="561.669922"/>
      <use xlink:href="#DejaVuSans-72" x="616.650391"/>
      <use xlink:href="#DejaVuSans-6f" x="655.513672"/>
      <use xlink:href="#DejaVuSans-73" x="716.695312"/>
      <use xlink:href="#DejaVuSans-73" x="768.794922"/>
      <use xlink:href="#DejaVuSans-6c" x="820.894531"/>
      <use xlink:href="#DejaVuSans-69" x="848.677734"/>
      <use xlink:href="#DejaVuSans-6e" x="876.460938"/>
      <use xlink:href="#DejaVuSans-6b" x="939.839844"/>
      <use xlink:href="#DejaVuSans-73" x="997.75"/>
     </g>
    </g>
   </g>
   <g id="patch_3">
    <path d="M 57.6 307.584 
L 57.6 41.472 
" style="fill: none; stroke: #000000; stroke-width: 0.8; stroke-linejoin: miter; stroke-linecap: square"/>
   </g>
   <g id="patch_4">
    <path d="M 414.72 307.584 
L 414.72 41.472 
" style="fill: none; stroke: #000000; stroke-width: 0.8; stroke-linejoin: miter; stroke-linecap: square"/>
   </g>
   <g id="patch_5">
    <path d="M 57.6 307.584 
L 414.72 307.584 
" style="fill: none; stroke: #000000; stroke-width: 0.8; stroke-linejoin: miter; stroke-linecap: square"/>
   </g>
   <g id="patch_6">
    <path d="M 57.6 41.472 
L 414.72 41.472 
" style="fill: none; stroke: #000000; stroke-width: 0.8; stroke-linejoin: miter; stroke-linecap: square"/>
   </g>
   <g id="legend_1">
    <g id="patch_7">
     <path d="M 278.598125 93.506375 
L 407.72 93.506375 
Q 409.72 93.506375 409.72 91.506375 
L 409.72 48.472 
Q 409.72 46.472 407.72 46.472 
L 278.598125 46.472 
Q 276.598125 46.472 276.598125 48.472 
L 276.598125 91.506375 
Q 276.598125 93.506375 278.598125 93.506375 
z
" style="fill: #ffffff; opacity: 0.8; stroke: #cccccc; stroke-linejoin: miter"/>
    </g>
    <g id="patch_8">
     <path d="M 280.598125 58.070438 
L 300.598125 58.070438 
L 300.598125 51.070438 
L 280.598125 51.070438 
z
" style="fill: #008000"/>
    </g>
    <g id="text_18">
     <!-- correct -->
     <g transform="translate(308.598125 58.070438)scale(0.1 -0.1)">
      <defs>
       <path id="DejaVuSans-74" d="M 1172 4494 
L 1172 3500 
L 2356 3500 
L 2356 3053 
L 1172 3053 
L 1172 1153 
Q 1172 725 1289 603 
Q 1406 481 1766 481 
L 2356 481 
L 2356 0 
L 1766 0 
Q 1100 0 847 248 
Q 594 497 594 1153 
L 594 3053 
L 172 3053 
L 172 3500 
L 594 3500 
L 594 4494 
L 1172 4494 
z
" transform="scale(0.015625)"/>
      </defs>
      <use xlink:href="#DejaVuSans-63"/>
      <use xlink:href="#DejaVuSans-6f" x="54.980469"/>
      <use xlink:href="#DejaVuSans-72" x="116.162109"/>
      <use xlink:href="#DejaVuSans-72" x="155.525391"/>
      <use xlink:href="#DejaVuSans-65" x="194.388672"/>
      <use xlink:href="#DejaVuSans-63" x="255.912109"/>
      <use xlink:href="#DejaVuSans-74" x="310.892578"/>
     </g>
    </g>
    <g id="patch_9">
     <path d="M 280.598125 72.748563 
L 300.598125 72.748563 
L 300.598125 65.748563 
L 280.598125 65.748563 
z
" style="fill: #7cfc00"/>
    </g>
    <g id="text_19">
     <!-- correct homeotypic -->
     <g transform="translate(308.598125 72.748563)scale(0.1 -0.1)">
      <defs>
       <path id="DejaVuSans-68" d="M 3513 2113 
L 3513 0 
L 2938 0 
L 2938 2094 
Q 2938 2591 2744 2837 
Q 2550 3084 2163 3084 
Q 1697 3084 1428 2787 
Q 1159 2491 1159 1978 
L 1159 0 
L 581 0 
L 581 4863 
L 1159 4863 
L 1159 2956 
Q 1366 3272 1645 3428 
Q 1925 3584 2291 3584 
Q 2894 3584 3203 3211 
Q 3513 2838 3513 2113 
z
" transform="scale(0.015625)"/>
       <path id="DejaVuSans-79" d="M 2059 -325 
Q 1816 -950 1584 -1140 
Q 1353 -1331 966 -1331 
L 506 -1331 
L 506 -850 
L 844 -850 
Q 1081 -850 1212 -737 
Q 1344 -625 1503 -206 
L 1606 56 
L 191 3500 
L 800 3500 
L 1894 763 
L 2988 3500 
L 3597 3500 
L 2059 -325 
z
" transform="scale(0.015625)"/>
       <path id="DejaVuSans-70" d="M 1159 525 
L 1159 -1331 
L 581 -1331 
L 581 3500 
L 1159 3500 
L 1159 2969 
Q 1341 3281 1617 3432 
Q 1894 3584 2278 3584 
Q 2916 3584 3314 3078 
Q 3713 2572 3713 1747 
Q 3713 922 3314 415 
Q 2916 -91 2278 -91 
Q 1894 -91 1617 61 
Q 1341 213 1159 525 
z
M 3116 1747 
Q 3116 2381 2855 2742 
Q 2594 3103 2138 3103 
Q 1681 3103 1420 2742 
Q 1159 2381 1159 1747 
Q 1159 1113 1420 752 
Q 1681 391 2138 391 
Q 2594 391 2855 752 
Q 3116 1113 3116 1747 
z
" transform="scale(0.015625)"/>
      </defs>
      <use xlink:href="#DejaVuSans-63"/>
      <use xlink:href="#DejaVuSans-6f" x="54.980469"/>
      <use xlink:href="#DejaVuSans-72" x="116.162109"/>
      <use xlink:href="#DejaVuSans-72" x="155.525391"/>
      <use xlink:href="#DejaVuSans-65" x="194.388672"/>
      <use xlink:href="#DejaVuSans-63" x="255.912109"/>
      <use xlink:href="#DejaVuSans-74" x="310.892578"/>
      <use xlink:href="#DejaVuSans-20" x="350.101562"/>
      <use xlink:href="#DejaVuSans-68" x="381.888672"/>
      <use xlink:href="#DejaVuSans-6f" x="445.267578"/>
      <use xlink:href="#DejaVuSans-6d" x="506.449219"/>
      <use xlink:href="#DejaVuSans-65" x="603.861328"/>
      <use xlink:href="#DejaVuSans-6f" x="665.384766"/>
      <use xlink:href="#DejaVuSans-74" x="726.566406"/>
      <use xlink:href="#DejaVuSans-79" x="765.775391"/>
      <use xlink:href="#DejaVuSans-70" x="824.955078"/>
      <use xlink:href="#DejaVuSans-69" x="888.431641"/>
      <use xlink:href="#DejaVuSans-63" x="916.214844"/>
     </g>
    </g>
    <g id="patch_10">
     <path d="M 280.598125 87.426688 
L 300.598125 87.426688 
L 300.598125 80.426688 
L 280.598125 80.426688 
z
" style="fill: #ff0000"/>
    </g>
    <g id="text_20">
     <!-- false -->
     <g transform="translate(308.598125 87.426688)scale(0.1 -0.1)">
      <defs>
       <path id="DejaVuSans-61" d="M 2194 1759 
Q 1497 1759 1228 1600 
Q 959 1441 959 1056 
Q 959 750 1161 570 
Q 1363 391 1709 391 
Q 2188 391 2477 730 
Q 2766 1069 2766 1631 
L 2766 1759 
L 2194 1759 
z
M 3341 1997 
L 3341 0 
L 2766 0 
L 2766 531 
Q 2569 213 2275 61 
Q 1981 -91 1556 -91 
Q 1019 -91 701 211 
Q 384 513 384 1019 
Q 384 1609 779 1909 
Q 1175 2209 1959 2209 
L 2766 2209 
L 2766 2266 
Q 2766 2663 2505 2880 
Q 2244 3097 1772 3097 
Q 1472 3097 1187 3025 
Q 903 2953 641 2809 
L 641 3341 
Q 956 3463 1253 3523 
Q 1550 3584 1831 3584 
Q 2591 3584 2966 3190 
Q 3341 2797 3341 1997 
z
" transform="scale(0.015625)"/>
      </defs>
      <use xlink:href="#DejaVuSans-66"/>
      <use xlink:href="#DejaVuSans-61" x="35.205078"/>
      <use xlink:href="#DejaVuSans-6c" x="96.484375"/>
      <use xlink:href="#DejaVuSans-73" x="124.267578"/>
      <use xlink:href="#DejaVuSans-65" x="176.367188"/>
     </g>
    </g>
   </g>
  </g>
 </g>
 <defs>
  <clipPath id="pec28c9ba10">
   <rect x="57.6" y="41.472" width="357.12" height="266.112"/>
  </clipPath>
 </defs>
</svg>
