<?xml version="1.0" encoding="utf-8" standalone="no"?>
<!DOCTYPE svg PUBLIC "-//W3C//DTD SVG 1.1//EN"
  "http://www.w3.org/Graphics/SVG/1.1/DTD/svg11.dtd">
<svg xmlns:xlink="http://www.w3.org/1999/xlink" width="460.8pt" height="345.6pt" viewBox="0 0 460.8 345.6" xmlns="http://www.w3.org/2000/svg" version="1.1">
 <metadata>
  <rdf:RDF xmlns:dc="http://purl.org/dc/elements/1.1/" xmlns:cc="http://creativecommons.org/ns#" xmlns:rdf="http://www.w3.org/1999/02/22-rdf-syntax-ns#">
   <cc:Work>
    <dc:type rdf:resource="http://purl.org/dc/dcmitype/StillImage"/>
    <dc:date>2022-07-28T14:42:42.394389</dc:date>
    <dc:format>image/svg+xml</dc:format>
    <dc:creator>
     <cc:Agent>
      <dc:title>Matplotlib v3.5.1, https://matplotlib.org/</dc:title>
     </cc:Agent>
    </dc:creator>
   </cc:Work>
  </rdf:RDF>
 </metadata>
 <defs>
  <style type="text/css">*{stroke-linejoin: round; stroke-linecap: butt}</style>
 </defs>
 <g id="figure_1">
  <g id="patch_1">
   <path d="M 0 345.6 
L 460.8 345.6 
L 460.8 0 
L 0 0 
z
" style="fill: #ffffff"/>
  </g>
  <g id="axes_1">
   <g id="patch_2">
    <path d="M 57.6 307.584 
L 414.72 307.584 
L 414.72 41.472 
L 57.6 41.472 
z
" style="fill: #ffffff"/>
   </g>
   <g id="PolyCollection_1">
    <path d="M 73.832727 110.382847 
L 73.832727 307.584 
L 73.862367 307.584 
L 73.877186 307.584 
L 73.921645 307.584 
L 74.292137 307.584 
L 74.381055 307.584 
L 74.647809 307.584 
L 74.855285 307.584 
L 75.107219 307.584 
L 75.181317 307.584 
L 75.759285 307.584 
L 75.848203 307.584 
L 75.877842 307.584 
L 75.95194 307.584 
L 76.026039 307.584 
L 76.114957 307.584 
L 76.470629 307.584 
L 76.559547 307.584 
L 76.633645 307.584 
L 76.692924 307.584 
L 76.811481 307.584 
L 76.915219 307.584 
L 77.419088 307.584 
L 78.056334 307.584 
L 78.130432 307.584 
L 78.456465 307.584 
L 78.886235 307.584 
L 79.13817 307.584 
L 79.241907 307.584 
L 79.286366 307.584 
L 79.745776 307.584 
L 79.834694 307.584 
L 80.234825 307.584 
L 81.064727 307.584 
L 81.346301 307.584 
L 81.450038 307.584 
L 81.568596 307.584 
L 81.687153 307.584 
L 81.968727 307.584 
L 82.843088 307.584 
L 83.776727 307.584 
L 84.295415 307.584 
L 84.369514 307.584 
L 84.384333 307.584 
L 84.458432 307.584 
L 85.658825 307.584 
L 85.955219 307.584 
L 86.755481 307.584 
L 87.170432 307.584 
L 87.214891 307.584 
L 88.770956 307.584 
L 88.845055 307.584 
L 89.689776 307.584 
L 90.801251 307.584 
L 91.171743 307.584 
L 91.512595 307.584 
L 92.238759 307.584 
L 92.876005 307.584 
L 93.202038 307.584 
L 93.453972 307.584 
L 93.57253 307.584 
L 93.987481 307.584 
L 94.046759 307.584 
L 94.847022 307.584 
L 96.417907 307.584 
L 97.381185 307.584 
L 98.003612 307.584 
L 98.181448 307.584 
L 98.611218 307.584 
L 98.892792 307.584 
L 99.737513 307.584 
L 100.033907 307.584 
L 100.760071 307.584 
L 100.863808 307.584 
L 103.0423 307.584 
L 103.516529 307.584 
L 104.138956 307.584 
L 104.702103 307.584 
L 106.6583 307.584 
L 106.67312 307.584 
L 106.717579 307.584 
L 107.473382 307.584 
L 107.799415 307.584 
L 110.437316 307.584 
L 110.70407 307.584 
L 111.993382 307.584 
L 112.037841 307.584 
L 112.615808 307.584 
L 113.075218 307.584 
L 113.608726 307.584 
L 114.142234 307.584 
L 114.275611 307.584 
L 115.757578 307.584 
L 116.439283 307.584 
L 116.750496 307.584 
L 118.38066 307.584 
L 118.558496 307.584 
L 118.721513 307.584 
L 118.85489 307.584 
L 121.55207 307.584 
L 122.856201 307.584 
L 123.686102 307.584 
L 124.530824 307.584 
L 125.420004 307.584 
L 126.442561 307.584 
L 126.827873 307.584 
L 128.843348 307.584 
L 129.347217 307.584 
L 131.125578 307.584 
L 131.184856 307.584 
L 131.46643 307.584 
L 132.148135 307.584 
L 132.711282 307.584 
L 133.763479 307.584 
L 135.275086 307.584 
L 136.668135 307.584 
L 138.891086 307.584 
L 139.513512 307.584 
L 140.0322 307.584 
L 141.351151 307.584 
L 142.922036 307.584 
L 143.040594 307.584 
L 143.455544 307.584 
L 144.255807 307.584 
L 144.463282 307.584 
L 146.612134 307.584 
L 146.686233 307.584 
L 147.323479 307.584 
L 148.301577 307.584 
L 149.0722 307.584 
L 149.427872 307.584 
L 149.857643 307.584 
L 149.9762 307.584 
L 150.005839 307.584 
L 150.494888 307.584 
L 150.672724 307.584 
L 150.732003 307.584 
L 151.250692 307.584 
L 154.288724 307.584 
L 155.237183 307.584 
L 155.311282 307.584 
L 155.548396 307.584 
L 155.741052 307.584 
L 156.437577 307.584 
L 156.956265 307.584 
L 157.549052 307.584 
L 158.497511 307.584 
L 158.897642 307.584 
L 159.43115 307.584 
L 160.34997 307.584 
L 161.491085 307.584 
L 161.624462 307.584 
L 164.380921 307.584 
L 165.255281 307.584 
L 165.462757 307.584 
L 167.12256 307.584 
L 167.433773 307.584 
L 167.863543 307.584 
L 168.841642 307.584 
L 169.627084 307.584 
L 169.775281 307.584 
L 169.893838 307.584 
L 172.872592 307.584 
L 175.25856 307.584 
L 175.614232 307.584 
L 176.770166 307.584 
L 177.170297 307.584 
L 177.94092 307.584 
L 177.985379 307.584 
L 178.444789 307.584 
L 178.563346 307.584 
L 178.681904 307.584 
L 179.082035 307.584 
L 179.170953 307.584 
L 179.363609 307.584 
L 180.282428 307.584 
L 181.230887 307.584 
L 183.024068 307.584 
L 184.431936 307.584 
L 185.128461 307.584 
L 185.543412 307.584 
L 185.928723 307.584 
L 187.499608 307.584 
L 187.692264 307.584 
L 188.196133 307.584 
L 188.536985 307.584 
L 189.159412 307.584 
L 189.426166 307.584 
L 190.848854 307.584 
L 191.130428 307.584 
L 192.167805 307.584 
L 193.916526 307.584 
L 198.569903 307.584 
L 198.866296 307.584 
L 199.103411 307.584 
L 199.948132 307.584 
L 200.155608 307.584 
L 200.822493 307.584 
L 202.408198 307.584 
L 203.415936 307.584 
L 203.549313 307.584 
L 204.438493 307.584 
L 204.453313 307.584 
L 206.320591 307.584 
L 207.71364 307.584 
L 208.676919 307.584 
L 209.477181 307.584 
L 210.840591 307.584 
L 211.655673 307.584 
L 212.811607 307.584 
L 212.856066 307.584 
L 214.560329 307.584 
L 217.346427 307.584 
L 217.628001 307.584 
L 218.428263 307.584 
L 218.56164 307.584 
L 218.99141 307.584 
L 219.628656 307.584 
L 220.903148 307.584 
L 221.555214 307.584 
L 221.762689 307.584 
L 221.851607 307.584 
L 222.296197 307.584 
L 224.682164 307.584 
L 224.948918 307.584 
L 225.304591 307.584 
L 225.764 307.584 
L 227.023672 307.584 
L 228.49082 307.584 
L 229.276263 307.584 
L 231.010164 307.584 
L 231.084262 307.584 
L 231.573312 307.584 
L 231.928984 307.584 
L 232.047541 307.584 
L 232.744066 307.584 
L 234.033377 307.584 
L 235.530164 307.584 
L 235.604262 307.584 
L 236.419344 307.584 
L 236.997311 307.584 
L 237.249246 307.584 
L 237.456721 307.584 
L 238.40518 307.584 
L 238.86459 307.584 
L 239.324 307.584 
L 240.035344 307.584 
L 241.072721 307.584 
L 244.896196 307.584 
L 245.17777 307.584 
L 245.414885 307.584 
L 246.378164 307.584 
L 248.571475 307.584 
L 249.845967 307.584 
L 252.513508 307.584 
L 252.913639 307.584 
L 253.017376 307.584 
L 253.876917 307.584 
L 257.315081 307.584 
L 258.915606 307.584 
L 262.709442 307.584 
L 263.376327 307.584 
L 265.436261 307.584 
L 265.880851 307.584 
L 267.76295 307.584 
L 268.059343 307.584 
L 268.118622 307.584 
L 269.600589 307.584 
L 270.756523 307.584 
L 281.619343 307.584 
L 281.75272 307.584 
L 285.620654 307.584 
L 290.851998 307.584 
L 291.6819 307.584 
L 295.549834 307.584 
L 295.949965 307.584 
L 296.083342 307.584 
L 301.477703 307.584 
L 301.848194 307.584 
L 309.969374 307.584 
L 312.636915 307.584 
L 315.615669 307.584 
L 317.216194 307.584 
L 319.794817 307.584 
L 321.825112 307.584 
L 324.952062 307.584 
L 333.947603 307.584 
L 339.445701 307.584 
L 353.272455 307.584 
L 387.253962 307.584 
L 388.898945 307.584 
L 398.487273 307.584 
L 398.487273 306.853625 
L 398.487273 306.853625 
L 388.898945 306.123251 
L 387.253962 305.392876 
L 353.272455 304.662501 
L 339.445701 303.932127 
L 333.947603 303.201752 
L 324.952062 302.471378 
L 321.825112 301.741003 
L 319.794817 301.010628 
L 317.216194 300.280254 
L 315.615669 299.549879 
L 312.636915 298.819504 
L 309.969374 298.08913 
L 301.848194 297.358755 
L 301.477703 296.62838 
L 296.083342 295.898006 
L 295.949965 295.167631 
L 295.549834 294.437256 
L 291.6819 293.706882 
L 290.851998 292.976507 
L 285.620654 292.246133 
L 281.75272 291.515758 
L 281.619343 290.785383 
L 270.756523 289.324634 
L 269.600589 288.594259 
L 268.118622 287.13351 
L 268.059343 286.403135 
L 267.76295 285.672761 
L 265.880851 284.942386 
L 265.436261 284.212012 
L 263.376327 283.481637 
L 262.709442 282.751262 
L 258.915606 282.020888 
L 257.315081 280.560138 
L 253.876917 279.829764 
L 253.017376 279.099389 
L 252.913639 278.369014 
L 252.513508 277.63864 
L 249.845967 276.908265 
L 248.571475 276.17789 
L 246.378164 275.447516 
L 245.414885 274.717141 
L 245.17777 273.986767 
L 244.896196 270.334893 
L 241.072721 269.604519 
L 240.035344 268.874144 
L 239.324 268.143769 
L 238.86459 267.413395 
L 238.40518 266.68302 
L 237.456721 265.952646 
L 237.249246 265.222271 
L 236.997311 264.491896 
L 236.419344 263.761522 
L 235.604262 263.031147 
L 235.530164 262.300772 
L 234.033377 261.570398 
L 232.744066 260.840023 
L 232.047541 259.379274 
L 231.928984 258.648899 
L 231.573312 257.918524 
L 231.084262 256.457775 
L 231.010164 255.727401 
L 229.276263 254.997026 
L 228.49082 254.266651 
L 227.023672 253.536277 
L 225.764 252.805902 
L 225.304591 252.075527 
L 224.948918 251.345153 
L 224.682164 250.614778 
L 222.296197 249.884403 
L 221.851607 249.154029 
L 221.762689 248.423654 
L 221.555214 247.69328 
L 220.903148 246.962905 
L 219.628656 246.23253 
L 218.99141 245.502156 
L 218.56164 245.502156 
L 218.428263 244.771781 
L 217.628001 243.311032 
L 217.346427 242.580657 
L 214.560329 241.850282 
L 212.856066 239.659159 
L 212.811607 238.928784 
L 211.655673 237.468035 
L 210.840591 236.73766 
L 209.477181 236.007285 
L 208.676919 235.276911 
L 207.71364 234.546536 
L 206.320591 233.816161 
L 204.453313 233.085787 
L 204.438493 232.355412 
L 203.549313 231.625037 
L 203.415936 230.164288 
L 202.408198 228.703539 
L 200.822493 227.973164 
L 200.155608 227.24279 
L 199.948132 226.512415 
L 199.103411 225.78204 
L 198.866296 224.321291 
L 198.569903 222.860542 
L 193.916526 222.130167 
L 192.167805 221.399793 
L 191.130428 220.669418 
L 190.848854 219.939043 
L 189.426166 219.208669 
L 189.159412 218.478294 
L 188.536985 217.747919 
L 188.196133 217.017545 
L 187.692264 216.28717 
L 187.499608 215.556795 
L 185.928723 214.826421 
L 185.543412 214.096046 
L 185.128461 213.365671 
L 184.431936 212.635297 
L 183.024068 211.904922 
L 181.230887 210.444173 
L 180.282428 209.713798 
L 179.363609 208.983424 
L 179.170953 208.253049 
L 179.082035 207.522674 
L 178.681904 206.7923 
L 178.563346 206.061925 
L 178.444789 205.33155 
L 177.985379 204.601176 
L 177.94092 203.870801 
L 177.170297 202.410052 
L 176.770166 201.679677 
L 175.614232 200.218928 
L 175.25856 199.488553 
L 172.872592 198.758179 
L 169.893838 197.297429 
L 169.775281 196.567055 
L 169.627084 195.106305 
L 168.841642 194.375931 
L 167.863543 193.645556 
L 167.433773 192.915182 
L 167.12256 192.184807 
L 165.462757 191.454432 
L 165.255281 190.724058 
L 164.380921 190.724058 
L 161.624462 189.993683 
L 161.491085 189.263308 
L 160.34997 188.532934 
L 159.43115 187.802559 
L 158.897642 187.072184 
L 158.497511 186.34181 
L 157.549052 185.611435 
L 156.956265 184.881061 
L 156.437577 184.150686 
L 155.741052 183.420311 
L 155.548396 182.689937 
L 155.311282 181.959562 
L 155.237183 181.229187 
L 154.288724 180.498813 
L 151.250692 179.768438 
L 150.732003 179.038063 
L 150.672724 178.307689 
L 150.494888 177.577314 
L 150.005839 176.846939 
L 149.9762 176.116565 
L 149.857643 175.38619 
L 149.427872 175.38619 
L 149.0722 174.655816 
L 148.301577 173.925441 
L 147.323479 173.195066 
L 146.686233 172.464692 
L 146.612134 171.734317 
L 144.463282 171.003942 
L 144.255807 170.273568 
L 143.455544 169.543193 
L 143.040594 168.812818 
L 142.922036 168.082444 
L 141.351151 167.352069 
L 140.0322 166.621695 
L 139.513512 165.89132 
L 138.891086 165.160945 
L 136.668135 163.700196 
L 135.275086 162.969821 
L 133.763479 162.239447 
L 132.711282 161.509072 
L 132.148135 160.048323 
L 131.46643 159.317948 
L 131.184856 158.587573 
L 131.125578 157.857199 
L 129.347217 157.126824 
L 128.843348 156.39645 
L 126.827873 155.666075 
L 126.442561 154.9357 
L 125.420004 154.205326 
L 124.530824 153.474951 
L 123.686102 152.744576 
L 122.856201 152.014202 
L 121.55207 151.283827 
L 118.85489 150.553452 
L 118.721513 150.553452 
L 118.558496 149.823078 
L 118.38066 149.092703 
L 116.750496 148.362329 
L 116.439283 147.631954 
L 115.757578 146.171205 
L 114.275611 145.44083 
L 114.142234 144.710455 
L 113.608726 144.710455 
L 113.075218 143.980081 
L 112.615808 143.249706 
L 112.037841 142.519331 
L 111.993382 141.788957 
L 110.70407 141.058582 
L 110.437316 140.328207 
L 107.799415 139.597833 
L 107.473382 138.867458 
L 106.717579 138.137084 
L 106.67312 138.137084 
L 106.6583 137.406709 
L 104.702103 137.406709 
L 104.138956 136.676334 
L 103.516529 135.94596 
L 103.0423 135.94596 
L 100.863808 135.215585 
L 100.760071 135.215585 
L 100.033907 135.215585 
L 99.737513 135.215585 
L 98.892792 134.48521 
L 98.611218 133.754836 
L 98.181448 133.024461 
L 98.003612 132.294086 
L 97.381185 131.563712 
L 96.417907 131.563712 
L 94.847022 131.563712 
L 94.046759 130.833337 
L 93.987481 130.833337 
L 93.57253 130.102963 
L 93.453972 129.372588 
L 93.202038 128.642213 
L 92.876005 127.181464 
L 92.238759 127.181464 
L 91.512595 126.451089 
L 91.171743 124.99034 
L 90.801251 124.259965 
L 89.689776 123.529591 
L 88.845055 122.799216 
L 88.770956 122.799216 
L 87.214891 122.799216 
L 87.170432 122.068841 
L 86.755481 122.068841 
L 85.955219 121.338467 
L 85.658825 121.338467 
L 84.458432 121.338467 
L 84.384333 121.338467 
L 84.369514 121.338467 
L 84.295415 121.338467 
L 83.776727 121.338467 
L 82.843088 121.338467 
L 81.968727 121.338467 
L 81.687153 120.608092 
L 81.568596 120.608092 
L 81.450038 119.877718 
L 81.346301 119.877718 
L 81.064727 119.147343 
L 80.234825 119.147343 
L 79.834694 118.416968 
L 79.745776 117.686594 
L 79.286366 116.956219 
L 79.241907 116.225844 
L 79.13817 116.225844 
L 78.886235 116.225844 
L 78.456465 116.225844 
L 78.130432 116.225844 
L 78.056334 115.49547 
L 77.419088 115.49547 
L 76.915219 114.765095 
L 76.811481 114.765095 
L 76.692924 114.765095 
L 76.633645 114.765095 
L 76.559547 114.03472 
L 76.470629 114.03472 
L 76.114957 114.03472 
L 76.026039 114.03472 
L 75.95194 114.03472 
L 75.877842 114.03472 
L 75.848203 114.03472 
L 75.759285 114.03472 
L 75.181317 113.304346 
L 75.107219 111.843597 
L 74.855285 111.843597 
L 74.647809 111.843597 
L 74.381055 111.843597 
L 74.292137 111.843597 
L 73.921645 111.843597 
L 73.877186 110.382847 
L 73.862367 110.382847 
L 73.832727 110.382847 
z
" clip-path="url(#p2d53c46aff)" style="fill: #008000"/>
   </g>
   <g id="PolyCollection_2">
    <path d="M 73.832727 110.382847 
L 73.832727 110.382847 
L 73.862367 110.382847 
L 73.877186 110.382847 
L 73.921645 111.843597 
L 74.292137 111.843597 
L 74.381055 111.843597 
L 74.647809 111.843597 
L 74.855285 111.843597 
L 75.107219 111.843597 
L 75.181317 113.304346 
L 75.759285 114.03472 
L 75.848203 114.03472 
L 75.877842 114.03472 
L 75.95194 114.03472 
L 76.026039 114.03472 
L 76.114957 114.03472 
L 76.470629 114.03472 
L 76.559547 114.03472 
L 76.633645 114.765095 
L 76.692924 114.765095 
L 76.811481 114.765095 
L 76.915219 114.765095 
L 77.419088 115.49547 
L 78.056334 115.49547 
L 78.130432 116.225844 
L 78.456465 116.225844 
L 78.886235 116.225844 
L 79.13817 116.225844 
L 79.241907 116.225844 
L 79.286366 116.956219 
L 79.745776 117.686594 
L 79.834694 118.416968 
L 80.234825 119.147343 
L 81.064727 119.147343 
L 81.346301 119.877718 
L 81.450038 119.877718 
L 81.568596 120.608092 
L 81.687153 120.608092 
L 81.968727 121.338467 
L 82.843088 121.338467 
L 83.776727 121.338467 
L 84.295415 121.338467 
L 84.369514 121.338467 
L 84.384333 121.338467 
L 84.458432 121.338467 
L 85.658825 121.338467 
L 85.955219 121.338467 
L 86.755481 122.068841 
L 87.170432 122.068841 
L 87.214891 122.799216 
L 88.770956 122.799216 
L 88.845055 122.799216 
L 89.689776 123.529591 
L 90.801251 124.259965 
L 91.171743 124.99034 
L 91.512595 126.451089 
L 92.238759 127.181464 
L 92.876005 127.181464 
L 93.202038 128.642213 
L 93.453972 129.372588 
L 93.57253 130.102963 
L 93.987481 130.833337 
L 94.046759 130.833337 
L 94.847022 131.563712 
L 96.417907 131.563712 
L 97.381185 131.563712 
L 98.003612 132.294086 
L 98.181448 133.024461 
L 98.611218 133.754836 
L 98.892792 134.48521 
L 99.737513 135.215585 
L 100.033907 135.215585 
L 100.760071 135.215585 
L 100.863808 135.215585 
L 103.0423 135.94596 
L 103.516529 135.94596 
L 104.138956 136.676334 
L 104.702103 137.406709 
L 106.6583 137.406709 
L 106.67312 138.137084 
L 106.717579 138.137084 
L 107.473382 138.867458 
L 107.799415 139.597833 
L 110.437316 140.328207 
L 110.70407 141.058582 
L 111.993382 141.788957 
L 112.037841 142.519331 
L 112.615808 143.249706 
L 113.075218 143.980081 
L 113.608726 144.710455 
L 114.142234 144.710455 
L 114.275611 145.44083 
L 115.757578 146.171205 
L 116.439283 147.631954 
L 116.750496 148.362329 
L 118.38066 149.092703 
L 118.558496 149.823078 
L 118.721513 150.553452 
L 118.85489 150.553452 
L 121.55207 151.283827 
L 122.856201 152.014202 
L 123.686102 152.744576 
L 124.530824 153.474951 
L 125.420004 154.205326 
L 126.442561 154.9357 
L 126.827873 155.666075 
L 128.843348 156.39645 
L 129.347217 157.126824 
L 131.125578 157.857199 
L 131.184856 158.587573 
L 131.46643 159.317948 
L 132.148135 160.048323 
L 132.711282 161.509072 
L 133.763479 162.239447 
L 135.275086 162.969821 
L 136.668135 163.700196 
L 138.891086 165.160945 
L 139.513512 165.89132 
L 140.0322 166.621695 
L 141.351151 167.352069 
L 142.922036 168.082444 
L 143.040594 168.812818 
L 143.455544 169.543193 
L 144.255807 170.273568 
L 144.463282 171.003942 
L 146.612134 171.734317 
L 146.686233 172.464692 
L 147.323479 173.195066 
L 148.301577 173.925441 
L 149.0722 174.655816 
L 149.427872 175.38619 
L 149.857643 175.38619 
L 149.9762 176.116565 
L 150.005839 176.846939 
L 150.494888 177.577314 
L 150.672724 178.307689 
L 150.732003 179.038063 
L 151.250692 179.768438 
L 154.288724 180.498813 
L 155.237183 181.229187 
L 155.311282 181.959562 
L 155.548396 182.689937 
L 155.741052 183.420311 
L 156.437577 184.150686 
L 156.956265 184.881061 
L 157.549052 185.611435 
L 158.497511 186.34181 
L 158.897642 187.072184 
L 159.43115 187.802559 
L 160.34997 188.532934 
L 161.491085 189.263308 
L 161.624462 189.993683 
L 164.380921 190.724058 
L 165.255281 190.724058 
L 165.462757 191.454432 
L 167.12256 192.184807 
L 167.433773 192.915182 
L 167.863543 193.645556 
L 168.841642 194.375931 
L 169.627084 195.106305 
L 169.775281 196.567055 
L 169.893838 197.297429 
L 172.872592 198.758179 
L 175.25856 199.488553 
L 175.614232 200.218928 
L 176.770166 201.679677 
L 177.170297 202.410052 
L 177.94092 203.870801 
L 177.985379 204.601176 
L 178.444789 205.33155 
L 178.563346 206.061925 
L 178.681904 206.7923 
L 179.082035 207.522674 
L 179.170953 208.253049 
L 179.363609 208.983424 
L 180.282428 209.713798 
L 181.230887 210.444173 
L 183.024068 211.904922 
L 184.431936 212.635297 
L 185.128461 213.365671 
L 185.543412 214.096046 
L 185.928723 214.826421 
L 187.499608 215.556795 
L 187.692264 216.28717 
L 188.196133 217.017545 
L 188.536985 217.747919 
L 189.159412 218.478294 
L 189.426166 219.208669 
L 190.848854 219.939043 
L 191.130428 220.669418 
L 192.167805 221.399793 
L 193.916526 222.130167 
L 198.569903 222.860542 
L 198.866296 224.321291 
L 199.103411 225.78204 
L 199.948132 226.512415 
L 200.155608 227.24279 
L 200.822493 227.973164 
L 202.408198 228.703539 
L 203.415936 230.164288 
L 203.549313 231.625037 
L 204.438493 232.355412 
L 204.453313 233.085787 
L 206.320591 233.816161 
L 207.71364 234.546536 
L 208.676919 235.276911 
L 209.477181 236.007285 
L 210.840591 236.73766 
L 211.655673 237.468035 
L 212.811607 238.928784 
L 212.856066 239.659159 
L 214.560329 241.850282 
L 217.346427 242.580657 
L 217.628001 243.311032 
L 218.428263 244.771781 
L 218.56164 245.502156 
L 218.99141 245.502156 
L 219.628656 246.23253 
L 220.903148 246.962905 
L 221.555214 247.69328 
L 221.762689 248.423654 
L 221.851607 249.154029 
L 222.296197 249.884403 
L 224.682164 250.614778 
L 224.948918 251.345153 
L 225.304591 252.075527 
L 225.764 252.805902 
L 227.023672 253.536277 
L 228.49082 254.266651 
L 229.276263 254.997026 
L 231.010164 255.727401 
L 231.084262 256.457775 
L 231.573312 257.918524 
L 231.928984 258.648899 
L 232.047541 259.379274 
L 232.744066 260.840023 
L 234.033377 261.570398 
L 235.530164 262.300772 
L 235.604262 263.031147 
L 236.419344 263.761522 
L 236.997311 264.491896 
L 237.249246 265.222271 
L 237.456721 265.952646 
L 238.40518 266.68302 
L 238.86459 267.413395 
L 239.324 268.143769 
L 240.035344 268.874144 
L 241.072721 269.604519 
L 244.896196 270.334893 
L 245.17777 273.986767 
L 245.414885 274.717141 
L 246.378164 275.447516 
L 248.571475 276.17789 
L 249.845967 276.908265 
L 252.513508 277.63864 
L 252.913639 278.369014 
L 253.017376 279.099389 
L 253.876917 279.829764 
L 257.315081 280.560138 
L 258.915606 282.020888 
L 262.709442 282.751262 
L 263.376327 283.481637 
L 265.436261 284.212012 
L 265.880851 284.942386 
L 267.76295 285.672761 
L 268.059343 286.403135 
L 268.118622 287.13351 
L 269.600589 288.594259 
L 270.756523 289.324634 
L 281.619343 290.785383 
L 281.75272 291.515758 
L 285.620654 292.246133 
L 290.851998 292.976507 
L 291.6819 293.706882 
L 295.549834 294.437256 
L 295.949965 295.167631 
L 296.083342 295.898006 
L 301.477703 296.62838 
L 301.848194 297.358755 
L 309.969374 298.08913 
L 312.636915 298.819504 
L 315.615669 299.549879 
L 317.216194 300.280254 
L 319.794817 301.010628 
L 321.825112 301.741003 
L 324.952062 302.471378 
L 333.947603 303.201752 
L 339.445701 303.932127 
L 353.272455 304.662501 
L 387.253962 305.392876 
L 388.898945 306.123251 
L 398.487273 306.853625 
L 398.487273 306.853625 
L 398.487273 306.853625 
L 388.898945 306.123251 
L 387.253962 305.392876 
L 353.272455 304.662501 
L 339.445701 303.932127 
L 333.947603 303.201752 
L 324.952062 302.471378 
L 321.825112 301.741003 
L 319.794817 301.010628 
L 317.216194 300.280254 
L 315.615669 299.549879 
L 312.636915 298.819504 
L 309.969374 298.08913 
L 301.848194 297.358755 
L 301.477703 296.62838 
L 296.083342 295.898006 
L 295.949965 295.167631 
L 295.549834 294.437256 
L 291.6819 293.706882 
L 290.851998 292.976507 
L 285.620654 292.246133 
L 281.75272 291.515758 
L 281.619343 290.785383 
L 270.756523 289.324634 
L 269.600589 288.594259 
L 268.118622 287.13351 
L 268.059343 286.403135 
L 267.76295 285.672761 
L 265.880851 284.942386 
L 265.436261 284.212012 
L 263.376327 283.481637 
L 262.709442 282.751262 
L 258.915606 282.020888 
L 257.315081 280.560138 
L 253.876917 279.829764 
L 253.017376 279.099389 
L 252.913639 278.369014 
L 252.513508 277.63864 
L 249.845967 276.908265 
L 248.571475 276.17789 
L 246.378164 275.447516 
L 245.414885 274.717141 
L 245.17777 273.986767 
L 244.896196 270.334893 
L 241.072721 269.604519 
L 240.035344 268.874144 
L 239.324 268.143769 
L 238.86459 267.413395 
L 238.40518 266.68302 
L 237.456721 265.952646 
L 237.249246 265.222271 
L 236.997311 264.491896 
L 236.419344 263.761522 
L 235.604262 263.031147 
L 235.530164 262.300772 
L 234.033377 261.570398 
L 232.744066 260.840023 
L 232.047541 259.379274 
L 231.928984 258.648899 
L 231.573312 257.918524 
L 231.084262 256.457775 
L 231.010164 255.727401 
L 229.276263 254.997026 
L 228.49082 254.266651 
L 227.023672 253.536277 
L 225.764 252.805902 
L 225.304591 252.075527 
L 224.948918 251.345153 
L 224.682164 250.614778 
L 222.296197 249.884403 
L 221.851607 249.154029 
L 221.762689 248.423654 
L 221.555214 247.69328 
L 220.903148 246.962905 
L 219.628656 246.23253 
L 218.99141 245.502156 
L 218.56164 245.502156 
L 218.428263 244.771781 
L 217.628001 243.311032 
L 217.346427 242.580657 
L 214.560329 241.850282 
L 212.856066 239.659159 
L 212.811607 238.928784 
L 211.655673 237.468035 
L 210.840591 236.73766 
L 209.477181 236.007285 
L 208.676919 235.276911 
L 207.71364 234.546536 
L 206.320591 233.816161 
L 204.453313 233.085787 
L 204.438493 232.355412 
L 203.549313 231.625037 
L 203.415936 230.164288 
L 202.408198 228.703539 
L 200.822493 227.973164 
L 200.155608 227.24279 
L 199.948132 226.512415 
L 199.103411 225.78204 
L 198.866296 224.321291 
L 198.569903 222.860542 
L 193.916526 222.130167 
L 192.167805 221.399793 
L 191.130428 220.669418 
L 190.848854 219.939043 
L 189.426166 219.208669 
L 189.159412 218.478294 
L 188.536985 217.747919 
L 188.196133 217.017545 
L 187.692264 216.28717 
L 187.499608 215.556795 
L 185.928723 214.826421 
L 185.543412 214.096046 
L 185.128461 213.365671 
L 184.431936 212.635297 
L 183.024068 211.904922 
L 181.230887 210.444173 
L 180.282428 209.713798 
L 179.363609 208.983424 
L 179.170953 208.253049 
L 179.082035 207.522674 
L 178.681904 206.7923 
L 178.563346 206.061925 
L 178.444789 205.33155 
L 177.985379 204.601176 
L 177.94092 203.870801 
L 177.170297 202.410052 
L 176.770166 201.679677 
L 175.614232 200.218928 
L 175.25856 199.488553 
L 172.872592 198.758179 
L 169.893838 197.297429 
L 169.775281 196.567055 
L 169.627084 195.106305 
L 168.841642 194.375931 
L 167.863543 193.645556 
L 167.433773 192.915182 
L 167.12256 192.184807 
L 165.462757 191.454432 
L 165.255281 190.724058 
L 164.380921 190.724058 
L 161.624462 189.993683 
L 161.491085 189.263308 
L 160.34997 188.532934 
L 159.43115 187.802559 
L 158.897642 187.072184 
L 158.497511 186.34181 
L 157.549052 185.611435 
L 156.956265 184.881061 
L 156.437577 184.150686 
L 155.741052 183.420311 
L 155.548396 182.689937 
L 155.311282 181.959562 
L 155.237183 181.229187 
L 154.288724 180.498813 
L 151.250692 179.768438 
L 150.732003 179.038063 
L 150.672724 178.307689 
L 150.494888 177.577314 
L 150.005839 176.846939 
L 149.9762 176.116565 
L 149.857643 175.38619 
L 149.427872 175.38619 
L 149.0722 174.655816 
L 148.301577 173.925441 
L 147.323479 173.195066 
L 146.686233 172.464692 
L 146.612134 171.734317 
L 144.463282 171.003942 
L 144.255807 170.273568 
L 143.455544 169.543193 
L 143.040594 168.812818 
L 142.922036 168.082444 
L 141.351151 167.352069 
L 140.0322 166.621695 
L 139.513512 165.89132 
L 138.891086 165.160945 
L 136.668135 163.700196 
L 135.275086 162.969821 
L 133.763479 162.239447 
L 132.711282 161.509072 
L 132.148135 160.048323 
L 131.46643 159.317948 
L 131.184856 158.587573 
L 131.125578 157.857199 
L 129.347217 157.126824 
L 128.843348 156.39645 
L 126.827873 155.666075 
L 126.442561 154.9357 
L 125.420004 154.205326 
L 124.530824 153.474951 
L 123.686102 152.744576 
L 122.856201 152.014202 
L 121.55207 151.283827 
L 118.85489 150.553452 
L 118.721513 150.553452 
L 118.558496 149.823078 
L 118.38066 149.092703 
L 116.750496 148.362329 
L 116.439283 147.631954 
L 115.757578 146.171205 
L 114.275611 145.44083 
L 114.142234 144.710455 
L 113.608726 144.710455 
L 113.075218 143.980081 
L 112.615808 143.249706 
L 112.037841 142.519331 
L 111.993382 141.788957 
L 110.70407 141.058582 
L 110.437316 140.328207 
L 107.799415 139.597833 
L 107.473382 138.867458 
L 106.717579 138.137084 
L 106.67312 138.137084 
L 106.6583 137.406709 
L 104.702103 137.406709 
L 104.138956 136.676334 
L 103.516529 135.94596 
L 103.0423 135.94596 
L 100.863808 135.215585 
L 100.760071 135.215585 
L 100.033907 135.215585 
L 99.737513 135.215585 
L 98.892792 134.48521 
L 98.611218 133.754836 
L 98.181448 133.024461 
L 98.003612 132.294086 
L 97.381185 131.563712 
L 96.417907 131.563712 
L 94.847022 131.563712 
L 94.046759 130.833337 
L 93.987481 130.833337 
L 93.57253 130.102963 
L 93.453972 129.372588 
L 93.202038 128.642213 
L 92.876005 127.181464 
L 92.238759 127.181464 
L 91.512595 126.451089 
L 91.171743 124.99034 
L 90.801251 124.259965 
L 89.689776 123.529591 
L 88.845055 122.799216 
L 88.770956 122.799216 
L 87.214891 122.799216 
L 87.170432 122.068841 
L 86.755481 122.068841 
L 85.955219 121.338467 
L 85.658825 121.338467 
L 84.458432 121.338467 
L 84.384333 121.338467 
L 84.369514 121.338467 
L 84.295415 121.338467 
L 83.776727 121.338467 
L 82.843088 121.338467 
L 81.968727 121.338467 
L 81.687153 120.608092 
L 81.568596 120.608092 
L 81.450038 119.877718 
L 81.346301 119.877718 
L 81.064727 119.147343 
L 80.234825 119.147343 
L 79.834694 118.416968 
L 79.745776 117.686594 
L 79.286366 116.956219 
L 79.241907 116.225844 
L 79.13817 116.225844 
L 78.886235 116.225844 
L 78.456465 116.225844 
L 78.130432 116.225844 
L 78.056334 115.49547 
L 77.419088 115.49547 
L 76.915219 114.765095 
L 76.811481 114.765095 
L 76.692924 114.765095 
L 76.633645 114.765095 
L 76.559547 114.03472 
L 76.470629 114.03472 
L 76.114957 114.03472 
L 76.026039 114.03472 
L 75.95194 114.03472 
L 75.877842 114.03472 
L 75.848203 114.03472 
L 75.759285 114.03472 
L 75.181317 113.304346 
L 75.107219 111.843597 
L 74.855285 111.843597 
L 74.647809 111.843597 
L 74.381055 111.843597 
L 74.292137 111.843597 
L 73.921645 111.843597 
L 73.877186 110.382847 
L 73.862367 110.382847 
L 73.832727 110.382847 
z
" clip-path="url(#p2d53c46aff)" style="fill: #7cfc00"/>
   </g>
   <g id="PolyCollection_3">
    <path d="M 73.832727 54.144 
L 73.832727 110.382847 
L 73.862367 110.382847 
L 73.877186 110.382847 
L 73.921645 111.843597 
L 74.292137 111.843597 
L 74.381055 111.843597 
L 74.647809 111.843597 
L 74.855285 111.843597 
L 75.107219 111.843597 
L 75.181317 113.304346 
L 75.759285 114.03472 
L 75.848203 114.03472 
L 75.877842 114.03472 
L 75.95194 114.03472 
L 76.026039 114.03472 
L 76.114957 114.03472 
L 76.470629 114.03472 
L 76.559547 114.03472 
L 76.633645 114.765095 
L 76.692924 114.765095 
L 76.811481 114.765095 
L 76.915219 114.765095 
L 77.419088 115.49547 
L 78.056334 115.49547 
L 78.130432 116.225844 
L 78.456465 116.225844 
L 78.886235 116.225844 
L 79.13817 116.225844 
L 79.241907 116.225844 
L 79.286366 116.956219 
L 79.745776 117.686594 
L 79.834694 118.416968 
L 80.234825 119.147343 
L 81.064727 119.147343 
L 81.346301 119.877718 
L 81.450038 119.877718 
L 81.568596 120.608092 
L 81.687153 120.608092 
L 81.968727 121.338467 
L 82.843088 121.338467 
L 83.776727 121.338467 
L 84.295415 121.338467 
L 84.369514 121.338467 
L 84.384333 121.338467 
L 84.458432 121.338467 
L 85.658825 121.338467 
L 85.955219 121.338467 
L 86.755481 122.068841 
L 87.170432 122.068841 
L 87.214891 122.799216 
L 88.770956 122.799216 
L 88.845055 122.799216 
L 89.689776 123.529591 
L 90.801251 124.259965 
L 91.171743 124.99034 
L 91.512595 126.451089 
L 92.238759 127.181464 
L 92.876005 127.181464 
L 93.202038 128.642213 
L 93.453972 129.372588 
L 93.57253 130.102963 
L 93.987481 130.833337 
L 94.046759 130.833337 
L 94.847022 131.563712 
L 96.417907 131.563712 
L 97.381185 131.563712 
L 98.003612 132.294086 
L 98.181448 133.024461 
L 98.611218 133.754836 
L 98.892792 134.48521 
L 99.737513 135.215585 
L 100.033907 135.215585 
L 100.760071 135.215585 
L 100.863808 135.215585 
L 103.0423 135.94596 
L 103.516529 135.94596 
L 104.138956 136.676334 
L 104.702103 137.406709 
L 106.6583 137.406709 
L 106.67312 138.137084 
L 106.717579 138.137084 
L 107.473382 138.867458 
L 107.799415 139.597833 
L 110.437316 140.328207 
L 110.70407 141.058582 
L 111.993382 141.788957 
L 112.037841 142.519331 
L 112.615808 143.249706 
L 113.075218 143.980081 
L 113.608726 144.710455 
L 114.142234 144.710455 
L 114.275611 145.44083 
L 115.757578 146.171205 
L 116.439283 147.631954 
L 116.750496 148.362329 
L 118.38066 149.092703 
L 118.558496 149.823078 
L 118.721513 150.553452 
L 118.85489 150.553452 
L 121.55207 151.283827 
L 122.856201 152.014202 
L 123.686102 152.744576 
L 124.530824 153.474951 
L 125.420004 154.205326 
L 126.442561 154.9357 
L 126.827873 155.666075 
L 128.843348 156.39645 
L 129.347217 157.126824 
L 131.125578 157.857199 
L 131.184856 158.587573 
L 131.46643 159.317948 
L 132.148135 160.048323 
L 132.711282 161.509072 
L 133.763479 162.239447 
L 135.275086 162.969821 
L 136.668135 163.700196 
L 138.891086 165.160945 
L 139.513512 165.89132 
L 140.0322 166.621695 
L 141.351151 167.352069 
L 142.922036 168.082444 
L 143.040594 168.812818 
L 143.455544 169.543193 
L 144.255807 170.273568 
L 144.463282 171.003942 
L 146.612134 171.734317 
L 146.686233 172.464692 
L 147.323479 173.195066 
L 148.301577 173.925441 
L 149.0722 174.655816 
L 149.427872 175.38619 
L 149.857643 175.38619 
L 149.9762 176.116565 
L 150.005839 176.846939 
L 150.494888 177.577314 
L 150.672724 178.307689 
L 150.732003 179.038063 
L 151.250692 179.768438 
L 154.288724 180.498813 
L 155.237183 181.229187 
L 155.311282 181.959562 
L 155.548396 182.689937 
L 155.741052 183.420311 
L 156.437577 184.150686 
L 156.956265 184.881061 
L 157.549052 185.611435 
L 158.497511 186.34181 
L 158.897642 187.072184 
L 159.43115 187.802559 
L 160.34997 188.532934 
L 161.491085 189.263308 
L 161.624462 189.993683 
L 164.380921 190.724058 
L 165.255281 190.724058 
L 165.462757 191.454432 
L 167.12256 192.184807 
L 167.433773 192.915182 
L 167.863543 193.645556 
L 168.841642 194.375931 
L 169.627084 195.106305 
L 169.775281 196.567055 
L 169.893838 197.297429 
L 172.872592 198.758179 
L 175.25856 199.488553 
L 175.614232 200.218928 
L 176.770166 201.679677 
L 177.170297 202.410052 
L 177.94092 203.870801 
L 177.985379 204.601176 
L 178.444789 205.33155 
L 178.563346 206.061925 
L 178.681904 206.7923 
L 179.082035 207.522674 
L 179.170953 208.253049 
L 179.363609 208.983424 
L 180.282428 209.713798 
L 181.230887 210.444173 
L 183.024068 211.904922 
L 184.431936 212.635297 
L 185.128461 213.365671 
L 185.543412 214.096046 
L 185.928723 214.826421 
L 187.499608 215.556795 
L 187.692264 216.28717 
L 188.196133 217.017545 
L 188.536985 217.747919 
L 189.159412 218.478294 
L 189.426166 219.208669 
L 190.848854 219.939043 
L 191.130428 220.669418 
L 192.167805 221.399793 
L 193.916526 222.130167 
L 198.569903 222.860542 
L 198.866296 224.321291 
L 199.103411 225.78204 
L 199.948132 226.512415 
L 200.155608 227.24279 
L 200.822493 227.973164 
L 202.408198 228.703539 
L 203.415936 230.164288 
L 203.549313 231.625037 
L 204.438493 232.355412 
L 204.453313 233.085787 
L 206.320591 233.816161 
L 207.71364 234.546536 
L 208.676919 235.276911 
L 209.477181 236.007285 
L 210.840591 236.73766 
L 211.655673 237.468035 
L 212.811607 238.928784 
L 212.856066 239.659159 
L 214.560329 241.850282 
L 217.346427 242.580657 
L 217.628001 243.311032 
L 218.428263 244.771781 
L 218.56164 245.502156 
L 218.99141 245.502156 
L 219.628656 246.23253 
L 220.903148 246.962905 
L 221.555214 247.69328 
L 221.762689 248.423654 
L 221.851607 249.154029 
L 222.296197 249.884403 
L 224.682164 250.614778 
L 224.948918 251.345153 
L 225.304591 252.075527 
L 225.764 252.805902 
L 227.023672 253.536277 
L 228.49082 254.266651 
L 229.276263 254.997026 
L 231.010164 255.727401 
L 231.084262 256.457775 
L 231.573312 257.918524 
L 231.928984 258.648899 
L 232.047541 259.379274 
L 232.744066 260.840023 
L 234.033377 261.570398 
L 235.530164 262.300772 
L 235.604262 263.031147 
L 236.419344 263.761522 
L 236.997311 264.491896 
L 237.249246 265.222271 
L 237.456721 265.952646 
L 238.40518 266.68302 
L 238.86459 267.413395 
L 239.324 268.143769 
L 240.035344 268.874144 
L 241.072721 269.604519 
L 244.896196 270.334893 
L 245.17777 273.986767 
L 245.414885 274.717141 
L 246.378164 275.447516 
L 248.571475 276.17789 
L 249.845967 276.908265 
L 252.513508 277.63864 
L 252.913639 278.369014 
L 253.017376 279.099389 
L 253.876917 279.829764 
L 257.315081 280.560138 
L 258.915606 282.020888 
L 262.709442 282.751262 
L 263.376327 283.481637 
L 265.436261 284.212012 
L 265.880851 284.942386 
L 267.76295 285.672761 
L 268.059343 286.403135 
L 268.118622 287.13351 
L 269.600589 288.594259 
L 270.756523 289.324634 
L 281.619343 290.785383 
L 281.75272 291.515758 
L 285.620654 292.246133 
L 290.851998 292.976507 
L 291.6819 293.706882 
L 295.549834 294.437256 
L 295.949965 295.167631 
L 296.083342 295.898006 
L 301.477703 296.62838 
L 301.848194 297.358755 
L 309.969374 298.08913 
L 312.636915 298.819504 
L 315.615669 299.549879 
L 317.216194 300.280254 
L 319.794817 301.010628 
L 321.825112 301.741003 
L 324.952062 302.471378 
L 333.947603 303.201752 
L 339.445701 303.932127 
L 353.272455 304.662501 
L 387.253962 305.392876 
L 388.898945 306.123251 
L 398.487273 306.853625 
L 398.487273 306.853625 
L 398.487273 306.853625 
L 388.898945 306.123251 
L 387.253962 305.392876 
L 353.272455 304.662501 
L 339.445701 303.932127 
L 333.947603 303.201752 
L 324.952062 302.471378 
L 321.825112 301.741003 
L 319.794817 301.010628 
L 317.216194 300.280254 
L 315.615669 299.549879 
L 312.636915 298.819504 
L 309.969374 298.08913 
L 301.848194 297.358755 
L 301.477703 296.62838 
L 296.083342 295.898006 
L 295.949965 295.167631 
L 295.549834 294.437256 
L 291.6819 293.706882 
L 290.851998 292.976507 
L 285.620654 292.246133 
L 281.75272 291.515758 
L 281.619343 290.785383 
L 270.756523 289.324634 
L 269.600589 288.594259 
L 268.118622 287.13351 
L 268.059343 286.403135 
L 267.76295 285.672761 
L 265.880851 284.942386 
L 265.436261 284.212012 
L 263.376327 283.481637 
L 262.709442 282.751262 
L 258.915606 282.020888 
L 257.315081 280.560138 
L 253.876917 279.829764 
L 253.017376 279.099389 
L 252.913639 278.369014 
L 252.513508 277.63864 
L 249.845967 276.908265 
L 248.571475 276.17789 
L 246.378164 275.447516 
L 245.414885 274.717141 
L 245.17777 273.986767 
L 244.896196 270.334893 
L 241.072721 269.604519 
L 240.035344 268.874144 
L 239.324 268.143769 
L 238.86459 267.413395 
L 238.40518 266.68302 
L 237.456721 265.952646 
L 237.249246 265.222271 
L 236.997311 264.491896 
L 236.419344 263.761522 
L 235.604262 263.031147 
L 235.530164 262.300772 
L 234.033377 261.570398 
L 232.744066 260.840023 
L 232.047541 259.379274 
L 231.928984 258.648899 
L 231.573312 257.918524 
L 231.084262 256.457775 
L 231.010164 255.727401 
L 229.276263 254.997026 
L 228.49082 254.266651 
L 227.023672 253.536277 
L 225.764 252.805902 
L 225.304591 252.075527 
L 224.948918 251.345153 
L 224.682164 250.614778 
L 222.296197 249.884403 
L 221.851607 249.154029 
L 221.762689 248.423654 
L 221.555214 247.69328 
L 220.903148 246.962905 
L 219.628656 246.23253 
L 218.99141 245.502156 
L 218.56164 244.771781 
L 218.428263 244.041406 
L 217.628001 242.580657 
L 217.346427 241.850282 
L 214.560329 241.119908 
L 212.856066 238.928784 
L 212.811607 238.198409 
L 211.655673 236.73766 
L 210.840591 236.007285 
L 209.477181 235.276911 
L 208.676919 234.546536 
L 207.71364 233.816161 
L 206.320591 233.085787 
L 204.453313 232.355412 
L 204.438493 231.625037 
L 203.549313 230.894663 
L 203.415936 229.433914 
L 202.408198 227.973164 
L 200.822493 227.24279 
L 200.155608 226.512415 
L 199.948132 225.78204 
L 199.103411 225.051666 
L 198.866296 223.590916 
L 198.569903 222.130167 
L 193.916526 221.399793 
L 192.167805 220.669418 
L 191.130428 219.939043 
L 190.848854 219.208669 
L 189.426166 218.478294 
L 189.159412 217.747919 
L 188.536985 217.017545 
L 188.196133 216.28717 
L 187.692264 215.556795 
L 187.499608 214.826421 
L 185.928723 214.096046 
L 185.543412 213.365671 
L 185.128461 212.635297 
L 184.431936 211.904922 
L 183.024068 211.174548 
L 181.230887 209.713798 
L 180.282428 208.983424 
L 179.363609 208.253049 
L 179.170953 207.522674 
L 179.082035 206.7923 
L 178.681904 206.061925 
L 178.563346 205.33155 
L 178.444789 204.601176 
L 177.985379 203.870801 
L 177.94092 203.140427 
L 177.170297 201.679677 
L 176.770166 200.949303 
L 175.614232 199.488553 
L 175.25856 198.758179 
L 172.872592 198.027804 
L 169.893838 196.567055 
L 169.775281 195.83668 
L 169.627084 194.375931 
L 168.841642 193.645556 
L 167.863543 192.915182 
L 167.433773 192.184807 
L 167.12256 191.454432 
L 165.462757 190.724058 
L 165.255281 189.993683 
L 164.380921 189.263308 
L 161.624462 188.532934 
L 161.491085 187.802559 
L 160.34997 187.072184 
L 159.43115 186.34181 
L 158.897642 185.611435 
L 158.497511 184.881061 
L 157.549052 184.150686 
L 156.956265 183.420311 
L 156.437577 182.689937 
L 155.741052 181.959562 
L 155.548396 181.229187 
L 155.311282 180.498813 
L 155.237183 179.768438 
L 154.288724 179.038063 
L 151.250692 178.307689 
L 150.732003 177.577314 
L 150.672724 176.846939 
L 150.494888 176.116565 
L 150.005839 175.38619 
L 149.9762 174.655816 
L 149.857643 173.925441 
L 149.427872 173.195066 
L 149.0722 172.464692 
L 148.301577 171.734317 
L 147.323479 171.003942 
L 146.686233 170.273568 
L 146.612134 169.543193 
L 144.463282 168.812818 
L 144.255807 168.082444 
L 143.455544 167.352069 
L 143.040594 166.621695 
L 142.922036 165.89132 
L 141.351151 165.160945 
L 140.0322 164.430571 
L 139.513512 163.700196 
L 138.891086 162.969821 
L 136.668135 161.509072 
L 135.275086 160.778697 
L 133.763479 160.048323 
L 132.711282 159.317948 
L 132.148135 157.857199 
L 131.46643 157.126824 
L 131.184856 156.39645 
L 131.125578 155.666075 
L 129.347217 154.9357 
L 128.843348 154.205326 
L 126.827873 153.474951 
L 126.442561 152.744576 
L 125.420004 152.014202 
L 124.530824 151.283827 
L 123.686102 150.553452 
L 122.856201 149.823078 
L 121.55207 149.092703 
L 118.85489 148.362329 
L 118.721513 147.631954 
L 118.558496 146.901579 
L 118.38066 146.171205 
L 116.750496 145.44083 
L 116.439283 144.710455 
L 115.757578 143.249706 
L 114.275611 142.519331 
L 114.142234 141.788957 
L 113.608726 141.058582 
L 113.075218 140.328207 
L 112.615808 139.597833 
L 112.037841 138.867458 
L 111.993382 138.137084 
L 110.70407 137.406709 
L 110.437316 136.676334 
L 107.799415 135.94596 
L 107.473382 135.215585 
L 106.717579 134.48521 
L 106.67312 133.754836 
L 106.6583 132.294086 
L 104.702103 131.563712 
L 104.138956 130.833337 
L 103.516529 130.102963 
L 103.0423 129.372588 
L 100.863808 128.642213 
L 100.760071 127.911839 
L 100.033907 127.181464 
L 99.737513 126.451089 
L 98.892792 125.720715 
L 98.611218 124.99034 
L 98.181448 124.259965 
L 98.003612 123.529591 
L 97.381185 122.799216 
L 96.417907 122.068841 
L 94.847022 121.338467 
L 94.046759 120.608092 
L 93.987481 119.877718 
L 93.57253 119.147343 
L 93.453972 117.686594 
L 93.202038 116.956219 
L 92.876005 115.49547 
L 92.238759 114.765095 
L 91.512595 114.03472 
L 91.171743 112.573971 
L 90.801251 111.843597 
L 89.689776 109.652473 
L 88.845055 108.191723 
L 88.770956 107.461349 
L 87.214891 105.270225 
L 87.170432 104.53985 
L 86.755481 103.809476 
L 85.955219 103.079101 
L 85.658825 102.348726 
L 84.458432 101.618352 
L 84.384333 100.887977 
L 84.369514 100.157602 
L 84.295415 99.427228 
L 83.776727 98.696853 
L 82.843088 97.966478 
L 81.968727 97.236104 
L 81.687153 96.505729 
L 81.568596 95.775354 
L 81.450038 92.123481 
L 81.346301 91.393107 
L 81.064727 90.662732 
L 80.234825 89.932357 
L 79.834694 89.201983 
L 79.745776 87.010859 
L 79.286366 86.280484 
L 79.241907 85.55011 
L 79.13817 82.628611 
L 78.886235 81.898236 
L 78.456465 81.167862 
L 78.130432 80.437487 
L 78.056334 78.976738 
L 77.419088 78.246363 
L 76.915219 75.324865 
L 76.811481 74.59449 
L 76.692924 73.864115 
L 76.633645 73.133741 
L 76.559547 72.403366 
L 76.470629 70.942617 
L 76.114957 70.212242 
L 76.026039 69.481867 
L 75.95194 68.751493 
L 75.877842 68.021118 
L 75.848203 67.290744 
L 75.759285 65.829994 
L 75.181317 65.09962 
L 75.107219 63.63887 
L 74.855285 62.908496 
L 74.647809 62.178121 
L 74.381055 60.717372 
L 74.292137 59.986997 
L 73.921645 59.256622 
L 73.877186 57.065499 
L 73.862367 55.604749 
L 73.832727 54.144 
z
" clip-path="url(#p2d53c46aff)" style="fill: #ff0000"/>
   </g>
   <g id="matplotlib.axis_1">
    <g id="xtick_1">
     <g id="line2d_1">
      <defs>
       <path id="mb336a2f020" d="M 0 0 
L 0 3.5 
" style="stroke: #000000; stroke-width: 0.8"/>
      </defs>
      <g>
       <use xlink:href="#mb336a2f020" x="62.110367" y="307.584" style="stroke: #000000; stroke-width: 0.8"/>
      </g>
     </g>
     <g id="text_1">
      <!-- 0 -->
      <g transform="translate(58.929117 322.182437)scale(0.1 -0.1)">
       <defs>
        <path id="DejaVuSans-30" d="M 2034 4250 
Q 1547 4250 1301 3770 
Q 1056 3291 1056 2328 
Q 1056 1369 1301 889 
Q 1547 409 2034 409 
Q 2525 409 2770 889 
Q 3016 1369 3016 2328 
Q 3016 3291 2770 3770 
Q 2525 4250 2034 4250 
z
M 2034 4750 
Q 2819 4750 3233 4129 
Q 3647 3509 3647 2328 
Q 3647 1150 3233 529 
Q 2819 -91 2034 -91 
Q 1250 -91 836 529 
Q 422 1150 422 2328 
Q 422 3509 836 4129 
Q 1250 4750 2034 4750 
z
" transform="scale(0.015625)"/>
       </defs>
       <use xlink:href="#DejaVuSans-30"/>
      </g>
     </g>
    </g>
    <g id="xtick_2">
     <g id="line2d_2">
      <g>
       <use xlink:href="#mb336a2f020" x="136.208725" y="307.584" style="stroke: #000000; stroke-width: 0.8"/>
      </g>
     </g>
     <g id="text_2">
      <!-- 50 -->
      <g transform="translate(129.846225 322.182437)scale(0.1 -0.1)">
       <defs>
        <path id="DejaVuSans-35" d="M 691 4666 
L 3169 4666 
L 3169 4134 
L 1269 4134 
L 1269 2991 
Q 1406 3038 1543 3061 
Q 1681 3084 1819 3084 
Q 2600 3084 3056 2656 
Q 3513 2228 3513 1497 
Q 3513 744 3044 326 
Q 2575 -91 1722 -91 
Q 1428 -91 1123 -41 
Q 819 9 494 109 
L 494 744 
Q 775 591 1075 516 
Q 1375 441 1709 441 
Q 2250 441 2565 725 
Q 2881 1009 2881 1497 
Q 2881 1984 2565 2268 
Q 2250 2553 1709 2553 
Q 1456 2553 1204 2497 
Q 953 2441 691 2322 
L 691 4666 
z
" transform="scale(0.015625)"/>
       </defs>
       <use xlink:href="#DejaVuSans-35"/>
       <use xlink:href="#DejaVuSans-30" x="63.623047"/>
      </g>
     </g>
    </g>
    <g id="xtick_3">
     <g id="line2d_3">
      <g>
       <use xlink:href="#mb336a2f020" x="210.307083" y="307.584" style="stroke: #000000; stroke-width: 0.8"/>
      </g>
     </g>
     <g id="text_3">
      <!-- 100 -->
      <g transform="translate(200.763333 322.182437)scale(0.1 -0.1)">
       <defs>
        <path id="DejaVuSans-31" d="M 794 531 
L 1825 531 
L 1825 4091 
L 703 3866 
L 703 4441 
L 1819 4666 
L 2450 4666 
L 2450 531 
L 3481 531 
L 3481 0 
L 794 0 
L 794 531 
z
" transform="scale(0.015625)"/>
       </defs>
       <use xlink:href="#DejaVuSans-31"/>
       <use xlink:href="#DejaVuSans-30" x="63.623047"/>
       <use xlink:href="#DejaVuSans-30" x="127.246094"/>
      </g>
     </g>
    </g>
    <g id="xtick_4">
     <g id="line2d_4">
      <g>
       <use xlink:href="#mb336a2f020" x="284.405441" y="307.584" style="stroke: #000000; stroke-width: 0.8"/>
      </g>
     </g>
     <g id="text_4">
      <!-- 150 -->
      <g transform="translate(274.861691 322.182437)scale(0.1 -0.1)">
       <use xlink:href="#DejaVuSans-31"/>
       <use xlink:href="#DejaVuSans-35" x="63.623047"/>
       <use xlink:href="#DejaVuSans-30" x="127.246094"/>
      </g>
     </g>
    </g>
    <g id="xtick_5">
     <g id="line2d_5">
      <g>
       <use xlink:href="#mb336a2f020" x="358.503799" y="307.584" style="stroke: #000000; stroke-width: 0.8"/>
      </g>
     </g>
     <g id="text_5">
      <!-- 200 -->
      <g transform="translate(348.960049 322.182437)scale(0.1 -0.1)">
       <defs>
        <path id="DejaVuSans-32" d="M 1228 531 
L 3431 531 
L 3431 0 
L 469 0 
L 469 531 
Q 828 903 1448 1529 
Q 2069 2156 2228 2338 
Q 2531 2678 2651 2914 
Q 2772 3150 2772 3378 
Q 2772 3750 2511 3984 
Q 2250 4219 1831 4219 
Q 1534 4219 1204 4116 
Q 875 4013 500 3803 
L 500 4441 
Q 881 4594 1212 4672 
Q 1544 4750 1819 4750 
Q 2544 4750 2975 4387 
Q 3406 4025 3406 3419 
Q 3406 3131 3298 2873 
Q 3191 2616 2906 2266 
Q 2828 2175 2409 1742 
Q 1991 1309 1228 531 
z
" transform="scale(0.015625)"/>
       </defs>
       <use xlink:href="#DejaVuSans-32"/>
       <use xlink:href="#DejaVuSans-30" x="63.623047"/>
       <use xlink:href="#DejaVuSans-30" x="127.246094"/>
      </g>
     </g>
    </g>
    <g id="text_6">
     <!-- Score -->
     <g transform="translate(222.157656 335.860562)scale(0.1 -0.1)">
      <defs>
       <path id="DejaVuSans-53" d="M 3425 4513 
L 3425 3897 
Q 3066 4069 2747 4153 
Q 2428 4238 2131 4238 
Q 1616 4238 1336 4038 
Q 1056 3838 1056 3469 
Q 1056 3159 1242 3001 
Q 1428 2844 1947 2747 
L 2328 2669 
Q 3034 2534 3370 2195 
Q 3706 1856 3706 1288 
Q 3706 609 3251 259 
Q 2797 -91 1919 -91 
Q 1588 -91 1214 -16 
Q 841 59 441 206 
L 441 856 
Q 825 641 1194 531 
Q 1563 422 1919 422 
Q 2459 422 2753 634 
Q 3047 847 3047 1241 
Q 3047 1584 2836 1778 
Q 2625 1972 2144 2069 
L 1759 2144 
Q 1053 2284 737 2584 
Q 422 2884 422 3419 
Q 422 4038 858 4394 
Q 1294 4750 2059 4750 
Q 2388 4750 2728 4690 
Q 3069 4631 3425 4513 
z
" transform="scale(0.015625)"/>
       <path id="DejaVuSans-63" d="M 3122 3366 
L 3122 2828 
Q 2878 2963 2633 3030 
Q 2388 3097 2138 3097 
Q 1578 3097 1268 2742 
Q 959 2388 959 1747 
Q 959 1106 1268 751 
Q 1578 397 2138 397 
Q 2388 397 2633 464 
Q 2878 531 3122 666 
L 3122 134 
Q 2881 22 2623 -34 
Q 2366 -91 2075 -91 
Q 1284 -91 818 406 
Q 353 903 353 1747 
Q 353 2603 823 3093 
Q 1294 3584 2113 3584 
Q 2378 3584 2631 3529 
Q 2884 3475 3122 3366 
z
" transform="scale(0.015625)"/>
       <path id="DejaVuSans-6f" d="M 1959 3097 
Q 1497 3097 1228 2736 
Q 959 2375 959 1747 
Q 959 1119 1226 758 
Q 1494 397 1959 397 
Q 2419 397 2687 759 
Q 2956 1122 2956 1747 
Q 2956 2369 2687 2733 
Q 2419 3097 1959 3097 
z
M 1959 3584 
Q 2709 3584 3137 3096 
Q 3566 2609 3566 1747 
Q 3566 888 3137 398 
Q 2709 -91 1959 -91 
Q 1206 -91 779 398 
Q 353 888 353 1747 
Q 353 2609 779 3096 
Q 1206 3584 1959 3584 
z
" transform="scale(0.015625)"/>
       <path id="DejaVuSans-72" d="M 2631 2963 
Q 2534 3019 2420 3045 
Q 2306 3072 2169 3072 
Q 1681 3072 1420 2755 
Q 1159 2438 1159 1844 
L 1159 0 
L 581 0 
L 581 3500 
L 1159 3500 
L 1159 2956 
Q 1341 3275 1631 3429 
Q 1922 3584 2338 3584 
Q 2397 3584 2469 3576 
Q 2541 3569 2628 3553 
L 2631 2963 
z
" transform="scale(0.015625)"/>
       <path id="DejaVuSans-65" d="M 3597 1894 
L 3597 1613 
L 953 1613 
Q 991 1019 1311 708 
Q 1631 397 2203 397 
Q 2534 397 2845 478 
Q 3156 559 3463 722 
L 3463 178 
Q 3153 47 2828 -22 
Q 2503 -91 2169 -91 
Q 1331 -91 842 396 
Q 353 884 353 1716 
Q 353 2575 817 3079 
Q 1281 3584 2069 3584 
Q 2775 3584 3186 3129 
Q 3597 2675 3597 1894 
z
M 3022 2063 
Q 3016 2534 2758 2815 
Q 2500 3097 2075 3097 
Q 1594 3097 1305 2825 
Q 1016 2553 972 2059 
L 3022 2063 
z
" transform="scale(0.015625)"/>
      </defs>
      <use xlink:href="#DejaVuSans-53"/>
      <use xlink:href="#DejaVuSans-63" x="63.476562"/>
      <use xlink:href="#DejaVuSans-6f" x="118.457031"/>
      <use xlink:href="#DejaVuSans-72" x="179.638672"/>
      <use xlink:href="#DejaVuSans-65" x="218.501953"/>
     </g>
    </g>
   </g>
   <g id="matplotlib.axis_2">
    <g id="ytick_1">
     <g id="line2d_6">
      <defs>
       <path id="mc875950853" d="M 0 0 
L -3.5 0 
" style="stroke: #000000; stroke-width: 0.8"/>
      </defs>
      <g>
       <use xlink:href="#mc875950853" x="57.6" y="307.584" style="stroke: #000000; stroke-width: 0.8"/>
      </g>
     </g>
     <g id="text_7">
      <!-- 0 -->
      <g transform="translate(44.2375 311.383219)scale(0.1 -0.1)">
       <use xlink:href="#DejaVuSans-30"/>
      </g>
     </g>
    </g>
    <g id="ytick_2">
     <g id="line2d_7">
      <g>
       <use xlink:href="#mc875950853" x="57.6" y="271.065268" style="stroke: #000000; stroke-width: 0.8"/>
      </g>
     </g>
     <g id="text_8">
      <!-- 50 -->
      <g transform="translate(37.875 274.864487)scale(0.1 -0.1)">
       <use xlink:href="#DejaVuSans-35"/>
       <use xlink:href="#DejaVuSans-30" x="63.623047"/>
      </g>
     </g>
    </g>
    <g id="ytick_3">
     <g id="line2d_8">
      <g>
       <use xlink:href="#mc875950853" x="57.6" y="234.546536" style="stroke: #000000; stroke-width: 0.8"/>
      </g>
     </g>
     <g id="text_9">
      <!-- 100 -->
      <g transform="translate(31.5125 238.345755)scale(0.1 -0.1)">
       <use xlink:href="#DejaVuSans-31"/>
       <use xlink:href="#DejaVuSans-30" x="63.623047"/>
       <use xlink:href="#DejaVuSans-30" x="127.246094"/>
      </g>
     </g>
    </g>
    <g id="ytick_4">
     <g id="line2d_9">
      <g>
       <use xlink:href="#mc875950853" x="57.6" y="198.027804" style="stroke: #000000; stroke-width: 0.8"/>
      </g>
     </g>
     <g id="text_10">
      <!-- 150 -->
      <g transform="translate(31.5125 201.827023)scale(0.1 -0.1)">
       <use xlink:href="#DejaVuSans-31"/>
       <use xlink:href="#DejaVuSans-35" x="63.623047"/>
       <use xlink:href="#DejaVuSans-30" x="127.246094"/>
      </g>
     </g>
    </g>
    <g id="ytick_5">
     <g id="line2d_10">
      <g>
       <use xlink:href="#mc875950853" x="57.6" y="161.509072" style="stroke: #000000; stroke-width: 0.8"/>
      </g>
     </g>
     <g id="text_11">
      <!-- 200 -->
      <g transform="translate(31.5125 165.308291)scale(0.1 -0.1)">
       <use xlink:href="#DejaVuSans-32"/>
       <use xlink:href="#DejaVuSans-30" x="63.623047"/>
       <use xlink:href="#DejaVuSans-30" x="127.246094"/>
      </g>
     </g>
    </g>
    <g id="ytick_6">
     <g id="line2d_11">
      <g>
       <use xlink:href="#mc875950853" x="57.6" y="124.99034" style="stroke: #000000; stroke-width: 0.8"/>
      </g>
     </g>
     <g id="text_12">
      <!-- 250 -->
      <g transform="translate(31.5125 128.789559)scale(0.1 -0.1)">
       <use xlink:href="#DejaVuSans-32"/>
       <use xlink:href="#DejaVuSans-35" x="63.623047"/>
       <use xlink:href="#DejaVuSans-30" x="127.246094"/>
      </g>
     </g>
    </g>
    <g id="ytick_7">
     <g id="line2d_12">
      <g>
       <use xlink:href="#mc875950853" x="57.6" y="88.471608" style="stroke: #000000; stroke-width: 0.8"/>
      </g>
     </g>
     <g id="text_13">
      <!-- 300 -->
      <g transform="translate(31.5125 92.270827)scale(0.1 -0.1)">
       <defs>
        <path id="DejaVuSans-33" d="M 2597 2516 
Q 3050 2419 3304 2112 
Q 3559 1806 3559 1356 
Q 3559 666 3084 287 
Q 2609 -91 1734 -91 
Q 1441 -91 1130 -33 
Q 819 25 488 141 
L 488 750 
Q 750 597 1062 519 
Q 1375 441 1716 441 
Q 2309 441 2620 675 
Q 2931 909 2931 1356 
Q 2931 1769 2642 2001 
Q 2353 2234 1838 2234 
L 1294 2234 
L 1294 2753 
L 1863 2753 
Q 2328 2753 2575 2939 
Q 2822 3125 2822 3475 
Q 2822 3834 2567 4026 
Q 2313 4219 1838 4219 
Q 1578 4219 1281 4162 
Q 984 4106 628 3988 
L 628 4550 
Q 988 4650 1302 4700 
Q 1616 4750 1894 4750 
Q 2613 4750 3031 4423 
Q 3450 4097 3450 3541 
Q 3450 3153 3228 2886 
Q 3006 2619 2597 2516 
z
" transform="scale(0.015625)"/>
       </defs>
       <use xlink:href="#DejaVuSans-33"/>
       <use xlink:href="#DejaVuSans-30" x="63.623047"/>
       <use xlink:href="#DejaVuSans-30" x="127.246094"/>
      </g>
     </g>
    </g>
    <g id="ytick_8">
     <g id="line2d_13">
      <g>
       <use xlink:href="#mc875950853" x="57.6" y="51.952876" style="stroke: #000000; stroke-width: 0.8"/>
      </g>
     </g>
     <g id="text_14">
      <!-- 350 -->
      <g transform="translate(31.5125 55.752095)scale(0.1 -0.1)">
       <use xlink:href="#DejaVuSans-33"/>
       <use xlink:href="#DejaVuSans-35" x="63.623047"/>
       <use xlink:href="#DejaVuSans-30" x="127.246094"/>
      </g>
     </g>
    </g>
    <g id="text_15">
     <!-- Number of crosslinks -->
     <g transform="translate(25.432812 227.019406)rotate(-90)scale(0.1 -0.1)">
      <defs>
       <path id="DejaVuSans-4e" d="M 628 4666 
L 1478 4666 
L 3547 763 
L 3547 4666 
L 4159 4666 
L 4159 0 
L 3309 0 
L 1241 3903 
L 1241 0 
L 628 0 
L 628 4666 
z
" transform="scale(0.015625)"/>
       <path id="DejaVuSans-75" d="M 544 1381 
L 544 3500 
L 1119 3500 
L 1119 1403 
Q 1119 906 1312 657 
Q 1506 409 1894 409 
Q 2359 409 2629 706 
Q 2900 1003 2900 1516 
L 2900 3500 
L 3475 3500 
L 3475 0 
L 2900 0 
L 2900 538 
Q 2691 219 2414 64 
Q 2138 -91 1772 -91 
Q 1169 -91 856 284 
Q 544 659 544 1381 
z
M 1991 3584 
L 1991 3584 
z
" transform="scale(0.015625)"/>
       <path id="DejaVuSans-6d" d="M 3328 2828 
Q 3544 3216 3844 3400 
Q 4144 3584 4550 3584 
Q 5097 3584 5394 3201 
Q 5691 2819 5691 2113 
L 5691 0 
L 5113 0 
L 5113 2094 
Q 5113 2597 4934 2840 
Q 4756 3084 4391 3084 
Q 3944 3084 3684 2787 
Q 3425 2491 3425 1978 
L 3425 0 
L 2847 0 
L 2847 2094 
Q 2847 2600 2669 2842 
Q 2491 3084 2119 3084 
Q 1678 3084 1418 2786 
Q 1159 2488 1159 1978 
L 1159 0 
L 581 0 
L 581 3500 
L 1159 3500 
L 1159 2956 
Q 1356 3278 1631 3431 
Q 1906 3584 2284 3584 
Q 2666 3584 2933 3390 
Q 3200 3197 3328 2828 
z
" transform="scale(0.015625)"/>
       <path id="DejaVuSans-62" d="M 3116 1747 
Q 3116 2381 2855 2742 
Q 2594 3103 2138 3103 
Q 1681 3103 1420 2742 
Q 1159 2381 1159 1747 
Q 1159 1113 1420 752 
Q 1681 391 2138 391 
Q 2594 391 2855 752 
Q 3116 1113 3116 1747 
z
M 1159 2969 
Q 1341 3281 1617 3432 
Q 1894 3584 2278 3584 
Q 2916 3584 3314 3078 
Q 3713 2572 3713 1747 
Q 3713 922 3314 415 
Q 2916 -91 2278 -91 
Q 1894 -91 1617 61 
Q 1341 213 1159 525 
L 1159 0 
L 581 0 
L 581 4863 
L 1159 4863 
L 1159 2969 
z
" transform="scale(0.015625)"/>
       <path id="DejaVuSans-20" transform="scale(0.015625)"/>
       <path id="DejaVuSans-66" d="M 2375 4863 
L 2375 4384 
L 1825 4384 
Q 1516 4384 1395 4259 
Q 1275 4134 1275 3809 
L 1275 3500 
L 2222 3500 
L 2222 3053 
L 1275 3053 
L 1275 0 
L 697 0 
L 697 3053 
L 147 3053 
L 147 3500 
L 697 3500 
L 697 3744 
Q 697 4328 969 4595 
Q 1241 4863 1831 4863 
L 2375 4863 
z
" transform="scale(0.015625)"/>
       <path id="DejaVuSans-73" d="M 2834 3397 
L 2834 2853 
Q 2591 2978 2328 3040 
Q 2066 3103 1784 3103 
Q 1356 3103 1142 2972 
Q 928 2841 928 2578 
Q 928 2378 1081 2264 
Q 1234 2150 1697 2047 
L 1894 2003 
Q 2506 1872 2764 1633 
Q 3022 1394 3022 966 
Q 3022 478 2636 193 
Q 2250 -91 1575 -91 
Q 1294 -91 989 -36 
Q 684 19 347 128 
L 347 722 
Q 666 556 975 473 
Q 1284 391 1588 391 
Q 1994 391 2212 530 
Q 2431 669 2431 922 
Q 2431 1156 2273 1281 
Q 2116 1406 1581 1522 
L 1381 1569 
Q 847 1681 609 1914 
Q 372 2147 372 2553 
Q 372 3047 722 3315 
Q 1072 3584 1716 3584 
Q 2034 3584 2315 3537 
Q 2597 3491 2834 3397 
z
" transform="scale(0.015625)"/>
       <path id="DejaVuSans-6c" d="M 603 4863 
L 1178 4863 
L 1178 0 
L 603 0 
L 603 4863 
z
" transform="scale(0.015625)"/>
       <path id="DejaVuSans-69" d="M 603 3500 
L 1178 3500 
L 1178 0 
L 603 0 
L 603 3500 
z
M 603 4863 
L 1178 4863 
L 1178 4134 
L 603 4134 
L 603 4863 
z
" transform="scale(0.015625)"/>
       <path id="DejaVuSans-6e" d="M 3513 2113 
L 3513 0 
L 2938 0 
L 2938 2094 
Q 2938 2591 2744 2837 
Q 2550 3084 2163 3084 
Q 1697 3084 1428 2787 
Q 1159 2491 1159 1978 
L 1159 0 
L 581 0 
L 581 3500 
L 1159 3500 
L 1159 2956 
Q 1366 3272 1645 3428 
Q 1925 3584 2291 3584 
Q 2894 3584 3203 3211 
Q 3513 2838 3513 2113 
z
" transform="scale(0.015625)"/>
       <path id="DejaVuSans-6b" d="M 581 4863 
L 1159 4863 
L 1159 1991 
L 2875 3500 
L 3609 3500 
L 1753 1863 
L 3688 0 
L 2938 0 
L 1159 1709 
L 1159 0 
L 581 0 
L 581 4863 
z
" transform="scale(0.015625)"/>
      </defs>
      <use xlink:href="#DejaVuSans-4e"/>
      <use xlink:href="#DejaVuSans-75" x="74.804688"/>
      <use xlink:href="#DejaVuSans-6d" x="138.183594"/>
      <use xlink:href="#DejaVuSans-62" x="235.595703"/>
      <use xlink:href="#DejaVuSans-65" x="299.072266"/>
      <use xlink:href="#DejaVuSans-72" x="360.595703"/>
      <use xlink:href="#DejaVuSans-20" x="401.708984"/>
      <use xlink:href="#DejaVuSans-6f" x="433.496094"/>
      <use xlink:href="#DejaVuSans-66" x="494.677734"/>
      <use xlink:href="#DejaVuSans-20" x="529.882812"/>
      <use xlink:href="#DejaVuSans-63" x="561.669922"/>
      <use xlink:href="#DejaVuSans-72" x="616.650391"/>
      <use xlink:href="#DejaVuSans-6f" x="655.513672"/>
      <use xlink:href="#DejaVuSans-73" x="716.695312"/>
      <use xlink:href="#DejaVuSans-73" x="768.794922"/>
      <use xlink:href="#DejaVuSans-6c" x="820.894531"/>
      <use xlink:href="#DejaVuSans-69" x="848.677734"/>
      <use xlink:href="#DejaVuSans-6e" x="876.460938"/>
      <use xlink:href="#DejaVuSans-6b" x="939.839844"/>
      <use xlink:href="#DejaVuSans-73" x="997.75"/>
     </g>
    </g>
   </g>
   <g id="patch_3">
    <path d="M 57.6 307.584 
L 57.6 41.472 
" style="fill: none; stroke: #000000; stroke-width: 0.8; stroke-linejoin: miter; stroke-linecap: square"/>
   </g>
   <g id="patch_4">
    <path d="M 414.72 307.584 
L 414.72 41.472 
" style="fill: none; stroke: #000000; stroke-width: 0.8; stroke-linejoin: miter; stroke-linecap: square"/>
   </g>
   <g id="patch_5">
    <path d="M 57.6 307.584 
L 414.72 307.584 
" style="fill: none; stroke: #000000; stroke-width: 0.8; stroke-linejoin: miter; stroke-linecap: square"/>
   </g>
   <g id="patch_6">
    <path d="M 57.6 41.472 
L 414.72 41.472 
" style="fill: none; stroke: #000000; stroke-width: 0.8; stroke-linejoin: miter; stroke-linecap: square"/>
   </g>
   <g id="legend_1">
    <g id="patch_7">
     <path d="M 278.598125 93.506375 
L 407.72 93.506375 
Q 409.72 93.506375 409.72 91.506375 
L 409.72 48.472 
Q 409.72 46.472 407.72 46.472 
L 278.598125 46.472 
Q 276.598125 46.472 276.598125 48.472 
L 276.598125 91.506375 
Q 276.598125 93.506375 278.598125 93.506375 
z
" style="fill: #ffffff; opacity: 0.8; stroke: #cccccc; stroke-linejoin: miter"/>
    </g>
    <g id="patch_8">
     <path d="M 280.598125 58.070438 
L 300.598125 58.070438 
L 300.598125 51.070438 
L 280.598125 51.070438 
z
" style="fill: #008000"/>
    </g>
    <g id="text_16">
     <!-- correct -->
     <g transform="translate(308.598125 58.070438)scale(0.1 -0.1)">
      <defs>
       <path id="DejaVuSans-74" d="M 1172 4494 
L 1172 3500 
L 2356 3500 
L 2356 3053 
L 1172 3053 
L 1172 1153 
Q 1172 725 1289 603 
Q 1406 481 1766 481 
L 2356 481 
L 2356 0 
L 1766 0 
Q 1100 0 847 248 
Q 594 497 594 1153 
L 594 3053 
L 172 3053 
L 172 3500 
L 594 3500 
L 594 4494 
L 1172 4494 
z
" transform="scale(0.015625)"/>
      </defs>
      <use xlink:href="#DejaVuSans-63"/>
      <use xlink:href="#DejaVuSans-6f" x="54.980469"/>
      <use xlink:href="#DejaVuSans-72" x="116.162109"/>
      <use xlink:href="#DejaVuSans-72" x="155.525391"/>
      <use xlink:href="#DejaVuSans-65" x="194.388672"/>
      <use xlink:href="#DejaVuSans-63" x="255.912109"/>
      <use xlink:href="#DejaVuSans-74" x="310.892578"/>
     </g>
    </g>
    <g id="patch_9">
     <path d="M 280.598125 72.748563 
L 300.598125 72.748563 
L 300.598125 65.748563 
L 280.598125 65.748563 
z
" style="fill: #7cfc00"/>
    </g>
    <g id="text_17">
     <!-- correct homeotypic -->
     <g transform="translate(308.598125 72.748563)scale(0.1 -0.1)">
      <defs>
       <path id="DejaVuSans-68" d="M 3513 2113 
L 3513 0 
L 2938 0 
L 2938 2094 
Q 2938 2591 2744 2837 
Q 2550 3084 2163 3084 
Q 1697 3084 1428 2787 
Q 1159 2491 1159 1978 
L 1159 0 
L 581 0 
L 581 4863 
L 1159 4863 
L 1159 2956 
Q 1366 3272 1645 3428 
Q 1925 3584 2291 3584 
Q 2894 3584 3203 3211 
Q 3513 2838 3513 2113 
z
" transform="scale(0.015625)"/>
       <path id="DejaVuSans-79" d="M 2059 -325 
Q 1816 -950 1584 -1140 
Q 1353 -1331 966 -1331 
L 506 -1331 
L 506 -850 
L 844 -850 
Q 1081 -850 1212 -737 
Q 1344 -625 1503 -206 
L 1606 56 
L 191 3500 
L 800 3500 
L 1894 763 
L 2988 3500 
L 3597 3500 
L 2059 -325 
z
" transform="scale(0.015625)"/>
       <path id="DejaVuSans-70" d="M 1159 525 
L 1159 -1331 
L 581 -1331 
L 581 3500 
L 1159 3500 
L 1159 2969 
Q 1341 3281 1617 3432 
Q 1894 3584 2278 3584 
Q 2916 3584 3314 3078 
Q 3713 2572 3713 1747 
Q 3713 922 3314 415 
Q 2916 -91 2278 -91 
Q 1894 -91 1617 61 
Q 1341 213 1159 525 
z
M 3116 1747 
Q 3116 2381 2855 2742 
Q 2594 3103 2138 3103 
Q 1681 3103 1420 2742 
Q 1159 2381 1159 1747 
Q 1159 1113 1420 752 
Q 1681 391 2138 391 
Q 2594 391 2855 752 
Q 3116 1113 3116 1747 
z
" transform="scale(0.015625)"/>
      </defs>
      <use xlink:href="#DejaVuSans-63"/>
      <use xlink:href="#DejaVuSans-6f" x="54.980469"/>
      <use xlink:href="#DejaVuSans-72" x="116.162109"/>
      <use xlink:href="#DejaVuSans-72" x="155.525391"/>
      <use xlink:href="#DejaVuSans-65" x="194.388672"/>
      <use xlink:href="#DejaVuSans-63" x="255.912109"/>
      <use xlink:href="#DejaVuSans-74" x="310.892578"/>
      <use xlink:href="#DejaVuSans-20" x="350.101562"/>
      <use xlink:href="#DejaVuSans-68" x="381.888672"/>
      <use xlink:href="#DejaVuSans-6f" x="445.267578"/>
      <use xlink:href="#DejaVuSans-6d" x="506.449219"/>
      <use xlink:href="#DejaVuSans-65" x="603.861328"/>
      <use xlink:href="#DejaVuSans-6f" x="665.384766"/>
      <use xlink:href="#DejaVuSans-74" x="726.566406"/>
      <use xlink:href="#DejaVuSans-79" x="765.775391"/>
      <use xlink:href="#DejaVuSans-70" x="824.955078"/>
      <use xlink:href="#DejaVuSans-69" x="888.431641"/>
      <use xlink:href="#DejaVuSans-63" x="916.214844"/>
     </g>
    </g>
    <g id="patch_10">
     <path d="M 280.598125 87.426688 
L 300.598125 87.426688 
L 300.598125 80.426688 
L 280.598125 80.426688 
z
" style="fill: #ff0000"/>
    </g>
    <g id="text_18">
     <!-- false -->
     <g transform="translate(308.598125 87.426688)scale(0.1 -0.1)">
      <defs>
       <path id="DejaVuSans-61" d="M 2194 1759 
Q 1497 1759 1228 1600 
Q 959 1441 959 1056 
Q 959 750 1161 570 
Q 1363 391 1709 391 
Q 2188 391 2477 730 
Q 2766 1069 2766 1631 
L 2766 1759 
L 2194 1759 
z
M 3341 1997 
L 3341 0 
L 2766 0 
L 2766 531 
Q 2569 213 2275 61 
Q 1981 -91 1556 -91 
Q 1019 -91 701 211 
Q 384 513 384 1019 
Q 384 1609 779 1909 
Q 1175 2209 1959 2209 
L 2766 2209 
L 2766 2266 
Q 2766 2663 2505 2880 
Q 2244 3097 1772 3097 
Q 1472 3097 1187 3025 
Q 903 2953 641 2809 
L 641 3341 
Q 956 3463 1253 3523 
Q 1550 3584 1831 3584 
Q 2591 3584 2966 3190 
Q 3341 2797 3341 1997 
z
" transform="scale(0.015625)"/>
      </defs>
      <use xlink:href="#DejaVuSans-66"/>
      <use xlink:href="#DejaVuSans-61" x="35.205078"/>
      <use xlink:href="#DejaVuSans-6c" x="96.484375"/>
      <use xlink:href="#DejaVuSans-73" x="124.267578"/>
      <use xlink:href="#DejaVuSans-65" x="176.367188"/>
     </g>
    </g>
   </g>
  </g>
 </g>
 <defs>
  <clipPath id="p2d53c46aff">
   <rect x="57.6" y="41.472" width="357.12" height="266.112"/>
  </clipPath>
 </defs>
</svg>
