<?xml version="1.0" encoding="utf-8" standalone="no"?>
<!DOCTYPE svg PUBLIC "-//W3C//DTD SVG 1.1//EN"
  "http://www.w3.org/Graphics/SVG/1.1/DTD/svg11.dtd">
<svg xmlns:xlink="http://www.w3.org/1999/xlink" width="460.8pt" height="345.6pt" viewBox="0 0 460.8 345.6" xmlns="http://www.w3.org/2000/svg" version="1.1">
 <metadata>
  <rdf:RDF xmlns:dc="http://purl.org/dc/elements/1.1/" xmlns:cc="http://creativecommons.org/ns#" xmlns:rdf="http://www.w3.org/1999/02/22-rdf-syntax-ns#">
   <cc:Work>
    <dc:type rdf:resource="http://purl.org/dc/dcmitype/StillImage"/>
    <dc:date>2022-04-13T12:53:42.652171</dc:date>
    <dc:format>image/svg+xml</dc:format>
    <dc:creator>
     <cc:Agent>
      <dc:title>Matplotlib v3.5.1, https://matplotlib.org/</dc:title>
     </cc:Agent>
    </dc:creator>
   </cc:Work>
  </rdf:RDF>
 </metadata>
 <defs>
  <style type="text/css">*{stroke-linejoin: round; stroke-linecap: butt}</style>
 </defs>
 <g id="figure_1">
  <g id="patch_1">
   <path d="M 0 345.6 
L 460.8 345.6 
L 460.8 0 
L 0 0 
z
" style="fill: #ffffff"/>
  </g>
  <g id="axes_1">
   <g id="patch_2">
    <path d="M 57.6 307.584 
L 414.72 307.584 
L 414.72 41.472 
L 57.6 41.472 
z
" style="fill: #ffffff"/>
   </g>
   <g id="PolyCollection_1">
    <path d="M 73.832727 104.566618 
L 73.832727 307.584 
L 73.890066 307.584 
L 74.033414 307.584 
L 74.148093 307.584 
L 74.176762 307.584 
L 74.291441 307.584 
L 74.32011 307.584 
L 74.37745 307.584 
L 74.406119 307.584 
L 74.463458 307.584 
L 74.492128 307.584 
L 74.520798 307.584 
L 74.578137 307.584 
L 74.606806 307.584 
L 101.642239 307.584 
L 102.416318 307.584 
L 102.502327 307.584 
L 103.133058 307.584 
L 103.190397 307.584 
L 103.219067 307.584 
L 108.293586 307.584 
L 131.515962 307.584 
L 131.859997 307.584 
L 131.888666 307.584 
L 131.917336 307.584 
L 131.946006 307.584 
L 131.974675 307.584 
L 132.003345 307.584 
L 132.060684 307.584 
L 132.118023 307.584 
L 132.175362 307.584 
L 132.204032 307.584 
L 132.261371 307.584 
L 132.290041 307.584 
L 132.31871 307.584 
L 132.34738 307.584 
L 132.37605 307.584 
L 132.404719 307.584 
L 133.264807 307.584 
L 135.128331 307.584 
L 135.18567 307.584 
L 135.21434 307.584 
L 135.24301 307.584 
L 135.271679 307.584 
L 138.138639 307.584 
L 180.426298 307.584 
L 185.042104 307.584 
L 185.701505 307.584 
L 186.246227 307.584 
L 186.274897 307.584 
L 188.88383 307.584 
L 189.113187 307.584 
L 189.199196 307.584 
L 189.285205 307.584 
L 189.543231 307.584 
L 189.60057 307.584 
L 189.62924 307.584 
L 189.686579 307.584 
L 189.715249 307.584 
L 189.743918 307.584 
L 191.808129 307.584 
L 192.180834 307.584 
L 192.238173 307.584 
L 192.4962 307.584 
L 192.553539 307.584 
L 192.582209 307.584 
L 192.610878 307.584 
L 195.305821 307.584 
L 195.36316 307.584 
L 195.477838 307.584 
L 197.771406 307.584 
L 197.857415 307.584 
L 201.211758 307.584 
L 206.917008 307.584 
L 209.812638 307.584 
L 212.679598 307.584 
L 215.546558 307.584 
L 218.413518 307.584 
L 238.482238 307.584 
L 246.88243 307.584 
L 246.939769 307.584 
L 246.997109 307.584 
L 249.720721 307.584 
L 249.864069 307.584 
L 252.673689 307.584 
L 252.759698 307.584 
L 255.51198 307.584 
L 255.683997 307.584 
L 264.256208 307.584 
L 269.961458 307.584 
L 275.466021 307.584 
L 281.486637 307.584 
L 295.821437 307.584 
L 298.688397 307.584 
L 398.487273 307.584 
L 398.487273 306.257089 
L 398.487273 306.257089 
L 298.688397 304.930178 
L 295.821437 303.603267 
L 281.486637 302.276356 
L 275.466021 300.949445 
L 269.961458 300.949445 
L 264.256208 300.949445 
L 255.683997 300.949445 
L 255.51198 299.622534 
L 252.759698 299.622534 
L 252.673689 299.622534 
L 249.864069 299.622534 
L 249.720721 298.295623 
L 246.997109 298.295623 
L 246.939769 294.31489 
L 246.88243 294.31489 
L 238.482238 292.987979 
L 218.413518 291.661068 
L 215.546558 290.334157 
L 212.679598 289.007246 
L 209.812638 287.680335 
L 206.917008 286.353424 
L 201.211758 285.026513 
L 197.857415 283.699602 
L 197.771406 282.372691 
L 195.477838 275.738136 
L 195.36316 274.411225 
L 195.305821 274.411225 
L 192.610878 269.103581 
L 192.582209 266.449759 
L 192.553539 265.122848 
L 192.4962 265.122848 
L 192.238173 263.795937 
L 192.180834 262.469026 
L 191.808129 261.142115 
L 189.743918 257.161382 
L 189.715249 250.526827 
L 189.686579 249.199916 
L 189.62924 245.219183 
L 189.60057 242.565361 
L 189.543231 242.565361 
L 189.285205 241.23845 
L 189.199196 239.911539 
L 189.113187 238.584628 
L 188.88383 237.257717 
L 186.274897 235.930806 
L 186.246227 234.603895 
L 185.701505 233.276984 
L 185.042104 231.950073 
L 180.426298 230.623162 
L 138.138639 227.96934 
L 135.271679 218.680963 
L 135.24301 214.70023 
L 135.21434 214.70023 
L 135.18567 213.373319 
L 135.128331 212.046408 
L 133.264807 212.046408 
L 132.404719 190.815832 
L 132.37605 181.527455 
L 132.34738 161.623791 
L 132.31871 156.316147 
L 132.290041 151.008503 
L 132.261371 151.008503 
L 132.204032 149.681592 
L 132.175362 144.373948 
L 132.118023 140.393215 
L 132.060684 139.066304 
L 132.003345 137.739393 
L 131.974675 133.75866 
L 131.946006 132.431749 
L 131.917336 131.104838 
L 131.888666 129.777927 
L 131.859997 129.777927 
L 131.515962 129.777927 
L 108.293586 128.451016 
L 103.219067 127.124105 
L 103.190397 125.797194 
L 103.133058 125.797194 
L 102.502327 124.470283 
L 102.416318 124.470283 
L 101.642239 123.143372 
L 74.606806 120.48955 
L 74.578137 119.162639 
L 74.520798 117.835728 
L 74.492128 116.508817 
L 74.463458 115.181906 
L 74.406119 113.854995 
L 74.37745 111.201173 
L 74.32011 111.201173 
L 74.291441 109.874262 
L 74.176762 108.547351 
L 74.148093 105.893529 
L 74.033414 104.566618 
L 73.890066 104.566618 
L 73.832727 104.566618 
z
" clip-path="url(#p4f6da133e6)" style="fill: #008000"/>
   </g>
   <g id="PolyCollection_2">
    <path d="M 73.832727 63.432377 
L 73.832727 104.566618 
L 73.890066 104.566618 
L 74.033414 104.566618 
L 74.148093 105.893529 
L 74.176762 108.547351 
L 74.291441 109.874262 
L 74.32011 111.201173 
L 74.37745 111.201173 
L 74.406119 113.854995 
L 74.463458 115.181906 
L 74.492128 116.508817 
L 74.520798 117.835728 
L 74.578137 119.162639 
L 74.606806 120.48955 
L 101.642239 123.143372 
L 102.416318 124.470283 
L 102.502327 124.470283 
L 103.133058 125.797194 
L 103.190397 125.797194 
L 103.219067 127.124105 
L 108.293586 128.451016 
L 131.515962 129.777927 
L 131.859997 129.777927 
L 131.888666 129.777927 
L 131.917336 131.104838 
L 131.946006 132.431749 
L 131.974675 133.75866 
L 132.003345 137.739393 
L 132.060684 139.066304 
L 132.118023 140.393215 
L 132.175362 144.373948 
L 132.204032 149.681592 
L 132.261371 151.008503 
L 132.290041 151.008503 
L 132.31871 156.316147 
L 132.34738 161.623791 
L 132.37605 181.527455 
L 132.404719 190.815832 
L 133.264807 212.046408 
L 135.128331 212.046408 
L 135.18567 213.373319 
L 135.21434 214.70023 
L 135.24301 214.70023 
L 135.271679 218.680963 
L 138.138639 227.96934 
L 180.426298 230.623162 
L 185.042104 231.950073 
L 185.701505 233.276984 
L 186.246227 234.603895 
L 186.274897 235.930806 
L 188.88383 237.257717 
L 189.113187 238.584628 
L 189.199196 239.911539 
L 189.285205 241.23845 
L 189.543231 242.565361 
L 189.60057 242.565361 
L 189.62924 245.219183 
L 189.686579 249.199916 
L 189.715249 250.526827 
L 189.743918 257.161382 
L 191.808129 261.142115 
L 192.180834 262.469026 
L 192.238173 263.795937 
L 192.4962 265.122848 
L 192.553539 265.122848 
L 192.582209 266.449759 
L 192.610878 269.103581 
L 195.305821 274.411225 
L 195.36316 274.411225 
L 195.477838 275.738136 
L 197.771406 282.372691 
L 197.857415 283.699602 
L 201.211758 285.026513 
L 206.917008 286.353424 
L 209.812638 287.680335 
L 212.679598 289.007246 
L 215.546558 290.334157 
L 218.413518 291.661068 
L 238.482238 292.987979 
L 246.88243 294.31489 
L 246.939769 294.31489 
L 246.997109 298.295623 
L 249.720721 298.295623 
L 249.864069 299.622534 
L 252.673689 299.622534 
L 252.759698 299.622534 
L 255.51198 299.622534 
L 255.683997 300.949445 
L 264.256208 300.949445 
L 269.961458 300.949445 
L 275.466021 300.949445 
L 281.486637 302.276356 
L 295.821437 303.603267 
L 298.688397 304.930178 
L 398.487273 306.257089 
L 398.487273 306.257089 
L 398.487273 306.257089 
L 298.688397 304.930178 
L 295.821437 303.603267 
L 281.486637 302.276356 
L 275.466021 300.949445 
L 269.961458 299.622534 
L 264.256208 298.295623 
L 255.683997 296.968712 
L 255.51198 295.641801 
L 252.759698 294.31489 
L 252.673689 292.987979 
L 249.864069 291.661068 
L 249.720721 290.334157 
L 246.997109 289.007246 
L 246.939769 285.026513 
L 246.88243 283.699602 
L 238.482238 282.372691 
L 218.413518 281.04578 
L 215.546558 279.718869 
L 212.679598 278.391958 
L 209.812638 277.065047 
L 206.917008 275.738136 
L 201.211758 274.411225 
L 197.857415 273.084314 
L 197.771406 271.757403 
L 195.477838 265.122848 
L 195.36316 263.795937 
L 195.305821 262.469026 
L 192.610878 257.161382 
L 192.582209 254.50756 
L 192.553539 251.853738 
L 192.4962 250.526827 
L 192.238173 249.199916 
L 192.180834 247.873005 
L 191.808129 246.546094 
L 189.743918 241.23845 
L 189.715249 231.950073 
L 189.686579 230.623162 
L 189.62924 226.642429 
L 189.60057 223.988607 
L 189.543231 222.661696 
L 189.285205 221.334785 
L 189.199196 220.007874 
L 189.113187 218.680963 
L 188.88383 217.354052 
L 186.274897 216.027141 
L 186.246227 214.70023 
L 185.701505 213.373319 
L 185.042104 212.046408 
L 180.426298 210.719497 
L 138.138639 208.065675 
L 135.271679 194.796565 
L 135.24301 190.815832 
L 135.21434 188.16201 
L 135.18567 186.835099 
L 135.128331 185.508188 
L 133.264807 185.508188 
L 132.404719 162.950702 
L 132.37605 149.681592 
L 132.34738 128.451016 
L 132.31871 123.143372 
L 132.290041 116.508817 
L 132.261371 115.181906 
L 132.204032 113.854995 
L 132.175362 108.547351 
L 132.118023 104.566618 
L 132.060684 103.239707 
L 132.003345 101.912796 
L 131.974675 97.932063 
L 131.946006 96.605152 
L 131.917336 95.278241 
L 131.888666 93.95133 
L 131.859997 92.624419 
L 131.515962 91.297508 
L 108.293586 89.970597 
L 103.219067 88.643686 
L 103.190397 87.316775 
L 103.133058 85.989864 
L 102.502327 84.662953 
L 102.416318 83.336042 
L 101.642239 82.009131 
L 74.606806 79.355309 
L 74.578137 78.028398 
L 74.520798 76.701487 
L 74.492128 75.374576 
L 74.463458 74.047665 
L 74.406119 72.720754 
L 74.37745 70.066932 
L 74.32011 70.066932 
L 74.291441 68.740021 
L 74.176762 67.41311 
L 74.148093 64.759288 
L 74.033414 63.432377 
L 73.890066 63.432377 
L 73.832727 63.432377 
z
" clip-path="url(#p4f6da133e6)" style="fill: #7cfc00"/>
   </g>
   <g id="PolyCollection_3">
    <path d="M 73.832727 54.144 
L 73.832727 63.432377 
L 73.890066 63.432377 
L 74.033414 63.432377 
L 74.148093 64.759288 
L 74.176762 67.41311 
L 74.291441 68.740021 
L 74.32011 70.066932 
L 74.37745 70.066932 
L 74.406119 72.720754 
L 74.463458 74.047665 
L 74.492128 75.374576 
L 74.520798 76.701487 
L 74.578137 78.028398 
L 74.606806 79.355309 
L 101.642239 82.009131 
L 102.416318 83.336042 
L 102.502327 84.662953 
L 103.133058 85.989864 
L 103.190397 87.316775 
L 103.219067 88.643686 
L 108.293586 89.970597 
L 131.515962 91.297508 
L 131.859997 92.624419 
L 131.888666 93.95133 
L 131.917336 95.278241 
L 131.946006 96.605152 
L 131.974675 97.932063 
L 132.003345 101.912796 
L 132.060684 103.239707 
L 132.118023 104.566618 
L 132.175362 108.547351 
L 132.204032 113.854995 
L 132.261371 115.181906 
L 132.290041 116.508817 
L 132.31871 123.143372 
L 132.34738 128.451016 
L 132.37605 149.681592 
L 132.404719 162.950702 
L 133.264807 185.508188 
L 135.128331 185.508188 
L 135.18567 186.835099 
L 135.21434 188.16201 
L 135.24301 190.815832 
L 135.271679 194.796565 
L 138.138639 208.065675 
L 180.426298 210.719497 
L 185.042104 212.046408 
L 185.701505 213.373319 
L 186.246227 214.70023 
L 186.274897 216.027141 
L 188.88383 217.354052 
L 189.113187 218.680963 
L 189.199196 220.007874 
L 189.285205 221.334785 
L 189.543231 222.661696 
L 189.60057 223.988607 
L 189.62924 226.642429 
L 189.686579 230.623162 
L 189.715249 231.950073 
L 189.743918 241.23845 
L 191.808129 246.546094 
L 192.180834 247.873005 
L 192.238173 249.199916 
L 192.4962 250.526827 
L 192.553539 251.853738 
L 192.582209 254.50756 
L 192.610878 257.161382 
L 195.305821 262.469026 
L 195.36316 263.795937 
L 195.477838 265.122848 
L 197.771406 271.757403 
L 197.857415 273.084314 
L 201.211758 274.411225 
L 206.917008 275.738136 
L 209.812638 277.065047 
L 212.679598 278.391958 
L 215.546558 279.718869 
L 218.413518 281.04578 
L 238.482238 282.372691 
L 246.88243 283.699602 
L 246.939769 285.026513 
L 246.997109 289.007246 
L 249.720721 290.334157 
L 249.864069 291.661068 
L 252.673689 292.987979 
L 252.759698 294.31489 
L 255.51198 295.641801 
L 255.683997 296.968712 
L 264.256208 298.295623 
L 269.961458 299.622534 
L 275.466021 300.949445 
L 281.486637 302.276356 
L 295.821437 303.603267 
L 298.688397 304.930178 
L 398.487273 306.257089 
L 398.487273 306.257089 
L 398.487273 306.257089 
L 298.688397 304.930178 
L 295.821437 303.603267 
L 281.486637 302.276356 
L 275.466021 300.949445 
L 269.961458 299.622534 
L 264.256208 298.295623 
L 255.683997 296.968712 
L 255.51198 295.641801 
L 252.759698 294.31489 
L 252.673689 292.987979 
L 249.864069 291.661068 
L 249.720721 290.334157 
L 246.997109 289.007246 
L 246.939769 285.026513 
L 246.88243 283.699602 
L 238.482238 282.372691 
L 218.413518 281.04578 
L 215.546558 279.718869 
L 212.679598 278.391958 
L 209.812638 277.065047 
L 206.917008 275.738136 
L 201.211758 274.411225 
L 197.857415 273.084314 
L 197.771406 271.757403 
L 195.477838 265.122848 
L 195.36316 263.795937 
L 195.305821 262.469026 
L 192.610878 257.161382 
L 192.582209 254.50756 
L 192.553539 251.853738 
L 192.4962 250.526827 
L 192.238173 249.199916 
L 192.180834 247.873005 
L 191.808129 246.546094 
L 189.743918 241.23845 
L 189.715249 231.950073 
L 189.686579 230.623162 
L 189.62924 226.642429 
L 189.60057 223.988607 
L 189.543231 222.661696 
L 189.285205 221.334785 
L 189.199196 220.007874 
L 189.113187 218.680963 
L 188.88383 217.354052 
L 186.274897 216.027141 
L 186.246227 214.70023 
L 185.701505 213.373319 
L 185.042104 212.046408 
L 180.426298 210.719497 
L 138.138639 208.065675 
L 135.271679 194.796565 
L 135.24301 190.815832 
L 135.21434 188.16201 
L 135.18567 186.835099 
L 135.128331 185.508188 
L 133.264807 184.181277 
L 132.404719 160.29688 
L 132.37605 147.02777 
L 132.34738 125.797194 
L 132.31871 120.48955 
L 132.290041 113.854995 
L 132.261371 112.528084 
L 132.204032 109.874262 
L 132.175362 104.566618 
L 132.118023 100.585885 
L 132.060684 99.258974 
L 132.003345 97.932063 
L 131.974675 93.95133 
L 131.946006 92.624419 
L 131.917336 91.297508 
L 131.888666 89.970597 
L 131.859997 88.643686 
L 131.515962 87.316775 
L 108.293586 85.989864 
L 103.219067 84.662953 
L 103.190397 83.336042 
L 103.133058 82.009131 
L 102.502327 80.68222 
L 102.416318 79.355309 
L 101.642239 78.028398 
L 74.606806 75.374576 
L 74.578137 74.047665 
L 74.520798 72.720754 
L 74.492128 71.393843 
L 74.463458 70.066932 
L 74.406119 67.41311 
L 74.37745 64.759288 
L 74.32011 63.432377 
L 74.291441 62.105466 
L 74.176762 60.778555 
L 74.148093 58.124733 
L 74.033414 56.797822 
L 73.890066 55.470911 
L 73.832727 54.144 
z
" clip-path="url(#p4f6da133e6)" style="fill: #ff0000"/>
   </g>
   <g id="matplotlib.axis_1">
    <g id="xtick_1">
     <g id="line2d_1">
      <defs>
       <path id="m01616066e3" d="M 0 0 
L 0 3.5 
" style="stroke: #000000; stroke-width: 0.8"/>
      </defs>
      <g>
       <use xlink:href="#m01616066e3" x="75.09419" y="307.584" style="stroke: #000000; stroke-width: 0.8"/>
      </g>
     </g>
     <g id="text_1">
      <!-- 20 -->
      <g transform="translate(68.73169 322.182437)scale(0.1 -0.1)">
       <defs>
        <path id="DejaVuSans-32" d="M 1228 531 
L 3431 531 
L 3431 0 
L 469 0 
L 469 531 
Q 828 903 1448 1529 
Q 2069 2156 2228 2338 
Q 2531 2678 2651 2914 
Q 2772 3150 2772 3378 
Q 2772 3750 2511 3984 
Q 2250 4219 1831 4219 
Q 1534 4219 1204 4116 
Q 875 4013 500 3803 
L 500 4441 
Q 881 4594 1212 4672 
Q 1544 4750 1819 4750 
Q 2544 4750 2975 4387 
Q 3406 4025 3406 3419 
Q 3406 3131 3298 2873 
Q 3191 2616 2906 2266 
Q 2828 2175 2409 1742 
Q 1991 1309 1228 531 
z
" transform="scale(0.015625)"/>
        <path id="DejaVuSans-30" d="M 2034 4250 
Q 1547 4250 1301 3770 
Q 1056 3291 1056 2328 
Q 1056 1369 1301 889 
Q 1547 409 2034 409 
Q 2525 409 2770 889 
Q 3016 1369 3016 2328 
Q 3016 3291 2770 3770 
Q 2525 4250 2034 4250 
z
M 2034 4750 
Q 2819 4750 3233 4129 
Q 3647 3509 3647 2328 
Q 3647 1150 3233 529 
Q 2819 -91 2034 -91 
Q 1250 -91 836 529 
Q 422 1150 422 2328 
Q 422 3509 836 4129 
Q 1250 4750 2034 4750 
z
" transform="scale(0.015625)"/>
       </defs>
       <use xlink:href="#DejaVuSans-32"/>
       <use xlink:href="#DejaVuSans-30" x="63.623047"/>
      </g>
     </g>
    </g>
    <g id="xtick_2">
     <g id="line2d_2">
      <g>
       <use xlink:href="#m01616066e3" x="132.433389" y="307.584" style="stroke: #000000; stroke-width: 0.8"/>
      </g>
     </g>
     <g id="text_2">
      <!-- 40 -->
      <g transform="translate(126.070889 322.182437)scale(0.1 -0.1)">
       <defs>
        <path id="DejaVuSans-34" d="M 2419 4116 
L 825 1625 
L 2419 1625 
L 2419 4116 
z
M 2253 4666 
L 3047 4666 
L 3047 1625 
L 3713 1625 
L 3713 1100 
L 3047 1100 
L 3047 0 
L 2419 0 
L 2419 1100 
L 313 1100 
L 313 1709 
L 2253 4666 
z
" transform="scale(0.015625)"/>
       </defs>
       <use xlink:href="#DejaVuSans-34"/>
       <use xlink:href="#DejaVuSans-30" x="63.623047"/>
      </g>
     </g>
    </g>
    <g id="xtick_3">
     <g id="line2d_3">
      <g>
       <use xlink:href="#m01616066e3" x="189.772588" y="307.584" style="stroke: #000000; stroke-width: 0.8"/>
      </g>
     </g>
     <g id="text_3">
      <!-- 60 -->
      <g transform="translate(183.410088 322.182437)scale(0.1 -0.1)">
       <defs>
        <path id="DejaVuSans-36" d="M 2113 2584 
Q 1688 2584 1439 2293 
Q 1191 2003 1191 1497 
Q 1191 994 1439 701 
Q 1688 409 2113 409 
Q 2538 409 2786 701 
Q 3034 994 3034 1497 
Q 3034 2003 2786 2293 
Q 2538 2584 2113 2584 
z
M 3366 4563 
L 3366 3988 
Q 3128 4100 2886 4159 
Q 2644 4219 2406 4219 
Q 1781 4219 1451 3797 
Q 1122 3375 1075 2522 
Q 1259 2794 1537 2939 
Q 1816 3084 2150 3084 
Q 2853 3084 3261 2657 
Q 3669 2231 3669 1497 
Q 3669 778 3244 343 
Q 2819 -91 2113 -91 
Q 1303 -91 875 529 
Q 447 1150 447 2328 
Q 447 3434 972 4092 
Q 1497 4750 2381 4750 
Q 2619 4750 2861 4703 
Q 3103 4656 3366 4563 
z
" transform="scale(0.015625)"/>
       </defs>
       <use xlink:href="#DejaVuSans-36"/>
       <use xlink:href="#DejaVuSans-30" x="63.623047"/>
      </g>
     </g>
    </g>
    <g id="xtick_4">
     <g id="line2d_4">
      <g>
       <use xlink:href="#m01616066e3" x="247.111787" y="307.584" style="stroke: #000000; stroke-width: 0.8"/>
      </g>
     </g>
     <g id="text_4">
      <!-- 80 -->
      <g transform="translate(240.749287 322.182437)scale(0.1 -0.1)">
       <defs>
        <path id="DejaVuSans-38" d="M 2034 2216 
Q 1584 2216 1326 1975 
Q 1069 1734 1069 1313 
Q 1069 891 1326 650 
Q 1584 409 2034 409 
Q 2484 409 2743 651 
Q 3003 894 3003 1313 
Q 3003 1734 2745 1975 
Q 2488 2216 2034 2216 
z
M 1403 2484 
Q 997 2584 770 2862 
Q 544 3141 544 3541 
Q 544 4100 942 4425 
Q 1341 4750 2034 4750 
Q 2731 4750 3128 4425 
Q 3525 4100 3525 3541 
Q 3525 3141 3298 2862 
Q 3072 2584 2669 2484 
Q 3125 2378 3379 2068 
Q 3634 1759 3634 1313 
Q 3634 634 3220 271 
Q 2806 -91 2034 -91 
Q 1263 -91 848 271 
Q 434 634 434 1313 
Q 434 1759 690 2068 
Q 947 2378 1403 2484 
z
M 1172 3481 
Q 1172 3119 1398 2916 
Q 1625 2713 2034 2713 
Q 2441 2713 2670 2916 
Q 2900 3119 2900 3481 
Q 2900 3844 2670 4047 
Q 2441 4250 2034 4250 
Q 1625 4250 1398 4047 
Q 1172 3844 1172 3481 
z
" transform="scale(0.015625)"/>
       </defs>
       <use xlink:href="#DejaVuSans-38"/>
       <use xlink:href="#DejaVuSans-30" x="63.623047"/>
      </g>
     </g>
    </g>
    <g id="xtick_5">
     <g id="line2d_5">
      <g>
       <use xlink:href="#m01616066e3" x="304.450986" y="307.584" style="stroke: #000000; stroke-width: 0.8"/>
      </g>
     </g>
     <g id="text_5">
      <!-- 100 -->
      <g transform="translate(294.907236 322.182437)scale(0.1 -0.1)">
       <defs>
        <path id="DejaVuSans-31" d="M 794 531 
L 1825 531 
L 1825 4091 
L 703 3866 
L 703 4441 
L 1819 4666 
L 2450 4666 
L 2450 531 
L 3481 531 
L 3481 0 
L 794 0 
L 794 531 
z
" transform="scale(0.015625)"/>
       </defs>
       <use xlink:href="#DejaVuSans-31"/>
       <use xlink:href="#DejaVuSans-30" x="63.623047"/>
       <use xlink:href="#DejaVuSans-30" x="127.246094"/>
      </g>
     </g>
    </g>
    <g id="xtick_6">
     <g id="line2d_6">
      <g>
       <use xlink:href="#m01616066e3" x="361.790185" y="307.584" style="stroke: #000000; stroke-width: 0.8"/>
      </g>
     </g>
     <g id="text_6">
      <!-- 120 -->
      <g transform="translate(352.246435 322.182437)scale(0.1 -0.1)">
       <use xlink:href="#DejaVuSans-31"/>
       <use xlink:href="#DejaVuSans-32" x="63.623047"/>
       <use xlink:href="#DejaVuSans-30" x="127.246094"/>
      </g>
     </g>
    </g>
    <g id="text_7">
     <!-- Score -->
     <g transform="translate(222.157656 335.860562)scale(0.1 -0.1)">
      <defs>
       <path id="DejaVuSans-53" d="M 3425 4513 
L 3425 3897 
Q 3066 4069 2747 4153 
Q 2428 4238 2131 4238 
Q 1616 4238 1336 4038 
Q 1056 3838 1056 3469 
Q 1056 3159 1242 3001 
Q 1428 2844 1947 2747 
L 2328 2669 
Q 3034 2534 3370 2195 
Q 3706 1856 3706 1288 
Q 3706 609 3251 259 
Q 2797 -91 1919 -91 
Q 1588 -91 1214 -16 
Q 841 59 441 206 
L 441 856 
Q 825 641 1194 531 
Q 1563 422 1919 422 
Q 2459 422 2753 634 
Q 3047 847 3047 1241 
Q 3047 1584 2836 1778 
Q 2625 1972 2144 2069 
L 1759 2144 
Q 1053 2284 737 2584 
Q 422 2884 422 3419 
Q 422 4038 858 4394 
Q 1294 4750 2059 4750 
Q 2388 4750 2728 4690 
Q 3069 4631 3425 4513 
z
" transform="scale(0.015625)"/>
       <path id="DejaVuSans-63" d="M 3122 3366 
L 3122 2828 
Q 2878 2963 2633 3030 
Q 2388 3097 2138 3097 
Q 1578 3097 1268 2742 
Q 959 2388 959 1747 
Q 959 1106 1268 751 
Q 1578 397 2138 397 
Q 2388 397 2633 464 
Q 2878 531 3122 666 
L 3122 134 
Q 2881 22 2623 -34 
Q 2366 -91 2075 -91 
Q 1284 -91 818 406 
Q 353 903 353 1747 
Q 353 2603 823 3093 
Q 1294 3584 2113 3584 
Q 2378 3584 2631 3529 
Q 2884 3475 3122 3366 
z
" transform="scale(0.015625)"/>
       <path id="DejaVuSans-6f" d="M 1959 3097 
Q 1497 3097 1228 2736 
Q 959 2375 959 1747 
Q 959 1119 1226 758 
Q 1494 397 1959 397 
Q 2419 397 2687 759 
Q 2956 1122 2956 1747 
Q 2956 2369 2687 2733 
Q 2419 3097 1959 3097 
z
M 1959 3584 
Q 2709 3584 3137 3096 
Q 3566 2609 3566 1747 
Q 3566 888 3137 398 
Q 2709 -91 1959 -91 
Q 1206 -91 779 398 
Q 353 888 353 1747 
Q 353 2609 779 3096 
Q 1206 3584 1959 3584 
z
" transform="scale(0.015625)"/>
       <path id="DejaVuSans-72" d="M 2631 2963 
Q 2534 3019 2420 3045 
Q 2306 3072 2169 3072 
Q 1681 3072 1420 2755 
Q 1159 2438 1159 1844 
L 1159 0 
L 581 0 
L 581 3500 
L 1159 3500 
L 1159 2956 
Q 1341 3275 1631 3429 
Q 1922 3584 2338 3584 
Q 2397 3584 2469 3576 
Q 2541 3569 2628 3553 
L 2631 2963 
z
" transform="scale(0.015625)"/>
       <path id="DejaVuSans-65" d="M 3597 1894 
L 3597 1613 
L 953 1613 
Q 991 1019 1311 708 
Q 1631 397 2203 397 
Q 2534 397 2845 478 
Q 3156 559 3463 722 
L 3463 178 
Q 3153 47 2828 -22 
Q 2503 -91 2169 -91 
Q 1331 -91 842 396 
Q 353 884 353 1716 
Q 353 2575 817 3079 
Q 1281 3584 2069 3584 
Q 2775 3584 3186 3129 
Q 3597 2675 3597 1894 
z
M 3022 2063 
Q 3016 2534 2758 2815 
Q 2500 3097 2075 3097 
Q 1594 3097 1305 2825 
Q 1016 2553 972 2059 
L 3022 2063 
z
" transform="scale(0.015625)"/>
      </defs>
      <use xlink:href="#DejaVuSans-53"/>
      <use xlink:href="#DejaVuSans-63" x="63.476562"/>
      <use xlink:href="#DejaVuSans-6f" x="118.457031"/>
      <use xlink:href="#DejaVuSans-72" x="179.638672"/>
      <use xlink:href="#DejaVuSans-65" x="218.501953"/>
     </g>
    </g>
   </g>
   <g id="matplotlib.axis_2">
    <g id="ytick_1">
     <g id="line2d_7">
      <defs>
       <path id="mdc99332338" d="M 0 0 
L -3.5 0 
" style="stroke: #000000; stroke-width: 0.8"/>
      </defs>
      <g>
       <use xlink:href="#mdc99332338" x="57.6" y="307.584" style="stroke: #000000; stroke-width: 0.8"/>
      </g>
     </g>
     <g id="text_8">
      <!-- 0 -->
      <g transform="translate(44.2375 311.383219)scale(0.1 -0.1)">
       <use xlink:href="#DejaVuSans-30"/>
      </g>
     </g>
    </g>
    <g id="ytick_2">
     <g id="line2d_8">
      <g>
       <use xlink:href="#mdc99332338" x="57.6" y="274.411225" style="stroke: #000000; stroke-width: 0.8"/>
      </g>
     </g>
     <g id="text_9">
      <!-- 25 -->
      <g transform="translate(37.875 278.210444)scale(0.1 -0.1)">
       <defs>
        <path id="DejaVuSans-35" d="M 691 4666 
L 3169 4666 
L 3169 4134 
L 1269 4134 
L 1269 2991 
Q 1406 3038 1543 3061 
Q 1681 3084 1819 3084 
Q 2600 3084 3056 2656 
Q 3513 2228 3513 1497 
Q 3513 744 3044 326 
Q 2575 -91 1722 -91 
Q 1428 -91 1123 -41 
Q 819 9 494 109 
L 494 744 
Q 775 591 1075 516 
Q 1375 441 1709 441 
Q 2250 441 2565 725 
Q 2881 1009 2881 1497 
Q 2881 1984 2565 2268 
Q 2250 2553 1709 2553 
Q 1456 2553 1204 2497 
Q 953 2441 691 2322 
L 691 4666 
z
" transform="scale(0.015625)"/>
       </defs>
       <use xlink:href="#DejaVuSans-32"/>
       <use xlink:href="#DejaVuSans-35" x="63.623047"/>
      </g>
     </g>
    </g>
    <g id="ytick_3">
     <g id="line2d_9">
      <g>
       <use xlink:href="#mdc99332338" x="57.6" y="241.23845" style="stroke: #000000; stroke-width: 0.8"/>
      </g>
     </g>
     <g id="text_10">
      <!-- 50 -->
      <g transform="translate(37.875 245.037669)scale(0.1 -0.1)">
       <use xlink:href="#DejaVuSans-35"/>
       <use xlink:href="#DejaVuSans-30" x="63.623047"/>
      </g>
     </g>
    </g>
    <g id="ytick_4">
     <g id="line2d_10">
      <g>
       <use xlink:href="#mdc99332338" x="57.6" y="208.065675" style="stroke: #000000; stroke-width: 0.8"/>
      </g>
     </g>
     <g id="text_11">
      <!-- 75 -->
      <g transform="translate(37.875 211.864894)scale(0.1 -0.1)">
       <defs>
        <path id="DejaVuSans-37" d="M 525 4666 
L 3525 4666 
L 3525 4397 
L 1831 0 
L 1172 0 
L 2766 4134 
L 525 4134 
L 525 4666 
z
" transform="scale(0.015625)"/>
       </defs>
       <use xlink:href="#DejaVuSans-37"/>
       <use xlink:href="#DejaVuSans-35" x="63.623047"/>
      </g>
     </g>
    </g>
    <g id="ytick_5">
     <g id="line2d_11">
      <g>
       <use xlink:href="#mdc99332338" x="57.6" y="174.892901" style="stroke: #000000; stroke-width: 0.8"/>
      </g>
     </g>
     <g id="text_12">
      <!-- 100 -->
      <g transform="translate(31.5125 178.692119)scale(0.1 -0.1)">
       <use xlink:href="#DejaVuSans-31"/>
       <use xlink:href="#DejaVuSans-30" x="63.623047"/>
       <use xlink:href="#DejaVuSans-30" x="127.246094"/>
      </g>
     </g>
    </g>
    <g id="ytick_6">
     <g id="line2d_12">
      <g>
       <use xlink:href="#mdc99332338" x="57.6" y="141.720126" style="stroke: #000000; stroke-width: 0.8"/>
      </g>
     </g>
     <g id="text_13">
      <!-- 125 -->
      <g transform="translate(31.5125 145.519344)scale(0.1 -0.1)">
       <use xlink:href="#DejaVuSans-31"/>
       <use xlink:href="#DejaVuSans-32" x="63.623047"/>
       <use xlink:href="#DejaVuSans-35" x="127.246094"/>
      </g>
     </g>
    </g>
    <g id="ytick_7">
     <g id="line2d_13">
      <g>
       <use xlink:href="#mdc99332338" x="57.6" y="108.547351" style="stroke: #000000; stroke-width: 0.8"/>
      </g>
     </g>
     <g id="text_14">
      <!-- 150 -->
      <g transform="translate(31.5125 112.34657)scale(0.1 -0.1)">
       <use xlink:href="#DejaVuSans-31"/>
       <use xlink:href="#DejaVuSans-35" x="63.623047"/>
       <use xlink:href="#DejaVuSans-30" x="127.246094"/>
      </g>
     </g>
    </g>
    <g id="ytick_8">
     <g id="line2d_14">
      <g>
       <use xlink:href="#mdc99332338" x="57.6" y="75.374576" style="stroke: #000000; stroke-width: 0.8"/>
      </g>
     </g>
     <g id="text_15">
      <!-- 175 -->
      <g transform="translate(31.5125 79.173795)scale(0.1 -0.1)">
       <use xlink:href="#DejaVuSans-31"/>
       <use xlink:href="#DejaVuSans-37" x="63.623047"/>
       <use xlink:href="#DejaVuSans-35" x="127.246094"/>
      </g>
     </g>
    </g>
    <g id="ytick_9">
     <g id="line2d_15">
      <g>
       <use xlink:href="#mdc99332338" x="57.6" y="42.201801" style="stroke: #000000; stroke-width: 0.8"/>
      </g>
     </g>
     <g id="text_16">
      <!-- 200 -->
      <g transform="translate(31.5125 46.00102)scale(0.1 -0.1)">
       <use xlink:href="#DejaVuSans-32"/>
       <use xlink:href="#DejaVuSans-30" x="63.623047"/>
       <use xlink:href="#DejaVuSans-30" x="127.246094"/>
      </g>
     </g>
    </g>
    <g id="text_17">
     <!-- Number of crosslinks -->
     <g transform="translate(25.432812 227.019406)rotate(-90)scale(0.1 -0.1)">
      <defs>
       <path id="DejaVuSans-4e" d="M 628 4666 
L 1478 4666 
L 3547 763 
L 3547 4666 
L 4159 4666 
L 4159 0 
L 3309 0 
L 1241 3903 
L 1241 0 
L 628 0 
L 628 4666 
z
" transform="scale(0.015625)"/>
       <path id="DejaVuSans-75" d="M 544 1381 
L 544 3500 
L 1119 3500 
L 1119 1403 
Q 1119 906 1312 657 
Q 1506 409 1894 409 
Q 2359 409 2629 706 
Q 2900 1003 2900 1516 
L 2900 3500 
L 3475 3500 
L 3475 0 
L 2900 0 
L 2900 538 
Q 2691 219 2414 64 
Q 2138 -91 1772 -91 
Q 1169 -91 856 284 
Q 544 659 544 1381 
z
M 1991 3584 
L 1991 3584 
z
" transform="scale(0.015625)"/>
       <path id="DejaVuSans-6d" d="M 3328 2828 
Q 3544 3216 3844 3400 
Q 4144 3584 4550 3584 
Q 5097 3584 5394 3201 
Q 5691 2819 5691 2113 
L 5691 0 
L 5113 0 
L 5113 2094 
Q 5113 2597 4934 2840 
Q 4756 3084 4391 3084 
Q 3944 3084 3684 2787 
Q 3425 2491 3425 1978 
L 3425 0 
L 2847 0 
L 2847 2094 
Q 2847 2600 2669 2842 
Q 2491 3084 2119 3084 
Q 1678 3084 1418 2786 
Q 1159 2488 1159 1978 
L 1159 0 
L 581 0 
L 581 3500 
L 1159 3500 
L 1159 2956 
Q 1356 3278 1631 3431 
Q 1906 3584 2284 3584 
Q 2666 3584 2933 3390 
Q 3200 3197 3328 2828 
z
" transform="scale(0.015625)"/>
       <path id="DejaVuSans-62" d="M 3116 1747 
Q 3116 2381 2855 2742 
Q 2594 3103 2138 3103 
Q 1681 3103 1420 2742 
Q 1159 2381 1159 1747 
Q 1159 1113 1420 752 
Q 1681 391 2138 391 
Q 2594 391 2855 752 
Q 3116 1113 3116 1747 
z
M 1159 2969 
Q 1341 3281 1617 3432 
Q 1894 3584 2278 3584 
Q 2916 3584 3314 3078 
Q 3713 2572 3713 1747 
Q 3713 922 3314 415 
Q 2916 -91 2278 -91 
Q 1894 -91 1617 61 
Q 1341 213 1159 525 
L 1159 0 
L 581 0 
L 581 4863 
L 1159 4863 
L 1159 2969 
z
" transform="scale(0.015625)"/>
       <path id="DejaVuSans-20" transform="scale(0.015625)"/>
       <path id="DejaVuSans-66" d="M 2375 4863 
L 2375 4384 
L 1825 4384 
Q 1516 4384 1395 4259 
Q 1275 4134 1275 3809 
L 1275 3500 
L 2222 3500 
L 2222 3053 
L 1275 3053 
L 1275 0 
L 697 0 
L 697 3053 
L 147 3053 
L 147 3500 
L 697 3500 
L 697 3744 
Q 697 4328 969 4595 
Q 1241 4863 1831 4863 
L 2375 4863 
z
" transform="scale(0.015625)"/>
       <path id="DejaVuSans-73" d="M 2834 3397 
L 2834 2853 
Q 2591 2978 2328 3040 
Q 2066 3103 1784 3103 
Q 1356 3103 1142 2972 
Q 928 2841 928 2578 
Q 928 2378 1081 2264 
Q 1234 2150 1697 2047 
L 1894 2003 
Q 2506 1872 2764 1633 
Q 3022 1394 3022 966 
Q 3022 478 2636 193 
Q 2250 -91 1575 -91 
Q 1294 -91 989 -36 
Q 684 19 347 128 
L 347 722 
Q 666 556 975 473 
Q 1284 391 1588 391 
Q 1994 391 2212 530 
Q 2431 669 2431 922 
Q 2431 1156 2273 1281 
Q 2116 1406 1581 1522 
L 1381 1569 
Q 847 1681 609 1914 
Q 372 2147 372 2553 
Q 372 3047 722 3315 
Q 1072 3584 1716 3584 
Q 2034 3584 2315 3537 
Q 2597 3491 2834 3397 
z
" transform="scale(0.015625)"/>
       <path id="DejaVuSans-6c" d="M 603 4863 
L 1178 4863 
L 1178 0 
L 603 0 
L 603 4863 
z
" transform="scale(0.015625)"/>
       <path id="DejaVuSans-69" d="M 603 3500 
L 1178 3500 
L 1178 0 
L 603 0 
L 603 3500 
z
M 603 4863 
L 1178 4863 
L 1178 4134 
L 603 4134 
L 603 4863 
z
" transform="scale(0.015625)"/>
       <path id="DejaVuSans-6e" d="M 3513 2113 
L 3513 0 
L 2938 0 
L 2938 2094 
Q 2938 2591 2744 2837 
Q 2550 3084 2163 3084 
Q 1697 3084 1428 2787 
Q 1159 2491 1159 1978 
L 1159 0 
L 581 0 
L 581 3500 
L 1159 3500 
L 1159 2956 
Q 1366 3272 1645 3428 
Q 1925 3584 2291 3584 
Q 2894 3584 3203 3211 
Q 3513 2838 3513 2113 
z
" transform="scale(0.015625)"/>
       <path id="DejaVuSans-6b" d="M 581 4863 
L 1159 4863 
L 1159 1991 
L 2875 3500 
L 3609 3500 
L 1753 1863 
L 3688 0 
L 2938 0 
L 1159 1709 
L 1159 0 
L 581 0 
L 581 4863 
z
" transform="scale(0.015625)"/>
      </defs>
      <use xlink:href="#DejaVuSans-4e"/>
      <use xlink:href="#DejaVuSans-75" x="74.804688"/>
      <use xlink:href="#DejaVuSans-6d" x="138.183594"/>
      <use xlink:href="#DejaVuSans-62" x="235.595703"/>
      <use xlink:href="#DejaVuSans-65" x="299.072266"/>
      <use xlink:href="#DejaVuSans-72" x="360.595703"/>
      <use xlink:href="#DejaVuSans-20" x="401.708984"/>
      <use xlink:href="#DejaVuSans-6f" x="433.496094"/>
      <use xlink:href="#DejaVuSans-66" x="494.677734"/>
      <use xlink:href="#DejaVuSans-20" x="529.882812"/>
      <use xlink:href="#DejaVuSans-63" x="561.669922"/>
      <use xlink:href="#DejaVuSans-72" x="616.650391"/>
      <use xlink:href="#DejaVuSans-6f" x="655.513672"/>
      <use xlink:href="#DejaVuSans-73" x="716.695312"/>
      <use xlink:href="#DejaVuSans-73" x="768.794922"/>
      <use xlink:href="#DejaVuSans-6c" x="820.894531"/>
      <use xlink:href="#DejaVuSans-69" x="848.677734"/>
      <use xlink:href="#DejaVuSans-6e" x="876.460938"/>
      <use xlink:href="#DejaVuSans-6b" x="939.839844"/>
      <use xlink:href="#DejaVuSans-73" x="997.75"/>
     </g>
    </g>
   </g>
   <g id="patch_3">
    <path d="M 57.6 307.584 
L 57.6 41.472 
" style="fill: none; stroke: #000000; stroke-width: 0.8; stroke-linejoin: miter; stroke-linecap: square"/>
   </g>
   <g id="patch_4">
    <path d="M 414.72 307.584 
L 414.72 41.472 
" style="fill: none; stroke: #000000; stroke-width: 0.8; stroke-linejoin: miter; stroke-linecap: square"/>
   </g>
   <g id="patch_5">
    <path d="M 57.6 307.584 
L 414.72 307.584 
" style="fill: none; stroke: #000000; stroke-width: 0.8; stroke-linejoin: miter; stroke-linecap: square"/>
   </g>
   <g id="patch_6">
    <path d="M 57.6 41.472 
L 414.72 41.472 
" style="fill: none; stroke: #000000; stroke-width: 0.8; stroke-linejoin: miter; stroke-linecap: square"/>
   </g>
   <g id="legend_1">
    <g id="patch_7">
     <path d="M 293.087188 93.506375 
L 407.72 93.506375 
Q 409.72 93.506375 409.72 91.506375 
L 409.72 48.472 
Q 409.72 46.472 407.72 46.472 
L 293.087188 46.472 
Q 291.087188 46.472 291.087188 48.472 
L 291.087188 91.506375 
Q 291.087188 93.506375 293.087188 93.506375 
z
" style="fill: #ffffff; opacity: 0.8; stroke: #cccccc; stroke-linejoin: miter"/>
    </g>
    <g id="patch_8">
     <path d="M 295.087188 58.070438 
L 315.087188 58.070438 
L 315.087188 51.070438 
L 295.087188 51.070438 
z
" style="fill: #008000"/>
    </g>
    <g id="text_18">
     <!-- true -->
     <g transform="translate(323.087188 58.070438)scale(0.1 -0.1)">
      <defs>
       <path id="DejaVuSans-74" d="M 1172 4494 
L 1172 3500 
L 2356 3500 
L 2356 3053 
L 1172 3053 
L 1172 1153 
Q 1172 725 1289 603 
Q 1406 481 1766 481 
L 2356 481 
L 2356 0 
L 1766 0 
Q 1100 0 847 248 
Q 594 497 594 1153 
L 594 3053 
L 172 3053 
L 172 3500 
L 594 3500 
L 594 4494 
L 1172 4494 
z
" transform="scale(0.015625)"/>
      </defs>
      <use xlink:href="#DejaVuSans-74"/>
      <use xlink:href="#DejaVuSans-72" x="39.208984"/>
      <use xlink:href="#DejaVuSans-75" x="80.322266"/>
      <use xlink:href="#DejaVuSans-65" x="143.701172"/>
     </g>
    </g>
    <g id="patch_9">
     <path d="M 295.087188 72.748563 
L 315.087188 72.748563 
L 315.087188 65.748563 
L 295.087188 65.748563 
z
" style="fill: #7cfc00"/>
    </g>
    <g id="text_19">
     <!-- true homeotypic -->
     <g transform="translate(323.087188 72.748563)scale(0.1 -0.1)">
      <defs>
       <path id="DejaVuSans-68" d="M 3513 2113 
L 3513 0 
L 2938 0 
L 2938 2094 
Q 2938 2591 2744 2837 
Q 2550 3084 2163 3084 
Q 1697 3084 1428 2787 
Q 1159 2491 1159 1978 
L 1159 0 
L 581 0 
L 581 4863 
L 1159 4863 
L 1159 2956 
Q 1366 3272 1645 3428 
Q 1925 3584 2291 3584 
Q 2894 3584 3203 3211 
Q 3513 2838 3513 2113 
z
" transform="scale(0.015625)"/>
       <path id="DejaVuSans-79" d="M 2059 -325 
Q 1816 -950 1584 -1140 
Q 1353 -1331 966 -1331 
L 506 -1331 
L 506 -850 
L 844 -850 
Q 1081 -850 1212 -737 
Q 1344 -625 1503 -206 
L 1606 56 
L 191 3500 
L 800 3500 
L 1894 763 
L 2988 3500 
L 3597 3500 
L 2059 -325 
z
" transform="scale(0.015625)"/>
       <path id="DejaVuSans-70" d="M 1159 525 
L 1159 -1331 
L 581 -1331 
L 581 3500 
L 1159 3500 
L 1159 2969 
Q 1341 3281 1617 3432 
Q 1894 3584 2278 3584 
Q 2916 3584 3314 3078 
Q 3713 2572 3713 1747 
Q 3713 922 3314 415 
Q 2916 -91 2278 -91 
Q 1894 -91 1617 61 
Q 1341 213 1159 525 
z
M 3116 1747 
Q 3116 2381 2855 2742 
Q 2594 3103 2138 3103 
Q 1681 3103 1420 2742 
Q 1159 2381 1159 1747 
Q 1159 1113 1420 752 
Q 1681 391 2138 391 
Q 2594 391 2855 752 
Q 3116 1113 3116 1747 
z
" transform="scale(0.015625)"/>
      </defs>
      <use xlink:href="#DejaVuSans-74"/>
      <use xlink:href="#DejaVuSans-72" x="39.208984"/>
      <use xlink:href="#DejaVuSans-75" x="80.322266"/>
      <use xlink:href="#DejaVuSans-65" x="143.701172"/>
      <use xlink:href="#DejaVuSans-20" x="205.224609"/>
      <use xlink:href="#DejaVuSans-68" x="237.011719"/>
      <use xlink:href="#DejaVuSans-6f" x="300.390625"/>
      <use xlink:href="#DejaVuSans-6d" x="361.572266"/>
      <use xlink:href="#DejaVuSans-65" x="458.984375"/>
      <use xlink:href="#DejaVuSans-6f" x="520.507812"/>
      <use xlink:href="#DejaVuSans-74" x="581.689453"/>
      <use xlink:href="#DejaVuSans-79" x="620.898438"/>
      <use xlink:href="#DejaVuSans-70" x="680.078125"/>
      <use xlink:href="#DejaVuSans-69" x="743.554688"/>
      <use xlink:href="#DejaVuSans-63" x="771.337891"/>
     </g>
    </g>
    <g id="patch_10">
     <path d="M 295.087188 87.426688 
L 315.087188 87.426688 
L 315.087188 80.426688 
L 295.087188 80.426688 
z
" style="fill: #ff0000"/>
    </g>
    <g id="text_20">
     <!-- false -->
     <g transform="translate(323.087188 87.426688)scale(0.1 -0.1)">
      <defs>
       <path id="DejaVuSans-61" d="M 2194 1759 
Q 1497 1759 1228 1600 
Q 959 1441 959 1056 
Q 959 750 1161 570 
Q 1363 391 1709 391 
Q 2188 391 2477 730 
Q 2766 1069 2766 1631 
L 2766 1759 
L 2194 1759 
z
M 3341 1997 
L 3341 0 
L 2766 0 
L 2766 531 
Q 2569 213 2275 61 
Q 1981 -91 1556 -91 
Q 1019 -91 701 211 
Q 384 513 384 1019 
Q 384 1609 779 1909 
Q 1175 2209 1959 2209 
L 2766 2209 
L 2766 2266 
Q 2766 2663 2505 2880 
Q 2244 3097 1772 3097 
Q 1472 3097 1187 3025 
Q 903 2953 641 2809 
L 641 3341 
Q 956 3463 1253 3523 
Q 1550 3584 1831 3584 
Q 2591 3584 2966 3190 
Q 3341 2797 3341 1997 
z
" transform="scale(0.015625)"/>
      </defs>
      <use xlink:href="#DejaVuSans-66"/>
      <use xlink:href="#DejaVuSans-61" x="35.205078"/>
      <use xlink:href="#DejaVuSans-6c" x="96.484375"/>
      <use xlink:href="#DejaVuSans-73" x="124.267578"/>
      <use xlink:href="#DejaVuSans-65" x="176.367188"/>
     </g>
    </g>
   </g>
  </g>
 </g>
 <defs>
  <clipPath id="p4f6da133e6">
   <rect x="57.6" y="41.472" width="357.12" height="266.112"/>
  </clipPath>
 </defs>
</svg>
