<?xml version="1.0" encoding="utf-8" standalone="no"?>
<!DOCTYPE svg PUBLIC "-//W3C//DTD SVG 1.1//EN"
  "http://www.w3.org/Graphics/SVG/1.1/DTD/svg11.dtd">
<svg xmlns:xlink="http://www.w3.org/1999/xlink" width="392.337035pt" height="280.512pt" viewBox="0 0 392.337035 280.512" xmlns="http://www.w3.org/2000/svg" version="1.1">
 <metadata>
  <rdf:RDF xmlns:dc="http://purl.org/dc/elements/1.1/" xmlns:cc="http://creativecommons.org/ns#" xmlns:rdf="http://www.w3.org/1999/02/22-rdf-syntax-ns#">
   <cc:Work>
    <dc:type rdf:resource="http://purl.org/dc/dcmitype/StillImage"/>
    <dc:date>2023-05-10T17:58:10.481289</dc:date>
    <dc:format>image/svg+xml</dc:format>
    <dc:creator>
     <cc:Agent>
      <dc:title>Matplotlib v3.7.1, https://matplotlib.org/</dc:title>
     </cc:Agent>
    </dc:creator>
   </cc:Work>
  </rdf:RDF>
 </metadata>
 <defs>
  <style type="text/css">*{stroke-linejoin: round; stroke-linecap: butt}</style>
 </defs>
 <g id="figure_1">
  <g id="patch_1">
   <path d="M 0 280.512 
L 392.337035 280.512 
L 392.337035 0 
L 0 0 
L 0 280.512 
z
" style="fill: none"/>
  </g>
  <g id="axes_1">
   <g id="patch_2">
    <path d="M 268.463038 222.539935 
C 268.363495 222.566624 268.263904 222.593132 268.164265 222.61946 
C 268.064625 222.645788 267.964939 222.671935 267.865204 222.697901 
C 266.932574 223.659351 265.972719 224.594013 264.98681 225.500749 
C 264.000901 226.407485 262.989339 227.285925 261.953357 228.134999 
C 263.073465 227.244401 264.176444 226.332469 265.261689 225.399702 
C 266.346933 224.466936 267.414245 223.513506 268.463038 222.539935 
M 268.463038 57.972065 
C 252.893252 43.518993 233.536414 33.777663 212.652018 29.885166 
C 191.767622 25.992669 170.201166 28.106591 150.47007 35.980177 
C 130.738973 43.853764 113.642043 57.168254 101.174978 74.36947 
C 88.707913 91.570686 81.375437 111.96224 80.033461 133.163858 
C 78.691484 154.365477 83.394335 175.518819 93.593058 194.154687 
C 103.791781 212.790556 119.073483 228.154483 137.654355 238.453062 
C 156.235227 248.751641 177.363028 253.567937 198.571542 252.339751 
C 219.780057 251.111565 240.210665 243.888619 257.478533 231.514038 
C 243.62725 241.132701 226.773051 245.466823 209.999949 243.723338 
C 193.226847 241.979854 177.624352 234.272012 166.04744 222.01021 
C 154.470528 209.748407 147.671187 193.729119 146.893572 176.883585 
C 146.115957 160.038051 151.41058 143.460487 161.80862 130.184288 
C 163.252888 118.053827 167.289635 106.374742 173.644265 95.941494 
C 179.998896 85.508246 188.523977 76.562894 198.639599 69.713937 
C 208.75522 62.864981 220.22669 58.271321 232.273673 56.245438 
C 244.320656 54.219555 256.663651 54.80845 268.463038 57.972065 
" clip-path="url(#p6ffa09e9fa)" style="fill: #4361ee; opacity: 0.6"/>
   </g>
   <g id="patch_3">
    <path d="M 268.463038 57.972065 
C 279.783448 68.480539 288.814417 81.212982 294.989591 95.37091 
C 301.164765 109.528839 304.352301 124.809974 304.352301 140.256 
C 304.352301 155.702026 301.164765 170.983161 294.989591 185.14109 
C 288.814417 199.299018 279.783448 212.031461 268.463038 222.539935 
C 286.571028 217.684877 302.579663 206.985532 313.991288 192.111202 
C 325.402914 177.236873 331.591495 159.003556 331.591495 140.256 
C 331.591495 121.508444 325.402914 103.275127 313.991288 88.400798 
C 302.579663 73.526468 286.571028 62.827123 268.463038 57.972065 
" clip-path="url(#p6ffa09e9fa)" style="fill: #4cc9f0; opacity: 0.6"/>
   </g>
   <g id="patch_4">
    <path d="M 268.463038 57.972065 
C 256.663651 54.80845 244.320656 54.219555 232.273673 56.245438 
C 220.22669 58.271321 208.75522 62.864981 198.639599 69.713937 
C 188.523977 76.562894 179.998896 85.508246 173.644265 95.941494 
C 167.289635 106.374742 163.252888 118.053827 161.80862 130.184288 
C 167.707786 122.652244 175.079556 116.39989 183.473486 111.80927 
C 191.867416 107.218651 201.108983 104.385212 210.633489 103.482089 
C 220.157994 102.578965 229.767411 103.624935 238.874562 106.556084 
C 247.981714 109.487233 256.39725 114.242618 263.606945 120.531667 
C 270.816641 126.820715 276.670597 134.512668 280.811111 143.137515 
C 284.951626 151.762362 287.292611 161.140779 287.691025 170.699708 
C 288.089438 180.258636 286.536995 189.799331 283.128557 198.738816 
C 279.720119 207.678301 274.526552 215.830711 267.865204 222.697901 
C 267.964939 222.671935 268.064625 222.645788 268.164265 222.61946 
C 268.263904 222.593132 268.363495 222.566624 268.463038 222.539935 
C 279.783448 212.031461 288.814417 199.299018 294.989591 185.14109 
C 301.164765 170.983161 304.352301 155.702026 304.352301 140.256 
C 304.352301 124.809974 301.164765 109.528839 294.989591 95.37091 
C 288.814417 81.212982 279.783448 68.480539 268.463038 57.972065 
" clip-path="url(#p6ffa09e9fa)" style="fill: #64d1ff; opacity: 0.6"/>
   </g>
   <g id="patch_5">
    <path d="M 267.865204 222.697901 
C 254.444267 226.192063 240.370912 226.356697 226.871908 223.177451 
C 213.372903 219.998205 200.852222 213.570222 190.401287 204.453826 
C 179.950351 195.33743 171.881917 183.80544 166.899306 170.863094 
C 161.916696 157.920748 160.169019 143.95536 161.80862 130.184288 
C 151.41058 143.460487 146.115957 160.038051 146.893572 176.883585 
C 147.671187 193.729119 154.470528 209.748407 166.04744 222.01021 
C 177.624352 234.272012 193.226847 241.979854 209.999949 243.723338 
C 226.773051 245.466823 243.62725 241.132701 257.478533 231.514038 
C 258.238257 230.969601 258.991152 230.415698 259.737044 229.852459 
C 260.482935 229.289221 261.221763 228.716689 261.953357 228.134999 
C 262.989339 227.285925 264.000901 226.407485 264.98681 225.500749 
C 265.972719 224.594013 266.932574 223.659351 267.865204 222.697901 
" clip-path="url(#p6ffa09e9fa)" style="fill: #dc5eff; opacity: 0.6"/>
   </g>
   <g id="patch_6">
    <path d="M 161.80862 130.184288 
C 160.169019 143.95536 161.916696 157.920748 166.899306 170.863094 
C 171.881917 183.80544 179.950351 195.33743 190.401287 204.453826 
C 200.852222 213.570222 213.372903 219.998205 226.871908 223.177451 
C 240.370912 226.356697 254.444267 226.192063 267.865204 222.697901 
C 274.526552 215.830711 279.720119 207.678301 283.128557 198.738816 
C 286.536995 189.799331 288.089438 180.258636 287.691025 170.699708 
C 287.292611 161.140779 284.951626 151.762362 280.811111 143.137515 
C 276.670597 134.512668 270.816641 126.820715 263.606945 120.531667 
C 256.39725 114.242618 247.981714 109.487233 238.874562 106.556084 
C 229.767411 103.624935 220.157994 102.578965 210.633489 103.482089 
C 201.108983 104.385212 191.867416 107.218651 183.473486 111.80927 
C 175.079556 116.39989 167.707786 122.652244 161.80862 130.184288 
" clip-path="url(#p6ffa09e9fa)" style="fill: #9c86f4; opacity: 0.6"/>
   </g>
   <g id="text_1">
    <!-- 14 -->
    <g transform="translate(123.05187 151.775505) scale(0.1 -0.1)">
     <defs>
      <path id="DejaVuSans-31" d="M 794 531 
L 1825 531 
L 1825 4091 
L 703 3866 
L 703 4441 
L 1819 4666 
L 2450 4666 
L 2450 531 
L 3481 531 
L 3481 0 
L 794 0 
L 794 531 
z
" transform="scale(0.015625)"/>
      <path id="DejaVuSans-34" d="M 2419 4116 
L 825 1625 
L 2419 1625 
L 2419 4116 
z
M 2253 4666 
L 3047 4666 
L 3047 1625 
L 3713 1625 
L 3713 1100 
L 3047 1100 
L 3047 0 
L 2419 0 
L 2419 1100 
L 313 1100 
L 313 1709 
L 2253 4666 
z
" transform="scale(0.015625)"/>
     </defs>
     <use xlink:href="#DejaVuSans-31"/>
     <use xlink:href="#DejaVuSans-34" x="63.623047"/>
    </g>
   </g>
   <g id="text_2">
    <!-- 3 -->
    <g transform="translate(314.790648 143.015375) scale(0.1 -0.1)">
     <defs>
      <path id="DejaVuSans-33" d="M 2597 2516 
Q 3050 2419 3304 2112 
Q 3559 1806 3559 1356 
Q 3559 666 3084 287 
Q 2609 -91 1734 -91 
Q 1441 -91 1130 -33 
Q 819 25 488 141 
L 488 750 
Q 750 597 1062 519 
Q 1375 441 1716 441 
Q 2309 441 2620 675 
Q 2931 909 2931 1356 
Q 2931 1769 2642 2001 
Q 2353 2234 1838 2234 
L 1294 2234 
L 1294 2753 
L 1863 2753 
Q 2328 2753 2575 2939 
Q 2822 3125 2822 3475 
Q 2822 3834 2567 4026 
Q 2313 4219 1838 4219 
Q 1578 4219 1281 4162 
Q 984 4106 628 3988 
L 628 4550 
Q 988 4650 1302 4700 
Q 1616 4750 1894 4750 
Q 2613 4750 3031 4423 
Q 3450 4097 3450 3541 
Q 3450 3153 3228 2886 
Q 3006 2619 2597 2516 
z
" transform="scale(0.015625)"/>
     </defs>
     <use xlink:href="#DejaVuSans-33"/>
    </g>
   </g>
   <g id="text_3">
    <!-- 6 -->
    <g transform="translate(253.727079 115.138104) scale(0.1 -0.1)">
     <defs>
      <path id="DejaVuSans-36" d="M 2113 2584 
Q 1688 2584 1439 2293 
Q 1191 2003 1191 1497 
Q 1191 994 1439 701 
Q 1688 409 2113 409 
Q 2538 409 2786 701 
Q 3034 994 3034 1497 
Q 3034 2003 2786 2293 
Q 2538 2584 2113 2584 
z
M 3366 4563 
L 3366 3988 
Q 3128 4100 2886 4159 
Q 2644 4219 2406 4219 
Q 1781 4219 1451 3797 
Q 1122 3375 1075 2522 
Q 1259 2794 1537 2939 
Q 1816 3084 2150 3084 
Q 2853 3084 3261 2657 
Q 3669 2231 3669 1497 
Q 3669 778 3244 343 
Q 2819 -91 2113 -91 
Q 1303 -91 875 529 
Q 447 1150 447 2328 
Q 447 3434 972 4092 
Q 1497 4750 2381 4750 
Q 2619 4750 2861 4703 
Q 3103 4656 3366 4563 
z
" transform="scale(0.015625)"/>
     </defs>
     <use xlink:href="#DejaVuSans-36"/>
    </g>
   </g>
   <g id="text_4">
    <!-- 3 -->
    <g transform="translate(175.655012 218.034521) scale(0.1 -0.1)">
     <use xlink:href="#DejaVuSans-33"/>
    </g>
   </g>
   <g id="text_5">
    <!-- 10 -->
    <g transform="translate(220.641616 165.252121) scale(0.1 -0.1)">
     <defs>
      <path id="DejaVuSans-30" d="M 2034 4250 
Q 1547 4250 1301 3770 
Q 1056 3291 1056 2328 
Q 1056 1369 1301 889 
Q 1547 409 2034 409 
Q 2525 409 2770 889 
Q 3016 1369 3016 2328 
Q 3016 3291 2770 3770 
Q 2525 4250 2034 4250 
z
M 2034 4750 
Q 2819 4750 3233 4129 
Q 3647 3509 3647 2328 
Q 3647 1150 3233 529 
Q 2819 -91 2034 -91 
Q 1250 -91 836 529 
Q 422 1150 422 2328 
Q 422 3509 836 4129 
Q 1250 4750 2034 4750 
z
" transform="scale(0.015625)"/>
     </defs>
     <use xlink:href="#DejaVuSans-31"/>
     <use xlink:href="#DejaVuSans-30" x="63.623047"/>
    </g>
   </g>
   <g id="text_6">
    <!-- MS3 Annika - 33 total -->
    <g transform="translate(7.2 27.984466) scale(0.12 -0.12)">
     <defs>
      <path id="DejaVuSans-4d" d="M 628 4666 
L 1569 4666 
L 2759 1491 
L 3956 4666 
L 4897 4666 
L 4897 0 
L 4281 0 
L 4281 4097 
L 3078 897 
L 2444 897 
L 1241 4097 
L 1241 0 
L 628 0 
L 628 4666 
z
" transform="scale(0.015625)"/>
      <path id="DejaVuSans-53" d="M 3425 4513 
L 3425 3897 
Q 3066 4069 2747 4153 
Q 2428 4238 2131 4238 
Q 1616 4238 1336 4038 
Q 1056 3838 1056 3469 
Q 1056 3159 1242 3001 
Q 1428 2844 1947 2747 
L 2328 2669 
Q 3034 2534 3370 2195 
Q 3706 1856 3706 1288 
Q 3706 609 3251 259 
Q 2797 -91 1919 -91 
Q 1588 -91 1214 -16 
Q 841 59 441 206 
L 441 856 
Q 825 641 1194 531 
Q 1563 422 1919 422 
Q 2459 422 2753 634 
Q 3047 847 3047 1241 
Q 3047 1584 2836 1778 
Q 2625 1972 2144 2069 
L 1759 2144 
Q 1053 2284 737 2584 
Q 422 2884 422 3419 
Q 422 4038 858 4394 
Q 1294 4750 2059 4750 
Q 2388 4750 2728 4690 
Q 3069 4631 3425 4513 
z
" transform="scale(0.015625)"/>
      <path id="DejaVuSans-20" transform="scale(0.015625)"/>
      <path id="DejaVuSans-41" d="M 2188 4044 
L 1331 1722 
L 3047 1722 
L 2188 4044 
z
M 1831 4666 
L 2547 4666 
L 4325 0 
L 3669 0 
L 3244 1197 
L 1141 1197 
L 716 0 
L 50 0 
L 1831 4666 
z
" transform="scale(0.015625)"/>
      <path id="DejaVuSans-6e" d="M 3513 2113 
L 3513 0 
L 2938 0 
L 2938 2094 
Q 2938 2591 2744 2837 
Q 2550 3084 2163 3084 
Q 1697 3084 1428 2787 
Q 1159 2491 1159 1978 
L 1159 0 
L 581 0 
L 581 3500 
L 1159 3500 
L 1159 2956 
Q 1366 3272 1645 3428 
Q 1925 3584 2291 3584 
Q 2894 3584 3203 3211 
Q 3513 2838 3513 2113 
z
" transform="scale(0.015625)"/>
      <path id="DejaVuSans-69" d="M 603 3500 
L 1178 3500 
L 1178 0 
L 603 0 
L 603 3500 
z
M 603 4863 
L 1178 4863 
L 1178 4134 
L 603 4134 
L 603 4863 
z
" transform="scale(0.015625)"/>
      <path id="DejaVuSans-6b" d="M 581 4863 
L 1159 4863 
L 1159 1991 
L 2875 3500 
L 3609 3500 
L 1753 1863 
L 3688 0 
L 2938 0 
L 1159 1709 
L 1159 0 
L 581 0 
L 581 4863 
z
" transform="scale(0.015625)"/>
      <path id="DejaVuSans-61" d="M 2194 1759 
Q 1497 1759 1228 1600 
Q 959 1441 959 1056 
Q 959 750 1161 570 
Q 1363 391 1709 391 
Q 2188 391 2477 730 
Q 2766 1069 2766 1631 
L 2766 1759 
L 2194 1759 
z
M 3341 1997 
L 3341 0 
L 2766 0 
L 2766 531 
Q 2569 213 2275 61 
Q 1981 -91 1556 -91 
Q 1019 -91 701 211 
Q 384 513 384 1019 
Q 384 1609 779 1909 
Q 1175 2209 1959 2209 
L 2766 2209 
L 2766 2266 
Q 2766 2663 2505 2880 
Q 2244 3097 1772 3097 
Q 1472 3097 1187 3025 
Q 903 2953 641 2809 
L 641 3341 
Q 956 3463 1253 3523 
Q 1550 3584 1831 3584 
Q 2591 3584 2966 3190 
Q 3341 2797 3341 1997 
z
" transform="scale(0.015625)"/>
      <path id="DejaVuSans-2d" d="M 313 2009 
L 1997 2009 
L 1997 1497 
L 313 1497 
L 313 2009 
z
" transform="scale(0.015625)"/>
      <path id="DejaVuSans-74" d="M 1172 4494 
L 1172 3500 
L 2356 3500 
L 2356 3053 
L 1172 3053 
L 1172 1153 
Q 1172 725 1289 603 
Q 1406 481 1766 481 
L 2356 481 
L 2356 0 
L 1766 0 
Q 1100 0 847 248 
Q 594 497 594 1153 
L 594 3053 
L 172 3053 
L 172 3500 
L 594 3500 
L 594 4494 
L 1172 4494 
z
" transform="scale(0.015625)"/>
      <path id="DejaVuSans-6f" d="M 1959 3097 
Q 1497 3097 1228 2736 
Q 959 2375 959 1747 
Q 959 1119 1226 758 
Q 1494 397 1959 397 
Q 2419 397 2687 759 
Q 2956 1122 2956 1747 
Q 2956 2369 2687 2733 
Q 2419 3097 1959 3097 
z
M 1959 3584 
Q 2709 3584 3137 3096 
Q 3566 2609 3566 1747 
Q 3566 888 3137 398 
Q 2709 -91 1959 -91 
Q 1206 -91 779 398 
Q 353 888 353 1747 
Q 353 2609 779 3096 
Q 1206 3584 1959 3584 
z
" transform="scale(0.015625)"/>
      <path id="DejaVuSans-6c" d="M 603 4863 
L 1178 4863 
L 1178 0 
L 603 0 
L 603 4863 
z
" transform="scale(0.015625)"/>
     </defs>
     <use xlink:href="#DejaVuSans-4d"/>
     <use xlink:href="#DejaVuSans-53" x="86.279297"/>
     <use xlink:href="#DejaVuSans-33" x="149.755859"/>
     <use xlink:href="#DejaVuSans-20" x="213.378906"/>
     <use xlink:href="#DejaVuSans-41" x="245.166016"/>
     <use xlink:href="#DejaVuSans-6e" x="313.574219"/>
     <use xlink:href="#DejaVuSans-6e" x="376.953125"/>
     <use xlink:href="#DejaVuSans-69" x="440.332031"/>
     <use xlink:href="#DejaVuSans-6b" x="468.115234"/>
     <use xlink:href="#DejaVuSans-61" x="524.275391"/>
     <use xlink:href="#DejaVuSans-20" x="585.554688"/>
     <use xlink:href="#DejaVuSans-2d" x="617.341797"/>
     <use xlink:href="#DejaVuSans-20" x="653.425781"/>
     <use xlink:href="#DejaVuSans-33" x="685.212891"/>
     <use xlink:href="#DejaVuSans-33" x="748.835938"/>
     <use xlink:href="#DejaVuSans-20" x="812.458984"/>
     <use xlink:href="#DejaVuSans-74" x="844.246094"/>
     <use xlink:href="#DejaVuSans-6f" x="883.455078"/>
     <use xlink:href="#DejaVuSans-74" x="944.636719"/>
     <use xlink:href="#DejaVuSans-61" x="983.845703"/>
     <use xlink:href="#DejaVuSans-6c" x="1045.125"/>
    </g>
   </g>
   <g id="text_7">
    <!-- XlinkX - 19 total -->
    <g transform="translate(288.99641 55.06583) scale(0.12 -0.12)">
     <defs>
      <path id="DejaVuSans-58" d="M 403 4666 
L 1081 4666 
L 2241 2931 
L 3406 4666 
L 4084 4666 
L 2584 2425 
L 4184 0 
L 3506 0 
L 2194 1984 
L 872 0 
L 191 0 
L 1856 2491 
L 403 4666 
z
" transform="scale(0.015625)"/>
      <path id="DejaVuSans-39" d="M 703 97 
L 703 672 
Q 941 559 1184 500 
Q 1428 441 1663 441 
Q 2288 441 2617 861 
Q 2947 1281 2994 2138 
Q 2813 1869 2534 1725 
Q 2256 1581 1919 1581 
Q 1219 1581 811 2004 
Q 403 2428 403 3163 
Q 403 3881 828 4315 
Q 1253 4750 1959 4750 
Q 2769 4750 3195 4129 
Q 3622 3509 3622 2328 
Q 3622 1225 3098 567 
Q 2575 -91 1691 -91 
Q 1453 -91 1209 -44 
Q 966 3 703 97 
z
M 1959 2075 
Q 2384 2075 2632 2365 
Q 2881 2656 2881 3163 
Q 2881 3666 2632 3958 
Q 2384 4250 1959 4250 
Q 1534 4250 1286 3958 
Q 1038 3666 1038 3163 
Q 1038 2656 1286 2365 
Q 1534 2075 1959 2075 
z
" transform="scale(0.015625)"/>
     </defs>
     <use xlink:href="#DejaVuSans-58"/>
     <use xlink:href="#DejaVuSans-6c" x="68.505859"/>
     <use xlink:href="#DejaVuSans-69" x="96.289062"/>
     <use xlink:href="#DejaVuSans-6e" x="124.072266"/>
     <use xlink:href="#DejaVuSans-6b" x="187.451172"/>
     <use xlink:href="#DejaVuSans-58" x="245.361328"/>
     <use xlink:href="#DejaVuSans-20" x="313.867188"/>
     <use xlink:href="#DejaVuSans-2d" x="345.654297"/>
     <use xlink:href="#DejaVuSans-20" x="381.738281"/>
     <use xlink:href="#DejaVuSans-31" x="413.525391"/>
     <use xlink:href="#DejaVuSans-39" x="477.148438"/>
     <use xlink:href="#DejaVuSans-20" x="540.771484"/>
     <use xlink:href="#DejaVuSans-74" x="572.558594"/>
     <use xlink:href="#DejaVuSans-6f" x="611.767578"/>
     <use xlink:href="#DejaVuSans-74" x="672.949219"/>
     <use xlink:href="#DejaVuSans-61" x="712.158203"/>
     <use xlink:href="#DejaVuSans-6c" x="773.4375"/>
    </g>
   </g>
   <g id="text_8">
    <!-- MaXLinker - 13 total -->
    <g transform="translate(156.854133 260.265766) scale(0.12 -0.12)">
     <defs>
      <path id="DejaVuSans-4c" d="M 628 4666 
L 1259 4666 
L 1259 531 
L 3531 531 
L 3531 0 
L 628 0 
L 628 4666 
z
" transform="scale(0.015625)"/>
      <path id="DejaVuSans-65" d="M 3597 1894 
L 3597 1613 
L 953 1613 
Q 991 1019 1311 708 
Q 1631 397 2203 397 
Q 2534 397 2845 478 
Q 3156 559 3463 722 
L 3463 178 
Q 3153 47 2828 -22 
Q 2503 -91 2169 -91 
Q 1331 -91 842 396 
Q 353 884 353 1716 
Q 353 2575 817 3079 
Q 1281 3584 2069 3584 
Q 2775 3584 3186 3129 
Q 3597 2675 3597 1894 
z
M 3022 2063 
Q 3016 2534 2758 2815 
Q 2500 3097 2075 3097 
Q 1594 3097 1305 2825 
Q 1016 2553 972 2059 
L 3022 2063 
z
" transform="scale(0.015625)"/>
      <path id="DejaVuSans-72" d="M 2631 2963 
Q 2534 3019 2420 3045 
Q 2306 3072 2169 3072 
Q 1681 3072 1420 2755 
Q 1159 2438 1159 1844 
L 1159 0 
L 581 0 
L 581 3500 
L 1159 3500 
L 1159 2956 
Q 1341 3275 1631 3429 
Q 1922 3584 2338 3584 
Q 2397 3584 2469 3576 
Q 2541 3569 2628 3553 
L 2631 2963 
z
" transform="scale(0.015625)"/>
     </defs>
     <use xlink:href="#DejaVuSans-4d"/>
     <use xlink:href="#DejaVuSans-61" x="86.279297"/>
     <use xlink:href="#DejaVuSans-58" x="147.558594"/>
     <use xlink:href="#DejaVuSans-4c" x="216.064453"/>
     <use xlink:href="#DejaVuSans-69" x="271.777344"/>
     <use xlink:href="#DejaVuSans-6e" x="299.560547"/>
     <use xlink:href="#DejaVuSans-6b" x="362.939453"/>
     <use xlink:href="#DejaVuSans-65" x="417.224609"/>
     <use xlink:href="#DejaVuSans-72" x="478.748047"/>
     <use xlink:href="#DejaVuSans-20" x="519.861328"/>
     <use xlink:href="#DejaVuSans-2d" x="551.648438"/>
     <use xlink:href="#DejaVuSans-20" x="587.732422"/>
     <use xlink:href="#DejaVuSans-31" x="619.519531"/>
     <use xlink:href="#DejaVuSans-33" x="683.142578"/>
     <use xlink:href="#DejaVuSans-20" x="746.765625"/>
     <use xlink:href="#DejaVuSans-74" x="778.552734"/>
     <use xlink:href="#DejaVuSans-6f" x="817.761719"/>
     <use xlink:href="#DejaVuSans-74" x="878.943359"/>
     <use xlink:href="#DejaVuSans-61" x="918.152344"/>
     <use xlink:href="#DejaVuSans-6c" x="979.431641"/>
    </g>
   </g>
  </g>
 </g>
 <defs>
  <clipPath id="p6ffa09e9fa">
   <rect x="59.024767" y="7.2" width="293.351194" height="266.112"/>
  </clipPath>
 </defs>
</svg>
