<?xml version="1.0" encoding="utf-8" standalone="no"?>
<!DOCTYPE svg PUBLIC "-//W3C//DTD SVG 1.1//EN"
  "http://www.w3.org/Graphics/SVG/1.1/DTD/svg11.dtd">
<svg xmlns:xlink="http://www.w3.org/1999/xlink" width="319.623566pt" height="280.911405pt" viewBox="0 0 319.623566 280.911405" xmlns="http://www.w3.org/2000/svg" version="1.1">
 <metadata>
  <rdf:RDF xmlns:dc="http://purl.org/dc/elements/1.1/" xmlns:cc="http://creativecommons.org/ns#" xmlns:rdf="http://www.w3.org/1999/02/22-rdf-syntax-ns#">
   <cc:Work>
    <dc:type rdf:resource="http://purl.org/dc/dcmitype/StillImage"/>
    <dc:date>2022-11-22T17:32:17.624544</dc:date>
    <dc:format>image/svg+xml</dc:format>
    <dc:creator>
     <cc:Agent>
      <dc:title>Matplotlib v3.6.2, https://matplotlib.org/</dc:title>
     </cc:Agent>
    </dc:creator>
   </cc:Work>
  </rdf:RDF>
 </metadata>
 <defs>
  <style type="text/css">*{stroke-linejoin: round; stroke-linecap: butt}</style>
 </defs>
 <g id="figure_1">
  <g id="patch_1">
   <path d="M 0 280.911405 
L 319.623566 280.911405 
L 319.623566 0 
L 0 0 
L 0 280.911405 
z
" style="fill: none"/>
  </g>
  <g id="axes_1">
   <g id="patch_2">
    <path d="M 207.9319 229.237171 
C 195.746848 230.05214 183.523265 228.355563 172.02076 224.252872 
C 160.518256 220.15018 149.980136 213.728156 141.061271 205.385882 
C 132.142406 197.043608 125.031452 186.957545 120.170303 175.754468 
C 115.309154 164.551392 112.800636 152.468276 112.800636 140.256 
C 112.800636 128.043724 115.309154 115.960608 120.170303 104.757532 
C 125.031452 93.554455 132.142406 83.468392 141.061271 75.126118 
C 149.980136 66.783844 160.518256 60.36182 172.02076 56.259128 
C 183.523265 52.156437 195.746848 50.45986 207.9319 51.274829 
C 191.357747 38.669119 171.586627 30.941433 150.857246 28.966782 
C 130.127865 26.992132 109.253315 30.847973 90.597245 40.097703 
C 71.941174 49.347434 56.235351 63.628241 45.258163 81.323094 
C 34.280975 99.017947 28.462993 119.43278 28.462993 140.256 
C 28.462993 161.07922 34.280975 181.494053 45.258163 199.188906 
C 56.235351 216.883759 71.941174 231.164566 90.597245 240.414297 
C 109.253315 249.664027 130.127865 253.519868 150.857246 251.545218 
C 171.586627 249.570567 191.357747 241.842881 207.9319 229.237171 
" clip-path="url(#pfde38207d0)" style="fill: #4361ee; opacity: 0.6"/>
   </g>
   <g id="patch_3">
    <path d="M 207.9319 51.274829 
C 221.644079 61.703822 232.761782 75.162649 240.414297 90.597245 
C 248.066811 106.031841 252.049007 123.028472 252.049007 140.256 
C 252.049007 157.483528 248.066811 174.480159 240.414297 189.914755 
C 232.761782 205.349351 221.644079 218.808178 207.9319 229.237171 
C 230.496006 227.728024 251.662384 217.69116 267.110487 201.175334 
C 282.55859 184.659507 291.160573 162.870517 291.160573 140.256 
C 291.160573 117.641483 282.55859 95.852493 267.110487 79.336666 
C 251.662384 62.82084 230.496006 52.783976 207.9319 51.274829 
" clip-path="url(#pfde38207d0)" style="fill: #fca311; opacity: 0.6"/>
   </g>
   <g id="patch_4">
    <path d="M 207.9319 229.237171 
C 221.644079 218.808178 232.761782 205.349351 240.414297 189.914755 
C 248.066811 174.480159 252.049007 157.483528 252.049007 140.256 
C 252.049007 123.028472 248.066811 106.031841 240.414297 90.597245 
C 232.761782 75.162649 221.644079 61.703822 207.9319 51.274829 
C 195.746848 50.45986 183.523265 52.156437 172.02076 56.259128 
C 160.518256 60.36182 149.980136 66.783844 141.061271 75.126118 
C 132.142406 83.468392 125.031452 93.554455 120.170303 104.757532 
C 115.309154 115.960608 112.800636 128.043724 112.800636 140.256 
C 112.800636 152.468276 115.309154 164.551392 120.170303 175.754468 
C 125.031452 186.957545 132.142406 197.043608 141.061271 205.385882 
C 149.980136 213.728156 160.518256 220.15018 172.02076 224.252872 
C 183.523265 228.355563 195.746848 230.05214 207.9319 229.237171 
" clip-path="url(#pfde38207d0)" style="fill: #dfb6b2; opacity: 0.6"/>
   </g>
   <g id="patch_5">
    <path d="M 140.256 252.049007 
C 169.903852 252.049007 198.341396 240.26979 219.305593 219.305593 
C 240.26979 198.341396 252.049007 169.903852 252.049007 140.256 
C 252.049007 110.608148 240.26979 82.170604 219.305593 61.206407 
C 198.341396 40.24221 169.903852 28.462993 140.256 28.462993 
C 110.608148 28.462993 82.170604 40.24221 61.206407 61.206407 
C 40.24221 82.170604 28.462993 110.608148 28.462993 140.256 
C 28.462993 169.903852 40.24221 198.341396 61.206407 219.305593 
C 82.170604 240.26979 110.608148 252.049007 140.256 252.049007 
L 140.256 252.049007 
z
" clip-path="url(#pfde38207d0)" style="fill: none; stroke: #000000; stroke-width: 0.5; stroke-linejoin: miter"/>
   </g>
   <g id="patch_6">
    <path d="M 201.980605 229.435968 
C 225.631409 229.435968 248.316721 220.039404 265.040365 203.31576 
C 281.764009 186.592116 291.160573 163.906804 291.160573 140.256 
C 291.160573 116.605196 281.764009 93.919884 265.040365 77.19624 
C 248.316721 60.472596 225.631409 51.076032 201.980605 51.076032 
C 178.329801 51.076032 155.644488 60.472596 138.920844 77.19624 
C 122.1972 93.919884 112.800636 116.605196 112.800636 140.256 
C 112.800636 163.906804 122.1972 186.592116 138.920844 203.31576 
C 155.644488 220.039404 178.329801 229.435968 201.980605 229.435968 
L 201.980605 229.435968 
z
" clip-path="url(#pfde38207d0)" style="fill: none; stroke: #000000; stroke-width: 0.5; stroke-linejoin: miter"/>
   </g>
   <g id="text_1">
    <!-- 17 -->
    <g transform="translate(64.269315 143.015375) scale(0.1 -0.1)">
     <defs>
      <path id="DejaVuSans-31" d="M 794 531 
L 1825 531 
L 1825 4091 
L 703 3866 
L 703 4441 
L 1819 4666 
L 2450 4666 
L 2450 531 
L 3481 531 
L 3481 0 
L 794 0 
L 794 531 
z
" transform="scale(0.015625)"/>
      <path id="DejaVuSans-37" d="M 525 4666 
L 3525 4666 
L 3525 4397 
L 1831 0 
L 1172 0 
L 2766 4134 
L 525 4134 
L 525 4666 
z
" transform="scale(0.015625)"/>
     </defs>
     <use xlink:href="#DejaVuSans-31"/>
     <use xlink:href="#DejaVuSans-37" x="63.623047"/>
    </g>
   </g>
   <g id="text_2">
    <!-- 5 -->
    <g transform="translate(268.42354 143.015375) scale(0.1 -0.1)">
     <defs>
      <path id="DejaVuSans-35" d="M 691 4666 
L 3169 4666 
L 3169 4134 
L 1269 4134 
L 1269 2991 
Q 1406 3038 1543 3061 
Q 1681 3084 1819 3084 
Q 2600 3084 3056 2656 
Q 3513 2228 3513 1497 
Q 3513 744 3044 326 
Q 2575 -91 1722 -91 
Q 1428 -91 1123 -41 
Q 819 9 494 109 
L 494 744 
Q 775 591 1075 516 
Q 1375 441 1709 441 
Q 2250 441 2565 725 
Q 2881 1009 2881 1497 
Q 2881 1984 2565 2268 
Q 2250 2553 1709 2553 
Q 1456 2553 1204 2497 
Q 953 2441 691 2322 
L 691 4666 
z
" transform="scale(0.015625)"/>
     </defs>
     <use xlink:href="#DejaVuSans-35"/>
    </g>
   </g>
   <g id="text_3">
    <!-- 16 -->
    <g transform="translate(176.062322 143.015375) scale(0.1 -0.1)">
     <defs>
      <path id="DejaVuSans-36" d="M 2113 2584 
Q 1688 2584 1439 2293 
Q 1191 2003 1191 1497 
Q 1191 994 1439 701 
Q 1688 409 2113 409 
Q 2538 409 2786 701 
Q 3034 994 3034 1497 
Q 3034 2003 2786 2293 
Q 2538 2584 2113 2584 
z
M 3366 4563 
L 3366 3988 
Q 3128 4100 2886 4159 
Q 2644 4219 2406 4219 
Q 1781 4219 1451 3797 
Q 1122 3375 1075 2522 
Q 1259 2794 1537 2939 
Q 1816 3084 2150 3084 
Q 2853 3084 3261 2657 
Q 3669 2231 3669 1497 
Q 3669 778 3244 343 
Q 2819 -91 2113 -91 
Q 1303 -91 875 529 
Q 447 1150 447 2328 
Q 447 3434 972 4092 
Q 1497 4750 2381 4750 
Q 2619 4750 2861 4703 
Q 3103 4656 3366 4563 
z
" transform="scale(0.015625)"/>
     </defs>
     <use xlink:href="#DejaVuSans-31"/>
     <use xlink:href="#DejaVuSans-36" x="63.623047"/>
    </g>
   </g>
   <g id="text_4">
    <!-- MS Annika - 33 -->
    <g transform="translate(50.3985 271.21578) scale(0.12 -0.12)">
     <defs>
      <path id="DejaVuSans-4d" d="M 628 4666 
L 1569 4666 
L 2759 1491 
L 3956 4666 
L 4897 4666 
L 4897 0 
L 4281 0 
L 4281 4097 
L 3078 897 
L 2444 897 
L 1241 4097 
L 1241 0 
L 628 0 
L 628 4666 
z
" transform="scale(0.015625)"/>
      <path id="DejaVuSans-53" d="M 3425 4513 
L 3425 3897 
Q 3066 4069 2747 4153 
Q 2428 4238 2131 4238 
Q 1616 4238 1336 4038 
Q 1056 3838 1056 3469 
Q 1056 3159 1242 3001 
Q 1428 2844 1947 2747 
L 2328 2669 
Q 3034 2534 3370 2195 
Q 3706 1856 3706 1288 
Q 3706 609 3251 259 
Q 2797 -91 1919 -91 
Q 1588 -91 1214 -16 
Q 841 59 441 206 
L 441 856 
Q 825 641 1194 531 
Q 1563 422 1919 422 
Q 2459 422 2753 634 
Q 3047 847 3047 1241 
Q 3047 1584 2836 1778 
Q 2625 1972 2144 2069 
L 1759 2144 
Q 1053 2284 737 2584 
Q 422 2884 422 3419 
Q 422 4038 858 4394 
Q 1294 4750 2059 4750 
Q 2388 4750 2728 4690 
Q 3069 4631 3425 4513 
z
" transform="scale(0.015625)"/>
      <path id="DejaVuSans-20" transform="scale(0.015625)"/>
      <path id="DejaVuSans-41" d="M 2188 4044 
L 1331 1722 
L 3047 1722 
L 2188 4044 
z
M 1831 4666 
L 2547 4666 
L 4325 0 
L 3669 0 
L 3244 1197 
L 1141 1197 
L 716 0 
L 50 0 
L 1831 4666 
z
" transform="scale(0.015625)"/>
      <path id="DejaVuSans-6e" d="M 3513 2113 
L 3513 0 
L 2938 0 
L 2938 2094 
Q 2938 2591 2744 2837 
Q 2550 3084 2163 3084 
Q 1697 3084 1428 2787 
Q 1159 2491 1159 1978 
L 1159 0 
L 581 0 
L 581 3500 
L 1159 3500 
L 1159 2956 
Q 1366 3272 1645 3428 
Q 1925 3584 2291 3584 
Q 2894 3584 3203 3211 
Q 3513 2838 3513 2113 
z
" transform="scale(0.015625)"/>
      <path id="DejaVuSans-69" d="M 603 3500 
L 1178 3500 
L 1178 0 
L 603 0 
L 603 3500 
z
M 603 4863 
L 1178 4863 
L 1178 4134 
L 603 4134 
L 603 4863 
z
" transform="scale(0.015625)"/>
      <path id="DejaVuSans-6b" d="M 581 4863 
L 1159 4863 
L 1159 1991 
L 2875 3500 
L 3609 3500 
L 1753 1863 
L 3688 0 
L 2938 0 
L 1159 1709 
L 1159 0 
L 581 0 
L 581 4863 
z
" transform="scale(0.015625)"/>
      <path id="DejaVuSans-61" d="M 2194 1759 
Q 1497 1759 1228 1600 
Q 959 1441 959 1056 
Q 959 750 1161 570 
Q 1363 391 1709 391 
Q 2188 391 2477 730 
Q 2766 1069 2766 1631 
L 2766 1759 
L 2194 1759 
z
M 3341 1997 
L 3341 0 
L 2766 0 
L 2766 531 
Q 2569 213 2275 61 
Q 1981 -91 1556 -91 
Q 1019 -91 701 211 
Q 384 513 384 1019 
Q 384 1609 779 1909 
Q 1175 2209 1959 2209 
L 2766 2209 
L 2766 2266 
Q 2766 2663 2505 2880 
Q 2244 3097 1772 3097 
Q 1472 3097 1187 3025 
Q 903 2953 641 2809 
L 641 3341 
Q 956 3463 1253 3523 
Q 1550 3584 1831 3584 
Q 2591 3584 2966 3190 
Q 3341 2797 3341 1997 
z
" transform="scale(0.015625)"/>
      <path id="DejaVuSans-2d" d="M 313 2009 
L 1997 2009 
L 1997 1497 
L 313 1497 
L 313 2009 
z
" transform="scale(0.015625)"/>
      <path id="DejaVuSans-33" d="M 2597 2516 
Q 3050 2419 3304 2112 
Q 3559 1806 3559 1356 
Q 3559 666 3084 287 
Q 2609 -91 1734 -91 
Q 1441 -91 1130 -33 
Q 819 25 488 141 
L 488 750 
Q 750 597 1062 519 
Q 1375 441 1716 441 
Q 2309 441 2620 675 
Q 2931 909 2931 1356 
Q 2931 1769 2642 2001 
Q 2353 2234 1838 2234 
L 1294 2234 
L 1294 2753 
L 1863 2753 
Q 2328 2753 2575 2939 
Q 2822 3125 2822 3475 
Q 2822 3834 2567 4026 
Q 2313 4219 1838 4219 
Q 1578 4219 1281 4162 
Q 984 4106 628 3988 
L 628 4550 
Q 988 4650 1302 4700 
Q 1616 4750 1894 4750 
Q 2613 4750 3031 4423 
Q 3450 4097 3450 3541 
Q 3450 3153 3228 2886 
Q 3006 2619 2597 2516 
z
" transform="scale(0.015625)"/>
     </defs>
     <use xlink:href="#DejaVuSans-4d"/>
     <use xlink:href="#DejaVuSans-53" x="86.279297"/>
     <use xlink:href="#DejaVuSans-20" x="149.755859"/>
     <use xlink:href="#DejaVuSans-41" x="181.542969"/>
     <use xlink:href="#DejaVuSans-6e" x="249.951172"/>
     <use xlink:href="#DejaVuSans-6e" x="313.330078"/>
     <use xlink:href="#DejaVuSans-69" x="376.708984"/>
     <use xlink:href="#DejaVuSans-6b" x="404.492188"/>
     <use xlink:href="#DejaVuSans-61" x="460.652344"/>
     <use xlink:href="#DejaVuSans-20" x="521.931641"/>
     <use xlink:href="#DejaVuSans-2d" x="553.71875"/>
     <use xlink:href="#DejaVuSans-20" x="589.802734"/>
     <use xlink:href="#DejaVuSans-33" x="621.589844"/>
     <use xlink:href="#DejaVuSans-33" x="685.212891"/>
    </g>
   </g>
   <g id="text_5">
    <!-- Publication - 21 -->
    <g transform="translate(201.980605 248.602742) scale(0.12 -0.12)">
     <defs>
      <path id="DejaVuSans-50" d="M 1259 4147 
L 1259 2394 
L 2053 2394 
Q 2494 2394 2734 2622 
Q 2975 2850 2975 3272 
Q 2975 3691 2734 3919 
Q 2494 4147 2053 4147 
L 1259 4147 
z
M 628 4666 
L 2053 4666 
Q 2838 4666 3239 4311 
Q 3641 3956 3641 3272 
Q 3641 2581 3239 2228 
Q 2838 1875 2053 1875 
L 1259 1875 
L 1259 0 
L 628 0 
L 628 4666 
z
" transform="scale(0.015625)"/>
      <path id="DejaVuSans-75" d="M 544 1381 
L 544 3500 
L 1119 3500 
L 1119 1403 
Q 1119 906 1312 657 
Q 1506 409 1894 409 
Q 2359 409 2629 706 
Q 2900 1003 2900 1516 
L 2900 3500 
L 3475 3500 
L 3475 0 
L 2900 0 
L 2900 538 
Q 2691 219 2414 64 
Q 2138 -91 1772 -91 
Q 1169 -91 856 284 
Q 544 659 544 1381 
z
M 1991 3584 
L 1991 3584 
z
" transform="scale(0.015625)"/>
      <path id="DejaVuSans-62" d="M 3116 1747 
Q 3116 2381 2855 2742 
Q 2594 3103 2138 3103 
Q 1681 3103 1420 2742 
Q 1159 2381 1159 1747 
Q 1159 1113 1420 752 
Q 1681 391 2138 391 
Q 2594 391 2855 752 
Q 3116 1113 3116 1747 
z
M 1159 2969 
Q 1341 3281 1617 3432 
Q 1894 3584 2278 3584 
Q 2916 3584 3314 3078 
Q 3713 2572 3713 1747 
Q 3713 922 3314 415 
Q 2916 -91 2278 -91 
Q 1894 -91 1617 61 
Q 1341 213 1159 525 
L 1159 0 
L 581 0 
L 581 4863 
L 1159 4863 
L 1159 2969 
z
" transform="scale(0.015625)"/>
      <path id="DejaVuSans-6c" d="M 603 4863 
L 1178 4863 
L 1178 0 
L 603 0 
L 603 4863 
z
" transform="scale(0.015625)"/>
      <path id="DejaVuSans-63" d="M 3122 3366 
L 3122 2828 
Q 2878 2963 2633 3030 
Q 2388 3097 2138 3097 
Q 1578 3097 1268 2742 
Q 959 2388 959 1747 
Q 959 1106 1268 751 
Q 1578 397 2138 397 
Q 2388 397 2633 464 
Q 2878 531 3122 666 
L 3122 134 
Q 2881 22 2623 -34 
Q 2366 -91 2075 -91 
Q 1284 -91 818 406 
Q 353 903 353 1747 
Q 353 2603 823 3093 
Q 1294 3584 2113 3584 
Q 2378 3584 2631 3529 
Q 2884 3475 3122 3366 
z
" transform="scale(0.015625)"/>
      <path id="DejaVuSans-74" d="M 1172 4494 
L 1172 3500 
L 2356 3500 
L 2356 3053 
L 1172 3053 
L 1172 1153 
Q 1172 725 1289 603 
Q 1406 481 1766 481 
L 2356 481 
L 2356 0 
L 1766 0 
Q 1100 0 847 248 
Q 594 497 594 1153 
L 594 3053 
L 172 3053 
L 172 3500 
L 594 3500 
L 594 4494 
L 1172 4494 
z
" transform="scale(0.015625)"/>
      <path id="DejaVuSans-6f" d="M 1959 3097 
Q 1497 3097 1228 2736 
Q 959 2375 959 1747 
Q 959 1119 1226 758 
Q 1494 397 1959 397 
Q 2419 397 2687 759 
Q 2956 1122 2956 1747 
Q 2956 2369 2687 2733 
Q 2419 3097 1959 3097 
z
M 1959 3584 
Q 2709 3584 3137 3096 
Q 3566 2609 3566 1747 
Q 3566 888 3137 398 
Q 2709 -91 1959 -91 
Q 1206 -91 779 398 
Q 353 888 353 1747 
Q 353 2609 779 3096 
Q 1206 3584 1959 3584 
z
" transform="scale(0.015625)"/>
      <path id="DejaVuSans-32" d="M 1228 531 
L 3431 531 
L 3431 0 
L 469 0 
L 469 531 
Q 828 903 1448 1529 
Q 2069 2156 2228 2338 
Q 2531 2678 2651 2914 
Q 2772 3150 2772 3378 
Q 2772 3750 2511 3984 
Q 2250 4219 1831 4219 
Q 1534 4219 1204 4116 
Q 875 4013 500 3803 
L 500 4441 
Q 881 4594 1212 4672 
Q 1544 4750 1819 4750 
Q 2544 4750 2975 4387 
Q 3406 4025 3406 3419 
Q 3406 3131 3298 2873 
Q 3191 2616 2906 2266 
Q 2828 2175 2409 1742 
Q 1991 1309 1228 531 
z
" transform="scale(0.015625)"/>
     </defs>
     <use xlink:href="#DejaVuSans-50"/>
     <use xlink:href="#DejaVuSans-75" x="58.552734"/>
     <use xlink:href="#DejaVuSans-62" x="121.931641"/>
     <use xlink:href="#DejaVuSans-6c" x="185.408203"/>
     <use xlink:href="#DejaVuSans-69" x="213.191406"/>
     <use xlink:href="#DejaVuSans-63" x="240.974609"/>
     <use xlink:href="#DejaVuSans-61" x="295.955078"/>
     <use xlink:href="#DejaVuSans-74" x="357.234375"/>
     <use xlink:href="#DejaVuSans-69" x="396.443359"/>
     <use xlink:href="#DejaVuSans-6f" x="424.226562"/>
     <use xlink:href="#DejaVuSans-6e" x="485.408203"/>
     <use xlink:href="#DejaVuSans-20" x="548.787109"/>
     <use xlink:href="#DejaVuSans-2d" x="580.574219"/>
     <use xlink:href="#DejaVuSans-20" x="616.658203"/>
     <use xlink:href="#DejaVuSans-32" x="648.445312"/>
     <use xlink:href="#DejaVuSans-31" x="712.068359"/>
    </g>
   </g>
  </g>
 </g>
 <defs>
  <clipPath id="pfde38207d0">
   <rect x="7.2" y="7.2" width="305.223566" height="266.112"/>
  </clipPath>
 </defs>
</svg>
