<?xml version="1.0" encoding="utf-8" standalone="no"?>
<!DOCTYPE svg PUBLIC "-//W3C//DTD SVG 1.1//EN"
  "http://www.w3.org/Graphics/SVG/1.1/DTD/svg11.dtd">
<svg xmlns:xlink="http://www.w3.org/1999/xlink" width="329.832035pt" height="280.512pt" viewBox="0 0 329.832035 280.512" xmlns="http://www.w3.org/2000/svg" version="1.1">
 <metadata>
  <rdf:RDF xmlns:dc="http://purl.org/dc/elements/1.1/" xmlns:cc="http://creativecommons.org/ns#" xmlns:rdf="http://www.w3.org/1999/02/22-rdf-syntax-ns#">
   <cc:Work>
    <dc:type rdf:resource="http://purl.org/dc/dcmitype/StillImage"/>
    <dc:date>2023-04-20T15:08:40.822361</dc:date>
    <dc:format>image/svg+xml</dc:format>
    <dc:creator>
     <cc:Agent>
      <dc:title>Matplotlib v3.6.2, https://matplotlib.org/</dc:title>
     </cc:Agent>
    </dc:creator>
   </cc:Work>
  </rdf:RDF>
 </metadata>
 <defs>
  <style type="text/css">*{stroke-linejoin: round; stroke-linecap: butt}</style>
 </defs>
 <g id="figure_1">
  <g id="patch_1">
   <path d="M -0 280.512 
L 329.832035 280.512 
L 329.832035 0 
L -0 0 
L -0 280.512 
z
" style="fill: none"/>
  </g>
  <g id="axes_1">
   <g id="patch_2">
    <path d="M 237.210538 222.539935 
C 237.110995 222.566624 237.011404 222.593132 236.911765 222.61946 
C 236.812125 222.645788 236.712439 222.671935 236.612704 222.697901 
C 235.680074 223.659351 234.720219 224.594013 233.73431 225.500749 
C 232.748401 226.407485 231.736839 227.285925 230.700857 228.134999 
C 231.820965 227.244401 232.923944 226.332469 234.009189 225.399702 
C 235.094433 224.466936 236.161745 223.513506 237.210538 222.539935 
M 237.210538 57.972065 
C 221.640752 43.518993 202.283914 33.777663 181.399518 29.885166 
C 160.515122 25.992669 138.948666 28.106591 119.21757 35.980177 
C 99.486473 43.853764 82.389543 57.168254 69.922478 74.36947 
C 57.455413 91.570686 50.122937 111.96224 48.780961 133.163858 
C 47.438984 154.365477 52.141835 175.518819 62.340558 194.154687 
C 72.539281 212.790556 87.820983 228.154483 106.401855 238.453062 
C 124.982727 248.751641 146.110528 253.567937 167.319042 252.339751 
C 188.527557 251.111565 208.958165 243.888619 226.226033 231.514038 
C 212.37475 241.132701 195.520551 245.466823 178.747449 243.723338 
C 161.974347 241.979854 146.371852 234.272012 134.79494 222.01021 
C 123.218028 209.748407 116.418687 193.729119 115.641072 176.883585 
C 114.863457 160.038051 120.15808 143.460487 130.55612 130.184288 
C 132.000388 118.053827 136.037135 106.374742 142.391765 95.941494 
C 148.746396 85.508246 157.271477 76.562894 167.387099 69.713937 
C 177.50272 62.864981 188.97419 58.271321 201.021173 56.245438 
C 213.068156 54.219555 225.411151 54.80845 237.210538 57.972065 
" clip-path="url(#p79411f6848)" style="fill: #4361ee; opacity: 0.6"/>
   </g>
   <g id="patch_3">
    <path d="M 237.210538 57.972065 
C 248.530948 68.480539 257.561917 81.212982 263.737091 95.37091 
C 269.912265 109.528839 273.099801 124.809974 273.099801 140.256 
C 273.099801 155.702026 269.912265 170.983161 263.737091 185.14109 
C 257.561917 199.299018 248.530948 212.031461 237.210538 222.539935 
C 255.318528 217.684877 271.327163 206.985532 282.738788 192.111202 
C 294.150414 177.236873 300.338995 159.003556 300.338995 140.256 
C 300.338995 121.508444 294.150414 103.275127 282.738788 88.400798 
C 271.327163 73.526468 255.318528 62.827123 237.210538 57.972065 
" clip-path="url(#p79411f6848)" style="fill: #4cc9f0; opacity: 0.6"/>
   </g>
   <g id="patch_4">
    <path d="M 237.210538 57.972065 
C 225.411151 54.80845 213.068156 54.219555 201.021173 56.245438 
C 188.97419 58.271321 177.50272 62.864981 167.387099 69.713937 
C 157.271477 76.562894 148.746396 85.508246 142.391765 95.941494 
C 136.037135 106.374742 132.000388 118.053827 130.55612 130.184288 
C 136.455286 122.652244 143.827056 116.39989 152.220986 111.80927 
C 160.614916 107.218651 169.856483 104.385212 179.380989 103.482089 
C 188.905494 102.578965 198.514911 103.624935 207.622062 106.556084 
C 216.729214 109.487233 225.14475 114.242618 232.354445 120.531667 
C 239.564141 126.820715 245.418097 134.512668 249.558611 143.137515 
C 253.699126 151.762362 256.040111 161.140779 256.438525 170.699708 
C 256.836938 180.258636 255.284495 189.799331 251.876057 198.738816 
C 248.467619 207.678301 243.274052 215.830711 236.612704 222.697901 
C 236.712439 222.671935 236.812125 222.645788 236.911765 222.61946 
C 237.011404 222.593132 237.110995 222.566624 237.210538 222.539935 
C 248.530948 212.031461 257.561917 199.299018 263.737091 185.14109 
C 269.912265 170.983161 273.099801 155.702026 273.099801 140.256 
C 273.099801 124.809974 269.912265 109.528839 263.737091 95.37091 
C 257.561917 81.212982 248.530948 68.480539 237.210538 57.972065 
" clip-path="url(#p79411f6848)" style="fill: #64d1ff; opacity: 0.6"/>
   </g>
   <g id="patch_5">
    <path d="M 236.612704 222.697901 
C 223.191767 226.192063 209.118412 226.356697 195.619408 223.177451 
C 182.120403 219.998205 169.599722 213.570222 159.148787 204.453826 
C 148.697851 195.33743 140.629417 183.80544 135.646806 170.863094 
C 130.664196 157.920748 128.916519 143.95536 130.55612 130.184288 
C 120.15808 143.460487 114.863457 160.038051 115.641072 176.883585 
C 116.418687 193.729119 123.218028 209.748407 134.79494 222.01021 
C 146.371852 234.272012 161.974347 241.979854 178.747449 243.723338 
C 195.520551 245.466823 212.37475 241.132701 226.226033 231.514038 
C 226.985757 230.969601 227.738652 230.415698 228.484544 229.852459 
C 229.230435 229.289221 229.969263 228.716689 230.700857 228.134999 
C 231.736839 227.285925 232.748401 226.407485 233.73431 225.500749 
C 234.720219 224.594013 235.680074 223.659351 236.612704 222.697901 
" clip-path="url(#p79411f6848)" style="fill: #dc5eff; opacity: 0.6"/>
   </g>
   <g id="patch_6">
    <path d="M 130.55612 130.184288 
C 128.916519 143.95536 130.664196 157.920748 135.646806 170.863094 
C 140.629417 183.80544 148.697851 195.33743 159.148787 204.453826 
C 169.599722 213.570222 182.120403 219.998205 195.619408 223.177451 
C 209.118412 226.356697 223.191767 226.192063 236.612704 222.697901 
C 243.274052 215.830711 248.467619 207.678301 251.876057 198.738816 
C 255.284495 189.799331 256.836938 180.258636 256.438525 170.699708 
C 256.040111 161.140779 253.699126 151.762362 249.558611 143.137515 
C 245.418097 134.512668 239.564141 126.820715 232.354445 120.531667 
C 225.14475 114.242618 216.729214 109.487233 207.622062 106.556084 
C 198.514911 103.624935 188.905494 102.578965 179.380989 103.482089 
C 169.856483 104.385212 160.614916 107.218651 152.220986 111.80927 
C 143.827056 116.39989 136.455286 122.652244 130.55612 130.184288 
" clip-path="url(#p79411f6848)" style="fill: #9c86f4; opacity: 0.6"/>
   </g>
   <g id="text_1">
    <!-- 14 -->
    <g transform="translate(91.79937 151.775505) scale(0.1 -0.1)">
     <defs>
      <path id="DejaVuSans-31" d="M 794 531 
L 1825 531 
L 1825 4091 
L 703 3866 
L 703 4441 
L 1819 4666 
L 2450 4666 
L 2450 531 
L 3481 531 
L 3481 0 
L 794 0 
L 794 531 
z
" transform="scale(0.015625)"/>
      <path id="DejaVuSans-34" d="M 2419 4116 
L 825 1625 
L 2419 1625 
L 2419 4116 
z
M 2253 4666 
L 3047 4666 
L 3047 1625 
L 3713 1625 
L 3713 1100 
L 3047 1100 
L 3047 0 
L 2419 0 
L 2419 1100 
L 313 1100 
L 313 1709 
L 2253 4666 
z
" transform="scale(0.015625)"/>
     </defs>
     <use xlink:href="#DejaVuSans-31"/>
     <use xlink:href="#DejaVuSans-34" x="63.623047"/>
    </g>
   </g>
   <g id="text_2">
    <!-- 3 -->
    <g transform="translate(283.538148 143.015375) scale(0.1 -0.1)">
     <defs>
      <path id="DejaVuSans-33" d="M 2597 2516 
Q 3050 2419 3304 2112 
Q 3559 1806 3559 1356 
Q 3559 666 3084 287 
Q 2609 -91 1734 -91 
Q 1441 -91 1130 -33 
Q 819 25 488 141 
L 488 750 
Q 750 597 1062 519 
Q 1375 441 1716 441 
Q 2309 441 2620 675 
Q 2931 909 2931 1356 
Q 2931 1769 2642 2001 
Q 2353 2234 1838 2234 
L 1294 2234 
L 1294 2753 
L 1863 2753 
Q 2328 2753 2575 2939 
Q 2822 3125 2822 3475 
Q 2822 3834 2567 4026 
Q 2313 4219 1838 4219 
Q 1578 4219 1281 4162 
Q 984 4106 628 3988 
L 628 4550 
Q 988 4650 1302 4700 
Q 1616 4750 1894 4750 
Q 2613 4750 3031 4423 
Q 3450 4097 3450 3541 
Q 3450 3153 3228 2886 
Q 3006 2619 2597 2516 
z
" transform="scale(0.015625)"/>
     </defs>
     <use xlink:href="#DejaVuSans-33"/>
    </g>
   </g>
   <g id="text_3">
    <!-- 6 -->
    <g transform="translate(222.474579 115.138104) scale(0.1 -0.1)">
     <defs>
      <path id="DejaVuSans-36" d="M 2113 2584 
Q 1688 2584 1439 2293 
Q 1191 2003 1191 1497 
Q 1191 994 1439 701 
Q 1688 409 2113 409 
Q 2538 409 2786 701 
Q 3034 994 3034 1497 
Q 3034 2003 2786 2293 
Q 2538 2584 2113 2584 
z
M 3366 4563 
L 3366 3988 
Q 3128 4100 2886 4159 
Q 2644 4219 2406 4219 
Q 1781 4219 1451 3797 
Q 1122 3375 1075 2522 
Q 1259 2794 1537 2939 
Q 1816 3084 2150 3084 
Q 2853 3084 3261 2657 
Q 3669 2231 3669 1497 
Q 3669 778 3244 343 
Q 2819 -91 2113 -91 
Q 1303 -91 875 529 
Q 447 1150 447 2328 
Q 447 3434 972 4092 
Q 1497 4750 2381 4750 
Q 2619 4750 2861 4703 
Q 3103 4656 3366 4563 
z
" transform="scale(0.015625)"/>
     </defs>
     <use xlink:href="#DejaVuSans-36"/>
    </g>
   </g>
   <g id="text_4">
    <!-- 3 -->
    <g transform="translate(144.402512 218.034521) scale(0.1 -0.1)">
     <use xlink:href="#DejaVuSans-33"/>
    </g>
   </g>
   <g id="text_5">
    <!-- 10 -->
    <g transform="translate(189.389116 165.252121) scale(0.1 -0.1)">
     <defs>
      <path id="DejaVuSans-30" d="M 2034 4250 
Q 1547 4250 1301 3770 
Q 1056 3291 1056 2328 
Q 1056 1369 1301 889 
Q 1547 409 2034 409 
Q 2525 409 2770 889 
Q 3016 1369 3016 2328 
Q 3016 3291 2770 3770 
Q 2525 4250 2034 4250 
z
M 2034 4750 
Q 2819 4750 3233 4129 
Q 3647 3509 3647 2328 
Q 3647 1150 3233 529 
Q 2819 -91 2034 -91 
Q 1250 -91 836 529 
Q 422 1150 422 2328 
Q 422 3509 836 4129 
Q 1250 4750 2034 4750 
z
" transform="scale(0.015625)"/>
     </defs>
     <use xlink:href="#DejaVuSans-31"/>
     <use xlink:href="#DejaVuSans-30" x="63.623047"/>
    </g>
   </g>
   <g id="text_6">
    <!-- MS3 Annika - 33 -->
    <g transform="translate(7.2 27.984466) scale(0.12 -0.12)">
     <defs>
      <path id="DejaVuSans-4d" d="M 628 4666 
L 1569 4666 
L 2759 1491 
L 3956 4666 
L 4897 4666 
L 4897 0 
L 4281 0 
L 4281 4097 
L 3078 897 
L 2444 897 
L 1241 4097 
L 1241 0 
L 628 0 
L 628 4666 
z
" transform="scale(0.015625)"/>
      <path id="DejaVuSans-53" d="M 3425 4513 
L 3425 3897 
Q 3066 4069 2747 4153 
Q 2428 4238 2131 4238 
Q 1616 4238 1336 4038 
Q 1056 3838 1056 3469 
Q 1056 3159 1242 3001 
Q 1428 2844 1947 2747 
L 2328 2669 
Q 3034 2534 3370 2195 
Q 3706 1856 3706 1288 
Q 3706 609 3251 259 
Q 2797 -91 1919 -91 
Q 1588 -91 1214 -16 
Q 841 59 441 206 
L 441 856 
Q 825 641 1194 531 
Q 1563 422 1919 422 
Q 2459 422 2753 634 
Q 3047 847 3047 1241 
Q 3047 1584 2836 1778 
Q 2625 1972 2144 2069 
L 1759 2144 
Q 1053 2284 737 2584 
Q 422 2884 422 3419 
Q 422 4038 858 4394 
Q 1294 4750 2059 4750 
Q 2388 4750 2728 4690 
Q 3069 4631 3425 4513 
z
" transform="scale(0.015625)"/>
      <path id="DejaVuSans-20" transform="scale(0.015625)"/>
      <path id="DejaVuSans-41" d="M 2188 4044 
L 1331 1722 
L 3047 1722 
L 2188 4044 
z
M 1831 4666 
L 2547 4666 
L 4325 0 
L 3669 0 
L 3244 1197 
L 1141 1197 
L 716 0 
L 50 0 
L 1831 4666 
z
" transform="scale(0.015625)"/>
      <path id="DejaVuSans-6e" d="M 3513 2113 
L 3513 0 
L 2938 0 
L 2938 2094 
Q 2938 2591 2744 2837 
Q 2550 3084 2163 3084 
Q 1697 3084 1428 2787 
Q 1159 2491 1159 1978 
L 1159 0 
L 581 0 
L 581 3500 
L 1159 3500 
L 1159 2956 
Q 1366 3272 1645 3428 
Q 1925 3584 2291 3584 
Q 2894 3584 3203 3211 
Q 3513 2838 3513 2113 
z
" transform="scale(0.015625)"/>
      <path id="DejaVuSans-69" d="M 603 3500 
L 1178 3500 
L 1178 0 
L 603 0 
L 603 3500 
z
M 603 4863 
L 1178 4863 
L 1178 4134 
L 603 4134 
L 603 4863 
z
" transform="scale(0.015625)"/>
      <path id="DejaVuSans-6b" d="M 581 4863 
L 1159 4863 
L 1159 1991 
L 2875 3500 
L 3609 3500 
L 1753 1863 
L 3688 0 
L 2938 0 
L 1159 1709 
L 1159 0 
L 581 0 
L 581 4863 
z
" transform="scale(0.015625)"/>
      <path id="DejaVuSans-61" d="M 2194 1759 
Q 1497 1759 1228 1600 
Q 959 1441 959 1056 
Q 959 750 1161 570 
Q 1363 391 1709 391 
Q 2188 391 2477 730 
Q 2766 1069 2766 1631 
L 2766 1759 
L 2194 1759 
z
M 3341 1997 
L 3341 0 
L 2766 0 
L 2766 531 
Q 2569 213 2275 61 
Q 1981 -91 1556 -91 
Q 1019 -91 701 211 
Q 384 513 384 1019 
Q 384 1609 779 1909 
Q 1175 2209 1959 2209 
L 2766 2209 
L 2766 2266 
Q 2766 2663 2505 2880 
Q 2244 3097 1772 3097 
Q 1472 3097 1187 3025 
Q 903 2953 641 2809 
L 641 3341 
Q 956 3463 1253 3523 
Q 1550 3584 1831 3584 
Q 2591 3584 2966 3190 
Q 3341 2797 3341 1997 
z
" transform="scale(0.015625)"/>
      <path id="DejaVuSans-2d" d="M 313 2009 
L 1997 2009 
L 1997 1497 
L 313 1497 
L 313 2009 
z
" transform="scale(0.015625)"/>
     </defs>
     <use xlink:href="#DejaVuSans-4d"/>
     <use xlink:href="#DejaVuSans-53" x="86.279297"/>
     <use xlink:href="#DejaVuSans-33" x="149.755859"/>
     <use xlink:href="#DejaVuSans-20" x="213.378906"/>
     <use xlink:href="#DejaVuSans-41" x="245.166016"/>
     <use xlink:href="#DejaVuSans-6e" x="313.574219"/>
     <use xlink:href="#DejaVuSans-6e" x="376.953125"/>
     <use xlink:href="#DejaVuSans-69" x="440.332031"/>
     <use xlink:href="#DejaVuSans-6b" x="468.115234"/>
     <use xlink:href="#DejaVuSans-61" x="524.275391"/>
     <use xlink:href="#DejaVuSans-20" x="585.554688"/>
     <use xlink:href="#DejaVuSans-2d" x="617.341797"/>
     <use xlink:href="#DejaVuSans-20" x="653.425781"/>
     <use xlink:href="#DejaVuSans-33" x="685.212891"/>
     <use xlink:href="#DejaVuSans-33" x="748.835938"/>
    </g>
   </g>
   <g id="text_7">
    <!-- XlinkX - 19 -->
    <g transform="translate(257.74391 55.06583) scale(0.12 -0.12)">
     <defs>
      <path id="DejaVuSans-58" d="M 403 4666 
L 1081 4666 
L 2241 2931 
L 3406 4666 
L 4084 4666 
L 2584 2425 
L 4184 0 
L 3506 0 
L 2194 1984 
L 872 0 
L 191 0 
L 1856 2491 
L 403 4666 
z
" transform="scale(0.015625)"/>
      <path id="DejaVuSans-6c" d="M 603 4863 
L 1178 4863 
L 1178 0 
L 603 0 
L 603 4863 
z
" transform="scale(0.015625)"/>
      <path id="DejaVuSans-39" d="M 703 97 
L 703 672 
Q 941 559 1184 500 
Q 1428 441 1663 441 
Q 2288 441 2617 861 
Q 2947 1281 2994 2138 
Q 2813 1869 2534 1725 
Q 2256 1581 1919 1581 
Q 1219 1581 811 2004 
Q 403 2428 403 3163 
Q 403 3881 828 4315 
Q 1253 4750 1959 4750 
Q 2769 4750 3195 4129 
Q 3622 3509 3622 2328 
Q 3622 1225 3098 567 
Q 2575 -91 1691 -91 
Q 1453 -91 1209 -44 
Q 966 3 703 97 
z
M 1959 2075 
Q 2384 2075 2632 2365 
Q 2881 2656 2881 3163 
Q 2881 3666 2632 3958 
Q 2384 4250 1959 4250 
Q 1534 4250 1286 3958 
Q 1038 3666 1038 3163 
Q 1038 2656 1286 2365 
Q 1534 2075 1959 2075 
z
" transform="scale(0.015625)"/>
     </defs>
     <use xlink:href="#DejaVuSans-58"/>
     <use xlink:href="#DejaVuSans-6c" x="68.505859"/>
     <use xlink:href="#DejaVuSans-69" x="96.289062"/>
     <use xlink:href="#DejaVuSans-6e" x="124.072266"/>
     <use xlink:href="#DejaVuSans-6b" x="187.451172"/>
     <use xlink:href="#DejaVuSans-58" x="245.361328"/>
     <use xlink:href="#DejaVuSans-20" x="313.867188"/>
     <use xlink:href="#DejaVuSans-2d" x="345.654297"/>
     <use xlink:href="#DejaVuSans-20" x="381.738281"/>
     <use xlink:href="#DejaVuSans-31" x="413.525391"/>
     <use xlink:href="#DejaVuSans-39" x="477.148438"/>
    </g>
   </g>
   <g id="text_8">
    <!-- MaXLinker - 13 -->
    <g transform="translate(141.227883 260.265766) scale(0.12 -0.12)">
     <defs>
      <path id="DejaVuSans-4c" d="M 628 4666 
L 1259 4666 
L 1259 531 
L 3531 531 
L 3531 0 
L 628 0 
L 628 4666 
z
" transform="scale(0.015625)"/>
      <path id="DejaVuSans-65" d="M 3597 1894 
L 3597 1613 
L 953 1613 
Q 991 1019 1311 708 
Q 1631 397 2203 397 
Q 2534 397 2845 478 
Q 3156 559 3463 722 
L 3463 178 
Q 3153 47 2828 -22 
Q 2503 -91 2169 -91 
Q 1331 -91 842 396 
Q 353 884 353 1716 
Q 353 2575 817 3079 
Q 1281 3584 2069 3584 
Q 2775 3584 3186 3129 
Q 3597 2675 3597 1894 
z
M 3022 2063 
Q 3016 2534 2758 2815 
Q 2500 3097 2075 3097 
Q 1594 3097 1305 2825 
Q 1016 2553 972 2059 
L 3022 2063 
z
" transform="scale(0.015625)"/>
      <path id="DejaVuSans-72" d="M 2631 2963 
Q 2534 3019 2420 3045 
Q 2306 3072 2169 3072 
Q 1681 3072 1420 2755 
Q 1159 2438 1159 1844 
L 1159 0 
L 581 0 
L 581 3500 
L 1159 3500 
L 1159 2956 
Q 1341 3275 1631 3429 
Q 1922 3584 2338 3584 
Q 2397 3584 2469 3576 
Q 2541 3569 2628 3553 
L 2631 2963 
z
" transform="scale(0.015625)"/>
     </defs>
     <use xlink:href="#DejaVuSans-4d"/>
     <use xlink:href="#DejaVuSans-61" x="86.279297"/>
     <use xlink:href="#DejaVuSans-58" x="147.558594"/>
     <use xlink:href="#DejaVuSans-4c" x="216.064453"/>
     <use xlink:href="#DejaVuSans-69" x="271.777344"/>
     <use xlink:href="#DejaVuSans-6e" x="299.560547"/>
     <use xlink:href="#DejaVuSans-6b" x="362.939453"/>
     <use xlink:href="#DejaVuSans-65" x="417.224609"/>
     <use xlink:href="#DejaVuSans-72" x="478.748047"/>
     <use xlink:href="#DejaVuSans-20" x="519.861328"/>
     <use xlink:href="#DejaVuSans-2d" x="551.648438"/>
     <use xlink:href="#DejaVuSans-20" x="587.732422"/>
     <use xlink:href="#DejaVuSans-31" x="619.519531"/>
     <use xlink:href="#DejaVuSans-33" x="683.142578"/>
    </g>
   </g>
  </g>
 </g>
 <defs>
  <clipPath id="p79411f6848">
   <rect x="27.772267" y="7.2" width="293.351194" height="266.112"/>
  </clipPath>
 </defs>
</svg>
