<?xml version="1.0" encoding="utf-8" standalone="no"?>
<!DOCTYPE svg PUBLIC "-//W3C//DTD SVG 1.1//EN"
  "http://www.w3.org/Graphics/SVG/1.1/DTD/svg11.dtd">
<svg xmlns:xlink="http://www.w3.org/1999/xlink" width="329.832035pt" height="295.630125pt" viewBox="0 0 329.832035 295.630125" xmlns="http://www.w3.org/2000/svg" version="1.1">
 <metadata>
  <rdf:RDF xmlns:dc="http://purl.org/dc/elements/1.1/" xmlns:cc="http://creativecommons.org/ns#" xmlns:rdf="http://www.w3.org/1999/02/22-rdf-syntax-ns#">
   <cc:Work>
    <dc:type rdf:resource="http://purl.org/dc/dcmitype/StillImage"/>
    <dc:date>2023-04-20T15:08:41.048335</dc:date>
    <dc:format>image/svg+xml</dc:format>
    <dc:creator>
     <cc:Agent>
      <dc:title>Matplotlib v3.6.2, https://matplotlib.org/</dc:title>
     </cc:Agent>
    </dc:creator>
   </cc:Work>
  </rdf:RDF>
 </metadata>
 <defs>
  <style type="text/css">*{stroke-linejoin: round; stroke-linecap: butt}</style>
 </defs>
 <g id="figure_1">
  <g id="patch_1">
   <path d="M -0 295.630125 
L 329.832035 295.630125 
L 329.832035 0 
L -0 0 
L -0 295.630125 
z
" style="fill: none"/>
  </g>
  <g id="axes_1">
   <g id="patch_2">
    <path d="M 237.210538 237.65806 
C 237.110995 237.684749 237.011404 237.711257 236.911765 237.737585 
C 236.812125 237.763913 236.712439 237.79006 236.612704 237.816026 
C 235.680074 238.777476 234.720219 239.712138 233.73431 240.618874 
C 232.748401 241.52561 231.736839 242.40405 230.700857 243.253124 
C 231.820965 242.362526 232.923944 241.450594 234.009189 240.517827 
C 235.094433 239.585061 236.161745 238.631631 237.210538 237.65806 
M 237.210538 73.09019 
C 221.640752 58.637118 202.283914 48.895788 181.399518 45.003291 
C 160.515122 41.110794 138.948666 43.224716 119.21757 51.098302 
C 99.486473 58.971889 82.389543 72.286379 69.922478 89.487595 
C 57.455413 106.688811 50.122937 127.080365 48.780961 148.281983 
C 47.438984 169.483602 52.141835 190.636944 62.340558 209.272812 
C 72.539281 227.908681 87.820983 243.272608 106.401855 253.571187 
C 124.982727 263.869766 146.110528 268.686062 167.319042 267.457876 
C 188.527557 266.22969 208.958165 259.006744 226.226033 246.632163 
C 212.37475 256.250826 195.520551 260.584948 178.747449 258.841463 
C 161.974347 257.097979 146.371852 249.390137 134.79494 237.128335 
C 123.218028 224.866532 116.418687 208.847244 115.641072 192.00171 
C 114.863457 175.156176 120.15808 158.578612 130.55612 145.302413 
C 132.000388 133.171952 136.037135 121.492867 142.391765 111.059619 
C 148.746396 100.626371 157.271477 91.681019 167.387099 84.832062 
C 177.50272 77.983106 188.97419 73.389446 201.021173 71.363563 
C 213.068156 69.33768 225.411151 69.926575 237.210538 73.09019 
" clip-path="url(#p27f4c0b3e0)" style="fill: #4361ee; opacity: 0.6"/>
   </g>
   <g id="patch_3">
    <path d="M 237.210538 73.09019 
C 248.530948 83.598664 257.561917 96.331107 263.737091 110.489035 
C 269.912265 124.646964 273.099801 139.928099 273.099801 155.374125 
C 273.099801 170.820151 269.912265 186.101286 263.737091 200.259215 
C 257.561917 214.417143 248.530948 227.149586 237.210538 237.65806 
C 255.318528 232.803002 271.327163 222.103657 282.738788 207.229327 
C 294.150414 192.354998 300.338995 174.121681 300.338995 155.374125 
C 300.338995 136.626569 294.150414 118.393252 282.738788 103.518923 
C 271.327163 88.644593 255.318528 77.945248 237.210538 73.09019 
" clip-path="url(#p27f4c0b3e0)" style="fill: #4cc9f0; opacity: 0.6"/>
   </g>
   <g id="patch_4">
    <path d="M 237.210538 73.09019 
C 225.411151 69.926575 213.068156 69.33768 201.021173 71.363563 
C 188.97419 73.389446 177.50272 77.983106 167.387099 84.832062 
C 157.271477 91.681019 148.746396 100.626371 142.391765 111.059619 
C 136.037135 121.492867 132.000388 133.171952 130.55612 145.302413 
C 136.455286 137.770369 143.827056 131.518015 152.220986 126.927395 
C 160.614916 122.336776 169.856483 119.503337 179.380989 118.600214 
C 188.905494 117.69709 198.514911 118.74306 207.622062 121.674209 
C 216.729214 124.605358 225.14475 129.360743 232.354445 135.649792 
C 239.564141 141.93884 245.418097 149.630793 249.558611 158.25564 
C 253.699126 166.880487 256.040111 176.258904 256.438525 185.817833 
C 256.836938 195.376761 255.284495 204.917456 251.876057 213.856941 
C 248.467619 222.796426 243.274052 230.948836 236.612704 237.816026 
C 236.712439 237.79006 236.812125 237.763913 236.911765 237.737585 
C 237.011404 237.711257 237.110995 237.684749 237.210538 237.65806 
C 248.530948 227.149586 257.561917 214.417143 263.737091 200.259215 
C 269.912265 186.101286 273.099801 170.820151 273.099801 155.374125 
C 273.099801 139.928099 269.912265 124.646964 263.737091 110.489035 
C 257.561917 96.331107 248.530948 83.598664 237.210538 73.09019 
" clip-path="url(#p27f4c0b3e0)" style="fill: #64d1ff; opacity: 0.6"/>
   </g>
   <g id="patch_5">
    <path d="M 236.612704 237.816026 
C 223.191767 241.310188 209.118412 241.474822 195.619408 238.295576 
C 182.120403 235.11633 169.599722 228.688347 159.148787 219.571951 
C 148.697851 210.455555 140.629417 198.923565 135.646806 185.981219 
C 130.664196 173.038873 128.916519 159.073485 130.55612 145.302413 
C 120.15808 158.578612 114.863457 175.156176 115.641072 192.00171 
C 116.418687 208.847244 123.218028 224.866532 134.79494 237.128335 
C 146.371852 249.390137 161.974347 257.097979 178.747449 258.841463 
C 195.520551 260.584948 212.37475 256.250826 226.226033 246.632163 
C 226.985757 246.087726 227.738652 245.533823 228.484544 244.970584 
C 229.230435 244.407346 229.969263 243.834814 230.700857 243.253124 
C 231.736839 242.40405 232.748401 241.52561 233.73431 240.618874 
C 234.720219 239.712138 235.680074 238.777476 236.612704 237.816026 
" clip-path="url(#p27f4c0b3e0)" style="fill: #dc5eff; opacity: 0.6"/>
   </g>
   <g id="patch_6">
    <path d="M 130.55612 145.302413 
C 128.916519 159.073485 130.664196 173.038873 135.646806 185.981219 
C 140.629417 198.923565 148.697851 210.455555 159.148787 219.571951 
C 169.599722 228.688347 182.120403 235.11633 195.619408 238.295576 
C 209.118412 241.474822 223.191767 241.310188 236.612704 237.816026 
C 243.274052 230.948836 248.467619 222.796426 251.876057 213.856941 
C 255.284495 204.917456 256.836938 195.376761 256.438525 185.817833 
C 256.040111 176.258904 253.699126 166.880487 249.558611 158.25564 
C 245.418097 149.630793 239.564141 141.93884 232.354445 135.649792 
C 225.14475 129.360743 216.729214 124.605358 207.622062 121.674209 
C 198.514911 118.74306 188.905494 117.69709 179.380989 118.600214 
C 169.856483 119.503337 160.614916 122.336776 152.220986 126.927395 
C 143.827056 131.518015 136.455286 137.770369 130.55612 145.302413 
" clip-path="url(#p27f4c0b3e0)" style="fill: #9c86f4; opacity: 0.6"/>
   </g>
   <g id="text_1">
    <!-- 14 -->
    <g transform="translate(91.79937 166.89363) scale(0.1 -0.1)">
     <defs>
      <path id="DejaVuSans-31" d="M 794 531 
L 1825 531 
L 1825 4091 
L 703 3866 
L 703 4441 
L 1819 4666 
L 2450 4666 
L 2450 531 
L 3481 531 
L 3481 0 
L 794 0 
L 794 531 
z
" transform="scale(0.015625)"/>
      <path id="DejaVuSans-34" d="M 2419 4116 
L 825 1625 
L 2419 1625 
L 2419 4116 
z
M 2253 4666 
L 3047 4666 
L 3047 1625 
L 3713 1625 
L 3713 1100 
L 3047 1100 
L 3047 0 
L 2419 0 
L 2419 1100 
L 313 1100 
L 313 1709 
L 2253 4666 
z
" transform="scale(0.015625)"/>
     </defs>
     <use xlink:href="#DejaVuSans-31"/>
     <use xlink:href="#DejaVuSans-34" x="63.623047"/>
    </g>
   </g>
   <g id="text_2">
    <!-- 3 -->
    <g transform="translate(283.538148 158.1335) scale(0.1 -0.1)">
     <defs>
      <path id="DejaVuSans-33" d="M 2597 2516 
Q 3050 2419 3304 2112 
Q 3559 1806 3559 1356 
Q 3559 666 3084 287 
Q 2609 -91 1734 -91 
Q 1441 -91 1130 -33 
Q 819 25 488 141 
L 488 750 
Q 750 597 1062 519 
Q 1375 441 1716 441 
Q 2309 441 2620 675 
Q 2931 909 2931 1356 
Q 2931 1769 2642 2001 
Q 2353 2234 1838 2234 
L 1294 2234 
L 1294 2753 
L 1863 2753 
Q 2328 2753 2575 2939 
Q 2822 3125 2822 3475 
Q 2822 3834 2567 4026 
Q 2313 4219 1838 4219 
Q 1578 4219 1281 4162 
Q 984 4106 628 3988 
L 628 4550 
Q 988 4650 1302 4700 
Q 1616 4750 1894 4750 
Q 2613 4750 3031 4423 
Q 3450 4097 3450 3541 
Q 3450 3153 3228 2886 
Q 3006 2619 2597 2516 
z
" transform="scale(0.015625)"/>
     </defs>
     <use xlink:href="#DejaVuSans-33"/>
    </g>
   </g>
   <g id="text_3">
    <!-- 6 -->
    <g transform="translate(222.474579 130.256229) scale(0.1 -0.1)">
     <defs>
      <path id="DejaVuSans-36" d="M 2113 2584 
Q 1688 2584 1439 2293 
Q 1191 2003 1191 1497 
Q 1191 994 1439 701 
Q 1688 409 2113 409 
Q 2538 409 2786 701 
Q 3034 994 3034 1497 
Q 3034 2003 2786 2293 
Q 2538 2584 2113 2584 
z
M 3366 4563 
L 3366 3988 
Q 3128 4100 2886 4159 
Q 2644 4219 2406 4219 
Q 1781 4219 1451 3797 
Q 1122 3375 1075 2522 
Q 1259 2794 1537 2939 
Q 1816 3084 2150 3084 
Q 2853 3084 3261 2657 
Q 3669 2231 3669 1497 
Q 3669 778 3244 343 
Q 2819 -91 2113 -91 
Q 1303 -91 875 529 
Q 447 1150 447 2328 
Q 447 3434 972 4092 
Q 1497 4750 2381 4750 
Q 2619 4750 2861 4703 
Q 3103 4656 3366 4563 
z
" transform="scale(0.015625)"/>
     </defs>
     <use xlink:href="#DejaVuSans-36"/>
    </g>
   </g>
   <g id="text_4">
    <!-- 3 -->
    <g transform="translate(144.402512 233.152646) scale(0.1 -0.1)">
     <use xlink:href="#DejaVuSans-33"/>
    </g>
   </g>
   <g id="text_5">
    <!-- 10 -->
    <g transform="translate(189.389116 180.370246) scale(0.1 -0.1)">
     <defs>
      <path id="DejaVuSans-30" d="M 2034 4250 
Q 1547 4250 1301 3770 
Q 1056 3291 1056 2328 
Q 1056 1369 1301 889 
Q 1547 409 2034 409 
Q 2525 409 2770 889 
Q 3016 1369 3016 2328 
Q 3016 3291 2770 3770 
Q 2525 4250 2034 4250 
z
M 2034 4750 
Q 2819 4750 3233 4129 
Q 3647 3509 3647 2328 
Q 3647 1150 3233 529 
Q 2819 -91 2034 -91 
Q 1250 -91 836 529 
Q 422 1150 422 2328 
Q 422 3509 836 4129 
Q 1250 4750 2034 4750 
z
" transform="scale(0.015625)"/>
     </defs>
     <use xlink:href="#DejaVuSans-31"/>
     <use xlink:href="#DejaVuSans-30" x="63.623047"/>
    </g>
   </g>
   <g id="text_6">
    <!-- MS3 Annika - 33 -->
    <g transform="translate(7.2 43.102591) scale(0.12 -0.12)">
     <defs>
      <path id="DejaVuSans-4d" d="M 628 4666 
L 1569 4666 
L 2759 1491 
L 3956 4666 
L 4897 4666 
L 4897 0 
L 4281 0 
L 4281 4097 
L 3078 897 
L 2444 897 
L 1241 4097 
L 1241 0 
L 628 0 
L 628 4666 
z
" transform="scale(0.015625)"/>
      <path id="DejaVuSans-53" d="M 3425 4513 
L 3425 3897 
Q 3066 4069 2747 4153 
Q 2428 4238 2131 4238 
Q 1616 4238 1336 4038 
Q 1056 3838 1056 3469 
Q 1056 3159 1242 3001 
Q 1428 2844 1947 2747 
L 2328 2669 
Q 3034 2534 3370 2195 
Q 3706 1856 3706 1288 
Q 3706 609 3251 259 
Q 2797 -91 1919 -91 
Q 1588 -91 1214 -16 
Q 841 59 441 206 
L 441 856 
Q 825 641 1194 531 
Q 1563 422 1919 422 
Q 2459 422 2753 634 
Q 3047 847 3047 1241 
Q 3047 1584 2836 1778 
Q 2625 1972 2144 2069 
L 1759 2144 
Q 1053 2284 737 2584 
Q 422 2884 422 3419 
Q 422 4038 858 4394 
Q 1294 4750 2059 4750 
Q 2388 4750 2728 4690 
Q 3069 4631 3425 4513 
z
" transform="scale(0.015625)"/>
      <path id="DejaVuSans-20" transform="scale(0.015625)"/>
      <path id="DejaVuSans-41" d="M 2188 4044 
L 1331 1722 
L 3047 1722 
L 2188 4044 
z
M 1831 4666 
L 2547 4666 
L 4325 0 
L 3669 0 
L 3244 1197 
L 1141 1197 
L 716 0 
L 50 0 
L 1831 4666 
z
" transform="scale(0.015625)"/>
      <path id="DejaVuSans-6e" d="M 3513 2113 
L 3513 0 
L 2938 0 
L 2938 2094 
Q 2938 2591 2744 2837 
Q 2550 3084 2163 3084 
Q 1697 3084 1428 2787 
Q 1159 2491 1159 1978 
L 1159 0 
L 581 0 
L 581 3500 
L 1159 3500 
L 1159 2956 
Q 1366 3272 1645 3428 
Q 1925 3584 2291 3584 
Q 2894 3584 3203 3211 
Q 3513 2838 3513 2113 
z
" transform="scale(0.015625)"/>
      <path id="DejaVuSans-69" d="M 603 3500 
L 1178 3500 
L 1178 0 
L 603 0 
L 603 3500 
z
M 603 4863 
L 1178 4863 
L 1178 4134 
L 603 4134 
L 603 4863 
z
" transform="scale(0.015625)"/>
      <path id="DejaVuSans-6b" d="M 581 4863 
L 1159 4863 
L 1159 1991 
L 2875 3500 
L 3609 3500 
L 1753 1863 
L 3688 0 
L 2938 0 
L 1159 1709 
L 1159 0 
L 581 0 
L 581 4863 
z
" transform="scale(0.015625)"/>
      <path id="DejaVuSans-61" d="M 2194 1759 
Q 1497 1759 1228 1600 
Q 959 1441 959 1056 
Q 959 750 1161 570 
Q 1363 391 1709 391 
Q 2188 391 2477 730 
Q 2766 1069 2766 1631 
L 2766 1759 
L 2194 1759 
z
M 3341 1997 
L 3341 0 
L 2766 0 
L 2766 531 
Q 2569 213 2275 61 
Q 1981 -91 1556 -91 
Q 1019 -91 701 211 
Q 384 513 384 1019 
Q 384 1609 779 1909 
Q 1175 2209 1959 2209 
L 2766 2209 
L 2766 2266 
Q 2766 2663 2505 2880 
Q 2244 3097 1772 3097 
Q 1472 3097 1187 3025 
Q 903 2953 641 2809 
L 641 3341 
Q 956 3463 1253 3523 
Q 1550 3584 1831 3584 
Q 2591 3584 2966 3190 
Q 3341 2797 3341 1997 
z
" transform="scale(0.015625)"/>
      <path id="DejaVuSans-2d" d="M 313 2009 
L 1997 2009 
L 1997 1497 
L 313 1497 
L 313 2009 
z
" transform="scale(0.015625)"/>
     </defs>
     <use xlink:href="#DejaVuSans-4d"/>
     <use xlink:href="#DejaVuSans-53" x="86.279297"/>
     <use xlink:href="#DejaVuSans-33" x="149.755859"/>
     <use xlink:href="#DejaVuSans-20" x="213.378906"/>
     <use xlink:href="#DejaVuSans-41" x="245.166016"/>
     <use xlink:href="#DejaVuSans-6e" x="313.574219"/>
     <use xlink:href="#DejaVuSans-6e" x="376.953125"/>
     <use xlink:href="#DejaVuSans-69" x="440.332031"/>
     <use xlink:href="#DejaVuSans-6b" x="468.115234"/>
     <use xlink:href="#DejaVuSans-61" x="524.275391"/>
     <use xlink:href="#DejaVuSans-20" x="585.554688"/>
     <use xlink:href="#DejaVuSans-2d" x="617.341797"/>
     <use xlink:href="#DejaVuSans-20" x="653.425781"/>
     <use xlink:href="#DejaVuSans-33" x="685.212891"/>
     <use xlink:href="#DejaVuSans-33" x="748.835938"/>
    </g>
   </g>
   <g id="text_7">
    <!-- XlinkX - 19 -->
    <g transform="translate(257.74391 70.183955) scale(0.12 -0.12)">
     <defs>
      <path id="DejaVuSans-58" d="M 403 4666 
L 1081 4666 
L 2241 2931 
L 3406 4666 
L 4084 4666 
L 2584 2425 
L 4184 0 
L 3506 0 
L 2194 1984 
L 872 0 
L 191 0 
L 1856 2491 
L 403 4666 
z
" transform="scale(0.015625)"/>
      <path id="DejaVuSans-6c" d="M 603 4863 
L 1178 4863 
L 1178 0 
L 603 0 
L 603 4863 
z
" transform="scale(0.015625)"/>
      <path id="DejaVuSans-39" d="M 703 97 
L 703 672 
Q 941 559 1184 500 
Q 1428 441 1663 441 
Q 2288 441 2617 861 
Q 2947 1281 2994 2138 
Q 2813 1869 2534 1725 
Q 2256 1581 1919 1581 
Q 1219 1581 811 2004 
Q 403 2428 403 3163 
Q 403 3881 828 4315 
Q 1253 4750 1959 4750 
Q 2769 4750 3195 4129 
Q 3622 3509 3622 2328 
Q 3622 1225 3098 567 
Q 2575 -91 1691 -91 
Q 1453 -91 1209 -44 
Q 966 3 703 97 
z
M 1959 2075 
Q 2384 2075 2632 2365 
Q 2881 2656 2881 3163 
Q 2881 3666 2632 3958 
Q 2384 4250 1959 4250 
Q 1534 4250 1286 3958 
Q 1038 3666 1038 3163 
Q 1038 2656 1286 2365 
Q 1534 2075 1959 2075 
z
" transform="scale(0.015625)"/>
     </defs>
     <use xlink:href="#DejaVuSans-58"/>
     <use xlink:href="#DejaVuSans-6c" x="68.505859"/>
     <use xlink:href="#DejaVuSans-69" x="96.289062"/>
     <use xlink:href="#DejaVuSans-6e" x="124.072266"/>
     <use xlink:href="#DejaVuSans-6b" x="187.451172"/>
     <use xlink:href="#DejaVuSans-58" x="245.361328"/>
     <use xlink:href="#DejaVuSans-20" x="313.867188"/>
     <use xlink:href="#DejaVuSans-2d" x="345.654297"/>
     <use xlink:href="#DejaVuSans-20" x="381.738281"/>
     <use xlink:href="#DejaVuSans-31" x="413.525391"/>
     <use xlink:href="#DejaVuSans-39" x="477.148438"/>
    </g>
   </g>
   <g id="text_8">
    <!-- MaXLinker - 13 -->
    <g transform="translate(141.227883 275.383891) scale(0.12 -0.12)">
     <defs>
      <path id="DejaVuSans-4c" d="M 628 4666 
L 1259 4666 
L 1259 531 
L 3531 531 
L 3531 0 
L 628 0 
L 628 4666 
z
" transform="scale(0.015625)"/>
      <path id="DejaVuSans-65" d="M 3597 1894 
L 3597 1613 
L 953 1613 
Q 991 1019 1311 708 
Q 1631 397 2203 397 
Q 2534 397 2845 478 
Q 3156 559 3463 722 
L 3463 178 
Q 3153 47 2828 -22 
Q 2503 -91 2169 -91 
Q 1331 -91 842 396 
Q 353 884 353 1716 
Q 353 2575 817 3079 
Q 1281 3584 2069 3584 
Q 2775 3584 3186 3129 
Q 3597 2675 3597 1894 
z
M 3022 2063 
Q 3016 2534 2758 2815 
Q 2500 3097 2075 3097 
Q 1594 3097 1305 2825 
Q 1016 2553 972 2059 
L 3022 2063 
z
" transform="scale(0.015625)"/>
      <path id="DejaVuSans-72" d="M 2631 2963 
Q 2534 3019 2420 3045 
Q 2306 3072 2169 3072 
Q 1681 3072 1420 2755 
Q 1159 2438 1159 1844 
L 1159 0 
L 581 0 
L 581 3500 
L 1159 3500 
L 1159 2956 
Q 1341 3275 1631 3429 
Q 1922 3584 2338 3584 
Q 2397 3584 2469 3576 
Q 2541 3569 2628 3553 
L 2631 2963 
z
" transform="scale(0.015625)"/>
     </defs>
     <use xlink:href="#DejaVuSans-4d"/>
     <use xlink:href="#DejaVuSans-61" x="86.279297"/>
     <use xlink:href="#DejaVuSans-58" x="147.558594"/>
     <use xlink:href="#DejaVuSans-4c" x="216.064453"/>
     <use xlink:href="#DejaVuSans-69" x="271.777344"/>
     <use xlink:href="#DejaVuSans-6e" x="299.560547"/>
     <use xlink:href="#DejaVuSans-6b" x="362.939453"/>
     <use xlink:href="#DejaVuSans-65" x="417.224609"/>
     <use xlink:href="#DejaVuSans-72" x="478.748047"/>
     <use xlink:href="#DejaVuSans-20" x="519.861328"/>
     <use xlink:href="#DejaVuSans-2d" x="551.648438"/>
     <use xlink:href="#DejaVuSans-20" x="587.732422"/>
     <use xlink:href="#DejaVuSans-31" x="619.519531"/>
     <use xlink:href="#DejaVuSans-33" x="683.142578"/>
    </g>
   </g>
   <g id="text_9">
    <!-- SARS-CoV-2 NSP8 Crosslinks -->
    <g transform="translate(88.957239 16.318125) scale(0.12 -0.12)">
     <defs>
      <path id="DejaVuSans-52" d="M 2841 2188 
Q 3044 2119 3236 1894 
Q 3428 1669 3622 1275 
L 4263 0 
L 3584 0 
L 2988 1197 
Q 2756 1666 2539 1819 
Q 2322 1972 1947 1972 
L 1259 1972 
L 1259 0 
L 628 0 
L 628 4666 
L 2053 4666 
Q 2853 4666 3247 4331 
Q 3641 3997 3641 3322 
Q 3641 2881 3436 2590 
Q 3231 2300 2841 2188 
z
M 1259 4147 
L 1259 2491 
L 2053 2491 
Q 2509 2491 2742 2702 
Q 2975 2913 2975 3322 
Q 2975 3731 2742 3939 
Q 2509 4147 2053 4147 
L 1259 4147 
z
" transform="scale(0.015625)"/>
      <path id="DejaVuSans-43" d="M 4122 4306 
L 4122 3641 
Q 3803 3938 3442 4084 
Q 3081 4231 2675 4231 
Q 1875 4231 1450 3742 
Q 1025 3253 1025 2328 
Q 1025 1406 1450 917 
Q 1875 428 2675 428 
Q 3081 428 3442 575 
Q 3803 722 4122 1019 
L 4122 359 
Q 3791 134 3420 21 
Q 3050 -91 2638 -91 
Q 1578 -91 968 557 
Q 359 1206 359 2328 
Q 359 3453 968 4101 
Q 1578 4750 2638 4750 
Q 3056 4750 3426 4639 
Q 3797 4528 4122 4306 
z
" transform="scale(0.015625)"/>
      <path id="DejaVuSans-6f" d="M 1959 3097 
Q 1497 3097 1228 2736 
Q 959 2375 959 1747 
Q 959 1119 1226 758 
Q 1494 397 1959 397 
Q 2419 397 2687 759 
Q 2956 1122 2956 1747 
Q 2956 2369 2687 2733 
Q 2419 3097 1959 3097 
z
M 1959 3584 
Q 2709 3584 3137 3096 
Q 3566 2609 3566 1747 
Q 3566 888 3137 398 
Q 2709 -91 1959 -91 
Q 1206 -91 779 398 
Q 353 888 353 1747 
Q 353 2609 779 3096 
Q 1206 3584 1959 3584 
z
" transform="scale(0.015625)"/>
      <path id="DejaVuSans-56" d="M 1831 0 
L 50 4666 
L 709 4666 
L 2188 738 
L 3669 4666 
L 4325 4666 
L 2547 0 
L 1831 0 
z
" transform="scale(0.015625)"/>
      <path id="DejaVuSans-32" d="M 1228 531 
L 3431 531 
L 3431 0 
L 469 0 
L 469 531 
Q 828 903 1448 1529 
Q 2069 2156 2228 2338 
Q 2531 2678 2651 2914 
Q 2772 3150 2772 3378 
Q 2772 3750 2511 3984 
Q 2250 4219 1831 4219 
Q 1534 4219 1204 4116 
Q 875 4013 500 3803 
L 500 4441 
Q 881 4594 1212 4672 
Q 1544 4750 1819 4750 
Q 2544 4750 2975 4387 
Q 3406 4025 3406 3419 
Q 3406 3131 3298 2873 
Q 3191 2616 2906 2266 
Q 2828 2175 2409 1742 
Q 1991 1309 1228 531 
z
" transform="scale(0.015625)"/>
      <path id="DejaVuSans-4e" d="M 628 4666 
L 1478 4666 
L 3547 763 
L 3547 4666 
L 4159 4666 
L 4159 0 
L 3309 0 
L 1241 3903 
L 1241 0 
L 628 0 
L 628 4666 
z
" transform="scale(0.015625)"/>
      <path id="DejaVuSans-50" d="M 1259 4147 
L 1259 2394 
L 2053 2394 
Q 2494 2394 2734 2622 
Q 2975 2850 2975 3272 
Q 2975 3691 2734 3919 
Q 2494 4147 2053 4147 
L 1259 4147 
z
M 628 4666 
L 2053 4666 
Q 2838 4666 3239 4311 
Q 3641 3956 3641 3272 
Q 3641 2581 3239 2228 
Q 2838 1875 2053 1875 
L 1259 1875 
L 1259 0 
L 628 0 
L 628 4666 
z
" transform="scale(0.015625)"/>
      <path id="DejaVuSans-38" d="M 2034 2216 
Q 1584 2216 1326 1975 
Q 1069 1734 1069 1313 
Q 1069 891 1326 650 
Q 1584 409 2034 409 
Q 2484 409 2743 651 
Q 3003 894 3003 1313 
Q 3003 1734 2745 1975 
Q 2488 2216 2034 2216 
z
M 1403 2484 
Q 997 2584 770 2862 
Q 544 3141 544 3541 
Q 544 4100 942 4425 
Q 1341 4750 2034 4750 
Q 2731 4750 3128 4425 
Q 3525 4100 3525 3541 
Q 3525 3141 3298 2862 
Q 3072 2584 2669 2484 
Q 3125 2378 3379 2068 
Q 3634 1759 3634 1313 
Q 3634 634 3220 271 
Q 2806 -91 2034 -91 
Q 1263 -91 848 271 
Q 434 634 434 1313 
Q 434 1759 690 2068 
Q 947 2378 1403 2484 
z
M 1172 3481 
Q 1172 3119 1398 2916 
Q 1625 2713 2034 2713 
Q 2441 2713 2670 2916 
Q 2900 3119 2900 3481 
Q 2900 3844 2670 4047 
Q 2441 4250 2034 4250 
Q 1625 4250 1398 4047 
Q 1172 3844 1172 3481 
z
" transform="scale(0.015625)"/>
      <path id="DejaVuSans-73" d="M 2834 3397 
L 2834 2853 
Q 2591 2978 2328 3040 
Q 2066 3103 1784 3103 
Q 1356 3103 1142 2972 
Q 928 2841 928 2578 
Q 928 2378 1081 2264 
Q 1234 2150 1697 2047 
L 1894 2003 
Q 2506 1872 2764 1633 
Q 3022 1394 3022 966 
Q 3022 478 2636 193 
Q 2250 -91 1575 -91 
Q 1294 -91 989 -36 
Q 684 19 347 128 
L 347 722 
Q 666 556 975 473 
Q 1284 391 1588 391 
Q 1994 391 2212 530 
Q 2431 669 2431 922 
Q 2431 1156 2273 1281 
Q 2116 1406 1581 1522 
L 1381 1569 
Q 847 1681 609 1914 
Q 372 2147 372 2553 
Q 372 3047 722 3315 
Q 1072 3584 1716 3584 
Q 2034 3584 2315 3537 
Q 2597 3491 2834 3397 
z
" transform="scale(0.015625)"/>
     </defs>
     <use xlink:href="#DejaVuSans-53"/>
     <use xlink:href="#DejaVuSans-41" x="65.351562"/>
     <use xlink:href="#DejaVuSans-52" x="133.759766"/>
     <use xlink:href="#DejaVuSans-53" x="203.242188"/>
     <use xlink:href="#DejaVuSans-2d" x="266.71875"/>
     <use xlink:href="#DejaVuSans-43" x="302.802734"/>
     <use xlink:href="#DejaVuSans-6f" x="372.626953"/>
     <use xlink:href="#DejaVuSans-56" x="433.808594"/>
     <use xlink:href="#DejaVuSans-2d" x="496.341797"/>
     <use xlink:href="#DejaVuSans-32" x="532.425781"/>
     <use xlink:href="#DejaVuSans-20" x="596.048828"/>
     <use xlink:href="#DejaVuSans-4e" x="627.835938"/>
     <use xlink:href="#DejaVuSans-53" x="702.640625"/>
     <use xlink:href="#DejaVuSans-50" x="766.117188"/>
     <use xlink:href="#DejaVuSans-38" x="826.419922"/>
     <use xlink:href="#DejaVuSans-20" x="890.042969"/>
     <use xlink:href="#DejaVuSans-43" x="921.830078"/>
     <use xlink:href="#DejaVuSans-72" x="991.654297"/>
     <use xlink:href="#DejaVuSans-6f" x="1030.517578"/>
     <use xlink:href="#DejaVuSans-73" x="1091.699219"/>
     <use xlink:href="#DejaVuSans-73" x="1143.798828"/>
     <use xlink:href="#DejaVuSans-6c" x="1195.898438"/>
     <use xlink:href="#DejaVuSans-69" x="1223.681641"/>
     <use xlink:href="#DejaVuSans-6e" x="1251.464844"/>
     <use xlink:href="#DejaVuSans-6b" x="1314.84375"/>
     <use xlink:href="#DejaVuSans-73" x="1372.753906"/>
    </g>
   </g>
  </g>
 </g>
 <defs>
  <clipPath id="p27f4c0b3e0">
   <rect x="27.772267" y="22.318125" width="293.351194" height="266.112"/>
  </clipPath>
 </defs>
</svg>
