<?xml version="1.0" encoding="utf-8" standalone="no"?>
<!DOCTYPE svg PUBLIC "-//W3C//DTD SVG 1.1//EN"
  "http://www.w3.org/Graphics/SVG/1.1/DTD/svg11.dtd">
<svg xmlns:xlink="http://www.w3.org/1999/xlink" width="460.8pt" height="345.6pt" viewBox="0 0 460.8 345.6" xmlns="http://www.w3.org/2000/svg" version="1.1">
 <metadata>
  <rdf:RDF xmlns:dc="http://purl.org/dc/elements/1.1/" xmlns:cc="http://creativecommons.org/ns#" xmlns:rdf="http://www.w3.org/1999/02/22-rdf-syntax-ns#">
   <cc:Work>
    <dc:type rdf:resource="http://purl.org/dc/dcmitype/StillImage"/>
    <dc:date>2022-07-26T16:32:17.747880</dc:date>
    <dc:format>image/svg+xml</dc:format>
    <dc:creator>
     <cc:Agent>
      <dc:title>Matplotlib v3.5.1, https://matplotlib.org/</dc:title>
     </cc:Agent>
    </dc:creator>
   </cc:Work>
  </rdf:RDF>
 </metadata>
 <defs>
  <style type="text/css">*{stroke-linejoin: round; stroke-linecap: butt}</style>
 </defs>
 <g id="figure_1">
  <g id="patch_1">
   <path d="M 0 345.6 
L 460.8 345.6 
L 460.8 0 
L 0 0 
z
" style="fill: #ffffff"/>
  </g>
  <g id="axes_1">
   <g id="patch_2">
    <path d="M 57.6 307.584 
L 414.72 307.584 
L 414.72 41.472 
L 57.6 41.472 
z
" style="fill: #ffffff"/>
   </g>
   <g id="PolyCollection_1">
    <path d="M 73.832727 115.988211 
L 73.832727 307.584 
L 73.984838 307.584 
L 74.330815 307.584 
L 74.518716 307.584 
L 74.658896 307.584 
L 75.23453 307.584 
L 75.899641 307.584 
L 76.576682 307.584 
L 76.949502 307.584 
L 77.047926 307.584 
L 77.268635 307.584 
L 77.399868 307.584 
L 77.450572 307.584 
L 77.63549 307.584 
L 77.713037 307.584 
L 78.160421 307.584 
L 78.572014 307.584 
L 78.915008 307.584 
L 79.082031 307.584 
L 79.263967 307.584 
L 79.776968 307.584 
L 79.833636 307.584 
L 80.045398 307.584 
L 80.081189 307.584 
L 80.14084 307.584 
L 80.817881 307.584 
L 81.241404 307.584 
L 81.491939 307.584 
L 81.682823 307.584 
L 82.15705 307.584 
L 82.240562 307.584 
L 82.344951 307.584 
L 83.060765 307.584 
L 83.078661 307.584 
L 83.230771 307.584 
L 83.409725 307.584 
L 83.815353 307.584 
L 83.910795 307.584 
L 84.003254 307.584 
L 84.310458 307.584 
L 85.44383 307.584 
L 86.58615 307.584 
L 86.994761 307.584 
L 87.06336 307.584 
L 87.686714 307.584 
L 87.794087 307.584 
L 87.850755 307.584 
L 88.020761 307.584 
L 88.223575 307.584 
L 88.414459 307.584 
L 88.760436 307.584 
L 88.942372 307.584 
L 89.139221 307.584 
L 89.264488 307.584 
L 89.538884 307.584 
L 89.619413 307.584 
L 89.762576 307.584 
L 89.852052 307.584 
L 89.971355 307.584 
L 90.198029 307.584 
L 90.347157 307.584 
L 90.511198 307.584 
L 90.549971 307.584 
L 90.585762 307.584 
L 90.815419 307.584 
L 91.116658 307.584 
L 91.87721 307.584 
L 91.942826 307.584 
L 92.661623 307.584 
L 93.210414 307.584 
L 94.185711 307.584 
L 94.728537 307.584 
L 95.447333 307.584 
L 95.647165 307.584 
L 96.255607 307.584 
L 96.29438 307.584 
L 96.601584 307.584 
L 97.114584 307.584 
L 97.666357 307.584 
L 98.271817 307.584 
L 98.632707 307.584 
L 98.922015 307.584 
L 99.270974 307.584 
L 99.998719 307.584 
L 100.088195 307.584 
L 100.317852 307.584 
L 101.155952 307.584 
L 102.020894 307.584 
L 102.363888 307.584 
L 103.327255 307.584 
L 103.383923 307.584 
L 103.440592 307.584 
L 103.515156 307.584 
L 104.541156 307.584 
L 104.851342 307.584 
L 105.295744 307.584 
L 105.689441 307.584 
L 105.844535 307.584 
L 105.847517 307.584 
L 106.420168 307.584 
L 106.790006 307.584 
L 107.019663 307.584 
L 107.106157 307.584 
L 107.323884 307.584 
L 107.807058 307.584 
L 107.956186 307.584 
L 108.060576 307.584 
L 108.618315 307.584 
L 109.286408 307.584 
L 110.321356 307.584 
L 110.786635 307.584 
L 113.500764 307.584 
L 113.816915 307.584 
L 114.56852 307.584 
L 114.68484 307.584 
L 114.911514 307.584 
L 115.406619 307.584 
L 116.149276 307.584 
L 116.718945 307.584 
L 116.826317 307.584 
L 117.989515 307.584 
L 119.516586 307.584 
L 119.62694 307.584 
L 121.213662 307.584 
L 121.458232 307.584 
L 122.552831 307.584 
L 124.443773 307.584 
L 124.879227 307.584 
L 125.195378 307.584 
L 125.475739 307.584 
L 126.331733 307.584 
L 126.659815 307.584 
L 127.247379 307.584 
L 127.372646 307.584 
L 127.825995 307.584 
L 127.891612 307.584 
L 128.121269 307.584 
L 128.631286 307.584 
L 128.813223 307.584 
L 128.866909 307.584 
L 129.212885 307.584 
L 130.877153 307.584 
L 131.846485 307.584 
L 132.547387 307.584 
L 133.131968 307.584 
L 138.118807 307.584 
L 138.208284 307.584 
L 138.852517 307.584 
L 139.305866 307.584 
L 140.02168 307.584 
L 140.692756 307.584 
L 146.893496 307.584 
L 147.642118 307.584 
L 147.99406 307.584 
L 148.760578 307.584 
L 149.377968 307.584 
L 153.613202 307.584 
L 154.564638 307.584 
L 156.336278 307.584 
L 157.699308 307.584 
L 158.098971 307.584 
L 159.050407 307.584 
L 159.488843 307.584 
L 162.617548 307.584 
L 162.763693 307.584 
L 165.725375 307.584 
L 167.63123 307.584 
L 167.699829 307.584 
L 167.819131 307.584 
L 168.704951 307.584 
L 169.814463 307.584 
L 171.493644 307.584 
L 177.238053 307.584 
L 179.245315 307.584 
L 183.480549 307.584 
L 184.569183 307.584 
L 185.228329 307.584 
L 185.270085 307.584 
L 185.675713 307.584 
L 189.135481 307.584 
L 189.887086 307.584 
L 191.658726 307.584 
L 192.070319 307.584 
L 193.636163 307.584 
L 195.094634 307.584 
L 198.745287 307.584 
L 200.970276 307.584 
L 223.628778 307.584 
L 223.962824 307.584 
L 229.238972 307.584 
L 239.525818 307.584 
L 244.312825 307.584 
L 245.335843 307.584 
L 245.54164 307.584 
L 247.996286 307.584 
L 251.041479 307.584 
L 252.920491 307.584 
L 253.179974 307.584 
L 258.468051 307.584 
L 265.017751 307.584 
L 276.536394 307.584 
L 282.077989 307.584 
L 282.698362 307.584 
L 292.868888 307.584 
L 306.341108 307.584 
L 309.589115 307.584 
L 329.599104 307.584 
L 337.592363 307.584 
L 398.487273 307.584 
L 398.487273 307.584 
L 398.487273 307.584 
L 337.592363 307.584 
L 329.599104 307.584 
L 309.589115 307.584 
L 306.341108 307.584 
L 292.868888 307.584 
L 282.698362 307.584 
L 282.077989 307.584 
L 276.536394 307.584 
L 265.017751 307.584 
L 258.468051 307.584 
L 253.179974 306.371368 
L 252.920491 306.371368 
L 251.041479 305.158737 
L 247.996286 303.946105 
L 245.54164 303.946105 
L 245.335843 303.946105 
L 244.312825 303.946105 
L 239.525818 303.946105 
L 229.238972 302.733474 
L 223.962824 302.733474 
L 223.628778 301.520842 
L 200.970276 300.308211 
L 198.745287 300.308211 
L 195.094634 300.308211 
L 193.636163 299.095579 
L 192.070319 297.882947 
L 191.658726 296.670316 
L 189.887086 295.457684 
L 189.135481 295.457684 
L 185.675713 294.245053 
L 185.270085 294.245053 
L 185.228329 293.032421 
L 184.569183 293.032421 
L 183.480549 293.032421 
L 179.245315 291.819789 
L 177.238053 290.607158 
L 171.493644 289.394526 
L 169.814463 288.181895 
L 168.704951 288.181895 
L 167.819131 286.969263 
L 167.699829 285.756632 
L 167.63123 284.544 
L 165.725375 283.331368 
L 162.763693 282.118737 
L 162.617548 282.118737 
L 159.488843 280.906105 
L 159.050407 280.906105 
L 158.098971 279.693474 
L 157.699308 278.480842 
L 156.336278 277.268211 
L 154.564638 276.055579 
L 153.613202 276.055579 
L 149.377968 274.842947 
L 148.760578 273.630316 
L 147.99406 272.417684 
L 147.642118 271.205053 
L 146.893496 271.205053 
L 140.692756 269.992421 
L 140.02168 268.779789 
L 139.305866 267.567158 
L 138.852517 266.354526 
L 138.208284 265.141895 
L 138.118807 263.929263 
L 133.131968 263.929263 
L 132.547387 262.716632 
L 131.846485 261.504 
L 130.877153 260.291368 
L 129.212885 259.078737 
L 128.866909 259.078737 
L 128.813223 257.866105 
L 128.631286 256.653474 
L 128.121269 256.653474 
L 127.891612 255.440842 
L 127.825995 255.440842 
L 127.372646 254.228211 
L 127.247379 254.228211 
L 126.659815 253.015579 
L 126.331733 251.802947 
L 125.475739 251.802947 
L 125.195378 251.802947 
L 124.879227 250.590316 
L 124.443773 250.590316 
L 122.552831 249.377684 
L 121.458232 248.165053 
L 121.213662 246.952421 
L 119.62694 245.739789 
L 119.516586 244.527158 
L 117.989515 243.314526 
L 116.826317 242.101895 
L 116.718945 240.889263 
L 116.149276 239.676632 
L 115.406619 239.676632 
L 114.911514 238.464 
L 114.68484 237.251368 
L 114.56852 236.038737 
L 113.816915 234.826105 
L 113.500764 233.613474 
L 110.786635 232.400842 
L 110.321356 231.188211 
L 109.286408 229.975579 
L 108.618315 228.762947 
L 108.060576 227.550316 
L 107.956186 226.337684 
L 107.807058 225.125053 
L 107.323884 225.125053 
L 107.106157 225.125053 
L 107.019663 225.125053 
L 106.790006 223.912421 
L 106.420168 222.699789 
L 105.847517 222.699789 
L 105.844535 221.487158 
L 105.689441 220.274526 
L 105.295744 219.061895 
L 104.851342 217.849263 
L 104.541156 216.636632 
L 103.515156 216.636632 
L 103.440592 215.424 
L 103.383923 215.424 
L 103.327255 214.211368 
L 102.363888 212.998737 
L 102.020894 211.786105 
L 101.155952 210.573474 
L 100.317852 209.360842 
L 100.088195 209.360842 
L 99.998719 208.148211 
L 99.270974 206.935579 
L 98.922015 205.722947 
L 98.632707 204.510316 
L 98.271817 203.297684 
L 97.666357 202.085053 
L 97.114584 200.872421 
L 96.601584 199.659789 
L 96.29438 198.447158 
L 96.255607 197.234526 
L 95.647165 196.021895 
L 95.447333 194.809263 
L 94.728537 193.596632 
L 94.185711 192.384 
L 93.210414 191.171368 
L 92.661623 189.958737 
L 91.942826 189.958737 
L 91.87721 188.746105 
L 91.116658 187.533474 
L 90.815419 186.320842 
L 90.585762 185.108211 
L 90.549971 183.895579 
L 90.511198 182.682947 
L 90.347157 181.470316 
L 90.198029 180.257684 
L 89.971355 179.045053 
L 89.852052 177.832421 
L 89.762576 176.619789 
L 89.619413 175.407158 
L 89.538884 174.194526 
L 89.264488 172.981895 
L 89.139221 171.769263 
L 88.942372 170.556632 
L 88.760436 169.344 
L 88.414459 168.131368 
L 88.223575 166.918737 
L 88.020761 165.706105 
L 87.850755 164.493474 
L 87.794087 163.280842 
L 87.686714 162.068211 
L 87.06336 160.855579 
L 86.994761 159.642947 
L 86.58615 158.430316 
L 85.44383 157.217684 
L 84.310458 156.005053 
L 84.003254 154.792421 
L 83.910795 153.579789 
L 83.815353 152.367158 
L 83.409725 151.154526 
L 83.230771 151.154526 
L 83.078661 149.941895 
L 83.060765 148.729263 
L 82.344951 147.516632 
L 82.240562 146.304 
L 82.15705 145.091368 
L 81.682823 143.878737 
L 81.491939 142.666105 
L 81.241404 141.453474 
L 80.817881 140.240842 
L 80.14084 139.028211 
L 80.081189 137.815579 
L 80.045398 136.602947 
L 79.833636 135.390316 
L 79.776968 134.177684 
L 79.263967 132.965053 
L 79.082031 131.752421 
L 78.915008 130.539789 
L 78.572014 129.327158 
L 78.160421 128.114526 
L 77.713037 128.114526 
L 77.63549 126.901895 
L 77.450572 125.689263 
L 77.399868 125.689263 
L 77.268635 125.689263 
L 77.047926 124.476632 
L 76.949502 123.264 
L 76.576682 123.264 
L 75.899641 123.264 
L 75.23453 122.051368 
L 74.658896 120.838737 
L 74.518716 119.626105 
L 74.330815 118.413474 
L 73.984838 117.200842 
L 73.832727 115.988211 
z
" clip-path="url(#p0ae3fba665)" style="fill: #008000"/>
   </g>
   <g id="PolyCollection_2">
    <path d="M 73.832727 61.419789 
L 73.832727 115.988211 
L 73.984838 117.200842 
L 74.330815 118.413474 
L 74.518716 119.626105 
L 74.658896 120.838737 
L 75.23453 122.051368 
L 75.899641 123.264 
L 76.576682 123.264 
L 76.949502 123.264 
L 77.047926 124.476632 
L 77.268635 125.689263 
L 77.399868 125.689263 
L 77.450572 125.689263 
L 77.63549 126.901895 
L 77.713037 128.114526 
L 78.160421 128.114526 
L 78.572014 129.327158 
L 78.915008 130.539789 
L 79.082031 131.752421 
L 79.263967 132.965053 
L 79.776968 134.177684 
L 79.833636 135.390316 
L 80.045398 136.602947 
L 80.081189 137.815579 
L 80.14084 139.028211 
L 80.817881 140.240842 
L 81.241404 141.453474 
L 81.491939 142.666105 
L 81.682823 143.878737 
L 82.15705 145.091368 
L 82.240562 146.304 
L 82.344951 147.516632 
L 83.060765 148.729263 
L 83.078661 149.941895 
L 83.230771 151.154526 
L 83.409725 151.154526 
L 83.815353 152.367158 
L 83.910795 153.579789 
L 84.003254 154.792421 
L 84.310458 156.005053 
L 85.44383 157.217684 
L 86.58615 158.430316 
L 86.994761 159.642947 
L 87.06336 160.855579 
L 87.686714 162.068211 
L 87.794087 163.280842 
L 87.850755 164.493474 
L 88.020761 165.706105 
L 88.223575 166.918737 
L 88.414459 168.131368 
L 88.760436 169.344 
L 88.942372 170.556632 
L 89.139221 171.769263 
L 89.264488 172.981895 
L 89.538884 174.194526 
L 89.619413 175.407158 
L 89.762576 176.619789 
L 89.852052 177.832421 
L 89.971355 179.045053 
L 90.198029 180.257684 
L 90.347157 181.470316 
L 90.511198 182.682947 
L 90.549971 183.895579 
L 90.585762 185.108211 
L 90.815419 186.320842 
L 91.116658 187.533474 
L 91.87721 188.746105 
L 91.942826 189.958737 
L 92.661623 189.958737 
L 93.210414 191.171368 
L 94.185711 192.384 
L 94.728537 193.596632 
L 95.447333 194.809263 
L 95.647165 196.021895 
L 96.255607 197.234526 
L 96.29438 198.447158 
L 96.601584 199.659789 
L 97.114584 200.872421 
L 97.666357 202.085053 
L 98.271817 203.297684 
L 98.632707 204.510316 
L 98.922015 205.722947 
L 99.270974 206.935579 
L 99.998719 208.148211 
L 100.088195 209.360842 
L 100.317852 209.360842 
L 101.155952 210.573474 
L 102.020894 211.786105 
L 102.363888 212.998737 
L 103.327255 214.211368 
L 103.383923 215.424 
L 103.440592 215.424 
L 103.515156 216.636632 
L 104.541156 216.636632 
L 104.851342 217.849263 
L 105.295744 219.061895 
L 105.689441 220.274526 
L 105.844535 221.487158 
L 105.847517 222.699789 
L 106.420168 222.699789 
L 106.790006 223.912421 
L 107.019663 225.125053 
L 107.106157 225.125053 
L 107.323884 225.125053 
L 107.807058 225.125053 
L 107.956186 226.337684 
L 108.060576 227.550316 
L 108.618315 228.762947 
L 109.286408 229.975579 
L 110.321356 231.188211 
L 110.786635 232.400842 
L 113.500764 233.613474 
L 113.816915 234.826105 
L 114.56852 236.038737 
L 114.68484 237.251368 
L 114.911514 238.464 
L 115.406619 239.676632 
L 116.149276 239.676632 
L 116.718945 240.889263 
L 116.826317 242.101895 
L 117.989515 243.314526 
L 119.516586 244.527158 
L 119.62694 245.739789 
L 121.213662 246.952421 
L 121.458232 248.165053 
L 122.552831 249.377684 
L 124.443773 250.590316 
L 124.879227 250.590316 
L 125.195378 251.802947 
L 125.475739 251.802947 
L 126.331733 251.802947 
L 126.659815 253.015579 
L 127.247379 254.228211 
L 127.372646 254.228211 
L 127.825995 255.440842 
L 127.891612 255.440842 
L 128.121269 256.653474 
L 128.631286 256.653474 
L 128.813223 257.866105 
L 128.866909 259.078737 
L 129.212885 259.078737 
L 130.877153 260.291368 
L 131.846485 261.504 
L 132.547387 262.716632 
L 133.131968 263.929263 
L 138.118807 263.929263 
L 138.208284 265.141895 
L 138.852517 266.354526 
L 139.305866 267.567158 
L 140.02168 268.779789 
L 140.692756 269.992421 
L 146.893496 271.205053 
L 147.642118 271.205053 
L 147.99406 272.417684 
L 148.760578 273.630316 
L 149.377968 274.842947 
L 153.613202 276.055579 
L 154.564638 276.055579 
L 156.336278 277.268211 
L 157.699308 278.480842 
L 158.098971 279.693474 
L 159.050407 280.906105 
L 159.488843 280.906105 
L 162.617548 282.118737 
L 162.763693 282.118737 
L 165.725375 283.331368 
L 167.63123 284.544 
L 167.699829 285.756632 
L 167.819131 286.969263 
L 168.704951 288.181895 
L 169.814463 288.181895 
L 171.493644 289.394526 
L 177.238053 290.607158 
L 179.245315 291.819789 
L 183.480549 293.032421 
L 184.569183 293.032421 
L 185.228329 293.032421 
L 185.270085 294.245053 
L 185.675713 294.245053 
L 189.135481 295.457684 
L 189.887086 295.457684 
L 191.658726 296.670316 
L 192.070319 297.882947 
L 193.636163 299.095579 
L 195.094634 300.308211 
L 198.745287 300.308211 
L 200.970276 300.308211 
L 223.628778 301.520842 
L 223.962824 302.733474 
L 229.238972 302.733474 
L 239.525818 303.946105 
L 244.312825 303.946105 
L 245.335843 303.946105 
L 245.54164 303.946105 
L 247.996286 303.946105 
L 251.041479 305.158737 
L 252.920491 306.371368 
L 253.179974 306.371368 
L 258.468051 307.584 
L 265.017751 307.584 
L 276.536394 307.584 
L 282.077989 307.584 
L 282.698362 307.584 
L 292.868888 307.584 
L 306.341108 307.584 
L 309.589115 307.584 
L 329.599104 307.584 
L 337.592363 307.584 
L 398.487273 307.584 
L 398.487273 306.371368 
L 398.487273 306.371368 
L 337.592363 305.158737 
L 329.599104 303.946105 
L 309.589115 302.733474 
L 306.341108 301.520842 
L 292.868888 300.308211 
L 282.698362 299.095579 
L 282.077989 297.882947 
L 276.536394 296.670316 
L 265.017751 295.457684 
L 258.468051 294.245053 
L 253.179974 293.032421 
L 252.920491 291.819789 
L 251.041479 290.607158 
L 247.996286 289.394526 
L 245.54164 288.181895 
L 245.335843 286.969263 
L 244.312825 285.756632 
L 239.525818 284.544 
L 229.238972 283.331368 
L 223.962824 282.118737 
L 223.628778 280.906105 
L 200.970276 279.693474 
L 198.745287 278.480842 
L 195.094634 277.268211 
L 193.636163 276.055579 
L 192.070319 274.842947 
L 191.658726 273.630316 
L 189.887086 272.417684 
L 189.135481 271.205053 
L 185.675713 269.992421 
L 185.270085 268.779789 
L 185.228329 267.567158 
L 184.569183 266.354526 
L 183.480549 265.141895 
L 179.245315 263.929263 
L 177.238053 262.716632 
L 171.493644 261.504 
L 169.814463 260.291368 
L 168.704951 259.078737 
L 167.819131 257.866105 
L 167.699829 256.653474 
L 167.63123 255.440842 
L 165.725375 254.228211 
L 162.763693 253.015579 
L 162.617548 251.802947 
L 159.488843 250.590316 
L 159.050407 249.377684 
L 158.098971 248.165053 
L 157.699308 246.952421 
L 156.336278 245.739789 
L 154.564638 244.527158 
L 153.613202 243.314526 
L 149.377968 242.101895 
L 148.760578 240.889263 
L 147.99406 239.676632 
L 147.642118 238.464 
L 146.893496 237.251368 
L 140.692756 236.038737 
L 140.02168 234.826105 
L 139.305866 233.613474 
L 138.852517 232.400842 
L 138.208284 231.188211 
L 138.118807 229.975579 
L 133.131968 228.762947 
L 132.547387 227.550316 
L 131.846485 226.337684 
L 130.877153 225.125053 
L 129.212885 223.912421 
L 128.866909 222.699789 
L 128.813223 221.487158 
L 128.631286 220.274526 
L 128.121269 219.061895 
L 127.891612 217.849263 
L 127.825995 216.636632 
L 127.372646 215.424 
L 127.247379 214.211368 
L 126.659815 212.998737 
L 126.331733 211.786105 
L 125.475739 210.573474 
L 125.195378 209.360842 
L 124.879227 208.148211 
L 124.443773 206.935579 
L 122.552831 205.722947 
L 121.458232 204.510316 
L 121.213662 203.297684 
L 119.62694 202.085053 
L 119.516586 200.872421 
L 117.989515 199.659789 
L 116.826317 198.447158 
L 116.718945 197.234526 
L 116.149276 196.021895 
L 115.406619 194.809263 
L 114.911514 193.596632 
L 114.68484 192.384 
L 114.56852 191.171368 
L 113.816915 189.958737 
L 113.500764 188.746105 
L 110.786635 187.533474 
L 110.321356 186.320842 
L 109.286408 185.108211 
L 108.618315 183.895579 
L 108.060576 182.682947 
L 107.956186 181.470316 
L 107.807058 180.257684 
L 107.323884 179.045053 
L 107.106157 177.832421 
L 107.019663 176.619789 
L 106.790006 175.407158 
L 106.420168 174.194526 
L 105.847517 174.194526 
L 105.844535 172.981895 
L 105.689441 171.769263 
L 105.295744 170.556632 
L 104.851342 169.344 
L 104.541156 168.131368 
L 103.515156 166.918737 
L 103.440592 165.706105 
L 103.383923 164.493474 
L 103.327255 163.280842 
L 102.363888 162.068211 
L 102.020894 160.855579 
L 101.155952 159.642947 
L 100.317852 158.430316 
L 100.088195 157.217684 
L 99.998719 156.005053 
L 99.270974 154.792421 
L 98.922015 153.579789 
L 98.632707 152.367158 
L 98.271817 151.154526 
L 97.666357 149.941895 
L 97.114584 148.729263 
L 96.601584 147.516632 
L 96.29438 146.304 
L 96.255607 145.091368 
L 95.647165 143.878737 
L 95.447333 142.666105 
L 94.728537 141.453474 
L 94.185711 140.240842 
L 93.210414 139.028211 
L 92.661623 137.815579 
L 91.942826 137.815579 
L 91.87721 136.602947 
L 91.116658 135.390316 
L 90.815419 134.177684 
L 90.585762 132.965053 
L 90.549971 131.752421 
L 90.511198 130.539789 
L 90.347157 129.327158 
L 90.198029 128.114526 
L 89.971355 126.901895 
L 89.852052 125.689263 
L 89.762576 124.476632 
L 89.619413 123.264 
L 89.538884 122.051368 
L 89.264488 120.838737 
L 89.139221 119.626105 
L 88.942372 118.413474 
L 88.760436 117.200842 
L 88.414459 115.988211 
L 88.223575 114.775579 
L 88.020761 113.562947 
L 87.850755 112.350316 
L 87.794087 111.137684 
L 87.686714 109.925053 
L 87.06336 108.712421 
L 86.994761 107.499789 
L 86.58615 106.287158 
L 85.44383 105.074526 
L 84.310458 103.861895 
L 84.003254 102.649263 
L 83.910795 101.436632 
L 83.815353 100.224 
L 83.409725 99.011368 
L 83.230771 99.011368 
L 83.078661 97.798737 
L 83.060765 96.586105 
L 82.344951 95.373474 
L 82.240562 94.160842 
L 82.15705 92.948211 
L 81.682823 91.735579 
L 81.491939 90.522947 
L 81.241404 89.310316 
L 80.817881 88.097684 
L 80.14084 86.885053 
L 80.081189 85.672421 
L 80.045398 84.459789 
L 79.833636 83.247158 
L 79.776968 82.034526 
L 79.263967 80.821895 
L 79.082031 79.609263 
L 78.915008 78.396632 
L 78.572014 77.184 
L 78.160421 75.971368 
L 77.713037 74.758737 
L 77.63549 73.546105 
L 77.450572 72.333474 
L 77.399868 71.120842 
L 77.268635 71.120842 
L 77.047926 69.908211 
L 76.949502 68.695579 
L 76.576682 68.695579 
L 75.899641 68.695579 
L 75.23453 67.482947 
L 74.658896 66.270316 
L 74.518716 65.057684 
L 74.330815 63.845053 
L 73.984838 62.632421 
L 73.832727 61.419789 
z
" clip-path="url(#p0ae3fba665)" style="fill: #7cfc00"/>
   </g>
   <g id="PolyCollection_3">
    <path d="M 73.832727 54.144 
L 73.832727 61.419789 
L 73.984838 62.632421 
L 74.330815 63.845053 
L 74.518716 65.057684 
L 74.658896 66.270316 
L 75.23453 67.482947 
L 75.899641 68.695579 
L 76.576682 68.695579 
L 76.949502 68.695579 
L 77.047926 69.908211 
L 77.268635 71.120842 
L 77.399868 71.120842 
L 77.450572 72.333474 
L 77.63549 73.546105 
L 77.713037 74.758737 
L 78.160421 75.971368 
L 78.572014 77.184 
L 78.915008 78.396632 
L 79.082031 79.609263 
L 79.263967 80.821895 
L 79.776968 82.034526 
L 79.833636 83.247158 
L 80.045398 84.459789 
L 80.081189 85.672421 
L 80.14084 86.885053 
L 80.817881 88.097684 
L 81.241404 89.310316 
L 81.491939 90.522947 
L 81.682823 91.735579 
L 82.15705 92.948211 
L 82.240562 94.160842 
L 82.344951 95.373474 
L 83.060765 96.586105 
L 83.078661 97.798737 
L 83.230771 99.011368 
L 83.409725 99.011368 
L 83.815353 100.224 
L 83.910795 101.436632 
L 84.003254 102.649263 
L 84.310458 103.861895 
L 85.44383 105.074526 
L 86.58615 106.287158 
L 86.994761 107.499789 
L 87.06336 108.712421 
L 87.686714 109.925053 
L 87.794087 111.137684 
L 87.850755 112.350316 
L 88.020761 113.562947 
L 88.223575 114.775579 
L 88.414459 115.988211 
L 88.760436 117.200842 
L 88.942372 118.413474 
L 89.139221 119.626105 
L 89.264488 120.838737 
L 89.538884 122.051368 
L 89.619413 123.264 
L 89.762576 124.476632 
L 89.852052 125.689263 
L 89.971355 126.901895 
L 90.198029 128.114526 
L 90.347157 129.327158 
L 90.511198 130.539789 
L 90.549971 131.752421 
L 90.585762 132.965053 
L 90.815419 134.177684 
L 91.116658 135.390316 
L 91.87721 136.602947 
L 91.942826 137.815579 
L 92.661623 137.815579 
L 93.210414 139.028211 
L 94.185711 140.240842 
L 94.728537 141.453474 
L 95.447333 142.666105 
L 95.647165 143.878737 
L 96.255607 145.091368 
L 96.29438 146.304 
L 96.601584 147.516632 
L 97.114584 148.729263 
L 97.666357 149.941895 
L 98.271817 151.154526 
L 98.632707 152.367158 
L 98.922015 153.579789 
L 99.270974 154.792421 
L 99.998719 156.005053 
L 100.088195 157.217684 
L 100.317852 158.430316 
L 101.155952 159.642947 
L 102.020894 160.855579 
L 102.363888 162.068211 
L 103.327255 163.280842 
L 103.383923 164.493474 
L 103.440592 165.706105 
L 103.515156 166.918737 
L 104.541156 168.131368 
L 104.851342 169.344 
L 105.295744 170.556632 
L 105.689441 171.769263 
L 105.844535 172.981895 
L 105.847517 174.194526 
L 106.420168 174.194526 
L 106.790006 175.407158 
L 107.019663 176.619789 
L 107.106157 177.832421 
L 107.323884 179.045053 
L 107.807058 180.257684 
L 107.956186 181.470316 
L 108.060576 182.682947 
L 108.618315 183.895579 
L 109.286408 185.108211 
L 110.321356 186.320842 
L 110.786635 187.533474 
L 113.500764 188.746105 
L 113.816915 189.958737 
L 114.56852 191.171368 
L 114.68484 192.384 
L 114.911514 193.596632 
L 115.406619 194.809263 
L 116.149276 196.021895 
L 116.718945 197.234526 
L 116.826317 198.447158 
L 117.989515 199.659789 
L 119.516586 200.872421 
L 119.62694 202.085053 
L 121.213662 203.297684 
L 121.458232 204.510316 
L 122.552831 205.722947 
L 124.443773 206.935579 
L 124.879227 208.148211 
L 125.195378 209.360842 
L 125.475739 210.573474 
L 126.331733 211.786105 
L 126.659815 212.998737 
L 127.247379 214.211368 
L 127.372646 215.424 
L 127.825995 216.636632 
L 127.891612 217.849263 
L 128.121269 219.061895 
L 128.631286 220.274526 
L 128.813223 221.487158 
L 128.866909 222.699789 
L 129.212885 223.912421 
L 130.877153 225.125053 
L 131.846485 226.337684 
L 132.547387 227.550316 
L 133.131968 228.762947 
L 138.118807 229.975579 
L 138.208284 231.188211 
L 138.852517 232.400842 
L 139.305866 233.613474 
L 140.02168 234.826105 
L 140.692756 236.038737 
L 146.893496 237.251368 
L 147.642118 238.464 
L 147.99406 239.676632 
L 148.760578 240.889263 
L 149.377968 242.101895 
L 153.613202 243.314526 
L 154.564638 244.527158 
L 156.336278 245.739789 
L 157.699308 246.952421 
L 158.098971 248.165053 
L 159.050407 249.377684 
L 159.488843 250.590316 
L 162.617548 251.802947 
L 162.763693 253.015579 
L 165.725375 254.228211 
L 167.63123 255.440842 
L 167.699829 256.653474 
L 167.819131 257.866105 
L 168.704951 259.078737 
L 169.814463 260.291368 
L 171.493644 261.504 
L 177.238053 262.716632 
L 179.245315 263.929263 
L 183.480549 265.141895 
L 184.569183 266.354526 
L 185.228329 267.567158 
L 185.270085 268.779789 
L 185.675713 269.992421 
L 189.135481 271.205053 
L 189.887086 272.417684 
L 191.658726 273.630316 
L 192.070319 274.842947 
L 193.636163 276.055579 
L 195.094634 277.268211 
L 198.745287 278.480842 
L 200.970276 279.693474 
L 223.628778 280.906105 
L 223.962824 282.118737 
L 229.238972 283.331368 
L 239.525818 284.544 
L 244.312825 285.756632 
L 245.335843 286.969263 
L 245.54164 288.181895 
L 247.996286 289.394526 
L 251.041479 290.607158 
L 252.920491 291.819789 
L 253.179974 293.032421 
L 258.468051 294.245053 
L 265.017751 295.457684 
L 276.536394 296.670316 
L 282.077989 297.882947 
L 282.698362 299.095579 
L 292.868888 300.308211 
L 306.341108 301.520842 
L 309.589115 302.733474 
L 329.599104 303.946105 
L 337.592363 305.158737 
L 398.487273 306.371368 
L 398.487273 306.371368 
L 398.487273 306.371368 
L 337.592363 305.158737 
L 329.599104 303.946105 
L 309.589115 302.733474 
L 306.341108 301.520842 
L 292.868888 300.308211 
L 282.698362 299.095579 
L 282.077989 297.882947 
L 276.536394 296.670316 
L 265.017751 295.457684 
L 258.468051 294.245053 
L 253.179974 293.032421 
L 252.920491 291.819789 
L 251.041479 290.607158 
L 247.996286 289.394526 
L 245.54164 288.181895 
L 245.335843 286.969263 
L 244.312825 285.756632 
L 239.525818 284.544 
L 229.238972 283.331368 
L 223.962824 282.118737 
L 223.628778 280.906105 
L 200.970276 279.693474 
L 198.745287 278.480842 
L 195.094634 277.268211 
L 193.636163 276.055579 
L 192.070319 274.842947 
L 191.658726 273.630316 
L 189.887086 272.417684 
L 189.135481 271.205053 
L 185.675713 269.992421 
L 185.270085 268.779789 
L 185.228329 267.567158 
L 184.569183 266.354526 
L 183.480549 265.141895 
L 179.245315 263.929263 
L 177.238053 262.716632 
L 171.493644 261.504 
L 169.814463 260.291368 
L 168.704951 259.078737 
L 167.819131 257.866105 
L 167.699829 256.653474 
L 167.63123 255.440842 
L 165.725375 254.228211 
L 162.763693 253.015579 
L 162.617548 251.802947 
L 159.488843 250.590316 
L 159.050407 249.377684 
L 158.098971 248.165053 
L 157.699308 246.952421 
L 156.336278 245.739789 
L 154.564638 244.527158 
L 153.613202 243.314526 
L 149.377968 242.101895 
L 148.760578 240.889263 
L 147.99406 239.676632 
L 147.642118 238.464 
L 146.893496 237.251368 
L 140.692756 236.038737 
L 140.02168 234.826105 
L 139.305866 233.613474 
L 138.852517 232.400842 
L 138.208284 231.188211 
L 138.118807 229.975579 
L 133.131968 228.762947 
L 132.547387 227.550316 
L 131.846485 226.337684 
L 130.877153 225.125053 
L 129.212885 223.912421 
L 128.866909 222.699789 
L 128.813223 221.487158 
L 128.631286 220.274526 
L 128.121269 219.061895 
L 127.891612 217.849263 
L 127.825995 216.636632 
L 127.372646 215.424 
L 127.247379 214.211368 
L 126.659815 212.998737 
L 126.331733 211.786105 
L 125.475739 210.573474 
L 125.195378 209.360842 
L 124.879227 208.148211 
L 124.443773 206.935579 
L 122.552831 205.722947 
L 121.458232 204.510316 
L 121.213662 203.297684 
L 119.62694 202.085053 
L 119.516586 200.872421 
L 117.989515 199.659789 
L 116.826317 198.447158 
L 116.718945 197.234526 
L 116.149276 196.021895 
L 115.406619 194.809263 
L 114.911514 193.596632 
L 114.68484 192.384 
L 114.56852 191.171368 
L 113.816915 189.958737 
L 113.500764 188.746105 
L 110.786635 187.533474 
L 110.321356 186.320842 
L 109.286408 185.108211 
L 108.618315 183.895579 
L 108.060576 182.682947 
L 107.956186 181.470316 
L 107.807058 180.257684 
L 107.323884 179.045053 
L 107.106157 177.832421 
L 107.019663 176.619789 
L 106.790006 175.407158 
L 106.420168 174.194526 
L 105.847517 172.981895 
L 105.844535 171.769263 
L 105.689441 170.556632 
L 105.295744 169.344 
L 104.851342 168.131368 
L 104.541156 166.918737 
L 103.515156 165.706105 
L 103.440592 164.493474 
L 103.383923 163.280842 
L 103.327255 162.068211 
L 102.363888 160.855579 
L 102.020894 159.642947 
L 101.155952 158.430316 
L 100.317852 157.217684 
L 100.088195 156.005053 
L 99.998719 154.792421 
L 99.270974 153.579789 
L 98.922015 152.367158 
L 98.632707 151.154526 
L 98.271817 149.941895 
L 97.666357 148.729263 
L 97.114584 147.516632 
L 96.601584 146.304 
L 96.29438 145.091368 
L 96.255607 143.878737 
L 95.647165 142.666105 
L 95.447333 141.453474 
L 94.728537 140.240842 
L 94.185711 139.028211 
L 93.210414 137.815579 
L 92.661623 136.602947 
L 91.942826 135.390316 
L 91.87721 134.177684 
L 91.116658 132.965053 
L 90.815419 131.752421 
L 90.585762 130.539789 
L 90.549971 129.327158 
L 90.511198 128.114526 
L 90.347157 126.901895 
L 90.198029 125.689263 
L 89.971355 124.476632 
L 89.852052 123.264 
L 89.762576 122.051368 
L 89.619413 120.838737 
L 89.538884 119.626105 
L 89.264488 118.413474 
L 89.139221 117.200842 
L 88.942372 115.988211 
L 88.760436 114.775579 
L 88.414459 113.562947 
L 88.223575 112.350316 
L 88.020761 111.137684 
L 87.850755 109.925053 
L 87.794087 108.712421 
L 87.686714 107.499789 
L 87.06336 106.287158 
L 86.994761 105.074526 
L 86.58615 103.861895 
L 85.44383 102.649263 
L 84.310458 101.436632 
L 84.003254 100.224 
L 83.910795 99.011368 
L 83.815353 97.798737 
L 83.409725 96.586105 
L 83.230771 95.373474 
L 83.078661 94.160842 
L 83.060765 92.948211 
L 82.344951 91.735579 
L 82.240562 90.522947 
L 82.15705 89.310316 
L 81.682823 88.097684 
L 81.491939 86.885053 
L 81.241404 85.672421 
L 80.817881 84.459789 
L 80.14084 83.247158 
L 80.081189 82.034526 
L 80.045398 80.821895 
L 79.833636 79.609263 
L 79.776968 78.396632 
L 79.263967 77.184 
L 79.082031 75.971368 
L 78.915008 74.758737 
L 78.572014 73.546105 
L 78.160421 72.333474 
L 77.713037 71.120842 
L 77.63549 69.908211 
L 77.450572 68.695579 
L 77.399868 67.482947 
L 77.268635 66.270316 
L 77.047926 65.057684 
L 76.949502 63.845053 
L 76.576682 62.632421 
L 75.899641 61.419789 
L 75.23453 60.207158 
L 74.658896 58.994526 
L 74.518716 57.781895 
L 74.330815 56.569263 
L 73.984838 55.356632 
L 73.832727 54.144 
z
" clip-path="url(#p0ae3fba665)" style="fill: #ff0000"/>
   </g>
   <g id="matplotlib.axis_1">
    <g id="xtick_1">
     <g id="line2d_1">
      <defs>
       <path id="mff45237217" d="M 0 0 
L 0 3.5 
" style="stroke: #000000; stroke-width: 0.8"/>
      </defs>
      <g>
       <use xlink:href="#mff45237217" x="114.625189" y="307.584" style="stroke: #000000; stroke-width: 0.8"/>
      </g>
     </g>
     <g id="text_1">
      <!-- 200 -->
      <g transform="translate(105.081439 322.182437)scale(0.1 -0.1)">
       <defs>
        <path id="DejaVuSans-32" d="M 1228 531 
L 3431 531 
L 3431 0 
L 469 0 
L 469 531 
Q 828 903 1448 1529 
Q 2069 2156 2228 2338 
Q 2531 2678 2651 2914 
Q 2772 3150 2772 3378 
Q 2772 3750 2511 3984 
Q 2250 4219 1831 4219 
Q 1534 4219 1204 4116 
Q 875 4013 500 3803 
L 500 4441 
Q 881 4594 1212 4672 
Q 1544 4750 1819 4750 
Q 2544 4750 2975 4387 
Q 3406 4025 3406 3419 
Q 3406 3131 3298 2873 
Q 3191 2616 2906 2266 
Q 2828 2175 2409 1742 
Q 1991 1309 1228 531 
z
" transform="scale(0.015625)"/>
        <path id="DejaVuSans-30" d="M 2034 4250 
Q 1547 4250 1301 3770 
Q 1056 3291 1056 2328 
Q 1056 1369 1301 889 
Q 1547 409 2034 409 
Q 2525 409 2770 889 
Q 3016 1369 3016 2328 
Q 3016 3291 2770 3770 
Q 2525 4250 2034 4250 
z
M 2034 4750 
Q 2819 4750 3233 4129 
Q 3647 3509 3647 2328 
Q 3647 1150 3233 529 
Q 2819 -91 2034 -91 
Q 1250 -91 836 529 
Q 422 1150 422 2328 
Q 422 3509 836 4129 
Q 1250 4750 2034 4750 
z
" transform="scale(0.015625)"/>
       </defs>
       <use xlink:href="#DejaVuSans-32"/>
       <use xlink:href="#DejaVuSans-30" x="63.623047"/>
       <use xlink:href="#DejaVuSans-30" x="127.246094"/>
      </g>
     </g>
    </g>
    <g id="xtick_2">
     <g id="line2d_2">
      <g>
       <use xlink:href="#mff45237217" x="174.276372" y="307.584" style="stroke: #000000; stroke-width: 0.8"/>
      </g>
     </g>
     <g id="text_2">
      <!-- 400 -->
      <g transform="translate(164.732622 322.182437)scale(0.1 -0.1)">
       <defs>
        <path id="DejaVuSans-34" d="M 2419 4116 
L 825 1625 
L 2419 1625 
L 2419 4116 
z
M 2253 4666 
L 3047 4666 
L 3047 1625 
L 3713 1625 
L 3713 1100 
L 3047 1100 
L 3047 0 
L 2419 0 
L 2419 1100 
L 313 1100 
L 313 1709 
L 2253 4666 
z
" transform="scale(0.015625)"/>
       </defs>
       <use xlink:href="#DejaVuSans-34"/>
       <use xlink:href="#DejaVuSans-30" x="63.623047"/>
       <use xlink:href="#DejaVuSans-30" x="127.246094"/>
      </g>
     </g>
    </g>
    <g id="xtick_3">
     <g id="line2d_3">
      <g>
       <use xlink:href="#mff45237217" x="233.927554" y="307.584" style="stroke: #000000; stroke-width: 0.8"/>
      </g>
     </g>
     <g id="text_3">
      <!-- 600 -->
      <g transform="translate(224.383804 322.182437)scale(0.1 -0.1)">
       <defs>
        <path id="DejaVuSans-36" d="M 2113 2584 
Q 1688 2584 1439 2293 
Q 1191 2003 1191 1497 
Q 1191 994 1439 701 
Q 1688 409 2113 409 
Q 2538 409 2786 701 
Q 3034 994 3034 1497 
Q 3034 2003 2786 2293 
Q 2538 2584 2113 2584 
z
M 3366 4563 
L 3366 3988 
Q 3128 4100 2886 4159 
Q 2644 4219 2406 4219 
Q 1781 4219 1451 3797 
Q 1122 3375 1075 2522 
Q 1259 2794 1537 2939 
Q 1816 3084 2150 3084 
Q 2853 3084 3261 2657 
Q 3669 2231 3669 1497 
Q 3669 778 3244 343 
Q 2819 -91 2113 -91 
Q 1303 -91 875 529 
Q 447 1150 447 2328 
Q 447 3434 972 4092 
Q 1497 4750 2381 4750 
Q 2619 4750 2861 4703 
Q 3103 4656 3366 4563 
z
" transform="scale(0.015625)"/>
       </defs>
       <use xlink:href="#DejaVuSans-36"/>
       <use xlink:href="#DejaVuSans-30" x="63.623047"/>
       <use xlink:href="#DejaVuSans-30" x="127.246094"/>
      </g>
     </g>
    </g>
    <g id="xtick_4">
     <g id="line2d_4">
      <g>
       <use xlink:href="#mff45237217" x="293.578737" y="307.584" style="stroke: #000000; stroke-width: 0.8"/>
      </g>
     </g>
     <g id="text_4">
      <!-- 800 -->
      <g transform="translate(284.034987 322.182437)scale(0.1 -0.1)">
       <defs>
        <path id="DejaVuSans-38" d="M 2034 2216 
Q 1584 2216 1326 1975 
Q 1069 1734 1069 1313 
Q 1069 891 1326 650 
Q 1584 409 2034 409 
Q 2484 409 2743 651 
Q 3003 894 3003 1313 
Q 3003 1734 2745 1975 
Q 2488 2216 2034 2216 
z
M 1403 2484 
Q 997 2584 770 2862 
Q 544 3141 544 3541 
Q 544 4100 942 4425 
Q 1341 4750 2034 4750 
Q 2731 4750 3128 4425 
Q 3525 4100 3525 3541 
Q 3525 3141 3298 2862 
Q 3072 2584 2669 2484 
Q 3125 2378 3379 2068 
Q 3634 1759 3634 1313 
Q 3634 634 3220 271 
Q 2806 -91 2034 -91 
Q 1263 -91 848 271 
Q 434 634 434 1313 
Q 434 1759 690 2068 
Q 947 2378 1403 2484 
z
M 1172 3481 
Q 1172 3119 1398 2916 
Q 1625 2713 2034 2713 
Q 2441 2713 2670 2916 
Q 2900 3119 2900 3481 
Q 2900 3844 2670 4047 
Q 2441 4250 2034 4250 
Q 1625 4250 1398 4047 
Q 1172 3844 1172 3481 
z
" transform="scale(0.015625)"/>
       </defs>
       <use xlink:href="#DejaVuSans-38"/>
       <use xlink:href="#DejaVuSans-30" x="63.623047"/>
       <use xlink:href="#DejaVuSans-30" x="127.246094"/>
      </g>
     </g>
    </g>
    <g id="xtick_5">
     <g id="line2d_5">
      <g>
       <use xlink:href="#mff45237217" x="353.22992" y="307.584" style="stroke: #000000; stroke-width: 0.8"/>
      </g>
     </g>
     <g id="text_5">
      <!-- 1000 -->
      <g transform="translate(340.50492 322.182437)scale(0.1 -0.1)">
       <defs>
        <path id="DejaVuSans-31" d="M 794 531 
L 1825 531 
L 1825 4091 
L 703 3866 
L 703 4441 
L 1819 4666 
L 2450 4666 
L 2450 531 
L 3481 531 
L 3481 0 
L 794 0 
L 794 531 
z
" transform="scale(0.015625)"/>
       </defs>
       <use xlink:href="#DejaVuSans-31"/>
       <use xlink:href="#DejaVuSans-30" x="63.623047"/>
       <use xlink:href="#DejaVuSans-30" x="127.246094"/>
       <use xlink:href="#DejaVuSans-30" x="190.869141"/>
      </g>
     </g>
    </g>
    <g id="xtick_6">
     <g id="line2d_6">
      <g>
       <use xlink:href="#mff45237217" x="412.881103" y="307.584" style="stroke: #000000; stroke-width: 0.8"/>
      </g>
     </g>
     <g id="text_6">
      <!-- 1200 -->
      <g transform="translate(400.156103 322.182437)scale(0.1 -0.1)">
       <use xlink:href="#DejaVuSans-31"/>
       <use xlink:href="#DejaVuSans-32" x="63.623047"/>
       <use xlink:href="#DejaVuSans-30" x="127.246094"/>
       <use xlink:href="#DejaVuSans-30" x="190.869141"/>
      </g>
     </g>
    </g>
    <g id="text_7">
     <!-- Score -->
     <g transform="translate(222.157656 335.860562)scale(0.1 -0.1)">
      <defs>
       <path id="DejaVuSans-53" d="M 3425 4513 
L 3425 3897 
Q 3066 4069 2747 4153 
Q 2428 4238 2131 4238 
Q 1616 4238 1336 4038 
Q 1056 3838 1056 3469 
Q 1056 3159 1242 3001 
Q 1428 2844 1947 2747 
L 2328 2669 
Q 3034 2534 3370 2195 
Q 3706 1856 3706 1288 
Q 3706 609 3251 259 
Q 2797 -91 1919 -91 
Q 1588 -91 1214 -16 
Q 841 59 441 206 
L 441 856 
Q 825 641 1194 531 
Q 1563 422 1919 422 
Q 2459 422 2753 634 
Q 3047 847 3047 1241 
Q 3047 1584 2836 1778 
Q 2625 1972 2144 2069 
L 1759 2144 
Q 1053 2284 737 2584 
Q 422 2884 422 3419 
Q 422 4038 858 4394 
Q 1294 4750 2059 4750 
Q 2388 4750 2728 4690 
Q 3069 4631 3425 4513 
z
" transform="scale(0.015625)"/>
       <path id="DejaVuSans-63" d="M 3122 3366 
L 3122 2828 
Q 2878 2963 2633 3030 
Q 2388 3097 2138 3097 
Q 1578 3097 1268 2742 
Q 959 2388 959 1747 
Q 959 1106 1268 751 
Q 1578 397 2138 397 
Q 2388 397 2633 464 
Q 2878 531 3122 666 
L 3122 134 
Q 2881 22 2623 -34 
Q 2366 -91 2075 -91 
Q 1284 -91 818 406 
Q 353 903 353 1747 
Q 353 2603 823 3093 
Q 1294 3584 2113 3584 
Q 2378 3584 2631 3529 
Q 2884 3475 3122 3366 
z
" transform="scale(0.015625)"/>
       <path id="DejaVuSans-6f" d="M 1959 3097 
Q 1497 3097 1228 2736 
Q 959 2375 959 1747 
Q 959 1119 1226 758 
Q 1494 397 1959 397 
Q 2419 397 2687 759 
Q 2956 1122 2956 1747 
Q 2956 2369 2687 2733 
Q 2419 3097 1959 3097 
z
M 1959 3584 
Q 2709 3584 3137 3096 
Q 3566 2609 3566 1747 
Q 3566 888 3137 398 
Q 2709 -91 1959 -91 
Q 1206 -91 779 398 
Q 353 888 353 1747 
Q 353 2609 779 3096 
Q 1206 3584 1959 3584 
z
" transform="scale(0.015625)"/>
       <path id="DejaVuSans-72" d="M 2631 2963 
Q 2534 3019 2420 3045 
Q 2306 3072 2169 3072 
Q 1681 3072 1420 2755 
Q 1159 2438 1159 1844 
L 1159 0 
L 581 0 
L 581 3500 
L 1159 3500 
L 1159 2956 
Q 1341 3275 1631 3429 
Q 1922 3584 2338 3584 
Q 2397 3584 2469 3576 
Q 2541 3569 2628 3553 
L 2631 2963 
z
" transform="scale(0.015625)"/>
       <path id="DejaVuSans-65" d="M 3597 1894 
L 3597 1613 
L 953 1613 
Q 991 1019 1311 708 
Q 1631 397 2203 397 
Q 2534 397 2845 478 
Q 3156 559 3463 722 
L 3463 178 
Q 3153 47 2828 -22 
Q 2503 -91 2169 -91 
Q 1331 -91 842 396 
Q 353 884 353 1716 
Q 353 2575 817 3079 
Q 1281 3584 2069 3584 
Q 2775 3584 3186 3129 
Q 3597 2675 3597 1894 
z
M 3022 2063 
Q 3016 2534 2758 2815 
Q 2500 3097 2075 3097 
Q 1594 3097 1305 2825 
Q 1016 2553 972 2059 
L 3022 2063 
z
" transform="scale(0.015625)"/>
      </defs>
      <use xlink:href="#DejaVuSans-53"/>
      <use xlink:href="#DejaVuSans-63" x="63.476562"/>
      <use xlink:href="#DejaVuSans-6f" x="118.457031"/>
      <use xlink:href="#DejaVuSans-72" x="179.638672"/>
      <use xlink:href="#DejaVuSans-65" x="218.501953"/>
     </g>
    </g>
   </g>
   <g id="matplotlib.axis_2">
    <g id="ytick_1">
     <g id="line2d_7">
      <defs>
       <path id="m2be4bb9069" d="M 0 0 
L -3.5 0 
" style="stroke: #000000; stroke-width: 0.8"/>
      </defs>
      <g>
       <use xlink:href="#m2be4bb9069" x="57.6" y="307.584" style="stroke: #000000; stroke-width: 0.8"/>
      </g>
     </g>
     <g id="text_8">
      <!-- 0 -->
      <g transform="translate(44.2375 311.383219)scale(0.1 -0.1)">
       <use xlink:href="#DejaVuSans-30"/>
      </g>
     </g>
    </g>
    <g id="ytick_2">
     <g id="line2d_8">
      <g>
       <use xlink:href="#m2be4bb9069" x="57.6" y="277.268211" style="stroke: #000000; stroke-width: 0.8"/>
      </g>
     </g>
     <g id="text_9">
      <!-- 25 -->
      <g transform="translate(37.875 281.067429)scale(0.1 -0.1)">
       <defs>
        <path id="DejaVuSans-35" d="M 691 4666 
L 3169 4666 
L 3169 4134 
L 1269 4134 
L 1269 2991 
Q 1406 3038 1543 3061 
Q 1681 3084 1819 3084 
Q 2600 3084 3056 2656 
Q 3513 2228 3513 1497 
Q 3513 744 3044 326 
Q 2575 -91 1722 -91 
Q 1428 -91 1123 -41 
Q 819 9 494 109 
L 494 744 
Q 775 591 1075 516 
Q 1375 441 1709 441 
Q 2250 441 2565 725 
Q 2881 1009 2881 1497 
Q 2881 1984 2565 2268 
Q 2250 2553 1709 2553 
Q 1456 2553 1204 2497 
Q 953 2441 691 2322 
L 691 4666 
z
" transform="scale(0.015625)"/>
       </defs>
       <use xlink:href="#DejaVuSans-32"/>
       <use xlink:href="#DejaVuSans-35" x="63.623047"/>
      </g>
     </g>
    </g>
    <g id="ytick_3">
     <g id="line2d_9">
      <g>
       <use xlink:href="#m2be4bb9069" x="57.6" y="246.952421" style="stroke: #000000; stroke-width: 0.8"/>
      </g>
     </g>
     <g id="text_10">
      <!-- 50 -->
      <g transform="translate(37.875 250.75164)scale(0.1 -0.1)">
       <use xlink:href="#DejaVuSans-35"/>
       <use xlink:href="#DejaVuSans-30" x="63.623047"/>
      </g>
     </g>
    </g>
    <g id="ytick_4">
     <g id="line2d_10">
      <g>
       <use xlink:href="#m2be4bb9069" x="57.6" y="216.636632" style="stroke: #000000; stroke-width: 0.8"/>
      </g>
     </g>
     <g id="text_11">
      <!-- 75 -->
      <g transform="translate(37.875 220.43585)scale(0.1 -0.1)">
       <defs>
        <path id="DejaVuSans-37" d="M 525 4666 
L 3525 4666 
L 3525 4397 
L 1831 0 
L 1172 0 
L 2766 4134 
L 525 4134 
L 525 4666 
z
" transform="scale(0.015625)"/>
       </defs>
       <use xlink:href="#DejaVuSans-37"/>
       <use xlink:href="#DejaVuSans-35" x="63.623047"/>
      </g>
     </g>
    </g>
    <g id="ytick_5">
     <g id="line2d_11">
      <g>
       <use xlink:href="#m2be4bb9069" x="57.6" y="186.320842" style="stroke: #000000; stroke-width: 0.8"/>
      </g>
     </g>
     <g id="text_12">
      <!-- 100 -->
      <g transform="translate(31.5125 190.120061)scale(0.1 -0.1)">
       <use xlink:href="#DejaVuSans-31"/>
       <use xlink:href="#DejaVuSans-30" x="63.623047"/>
       <use xlink:href="#DejaVuSans-30" x="127.246094"/>
      </g>
     </g>
    </g>
    <g id="ytick_6">
     <g id="line2d_12">
      <g>
       <use xlink:href="#m2be4bb9069" x="57.6" y="156.005053" style="stroke: #000000; stroke-width: 0.8"/>
      </g>
     </g>
     <g id="text_13">
      <!-- 125 -->
      <g transform="translate(31.5125 159.804271)scale(0.1 -0.1)">
       <use xlink:href="#DejaVuSans-31"/>
       <use xlink:href="#DejaVuSans-32" x="63.623047"/>
       <use xlink:href="#DejaVuSans-35" x="127.246094"/>
      </g>
     </g>
    </g>
    <g id="ytick_7">
     <g id="line2d_13">
      <g>
       <use xlink:href="#m2be4bb9069" x="57.6" y="125.689263" style="stroke: #000000; stroke-width: 0.8"/>
      </g>
     </g>
     <g id="text_14">
      <!-- 150 -->
      <g transform="translate(31.5125 129.488482)scale(0.1 -0.1)">
       <use xlink:href="#DejaVuSans-31"/>
       <use xlink:href="#DejaVuSans-35" x="63.623047"/>
       <use xlink:href="#DejaVuSans-30" x="127.246094"/>
      </g>
     </g>
    </g>
    <g id="ytick_8">
     <g id="line2d_14">
      <g>
       <use xlink:href="#m2be4bb9069" x="57.6" y="95.373474" style="stroke: #000000; stroke-width: 0.8"/>
      </g>
     </g>
     <g id="text_15">
      <!-- 175 -->
      <g transform="translate(31.5125 99.172692)scale(0.1 -0.1)">
       <use xlink:href="#DejaVuSans-31"/>
       <use xlink:href="#DejaVuSans-37" x="63.623047"/>
       <use xlink:href="#DejaVuSans-35" x="127.246094"/>
      </g>
     </g>
    </g>
    <g id="ytick_9">
     <g id="line2d_15">
      <g>
       <use xlink:href="#m2be4bb9069" x="57.6" y="65.057684" style="stroke: #000000; stroke-width: 0.8"/>
      </g>
     </g>
     <g id="text_16">
      <!-- 200 -->
      <g transform="translate(31.5125 68.856903)scale(0.1 -0.1)">
       <use xlink:href="#DejaVuSans-32"/>
       <use xlink:href="#DejaVuSans-30" x="63.623047"/>
       <use xlink:href="#DejaVuSans-30" x="127.246094"/>
      </g>
     </g>
    </g>
    <g id="text_17">
     <!-- Number of crosslinks -->
     <g transform="translate(25.432812 227.019406)rotate(-90)scale(0.1 -0.1)">
      <defs>
       <path id="DejaVuSans-4e" d="M 628 4666 
L 1478 4666 
L 3547 763 
L 3547 4666 
L 4159 4666 
L 4159 0 
L 3309 0 
L 1241 3903 
L 1241 0 
L 628 0 
L 628 4666 
z
" transform="scale(0.015625)"/>
       <path id="DejaVuSans-75" d="M 544 1381 
L 544 3500 
L 1119 3500 
L 1119 1403 
Q 1119 906 1312 657 
Q 1506 409 1894 409 
Q 2359 409 2629 706 
Q 2900 1003 2900 1516 
L 2900 3500 
L 3475 3500 
L 3475 0 
L 2900 0 
L 2900 538 
Q 2691 219 2414 64 
Q 2138 -91 1772 -91 
Q 1169 -91 856 284 
Q 544 659 544 1381 
z
M 1991 3584 
L 1991 3584 
z
" transform="scale(0.015625)"/>
       <path id="DejaVuSans-6d" d="M 3328 2828 
Q 3544 3216 3844 3400 
Q 4144 3584 4550 3584 
Q 5097 3584 5394 3201 
Q 5691 2819 5691 2113 
L 5691 0 
L 5113 0 
L 5113 2094 
Q 5113 2597 4934 2840 
Q 4756 3084 4391 3084 
Q 3944 3084 3684 2787 
Q 3425 2491 3425 1978 
L 3425 0 
L 2847 0 
L 2847 2094 
Q 2847 2600 2669 2842 
Q 2491 3084 2119 3084 
Q 1678 3084 1418 2786 
Q 1159 2488 1159 1978 
L 1159 0 
L 581 0 
L 581 3500 
L 1159 3500 
L 1159 2956 
Q 1356 3278 1631 3431 
Q 1906 3584 2284 3584 
Q 2666 3584 2933 3390 
Q 3200 3197 3328 2828 
z
" transform="scale(0.015625)"/>
       <path id="DejaVuSans-62" d="M 3116 1747 
Q 3116 2381 2855 2742 
Q 2594 3103 2138 3103 
Q 1681 3103 1420 2742 
Q 1159 2381 1159 1747 
Q 1159 1113 1420 752 
Q 1681 391 2138 391 
Q 2594 391 2855 752 
Q 3116 1113 3116 1747 
z
M 1159 2969 
Q 1341 3281 1617 3432 
Q 1894 3584 2278 3584 
Q 2916 3584 3314 3078 
Q 3713 2572 3713 1747 
Q 3713 922 3314 415 
Q 2916 -91 2278 -91 
Q 1894 -91 1617 61 
Q 1341 213 1159 525 
L 1159 0 
L 581 0 
L 581 4863 
L 1159 4863 
L 1159 2969 
z
" transform="scale(0.015625)"/>
       <path id="DejaVuSans-20" transform="scale(0.015625)"/>
       <path id="DejaVuSans-66" d="M 2375 4863 
L 2375 4384 
L 1825 4384 
Q 1516 4384 1395 4259 
Q 1275 4134 1275 3809 
L 1275 3500 
L 2222 3500 
L 2222 3053 
L 1275 3053 
L 1275 0 
L 697 0 
L 697 3053 
L 147 3053 
L 147 3500 
L 697 3500 
L 697 3744 
Q 697 4328 969 4595 
Q 1241 4863 1831 4863 
L 2375 4863 
z
" transform="scale(0.015625)"/>
       <path id="DejaVuSans-73" d="M 2834 3397 
L 2834 2853 
Q 2591 2978 2328 3040 
Q 2066 3103 1784 3103 
Q 1356 3103 1142 2972 
Q 928 2841 928 2578 
Q 928 2378 1081 2264 
Q 1234 2150 1697 2047 
L 1894 2003 
Q 2506 1872 2764 1633 
Q 3022 1394 3022 966 
Q 3022 478 2636 193 
Q 2250 -91 1575 -91 
Q 1294 -91 989 -36 
Q 684 19 347 128 
L 347 722 
Q 666 556 975 473 
Q 1284 391 1588 391 
Q 1994 391 2212 530 
Q 2431 669 2431 922 
Q 2431 1156 2273 1281 
Q 2116 1406 1581 1522 
L 1381 1569 
Q 847 1681 609 1914 
Q 372 2147 372 2553 
Q 372 3047 722 3315 
Q 1072 3584 1716 3584 
Q 2034 3584 2315 3537 
Q 2597 3491 2834 3397 
z
" transform="scale(0.015625)"/>
       <path id="DejaVuSans-6c" d="M 603 4863 
L 1178 4863 
L 1178 0 
L 603 0 
L 603 4863 
z
" transform="scale(0.015625)"/>
       <path id="DejaVuSans-69" d="M 603 3500 
L 1178 3500 
L 1178 0 
L 603 0 
L 603 3500 
z
M 603 4863 
L 1178 4863 
L 1178 4134 
L 603 4134 
L 603 4863 
z
" transform="scale(0.015625)"/>
       <path id="DejaVuSans-6e" d="M 3513 2113 
L 3513 0 
L 2938 0 
L 2938 2094 
Q 2938 2591 2744 2837 
Q 2550 3084 2163 3084 
Q 1697 3084 1428 2787 
Q 1159 2491 1159 1978 
L 1159 0 
L 581 0 
L 581 3500 
L 1159 3500 
L 1159 2956 
Q 1366 3272 1645 3428 
Q 1925 3584 2291 3584 
Q 2894 3584 3203 3211 
Q 3513 2838 3513 2113 
z
" transform="scale(0.015625)"/>
       <path id="DejaVuSans-6b" d="M 581 4863 
L 1159 4863 
L 1159 1991 
L 2875 3500 
L 3609 3500 
L 1753 1863 
L 3688 0 
L 2938 0 
L 1159 1709 
L 1159 0 
L 581 0 
L 581 4863 
z
" transform="scale(0.015625)"/>
      </defs>
      <use xlink:href="#DejaVuSans-4e"/>
      <use xlink:href="#DejaVuSans-75" x="74.804688"/>
      <use xlink:href="#DejaVuSans-6d" x="138.183594"/>
      <use xlink:href="#DejaVuSans-62" x="235.595703"/>
      <use xlink:href="#DejaVuSans-65" x="299.072266"/>
      <use xlink:href="#DejaVuSans-72" x="360.595703"/>
      <use xlink:href="#DejaVuSans-20" x="401.708984"/>
      <use xlink:href="#DejaVuSans-6f" x="433.496094"/>
      <use xlink:href="#DejaVuSans-66" x="494.677734"/>
      <use xlink:href="#DejaVuSans-20" x="529.882812"/>
      <use xlink:href="#DejaVuSans-63" x="561.669922"/>
      <use xlink:href="#DejaVuSans-72" x="616.650391"/>
      <use xlink:href="#DejaVuSans-6f" x="655.513672"/>
      <use xlink:href="#DejaVuSans-73" x="716.695312"/>
      <use xlink:href="#DejaVuSans-73" x="768.794922"/>
      <use xlink:href="#DejaVuSans-6c" x="820.894531"/>
      <use xlink:href="#DejaVuSans-69" x="848.677734"/>
      <use xlink:href="#DejaVuSans-6e" x="876.460938"/>
      <use xlink:href="#DejaVuSans-6b" x="939.839844"/>
      <use xlink:href="#DejaVuSans-73" x="997.75"/>
     </g>
    </g>
   </g>
   <g id="patch_3">
    <path d="M 57.6 307.584 
L 57.6 41.472 
" style="fill: none; stroke: #000000; stroke-width: 0.8; stroke-linejoin: miter; stroke-linecap: square"/>
   </g>
   <g id="patch_4">
    <path d="M 414.72 307.584 
L 414.72 41.472 
" style="fill: none; stroke: #000000; stroke-width: 0.8; stroke-linejoin: miter; stroke-linecap: square"/>
   </g>
   <g id="patch_5">
    <path d="M 57.6 307.584 
L 414.72 307.584 
" style="fill: none; stroke: #000000; stroke-width: 0.8; stroke-linejoin: miter; stroke-linecap: square"/>
   </g>
   <g id="patch_6">
    <path d="M 57.6 41.472 
L 414.72 41.472 
" style="fill: none; stroke: #000000; stroke-width: 0.8; stroke-linejoin: miter; stroke-linecap: square"/>
   </g>
   <g id="legend_1">
    <g id="patch_7">
     <path d="M 293.087188 93.506375 
L 407.72 93.506375 
Q 409.72 93.506375 409.72 91.506375 
L 409.72 48.472 
Q 409.72 46.472 407.72 46.472 
L 293.087188 46.472 
Q 291.087188 46.472 291.087188 48.472 
L 291.087188 91.506375 
Q 291.087188 93.506375 293.087188 93.506375 
z
" style="fill: #ffffff; opacity: 0.8; stroke: #cccccc; stroke-linejoin: miter"/>
    </g>
    <g id="patch_8">
     <path d="M 295.087188 58.070438 
L 315.087188 58.070438 
L 315.087188 51.070438 
L 295.087188 51.070438 
z
" style="fill: #008000"/>
    </g>
    <g id="text_18">
     <!-- true -->
     <g transform="translate(323.087188 58.070438)scale(0.1 -0.1)">
      <defs>
       <path id="DejaVuSans-74" d="M 1172 4494 
L 1172 3500 
L 2356 3500 
L 2356 3053 
L 1172 3053 
L 1172 1153 
Q 1172 725 1289 603 
Q 1406 481 1766 481 
L 2356 481 
L 2356 0 
L 1766 0 
Q 1100 0 847 248 
Q 594 497 594 1153 
L 594 3053 
L 172 3053 
L 172 3500 
L 594 3500 
L 594 4494 
L 1172 4494 
z
" transform="scale(0.015625)"/>
      </defs>
      <use xlink:href="#DejaVuSans-74"/>
      <use xlink:href="#DejaVuSans-72" x="39.208984"/>
      <use xlink:href="#DejaVuSans-75" x="80.322266"/>
      <use xlink:href="#DejaVuSans-65" x="143.701172"/>
     </g>
    </g>
    <g id="patch_9">
     <path d="M 295.087188 72.748563 
L 315.087188 72.748563 
L 315.087188 65.748563 
L 295.087188 65.748563 
z
" style="fill: #7cfc00"/>
    </g>
    <g id="text_19">
     <!-- true homeotypic -->
     <g transform="translate(323.087188 72.748563)scale(0.1 -0.1)">
      <defs>
       <path id="DejaVuSans-68" d="M 3513 2113 
L 3513 0 
L 2938 0 
L 2938 2094 
Q 2938 2591 2744 2837 
Q 2550 3084 2163 3084 
Q 1697 3084 1428 2787 
Q 1159 2491 1159 1978 
L 1159 0 
L 581 0 
L 581 4863 
L 1159 4863 
L 1159 2956 
Q 1366 3272 1645 3428 
Q 1925 3584 2291 3584 
Q 2894 3584 3203 3211 
Q 3513 2838 3513 2113 
z
" transform="scale(0.015625)"/>
       <path id="DejaVuSans-79" d="M 2059 -325 
Q 1816 -950 1584 -1140 
Q 1353 -1331 966 -1331 
L 506 -1331 
L 506 -850 
L 844 -850 
Q 1081 -850 1212 -737 
Q 1344 -625 1503 -206 
L 1606 56 
L 191 3500 
L 800 3500 
L 1894 763 
L 2988 3500 
L 3597 3500 
L 2059 -325 
z
" transform="scale(0.015625)"/>
       <path id="DejaVuSans-70" d="M 1159 525 
L 1159 -1331 
L 581 -1331 
L 581 3500 
L 1159 3500 
L 1159 2969 
Q 1341 3281 1617 3432 
Q 1894 3584 2278 3584 
Q 2916 3584 3314 3078 
Q 3713 2572 3713 1747 
Q 3713 922 3314 415 
Q 2916 -91 2278 -91 
Q 1894 -91 1617 61 
Q 1341 213 1159 525 
z
M 3116 1747 
Q 3116 2381 2855 2742 
Q 2594 3103 2138 3103 
Q 1681 3103 1420 2742 
Q 1159 2381 1159 1747 
Q 1159 1113 1420 752 
Q 1681 391 2138 391 
Q 2594 391 2855 752 
Q 3116 1113 3116 1747 
z
" transform="scale(0.015625)"/>
      </defs>
      <use xlink:href="#DejaVuSans-74"/>
      <use xlink:href="#DejaVuSans-72" x="39.208984"/>
      <use xlink:href="#DejaVuSans-75" x="80.322266"/>
      <use xlink:href="#DejaVuSans-65" x="143.701172"/>
      <use xlink:href="#DejaVuSans-20" x="205.224609"/>
      <use xlink:href="#DejaVuSans-68" x="237.011719"/>
      <use xlink:href="#DejaVuSans-6f" x="300.390625"/>
      <use xlink:href="#DejaVuSans-6d" x="361.572266"/>
      <use xlink:href="#DejaVuSans-65" x="458.984375"/>
      <use xlink:href="#DejaVuSans-6f" x="520.507812"/>
      <use xlink:href="#DejaVuSans-74" x="581.689453"/>
      <use xlink:href="#DejaVuSans-79" x="620.898438"/>
      <use xlink:href="#DejaVuSans-70" x="680.078125"/>
      <use xlink:href="#DejaVuSans-69" x="743.554688"/>
      <use xlink:href="#DejaVuSans-63" x="771.337891"/>
     </g>
    </g>
    <g id="patch_10">
     <path d="M 295.087188 87.426688 
L 315.087188 87.426688 
L 315.087188 80.426688 
L 295.087188 80.426688 
z
" style="fill: #ff0000"/>
    </g>
    <g id="text_20">
     <!-- false -->
     <g transform="translate(323.087188 87.426688)scale(0.1 -0.1)">
      <defs>
       <path id="DejaVuSans-61" d="M 2194 1759 
Q 1497 1759 1228 1600 
Q 959 1441 959 1056 
Q 959 750 1161 570 
Q 1363 391 1709 391 
Q 2188 391 2477 730 
Q 2766 1069 2766 1631 
L 2766 1759 
L 2194 1759 
z
M 3341 1997 
L 3341 0 
L 2766 0 
L 2766 531 
Q 2569 213 2275 61 
Q 1981 -91 1556 -91 
Q 1019 -91 701 211 
Q 384 513 384 1019 
Q 384 1609 779 1909 
Q 1175 2209 1959 2209 
L 2766 2209 
L 2766 2266 
Q 2766 2663 2505 2880 
Q 2244 3097 1772 3097 
Q 1472 3097 1187 3025 
Q 903 2953 641 2809 
L 641 3341 
Q 956 3463 1253 3523 
Q 1550 3584 1831 3584 
Q 2591 3584 2966 3190 
Q 3341 2797 3341 1997 
z
" transform="scale(0.015625)"/>
      </defs>
      <use xlink:href="#DejaVuSans-66"/>
      <use xlink:href="#DejaVuSans-61" x="35.205078"/>
      <use xlink:href="#DejaVuSans-6c" x="96.484375"/>
      <use xlink:href="#DejaVuSans-73" x="124.267578"/>
      <use xlink:href="#DejaVuSans-65" x="176.367188"/>
     </g>
    </g>
   </g>
  </g>
 </g>
 <defs>
  <clipPath id="p0ae3fba665">
   <rect x="57.6" y="41.472" width="357.12" height="266.112"/>
  </clipPath>
 </defs>
</svg>
