<?xml version="1.0" encoding="utf-8" standalone="no"?>
<!DOCTYPE svg PUBLIC "-//W3C//DTD SVG 1.1//EN"
  "http://www.w3.org/Graphics/SVG/1.1/DTD/svg11.dtd">
<svg xmlns:xlink="http://www.w3.org/1999/xlink" width="460.8pt" height="345.6pt" viewBox="0 0 460.8 345.6" xmlns="http://www.w3.org/2000/svg" version="1.1">
 <metadata>
  <rdf:RDF xmlns:dc="http://purl.org/dc/elements/1.1/" xmlns:cc="http://creativecommons.org/ns#" xmlns:rdf="http://www.w3.org/1999/02/22-rdf-syntax-ns#">
   <cc:Work>
    <dc:type rdf:resource="http://purl.org/dc/dcmitype/StillImage"/>
    <dc:date>2022-07-26T15:16:02.281347</dc:date>
    <dc:format>image/svg+xml</dc:format>
    <dc:creator>
     <cc:Agent>
      <dc:title>Matplotlib v3.5.1, https://matplotlib.org/</dc:title>
     </cc:Agent>
    </dc:creator>
   </cc:Work>
  </rdf:RDF>
 </metadata>
 <defs>
  <style type="text/css">*{stroke-linejoin: round; stroke-linecap: butt}</style>
 </defs>
 <g id="figure_1">
  <g id="patch_1">
   <path d="M 0 345.6 
L 460.8 345.6 
L 460.8 0 
L 0 0 
z
" style="fill: #ffffff"/>
  </g>
  <g id="axes_1">
   <g id="patch_2">
    <path d="M 57.6 307.584 
L 414.72 307.584 
L 414.72 41.472 
L 57.6 41.472 
z
" style="fill: #ffffff"/>
   </g>
   <g id="PolyCollection_1">
    <path d="M 73.832727 119.850667 
L 73.832727 307.584 
L 74.128626 307.584 
L 75.216576 307.584 
L 76.770791 307.584 
L 76.956101 307.584 
L 77.147389 307.584 
L 77.353622 307.584 
L 77.894608 307.584 
L 78.405705 307.584 
L 78.588027 307.584 
L 78.815181 307.584 
L 79.069236 307.584 
L 79.293401 307.584 
L 79.406978 307.584 
L 80.14523 307.584 
L 80.569651 307.584 
L 80.820716 307.584 
L 81.269047 307.584 
L 81.484246 307.584 
L 81.487235 307.584 
L 81.570924 307.584 
L 81.675534 307.584 
L 81.810034 307.584 
L 81.908666 307.584 
L 82.132832 307.584 
L 82.56323 307.584 
L 82.742562 307.584 
L 83.343326 307.584 
L 83.645203 307.584 
L 84.780975 307.584 
L 87.028609 307.584 
L 87.067464 307.584 
L 87.136208 307.584 
L 87.566606 307.584 
L 87.757894 307.584 
L 87.82066 307.584 
L 88.104603 307.584 
L 88.286925 307.584 
L 88.48419 307.584 
L 88.609723 307.584 
L 88.8847 307.584 
L 88.965399 307.584 
L 89.108865 307.584 
L 89.198531 307.584 
L 89.318086 307.584 
L 89.545241 307.584 
L 89.694685 307.584 
L 89.897928 307.584 
L 89.933795 307.584 
L 89.990583 307.584 
L 90.163938 307.584 
L 90.465814 307.584 
L 91.1413 307.584 
L 91.227977 307.584 
L 91.293733 307.584 
L 92.014051 307.584 
L 92.564004 307.584 
L 93.541366 307.584 
L 94.085341 307.584 
L 94.318474 307.584 
L 95.005915 307.584 
L 95.962355 307.584 
L 96.476441 307.584 
L 97.029383 307.584 
L 97.636124 307.584 
L 98.287699 307.584 
L 98.637397 307.584 
L 99.366683 307.584 
L 99.456349 307.584 
L 99.686492 307.584 
L 100.526366 307.584 
L 101.39314 307.584 
L 101.721916 307.584 
L 101.73686 307.584 
L 102.702267 307.584 
L 102.759055 307.584 
L 102.815844 307.584 
L 102.890566 307.584 
L 103.918739 307.584 
L 104.229582 307.584 
L 104.674924 307.584 
L 105.224877 307.584 
L 105.227866 307.584 
L 106.402494 307.584 
L 106.489171 307.584 
L 106.707359 307.584 
L 107.191556 307.584 
L 107.341 307.584 
L 107.445611 307.584 
L 108.00453 307.584 
L 108.674038 307.584 
L 109.711178 307.584 
L 110.177442 307.584 
L 112.897318 307.584 
L 113.214139 307.584 
L 113.967335 307.584 
L 114.083901 307.584 
L 114.311056 307.584 
L 114.807209 307.584 
L 115.551439 307.584 
L 116.122314 307.584 
L 116.229913 307.584 
L 117.395574 307.584 
L 117.930583 307.584 
L 118.925878 307.584 
L 119.036466 307.584 
L 120.626548 307.584 
L 120.871635 307.584 
L 121.968552 307.584 
L 123.863499 307.584 
L 124.299875 307.584 
L 124.616695 307.584 
L 124.897649 307.584 
L 125.713612 307.584 
L 125.755456 307.584 
L 126.084233 307.584 
L 126.673041 307.584 
L 127.252883 307.584 
L 127.548781 307.584 
L 128.059879 307.584 
L 128.2422 307.584 
L 128.296 307.584 
L 128.642709 307.584 
L 130.310501 307.584 
L 131.281886 307.584 
L 131.984271 307.584 
L 132.57009 307.584 
L 133.18281 307.584 
L 137.567489 307.584 
L 138.757061 307.584 
L 139.474391 307.584 
L 140.146888 307.584 
L 146.360758 307.584 
L 147.110965 307.584 
L 147.463652 307.584 
L 148.231793 307.584 
L 148.85049 307.584 
L 153.094692 307.584 
L 154.048143 307.584 
L 155.823535 307.584 
L 157.18945 307.584 
L 157.58996 307.584 
L 158.543411 307.584 
L 158.982775 307.584 
L 162.118105 307.584 
L 162.264559 307.584 
L 165.232512 307.584 
L 167.142403 307.584 
L 167.211147 307.584 
L 167.330702 307.584 
L 169.330259 307.584 
L 171.012995 307.584 
L 176.769568 307.584 
L 178.78108 307.584 
L 183.025282 307.584 
L 184.116221 307.584 
L 184.776763 307.584 
L 184.818607 307.584 
L 185.225094 307.584 
L 188.692188 307.584 
L 189.445385 307.584 
L 191.220776 307.584 
L 191.633241 307.584 
L 193.2024 307.584 
L 194.66396 307.584 
L 198.322342 307.584 
L 200.552043 307.584 
L 223.258523 307.584 
L 223.593277 307.584 
L 228.880596 307.584 
L 239.189224 307.584 
L 243.986368 307.584 
L 245.011552 307.584 
L 245.217784 307.584 
L 247.677628 307.584 
L 250.729269 307.584 
L 252.61226 307.584 
L 252.872292 307.584 
L 258.171567 307.584 
L 264.735135 307.584 
L 276.278169 307.584 
L 281.831498 307.584 
L 282.453184 307.584 
L 292.645246 307.584 
L 306.145993 307.584 
L 309.400877 307.584 
L 329.453237 307.584 
L 337.46342 307.584 
L 398.487273 307.584 
L 398.487273 307.584 
L 398.487273 307.584 
L 337.46342 307.584 
L 329.453237 307.584 
L 309.400877 307.584 
L 306.145993 307.584 
L 292.645246 307.584 
L 282.453184 307.584 
L 281.831498 307.584 
L 276.278169 307.584 
L 264.735135 307.584 
L 258.171567 307.584 
L 252.872292 306.243048 
L 252.61226 306.243048 
L 250.729269 304.902095 
L 247.677628 303.561143 
L 245.217784 303.561143 
L 245.011552 303.561143 
L 243.986368 303.561143 
L 239.189224 303.561143 
L 228.880596 302.22019 
L 223.593277 302.22019 
L 223.258523 300.879238 
L 200.552043 299.538286 
L 198.322342 299.538286 
L 194.66396 299.538286 
L 193.2024 298.197333 
L 191.633241 296.856381 
L 191.220776 295.515429 
L 189.445385 294.174476 
L 188.692188 294.174476 
L 185.225094 292.833524 
L 184.818607 292.833524 
L 184.776763 291.492571 
L 184.116221 291.492571 
L 183.025282 291.492571 
L 178.78108 290.151619 
L 176.769568 288.810667 
L 171.012995 287.469714 
L 169.330259 286.128762 
L 167.330702 284.78781 
L 167.211147 283.446857 
L 167.142403 282.105905 
L 165.232512 280.764952 
L 162.264559 279.424 
L 162.118105 279.424 
L 158.982775 278.083048 
L 158.543411 278.083048 
L 157.58996 276.742095 
L 157.18945 275.401143 
L 155.823535 274.06019 
L 154.048143 272.719238 
L 153.094692 272.719238 
L 148.85049 271.378286 
L 148.231793 270.037333 
L 147.463652 268.696381 
L 147.110965 267.355429 
L 146.360758 267.355429 
L 140.146888 266.014476 
L 139.474391 264.673524 
L 138.757061 263.332571 
L 137.567489 261.991619 
L 133.18281 260.650667 
L 132.57009 260.650667 
L 131.984271 259.309714 
L 131.281886 257.968762 
L 130.310501 256.62781 
L 128.642709 255.286857 
L 128.296 255.286857 
L 128.2422 253.945905 
L 128.059879 252.604952 
L 127.548781 252.604952 
L 127.252883 252.604952 
L 126.673041 252.604952 
L 126.084233 251.264 
L 125.755456 249.923048 
L 125.713612 249.923048 
L 124.897649 249.923048 
L 124.616695 249.923048 
L 124.299875 248.582095 
L 123.863499 248.582095 
L 121.968552 247.241143 
L 120.871635 245.90019 
L 120.626548 244.559238 
L 119.036466 243.218286 
L 118.925878 241.877333 
L 117.930583 240.536381 
L 117.395574 239.195429 
L 116.229913 237.854476 
L 116.122314 236.513524 
L 115.551439 235.172571 
L 114.807209 235.172571 
L 114.311056 233.831619 
L 114.083901 232.490667 
L 113.967335 231.149714 
L 113.214139 229.808762 
L 112.897318 228.46781 
L 110.177442 227.126857 
L 109.711178 225.785905 
L 108.674038 224.444952 
L 108.00453 223.104 
L 107.445611 221.763048 
L 107.341 220.422095 
L 107.191556 219.081143 
L 106.707359 219.081143 
L 106.489171 219.081143 
L 106.402494 219.081143 
L 105.227866 219.081143 
L 105.224877 217.74019 
L 104.674924 216.399238 
L 104.229582 215.058286 
L 103.918739 213.717333 
L 102.890566 213.717333 
L 102.815844 212.376381 
L 102.759055 212.376381 
L 102.702267 211.035429 
L 101.73686 209.694476 
L 101.721916 208.353524 
L 101.39314 207.012571 
L 100.526366 205.671619 
L 99.686492 204.330667 
L 99.456349 204.330667 
L 99.366683 202.989714 
L 98.637397 201.648762 
L 98.287699 200.30781 
L 97.636124 198.966857 
L 97.029383 197.625905 
L 96.476441 196.284952 
L 95.962355 194.944 
L 95.005915 193.603048 
L 94.318474 192.262095 
L 94.085341 190.921143 
L 93.541366 189.58019 
L 92.564004 188.239238 
L 92.014051 186.898286 
L 91.293733 186.898286 
L 91.227977 185.557333 
L 91.1413 184.216381 
L 90.465814 182.875429 
L 90.163938 181.534476 
L 89.990583 180.193524 
L 89.933795 178.852571 
L 89.897928 177.511619 
L 89.694685 176.170667 
L 89.545241 174.829714 
L 89.318086 173.488762 
L 89.198531 172.14781 
L 89.108865 170.806857 
L 88.965399 169.465905 
L 88.8847 168.124952 
L 88.609723 166.784 
L 88.48419 165.443048 
L 88.286925 164.102095 
L 88.104603 162.761143 
L 87.82066 161.42019 
L 87.757894 160.079238 
L 87.566606 158.738286 
L 87.136208 157.397333 
L 87.067464 156.056381 
L 87.028609 154.715429 
L 84.780975 153.374476 
L 83.645203 152.033524 
L 83.343326 150.692571 
L 82.742562 149.351619 
L 82.56323 149.351619 
L 82.132832 148.010667 
L 81.908666 146.669714 
L 81.810034 145.328762 
L 81.675534 143.98781 
L 81.570924 142.646857 
L 81.487235 141.305905 
L 81.484246 141.305905 
L 81.269047 139.964952 
L 80.820716 138.624 
L 80.569651 137.283048 
L 80.14523 135.942095 
L 79.406978 134.601143 
L 79.293401 133.26019 
L 79.069236 131.919238 
L 78.815181 130.578286 
L 78.588027 129.237333 
L 78.405705 127.896381 
L 77.894608 126.555429 
L 77.353622 125.214476 
L 77.147389 123.873524 
L 76.956101 122.532571 
L 76.770791 121.191619 
L 75.216576 121.191619 
L 74.128626 121.191619 
L 73.832727 119.850667 
z
" clip-path="url(#p00fe467279)" style="fill: #008000"/>
   </g>
   <g id="PolyCollection_2">
    <path d="M 73.832727 60.848762 
L 73.832727 119.850667 
L 74.128626 121.191619 
L 75.216576 121.191619 
L 76.770791 121.191619 
L 76.956101 122.532571 
L 77.147389 123.873524 
L 77.353622 125.214476 
L 77.894608 126.555429 
L 78.405705 127.896381 
L 78.588027 129.237333 
L 78.815181 130.578286 
L 79.069236 131.919238 
L 79.293401 133.26019 
L 79.406978 134.601143 
L 80.14523 135.942095 
L 80.569651 137.283048 
L 80.820716 138.624 
L 81.269047 139.964952 
L 81.484246 141.305905 
L 81.487235 141.305905 
L 81.570924 142.646857 
L 81.675534 143.98781 
L 81.810034 145.328762 
L 81.908666 146.669714 
L 82.132832 148.010667 
L 82.56323 149.351619 
L 82.742562 149.351619 
L 83.343326 150.692571 
L 83.645203 152.033524 
L 84.780975 153.374476 
L 87.028609 154.715429 
L 87.067464 156.056381 
L 87.136208 157.397333 
L 87.566606 158.738286 
L 87.757894 160.079238 
L 87.82066 161.42019 
L 88.104603 162.761143 
L 88.286925 164.102095 
L 88.48419 165.443048 
L 88.609723 166.784 
L 88.8847 168.124952 
L 88.965399 169.465905 
L 89.108865 170.806857 
L 89.198531 172.14781 
L 89.318086 173.488762 
L 89.545241 174.829714 
L 89.694685 176.170667 
L 89.897928 177.511619 
L 89.933795 178.852571 
L 89.990583 180.193524 
L 90.163938 181.534476 
L 90.465814 182.875429 
L 91.1413 184.216381 
L 91.227977 185.557333 
L 91.293733 186.898286 
L 92.014051 186.898286 
L 92.564004 188.239238 
L 93.541366 189.58019 
L 94.085341 190.921143 
L 94.318474 192.262095 
L 95.005915 193.603048 
L 95.962355 194.944 
L 96.476441 196.284952 
L 97.029383 197.625905 
L 97.636124 198.966857 
L 98.287699 200.30781 
L 98.637397 201.648762 
L 99.366683 202.989714 
L 99.456349 204.330667 
L 99.686492 204.330667 
L 100.526366 205.671619 
L 101.39314 207.012571 
L 101.721916 208.353524 
L 101.73686 209.694476 
L 102.702267 211.035429 
L 102.759055 212.376381 
L 102.815844 212.376381 
L 102.890566 213.717333 
L 103.918739 213.717333 
L 104.229582 215.058286 
L 104.674924 216.399238 
L 105.224877 217.74019 
L 105.227866 219.081143 
L 106.402494 219.081143 
L 106.489171 219.081143 
L 106.707359 219.081143 
L 107.191556 219.081143 
L 107.341 220.422095 
L 107.445611 221.763048 
L 108.00453 223.104 
L 108.674038 224.444952 
L 109.711178 225.785905 
L 110.177442 227.126857 
L 112.897318 228.46781 
L 113.214139 229.808762 
L 113.967335 231.149714 
L 114.083901 232.490667 
L 114.311056 233.831619 
L 114.807209 235.172571 
L 115.551439 235.172571 
L 116.122314 236.513524 
L 116.229913 237.854476 
L 117.395574 239.195429 
L 117.930583 240.536381 
L 118.925878 241.877333 
L 119.036466 243.218286 
L 120.626548 244.559238 
L 120.871635 245.90019 
L 121.968552 247.241143 
L 123.863499 248.582095 
L 124.299875 248.582095 
L 124.616695 249.923048 
L 124.897649 249.923048 
L 125.713612 249.923048 
L 125.755456 249.923048 
L 126.084233 251.264 
L 126.673041 252.604952 
L 127.252883 252.604952 
L 127.548781 252.604952 
L 128.059879 252.604952 
L 128.2422 253.945905 
L 128.296 255.286857 
L 128.642709 255.286857 
L 130.310501 256.62781 
L 131.281886 257.968762 
L 131.984271 259.309714 
L 132.57009 260.650667 
L 133.18281 260.650667 
L 137.567489 261.991619 
L 138.757061 263.332571 
L 139.474391 264.673524 
L 140.146888 266.014476 
L 146.360758 267.355429 
L 147.110965 267.355429 
L 147.463652 268.696381 
L 148.231793 270.037333 
L 148.85049 271.378286 
L 153.094692 272.719238 
L 154.048143 272.719238 
L 155.823535 274.06019 
L 157.18945 275.401143 
L 157.58996 276.742095 
L 158.543411 278.083048 
L 158.982775 278.083048 
L 162.118105 279.424 
L 162.264559 279.424 
L 165.232512 280.764952 
L 167.142403 282.105905 
L 167.211147 283.446857 
L 167.330702 284.78781 
L 169.330259 286.128762 
L 171.012995 287.469714 
L 176.769568 288.810667 
L 178.78108 290.151619 
L 183.025282 291.492571 
L 184.116221 291.492571 
L 184.776763 291.492571 
L 184.818607 292.833524 
L 185.225094 292.833524 
L 188.692188 294.174476 
L 189.445385 294.174476 
L 191.220776 295.515429 
L 191.633241 296.856381 
L 193.2024 298.197333 
L 194.66396 299.538286 
L 198.322342 299.538286 
L 200.552043 299.538286 
L 223.258523 300.879238 
L 223.593277 302.22019 
L 228.880596 302.22019 
L 239.189224 303.561143 
L 243.986368 303.561143 
L 245.011552 303.561143 
L 245.217784 303.561143 
L 247.677628 303.561143 
L 250.729269 304.902095 
L 252.61226 306.243048 
L 252.872292 306.243048 
L 258.171567 307.584 
L 264.735135 307.584 
L 276.278169 307.584 
L 281.831498 307.584 
L 282.453184 307.584 
L 292.645246 307.584 
L 306.145993 307.584 
L 309.400877 307.584 
L 329.453237 307.584 
L 337.46342 307.584 
L 398.487273 307.584 
L 398.487273 306.243048 
L 398.487273 306.243048 
L 337.46342 304.902095 
L 329.453237 303.561143 
L 309.400877 302.22019 
L 306.145993 300.879238 
L 292.645246 299.538286 
L 282.453184 298.197333 
L 281.831498 296.856381 
L 276.278169 295.515429 
L 264.735135 294.174476 
L 258.171567 292.833524 
L 252.872292 291.492571 
L 252.61226 290.151619 
L 250.729269 288.810667 
L 247.677628 287.469714 
L 245.217784 286.128762 
L 245.011552 284.78781 
L 243.986368 283.446857 
L 239.189224 282.105905 
L 228.880596 280.764952 
L 223.593277 279.424 
L 223.258523 278.083048 
L 200.552043 276.742095 
L 198.322342 275.401143 
L 194.66396 274.06019 
L 193.2024 272.719238 
L 191.633241 271.378286 
L 191.220776 270.037333 
L 189.445385 268.696381 
L 188.692188 267.355429 
L 185.225094 266.014476 
L 184.818607 264.673524 
L 184.776763 263.332571 
L 184.116221 261.991619 
L 183.025282 260.650667 
L 178.78108 259.309714 
L 176.769568 257.968762 
L 171.012995 256.62781 
L 169.330259 255.286857 
L 167.330702 253.945905 
L 167.211147 252.604952 
L 167.142403 251.264 
L 165.232512 249.923048 
L 162.264559 248.582095 
L 162.118105 247.241143 
L 158.982775 245.90019 
L 158.543411 244.559238 
L 157.58996 243.218286 
L 157.18945 241.877333 
L 155.823535 240.536381 
L 154.048143 239.195429 
L 153.094692 237.854476 
L 148.85049 236.513524 
L 148.231793 235.172571 
L 147.463652 233.831619 
L 147.110965 232.490667 
L 146.360758 231.149714 
L 140.146888 229.808762 
L 139.474391 228.46781 
L 138.757061 227.126857 
L 137.567489 225.785905 
L 133.18281 224.444952 
L 132.57009 223.104 
L 131.984271 221.763048 
L 131.281886 220.422095 
L 130.310501 219.081143 
L 128.642709 217.74019 
L 128.296 216.399238 
L 128.2422 215.058286 
L 128.059879 213.717333 
L 127.548781 212.376381 
L 127.252883 211.035429 
L 126.673041 209.694476 
L 126.084233 208.353524 
L 125.755456 207.012571 
L 125.713612 205.671619 
L 124.897649 204.330667 
L 124.616695 202.989714 
L 124.299875 201.648762 
L 123.863499 200.30781 
L 121.968552 198.966857 
L 120.871635 197.625905 
L 120.626548 196.284952 
L 119.036466 194.944 
L 118.925878 193.603048 
L 117.930583 192.262095 
L 117.395574 190.921143 
L 116.229913 189.58019 
L 116.122314 188.239238 
L 115.551439 186.898286 
L 114.807209 185.557333 
L 114.311056 184.216381 
L 114.083901 182.875429 
L 113.967335 181.534476 
L 113.214139 180.193524 
L 112.897318 178.852571 
L 110.177442 177.511619 
L 109.711178 176.170667 
L 108.674038 174.829714 
L 108.00453 173.488762 
L 107.445611 172.14781 
L 107.341 170.806857 
L 107.191556 169.465905 
L 106.707359 168.124952 
L 106.489171 166.784 
L 106.402494 165.443048 
L 105.227866 165.443048 
L 105.224877 164.102095 
L 104.674924 162.761143 
L 104.229582 161.42019 
L 103.918739 160.079238 
L 102.890566 158.738286 
L 102.815844 157.397333 
L 102.759055 156.056381 
L 102.702267 154.715429 
L 101.73686 153.374476 
L 101.721916 152.033524 
L 101.39314 150.692571 
L 100.526366 149.351619 
L 99.686492 148.010667 
L 99.456349 146.669714 
L 99.366683 145.328762 
L 98.637397 143.98781 
L 98.287699 142.646857 
L 97.636124 141.305905 
L 97.029383 139.964952 
L 96.476441 138.624 
L 95.962355 137.283048 
L 95.005915 135.942095 
L 94.318474 134.601143 
L 94.085341 133.26019 
L 93.541366 131.919238 
L 92.564004 130.578286 
L 92.014051 129.237333 
L 91.293733 129.237333 
L 91.227977 127.896381 
L 91.1413 126.555429 
L 90.465814 125.214476 
L 90.163938 123.873524 
L 89.990583 122.532571 
L 89.933795 121.191619 
L 89.897928 119.850667 
L 89.694685 118.509714 
L 89.545241 117.168762 
L 89.318086 115.82781 
L 89.198531 114.486857 
L 89.108865 113.145905 
L 88.965399 111.804952 
L 88.8847 110.464 
L 88.609723 109.123048 
L 88.48419 107.782095 
L 88.286925 106.441143 
L 88.104603 105.10019 
L 87.82066 103.759238 
L 87.757894 102.418286 
L 87.566606 101.077333 
L 87.136208 99.736381 
L 87.067464 98.395429 
L 87.028609 97.054476 
L 84.780975 95.713524 
L 83.645203 94.372571 
L 83.343326 93.031619 
L 82.742562 91.690667 
L 82.56323 91.690667 
L 82.132832 90.349714 
L 81.908666 89.008762 
L 81.810034 87.66781 
L 81.675534 86.326857 
L 81.570924 84.985905 
L 81.487235 83.644952 
L 81.484246 83.644952 
L 81.269047 82.304 
L 80.820716 80.963048 
L 80.569651 79.622095 
L 80.14523 78.281143 
L 79.406978 76.94019 
L 79.293401 75.599238 
L 79.069236 74.258286 
L 78.815181 72.917333 
L 78.588027 71.576381 
L 78.405705 70.235429 
L 77.894608 68.894476 
L 77.353622 67.553524 
L 77.147389 66.212571 
L 76.956101 64.871619 
L 76.770791 63.530667 
L 75.216576 63.530667 
L 74.128626 62.189714 
L 73.832727 60.848762 
z
" clip-path="url(#p00fe467279)" style="fill: #7cfc00"/>
   </g>
   <g id="PolyCollection_3">
    <path d="M 73.832727 54.144 
L 73.832727 60.848762 
L 74.128626 62.189714 
L 75.216576 63.530667 
L 76.770791 63.530667 
L 76.956101 64.871619 
L 77.147389 66.212571 
L 77.353622 67.553524 
L 77.894608 68.894476 
L 78.405705 70.235429 
L 78.588027 71.576381 
L 78.815181 72.917333 
L 79.069236 74.258286 
L 79.293401 75.599238 
L 79.406978 76.94019 
L 80.14523 78.281143 
L 80.569651 79.622095 
L 80.820716 80.963048 
L 81.269047 82.304 
L 81.484246 83.644952 
L 81.487235 83.644952 
L 81.570924 84.985905 
L 81.675534 86.326857 
L 81.810034 87.66781 
L 81.908666 89.008762 
L 82.132832 90.349714 
L 82.56323 91.690667 
L 82.742562 91.690667 
L 83.343326 93.031619 
L 83.645203 94.372571 
L 84.780975 95.713524 
L 87.028609 97.054476 
L 87.067464 98.395429 
L 87.136208 99.736381 
L 87.566606 101.077333 
L 87.757894 102.418286 
L 87.82066 103.759238 
L 88.104603 105.10019 
L 88.286925 106.441143 
L 88.48419 107.782095 
L 88.609723 109.123048 
L 88.8847 110.464 
L 88.965399 111.804952 
L 89.108865 113.145905 
L 89.198531 114.486857 
L 89.318086 115.82781 
L 89.545241 117.168762 
L 89.694685 118.509714 
L 89.897928 119.850667 
L 89.933795 121.191619 
L 89.990583 122.532571 
L 90.163938 123.873524 
L 90.465814 125.214476 
L 91.1413 126.555429 
L 91.227977 127.896381 
L 91.293733 129.237333 
L 92.014051 129.237333 
L 92.564004 130.578286 
L 93.541366 131.919238 
L 94.085341 133.26019 
L 94.318474 134.601143 
L 95.005915 135.942095 
L 95.962355 137.283048 
L 96.476441 138.624 
L 97.029383 139.964952 
L 97.636124 141.305905 
L 98.287699 142.646857 
L 98.637397 143.98781 
L 99.366683 145.328762 
L 99.456349 146.669714 
L 99.686492 148.010667 
L 100.526366 149.351619 
L 101.39314 150.692571 
L 101.721916 152.033524 
L 101.73686 153.374476 
L 102.702267 154.715429 
L 102.759055 156.056381 
L 102.815844 157.397333 
L 102.890566 158.738286 
L 103.918739 160.079238 
L 104.229582 161.42019 
L 104.674924 162.761143 
L 105.224877 164.102095 
L 105.227866 165.443048 
L 106.402494 165.443048 
L 106.489171 166.784 
L 106.707359 168.124952 
L 107.191556 169.465905 
L 107.341 170.806857 
L 107.445611 172.14781 
L 108.00453 173.488762 
L 108.674038 174.829714 
L 109.711178 176.170667 
L 110.177442 177.511619 
L 112.897318 178.852571 
L 113.214139 180.193524 
L 113.967335 181.534476 
L 114.083901 182.875429 
L 114.311056 184.216381 
L 114.807209 185.557333 
L 115.551439 186.898286 
L 116.122314 188.239238 
L 116.229913 189.58019 
L 117.395574 190.921143 
L 117.930583 192.262095 
L 118.925878 193.603048 
L 119.036466 194.944 
L 120.626548 196.284952 
L 120.871635 197.625905 
L 121.968552 198.966857 
L 123.863499 200.30781 
L 124.299875 201.648762 
L 124.616695 202.989714 
L 124.897649 204.330667 
L 125.713612 205.671619 
L 125.755456 207.012571 
L 126.084233 208.353524 
L 126.673041 209.694476 
L 127.252883 211.035429 
L 127.548781 212.376381 
L 128.059879 213.717333 
L 128.2422 215.058286 
L 128.296 216.399238 
L 128.642709 217.74019 
L 130.310501 219.081143 
L 131.281886 220.422095 
L 131.984271 221.763048 
L 132.57009 223.104 
L 133.18281 224.444952 
L 137.567489 225.785905 
L 138.757061 227.126857 
L 139.474391 228.46781 
L 140.146888 229.808762 
L 146.360758 231.149714 
L 147.110965 232.490667 
L 147.463652 233.831619 
L 148.231793 235.172571 
L 148.85049 236.513524 
L 153.094692 237.854476 
L 154.048143 239.195429 
L 155.823535 240.536381 
L 157.18945 241.877333 
L 157.58996 243.218286 
L 158.543411 244.559238 
L 158.982775 245.90019 
L 162.118105 247.241143 
L 162.264559 248.582095 
L 165.232512 249.923048 
L 167.142403 251.264 
L 167.211147 252.604952 
L 167.330702 253.945905 
L 169.330259 255.286857 
L 171.012995 256.62781 
L 176.769568 257.968762 
L 178.78108 259.309714 
L 183.025282 260.650667 
L 184.116221 261.991619 
L 184.776763 263.332571 
L 184.818607 264.673524 
L 185.225094 266.014476 
L 188.692188 267.355429 
L 189.445385 268.696381 
L 191.220776 270.037333 
L 191.633241 271.378286 
L 193.2024 272.719238 
L 194.66396 274.06019 
L 198.322342 275.401143 
L 200.552043 276.742095 
L 223.258523 278.083048 
L 223.593277 279.424 
L 228.880596 280.764952 
L 239.189224 282.105905 
L 243.986368 283.446857 
L 245.011552 284.78781 
L 245.217784 286.128762 
L 247.677628 287.469714 
L 250.729269 288.810667 
L 252.61226 290.151619 
L 252.872292 291.492571 
L 258.171567 292.833524 
L 264.735135 294.174476 
L 276.278169 295.515429 
L 281.831498 296.856381 
L 282.453184 298.197333 
L 292.645246 299.538286 
L 306.145993 300.879238 
L 309.400877 302.22019 
L 329.453237 303.561143 
L 337.46342 304.902095 
L 398.487273 306.243048 
L 398.487273 306.243048 
L 398.487273 306.243048 
L 337.46342 304.902095 
L 329.453237 303.561143 
L 309.400877 302.22019 
L 306.145993 300.879238 
L 292.645246 299.538286 
L 282.453184 298.197333 
L 281.831498 296.856381 
L 276.278169 295.515429 
L 264.735135 294.174476 
L 258.171567 292.833524 
L 252.872292 291.492571 
L 252.61226 290.151619 
L 250.729269 288.810667 
L 247.677628 287.469714 
L 245.217784 286.128762 
L 245.011552 284.78781 
L 243.986368 283.446857 
L 239.189224 282.105905 
L 228.880596 280.764952 
L 223.593277 279.424 
L 223.258523 278.083048 
L 200.552043 276.742095 
L 198.322342 275.401143 
L 194.66396 274.06019 
L 193.2024 272.719238 
L 191.633241 271.378286 
L 191.220776 270.037333 
L 189.445385 268.696381 
L 188.692188 267.355429 
L 185.225094 266.014476 
L 184.818607 264.673524 
L 184.776763 263.332571 
L 184.116221 261.991619 
L 183.025282 260.650667 
L 178.78108 259.309714 
L 176.769568 257.968762 
L 171.012995 256.62781 
L 169.330259 255.286857 
L 167.330702 253.945905 
L 167.211147 252.604952 
L 167.142403 251.264 
L 165.232512 249.923048 
L 162.264559 248.582095 
L 162.118105 247.241143 
L 158.982775 245.90019 
L 158.543411 244.559238 
L 157.58996 243.218286 
L 157.18945 241.877333 
L 155.823535 240.536381 
L 154.048143 239.195429 
L 153.094692 237.854476 
L 148.85049 236.513524 
L 148.231793 235.172571 
L 147.463652 233.831619 
L 147.110965 232.490667 
L 146.360758 231.149714 
L 140.146888 229.808762 
L 139.474391 228.46781 
L 138.757061 227.126857 
L 137.567489 225.785905 
L 133.18281 224.444952 
L 132.57009 223.104 
L 131.984271 221.763048 
L 131.281886 220.422095 
L 130.310501 219.081143 
L 128.642709 217.74019 
L 128.296 216.399238 
L 128.2422 215.058286 
L 128.059879 213.717333 
L 127.548781 212.376381 
L 127.252883 211.035429 
L 126.673041 209.694476 
L 126.084233 208.353524 
L 125.755456 207.012571 
L 125.713612 205.671619 
L 124.897649 204.330667 
L 124.616695 202.989714 
L 124.299875 201.648762 
L 123.863499 200.30781 
L 121.968552 198.966857 
L 120.871635 197.625905 
L 120.626548 196.284952 
L 119.036466 194.944 
L 118.925878 193.603048 
L 117.930583 192.262095 
L 117.395574 190.921143 
L 116.229913 189.58019 
L 116.122314 188.239238 
L 115.551439 186.898286 
L 114.807209 185.557333 
L 114.311056 184.216381 
L 114.083901 182.875429 
L 113.967335 181.534476 
L 113.214139 180.193524 
L 112.897318 178.852571 
L 110.177442 177.511619 
L 109.711178 176.170667 
L 108.674038 174.829714 
L 108.00453 173.488762 
L 107.445611 172.14781 
L 107.341 170.806857 
L 107.191556 169.465905 
L 106.707359 168.124952 
L 106.489171 166.784 
L 106.402494 165.443048 
L 105.227866 164.102095 
L 105.224877 162.761143 
L 104.674924 161.42019 
L 104.229582 160.079238 
L 103.918739 158.738286 
L 102.890566 157.397333 
L 102.815844 156.056381 
L 102.759055 154.715429 
L 102.702267 153.374476 
L 101.73686 152.033524 
L 101.721916 150.692571 
L 101.39314 149.351619 
L 100.526366 148.010667 
L 99.686492 146.669714 
L 99.456349 145.328762 
L 99.366683 143.98781 
L 98.637397 142.646857 
L 98.287699 141.305905 
L 97.636124 139.964952 
L 97.029383 138.624 
L 96.476441 137.283048 
L 95.962355 135.942095 
L 95.005915 134.601143 
L 94.318474 133.26019 
L 94.085341 131.919238 
L 93.541366 130.578286 
L 92.564004 129.237333 
L 92.014051 127.896381 
L 91.293733 126.555429 
L 91.227977 125.214476 
L 91.1413 123.873524 
L 90.465814 122.532571 
L 90.163938 121.191619 
L 89.990583 119.850667 
L 89.933795 118.509714 
L 89.897928 117.168762 
L 89.694685 115.82781 
L 89.545241 114.486857 
L 89.318086 113.145905 
L 89.198531 111.804952 
L 89.108865 110.464 
L 88.965399 109.123048 
L 88.8847 107.782095 
L 88.609723 106.441143 
L 88.48419 105.10019 
L 88.286925 103.759238 
L 88.104603 102.418286 
L 87.82066 101.077333 
L 87.757894 99.736381 
L 87.566606 98.395429 
L 87.136208 97.054476 
L 87.067464 95.713524 
L 87.028609 94.372571 
L 84.780975 93.031619 
L 83.645203 91.690667 
L 83.343326 90.349714 
L 82.742562 89.008762 
L 82.56323 87.66781 
L 82.132832 86.326857 
L 81.908666 84.985905 
L 81.810034 83.644952 
L 81.675534 82.304 
L 81.570924 80.963048 
L 81.487235 79.622095 
L 81.484246 78.281143 
L 81.269047 76.94019 
L 80.820716 75.599238 
L 80.569651 74.258286 
L 80.14523 72.917333 
L 79.406978 71.576381 
L 79.293401 70.235429 
L 79.069236 68.894476 
L 78.815181 67.553524 
L 78.588027 66.212571 
L 78.405705 64.871619 
L 77.894608 63.530667 
L 77.353622 62.189714 
L 77.147389 60.848762 
L 76.956101 59.50781 
L 76.770791 58.166857 
L 75.216576 56.825905 
L 74.128626 55.484952 
L 73.832727 54.144 
z
" clip-path="url(#p00fe467279)" style="fill: #ff0000"/>
   </g>
   <g id="matplotlib.axis_1">
    <g id="xtick_1">
     <g id="line2d_1">
      <defs>
       <path id="m134009478c" d="M 0 0 
L 0 3.5 
" style="stroke: #000000; stroke-width: 0.8"/>
      </defs>
      <g>
       <use xlink:href="#m134009478c" x="114.024124" y="307.584" style="stroke: #000000; stroke-width: 0.8"/>
      </g>
     </g>
     <g id="text_1">
      <!-- 200 -->
      <g transform="translate(104.480374 322.182437)scale(0.1 -0.1)">
       <defs>
        <path id="DejaVuSans-32" d="M 1228 531 
L 3431 531 
L 3431 0 
L 469 0 
L 469 531 
Q 828 903 1448 1529 
Q 2069 2156 2228 2338 
Q 2531 2678 2651 2914 
Q 2772 3150 2772 3378 
Q 2772 3750 2511 3984 
Q 2250 4219 1831 4219 
Q 1534 4219 1204 4116 
Q 875 4013 500 3803 
L 500 4441 
Q 881 4594 1212 4672 
Q 1544 4750 1819 4750 
Q 2544 4750 2975 4387 
Q 3406 4025 3406 3419 
Q 3406 3131 3298 2873 
Q 3191 2616 2906 2266 
Q 2828 2175 2409 1742 
Q 1991 1309 1228 531 
z
" transform="scale(0.015625)"/>
        <path id="DejaVuSans-30" d="M 2034 4250 
Q 1547 4250 1301 3770 
Q 1056 3291 1056 2328 
Q 1056 1369 1301 889 
Q 1547 409 2034 409 
Q 2525 409 2770 889 
Q 3016 1369 3016 2328 
Q 3016 3291 2770 3770 
Q 2525 4250 2034 4250 
z
M 2034 4750 
Q 2819 4750 3233 4129 
Q 3647 3509 3647 2328 
Q 3647 1150 3233 529 
Q 2819 -91 2034 -91 
Q 1250 -91 836 529 
Q 422 1150 422 2328 
Q 422 3509 836 4129 
Q 1250 4750 2034 4750 
z
" transform="scale(0.015625)"/>
       </defs>
       <use xlink:href="#DejaVuSans-32"/>
       <use xlink:href="#DejaVuSans-30" x="63.623047"/>
       <use xlink:href="#DejaVuSans-30" x="127.246094"/>
      </g>
     </g>
    </g>
    <g id="xtick_2">
     <g id="line2d_2">
      <g>
       <use xlink:href="#m134009478c" x="173.801615" y="307.584" style="stroke: #000000; stroke-width: 0.8"/>
      </g>
     </g>
     <g id="text_2">
      <!-- 400 -->
      <g transform="translate(164.257865 322.182437)scale(0.1 -0.1)">
       <defs>
        <path id="DejaVuSans-34" d="M 2419 4116 
L 825 1625 
L 2419 1625 
L 2419 4116 
z
M 2253 4666 
L 3047 4666 
L 3047 1625 
L 3713 1625 
L 3713 1100 
L 3047 1100 
L 3047 0 
L 2419 0 
L 2419 1100 
L 313 1100 
L 313 1709 
L 2253 4666 
z
" transform="scale(0.015625)"/>
       </defs>
       <use xlink:href="#DejaVuSans-34"/>
       <use xlink:href="#DejaVuSans-30" x="63.623047"/>
       <use xlink:href="#DejaVuSans-30" x="127.246094"/>
      </g>
     </g>
    </g>
    <g id="xtick_3">
     <g id="line2d_3">
      <g>
       <use xlink:href="#m134009478c" x="233.579107" y="307.584" style="stroke: #000000; stroke-width: 0.8"/>
      </g>
     </g>
     <g id="text_3">
      <!-- 600 -->
      <g transform="translate(224.035357 322.182437)scale(0.1 -0.1)">
       <defs>
        <path id="DejaVuSans-36" d="M 2113 2584 
Q 1688 2584 1439 2293 
Q 1191 2003 1191 1497 
Q 1191 994 1439 701 
Q 1688 409 2113 409 
Q 2538 409 2786 701 
Q 3034 994 3034 1497 
Q 3034 2003 2786 2293 
Q 2538 2584 2113 2584 
z
M 3366 4563 
L 3366 3988 
Q 3128 4100 2886 4159 
Q 2644 4219 2406 4219 
Q 1781 4219 1451 3797 
Q 1122 3375 1075 2522 
Q 1259 2794 1537 2939 
Q 1816 3084 2150 3084 
Q 2853 3084 3261 2657 
Q 3669 2231 3669 1497 
Q 3669 778 3244 343 
Q 2819 -91 2113 -91 
Q 1303 -91 875 529 
Q 447 1150 447 2328 
Q 447 3434 972 4092 
Q 1497 4750 2381 4750 
Q 2619 4750 2861 4703 
Q 3103 4656 3366 4563 
z
" transform="scale(0.015625)"/>
       </defs>
       <use xlink:href="#DejaVuSans-36"/>
       <use xlink:href="#DejaVuSans-30" x="63.623047"/>
       <use xlink:href="#DejaVuSans-30" x="127.246094"/>
      </g>
     </g>
    </g>
    <g id="xtick_4">
     <g id="line2d_4">
      <g>
       <use xlink:href="#m134009478c" x="293.356598" y="307.584" style="stroke: #000000; stroke-width: 0.8"/>
      </g>
     </g>
     <g id="text_4">
      <!-- 800 -->
      <g transform="translate(283.812848 322.182437)scale(0.1 -0.1)">
       <defs>
        <path id="DejaVuSans-38" d="M 2034 2216 
Q 1584 2216 1326 1975 
Q 1069 1734 1069 1313 
Q 1069 891 1326 650 
Q 1584 409 2034 409 
Q 2484 409 2743 651 
Q 3003 894 3003 1313 
Q 3003 1734 2745 1975 
Q 2488 2216 2034 2216 
z
M 1403 2484 
Q 997 2584 770 2862 
Q 544 3141 544 3541 
Q 544 4100 942 4425 
Q 1341 4750 2034 4750 
Q 2731 4750 3128 4425 
Q 3525 4100 3525 3541 
Q 3525 3141 3298 2862 
Q 3072 2584 2669 2484 
Q 3125 2378 3379 2068 
Q 3634 1759 3634 1313 
Q 3634 634 3220 271 
Q 2806 -91 2034 -91 
Q 1263 -91 848 271 
Q 434 634 434 1313 
Q 434 1759 690 2068 
Q 947 2378 1403 2484 
z
M 1172 3481 
Q 1172 3119 1398 2916 
Q 1625 2713 2034 2713 
Q 2441 2713 2670 2916 
Q 2900 3119 2900 3481 
Q 2900 3844 2670 4047 
Q 2441 4250 2034 4250 
Q 1625 4250 1398 4047 
Q 1172 3844 1172 3481 
z
" transform="scale(0.015625)"/>
       </defs>
       <use xlink:href="#DejaVuSans-38"/>
       <use xlink:href="#DejaVuSans-30" x="63.623047"/>
       <use xlink:href="#DejaVuSans-30" x="127.246094"/>
      </g>
     </g>
    </g>
    <g id="xtick_5">
     <g id="line2d_5">
      <g>
       <use xlink:href="#m134009478c" x="353.13409" y="307.584" style="stroke: #000000; stroke-width: 0.8"/>
      </g>
     </g>
     <g id="text_5">
      <!-- 1000 -->
      <g transform="translate(340.40909 322.182437)scale(0.1 -0.1)">
       <defs>
        <path id="DejaVuSans-31" d="M 794 531 
L 1825 531 
L 1825 4091 
L 703 3866 
L 703 4441 
L 1819 4666 
L 2450 4666 
L 2450 531 
L 3481 531 
L 3481 0 
L 794 0 
L 794 531 
z
" transform="scale(0.015625)"/>
       </defs>
       <use xlink:href="#DejaVuSans-31"/>
       <use xlink:href="#DejaVuSans-30" x="63.623047"/>
       <use xlink:href="#DejaVuSans-30" x="127.246094"/>
       <use xlink:href="#DejaVuSans-30" x="190.869141"/>
      </g>
     </g>
    </g>
    <g id="xtick_6">
     <g id="line2d_6">
      <g>
       <use xlink:href="#m134009478c" x="412.911581" y="307.584" style="stroke: #000000; stroke-width: 0.8"/>
      </g>
     </g>
     <g id="text_6">
      <!-- 1200 -->
      <g transform="translate(400.186581 322.182437)scale(0.1 -0.1)">
       <use xlink:href="#DejaVuSans-31"/>
       <use xlink:href="#DejaVuSans-32" x="63.623047"/>
       <use xlink:href="#DejaVuSans-30" x="127.246094"/>
       <use xlink:href="#DejaVuSans-30" x="190.869141"/>
      </g>
     </g>
    </g>
    <g id="text_7">
     <!-- Score -->
     <g transform="translate(222.157656 335.860562)scale(0.1 -0.1)">
      <defs>
       <path id="DejaVuSans-53" d="M 3425 4513 
L 3425 3897 
Q 3066 4069 2747 4153 
Q 2428 4238 2131 4238 
Q 1616 4238 1336 4038 
Q 1056 3838 1056 3469 
Q 1056 3159 1242 3001 
Q 1428 2844 1947 2747 
L 2328 2669 
Q 3034 2534 3370 2195 
Q 3706 1856 3706 1288 
Q 3706 609 3251 259 
Q 2797 -91 1919 -91 
Q 1588 -91 1214 -16 
Q 841 59 441 206 
L 441 856 
Q 825 641 1194 531 
Q 1563 422 1919 422 
Q 2459 422 2753 634 
Q 3047 847 3047 1241 
Q 3047 1584 2836 1778 
Q 2625 1972 2144 2069 
L 1759 2144 
Q 1053 2284 737 2584 
Q 422 2884 422 3419 
Q 422 4038 858 4394 
Q 1294 4750 2059 4750 
Q 2388 4750 2728 4690 
Q 3069 4631 3425 4513 
z
" transform="scale(0.015625)"/>
       <path id="DejaVuSans-63" d="M 3122 3366 
L 3122 2828 
Q 2878 2963 2633 3030 
Q 2388 3097 2138 3097 
Q 1578 3097 1268 2742 
Q 959 2388 959 1747 
Q 959 1106 1268 751 
Q 1578 397 2138 397 
Q 2388 397 2633 464 
Q 2878 531 3122 666 
L 3122 134 
Q 2881 22 2623 -34 
Q 2366 -91 2075 -91 
Q 1284 -91 818 406 
Q 353 903 353 1747 
Q 353 2603 823 3093 
Q 1294 3584 2113 3584 
Q 2378 3584 2631 3529 
Q 2884 3475 3122 3366 
z
" transform="scale(0.015625)"/>
       <path id="DejaVuSans-6f" d="M 1959 3097 
Q 1497 3097 1228 2736 
Q 959 2375 959 1747 
Q 959 1119 1226 758 
Q 1494 397 1959 397 
Q 2419 397 2687 759 
Q 2956 1122 2956 1747 
Q 2956 2369 2687 2733 
Q 2419 3097 1959 3097 
z
M 1959 3584 
Q 2709 3584 3137 3096 
Q 3566 2609 3566 1747 
Q 3566 888 3137 398 
Q 2709 -91 1959 -91 
Q 1206 -91 779 398 
Q 353 888 353 1747 
Q 353 2609 779 3096 
Q 1206 3584 1959 3584 
z
" transform="scale(0.015625)"/>
       <path id="DejaVuSans-72" d="M 2631 2963 
Q 2534 3019 2420 3045 
Q 2306 3072 2169 3072 
Q 1681 3072 1420 2755 
Q 1159 2438 1159 1844 
L 1159 0 
L 581 0 
L 581 3500 
L 1159 3500 
L 1159 2956 
Q 1341 3275 1631 3429 
Q 1922 3584 2338 3584 
Q 2397 3584 2469 3576 
Q 2541 3569 2628 3553 
L 2631 2963 
z
" transform="scale(0.015625)"/>
       <path id="DejaVuSans-65" d="M 3597 1894 
L 3597 1613 
L 953 1613 
Q 991 1019 1311 708 
Q 1631 397 2203 397 
Q 2534 397 2845 478 
Q 3156 559 3463 722 
L 3463 178 
Q 3153 47 2828 -22 
Q 2503 -91 2169 -91 
Q 1331 -91 842 396 
Q 353 884 353 1716 
Q 353 2575 817 3079 
Q 1281 3584 2069 3584 
Q 2775 3584 3186 3129 
Q 3597 2675 3597 1894 
z
M 3022 2063 
Q 3016 2534 2758 2815 
Q 2500 3097 2075 3097 
Q 1594 3097 1305 2825 
Q 1016 2553 972 2059 
L 3022 2063 
z
" transform="scale(0.015625)"/>
      </defs>
      <use xlink:href="#DejaVuSans-53"/>
      <use xlink:href="#DejaVuSans-63" x="63.476562"/>
      <use xlink:href="#DejaVuSans-6f" x="118.457031"/>
      <use xlink:href="#DejaVuSans-72" x="179.638672"/>
      <use xlink:href="#DejaVuSans-65" x="218.501953"/>
     </g>
    </g>
   </g>
   <g id="matplotlib.axis_2">
    <g id="ytick_1">
     <g id="line2d_7">
      <defs>
       <path id="mc735d052a8" d="M 0 0 
L -3.5 0 
" style="stroke: #000000; stroke-width: 0.8"/>
      </defs>
      <g>
       <use xlink:href="#mc735d052a8" x="57.6" y="307.584" style="stroke: #000000; stroke-width: 0.8"/>
      </g>
     </g>
     <g id="text_8">
      <!-- 0 -->
      <g transform="translate(44.2375 311.383219)scale(0.1 -0.1)">
       <use xlink:href="#DejaVuSans-30"/>
      </g>
     </g>
    </g>
    <g id="ytick_2">
     <g id="line2d_8">
      <g>
       <use xlink:href="#mc735d052a8" x="57.6" y="274.06019" style="stroke: #000000; stroke-width: 0.8"/>
      </g>
     </g>
     <g id="text_9">
      <!-- 25 -->
      <g transform="translate(37.875 277.859409)scale(0.1 -0.1)">
       <defs>
        <path id="DejaVuSans-35" d="M 691 4666 
L 3169 4666 
L 3169 4134 
L 1269 4134 
L 1269 2991 
Q 1406 3038 1543 3061 
Q 1681 3084 1819 3084 
Q 2600 3084 3056 2656 
Q 3513 2228 3513 1497 
Q 3513 744 3044 326 
Q 2575 -91 1722 -91 
Q 1428 -91 1123 -41 
Q 819 9 494 109 
L 494 744 
Q 775 591 1075 516 
Q 1375 441 1709 441 
Q 2250 441 2565 725 
Q 2881 1009 2881 1497 
Q 2881 1984 2565 2268 
Q 2250 2553 1709 2553 
Q 1456 2553 1204 2497 
Q 953 2441 691 2322 
L 691 4666 
z
" transform="scale(0.015625)"/>
       </defs>
       <use xlink:href="#DejaVuSans-32"/>
       <use xlink:href="#DejaVuSans-35" x="63.623047"/>
      </g>
     </g>
    </g>
    <g id="ytick_3">
     <g id="line2d_9">
      <g>
       <use xlink:href="#mc735d052a8" x="57.6" y="240.536381" style="stroke: #000000; stroke-width: 0.8"/>
      </g>
     </g>
     <g id="text_10">
      <!-- 50 -->
      <g transform="translate(37.875 244.3356)scale(0.1 -0.1)">
       <use xlink:href="#DejaVuSans-35"/>
       <use xlink:href="#DejaVuSans-30" x="63.623047"/>
      </g>
     </g>
    </g>
    <g id="ytick_4">
     <g id="line2d_10">
      <g>
       <use xlink:href="#mc735d052a8" x="57.6" y="207.012571" style="stroke: #000000; stroke-width: 0.8"/>
      </g>
     </g>
     <g id="text_11">
      <!-- 75 -->
      <g transform="translate(37.875 210.81179)scale(0.1 -0.1)">
       <defs>
        <path id="DejaVuSans-37" d="M 525 4666 
L 3525 4666 
L 3525 4397 
L 1831 0 
L 1172 0 
L 2766 4134 
L 525 4134 
L 525 4666 
z
" transform="scale(0.015625)"/>
       </defs>
       <use xlink:href="#DejaVuSans-37"/>
       <use xlink:href="#DejaVuSans-35" x="63.623047"/>
      </g>
     </g>
    </g>
    <g id="ytick_5">
     <g id="line2d_11">
      <g>
       <use xlink:href="#mc735d052a8" x="57.6" y="173.488762" style="stroke: #000000; stroke-width: 0.8"/>
      </g>
     </g>
     <g id="text_12">
      <!-- 100 -->
      <g transform="translate(31.5125 177.287981)scale(0.1 -0.1)">
       <use xlink:href="#DejaVuSans-31"/>
       <use xlink:href="#DejaVuSans-30" x="63.623047"/>
       <use xlink:href="#DejaVuSans-30" x="127.246094"/>
      </g>
     </g>
    </g>
    <g id="ytick_6">
     <g id="line2d_12">
      <g>
       <use xlink:href="#mc735d052a8" x="57.6" y="139.964952" style="stroke: #000000; stroke-width: 0.8"/>
      </g>
     </g>
     <g id="text_13">
      <!-- 125 -->
      <g transform="translate(31.5125 143.764171)scale(0.1 -0.1)">
       <use xlink:href="#DejaVuSans-31"/>
       <use xlink:href="#DejaVuSans-32" x="63.623047"/>
       <use xlink:href="#DejaVuSans-35" x="127.246094"/>
      </g>
     </g>
    </g>
    <g id="ytick_7">
     <g id="line2d_13">
      <g>
       <use xlink:href="#mc735d052a8" x="57.6" y="106.441143" style="stroke: #000000; stroke-width: 0.8"/>
      </g>
     </g>
     <g id="text_14">
      <!-- 150 -->
      <g transform="translate(31.5125 110.240362)scale(0.1 -0.1)">
       <use xlink:href="#DejaVuSans-31"/>
       <use xlink:href="#DejaVuSans-35" x="63.623047"/>
       <use xlink:href="#DejaVuSans-30" x="127.246094"/>
      </g>
     </g>
    </g>
    <g id="ytick_8">
     <g id="line2d_14">
      <g>
       <use xlink:href="#mc735d052a8" x="57.6" y="72.917333" style="stroke: #000000; stroke-width: 0.8"/>
      </g>
     </g>
     <g id="text_15">
      <!-- 175 -->
      <g transform="translate(31.5125 76.716552)scale(0.1 -0.1)">
       <use xlink:href="#DejaVuSans-31"/>
       <use xlink:href="#DejaVuSans-37" x="63.623047"/>
       <use xlink:href="#DejaVuSans-35" x="127.246094"/>
      </g>
     </g>
    </g>
    <g id="text_16">
     <!-- Number of crosslinks -->
     <g transform="translate(25.432812 227.019406)rotate(-90)scale(0.1 -0.1)">
      <defs>
       <path id="DejaVuSans-4e" d="M 628 4666 
L 1478 4666 
L 3547 763 
L 3547 4666 
L 4159 4666 
L 4159 0 
L 3309 0 
L 1241 3903 
L 1241 0 
L 628 0 
L 628 4666 
z
" transform="scale(0.015625)"/>
       <path id="DejaVuSans-75" d="M 544 1381 
L 544 3500 
L 1119 3500 
L 1119 1403 
Q 1119 906 1312 657 
Q 1506 409 1894 409 
Q 2359 409 2629 706 
Q 2900 1003 2900 1516 
L 2900 3500 
L 3475 3500 
L 3475 0 
L 2900 0 
L 2900 538 
Q 2691 219 2414 64 
Q 2138 -91 1772 -91 
Q 1169 -91 856 284 
Q 544 659 544 1381 
z
M 1991 3584 
L 1991 3584 
z
" transform="scale(0.015625)"/>
       <path id="DejaVuSans-6d" d="M 3328 2828 
Q 3544 3216 3844 3400 
Q 4144 3584 4550 3584 
Q 5097 3584 5394 3201 
Q 5691 2819 5691 2113 
L 5691 0 
L 5113 0 
L 5113 2094 
Q 5113 2597 4934 2840 
Q 4756 3084 4391 3084 
Q 3944 3084 3684 2787 
Q 3425 2491 3425 1978 
L 3425 0 
L 2847 0 
L 2847 2094 
Q 2847 2600 2669 2842 
Q 2491 3084 2119 3084 
Q 1678 3084 1418 2786 
Q 1159 2488 1159 1978 
L 1159 0 
L 581 0 
L 581 3500 
L 1159 3500 
L 1159 2956 
Q 1356 3278 1631 3431 
Q 1906 3584 2284 3584 
Q 2666 3584 2933 3390 
Q 3200 3197 3328 2828 
z
" transform="scale(0.015625)"/>
       <path id="DejaVuSans-62" d="M 3116 1747 
Q 3116 2381 2855 2742 
Q 2594 3103 2138 3103 
Q 1681 3103 1420 2742 
Q 1159 2381 1159 1747 
Q 1159 1113 1420 752 
Q 1681 391 2138 391 
Q 2594 391 2855 752 
Q 3116 1113 3116 1747 
z
M 1159 2969 
Q 1341 3281 1617 3432 
Q 1894 3584 2278 3584 
Q 2916 3584 3314 3078 
Q 3713 2572 3713 1747 
Q 3713 922 3314 415 
Q 2916 -91 2278 -91 
Q 1894 -91 1617 61 
Q 1341 213 1159 525 
L 1159 0 
L 581 0 
L 581 4863 
L 1159 4863 
L 1159 2969 
z
" transform="scale(0.015625)"/>
       <path id="DejaVuSans-20" transform="scale(0.015625)"/>
       <path id="DejaVuSans-66" d="M 2375 4863 
L 2375 4384 
L 1825 4384 
Q 1516 4384 1395 4259 
Q 1275 4134 1275 3809 
L 1275 3500 
L 2222 3500 
L 2222 3053 
L 1275 3053 
L 1275 0 
L 697 0 
L 697 3053 
L 147 3053 
L 147 3500 
L 697 3500 
L 697 3744 
Q 697 4328 969 4595 
Q 1241 4863 1831 4863 
L 2375 4863 
z
" transform="scale(0.015625)"/>
       <path id="DejaVuSans-73" d="M 2834 3397 
L 2834 2853 
Q 2591 2978 2328 3040 
Q 2066 3103 1784 3103 
Q 1356 3103 1142 2972 
Q 928 2841 928 2578 
Q 928 2378 1081 2264 
Q 1234 2150 1697 2047 
L 1894 2003 
Q 2506 1872 2764 1633 
Q 3022 1394 3022 966 
Q 3022 478 2636 193 
Q 2250 -91 1575 -91 
Q 1294 -91 989 -36 
Q 684 19 347 128 
L 347 722 
Q 666 556 975 473 
Q 1284 391 1588 391 
Q 1994 391 2212 530 
Q 2431 669 2431 922 
Q 2431 1156 2273 1281 
Q 2116 1406 1581 1522 
L 1381 1569 
Q 847 1681 609 1914 
Q 372 2147 372 2553 
Q 372 3047 722 3315 
Q 1072 3584 1716 3584 
Q 2034 3584 2315 3537 
Q 2597 3491 2834 3397 
z
" transform="scale(0.015625)"/>
       <path id="DejaVuSans-6c" d="M 603 4863 
L 1178 4863 
L 1178 0 
L 603 0 
L 603 4863 
z
" transform="scale(0.015625)"/>
       <path id="DejaVuSans-69" d="M 603 3500 
L 1178 3500 
L 1178 0 
L 603 0 
L 603 3500 
z
M 603 4863 
L 1178 4863 
L 1178 4134 
L 603 4134 
L 603 4863 
z
" transform="scale(0.015625)"/>
       <path id="DejaVuSans-6e" d="M 3513 2113 
L 3513 0 
L 2938 0 
L 2938 2094 
Q 2938 2591 2744 2837 
Q 2550 3084 2163 3084 
Q 1697 3084 1428 2787 
Q 1159 2491 1159 1978 
L 1159 0 
L 581 0 
L 581 3500 
L 1159 3500 
L 1159 2956 
Q 1366 3272 1645 3428 
Q 1925 3584 2291 3584 
Q 2894 3584 3203 3211 
Q 3513 2838 3513 2113 
z
" transform="scale(0.015625)"/>
       <path id="DejaVuSans-6b" d="M 581 4863 
L 1159 4863 
L 1159 1991 
L 2875 3500 
L 3609 3500 
L 1753 1863 
L 3688 0 
L 2938 0 
L 1159 1709 
L 1159 0 
L 581 0 
L 581 4863 
z
" transform="scale(0.015625)"/>
      </defs>
      <use xlink:href="#DejaVuSans-4e"/>
      <use xlink:href="#DejaVuSans-75" x="74.804688"/>
      <use xlink:href="#DejaVuSans-6d" x="138.183594"/>
      <use xlink:href="#DejaVuSans-62" x="235.595703"/>
      <use xlink:href="#DejaVuSans-65" x="299.072266"/>
      <use xlink:href="#DejaVuSans-72" x="360.595703"/>
      <use xlink:href="#DejaVuSans-20" x="401.708984"/>
      <use xlink:href="#DejaVuSans-6f" x="433.496094"/>
      <use xlink:href="#DejaVuSans-66" x="494.677734"/>
      <use xlink:href="#DejaVuSans-20" x="529.882812"/>
      <use xlink:href="#DejaVuSans-63" x="561.669922"/>
      <use xlink:href="#DejaVuSans-72" x="616.650391"/>
      <use xlink:href="#DejaVuSans-6f" x="655.513672"/>
      <use xlink:href="#DejaVuSans-73" x="716.695312"/>
      <use xlink:href="#DejaVuSans-73" x="768.794922"/>
      <use xlink:href="#DejaVuSans-6c" x="820.894531"/>
      <use xlink:href="#DejaVuSans-69" x="848.677734"/>
      <use xlink:href="#DejaVuSans-6e" x="876.460938"/>
      <use xlink:href="#DejaVuSans-6b" x="939.839844"/>
      <use xlink:href="#DejaVuSans-73" x="997.75"/>
     </g>
    </g>
   </g>
   <g id="patch_3">
    <path d="M 57.6 307.584 
L 57.6 41.472 
" style="fill: none; stroke: #000000; stroke-width: 0.8; stroke-linejoin: miter; stroke-linecap: square"/>
   </g>
   <g id="patch_4">
    <path d="M 414.72 307.584 
L 414.72 41.472 
" style="fill: none; stroke: #000000; stroke-width: 0.8; stroke-linejoin: miter; stroke-linecap: square"/>
   </g>
   <g id="patch_5">
    <path d="M 57.6 307.584 
L 414.72 307.584 
" style="fill: none; stroke: #000000; stroke-width: 0.8; stroke-linejoin: miter; stroke-linecap: square"/>
   </g>
   <g id="patch_6">
    <path d="M 57.6 41.472 
L 414.72 41.472 
" style="fill: none; stroke: #000000; stroke-width: 0.8; stroke-linejoin: miter; stroke-linecap: square"/>
   </g>
   <g id="legend_1">
    <g id="patch_7">
     <path d="M 293.087188 93.506375 
L 407.72 93.506375 
Q 409.72 93.506375 409.72 91.506375 
L 409.72 48.472 
Q 409.72 46.472 407.72 46.472 
L 293.087188 46.472 
Q 291.087188 46.472 291.087188 48.472 
L 291.087188 91.506375 
Q 291.087188 93.506375 293.087188 93.506375 
z
" style="fill: #ffffff; opacity: 0.8; stroke: #cccccc; stroke-linejoin: miter"/>
    </g>
    <g id="patch_8">
     <path d="M 295.087188 58.070438 
L 315.087188 58.070438 
L 315.087188 51.070438 
L 295.087188 51.070438 
z
" style="fill: #008000"/>
    </g>
    <g id="text_17">
     <!-- true -->
     <g transform="translate(323.087188 58.070438)scale(0.1 -0.1)">
      <defs>
       <path id="DejaVuSans-74" d="M 1172 4494 
L 1172 3500 
L 2356 3500 
L 2356 3053 
L 1172 3053 
L 1172 1153 
Q 1172 725 1289 603 
Q 1406 481 1766 481 
L 2356 481 
L 2356 0 
L 1766 0 
Q 1100 0 847 248 
Q 594 497 594 1153 
L 594 3053 
L 172 3053 
L 172 3500 
L 594 3500 
L 594 4494 
L 1172 4494 
z
" transform="scale(0.015625)"/>
      </defs>
      <use xlink:href="#DejaVuSans-74"/>
      <use xlink:href="#DejaVuSans-72" x="39.208984"/>
      <use xlink:href="#DejaVuSans-75" x="80.322266"/>
      <use xlink:href="#DejaVuSans-65" x="143.701172"/>
     </g>
    </g>
    <g id="patch_9">
     <path d="M 295.087188 72.748563 
L 315.087188 72.748563 
L 315.087188 65.748563 
L 295.087188 65.748563 
z
" style="fill: #7cfc00"/>
    </g>
    <g id="text_18">
     <!-- true homeotypic -->
     <g transform="translate(323.087188 72.748563)scale(0.1 -0.1)">
      <defs>
       <path id="DejaVuSans-68" d="M 3513 2113 
L 3513 0 
L 2938 0 
L 2938 2094 
Q 2938 2591 2744 2837 
Q 2550 3084 2163 3084 
Q 1697 3084 1428 2787 
Q 1159 2491 1159 1978 
L 1159 0 
L 581 0 
L 581 4863 
L 1159 4863 
L 1159 2956 
Q 1366 3272 1645 3428 
Q 1925 3584 2291 3584 
Q 2894 3584 3203 3211 
Q 3513 2838 3513 2113 
z
" transform="scale(0.015625)"/>
       <path id="DejaVuSans-79" d="M 2059 -325 
Q 1816 -950 1584 -1140 
Q 1353 -1331 966 -1331 
L 506 -1331 
L 506 -850 
L 844 -850 
Q 1081 -850 1212 -737 
Q 1344 -625 1503 -206 
L 1606 56 
L 191 3500 
L 800 3500 
L 1894 763 
L 2988 3500 
L 3597 3500 
L 2059 -325 
z
" transform="scale(0.015625)"/>
       <path id="DejaVuSans-70" d="M 1159 525 
L 1159 -1331 
L 581 -1331 
L 581 3500 
L 1159 3500 
L 1159 2969 
Q 1341 3281 1617 3432 
Q 1894 3584 2278 3584 
Q 2916 3584 3314 3078 
Q 3713 2572 3713 1747 
Q 3713 922 3314 415 
Q 2916 -91 2278 -91 
Q 1894 -91 1617 61 
Q 1341 213 1159 525 
z
M 3116 1747 
Q 3116 2381 2855 2742 
Q 2594 3103 2138 3103 
Q 1681 3103 1420 2742 
Q 1159 2381 1159 1747 
Q 1159 1113 1420 752 
Q 1681 391 2138 391 
Q 2594 391 2855 752 
Q 3116 1113 3116 1747 
z
" transform="scale(0.015625)"/>
      </defs>
      <use xlink:href="#DejaVuSans-74"/>
      <use xlink:href="#DejaVuSans-72" x="39.208984"/>
      <use xlink:href="#DejaVuSans-75" x="80.322266"/>
      <use xlink:href="#DejaVuSans-65" x="143.701172"/>
      <use xlink:href="#DejaVuSans-20" x="205.224609"/>
      <use xlink:href="#DejaVuSans-68" x="237.011719"/>
      <use xlink:href="#DejaVuSans-6f" x="300.390625"/>
      <use xlink:href="#DejaVuSans-6d" x="361.572266"/>
      <use xlink:href="#DejaVuSans-65" x="458.984375"/>
      <use xlink:href="#DejaVuSans-6f" x="520.507812"/>
      <use xlink:href="#DejaVuSans-74" x="581.689453"/>
      <use xlink:href="#DejaVuSans-79" x="620.898438"/>
      <use xlink:href="#DejaVuSans-70" x="680.078125"/>
      <use xlink:href="#DejaVuSans-69" x="743.554688"/>
      <use xlink:href="#DejaVuSans-63" x="771.337891"/>
     </g>
    </g>
    <g id="patch_10">
     <path d="M 295.087188 87.426688 
L 315.087188 87.426688 
L 315.087188 80.426688 
L 295.087188 80.426688 
z
" style="fill: #ff0000"/>
    </g>
    <g id="text_19">
     <!-- false -->
     <g transform="translate(323.087188 87.426688)scale(0.1 -0.1)">
      <defs>
       <path id="DejaVuSans-61" d="M 2194 1759 
Q 1497 1759 1228 1600 
Q 959 1441 959 1056 
Q 959 750 1161 570 
Q 1363 391 1709 391 
Q 2188 391 2477 730 
Q 2766 1069 2766 1631 
L 2766 1759 
L 2194 1759 
z
M 3341 1997 
L 3341 0 
L 2766 0 
L 2766 531 
Q 2569 213 2275 61 
Q 1981 -91 1556 -91 
Q 1019 -91 701 211 
Q 384 513 384 1019 
Q 384 1609 779 1909 
Q 1175 2209 1959 2209 
L 2766 2209 
L 2766 2266 
Q 2766 2663 2505 2880 
Q 2244 3097 1772 3097 
Q 1472 3097 1187 3025 
Q 903 2953 641 2809 
L 641 3341 
Q 956 3463 1253 3523 
Q 1550 3584 1831 3584 
Q 2591 3584 2966 3190 
Q 3341 2797 3341 1997 
z
" transform="scale(0.015625)"/>
      </defs>
      <use xlink:href="#DejaVuSans-66"/>
      <use xlink:href="#DejaVuSans-61" x="35.205078"/>
      <use xlink:href="#DejaVuSans-6c" x="96.484375"/>
      <use xlink:href="#DejaVuSans-73" x="124.267578"/>
      <use xlink:href="#DejaVuSans-65" x="176.367188"/>
     </g>
    </g>
   </g>
  </g>
 </g>
 <defs>
  <clipPath id="p00fe467279">
   <rect x="57.6" y="41.472" width="357.12" height="266.112"/>
  </clipPath>
 </defs>
</svg>
