<?xml version="1.0" encoding="utf-8" standalone="no"?>
<!DOCTYPE svg PUBLIC "-//W3C//DTD SVG 1.1//EN"
  "http://www.w3.org/Graphics/SVG/1.1/DTD/svg11.dtd">
<svg xmlns:xlink="http://www.w3.org/1999/xlink" width="460.8pt" height="345.6pt" viewBox="0 0 460.8 345.6" xmlns="http://www.w3.org/2000/svg" version="1.1">
 <metadata>
  <rdf:RDF xmlns:dc="http://purl.org/dc/elements/1.1/" xmlns:cc="http://creativecommons.org/ns#" xmlns:rdf="http://www.w3.org/1999/02/22-rdf-syntax-ns#">
   <cc:Work>
    <dc:type rdf:resource="http://purl.org/dc/dcmitype/StillImage"/>
    <dc:date>2022-07-26T17:07:12.483106</dc:date>
    <dc:format>image/svg+xml</dc:format>
    <dc:creator>
     <cc:Agent>
      <dc:title>Matplotlib v3.5.1, https://matplotlib.org/</dc:title>
     </cc:Agent>
    </dc:creator>
   </cc:Work>
  </rdf:RDF>
 </metadata>
 <defs>
  <style type="text/css">*{stroke-linejoin: round; stroke-linecap: butt}</style>
 </defs>
 <g id="figure_1">
  <g id="patch_1">
   <path d="M 0 345.6 
L 460.8 345.6 
L 460.8 0 
L 0 0 
z
" style="fill: #ffffff"/>
  </g>
  <g id="axes_1">
   <g id="patch_2">
    <path d="M 57.6 307.584 
L 414.72 307.584 
L 414.72 41.472 
L 57.6 41.472 
z
" style="fill: #ffffff"/>
   </g>
   <g id="PolyCollection_1">
    <path d="M 73.832727 117.504 
L 73.832727 307.584 
L 73.931816 307.584 
L 75.256303 307.584 
L 76.154708 307.584 
L 76.607214 307.584 
L 77.231473 307.584 
L 77.234776 307.584 
L 77.419742 307.584 
L 77.85243 307.584 
L 78.116666 307.584 
L 78.724411 307.584 
L 79.176917 307.584 
L 79.269399 307.584 
L 79.285914 307.584 
L 79.431244 307.584 
L 80.663249 307.584 
L 81.099239 307.584 
L 82.195822 307.584 
L 82.403909 307.584 
L 82.730902 307.584 
L 82.882838 307.584 
L 83.612792 307.584 
L 83.916664 307.584 
L 84.92737 307.584 
L 85.181698 307.584 
L 86.919055 307.584 
L 87.37156 307.584 
L 87.384772 307.584 
L 87.625888 307.584 
L 87.662221 307.584 
L 88.537505 307.584 
L 88.742289 307.584 
L 89.042858 307.584 
L 89.287277 307.584 
L 89.426001 307.584 
L 89.766206 307.584 
L 89.772812 307.584 
L 90.453222 307.584 
L 90.882607 307.584 
L 91.150147 307.584 
L 91.516775 307.584 
L 92.259941 307.584 
L 93.521672 307.584 
L 93.68682 307.584 
L 94.145931 307.584 
L 94.297868 307.584 
L 95.021216 307.584 
L 95.117002 307.584 
L 95.579416 307.584 
L 95.602537 307.584 
L 95.770988 307.584 
L 96.01871 307.584 
L 96.134313 307.584 
L 96.629757 307.584 
L 97.062445 307.584 
L 97.339894 307.584 
L 97.353106 307.584 
L 97.544677 307.584 
L 97.845247 307.584 
L 98.822923 307.584 
L 98.84274 307.584 
L 99.665178 307.584 
L 99.681692 307.584 
L 100.140804 307.584 
L 100.144107 307.584 
L 100.652763 307.584 
L 101.141601 307.584 
L 101.230781 307.584 
L 101.260507 307.584 
L 101.557774 307.584 
L 101.914493 307.584 
L 102.538753 307.584 
L 102.885564 307.584 
L 102.974743 307.584 
L 104.068023 307.584 
L 104.7121 307.584 
L 105.052305 307.584 
L 105.653444 307.584 
L 105.795471 307.584 
L 106.337157 307.584 
L 106.839207 307.584 
L 107.328045 307.584 
L 108.49399 307.584 
L 109.114946 307.584 
L 110.561643 307.584 
L 110.687155 307.584 
L 110.796153 307.584 
L 111.169387 307.584 
L 112.523601 307.584 
L 113.088407 307.584 
L 113.177587 307.584 
L 114.92155 307.584 
L 115.71426 307.584 
L 115.971891 307.584 
L 116.777813 307.584 
L 117.814943 307.584 
L 118.406173 307.584 
L 118.951161 307.584 
L 119.334304 307.584 
L 119.796719 307.584 
L 121.401957 307.584 
L 121.649679 307.584 
L 121.719042 307.584 
L 121.722344 307.584 
L 122.812321 307.584 
L 122.881683 307.584 
L 123.294553 307.584 
L 123.796603 307.584 
L 123.842845 307.584 
L 124.242503 307.584 
L 124.642161 307.584 
L 124.675191 307.584 
L 124.691706 307.584 
L 126.184643 307.584 
L 126.812206 307.584 
L 128.625531 307.584 
L 129.758446 307.584 
L 129.794779 307.584 
L 129.844323 307.584 
L 129.953321 307.584 
L 130.05241 307.584 
L 131.528833 307.584 
L 132.783958 307.584 
L 133.170404 307.584 
L 135.092727 307.584 
L 135.918467 307.584 
L 136.816872 307.584 
L 137.457646 307.584 
L 137.873819 307.584 
L 138.60047 307.584 
L 139.356848 307.584 
L 140.39728 307.584 
L 142.243635 307.584 
L 146.157643 307.584 
L 146.293064 307.584 
L 150.801604 307.584 
L 152.733836 307.584 
L 152.998073 307.584 
L 153.622332 307.584 
L 155.917889 307.584 
L 158.246476 307.584 
L 159.184517 307.584 
L 159.47848 307.584 
L 161.004448 307.584 
L 161.509801 307.584 
L 161.820279 307.584 
L 162.890438 307.584 
L 166.133945 307.584 
L 167.048865 307.584 
L 168.267657 307.584 
L 170.767998 307.584 
L 171.937246 307.584 
L 172.809227 307.584 
L 182.529838 307.584 
L 183.018676 307.584 
L 183.527332 307.584 
L 184.184621 307.584 
L 189.700564 307.584 
L 189.928469 307.584 
L 194.559219 307.584 
L 195.913432 307.584 
L 197.122316 307.584 
L 197.683819 307.584 
L 198.750675 307.584 
L 200.59703 307.584 
L 211.470374 307.584 
L 213.339849 307.584 
L 213.663539 307.584 
L 215.595771 307.584 
L 215.972308 307.584 
L 217.775725 307.584 
L 220.507273 307.584 
L 221.148047 307.584 
L 221.851577 307.584 
L 225.402259 307.584 
L 234.733121 307.584 
L 242.845191 307.584 
L 249.365234 307.584 
L 256.611928 307.584 
L 257.345186 307.584 
L 260.892565 307.584 
L 264.344158 307.584 
L 270.07149 307.584 
L 270.286183 307.584 
L 288.686973 307.584 
L 290.989136 307.584 
L 295.084807 307.584 
L 304.485031 307.584 
L 318.377281 307.584 
L 319.275686 307.584 
L 320.203817 307.584 
L 338.548457 307.584 
L 341.62021 307.584 
L 342.766337 307.584 
L 385.050831 307.584 
L 398.487273 307.584 
L 398.487273 307.584 
L 398.487273 307.584 
L 385.050831 307.584 
L 342.766337 307.584 
L 341.62021 307.584 
L 338.548457 307.584 
L 320.203817 307.584 
L 319.275686 307.584 
L 318.377281 307.584 
L 304.485031 307.584 
L 295.084807 307.584 
L 290.989136 307.584 
L 288.686973 307.584 
L 270.286183 306.290939 
L 270.07149 306.290939 
L 264.344158 306.290939 
L 260.892565 306.290939 
L 257.345186 306.290939 
L 256.611928 304.997878 
L 249.365234 304.997878 
L 242.845191 304.997878 
L 234.733121 303.704816 
L 225.402259 302.411755 
L 221.851577 301.118694 
L 221.148047 299.825633 
L 220.507273 299.825633 
L 217.775725 298.532571 
L 215.972308 297.23951 
L 215.595771 297.23951 
L 213.663539 297.23951 
L 213.339849 295.946449 
L 211.470374 294.653388 
L 200.59703 293.360327 
L 198.750675 292.067265 
L 197.683819 292.067265 
L 197.122316 292.067265 
L 195.913432 290.774204 
L 194.559219 289.481143 
L 189.928469 288.188082 
L 189.700564 286.89502 
L 184.184621 285.601959 
L 183.527332 284.308898 
L 183.018676 283.015837 
L 182.529838 281.722776 
L 172.809227 280.429714 
L 171.937246 280.429714 
L 170.767998 279.136653 
L 168.267657 279.136653 
L 167.048865 277.843592 
L 166.133945 276.550531 
L 162.890438 275.257469 
L 161.820279 275.257469 
L 161.509801 273.964408 
L 161.004448 272.671347 
L 159.47848 271.378286 
L 159.184517 270.085224 
L 158.246476 270.085224 
L 155.917889 268.792163 
L 153.622332 267.499102 
L 152.998073 266.206041 
L 152.733836 266.206041 
L 150.801604 264.91298 
L 146.293064 263.619918 
L 146.157643 263.619918 
L 142.243635 263.619918 
L 140.39728 263.619918 
L 139.356848 262.326857 
L 138.60047 261.033796 
L 137.873819 261.033796 
L 137.457646 259.740735 
L 136.816872 258.447673 
L 135.918467 257.154612 
L 135.092727 255.861551 
L 133.170404 254.56849 
L 132.783958 253.275429 
L 131.528833 251.982367 
L 130.05241 250.689306 
L 129.953321 249.396245 
L 129.844323 248.103184 
L 129.794779 246.810122 
L 129.758446 246.810122 
L 128.625531 245.517061 
L 126.812206 244.224 
L 126.184643 244.224 
L 124.691706 244.224 
L 124.675191 242.930939 
L 124.642161 242.930939 
L 124.242503 241.637878 
L 123.842845 240.344816 
L 123.796603 239.051755 
L 123.294553 239.051755 
L 122.881683 237.758694 
L 122.812321 236.465633 
L 121.722344 235.172571 
L 121.719042 233.87951 
L 121.649679 232.586449 
L 121.401957 232.586449 
L 119.796719 231.293388 
L 119.334304 230.000327 
L 118.951161 228.707265 
L 118.406173 227.414204 
L 117.814943 226.121143 
L 116.777813 224.828082 
L 115.971891 223.53502 
L 115.71426 222.241959 
L 114.92155 220.948898 
L 113.177587 219.655837 
L 113.088407 218.362776 
L 112.523601 218.362776 
L 111.169387 218.362776 
L 110.796153 217.069714 
L 110.687155 215.776653 
L 110.561643 215.776653 
L 109.114946 214.483592 
L 108.49399 213.190531 
L 107.328045 213.190531 
L 106.839207 211.897469 
L 106.337157 210.604408 
L 105.795471 209.311347 
L 105.653444 208.018286 
L 105.052305 206.725224 
L 104.7121 205.432163 
L 104.068023 204.139102 
L 102.974743 202.846041 
L 102.885564 201.55298 
L 102.538753 200.259918 
L 101.914493 198.966857 
L 101.557774 197.673796 
L 101.260507 196.380735 
L 101.230781 195.087673 
L 101.141601 193.794612 
L 100.652763 193.794612 
L 100.144107 192.501551 
L 100.140804 191.20849 
L 99.681692 189.915429 
L 99.665178 188.622367 
L 98.84274 187.329306 
L 98.822923 186.036245 
L 97.845247 184.743184 
L 97.544677 183.450122 
L 97.353106 182.157061 
L 97.339894 180.864 
L 97.062445 179.570939 
L 96.629757 178.277878 
L 96.134313 176.984816 
L 96.01871 176.984816 
L 95.770988 176.984816 
L 95.602537 175.691755 
L 95.579416 174.398694 
L 95.117002 173.105633 
L 95.021216 171.812571 
L 94.297868 171.812571 
L 94.145931 170.51951 
L 93.68682 169.226449 
L 93.521672 167.933388 
L 92.259941 166.640327 
L 91.516775 165.347265 
L 91.150147 164.054204 
L 90.882607 162.761143 
L 90.453222 161.468082 
L 89.772812 160.17502 
L 89.766206 158.881959 
L 89.426001 157.588898 
L 89.287277 156.295837 
L 89.042858 155.002776 
L 88.742289 153.709714 
L 88.537505 152.416653 
L 87.662221 151.123592 
L 87.625888 149.830531 
L 87.384772 148.537469 
L 87.37156 147.244408 
L 86.919055 145.951347 
L 85.181698 144.658286 
L 84.92737 143.365224 
L 83.916664 142.072163 
L 83.612792 140.779102 
L 82.882838 139.486041 
L 82.730902 138.19298 
L 82.403909 136.899918 
L 82.195822 135.606857 
L 81.099239 134.313796 
L 80.663249 133.020735 
L 79.431244 131.727673 
L 79.285914 130.434612 
L 79.269399 129.141551 
L 79.176917 127.84849 
L 78.724411 126.555429 
L 78.116666 125.262367 
L 77.85243 123.969306 
L 77.419742 123.969306 
L 77.234776 122.676245 
L 77.231473 121.383184 
L 76.607214 120.090122 
L 76.154708 120.090122 
L 75.256303 120.090122 
L 73.931816 118.797061 
L 73.832727 117.504 
z
" clip-path="url(#pcf865f1ece)" style="fill: #008000"/>
   </g>
   <g id="PolyCollection_2">
    <path d="M 73.832727 58.023184 
L 73.832727 117.504 
L 73.931816 118.797061 
L 75.256303 120.090122 
L 76.154708 120.090122 
L 76.607214 120.090122 
L 77.231473 121.383184 
L 77.234776 122.676245 
L 77.419742 123.969306 
L 77.85243 123.969306 
L 78.116666 125.262367 
L 78.724411 126.555429 
L 79.176917 127.84849 
L 79.269399 129.141551 
L 79.285914 130.434612 
L 79.431244 131.727673 
L 80.663249 133.020735 
L 81.099239 134.313796 
L 82.195822 135.606857 
L 82.403909 136.899918 
L 82.730902 138.19298 
L 82.882838 139.486041 
L 83.612792 140.779102 
L 83.916664 142.072163 
L 84.92737 143.365224 
L 85.181698 144.658286 
L 86.919055 145.951347 
L 87.37156 147.244408 
L 87.384772 148.537469 
L 87.625888 149.830531 
L 87.662221 151.123592 
L 88.537505 152.416653 
L 88.742289 153.709714 
L 89.042858 155.002776 
L 89.287277 156.295837 
L 89.426001 157.588898 
L 89.766206 158.881959 
L 89.772812 160.17502 
L 90.453222 161.468082 
L 90.882607 162.761143 
L 91.150147 164.054204 
L 91.516775 165.347265 
L 92.259941 166.640327 
L 93.521672 167.933388 
L 93.68682 169.226449 
L 94.145931 170.51951 
L 94.297868 171.812571 
L 95.021216 171.812571 
L 95.117002 173.105633 
L 95.579416 174.398694 
L 95.602537 175.691755 
L 95.770988 176.984816 
L 96.01871 176.984816 
L 96.134313 176.984816 
L 96.629757 178.277878 
L 97.062445 179.570939 
L 97.339894 180.864 
L 97.353106 182.157061 
L 97.544677 183.450122 
L 97.845247 184.743184 
L 98.822923 186.036245 
L 98.84274 187.329306 
L 99.665178 188.622367 
L 99.681692 189.915429 
L 100.140804 191.20849 
L 100.144107 192.501551 
L 100.652763 193.794612 
L 101.141601 193.794612 
L 101.230781 195.087673 
L 101.260507 196.380735 
L 101.557774 197.673796 
L 101.914493 198.966857 
L 102.538753 200.259918 
L 102.885564 201.55298 
L 102.974743 202.846041 
L 104.068023 204.139102 
L 104.7121 205.432163 
L 105.052305 206.725224 
L 105.653444 208.018286 
L 105.795471 209.311347 
L 106.337157 210.604408 
L 106.839207 211.897469 
L 107.328045 213.190531 
L 108.49399 213.190531 
L 109.114946 214.483592 
L 110.561643 215.776653 
L 110.687155 215.776653 
L 110.796153 217.069714 
L 111.169387 218.362776 
L 112.523601 218.362776 
L 113.088407 218.362776 
L 113.177587 219.655837 
L 114.92155 220.948898 
L 115.71426 222.241959 
L 115.971891 223.53502 
L 116.777813 224.828082 
L 117.814943 226.121143 
L 118.406173 227.414204 
L 118.951161 228.707265 
L 119.334304 230.000327 
L 119.796719 231.293388 
L 121.401957 232.586449 
L 121.649679 232.586449 
L 121.719042 233.87951 
L 121.722344 235.172571 
L 122.812321 236.465633 
L 122.881683 237.758694 
L 123.294553 239.051755 
L 123.796603 239.051755 
L 123.842845 240.344816 
L 124.242503 241.637878 
L 124.642161 242.930939 
L 124.675191 242.930939 
L 124.691706 244.224 
L 126.184643 244.224 
L 126.812206 244.224 
L 128.625531 245.517061 
L 129.758446 246.810122 
L 129.794779 246.810122 
L 129.844323 248.103184 
L 129.953321 249.396245 
L 130.05241 250.689306 
L 131.528833 251.982367 
L 132.783958 253.275429 
L 133.170404 254.56849 
L 135.092727 255.861551 
L 135.918467 257.154612 
L 136.816872 258.447673 
L 137.457646 259.740735 
L 137.873819 261.033796 
L 138.60047 261.033796 
L 139.356848 262.326857 
L 140.39728 263.619918 
L 142.243635 263.619918 
L 146.157643 263.619918 
L 146.293064 263.619918 
L 150.801604 264.91298 
L 152.733836 266.206041 
L 152.998073 266.206041 
L 153.622332 267.499102 
L 155.917889 268.792163 
L 158.246476 270.085224 
L 159.184517 270.085224 
L 159.47848 271.378286 
L 161.004448 272.671347 
L 161.509801 273.964408 
L 161.820279 275.257469 
L 162.890438 275.257469 
L 166.133945 276.550531 
L 167.048865 277.843592 
L 168.267657 279.136653 
L 170.767998 279.136653 
L 171.937246 280.429714 
L 172.809227 280.429714 
L 182.529838 281.722776 
L 183.018676 283.015837 
L 183.527332 284.308898 
L 184.184621 285.601959 
L 189.700564 286.89502 
L 189.928469 288.188082 
L 194.559219 289.481143 
L 195.913432 290.774204 
L 197.122316 292.067265 
L 197.683819 292.067265 
L 198.750675 292.067265 
L 200.59703 293.360327 
L 211.470374 294.653388 
L 213.339849 295.946449 
L 213.663539 297.23951 
L 215.595771 297.23951 
L 215.972308 297.23951 
L 217.775725 298.532571 
L 220.507273 299.825633 
L 221.148047 299.825633 
L 221.851577 301.118694 
L 225.402259 302.411755 
L 234.733121 303.704816 
L 242.845191 304.997878 
L 249.365234 304.997878 
L 256.611928 304.997878 
L 257.345186 306.290939 
L 260.892565 306.290939 
L 264.344158 306.290939 
L 270.07149 306.290939 
L 270.286183 306.290939 
L 288.686973 307.584 
L 290.989136 307.584 
L 295.084807 307.584 
L 304.485031 307.584 
L 318.377281 307.584 
L 319.275686 307.584 
L 320.203817 307.584 
L 338.548457 307.584 
L 341.62021 307.584 
L 342.766337 307.584 
L 385.050831 307.584 
L 398.487273 307.584 
L 398.487273 306.290939 
L 398.487273 306.290939 
L 385.050831 304.997878 
L 342.766337 303.704816 
L 341.62021 302.411755 
L 338.548457 301.118694 
L 320.203817 299.825633 
L 319.275686 298.532571 
L 318.377281 297.23951 
L 304.485031 295.946449 
L 295.084807 294.653388 
L 290.989136 293.360327 
L 288.686973 292.067265 
L 270.286183 290.774204 
L 270.07149 289.481143 
L 264.344158 288.188082 
L 260.892565 286.89502 
L 257.345186 285.601959 
L 256.611928 284.308898 
L 249.365234 283.015837 
L 242.845191 281.722776 
L 234.733121 280.429714 
L 225.402259 279.136653 
L 221.851577 277.843592 
L 221.148047 276.550531 
L 220.507273 275.257469 
L 217.775725 273.964408 
L 215.972308 272.671347 
L 215.595771 271.378286 
L 213.663539 270.085224 
L 213.339849 268.792163 
L 211.470374 267.499102 
L 200.59703 266.206041 
L 198.750675 264.91298 
L 197.683819 263.619918 
L 197.122316 262.326857 
L 195.913432 261.033796 
L 194.559219 259.740735 
L 189.928469 258.447673 
L 189.700564 257.154612 
L 184.184621 255.861551 
L 183.527332 254.56849 
L 183.018676 253.275429 
L 182.529838 251.982367 
L 172.809227 250.689306 
L 171.937246 249.396245 
L 170.767998 248.103184 
L 168.267657 246.810122 
L 167.048865 245.517061 
L 166.133945 244.224 
L 162.890438 242.930939 
L 161.820279 241.637878 
L 161.509801 240.344816 
L 161.004448 239.051755 
L 159.47848 237.758694 
L 159.184517 236.465633 
L 158.246476 235.172571 
L 155.917889 233.87951 
L 153.622332 232.586449 
L 152.998073 231.293388 
L 152.733836 230.000327 
L 150.801604 228.707265 
L 146.293064 227.414204 
L 146.157643 226.121143 
L 142.243635 224.828082 
L 140.39728 223.53502 
L 139.356848 222.241959 
L 138.60047 220.948898 
L 137.873819 219.655837 
L 137.457646 218.362776 
L 136.816872 217.069714 
L 135.918467 215.776653 
L 135.092727 214.483592 
L 133.170404 213.190531 
L 132.783958 211.897469 
L 131.528833 210.604408 
L 130.05241 209.311347 
L 129.953321 208.018286 
L 129.844323 206.725224 
L 129.794779 205.432163 
L 129.758446 204.139102 
L 128.625531 202.846041 
L 126.812206 201.55298 
L 126.184643 200.259918 
L 124.691706 198.966857 
L 124.675191 197.673796 
L 124.642161 196.380735 
L 124.242503 195.087673 
L 123.842845 193.794612 
L 123.796603 192.501551 
L 123.294553 191.20849 
L 122.881683 189.915429 
L 122.812321 188.622367 
L 121.722344 187.329306 
L 121.719042 186.036245 
L 121.649679 184.743184 
L 121.401957 183.450122 
L 119.796719 182.157061 
L 119.334304 180.864 
L 118.951161 179.570939 
L 118.406173 178.277878 
L 117.814943 176.984816 
L 116.777813 175.691755 
L 115.971891 174.398694 
L 115.71426 173.105633 
L 114.92155 171.812571 
L 113.177587 170.51951 
L 113.088407 169.226449 
L 112.523601 167.933388 
L 111.169387 166.640327 
L 110.796153 165.347265 
L 110.687155 164.054204 
L 110.561643 162.761143 
L 109.114946 161.468082 
L 108.49399 160.17502 
L 107.328045 160.17502 
L 106.839207 158.881959 
L 106.337157 157.588898 
L 105.795471 156.295837 
L 105.653444 155.002776 
L 105.052305 153.709714 
L 104.7121 152.416653 
L 104.068023 151.123592 
L 102.974743 149.830531 
L 102.885564 148.537469 
L 102.538753 147.244408 
L 101.914493 145.951347 
L 101.557774 144.658286 
L 101.260507 143.365224 
L 101.230781 142.072163 
L 101.141601 140.779102 
L 100.652763 139.486041 
L 100.144107 138.19298 
L 100.140804 136.899918 
L 99.681692 135.606857 
L 99.665178 134.313796 
L 98.84274 133.020735 
L 98.822923 131.727673 
L 97.845247 130.434612 
L 97.544677 129.141551 
L 97.353106 127.84849 
L 97.339894 126.555429 
L 97.062445 125.262367 
L 96.629757 123.969306 
L 96.134313 122.676245 
L 96.01871 121.383184 
L 95.770988 120.090122 
L 95.602537 118.797061 
L 95.579416 117.504 
L 95.117002 116.210939 
L 95.021216 114.917878 
L 94.297868 113.624816 
L 94.145931 112.331755 
L 93.68682 111.038694 
L 93.521672 109.745633 
L 92.259941 108.452571 
L 91.516775 107.15951 
L 91.150147 105.866449 
L 90.882607 104.573388 
L 90.453222 103.280327 
L 89.772812 101.987265 
L 89.766206 100.694204 
L 89.426001 99.401143 
L 89.287277 98.108082 
L 89.042858 96.81502 
L 88.742289 95.521959 
L 88.537505 94.228898 
L 87.662221 92.935837 
L 87.625888 91.642776 
L 87.384772 90.349714 
L 87.37156 89.056653 
L 86.919055 87.763592 
L 85.181698 86.470531 
L 84.92737 85.177469 
L 83.916664 83.884408 
L 83.612792 82.591347 
L 82.882838 81.298286 
L 82.730902 80.005224 
L 82.403909 78.712163 
L 82.195822 77.419102 
L 81.099239 76.126041 
L 80.663249 74.83298 
L 79.431244 73.539918 
L 79.285914 72.246857 
L 79.269399 70.953796 
L 79.176917 69.660735 
L 78.724411 68.367673 
L 78.116666 67.074612 
L 77.85243 65.781551 
L 77.419742 65.781551 
L 77.234776 64.48849 
L 77.231473 63.195429 
L 76.607214 61.902367 
L 76.154708 60.609306 
L 75.256303 60.609306 
L 73.931816 59.316245 
L 73.832727 58.023184 
z
" clip-path="url(#pcf865f1ece)" style="fill: #7cfc00"/>
   </g>
   <g id="PolyCollection_3">
    <path d="M 73.832727 54.144 
L 73.832727 58.023184 
L 73.931816 59.316245 
L 75.256303 60.609306 
L 76.154708 60.609306 
L 76.607214 61.902367 
L 77.231473 63.195429 
L 77.234776 64.48849 
L 77.419742 65.781551 
L 77.85243 65.781551 
L 78.116666 67.074612 
L 78.724411 68.367673 
L 79.176917 69.660735 
L 79.269399 70.953796 
L 79.285914 72.246857 
L 79.431244 73.539918 
L 80.663249 74.83298 
L 81.099239 76.126041 
L 82.195822 77.419102 
L 82.403909 78.712163 
L 82.730902 80.005224 
L 82.882838 81.298286 
L 83.612792 82.591347 
L 83.916664 83.884408 
L 84.92737 85.177469 
L 85.181698 86.470531 
L 86.919055 87.763592 
L 87.37156 89.056653 
L 87.384772 90.349714 
L 87.625888 91.642776 
L 87.662221 92.935837 
L 88.537505 94.228898 
L 88.742289 95.521959 
L 89.042858 96.81502 
L 89.287277 98.108082 
L 89.426001 99.401143 
L 89.766206 100.694204 
L 89.772812 101.987265 
L 90.453222 103.280327 
L 90.882607 104.573388 
L 91.150147 105.866449 
L 91.516775 107.15951 
L 92.259941 108.452571 
L 93.521672 109.745633 
L 93.68682 111.038694 
L 94.145931 112.331755 
L 94.297868 113.624816 
L 95.021216 114.917878 
L 95.117002 116.210939 
L 95.579416 117.504 
L 95.602537 118.797061 
L 95.770988 120.090122 
L 96.01871 121.383184 
L 96.134313 122.676245 
L 96.629757 123.969306 
L 97.062445 125.262367 
L 97.339894 126.555429 
L 97.353106 127.84849 
L 97.544677 129.141551 
L 97.845247 130.434612 
L 98.822923 131.727673 
L 98.84274 133.020735 
L 99.665178 134.313796 
L 99.681692 135.606857 
L 100.140804 136.899918 
L 100.144107 138.19298 
L 100.652763 139.486041 
L 101.141601 140.779102 
L 101.230781 142.072163 
L 101.260507 143.365224 
L 101.557774 144.658286 
L 101.914493 145.951347 
L 102.538753 147.244408 
L 102.885564 148.537469 
L 102.974743 149.830531 
L 104.068023 151.123592 
L 104.7121 152.416653 
L 105.052305 153.709714 
L 105.653444 155.002776 
L 105.795471 156.295837 
L 106.337157 157.588898 
L 106.839207 158.881959 
L 107.328045 160.17502 
L 108.49399 160.17502 
L 109.114946 161.468082 
L 110.561643 162.761143 
L 110.687155 164.054204 
L 110.796153 165.347265 
L 111.169387 166.640327 
L 112.523601 167.933388 
L 113.088407 169.226449 
L 113.177587 170.51951 
L 114.92155 171.812571 
L 115.71426 173.105633 
L 115.971891 174.398694 
L 116.777813 175.691755 
L 117.814943 176.984816 
L 118.406173 178.277878 
L 118.951161 179.570939 
L 119.334304 180.864 
L 119.796719 182.157061 
L 121.401957 183.450122 
L 121.649679 184.743184 
L 121.719042 186.036245 
L 121.722344 187.329306 
L 122.812321 188.622367 
L 122.881683 189.915429 
L 123.294553 191.20849 
L 123.796603 192.501551 
L 123.842845 193.794612 
L 124.242503 195.087673 
L 124.642161 196.380735 
L 124.675191 197.673796 
L 124.691706 198.966857 
L 126.184643 200.259918 
L 126.812206 201.55298 
L 128.625531 202.846041 
L 129.758446 204.139102 
L 129.794779 205.432163 
L 129.844323 206.725224 
L 129.953321 208.018286 
L 130.05241 209.311347 
L 131.528833 210.604408 
L 132.783958 211.897469 
L 133.170404 213.190531 
L 135.092727 214.483592 
L 135.918467 215.776653 
L 136.816872 217.069714 
L 137.457646 218.362776 
L 137.873819 219.655837 
L 138.60047 220.948898 
L 139.356848 222.241959 
L 140.39728 223.53502 
L 142.243635 224.828082 
L 146.157643 226.121143 
L 146.293064 227.414204 
L 150.801604 228.707265 
L 152.733836 230.000327 
L 152.998073 231.293388 
L 153.622332 232.586449 
L 155.917889 233.87951 
L 158.246476 235.172571 
L 159.184517 236.465633 
L 159.47848 237.758694 
L 161.004448 239.051755 
L 161.509801 240.344816 
L 161.820279 241.637878 
L 162.890438 242.930939 
L 166.133945 244.224 
L 167.048865 245.517061 
L 168.267657 246.810122 
L 170.767998 248.103184 
L 171.937246 249.396245 
L 172.809227 250.689306 
L 182.529838 251.982367 
L 183.018676 253.275429 
L 183.527332 254.56849 
L 184.184621 255.861551 
L 189.700564 257.154612 
L 189.928469 258.447673 
L 194.559219 259.740735 
L 195.913432 261.033796 
L 197.122316 262.326857 
L 197.683819 263.619918 
L 198.750675 264.91298 
L 200.59703 266.206041 
L 211.470374 267.499102 
L 213.339849 268.792163 
L 213.663539 270.085224 
L 215.595771 271.378286 
L 215.972308 272.671347 
L 217.775725 273.964408 
L 220.507273 275.257469 
L 221.148047 276.550531 
L 221.851577 277.843592 
L 225.402259 279.136653 
L 234.733121 280.429714 
L 242.845191 281.722776 
L 249.365234 283.015837 
L 256.611928 284.308898 
L 257.345186 285.601959 
L 260.892565 286.89502 
L 264.344158 288.188082 
L 270.07149 289.481143 
L 270.286183 290.774204 
L 288.686973 292.067265 
L 290.989136 293.360327 
L 295.084807 294.653388 
L 304.485031 295.946449 
L 318.377281 297.23951 
L 319.275686 298.532571 
L 320.203817 299.825633 
L 338.548457 301.118694 
L 341.62021 302.411755 
L 342.766337 303.704816 
L 385.050831 304.997878 
L 398.487273 306.290939 
L 398.487273 306.290939 
L 398.487273 306.290939 
L 385.050831 304.997878 
L 342.766337 303.704816 
L 341.62021 302.411755 
L 338.548457 301.118694 
L 320.203817 299.825633 
L 319.275686 298.532571 
L 318.377281 297.23951 
L 304.485031 295.946449 
L 295.084807 294.653388 
L 290.989136 293.360327 
L 288.686973 292.067265 
L 270.286183 290.774204 
L 270.07149 289.481143 
L 264.344158 288.188082 
L 260.892565 286.89502 
L 257.345186 285.601959 
L 256.611928 284.308898 
L 249.365234 283.015837 
L 242.845191 281.722776 
L 234.733121 280.429714 
L 225.402259 279.136653 
L 221.851577 277.843592 
L 221.148047 276.550531 
L 220.507273 275.257469 
L 217.775725 273.964408 
L 215.972308 272.671347 
L 215.595771 271.378286 
L 213.663539 270.085224 
L 213.339849 268.792163 
L 211.470374 267.499102 
L 200.59703 266.206041 
L 198.750675 264.91298 
L 197.683819 263.619918 
L 197.122316 262.326857 
L 195.913432 261.033796 
L 194.559219 259.740735 
L 189.928469 258.447673 
L 189.700564 257.154612 
L 184.184621 255.861551 
L 183.527332 254.56849 
L 183.018676 253.275429 
L 182.529838 251.982367 
L 172.809227 250.689306 
L 171.937246 249.396245 
L 170.767998 248.103184 
L 168.267657 246.810122 
L 167.048865 245.517061 
L 166.133945 244.224 
L 162.890438 242.930939 
L 161.820279 241.637878 
L 161.509801 240.344816 
L 161.004448 239.051755 
L 159.47848 237.758694 
L 159.184517 236.465633 
L 158.246476 235.172571 
L 155.917889 233.87951 
L 153.622332 232.586449 
L 152.998073 231.293388 
L 152.733836 230.000327 
L 150.801604 228.707265 
L 146.293064 227.414204 
L 146.157643 226.121143 
L 142.243635 224.828082 
L 140.39728 223.53502 
L 139.356848 222.241959 
L 138.60047 220.948898 
L 137.873819 219.655837 
L 137.457646 218.362776 
L 136.816872 217.069714 
L 135.918467 215.776653 
L 135.092727 214.483592 
L 133.170404 213.190531 
L 132.783958 211.897469 
L 131.528833 210.604408 
L 130.05241 209.311347 
L 129.953321 208.018286 
L 129.844323 206.725224 
L 129.794779 205.432163 
L 129.758446 204.139102 
L 128.625531 202.846041 
L 126.812206 201.55298 
L 126.184643 200.259918 
L 124.691706 198.966857 
L 124.675191 197.673796 
L 124.642161 196.380735 
L 124.242503 195.087673 
L 123.842845 193.794612 
L 123.796603 192.501551 
L 123.294553 191.20849 
L 122.881683 189.915429 
L 122.812321 188.622367 
L 121.722344 187.329306 
L 121.719042 186.036245 
L 121.649679 184.743184 
L 121.401957 183.450122 
L 119.796719 182.157061 
L 119.334304 180.864 
L 118.951161 179.570939 
L 118.406173 178.277878 
L 117.814943 176.984816 
L 116.777813 175.691755 
L 115.971891 174.398694 
L 115.71426 173.105633 
L 114.92155 171.812571 
L 113.177587 170.51951 
L 113.088407 169.226449 
L 112.523601 167.933388 
L 111.169387 166.640327 
L 110.796153 165.347265 
L 110.687155 164.054204 
L 110.561643 162.761143 
L 109.114946 161.468082 
L 108.49399 160.17502 
L 107.328045 158.881959 
L 106.839207 157.588898 
L 106.337157 156.295837 
L 105.795471 155.002776 
L 105.653444 153.709714 
L 105.052305 152.416653 
L 104.7121 151.123592 
L 104.068023 149.830531 
L 102.974743 148.537469 
L 102.885564 147.244408 
L 102.538753 145.951347 
L 101.914493 144.658286 
L 101.557774 143.365224 
L 101.260507 142.072163 
L 101.230781 140.779102 
L 101.141601 139.486041 
L 100.652763 138.19298 
L 100.144107 136.899918 
L 100.140804 135.606857 
L 99.681692 134.313796 
L 99.665178 133.020735 
L 98.84274 131.727673 
L 98.822923 130.434612 
L 97.845247 129.141551 
L 97.544677 127.84849 
L 97.353106 126.555429 
L 97.339894 125.262367 
L 97.062445 123.969306 
L 96.629757 122.676245 
L 96.134313 121.383184 
L 96.01871 120.090122 
L 95.770988 118.797061 
L 95.602537 117.504 
L 95.579416 116.210939 
L 95.117002 114.917878 
L 95.021216 113.624816 
L 94.297868 112.331755 
L 94.145931 111.038694 
L 93.68682 109.745633 
L 93.521672 108.452571 
L 92.259941 107.15951 
L 91.516775 105.866449 
L 91.150147 104.573388 
L 90.882607 103.280327 
L 90.453222 101.987265 
L 89.772812 100.694204 
L 89.766206 99.401143 
L 89.426001 98.108082 
L 89.287277 96.81502 
L 89.042858 95.521959 
L 88.742289 94.228898 
L 88.537505 92.935837 
L 87.662221 91.642776 
L 87.625888 90.349714 
L 87.384772 89.056653 
L 87.37156 87.763592 
L 86.919055 86.470531 
L 85.181698 85.177469 
L 84.92737 83.884408 
L 83.916664 82.591347 
L 83.612792 81.298286 
L 82.882838 80.005224 
L 82.730902 78.712163 
L 82.403909 77.419102 
L 82.195822 76.126041 
L 81.099239 74.83298 
L 80.663249 73.539918 
L 79.431244 72.246857 
L 79.285914 70.953796 
L 79.269399 69.660735 
L 79.176917 68.367673 
L 78.724411 67.074612 
L 78.116666 65.781551 
L 77.85243 64.48849 
L 77.419742 63.195429 
L 77.234776 61.902367 
L 77.231473 60.609306 
L 76.607214 59.316245 
L 76.154708 58.023184 
L 75.256303 56.730122 
L 73.931816 55.437061 
L 73.832727 54.144 
z
" clip-path="url(#pcf865f1ece)" style="fill: #ff0000"/>
   </g>
   <g id="matplotlib.axis_1">
    <g id="xtick_1">
     <g id="line2d_1">
      <defs>
       <path id="m5ecc4a43dd" d="M 0 0 
L 0 3.5 
" style="stroke: #000000; stroke-width: 0.8"/>
      </defs>
      <g>
       <use xlink:href="#m5ecc4a43dd" x="118.184874" y="307.584" style="stroke: #000000; stroke-width: 0.8"/>
      </g>
     </g>
     <g id="text_1">
      <!-- 200 -->
      <g transform="translate(108.641124 322.182437)scale(0.1 -0.1)">
       <defs>
        <path id="DejaVuSans-32" d="M 1228 531 
L 3431 531 
L 3431 0 
L 469 0 
L 469 531 
Q 828 903 1448 1529 
Q 2069 2156 2228 2338 
Q 2531 2678 2651 2914 
Q 2772 3150 2772 3378 
Q 2772 3750 2511 3984 
Q 2250 4219 1831 4219 
Q 1534 4219 1204 4116 
Q 875 4013 500 3803 
L 500 4441 
Q 881 4594 1212 4672 
Q 1544 4750 1819 4750 
Q 2544 4750 2975 4387 
Q 3406 4025 3406 3419 
Q 3406 3131 3298 2873 
Q 3191 2616 2906 2266 
Q 2828 2175 2409 1742 
Q 1991 1309 1228 531 
z
" transform="scale(0.015625)"/>
        <path id="DejaVuSans-30" d="M 2034 4250 
Q 1547 4250 1301 3770 
Q 1056 3291 1056 2328 
Q 1056 1369 1301 889 
Q 1547 409 2034 409 
Q 2525 409 2770 889 
Q 3016 1369 3016 2328 
Q 3016 3291 2770 3770 
Q 2525 4250 2034 4250 
z
M 2034 4750 
Q 2819 4750 3233 4129 
Q 3647 3509 3647 2328 
Q 3647 1150 3233 529 
Q 2819 -91 2034 -91 
Q 1250 -91 836 529 
Q 422 1150 422 2328 
Q 422 3509 836 4129 
Q 1250 4750 2034 4750 
z
" transform="scale(0.015625)"/>
       </defs>
       <use xlink:href="#DejaVuSans-32"/>
       <use xlink:href="#DejaVuSans-30" x="63.623047"/>
       <use xlink:href="#DejaVuSans-30" x="127.246094"/>
      </g>
     </g>
    </g>
    <g id="xtick_2">
     <g id="line2d_2">
      <g>
       <use xlink:href="#m5ecc4a43dd" x="184.244075" y="307.584" style="stroke: #000000; stroke-width: 0.8"/>
      </g>
     </g>
     <g id="text_2">
      <!-- 400 -->
      <g transform="translate(174.700325 322.182437)scale(0.1 -0.1)">
       <defs>
        <path id="DejaVuSans-34" d="M 2419 4116 
L 825 1625 
L 2419 1625 
L 2419 4116 
z
M 2253 4666 
L 3047 4666 
L 3047 1625 
L 3713 1625 
L 3713 1100 
L 3047 1100 
L 3047 0 
L 2419 0 
L 2419 1100 
L 313 1100 
L 313 1709 
L 2253 4666 
z
" transform="scale(0.015625)"/>
       </defs>
       <use xlink:href="#DejaVuSans-34"/>
       <use xlink:href="#DejaVuSans-30" x="63.623047"/>
       <use xlink:href="#DejaVuSans-30" x="127.246094"/>
      </g>
     </g>
    </g>
    <g id="xtick_3">
     <g id="line2d_3">
      <g>
       <use xlink:href="#m5ecc4a43dd" x="250.303275" y="307.584" style="stroke: #000000; stroke-width: 0.8"/>
      </g>
     </g>
     <g id="text_3">
      <!-- 600 -->
      <g transform="translate(240.759525 322.182437)scale(0.1 -0.1)">
       <defs>
        <path id="DejaVuSans-36" d="M 2113 2584 
Q 1688 2584 1439 2293 
Q 1191 2003 1191 1497 
Q 1191 994 1439 701 
Q 1688 409 2113 409 
Q 2538 409 2786 701 
Q 3034 994 3034 1497 
Q 3034 2003 2786 2293 
Q 2538 2584 2113 2584 
z
M 3366 4563 
L 3366 3988 
Q 3128 4100 2886 4159 
Q 2644 4219 2406 4219 
Q 1781 4219 1451 3797 
Q 1122 3375 1075 2522 
Q 1259 2794 1537 2939 
Q 1816 3084 2150 3084 
Q 2853 3084 3261 2657 
Q 3669 2231 3669 1497 
Q 3669 778 3244 343 
Q 2819 -91 2113 -91 
Q 1303 -91 875 529 
Q 447 1150 447 2328 
Q 447 3434 972 4092 
Q 1497 4750 2381 4750 
Q 2619 4750 2861 4703 
Q 3103 4656 3366 4563 
z
" transform="scale(0.015625)"/>
       </defs>
       <use xlink:href="#DejaVuSans-36"/>
       <use xlink:href="#DejaVuSans-30" x="63.623047"/>
       <use xlink:href="#DejaVuSans-30" x="127.246094"/>
      </g>
     </g>
    </g>
    <g id="xtick_4">
     <g id="line2d_4">
      <g>
       <use xlink:href="#m5ecc4a43dd" x="316.362475" y="307.584" style="stroke: #000000; stroke-width: 0.8"/>
      </g>
     </g>
     <g id="text_4">
      <!-- 800 -->
      <g transform="translate(306.818725 322.182437)scale(0.1 -0.1)">
       <defs>
        <path id="DejaVuSans-38" d="M 2034 2216 
Q 1584 2216 1326 1975 
Q 1069 1734 1069 1313 
Q 1069 891 1326 650 
Q 1584 409 2034 409 
Q 2484 409 2743 651 
Q 3003 894 3003 1313 
Q 3003 1734 2745 1975 
Q 2488 2216 2034 2216 
z
M 1403 2484 
Q 997 2584 770 2862 
Q 544 3141 544 3541 
Q 544 4100 942 4425 
Q 1341 4750 2034 4750 
Q 2731 4750 3128 4425 
Q 3525 4100 3525 3541 
Q 3525 3141 3298 2862 
Q 3072 2584 2669 2484 
Q 3125 2378 3379 2068 
Q 3634 1759 3634 1313 
Q 3634 634 3220 271 
Q 2806 -91 2034 -91 
Q 1263 -91 848 271 
Q 434 634 434 1313 
Q 434 1759 690 2068 
Q 947 2378 1403 2484 
z
M 1172 3481 
Q 1172 3119 1398 2916 
Q 1625 2713 2034 2713 
Q 2441 2713 2670 2916 
Q 2900 3119 2900 3481 
Q 2900 3844 2670 4047 
Q 2441 4250 2034 4250 
Q 1625 4250 1398 4047 
Q 1172 3844 1172 3481 
z
" transform="scale(0.015625)"/>
       </defs>
       <use xlink:href="#DejaVuSans-38"/>
       <use xlink:href="#DejaVuSans-30" x="63.623047"/>
       <use xlink:href="#DejaVuSans-30" x="127.246094"/>
      </g>
     </g>
    </g>
    <g id="xtick_5">
     <g id="line2d_5">
      <g>
       <use xlink:href="#m5ecc4a43dd" x="382.421675" y="307.584" style="stroke: #000000; stroke-width: 0.8"/>
      </g>
     </g>
     <g id="text_5">
      <!-- 1000 -->
      <g transform="translate(369.696675 322.182437)scale(0.1 -0.1)">
       <defs>
        <path id="DejaVuSans-31" d="M 794 531 
L 1825 531 
L 1825 4091 
L 703 3866 
L 703 4441 
L 1819 4666 
L 2450 4666 
L 2450 531 
L 3481 531 
L 3481 0 
L 794 0 
L 794 531 
z
" transform="scale(0.015625)"/>
       </defs>
       <use xlink:href="#DejaVuSans-31"/>
       <use xlink:href="#DejaVuSans-30" x="63.623047"/>
       <use xlink:href="#DejaVuSans-30" x="127.246094"/>
       <use xlink:href="#DejaVuSans-30" x="190.869141"/>
      </g>
     </g>
    </g>
    <g id="text_6">
     <!-- Score -->
     <g transform="translate(222.157656 335.860562)scale(0.1 -0.1)">
      <defs>
       <path id="DejaVuSans-53" d="M 3425 4513 
L 3425 3897 
Q 3066 4069 2747 4153 
Q 2428 4238 2131 4238 
Q 1616 4238 1336 4038 
Q 1056 3838 1056 3469 
Q 1056 3159 1242 3001 
Q 1428 2844 1947 2747 
L 2328 2669 
Q 3034 2534 3370 2195 
Q 3706 1856 3706 1288 
Q 3706 609 3251 259 
Q 2797 -91 1919 -91 
Q 1588 -91 1214 -16 
Q 841 59 441 206 
L 441 856 
Q 825 641 1194 531 
Q 1563 422 1919 422 
Q 2459 422 2753 634 
Q 3047 847 3047 1241 
Q 3047 1584 2836 1778 
Q 2625 1972 2144 2069 
L 1759 2144 
Q 1053 2284 737 2584 
Q 422 2884 422 3419 
Q 422 4038 858 4394 
Q 1294 4750 2059 4750 
Q 2388 4750 2728 4690 
Q 3069 4631 3425 4513 
z
" transform="scale(0.015625)"/>
       <path id="DejaVuSans-63" d="M 3122 3366 
L 3122 2828 
Q 2878 2963 2633 3030 
Q 2388 3097 2138 3097 
Q 1578 3097 1268 2742 
Q 959 2388 959 1747 
Q 959 1106 1268 751 
Q 1578 397 2138 397 
Q 2388 397 2633 464 
Q 2878 531 3122 666 
L 3122 134 
Q 2881 22 2623 -34 
Q 2366 -91 2075 -91 
Q 1284 -91 818 406 
Q 353 903 353 1747 
Q 353 2603 823 3093 
Q 1294 3584 2113 3584 
Q 2378 3584 2631 3529 
Q 2884 3475 3122 3366 
z
" transform="scale(0.015625)"/>
       <path id="DejaVuSans-6f" d="M 1959 3097 
Q 1497 3097 1228 2736 
Q 959 2375 959 1747 
Q 959 1119 1226 758 
Q 1494 397 1959 397 
Q 2419 397 2687 759 
Q 2956 1122 2956 1747 
Q 2956 2369 2687 2733 
Q 2419 3097 1959 3097 
z
M 1959 3584 
Q 2709 3584 3137 3096 
Q 3566 2609 3566 1747 
Q 3566 888 3137 398 
Q 2709 -91 1959 -91 
Q 1206 -91 779 398 
Q 353 888 353 1747 
Q 353 2609 779 3096 
Q 1206 3584 1959 3584 
z
" transform="scale(0.015625)"/>
       <path id="DejaVuSans-72" d="M 2631 2963 
Q 2534 3019 2420 3045 
Q 2306 3072 2169 3072 
Q 1681 3072 1420 2755 
Q 1159 2438 1159 1844 
L 1159 0 
L 581 0 
L 581 3500 
L 1159 3500 
L 1159 2956 
Q 1341 3275 1631 3429 
Q 1922 3584 2338 3584 
Q 2397 3584 2469 3576 
Q 2541 3569 2628 3553 
L 2631 2963 
z
" transform="scale(0.015625)"/>
       <path id="DejaVuSans-65" d="M 3597 1894 
L 3597 1613 
L 953 1613 
Q 991 1019 1311 708 
Q 1631 397 2203 397 
Q 2534 397 2845 478 
Q 3156 559 3463 722 
L 3463 178 
Q 3153 47 2828 -22 
Q 2503 -91 2169 -91 
Q 1331 -91 842 396 
Q 353 884 353 1716 
Q 353 2575 817 3079 
Q 1281 3584 2069 3584 
Q 2775 3584 3186 3129 
Q 3597 2675 3597 1894 
z
M 3022 2063 
Q 3016 2534 2758 2815 
Q 2500 3097 2075 3097 
Q 1594 3097 1305 2825 
Q 1016 2553 972 2059 
L 3022 2063 
z
" transform="scale(0.015625)"/>
      </defs>
      <use xlink:href="#DejaVuSans-53"/>
      <use xlink:href="#DejaVuSans-63" x="63.476562"/>
      <use xlink:href="#DejaVuSans-6f" x="118.457031"/>
      <use xlink:href="#DejaVuSans-72" x="179.638672"/>
      <use xlink:href="#DejaVuSans-65" x="218.501953"/>
     </g>
    </g>
   </g>
   <g id="matplotlib.axis_2">
    <g id="ytick_1">
     <g id="line2d_6">
      <defs>
       <path id="me5260a22f5" d="M 0 0 
L -3.5 0 
" style="stroke: #000000; stroke-width: 0.8"/>
      </defs>
      <g>
       <use xlink:href="#me5260a22f5" x="57.6" y="307.584" style="stroke: #000000; stroke-width: 0.8"/>
      </g>
     </g>
     <g id="text_7">
      <!-- 0 -->
      <g transform="translate(44.2375 311.383219)scale(0.1 -0.1)">
       <use xlink:href="#DejaVuSans-30"/>
      </g>
     </g>
    </g>
    <g id="ytick_2">
     <g id="line2d_7">
      <g>
       <use xlink:href="#me5260a22f5" x="57.6" y="275.257469" style="stroke: #000000; stroke-width: 0.8"/>
      </g>
     </g>
     <g id="text_8">
      <!-- 25 -->
      <g transform="translate(37.875 279.056688)scale(0.1 -0.1)">
       <defs>
        <path id="DejaVuSans-35" d="M 691 4666 
L 3169 4666 
L 3169 4134 
L 1269 4134 
L 1269 2991 
Q 1406 3038 1543 3061 
Q 1681 3084 1819 3084 
Q 2600 3084 3056 2656 
Q 3513 2228 3513 1497 
Q 3513 744 3044 326 
Q 2575 -91 1722 -91 
Q 1428 -91 1123 -41 
Q 819 9 494 109 
L 494 744 
Q 775 591 1075 516 
Q 1375 441 1709 441 
Q 2250 441 2565 725 
Q 2881 1009 2881 1497 
Q 2881 1984 2565 2268 
Q 2250 2553 1709 2553 
Q 1456 2553 1204 2497 
Q 953 2441 691 2322 
L 691 4666 
z
" transform="scale(0.015625)"/>
       </defs>
       <use xlink:href="#DejaVuSans-32"/>
       <use xlink:href="#DejaVuSans-35" x="63.623047"/>
      </g>
     </g>
    </g>
    <g id="ytick_3">
     <g id="line2d_8">
      <g>
       <use xlink:href="#me5260a22f5" x="57.6" y="242.930939" style="stroke: #000000; stroke-width: 0.8"/>
      </g>
     </g>
     <g id="text_9">
      <!-- 50 -->
      <g transform="translate(37.875 246.730158)scale(0.1 -0.1)">
       <use xlink:href="#DejaVuSans-35"/>
       <use xlink:href="#DejaVuSans-30" x="63.623047"/>
      </g>
     </g>
    </g>
    <g id="ytick_4">
     <g id="line2d_9">
      <g>
       <use xlink:href="#me5260a22f5" x="57.6" y="210.604408" style="stroke: #000000; stroke-width: 0.8"/>
      </g>
     </g>
     <g id="text_10">
      <!-- 75 -->
      <g transform="translate(37.875 214.403627)scale(0.1 -0.1)">
       <defs>
        <path id="DejaVuSans-37" d="M 525 4666 
L 3525 4666 
L 3525 4397 
L 1831 0 
L 1172 0 
L 2766 4134 
L 525 4134 
L 525 4666 
z
" transform="scale(0.015625)"/>
       </defs>
       <use xlink:href="#DejaVuSans-37"/>
       <use xlink:href="#DejaVuSans-35" x="63.623047"/>
      </g>
     </g>
    </g>
    <g id="ytick_5">
     <g id="line2d_10">
      <g>
       <use xlink:href="#me5260a22f5" x="57.6" y="178.277878" style="stroke: #000000; stroke-width: 0.8"/>
      </g>
     </g>
     <g id="text_11">
      <!-- 100 -->
      <g transform="translate(31.5125 182.077096)scale(0.1 -0.1)">
       <use xlink:href="#DejaVuSans-31"/>
       <use xlink:href="#DejaVuSans-30" x="63.623047"/>
       <use xlink:href="#DejaVuSans-30" x="127.246094"/>
      </g>
     </g>
    </g>
    <g id="ytick_6">
     <g id="line2d_11">
      <g>
       <use xlink:href="#me5260a22f5" x="57.6" y="145.951347" style="stroke: #000000; stroke-width: 0.8"/>
      </g>
     </g>
     <g id="text_12">
      <!-- 125 -->
      <g transform="translate(31.5125 149.750566)scale(0.1 -0.1)">
       <use xlink:href="#DejaVuSans-31"/>
       <use xlink:href="#DejaVuSans-32" x="63.623047"/>
       <use xlink:href="#DejaVuSans-35" x="127.246094"/>
      </g>
     </g>
    </g>
    <g id="ytick_7">
     <g id="line2d_12">
      <g>
       <use xlink:href="#me5260a22f5" x="57.6" y="113.624816" style="stroke: #000000; stroke-width: 0.8"/>
      </g>
     </g>
     <g id="text_13">
      <!-- 150 -->
      <g transform="translate(31.5125 117.424035)scale(0.1 -0.1)">
       <use xlink:href="#DejaVuSans-31"/>
       <use xlink:href="#DejaVuSans-35" x="63.623047"/>
       <use xlink:href="#DejaVuSans-30" x="127.246094"/>
      </g>
     </g>
    </g>
    <g id="ytick_8">
     <g id="line2d_13">
      <g>
       <use xlink:href="#me5260a22f5" x="57.6" y="81.298286" style="stroke: #000000; stroke-width: 0.8"/>
      </g>
     </g>
     <g id="text_14">
      <!-- 175 -->
      <g transform="translate(31.5125 85.097504)scale(0.1 -0.1)">
       <use xlink:href="#DejaVuSans-31"/>
       <use xlink:href="#DejaVuSans-37" x="63.623047"/>
       <use xlink:href="#DejaVuSans-35" x="127.246094"/>
      </g>
     </g>
    </g>
    <g id="ytick_9">
     <g id="line2d_14">
      <g>
       <use xlink:href="#me5260a22f5" x="57.6" y="48.971755" style="stroke: #000000; stroke-width: 0.8"/>
      </g>
     </g>
     <g id="text_15">
      <!-- 200 -->
      <g transform="translate(31.5125 52.770974)scale(0.1 -0.1)">
       <use xlink:href="#DejaVuSans-32"/>
       <use xlink:href="#DejaVuSans-30" x="63.623047"/>
       <use xlink:href="#DejaVuSans-30" x="127.246094"/>
      </g>
     </g>
    </g>
    <g id="text_16">
     <!-- Number of crosslinks -->
     <g transform="translate(25.432812 227.019406)rotate(-90)scale(0.1 -0.1)">
      <defs>
       <path id="DejaVuSans-4e" d="M 628 4666 
L 1478 4666 
L 3547 763 
L 3547 4666 
L 4159 4666 
L 4159 0 
L 3309 0 
L 1241 3903 
L 1241 0 
L 628 0 
L 628 4666 
z
" transform="scale(0.015625)"/>
       <path id="DejaVuSans-75" d="M 544 1381 
L 544 3500 
L 1119 3500 
L 1119 1403 
Q 1119 906 1312 657 
Q 1506 409 1894 409 
Q 2359 409 2629 706 
Q 2900 1003 2900 1516 
L 2900 3500 
L 3475 3500 
L 3475 0 
L 2900 0 
L 2900 538 
Q 2691 219 2414 64 
Q 2138 -91 1772 -91 
Q 1169 -91 856 284 
Q 544 659 544 1381 
z
M 1991 3584 
L 1991 3584 
z
" transform="scale(0.015625)"/>
       <path id="DejaVuSans-6d" d="M 3328 2828 
Q 3544 3216 3844 3400 
Q 4144 3584 4550 3584 
Q 5097 3584 5394 3201 
Q 5691 2819 5691 2113 
L 5691 0 
L 5113 0 
L 5113 2094 
Q 5113 2597 4934 2840 
Q 4756 3084 4391 3084 
Q 3944 3084 3684 2787 
Q 3425 2491 3425 1978 
L 3425 0 
L 2847 0 
L 2847 2094 
Q 2847 2600 2669 2842 
Q 2491 3084 2119 3084 
Q 1678 3084 1418 2786 
Q 1159 2488 1159 1978 
L 1159 0 
L 581 0 
L 581 3500 
L 1159 3500 
L 1159 2956 
Q 1356 3278 1631 3431 
Q 1906 3584 2284 3584 
Q 2666 3584 2933 3390 
Q 3200 3197 3328 2828 
z
" transform="scale(0.015625)"/>
       <path id="DejaVuSans-62" d="M 3116 1747 
Q 3116 2381 2855 2742 
Q 2594 3103 2138 3103 
Q 1681 3103 1420 2742 
Q 1159 2381 1159 1747 
Q 1159 1113 1420 752 
Q 1681 391 2138 391 
Q 2594 391 2855 752 
Q 3116 1113 3116 1747 
z
M 1159 2969 
Q 1341 3281 1617 3432 
Q 1894 3584 2278 3584 
Q 2916 3584 3314 3078 
Q 3713 2572 3713 1747 
Q 3713 922 3314 415 
Q 2916 -91 2278 -91 
Q 1894 -91 1617 61 
Q 1341 213 1159 525 
L 1159 0 
L 581 0 
L 581 4863 
L 1159 4863 
L 1159 2969 
z
" transform="scale(0.015625)"/>
       <path id="DejaVuSans-20" transform="scale(0.015625)"/>
       <path id="DejaVuSans-66" d="M 2375 4863 
L 2375 4384 
L 1825 4384 
Q 1516 4384 1395 4259 
Q 1275 4134 1275 3809 
L 1275 3500 
L 2222 3500 
L 2222 3053 
L 1275 3053 
L 1275 0 
L 697 0 
L 697 3053 
L 147 3053 
L 147 3500 
L 697 3500 
L 697 3744 
Q 697 4328 969 4595 
Q 1241 4863 1831 4863 
L 2375 4863 
z
" transform="scale(0.015625)"/>
       <path id="DejaVuSans-73" d="M 2834 3397 
L 2834 2853 
Q 2591 2978 2328 3040 
Q 2066 3103 1784 3103 
Q 1356 3103 1142 2972 
Q 928 2841 928 2578 
Q 928 2378 1081 2264 
Q 1234 2150 1697 2047 
L 1894 2003 
Q 2506 1872 2764 1633 
Q 3022 1394 3022 966 
Q 3022 478 2636 193 
Q 2250 -91 1575 -91 
Q 1294 -91 989 -36 
Q 684 19 347 128 
L 347 722 
Q 666 556 975 473 
Q 1284 391 1588 391 
Q 1994 391 2212 530 
Q 2431 669 2431 922 
Q 2431 1156 2273 1281 
Q 2116 1406 1581 1522 
L 1381 1569 
Q 847 1681 609 1914 
Q 372 2147 372 2553 
Q 372 3047 722 3315 
Q 1072 3584 1716 3584 
Q 2034 3584 2315 3537 
Q 2597 3491 2834 3397 
z
" transform="scale(0.015625)"/>
       <path id="DejaVuSans-6c" d="M 603 4863 
L 1178 4863 
L 1178 0 
L 603 0 
L 603 4863 
z
" transform="scale(0.015625)"/>
       <path id="DejaVuSans-69" d="M 603 3500 
L 1178 3500 
L 1178 0 
L 603 0 
L 603 3500 
z
M 603 4863 
L 1178 4863 
L 1178 4134 
L 603 4134 
L 603 4863 
z
" transform="scale(0.015625)"/>
       <path id="DejaVuSans-6e" d="M 3513 2113 
L 3513 0 
L 2938 0 
L 2938 2094 
Q 2938 2591 2744 2837 
Q 2550 3084 2163 3084 
Q 1697 3084 1428 2787 
Q 1159 2491 1159 1978 
L 1159 0 
L 581 0 
L 581 3500 
L 1159 3500 
L 1159 2956 
Q 1366 3272 1645 3428 
Q 1925 3584 2291 3584 
Q 2894 3584 3203 3211 
Q 3513 2838 3513 2113 
z
" transform="scale(0.015625)"/>
       <path id="DejaVuSans-6b" d="M 581 4863 
L 1159 4863 
L 1159 1991 
L 2875 3500 
L 3609 3500 
L 1753 1863 
L 3688 0 
L 2938 0 
L 1159 1709 
L 1159 0 
L 581 0 
L 581 4863 
z
" transform="scale(0.015625)"/>
      </defs>
      <use xlink:href="#DejaVuSans-4e"/>
      <use xlink:href="#DejaVuSans-75" x="74.804688"/>
      <use xlink:href="#DejaVuSans-6d" x="138.183594"/>
      <use xlink:href="#DejaVuSans-62" x="235.595703"/>
      <use xlink:href="#DejaVuSans-65" x="299.072266"/>
      <use xlink:href="#DejaVuSans-72" x="360.595703"/>
      <use xlink:href="#DejaVuSans-20" x="401.708984"/>
      <use xlink:href="#DejaVuSans-6f" x="433.496094"/>
      <use xlink:href="#DejaVuSans-66" x="494.677734"/>
      <use xlink:href="#DejaVuSans-20" x="529.882812"/>
      <use xlink:href="#DejaVuSans-63" x="561.669922"/>
      <use xlink:href="#DejaVuSans-72" x="616.650391"/>
      <use xlink:href="#DejaVuSans-6f" x="655.513672"/>
      <use xlink:href="#DejaVuSans-73" x="716.695312"/>
      <use xlink:href="#DejaVuSans-73" x="768.794922"/>
      <use xlink:href="#DejaVuSans-6c" x="820.894531"/>
      <use xlink:href="#DejaVuSans-69" x="848.677734"/>
      <use xlink:href="#DejaVuSans-6e" x="876.460938"/>
      <use xlink:href="#DejaVuSans-6b" x="939.839844"/>
      <use xlink:href="#DejaVuSans-73" x="997.75"/>
     </g>
    </g>
   </g>
   <g id="patch_3">
    <path d="M 57.6 307.584 
L 57.6 41.472 
" style="fill: none; stroke: #000000; stroke-width: 0.8; stroke-linejoin: miter; stroke-linecap: square"/>
   </g>
   <g id="patch_4">
    <path d="M 414.72 307.584 
L 414.72 41.472 
" style="fill: none; stroke: #000000; stroke-width: 0.8; stroke-linejoin: miter; stroke-linecap: square"/>
   </g>
   <g id="patch_5">
    <path d="M 57.6 307.584 
L 414.72 307.584 
" style="fill: none; stroke: #000000; stroke-width: 0.8; stroke-linejoin: miter; stroke-linecap: square"/>
   </g>
   <g id="patch_6">
    <path d="M 57.6 41.472 
L 414.72 41.472 
" style="fill: none; stroke: #000000; stroke-width: 0.8; stroke-linejoin: miter; stroke-linecap: square"/>
   </g>
   <g id="legend_1">
    <g id="patch_7">
     <path d="M 293.087188 93.506375 
L 407.72 93.506375 
Q 409.72 93.506375 409.72 91.506375 
L 409.72 48.472 
Q 409.72 46.472 407.72 46.472 
L 293.087188 46.472 
Q 291.087188 46.472 291.087188 48.472 
L 291.087188 91.506375 
Q 291.087188 93.506375 293.087188 93.506375 
z
" style="fill: #ffffff; opacity: 0.8; stroke: #cccccc; stroke-linejoin: miter"/>
    </g>
    <g id="patch_8">
     <path d="M 295.087188 58.070438 
L 315.087188 58.070438 
L 315.087188 51.070438 
L 295.087188 51.070438 
z
" style="fill: #008000"/>
    </g>
    <g id="text_17">
     <!-- true -->
     <g transform="translate(323.087188 58.070438)scale(0.1 -0.1)">
      <defs>
       <path id="DejaVuSans-74" d="M 1172 4494 
L 1172 3500 
L 2356 3500 
L 2356 3053 
L 1172 3053 
L 1172 1153 
Q 1172 725 1289 603 
Q 1406 481 1766 481 
L 2356 481 
L 2356 0 
L 1766 0 
Q 1100 0 847 248 
Q 594 497 594 1153 
L 594 3053 
L 172 3053 
L 172 3500 
L 594 3500 
L 594 4494 
L 1172 4494 
z
" transform="scale(0.015625)"/>
      </defs>
      <use xlink:href="#DejaVuSans-74"/>
      <use xlink:href="#DejaVuSans-72" x="39.208984"/>
      <use xlink:href="#DejaVuSans-75" x="80.322266"/>
      <use xlink:href="#DejaVuSans-65" x="143.701172"/>
     </g>
    </g>
    <g id="patch_9">
     <path d="M 295.087188 72.748563 
L 315.087188 72.748563 
L 315.087188 65.748563 
L 295.087188 65.748563 
z
" style="fill: #7cfc00"/>
    </g>
    <g id="text_18">
     <!-- true homeotypic -->
     <g transform="translate(323.087188 72.748563)scale(0.1 -0.1)">
      <defs>
       <path id="DejaVuSans-68" d="M 3513 2113 
L 3513 0 
L 2938 0 
L 2938 2094 
Q 2938 2591 2744 2837 
Q 2550 3084 2163 3084 
Q 1697 3084 1428 2787 
Q 1159 2491 1159 1978 
L 1159 0 
L 581 0 
L 581 4863 
L 1159 4863 
L 1159 2956 
Q 1366 3272 1645 3428 
Q 1925 3584 2291 3584 
Q 2894 3584 3203 3211 
Q 3513 2838 3513 2113 
z
" transform="scale(0.015625)"/>
       <path id="DejaVuSans-79" d="M 2059 -325 
Q 1816 -950 1584 -1140 
Q 1353 -1331 966 -1331 
L 506 -1331 
L 506 -850 
L 844 -850 
Q 1081 -850 1212 -737 
Q 1344 -625 1503 -206 
L 1606 56 
L 191 3500 
L 800 3500 
L 1894 763 
L 2988 3500 
L 3597 3500 
L 2059 -325 
z
" transform="scale(0.015625)"/>
       <path id="DejaVuSans-70" d="M 1159 525 
L 1159 -1331 
L 581 -1331 
L 581 3500 
L 1159 3500 
L 1159 2969 
Q 1341 3281 1617 3432 
Q 1894 3584 2278 3584 
Q 2916 3584 3314 3078 
Q 3713 2572 3713 1747 
Q 3713 922 3314 415 
Q 2916 -91 2278 -91 
Q 1894 -91 1617 61 
Q 1341 213 1159 525 
z
M 3116 1747 
Q 3116 2381 2855 2742 
Q 2594 3103 2138 3103 
Q 1681 3103 1420 2742 
Q 1159 2381 1159 1747 
Q 1159 1113 1420 752 
Q 1681 391 2138 391 
Q 2594 391 2855 752 
Q 3116 1113 3116 1747 
z
" transform="scale(0.015625)"/>
      </defs>
      <use xlink:href="#DejaVuSans-74"/>
      <use xlink:href="#DejaVuSans-72" x="39.208984"/>
      <use xlink:href="#DejaVuSans-75" x="80.322266"/>
      <use xlink:href="#DejaVuSans-65" x="143.701172"/>
      <use xlink:href="#DejaVuSans-20" x="205.224609"/>
      <use xlink:href="#DejaVuSans-68" x="237.011719"/>
      <use xlink:href="#DejaVuSans-6f" x="300.390625"/>
      <use xlink:href="#DejaVuSans-6d" x="361.572266"/>
      <use xlink:href="#DejaVuSans-65" x="458.984375"/>
      <use xlink:href="#DejaVuSans-6f" x="520.507812"/>
      <use xlink:href="#DejaVuSans-74" x="581.689453"/>
      <use xlink:href="#DejaVuSans-79" x="620.898438"/>
      <use xlink:href="#DejaVuSans-70" x="680.078125"/>
      <use xlink:href="#DejaVuSans-69" x="743.554688"/>
      <use xlink:href="#DejaVuSans-63" x="771.337891"/>
     </g>
    </g>
    <g id="patch_10">
     <path d="M 295.087188 87.426688 
L 315.087188 87.426688 
L 315.087188 80.426688 
L 295.087188 80.426688 
z
" style="fill: #ff0000"/>
    </g>
    <g id="text_19">
     <!-- false -->
     <g transform="translate(323.087188 87.426688)scale(0.1 -0.1)">
      <defs>
       <path id="DejaVuSans-61" d="M 2194 1759 
Q 1497 1759 1228 1600 
Q 959 1441 959 1056 
Q 959 750 1161 570 
Q 1363 391 1709 391 
Q 2188 391 2477 730 
Q 2766 1069 2766 1631 
L 2766 1759 
L 2194 1759 
z
M 3341 1997 
L 3341 0 
L 2766 0 
L 2766 531 
Q 2569 213 2275 61 
Q 1981 -91 1556 -91 
Q 1019 -91 701 211 
Q 384 513 384 1019 
Q 384 1609 779 1909 
Q 1175 2209 1959 2209 
L 2766 2209 
L 2766 2266 
Q 2766 2663 2505 2880 
Q 2244 3097 1772 3097 
Q 1472 3097 1187 3025 
Q 903 2953 641 2809 
L 641 3341 
Q 956 3463 1253 3523 
Q 1550 3584 1831 3584 
Q 2591 3584 2966 3190 
Q 3341 2797 3341 1997 
z
" transform="scale(0.015625)"/>
      </defs>
      <use xlink:href="#DejaVuSans-66"/>
      <use xlink:href="#DejaVuSans-61" x="35.205078"/>
      <use xlink:href="#DejaVuSans-6c" x="96.484375"/>
      <use xlink:href="#DejaVuSans-73" x="124.267578"/>
      <use xlink:href="#DejaVuSans-65" x="176.367188"/>
     </g>
    </g>
   </g>
  </g>
 </g>
 <defs>
  <clipPath id="pcf865f1ece">
   <rect x="57.6" y="41.472" width="357.12" height="266.112"/>
  </clipPath>
 </defs>
</svg>
