<?xml version="1.0" encoding="utf-8" standalone="no"?>
<!DOCTYPE svg PUBLIC "-//W3C//DTD SVG 1.1//EN"
  "http://www.w3.org/Graphics/SVG/1.1/DTD/svg11.dtd">
<svg xmlns:xlink="http://www.w3.org/1999/xlink" width="460.8pt" height="345.6pt" viewBox="0 0 460.8 345.6" xmlns="http://www.w3.org/2000/svg" version="1.1">
 <metadata>
  <rdf:RDF xmlns:dc="http://purl.org/dc/elements/1.1/" xmlns:cc="http://creativecommons.org/ns#" xmlns:rdf="http://www.w3.org/1999/02/22-rdf-syntax-ns#">
   <cc:Work>
    <dc:type rdf:resource="http://purl.org/dc/dcmitype/StillImage"/>
    <dc:date>2022-07-26T17:31:15.022058</dc:date>
    <dc:format>image/svg+xml</dc:format>
    <dc:creator>
     <cc:Agent>
      <dc:title>Matplotlib v3.5.1, https://matplotlib.org/</dc:title>
     </cc:Agent>
    </dc:creator>
   </cc:Work>
  </rdf:RDF>
 </metadata>
 <defs>
  <style type="text/css">*{stroke-linejoin: round; stroke-linecap: butt}</style>
 </defs>
 <g id="figure_1">
  <g id="patch_1">
   <path d="M 0 345.6 
L 460.8 345.6 
L 460.8 0 
L 0 0 
z
" style="fill: #ffffff"/>
  </g>
  <g id="axes_1">
   <g id="patch_2">
    <path d="M 57.6 307.584 
L 414.72 307.584 
L 414.72 41.472 
L 57.6 41.472 
z
" style="fill: #ffffff"/>
   </g>
   <g id="PolyCollection_1">
    <path d="M 73.832727 116.308528 
L 73.832727 307.584 
L 74.276963 307.584 
L 75.152368 307.584 
L 75.354887 307.584 
L 75.590071 307.584 
L 75.658666 307.584 
L 75.923248 307.584 
L 75.93958 307.584 
L 76.547137 307.584 
L 77.233089 307.584 
L 77.288619 307.584 
L 77.422543 307.584 
L 77.520536 307.584 
L 78.115028 307.584 
L 79.718849 307.584 
L 80.166351 307.584 
L 80.783707 307.584 
L 80.969894 307.584 
L 81.08422 307.584 
L 81.397798 307.584 
L 81.822435 307.584 
L 81.99229 307.584 
L 82.707639 307.584 
L 82.776235 307.584 
L 82.7991 307.584 
L 82.815432 307.584 
L 82.959155 307.584 
L 83.723502 307.584 
L 84.177537 307.584 
L 84.608706 307.584 
L 85.079074 307.584 
L 85.693164 307.584 
L 85.898949 307.584 
L 86.372583 307.584 
L 86.722092 307.584 
L 87.094466 307.584 
L 87.394978 307.584 
L 88.129927 307.584 
L 88.394508 307.584 
L 90.164918 307.584 
L 90.36417 307.584 
L 90.811672 307.584 
L 90.824738 307.584 
L 91.099119 307.584 
L 91.729541 307.584 
L 91.964725 307.584 
L 92.167244 307.584 
L 92.706206 307.584 
L 92.843397 307.584 
L 92.88586 307.584 
L 93.17984 307.584 
L 93.186373 307.584 
L 93.859259 307.584 
L 94.283896 307.584 
L 94.548477 307.584 
L 94.911052 307.584 
L 95.646001 307.584 
L 96.89378 307.584 
L 97.511137 307.584 
L 97.661393 307.584 
L 98.376743 307.584 
L 98.47147 307.584 
L 98.928771 307.584 
L 98.951636 307.584 
L 99.118224 307.584 
L 99.363207 307.584 
L 99.448135 307.584 
L 99.477533 307.584 
L 99.967498 307.584 
L 100.395402 307.584 
L 100.669782 307.584 
L 100.682848 307.584 
L 100.872302 307.584 
L 102.156012 307.584 
L 102.969355 307.584 
L 102.985687 307.584 
L 103.439722 307.584 
L 103.442988 307.584 
L 103.94602 307.584 
L 104.429453 307.584 
L 104.51438 307.584 
L 104.517646 307.584 
L 104.547044 307.584 
L 104.841024 307.584 
L 105.193799 307.584 
L 105.811156 307.584 
L 106.154132 307.584 
L 106.242326 307.584 
L 107.323517 307.584 
L 107.496638 307.584 
L 107.960472 307.584 
L 108.296915 307.584 
L 109.031864 307.584 
L 109.56756 307.584 
L 110.064058 307.584 
L 110.547491 307.584 
L 111.700544 307.584 
L 111.876931 307.584 
L 112.314634 307.584 
L 113.745334 307.584 
L 113.869459 307.584 
L 113.977251 307.584 
L 114.346359 307.584 
L 115.685598 307.584 
L 116.244159 307.584 
L 116.332353 307.584 
L 118.057032 307.584 
L 118.840977 307.584 
L 119.09576 307.584 
L 119.89277 307.584 
L 120.918432 307.584 
L 121.503124 307.584 
L 122.042087 307.584 
L 122.420993 307.584 
L 122.878295 307.584 
L 124.465784 307.584 
L 124.710767 307.584 
L 124.779362 307.584 
L 124.782628 307.584 
L 124.942684 307.584 
L 125.860553 307.584 
L 125.929148 307.584 
L 126.337453 307.584 
L 126.833951 307.584 
L 126.879681 307.584 
L 127.27492 307.584 
L 127.670159 307.584 
L 127.702824 307.584 
L 127.719156 307.584 
L 129.195586 307.584 
L 129.816209 307.584 
L 131.609484 307.584 
L 132.729872 307.584 
L 132.765803 307.584 
L 132.814799 307.584 
L 132.922592 307.584 
L 133.020585 307.584 
L 134.480683 307.584 
L 135.721929 307.584 
L 136.104102 307.584 
L 138.005169 307.584 
L 138.821779 307.584 
L 139.71025 307.584 
L 140.343939 307.584 
L 140.75551 307.584 
L 141.474127 307.584 
L 142.222141 307.584 
L 143.251069 307.584 
L 145.077008 307.584 
L 148.947737 307.584 
L 149.081661 307.584 
L 153.540349 307.584 
L 155.451215 307.584 
L 155.71253 307.584 
L 156.329887 307.584 
L 158.600061 307.584 
L 160.9029 307.584 
L 161.830569 307.584 
L 162.121282 307.584 
L 163.630376 307.584 
L 164.130141 307.584 
L 164.437186 307.584 
L 165.495512 307.584 
L 168.703154 307.584 
L 169.607958 307.584 
L 170.813273 307.584 
L 173.285967 307.584 
L 174.442286 307.584 
L 175.304626 307.584 
L 184.917753 307.584 
L 185.401186 307.584 
L 185.904217 307.584 
L 186.554238 307.584 
L 192.00919 307.584 
L 192.234574 307.584 
L 196.81412 307.584 
L 198.15336 307.584 
L 199.348876 307.584 
L 199.904171 307.584 
L 200.95923 307.584 
L 202.785169 307.584 
L 213.538283 307.584 
L 215.387087 307.584 
L 215.707198 307.584 
L 217.618064 307.584 
L 217.990438 307.584 
L 219.773913 307.584 
L 222.475258 307.584 
L 223.108947 307.584 
L 223.804698 307.584 
L 227.316119 307.584 
L 236.543806 307.584 
L 244.566178 307.584 
L 251.014127 307.584 
L 258.180692 307.584 
L 258.905841 307.584 
L 262.413996 307.584 
L 265.827424 307.584 
L 271.491427 307.584 
L 271.703746 307.584 
L 289.901072 307.584 
L 292.17778 307.584 
L 296.228163 307.584 
L 305.524445 307.584 
L 319.263084 307.584 
L 320.151555 307.584 
L 321.069424 307.584 
L 339.211221 307.584 
L 342.249009 307.584 
L 343.382463 307.584 
L 385.199403 307.584 
L 398.487273 307.584 
L 398.487273 307.584 
L 398.487273 307.584 
L 385.199403 307.584 
L 343.382463 307.584 
L 342.249009 307.584 
L 339.211221 307.584 
L 321.069424 307.584 
L 320.151555 307.584 
L 319.263084 307.584 
L 305.524445 307.584 
L 296.228163 307.584 
L 292.17778 307.584 
L 289.901072 307.584 
L 271.703746 306.388528 
L 271.491427 306.388528 
L 265.827424 306.388528 
L 262.413996 306.388528 
L 258.905841 306.388528 
L 258.180692 305.193057 
L 251.014127 305.193057 
L 244.566178 305.193057 
L 236.543806 303.997585 
L 227.316119 302.802113 
L 223.804698 301.606642 
L 223.108947 300.41117 
L 222.475258 300.41117 
L 219.773913 299.215698 
L 217.990438 298.020226 
L 217.618064 298.020226 
L 215.707198 298.020226 
L 215.387087 296.824755 
L 213.538283 295.629283 
L 202.785169 294.433811 
L 200.95923 293.23834 
L 199.904171 293.23834 
L 199.348876 293.23834 
L 198.15336 292.042868 
L 196.81412 290.847396 
L 192.234574 289.651925 
L 192.00919 288.456453 
L 186.554238 287.260981 
L 185.904217 286.065509 
L 185.401186 284.870038 
L 184.917753 283.674566 
L 175.304626 282.479094 
L 174.442286 282.479094 
L 173.285967 281.283623 
L 170.813273 281.283623 
L 169.607958 280.088151 
L 168.703154 278.892679 
L 165.495512 277.697208 
L 164.437186 277.697208 
L 164.130141 276.501736 
L 163.630376 275.306264 
L 162.121282 274.110792 
L 161.830569 272.915321 
L 160.9029 272.915321 
L 158.600061 271.719849 
L 156.329887 270.524377 
L 155.71253 269.328906 
L 155.451215 269.328906 
L 153.540349 268.133434 
L 149.081661 266.937962 
L 148.947737 266.937962 
L 145.077008 266.937962 
L 143.251069 266.937962 
L 142.222141 265.742491 
L 141.474127 264.547019 
L 140.75551 264.547019 
L 140.343939 263.351547 
L 139.71025 262.156075 
L 138.821779 260.960604 
L 138.005169 259.765132 
L 136.104102 258.56966 
L 135.721929 257.374189 
L 134.480683 256.178717 
L 133.020585 254.983245 
L 132.922592 253.787774 
L 132.814799 252.592302 
L 132.765803 251.39683 
L 132.729872 251.39683 
L 131.609484 250.201358 
L 129.816209 249.005887 
L 129.195586 249.005887 
L 127.719156 249.005887 
L 127.702824 247.810415 
L 127.670159 247.810415 
L 127.27492 246.614943 
L 126.879681 245.419472 
L 126.833951 244.224 
L 126.337453 244.224 
L 125.929148 243.028528 
L 125.860553 241.833057 
L 124.942684 240.637585 
L 124.782628 239.442113 
L 124.779362 238.246642 
L 124.710767 237.05117 
L 124.465784 237.05117 
L 122.878295 235.855698 
L 122.420993 234.660226 
L 122.042087 233.464755 
L 121.503124 232.269283 
L 120.918432 231.073811 
L 119.89277 229.87834 
L 119.09576 228.682868 
L 118.840977 227.487396 
L 118.057032 226.291925 
L 116.332353 225.096453 
L 116.244159 223.900981 
L 115.685598 223.900981 
L 114.346359 223.900981 
L 113.977251 222.705509 
L 113.869459 221.510038 
L 113.745334 221.510038 
L 112.314634 220.314566 
L 111.876931 219.119094 
L 111.700544 217.923623 
L 110.547491 217.923623 
L 110.064058 216.728151 
L 109.56756 215.532679 
L 109.031864 214.337208 
L 108.296915 213.141736 
L 107.960472 211.946264 
L 107.496638 210.750792 
L 107.323517 209.555321 
L 106.242326 208.359849 
L 106.154132 207.164377 
L 105.811156 205.968906 
L 105.193799 204.773434 
L 104.841024 203.577962 
L 104.547044 202.382491 
L 104.517646 201.187019 
L 104.51438 199.991547 
L 104.429453 198.796075 
L 103.94602 198.796075 
L 103.442988 197.600604 
L 103.439722 196.405132 
L 102.985687 195.20966 
L 102.969355 194.014189 
L 102.156012 192.818717 
L 100.872302 191.623245 
L 100.682848 190.427774 
L 100.669782 189.232302 
L 100.395402 188.03683 
L 99.967498 186.841358 
L 99.477533 185.645887 
L 99.448135 184.450415 
L 99.363207 184.450415 
L 99.118224 184.450415 
L 98.951636 183.254943 
L 98.928771 182.059472 
L 98.47147 180.864 
L 98.376743 179.668528 
L 97.661393 179.668528 
L 97.511137 178.473057 
L 96.89378 177.277585 
L 95.646001 176.082113 
L 94.911052 174.886642 
L 94.548477 173.69117 
L 94.283896 172.495698 
L 93.859259 171.300226 
L 93.186373 170.104755 
L 93.17984 168.909283 
L 92.88586 167.713811 
L 92.843397 166.51834 
L 92.706206 165.322868 
L 92.167244 164.127396 
L 91.964725 162.931925 
L 91.729541 161.736453 
L 91.099119 160.540981 
L 90.824738 159.345509 
L 90.811672 158.150038 
L 90.36417 156.954566 
L 90.164918 155.759094 
L 88.394508 154.563623 
L 88.129927 153.368151 
L 87.394978 152.172679 
L 87.094466 150.977208 
L 86.722092 149.781736 
L 86.372583 148.586264 
L 85.898949 147.390792 
L 85.693164 146.195321 
L 85.079074 144.999849 
L 84.608706 143.804377 
L 84.177537 142.608906 
L 83.723502 141.413434 
L 82.959155 140.217962 
L 82.815432 139.022491 
L 82.7991 137.827019 
L 82.776235 136.631547 
L 82.707639 135.436075 
L 81.99229 134.240604 
L 81.822435 133.045132 
L 81.397798 131.84966 
L 81.08422 131.84966 
L 80.969894 131.84966 
L 80.783707 130.654189 
L 80.166351 129.458717 
L 79.718849 129.458717 
L 78.115028 128.263245 
L 77.520536 127.067774 
L 77.422543 125.872302 
L 77.288619 125.872302 
L 77.233089 124.67683 
L 76.547137 123.481358 
L 75.93958 122.285887 
L 75.923248 121.090415 
L 75.658666 119.894943 
L 75.590071 119.894943 
L 75.354887 118.699472 
L 75.152368 118.699472 
L 74.276963 117.504 
L 73.832727 116.308528 
z
" clip-path="url(#pfdb53cf9cb)" style="fill: #008000"/>
   </g>
   <g id="PolyCollection_2">
    <path d="M 73.832727 60.121358 
L 73.832727 116.308528 
L 74.276963 117.504 
L 75.152368 118.699472 
L 75.354887 118.699472 
L 75.590071 119.894943 
L 75.658666 119.894943 
L 75.923248 121.090415 
L 75.93958 122.285887 
L 76.547137 123.481358 
L 77.233089 124.67683 
L 77.288619 125.872302 
L 77.422543 125.872302 
L 77.520536 127.067774 
L 78.115028 128.263245 
L 79.718849 129.458717 
L 80.166351 129.458717 
L 80.783707 130.654189 
L 80.969894 131.84966 
L 81.08422 131.84966 
L 81.397798 131.84966 
L 81.822435 133.045132 
L 81.99229 134.240604 
L 82.707639 135.436075 
L 82.776235 136.631547 
L 82.7991 137.827019 
L 82.815432 139.022491 
L 82.959155 140.217962 
L 83.723502 141.413434 
L 84.177537 142.608906 
L 84.608706 143.804377 
L 85.079074 144.999849 
L 85.693164 146.195321 
L 85.898949 147.390792 
L 86.372583 148.586264 
L 86.722092 149.781736 
L 87.094466 150.977208 
L 87.394978 152.172679 
L 88.129927 153.368151 
L 88.394508 154.563623 
L 90.164918 155.759094 
L 90.36417 156.954566 
L 90.811672 158.150038 
L 90.824738 159.345509 
L 91.099119 160.540981 
L 91.729541 161.736453 
L 91.964725 162.931925 
L 92.167244 164.127396 
L 92.706206 165.322868 
L 92.843397 166.51834 
L 92.88586 167.713811 
L 93.17984 168.909283 
L 93.186373 170.104755 
L 93.859259 171.300226 
L 94.283896 172.495698 
L 94.548477 173.69117 
L 94.911052 174.886642 
L 95.646001 176.082113 
L 96.89378 177.277585 
L 97.511137 178.473057 
L 97.661393 179.668528 
L 98.376743 179.668528 
L 98.47147 180.864 
L 98.928771 182.059472 
L 98.951636 183.254943 
L 99.118224 184.450415 
L 99.363207 184.450415 
L 99.448135 184.450415 
L 99.477533 185.645887 
L 99.967498 186.841358 
L 100.395402 188.03683 
L 100.669782 189.232302 
L 100.682848 190.427774 
L 100.872302 191.623245 
L 102.156012 192.818717 
L 102.969355 194.014189 
L 102.985687 195.20966 
L 103.439722 196.405132 
L 103.442988 197.600604 
L 103.94602 198.796075 
L 104.429453 198.796075 
L 104.51438 199.991547 
L 104.517646 201.187019 
L 104.547044 202.382491 
L 104.841024 203.577962 
L 105.193799 204.773434 
L 105.811156 205.968906 
L 106.154132 207.164377 
L 106.242326 208.359849 
L 107.323517 209.555321 
L 107.496638 210.750792 
L 107.960472 211.946264 
L 108.296915 213.141736 
L 109.031864 214.337208 
L 109.56756 215.532679 
L 110.064058 216.728151 
L 110.547491 217.923623 
L 111.700544 217.923623 
L 111.876931 219.119094 
L 112.314634 220.314566 
L 113.745334 221.510038 
L 113.869459 221.510038 
L 113.977251 222.705509 
L 114.346359 223.900981 
L 115.685598 223.900981 
L 116.244159 223.900981 
L 116.332353 225.096453 
L 118.057032 226.291925 
L 118.840977 227.487396 
L 119.09576 228.682868 
L 119.89277 229.87834 
L 120.918432 231.073811 
L 121.503124 232.269283 
L 122.042087 233.464755 
L 122.420993 234.660226 
L 122.878295 235.855698 
L 124.465784 237.05117 
L 124.710767 237.05117 
L 124.779362 238.246642 
L 124.782628 239.442113 
L 124.942684 240.637585 
L 125.860553 241.833057 
L 125.929148 243.028528 
L 126.337453 244.224 
L 126.833951 244.224 
L 126.879681 245.419472 
L 127.27492 246.614943 
L 127.670159 247.810415 
L 127.702824 247.810415 
L 127.719156 249.005887 
L 129.195586 249.005887 
L 129.816209 249.005887 
L 131.609484 250.201358 
L 132.729872 251.39683 
L 132.765803 251.39683 
L 132.814799 252.592302 
L 132.922592 253.787774 
L 133.020585 254.983245 
L 134.480683 256.178717 
L 135.721929 257.374189 
L 136.104102 258.56966 
L 138.005169 259.765132 
L 138.821779 260.960604 
L 139.71025 262.156075 
L 140.343939 263.351547 
L 140.75551 264.547019 
L 141.474127 264.547019 
L 142.222141 265.742491 
L 143.251069 266.937962 
L 145.077008 266.937962 
L 148.947737 266.937962 
L 149.081661 266.937962 
L 153.540349 268.133434 
L 155.451215 269.328906 
L 155.71253 269.328906 
L 156.329887 270.524377 
L 158.600061 271.719849 
L 160.9029 272.915321 
L 161.830569 272.915321 
L 162.121282 274.110792 
L 163.630376 275.306264 
L 164.130141 276.501736 
L 164.437186 277.697208 
L 165.495512 277.697208 
L 168.703154 278.892679 
L 169.607958 280.088151 
L 170.813273 281.283623 
L 173.285967 281.283623 
L 174.442286 282.479094 
L 175.304626 282.479094 
L 184.917753 283.674566 
L 185.401186 284.870038 
L 185.904217 286.065509 
L 186.554238 287.260981 
L 192.00919 288.456453 
L 192.234574 289.651925 
L 196.81412 290.847396 
L 198.15336 292.042868 
L 199.348876 293.23834 
L 199.904171 293.23834 
L 200.95923 293.23834 
L 202.785169 294.433811 
L 213.538283 295.629283 
L 215.387087 296.824755 
L 215.707198 298.020226 
L 217.618064 298.020226 
L 217.990438 298.020226 
L 219.773913 299.215698 
L 222.475258 300.41117 
L 223.108947 300.41117 
L 223.804698 301.606642 
L 227.316119 302.802113 
L 236.543806 303.997585 
L 244.566178 305.193057 
L 251.014127 305.193057 
L 258.180692 305.193057 
L 258.905841 306.388528 
L 262.413996 306.388528 
L 265.827424 306.388528 
L 271.491427 306.388528 
L 271.703746 306.388528 
L 289.901072 307.584 
L 292.17778 307.584 
L 296.228163 307.584 
L 305.524445 307.584 
L 319.263084 307.584 
L 320.151555 307.584 
L 321.069424 307.584 
L 339.211221 307.584 
L 342.249009 307.584 
L 343.382463 307.584 
L 385.199403 307.584 
L 398.487273 307.584 
L 398.487273 306.388528 
L 398.487273 306.388528 
L 385.199403 305.193057 
L 343.382463 303.997585 
L 342.249009 302.802113 
L 339.211221 301.606642 
L 321.069424 300.41117 
L 320.151555 299.215698 
L 319.263084 298.020226 
L 305.524445 296.824755 
L 296.228163 295.629283 
L 292.17778 294.433811 
L 289.901072 293.23834 
L 271.703746 292.042868 
L 271.491427 290.847396 
L 265.827424 289.651925 
L 262.413996 288.456453 
L 258.905841 287.260981 
L 258.180692 286.065509 
L 251.014127 284.870038 
L 244.566178 283.674566 
L 236.543806 282.479094 
L 227.316119 281.283623 
L 223.804698 280.088151 
L 223.108947 278.892679 
L 222.475258 277.697208 
L 219.773913 276.501736 
L 217.990438 275.306264 
L 217.618064 274.110792 
L 215.707198 272.915321 
L 215.387087 271.719849 
L 213.538283 270.524377 
L 202.785169 269.328906 
L 200.95923 268.133434 
L 199.904171 266.937962 
L 199.348876 265.742491 
L 198.15336 264.547019 
L 196.81412 263.351547 
L 192.234574 262.156075 
L 192.00919 260.960604 
L 186.554238 259.765132 
L 185.904217 258.56966 
L 185.401186 257.374189 
L 184.917753 256.178717 
L 175.304626 254.983245 
L 174.442286 253.787774 
L 173.285967 252.592302 
L 170.813273 251.39683 
L 169.607958 250.201358 
L 168.703154 249.005887 
L 165.495512 247.810415 
L 164.437186 246.614943 
L 164.130141 245.419472 
L 163.630376 244.224 
L 162.121282 243.028528 
L 161.830569 241.833057 
L 160.9029 240.637585 
L 158.600061 239.442113 
L 156.329887 238.246642 
L 155.71253 237.05117 
L 155.451215 235.855698 
L 153.540349 234.660226 
L 149.081661 233.464755 
L 148.947737 232.269283 
L 145.077008 231.073811 
L 143.251069 229.87834 
L 142.222141 228.682868 
L 141.474127 227.487396 
L 140.75551 226.291925 
L 140.343939 225.096453 
L 139.71025 223.900981 
L 138.821779 222.705509 
L 138.005169 221.510038 
L 136.104102 220.314566 
L 135.721929 219.119094 
L 134.480683 217.923623 
L 133.020585 216.728151 
L 132.922592 215.532679 
L 132.814799 214.337208 
L 132.765803 213.141736 
L 132.729872 211.946264 
L 131.609484 210.750792 
L 129.816209 209.555321 
L 129.195586 208.359849 
L 127.719156 207.164377 
L 127.702824 205.968906 
L 127.670159 204.773434 
L 127.27492 203.577962 
L 126.879681 202.382491 
L 126.833951 201.187019 
L 126.337453 199.991547 
L 125.929148 198.796075 
L 125.860553 197.600604 
L 124.942684 196.405132 
L 124.782628 195.20966 
L 124.779362 194.014189 
L 124.710767 192.818717 
L 124.465784 191.623245 
L 122.878295 190.427774 
L 122.420993 189.232302 
L 122.042087 188.03683 
L 121.503124 186.841358 
L 120.918432 185.645887 
L 119.89277 184.450415 
L 119.09576 183.254943 
L 118.840977 182.059472 
L 118.057032 180.864 
L 116.332353 179.668528 
L 116.244159 178.473057 
L 115.685598 177.277585 
L 114.346359 176.082113 
L 113.977251 174.886642 
L 113.869459 173.69117 
L 113.745334 172.495698 
L 112.314634 171.300226 
L 111.876931 170.104755 
L 111.700544 168.909283 
L 110.547491 168.909283 
L 110.064058 167.713811 
L 109.56756 166.51834 
L 109.031864 165.322868 
L 108.296915 164.127396 
L 107.960472 162.931925 
L 107.496638 161.736453 
L 107.323517 160.540981 
L 106.242326 159.345509 
L 106.154132 158.150038 
L 105.811156 156.954566 
L 105.193799 155.759094 
L 104.841024 154.563623 
L 104.547044 153.368151 
L 104.517646 152.172679 
L 104.51438 150.977208 
L 104.429453 149.781736 
L 103.94602 148.586264 
L 103.442988 147.390792 
L 103.439722 146.195321 
L 102.985687 144.999849 
L 102.969355 143.804377 
L 102.156012 142.608906 
L 100.872302 141.413434 
L 100.682848 140.217962 
L 100.669782 139.022491 
L 100.395402 137.827019 
L 99.967498 136.631547 
L 99.477533 135.436075 
L 99.448135 134.240604 
L 99.363207 133.045132 
L 99.118224 131.84966 
L 98.951636 130.654189 
L 98.928771 129.458717 
L 98.47147 128.263245 
L 98.376743 127.067774 
L 97.661393 125.872302 
L 97.511137 124.67683 
L 96.89378 123.481358 
L 95.646001 122.285887 
L 94.911052 121.090415 
L 94.548477 119.894943 
L 94.283896 118.699472 
L 93.859259 117.504 
L 93.186373 116.308528 
L 93.17984 115.113057 
L 92.88586 113.917585 
L 92.843397 112.722113 
L 92.706206 111.526642 
L 92.167244 110.33117 
L 91.964725 109.135698 
L 91.729541 107.940226 
L 91.099119 106.744755 
L 90.824738 105.549283 
L 90.811672 104.353811 
L 90.36417 103.15834 
L 90.164918 101.962868 
L 88.394508 100.767396 
L 88.129927 99.571925 
L 87.394978 98.376453 
L 87.094466 97.180981 
L 86.722092 95.985509 
L 86.372583 94.790038 
L 85.898949 93.594566 
L 85.693164 92.399094 
L 85.079074 91.203623 
L 84.608706 90.008151 
L 84.177537 88.812679 
L 83.723502 87.617208 
L 82.959155 86.421736 
L 82.815432 85.226264 
L 82.7991 84.030792 
L 82.776235 82.835321 
L 82.707639 81.639849 
L 81.99229 80.444377 
L 81.822435 79.248906 
L 81.397798 78.053434 
L 81.08422 78.053434 
L 80.969894 78.053434 
L 80.783707 76.857962 
L 80.166351 75.662491 
L 79.718849 74.467019 
L 78.115028 73.271547 
L 77.520536 72.076075 
L 77.422543 70.880604 
L 77.288619 70.880604 
L 77.233089 69.685132 
L 76.547137 68.48966 
L 75.93958 67.294189 
L 75.923248 66.098717 
L 75.658666 64.903245 
L 75.590071 64.903245 
L 75.354887 63.707774 
L 75.152368 62.512302 
L 74.276963 61.31683 
L 73.832727 60.121358 
z
" clip-path="url(#pfdb53cf9cb)" style="fill: #7cfc00"/>
   </g>
   <g id="PolyCollection_3">
    <path d="M 73.832727 54.144 
L 73.832727 60.121358 
L 74.276963 61.31683 
L 75.152368 62.512302 
L 75.354887 63.707774 
L 75.590071 64.903245 
L 75.658666 64.903245 
L 75.923248 66.098717 
L 75.93958 67.294189 
L 76.547137 68.48966 
L 77.233089 69.685132 
L 77.288619 70.880604 
L 77.422543 70.880604 
L 77.520536 72.076075 
L 78.115028 73.271547 
L 79.718849 74.467019 
L 80.166351 75.662491 
L 80.783707 76.857962 
L 80.969894 78.053434 
L 81.08422 78.053434 
L 81.397798 78.053434 
L 81.822435 79.248906 
L 81.99229 80.444377 
L 82.707639 81.639849 
L 82.776235 82.835321 
L 82.7991 84.030792 
L 82.815432 85.226264 
L 82.959155 86.421736 
L 83.723502 87.617208 
L 84.177537 88.812679 
L 84.608706 90.008151 
L 85.079074 91.203623 
L 85.693164 92.399094 
L 85.898949 93.594566 
L 86.372583 94.790038 
L 86.722092 95.985509 
L 87.094466 97.180981 
L 87.394978 98.376453 
L 88.129927 99.571925 
L 88.394508 100.767396 
L 90.164918 101.962868 
L 90.36417 103.15834 
L 90.811672 104.353811 
L 90.824738 105.549283 
L 91.099119 106.744755 
L 91.729541 107.940226 
L 91.964725 109.135698 
L 92.167244 110.33117 
L 92.706206 111.526642 
L 92.843397 112.722113 
L 92.88586 113.917585 
L 93.17984 115.113057 
L 93.186373 116.308528 
L 93.859259 117.504 
L 94.283896 118.699472 
L 94.548477 119.894943 
L 94.911052 121.090415 
L 95.646001 122.285887 
L 96.89378 123.481358 
L 97.511137 124.67683 
L 97.661393 125.872302 
L 98.376743 127.067774 
L 98.47147 128.263245 
L 98.928771 129.458717 
L 98.951636 130.654189 
L 99.118224 131.84966 
L 99.363207 133.045132 
L 99.448135 134.240604 
L 99.477533 135.436075 
L 99.967498 136.631547 
L 100.395402 137.827019 
L 100.669782 139.022491 
L 100.682848 140.217962 
L 100.872302 141.413434 
L 102.156012 142.608906 
L 102.969355 143.804377 
L 102.985687 144.999849 
L 103.439722 146.195321 
L 103.442988 147.390792 
L 103.94602 148.586264 
L 104.429453 149.781736 
L 104.51438 150.977208 
L 104.517646 152.172679 
L 104.547044 153.368151 
L 104.841024 154.563623 
L 105.193799 155.759094 
L 105.811156 156.954566 
L 106.154132 158.150038 
L 106.242326 159.345509 
L 107.323517 160.540981 
L 107.496638 161.736453 
L 107.960472 162.931925 
L 108.296915 164.127396 
L 109.031864 165.322868 
L 109.56756 166.51834 
L 110.064058 167.713811 
L 110.547491 168.909283 
L 111.700544 168.909283 
L 111.876931 170.104755 
L 112.314634 171.300226 
L 113.745334 172.495698 
L 113.869459 173.69117 
L 113.977251 174.886642 
L 114.346359 176.082113 
L 115.685598 177.277585 
L 116.244159 178.473057 
L 116.332353 179.668528 
L 118.057032 180.864 
L 118.840977 182.059472 
L 119.09576 183.254943 
L 119.89277 184.450415 
L 120.918432 185.645887 
L 121.503124 186.841358 
L 122.042087 188.03683 
L 122.420993 189.232302 
L 122.878295 190.427774 
L 124.465784 191.623245 
L 124.710767 192.818717 
L 124.779362 194.014189 
L 124.782628 195.20966 
L 124.942684 196.405132 
L 125.860553 197.600604 
L 125.929148 198.796075 
L 126.337453 199.991547 
L 126.833951 201.187019 
L 126.879681 202.382491 
L 127.27492 203.577962 
L 127.670159 204.773434 
L 127.702824 205.968906 
L 127.719156 207.164377 
L 129.195586 208.359849 
L 129.816209 209.555321 
L 131.609484 210.750792 
L 132.729872 211.946264 
L 132.765803 213.141736 
L 132.814799 214.337208 
L 132.922592 215.532679 
L 133.020585 216.728151 
L 134.480683 217.923623 
L 135.721929 219.119094 
L 136.104102 220.314566 
L 138.005169 221.510038 
L 138.821779 222.705509 
L 139.71025 223.900981 
L 140.343939 225.096453 
L 140.75551 226.291925 
L 141.474127 227.487396 
L 142.222141 228.682868 
L 143.251069 229.87834 
L 145.077008 231.073811 
L 148.947737 232.269283 
L 149.081661 233.464755 
L 153.540349 234.660226 
L 155.451215 235.855698 
L 155.71253 237.05117 
L 156.329887 238.246642 
L 158.600061 239.442113 
L 160.9029 240.637585 
L 161.830569 241.833057 
L 162.121282 243.028528 
L 163.630376 244.224 
L 164.130141 245.419472 
L 164.437186 246.614943 
L 165.495512 247.810415 
L 168.703154 249.005887 
L 169.607958 250.201358 
L 170.813273 251.39683 
L 173.285967 252.592302 
L 174.442286 253.787774 
L 175.304626 254.983245 
L 184.917753 256.178717 
L 185.401186 257.374189 
L 185.904217 258.56966 
L 186.554238 259.765132 
L 192.00919 260.960604 
L 192.234574 262.156075 
L 196.81412 263.351547 
L 198.15336 264.547019 
L 199.348876 265.742491 
L 199.904171 266.937962 
L 200.95923 268.133434 
L 202.785169 269.328906 
L 213.538283 270.524377 
L 215.387087 271.719849 
L 215.707198 272.915321 
L 217.618064 274.110792 
L 217.990438 275.306264 
L 219.773913 276.501736 
L 222.475258 277.697208 
L 223.108947 278.892679 
L 223.804698 280.088151 
L 227.316119 281.283623 
L 236.543806 282.479094 
L 244.566178 283.674566 
L 251.014127 284.870038 
L 258.180692 286.065509 
L 258.905841 287.260981 
L 262.413996 288.456453 
L 265.827424 289.651925 
L 271.491427 290.847396 
L 271.703746 292.042868 
L 289.901072 293.23834 
L 292.17778 294.433811 
L 296.228163 295.629283 
L 305.524445 296.824755 
L 319.263084 298.020226 
L 320.151555 299.215698 
L 321.069424 300.41117 
L 339.211221 301.606642 
L 342.249009 302.802113 
L 343.382463 303.997585 
L 385.199403 305.193057 
L 398.487273 306.388528 
L 398.487273 306.388528 
L 398.487273 306.388528 
L 385.199403 305.193057 
L 343.382463 303.997585 
L 342.249009 302.802113 
L 339.211221 301.606642 
L 321.069424 300.41117 
L 320.151555 299.215698 
L 319.263084 298.020226 
L 305.524445 296.824755 
L 296.228163 295.629283 
L 292.17778 294.433811 
L 289.901072 293.23834 
L 271.703746 292.042868 
L 271.491427 290.847396 
L 265.827424 289.651925 
L 262.413996 288.456453 
L 258.905841 287.260981 
L 258.180692 286.065509 
L 251.014127 284.870038 
L 244.566178 283.674566 
L 236.543806 282.479094 
L 227.316119 281.283623 
L 223.804698 280.088151 
L 223.108947 278.892679 
L 222.475258 277.697208 
L 219.773913 276.501736 
L 217.990438 275.306264 
L 217.618064 274.110792 
L 215.707198 272.915321 
L 215.387087 271.719849 
L 213.538283 270.524377 
L 202.785169 269.328906 
L 200.95923 268.133434 
L 199.904171 266.937962 
L 199.348876 265.742491 
L 198.15336 264.547019 
L 196.81412 263.351547 
L 192.234574 262.156075 
L 192.00919 260.960604 
L 186.554238 259.765132 
L 185.904217 258.56966 
L 185.401186 257.374189 
L 184.917753 256.178717 
L 175.304626 254.983245 
L 174.442286 253.787774 
L 173.285967 252.592302 
L 170.813273 251.39683 
L 169.607958 250.201358 
L 168.703154 249.005887 
L 165.495512 247.810415 
L 164.437186 246.614943 
L 164.130141 245.419472 
L 163.630376 244.224 
L 162.121282 243.028528 
L 161.830569 241.833057 
L 160.9029 240.637585 
L 158.600061 239.442113 
L 156.329887 238.246642 
L 155.71253 237.05117 
L 155.451215 235.855698 
L 153.540349 234.660226 
L 149.081661 233.464755 
L 148.947737 232.269283 
L 145.077008 231.073811 
L 143.251069 229.87834 
L 142.222141 228.682868 
L 141.474127 227.487396 
L 140.75551 226.291925 
L 140.343939 225.096453 
L 139.71025 223.900981 
L 138.821779 222.705509 
L 138.005169 221.510038 
L 136.104102 220.314566 
L 135.721929 219.119094 
L 134.480683 217.923623 
L 133.020585 216.728151 
L 132.922592 215.532679 
L 132.814799 214.337208 
L 132.765803 213.141736 
L 132.729872 211.946264 
L 131.609484 210.750792 
L 129.816209 209.555321 
L 129.195586 208.359849 
L 127.719156 207.164377 
L 127.702824 205.968906 
L 127.670159 204.773434 
L 127.27492 203.577962 
L 126.879681 202.382491 
L 126.833951 201.187019 
L 126.337453 199.991547 
L 125.929148 198.796075 
L 125.860553 197.600604 
L 124.942684 196.405132 
L 124.782628 195.20966 
L 124.779362 194.014189 
L 124.710767 192.818717 
L 124.465784 191.623245 
L 122.878295 190.427774 
L 122.420993 189.232302 
L 122.042087 188.03683 
L 121.503124 186.841358 
L 120.918432 185.645887 
L 119.89277 184.450415 
L 119.09576 183.254943 
L 118.840977 182.059472 
L 118.057032 180.864 
L 116.332353 179.668528 
L 116.244159 178.473057 
L 115.685598 177.277585 
L 114.346359 176.082113 
L 113.977251 174.886642 
L 113.869459 173.69117 
L 113.745334 172.495698 
L 112.314634 171.300226 
L 111.876931 170.104755 
L 111.700544 168.909283 
L 110.547491 167.713811 
L 110.064058 166.51834 
L 109.56756 165.322868 
L 109.031864 164.127396 
L 108.296915 162.931925 
L 107.960472 161.736453 
L 107.496638 160.540981 
L 107.323517 159.345509 
L 106.242326 158.150038 
L 106.154132 156.954566 
L 105.811156 155.759094 
L 105.193799 154.563623 
L 104.841024 153.368151 
L 104.547044 152.172679 
L 104.517646 150.977208 
L 104.51438 149.781736 
L 104.429453 148.586264 
L 103.94602 147.390792 
L 103.442988 146.195321 
L 103.439722 144.999849 
L 102.985687 143.804377 
L 102.969355 142.608906 
L 102.156012 141.413434 
L 100.872302 140.217962 
L 100.682848 139.022491 
L 100.669782 137.827019 
L 100.395402 136.631547 
L 99.967498 135.436075 
L 99.477533 134.240604 
L 99.448135 133.045132 
L 99.363207 131.84966 
L 99.118224 130.654189 
L 98.951636 129.458717 
L 98.928771 128.263245 
L 98.47147 127.067774 
L 98.376743 125.872302 
L 97.661393 124.67683 
L 97.511137 123.481358 
L 96.89378 122.285887 
L 95.646001 121.090415 
L 94.911052 119.894943 
L 94.548477 118.699472 
L 94.283896 117.504 
L 93.859259 116.308528 
L 93.186373 115.113057 
L 93.17984 113.917585 
L 92.88586 112.722113 
L 92.843397 111.526642 
L 92.706206 110.33117 
L 92.167244 109.135698 
L 91.964725 107.940226 
L 91.729541 106.744755 
L 91.099119 105.549283 
L 90.824738 104.353811 
L 90.811672 103.15834 
L 90.36417 101.962868 
L 90.164918 100.767396 
L 88.394508 99.571925 
L 88.129927 98.376453 
L 87.394978 97.180981 
L 87.094466 95.985509 
L 86.722092 94.790038 
L 86.372583 93.594566 
L 85.898949 92.399094 
L 85.693164 91.203623 
L 85.079074 90.008151 
L 84.608706 88.812679 
L 84.177537 87.617208 
L 83.723502 86.421736 
L 82.959155 85.226264 
L 82.815432 84.030792 
L 82.7991 82.835321 
L 82.776235 81.639849 
L 82.707639 80.444377 
L 81.99229 79.248906 
L 81.822435 78.053434 
L 81.397798 76.857962 
L 81.08422 75.662491 
L 80.969894 74.467019 
L 80.783707 73.271547 
L 80.166351 72.076075 
L 79.718849 70.880604 
L 78.115028 69.685132 
L 77.520536 68.48966 
L 77.422543 67.294189 
L 77.288619 66.098717 
L 77.233089 64.903245 
L 76.547137 63.707774 
L 75.93958 62.512302 
L 75.923248 61.31683 
L 75.658666 60.121358 
L 75.590071 58.925887 
L 75.354887 57.730415 
L 75.152368 56.534943 
L 74.276963 55.339472 
L 73.832727 54.144 
z
" clip-path="url(#pfdb53cf9cb)" style="fill: #ff0000"/>
   </g>
   <g id="matplotlib.axis_1">
    <g id="xtick_1">
     <g id="line2d_1">
      <defs>
       <path id="mf33ca11cb0" d="M 0 0 
L 0 3.5 
" style="stroke: #000000; stroke-width: 0.8"/>
      </defs>
      <g>
       <use xlink:href="#mf33ca11cb0" x="121.284273" y="307.584" style="stroke: #000000; stroke-width: 0.8"/>
      </g>
     </g>
     <g id="text_1">
      <!-- 200 -->
      <g transform="translate(111.740523 322.182437)scale(0.1 -0.1)">
       <defs>
        <path id="DejaVuSans-32" d="M 1228 531 
L 3431 531 
L 3431 0 
L 469 0 
L 469 531 
Q 828 903 1448 1529 
Q 2069 2156 2228 2338 
Q 2531 2678 2651 2914 
Q 2772 3150 2772 3378 
Q 2772 3750 2511 3984 
Q 2250 4219 1831 4219 
Q 1534 4219 1204 4116 
Q 875 4013 500 3803 
L 500 4441 
Q 881 4594 1212 4672 
Q 1544 4750 1819 4750 
Q 2544 4750 2975 4387 
Q 3406 4025 3406 3419 
Q 3406 3131 3298 2873 
Q 3191 2616 2906 2266 
Q 2828 2175 2409 1742 
Q 1991 1309 1228 531 
z
" transform="scale(0.015625)"/>
        <path id="DejaVuSans-30" d="M 2034 4250 
Q 1547 4250 1301 3770 
Q 1056 3291 1056 2328 
Q 1056 1369 1301 889 
Q 1547 409 2034 409 
Q 2525 409 2770 889 
Q 3016 1369 3016 2328 
Q 3016 3291 2770 3770 
Q 2525 4250 2034 4250 
z
M 2034 4750 
Q 2819 4750 3233 4129 
Q 3647 3509 3647 2328 
Q 3647 1150 3233 529 
Q 2819 -91 2034 -91 
Q 1250 -91 836 529 
Q 422 1150 422 2328 
Q 422 3509 836 4129 
Q 1250 4750 2034 4750 
z
" transform="scale(0.015625)"/>
       </defs>
       <use xlink:href="#DejaVuSans-32"/>
       <use xlink:href="#DejaVuSans-30" x="63.623047"/>
       <use xlink:href="#DejaVuSans-30" x="127.246094"/>
      </g>
     </g>
    </g>
    <g id="xtick_2">
     <g id="line2d_2">
      <g>
       <use xlink:href="#mf33ca11cb0" x="186.613034" y="307.584" style="stroke: #000000; stroke-width: 0.8"/>
      </g>
     </g>
     <g id="text_2">
      <!-- 400 -->
      <g transform="translate(177.069284 322.182437)scale(0.1 -0.1)">
       <defs>
        <path id="DejaVuSans-34" d="M 2419 4116 
L 825 1625 
L 2419 1625 
L 2419 4116 
z
M 2253 4666 
L 3047 4666 
L 3047 1625 
L 3713 1625 
L 3713 1100 
L 3047 1100 
L 3047 0 
L 2419 0 
L 2419 1100 
L 313 1100 
L 313 1709 
L 2253 4666 
z
" transform="scale(0.015625)"/>
       </defs>
       <use xlink:href="#DejaVuSans-34"/>
       <use xlink:href="#DejaVuSans-30" x="63.623047"/>
       <use xlink:href="#DejaVuSans-30" x="127.246094"/>
      </g>
     </g>
    </g>
    <g id="xtick_3">
     <g id="line2d_3">
      <g>
       <use xlink:href="#mf33ca11cb0" x="251.941795" y="307.584" style="stroke: #000000; stroke-width: 0.8"/>
      </g>
     </g>
     <g id="text_3">
      <!-- 600 -->
      <g transform="translate(242.398045 322.182437)scale(0.1 -0.1)">
       <defs>
        <path id="DejaVuSans-36" d="M 2113 2584 
Q 1688 2584 1439 2293 
Q 1191 2003 1191 1497 
Q 1191 994 1439 701 
Q 1688 409 2113 409 
Q 2538 409 2786 701 
Q 3034 994 3034 1497 
Q 3034 2003 2786 2293 
Q 2538 2584 2113 2584 
z
M 3366 4563 
L 3366 3988 
Q 3128 4100 2886 4159 
Q 2644 4219 2406 4219 
Q 1781 4219 1451 3797 
Q 1122 3375 1075 2522 
Q 1259 2794 1537 2939 
Q 1816 3084 2150 3084 
Q 2853 3084 3261 2657 
Q 3669 2231 3669 1497 
Q 3669 778 3244 343 
Q 2819 -91 2113 -91 
Q 1303 -91 875 529 
Q 447 1150 447 2328 
Q 447 3434 972 4092 
Q 1497 4750 2381 4750 
Q 2619 4750 2861 4703 
Q 3103 4656 3366 4563 
z
" transform="scale(0.015625)"/>
       </defs>
       <use xlink:href="#DejaVuSans-36"/>
       <use xlink:href="#DejaVuSans-30" x="63.623047"/>
       <use xlink:href="#DejaVuSans-30" x="127.246094"/>
      </g>
     </g>
    </g>
    <g id="xtick_4">
     <g id="line2d_4">
      <g>
       <use xlink:href="#mf33ca11cb0" x="317.270557" y="307.584" style="stroke: #000000; stroke-width: 0.8"/>
      </g>
     </g>
     <g id="text_4">
      <!-- 800 -->
      <g transform="translate(307.726807 322.182437)scale(0.1 -0.1)">
       <defs>
        <path id="DejaVuSans-38" d="M 2034 2216 
Q 1584 2216 1326 1975 
Q 1069 1734 1069 1313 
Q 1069 891 1326 650 
Q 1584 409 2034 409 
Q 2484 409 2743 651 
Q 3003 894 3003 1313 
Q 3003 1734 2745 1975 
Q 2488 2216 2034 2216 
z
M 1403 2484 
Q 997 2584 770 2862 
Q 544 3141 544 3541 
Q 544 4100 942 4425 
Q 1341 4750 2034 4750 
Q 2731 4750 3128 4425 
Q 3525 4100 3525 3541 
Q 3525 3141 3298 2862 
Q 3072 2584 2669 2484 
Q 3125 2378 3379 2068 
Q 3634 1759 3634 1313 
Q 3634 634 3220 271 
Q 2806 -91 2034 -91 
Q 1263 -91 848 271 
Q 434 634 434 1313 
Q 434 1759 690 2068 
Q 947 2378 1403 2484 
z
M 1172 3481 
Q 1172 3119 1398 2916 
Q 1625 2713 2034 2713 
Q 2441 2713 2670 2916 
Q 2900 3119 2900 3481 
Q 2900 3844 2670 4047 
Q 2441 4250 2034 4250 
Q 1625 4250 1398 4047 
Q 1172 3844 1172 3481 
z
" transform="scale(0.015625)"/>
       </defs>
       <use xlink:href="#DejaVuSans-38"/>
       <use xlink:href="#DejaVuSans-30" x="63.623047"/>
       <use xlink:href="#DejaVuSans-30" x="127.246094"/>
      </g>
     </g>
    </g>
    <g id="xtick_5">
     <g id="line2d_5">
      <g>
       <use xlink:href="#mf33ca11cb0" x="382.599318" y="307.584" style="stroke: #000000; stroke-width: 0.8"/>
      </g>
     </g>
     <g id="text_5">
      <!-- 1000 -->
      <g transform="translate(369.874318 322.182437)scale(0.1 -0.1)">
       <defs>
        <path id="DejaVuSans-31" d="M 794 531 
L 1825 531 
L 1825 4091 
L 703 3866 
L 703 4441 
L 1819 4666 
L 2450 4666 
L 2450 531 
L 3481 531 
L 3481 0 
L 794 0 
L 794 531 
z
" transform="scale(0.015625)"/>
       </defs>
       <use xlink:href="#DejaVuSans-31"/>
       <use xlink:href="#DejaVuSans-30" x="63.623047"/>
       <use xlink:href="#DejaVuSans-30" x="127.246094"/>
       <use xlink:href="#DejaVuSans-30" x="190.869141"/>
      </g>
     </g>
    </g>
    <g id="text_6">
     <!-- Score -->
     <g transform="translate(222.157656 335.860562)scale(0.1 -0.1)">
      <defs>
       <path id="DejaVuSans-53" d="M 3425 4513 
L 3425 3897 
Q 3066 4069 2747 4153 
Q 2428 4238 2131 4238 
Q 1616 4238 1336 4038 
Q 1056 3838 1056 3469 
Q 1056 3159 1242 3001 
Q 1428 2844 1947 2747 
L 2328 2669 
Q 3034 2534 3370 2195 
Q 3706 1856 3706 1288 
Q 3706 609 3251 259 
Q 2797 -91 1919 -91 
Q 1588 -91 1214 -16 
Q 841 59 441 206 
L 441 856 
Q 825 641 1194 531 
Q 1563 422 1919 422 
Q 2459 422 2753 634 
Q 3047 847 3047 1241 
Q 3047 1584 2836 1778 
Q 2625 1972 2144 2069 
L 1759 2144 
Q 1053 2284 737 2584 
Q 422 2884 422 3419 
Q 422 4038 858 4394 
Q 1294 4750 2059 4750 
Q 2388 4750 2728 4690 
Q 3069 4631 3425 4513 
z
" transform="scale(0.015625)"/>
       <path id="DejaVuSans-63" d="M 3122 3366 
L 3122 2828 
Q 2878 2963 2633 3030 
Q 2388 3097 2138 3097 
Q 1578 3097 1268 2742 
Q 959 2388 959 1747 
Q 959 1106 1268 751 
Q 1578 397 2138 397 
Q 2388 397 2633 464 
Q 2878 531 3122 666 
L 3122 134 
Q 2881 22 2623 -34 
Q 2366 -91 2075 -91 
Q 1284 -91 818 406 
Q 353 903 353 1747 
Q 353 2603 823 3093 
Q 1294 3584 2113 3584 
Q 2378 3584 2631 3529 
Q 2884 3475 3122 3366 
z
" transform="scale(0.015625)"/>
       <path id="DejaVuSans-6f" d="M 1959 3097 
Q 1497 3097 1228 2736 
Q 959 2375 959 1747 
Q 959 1119 1226 758 
Q 1494 397 1959 397 
Q 2419 397 2687 759 
Q 2956 1122 2956 1747 
Q 2956 2369 2687 2733 
Q 2419 3097 1959 3097 
z
M 1959 3584 
Q 2709 3584 3137 3096 
Q 3566 2609 3566 1747 
Q 3566 888 3137 398 
Q 2709 -91 1959 -91 
Q 1206 -91 779 398 
Q 353 888 353 1747 
Q 353 2609 779 3096 
Q 1206 3584 1959 3584 
z
" transform="scale(0.015625)"/>
       <path id="DejaVuSans-72" d="M 2631 2963 
Q 2534 3019 2420 3045 
Q 2306 3072 2169 3072 
Q 1681 3072 1420 2755 
Q 1159 2438 1159 1844 
L 1159 0 
L 581 0 
L 581 3500 
L 1159 3500 
L 1159 2956 
Q 1341 3275 1631 3429 
Q 1922 3584 2338 3584 
Q 2397 3584 2469 3576 
Q 2541 3569 2628 3553 
L 2631 2963 
z
" transform="scale(0.015625)"/>
       <path id="DejaVuSans-65" d="M 3597 1894 
L 3597 1613 
L 953 1613 
Q 991 1019 1311 708 
Q 1631 397 2203 397 
Q 2534 397 2845 478 
Q 3156 559 3463 722 
L 3463 178 
Q 3153 47 2828 -22 
Q 2503 -91 2169 -91 
Q 1331 -91 842 396 
Q 353 884 353 1716 
Q 353 2575 817 3079 
Q 1281 3584 2069 3584 
Q 2775 3584 3186 3129 
Q 3597 2675 3597 1894 
z
M 3022 2063 
Q 3016 2534 2758 2815 
Q 2500 3097 2075 3097 
Q 1594 3097 1305 2825 
Q 1016 2553 972 2059 
L 3022 2063 
z
" transform="scale(0.015625)"/>
      </defs>
      <use xlink:href="#DejaVuSans-53"/>
      <use xlink:href="#DejaVuSans-63" x="63.476562"/>
      <use xlink:href="#DejaVuSans-6f" x="118.457031"/>
      <use xlink:href="#DejaVuSans-72" x="179.638672"/>
      <use xlink:href="#DejaVuSans-65" x="218.501953"/>
     </g>
    </g>
   </g>
   <g id="matplotlib.axis_2">
    <g id="ytick_1">
     <g id="line2d_6">
      <defs>
       <path id="mcb36cef812" d="M 0 0 
L -3.5 0 
" style="stroke: #000000; stroke-width: 0.8"/>
      </defs>
      <g>
       <use xlink:href="#mcb36cef812" x="57.6" y="307.584" style="stroke: #000000; stroke-width: 0.8"/>
      </g>
     </g>
     <g id="text_7">
      <!-- 0 -->
      <g transform="translate(44.2375 311.383219)scale(0.1 -0.1)">
       <use xlink:href="#DejaVuSans-30"/>
      </g>
     </g>
    </g>
    <g id="ytick_2">
     <g id="line2d_7">
      <g>
       <use xlink:href="#mcb36cef812" x="57.6" y="277.697208" style="stroke: #000000; stroke-width: 0.8"/>
      </g>
     </g>
     <g id="text_8">
      <!-- 25 -->
      <g transform="translate(37.875 281.496426)scale(0.1 -0.1)">
       <defs>
        <path id="DejaVuSans-35" d="M 691 4666 
L 3169 4666 
L 3169 4134 
L 1269 4134 
L 1269 2991 
Q 1406 3038 1543 3061 
Q 1681 3084 1819 3084 
Q 2600 3084 3056 2656 
Q 3513 2228 3513 1497 
Q 3513 744 3044 326 
Q 2575 -91 1722 -91 
Q 1428 -91 1123 -41 
Q 819 9 494 109 
L 494 744 
Q 775 591 1075 516 
Q 1375 441 1709 441 
Q 2250 441 2565 725 
Q 2881 1009 2881 1497 
Q 2881 1984 2565 2268 
Q 2250 2553 1709 2553 
Q 1456 2553 1204 2497 
Q 953 2441 691 2322 
L 691 4666 
z
" transform="scale(0.015625)"/>
       </defs>
       <use xlink:href="#DejaVuSans-32"/>
       <use xlink:href="#DejaVuSans-35" x="63.623047"/>
      </g>
     </g>
    </g>
    <g id="ytick_3">
     <g id="line2d_8">
      <g>
       <use xlink:href="#mcb36cef812" x="57.6" y="247.810415" style="stroke: #000000; stroke-width: 0.8"/>
      </g>
     </g>
     <g id="text_9">
      <!-- 50 -->
      <g transform="translate(37.875 251.609634)scale(0.1 -0.1)">
       <use xlink:href="#DejaVuSans-35"/>
       <use xlink:href="#DejaVuSans-30" x="63.623047"/>
      </g>
     </g>
    </g>
    <g id="ytick_4">
     <g id="line2d_9">
      <g>
       <use xlink:href="#mcb36cef812" x="57.6" y="217.923623" style="stroke: #000000; stroke-width: 0.8"/>
      </g>
     </g>
     <g id="text_10">
      <!-- 75 -->
      <g transform="translate(37.875 221.722841)scale(0.1 -0.1)">
       <defs>
        <path id="DejaVuSans-37" d="M 525 4666 
L 3525 4666 
L 3525 4397 
L 1831 0 
L 1172 0 
L 2766 4134 
L 525 4134 
L 525 4666 
z
" transform="scale(0.015625)"/>
       </defs>
       <use xlink:href="#DejaVuSans-37"/>
       <use xlink:href="#DejaVuSans-35" x="63.623047"/>
      </g>
     </g>
    </g>
    <g id="ytick_5">
     <g id="line2d_10">
      <g>
       <use xlink:href="#mcb36cef812" x="57.6" y="188.03683" style="stroke: #000000; stroke-width: 0.8"/>
      </g>
     </g>
     <g id="text_11">
      <!-- 100 -->
      <g transform="translate(31.5125 191.836049)scale(0.1 -0.1)">
       <use xlink:href="#DejaVuSans-31"/>
       <use xlink:href="#DejaVuSans-30" x="63.623047"/>
       <use xlink:href="#DejaVuSans-30" x="127.246094"/>
      </g>
     </g>
    </g>
    <g id="ytick_6">
     <g id="line2d_11">
      <g>
       <use xlink:href="#mcb36cef812" x="57.6" y="158.150038" style="stroke: #000000; stroke-width: 0.8"/>
      </g>
     </g>
     <g id="text_12">
      <!-- 125 -->
      <g transform="translate(31.5125 161.949256)scale(0.1 -0.1)">
       <use xlink:href="#DejaVuSans-31"/>
       <use xlink:href="#DejaVuSans-32" x="63.623047"/>
       <use xlink:href="#DejaVuSans-35" x="127.246094"/>
      </g>
     </g>
    </g>
    <g id="ytick_7">
     <g id="line2d_12">
      <g>
       <use xlink:href="#mcb36cef812" x="57.6" y="128.263245" style="stroke: #000000; stroke-width: 0.8"/>
      </g>
     </g>
     <g id="text_13">
      <!-- 150 -->
      <g transform="translate(31.5125 132.062464)scale(0.1 -0.1)">
       <use xlink:href="#DejaVuSans-31"/>
       <use xlink:href="#DejaVuSans-35" x="63.623047"/>
       <use xlink:href="#DejaVuSans-30" x="127.246094"/>
      </g>
     </g>
    </g>
    <g id="ytick_8">
     <g id="line2d_13">
      <g>
       <use xlink:href="#mcb36cef812" x="57.6" y="98.376453" style="stroke: #000000; stroke-width: 0.8"/>
      </g>
     </g>
     <g id="text_14">
      <!-- 175 -->
      <g transform="translate(31.5125 102.175672)scale(0.1 -0.1)">
       <use xlink:href="#DejaVuSans-31"/>
       <use xlink:href="#DejaVuSans-37" x="63.623047"/>
       <use xlink:href="#DejaVuSans-35" x="127.246094"/>
      </g>
     </g>
    </g>
    <g id="ytick_9">
     <g id="line2d_14">
      <g>
       <use xlink:href="#mcb36cef812" x="57.6" y="68.48966" style="stroke: #000000; stroke-width: 0.8"/>
      </g>
     </g>
     <g id="text_15">
      <!-- 200 -->
      <g transform="translate(31.5125 72.288879)scale(0.1 -0.1)">
       <use xlink:href="#DejaVuSans-32"/>
       <use xlink:href="#DejaVuSans-30" x="63.623047"/>
       <use xlink:href="#DejaVuSans-30" x="127.246094"/>
      </g>
     </g>
    </g>
    <g id="text_16">
     <!-- Number of crosslinks -->
     <g transform="translate(25.432812 227.019406)rotate(-90)scale(0.1 -0.1)">
      <defs>
       <path id="DejaVuSans-4e" d="M 628 4666 
L 1478 4666 
L 3547 763 
L 3547 4666 
L 4159 4666 
L 4159 0 
L 3309 0 
L 1241 3903 
L 1241 0 
L 628 0 
L 628 4666 
z
" transform="scale(0.015625)"/>
       <path id="DejaVuSans-75" d="M 544 1381 
L 544 3500 
L 1119 3500 
L 1119 1403 
Q 1119 906 1312 657 
Q 1506 409 1894 409 
Q 2359 409 2629 706 
Q 2900 1003 2900 1516 
L 2900 3500 
L 3475 3500 
L 3475 0 
L 2900 0 
L 2900 538 
Q 2691 219 2414 64 
Q 2138 -91 1772 -91 
Q 1169 -91 856 284 
Q 544 659 544 1381 
z
M 1991 3584 
L 1991 3584 
z
" transform="scale(0.015625)"/>
       <path id="DejaVuSans-6d" d="M 3328 2828 
Q 3544 3216 3844 3400 
Q 4144 3584 4550 3584 
Q 5097 3584 5394 3201 
Q 5691 2819 5691 2113 
L 5691 0 
L 5113 0 
L 5113 2094 
Q 5113 2597 4934 2840 
Q 4756 3084 4391 3084 
Q 3944 3084 3684 2787 
Q 3425 2491 3425 1978 
L 3425 0 
L 2847 0 
L 2847 2094 
Q 2847 2600 2669 2842 
Q 2491 3084 2119 3084 
Q 1678 3084 1418 2786 
Q 1159 2488 1159 1978 
L 1159 0 
L 581 0 
L 581 3500 
L 1159 3500 
L 1159 2956 
Q 1356 3278 1631 3431 
Q 1906 3584 2284 3584 
Q 2666 3584 2933 3390 
Q 3200 3197 3328 2828 
z
" transform="scale(0.015625)"/>
       <path id="DejaVuSans-62" d="M 3116 1747 
Q 3116 2381 2855 2742 
Q 2594 3103 2138 3103 
Q 1681 3103 1420 2742 
Q 1159 2381 1159 1747 
Q 1159 1113 1420 752 
Q 1681 391 2138 391 
Q 2594 391 2855 752 
Q 3116 1113 3116 1747 
z
M 1159 2969 
Q 1341 3281 1617 3432 
Q 1894 3584 2278 3584 
Q 2916 3584 3314 3078 
Q 3713 2572 3713 1747 
Q 3713 922 3314 415 
Q 2916 -91 2278 -91 
Q 1894 -91 1617 61 
Q 1341 213 1159 525 
L 1159 0 
L 581 0 
L 581 4863 
L 1159 4863 
L 1159 2969 
z
" transform="scale(0.015625)"/>
       <path id="DejaVuSans-20" transform="scale(0.015625)"/>
       <path id="DejaVuSans-66" d="M 2375 4863 
L 2375 4384 
L 1825 4384 
Q 1516 4384 1395 4259 
Q 1275 4134 1275 3809 
L 1275 3500 
L 2222 3500 
L 2222 3053 
L 1275 3053 
L 1275 0 
L 697 0 
L 697 3053 
L 147 3053 
L 147 3500 
L 697 3500 
L 697 3744 
Q 697 4328 969 4595 
Q 1241 4863 1831 4863 
L 2375 4863 
z
" transform="scale(0.015625)"/>
       <path id="DejaVuSans-73" d="M 2834 3397 
L 2834 2853 
Q 2591 2978 2328 3040 
Q 2066 3103 1784 3103 
Q 1356 3103 1142 2972 
Q 928 2841 928 2578 
Q 928 2378 1081 2264 
Q 1234 2150 1697 2047 
L 1894 2003 
Q 2506 1872 2764 1633 
Q 3022 1394 3022 966 
Q 3022 478 2636 193 
Q 2250 -91 1575 -91 
Q 1294 -91 989 -36 
Q 684 19 347 128 
L 347 722 
Q 666 556 975 473 
Q 1284 391 1588 391 
Q 1994 391 2212 530 
Q 2431 669 2431 922 
Q 2431 1156 2273 1281 
Q 2116 1406 1581 1522 
L 1381 1569 
Q 847 1681 609 1914 
Q 372 2147 372 2553 
Q 372 3047 722 3315 
Q 1072 3584 1716 3584 
Q 2034 3584 2315 3537 
Q 2597 3491 2834 3397 
z
" transform="scale(0.015625)"/>
       <path id="DejaVuSans-6c" d="M 603 4863 
L 1178 4863 
L 1178 0 
L 603 0 
L 603 4863 
z
" transform="scale(0.015625)"/>
       <path id="DejaVuSans-69" d="M 603 3500 
L 1178 3500 
L 1178 0 
L 603 0 
L 603 3500 
z
M 603 4863 
L 1178 4863 
L 1178 4134 
L 603 4134 
L 603 4863 
z
" transform="scale(0.015625)"/>
       <path id="DejaVuSans-6e" d="M 3513 2113 
L 3513 0 
L 2938 0 
L 2938 2094 
Q 2938 2591 2744 2837 
Q 2550 3084 2163 3084 
Q 1697 3084 1428 2787 
Q 1159 2491 1159 1978 
L 1159 0 
L 581 0 
L 581 3500 
L 1159 3500 
L 1159 2956 
Q 1366 3272 1645 3428 
Q 1925 3584 2291 3584 
Q 2894 3584 3203 3211 
Q 3513 2838 3513 2113 
z
" transform="scale(0.015625)"/>
       <path id="DejaVuSans-6b" d="M 581 4863 
L 1159 4863 
L 1159 1991 
L 2875 3500 
L 3609 3500 
L 1753 1863 
L 3688 0 
L 2938 0 
L 1159 1709 
L 1159 0 
L 581 0 
L 581 4863 
z
" transform="scale(0.015625)"/>
      </defs>
      <use xlink:href="#DejaVuSans-4e"/>
      <use xlink:href="#DejaVuSans-75" x="74.804688"/>
      <use xlink:href="#DejaVuSans-6d" x="138.183594"/>
      <use xlink:href="#DejaVuSans-62" x="235.595703"/>
      <use xlink:href="#DejaVuSans-65" x="299.072266"/>
      <use xlink:href="#DejaVuSans-72" x="360.595703"/>
      <use xlink:href="#DejaVuSans-20" x="401.708984"/>
      <use xlink:href="#DejaVuSans-6f" x="433.496094"/>
      <use xlink:href="#DejaVuSans-66" x="494.677734"/>
      <use xlink:href="#DejaVuSans-20" x="529.882812"/>
      <use xlink:href="#DejaVuSans-63" x="561.669922"/>
      <use xlink:href="#DejaVuSans-72" x="616.650391"/>
      <use xlink:href="#DejaVuSans-6f" x="655.513672"/>
      <use xlink:href="#DejaVuSans-73" x="716.695312"/>
      <use xlink:href="#DejaVuSans-73" x="768.794922"/>
      <use xlink:href="#DejaVuSans-6c" x="820.894531"/>
      <use xlink:href="#DejaVuSans-69" x="848.677734"/>
      <use xlink:href="#DejaVuSans-6e" x="876.460938"/>
      <use xlink:href="#DejaVuSans-6b" x="939.839844"/>
      <use xlink:href="#DejaVuSans-73" x="997.75"/>
     </g>
    </g>
   </g>
   <g id="patch_3">
    <path d="M 57.6 307.584 
L 57.6 41.472 
" style="fill: none; stroke: #000000; stroke-width: 0.8; stroke-linejoin: miter; stroke-linecap: square"/>
   </g>
   <g id="patch_4">
    <path d="M 414.72 307.584 
L 414.72 41.472 
" style="fill: none; stroke: #000000; stroke-width: 0.8; stroke-linejoin: miter; stroke-linecap: square"/>
   </g>
   <g id="patch_5">
    <path d="M 57.6 307.584 
L 414.72 307.584 
" style="fill: none; stroke: #000000; stroke-width: 0.8; stroke-linejoin: miter; stroke-linecap: square"/>
   </g>
   <g id="patch_6">
    <path d="M 57.6 41.472 
L 414.72 41.472 
" style="fill: none; stroke: #000000; stroke-width: 0.8; stroke-linejoin: miter; stroke-linecap: square"/>
   </g>
   <g id="legend_1">
    <g id="patch_7">
     <path d="M 293.087188 93.506375 
L 407.72 93.506375 
Q 409.72 93.506375 409.72 91.506375 
L 409.72 48.472 
Q 409.72 46.472 407.72 46.472 
L 293.087188 46.472 
Q 291.087188 46.472 291.087188 48.472 
L 291.087188 91.506375 
Q 291.087188 93.506375 293.087188 93.506375 
z
" style="fill: #ffffff; opacity: 0.8; stroke: #cccccc; stroke-linejoin: miter"/>
    </g>
    <g id="patch_8">
     <path d="M 295.087188 58.070438 
L 315.087188 58.070438 
L 315.087188 51.070438 
L 295.087188 51.070438 
z
" style="fill: #008000"/>
    </g>
    <g id="text_17">
     <!-- true -->
     <g transform="translate(323.087188 58.070438)scale(0.1 -0.1)">
      <defs>
       <path id="DejaVuSans-74" d="M 1172 4494 
L 1172 3500 
L 2356 3500 
L 2356 3053 
L 1172 3053 
L 1172 1153 
Q 1172 725 1289 603 
Q 1406 481 1766 481 
L 2356 481 
L 2356 0 
L 1766 0 
Q 1100 0 847 248 
Q 594 497 594 1153 
L 594 3053 
L 172 3053 
L 172 3500 
L 594 3500 
L 594 4494 
L 1172 4494 
z
" transform="scale(0.015625)"/>
      </defs>
      <use xlink:href="#DejaVuSans-74"/>
      <use xlink:href="#DejaVuSans-72" x="39.208984"/>
      <use xlink:href="#DejaVuSans-75" x="80.322266"/>
      <use xlink:href="#DejaVuSans-65" x="143.701172"/>
     </g>
    </g>
    <g id="patch_9">
     <path d="M 295.087188 72.748563 
L 315.087188 72.748563 
L 315.087188 65.748563 
L 295.087188 65.748563 
z
" style="fill: #7cfc00"/>
    </g>
    <g id="text_18">
     <!-- true homeotypic -->
     <g transform="translate(323.087188 72.748563)scale(0.1 -0.1)">
      <defs>
       <path id="DejaVuSans-68" d="M 3513 2113 
L 3513 0 
L 2938 0 
L 2938 2094 
Q 2938 2591 2744 2837 
Q 2550 3084 2163 3084 
Q 1697 3084 1428 2787 
Q 1159 2491 1159 1978 
L 1159 0 
L 581 0 
L 581 4863 
L 1159 4863 
L 1159 2956 
Q 1366 3272 1645 3428 
Q 1925 3584 2291 3584 
Q 2894 3584 3203 3211 
Q 3513 2838 3513 2113 
z
" transform="scale(0.015625)"/>
       <path id="DejaVuSans-79" d="M 2059 -325 
Q 1816 -950 1584 -1140 
Q 1353 -1331 966 -1331 
L 506 -1331 
L 506 -850 
L 844 -850 
Q 1081 -850 1212 -737 
Q 1344 -625 1503 -206 
L 1606 56 
L 191 3500 
L 800 3500 
L 1894 763 
L 2988 3500 
L 3597 3500 
L 2059 -325 
z
" transform="scale(0.015625)"/>
       <path id="DejaVuSans-70" d="M 1159 525 
L 1159 -1331 
L 581 -1331 
L 581 3500 
L 1159 3500 
L 1159 2969 
Q 1341 3281 1617 3432 
Q 1894 3584 2278 3584 
Q 2916 3584 3314 3078 
Q 3713 2572 3713 1747 
Q 3713 922 3314 415 
Q 2916 -91 2278 -91 
Q 1894 -91 1617 61 
Q 1341 213 1159 525 
z
M 3116 1747 
Q 3116 2381 2855 2742 
Q 2594 3103 2138 3103 
Q 1681 3103 1420 2742 
Q 1159 2381 1159 1747 
Q 1159 1113 1420 752 
Q 1681 391 2138 391 
Q 2594 391 2855 752 
Q 3116 1113 3116 1747 
z
" transform="scale(0.015625)"/>
      </defs>
      <use xlink:href="#DejaVuSans-74"/>
      <use xlink:href="#DejaVuSans-72" x="39.208984"/>
      <use xlink:href="#DejaVuSans-75" x="80.322266"/>
      <use xlink:href="#DejaVuSans-65" x="143.701172"/>
      <use xlink:href="#DejaVuSans-20" x="205.224609"/>
      <use xlink:href="#DejaVuSans-68" x="237.011719"/>
      <use xlink:href="#DejaVuSans-6f" x="300.390625"/>
      <use xlink:href="#DejaVuSans-6d" x="361.572266"/>
      <use xlink:href="#DejaVuSans-65" x="458.984375"/>
      <use xlink:href="#DejaVuSans-6f" x="520.507812"/>
      <use xlink:href="#DejaVuSans-74" x="581.689453"/>
      <use xlink:href="#DejaVuSans-79" x="620.898438"/>
      <use xlink:href="#DejaVuSans-70" x="680.078125"/>
      <use xlink:href="#DejaVuSans-69" x="743.554688"/>
      <use xlink:href="#DejaVuSans-63" x="771.337891"/>
     </g>
    </g>
    <g id="patch_10">
     <path d="M 295.087188 87.426688 
L 315.087188 87.426688 
L 315.087188 80.426688 
L 295.087188 80.426688 
z
" style="fill: #ff0000"/>
    </g>
    <g id="text_19">
     <!-- false -->
     <g transform="translate(323.087188 87.426688)scale(0.1 -0.1)">
      <defs>
       <path id="DejaVuSans-61" d="M 2194 1759 
Q 1497 1759 1228 1600 
Q 959 1441 959 1056 
Q 959 750 1161 570 
Q 1363 391 1709 391 
Q 2188 391 2477 730 
Q 2766 1069 2766 1631 
L 2766 1759 
L 2194 1759 
z
M 3341 1997 
L 3341 0 
L 2766 0 
L 2766 531 
Q 2569 213 2275 61 
Q 1981 -91 1556 -91 
Q 1019 -91 701 211 
Q 384 513 384 1019 
Q 384 1609 779 1909 
Q 1175 2209 1959 2209 
L 2766 2209 
L 2766 2266 
Q 2766 2663 2505 2880 
Q 2244 3097 1772 3097 
Q 1472 3097 1187 3025 
Q 903 2953 641 2809 
L 641 3341 
Q 956 3463 1253 3523 
Q 1550 3584 1831 3584 
Q 2591 3584 2966 3190 
Q 3341 2797 3341 1997 
z
" transform="scale(0.015625)"/>
      </defs>
      <use xlink:href="#DejaVuSans-66"/>
      <use xlink:href="#DejaVuSans-61" x="35.205078"/>
      <use xlink:href="#DejaVuSans-6c" x="96.484375"/>
      <use xlink:href="#DejaVuSans-73" x="124.267578"/>
      <use xlink:href="#DejaVuSans-65" x="176.367188"/>
     </g>
    </g>
   </g>
  </g>
 </g>
 <defs>
  <clipPath id="pfdb53cf9cb">
   <rect x="57.6" y="41.472" width="357.12" height="266.112"/>
  </clipPath>
 </defs>
</svg>
