<?xml version="1.0" encoding="utf-8" standalone="no"?>
<!DOCTYPE svg PUBLIC "-//W3C//DTD SVG 1.1//EN"
  "http://www.w3.org/Graphics/SVG/1.1/DTD/svg11.dtd">
<svg xmlns:xlink="http://www.w3.org/1999/xlink" width="460.8pt" height="345.6pt" viewBox="0 0 460.8 345.6" xmlns="http://www.w3.org/2000/svg" version="1.1">
 <metadata>
  <rdf:RDF xmlns:dc="http://purl.org/dc/elements/1.1/" xmlns:cc="http://creativecommons.org/ns#" xmlns:rdf="http://www.w3.org/1999/02/22-rdf-syntax-ns#">
   <cc:Work>
    <dc:type rdf:resource="http://purl.org/dc/dcmitype/StillImage"/>
    <dc:date>2022-07-26T14:55:20.634554</dc:date>
    <dc:format>image/svg+xml</dc:format>
    <dc:creator>
     <cc:Agent>
      <dc:title>Matplotlib v3.5.1, https://matplotlib.org/</dc:title>
     </cc:Agent>
    </dc:creator>
   </cc:Work>
  </rdf:RDF>
 </metadata>
 <defs>
  <style type="text/css">*{stroke-linejoin: round; stroke-linecap: butt}</style>
 </defs>
 <g id="figure_1">
  <g id="patch_1">
   <path d="M 0 345.6 
L 460.8 345.6 
L 460.8 0 
L 0 0 
z
" style="fill: #ffffff"/>
  </g>
  <g id="axes_1">
   <g id="patch_2">
    <path d="M 57.6 307.584 
L 414.72 307.584 
L 414.72 41.472 
L 57.6 41.472 
z
" style="fill: #ffffff"/>
   </g>
   <g id="PolyCollection_1">
    <path d="M 73.832727 117.828923 
L 73.832727 307.584 
L 73.931816 307.584 
L 75.385118 307.584 
L 76.154708 307.584 
L 76.607214 307.584 
L 77.231473 307.584 
L 77.234776 307.584 
L 77.419742 307.584 
L 77.85243 307.584 
L 78.116666 307.584 
L 78.724411 307.584 
L 79.176917 307.584 
L 79.269399 307.584 
L 79.285914 307.584 
L 79.431244 307.584 
L 80.663249 307.584 
L 81.099239 307.584 
L 82.195822 307.584 
L 82.403909 307.584 
L 82.730902 307.584 
L 82.882838 307.584 
L 83.612792 307.584 
L 83.916664 307.584 
L 84.92737 307.584 
L 85.181698 307.584 
L 86.919055 307.584 
L 87.37156 307.584 
L 87.384772 307.584 
L 87.625888 307.584 
L 87.662221 307.584 
L 88.537505 307.584 
L 88.742289 307.584 
L 89.042858 307.584 
L 89.287277 307.584 
L 89.426001 307.584 
L 89.766206 307.584 
L 89.772812 307.584 
L 90.453222 307.584 
L 90.882607 307.584 
L 91.150147 307.584 
L 91.516775 307.584 
L 92.259941 307.584 
L 93.521672 307.584 
L 93.68682 307.584 
L 94.145931 307.584 
L 94.297868 307.584 
L 95.021216 307.584 
L 95.117002 307.584 
L 95.579416 307.584 
L 95.602537 307.584 
L 95.770988 307.584 
L 96.01871 307.584 
L 96.134313 307.584 
L 96.629757 307.584 
L 97.062445 307.584 
L 97.339894 307.584 
L 97.353106 307.584 
L 97.544677 307.584 
L 97.845247 307.584 
L 98.822923 307.584 
L 98.84274 307.584 
L 99.665178 307.584 
L 99.681692 307.584 
L 100.140804 307.584 
L 100.144107 307.584 
L 100.652763 307.584 
L 101.141601 307.584 
L 101.230781 307.584 
L 101.260507 307.584 
L 101.557774 307.584 
L 101.914493 307.584 
L 102.885564 307.584 
L 102.974743 307.584 
L 104.068023 307.584 
L 104.7121 307.584 
L 105.052305 307.584 
L 105.653444 307.584 
L 105.795471 307.584 
L 106.337157 307.584 
L 106.839207 307.584 
L 107.328045 307.584 
L 108.49399 307.584 
L 109.114946 307.584 
L 110.561643 307.584 
L 110.687155 307.584 
L 110.796153 307.584 
L 111.169387 307.584 
L 112.523601 307.584 
L 113.088407 307.584 
L 113.177587 307.584 
L 114.92155 307.584 
L 115.71426 307.584 
L 115.971891 307.584 
L 116.777813 307.584 
L 117.814943 307.584 
L 118.406173 307.584 
L 118.951161 307.584 
L 119.334304 307.584 
L 119.796719 307.584 
L 121.401957 307.584 
L 121.649679 307.584 
L 121.719042 307.584 
L 121.722344 307.584 
L 122.812321 307.584 
L 122.881683 307.584 
L 123.294553 307.584 
L 123.796603 307.584 
L 123.842845 307.584 
L 124.242503 307.584 
L 124.642161 307.584 
L 124.675191 307.584 
L 124.691706 307.584 
L 126.184643 307.584 
L 126.812206 307.584 
L 128.625531 307.584 
L 129.758446 307.584 
L 129.794779 307.584 
L 129.844323 307.584 
L 129.953321 307.584 
L 130.05241 307.584 
L 131.528833 307.584 
L 132.783958 307.584 
L 133.170404 307.584 
L 135.092727 307.584 
L 135.918467 307.584 
L 136.816872 307.584 
L 137.457646 307.584 
L 137.873819 307.584 
L 138.60047 307.584 
L 139.356848 307.584 
L 140.39728 307.584 
L 142.243635 307.584 
L 146.157643 307.584 
L 146.293064 307.584 
L 150.801604 307.584 
L 152.733836 307.584 
L 152.998073 307.584 
L 153.622332 307.584 
L 155.917889 307.584 
L 158.246476 307.584 
L 159.184517 307.584 
L 159.47848 307.584 
L 161.004448 307.584 
L 161.509801 307.584 
L 161.820279 307.584 
L 162.890438 307.584 
L 166.133945 307.584 
L 167.048865 307.584 
L 168.267657 307.584 
L 170.767998 307.584 
L 171.937246 307.584 
L 172.809227 307.584 
L 182.529838 307.584 
L 183.018676 307.584 
L 183.527332 307.584 
L 184.184621 307.584 
L 189.700564 307.584 
L 189.928469 307.584 
L 194.559219 307.584 
L 195.913432 307.584 
L 197.122316 307.584 
L 197.683819 307.584 
L 198.750675 307.584 
L 200.59703 307.584 
L 211.470374 307.584 
L 213.339849 307.584 
L 213.663539 307.584 
L 215.595771 307.584 
L 215.972308 307.584 
L 217.775725 307.584 
L 220.507273 307.584 
L 221.148047 307.584 
L 221.851577 307.584 
L 225.402259 307.584 
L 234.733121 307.584 
L 242.845191 307.584 
L 249.365234 307.584 
L 256.611928 307.584 
L 257.345186 307.584 
L 260.892565 307.584 
L 264.344158 307.584 
L 270.07149 307.584 
L 270.286183 307.584 
L 288.686973 307.584 
L 290.989136 307.584 
L 295.084807 307.584 
L 304.485031 307.584 
L 318.377281 307.584 
L 319.275686 307.584 
L 320.203817 307.584 
L 338.548457 307.584 
L 341.62021 307.584 
L 342.766337 307.584 
L 385.050831 307.584 
L 398.487273 307.584 
L 398.487273 307.584 
L 398.487273 307.584 
L 385.050831 307.584 
L 342.766337 307.584 
L 341.62021 307.584 
L 338.548457 307.584 
L 320.203817 307.584 
L 319.275686 307.584 
L 318.377281 307.584 
L 304.485031 307.584 
L 295.084807 307.584 
L 290.989136 307.584 
L 288.686973 307.584 
L 270.286183 306.284308 
L 270.07149 306.284308 
L 264.344158 306.284308 
L 260.892565 306.284308 
L 257.345186 306.284308 
L 256.611928 304.984615 
L 249.365234 304.984615 
L 242.845191 304.984615 
L 234.733121 303.684923 
L 225.402259 302.385231 
L 221.851577 301.085538 
L 221.148047 299.785846 
L 220.507273 299.785846 
L 217.775725 298.486154 
L 215.972308 297.186462 
L 215.595771 297.186462 
L 213.663539 297.186462 
L 213.339849 295.886769 
L 211.470374 294.587077 
L 200.59703 293.287385 
L 198.750675 291.987692 
L 197.683819 291.987692 
L 197.122316 291.987692 
L 195.913432 290.688 
L 194.559219 289.388308 
L 189.928469 288.088615 
L 189.700564 286.788923 
L 184.184621 285.489231 
L 183.527332 284.189538 
L 183.018676 282.889846 
L 182.529838 281.590154 
L 172.809227 280.290462 
L 171.937246 280.290462 
L 170.767998 278.990769 
L 168.267657 278.990769 
L 167.048865 277.691077 
L 166.133945 276.391385 
L 162.890438 275.091692 
L 161.820279 275.091692 
L 161.509801 273.792 
L 161.004448 272.492308 
L 159.47848 271.192615 
L 159.184517 269.892923 
L 158.246476 269.892923 
L 155.917889 268.593231 
L 153.622332 267.293538 
L 152.998073 265.993846 
L 152.733836 265.993846 
L 150.801604 264.694154 
L 146.293064 263.394462 
L 146.157643 263.394462 
L 142.243635 263.394462 
L 140.39728 263.394462 
L 139.356848 262.094769 
L 138.60047 260.795077 
L 137.873819 260.795077 
L 137.457646 259.495385 
L 136.816872 258.195692 
L 135.918467 256.896 
L 135.092727 255.596308 
L 133.170404 254.296615 
L 132.783958 252.996923 
L 131.528833 251.697231 
L 130.05241 250.397538 
L 129.953321 249.097846 
L 129.844323 247.798154 
L 129.794779 246.498462 
L 129.758446 246.498462 
L 128.625531 245.198769 
L 126.812206 243.899077 
L 126.184643 243.899077 
L 124.691706 243.899077 
L 124.675191 242.599385 
L 124.642161 242.599385 
L 124.242503 241.299692 
L 123.842845 240 
L 123.796603 238.700308 
L 123.294553 238.700308 
L 122.881683 237.400615 
L 122.812321 236.100923 
L 121.722344 234.801231 
L 121.719042 233.501538 
L 121.649679 232.201846 
L 121.401957 232.201846 
L 119.796719 230.902154 
L 119.334304 229.602462 
L 118.951161 228.302769 
L 118.406173 227.003077 
L 117.814943 225.703385 
L 116.777813 224.403692 
L 115.971891 223.104 
L 115.71426 221.804308 
L 114.92155 220.504615 
L 113.177587 219.204923 
L 113.088407 217.905231 
L 112.523601 217.905231 
L 111.169387 217.905231 
L 110.796153 216.605538 
L 110.687155 215.305846 
L 110.561643 215.305846 
L 109.114946 214.006154 
L 108.49399 212.706462 
L 107.328045 212.706462 
L 106.839207 211.406769 
L 106.337157 210.107077 
L 105.795471 208.807385 
L 105.653444 207.507692 
L 105.052305 206.208 
L 104.7121 204.908308 
L 104.068023 203.608615 
L 102.974743 202.308923 
L 102.885564 201.009231 
L 101.914493 199.709538 
L 101.557774 198.409846 
L 101.260507 197.110154 
L 101.230781 195.810462 
L 101.141601 194.510769 
L 100.652763 194.510769 
L 100.144107 193.211077 
L 100.140804 191.911385 
L 99.681692 190.611692 
L 99.665178 189.312 
L 98.84274 188.012308 
L 98.822923 186.712615 
L 97.845247 185.412923 
L 97.544677 184.113231 
L 97.353106 182.813538 
L 97.339894 181.513846 
L 97.062445 180.214154 
L 96.629757 178.914462 
L 96.134313 177.614769 
L 96.01871 177.614769 
L 95.770988 177.614769 
L 95.602537 176.315077 
L 95.579416 175.015385 
L 95.117002 173.715692 
L 95.021216 172.416 
L 94.297868 172.416 
L 94.145931 171.116308 
L 93.68682 169.816615 
L 93.521672 169.816615 
L 92.259941 168.516923 
L 91.516775 167.217231 
L 91.150147 165.917538 
L 90.882607 164.617846 
L 90.453222 163.318154 
L 89.772812 162.018462 
L 89.766206 160.718769 
L 89.426001 159.419077 
L 89.287277 158.119385 
L 89.042858 156.819692 
L 88.742289 155.52 
L 88.537505 154.220308 
L 87.662221 152.920615 
L 87.625888 151.620923 
L 87.384772 150.321231 
L 87.37156 149.021538 
L 86.919055 147.721846 
L 85.181698 146.422154 
L 84.92737 145.122462 
L 83.916664 143.822769 
L 83.612792 142.523077 
L 82.882838 141.223385 
L 82.730902 139.923692 
L 82.403909 138.624 
L 82.195822 137.324308 
L 81.099239 136.024615 
L 80.663249 134.724923 
L 79.431244 133.425231 
L 79.285914 132.125538 
L 79.269399 130.825846 
L 79.176917 129.526154 
L 78.724411 128.226462 
L 78.116666 126.926769 
L 77.85243 125.627077 
L 77.419742 125.627077 
L 77.234776 124.327385 
L 77.231473 123.027692 
L 76.607214 121.728 
L 76.154708 121.728 
L 75.385118 120.428308 
L 73.931816 119.128615 
L 73.832727 117.828923 
z
" clip-path="url(#pcc98923818)" style="fill: #008000"/>
   </g>
   <g id="PolyCollection_2">
    <path d="M 73.832727 58.043077 
L 73.832727 117.828923 
L 73.931816 119.128615 
L 75.385118 120.428308 
L 76.154708 121.728 
L 76.607214 121.728 
L 77.231473 123.027692 
L 77.234776 124.327385 
L 77.419742 125.627077 
L 77.85243 125.627077 
L 78.116666 126.926769 
L 78.724411 128.226462 
L 79.176917 129.526154 
L 79.269399 130.825846 
L 79.285914 132.125538 
L 79.431244 133.425231 
L 80.663249 134.724923 
L 81.099239 136.024615 
L 82.195822 137.324308 
L 82.403909 138.624 
L 82.730902 139.923692 
L 82.882838 141.223385 
L 83.612792 142.523077 
L 83.916664 143.822769 
L 84.92737 145.122462 
L 85.181698 146.422154 
L 86.919055 147.721846 
L 87.37156 149.021538 
L 87.384772 150.321231 
L 87.625888 151.620923 
L 87.662221 152.920615 
L 88.537505 154.220308 
L 88.742289 155.52 
L 89.042858 156.819692 
L 89.287277 158.119385 
L 89.426001 159.419077 
L 89.766206 160.718769 
L 89.772812 162.018462 
L 90.453222 163.318154 
L 90.882607 164.617846 
L 91.150147 165.917538 
L 91.516775 167.217231 
L 92.259941 168.516923 
L 93.521672 169.816615 
L 93.68682 169.816615 
L 94.145931 171.116308 
L 94.297868 172.416 
L 95.021216 172.416 
L 95.117002 173.715692 
L 95.579416 175.015385 
L 95.602537 176.315077 
L 95.770988 177.614769 
L 96.01871 177.614769 
L 96.134313 177.614769 
L 96.629757 178.914462 
L 97.062445 180.214154 
L 97.339894 181.513846 
L 97.353106 182.813538 
L 97.544677 184.113231 
L 97.845247 185.412923 
L 98.822923 186.712615 
L 98.84274 188.012308 
L 99.665178 189.312 
L 99.681692 190.611692 
L 100.140804 191.911385 
L 100.144107 193.211077 
L 100.652763 194.510769 
L 101.141601 194.510769 
L 101.230781 195.810462 
L 101.260507 197.110154 
L 101.557774 198.409846 
L 101.914493 199.709538 
L 102.885564 201.009231 
L 102.974743 202.308923 
L 104.068023 203.608615 
L 104.7121 204.908308 
L 105.052305 206.208 
L 105.653444 207.507692 
L 105.795471 208.807385 
L 106.337157 210.107077 
L 106.839207 211.406769 
L 107.328045 212.706462 
L 108.49399 212.706462 
L 109.114946 214.006154 
L 110.561643 215.305846 
L 110.687155 215.305846 
L 110.796153 216.605538 
L 111.169387 217.905231 
L 112.523601 217.905231 
L 113.088407 217.905231 
L 113.177587 219.204923 
L 114.92155 220.504615 
L 115.71426 221.804308 
L 115.971891 223.104 
L 116.777813 224.403692 
L 117.814943 225.703385 
L 118.406173 227.003077 
L 118.951161 228.302769 
L 119.334304 229.602462 
L 119.796719 230.902154 
L 121.401957 232.201846 
L 121.649679 232.201846 
L 121.719042 233.501538 
L 121.722344 234.801231 
L 122.812321 236.100923 
L 122.881683 237.400615 
L 123.294553 238.700308 
L 123.796603 238.700308 
L 123.842845 240 
L 124.242503 241.299692 
L 124.642161 242.599385 
L 124.675191 242.599385 
L 124.691706 243.899077 
L 126.184643 243.899077 
L 126.812206 243.899077 
L 128.625531 245.198769 
L 129.758446 246.498462 
L 129.794779 246.498462 
L 129.844323 247.798154 
L 129.953321 249.097846 
L 130.05241 250.397538 
L 131.528833 251.697231 
L 132.783958 252.996923 
L 133.170404 254.296615 
L 135.092727 255.596308 
L 135.918467 256.896 
L 136.816872 258.195692 
L 137.457646 259.495385 
L 137.873819 260.795077 
L 138.60047 260.795077 
L 139.356848 262.094769 
L 140.39728 263.394462 
L 142.243635 263.394462 
L 146.157643 263.394462 
L 146.293064 263.394462 
L 150.801604 264.694154 
L 152.733836 265.993846 
L 152.998073 265.993846 
L 153.622332 267.293538 
L 155.917889 268.593231 
L 158.246476 269.892923 
L 159.184517 269.892923 
L 159.47848 271.192615 
L 161.004448 272.492308 
L 161.509801 273.792 
L 161.820279 275.091692 
L 162.890438 275.091692 
L 166.133945 276.391385 
L 167.048865 277.691077 
L 168.267657 278.990769 
L 170.767998 278.990769 
L 171.937246 280.290462 
L 172.809227 280.290462 
L 182.529838 281.590154 
L 183.018676 282.889846 
L 183.527332 284.189538 
L 184.184621 285.489231 
L 189.700564 286.788923 
L 189.928469 288.088615 
L 194.559219 289.388308 
L 195.913432 290.688 
L 197.122316 291.987692 
L 197.683819 291.987692 
L 198.750675 291.987692 
L 200.59703 293.287385 
L 211.470374 294.587077 
L 213.339849 295.886769 
L 213.663539 297.186462 
L 215.595771 297.186462 
L 215.972308 297.186462 
L 217.775725 298.486154 
L 220.507273 299.785846 
L 221.148047 299.785846 
L 221.851577 301.085538 
L 225.402259 302.385231 
L 234.733121 303.684923 
L 242.845191 304.984615 
L 249.365234 304.984615 
L 256.611928 304.984615 
L 257.345186 306.284308 
L 260.892565 306.284308 
L 264.344158 306.284308 
L 270.07149 306.284308 
L 270.286183 306.284308 
L 288.686973 307.584 
L 290.989136 307.584 
L 295.084807 307.584 
L 304.485031 307.584 
L 318.377281 307.584 
L 319.275686 307.584 
L 320.203817 307.584 
L 338.548457 307.584 
L 341.62021 307.584 
L 342.766337 307.584 
L 385.050831 307.584 
L 398.487273 307.584 
L 398.487273 306.284308 
L 398.487273 306.284308 
L 385.050831 304.984615 
L 342.766337 303.684923 
L 341.62021 302.385231 
L 338.548457 301.085538 
L 320.203817 299.785846 
L 319.275686 298.486154 
L 318.377281 297.186462 
L 304.485031 295.886769 
L 295.084807 294.587077 
L 290.989136 293.287385 
L 288.686973 291.987692 
L 270.286183 290.688 
L 270.07149 289.388308 
L 264.344158 288.088615 
L 260.892565 286.788923 
L 257.345186 285.489231 
L 256.611928 284.189538 
L 249.365234 282.889846 
L 242.845191 281.590154 
L 234.733121 280.290462 
L 225.402259 278.990769 
L 221.851577 277.691077 
L 221.148047 276.391385 
L 220.507273 275.091692 
L 217.775725 273.792 
L 215.972308 272.492308 
L 215.595771 271.192615 
L 213.663539 269.892923 
L 213.339849 268.593231 
L 211.470374 267.293538 
L 200.59703 265.993846 
L 198.750675 264.694154 
L 197.683819 263.394462 
L 197.122316 262.094769 
L 195.913432 260.795077 
L 194.559219 259.495385 
L 189.928469 258.195692 
L 189.700564 256.896 
L 184.184621 255.596308 
L 183.527332 254.296615 
L 183.018676 252.996923 
L 182.529838 251.697231 
L 172.809227 250.397538 
L 171.937246 249.097846 
L 170.767998 247.798154 
L 168.267657 246.498462 
L 167.048865 245.198769 
L 166.133945 243.899077 
L 162.890438 242.599385 
L 161.820279 241.299692 
L 161.509801 240 
L 161.004448 238.700308 
L 159.47848 237.400615 
L 159.184517 236.100923 
L 158.246476 234.801231 
L 155.917889 233.501538 
L 153.622332 232.201846 
L 152.998073 230.902154 
L 152.733836 229.602462 
L 150.801604 228.302769 
L 146.293064 227.003077 
L 146.157643 225.703385 
L 142.243635 224.403692 
L 140.39728 223.104 
L 139.356848 221.804308 
L 138.60047 220.504615 
L 137.873819 219.204923 
L 137.457646 217.905231 
L 136.816872 216.605538 
L 135.918467 215.305846 
L 135.092727 214.006154 
L 133.170404 212.706462 
L 132.783958 211.406769 
L 131.528833 210.107077 
L 130.05241 208.807385 
L 129.953321 207.507692 
L 129.844323 206.208 
L 129.794779 204.908308 
L 129.758446 203.608615 
L 128.625531 202.308923 
L 126.812206 201.009231 
L 126.184643 199.709538 
L 124.691706 198.409846 
L 124.675191 197.110154 
L 124.642161 195.810462 
L 124.242503 194.510769 
L 123.842845 193.211077 
L 123.796603 191.911385 
L 123.294553 190.611692 
L 122.881683 189.312 
L 122.812321 188.012308 
L 121.722344 186.712615 
L 121.719042 185.412923 
L 121.649679 184.113231 
L 121.401957 182.813538 
L 119.796719 181.513846 
L 119.334304 180.214154 
L 118.951161 178.914462 
L 118.406173 177.614769 
L 117.814943 176.315077 
L 116.777813 175.015385 
L 115.971891 173.715692 
L 115.71426 172.416 
L 114.92155 171.116308 
L 113.177587 169.816615 
L 113.088407 168.516923 
L 112.523601 167.217231 
L 111.169387 165.917538 
L 110.796153 164.617846 
L 110.687155 163.318154 
L 110.561643 162.018462 
L 109.114946 160.718769 
L 108.49399 159.419077 
L 107.328045 159.419077 
L 106.839207 158.119385 
L 106.337157 156.819692 
L 105.795471 155.52 
L 105.653444 154.220308 
L 105.052305 152.920615 
L 104.7121 151.620923 
L 104.068023 150.321231 
L 102.974743 149.021538 
L 102.885564 147.721846 
L 101.914493 146.422154 
L 101.557774 145.122462 
L 101.260507 143.822769 
L 101.230781 142.523077 
L 101.141601 141.223385 
L 100.652763 139.923692 
L 100.144107 138.624 
L 100.140804 137.324308 
L 99.681692 136.024615 
L 99.665178 134.724923 
L 98.84274 133.425231 
L 98.822923 132.125538 
L 97.845247 130.825846 
L 97.544677 129.526154 
L 97.353106 128.226462 
L 97.339894 126.926769 
L 97.062445 125.627077 
L 96.629757 124.327385 
L 96.134313 123.027692 
L 96.01871 121.728 
L 95.770988 120.428308 
L 95.602537 119.128615 
L 95.579416 117.828923 
L 95.117002 116.529231 
L 95.021216 115.229538 
L 94.297868 113.929846 
L 94.145931 112.630154 
L 93.68682 111.330462 
L 93.521672 111.330462 
L 92.259941 110.030769 
L 91.516775 108.731077 
L 91.150147 107.431385 
L 90.882607 106.131692 
L 90.453222 104.832 
L 89.772812 103.532308 
L 89.766206 102.232615 
L 89.426001 100.932923 
L 89.287277 99.633231 
L 89.042858 98.333538 
L 88.742289 97.033846 
L 88.537505 95.734154 
L 87.662221 94.434462 
L 87.625888 93.134769 
L 87.384772 91.835077 
L 87.37156 90.535385 
L 86.919055 89.235692 
L 85.181698 87.936 
L 84.92737 86.636308 
L 83.916664 85.336615 
L 83.612792 84.036923 
L 82.882838 82.737231 
L 82.730902 81.437538 
L 82.403909 80.137846 
L 82.195822 78.838154 
L 81.099239 77.538462 
L 80.663249 76.238769 
L 79.431244 74.939077 
L 79.285914 73.639385 
L 79.269399 72.339692 
L 79.176917 71.04 
L 78.724411 69.740308 
L 78.116666 68.440615 
L 77.85243 67.140923 
L 77.419742 67.140923 
L 77.234776 65.841231 
L 77.231473 64.541538 
L 76.607214 63.241846 
L 76.154708 61.942154 
L 75.385118 60.642462 
L 73.931816 59.342769 
L 73.832727 58.043077 
z
" clip-path="url(#pcc98923818)" style="fill: #7cfc00"/>
   </g>
   <g id="PolyCollection_3">
    <path d="M 73.832727 54.144 
L 73.832727 58.043077 
L 73.931816 59.342769 
L 75.385118 60.642462 
L 76.154708 61.942154 
L 76.607214 63.241846 
L 77.231473 64.541538 
L 77.234776 65.841231 
L 77.419742 67.140923 
L 77.85243 67.140923 
L 78.116666 68.440615 
L 78.724411 69.740308 
L 79.176917 71.04 
L 79.269399 72.339692 
L 79.285914 73.639385 
L 79.431244 74.939077 
L 80.663249 76.238769 
L 81.099239 77.538462 
L 82.195822 78.838154 
L 82.403909 80.137846 
L 82.730902 81.437538 
L 82.882838 82.737231 
L 83.612792 84.036923 
L 83.916664 85.336615 
L 84.92737 86.636308 
L 85.181698 87.936 
L 86.919055 89.235692 
L 87.37156 90.535385 
L 87.384772 91.835077 
L 87.625888 93.134769 
L 87.662221 94.434462 
L 88.537505 95.734154 
L 88.742289 97.033846 
L 89.042858 98.333538 
L 89.287277 99.633231 
L 89.426001 100.932923 
L 89.766206 102.232615 
L 89.772812 103.532308 
L 90.453222 104.832 
L 90.882607 106.131692 
L 91.150147 107.431385 
L 91.516775 108.731077 
L 92.259941 110.030769 
L 93.521672 111.330462 
L 93.68682 111.330462 
L 94.145931 112.630154 
L 94.297868 113.929846 
L 95.021216 115.229538 
L 95.117002 116.529231 
L 95.579416 117.828923 
L 95.602537 119.128615 
L 95.770988 120.428308 
L 96.01871 121.728 
L 96.134313 123.027692 
L 96.629757 124.327385 
L 97.062445 125.627077 
L 97.339894 126.926769 
L 97.353106 128.226462 
L 97.544677 129.526154 
L 97.845247 130.825846 
L 98.822923 132.125538 
L 98.84274 133.425231 
L 99.665178 134.724923 
L 99.681692 136.024615 
L 100.140804 137.324308 
L 100.144107 138.624 
L 100.652763 139.923692 
L 101.141601 141.223385 
L 101.230781 142.523077 
L 101.260507 143.822769 
L 101.557774 145.122462 
L 101.914493 146.422154 
L 102.885564 147.721846 
L 102.974743 149.021538 
L 104.068023 150.321231 
L 104.7121 151.620923 
L 105.052305 152.920615 
L 105.653444 154.220308 
L 105.795471 155.52 
L 106.337157 156.819692 
L 106.839207 158.119385 
L 107.328045 159.419077 
L 108.49399 159.419077 
L 109.114946 160.718769 
L 110.561643 162.018462 
L 110.687155 163.318154 
L 110.796153 164.617846 
L 111.169387 165.917538 
L 112.523601 167.217231 
L 113.088407 168.516923 
L 113.177587 169.816615 
L 114.92155 171.116308 
L 115.71426 172.416 
L 115.971891 173.715692 
L 116.777813 175.015385 
L 117.814943 176.315077 
L 118.406173 177.614769 
L 118.951161 178.914462 
L 119.334304 180.214154 
L 119.796719 181.513846 
L 121.401957 182.813538 
L 121.649679 184.113231 
L 121.719042 185.412923 
L 121.722344 186.712615 
L 122.812321 188.012308 
L 122.881683 189.312 
L 123.294553 190.611692 
L 123.796603 191.911385 
L 123.842845 193.211077 
L 124.242503 194.510769 
L 124.642161 195.810462 
L 124.675191 197.110154 
L 124.691706 198.409846 
L 126.184643 199.709538 
L 126.812206 201.009231 
L 128.625531 202.308923 
L 129.758446 203.608615 
L 129.794779 204.908308 
L 129.844323 206.208 
L 129.953321 207.507692 
L 130.05241 208.807385 
L 131.528833 210.107077 
L 132.783958 211.406769 
L 133.170404 212.706462 
L 135.092727 214.006154 
L 135.918467 215.305846 
L 136.816872 216.605538 
L 137.457646 217.905231 
L 137.873819 219.204923 
L 138.60047 220.504615 
L 139.356848 221.804308 
L 140.39728 223.104 
L 142.243635 224.403692 
L 146.157643 225.703385 
L 146.293064 227.003077 
L 150.801604 228.302769 
L 152.733836 229.602462 
L 152.998073 230.902154 
L 153.622332 232.201846 
L 155.917889 233.501538 
L 158.246476 234.801231 
L 159.184517 236.100923 
L 159.47848 237.400615 
L 161.004448 238.700308 
L 161.509801 240 
L 161.820279 241.299692 
L 162.890438 242.599385 
L 166.133945 243.899077 
L 167.048865 245.198769 
L 168.267657 246.498462 
L 170.767998 247.798154 
L 171.937246 249.097846 
L 172.809227 250.397538 
L 182.529838 251.697231 
L 183.018676 252.996923 
L 183.527332 254.296615 
L 184.184621 255.596308 
L 189.700564 256.896 
L 189.928469 258.195692 
L 194.559219 259.495385 
L 195.913432 260.795077 
L 197.122316 262.094769 
L 197.683819 263.394462 
L 198.750675 264.694154 
L 200.59703 265.993846 
L 211.470374 267.293538 
L 213.339849 268.593231 
L 213.663539 269.892923 
L 215.595771 271.192615 
L 215.972308 272.492308 
L 217.775725 273.792 
L 220.507273 275.091692 
L 221.148047 276.391385 
L 221.851577 277.691077 
L 225.402259 278.990769 
L 234.733121 280.290462 
L 242.845191 281.590154 
L 249.365234 282.889846 
L 256.611928 284.189538 
L 257.345186 285.489231 
L 260.892565 286.788923 
L 264.344158 288.088615 
L 270.07149 289.388308 
L 270.286183 290.688 
L 288.686973 291.987692 
L 290.989136 293.287385 
L 295.084807 294.587077 
L 304.485031 295.886769 
L 318.377281 297.186462 
L 319.275686 298.486154 
L 320.203817 299.785846 
L 338.548457 301.085538 
L 341.62021 302.385231 
L 342.766337 303.684923 
L 385.050831 304.984615 
L 398.487273 306.284308 
L 398.487273 306.284308 
L 398.487273 306.284308 
L 385.050831 304.984615 
L 342.766337 303.684923 
L 341.62021 302.385231 
L 338.548457 301.085538 
L 320.203817 299.785846 
L 319.275686 298.486154 
L 318.377281 297.186462 
L 304.485031 295.886769 
L 295.084807 294.587077 
L 290.989136 293.287385 
L 288.686973 291.987692 
L 270.286183 290.688 
L 270.07149 289.388308 
L 264.344158 288.088615 
L 260.892565 286.788923 
L 257.345186 285.489231 
L 256.611928 284.189538 
L 249.365234 282.889846 
L 242.845191 281.590154 
L 234.733121 280.290462 
L 225.402259 278.990769 
L 221.851577 277.691077 
L 221.148047 276.391385 
L 220.507273 275.091692 
L 217.775725 273.792 
L 215.972308 272.492308 
L 215.595771 271.192615 
L 213.663539 269.892923 
L 213.339849 268.593231 
L 211.470374 267.293538 
L 200.59703 265.993846 
L 198.750675 264.694154 
L 197.683819 263.394462 
L 197.122316 262.094769 
L 195.913432 260.795077 
L 194.559219 259.495385 
L 189.928469 258.195692 
L 189.700564 256.896 
L 184.184621 255.596308 
L 183.527332 254.296615 
L 183.018676 252.996923 
L 182.529838 251.697231 
L 172.809227 250.397538 
L 171.937246 249.097846 
L 170.767998 247.798154 
L 168.267657 246.498462 
L 167.048865 245.198769 
L 166.133945 243.899077 
L 162.890438 242.599385 
L 161.820279 241.299692 
L 161.509801 240 
L 161.004448 238.700308 
L 159.47848 237.400615 
L 159.184517 236.100923 
L 158.246476 234.801231 
L 155.917889 233.501538 
L 153.622332 232.201846 
L 152.998073 230.902154 
L 152.733836 229.602462 
L 150.801604 228.302769 
L 146.293064 227.003077 
L 146.157643 225.703385 
L 142.243635 224.403692 
L 140.39728 223.104 
L 139.356848 221.804308 
L 138.60047 220.504615 
L 137.873819 219.204923 
L 137.457646 217.905231 
L 136.816872 216.605538 
L 135.918467 215.305846 
L 135.092727 214.006154 
L 133.170404 212.706462 
L 132.783958 211.406769 
L 131.528833 210.107077 
L 130.05241 208.807385 
L 129.953321 207.507692 
L 129.844323 206.208 
L 129.794779 204.908308 
L 129.758446 203.608615 
L 128.625531 202.308923 
L 126.812206 201.009231 
L 126.184643 199.709538 
L 124.691706 198.409846 
L 124.675191 197.110154 
L 124.642161 195.810462 
L 124.242503 194.510769 
L 123.842845 193.211077 
L 123.796603 191.911385 
L 123.294553 190.611692 
L 122.881683 189.312 
L 122.812321 188.012308 
L 121.722344 186.712615 
L 121.719042 185.412923 
L 121.649679 184.113231 
L 121.401957 182.813538 
L 119.796719 181.513846 
L 119.334304 180.214154 
L 118.951161 178.914462 
L 118.406173 177.614769 
L 117.814943 176.315077 
L 116.777813 175.015385 
L 115.971891 173.715692 
L 115.71426 172.416 
L 114.92155 171.116308 
L 113.177587 169.816615 
L 113.088407 168.516923 
L 112.523601 167.217231 
L 111.169387 165.917538 
L 110.796153 164.617846 
L 110.687155 163.318154 
L 110.561643 162.018462 
L 109.114946 160.718769 
L 108.49399 159.419077 
L 107.328045 158.119385 
L 106.839207 156.819692 
L 106.337157 155.52 
L 105.795471 154.220308 
L 105.653444 152.920615 
L 105.052305 151.620923 
L 104.7121 150.321231 
L 104.068023 149.021538 
L 102.974743 147.721846 
L 102.885564 146.422154 
L 101.914493 145.122462 
L 101.557774 143.822769 
L 101.260507 142.523077 
L 101.230781 141.223385 
L 101.141601 139.923692 
L 100.652763 138.624 
L 100.144107 137.324308 
L 100.140804 136.024615 
L 99.681692 134.724923 
L 99.665178 133.425231 
L 98.84274 132.125538 
L 98.822923 130.825846 
L 97.845247 129.526154 
L 97.544677 128.226462 
L 97.353106 126.926769 
L 97.339894 125.627077 
L 97.062445 124.327385 
L 96.629757 123.027692 
L 96.134313 121.728 
L 96.01871 120.428308 
L 95.770988 119.128615 
L 95.602537 117.828923 
L 95.579416 116.529231 
L 95.117002 115.229538 
L 95.021216 113.929846 
L 94.297868 112.630154 
L 94.145931 111.330462 
L 93.68682 110.030769 
L 93.521672 108.731077 
L 92.259941 107.431385 
L 91.516775 106.131692 
L 91.150147 104.832 
L 90.882607 103.532308 
L 90.453222 102.232615 
L 89.772812 100.932923 
L 89.766206 99.633231 
L 89.426001 98.333538 
L 89.287277 97.033846 
L 89.042858 95.734154 
L 88.742289 94.434462 
L 88.537505 93.134769 
L 87.662221 91.835077 
L 87.625888 90.535385 
L 87.384772 89.235692 
L 87.37156 87.936 
L 86.919055 86.636308 
L 85.181698 85.336615 
L 84.92737 84.036923 
L 83.916664 82.737231 
L 83.612792 81.437538 
L 82.882838 80.137846 
L 82.730902 78.838154 
L 82.403909 77.538462 
L 82.195822 76.238769 
L 81.099239 74.939077 
L 80.663249 73.639385 
L 79.431244 72.339692 
L 79.285914 71.04 
L 79.269399 69.740308 
L 79.176917 68.440615 
L 78.724411 67.140923 
L 78.116666 65.841231 
L 77.85243 64.541538 
L 77.419742 63.241846 
L 77.234776 61.942154 
L 77.231473 60.642462 
L 76.607214 59.342769 
L 76.154708 58.043077 
L 75.385118 56.743385 
L 73.931816 55.443692 
L 73.832727 54.144 
z
" clip-path="url(#pcc98923818)" style="fill: #ff0000"/>
   </g>
   <g id="matplotlib.axis_1">
    <g id="xtick_1">
     <g id="line2d_1">
      <defs>
       <path id="m4463642a72" d="M 0 0 
L 0 3.5 
" style="stroke: #000000; stroke-width: 0.8"/>
      </defs>
      <g>
       <use xlink:href="#m4463642a72" x="118.184874" y="307.584" style="stroke: #000000; stroke-width: 0.8"/>
      </g>
     </g>
     <g id="text_1">
      <!-- 200 -->
      <g transform="translate(108.641124 322.182437)scale(0.1 -0.1)">
       <defs>
        <path id="DejaVuSans-32" d="M 1228 531 
L 3431 531 
L 3431 0 
L 469 0 
L 469 531 
Q 828 903 1448 1529 
Q 2069 2156 2228 2338 
Q 2531 2678 2651 2914 
Q 2772 3150 2772 3378 
Q 2772 3750 2511 3984 
Q 2250 4219 1831 4219 
Q 1534 4219 1204 4116 
Q 875 4013 500 3803 
L 500 4441 
Q 881 4594 1212 4672 
Q 1544 4750 1819 4750 
Q 2544 4750 2975 4387 
Q 3406 4025 3406 3419 
Q 3406 3131 3298 2873 
Q 3191 2616 2906 2266 
Q 2828 2175 2409 1742 
Q 1991 1309 1228 531 
z
" transform="scale(0.015625)"/>
        <path id="DejaVuSans-30" d="M 2034 4250 
Q 1547 4250 1301 3770 
Q 1056 3291 1056 2328 
Q 1056 1369 1301 889 
Q 1547 409 2034 409 
Q 2525 409 2770 889 
Q 3016 1369 3016 2328 
Q 3016 3291 2770 3770 
Q 2525 4250 2034 4250 
z
M 2034 4750 
Q 2819 4750 3233 4129 
Q 3647 3509 3647 2328 
Q 3647 1150 3233 529 
Q 2819 -91 2034 -91 
Q 1250 -91 836 529 
Q 422 1150 422 2328 
Q 422 3509 836 4129 
Q 1250 4750 2034 4750 
z
" transform="scale(0.015625)"/>
       </defs>
       <use xlink:href="#DejaVuSans-32"/>
       <use xlink:href="#DejaVuSans-30" x="63.623047"/>
       <use xlink:href="#DejaVuSans-30" x="127.246094"/>
      </g>
     </g>
    </g>
    <g id="xtick_2">
     <g id="line2d_2">
      <g>
       <use xlink:href="#m4463642a72" x="184.244075" y="307.584" style="stroke: #000000; stroke-width: 0.8"/>
      </g>
     </g>
     <g id="text_2">
      <!-- 400 -->
      <g transform="translate(174.700325 322.182437)scale(0.1 -0.1)">
       <defs>
        <path id="DejaVuSans-34" d="M 2419 4116 
L 825 1625 
L 2419 1625 
L 2419 4116 
z
M 2253 4666 
L 3047 4666 
L 3047 1625 
L 3713 1625 
L 3713 1100 
L 3047 1100 
L 3047 0 
L 2419 0 
L 2419 1100 
L 313 1100 
L 313 1709 
L 2253 4666 
z
" transform="scale(0.015625)"/>
       </defs>
       <use xlink:href="#DejaVuSans-34"/>
       <use xlink:href="#DejaVuSans-30" x="63.623047"/>
       <use xlink:href="#DejaVuSans-30" x="127.246094"/>
      </g>
     </g>
    </g>
    <g id="xtick_3">
     <g id="line2d_3">
      <g>
       <use xlink:href="#m4463642a72" x="250.303275" y="307.584" style="stroke: #000000; stroke-width: 0.8"/>
      </g>
     </g>
     <g id="text_3">
      <!-- 600 -->
      <g transform="translate(240.759525 322.182437)scale(0.1 -0.1)">
       <defs>
        <path id="DejaVuSans-36" d="M 2113 2584 
Q 1688 2584 1439 2293 
Q 1191 2003 1191 1497 
Q 1191 994 1439 701 
Q 1688 409 2113 409 
Q 2538 409 2786 701 
Q 3034 994 3034 1497 
Q 3034 2003 2786 2293 
Q 2538 2584 2113 2584 
z
M 3366 4563 
L 3366 3988 
Q 3128 4100 2886 4159 
Q 2644 4219 2406 4219 
Q 1781 4219 1451 3797 
Q 1122 3375 1075 2522 
Q 1259 2794 1537 2939 
Q 1816 3084 2150 3084 
Q 2853 3084 3261 2657 
Q 3669 2231 3669 1497 
Q 3669 778 3244 343 
Q 2819 -91 2113 -91 
Q 1303 -91 875 529 
Q 447 1150 447 2328 
Q 447 3434 972 4092 
Q 1497 4750 2381 4750 
Q 2619 4750 2861 4703 
Q 3103 4656 3366 4563 
z
" transform="scale(0.015625)"/>
       </defs>
       <use xlink:href="#DejaVuSans-36"/>
       <use xlink:href="#DejaVuSans-30" x="63.623047"/>
       <use xlink:href="#DejaVuSans-30" x="127.246094"/>
      </g>
     </g>
    </g>
    <g id="xtick_4">
     <g id="line2d_4">
      <g>
       <use xlink:href="#m4463642a72" x="316.362475" y="307.584" style="stroke: #000000; stroke-width: 0.8"/>
      </g>
     </g>
     <g id="text_4">
      <!-- 800 -->
      <g transform="translate(306.818725 322.182437)scale(0.1 -0.1)">
       <defs>
        <path id="DejaVuSans-38" d="M 2034 2216 
Q 1584 2216 1326 1975 
Q 1069 1734 1069 1313 
Q 1069 891 1326 650 
Q 1584 409 2034 409 
Q 2484 409 2743 651 
Q 3003 894 3003 1313 
Q 3003 1734 2745 1975 
Q 2488 2216 2034 2216 
z
M 1403 2484 
Q 997 2584 770 2862 
Q 544 3141 544 3541 
Q 544 4100 942 4425 
Q 1341 4750 2034 4750 
Q 2731 4750 3128 4425 
Q 3525 4100 3525 3541 
Q 3525 3141 3298 2862 
Q 3072 2584 2669 2484 
Q 3125 2378 3379 2068 
Q 3634 1759 3634 1313 
Q 3634 634 3220 271 
Q 2806 -91 2034 -91 
Q 1263 -91 848 271 
Q 434 634 434 1313 
Q 434 1759 690 2068 
Q 947 2378 1403 2484 
z
M 1172 3481 
Q 1172 3119 1398 2916 
Q 1625 2713 2034 2713 
Q 2441 2713 2670 2916 
Q 2900 3119 2900 3481 
Q 2900 3844 2670 4047 
Q 2441 4250 2034 4250 
Q 1625 4250 1398 4047 
Q 1172 3844 1172 3481 
z
" transform="scale(0.015625)"/>
       </defs>
       <use xlink:href="#DejaVuSans-38"/>
       <use xlink:href="#DejaVuSans-30" x="63.623047"/>
       <use xlink:href="#DejaVuSans-30" x="127.246094"/>
      </g>
     </g>
    </g>
    <g id="xtick_5">
     <g id="line2d_5">
      <g>
       <use xlink:href="#m4463642a72" x="382.421675" y="307.584" style="stroke: #000000; stroke-width: 0.8"/>
      </g>
     </g>
     <g id="text_5">
      <!-- 1000 -->
      <g transform="translate(369.696675 322.182437)scale(0.1 -0.1)">
       <defs>
        <path id="DejaVuSans-31" d="M 794 531 
L 1825 531 
L 1825 4091 
L 703 3866 
L 703 4441 
L 1819 4666 
L 2450 4666 
L 2450 531 
L 3481 531 
L 3481 0 
L 794 0 
L 794 531 
z
" transform="scale(0.015625)"/>
       </defs>
       <use xlink:href="#DejaVuSans-31"/>
       <use xlink:href="#DejaVuSans-30" x="63.623047"/>
       <use xlink:href="#DejaVuSans-30" x="127.246094"/>
       <use xlink:href="#DejaVuSans-30" x="190.869141"/>
      </g>
     </g>
    </g>
    <g id="text_6">
     <!-- Score -->
     <g transform="translate(222.157656 335.860562)scale(0.1 -0.1)">
      <defs>
       <path id="DejaVuSans-53" d="M 3425 4513 
L 3425 3897 
Q 3066 4069 2747 4153 
Q 2428 4238 2131 4238 
Q 1616 4238 1336 4038 
Q 1056 3838 1056 3469 
Q 1056 3159 1242 3001 
Q 1428 2844 1947 2747 
L 2328 2669 
Q 3034 2534 3370 2195 
Q 3706 1856 3706 1288 
Q 3706 609 3251 259 
Q 2797 -91 1919 -91 
Q 1588 -91 1214 -16 
Q 841 59 441 206 
L 441 856 
Q 825 641 1194 531 
Q 1563 422 1919 422 
Q 2459 422 2753 634 
Q 3047 847 3047 1241 
Q 3047 1584 2836 1778 
Q 2625 1972 2144 2069 
L 1759 2144 
Q 1053 2284 737 2584 
Q 422 2884 422 3419 
Q 422 4038 858 4394 
Q 1294 4750 2059 4750 
Q 2388 4750 2728 4690 
Q 3069 4631 3425 4513 
z
" transform="scale(0.015625)"/>
       <path id="DejaVuSans-63" d="M 3122 3366 
L 3122 2828 
Q 2878 2963 2633 3030 
Q 2388 3097 2138 3097 
Q 1578 3097 1268 2742 
Q 959 2388 959 1747 
Q 959 1106 1268 751 
Q 1578 397 2138 397 
Q 2388 397 2633 464 
Q 2878 531 3122 666 
L 3122 134 
Q 2881 22 2623 -34 
Q 2366 -91 2075 -91 
Q 1284 -91 818 406 
Q 353 903 353 1747 
Q 353 2603 823 3093 
Q 1294 3584 2113 3584 
Q 2378 3584 2631 3529 
Q 2884 3475 3122 3366 
z
" transform="scale(0.015625)"/>
       <path id="DejaVuSans-6f" d="M 1959 3097 
Q 1497 3097 1228 2736 
Q 959 2375 959 1747 
Q 959 1119 1226 758 
Q 1494 397 1959 397 
Q 2419 397 2687 759 
Q 2956 1122 2956 1747 
Q 2956 2369 2687 2733 
Q 2419 3097 1959 3097 
z
M 1959 3584 
Q 2709 3584 3137 3096 
Q 3566 2609 3566 1747 
Q 3566 888 3137 398 
Q 2709 -91 1959 -91 
Q 1206 -91 779 398 
Q 353 888 353 1747 
Q 353 2609 779 3096 
Q 1206 3584 1959 3584 
z
" transform="scale(0.015625)"/>
       <path id="DejaVuSans-72" d="M 2631 2963 
Q 2534 3019 2420 3045 
Q 2306 3072 2169 3072 
Q 1681 3072 1420 2755 
Q 1159 2438 1159 1844 
L 1159 0 
L 581 0 
L 581 3500 
L 1159 3500 
L 1159 2956 
Q 1341 3275 1631 3429 
Q 1922 3584 2338 3584 
Q 2397 3584 2469 3576 
Q 2541 3569 2628 3553 
L 2631 2963 
z
" transform="scale(0.015625)"/>
       <path id="DejaVuSans-65" d="M 3597 1894 
L 3597 1613 
L 953 1613 
Q 991 1019 1311 708 
Q 1631 397 2203 397 
Q 2534 397 2845 478 
Q 3156 559 3463 722 
L 3463 178 
Q 3153 47 2828 -22 
Q 2503 -91 2169 -91 
Q 1331 -91 842 396 
Q 353 884 353 1716 
Q 353 2575 817 3079 
Q 1281 3584 2069 3584 
Q 2775 3584 3186 3129 
Q 3597 2675 3597 1894 
z
M 3022 2063 
Q 3016 2534 2758 2815 
Q 2500 3097 2075 3097 
Q 1594 3097 1305 2825 
Q 1016 2553 972 2059 
L 3022 2063 
z
" transform="scale(0.015625)"/>
      </defs>
      <use xlink:href="#DejaVuSans-53"/>
      <use xlink:href="#DejaVuSans-63" x="63.476562"/>
      <use xlink:href="#DejaVuSans-6f" x="118.457031"/>
      <use xlink:href="#DejaVuSans-72" x="179.638672"/>
      <use xlink:href="#DejaVuSans-65" x="218.501953"/>
     </g>
    </g>
   </g>
   <g id="matplotlib.axis_2">
    <g id="ytick_1">
     <g id="line2d_6">
      <defs>
       <path id="mfe51d52618" d="M 0 0 
L -3.5 0 
" style="stroke: #000000; stroke-width: 0.8"/>
      </defs>
      <g>
       <use xlink:href="#mfe51d52618" x="57.6" y="307.584" style="stroke: #000000; stroke-width: 0.8"/>
      </g>
     </g>
     <g id="text_7">
      <!-- 0 -->
      <g transform="translate(44.2375 311.383219)scale(0.1 -0.1)">
       <use xlink:href="#DejaVuSans-30"/>
      </g>
     </g>
    </g>
    <g id="ytick_2">
     <g id="line2d_7">
      <g>
       <use xlink:href="#mfe51d52618" x="57.6" y="275.091692" style="stroke: #000000; stroke-width: 0.8"/>
      </g>
     </g>
     <g id="text_8">
      <!-- 25 -->
      <g transform="translate(37.875 278.890911)scale(0.1 -0.1)">
       <defs>
        <path id="DejaVuSans-35" d="M 691 4666 
L 3169 4666 
L 3169 4134 
L 1269 4134 
L 1269 2991 
Q 1406 3038 1543 3061 
Q 1681 3084 1819 3084 
Q 2600 3084 3056 2656 
Q 3513 2228 3513 1497 
Q 3513 744 3044 326 
Q 2575 -91 1722 -91 
Q 1428 -91 1123 -41 
Q 819 9 494 109 
L 494 744 
Q 775 591 1075 516 
Q 1375 441 1709 441 
Q 2250 441 2565 725 
Q 2881 1009 2881 1497 
Q 2881 1984 2565 2268 
Q 2250 2553 1709 2553 
Q 1456 2553 1204 2497 
Q 953 2441 691 2322 
L 691 4666 
z
" transform="scale(0.015625)"/>
       </defs>
       <use xlink:href="#DejaVuSans-32"/>
       <use xlink:href="#DejaVuSans-35" x="63.623047"/>
      </g>
     </g>
    </g>
    <g id="ytick_3">
     <g id="line2d_8">
      <g>
       <use xlink:href="#mfe51d52618" x="57.6" y="242.599385" style="stroke: #000000; stroke-width: 0.8"/>
      </g>
     </g>
     <g id="text_9">
      <!-- 50 -->
      <g transform="translate(37.875 246.398603)scale(0.1 -0.1)">
       <use xlink:href="#DejaVuSans-35"/>
       <use xlink:href="#DejaVuSans-30" x="63.623047"/>
      </g>
     </g>
    </g>
    <g id="ytick_4">
     <g id="line2d_9">
      <g>
       <use xlink:href="#mfe51d52618" x="57.6" y="210.107077" style="stroke: #000000; stroke-width: 0.8"/>
      </g>
     </g>
     <g id="text_10">
      <!-- 75 -->
      <g transform="translate(37.875 213.906296)scale(0.1 -0.1)">
       <defs>
        <path id="DejaVuSans-37" d="M 525 4666 
L 3525 4666 
L 3525 4397 
L 1831 0 
L 1172 0 
L 2766 4134 
L 525 4134 
L 525 4666 
z
" transform="scale(0.015625)"/>
       </defs>
       <use xlink:href="#DejaVuSans-37"/>
       <use xlink:href="#DejaVuSans-35" x="63.623047"/>
      </g>
     </g>
    </g>
    <g id="ytick_5">
     <g id="line2d_10">
      <g>
       <use xlink:href="#mfe51d52618" x="57.6" y="177.614769" style="stroke: #000000; stroke-width: 0.8"/>
      </g>
     </g>
     <g id="text_11">
      <!-- 100 -->
      <g transform="translate(31.5125 181.413988)scale(0.1 -0.1)">
       <use xlink:href="#DejaVuSans-31"/>
       <use xlink:href="#DejaVuSans-30" x="63.623047"/>
       <use xlink:href="#DejaVuSans-30" x="127.246094"/>
      </g>
     </g>
    </g>
    <g id="ytick_6">
     <g id="line2d_11">
      <g>
       <use xlink:href="#mfe51d52618" x="57.6" y="145.122462" style="stroke: #000000; stroke-width: 0.8"/>
      </g>
     </g>
     <g id="text_12">
      <!-- 125 -->
      <g transform="translate(31.5125 148.92168)scale(0.1 -0.1)">
       <use xlink:href="#DejaVuSans-31"/>
       <use xlink:href="#DejaVuSans-32" x="63.623047"/>
       <use xlink:href="#DejaVuSans-35" x="127.246094"/>
      </g>
     </g>
    </g>
    <g id="ytick_7">
     <g id="line2d_12">
      <g>
       <use xlink:href="#mfe51d52618" x="57.6" y="112.630154" style="stroke: #000000; stroke-width: 0.8"/>
      </g>
     </g>
     <g id="text_13">
      <!-- 150 -->
      <g transform="translate(31.5125 116.429373)scale(0.1 -0.1)">
       <use xlink:href="#DejaVuSans-31"/>
       <use xlink:href="#DejaVuSans-35" x="63.623047"/>
       <use xlink:href="#DejaVuSans-30" x="127.246094"/>
      </g>
     </g>
    </g>
    <g id="ytick_8">
     <g id="line2d_13">
      <g>
       <use xlink:href="#mfe51d52618" x="57.6" y="80.137846" style="stroke: #000000; stroke-width: 0.8"/>
      </g>
     </g>
     <g id="text_14">
      <!-- 175 -->
      <g transform="translate(31.5125 83.937065)scale(0.1 -0.1)">
       <use xlink:href="#DejaVuSans-31"/>
       <use xlink:href="#DejaVuSans-37" x="63.623047"/>
       <use xlink:href="#DejaVuSans-35" x="127.246094"/>
      </g>
     </g>
    </g>
    <g id="ytick_9">
     <g id="line2d_14">
      <g>
       <use xlink:href="#mfe51d52618" x="57.6" y="47.645538" style="stroke: #000000; stroke-width: 0.8"/>
      </g>
     </g>
     <g id="text_15">
      <!-- 200 -->
      <g transform="translate(31.5125 51.444757)scale(0.1 -0.1)">
       <use xlink:href="#DejaVuSans-32"/>
       <use xlink:href="#DejaVuSans-30" x="63.623047"/>
       <use xlink:href="#DejaVuSans-30" x="127.246094"/>
      </g>
     </g>
    </g>
    <g id="text_16">
     <!-- Number of crosslinks -->
     <g transform="translate(25.432812 227.019406)rotate(-90)scale(0.1 -0.1)">
      <defs>
       <path id="DejaVuSans-4e" d="M 628 4666 
L 1478 4666 
L 3547 763 
L 3547 4666 
L 4159 4666 
L 4159 0 
L 3309 0 
L 1241 3903 
L 1241 0 
L 628 0 
L 628 4666 
z
" transform="scale(0.015625)"/>
       <path id="DejaVuSans-75" d="M 544 1381 
L 544 3500 
L 1119 3500 
L 1119 1403 
Q 1119 906 1312 657 
Q 1506 409 1894 409 
Q 2359 409 2629 706 
Q 2900 1003 2900 1516 
L 2900 3500 
L 3475 3500 
L 3475 0 
L 2900 0 
L 2900 538 
Q 2691 219 2414 64 
Q 2138 -91 1772 -91 
Q 1169 -91 856 284 
Q 544 659 544 1381 
z
M 1991 3584 
L 1991 3584 
z
" transform="scale(0.015625)"/>
       <path id="DejaVuSans-6d" d="M 3328 2828 
Q 3544 3216 3844 3400 
Q 4144 3584 4550 3584 
Q 5097 3584 5394 3201 
Q 5691 2819 5691 2113 
L 5691 0 
L 5113 0 
L 5113 2094 
Q 5113 2597 4934 2840 
Q 4756 3084 4391 3084 
Q 3944 3084 3684 2787 
Q 3425 2491 3425 1978 
L 3425 0 
L 2847 0 
L 2847 2094 
Q 2847 2600 2669 2842 
Q 2491 3084 2119 3084 
Q 1678 3084 1418 2786 
Q 1159 2488 1159 1978 
L 1159 0 
L 581 0 
L 581 3500 
L 1159 3500 
L 1159 2956 
Q 1356 3278 1631 3431 
Q 1906 3584 2284 3584 
Q 2666 3584 2933 3390 
Q 3200 3197 3328 2828 
z
" transform="scale(0.015625)"/>
       <path id="DejaVuSans-62" d="M 3116 1747 
Q 3116 2381 2855 2742 
Q 2594 3103 2138 3103 
Q 1681 3103 1420 2742 
Q 1159 2381 1159 1747 
Q 1159 1113 1420 752 
Q 1681 391 2138 391 
Q 2594 391 2855 752 
Q 3116 1113 3116 1747 
z
M 1159 2969 
Q 1341 3281 1617 3432 
Q 1894 3584 2278 3584 
Q 2916 3584 3314 3078 
Q 3713 2572 3713 1747 
Q 3713 922 3314 415 
Q 2916 -91 2278 -91 
Q 1894 -91 1617 61 
Q 1341 213 1159 525 
L 1159 0 
L 581 0 
L 581 4863 
L 1159 4863 
L 1159 2969 
z
" transform="scale(0.015625)"/>
       <path id="DejaVuSans-20" transform="scale(0.015625)"/>
       <path id="DejaVuSans-66" d="M 2375 4863 
L 2375 4384 
L 1825 4384 
Q 1516 4384 1395 4259 
Q 1275 4134 1275 3809 
L 1275 3500 
L 2222 3500 
L 2222 3053 
L 1275 3053 
L 1275 0 
L 697 0 
L 697 3053 
L 147 3053 
L 147 3500 
L 697 3500 
L 697 3744 
Q 697 4328 969 4595 
Q 1241 4863 1831 4863 
L 2375 4863 
z
" transform="scale(0.015625)"/>
       <path id="DejaVuSans-73" d="M 2834 3397 
L 2834 2853 
Q 2591 2978 2328 3040 
Q 2066 3103 1784 3103 
Q 1356 3103 1142 2972 
Q 928 2841 928 2578 
Q 928 2378 1081 2264 
Q 1234 2150 1697 2047 
L 1894 2003 
Q 2506 1872 2764 1633 
Q 3022 1394 3022 966 
Q 3022 478 2636 193 
Q 2250 -91 1575 -91 
Q 1294 -91 989 -36 
Q 684 19 347 128 
L 347 722 
Q 666 556 975 473 
Q 1284 391 1588 391 
Q 1994 391 2212 530 
Q 2431 669 2431 922 
Q 2431 1156 2273 1281 
Q 2116 1406 1581 1522 
L 1381 1569 
Q 847 1681 609 1914 
Q 372 2147 372 2553 
Q 372 3047 722 3315 
Q 1072 3584 1716 3584 
Q 2034 3584 2315 3537 
Q 2597 3491 2834 3397 
z
" transform="scale(0.015625)"/>
       <path id="DejaVuSans-6c" d="M 603 4863 
L 1178 4863 
L 1178 0 
L 603 0 
L 603 4863 
z
" transform="scale(0.015625)"/>
       <path id="DejaVuSans-69" d="M 603 3500 
L 1178 3500 
L 1178 0 
L 603 0 
L 603 3500 
z
M 603 4863 
L 1178 4863 
L 1178 4134 
L 603 4134 
L 603 4863 
z
" transform="scale(0.015625)"/>
       <path id="DejaVuSans-6e" d="M 3513 2113 
L 3513 0 
L 2938 0 
L 2938 2094 
Q 2938 2591 2744 2837 
Q 2550 3084 2163 3084 
Q 1697 3084 1428 2787 
Q 1159 2491 1159 1978 
L 1159 0 
L 581 0 
L 581 3500 
L 1159 3500 
L 1159 2956 
Q 1366 3272 1645 3428 
Q 1925 3584 2291 3584 
Q 2894 3584 3203 3211 
Q 3513 2838 3513 2113 
z
" transform="scale(0.015625)"/>
       <path id="DejaVuSans-6b" d="M 581 4863 
L 1159 4863 
L 1159 1991 
L 2875 3500 
L 3609 3500 
L 1753 1863 
L 3688 0 
L 2938 0 
L 1159 1709 
L 1159 0 
L 581 0 
L 581 4863 
z
" transform="scale(0.015625)"/>
      </defs>
      <use xlink:href="#DejaVuSans-4e"/>
      <use xlink:href="#DejaVuSans-75" x="74.804688"/>
      <use xlink:href="#DejaVuSans-6d" x="138.183594"/>
      <use xlink:href="#DejaVuSans-62" x="235.595703"/>
      <use xlink:href="#DejaVuSans-65" x="299.072266"/>
      <use xlink:href="#DejaVuSans-72" x="360.595703"/>
      <use xlink:href="#DejaVuSans-20" x="401.708984"/>
      <use xlink:href="#DejaVuSans-6f" x="433.496094"/>
      <use xlink:href="#DejaVuSans-66" x="494.677734"/>
      <use xlink:href="#DejaVuSans-20" x="529.882812"/>
      <use xlink:href="#DejaVuSans-63" x="561.669922"/>
      <use xlink:href="#DejaVuSans-72" x="616.650391"/>
      <use xlink:href="#DejaVuSans-6f" x="655.513672"/>
      <use xlink:href="#DejaVuSans-73" x="716.695312"/>
      <use xlink:href="#DejaVuSans-73" x="768.794922"/>
      <use xlink:href="#DejaVuSans-6c" x="820.894531"/>
      <use xlink:href="#DejaVuSans-69" x="848.677734"/>
      <use xlink:href="#DejaVuSans-6e" x="876.460938"/>
      <use xlink:href="#DejaVuSans-6b" x="939.839844"/>
      <use xlink:href="#DejaVuSans-73" x="997.75"/>
     </g>
    </g>
   </g>
   <g id="patch_3">
    <path d="M 57.6 307.584 
L 57.6 41.472 
" style="fill: none; stroke: #000000; stroke-width: 0.8; stroke-linejoin: miter; stroke-linecap: square"/>
   </g>
   <g id="patch_4">
    <path d="M 414.72 307.584 
L 414.72 41.472 
" style="fill: none; stroke: #000000; stroke-width: 0.8; stroke-linejoin: miter; stroke-linecap: square"/>
   </g>
   <g id="patch_5">
    <path d="M 57.6 307.584 
L 414.72 307.584 
" style="fill: none; stroke: #000000; stroke-width: 0.8; stroke-linejoin: miter; stroke-linecap: square"/>
   </g>
   <g id="patch_6">
    <path d="M 57.6 41.472 
L 414.72 41.472 
" style="fill: none; stroke: #000000; stroke-width: 0.8; stroke-linejoin: miter; stroke-linecap: square"/>
   </g>
   <g id="legend_1">
    <g id="patch_7">
     <path d="M 293.087188 93.506375 
L 407.72 93.506375 
Q 409.72 93.506375 409.72 91.506375 
L 409.72 48.472 
Q 409.72 46.472 407.72 46.472 
L 293.087188 46.472 
Q 291.087188 46.472 291.087188 48.472 
L 291.087188 91.506375 
Q 291.087188 93.506375 293.087188 93.506375 
z
" style="fill: #ffffff; opacity: 0.8; stroke: #cccccc; stroke-linejoin: miter"/>
    </g>
    <g id="patch_8">
     <path d="M 295.087188 58.070438 
L 315.087188 58.070438 
L 315.087188 51.070438 
L 295.087188 51.070438 
z
" style="fill: #008000"/>
    </g>
    <g id="text_17">
     <!-- true -->
     <g transform="translate(323.087188 58.070438)scale(0.1 -0.1)">
      <defs>
       <path id="DejaVuSans-74" d="M 1172 4494 
L 1172 3500 
L 2356 3500 
L 2356 3053 
L 1172 3053 
L 1172 1153 
Q 1172 725 1289 603 
Q 1406 481 1766 481 
L 2356 481 
L 2356 0 
L 1766 0 
Q 1100 0 847 248 
Q 594 497 594 1153 
L 594 3053 
L 172 3053 
L 172 3500 
L 594 3500 
L 594 4494 
L 1172 4494 
z
" transform="scale(0.015625)"/>
      </defs>
      <use xlink:href="#DejaVuSans-74"/>
      <use xlink:href="#DejaVuSans-72" x="39.208984"/>
      <use xlink:href="#DejaVuSans-75" x="80.322266"/>
      <use xlink:href="#DejaVuSans-65" x="143.701172"/>
     </g>
    </g>
    <g id="patch_9">
     <path d="M 295.087188 72.748563 
L 315.087188 72.748563 
L 315.087188 65.748563 
L 295.087188 65.748563 
z
" style="fill: #7cfc00"/>
    </g>
    <g id="text_18">
     <!-- true homeotypic -->
     <g transform="translate(323.087188 72.748563)scale(0.1 -0.1)">
      <defs>
       <path id="DejaVuSans-68" d="M 3513 2113 
L 3513 0 
L 2938 0 
L 2938 2094 
Q 2938 2591 2744 2837 
Q 2550 3084 2163 3084 
Q 1697 3084 1428 2787 
Q 1159 2491 1159 1978 
L 1159 0 
L 581 0 
L 581 4863 
L 1159 4863 
L 1159 2956 
Q 1366 3272 1645 3428 
Q 1925 3584 2291 3584 
Q 2894 3584 3203 3211 
Q 3513 2838 3513 2113 
z
" transform="scale(0.015625)"/>
       <path id="DejaVuSans-79" d="M 2059 -325 
Q 1816 -950 1584 -1140 
Q 1353 -1331 966 -1331 
L 506 -1331 
L 506 -850 
L 844 -850 
Q 1081 -850 1212 -737 
Q 1344 -625 1503 -206 
L 1606 56 
L 191 3500 
L 800 3500 
L 1894 763 
L 2988 3500 
L 3597 3500 
L 2059 -325 
z
" transform="scale(0.015625)"/>
       <path id="DejaVuSans-70" d="M 1159 525 
L 1159 -1331 
L 581 -1331 
L 581 3500 
L 1159 3500 
L 1159 2969 
Q 1341 3281 1617 3432 
Q 1894 3584 2278 3584 
Q 2916 3584 3314 3078 
Q 3713 2572 3713 1747 
Q 3713 922 3314 415 
Q 2916 -91 2278 -91 
Q 1894 -91 1617 61 
Q 1341 213 1159 525 
z
M 3116 1747 
Q 3116 2381 2855 2742 
Q 2594 3103 2138 3103 
Q 1681 3103 1420 2742 
Q 1159 2381 1159 1747 
Q 1159 1113 1420 752 
Q 1681 391 2138 391 
Q 2594 391 2855 752 
Q 3116 1113 3116 1747 
z
" transform="scale(0.015625)"/>
      </defs>
      <use xlink:href="#DejaVuSans-74"/>
      <use xlink:href="#DejaVuSans-72" x="39.208984"/>
      <use xlink:href="#DejaVuSans-75" x="80.322266"/>
      <use xlink:href="#DejaVuSans-65" x="143.701172"/>
      <use xlink:href="#DejaVuSans-20" x="205.224609"/>
      <use xlink:href="#DejaVuSans-68" x="237.011719"/>
      <use xlink:href="#DejaVuSans-6f" x="300.390625"/>
      <use xlink:href="#DejaVuSans-6d" x="361.572266"/>
      <use xlink:href="#DejaVuSans-65" x="458.984375"/>
      <use xlink:href="#DejaVuSans-6f" x="520.507812"/>
      <use xlink:href="#DejaVuSans-74" x="581.689453"/>
      <use xlink:href="#DejaVuSans-79" x="620.898438"/>
      <use xlink:href="#DejaVuSans-70" x="680.078125"/>
      <use xlink:href="#DejaVuSans-69" x="743.554688"/>
      <use xlink:href="#DejaVuSans-63" x="771.337891"/>
     </g>
    </g>
    <g id="patch_10">
     <path d="M 295.087188 87.426688 
L 315.087188 87.426688 
L 315.087188 80.426688 
L 295.087188 80.426688 
z
" style="fill: #ff0000"/>
    </g>
    <g id="text_19">
     <!-- false -->
     <g transform="translate(323.087188 87.426688)scale(0.1 -0.1)">
      <defs>
       <path id="DejaVuSans-61" d="M 2194 1759 
Q 1497 1759 1228 1600 
Q 959 1441 959 1056 
Q 959 750 1161 570 
Q 1363 391 1709 391 
Q 2188 391 2477 730 
Q 2766 1069 2766 1631 
L 2766 1759 
L 2194 1759 
z
M 3341 1997 
L 3341 0 
L 2766 0 
L 2766 531 
Q 2569 213 2275 61 
Q 1981 -91 1556 -91 
Q 1019 -91 701 211 
Q 384 513 384 1019 
Q 384 1609 779 1909 
Q 1175 2209 1959 2209 
L 2766 2209 
L 2766 2266 
Q 2766 2663 2505 2880 
Q 2244 3097 1772 3097 
Q 1472 3097 1187 3025 
Q 903 2953 641 2809 
L 641 3341 
Q 956 3463 1253 3523 
Q 1550 3584 1831 3584 
Q 2591 3584 2966 3190 
Q 3341 2797 3341 1997 
z
" transform="scale(0.015625)"/>
      </defs>
      <use xlink:href="#DejaVuSans-66"/>
      <use xlink:href="#DejaVuSans-61" x="35.205078"/>
      <use xlink:href="#DejaVuSans-6c" x="96.484375"/>
      <use xlink:href="#DejaVuSans-73" x="124.267578"/>
      <use xlink:href="#DejaVuSans-65" x="176.367188"/>
     </g>
    </g>
   </g>
  </g>
 </g>
 <defs>
  <clipPath id="pcc98923818">
   <rect x="57.6" y="41.472" width="357.12" height="266.112"/>
  </clipPath>
 </defs>
</svg>
