<?xml version="1.0" encoding="utf-8" standalone="no"?>
<!DOCTYPE svg PUBLIC "-//W3C//DTD SVG 1.1//EN"
  "http://www.w3.org/Graphics/SVG/1.1/DTD/svg11.dtd">
<svg xmlns:xlink="http://www.w3.org/1999/xlink" width="460.8pt" height="345.6pt" viewBox="0 0 460.8 345.6" xmlns="http://www.w3.org/2000/svg" version="1.1">
 <metadata>
  <rdf:RDF xmlns:dc="http://purl.org/dc/elements/1.1/" xmlns:cc="http://creativecommons.org/ns#" xmlns:rdf="http://www.w3.org/1999/02/22-rdf-syntax-ns#">
   <cc:Work>
    <dc:type rdf:resource="http://purl.org/dc/dcmitype/StillImage"/>
    <dc:date>2022-07-21T14:38:22.423063</dc:date>
    <dc:format>image/svg+xml</dc:format>
    <dc:creator>
     <cc:Agent>
      <dc:title>Matplotlib v3.5.1, https://matplotlib.org/</dc:title>
     </cc:Agent>
    </dc:creator>
   </cc:Work>
  </rdf:RDF>
 </metadata>
 <defs>
  <style type="text/css">*{stroke-linejoin: round; stroke-linecap: butt}</style>
 </defs>
 <g id="figure_1">
  <g id="patch_1">
   <path d="M 0 345.6 
L 460.8 345.6 
L 460.8 0 
L 0 0 
z
" style="fill: #ffffff"/>
  </g>
  <g id="axes_1">
   <g id="patch_2">
    <path d="M 57.6 307.584 
L 414.72 307.584 
L 414.72 41.472 
L 57.6 41.472 
z
" style="fill: #ffffff"/>
   </g>
   <g id="PolyCollection_1">
    <path d="M 73.832727 88.704 
L 73.832727 307.584 
L 73.909542 307.584 
L 73.94334 307.584 
L 74.296686 307.584 
L 74.689976 307.584 
L 75.279911 307.584 
L 75.498064 307.584 
L 75.544152 307.584 
L 77.034352 307.584 
L 77.123456 307.584 
L 77.602778 307.584 
L 78.125116 307.584 
L 78.373995 307.584 
L 78.871752 307.584 
L 78.98851 307.584 
L 79.437106 307.584 
L 79.79967 307.584 
L 80.014751 307.584 
L 80.229831 307.584 
L 80.343516 307.584 
L 80.844346 307.584 
L 80.951886 307.584 
L 81.268362 307.584 
L 81.305233 307.584 
L 81.437353 307.584 
L 81.480369 307.584 
L 81.759974 307.584 
L 82.11332 307.584 
L 82.767779 307.584 
L 82.832303 307.584 
L 82.856884 307.584 
L 83.268609 307.584 
L 83.864689 307.584 
L 83.935358 307.584 
L 84.181164 307.584 
L 84.310212 307.584 
L 84.771099 307.584 
L 84.823332 307.584 
L 85.041485 307.584 
L 85.14288 307.584 
L 85.668291 307.584 
L 85.689799 307.584 
L 85.923315 307.584 
L 86.230572 307.584 
L 86.427217 307.584 
L 86.433362 307.584 
L 87.223014 307.584 
L 87.388933 307.584 
L 87.438095 307.584 
L 88.240037 307.584 
L 88.353722 307.584 
L 88.381376 307.584 
L 89.05427 307.584 
L 89.137229 307.584 
L 89.398398 307.584 
L 89.462922 307.584 
L 89.469068 307.584 
L 89.576608 307.584 
L 89.668785 307.584 
L 89.751745 307.584 
L 90.074365 307.584 
L 90.409276 307.584 
L 90.633574 307.584 
L 90.781058 307.584 
L 91.109823 307.584 
L 91.650597 307.584 
L 91.687468 307.584 
L 91.896403 307.584 
L 92.160644 307.584 
L 92.369579 307.584 
L 92.781305 307.584 
L 92.888845 307.584 
L 92.956441 307.584 
L 93.595537 307.584 
L 93.733803 307.584 
L 93.838271 307.584 
L 94.090222 307.584 
L 94.508092 307.584 
L 94.551109 307.584 
L 94.717028 307.584 
L 94.824568 307.584 
L 95.061156 307.584 
L 95.718687 307.584 
L 95.743268 307.584 
L 95.887679 307.584 
L 95.949131 307.584 
L 96.025945 307.584 
L 96.302477 307.584 
L 96.477614 307.584 
L 96.523702 307.584 
L 96.652751 307.584 
L 96.996879 307.584 
L 97.623685 307.584 
L 98.302724 307.584 
L 98.382611 307.584 
L 98.785119 307.584 
L 99.086231 307.584 
L 99.110812 307.584 
L 99.839012 307.584 
L 99.869738 307.584 
L 99.928117 307.584 
L 100.127834 307.584 
L 100.195431 307.584 
L 100.247665 307.584 
L 100.634809 307.584 
L 100.859107 307.584 
L 101.151002 307.584 
L 101.495131 307.584 
L 101.645687 307.584 
L 101.734792 307.584 
L 102.509081 307.584 
L 103.264935 307.584 
L 103.492305 307.584 
L 104.125256 307.584 
L 104.232796 307.584 
L 104.266594 307.584 
L 104.801223 307.584 
L 105.10848 307.584 
L 105.188367 307.584 
L 105.421883 307.584 
L 105.538641 307.584 
L 105.719923 307.584 
L 106.343656 307.584 
L 106.386672 307.584 
L 106.405107 307.584 
L 106.481922 307.584 
L 106.71851 307.584 
L 106.767671 307.584 
L 106.924373 307.584 
L 107.081074 307.584 
L 107.489727 307.584 
L 107.836928 307.584 
L 108.073516 307.584 
L 108.448371 307.584 
L 108.623507 307.584 
L 109.029088 307.584 
L 109.053668 307.584 
L 109.124337 307.584 
L 109.142773 307.584 
L 109.201152 307.584 
L 109.388579 307.584 
L 109.569861 307.584 
L 109.858683 307.584 
L 109.895554 307.584 
L 110.172086 307.584 
L 110.190521 307.584 
L 110.387166 307.584 
L 111.318157 307.584 
L 111.44106 307.584 
L 111.969543 307.584 
L 112.058648 307.584 
L 112.175406 307.584 
L 112.23993 307.584 
L 112.243002 307.584 
L 112.633219 307.584 
L 113.127904 307.584 
L 113.475105 307.584 
L 114.187943 307.584 
L 114.59045 307.584 
L 114.885418 307.584 
L 114.977595 307.584 
L 114.999103 307.584 
L 115.290998 307.584 
L 115.49686 307.584 
L 115.610546 307.584 
L 115.767247 307.584 
L 115.862497 307.584 
L 115.90244 307.584 
L 116.169755 307.584 
L 116.225061 307.584 
L 116.60606 307.584 
L 116.670585 307.584 
L 116.80885 307.584 
L 117.073092 307.584 
L 117.245156 307.584 
L 118.51413 307.584 
L 119.054904 307.584 
L 119.352944 307.584 
L 119.758524 307.584 
L 120.213265 307.584 
L 120.403765 307.584 
L 120.993699 307.584 
L 121.63894 307.584 
L 122.43781 307.584 
L 122.588366 307.584 
L 123.006237 307.584 
L 123.276623 307.584 
L 123.454833 307.584 
L 123.543937 307.584 
L 125.224637 307.584 
L 125.707031 307.584 
L 125.768483 307.584 
L 125.829934 307.584 
L 126.091103 307.584 
L 126.392216 307.584 
L 126.579643 307.584 
L 126.591933 307.584 
L 126.87461 307.584 
L 127.117344 307.584 
L 127.329351 307.584 
L 127.400021 307.584 
L 127.934649 307.584 
L 128.26956 307.584 
L 128.352519 307.584 
L 128.884075 307.584 
L 128.914801 307.584 
L 129.252784 307.584 
L 129.919533 307.584 
L 130.248299 307.584 
L 130.331258 307.584 
L 130.472597 307.584 
L 131.010298 307.584 
L 131.428168 307.584 
L 131.7047 307.584 
L 132.90915 307.584 
L 133.677294 307.584 
L 133.686511 307.584 
L 133.751036 307.584 
L 133.775616 307.584 
L 133.987624 307.584 
L 134.715824 307.584 
L 135.167493 307.584 
L 135.185929 307.584 
L 136.212169 307.584 
L 136.313564 307.584 
L 136.937297 307.584 
L 136.961878 307.584 
L 137.447345 307.584 
L 137.588683 307.584 
L 138.307666 307.584 
L 138.952907 307.584 
L 139.035867 307.584 
L 139.066592 307.584 
L 140.055962 307.584 
L 140.347857 307.584 
L 140.397018 307.584 
L 140.682767 307.584 
L 141.629121 307.584 
L 144.280754 307.584 
L 144.677117 307.584 
L 144.769294 307.584 
L 145.43297 307.584 
L 145.439115 307.584 
L 145.565091 307.584 
L 146.505299 307.584 
L 146.917025 307.584 
L 147.119815 307.584 
L 147.700531 307.584 
L 148.010862 307.584 
L 148.161418 307.584 
L 148.351918 307.584 
L 148.619232 307.584 
L 148.932635 307.584 
L 149.040175 307.584 
L 149.399666 307.584 
L 150.57339 307.584 
L 150.628697 307.584 
L 151.516671 307.584 
L 151.541252 307.584 
L 151.728679 307.584 
L 151.802421 307.584 
L 151.830074 307.584 
L 152.592073 307.584 
L 152.604363 307.584 
L 152.690395 307.584 
L 152.920838 307.584 
L 153.443176 307.584 
L 153.587587 307.584 
L 155.30823 307.584 
L 155.406553 307.584 
L 156.156261 307.584 
L 156.282237 307.584 
L 156.736978 307.584 
L 157.465179 307.584 
L 158.233323 307.584 
L 158.829402 307.584 
L 158.857056 307.584 
L 158.915435 307.584 
L 159.379394 307.584 
L 159.990836 307.584 
L 160.003127 307.584 
L 160.338037 307.584 
L 160.479376 307.584 
L 161.407294 307.584 
L 161.662318 307.584 
L 161.898906 307.584 
L 161.978793 307.584 
L 162.289123 307.584 
L 164.350822 307.584 
L 164.458362 307.584 
L 164.876232 307.584 
L 165.370917 307.584 
L 165.573707 307.584 
L 165.699683 307.584 
L 166.191295 307.584 
L 167.192955 307.584 
L 167.346584 307.584 
L 167.80747 307.584 
L 170.766361 307.584 
L 170.975296 307.584 
L 171.93394 307.584 
L 172.385609 307.584 
L 173.24593 307.584 
L 173.374978 307.584 
L 174.699258 307.584 
L 175.206234 307.584 
L 178.500035 307.584 
L 179.504768 307.584 
L 180.478774 307.584 
L 180.912008 307.584 
L 181.477362 307.584 
L 181.778474 307.584 
L 182.654158 307.584 
L 186.224492 307.584 
L 186.593201 307.584 
L 187.597933 307.584 
L 188.550432 307.584 
L 188.630319 307.584 
L 192.120765 307.584 
L 192.784442 307.584 
L 199.679303 307.584 
L 202.831766 307.584 
L 204.318893 307.584 
L 205.013295 307.584 
L 205.637028 307.584 
L 206.666341 307.584 
L 210.353433 307.584 
L 214.608951 307.584 
L 216.69523 307.584 
L 224.425832 307.584 
L 228.899502 307.584 
L 229.855074 307.584 
L 232.205594 307.584 
L 232.863126 307.584 
L 237.791538 307.584 
L 238.538174 307.584 
L 239.472237 307.584 
L 240.20351 307.584 
L 240.418591 307.584 
L 245.946155 307.584 
L 267.368156 307.584 
L 276.899288 307.584 
L 277.695085 307.584 
L 279.283607 307.584 
L 283.778786 307.584 
L 307.419187 307.584 
L 327.781149 307.584 
L 330.678589 307.584 
L 398.487273 307.584 
L 398.487273 307.584 
L 398.487273 307.584 
L 330.678589 307.584 
L 327.781149 307.584 
L 307.419187 307.584 
L 283.778786 307.584 
L 279.283607 307.584 
L 277.695085 307.584 
L 276.899288 306.864 
L 267.368156 306.864 
L 245.946155 306.864 
L 240.418591 306.864 
L 240.20351 306.864 
L 239.472237 306.864 
L 238.538174 306.864 
L 237.791538 306.864 
L 232.863126 306.864 
L 232.205594 306.864 
L 229.855074 306.864 
L 228.899502 306.864 
L 224.425832 306.144 
L 216.69523 306.144 
L 214.608951 306.144 
L 210.353433 305.424 
L 206.666341 305.424 
L 205.637028 304.704 
L 205.013295 304.704 
L 204.318893 303.984 
L 202.831766 303.984 
L 199.679303 303.984 
L 192.784442 303.984 
L 192.120765 303.264 
L 188.630319 302.544 
L 188.550432 302.544 
L 187.597933 301.824 
L 186.593201 301.104 
L 186.224492 300.384 
L 182.654158 299.664 
L 181.778474 298.944 
L 181.477362 298.224 
L 180.912008 298.224 
L 180.478774 298.224 
L 179.504768 297.504 
L 178.500035 296.784 
L 175.206234 296.064 
L 174.699258 295.344 
L 173.374978 295.344 
L 173.24593 294.624 
L 172.385609 293.904 
L 171.93394 292.464 
L 170.975296 292.464 
L 170.766361 291.744 
L 167.80747 291.024 
L 167.346584 290.304 
L 167.192955 289.584 
L 166.191295 288.864 
L 165.699683 288.864 
L 165.573707 288.144 
L 165.370917 287.424 
L 164.876232 286.704 
L 164.458362 285.984 
L 164.350822 285.264 
L 162.289123 284.544 
L 161.978793 283.824 
L 161.898906 283.104 
L 161.662318 282.384 
L 161.407294 281.664 
L 160.479376 280.944 
L 160.338037 280.224 
L 160.003127 279.504 
L 159.990836 278.784 
L 159.379394 278.064 
L 158.915435 277.344 
L 158.857056 276.624 
L 158.829402 275.904 
L 158.233323 275.184 
L 157.465179 274.464 
L 156.736978 273.744 
L 156.282237 273.744 
L 156.156261 273.744 
L 155.406553 273.744 
L 155.30823 273.024 
L 153.587587 272.304 
L 153.443176 272.304 
L 152.920838 271.584 
L 152.690395 270.864 
L 152.604363 270.144 
L 152.592073 269.424 
L 151.830074 268.704 
L 151.802421 268.704 
L 151.728679 267.984 
L 151.541252 267.264 
L 151.516671 266.544 
L 150.628697 265.824 
L 150.57339 265.104 
L 149.399666 264.384 
L 149.040175 263.664 
L 148.932635 262.944 
L 148.619232 262.224 
L 148.351918 261.504 
L 148.161418 260.784 
L 148.010862 260.064 
L 147.700531 259.344 
L 147.119815 258.624 
L 146.917025 257.904 
L 146.505299 257.184 
L 145.565091 256.464 
L 145.439115 255.744 
L 145.43297 255.024 
L 144.769294 254.304 
L 144.677117 253.584 
L 144.280754 252.864 
L 141.629121 252.144 
L 140.682767 251.424 
L 140.397018 250.704 
L 140.347857 249.984 
L 140.055962 249.264 
L 139.066592 248.544 
L 139.035867 247.824 
L 138.952907 247.104 
L 138.307666 246.384 
L 137.588683 245.664 
L 137.447345 244.944 
L 136.961878 244.224 
L 136.937297 243.504 
L 136.313564 242.784 
L 136.212169 242.064 
L 135.185929 241.344 
L 135.167493 240.624 
L 134.715824 239.904 
L 133.987624 239.184 
L 133.775616 239.184 
L 133.751036 238.464 
L 133.686511 237.744 
L 133.677294 237.024 
L 132.90915 237.024 
L 131.7047 236.304 
L 131.428168 235.584 
L 131.010298 234.864 
L 130.472597 234.144 
L 130.331258 233.424 
L 130.248299 232.704 
L 129.919533 231.984 
L 129.252784 231.264 
L 128.914801 230.544 
L 128.884075 229.824 
L 128.352519 229.104 
L 128.26956 228.384 
L 127.934649 227.664 
L 127.400021 226.944 
L 127.329351 226.224 
L 127.117344 225.504 
L 126.87461 224.784 
L 126.591933 224.064 
L 126.579643 223.344 
L 126.392216 222.624 
L 126.091103 221.904 
L 125.829934 221.184 
L 125.768483 220.464 
L 125.707031 219.744 
L 125.224637 219.024 
L 123.543937 218.304 
L 123.454833 217.584 
L 123.276623 216.864 
L 123.006237 216.144 
L 122.588366 215.424 
L 122.43781 214.704 
L 121.63894 213.984 
L 120.993699 213.264 
L 120.403765 212.544 
L 120.213265 211.824 
L 119.758524 211.104 
L 119.352944 210.384 
L 119.054904 209.664 
L 118.51413 209.664 
L 117.245156 208.944 
L 117.073092 208.224 
L 116.80885 207.504 
L 116.670585 206.784 
L 116.60606 206.064 
L 116.225061 205.344 
L 116.169755 204.624 
L 115.90244 203.904 
L 115.862497 203.184 
L 115.767247 202.464 
L 115.610546 201.744 
L 115.49686 201.024 
L 115.290998 200.304 
L 114.999103 199.584 
L 114.977595 198.864 
L 114.885418 198.144 
L 114.59045 197.424 
L 114.187943 197.424 
L 113.475105 196.704 
L 113.127904 195.984 
L 112.633219 195.264 
L 112.243002 194.544 
L 112.23993 193.824 
L 112.175406 193.104 
L 112.058648 192.384 
L 111.969543 191.664 
L 111.44106 190.944 
L 111.318157 190.224 
L 110.387166 189.504 
L 110.190521 188.784 
L 110.172086 188.784 
L 109.895554 188.064 
L 109.858683 187.344 
L 109.569861 186.624 
L 109.388579 185.904 
L 109.201152 185.184 
L 109.142773 184.464 
L 109.124337 183.744 
L 109.053668 183.024 
L 109.029088 182.304 
L 108.623507 181.584 
L 108.448371 180.864 
L 108.073516 180.144 
L 107.836928 179.424 
L 107.489727 178.704 
L 107.081074 177.984 
L 106.924373 177.264 
L 106.767671 176.544 
L 106.71851 176.544 
L 106.481922 175.824 
L 106.405107 175.104 
L 106.386672 174.384 
L 106.343656 173.664 
L 105.719923 172.944 
L 105.538641 172.224 
L 105.421883 171.504 
L 105.188367 170.784 
L 105.10848 170.064 
L 104.801223 169.344 
L 104.266594 168.624 
L 104.232796 167.904 
L 104.125256 167.184 
L 103.492305 166.464 
L 103.264935 165.744 
L 102.509081 165.024 
L 101.734792 164.304 
L 101.645687 163.584 
L 101.495131 162.864 
L 101.151002 162.144 
L 100.859107 161.424 
L 100.634809 161.424 
L 100.247665 160.704 
L 100.195431 159.984 
L 100.127834 159.264 
L 99.928117 158.544 
L 99.869738 157.824 
L 99.839012 157.104 
L 99.110812 156.384 
L 99.086231 155.664 
L 98.785119 155.664 
L 98.382611 154.944 
L 98.302724 154.224 
L 97.623685 153.504 
L 96.996879 152.784 
L 96.652751 152.064 
L 96.523702 151.344 
L 96.477614 150.624 
L 96.302477 149.904 
L 96.025945 149.184 
L 95.949131 148.464 
L 95.887679 147.744 
L 95.743268 147.024 
L 95.718687 145.584 
L 95.061156 144.144 
L 94.824568 143.424 
L 94.717028 142.704 
L 94.551109 141.984 
L 94.508092 141.264 
L 94.090222 140.544 
L 93.838271 139.824 
L 93.733803 139.104 
L 93.595537 138.384 
L 92.956441 137.664 
L 92.888845 136.944 
L 92.781305 136.224 
L 92.369579 135.504 
L 92.160644 134.784 
L 91.896403 134.064 
L 91.687468 133.344 
L 91.650597 132.624 
L 91.109823 131.904 
L 90.781058 131.184 
L 90.633574 130.464 
L 90.409276 129.744 
L 90.074365 129.024 
L 89.751745 128.304 
L 89.668785 127.584 
L 89.576608 126.864 
L 89.469068 126.144 
L 89.462922 125.424 
L 89.398398 124.704 
L 89.137229 123.984 
L 89.05427 123.264 
L 88.381376 123.264 
L 88.353722 122.544 
L 88.240037 121.824 
L 87.438095 121.104 
L 87.388933 120.384 
L 87.223014 119.664 
L 86.433362 118.944 
L 86.427217 118.224 
L 86.230572 117.504 
L 85.923315 116.784 
L 85.689799 116.064 
L 85.668291 115.344 
L 85.14288 115.344 
L 85.041485 114.624 
L 84.823332 113.904 
L 84.771099 113.184 
L 84.310212 113.184 
L 84.181164 112.464 
L 83.935358 111.744 
L 83.864689 111.024 
L 83.268609 110.304 
L 82.856884 109.584 
L 82.832303 108.864 
L 82.767779 108.144 
L 82.11332 107.424 
L 81.759974 106.704 
L 81.480369 105.984 
L 81.437353 105.264 
L 81.305233 104.544 
L 81.268362 103.824 
L 80.951886 103.104 
L 80.844346 102.384 
L 80.343516 101.664 
L 80.229831 100.944 
L 80.014751 100.224 
L 79.79967 99.504 
L 79.437106 98.784 
L 78.98851 98.064 
L 78.871752 97.344 
L 78.373995 96.624 
L 78.125116 95.904 
L 77.602778 95.184 
L 77.123456 94.464 
L 77.034352 93.744 
L 75.544152 93.024 
L 75.498064 92.304 
L 75.279911 91.584 
L 74.689976 90.864 
L 74.296686 90.864 
L 73.94334 90.144 
L 73.909542 89.424 
L 73.832727 88.704 
z
" clip-path="url(#pfd33e88f0b)" style="fill: #008000"/>
   </g>
   <g id="PolyCollection_2">
    <path d="M 73.832727 57.024 
L 73.832727 88.704 
L 73.909542 89.424 
L 73.94334 90.144 
L 74.296686 90.864 
L 74.689976 90.864 
L 75.279911 91.584 
L 75.498064 92.304 
L 75.544152 93.024 
L 77.034352 93.744 
L 77.123456 94.464 
L 77.602778 95.184 
L 78.125116 95.904 
L 78.373995 96.624 
L 78.871752 97.344 
L 78.98851 98.064 
L 79.437106 98.784 
L 79.79967 99.504 
L 80.014751 100.224 
L 80.229831 100.944 
L 80.343516 101.664 
L 80.844346 102.384 
L 80.951886 103.104 
L 81.268362 103.824 
L 81.305233 104.544 
L 81.437353 105.264 
L 81.480369 105.984 
L 81.759974 106.704 
L 82.11332 107.424 
L 82.767779 108.144 
L 82.832303 108.864 
L 82.856884 109.584 
L 83.268609 110.304 
L 83.864689 111.024 
L 83.935358 111.744 
L 84.181164 112.464 
L 84.310212 113.184 
L 84.771099 113.184 
L 84.823332 113.904 
L 85.041485 114.624 
L 85.14288 115.344 
L 85.668291 115.344 
L 85.689799 116.064 
L 85.923315 116.784 
L 86.230572 117.504 
L 86.427217 118.224 
L 86.433362 118.944 
L 87.223014 119.664 
L 87.388933 120.384 
L 87.438095 121.104 
L 88.240037 121.824 
L 88.353722 122.544 
L 88.381376 123.264 
L 89.05427 123.264 
L 89.137229 123.984 
L 89.398398 124.704 
L 89.462922 125.424 
L 89.469068 126.144 
L 89.576608 126.864 
L 89.668785 127.584 
L 89.751745 128.304 
L 90.074365 129.024 
L 90.409276 129.744 
L 90.633574 130.464 
L 90.781058 131.184 
L 91.109823 131.904 
L 91.650597 132.624 
L 91.687468 133.344 
L 91.896403 134.064 
L 92.160644 134.784 
L 92.369579 135.504 
L 92.781305 136.224 
L 92.888845 136.944 
L 92.956441 137.664 
L 93.595537 138.384 
L 93.733803 139.104 
L 93.838271 139.824 
L 94.090222 140.544 
L 94.508092 141.264 
L 94.551109 141.984 
L 94.717028 142.704 
L 94.824568 143.424 
L 95.061156 144.144 
L 95.718687 145.584 
L 95.743268 147.024 
L 95.887679 147.744 
L 95.949131 148.464 
L 96.025945 149.184 
L 96.302477 149.904 
L 96.477614 150.624 
L 96.523702 151.344 
L 96.652751 152.064 
L 96.996879 152.784 
L 97.623685 153.504 
L 98.302724 154.224 
L 98.382611 154.944 
L 98.785119 155.664 
L 99.086231 155.664 
L 99.110812 156.384 
L 99.839012 157.104 
L 99.869738 157.824 
L 99.928117 158.544 
L 100.127834 159.264 
L 100.195431 159.984 
L 100.247665 160.704 
L 100.634809 161.424 
L 100.859107 161.424 
L 101.151002 162.144 
L 101.495131 162.864 
L 101.645687 163.584 
L 101.734792 164.304 
L 102.509081 165.024 
L 103.264935 165.744 
L 103.492305 166.464 
L 104.125256 167.184 
L 104.232796 167.904 
L 104.266594 168.624 
L 104.801223 169.344 
L 105.10848 170.064 
L 105.188367 170.784 
L 105.421883 171.504 
L 105.538641 172.224 
L 105.719923 172.944 
L 106.343656 173.664 
L 106.386672 174.384 
L 106.405107 175.104 
L 106.481922 175.824 
L 106.71851 176.544 
L 106.767671 176.544 
L 106.924373 177.264 
L 107.081074 177.984 
L 107.489727 178.704 
L 107.836928 179.424 
L 108.073516 180.144 
L 108.448371 180.864 
L 108.623507 181.584 
L 109.029088 182.304 
L 109.053668 183.024 
L 109.124337 183.744 
L 109.142773 184.464 
L 109.201152 185.184 
L 109.388579 185.904 
L 109.569861 186.624 
L 109.858683 187.344 
L 109.895554 188.064 
L 110.172086 188.784 
L 110.190521 188.784 
L 110.387166 189.504 
L 111.318157 190.224 
L 111.44106 190.944 
L 111.969543 191.664 
L 112.058648 192.384 
L 112.175406 193.104 
L 112.23993 193.824 
L 112.243002 194.544 
L 112.633219 195.264 
L 113.127904 195.984 
L 113.475105 196.704 
L 114.187943 197.424 
L 114.59045 197.424 
L 114.885418 198.144 
L 114.977595 198.864 
L 114.999103 199.584 
L 115.290998 200.304 
L 115.49686 201.024 
L 115.610546 201.744 
L 115.767247 202.464 
L 115.862497 203.184 
L 115.90244 203.904 
L 116.169755 204.624 
L 116.225061 205.344 
L 116.60606 206.064 
L 116.670585 206.784 
L 116.80885 207.504 
L 117.073092 208.224 
L 117.245156 208.944 
L 118.51413 209.664 
L 119.054904 209.664 
L 119.352944 210.384 
L 119.758524 211.104 
L 120.213265 211.824 
L 120.403765 212.544 
L 120.993699 213.264 
L 121.63894 213.984 
L 122.43781 214.704 
L 122.588366 215.424 
L 123.006237 216.144 
L 123.276623 216.864 
L 123.454833 217.584 
L 123.543937 218.304 
L 125.224637 219.024 
L 125.707031 219.744 
L 125.768483 220.464 
L 125.829934 221.184 
L 126.091103 221.904 
L 126.392216 222.624 
L 126.579643 223.344 
L 126.591933 224.064 
L 126.87461 224.784 
L 127.117344 225.504 
L 127.329351 226.224 
L 127.400021 226.944 
L 127.934649 227.664 
L 128.26956 228.384 
L 128.352519 229.104 
L 128.884075 229.824 
L 128.914801 230.544 
L 129.252784 231.264 
L 129.919533 231.984 
L 130.248299 232.704 
L 130.331258 233.424 
L 130.472597 234.144 
L 131.010298 234.864 
L 131.428168 235.584 
L 131.7047 236.304 
L 132.90915 237.024 
L 133.677294 237.024 
L 133.686511 237.744 
L 133.751036 238.464 
L 133.775616 239.184 
L 133.987624 239.184 
L 134.715824 239.904 
L 135.167493 240.624 
L 135.185929 241.344 
L 136.212169 242.064 
L 136.313564 242.784 
L 136.937297 243.504 
L 136.961878 244.224 
L 137.447345 244.944 
L 137.588683 245.664 
L 138.307666 246.384 
L 138.952907 247.104 
L 139.035867 247.824 
L 139.066592 248.544 
L 140.055962 249.264 
L 140.347857 249.984 
L 140.397018 250.704 
L 140.682767 251.424 
L 141.629121 252.144 
L 144.280754 252.864 
L 144.677117 253.584 
L 144.769294 254.304 
L 145.43297 255.024 
L 145.439115 255.744 
L 145.565091 256.464 
L 146.505299 257.184 
L 146.917025 257.904 
L 147.119815 258.624 
L 147.700531 259.344 
L 148.010862 260.064 
L 148.161418 260.784 
L 148.351918 261.504 
L 148.619232 262.224 
L 148.932635 262.944 
L 149.040175 263.664 
L 149.399666 264.384 
L 150.57339 265.104 
L 150.628697 265.824 
L 151.516671 266.544 
L 151.541252 267.264 
L 151.728679 267.984 
L 151.802421 268.704 
L 151.830074 268.704 
L 152.592073 269.424 
L 152.604363 270.144 
L 152.690395 270.864 
L 152.920838 271.584 
L 153.443176 272.304 
L 153.587587 272.304 
L 155.30823 273.024 
L 155.406553 273.744 
L 156.156261 273.744 
L 156.282237 273.744 
L 156.736978 273.744 
L 157.465179 274.464 
L 158.233323 275.184 
L 158.829402 275.904 
L 158.857056 276.624 
L 158.915435 277.344 
L 159.379394 278.064 
L 159.990836 278.784 
L 160.003127 279.504 
L 160.338037 280.224 
L 160.479376 280.944 
L 161.407294 281.664 
L 161.662318 282.384 
L 161.898906 283.104 
L 161.978793 283.824 
L 162.289123 284.544 
L 164.350822 285.264 
L 164.458362 285.984 
L 164.876232 286.704 
L 165.370917 287.424 
L 165.573707 288.144 
L 165.699683 288.864 
L 166.191295 288.864 
L 167.192955 289.584 
L 167.346584 290.304 
L 167.80747 291.024 
L 170.766361 291.744 
L 170.975296 292.464 
L 171.93394 292.464 
L 172.385609 293.904 
L 173.24593 294.624 
L 173.374978 295.344 
L 174.699258 295.344 
L 175.206234 296.064 
L 178.500035 296.784 
L 179.504768 297.504 
L 180.478774 298.224 
L 180.912008 298.224 
L 181.477362 298.224 
L 181.778474 298.944 
L 182.654158 299.664 
L 186.224492 300.384 
L 186.593201 301.104 
L 187.597933 301.824 
L 188.550432 302.544 
L 188.630319 302.544 
L 192.120765 303.264 
L 192.784442 303.984 
L 199.679303 303.984 
L 202.831766 303.984 
L 204.318893 303.984 
L 205.013295 304.704 
L 205.637028 304.704 
L 206.666341 305.424 
L 210.353433 305.424 
L 214.608951 306.144 
L 216.69523 306.144 
L 224.425832 306.144 
L 228.899502 306.864 
L 229.855074 306.864 
L 232.205594 306.864 
L 232.863126 306.864 
L 237.791538 306.864 
L 238.538174 306.864 
L 239.472237 306.864 
L 240.20351 306.864 
L 240.418591 306.864 
L 245.946155 306.864 
L 267.368156 306.864 
L 276.899288 306.864 
L 277.695085 307.584 
L 279.283607 307.584 
L 283.778786 307.584 
L 307.419187 307.584 
L 327.781149 307.584 
L 330.678589 307.584 
L 398.487273 307.584 
L 398.487273 306.864 
L 398.487273 306.864 
L 330.678589 306.144 
L 327.781149 305.424 
L 307.419187 304.704 
L 283.778786 303.984 
L 279.283607 303.264 
L 277.695085 302.544 
L 276.899288 301.824 
L 267.368156 301.104 
L 245.946155 300.384 
L 240.418591 299.664 
L 240.20351 298.944 
L 239.472237 298.224 
L 238.538174 297.504 
L 237.791538 296.784 
L 232.863126 296.064 
L 232.205594 295.344 
L 229.855074 294.624 
L 228.899502 293.904 
L 224.425832 293.184 
L 216.69523 292.464 
L 214.608951 291.744 
L 210.353433 291.024 
L 206.666341 290.304 
L 205.637028 289.584 
L 205.013295 288.864 
L 204.318893 288.144 
L 202.831766 287.424 
L 199.679303 286.704 
L 192.784442 285.984 
L 192.120765 285.264 
L 188.630319 284.544 
L 188.550432 283.824 
L 187.597933 283.104 
L 186.593201 282.384 
L 186.224492 281.664 
L 182.654158 280.944 
L 181.778474 280.224 
L 181.477362 279.504 
L 180.912008 278.784 
L 180.478774 278.064 
L 179.504768 277.344 
L 178.500035 276.624 
L 175.206234 275.904 
L 174.699258 275.184 
L 173.374978 274.464 
L 173.24593 273.744 
L 172.385609 273.024 
L 171.93394 271.584 
L 170.975296 270.864 
L 170.766361 270.144 
L 167.80747 269.424 
L 167.346584 268.704 
L 167.192955 267.984 
L 166.191295 267.264 
L 165.699683 266.544 
L 165.573707 265.824 
L 165.370917 265.104 
L 164.876232 264.384 
L 164.458362 263.664 
L 164.350822 262.944 
L 162.289123 262.224 
L 161.978793 261.504 
L 161.898906 260.784 
L 161.662318 260.064 
L 161.407294 259.344 
L 160.479376 258.624 
L 160.338037 257.904 
L 160.003127 257.184 
L 159.990836 256.464 
L 159.379394 255.744 
L 158.915435 255.024 
L 158.857056 254.304 
L 158.829402 253.584 
L 158.233323 252.864 
L 157.465179 252.144 
L 156.736978 251.424 
L 156.282237 250.704 
L 156.156261 249.984 
L 155.406553 249.264 
L 155.30823 248.544 
L 153.587587 247.824 
L 153.443176 247.104 
L 152.920838 246.384 
L 152.690395 245.664 
L 152.604363 244.944 
L 152.592073 244.224 
L 151.830074 243.504 
L 151.802421 242.784 
L 151.728679 242.064 
L 151.541252 241.344 
L 151.516671 240.624 
L 150.628697 239.904 
L 150.57339 239.184 
L 149.399666 238.464 
L 149.040175 237.744 
L 148.932635 237.024 
L 148.619232 236.304 
L 148.351918 235.584 
L 148.161418 234.864 
L 148.010862 234.144 
L 147.700531 233.424 
L 147.119815 232.704 
L 146.917025 231.984 
L 146.505299 231.264 
L 145.565091 230.544 
L 145.439115 229.824 
L 145.43297 229.104 
L 144.769294 228.384 
L 144.677117 227.664 
L 144.280754 226.944 
L 141.629121 226.224 
L 140.682767 225.504 
L 140.397018 224.784 
L 140.347857 224.064 
L 140.055962 223.344 
L 139.066592 222.624 
L 139.035867 221.904 
L 138.952907 221.184 
L 138.307666 220.464 
L 137.588683 219.744 
L 137.447345 219.024 
L 136.961878 218.304 
L 136.937297 217.584 
L 136.313564 216.864 
L 136.212169 216.144 
L 135.185929 215.424 
L 135.167493 214.704 
L 134.715824 213.984 
L 133.987624 213.264 
L 133.775616 212.544 
L 133.751036 211.824 
L 133.686511 211.104 
L 133.677294 210.384 
L 132.90915 209.664 
L 131.7047 208.944 
L 131.428168 208.224 
L 131.010298 207.504 
L 130.472597 206.784 
L 130.331258 206.064 
L 130.248299 205.344 
L 129.919533 204.624 
L 129.252784 203.904 
L 128.914801 203.184 
L 128.884075 202.464 
L 128.352519 201.744 
L 128.26956 201.024 
L 127.934649 200.304 
L 127.400021 199.584 
L 127.329351 198.864 
L 127.117344 198.144 
L 126.87461 197.424 
L 126.591933 196.704 
L 126.579643 195.984 
L 126.392216 195.264 
L 126.091103 194.544 
L 125.829934 193.824 
L 125.768483 193.104 
L 125.707031 192.384 
L 125.224637 191.664 
L 123.543937 190.944 
L 123.454833 190.224 
L 123.276623 189.504 
L 123.006237 188.784 
L 122.588366 188.064 
L 122.43781 187.344 
L 121.63894 186.624 
L 120.993699 185.904 
L 120.403765 185.184 
L 120.213265 184.464 
L 119.758524 183.744 
L 119.352944 183.024 
L 119.054904 182.304 
L 118.51413 181.584 
L 117.245156 180.864 
L 117.073092 180.144 
L 116.80885 179.424 
L 116.670585 178.704 
L 116.60606 177.984 
L 116.225061 177.264 
L 116.169755 176.544 
L 115.90244 175.824 
L 115.862497 175.104 
L 115.767247 174.384 
L 115.610546 173.664 
L 115.49686 172.944 
L 115.290998 172.224 
L 114.999103 171.504 
L 114.977595 170.784 
L 114.885418 170.064 
L 114.59045 169.344 
L 114.187943 168.624 
L 113.475105 167.904 
L 113.127904 167.184 
L 112.633219 166.464 
L 112.243002 165.744 
L 112.23993 165.024 
L 112.175406 164.304 
L 112.058648 163.584 
L 111.969543 162.864 
L 111.44106 162.144 
L 111.318157 161.424 
L 110.387166 160.704 
L 110.190521 159.984 
L 110.172086 159.264 
L 109.895554 158.544 
L 109.858683 157.824 
L 109.569861 157.104 
L 109.388579 156.384 
L 109.201152 155.664 
L 109.142773 154.944 
L 109.124337 154.224 
L 109.053668 153.504 
L 109.029088 152.784 
L 108.623507 152.064 
L 108.448371 151.344 
L 108.073516 150.624 
L 107.836928 149.904 
L 107.489727 149.184 
L 107.081074 148.464 
L 106.924373 147.744 
L 106.767671 147.024 
L 106.71851 146.304 
L 106.481922 145.584 
L 106.405107 144.864 
L 106.386672 144.144 
L 106.343656 143.424 
L 105.719923 142.704 
L 105.538641 141.984 
L 105.421883 141.264 
L 105.188367 140.544 
L 105.10848 139.824 
L 104.801223 139.104 
L 104.266594 138.384 
L 104.232796 137.664 
L 104.125256 136.944 
L 103.492305 136.224 
L 103.264935 135.504 
L 102.509081 134.784 
L 101.734792 134.064 
L 101.645687 133.344 
L 101.495131 132.624 
L 101.151002 131.904 
L 100.859107 131.184 
L 100.634809 131.184 
L 100.247665 130.464 
L 100.195431 129.744 
L 100.127834 129.024 
L 99.928117 128.304 
L 99.869738 127.584 
L 99.839012 126.864 
L 99.110812 126.144 
L 99.086231 125.424 
L 98.785119 125.424 
L 98.382611 124.704 
L 98.302724 123.984 
L 97.623685 123.264 
L 96.996879 122.544 
L 96.652751 121.824 
L 96.523702 121.104 
L 96.477614 120.384 
L 96.302477 119.664 
L 96.025945 118.944 
L 95.949131 118.224 
L 95.887679 117.504 
L 95.743268 116.784 
L 95.718687 115.344 
L 95.061156 113.904 
L 94.824568 113.184 
L 94.717028 112.464 
L 94.551109 111.744 
L 94.508092 111.024 
L 94.090222 110.304 
L 93.838271 109.584 
L 93.733803 108.864 
L 93.595537 108.144 
L 92.956441 107.424 
L 92.888845 106.704 
L 92.781305 105.984 
L 92.369579 105.264 
L 92.160644 104.544 
L 91.896403 103.824 
L 91.687468 103.104 
L 91.650597 102.384 
L 91.109823 101.664 
L 90.781058 100.944 
L 90.633574 100.224 
L 90.409276 99.504 
L 90.074365 98.784 
L 89.751745 98.064 
L 89.668785 97.344 
L 89.576608 96.624 
L 89.469068 95.904 
L 89.462922 95.184 
L 89.398398 94.464 
L 89.137229 93.744 
L 89.05427 93.024 
L 88.381376 92.304 
L 88.353722 91.584 
L 88.240037 90.864 
L 87.438095 90.144 
L 87.388933 89.424 
L 87.223014 88.704 
L 86.433362 87.984 
L 86.427217 87.264 
L 86.230572 86.544 
L 85.923315 85.824 
L 85.689799 85.104 
L 85.668291 84.384 
L 85.14288 83.664 
L 85.041485 82.944 
L 84.823332 82.224 
L 84.771099 81.504 
L 84.310212 81.504 
L 84.181164 80.784 
L 83.935358 80.064 
L 83.864689 79.344 
L 83.268609 78.624 
L 82.856884 77.904 
L 82.832303 77.184 
L 82.767779 76.464 
L 82.11332 75.744 
L 81.759974 75.024 
L 81.480369 74.304 
L 81.437353 73.584 
L 81.305233 72.864 
L 81.268362 72.144 
L 80.951886 71.424 
L 80.844346 70.704 
L 80.343516 69.984 
L 80.229831 69.264 
L 80.014751 68.544 
L 79.79967 67.824 
L 79.437106 67.104 
L 78.98851 66.384 
L 78.871752 65.664 
L 78.373995 64.944 
L 78.125116 64.224 
L 77.602778 63.504 
L 77.123456 62.784 
L 77.034352 62.064 
L 75.544152 61.344 
L 75.498064 60.624 
L 75.279911 59.904 
L 74.689976 59.184 
L 74.296686 59.184 
L 73.94334 58.464 
L 73.909542 57.744 
L 73.832727 57.024 
z
" clip-path="url(#pfd33e88f0b)" style="fill: #7cfc00"/>
   </g>
   <g id="PolyCollection_3">
    <path d="M 73.832727 54.144 
L 73.832727 57.024 
L 73.909542 57.744 
L 73.94334 58.464 
L 74.296686 59.184 
L 74.689976 59.184 
L 75.279911 59.904 
L 75.498064 60.624 
L 75.544152 61.344 
L 77.034352 62.064 
L 77.123456 62.784 
L 77.602778 63.504 
L 78.125116 64.224 
L 78.373995 64.944 
L 78.871752 65.664 
L 78.98851 66.384 
L 79.437106 67.104 
L 79.79967 67.824 
L 80.014751 68.544 
L 80.229831 69.264 
L 80.343516 69.984 
L 80.844346 70.704 
L 80.951886 71.424 
L 81.268362 72.144 
L 81.305233 72.864 
L 81.437353 73.584 
L 81.480369 74.304 
L 81.759974 75.024 
L 82.11332 75.744 
L 82.767779 76.464 
L 82.832303 77.184 
L 82.856884 77.904 
L 83.268609 78.624 
L 83.864689 79.344 
L 83.935358 80.064 
L 84.181164 80.784 
L 84.310212 81.504 
L 84.771099 81.504 
L 84.823332 82.224 
L 85.041485 82.944 
L 85.14288 83.664 
L 85.668291 84.384 
L 85.689799 85.104 
L 85.923315 85.824 
L 86.230572 86.544 
L 86.427217 87.264 
L 86.433362 87.984 
L 87.223014 88.704 
L 87.388933 89.424 
L 87.438095 90.144 
L 88.240037 90.864 
L 88.353722 91.584 
L 88.381376 92.304 
L 89.05427 93.024 
L 89.137229 93.744 
L 89.398398 94.464 
L 89.462922 95.184 
L 89.469068 95.904 
L 89.576608 96.624 
L 89.668785 97.344 
L 89.751745 98.064 
L 90.074365 98.784 
L 90.409276 99.504 
L 90.633574 100.224 
L 90.781058 100.944 
L 91.109823 101.664 
L 91.650597 102.384 
L 91.687468 103.104 
L 91.896403 103.824 
L 92.160644 104.544 
L 92.369579 105.264 
L 92.781305 105.984 
L 92.888845 106.704 
L 92.956441 107.424 
L 93.595537 108.144 
L 93.733803 108.864 
L 93.838271 109.584 
L 94.090222 110.304 
L 94.508092 111.024 
L 94.551109 111.744 
L 94.717028 112.464 
L 94.824568 113.184 
L 95.061156 113.904 
L 95.718687 115.344 
L 95.743268 116.784 
L 95.887679 117.504 
L 95.949131 118.224 
L 96.025945 118.944 
L 96.302477 119.664 
L 96.477614 120.384 
L 96.523702 121.104 
L 96.652751 121.824 
L 96.996879 122.544 
L 97.623685 123.264 
L 98.302724 123.984 
L 98.382611 124.704 
L 98.785119 125.424 
L 99.086231 125.424 
L 99.110812 126.144 
L 99.839012 126.864 
L 99.869738 127.584 
L 99.928117 128.304 
L 100.127834 129.024 
L 100.195431 129.744 
L 100.247665 130.464 
L 100.634809 131.184 
L 100.859107 131.184 
L 101.151002 131.904 
L 101.495131 132.624 
L 101.645687 133.344 
L 101.734792 134.064 
L 102.509081 134.784 
L 103.264935 135.504 
L 103.492305 136.224 
L 104.125256 136.944 
L 104.232796 137.664 
L 104.266594 138.384 
L 104.801223 139.104 
L 105.10848 139.824 
L 105.188367 140.544 
L 105.421883 141.264 
L 105.538641 141.984 
L 105.719923 142.704 
L 106.343656 143.424 
L 106.386672 144.144 
L 106.405107 144.864 
L 106.481922 145.584 
L 106.71851 146.304 
L 106.767671 147.024 
L 106.924373 147.744 
L 107.081074 148.464 
L 107.489727 149.184 
L 107.836928 149.904 
L 108.073516 150.624 
L 108.448371 151.344 
L 108.623507 152.064 
L 109.029088 152.784 
L 109.053668 153.504 
L 109.124337 154.224 
L 109.142773 154.944 
L 109.201152 155.664 
L 109.388579 156.384 
L 109.569861 157.104 
L 109.858683 157.824 
L 109.895554 158.544 
L 110.172086 159.264 
L 110.190521 159.984 
L 110.387166 160.704 
L 111.318157 161.424 
L 111.44106 162.144 
L 111.969543 162.864 
L 112.058648 163.584 
L 112.175406 164.304 
L 112.23993 165.024 
L 112.243002 165.744 
L 112.633219 166.464 
L 113.127904 167.184 
L 113.475105 167.904 
L 114.187943 168.624 
L 114.59045 169.344 
L 114.885418 170.064 
L 114.977595 170.784 
L 114.999103 171.504 
L 115.290998 172.224 
L 115.49686 172.944 
L 115.610546 173.664 
L 115.767247 174.384 
L 115.862497 175.104 
L 115.90244 175.824 
L 116.169755 176.544 
L 116.225061 177.264 
L 116.60606 177.984 
L 116.670585 178.704 
L 116.80885 179.424 
L 117.073092 180.144 
L 117.245156 180.864 
L 118.51413 181.584 
L 119.054904 182.304 
L 119.352944 183.024 
L 119.758524 183.744 
L 120.213265 184.464 
L 120.403765 185.184 
L 120.993699 185.904 
L 121.63894 186.624 
L 122.43781 187.344 
L 122.588366 188.064 
L 123.006237 188.784 
L 123.276623 189.504 
L 123.454833 190.224 
L 123.543937 190.944 
L 125.224637 191.664 
L 125.707031 192.384 
L 125.768483 193.104 
L 125.829934 193.824 
L 126.091103 194.544 
L 126.392216 195.264 
L 126.579643 195.984 
L 126.591933 196.704 
L 126.87461 197.424 
L 127.117344 198.144 
L 127.329351 198.864 
L 127.400021 199.584 
L 127.934649 200.304 
L 128.26956 201.024 
L 128.352519 201.744 
L 128.884075 202.464 
L 128.914801 203.184 
L 129.252784 203.904 
L 129.919533 204.624 
L 130.248299 205.344 
L 130.331258 206.064 
L 130.472597 206.784 
L 131.010298 207.504 
L 131.428168 208.224 
L 131.7047 208.944 
L 132.90915 209.664 
L 133.677294 210.384 
L 133.686511 211.104 
L 133.751036 211.824 
L 133.775616 212.544 
L 133.987624 213.264 
L 134.715824 213.984 
L 135.167493 214.704 
L 135.185929 215.424 
L 136.212169 216.144 
L 136.313564 216.864 
L 136.937297 217.584 
L 136.961878 218.304 
L 137.447345 219.024 
L 137.588683 219.744 
L 138.307666 220.464 
L 138.952907 221.184 
L 139.035867 221.904 
L 139.066592 222.624 
L 140.055962 223.344 
L 140.347857 224.064 
L 140.397018 224.784 
L 140.682767 225.504 
L 141.629121 226.224 
L 144.280754 226.944 
L 144.677117 227.664 
L 144.769294 228.384 
L 145.43297 229.104 
L 145.439115 229.824 
L 145.565091 230.544 
L 146.505299 231.264 
L 146.917025 231.984 
L 147.119815 232.704 
L 147.700531 233.424 
L 148.010862 234.144 
L 148.161418 234.864 
L 148.351918 235.584 
L 148.619232 236.304 
L 148.932635 237.024 
L 149.040175 237.744 
L 149.399666 238.464 
L 150.57339 239.184 
L 150.628697 239.904 
L 151.516671 240.624 
L 151.541252 241.344 
L 151.728679 242.064 
L 151.802421 242.784 
L 151.830074 243.504 
L 152.592073 244.224 
L 152.604363 244.944 
L 152.690395 245.664 
L 152.920838 246.384 
L 153.443176 247.104 
L 153.587587 247.824 
L 155.30823 248.544 
L 155.406553 249.264 
L 156.156261 249.984 
L 156.282237 250.704 
L 156.736978 251.424 
L 157.465179 252.144 
L 158.233323 252.864 
L 158.829402 253.584 
L 158.857056 254.304 
L 158.915435 255.024 
L 159.379394 255.744 
L 159.990836 256.464 
L 160.003127 257.184 
L 160.338037 257.904 
L 160.479376 258.624 
L 161.407294 259.344 
L 161.662318 260.064 
L 161.898906 260.784 
L 161.978793 261.504 
L 162.289123 262.224 
L 164.350822 262.944 
L 164.458362 263.664 
L 164.876232 264.384 
L 165.370917 265.104 
L 165.573707 265.824 
L 165.699683 266.544 
L 166.191295 267.264 
L 167.192955 267.984 
L 167.346584 268.704 
L 167.80747 269.424 
L 170.766361 270.144 
L 170.975296 270.864 
L 171.93394 271.584 
L 172.385609 273.024 
L 173.24593 273.744 
L 173.374978 274.464 
L 174.699258 275.184 
L 175.206234 275.904 
L 178.500035 276.624 
L 179.504768 277.344 
L 180.478774 278.064 
L 180.912008 278.784 
L 181.477362 279.504 
L 181.778474 280.224 
L 182.654158 280.944 
L 186.224492 281.664 
L 186.593201 282.384 
L 187.597933 283.104 
L 188.550432 283.824 
L 188.630319 284.544 
L 192.120765 285.264 
L 192.784442 285.984 
L 199.679303 286.704 
L 202.831766 287.424 
L 204.318893 288.144 
L 205.013295 288.864 
L 205.637028 289.584 
L 206.666341 290.304 
L 210.353433 291.024 
L 214.608951 291.744 
L 216.69523 292.464 
L 224.425832 293.184 
L 228.899502 293.904 
L 229.855074 294.624 
L 232.205594 295.344 
L 232.863126 296.064 
L 237.791538 296.784 
L 238.538174 297.504 
L 239.472237 298.224 
L 240.20351 298.944 
L 240.418591 299.664 
L 245.946155 300.384 
L 267.368156 301.104 
L 276.899288 301.824 
L 277.695085 302.544 
L 279.283607 303.264 
L 283.778786 303.984 
L 307.419187 304.704 
L 327.781149 305.424 
L 330.678589 306.144 
L 398.487273 306.864 
L 398.487273 306.864 
L 398.487273 306.864 
L 330.678589 306.144 
L 327.781149 305.424 
L 307.419187 304.704 
L 283.778786 303.984 
L 279.283607 303.264 
L 277.695085 302.544 
L 276.899288 301.824 
L 267.368156 301.104 
L 245.946155 300.384 
L 240.418591 299.664 
L 240.20351 298.944 
L 239.472237 298.224 
L 238.538174 297.504 
L 237.791538 296.784 
L 232.863126 296.064 
L 232.205594 295.344 
L 229.855074 294.624 
L 228.899502 293.904 
L 224.425832 293.184 
L 216.69523 292.464 
L 214.608951 291.744 
L 210.353433 291.024 
L 206.666341 290.304 
L 205.637028 289.584 
L 205.013295 288.864 
L 204.318893 288.144 
L 202.831766 287.424 
L 199.679303 286.704 
L 192.784442 285.984 
L 192.120765 285.264 
L 188.630319 284.544 
L 188.550432 283.824 
L 187.597933 283.104 
L 186.593201 282.384 
L 186.224492 281.664 
L 182.654158 280.944 
L 181.778474 280.224 
L 181.477362 279.504 
L 180.912008 278.784 
L 180.478774 278.064 
L 179.504768 277.344 
L 178.500035 276.624 
L 175.206234 275.904 
L 174.699258 275.184 
L 173.374978 274.464 
L 173.24593 273.744 
L 172.385609 273.024 
L 171.93394 271.584 
L 170.975296 270.864 
L 170.766361 270.144 
L 167.80747 269.424 
L 167.346584 268.704 
L 167.192955 267.984 
L 166.191295 267.264 
L 165.699683 266.544 
L 165.573707 265.824 
L 165.370917 265.104 
L 164.876232 264.384 
L 164.458362 263.664 
L 164.350822 262.944 
L 162.289123 262.224 
L 161.978793 261.504 
L 161.898906 260.784 
L 161.662318 260.064 
L 161.407294 259.344 
L 160.479376 258.624 
L 160.338037 257.904 
L 160.003127 257.184 
L 159.990836 256.464 
L 159.379394 255.744 
L 158.915435 255.024 
L 158.857056 254.304 
L 158.829402 253.584 
L 158.233323 252.864 
L 157.465179 252.144 
L 156.736978 251.424 
L 156.282237 250.704 
L 156.156261 249.984 
L 155.406553 249.264 
L 155.30823 248.544 
L 153.587587 247.824 
L 153.443176 247.104 
L 152.920838 246.384 
L 152.690395 245.664 
L 152.604363 244.944 
L 152.592073 244.224 
L 151.830074 243.504 
L 151.802421 242.784 
L 151.728679 242.064 
L 151.541252 241.344 
L 151.516671 240.624 
L 150.628697 239.904 
L 150.57339 239.184 
L 149.399666 238.464 
L 149.040175 237.744 
L 148.932635 237.024 
L 148.619232 236.304 
L 148.351918 235.584 
L 148.161418 234.864 
L 148.010862 234.144 
L 147.700531 233.424 
L 147.119815 232.704 
L 146.917025 231.984 
L 146.505299 231.264 
L 145.565091 230.544 
L 145.439115 229.824 
L 145.43297 229.104 
L 144.769294 228.384 
L 144.677117 227.664 
L 144.280754 226.944 
L 141.629121 226.224 
L 140.682767 225.504 
L 140.397018 224.784 
L 140.347857 224.064 
L 140.055962 223.344 
L 139.066592 222.624 
L 139.035867 221.904 
L 138.952907 221.184 
L 138.307666 220.464 
L 137.588683 219.744 
L 137.447345 219.024 
L 136.961878 218.304 
L 136.937297 217.584 
L 136.313564 216.864 
L 136.212169 216.144 
L 135.185929 215.424 
L 135.167493 214.704 
L 134.715824 213.984 
L 133.987624 213.264 
L 133.775616 212.544 
L 133.751036 211.824 
L 133.686511 211.104 
L 133.677294 210.384 
L 132.90915 209.664 
L 131.7047 208.944 
L 131.428168 208.224 
L 131.010298 207.504 
L 130.472597 206.784 
L 130.331258 206.064 
L 130.248299 205.344 
L 129.919533 204.624 
L 129.252784 203.904 
L 128.914801 203.184 
L 128.884075 202.464 
L 128.352519 201.744 
L 128.26956 201.024 
L 127.934649 200.304 
L 127.400021 199.584 
L 127.329351 198.864 
L 127.117344 198.144 
L 126.87461 197.424 
L 126.591933 196.704 
L 126.579643 195.984 
L 126.392216 195.264 
L 126.091103 194.544 
L 125.829934 193.824 
L 125.768483 193.104 
L 125.707031 192.384 
L 125.224637 191.664 
L 123.543937 190.944 
L 123.454833 190.224 
L 123.276623 189.504 
L 123.006237 188.784 
L 122.588366 188.064 
L 122.43781 187.344 
L 121.63894 186.624 
L 120.993699 185.904 
L 120.403765 185.184 
L 120.213265 184.464 
L 119.758524 183.744 
L 119.352944 183.024 
L 119.054904 182.304 
L 118.51413 181.584 
L 117.245156 180.864 
L 117.073092 180.144 
L 116.80885 179.424 
L 116.670585 178.704 
L 116.60606 177.984 
L 116.225061 177.264 
L 116.169755 176.544 
L 115.90244 175.824 
L 115.862497 175.104 
L 115.767247 174.384 
L 115.610546 173.664 
L 115.49686 172.944 
L 115.290998 172.224 
L 114.999103 171.504 
L 114.977595 170.784 
L 114.885418 170.064 
L 114.59045 169.344 
L 114.187943 168.624 
L 113.475105 167.904 
L 113.127904 167.184 
L 112.633219 166.464 
L 112.243002 165.744 
L 112.23993 165.024 
L 112.175406 164.304 
L 112.058648 163.584 
L 111.969543 162.864 
L 111.44106 162.144 
L 111.318157 161.424 
L 110.387166 160.704 
L 110.190521 159.984 
L 110.172086 159.264 
L 109.895554 158.544 
L 109.858683 157.824 
L 109.569861 157.104 
L 109.388579 156.384 
L 109.201152 155.664 
L 109.142773 154.944 
L 109.124337 154.224 
L 109.053668 153.504 
L 109.029088 152.784 
L 108.623507 152.064 
L 108.448371 151.344 
L 108.073516 150.624 
L 107.836928 149.904 
L 107.489727 149.184 
L 107.081074 148.464 
L 106.924373 147.744 
L 106.767671 147.024 
L 106.71851 146.304 
L 106.481922 145.584 
L 106.405107 144.864 
L 106.386672 144.144 
L 106.343656 143.424 
L 105.719923 142.704 
L 105.538641 141.984 
L 105.421883 141.264 
L 105.188367 140.544 
L 105.10848 139.824 
L 104.801223 139.104 
L 104.266594 138.384 
L 104.232796 137.664 
L 104.125256 136.944 
L 103.492305 136.224 
L 103.264935 135.504 
L 102.509081 134.784 
L 101.734792 134.064 
L 101.645687 133.344 
L 101.495131 132.624 
L 101.151002 131.904 
L 100.859107 131.184 
L 100.634809 130.464 
L 100.247665 129.744 
L 100.195431 129.024 
L 100.127834 128.304 
L 99.928117 127.584 
L 99.869738 126.864 
L 99.839012 126.144 
L 99.110812 125.424 
L 99.086231 124.704 
L 98.785119 123.984 
L 98.382611 123.264 
L 98.302724 122.544 
L 97.623685 121.824 
L 96.996879 121.104 
L 96.652751 120.384 
L 96.523702 119.664 
L 96.477614 118.944 
L 96.302477 118.224 
L 96.025945 117.504 
L 95.949131 116.784 
L 95.887679 116.064 
L 95.743268 115.344 
L 95.718687 113.904 
L 95.061156 112.464 
L 94.824568 111.744 
L 94.717028 111.024 
L 94.551109 110.304 
L 94.508092 109.584 
L 94.090222 108.864 
L 93.838271 108.144 
L 93.733803 107.424 
L 93.595537 106.704 
L 92.956441 105.984 
L 92.888845 105.264 
L 92.781305 104.544 
L 92.369579 103.824 
L 92.160644 103.104 
L 91.896403 102.384 
L 91.687468 101.664 
L 91.650597 100.944 
L 91.109823 100.224 
L 90.781058 99.504 
L 90.633574 98.784 
L 90.409276 98.064 
L 90.074365 97.344 
L 89.751745 96.624 
L 89.668785 95.904 
L 89.576608 95.184 
L 89.469068 94.464 
L 89.462922 93.744 
L 89.398398 93.024 
L 89.137229 92.304 
L 89.05427 91.584 
L 88.381376 90.864 
L 88.353722 90.144 
L 88.240037 89.424 
L 87.438095 88.704 
L 87.388933 87.984 
L 87.223014 87.264 
L 86.433362 86.544 
L 86.427217 85.824 
L 86.230572 85.104 
L 85.923315 84.384 
L 85.689799 83.664 
L 85.668291 82.944 
L 85.14288 82.224 
L 85.041485 81.504 
L 84.823332 80.784 
L 84.771099 80.064 
L 84.310212 79.344 
L 84.181164 78.624 
L 83.935358 77.904 
L 83.864689 77.184 
L 83.268609 76.464 
L 82.856884 75.744 
L 82.832303 75.024 
L 82.767779 74.304 
L 82.11332 73.584 
L 81.759974 72.864 
L 81.480369 72.144 
L 81.437353 71.424 
L 81.305233 70.704 
L 81.268362 69.984 
L 80.951886 69.264 
L 80.844346 68.544 
L 80.343516 67.824 
L 80.229831 67.104 
L 80.014751 66.384 
L 79.79967 65.664 
L 79.437106 64.944 
L 78.98851 64.224 
L 78.871752 63.504 
L 78.373995 62.784 
L 78.125116 62.064 
L 77.602778 61.344 
L 77.123456 60.624 
L 77.034352 59.904 
L 75.544152 59.184 
L 75.498064 58.464 
L 75.279911 57.744 
L 74.689976 57.024 
L 74.296686 56.304 
L 73.94334 55.584 
L 73.909542 54.864 
L 73.832727 54.144 
z
" clip-path="url(#pfd33e88f0b)" style="fill: #ff0000"/>
   </g>
   <g id="matplotlib.axis_1">
    <g id="xtick_1">
     <g id="line2d_1">
      <defs>
       <path id="mcd94500a5d" d="M 0 0 
L 0 3.5 
" style="stroke: #000000; stroke-width: 0.8"/>
      </defs>
      <g>
       <use xlink:href="#mcd94500a5d" x="106.709293" y="307.584" style="stroke: #000000; stroke-width: 0.8"/>
      </g>
     </g>
     <g id="text_1">
      <!-- 200 -->
      <g transform="translate(97.165543 322.182437)scale(0.1 -0.1)">
       <defs>
        <path id="DejaVuSans-32" d="M 1228 531 
L 3431 531 
L 3431 0 
L 469 0 
L 469 531 
Q 828 903 1448 1529 
Q 2069 2156 2228 2338 
Q 2531 2678 2651 2914 
Q 2772 3150 2772 3378 
Q 2772 3750 2511 3984 
Q 2250 4219 1831 4219 
Q 1534 4219 1204 4116 
Q 875 4013 500 3803 
L 500 4441 
Q 881 4594 1212 4672 
Q 1544 4750 1819 4750 
Q 2544 4750 2975 4387 
Q 3406 4025 3406 3419 
Q 3406 3131 3298 2873 
Q 3191 2616 2906 2266 
Q 2828 2175 2409 1742 
Q 1991 1309 1228 531 
z
" transform="scale(0.015625)"/>
        <path id="DejaVuSans-30" d="M 2034 4250 
Q 1547 4250 1301 3770 
Q 1056 3291 1056 2328 
Q 1056 1369 1301 889 
Q 1547 409 2034 409 
Q 2525 409 2770 889 
Q 3016 1369 3016 2328 
Q 3016 3291 2770 3770 
Q 2525 4250 2034 4250 
z
M 2034 4750 
Q 2819 4750 3233 4129 
Q 3647 3509 3647 2328 
Q 3647 1150 3233 529 
Q 2819 -91 2034 -91 
Q 1250 -91 836 529 
Q 422 1150 422 2328 
Q 422 3509 836 4129 
Q 1250 4750 2034 4750 
z
" transform="scale(0.015625)"/>
       </defs>
       <use xlink:href="#DejaVuSans-32"/>
       <use xlink:href="#DejaVuSans-30" x="63.623047"/>
       <use xlink:href="#DejaVuSans-30" x="127.246094"/>
      </g>
     </g>
    </g>
    <g id="xtick_2">
     <g id="line2d_2">
      <g>
       <use xlink:href="#mcd94500a5d" x="168.160816" y="307.584" style="stroke: #000000; stroke-width: 0.8"/>
      </g>
     </g>
     <g id="text_2">
      <!-- 400 -->
      <g transform="translate(158.617066 322.182437)scale(0.1 -0.1)">
       <defs>
        <path id="DejaVuSans-34" d="M 2419 4116 
L 825 1625 
L 2419 1625 
L 2419 4116 
z
M 2253 4666 
L 3047 4666 
L 3047 1625 
L 3713 1625 
L 3713 1100 
L 3047 1100 
L 3047 0 
L 2419 0 
L 2419 1100 
L 313 1100 
L 313 1709 
L 2253 4666 
z
" transform="scale(0.015625)"/>
       </defs>
       <use xlink:href="#DejaVuSans-34"/>
       <use xlink:href="#DejaVuSans-30" x="63.623047"/>
       <use xlink:href="#DejaVuSans-30" x="127.246094"/>
      </g>
     </g>
    </g>
    <g id="xtick_3">
     <g id="line2d_3">
      <g>
       <use xlink:href="#mcd94500a5d" x="229.61234" y="307.584" style="stroke: #000000; stroke-width: 0.8"/>
      </g>
     </g>
     <g id="text_3">
      <!-- 600 -->
      <g transform="translate(220.06859 322.182437)scale(0.1 -0.1)">
       <defs>
        <path id="DejaVuSans-36" d="M 2113 2584 
Q 1688 2584 1439 2293 
Q 1191 2003 1191 1497 
Q 1191 994 1439 701 
Q 1688 409 2113 409 
Q 2538 409 2786 701 
Q 3034 994 3034 1497 
Q 3034 2003 2786 2293 
Q 2538 2584 2113 2584 
z
M 3366 4563 
L 3366 3988 
Q 3128 4100 2886 4159 
Q 2644 4219 2406 4219 
Q 1781 4219 1451 3797 
Q 1122 3375 1075 2522 
Q 1259 2794 1537 2939 
Q 1816 3084 2150 3084 
Q 2853 3084 3261 2657 
Q 3669 2231 3669 1497 
Q 3669 778 3244 343 
Q 2819 -91 2113 -91 
Q 1303 -91 875 529 
Q 447 1150 447 2328 
Q 447 3434 972 4092 
Q 1497 4750 2381 4750 
Q 2619 4750 2861 4703 
Q 3103 4656 3366 4563 
z
" transform="scale(0.015625)"/>
       </defs>
       <use xlink:href="#DejaVuSans-36"/>
       <use xlink:href="#DejaVuSans-30" x="63.623047"/>
       <use xlink:href="#DejaVuSans-30" x="127.246094"/>
      </g>
     </g>
    </g>
    <g id="xtick_4">
     <g id="line2d_4">
      <g>
       <use xlink:href="#mcd94500a5d" x="291.063864" y="307.584" style="stroke: #000000; stroke-width: 0.8"/>
      </g>
     </g>
     <g id="text_4">
      <!-- 800 -->
      <g transform="translate(281.520114 322.182437)scale(0.1 -0.1)">
       <defs>
        <path id="DejaVuSans-38" d="M 2034 2216 
Q 1584 2216 1326 1975 
Q 1069 1734 1069 1313 
Q 1069 891 1326 650 
Q 1584 409 2034 409 
Q 2484 409 2743 651 
Q 3003 894 3003 1313 
Q 3003 1734 2745 1975 
Q 2488 2216 2034 2216 
z
M 1403 2484 
Q 997 2584 770 2862 
Q 544 3141 544 3541 
Q 544 4100 942 4425 
Q 1341 4750 2034 4750 
Q 2731 4750 3128 4425 
Q 3525 4100 3525 3541 
Q 3525 3141 3298 2862 
Q 3072 2584 2669 2484 
Q 3125 2378 3379 2068 
Q 3634 1759 3634 1313 
Q 3634 634 3220 271 
Q 2806 -91 2034 -91 
Q 1263 -91 848 271 
Q 434 634 434 1313 
Q 434 1759 690 2068 
Q 947 2378 1403 2484 
z
M 1172 3481 
Q 1172 3119 1398 2916 
Q 1625 2713 2034 2713 
Q 2441 2713 2670 2916 
Q 2900 3119 2900 3481 
Q 2900 3844 2670 4047 
Q 2441 4250 2034 4250 
Q 1625 4250 1398 4047 
Q 1172 3844 1172 3481 
z
" transform="scale(0.015625)"/>
       </defs>
       <use xlink:href="#DejaVuSans-38"/>
       <use xlink:href="#DejaVuSans-30" x="63.623047"/>
       <use xlink:href="#DejaVuSans-30" x="127.246094"/>
      </g>
     </g>
    </g>
    <g id="xtick_5">
     <g id="line2d_5">
      <g>
       <use xlink:href="#mcd94500a5d" x="352.515388" y="307.584" style="stroke: #000000; stroke-width: 0.8"/>
      </g>
     </g>
     <g id="text_5">
      <!-- 1000 -->
      <g transform="translate(339.790388 322.182437)scale(0.1 -0.1)">
       <defs>
        <path id="DejaVuSans-31" d="M 794 531 
L 1825 531 
L 1825 4091 
L 703 3866 
L 703 4441 
L 1819 4666 
L 2450 4666 
L 2450 531 
L 3481 531 
L 3481 0 
L 794 0 
L 794 531 
z
" transform="scale(0.015625)"/>
       </defs>
       <use xlink:href="#DejaVuSans-31"/>
       <use xlink:href="#DejaVuSans-30" x="63.623047"/>
       <use xlink:href="#DejaVuSans-30" x="127.246094"/>
       <use xlink:href="#DejaVuSans-30" x="190.869141"/>
      </g>
     </g>
    </g>
    <g id="xtick_6">
     <g id="line2d_6">
      <g>
       <use xlink:href="#mcd94500a5d" x="413.966912" y="307.584" style="stroke: #000000; stroke-width: 0.8"/>
      </g>
     </g>
     <g id="text_6">
      <!-- 1200 -->
      <g transform="translate(401.241912 322.182437)scale(0.1 -0.1)">
       <use xlink:href="#DejaVuSans-31"/>
       <use xlink:href="#DejaVuSans-32" x="63.623047"/>
       <use xlink:href="#DejaVuSans-30" x="127.246094"/>
       <use xlink:href="#DejaVuSans-30" x="190.869141"/>
      </g>
     </g>
    </g>
    <g id="text_7">
     <!-- Score -->
     <g transform="translate(222.157656 335.860562)scale(0.1 -0.1)">
      <defs>
       <path id="DejaVuSans-53" d="M 3425 4513 
L 3425 3897 
Q 3066 4069 2747 4153 
Q 2428 4238 2131 4238 
Q 1616 4238 1336 4038 
Q 1056 3838 1056 3469 
Q 1056 3159 1242 3001 
Q 1428 2844 1947 2747 
L 2328 2669 
Q 3034 2534 3370 2195 
Q 3706 1856 3706 1288 
Q 3706 609 3251 259 
Q 2797 -91 1919 -91 
Q 1588 -91 1214 -16 
Q 841 59 441 206 
L 441 856 
Q 825 641 1194 531 
Q 1563 422 1919 422 
Q 2459 422 2753 634 
Q 3047 847 3047 1241 
Q 3047 1584 2836 1778 
Q 2625 1972 2144 2069 
L 1759 2144 
Q 1053 2284 737 2584 
Q 422 2884 422 3419 
Q 422 4038 858 4394 
Q 1294 4750 2059 4750 
Q 2388 4750 2728 4690 
Q 3069 4631 3425 4513 
z
" transform="scale(0.015625)"/>
       <path id="DejaVuSans-63" d="M 3122 3366 
L 3122 2828 
Q 2878 2963 2633 3030 
Q 2388 3097 2138 3097 
Q 1578 3097 1268 2742 
Q 959 2388 959 1747 
Q 959 1106 1268 751 
Q 1578 397 2138 397 
Q 2388 397 2633 464 
Q 2878 531 3122 666 
L 3122 134 
Q 2881 22 2623 -34 
Q 2366 -91 2075 -91 
Q 1284 -91 818 406 
Q 353 903 353 1747 
Q 353 2603 823 3093 
Q 1294 3584 2113 3584 
Q 2378 3584 2631 3529 
Q 2884 3475 3122 3366 
z
" transform="scale(0.015625)"/>
       <path id="DejaVuSans-6f" d="M 1959 3097 
Q 1497 3097 1228 2736 
Q 959 2375 959 1747 
Q 959 1119 1226 758 
Q 1494 397 1959 397 
Q 2419 397 2687 759 
Q 2956 1122 2956 1747 
Q 2956 2369 2687 2733 
Q 2419 3097 1959 3097 
z
M 1959 3584 
Q 2709 3584 3137 3096 
Q 3566 2609 3566 1747 
Q 3566 888 3137 398 
Q 2709 -91 1959 -91 
Q 1206 -91 779 398 
Q 353 888 353 1747 
Q 353 2609 779 3096 
Q 1206 3584 1959 3584 
z
" transform="scale(0.015625)"/>
       <path id="DejaVuSans-72" d="M 2631 2963 
Q 2534 3019 2420 3045 
Q 2306 3072 2169 3072 
Q 1681 3072 1420 2755 
Q 1159 2438 1159 1844 
L 1159 0 
L 581 0 
L 581 3500 
L 1159 3500 
L 1159 2956 
Q 1341 3275 1631 3429 
Q 1922 3584 2338 3584 
Q 2397 3584 2469 3576 
Q 2541 3569 2628 3553 
L 2631 2963 
z
" transform="scale(0.015625)"/>
       <path id="DejaVuSans-65" d="M 3597 1894 
L 3597 1613 
L 953 1613 
Q 991 1019 1311 708 
Q 1631 397 2203 397 
Q 2534 397 2845 478 
Q 3156 559 3463 722 
L 3463 178 
Q 3153 47 2828 -22 
Q 2503 -91 2169 -91 
Q 1331 -91 842 396 
Q 353 884 353 1716 
Q 353 2575 817 3079 
Q 1281 3584 2069 3584 
Q 2775 3584 3186 3129 
Q 3597 2675 3597 1894 
z
M 3022 2063 
Q 3016 2534 2758 2815 
Q 2500 3097 2075 3097 
Q 1594 3097 1305 2825 
Q 1016 2553 972 2059 
L 3022 2063 
z
" transform="scale(0.015625)"/>
      </defs>
      <use xlink:href="#DejaVuSans-53"/>
      <use xlink:href="#DejaVuSans-63" x="63.476562"/>
      <use xlink:href="#DejaVuSans-6f" x="118.457031"/>
      <use xlink:href="#DejaVuSans-72" x="179.638672"/>
      <use xlink:href="#DejaVuSans-65" x="218.501953"/>
     </g>
    </g>
   </g>
   <g id="matplotlib.axis_2">
    <g id="ytick_1">
     <g id="line2d_7">
      <defs>
       <path id="me6d5e945e8" d="M 0 0 
L -3.5 0 
" style="stroke: #000000; stroke-width: 0.8"/>
      </defs>
      <g>
       <use xlink:href="#me6d5e945e8" x="57.6" y="307.584" style="stroke: #000000; stroke-width: 0.8"/>
      </g>
     </g>
     <g id="text_8">
      <!-- 0 -->
      <g transform="translate(44.2375 311.383219)scale(0.1 -0.1)">
       <use xlink:href="#DejaVuSans-30"/>
      </g>
     </g>
    </g>
    <g id="ytick_2">
     <g id="line2d_8">
      <g>
       <use xlink:href="#me6d5e945e8" x="57.6" y="271.584" style="stroke: #000000; stroke-width: 0.8"/>
      </g>
     </g>
     <g id="text_9">
      <!-- 50 -->
      <g transform="translate(37.875 275.383219)scale(0.1 -0.1)">
       <defs>
        <path id="DejaVuSans-35" d="M 691 4666 
L 3169 4666 
L 3169 4134 
L 1269 4134 
L 1269 2991 
Q 1406 3038 1543 3061 
Q 1681 3084 1819 3084 
Q 2600 3084 3056 2656 
Q 3513 2228 3513 1497 
Q 3513 744 3044 326 
Q 2575 -91 1722 -91 
Q 1428 -91 1123 -41 
Q 819 9 494 109 
L 494 744 
Q 775 591 1075 516 
Q 1375 441 1709 441 
Q 2250 441 2565 725 
Q 2881 1009 2881 1497 
Q 2881 1984 2565 2268 
Q 2250 2553 1709 2553 
Q 1456 2553 1204 2497 
Q 953 2441 691 2322 
L 691 4666 
z
" transform="scale(0.015625)"/>
       </defs>
       <use xlink:href="#DejaVuSans-35"/>
       <use xlink:href="#DejaVuSans-30" x="63.623047"/>
      </g>
     </g>
    </g>
    <g id="ytick_3">
     <g id="line2d_9">
      <g>
       <use xlink:href="#me6d5e945e8" x="57.6" y="235.584" style="stroke: #000000; stroke-width: 0.8"/>
      </g>
     </g>
     <g id="text_10">
      <!-- 100 -->
      <g transform="translate(31.5125 239.383219)scale(0.1 -0.1)">
       <use xlink:href="#DejaVuSans-31"/>
       <use xlink:href="#DejaVuSans-30" x="63.623047"/>
       <use xlink:href="#DejaVuSans-30" x="127.246094"/>
      </g>
     </g>
    </g>
    <g id="ytick_4">
     <g id="line2d_10">
      <g>
       <use xlink:href="#me6d5e945e8" x="57.6" y="199.584" style="stroke: #000000; stroke-width: 0.8"/>
      </g>
     </g>
     <g id="text_11">
      <!-- 150 -->
      <g transform="translate(31.5125 203.383219)scale(0.1 -0.1)">
       <use xlink:href="#DejaVuSans-31"/>
       <use xlink:href="#DejaVuSans-35" x="63.623047"/>
       <use xlink:href="#DejaVuSans-30" x="127.246094"/>
      </g>
     </g>
    </g>
    <g id="ytick_5">
     <g id="line2d_11">
      <g>
       <use xlink:href="#me6d5e945e8" x="57.6" y="163.584" style="stroke: #000000; stroke-width: 0.8"/>
      </g>
     </g>
     <g id="text_12">
      <!-- 200 -->
      <g transform="translate(31.5125 167.383219)scale(0.1 -0.1)">
       <use xlink:href="#DejaVuSans-32"/>
       <use xlink:href="#DejaVuSans-30" x="63.623047"/>
       <use xlink:href="#DejaVuSans-30" x="127.246094"/>
      </g>
     </g>
    </g>
    <g id="ytick_6">
     <g id="line2d_12">
      <g>
       <use xlink:href="#me6d5e945e8" x="57.6" y="127.584" style="stroke: #000000; stroke-width: 0.8"/>
      </g>
     </g>
     <g id="text_13">
      <!-- 250 -->
      <g transform="translate(31.5125 131.383219)scale(0.1 -0.1)">
       <use xlink:href="#DejaVuSans-32"/>
       <use xlink:href="#DejaVuSans-35" x="63.623047"/>
       <use xlink:href="#DejaVuSans-30" x="127.246094"/>
      </g>
     </g>
    </g>
    <g id="ytick_7">
     <g id="line2d_13">
      <g>
       <use xlink:href="#me6d5e945e8" x="57.6" y="91.584" style="stroke: #000000; stroke-width: 0.8"/>
      </g>
     </g>
     <g id="text_14">
      <!-- 300 -->
      <g transform="translate(31.5125 95.383219)scale(0.1 -0.1)">
       <defs>
        <path id="DejaVuSans-33" d="M 2597 2516 
Q 3050 2419 3304 2112 
Q 3559 1806 3559 1356 
Q 3559 666 3084 287 
Q 2609 -91 1734 -91 
Q 1441 -91 1130 -33 
Q 819 25 488 141 
L 488 750 
Q 750 597 1062 519 
Q 1375 441 1716 441 
Q 2309 441 2620 675 
Q 2931 909 2931 1356 
Q 2931 1769 2642 2001 
Q 2353 2234 1838 2234 
L 1294 2234 
L 1294 2753 
L 1863 2753 
Q 2328 2753 2575 2939 
Q 2822 3125 2822 3475 
Q 2822 3834 2567 4026 
Q 2313 4219 1838 4219 
Q 1578 4219 1281 4162 
Q 984 4106 628 3988 
L 628 4550 
Q 988 4650 1302 4700 
Q 1616 4750 1894 4750 
Q 2613 4750 3031 4423 
Q 3450 4097 3450 3541 
Q 3450 3153 3228 2886 
Q 3006 2619 2597 2516 
z
" transform="scale(0.015625)"/>
       </defs>
       <use xlink:href="#DejaVuSans-33"/>
       <use xlink:href="#DejaVuSans-30" x="63.623047"/>
       <use xlink:href="#DejaVuSans-30" x="127.246094"/>
      </g>
     </g>
    </g>
    <g id="ytick_8">
     <g id="line2d_14">
      <g>
       <use xlink:href="#me6d5e945e8" x="57.6" y="55.584" style="stroke: #000000; stroke-width: 0.8"/>
      </g>
     </g>
     <g id="text_15">
      <!-- 350 -->
      <g transform="translate(31.5125 59.383219)scale(0.1 -0.1)">
       <use xlink:href="#DejaVuSans-33"/>
       <use xlink:href="#DejaVuSans-35" x="63.623047"/>
       <use xlink:href="#DejaVuSans-30" x="127.246094"/>
      </g>
     </g>
    </g>
    <g id="text_16">
     <!-- Number of crosslinks -->
     <g transform="translate(25.432812 227.019406)rotate(-90)scale(0.1 -0.1)">
      <defs>
       <path id="DejaVuSans-4e" d="M 628 4666 
L 1478 4666 
L 3547 763 
L 3547 4666 
L 4159 4666 
L 4159 0 
L 3309 0 
L 1241 3903 
L 1241 0 
L 628 0 
L 628 4666 
z
" transform="scale(0.015625)"/>
       <path id="DejaVuSans-75" d="M 544 1381 
L 544 3500 
L 1119 3500 
L 1119 1403 
Q 1119 906 1312 657 
Q 1506 409 1894 409 
Q 2359 409 2629 706 
Q 2900 1003 2900 1516 
L 2900 3500 
L 3475 3500 
L 3475 0 
L 2900 0 
L 2900 538 
Q 2691 219 2414 64 
Q 2138 -91 1772 -91 
Q 1169 -91 856 284 
Q 544 659 544 1381 
z
M 1991 3584 
L 1991 3584 
z
" transform="scale(0.015625)"/>
       <path id="DejaVuSans-6d" d="M 3328 2828 
Q 3544 3216 3844 3400 
Q 4144 3584 4550 3584 
Q 5097 3584 5394 3201 
Q 5691 2819 5691 2113 
L 5691 0 
L 5113 0 
L 5113 2094 
Q 5113 2597 4934 2840 
Q 4756 3084 4391 3084 
Q 3944 3084 3684 2787 
Q 3425 2491 3425 1978 
L 3425 0 
L 2847 0 
L 2847 2094 
Q 2847 2600 2669 2842 
Q 2491 3084 2119 3084 
Q 1678 3084 1418 2786 
Q 1159 2488 1159 1978 
L 1159 0 
L 581 0 
L 581 3500 
L 1159 3500 
L 1159 2956 
Q 1356 3278 1631 3431 
Q 1906 3584 2284 3584 
Q 2666 3584 2933 3390 
Q 3200 3197 3328 2828 
z
" transform="scale(0.015625)"/>
       <path id="DejaVuSans-62" d="M 3116 1747 
Q 3116 2381 2855 2742 
Q 2594 3103 2138 3103 
Q 1681 3103 1420 2742 
Q 1159 2381 1159 1747 
Q 1159 1113 1420 752 
Q 1681 391 2138 391 
Q 2594 391 2855 752 
Q 3116 1113 3116 1747 
z
M 1159 2969 
Q 1341 3281 1617 3432 
Q 1894 3584 2278 3584 
Q 2916 3584 3314 3078 
Q 3713 2572 3713 1747 
Q 3713 922 3314 415 
Q 2916 -91 2278 -91 
Q 1894 -91 1617 61 
Q 1341 213 1159 525 
L 1159 0 
L 581 0 
L 581 4863 
L 1159 4863 
L 1159 2969 
z
" transform="scale(0.015625)"/>
       <path id="DejaVuSans-20" transform="scale(0.015625)"/>
       <path id="DejaVuSans-66" d="M 2375 4863 
L 2375 4384 
L 1825 4384 
Q 1516 4384 1395 4259 
Q 1275 4134 1275 3809 
L 1275 3500 
L 2222 3500 
L 2222 3053 
L 1275 3053 
L 1275 0 
L 697 0 
L 697 3053 
L 147 3053 
L 147 3500 
L 697 3500 
L 697 3744 
Q 697 4328 969 4595 
Q 1241 4863 1831 4863 
L 2375 4863 
z
" transform="scale(0.015625)"/>
       <path id="DejaVuSans-73" d="M 2834 3397 
L 2834 2853 
Q 2591 2978 2328 3040 
Q 2066 3103 1784 3103 
Q 1356 3103 1142 2972 
Q 928 2841 928 2578 
Q 928 2378 1081 2264 
Q 1234 2150 1697 2047 
L 1894 2003 
Q 2506 1872 2764 1633 
Q 3022 1394 3022 966 
Q 3022 478 2636 193 
Q 2250 -91 1575 -91 
Q 1294 -91 989 -36 
Q 684 19 347 128 
L 347 722 
Q 666 556 975 473 
Q 1284 391 1588 391 
Q 1994 391 2212 530 
Q 2431 669 2431 922 
Q 2431 1156 2273 1281 
Q 2116 1406 1581 1522 
L 1381 1569 
Q 847 1681 609 1914 
Q 372 2147 372 2553 
Q 372 3047 722 3315 
Q 1072 3584 1716 3584 
Q 2034 3584 2315 3537 
Q 2597 3491 2834 3397 
z
" transform="scale(0.015625)"/>
       <path id="DejaVuSans-6c" d="M 603 4863 
L 1178 4863 
L 1178 0 
L 603 0 
L 603 4863 
z
" transform="scale(0.015625)"/>
       <path id="DejaVuSans-69" d="M 603 3500 
L 1178 3500 
L 1178 0 
L 603 0 
L 603 3500 
z
M 603 4863 
L 1178 4863 
L 1178 4134 
L 603 4134 
L 603 4863 
z
" transform="scale(0.015625)"/>
       <path id="DejaVuSans-6e" d="M 3513 2113 
L 3513 0 
L 2938 0 
L 2938 2094 
Q 2938 2591 2744 2837 
Q 2550 3084 2163 3084 
Q 1697 3084 1428 2787 
Q 1159 2491 1159 1978 
L 1159 0 
L 581 0 
L 581 3500 
L 1159 3500 
L 1159 2956 
Q 1366 3272 1645 3428 
Q 1925 3584 2291 3584 
Q 2894 3584 3203 3211 
Q 3513 2838 3513 2113 
z
" transform="scale(0.015625)"/>
       <path id="DejaVuSans-6b" d="M 581 4863 
L 1159 4863 
L 1159 1991 
L 2875 3500 
L 3609 3500 
L 1753 1863 
L 3688 0 
L 2938 0 
L 1159 1709 
L 1159 0 
L 581 0 
L 581 4863 
z
" transform="scale(0.015625)"/>
      </defs>
      <use xlink:href="#DejaVuSans-4e"/>
      <use xlink:href="#DejaVuSans-75" x="74.804688"/>
      <use xlink:href="#DejaVuSans-6d" x="138.183594"/>
      <use xlink:href="#DejaVuSans-62" x="235.595703"/>
      <use xlink:href="#DejaVuSans-65" x="299.072266"/>
      <use xlink:href="#DejaVuSans-72" x="360.595703"/>
      <use xlink:href="#DejaVuSans-20" x="401.708984"/>
      <use xlink:href="#DejaVuSans-6f" x="433.496094"/>
      <use xlink:href="#DejaVuSans-66" x="494.677734"/>
      <use xlink:href="#DejaVuSans-20" x="529.882812"/>
      <use xlink:href="#DejaVuSans-63" x="561.669922"/>
      <use xlink:href="#DejaVuSans-72" x="616.650391"/>
      <use xlink:href="#DejaVuSans-6f" x="655.513672"/>
      <use xlink:href="#DejaVuSans-73" x="716.695312"/>
      <use xlink:href="#DejaVuSans-73" x="768.794922"/>
      <use xlink:href="#DejaVuSans-6c" x="820.894531"/>
      <use xlink:href="#DejaVuSans-69" x="848.677734"/>
      <use xlink:href="#DejaVuSans-6e" x="876.460938"/>
      <use xlink:href="#DejaVuSans-6b" x="939.839844"/>
      <use xlink:href="#DejaVuSans-73" x="997.75"/>
     </g>
    </g>
   </g>
   <g id="patch_3">
    <path d="M 57.6 307.584 
L 57.6 41.472 
" style="fill: none; stroke: #000000; stroke-width: 0.8; stroke-linejoin: miter; stroke-linecap: square"/>
   </g>
   <g id="patch_4">
    <path d="M 414.72 307.584 
L 414.72 41.472 
" style="fill: none; stroke: #000000; stroke-width: 0.8; stroke-linejoin: miter; stroke-linecap: square"/>
   </g>
   <g id="patch_5">
    <path d="M 57.6 307.584 
L 414.72 307.584 
" style="fill: none; stroke: #000000; stroke-width: 0.8; stroke-linejoin: miter; stroke-linecap: square"/>
   </g>
   <g id="patch_6">
    <path d="M 57.6 41.472 
L 414.72 41.472 
" style="fill: none; stroke: #000000; stroke-width: 0.8; stroke-linejoin: miter; stroke-linecap: square"/>
   </g>
   <g id="legend_1">
    <g id="patch_7">
     <path d="M 293.087188 93.506375 
L 407.72 93.506375 
Q 409.72 93.506375 409.72 91.506375 
L 409.72 48.472 
Q 409.72 46.472 407.72 46.472 
L 293.087188 46.472 
Q 291.087188 46.472 291.087188 48.472 
L 291.087188 91.506375 
Q 291.087188 93.506375 293.087188 93.506375 
z
" style="fill: #ffffff; opacity: 0.8; stroke: #cccccc; stroke-linejoin: miter"/>
    </g>
    <g id="patch_8">
     <path d="M 295.087188 58.070438 
L 315.087188 58.070438 
L 315.087188 51.070438 
L 295.087188 51.070438 
z
" style="fill: #008000"/>
    </g>
    <g id="text_17">
     <!-- true -->
     <g transform="translate(323.087188 58.070438)scale(0.1 -0.1)">
      <defs>
       <path id="DejaVuSans-74" d="M 1172 4494 
L 1172 3500 
L 2356 3500 
L 2356 3053 
L 1172 3053 
L 1172 1153 
Q 1172 725 1289 603 
Q 1406 481 1766 481 
L 2356 481 
L 2356 0 
L 1766 0 
Q 1100 0 847 248 
Q 594 497 594 1153 
L 594 3053 
L 172 3053 
L 172 3500 
L 594 3500 
L 594 4494 
L 1172 4494 
z
" transform="scale(0.015625)"/>
      </defs>
      <use xlink:href="#DejaVuSans-74"/>
      <use xlink:href="#DejaVuSans-72" x="39.208984"/>
      <use xlink:href="#DejaVuSans-75" x="80.322266"/>
      <use xlink:href="#DejaVuSans-65" x="143.701172"/>
     </g>
    </g>
    <g id="patch_9">
     <path d="M 295.087188 72.748563 
L 315.087188 72.748563 
L 315.087188 65.748563 
L 295.087188 65.748563 
z
" style="fill: #7cfc00"/>
    </g>
    <g id="text_18">
     <!-- true homeotypic -->
     <g transform="translate(323.087188 72.748563)scale(0.1 -0.1)">
      <defs>
       <path id="DejaVuSans-68" d="M 3513 2113 
L 3513 0 
L 2938 0 
L 2938 2094 
Q 2938 2591 2744 2837 
Q 2550 3084 2163 3084 
Q 1697 3084 1428 2787 
Q 1159 2491 1159 1978 
L 1159 0 
L 581 0 
L 581 4863 
L 1159 4863 
L 1159 2956 
Q 1366 3272 1645 3428 
Q 1925 3584 2291 3584 
Q 2894 3584 3203 3211 
Q 3513 2838 3513 2113 
z
" transform="scale(0.015625)"/>
       <path id="DejaVuSans-79" d="M 2059 -325 
Q 1816 -950 1584 -1140 
Q 1353 -1331 966 -1331 
L 506 -1331 
L 506 -850 
L 844 -850 
Q 1081 -850 1212 -737 
Q 1344 -625 1503 -206 
L 1606 56 
L 191 3500 
L 800 3500 
L 1894 763 
L 2988 3500 
L 3597 3500 
L 2059 -325 
z
" transform="scale(0.015625)"/>
       <path id="DejaVuSans-70" d="M 1159 525 
L 1159 -1331 
L 581 -1331 
L 581 3500 
L 1159 3500 
L 1159 2969 
Q 1341 3281 1617 3432 
Q 1894 3584 2278 3584 
Q 2916 3584 3314 3078 
Q 3713 2572 3713 1747 
Q 3713 922 3314 415 
Q 2916 -91 2278 -91 
Q 1894 -91 1617 61 
Q 1341 213 1159 525 
z
M 3116 1747 
Q 3116 2381 2855 2742 
Q 2594 3103 2138 3103 
Q 1681 3103 1420 2742 
Q 1159 2381 1159 1747 
Q 1159 1113 1420 752 
Q 1681 391 2138 391 
Q 2594 391 2855 752 
Q 3116 1113 3116 1747 
z
" transform="scale(0.015625)"/>
      </defs>
      <use xlink:href="#DejaVuSans-74"/>
      <use xlink:href="#DejaVuSans-72" x="39.208984"/>
      <use xlink:href="#DejaVuSans-75" x="80.322266"/>
      <use xlink:href="#DejaVuSans-65" x="143.701172"/>
      <use xlink:href="#DejaVuSans-20" x="205.224609"/>
      <use xlink:href="#DejaVuSans-68" x="237.011719"/>
      <use xlink:href="#DejaVuSans-6f" x="300.390625"/>
      <use xlink:href="#DejaVuSans-6d" x="361.572266"/>
      <use xlink:href="#DejaVuSans-65" x="458.984375"/>
      <use xlink:href="#DejaVuSans-6f" x="520.507812"/>
      <use xlink:href="#DejaVuSans-74" x="581.689453"/>
      <use xlink:href="#DejaVuSans-79" x="620.898438"/>
      <use xlink:href="#DejaVuSans-70" x="680.078125"/>
      <use xlink:href="#DejaVuSans-69" x="743.554688"/>
      <use xlink:href="#DejaVuSans-63" x="771.337891"/>
     </g>
    </g>
    <g id="patch_10">
     <path d="M 295.087188 87.426688 
L 315.087188 87.426688 
L 315.087188 80.426688 
L 295.087188 80.426688 
z
" style="fill: #ff0000"/>
    </g>
    <g id="text_19">
     <!-- false -->
     <g transform="translate(323.087188 87.426688)scale(0.1 -0.1)">
      <defs>
       <path id="DejaVuSans-61" d="M 2194 1759 
Q 1497 1759 1228 1600 
Q 959 1441 959 1056 
Q 959 750 1161 570 
Q 1363 391 1709 391 
Q 2188 391 2477 730 
Q 2766 1069 2766 1631 
L 2766 1759 
L 2194 1759 
z
M 3341 1997 
L 3341 0 
L 2766 0 
L 2766 531 
Q 2569 213 2275 61 
Q 1981 -91 1556 -91 
Q 1019 -91 701 211 
Q 384 513 384 1019 
Q 384 1609 779 1909 
Q 1175 2209 1959 2209 
L 2766 2209 
L 2766 2266 
Q 2766 2663 2505 2880 
Q 2244 3097 1772 3097 
Q 1472 3097 1187 3025 
Q 903 2953 641 2809 
L 641 3341 
Q 956 3463 1253 3523 
Q 1550 3584 1831 3584 
Q 2591 3584 2966 3190 
Q 3341 2797 3341 1997 
z
" transform="scale(0.015625)"/>
      </defs>
      <use xlink:href="#DejaVuSans-66"/>
      <use xlink:href="#DejaVuSans-61" x="35.205078"/>
      <use xlink:href="#DejaVuSans-6c" x="96.484375"/>
      <use xlink:href="#DejaVuSans-73" x="124.267578"/>
      <use xlink:href="#DejaVuSans-65" x="176.367188"/>
     </g>
    </g>
   </g>
  </g>
 </g>
 <defs>
  <clipPath id="pfd33e88f0b">
   <rect x="57.6" y="41.472" width="357.12" height="266.112"/>
  </clipPath>
 </defs>
</svg>
