<?xml version="1.0" encoding="utf-8" standalone="no"?>
<!DOCTYPE svg PUBLIC "-//W3C//DTD SVG 1.1//EN"
  "http://www.w3.org/Graphics/SVG/1.1/DTD/svg11.dtd">
<svg xmlns:xlink="http://www.w3.org/1999/xlink" width="460.8pt" height="345.6pt" viewBox="0 0 460.8 345.6" xmlns="http://www.w3.org/2000/svg" version="1.1">
 <metadata>
  <rdf:RDF xmlns:dc="http://purl.org/dc/elements/1.1/" xmlns:cc="http://creativecommons.org/ns#" xmlns:rdf="http://www.w3.org/1999/02/22-rdf-syntax-ns#">
   <cc:Work>
    <dc:type rdf:resource="http://purl.org/dc/dcmitype/StillImage"/>
    <dc:date>2022-07-21T14:32:57.674353</dc:date>
    <dc:format>image/svg+xml</dc:format>
    <dc:creator>
     <cc:Agent>
      <dc:title>Matplotlib v3.5.1, https://matplotlib.org/</dc:title>
     </cc:Agent>
    </dc:creator>
   </cc:Work>
  </rdf:RDF>
 </metadata>
 <defs>
  <style type="text/css">*{stroke-linejoin: round; stroke-linecap: butt}</style>
 </defs>
 <g id="figure_1">
  <g id="patch_1">
   <path d="M 0 345.6 
L 460.8 345.6 
L 460.8 0 
L 0 0 
z
" style="fill: #ffffff"/>
  </g>
  <g id="axes_1">
   <g id="patch_2">
    <path d="M 57.6 307.584 
L 414.72 307.584 
L 414.72 41.472 
L 57.6 41.472 
z
" style="fill: #ffffff"/>
   </g>
   <g id="PolyCollection_1">
    <path d="M 73.832727 95.941696 
L 73.832727 307.584 
L 74.063804 307.584 
L 74.588172 307.584 
L 74.700748 307.584 
L 75.242891 307.584 
L 75.346579 307.584 
L 75.494705 307.584 
L 75.607281 307.584 
L 75.873909 307.584 
L 76.389389 307.584 
L 76.667866 307.584 
L 76.946344 307.584 
L 78.069142 307.584 
L 78.095805 307.584 
L 78.178756 307.584 
L 78.273557 307.584 
L 78.466121 307.584 
L 78.510559 307.584 
L 78.569809 307.584 
L 78.726823 307.584 
L 78.836437 307.584 
L 79.126765 307.584 
L 79.351917 307.584 
L 79.423017 307.584 
L 79.562256 307.584 
L 79.651132 307.584 
L 80.557666 307.584 
L 80.622841 307.584 
L 80.667279 307.584 
L 81.185722 307.584 
L 81.5116 307.584 
L 81.701201 307.584 
L 81.796002 307.584 
L 81.855253 307.584 
L 81.887841 307.584 
L 81.976716 307.584 
L 82.118918 307.584 
L 82.163356 307.584 
L 82.483309 307.584 
L 82.687723 307.584 
L 82.823999 307.584 
L 82.844737 307.584 
L 83.043227 307.584 
L 83.049152 307.584 
L 83.10544 307.584 
L 83.416505 307.584 
L 83.472793 307.584 
L 83.582407 307.584 
L 83.623882 307.584 
L 83.63277 307.584 
L 83.650545 307.584 
L 83.98531 307.584 
L 84.186762 307.584 
L 84.21935 307.584 
L 84.426727 307.584 
L 84.551153 307.584 
L 84.565966 307.584 
L 84.690392 307.584 
L 85.460649 307.584 
L 85.5673 307.584 
L 85.907991 307.584 
L 86.856 307.584 
L 87.066339 307.584 
L 87.110777 307.584 
L 87.827709 307.584 
L 87.883997 307.584 
L 88.633517 307.584 
L 89.095671 307.584 
L 89.599301 307.584 
L 89.839266 307.584 
L 90.319195 307.584 
L 90.736911 307.584 
L 90.8643 307.584 
L 91.213878 307.584 
L 91.311642 307.584 
L 91.421255 307.584 
L 91.738246 307.584 
L 92.221138 307.584 
L 92.324826 307.584 
L 92.629967 307.584 
L 92.665517 307.584 
L 92.792906 307.584 
L 92.834381 307.584 
L 93.103971 307.584 
L 94.07568 307.584 
L 94.137894 307.584 
L 94.161594 307.584 
L 94.460809 307.584 
L 95.014802 307.584 
L 95.438443 307.584 
L 95.562869 307.584 
L 96.057612 307.584 
L 96.10205 307.584 
L 96.267951 307.584 
L 96.365715 307.584 
L 96.893044 307.584 
L 97.035246 307.584 
L 97.118197 307.584 
L 97.414449 307.584 
L 97.604051 307.584 
L 97.609976 307.584 
L 98.003992 307.584 
L 98.371346 307.584 
L 98.531322 307.584 
L 98.578723 307.584 
L 99.351943 307.584 
L 99.488219 307.584 
L 99.535619 307.584 
L 100.217001 307.584 
L 100.249589 307.584 
L 100.468816 307.584 
L 100.531029 307.584 
L 100.536954 307.584 
L 100.640642 307.584 
L 100.729518 307.584 
L 100.809506 307.584 
L 100.856907 307.584 
L 101.120572 307.584 
L 101.295361 307.584 
L 101.801953 307.584 
L 102.640349 307.584 
L 102.675899 307.584 
L 102.80625 307.584 
L 102.877351 307.584 
L 103.132128 307.584 
L 103.730559 307.584 
L 103.834247 307.584 
L 103.899423 307.584 
L 104.515629 307.584 
L 104.648943 307.584 
L 104.749668 307.584 
L 104.770406 307.584 
L 104.992596 307.584 
L 105.3955 307.584 
L 105.596951 307.584 
L 105.70064 307.584 
L 105.928755 307.584 
L 106.524223 307.584 
L 106.586436 307.584 
L 107.125616 307.584 
L 107.29448 307.584 
L 107.463344 307.584 
L 107.795147 307.584 
L 108.32544 307.584 
L 108.399503 307.584 
L 109.054222 307.584 
L 109.131247 307.584 
L 109.519338 307.584 
L 109.809666 307.584 
L 109.833366 307.584 
L 110.257008 307.584 
L 110.621399 307.584 
L 110.813963 307.584 
L 110.929502 307.584 
L 111.30278 307.584 
L 111.519045 307.584 
L 111.800485 307.584 
L 112.132288 307.584 
L 112.277452 307.584 
L 113.838704 307.584 
L 113.942393 307.584 
L 114.057931 307.584 
L 114.668212 307.584 
L 114.7719 307.584 
L 115.693247 307.584 
L 115.918399 307.584 
L 115.945061 307.584 
L 116.030975 307.584 
L 116.786419 307.584 
L 116.807157 307.584 
L 116.848632 307.584 
L 116.866408 307.584 
L 117.168585 307.584 
L 117.215986 307.584 
L 117.518164 307.584 
L 117.91218 307.584 
L 118.246946 307.584 
L 118.353597 307.584 
L 118.47506 307.584 
L 118.836489 307.584 
L 119.396406 307.584 
L 119.420107 307.584 
L 119.488245 307.584 
L 119.50602 307.584 
L 119.562308 307.584 
L 119.917811 307.584 
L 120.077788 307.584 
L 120.196289 307.584 
L 120.231839 307.584 
L 120.498467 307.584 
L 120.732507 307.584 
L 121.60349 307.584 
L 121.721991 307.584 
L 122.231546 307.584 
L 122.430035 307.584 
L 122.492248 307.584 
L 122.495211 307.584 
L 122.640374 307.584 
L 122.871452 307.584 
L 123.348419 307.584 
L 123.434332 307.584 
L 123.683184 307.584 
L 124.370491 307.584 
L 124.758582 307.584 
L 125.001509 307.584 
L 125.042985 307.584 
L 125.152598 307.584 
L 125.466626 307.584 
L 125.632528 307.584 
L 125.742141 307.584 
L 125.89323 307.584 
L 125.967293 307.584 
L 125.985069 307.584 
L 126.281321 307.584 
L 126.334647 307.584 
L 126.702 307.584 
L 126.764213 307.584 
L 126.897527 307.584 
L 127.152304 307.584 
L 127.318206 307.584 
L 128.54173 307.584 
L 129.063135 307.584 
L 129.3505 307.584 
L 130.180008 307.584 
L 132.058251 307.584 
L 132.324878 307.584 
L 132.535218 307.584 
L 132.872946 307.584 
L 133.133648 307.584 
L 133.305475 307.584 
L 133.391388 307.584 
L 133.607653 307.584 
L 133.951306 307.584 
L 134.662313 307.584 
L 134.768964 307.584 
L 135.011891 307.584 
L 135.477008 307.584 
L 135.536258 307.584 
L 135.595509 307.584 
L 135.847324 307.584 
L 136.137652 307.584 
L 136.318366 307.584 
L 136.602769 307.584 
L 136.836808 307.584 
L 137.041223 307.584 
L 137.109361 307.584 
L 137.624841 307.584 
L 138.027744 307.584 
L 138.540262 307.584 
L 139.538634 307.584 
L 139.855624 307.584 
L 140.071889 307.584 
L 140.590331 307.584 
L 140.993235 307.584 
L 141.259862 307.584 
L 142.421173 307.584 
L 143.161805 307.584 
L 143.170693 307.584 
L 143.232906 307.584 
L 143.256606 307.584 
L 143.461021 307.584 
L 144.16314 307.584 
L 144.598631 307.584 
L 144.616406 307.584 
L 145.605891 307.584 
L 146.305047 307.584 
L 146.328748 307.584 
L 146.796827 307.584 
L 146.933103 307.584 
L 147.626335 307.584 
L 148.248466 307.584 
L 148.328454 307.584 
L 148.358079 307.584 
L 149.312013 307.584 
L 149.593453 307.584 
L 149.640854 307.584 
L 149.916369 307.584 
L 150.828828 307.584 
L 153.385489 307.584 
L 153.767655 307.584 
L 153.856531 307.584 
L 154.179447 307.584 
L 154.496437 307.584 
L 154.502362 307.584 
L 154.623826 307.584 
L 155.530359 307.584 
L 156.122865 307.584 
L 156.682783 307.584 
L 156.981998 307.584 
L 157.127162 307.584 
L 157.310839 307.584 
L 157.870756 307.584 
L 157.974445 307.584 
L 159.452746 307.584 
L 160.362242 307.584 
L 160.385943 307.584 
L 160.566657 307.584 
L 160.637757 307.584 
L 161.399127 307.584 
L 161.493928 307.584 
L 161.716118 307.584 
L 162.219747 307.584 
L 162.358986 307.584 
L 163.283295 307.584 
L 163.952826 307.584 
L 164.018002 307.584 
L 164.112803 307.584 
L 164.835659 307.584 
L 164.957123 307.584 
L 166.097696 307.584 
L 167.413059 307.584 
L 167.943351 307.584 
L 168.532894 307.584 
L 168.544744 307.584 
L 168.86766 307.584 
L 169.89862 307.584 
L 170.144509 307.584 
L 170.369662 307.584 
L 170.44965 307.584 
L 170.748865 307.584 
L 172.736721 307.584 
L 172.84041 307.584 
L 173.243314 307.584 
L 173.720281 307.584 
L 173.915807 307.584 
L 174.037271 307.584 
L 174.511276 307.584 
L 175.47706 307.584 
L 175.625186 307.584 
L 176.069565 307.584 
L 179.123932 307.584 
L 180.04824 307.584 
L 180.483732 307.584 
L 181.31324 307.584 
L 181.437666 307.584 
L 182.714515 307.584 
L 183.203332 307.584 
L 186.379162 307.584 
L 187.347909 307.584 
L 188.28703 307.584 
L 188.704747 307.584 
L 189.249852 307.584 
L 189.54018 307.584 
L 190.3845 307.584 
L 193.826958 307.584 
L 194.182461 307.584 
L 195.151207 307.584 
L 196.069591 307.584 
L 196.146617 307.584 
L 199.512049 307.584 
L 200.151955 307.584 
L 206.799867 307.584 
L 209.839421 307.584 
L 211.273284 307.584 
L 211.942816 307.584 
L 212.544209 307.584 
L 213.536656 307.584 
L 217.091689 307.584 
L 221.19479 307.584 
L 223.206347 307.584 
L 230.660067 307.584 
L 234.973508 307.584 
L 235.894854 307.584 
L 238.161188 307.584 
L 238.795169 307.584 
L 243.547063 307.584 
L 244.266958 307.584 
L 245.167566 307.584 
L 245.872648 307.584 
L 246.080025 307.584 
L 251.409612 307.584 
L 272.064357 307.584 
L 281.254118 307.584 
L 282.021413 307.584 
L 283.55304 307.584 
L 287.887218 307.584 
L 310.680908 307.584 
L 330.313581 307.584 
L 333.107244 307.584 
L 398.487273 307.584 
L 398.487273 307.584 
L 398.487273 307.584 
L 333.107244 307.584 
L 330.313581 307.584 
L 310.680908 307.584 
L 287.887218 307.584 
L 283.55304 307.584 
L 282.021413 307.584 
L 281.254118 306.920545 
L 272.064357 306.920545 
L 251.409612 306.920545 
L 246.080025 306.920545 
L 245.872648 306.920545 
L 245.167566 306.920545 
L 244.266958 306.920545 
L 243.547063 306.920545 
L 238.795169 306.920545 
L 238.161188 306.920545 
L 235.894854 306.920545 
L 234.973508 306.920545 
L 230.660067 306.257089 
L 223.206347 306.257089 
L 221.19479 306.257089 
L 217.091689 305.593634 
L 213.536656 305.593634 
L 212.544209 304.930178 
L 211.942816 304.930178 
L 211.273284 304.266723 
L 209.839421 304.266723 
L 206.799867 304.266723 
L 200.151955 304.266723 
L 199.512049 303.603267 
L 196.146617 302.939812 
L 196.069591 302.939812 
L 195.151207 302.276356 
L 194.182461 301.612901 
L 193.826958 300.949445 
L 190.3845 300.28599 
L 189.54018 299.622534 
L 189.249852 298.959079 
L 188.704747 298.959079 
L 188.28703 298.959079 
L 187.347909 298.295623 
L 186.379162 297.632168 
L 183.203332 296.968712 
L 182.714515 296.305257 
L 181.437666 296.305257 
L 181.31324 295.641801 
L 180.483732 294.978346 
L 180.04824 293.651435 
L 179.123932 293.651435 
L 176.069565 292.987979 
L 175.625186 292.324524 
L 175.47706 291.661068 
L 174.511276 290.997613 
L 174.037271 290.997613 
L 173.915807 290.334157 
L 173.720281 289.670702 
L 173.243314 289.007246 
L 172.84041 288.343791 
L 172.736721 287.680335 
L 170.748865 287.01688 
L 170.44965 286.353424 
L 170.369662 285.689969 
L 170.144509 285.026513 
L 169.89862 284.363058 
L 168.86766 283.699602 
L 168.544744 283.036147 
L 168.532894 282.372691 
L 167.943351 281.709236 
L 167.413059 281.04578 
L 166.097696 280.382325 
L 164.957123 280.382325 
L 164.835659 280.382325 
L 164.112803 280.382325 
L 164.018002 279.718869 
L 163.952826 279.055414 
L 163.283295 278.391958 
L 162.358986 277.728503 
L 162.219747 277.728503 
L 161.716118 277.065047 
L 161.493928 276.401592 
L 161.399127 275.738136 
L 160.637757 275.738136 
L 160.566657 275.074681 
L 160.385943 274.411225 
L 160.362242 273.74777 
L 159.452746 273.084314 
L 157.974445 272.420859 
L 157.870756 271.757403 
L 157.310839 271.093948 
L 157.127162 270.430492 
L 156.981998 269.767037 
L 156.682783 269.103581 
L 156.122865 268.440126 
L 155.530359 267.77667 
L 154.623826 267.113215 
L 154.502362 266.449759 
L 154.496437 265.786304 
L 154.179447 265.122848 
L 153.856531 264.459393 
L 153.767655 263.795937 
L 153.385489 263.132482 
L 150.828828 262.469026 
L 149.916369 261.805571 
L 149.640854 261.142115 
L 149.593453 260.47866 
L 149.312013 259.815204 
L 148.358079 259.151749 
L 148.328454 258.488293 
L 148.248466 257.824838 
L 147.626335 257.161382 
L 146.933103 256.497927 
L 146.796827 255.834471 
L 146.328748 255.171016 
L 146.305047 254.50756 
L 145.605891 253.844105 
L 144.616406 253.180649 
L 144.598631 252.517194 
L 144.16314 251.853738 
L 143.461021 251.190283 
L 143.256606 251.190283 
L 143.232906 250.526827 
L 143.170693 249.863372 
L 143.161805 249.199916 
L 142.421173 249.199916 
L 141.259862 248.536461 
L 140.993235 247.873005 
L 140.590331 247.20955 
L 140.071889 246.546094 
L 139.855624 245.882639 
L 139.538634 245.219183 
L 138.540262 244.555728 
L 138.027744 243.892272 
L 137.624841 243.228817 
L 137.109361 242.565361 
L 137.041223 241.901906 
L 136.836808 241.23845 
L 136.602769 240.574995 
L 136.318366 239.911539 
L 136.137652 239.248084 
L 135.847324 238.584628 
L 135.595509 237.921173 
L 135.536258 237.257717 
L 135.477008 236.594262 
L 135.011891 235.930806 
L 134.768964 235.267351 
L 134.662313 234.603895 
L 133.951306 233.94044 
L 133.607653 233.276984 
L 133.391388 232.613529 
L 133.305475 231.950073 
L 133.133648 231.286618 
L 132.872946 230.623162 
L 132.535218 229.959707 
L 132.324878 229.296251 
L 132.058251 228.632796 
L 130.180008 227.96934 
L 129.3505 227.305885 
L 129.063135 226.642429 
L 128.54173 226.642429 
L 127.318206 225.978974 
L 127.152304 225.315518 
L 126.897527 224.652063 
L 126.764213 223.988607 
L 126.702 223.325152 
L 126.334647 222.661696 
L 126.281321 221.998241 
L 125.985069 221.334785 
L 125.967293 220.67133 
L 125.89323 220.007874 
L 125.742141 219.344419 
L 125.632528 218.680963 
L 125.466626 218.017508 
L 125.152598 217.354052 
L 125.042985 216.690597 
L 125.001509 216.027141 
L 124.758582 215.363686 
L 124.370491 215.363686 
L 123.683184 214.70023 
L 123.434332 214.036775 
L 123.348419 213.373319 
L 122.871452 212.709864 
L 122.640374 212.046408 
L 122.495211 211.382953 
L 122.492248 210.719497 
L 122.430035 210.056042 
L 122.231546 209.392586 
L 121.721991 208.729131 
L 121.60349 208.065675 
L 120.732507 207.40222 
L 120.498467 207.40222 
L 120.231839 206.738764 
L 120.196289 206.075309 
L 120.077788 205.411853 
L 119.917811 204.748398 
L 119.562308 204.084942 
L 119.50602 203.421487 
L 119.488245 202.758031 
L 119.420107 202.094576 
L 119.396406 201.43112 
L 118.836489 200.767665 
L 118.47506 200.104209 
L 118.353597 199.440754 
L 118.246946 198.777298 
L 117.91218 198.113843 
L 117.518164 197.450387 
L 117.215986 196.786932 
L 117.168585 196.786932 
L 116.866408 196.123476 
L 116.848632 195.460021 
L 116.807157 194.796565 
L 116.786419 194.13311 
L 116.030975 193.469654 
L 115.945061 192.806199 
L 115.918399 192.142743 
L 115.693247 191.479288 
L 114.7719 190.815832 
L 114.668212 190.152377 
L 114.057931 189.488921 
L 113.942393 188.825466 
L 113.838704 188.16201 
L 112.277452 187.498555 
L 112.132288 186.835099 
L 111.800485 186.171644 
L 111.519045 185.508188 
L 111.30278 185.508188 
L 110.929502 184.844733 
L 110.813963 184.181277 
L 110.621399 183.517822 
L 110.257008 182.854366 
L 109.833366 182.190911 
L 109.809666 181.527455 
L 109.519338 181.527455 
L 109.131247 180.864 
L 109.054222 180.200545 
L 108.399503 179.537089 
L 108.32544 178.873634 
L 107.795147 178.210178 
L 107.463344 177.546723 
L 107.29448 176.883267 
L 107.125616 176.219812 
L 106.586436 175.556356 
L 106.524223 174.892901 
L 105.928755 173.56599 
L 105.70064 172.902534 
L 105.596951 172.239079 
L 105.3955 171.575623 
L 104.992596 170.912168 
L 104.770406 170.248712 
L 104.749668 169.585257 
L 104.648943 168.921801 
L 104.515629 168.258346 
L 103.899423 167.59489 
L 103.834247 166.931435 
L 103.730559 166.267979 
L 103.132128 165.604524 
L 102.877351 164.941068 
L 102.80625 164.277613 
L 102.675899 163.614157 
L 102.640349 162.950702 
L 101.801953 162.287246 
L 101.295361 161.623791 
L 101.120572 160.960335 
L 100.856907 160.29688 
L 100.809506 159.633424 
L 100.729518 158.969969 
L 100.640642 158.306513 
L 100.536954 157.643058 
L 100.531029 156.979602 
L 100.468816 156.316147 
L 100.249589 155.652691 
L 100.217001 154.989236 
L 99.535619 154.32578 
L 99.488219 154.32578 
L 99.351943 153.662325 
L 98.578723 152.998869 
L 98.531322 152.335414 
L 98.371346 151.671958 
L 98.003992 151.008503 
L 97.609976 150.345047 
L 97.604051 149.681592 
L 97.414449 149.018136 
L 97.118197 148.354681 
L 97.035246 147.691225 
L 96.893044 147.02777 
L 96.365715 147.02777 
L 96.267951 146.364314 
L 96.10205 145.700859 
L 96.057612 145.037403 
L 95.562869 145.037403 
L 95.438443 144.373948 
L 95.014802 143.710492 
L 94.460809 143.047037 
L 94.161594 142.383581 
L 94.137894 141.720126 
L 94.07568 141.05667 
L 93.103971 140.393215 
L 92.834381 139.729759 
L 92.792906 139.066304 
L 92.665517 138.402848 
L 92.629967 137.739393 
L 92.324826 137.075937 
L 92.221138 136.412482 
L 91.738246 135.749026 
L 91.421255 135.085571 
L 91.311642 134.422115 
L 91.213878 133.75866 
L 90.8643 133.095204 
L 90.736911 132.431749 
L 90.319195 131.768293 
L 89.839266 131.104838 
L 89.599301 130.441382 
L 89.095671 129.777927 
L 88.633517 129.114471 
L 87.883997 128.451016 
L 87.827709 127.78756 
L 87.110777 127.124105 
L 87.066339 126.460649 
L 86.856 125.797194 
L 85.907991 125.797194 
L 85.5673 125.133738 
L 85.460649 124.470283 
L 84.690392 123.806827 
L 84.565966 123.143372 
L 84.551153 122.479916 
L 84.426727 121.816461 
L 84.21935 121.153005 
L 84.186762 120.48955 
L 83.98531 119.826094 
L 83.650545 119.162639 
L 83.63277 118.499183 
L 83.623882 117.835728 
L 83.582407 117.172272 
L 83.472793 116.508817 
L 83.416505 115.845361 
L 83.10544 115.181906 
L 83.049152 114.51845 
L 83.043227 113.854995 
L 82.844737 113.854995 
L 82.823999 113.191539 
L 82.687723 112.528084 
L 82.483309 112.528084 
L 82.163356 111.864628 
L 82.118918 111.201173 
L 81.976716 110.537717 
L 81.887841 109.874262 
L 81.855253 109.210806 
L 81.796002 108.547351 
L 81.701201 107.883895 
L 81.5116 107.22044 
L 81.185722 106.556984 
L 80.667279 106.556984 
L 80.622841 105.893529 
L 80.557666 105.230073 
L 79.651132 104.566618 
L 79.562256 103.903162 
L 79.423017 103.239707 
L 79.351917 102.576251 
L 79.126765 101.912796 
L 78.836437 101.912796 
L 78.726823 101.24934 
L 78.569809 100.585885 
L 78.510559 99.922429 
L 78.466121 99.258974 
L 78.273557 99.258974 
L 78.178756 99.258974 
L 78.095805 99.258974 
L 78.069142 98.595518 
L 76.946344 97.932063 
L 76.667866 97.932063 
L 76.389389 97.932063 
L 75.873909 97.932063 
L 75.607281 97.268607 
L 75.494705 97.268607 
L 75.346579 96.605152 
L 75.242891 95.941696 
L 74.700748 95.941696 
L 74.588172 95.941696 
L 74.063804 95.941696 
L 73.832727 95.941696 
z
" clip-path="url(#p014ce38028)" style="fill: #008000"/>
   </g>
   <g id="PolyCollection_2">
    <path d="M 73.832727 66.749654 
L 73.832727 95.941696 
L 74.063804 95.941696 
L 74.588172 95.941696 
L 74.700748 95.941696 
L 75.242891 95.941696 
L 75.346579 96.605152 
L 75.494705 97.268607 
L 75.607281 97.268607 
L 75.873909 97.932063 
L 76.389389 97.932063 
L 76.667866 97.932063 
L 76.946344 97.932063 
L 78.069142 98.595518 
L 78.095805 99.258974 
L 78.178756 99.258974 
L 78.273557 99.258974 
L 78.466121 99.258974 
L 78.510559 99.922429 
L 78.569809 100.585885 
L 78.726823 101.24934 
L 78.836437 101.912796 
L 79.126765 101.912796 
L 79.351917 102.576251 
L 79.423017 103.239707 
L 79.562256 103.903162 
L 79.651132 104.566618 
L 80.557666 105.230073 
L 80.622841 105.893529 
L 80.667279 106.556984 
L 81.185722 106.556984 
L 81.5116 107.22044 
L 81.701201 107.883895 
L 81.796002 108.547351 
L 81.855253 109.210806 
L 81.887841 109.874262 
L 81.976716 110.537717 
L 82.118918 111.201173 
L 82.163356 111.864628 
L 82.483309 112.528084 
L 82.687723 112.528084 
L 82.823999 113.191539 
L 82.844737 113.854995 
L 83.043227 113.854995 
L 83.049152 114.51845 
L 83.10544 115.181906 
L 83.416505 115.845361 
L 83.472793 116.508817 
L 83.582407 117.172272 
L 83.623882 117.835728 
L 83.63277 118.499183 
L 83.650545 119.162639 
L 83.98531 119.826094 
L 84.186762 120.48955 
L 84.21935 121.153005 
L 84.426727 121.816461 
L 84.551153 122.479916 
L 84.565966 123.143372 
L 84.690392 123.806827 
L 85.460649 124.470283 
L 85.5673 125.133738 
L 85.907991 125.797194 
L 86.856 125.797194 
L 87.066339 126.460649 
L 87.110777 127.124105 
L 87.827709 127.78756 
L 87.883997 128.451016 
L 88.633517 129.114471 
L 89.095671 129.777927 
L 89.599301 130.441382 
L 89.839266 131.104838 
L 90.319195 131.768293 
L 90.736911 132.431749 
L 90.8643 133.095204 
L 91.213878 133.75866 
L 91.311642 134.422115 
L 91.421255 135.085571 
L 91.738246 135.749026 
L 92.221138 136.412482 
L 92.324826 137.075937 
L 92.629967 137.739393 
L 92.665517 138.402848 
L 92.792906 139.066304 
L 92.834381 139.729759 
L 93.103971 140.393215 
L 94.07568 141.05667 
L 94.137894 141.720126 
L 94.161594 142.383581 
L 94.460809 143.047037 
L 95.014802 143.710492 
L 95.438443 144.373948 
L 95.562869 145.037403 
L 96.057612 145.037403 
L 96.10205 145.700859 
L 96.267951 146.364314 
L 96.365715 147.02777 
L 96.893044 147.02777 
L 97.035246 147.691225 
L 97.118197 148.354681 
L 97.414449 149.018136 
L 97.604051 149.681592 
L 97.609976 150.345047 
L 98.003992 151.008503 
L 98.371346 151.671958 
L 98.531322 152.335414 
L 98.578723 152.998869 
L 99.351943 153.662325 
L 99.488219 154.32578 
L 99.535619 154.32578 
L 100.217001 154.989236 
L 100.249589 155.652691 
L 100.468816 156.316147 
L 100.531029 156.979602 
L 100.536954 157.643058 
L 100.640642 158.306513 
L 100.729518 158.969969 
L 100.809506 159.633424 
L 100.856907 160.29688 
L 101.120572 160.960335 
L 101.295361 161.623791 
L 101.801953 162.287246 
L 102.640349 162.950702 
L 102.675899 163.614157 
L 102.80625 164.277613 
L 102.877351 164.941068 
L 103.132128 165.604524 
L 103.730559 166.267979 
L 103.834247 166.931435 
L 103.899423 167.59489 
L 104.515629 168.258346 
L 104.648943 168.921801 
L 104.749668 169.585257 
L 104.770406 170.248712 
L 104.992596 170.912168 
L 105.3955 171.575623 
L 105.596951 172.239079 
L 105.70064 172.902534 
L 105.928755 173.56599 
L 106.524223 174.892901 
L 106.586436 175.556356 
L 107.125616 176.219812 
L 107.29448 176.883267 
L 107.463344 177.546723 
L 107.795147 178.210178 
L 108.32544 178.873634 
L 108.399503 179.537089 
L 109.054222 180.200545 
L 109.131247 180.864 
L 109.519338 181.527455 
L 109.809666 181.527455 
L 109.833366 182.190911 
L 110.257008 182.854366 
L 110.621399 183.517822 
L 110.813963 184.181277 
L 110.929502 184.844733 
L 111.30278 185.508188 
L 111.519045 185.508188 
L 111.800485 186.171644 
L 112.132288 186.835099 
L 112.277452 187.498555 
L 113.838704 188.16201 
L 113.942393 188.825466 
L 114.057931 189.488921 
L 114.668212 190.152377 
L 114.7719 190.815832 
L 115.693247 191.479288 
L 115.918399 192.142743 
L 115.945061 192.806199 
L 116.030975 193.469654 
L 116.786419 194.13311 
L 116.807157 194.796565 
L 116.848632 195.460021 
L 116.866408 196.123476 
L 117.168585 196.786932 
L 117.215986 196.786932 
L 117.518164 197.450387 
L 117.91218 198.113843 
L 118.246946 198.777298 
L 118.353597 199.440754 
L 118.47506 200.104209 
L 118.836489 200.767665 
L 119.396406 201.43112 
L 119.420107 202.094576 
L 119.488245 202.758031 
L 119.50602 203.421487 
L 119.562308 204.084942 
L 119.917811 204.748398 
L 120.077788 205.411853 
L 120.196289 206.075309 
L 120.231839 206.738764 
L 120.498467 207.40222 
L 120.732507 207.40222 
L 121.60349 208.065675 
L 121.721991 208.729131 
L 122.231546 209.392586 
L 122.430035 210.056042 
L 122.492248 210.719497 
L 122.495211 211.382953 
L 122.640374 212.046408 
L 122.871452 212.709864 
L 123.348419 213.373319 
L 123.434332 214.036775 
L 123.683184 214.70023 
L 124.370491 215.363686 
L 124.758582 215.363686 
L 125.001509 216.027141 
L 125.042985 216.690597 
L 125.152598 217.354052 
L 125.466626 218.017508 
L 125.632528 218.680963 
L 125.742141 219.344419 
L 125.89323 220.007874 
L 125.967293 220.67133 
L 125.985069 221.334785 
L 126.281321 221.998241 
L 126.334647 222.661696 
L 126.702 223.325152 
L 126.764213 223.988607 
L 126.897527 224.652063 
L 127.152304 225.315518 
L 127.318206 225.978974 
L 128.54173 226.642429 
L 129.063135 226.642429 
L 129.3505 227.305885 
L 130.180008 227.96934 
L 132.058251 228.632796 
L 132.324878 229.296251 
L 132.535218 229.959707 
L 132.872946 230.623162 
L 133.133648 231.286618 
L 133.305475 231.950073 
L 133.391388 232.613529 
L 133.607653 233.276984 
L 133.951306 233.94044 
L 134.662313 234.603895 
L 134.768964 235.267351 
L 135.011891 235.930806 
L 135.477008 236.594262 
L 135.536258 237.257717 
L 135.595509 237.921173 
L 135.847324 238.584628 
L 136.137652 239.248084 
L 136.318366 239.911539 
L 136.602769 240.574995 
L 136.836808 241.23845 
L 137.041223 241.901906 
L 137.109361 242.565361 
L 137.624841 243.228817 
L 138.027744 243.892272 
L 138.540262 244.555728 
L 139.538634 245.219183 
L 139.855624 245.882639 
L 140.071889 246.546094 
L 140.590331 247.20955 
L 140.993235 247.873005 
L 141.259862 248.536461 
L 142.421173 249.199916 
L 143.161805 249.199916 
L 143.170693 249.863372 
L 143.232906 250.526827 
L 143.256606 251.190283 
L 143.461021 251.190283 
L 144.16314 251.853738 
L 144.598631 252.517194 
L 144.616406 253.180649 
L 145.605891 253.844105 
L 146.305047 254.50756 
L 146.328748 255.171016 
L 146.796827 255.834471 
L 146.933103 256.497927 
L 147.626335 257.161382 
L 148.248466 257.824838 
L 148.328454 258.488293 
L 148.358079 259.151749 
L 149.312013 259.815204 
L 149.593453 260.47866 
L 149.640854 261.142115 
L 149.916369 261.805571 
L 150.828828 262.469026 
L 153.385489 263.132482 
L 153.767655 263.795937 
L 153.856531 264.459393 
L 154.179447 265.122848 
L 154.496437 265.786304 
L 154.502362 266.449759 
L 154.623826 267.113215 
L 155.530359 267.77667 
L 156.122865 268.440126 
L 156.682783 269.103581 
L 156.981998 269.767037 
L 157.127162 270.430492 
L 157.310839 271.093948 
L 157.870756 271.757403 
L 157.974445 272.420859 
L 159.452746 273.084314 
L 160.362242 273.74777 
L 160.385943 274.411225 
L 160.566657 275.074681 
L 160.637757 275.738136 
L 161.399127 275.738136 
L 161.493928 276.401592 
L 161.716118 277.065047 
L 162.219747 277.728503 
L 162.358986 277.728503 
L 163.283295 278.391958 
L 163.952826 279.055414 
L 164.018002 279.718869 
L 164.112803 280.382325 
L 164.835659 280.382325 
L 164.957123 280.382325 
L 166.097696 280.382325 
L 167.413059 281.04578 
L 167.943351 281.709236 
L 168.532894 282.372691 
L 168.544744 283.036147 
L 168.86766 283.699602 
L 169.89862 284.363058 
L 170.144509 285.026513 
L 170.369662 285.689969 
L 170.44965 286.353424 
L 170.748865 287.01688 
L 172.736721 287.680335 
L 172.84041 288.343791 
L 173.243314 289.007246 
L 173.720281 289.670702 
L 173.915807 290.334157 
L 174.037271 290.997613 
L 174.511276 290.997613 
L 175.47706 291.661068 
L 175.625186 292.324524 
L 176.069565 292.987979 
L 179.123932 293.651435 
L 180.04824 293.651435 
L 180.483732 294.978346 
L 181.31324 295.641801 
L 181.437666 296.305257 
L 182.714515 296.305257 
L 183.203332 296.968712 
L 186.379162 297.632168 
L 187.347909 298.295623 
L 188.28703 298.959079 
L 188.704747 298.959079 
L 189.249852 298.959079 
L 189.54018 299.622534 
L 190.3845 300.28599 
L 193.826958 300.949445 
L 194.182461 301.612901 
L 195.151207 302.276356 
L 196.069591 302.939812 
L 196.146617 302.939812 
L 199.512049 303.603267 
L 200.151955 304.266723 
L 206.799867 304.266723 
L 209.839421 304.266723 
L 211.273284 304.266723 
L 211.942816 304.930178 
L 212.544209 304.930178 
L 213.536656 305.593634 
L 217.091689 305.593634 
L 221.19479 306.257089 
L 223.206347 306.257089 
L 230.660067 306.257089 
L 234.973508 306.920545 
L 235.894854 306.920545 
L 238.161188 306.920545 
L 238.795169 306.920545 
L 243.547063 306.920545 
L 244.266958 306.920545 
L 245.167566 306.920545 
L 245.872648 306.920545 
L 246.080025 306.920545 
L 251.409612 306.920545 
L 272.064357 306.920545 
L 281.254118 306.920545 
L 282.021413 307.584 
L 283.55304 307.584 
L 287.887218 307.584 
L 310.680908 307.584 
L 330.313581 307.584 
L 333.107244 307.584 
L 398.487273 307.584 
L 398.487273 306.920545 
L 398.487273 306.920545 
L 333.107244 306.257089 
L 330.313581 305.593634 
L 310.680908 304.930178 
L 287.887218 304.266723 
L 283.55304 303.603267 
L 282.021413 302.939812 
L 281.254118 302.276356 
L 272.064357 301.612901 
L 251.409612 300.949445 
L 246.080025 300.28599 
L 245.872648 299.622534 
L 245.167566 298.959079 
L 244.266958 298.295623 
L 243.547063 297.632168 
L 238.795169 296.968712 
L 238.161188 296.305257 
L 235.894854 295.641801 
L 234.973508 294.978346 
L 230.660067 294.31489 
L 223.206347 293.651435 
L 221.19479 292.987979 
L 217.091689 292.324524 
L 213.536656 291.661068 
L 212.544209 290.997613 
L 211.942816 290.334157 
L 211.273284 289.670702 
L 209.839421 289.007246 
L 206.799867 288.343791 
L 200.151955 287.680335 
L 199.512049 287.01688 
L 196.146617 286.353424 
L 196.069591 285.689969 
L 195.151207 285.026513 
L 194.182461 284.363058 
L 193.826958 283.699602 
L 190.3845 283.036147 
L 189.54018 282.372691 
L 189.249852 281.709236 
L 188.704747 281.04578 
L 188.28703 280.382325 
L 187.347909 279.718869 
L 186.379162 279.055414 
L 183.203332 278.391958 
L 182.714515 277.728503 
L 181.437666 277.065047 
L 181.31324 276.401592 
L 180.483732 275.738136 
L 180.04824 274.411225 
L 179.123932 273.74777 
L 176.069565 273.084314 
L 175.625186 272.420859 
L 175.47706 271.757403 
L 174.511276 271.093948 
L 174.037271 270.430492 
L 173.915807 269.767037 
L 173.720281 269.103581 
L 173.243314 268.440126 
L 172.84041 267.77667 
L 172.736721 267.113215 
L 170.748865 266.449759 
L 170.44965 265.786304 
L 170.369662 265.122848 
L 170.144509 264.459393 
L 169.89862 263.795937 
L 168.86766 263.132482 
L 168.544744 262.469026 
L 168.532894 261.805571 
L 167.943351 261.142115 
L 167.413059 260.47866 
L 166.097696 259.815204 
L 164.957123 259.151749 
L 164.835659 258.488293 
L 164.112803 257.824838 
L 164.018002 257.161382 
L 163.952826 256.497927 
L 163.283295 255.834471 
L 162.358986 255.171016 
L 162.219747 254.50756 
L 161.716118 253.844105 
L 161.493928 253.180649 
L 161.399127 252.517194 
L 160.637757 251.853738 
L 160.566657 251.190283 
L 160.385943 250.526827 
L 160.362242 249.863372 
L 159.452746 249.199916 
L 157.974445 248.536461 
L 157.870756 247.873005 
L 157.310839 247.20955 
L 157.127162 246.546094 
L 156.981998 245.882639 
L 156.682783 245.219183 
L 156.122865 244.555728 
L 155.530359 243.892272 
L 154.623826 243.228817 
L 154.502362 242.565361 
L 154.496437 241.901906 
L 154.179447 241.23845 
L 153.856531 240.574995 
L 153.767655 239.911539 
L 153.385489 239.248084 
L 150.828828 238.584628 
L 149.916369 237.921173 
L 149.640854 237.257717 
L 149.593453 236.594262 
L 149.312013 235.930806 
L 148.358079 235.267351 
L 148.328454 234.603895 
L 148.248466 233.94044 
L 147.626335 233.276984 
L 146.933103 232.613529 
L 146.796827 231.950073 
L 146.328748 231.286618 
L 146.305047 230.623162 
L 145.605891 229.959707 
L 144.616406 229.296251 
L 144.598631 228.632796 
L 144.16314 227.96934 
L 143.461021 227.305885 
L 143.256606 226.642429 
L 143.232906 225.978974 
L 143.170693 225.315518 
L 143.161805 224.652063 
L 142.421173 223.988607 
L 141.259862 223.325152 
L 140.993235 222.661696 
L 140.590331 221.998241 
L 140.071889 221.334785 
L 139.855624 220.67133 
L 139.538634 220.007874 
L 138.540262 219.344419 
L 138.027744 218.680963 
L 137.624841 218.017508 
L 137.109361 217.354052 
L 137.041223 216.690597 
L 136.836808 216.027141 
L 136.602769 215.363686 
L 136.318366 214.70023 
L 136.137652 214.036775 
L 135.847324 213.373319 
L 135.595509 212.709864 
L 135.536258 212.046408 
L 135.477008 211.382953 
L 135.011891 210.719497 
L 134.768964 210.056042 
L 134.662313 209.392586 
L 133.951306 208.729131 
L 133.607653 208.065675 
L 133.391388 207.40222 
L 133.305475 206.738764 
L 133.133648 206.075309 
L 132.872946 205.411853 
L 132.535218 204.748398 
L 132.324878 204.084942 
L 132.058251 203.421487 
L 130.180008 202.758031 
L 129.3505 202.094576 
L 129.063135 201.43112 
L 128.54173 200.767665 
L 127.318206 200.104209 
L 127.152304 199.440754 
L 126.897527 198.777298 
L 126.764213 198.113843 
L 126.702 197.450387 
L 126.334647 196.786932 
L 126.281321 196.123476 
L 125.985069 195.460021 
L 125.967293 194.796565 
L 125.89323 194.13311 
L 125.742141 193.469654 
L 125.632528 192.806199 
L 125.466626 192.142743 
L 125.152598 191.479288 
L 125.042985 190.815832 
L 125.001509 190.152377 
L 124.758582 189.488921 
L 124.370491 188.825466 
L 123.683184 188.16201 
L 123.434332 187.498555 
L 123.348419 186.835099 
L 122.871452 186.171644 
L 122.640374 185.508188 
L 122.495211 184.844733 
L 122.492248 184.181277 
L 122.430035 183.517822 
L 122.231546 182.854366 
L 121.721991 182.190911 
L 121.60349 181.527455 
L 120.732507 180.864 
L 120.498467 180.200545 
L 120.231839 179.537089 
L 120.196289 178.873634 
L 120.077788 178.210178 
L 119.917811 177.546723 
L 119.562308 176.883267 
L 119.50602 176.219812 
L 119.488245 175.556356 
L 119.420107 174.892901 
L 119.396406 174.229445 
L 118.836489 173.56599 
L 118.47506 172.902534 
L 118.353597 172.239079 
L 118.246946 171.575623 
L 117.91218 170.912168 
L 117.518164 170.248712 
L 117.215986 169.585257 
L 117.168585 168.921801 
L 116.866408 168.258346 
L 116.848632 167.59489 
L 116.807157 166.931435 
L 116.786419 166.267979 
L 116.030975 165.604524 
L 115.945061 164.941068 
L 115.918399 164.277613 
L 115.693247 163.614157 
L 114.7719 162.950702 
L 114.668212 162.287246 
L 114.057931 161.623791 
L 113.942393 160.960335 
L 113.838704 160.29688 
L 112.277452 159.633424 
L 112.132288 158.969969 
L 111.800485 158.306513 
L 111.519045 157.643058 
L 111.30278 157.643058 
L 110.929502 156.979602 
L 110.813963 156.316147 
L 110.621399 155.652691 
L 110.257008 154.989236 
L 109.833366 154.32578 
L 109.809666 153.662325 
L 109.519338 153.662325 
L 109.131247 152.998869 
L 109.054222 152.335414 
L 108.399503 151.671958 
L 108.32544 151.008503 
L 107.795147 150.345047 
L 107.463344 149.681592 
L 107.29448 149.018136 
L 107.125616 148.354681 
L 106.586436 147.691225 
L 106.524223 147.02777 
L 105.928755 145.700859 
L 105.70064 145.037403 
L 105.596951 144.373948 
L 105.3955 143.710492 
L 104.992596 143.047037 
L 104.770406 142.383581 
L 104.749668 141.720126 
L 104.648943 141.05667 
L 104.515629 140.393215 
L 103.899423 139.729759 
L 103.834247 139.066304 
L 103.730559 138.402848 
L 103.132128 137.739393 
L 102.877351 137.075937 
L 102.80625 136.412482 
L 102.675899 135.749026 
L 102.640349 135.085571 
L 101.801953 134.422115 
L 101.295361 133.75866 
L 101.120572 133.095204 
L 100.856907 132.431749 
L 100.809506 131.768293 
L 100.729518 131.104838 
L 100.640642 130.441382 
L 100.536954 129.777927 
L 100.531029 129.114471 
L 100.468816 128.451016 
L 100.249589 127.78756 
L 100.217001 127.124105 
L 99.535619 126.460649 
L 99.488219 125.797194 
L 99.351943 125.133738 
L 98.578723 124.470283 
L 98.531322 123.806827 
L 98.371346 123.143372 
L 98.003992 122.479916 
L 97.609976 121.816461 
L 97.604051 121.153005 
L 97.414449 120.48955 
L 97.118197 119.826094 
L 97.035246 119.162639 
L 96.893044 118.499183 
L 96.365715 117.835728 
L 96.267951 117.172272 
L 96.10205 116.508817 
L 96.057612 115.845361 
L 95.562869 115.845361 
L 95.438443 115.181906 
L 95.014802 114.51845 
L 94.460809 113.854995 
L 94.161594 113.191539 
L 94.137894 112.528084 
L 94.07568 111.864628 
L 93.103971 111.201173 
L 92.834381 110.537717 
L 92.792906 109.874262 
L 92.665517 109.210806 
L 92.629967 108.547351 
L 92.324826 107.883895 
L 92.221138 107.22044 
L 91.738246 106.556984 
L 91.421255 105.893529 
L 91.311642 105.230073 
L 91.213878 104.566618 
L 90.8643 103.903162 
L 90.736911 103.239707 
L 90.319195 102.576251 
L 89.839266 101.912796 
L 89.599301 101.24934 
L 89.095671 100.585885 
L 88.633517 99.922429 
L 87.883997 99.258974 
L 87.827709 98.595518 
L 87.110777 97.932063 
L 87.066339 97.268607 
L 86.856 96.605152 
L 85.907991 96.605152 
L 85.5673 95.941696 
L 85.460649 95.278241 
L 84.690392 94.614785 
L 84.565966 93.95133 
L 84.551153 93.287874 
L 84.426727 92.624419 
L 84.21935 91.960963 
L 84.186762 91.297508 
L 83.98531 90.634052 
L 83.650545 89.970597 
L 83.63277 89.307141 
L 83.623882 88.643686 
L 83.582407 87.98023 
L 83.472793 87.316775 
L 83.416505 86.653319 
L 83.10544 85.989864 
L 83.049152 85.326408 
L 83.043227 84.662953 
L 82.844737 84.662953 
L 82.823999 83.999497 
L 82.687723 83.336042 
L 82.483309 83.336042 
L 82.163356 82.672586 
L 82.118918 82.009131 
L 81.976716 81.345675 
L 81.887841 80.68222 
L 81.855253 80.018764 
L 81.796002 79.355309 
L 81.701201 78.691853 
L 81.5116 78.028398 
L 81.185722 77.364942 
L 80.667279 77.364942 
L 80.622841 76.701487 
L 80.557666 76.038031 
L 79.651132 75.374576 
L 79.562256 74.71112 
L 79.423017 74.047665 
L 79.351917 73.384209 
L 79.126765 72.720754 
L 78.836437 72.720754 
L 78.726823 72.057298 
L 78.569809 71.393843 
L 78.510559 70.730387 
L 78.466121 70.066932 
L 78.273557 70.066932 
L 78.178756 70.066932 
L 78.095805 70.066932 
L 78.069142 69.403476 
L 76.946344 68.740021 
L 76.667866 68.740021 
L 76.389389 68.740021 
L 75.873909 68.740021 
L 75.607281 68.076565 
L 75.494705 68.076565 
L 75.346579 67.41311 
L 75.242891 66.749654 
L 74.700748 66.749654 
L 74.588172 66.749654 
L 74.063804 66.749654 
L 73.832727 66.749654 
z
" clip-path="url(#p014ce38028)" style="fill: #7cfc00"/>
   </g>
   <g id="PolyCollection_3">
    <path d="M 73.832727 54.144 
L 73.832727 66.749654 
L 74.063804 66.749654 
L 74.588172 66.749654 
L 74.700748 66.749654 
L 75.242891 66.749654 
L 75.346579 67.41311 
L 75.494705 68.076565 
L 75.607281 68.076565 
L 75.873909 68.740021 
L 76.389389 68.740021 
L 76.667866 68.740021 
L 76.946344 68.740021 
L 78.069142 69.403476 
L 78.095805 70.066932 
L 78.178756 70.066932 
L 78.273557 70.066932 
L 78.466121 70.066932 
L 78.510559 70.730387 
L 78.569809 71.393843 
L 78.726823 72.057298 
L 78.836437 72.720754 
L 79.126765 72.720754 
L 79.351917 73.384209 
L 79.423017 74.047665 
L 79.562256 74.71112 
L 79.651132 75.374576 
L 80.557666 76.038031 
L 80.622841 76.701487 
L 80.667279 77.364942 
L 81.185722 77.364942 
L 81.5116 78.028398 
L 81.701201 78.691853 
L 81.796002 79.355309 
L 81.855253 80.018764 
L 81.887841 80.68222 
L 81.976716 81.345675 
L 82.118918 82.009131 
L 82.163356 82.672586 
L 82.483309 83.336042 
L 82.687723 83.336042 
L 82.823999 83.999497 
L 82.844737 84.662953 
L 83.043227 84.662953 
L 83.049152 85.326408 
L 83.10544 85.989864 
L 83.416505 86.653319 
L 83.472793 87.316775 
L 83.582407 87.98023 
L 83.623882 88.643686 
L 83.63277 89.307141 
L 83.650545 89.970597 
L 83.98531 90.634052 
L 84.186762 91.297508 
L 84.21935 91.960963 
L 84.426727 92.624419 
L 84.551153 93.287874 
L 84.565966 93.95133 
L 84.690392 94.614785 
L 85.460649 95.278241 
L 85.5673 95.941696 
L 85.907991 96.605152 
L 86.856 96.605152 
L 87.066339 97.268607 
L 87.110777 97.932063 
L 87.827709 98.595518 
L 87.883997 99.258974 
L 88.633517 99.922429 
L 89.095671 100.585885 
L 89.599301 101.24934 
L 89.839266 101.912796 
L 90.319195 102.576251 
L 90.736911 103.239707 
L 90.8643 103.903162 
L 91.213878 104.566618 
L 91.311642 105.230073 
L 91.421255 105.893529 
L 91.738246 106.556984 
L 92.221138 107.22044 
L 92.324826 107.883895 
L 92.629967 108.547351 
L 92.665517 109.210806 
L 92.792906 109.874262 
L 92.834381 110.537717 
L 93.103971 111.201173 
L 94.07568 111.864628 
L 94.137894 112.528084 
L 94.161594 113.191539 
L 94.460809 113.854995 
L 95.014802 114.51845 
L 95.438443 115.181906 
L 95.562869 115.845361 
L 96.057612 115.845361 
L 96.10205 116.508817 
L 96.267951 117.172272 
L 96.365715 117.835728 
L 96.893044 118.499183 
L 97.035246 119.162639 
L 97.118197 119.826094 
L 97.414449 120.48955 
L 97.604051 121.153005 
L 97.609976 121.816461 
L 98.003992 122.479916 
L 98.371346 123.143372 
L 98.531322 123.806827 
L 98.578723 124.470283 
L 99.351943 125.133738 
L 99.488219 125.797194 
L 99.535619 126.460649 
L 100.217001 127.124105 
L 100.249589 127.78756 
L 100.468816 128.451016 
L 100.531029 129.114471 
L 100.536954 129.777927 
L 100.640642 130.441382 
L 100.729518 131.104838 
L 100.809506 131.768293 
L 100.856907 132.431749 
L 101.120572 133.095204 
L 101.295361 133.75866 
L 101.801953 134.422115 
L 102.640349 135.085571 
L 102.675899 135.749026 
L 102.80625 136.412482 
L 102.877351 137.075937 
L 103.132128 137.739393 
L 103.730559 138.402848 
L 103.834247 139.066304 
L 103.899423 139.729759 
L 104.515629 140.393215 
L 104.648943 141.05667 
L 104.749668 141.720126 
L 104.770406 142.383581 
L 104.992596 143.047037 
L 105.3955 143.710492 
L 105.596951 144.373948 
L 105.70064 145.037403 
L 105.928755 145.700859 
L 106.524223 147.02777 
L 106.586436 147.691225 
L 107.125616 148.354681 
L 107.29448 149.018136 
L 107.463344 149.681592 
L 107.795147 150.345047 
L 108.32544 151.008503 
L 108.399503 151.671958 
L 109.054222 152.335414 
L 109.131247 152.998869 
L 109.519338 153.662325 
L 109.809666 153.662325 
L 109.833366 154.32578 
L 110.257008 154.989236 
L 110.621399 155.652691 
L 110.813963 156.316147 
L 110.929502 156.979602 
L 111.30278 157.643058 
L 111.519045 157.643058 
L 111.800485 158.306513 
L 112.132288 158.969969 
L 112.277452 159.633424 
L 113.838704 160.29688 
L 113.942393 160.960335 
L 114.057931 161.623791 
L 114.668212 162.287246 
L 114.7719 162.950702 
L 115.693247 163.614157 
L 115.918399 164.277613 
L 115.945061 164.941068 
L 116.030975 165.604524 
L 116.786419 166.267979 
L 116.807157 166.931435 
L 116.848632 167.59489 
L 116.866408 168.258346 
L 117.168585 168.921801 
L 117.215986 169.585257 
L 117.518164 170.248712 
L 117.91218 170.912168 
L 118.246946 171.575623 
L 118.353597 172.239079 
L 118.47506 172.902534 
L 118.836489 173.56599 
L 119.396406 174.229445 
L 119.420107 174.892901 
L 119.488245 175.556356 
L 119.50602 176.219812 
L 119.562308 176.883267 
L 119.917811 177.546723 
L 120.077788 178.210178 
L 120.196289 178.873634 
L 120.231839 179.537089 
L 120.498467 180.200545 
L 120.732507 180.864 
L 121.60349 181.527455 
L 121.721991 182.190911 
L 122.231546 182.854366 
L 122.430035 183.517822 
L 122.492248 184.181277 
L 122.495211 184.844733 
L 122.640374 185.508188 
L 122.871452 186.171644 
L 123.348419 186.835099 
L 123.434332 187.498555 
L 123.683184 188.16201 
L 124.370491 188.825466 
L 124.758582 189.488921 
L 125.001509 190.152377 
L 125.042985 190.815832 
L 125.152598 191.479288 
L 125.466626 192.142743 
L 125.632528 192.806199 
L 125.742141 193.469654 
L 125.89323 194.13311 
L 125.967293 194.796565 
L 125.985069 195.460021 
L 126.281321 196.123476 
L 126.334647 196.786932 
L 126.702 197.450387 
L 126.764213 198.113843 
L 126.897527 198.777298 
L 127.152304 199.440754 
L 127.318206 200.104209 
L 128.54173 200.767665 
L 129.063135 201.43112 
L 129.3505 202.094576 
L 130.180008 202.758031 
L 132.058251 203.421487 
L 132.324878 204.084942 
L 132.535218 204.748398 
L 132.872946 205.411853 
L 133.133648 206.075309 
L 133.305475 206.738764 
L 133.391388 207.40222 
L 133.607653 208.065675 
L 133.951306 208.729131 
L 134.662313 209.392586 
L 134.768964 210.056042 
L 135.011891 210.719497 
L 135.477008 211.382953 
L 135.536258 212.046408 
L 135.595509 212.709864 
L 135.847324 213.373319 
L 136.137652 214.036775 
L 136.318366 214.70023 
L 136.602769 215.363686 
L 136.836808 216.027141 
L 137.041223 216.690597 
L 137.109361 217.354052 
L 137.624841 218.017508 
L 138.027744 218.680963 
L 138.540262 219.344419 
L 139.538634 220.007874 
L 139.855624 220.67133 
L 140.071889 221.334785 
L 140.590331 221.998241 
L 140.993235 222.661696 
L 141.259862 223.325152 
L 142.421173 223.988607 
L 143.161805 224.652063 
L 143.170693 225.315518 
L 143.232906 225.978974 
L 143.256606 226.642429 
L 143.461021 227.305885 
L 144.16314 227.96934 
L 144.598631 228.632796 
L 144.616406 229.296251 
L 145.605891 229.959707 
L 146.305047 230.623162 
L 146.328748 231.286618 
L 146.796827 231.950073 
L 146.933103 232.613529 
L 147.626335 233.276984 
L 148.248466 233.94044 
L 148.328454 234.603895 
L 148.358079 235.267351 
L 149.312013 235.930806 
L 149.593453 236.594262 
L 149.640854 237.257717 
L 149.916369 237.921173 
L 150.828828 238.584628 
L 153.385489 239.248084 
L 153.767655 239.911539 
L 153.856531 240.574995 
L 154.179447 241.23845 
L 154.496437 241.901906 
L 154.502362 242.565361 
L 154.623826 243.228817 
L 155.530359 243.892272 
L 156.122865 244.555728 
L 156.682783 245.219183 
L 156.981998 245.882639 
L 157.127162 246.546094 
L 157.310839 247.20955 
L 157.870756 247.873005 
L 157.974445 248.536461 
L 159.452746 249.199916 
L 160.362242 249.863372 
L 160.385943 250.526827 
L 160.566657 251.190283 
L 160.637757 251.853738 
L 161.399127 252.517194 
L 161.493928 253.180649 
L 161.716118 253.844105 
L 162.219747 254.50756 
L 162.358986 255.171016 
L 163.283295 255.834471 
L 163.952826 256.497927 
L 164.018002 257.161382 
L 164.112803 257.824838 
L 164.835659 258.488293 
L 164.957123 259.151749 
L 166.097696 259.815204 
L 167.413059 260.47866 
L 167.943351 261.142115 
L 168.532894 261.805571 
L 168.544744 262.469026 
L 168.86766 263.132482 
L 169.89862 263.795937 
L 170.144509 264.459393 
L 170.369662 265.122848 
L 170.44965 265.786304 
L 170.748865 266.449759 
L 172.736721 267.113215 
L 172.84041 267.77667 
L 173.243314 268.440126 
L 173.720281 269.103581 
L 173.915807 269.767037 
L 174.037271 270.430492 
L 174.511276 271.093948 
L 175.47706 271.757403 
L 175.625186 272.420859 
L 176.069565 273.084314 
L 179.123932 273.74777 
L 180.04824 274.411225 
L 180.483732 275.738136 
L 181.31324 276.401592 
L 181.437666 277.065047 
L 182.714515 277.728503 
L 183.203332 278.391958 
L 186.379162 279.055414 
L 187.347909 279.718869 
L 188.28703 280.382325 
L 188.704747 281.04578 
L 189.249852 281.709236 
L 189.54018 282.372691 
L 190.3845 283.036147 
L 193.826958 283.699602 
L 194.182461 284.363058 
L 195.151207 285.026513 
L 196.069591 285.689969 
L 196.146617 286.353424 
L 199.512049 287.01688 
L 200.151955 287.680335 
L 206.799867 288.343791 
L 209.839421 289.007246 
L 211.273284 289.670702 
L 211.942816 290.334157 
L 212.544209 290.997613 
L 213.536656 291.661068 
L 217.091689 292.324524 
L 221.19479 292.987979 
L 223.206347 293.651435 
L 230.660067 294.31489 
L 234.973508 294.978346 
L 235.894854 295.641801 
L 238.161188 296.305257 
L 238.795169 296.968712 
L 243.547063 297.632168 
L 244.266958 298.295623 
L 245.167566 298.959079 
L 245.872648 299.622534 
L 246.080025 300.28599 
L 251.409612 300.949445 
L 272.064357 301.612901 
L 281.254118 302.276356 
L 282.021413 302.939812 
L 283.55304 303.603267 
L 287.887218 304.266723 
L 310.680908 304.930178 
L 330.313581 305.593634 
L 333.107244 306.257089 
L 398.487273 306.920545 
L 398.487273 306.920545 
L 398.487273 306.920545 
L 333.107244 306.257089 
L 330.313581 305.593634 
L 310.680908 304.930178 
L 287.887218 304.266723 
L 283.55304 303.603267 
L 282.021413 302.939812 
L 281.254118 302.276356 
L 272.064357 301.612901 
L 251.409612 300.949445 
L 246.080025 300.28599 
L 245.872648 299.622534 
L 245.167566 298.959079 
L 244.266958 298.295623 
L 243.547063 297.632168 
L 238.795169 296.968712 
L 238.161188 296.305257 
L 235.894854 295.641801 
L 234.973508 294.978346 
L 230.660067 294.31489 
L 223.206347 293.651435 
L 221.19479 292.987979 
L 217.091689 292.324524 
L 213.536656 291.661068 
L 212.544209 290.997613 
L 211.942816 290.334157 
L 211.273284 289.670702 
L 209.839421 289.007246 
L 206.799867 288.343791 
L 200.151955 287.680335 
L 199.512049 287.01688 
L 196.146617 286.353424 
L 196.069591 285.689969 
L 195.151207 285.026513 
L 194.182461 284.363058 
L 193.826958 283.699602 
L 190.3845 283.036147 
L 189.54018 282.372691 
L 189.249852 281.709236 
L 188.704747 281.04578 
L 188.28703 280.382325 
L 187.347909 279.718869 
L 186.379162 279.055414 
L 183.203332 278.391958 
L 182.714515 277.728503 
L 181.437666 277.065047 
L 181.31324 276.401592 
L 180.483732 275.738136 
L 180.04824 274.411225 
L 179.123932 273.74777 
L 176.069565 273.084314 
L 175.625186 272.420859 
L 175.47706 271.757403 
L 174.511276 271.093948 
L 174.037271 270.430492 
L 173.915807 269.767037 
L 173.720281 269.103581 
L 173.243314 268.440126 
L 172.84041 267.77667 
L 172.736721 267.113215 
L 170.748865 266.449759 
L 170.44965 265.786304 
L 170.369662 265.122848 
L 170.144509 264.459393 
L 169.89862 263.795937 
L 168.86766 263.132482 
L 168.544744 262.469026 
L 168.532894 261.805571 
L 167.943351 261.142115 
L 167.413059 260.47866 
L 166.097696 259.815204 
L 164.957123 259.151749 
L 164.835659 258.488293 
L 164.112803 257.824838 
L 164.018002 257.161382 
L 163.952826 256.497927 
L 163.283295 255.834471 
L 162.358986 255.171016 
L 162.219747 254.50756 
L 161.716118 253.844105 
L 161.493928 253.180649 
L 161.399127 252.517194 
L 160.637757 251.853738 
L 160.566657 251.190283 
L 160.385943 250.526827 
L 160.362242 249.863372 
L 159.452746 249.199916 
L 157.974445 248.536461 
L 157.870756 247.873005 
L 157.310839 247.20955 
L 157.127162 246.546094 
L 156.981998 245.882639 
L 156.682783 245.219183 
L 156.122865 244.555728 
L 155.530359 243.892272 
L 154.623826 243.228817 
L 154.502362 242.565361 
L 154.496437 241.901906 
L 154.179447 241.23845 
L 153.856531 240.574995 
L 153.767655 239.911539 
L 153.385489 239.248084 
L 150.828828 238.584628 
L 149.916369 237.921173 
L 149.640854 237.257717 
L 149.593453 236.594262 
L 149.312013 235.930806 
L 148.358079 235.267351 
L 148.328454 234.603895 
L 148.248466 233.94044 
L 147.626335 233.276984 
L 146.933103 232.613529 
L 146.796827 231.950073 
L 146.328748 231.286618 
L 146.305047 230.623162 
L 145.605891 229.959707 
L 144.616406 229.296251 
L 144.598631 228.632796 
L 144.16314 227.96934 
L 143.461021 227.305885 
L 143.256606 226.642429 
L 143.232906 225.978974 
L 143.170693 225.315518 
L 143.161805 224.652063 
L 142.421173 223.988607 
L 141.259862 223.325152 
L 140.993235 222.661696 
L 140.590331 221.998241 
L 140.071889 221.334785 
L 139.855624 220.67133 
L 139.538634 220.007874 
L 138.540262 219.344419 
L 138.027744 218.680963 
L 137.624841 218.017508 
L 137.109361 217.354052 
L 137.041223 216.690597 
L 136.836808 216.027141 
L 136.602769 215.363686 
L 136.318366 214.70023 
L 136.137652 214.036775 
L 135.847324 213.373319 
L 135.595509 212.709864 
L 135.536258 212.046408 
L 135.477008 211.382953 
L 135.011891 210.719497 
L 134.768964 210.056042 
L 134.662313 209.392586 
L 133.951306 208.729131 
L 133.607653 208.065675 
L 133.391388 207.40222 
L 133.305475 206.738764 
L 133.133648 206.075309 
L 132.872946 205.411853 
L 132.535218 204.748398 
L 132.324878 204.084942 
L 132.058251 203.421487 
L 130.180008 202.758031 
L 129.3505 202.094576 
L 129.063135 201.43112 
L 128.54173 200.767665 
L 127.318206 200.104209 
L 127.152304 199.440754 
L 126.897527 198.777298 
L 126.764213 198.113843 
L 126.702 197.450387 
L 126.334647 196.786932 
L 126.281321 196.123476 
L 125.985069 195.460021 
L 125.967293 194.796565 
L 125.89323 194.13311 
L 125.742141 193.469654 
L 125.632528 192.806199 
L 125.466626 192.142743 
L 125.152598 191.479288 
L 125.042985 190.815832 
L 125.001509 190.152377 
L 124.758582 189.488921 
L 124.370491 188.825466 
L 123.683184 188.16201 
L 123.434332 187.498555 
L 123.348419 186.835099 
L 122.871452 186.171644 
L 122.640374 185.508188 
L 122.495211 184.844733 
L 122.492248 184.181277 
L 122.430035 183.517822 
L 122.231546 182.854366 
L 121.721991 182.190911 
L 121.60349 181.527455 
L 120.732507 180.864 
L 120.498467 180.200545 
L 120.231839 179.537089 
L 120.196289 178.873634 
L 120.077788 178.210178 
L 119.917811 177.546723 
L 119.562308 176.883267 
L 119.50602 176.219812 
L 119.488245 175.556356 
L 119.420107 174.892901 
L 119.396406 174.229445 
L 118.836489 173.56599 
L 118.47506 172.902534 
L 118.353597 172.239079 
L 118.246946 171.575623 
L 117.91218 170.912168 
L 117.518164 170.248712 
L 117.215986 169.585257 
L 117.168585 168.921801 
L 116.866408 168.258346 
L 116.848632 167.59489 
L 116.807157 166.931435 
L 116.786419 166.267979 
L 116.030975 165.604524 
L 115.945061 164.941068 
L 115.918399 164.277613 
L 115.693247 163.614157 
L 114.7719 162.950702 
L 114.668212 162.287246 
L 114.057931 161.623791 
L 113.942393 160.960335 
L 113.838704 160.29688 
L 112.277452 159.633424 
L 112.132288 158.969969 
L 111.800485 158.306513 
L 111.519045 157.643058 
L 111.30278 156.979602 
L 110.929502 156.316147 
L 110.813963 155.652691 
L 110.621399 154.989236 
L 110.257008 154.32578 
L 109.833366 153.662325 
L 109.809666 152.998869 
L 109.519338 152.335414 
L 109.131247 151.671958 
L 109.054222 151.008503 
L 108.399503 150.345047 
L 108.32544 149.681592 
L 107.795147 149.018136 
L 107.463344 148.354681 
L 107.29448 147.691225 
L 107.125616 147.02777 
L 106.586436 146.364314 
L 106.524223 145.700859 
L 105.928755 144.373948 
L 105.70064 143.710492 
L 105.596951 143.047037 
L 105.3955 142.383581 
L 104.992596 141.720126 
L 104.770406 141.05667 
L 104.749668 140.393215 
L 104.648943 139.729759 
L 104.515629 139.066304 
L 103.899423 138.402848 
L 103.834247 137.739393 
L 103.730559 137.075937 
L 103.132128 136.412482 
L 102.877351 135.749026 
L 102.80625 135.085571 
L 102.675899 134.422115 
L 102.640349 133.75866 
L 101.801953 133.095204 
L 101.295361 132.431749 
L 101.120572 131.768293 
L 100.856907 131.104838 
L 100.809506 130.441382 
L 100.729518 129.777927 
L 100.640642 129.114471 
L 100.536954 128.451016 
L 100.531029 127.78756 
L 100.468816 127.124105 
L 100.249589 126.460649 
L 100.217001 125.797194 
L 99.535619 125.133738 
L 99.488219 124.470283 
L 99.351943 123.806827 
L 98.578723 123.143372 
L 98.531322 122.479916 
L 98.371346 121.816461 
L 98.003992 121.153005 
L 97.609976 120.48955 
L 97.604051 119.826094 
L 97.414449 119.162639 
L 97.118197 118.499183 
L 97.035246 117.835728 
L 96.893044 117.172272 
L 96.365715 116.508817 
L 96.267951 115.845361 
L 96.10205 115.181906 
L 96.057612 114.51845 
L 95.562869 113.854995 
L 95.438443 113.191539 
L 95.014802 112.528084 
L 94.460809 111.864628 
L 94.161594 111.201173 
L 94.137894 110.537717 
L 94.07568 109.874262 
L 93.103971 109.210806 
L 92.834381 108.547351 
L 92.792906 107.883895 
L 92.665517 107.22044 
L 92.629967 106.556984 
L 92.324826 105.893529 
L 92.221138 105.230073 
L 91.738246 104.566618 
L 91.421255 103.903162 
L 91.311642 103.239707 
L 91.213878 102.576251 
L 90.8643 101.912796 
L 90.736911 101.24934 
L 90.319195 100.585885 
L 89.839266 99.922429 
L 89.599301 99.258974 
L 89.095671 98.595518 
L 88.633517 97.932063 
L 87.883997 97.268607 
L 87.827709 96.605152 
L 87.110777 95.941696 
L 87.066339 95.278241 
L 86.856 94.614785 
L 85.907991 93.95133 
L 85.5673 93.287874 
L 85.460649 92.624419 
L 84.690392 91.960963 
L 84.565966 91.297508 
L 84.551153 90.634052 
L 84.426727 89.970597 
L 84.21935 89.307141 
L 84.186762 88.643686 
L 83.98531 87.98023 
L 83.650545 87.316775 
L 83.63277 86.653319 
L 83.623882 85.989864 
L 83.582407 85.326408 
L 83.472793 84.662953 
L 83.416505 83.999497 
L 83.10544 83.336042 
L 83.049152 82.672586 
L 83.043227 82.009131 
L 82.844737 81.345675 
L 82.823999 80.68222 
L 82.687723 80.018764 
L 82.483309 79.355309 
L 82.163356 78.691853 
L 82.118918 78.028398 
L 81.976716 77.364942 
L 81.887841 76.701487 
L 81.855253 76.038031 
L 81.796002 75.374576 
L 81.701201 74.71112 
L 81.5116 74.047665 
L 81.185722 73.384209 
L 80.667279 72.720754 
L 80.622841 72.057298 
L 80.557666 71.393843 
L 79.651132 70.730387 
L 79.562256 70.066932 
L 79.423017 69.403476 
L 79.351917 68.740021 
L 79.126765 68.076565 
L 78.836437 67.41311 
L 78.726823 66.749654 
L 78.569809 66.086199 
L 78.510559 65.422743 
L 78.466121 64.759288 
L 78.273557 64.095832 
L 78.178756 63.432377 
L 78.095805 62.768921 
L 78.069142 62.105466 
L 76.946344 61.44201 
L 76.667866 60.778555 
L 76.389389 60.115099 
L 75.873909 59.451644 
L 75.607281 58.788188 
L 75.494705 58.124733 
L 75.346579 57.461277 
L 75.242891 56.797822 
L 74.700748 56.134366 
L 74.588172 55.470911 
L 74.063804 54.807455 
L 73.832727 54.144 
z
" clip-path="url(#p014ce38028)" style="fill: #ff0000"/>
   </g>
   <g id="matplotlib.axis_1">
    <g id="xtick_1">
     <g id="line2d_1">
      <defs>
       <path id="m45d79516d7" d="M 0 0 
L 0 3.5 
" style="stroke: #000000; stroke-width: 0.8"/>
      </defs>
      <g>
       <use xlink:href="#m45d79516d7" x="57.90914" y="307.584" style="stroke: #000000; stroke-width: 0.8"/>
      </g>
     </g>
     <g id="text_1">
      <!-- 0 -->
      <g transform="translate(54.72789 322.182437)scale(0.1 -0.1)">
       <defs>
        <path id="DejaVuSans-30" d="M 2034 4250 
Q 1547 4250 1301 3770 
Q 1056 3291 1056 2328 
Q 1056 1369 1301 889 
Q 1547 409 2034 409 
Q 2525 409 2770 889 
Q 3016 1369 3016 2328 
Q 3016 3291 2770 3770 
Q 2525 4250 2034 4250 
z
M 2034 4750 
Q 2819 4750 3233 4129 
Q 3647 3509 3647 2328 
Q 3647 1150 3233 529 
Q 2819 -91 2034 -91 
Q 1250 -91 836 529 
Q 422 1150 422 2328 
Q 422 3509 836 4129 
Q 1250 4750 2034 4750 
z
" transform="scale(0.015625)"/>
       </defs>
       <use xlink:href="#DejaVuSans-30"/>
      </g>
     </g>
    </g>
    <g id="xtick_2">
     <g id="line2d_2">
      <g>
       <use xlink:href="#m45d79516d7" x="117.159698" y="307.584" style="stroke: #000000; stroke-width: 0.8"/>
      </g>
     </g>
     <g id="text_2">
      <!-- 200 -->
      <g transform="translate(107.615948 322.182437)scale(0.1 -0.1)">
       <defs>
        <path id="DejaVuSans-32" d="M 1228 531 
L 3431 531 
L 3431 0 
L 469 0 
L 469 531 
Q 828 903 1448 1529 
Q 2069 2156 2228 2338 
Q 2531 2678 2651 2914 
Q 2772 3150 2772 3378 
Q 2772 3750 2511 3984 
Q 2250 4219 1831 4219 
Q 1534 4219 1204 4116 
Q 875 4013 500 3803 
L 500 4441 
Q 881 4594 1212 4672 
Q 1544 4750 1819 4750 
Q 2544 4750 2975 4387 
Q 3406 4025 3406 3419 
Q 3406 3131 3298 2873 
Q 3191 2616 2906 2266 
Q 2828 2175 2409 1742 
Q 1991 1309 1228 531 
z
" transform="scale(0.015625)"/>
       </defs>
       <use xlink:href="#DejaVuSans-32"/>
       <use xlink:href="#DejaVuSans-30" x="63.623047"/>
       <use xlink:href="#DejaVuSans-30" x="127.246094"/>
      </g>
     </g>
    </g>
    <g id="xtick_3">
     <g id="line2d_3">
      <g>
       <use xlink:href="#m45d79516d7" x="176.410256" y="307.584" style="stroke: #000000; stroke-width: 0.8"/>
      </g>
     </g>
     <g id="text_3">
      <!-- 400 -->
      <g transform="translate(166.866506 322.182437)scale(0.1 -0.1)">
       <defs>
        <path id="DejaVuSans-34" d="M 2419 4116 
L 825 1625 
L 2419 1625 
L 2419 4116 
z
M 2253 4666 
L 3047 4666 
L 3047 1625 
L 3713 1625 
L 3713 1100 
L 3047 1100 
L 3047 0 
L 2419 0 
L 2419 1100 
L 313 1100 
L 313 1709 
L 2253 4666 
z
" transform="scale(0.015625)"/>
       </defs>
       <use xlink:href="#DejaVuSans-34"/>
       <use xlink:href="#DejaVuSans-30" x="63.623047"/>
       <use xlink:href="#DejaVuSans-30" x="127.246094"/>
      </g>
     </g>
    </g>
    <g id="xtick_4">
     <g id="line2d_4">
      <g>
       <use xlink:href="#m45d79516d7" x="235.660814" y="307.584" style="stroke: #000000; stroke-width: 0.8"/>
      </g>
     </g>
     <g id="text_4">
      <!-- 600 -->
      <g transform="translate(226.117064 322.182437)scale(0.1 -0.1)">
       <defs>
        <path id="DejaVuSans-36" d="M 2113 2584 
Q 1688 2584 1439 2293 
Q 1191 2003 1191 1497 
Q 1191 994 1439 701 
Q 1688 409 2113 409 
Q 2538 409 2786 701 
Q 3034 994 3034 1497 
Q 3034 2003 2786 2293 
Q 2538 2584 2113 2584 
z
M 3366 4563 
L 3366 3988 
Q 3128 4100 2886 4159 
Q 2644 4219 2406 4219 
Q 1781 4219 1451 3797 
Q 1122 3375 1075 2522 
Q 1259 2794 1537 2939 
Q 1816 3084 2150 3084 
Q 2853 3084 3261 2657 
Q 3669 2231 3669 1497 
Q 3669 778 3244 343 
Q 2819 -91 2113 -91 
Q 1303 -91 875 529 
Q 447 1150 447 2328 
Q 447 3434 972 4092 
Q 1497 4750 2381 4750 
Q 2619 4750 2861 4703 
Q 3103 4656 3366 4563 
z
" transform="scale(0.015625)"/>
       </defs>
       <use xlink:href="#DejaVuSans-36"/>
       <use xlink:href="#DejaVuSans-30" x="63.623047"/>
       <use xlink:href="#DejaVuSans-30" x="127.246094"/>
      </g>
     </g>
    </g>
    <g id="xtick_5">
     <g id="line2d_5">
      <g>
       <use xlink:href="#m45d79516d7" x="294.911372" y="307.584" style="stroke: #000000; stroke-width: 0.8"/>
      </g>
     </g>
     <g id="text_5">
      <!-- 800 -->
      <g transform="translate(285.367622 322.182437)scale(0.1 -0.1)">
       <defs>
        <path id="DejaVuSans-38" d="M 2034 2216 
Q 1584 2216 1326 1975 
Q 1069 1734 1069 1313 
Q 1069 891 1326 650 
Q 1584 409 2034 409 
Q 2484 409 2743 651 
Q 3003 894 3003 1313 
Q 3003 1734 2745 1975 
Q 2488 2216 2034 2216 
z
M 1403 2484 
Q 997 2584 770 2862 
Q 544 3141 544 3541 
Q 544 4100 942 4425 
Q 1341 4750 2034 4750 
Q 2731 4750 3128 4425 
Q 3525 4100 3525 3541 
Q 3525 3141 3298 2862 
Q 3072 2584 2669 2484 
Q 3125 2378 3379 2068 
Q 3634 1759 3634 1313 
Q 3634 634 3220 271 
Q 2806 -91 2034 -91 
Q 1263 -91 848 271 
Q 434 634 434 1313 
Q 434 1759 690 2068 
Q 947 2378 1403 2484 
z
M 1172 3481 
Q 1172 3119 1398 2916 
Q 1625 2713 2034 2713 
Q 2441 2713 2670 2916 
Q 2900 3119 2900 3481 
Q 2900 3844 2670 4047 
Q 2441 4250 2034 4250 
Q 1625 4250 1398 4047 
Q 1172 3844 1172 3481 
z
" transform="scale(0.015625)"/>
       </defs>
       <use xlink:href="#DejaVuSans-38"/>
       <use xlink:href="#DejaVuSans-30" x="63.623047"/>
       <use xlink:href="#DejaVuSans-30" x="127.246094"/>
      </g>
     </g>
    </g>
    <g id="xtick_6">
     <g id="line2d_6">
      <g>
       <use xlink:href="#m45d79516d7" x="354.16193" y="307.584" style="stroke: #000000; stroke-width: 0.8"/>
      </g>
     </g>
     <g id="text_6">
      <!-- 1000 -->
      <g transform="translate(341.43693 322.182437)scale(0.1 -0.1)">
       <defs>
        <path id="DejaVuSans-31" d="M 794 531 
L 1825 531 
L 1825 4091 
L 703 3866 
L 703 4441 
L 1819 4666 
L 2450 4666 
L 2450 531 
L 3481 531 
L 3481 0 
L 794 0 
L 794 531 
z
" transform="scale(0.015625)"/>
       </defs>
       <use xlink:href="#DejaVuSans-31"/>
       <use xlink:href="#DejaVuSans-30" x="63.623047"/>
       <use xlink:href="#DejaVuSans-30" x="127.246094"/>
       <use xlink:href="#DejaVuSans-30" x="190.869141"/>
      </g>
     </g>
    </g>
    <g id="xtick_7">
     <g id="line2d_7">
      <g>
       <use xlink:href="#m45d79516d7" x="413.412488" y="307.584" style="stroke: #000000; stroke-width: 0.8"/>
      </g>
     </g>
     <g id="text_7">
      <!-- 1200 -->
      <g transform="translate(400.687488 322.182437)scale(0.1 -0.1)">
       <use xlink:href="#DejaVuSans-31"/>
       <use xlink:href="#DejaVuSans-32" x="63.623047"/>
       <use xlink:href="#DejaVuSans-30" x="127.246094"/>
       <use xlink:href="#DejaVuSans-30" x="190.869141"/>
      </g>
     </g>
    </g>
    <g id="text_8">
     <!-- Score -->
     <g transform="translate(222.157656 335.860562)scale(0.1 -0.1)">
      <defs>
       <path id="DejaVuSans-53" d="M 3425 4513 
L 3425 3897 
Q 3066 4069 2747 4153 
Q 2428 4238 2131 4238 
Q 1616 4238 1336 4038 
Q 1056 3838 1056 3469 
Q 1056 3159 1242 3001 
Q 1428 2844 1947 2747 
L 2328 2669 
Q 3034 2534 3370 2195 
Q 3706 1856 3706 1288 
Q 3706 609 3251 259 
Q 2797 -91 1919 -91 
Q 1588 -91 1214 -16 
Q 841 59 441 206 
L 441 856 
Q 825 641 1194 531 
Q 1563 422 1919 422 
Q 2459 422 2753 634 
Q 3047 847 3047 1241 
Q 3047 1584 2836 1778 
Q 2625 1972 2144 2069 
L 1759 2144 
Q 1053 2284 737 2584 
Q 422 2884 422 3419 
Q 422 4038 858 4394 
Q 1294 4750 2059 4750 
Q 2388 4750 2728 4690 
Q 3069 4631 3425 4513 
z
" transform="scale(0.015625)"/>
       <path id="DejaVuSans-63" d="M 3122 3366 
L 3122 2828 
Q 2878 2963 2633 3030 
Q 2388 3097 2138 3097 
Q 1578 3097 1268 2742 
Q 959 2388 959 1747 
Q 959 1106 1268 751 
Q 1578 397 2138 397 
Q 2388 397 2633 464 
Q 2878 531 3122 666 
L 3122 134 
Q 2881 22 2623 -34 
Q 2366 -91 2075 -91 
Q 1284 -91 818 406 
Q 353 903 353 1747 
Q 353 2603 823 3093 
Q 1294 3584 2113 3584 
Q 2378 3584 2631 3529 
Q 2884 3475 3122 3366 
z
" transform="scale(0.015625)"/>
       <path id="DejaVuSans-6f" d="M 1959 3097 
Q 1497 3097 1228 2736 
Q 959 2375 959 1747 
Q 959 1119 1226 758 
Q 1494 397 1959 397 
Q 2419 397 2687 759 
Q 2956 1122 2956 1747 
Q 2956 2369 2687 2733 
Q 2419 3097 1959 3097 
z
M 1959 3584 
Q 2709 3584 3137 3096 
Q 3566 2609 3566 1747 
Q 3566 888 3137 398 
Q 2709 -91 1959 -91 
Q 1206 -91 779 398 
Q 353 888 353 1747 
Q 353 2609 779 3096 
Q 1206 3584 1959 3584 
z
" transform="scale(0.015625)"/>
       <path id="DejaVuSans-72" d="M 2631 2963 
Q 2534 3019 2420 3045 
Q 2306 3072 2169 3072 
Q 1681 3072 1420 2755 
Q 1159 2438 1159 1844 
L 1159 0 
L 581 0 
L 581 3500 
L 1159 3500 
L 1159 2956 
Q 1341 3275 1631 3429 
Q 1922 3584 2338 3584 
Q 2397 3584 2469 3576 
Q 2541 3569 2628 3553 
L 2631 2963 
z
" transform="scale(0.015625)"/>
       <path id="DejaVuSans-65" d="M 3597 1894 
L 3597 1613 
L 953 1613 
Q 991 1019 1311 708 
Q 1631 397 2203 397 
Q 2534 397 2845 478 
Q 3156 559 3463 722 
L 3463 178 
Q 3153 47 2828 -22 
Q 2503 -91 2169 -91 
Q 1331 -91 842 396 
Q 353 884 353 1716 
Q 353 2575 817 3079 
Q 1281 3584 2069 3584 
Q 2775 3584 3186 3129 
Q 3597 2675 3597 1894 
z
M 3022 2063 
Q 3016 2534 2758 2815 
Q 2500 3097 2075 3097 
Q 1594 3097 1305 2825 
Q 1016 2553 972 2059 
L 3022 2063 
z
" transform="scale(0.015625)"/>
      </defs>
      <use xlink:href="#DejaVuSans-53"/>
      <use xlink:href="#DejaVuSans-63" x="63.476562"/>
      <use xlink:href="#DejaVuSans-6f" x="118.457031"/>
      <use xlink:href="#DejaVuSans-72" x="179.638672"/>
      <use xlink:href="#DejaVuSans-65" x="218.501953"/>
     </g>
    </g>
   </g>
   <g id="matplotlib.axis_2">
    <g id="ytick_1">
     <g id="line2d_8">
      <defs>
       <path id="mcbfb8ec96f" d="M 0 0 
L -3.5 0 
" style="stroke: #000000; stroke-width: 0.8"/>
      </defs>
      <g>
       <use xlink:href="#mcbfb8ec96f" x="57.6" y="307.584" style="stroke: #000000; stroke-width: 0.8"/>
      </g>
     </g>
     <g id="text_9">
      <!-- 0 -->
      <g transform="translate(44.2375 311.383219)scale(0.1 -0.1)">
       <use xlink:href="#DejaVuSans-30"/>
      </g>
     </g>
    </g>
    <g id="ytick_2">
     <g id="line2d_9">
      <g>
       <use xlink:href="#mcbfb8ec96f" x="57.6" y="274.411225" style="stroke: #000000; stroke-width: 0.8"/>
      </g>
     </g>
     <g id="text_10">
      <!-- 50 -->
      <g transform="translate(37.875 278.210444)scale(0.1 -0.1)">
       <defs>
        <path id="DejaVuSans-35" d="M 691 4666 
L 3169 4666 
L 3169 4134 
L 1269 4134 
L 1269 2991 
Q 1406 3038 1543 3061 
Q 1681 3084 1819 3084 
Q 2600 3084 3056 2656 
Q 3513 2228 3513 1497 
Q 3513 744 3044 326 
Q 2575 -91 1722 -91 
Q 1428 -91 1123 -41 
Q 819 9 494 109 
L 494 744 
Q 775 591 1075 516 
Q 1375 441 1709 441 
Q 2250 441 2565 725 
Q 2881 1009 2881 1497 
Q 2881 1984 2565 2268 
Q 2250 2553 1709 2553 
Q 1456 2553 1204 2497 
Q 953 2441 691 2322 
L 691 4666 
z
" transform="scale(0.015625)"/>
       </defs>
       <use xlink:href="#DejaVuSans-35"/>
       <use xlink:href="#DejaVuSans-30" x="63.623047"/>
      </g>
     </g>
    </g>
    <g id="ytick_3">
     <g id="line2d_10">
      <g>
       <use xlink:href="#mcbfb8ec96f" x="57.6" y="241.23845" style="stroke: #000000; stroke-width: 0.8"/>
      </g>
     </g>
     <g id="text_11">
      <!-- 100 -->
      <g transform="translate(31.5125 245.037669)scale(0.1 -0.1)">
       <use xlink:href="#DejaVuSans-31"/>
       <use xlink:href="#DejaVuSans-30" x="63.623047"/>
       <use xlink:href="#DejaVuSans-30" x="127.246094"/>
      </g>
     </g>
    </g>
    <g id="ytick_4">
     <g id="line2d_11">
      <g>
       <use xlink:href="#mcbfb8ec96f" x="57.6" y="208.065675" style="stroke: #000000; stroke-width: 0.8"/>
      </g>
     </g>
     <g id="text_12">
      <!-- 150 -->
      <g transform="translate(31.5125 211.864894)scale(0.1 -0.1)">
       <use xlink:href="#DejaVuSans-31"/>
       <use xlink:href="#DejaVuSans-35" x="63.623047"/>
       <use xlink:href="#DejaVuSans-30" x="127.246094"/>
      </g>
     </g>
    </g>
    <g id="ytick_5">
     <g id="line2d_12">
      <g>
       <use xlink:href="#mcbfb8ec96f" x="57.6" y="174.892901" style="stroke: #000000; stroke-width: 0.8"/>
      </g>
     </g>
     <g id="text_13">
      <!-- 200 -->
      <g transform="translate(31.5125 178.692119)scale(0.1 -0.1)">
       <use xlink:href="#DejaVuSans-32"/>
       <use xlink:href="#DejaVuSans-30" x="63.623047"/>
       <use xlink:href="#DejaVuSans-30" x="127.246094"/>
      </g>
     </g>
    </g>
    <g id="ytick_6">
     <g id="line2d_13">
      <g>
       <use xlink:href="#mcbfb8ec96f" x="57.6" y="141.720126" style="stroke: #000000; stroke-width: 0.8"/>
      </g>
     </g>
     <g id="text_14">
      <!-- 250 -->
      <g transform="translate(31.5125 145.519344)scale(0.1 -0.1)">
       <use xlink:href="#DejaVuSans-32"/>
       <use xlink:href="#DejaVuSans-35" x="63.623047"/>
       <use xlink:href="#DejaVuSans-30" x="127.246094"/>
      </g>
     </g>
    </g>
    <g id="ytick_7">
     <g id="line2d_14">
      <g>
       <use xlink:href="#mcbfb8ec96f" x="57.6" y="108.547351" style="stroke: #000000; stroke-width: 0.8"/>
      </g>
     </g>
     <g id="text_15">
      <!-- 300 -->
      <g transform="translate(31.5125 112.34657)scale(0.1 -0.1)">
       <defs>
        <path id="DejaVuSans-33" d="M 2597 2516 
Q 3050 2419 3304 2112 
Q 3559 1806 3559 1356 
Q 3559 666 3084 287 
Q 2609 -91 1734 -91 
Q 1441 -91 1130 -33 
Q 819 25 488 141 
L 488 750 
Q 750 597 1062 519 
Q 1375 441 1716 441 
Q 2309 441 2620 675 
Q 2931 909 2931 1356 
Q 2931 1769 2642 2001 
Q 2353 2234 1838 2234 
L 1294 2234 
L 1294 2753 
L 1863 2753 
Q 2328 2753 2575 2939 
Q 2822 3125 2822 3475 
Q 2822 3834 2567 4026 
Q 2313 4219 1838 4219 
Q 1578 4219 1281 4162 
Q 984 4106 628 3988 
L 628 4550 
Q 988 4650 1302 4700 
Q 1616 4750 1894 4750 
Q 2613 4750 3031 4423 
Q 3450 4097 3450 3541 
Q 3450 3153 3228 2886 
Q 3006 2619 2597 2516 
z
" transform="scale(0.015625)"/>
       </defs>
       <use xlink:href="#DejaVuSans-33"/>
       <use xlink:href="#DejaVuSans-30" x="63.623047"/>
       <use xlink:href="#DejaVuSans-30" x="127.246094"/>
      </g>
     </g>
    </g>
    <g id="ytick_8">
     <g id="line2d_15">
      <g>
       <use xlink:href="#mcbfb8ec96f" x="57.6" y="75.374576" style="stroke: #000000; stroke-width: 0.8"/>
      </g>
     </g>
     <g id="text_16">
      <!-- 350 -->
      <g transform="translate(31.5125 79.173795)scale(0.1 -0.1)">
       <use xlink:href="#DejaVuSans-33"/>
       <use xlink:href="#DejaVuSans-35" x="63.623047"/>
       <use xlink:href="#DejaVuSans-30" x="127.246094"/>
      </g>
     </g>
    </g>
    <g id="ytick_9">
     <g id="line2d_16">
      <g>
       <use xlink:href="#mcbfb8ec96f" x="57.6" y="42.201801" style="stroke: #000000; stroke-width: 0.8"/>
      </g>
     </g>
     <g id="text_17">
      <!-- 400 -->
      <g transform="translate(31.5125 46.00102)scale(0.1 -0.1)">
       <use xlink:href="#DejaVuSans-34"/>
       <use xlink:href="#DejaVuSans-30" x="63.623047"/>
       <use xlink:href="#DejaVuSans-30" x="127.246094"/>
      </g>
     </g>
    </g>
    <g id="text_18">
     <!-- Number of crosslinks -->
     <g transform="translate(25.432812 227.019406)rotate(-90)scale(0.1 -0.1)">
      <defs>
       <path id="DejaVuSans-4e" d="M 628 4666 
L 1478 4666 
L 3547 763 
L 3547 4666 
L 4159 4666 
L 4159 0 
L 3309 0 
L 1241 3903 
L 1241 0 
L 628 0 
L 628 4666 
z
" transform="scale(0.015625)"/>
       <path id="DejaVuSans-75" d="M 544 1381 
L 544 3500 
L 1119 3500 
L 1119 1403 
Q 1119 906 1312 657 
Q 1506 409 1894 409 
Q 2359 409 2629 706 
Q 2900 1003 2900 1516 
L 2900 3500 
L 3475 3500 
L 3475 0 
L 2900 0 
L 2900 538 
Q 2691 219 2414 64 
Q 2138 -91 1772 -91 
Q 1169 -91 856 284 
Q 544 659 544 1381 
z
M 1991 3584 
L 1991 3584 
z
" transform="scale(0.015625)"/>
       <path id="DejaVuSans-6d" d="M 3328 2828 
Q 3544 3216 3844 3400 
Q 4144 3584 4550 3584 
Q 5097 3584 5394 3201 
Q 5691 2819 5691 2113 
L 5691 0 
L 5113 0 
L 5113 2094 
Q 5113 2597 4934 2840 
Q 4756 3084 4391 3084 
Q 3944 3084 3684 2787 
Q 3425 2491 3425 1978 
L 3425 0 
L 2847 0 
L 2847 2094 
Q 2847 2600 2669 2842 
Q 2491 3084 2119 3084 
Q 1678 3084 1418 2786 
Q 1159 2488 1159 1978 
L 1159 0 
L 581 0 
L 581 3500 
L 1159 3500 
L 1159 2956 
Q 1356 3278 1631 3431 
Q 1906 3584 2284 3584 
Q 2666 3584 2933 3390 
Q 3200 3197 3328 2828 
z
" transform="scale(0.015625)"/>
       <path id="DejaVuSans-62" d="M 3116 1747 
Q 3116 2381 2855 2742 
Q 2594 3103 2138 3103 
Q 1681 3103 1420 2742 
Q 1159 2381 1159 1747 
Q 1159 1113 1420 752 
Q 1681 391 2138 391 
Q 2594 391 2855 752 
Q 3116 1113 3116 1747 
z
M 1159 2969 
Q 1341 3281 1617 3432 
Q 1894 3584 2278 3584 
Q 2916 3584 3314 3078 
Q 3713 2572 3713 1747 
Q 3713 922 3314 415 
Q 2916 -91 2278 -91 
Q 1894 -91 1617 61 
Q 1341 213 1159 525 
L 1159 0 
L 581 0 
L 581 4863 
L 1159 4863 
L 1159 2969 
z
" transform="scale(0.015625)"/>
       <path id="DejaVuSans-20" transform="scale(0.015625)"/>
       <path id="DejaVuSans-66" d="M 2375 4863 
L 2375 4384 
L 1825 4384 
Q 1516 4384 1395 4259 
Q 1275 4134 1275 3809 
L 1275 3500 
L 2222 3500 
L 2222 3053 
L 1275 3053 
L 1275 0 
L 697 0 
L 697 3053 
L 147 3053 
L 147 3500 
L 697 3500 
L 697 3744 
Q 697 4328 969 4595 
Q 1241 4863 1831 4863 
L 2375 4863 
z
" transform="scale(0.015625)"/>
       <path id="DejaVuSans-73" d="M 2834 3397 
L 2834 2853 
Q 2591 2978 2328 3040 
Q 2066 3103 1784 3103 
Q 1356 3103 1142 2972 
Q 928 2841 928 2578 
Q 928 2378 1081 2264 
Q 1234 2150 1697 2047 
L 1894 2003 
Q 2506 1872 2764 1633 
Q 3022 1394 3022 966 
Q 3022 478 2636 193 
Q 2250 -91 1575 -91 
Q 1294 -91 989 -36 
Q 684 19 347 128 
L 347 722 
Q 666 556 975 473 
Q 1284 391 1588 391 
Q 1994 391 2212 530 
Q 2431 669 2431 922 
Q 2431 1156 2273 1281 
Q 2116 1406 1581 1522 
L 1381 1569 
Q 847 1681 609 1914 
Q 372 2147 372 2553 
Q 372 3047 722 3315 
Q 1072 3584 1716 3584 
Q 2034 3584 2315 3537 
Q 2597 3491 2834 3397 
z
" transform="scale(0.015625)"/>
       <path id="DejaVuSans-6c" d="M 603 4863 
L 1178 4863 
L 1178 0 
L 603 0 
L 603 4863 
z
" transform="scale(0.015625)"/>
       <path id="DejaVuSans-69" d="M 603 3500 
L 1178 3500 
L 1178 0 
L 603 0 
L 603 3500 
z
M 603 4863 
L 1178 4863 
L 1178 4134 
L 603 4134 
L 603 4863 
z
" transform="scale(0.015625)"/>
       <path id="DejaVuSans-6e" d="M 3513 2113 
L 3513 0 
L 2938 0 
L 2938 2094 
Q 2938 2591 2744 2837 
Q 2550 3084 2163 3084 
Q 1697 3084 1428 2787 
Q 1159 2491 1159 1978 
L 1159 0 
L 581 0 
L 581 3500 
L 1159 3500 
L 1159 2956 
Q 1366 3272 1645 3428 
Q 1925 3584 2291 3584 
Q 2894 3584 3203 3211 
Q 3513 2838 3513 2113 
z
" transform="scale(0.015625)"/>
       <path id="DejaVuSans-6b" d="M 581 4863 
L 1159 4863 
L 1159 1991 
L 2875 3500 
L 3609 3500 
L 1753 1863 
L 3688 0 
L 2938 0 
L 1159 1709 
L 1159 0 
L 581 0 
L 581 4863 
z
" transform="scale(0.015625)"/>
      </defs>
      <use xlink:href="#DejaVuSans-4e"/>
      <use xlink:href="#DejaVuSans-75" x="74.804688"/>
      <use xlink:href="#DejaVuSans-6d" x="138.183594"/>
      <use xlink:href="#DejaVuSans-62" x="235.595703"/>
      <use xlink:href="#DejaVuSans-65" x="299.072266"/>
      <use xlink:href="#DejaVuSans-72" x="360.595703"/>
      <use xlink:href="#DejaVuSans-20" x="401.708984"/>
      <use xlink:href="#DejaVuSans-6f" x="433.496094"/>
      <use xlink:href="#DejaVuSans-66" x="494.677734"/>
      <use xlink:href="#DejaVuSans-20" x="529.882812"/>
      <use xlink:href="#DejaVuSans-63" x="561.669922"/>
      <use xlink:href="#DejaVuSans-72" x="616.650391"/>
      <use xlink:href="#DejaVuSans-6f" x="655.513672"/>
      <use xlink:href="#DejaVuSans-73" x="716.695312"/>
      <use xlink:href="#DejaVuSans-73" x="768.794922"/>
      <use xlink:href="#DejaVuSans-6c" x="820.894531"/>
      <use xlink:href="#DejaVuSans-69" x="848.677734"/>
      <use xlink:href="#DejaVuSans-6e" x="876.460938"/>
      <use xlink:href="#DejaVuSans-6b" x="939.839844"/>
      <use xlink:href="#DejaVuSans-73" x="997.75"/>
     </g>
    </g>
   </g>
   <g id="patch_3">
    <path d="M 57.6 307.584 
L 57.6 41.472 
" style="fill: none; stroke: #000000; stroke-width: 0.8; stroke-linejoin: miter; stroke-linecap: square"/>
   </g>
   <g id="patch_4">
    <path d="M 414.72 307.584 
L 414.72 41.472 
" style="fill: none; stroke: #000000; stroke-width: 0.8; stroke-linejoin: miter; stroke-linecap: square"/>
   </g>
   <g id="patch_5">
    <path d="M 57.6 307.584 
L 414.72 307.584 
" style="fill: none; stroke: #000000; stroke-width: 0.8; stroke-linejoin: miter; stroke-linecap: square"/>
   </g>
   <g id="patch_6">
    <path d="M 57.6 41.472 
L 414.72 41.472 
" style="fill: none; stroke: #000000; stroke-width: 0.8; stroke-linejoin: miter; stroke-linecap: square"/>
   </g>
   <g id="legend_1">
    <g id="patch_7">
     <path d="M 293.087188 93.506375 
L 407.72 93.506375 
Q 409.72 93.506375 409.72 91.506375 
L 409.72 48.472 
Q 409.72 46.472 407.72 46.472 
L 293.087188 46.472 
Q 291.087188 46.472 291.087188 48.472 
L 291.087188 91.506375 
Q 291.087188 93.506375 293.087188 93.506375 
z
" style="fill: #ffffff; opacity: 0.8; stroke: #cccccc; stroke-linejoin: miter"/>
    </g>
    <g id="patch_8">
     <path d="M 295.087188 58.070438 
L 315.087188 58.070438 
L 315.087188 51.070438 
L 295.087188 51.070438 
z
" style="fill: #008000"/>
    </g>
    <g id="text_19">
     <!-- true -->
     <g transform="translate(323.087188 58.070438)scale(0.1 -0.1)">
      <defs>
       <path id="DejaVuSans-74" d="M 1172 4494 
L 1172 3500 
L 2356 3500 
L 2356 3053 
L 1172 3053 
L 1172 1153 
Q 1172 725 1289 603 
Q 1406 481 1766 481 
L 2356 481 
L 2356 0 
L 1766 0 
Q 1100 0 847 248 
Q 594 497 594 1153 
L 594 3053 
L 172 3053 
L 172 3500 
L 594 3500 
L 594 4494 
L 1172 4494 
z
" transform="scale(0.015625)"/>
      </defs>
      <use xlink:href="#DejaVuSans-74"/>
      <use xlink:href="#DejaVuSans-72" x="39.208984"/>
      <use xlink:href="#DejaVuSans-75" x="80.322266"/>
      <use xlink:href="#DejaVuSans-65" x="143.701172"/>
     </g>
    </g>
    <g id="patch_9">
     <path d="M 295.087188 72.748563 
L 315.087188 72.748563 
L 315.087188 65.748563 
L 295.087188 65.748563 
z
" style="fill: #7cfc00"/>
    </g>
    <g id="text_20">
     <!-- true homeotypic -->
     <g transform="translate(323.087188 72.748563)scale(0.1 -0.1)">
      <defs>
       <path id="DejaVuSans-68" d="M 3513 2113 
L 3513 0 
L 2938 0 
L 2938 2094 
Q 2938 2591 2744 2837 
Q 2550 3084 2163 3084 
Q 1697 3084 1428 2787 
Q 1159 2491 1159 1978 
L 1159 0 
L 581 0 
L 581 4863 
L 1159 4863 
L 1159 2956 
Q 1366 3272 1645 3428 
Q 1925 3584 2291 3584 
Q 2894 3584 3203 3211 
Q 3513 2838 3513 2113 
z
" transform="scale(0.015625)"/>
       <path id="DejaVuSans-79" d="M 2059 -325 
Q 1816 -950 1584 -1140 
Q 1353 -1331 966 -1331 
L 506 -1331 
L 506 -850 
L 844 -850 
Q 1081 -850 1212 -737 
Q 1344 -625 1503 -206 
L 1606 56 
L 191 3500 
L 800 3500 
L 1894 763 
L 2988 3500 
L 3597 3500 
L 2059 -325 
z
" transform="scale(0.015625)"/>
       <path id="DejaVuSans-70" d="M 1159 525 
L 1159 -1331 
L 581 -1331 
L 581 3500 
L 1159 3500 
L 1159 2969 
Q 1341 3281 1617 3432 
Q 1894 3584 2278 3584 
Q 2916 3584 3314 3078 
Q 3713 2572 3713 1747 
Q 3713 922 3314 415 
Q 2916 -91 2278 -91 
Q 1894 -91 1617 61 
Q 1341 213 1159 525 
z
M 3116 1747 
Q 3116 2381 2855 2742 
Q 2594 3103 2138 3103 
Q 1681 3103 1420 2742 
Q 1159 2381 1159 1747 
Q 1159 1113 1420 752 
Q 1681 391 2138 391 
Q 2594 391 2855 752 
Q 3116 1113 3116 1747 
z
" transform="scale(0.015625)"/>
      </defs>
      <use xlink:href="#DejaVuSans-74"/>
      <use xlink:href="#DejaVuSans-72" x="39.208984"/>
      <use xlink:href="#DejaVuSans-75" x="80.322266"/>
      <use xlink:href="#DejaVuSans-65" x="143.701172"/>
      <use xlink:href="#DejaVuSans-20" x="205.224609"/>
      <use xlink:href="#DejaVuSans-68" x="237.011719"/>
      <use xlink:href="#DejaVuSans-6f" x="300.390625"/>
      <use xlink:href="#DejaVuSans-6d" x="361.572266"/>
      <use xlink:href="#DejaVuSans-65" x="458.984375"/>
      <use xlink:href="#DejaVuSans-6f" x="520.507812"/>
      <use xlink:href="#DejaVuSans-74" x="581.689453"/>
      <use xlink:href="#DejaVuSans-79" x="620.898438"/>
      <use xlink:href="#DejaVuSans-70" x="680.078125"/>
      <use xlink:href="#DejaVuSans-69" x="743.554688"/>
      <use xlink:href="#DejaVuSans-63" x="771.337891"/>
     </g>
    </g>
    <g id="patch_10">
     <path d="M 295.087188 87.426688 
L 315.087188 87.426688 
L 315.087188 80.426688 
L 295.087188 80.426688 
z
" style="fill: #ff0000"/>
    </g>
    <g id="text_21">
     <!-- false -->
     <g transform="translate(323.087188 87.426688)scale(0.1 -0.1)">
      <defs>
       <path id="DejaVuSans-61" d="M 2194 1759 
Q 1497 1759 1228 1600 
Q 959 1441 959 1056 
Q 959 750 1161 570 
Q 1363 391 1709 391 
Q 2188 391 2477 730 
Q 2766 1069 2766 1631 
L 2766 1759 
L 2194 1759 
z
M 3341 1997 
L 3341 0 
L 2766 0 
L 2766 531 
Q 2569 213 2275 61 
Q 1981 -91 1556 -91 
Q 1019 -91 701 211 
Q 384 513 384 1019 
Q 384 1609 779 1909 
Q 1175 2209 1959 2209 
L 2766 2209 
L 2766 2266 
Q 2766 2663 2505 2880 
Q 2244 3097 1772 3097 
Q 1472 3097 1187 3025 
Q 903 2953 641 2809 
L 641 3341 
Q 956 3463 1253 3523 
Q 1550 3584 1831 3584 
Q 2591 3584 2966 3190 
Q 3341 2797 3341 1997 
z
" transform="scale(0.015625)"/>
      </defs>
      <use xlink:href="#DejaVuSans-66"/>
      <use xlink:href="#DejaVuSans-61" x="35.205078"/>
      <use xlink:href="#DejaVuSans-6c" x="96.484375"/>
      <use xlink:href="#DejaVuSans-73" x="124.267578"/>
      <use xlink:href="#DejaVuSans-65" x="176.367188"/>
     </g>
    </g>
   </g>
  </g>
 </g>
 <defs>
  <clipPath id="p014ce38028">
   <rect x="57.6" y="41.472" width="357.12" height="266.112"/>
  </clipPath>
 </defs>
</svg>
