<?xml version="1.0" encoding="utf-8" standalone="no"?>
<!DOCTYPE svg PUBLIC "-//W3C//DTD SVG 1.1//EN"
  "http://www.w3.org/Graphics/SVG/1.1/DTD/svg11.dtd">
<svg xmlns:xlink="http://www.w3.org/1999/xlink" width="460.8pt" height="345.6pt" viewBox="0 0 460.8 345.6" xmlns="http://www.w3.org/2000/svg" version="1.1">
 <metadata>
  <rdf:RDF xmlns:dc="http://purl.org/dc/elements/1.1/" xmlns:cc="http://creativecommons.org/ns#" xmlns:rdf="http://www.w3.org/1999/02/22-rdf-syntax-ns#">
   <cc:Work>
    <dc:type rdf:resource="http://purl.org/dc/dcmitype/StillImage"/>
    <dc:date>2022-07-21T14:55:29.576591</dc:date>
    <dc:format>image/svg+xml</dc:format>
    <dc:creator>
     <cc:Agent>
      <dc:title>Matplotlib v3.5.1, https://matplotlib.org/</dc:title>
     </cc:Agent>
    </dc:creator>
   </cc:Work>
  </rdf:RDF>
 </metadata>
 <defs>
  <style type="text/css">*{stroke-linejoin: round; stroke-linecap: butt}</style>
 </defs>
 <g id="figure_1">
  <g id="patch_1">
   <path d="M 0 345.6 
L 460.8 345.6 
L 460.8 0 
L 0 0 
z
" style="fill: #ffffff"/>
  </g>
  <g id="axes_1">
   <g id="patch_2">
    <path d="M 57.6 307.584 
L 414.72 307.584 
L 414.72 41.472 
L 57.6 41.472 
z
" style="fill: #ffffff"/>
   </g>
   <g id="PolyCollection_1">
    <path d="M 73.832727 96.486276 
L 73.832727 307.584 
L 74.063804 307.584 
L 74.300807 307.584 
L 74.588172 307.584 
L 74.700748 307.584 
L 74.931825 307.584 
L 75.242891 307.584 
L 75.248816 307.584 
L 75.346579 307.584 
L 75.494705 307.584 
L 75.607281 307.584 
L 75.873909 307.584 
L 76.024998 307.584 
L 76.102024 307.584 
L 76.389389 307.584 
L 76.635279 307.584 
L 76.667866 307.584 
L 76.946344 307.584 
L 77.34036 307.584 
L 78.069142 307.584 
L 78.095805 307.584 
L 78.178756 307.584 
L 78.273557 307.584 
L 78.510559 307.584 
L 78.569809 307.584 
L 78.726823 307.584 
L 78.836437 307.584 
L 79.126765 307.584 
L 79.351917 307.584 
L 79.423017 307.584 
L 79.651132 307.584 
L 80.557666 307.584 
L 80.622841 307.584 
L 80.667279 307.584 
L 80.963532 307.584 
L 81.185722 307.584 
L 81.5116 307.584 
L 81.784152 307.584 
L 81.796002 307.584 
L 81.855253 307.584 
L 81.887841 307.584 
L 81.976716 307.584 
L 82.118918 307.584 
L 82.163356 307.584 
L 82.483309 307.584 
L 82.687723 307.584 
L 82.844737 307.584 
L 83.043227 307.584 
L 83.049152 307.584 
L 83.10544 307.584 
L 83.416505 307.584 
L 83.472793 307.584 
L 83.582407 307.584 
L 83.620919 307.584 
L 83.623882 307.584 
L 83.98531 307.584 
L 84.163062 307.584 
L 84.186762 307.584 
L 84.426727 307.584 
L 84.551153 307.584 
L 84.565966 307.584 
L 84.690392 307.584 
L 85.057746 307.584 
L 85.5673 307.584 
L 85.857628 307.584 
L 85.907991 307.584 
L 86.856 307.584 
L 86.882663 307.584 
L 87.066339 307.584 
L 87.110777 307.584 
L 87.344817 307.584 
L 87.919547 307.584 
L 88.15655 307.584 
L 89.095671 307.584 
L 89.187509 307.584 
L 89.214172 307.584 
L 89.599301 307.584 
L 89.839266 307.584 
L 90.319195 307.584 
L 90.736911 307.584 
L 90.8643 307.584 
L 91.213878 307.584 
L 91.311642 307.584 
L 91.421255 307.584 
L 91.519019 307.584 
L 91.604932 307.584 
L 91.678995 307.584 
L 91.738246 307.584 
L 92.221138 307.584 
L 92.324826 307.584 
L 92.629967 307.584 
L 92.665517 307.584 
L 92.778093 307.584 
L 92.792906 307.584 
L 92.834381 307.584 
L 93.103971 307.584 
L 94.07568 307.584 
L 94.137894 307.584 
L 94.161594 307.584 
L 94.460809 307.584 
L 95.014802 307.584 
L 95.438443 307.584 
L 95.562869 307.584 
L 96.007249 307.584 
L 96.057612 307.584 
L 96.267951 307.584 
L 96.365715 307.584 
L 96.893044 307.584 
L 97.035246 307.584 
L 97.118197 307.584 
L 97.414449 307.584 
L 97.604051 307.584 
L 97.609976 307.584 
L 98.003992 307.584 
L 98.371346 307.584 
L 98.451334 307.584 
L 98.507622 307.584 
L 98.531322 307.584 
L 98.578723 307.584 
L 99.351943 307.584 
L 99.488219 307.584 
L 99.763734 307.584 
L 100.217001 307.584 
L 100.249589 307.584 
L 100.468816 307.584 
L 100.531029 307.584 
L 100.536954 307.584 
L 100.640642 307.584 
L 100.729518 307.584 
L 100.809506 307.584 
L 100.821356 307.584 
L 100.856907 307.584 
L 101.120572 307.584 
L 101.295361 307.584 
L 101.801953 307.584 
L 102.486297 307.584 
L 102.640349 307.584 
L 102.675899 307.584 
L 102.80625 307.584 
L 102.877351 307.584 
L 102.886238 307.584 
L 103.132128 307.584 
L 103.730559 307.584 
L 103.834247 307.584 
L 103.899423 307.584 
L 104.237151 307.584 
L 104.515629 307.584 
L 104.648943 307.584 
L 104.749668 307.584 
L 104.770406 307.584 
L 104.992596 307.584 
L 105.3955 307.584 
L 105.596951 307.584 
L 105.70064 307.584 
L 105.928755 307.584 
L 106.524223 307.584 
L 106.586436 307.584 
L 107.125616 307.584 
L 107.29448 307.584 
L 107.338918 307.584 
L 107.463344 307.584 
L 107.795147 307.584 
L 108.32544 307.584 
L 109.054222 307.584 
L 109.131247 307.584 
L 109.519338 307.584 
L 109.809666 307.584 
L 109.833366 307.584 
L 110.621399 307.584 
L 110.813963 307.584 
L 110.929502 307.584 
L 111.30278 307.584 
L 111.519045 307.584 
L 111.800485 307.584 
L 112.132288 307.584 
L 112.277452 307.584 
L 112.431503 307.584 
L 113.838704 307.584 
L 113.942393 307.584 
L 114.057931 307.584 
L 114.668212 307.584 
L 114.763013 307.584 
L 114.7719 307.584 
L 115.358481 307.584 
L 115.693247 307.584 
L 115.918399 307.584 
L 115.945061 307.584 
L 116.030975 307.584 
L 116.786419 307.584 
L 116.807157 307.584 
L 116.848632 307.584 
L 116.866408 307.584 
L 117.168585 307.584 
L 117.215986 307.584 
L 117.518164 307.584 
L 117.91218 307.584 
L 118.246946 307.584 
L 118.353597 307.584 
L 118.47506 307.584 
L 118.836489 307.584 
L 119.375669 307.584 
L 119.396406 307.584 
L 119.420107 307.584 
L 119.488245 307.584 
L 119.50602 307.584 
L 119.562308 307.584 
L 119.917811 307.584 
L 120.077788 307.584 
L 120.196289 307.584 
L 120.231839 307.584 
L 120.498467 307.584 
L 120.732507 307.584 
L 121.259836 307.584 
L 121.60349 307.584 
L 121.721991 307.584 
L 122.000468 307.584 
L 122.231546 307.584 
L 122.430035 307.584 
L 122.492248 307.584 
L 122.495211 307.584 
L 122.640374 307.584 
L 122.871452 307.584 
L 123.348419 307.584 
L 123.434332 307.584 
L 123.683184 307.584 
L 124.370491 307.584 
L 124.758582 307.584 
L 125.001509 307.584 
L 125.042985 307.584 
L 125.152598 307.584 
L 125.466626 307.584 
L 125.632528 307.584 
L 125.742141 307.584 
L 125.89323 307.584 
L 125.967293 307.584 
L 125.985069 307.584 
L 126.281321 307.584 
L 126.334647 307.584 
L 126.702 307.584 
L 126.764213 307.584 
L 126.897527 307.584 
L 127.152304 307.584 
L 127.318206 307.584 
L 128.54173 307.584 
L 129.063135 307.584 
L 129.3505 307.584 
L 129.623053 307.584 
L 130.180008 307.584 
L 132.058251 307.584 
L 132.324878 307.584 
L 132.535218 307.584 
L 132.872946 307.584 
L 133.133648 307.584 
L 133.305475 307.584 
L 133.391388 307.584 
L 133.607653 307.584 
L 133.951306 307.584 
L 134.662313 307.584 
L 134.768964 307.584 
L 135.011891 307.584 
L 135.477008 307.584 
L 135.536258 307.584 
L 135.595509 307.584 
L 135.847324 307.584 
L 136.137652 307.584 
L 136.318366 307.584 
L 136.602769 307.584 
L 136.836808 307.584 
L 137.041223 307.584 
L 137.109361 307.584 
L 137.624841 307.584 
L 138.027744 307.584 
L 138.540262 307.584 
L 139.538634 307.584 
L 139.855624 307.584 
L 140.042263 307.584 
L 140.071889 307.584 
L 140.590331 307.584 
L 140.993235 307.584 
L 141.165061 307.584 
L 141.259862 307.584 
L 142.421173 307.584 
L 143.161805 307.584 
L 143.170693 307.584 
L 143.232906 307.584 
L 143.256606 307.584 
L 143.461021 307.584 
L 144.16314 307.584 
L 144.598631 307.584 
L 144.616406 307.584 
L 145.605891 307.584 
L 146.305047 307.584 
L 146.328748 307.584 
L 146.796827 307.584 
L 146.933103 307.584 
L 147.498946 307.584 
L 147.626335 307.584 
L 148.248466 307.584 
L 148.328454 307.584 
L 148.358079 307.584 
L 149.312013 307.584 
L 149.593453 307.584 
L 149.640854 307.584 
L 149.916369 307.584 
L 150.162259 307.584 
L 150.828828 307.584 
L 153.385489 307.584 
L 153.767655 307.584 
L 153.856531 307.584 
L 154.179447 307.584 
L 154.496437 307.584 
L 154.502362 307.584 
L 154.623826 307.584 
L 155.530359 307.584 
L 156.122865 307.584 
L 156.682783 307.584 
L 156.981998 307.584 
L 157.127162 307.584 
L 157.310839 307.584 
L 157.870756 307.584 
L 157.974445 307.584 
L 159.452746 307.584 
L 160.362242 307.584 
L 160.385943 307.584 
L 160.566657 307.584 
L 160.637757 307.584 
L 161.399127 307.584 
L 161.493928 307.584 
L 161.716118 307.584 
L 162.358986 307.584 
L 163.283295 307.584 
L 163.952826 307.584 
L 164.018002 307.584 
L 164.112803 307.584 
L 164.835659 307.584 
L 164.957123 307.584 
L 166.097696 307.584 
L 167.413059 307.584 
L 167.943351 307.584 
L 168.532894 307.584 
L 168.544744 307.584 
L 168.86766 307.584 
L 169.89862 307.584 
L 169.990458 307.584 
L 170.144509 307.584 
L 170.369662 307.584 
L 170.44965 307.584 
L 170.748865 307.584 
L 172.736721 307.584 
L 172.84041 307.584 
L 173.243314 307.584 
L 173.720281 307.584 
L 173.915807 307.584 
L 174.037271 307.584 
L 174.511276 307.584 
L 175.47706 307.584 
L 175.625186 307.584 
L 176.069565 307.584 
L 179.123932 307.584 
L 180.04824 307.584 
L 180.483732 307.584 
L 181.31324 307.584 
L 181.437666 307.584 
L 182.714515 307.584 
L 183.203332 307.584 
L 186.379162 307.584 
L 187.347909 307.584 
L 188.28703 307.584 
L 188.704747 307.584 
L 189.249852 307.584 
L 189.54018 307.584 
L 190.3845 307.584 
L 193.826958 307.584 
L 194.182461 307.584 
L 195.151207 307.584 
L 196.069591 307.584 
L 196.146617 307.584 
L 199.799414 307.584 
L 200.151955 307.584 
L 206.799867 307.584 
L 210.079386 307.584 
L 211.273284 307.584 
L 211.942816 307.584 
L 212.544209 307.584 
L 213.536656 307.584 
L 217.091689 307.584 
L 221.19479 307.584 
L 223.206347 307.584 
L 230.660067 307.584 
L 230.763755 307.584 
L 234.973508 307.584 
L 235.894854 307.584 
L 238.795169 307.584 
L 242.006549 307.584 
L 243.547063 307.584 
L 244.255107 307.584 
L 244.266958 307.584 
L 245.167566 307.584 
L 246.080025 307.584 
L 251.409612 307.584 
L 259.132923 307.584 
L 272.064357 307.584 
L 281.254118 307.584 
L 282.021413 307.584 
L 283.55304 307.584 
L 287.887218 307.584 
L 310.680908 307.584 
L 313.412359 307.584 
L 330.313581 307.584 
L 333.107244 307.584 
L 398.487273 307.584 
L 398.487273 307.584 
L 398.487273 307.584 
L 333.107244 307.584 
L 330.313581 307.584 
L 313.412359 307.584 
L 310.680908 307.584 
L 287.887218 307.584 
L 283.55304 307.584 
L 282.021413 307.584 
L 281.254118 306.970344 
L 272.064357 306.970344 
L 259.132923 306.970344 
L 251.409612 306.970344 
L 246.080025 306.970344 
L 245.167566 306.970344 
L 244.266958 306.970344 
L 244.255107 306.970344 
L 243.547063 306.970344 
L 242.006549 306.970344 
L 238.795169 306.970344 
L 235.894854 306.970344 
L 234.973508 306.970344 
L 230.763755 306.970344 
L 230.660067 306.356688 
L 223.206347 306.356688 
L 221.19479 306.356688 
L 217.091689 305.743031 
L 213.536656 305.743031 
L 212.544209 305.129375 
L 211.942816 305.129375 
L 211.273284 304.515719 
L 210.079386 304.515719 
L 206.799867 304.515719 
L 200.151955 304.515719 
L 199.799414 303.902063 
L 196.146617 303.288407 
L 196.069591 303.288407 
L 195.151207 302.674751 
L 194.182461 302.061094 
L 193.826958 301.447438 
L 190.3845 300.833782 
L 189.54018 300.220126 
L 189.249852 299.60647 
L 188.704747 299.60647 
L 188.28703 299.60647 
L 187.347909 298.992814 
L 186.379162 298.379157 
L 183.203332 297.765501 
L 182.714515 297.151845 
L 181.437666 297.151845 
L 181.31324 296.538189 
L 180.483732 295.924533 
L 180.04824 294.69722 
L 179.123932 294.69722 
L 176.069565 294.083564 
L 175.625186 293.469908 
L 175.47706 292.856252 
L 174.511276 292.242596 
L 174.037271 292.242596 
L 173.915807 291.628939 
L 173.720281 291.015283 
L 173.243314 290.401627 
L 172.84041 289.787971 
L 172.736721 289.174315 
L 170.748865 288.560659 
L 170.44965 287.947002 
L 170.369662 287.333346 
L 170.144509 286.71969 
L 169.990458 286.71969 
L 169.89862 286.106034 
L 168.86766 285.492378 
L 168.544744 284.878722 
L 168.532894 284.265065 
L 167.943351 283.651409 
L 167.413059 283.037753 
L 166.097696 282.424097 
L 164.957123 282.424097 
L 164.835659 282.424097 
L 164.112803 282.424097 
L 164.018002 281.810441 
L 163.952826 281.196785 
L 163.283295 280.583128 
L 162.358986 279.969472 
L 161.716118 279.355816 
L 161.493928 278.74216 
L 161.399127 278.128504 
L 160.637757 278.128504 
L 160.566657 277.514847 
L 160.385943 276.901191 
L 160.362242 276.287535 
L 159.452746 275.673879 
L 157.974445 275.060223 
L 157.870756 274.446567 
L 157.310839 273.83291 
L 157.127162 273.219254 
L 156.981998 272.605598 
L 156.682783 271.991942 
L 156.122865 271.378286 
L 155.530359 270.76463 
L 154.623826 270.150973 
L 154.502362 269.537317 
L 154.496437 268.923661 
L 154.179447 268.310005 
L 153.856531 267.696349 
L 153.767655 267.082692 
L 153.385489 266.469036 
L 150.828828 265.85538 
L 150.162259 265.241724 
L 149.916369 264.628068 
L 149.640854 264.014412 
L 149.593453 263.400755 
L 149.312013 262.787099 
L 148.358079 262.173443 
L 148.328454 261.559787 
L 148.248466 260.946131 
L 147.626335 260.332475 
L 147.498946 260.332475 
L 146.933103 259.718818 
L 146.796827 259.105162 
L 146.328748 258.491506 
L 146.305047 257.87785 
L 145.605891 257.264194 
L 144.616406 256.650538 
L 144.598631 256.036881 
L 144.16314 255.423225 
L 143.461021 254.809569 
L 143.256606 254.809569 
L 143.232906 254.195913 
L 143.170693 253.582257 
L 143.161805 252.9686 
L 142.421173 252.9686 
L 141.259862 252.354944 
L 141.165061 252.354944 
L 140.993235 251.741288 
L 140.590331 251.127632 
L 140.071889 250.513976 
L 140.042263 249.90032 
L 139.855624 249.286663 
L 139.538634 248.673007 
L 138.540262 248.059351 
L 138.027744 247.445695 
L 137.624841 246.832039 
L 137.109361 246.218383 
L 137.041223 245.604726 
L 136.836808 244.99107 
L 136.602769 244.377414 
L 136.318366 243.763758 
L 136.137652 243.150102 
L 135.847324 242.536446 
L 135.595509 241.922789 
L 135.536258 241.309133 
L 135.477008 240.695477 
L 135.011891 240.081821 
L 134.768964 239.468165 
L 134.662313 238.854508 
L 133.951306 238.240852 
L 133.607653 237.627196 
L 133.391388 237.01354 
L 133.305475 236.399884 
L 133.133648 235.786228 
L 132.872946 235.172571 
L 132.535218 234.558915 
L 132.324878 233.945259 
L 132.058251 233.331603 
L 130.180008 232.717947 
L 129.623053 232.104291 
L 129.3505 231.490634 
L 129.063135 230.876978 
L 128.54173 230.876978 
L 127.318206 230.263322 
L 127.152304 229.649666 
L 126.897527 229.03601 
L 126.764213 228.422354 
L 126.702 227.808697 
L 126.334647 227.195041 
L 126.281321 226.581385 
L 125.985069 225.967729 
L 125.967293 225.354073 
L 125.89323 224.740416 
L 125.742141 224.12676 
L 125.632528 223.513104 
L 125.466626 222.899448 
L 125.152598 222.285792 
L 125.042985 221.672136 
L 125.001509 221.058479 
L 124.758582 220.444823 
L 124.370491 220.444823 
L 123.683184 219.831167 
L 123.434332 219.217511 
L 123.348419 218.603855 
L 122.871452 217.990199 
L 122.640374 217.376542 
L 122.495211 216.762886 
L 122.492248 216.14923 
L 122.430035 215.535574 
L 122.231546 214.921918 
L 122.000468 214.308262 
L 121.721991 213.694605 
L 121.60349 213.080949 
L 121.259836 212.467293 
L 120.732507 211.853637 
L 120.498467 211.853637 
L 120.231839 211.239981 
L 120.196289 210.626324 
L 120.077788 210.012668 
L 119.917811 209.399012 
L 119.562308 208.785356 
L 119.50602 208.1717 
L 119.488245 207.558044 
L 119.420107 206.944387 
L 119.396406 206.330731 
L 119.375669 205.717075 
L 118.836489 205.103419 
L 118.47506 204.489763 
L 118.353597 203.876107 
L 118.246946 203.26245 
L 117.91218 202.648794 
L 117.518164 202.035138 
L 117.215986 201.421482 
L 117.168585 201.421482 
L 116.866408 200.807826 
L 116.848632 200.194169 
L 116.807157 199.580513 
L 116.786419 198.966857 
L 116.030975 198.353201 
L 115.945061 197.739545 
L 115.918399 197.125889 
L 115.693247 196.512232 
L 115.358481 195.898576 
L 114.7719 195.28492 
L 114.763013 194.671264 
L 114.668212 194.057608 
L 114.057931 193.443952 
L 113.942393 192.830295 
L 113.838704 192.216639 
L 112.431503 192.216639 
L 112.277452 191.602983 
L 112.132288 190.989327 
L 111.800485 190.375671 
L 111.519045 189.762015 
L 111.30278 189.762015 
L 110.929502 189.148358 
L 110.813963 188.534702 
L 110.621399 187.921046 
L 109.833366 187.30739 
L 109.809666 186.693734 
L 109.519338 186.693734 
L 109.131247 186.080077 
L 109.054222 185.466421 
L 108.32544 184.852765 
L 107.795147 184.239109 
L 107.463344 183.625453 
L 107.338918 183.011797 
L 107.29448 182.39814 
L 107.125616 181.784484 
L 106.586436 181.170828 
L 106.524223 180.557172 
L 105.928755 179.32986 
L 105.70064 178.716203 
L 105.596951 178.102547 
L 105.3955 177.488891 
L 104.992596 176.875235 
L 104.770406 176.261579 
L 104.749668 175.647923 
L 104.648943 175.034266 
L 104.515629 174.42061 
L 104.237151 173.806954 
L 103.899423 173.193298 
L 103.834247 172.579642 
L 103.730559 171.965985 
L 103.132128 171.352329 
L 102.886238 170.738673 
L 102.877351 170.125017 
L 102.80625 169.511361 
L 102.675899 168.897705 
L 102.640349 168.284048 
L 102.486297 167.670392 
L 101.801953 167.056736 
L 101.295361 166.44308 
L 101.120572 165.829424 
L 100.856907 165.215768 
L 100.821356 164.602111 
L 100.809506 163.988455 
L 100.729518 163.374799 
L 100.640642 162.761143 
L 100.536954 162.147487 
L 100.531029 161.533831 
L 100.468816 160.920174 
L 100.249589 160.306518 
L 100.217001 159.692862 
L 99.763734 159.079206 
L 99.488219 159.079206 
L 99.351943 158.46555 
L 98.578723 157.851893 
L 98.531322 157.238237 
L 98.507622 156.624581 
L 98.451334 156.010925 
L 98.371346 155.397269 
L 98.003992 154.783613 
L 97.609976 154.169956 
L 97.604051 153.5563 
L 97.414449 152.942644 
L 97.118197 152.328988 
L 97.035246 151.715332 
L 96.893044 151.101676 
L 96.365715 151.101676 
L 96.267951 150.488019 
L 96.057612 149.874363 
L 96.007249 149.260707 
L 95.562869 149.260707 
L 95.438443 148.647051 
L 95.014802 148.033395 
L 94.460809 147.419738 
L 94.161594 146.806082 
L 94.137894 146.192426 
L 94.07568 145.57877 
L 93.103971 144.965114 
L 92.834381 144.351458 
L 92.792906 143.737801 
L 92.778093 143.124145 
L 92.665517 142.510489 
L 92.629967 141.896833 
L 92.324826 141.283177 
L 92.221138 140.669521 
L 91.738246 140.055864 
L 91.678995 139.442208 
L 91.604932 138.828552 
L 91.519019 138.214896 
L 91.421255 137.60124 
L 91.311642 136.987584 
L 91.213878 136.373927 
L 90.8643 135.760271 
L 90.736911 135.146615 
L 90.319195 134.532959 
L 89.839266 133.919303 
L 89.599301 133.305646 
L 89.214172 132.69199 
L 89.187509 132.078334 
L 89.095671 131.464678 
L 88.15655 130.851022 
L 87.919547 130.237366 
L 87.344817 129.623709 
L 87.110777 129.010053 
L 87.066339 128.396397 
L 86.882663 127.782741 
L 86.856 127.169085 
L 85.907991 127.169085 
L 85.857628 126.555429 
L 85.5673 125.941772 
L 85.057746 125.328116 
L 84.690392 124.71446 
L 84.565966 124.100804 
L 84.551153 123.487148 
L 84.426727 122.873492 
L 84.186762 122.259835 
L 84.163062 121.646179 
L 83.98531 121.032523 
L 83.623882 120.418867 
L 83.620919 119.805211 
L 83.582407 119.191554 
L 83.472793 118.577898 
L 83.416505 117.964242 
L 83.10544 117.350586 
L 83.049152 116.73693 
L 83.043227 116.123274 
L 82.844737 116.123274 
L 82.687723 115.509617 
L 82.483309 115.509617 
L 82.163356 114.895961 
L 82.118918 114.282305 
L 81.976716 113.668649 
L 81.887841 113.054993 
L 81.855253 112.441337 
L 81.796002 111.82768 
L 81.784152 111.214024 
L 81.5116 110.600368 
L 81.185722 109.986712 
L 80.963532 109.373056 
L 80.667279 109.373056 
L 80.622841 108.7594 
L 80.557666 108.145743 
L 79.651132 107.532087 
L 79.423017 106.918431 
L 79.351917 106.304775 
L 79.126765 105.691119 
L 78.836437 105.691119 
L 78.726823 105.077462 
L 78.569809 104.463806 
L 78.510559 103.85015 
L 78.273557 103.85015 
L 78.178756 103.85015 
L 78.095805 103.85015 
L 78.069142 103.236494 
L 77.34036 102.622838 
L 76.946344 102.009182 
L 76.667866 102.009182 
L 76.635279 101.395525 
L 76.389389 101.395525 
L 76.102024 100.781869 
L 76.024998 100.168213 
L 75.873909 100.168213 
L 75.607281 99.554557 
L 75.494705 99.554557 
L 75.346579 98.940901 
L 75.248816 98.327245 
L 75.242891 97.713588 
L 74.931825 97.099932 
L 74.700748 97.099932 
L 74.588172 97.099932 
L 74.300807 96.486276 
L 74.063804 96.486276 
L 73.832727 96.486276 
z
" clip-path="url(#pf679168cf5)" style="fill: #008000"/>
   </g>
   <g id="PolyCollection_2">
    <path d="M 73.832727 65.803467 
L 73.832727 96.486276 
L 74.063804 96.486276 
L 74.300807 96.486276 
L 74.588172 97.099932 
L 74.700748 97.099932 
L 74.931825 97.099932 
L 75.242891 97.713588 
L 75.248816 98.327245 
L 75.346579 98.940901 
L 75.494705 99.554557 
L 75.607281 99.554557 
L 75.873909 100.168213 
L 76.024998 100.168213 
L 76.102024 100.781869 
L 76.389389 101.395525 
L 76.635279 101.395525 
L 76.667866 102.009182 
L 76.946344 102.009182 
L 77.34036 102.622838 
L 78.069142 103.236494 
L 78.095805 103.85015 
L 78.178756 103.85015 
L 78.273557 103.85015 
L 78.510559 103.85015 
L 78.569809 104.463806 
L 78.726823 105.077462 
L 78.836437 105.691119 
L 79.126765 105.691119 
L 79.351917 106.304775 
L 79.423017 106.918431 
L 79.651132 107.532087 
L 80.557666 108.145743 
L 80.622841 108.7594 
L 80.667279 109.373056 
L 80.963532 109.373056 
L 81.185722 109.986712 
L 81.5116 110.600368 
L 81.784152 111.214024 
L 81.796002 111.82768 
L 81.855253 112.441337 
L 81.887841 113.054993 
L 81.976716 113.668649 
L 82.118918 114.282305 
L 82.163356 114.895961 
L 82.483309 115.509617 
L 82.687723 115.509617 
L 82.844737 116.123274 
L 83.043227 116.123274 
L 83.049152 116.73693 
L 83.10544 117.350586 
L 83.416505 117.964242 
L 83.472793 118.577898 
L 83.582407 119.191554 
L 83.620919 119.805211 
L 83.623882 120.418867 
L 83.98531 121.032523 
L 84.163062 121.646179 
L 84.186762 122.259835 
L 84.426727 122.873492 
L 84.551153 123.487148 
L 84.565966 124.100804 
L 84.690392 124.71446 
L 85.057746 125.328116 
L 85.5673 125.941772 
L 85.857628 126.555429 
L 85.907991 127.169085 
L 86.856 127.169085 
L 86.882663 127.782741 
L 87.066339 128.396397 
L 87.110777 129.010053 
L 87.344817 129.623709 
L 87.919547 130.237366 
L 88.15655 130.851022 
L 89.095671 131.464678 
L 89.187509 132.078334 
L 89.214172 132.69199 
L 89.599301 133.305646 
L 89.839266 133.919303 
L 90.319195 134.532959 
L 90.736911 135.146615 
L 90.8643 135.760271 
L 91.213878 136.373927 
L 91.311642 136.987584 
L 91.421255 137.60124 
L 91.519019 138.214896 
L 91.604932 138.828552 
L 91.678995 139.442208 
L 91.738246 140.055864 
L 92.221138 140.669521 
L 92.324826 141.283177 
L 92.629967 141.896833 
L 92.665517 142.510489 
L 92.778093 143.124145 
L 92.792906 143.737801 
L 92.834381 144.351458 
L 93.103971 144.965114 
L 94.07568 145.57877 
L 94.137894 146.192426 
L 94.161594 146.806082 
L 94.460809 147.419738 
L 95.014802 148.033395 
L 95.438443 148.647051 
L 95.562869 149.260707 
L 96.007249 149.260707 
L 96.057612 149.874363 
L 96.267951 150.488019 
L 96.365715 151.101676 
L 96.893044 151.101676 
L 97.035246 151.715332 
L 97.118197 152.328988 
L 97.414449 152.942644 
L 97.604051 153.5563 
L 97.609976 154.169956 
L 98.003992 154.783613 
L 98.371346 155.397269 
L 98.451334 156.010925 
L 98.507622 156.624581 
L 98.531322 157.238237 
L 98.578723 157.851893 
L 99.351943 158.46555 
L 99.488219 159.079206 
L 99.763734 159.079206 
L 100.217001 159.692862 
L 100.249589 160.306518 
L 100.468816 160.920174 
L 100.531029 161.533831 
L 100.536954 162.147487 
L 100.640642 162.761143 
L 100.729518 163.374799 
L 100.809506 163.988455 
L 100.821356 164.602111 
L 100.856907 165.215768 
L 101.120572 165.829424 
L 101.295361 166.44308 
L 101.801953 167.056736 
L 102.486297 167.670392 
L 102.640349 168.284048 
L 102.675899 168.897705 
L 102.80625 169.511361 
L 102.877351 170.125017 
L 102.886238 170.738673 
L 103.132128 171.352329 
L 103.730559 171.965985 
L 103.834247 172.579642 
L 103.899423 173.193298 
L 104.237151 173.806954 
L 104.515629 174.42061 
L 104.648943 175.034266 
L 104.749668 175.647923 
L 104.770406 176.261579 
L 104.992596 176.875235 
L 105.3955 177.488891 
L 105.596951 178.102547 
L 105.70064 178.716203 
L 105.928755 179.32986 
L 106.524223 180.557172 
L 106.586436 181.170828 
L 107.125616 181.784484 
L 107.29448 182.39814 
L 107.338918 183.011797 
L 107.463344 183.625453 
L 107.795147 184.239109 
L 108.32544 184.852765 
L 109.054222 185.466421 
L 109.131247 186.080077 
L 109.519338 186.693734 
L 109.809666 186.693734 
L 109.833366 187.30739 
L 110.621399 187.921046 
L 110.813963 188.534702 
L 110.929502 189.148358 
L 111.30278 189.762015 
L 111.519045 189.762015 
L 111.800485 190.375671 
L 112.132288 190.989327 
L 112.277452 191.602983 
L 112.431503 192.216639 
L 113.838704 192.216639 
L 113.942393 192.830295 
L 114.057931 193.443952 
L 114.668212 194.057608 
L 114.763013 194.671264 
L 114.7719 195.28492 
L 115.358481 195.898576 
L 115.693247 196.512232 
L 115.918399 197.125889 
L 115.945061 197.739545 
L 116.030975 198.353201 
L 116.786419 198.966857 
L 116.807157 199.580513 
L 116.848632 200.194169 
L 116.866408 200.807826 
L 117.168585 201.421482 
L 117.215986 201.421482 
L 117.518164 202.035138 
L 117.91218 202.648794 
L 118.246946 203.26245 
L 118.353597 203.876107 
L 118.47506 204.489763 
L 118.836489 205.103419 
L 119.375669 205.717075 
L 119.396406 206.330731 
L 119.420107 206.944387 
L 119.488245 207.558044 
L 119.50602 208.1717 
L 119.562308 208.785356 
L 119.917811 209.399012 
L 120.077788 210.012668 
L 120.196289 210.626324 
L 120.231839 211.239981 
L 120.498467 211.853637 
L 120.732507 211.853637 
L 121.259836 212.467293 
L 121.60349 213.080949 
L 121.721991 213.694605 
L 122.000468 214.308262 
L 122.231546 214.921918 
L 122.430035 215.535574 
L 122.492248 216.14923 
L 122.495211 216.762886 
L 122.640374 217.376542 
L 122.871452 217.990199 
L 123.348419 218.603855 
L 123.434332 219.217511 
L 123.683184 219.831167 
L 124.370491 220.444823 
L 124.758582 220.444823 
L 125.001509 221.058479 
L 125.042985 221.672136 
L 125.152598 222.285792 
L 125.466626 222.899448 
L 125.632528 223.513104 
L 125.742141 224.12676 
L 125.89323 224.740416 
L 125.967293 225.354073 
L 125.985069 225.967729 
L 126.281321 226.581385 
L 126.334647 227.195041 
L 126.702 227.808697 
L 126.764213 228.422354 
L 126.897527 229.03601 
L 127.152304 229.649666 
L 127.318206 230.263322 
L 128.54173 230.876978 
L 129.063135 230.876978 
L 129.3505 231.490634 
L 129.623053 232.104291 
L 130.180008 232.717947 
L 132.058251 233.331603 
L 132.324878 233.945259 
L 132.535218 234.558915 
L 132.872946 235.172571 
L 133.133648 235.786228 
L 133.305475 236.399884 
L 133.391388 237.01354 
L 133.607653 237.627196 
L 133.951306 238.240852 
L 134.662313 238.854508 
L 134.768964 239.468165 
L 135.011891 240.081821 
L 135.477008 240.695477 
L 135.536258 241.309133 
L 135.595509 241.922789 
L 135.847324 242.536446 
L 136.137652 243.150102 
L 136.318366 243.763758 
L 136.602769 244.377414 
L 136.836808 244.99107 
L 137.041223 245.604726 
L 137.109361 246.218383 
L 137.624841 246.832039 
L 138.027744 247.445695 
L 138.540262 248.059351 
L 139.538634 248.673007 
L 139.855624 249.286663 
L 140.042263 249.90032 
L 140.071889 250.513976 
L 140.590331 251.127632 
L 140.993235 251.741288 
L 141.165061 252.354944 
L 141.259862 252.354944 
L 142.421173 252.9686 
L 143.161805 252.9686 
L 143.170693 253.582257 
L 143.232906 254.195913 
L 143.256606 254.809569 
L 143.461021 254.809569 
L 144.16314 255.423225 
L 144.598631 256.036881 
L 144.616406 256.650538 
L 145.605891 257.264194 
L 146.305047 257.87785 
L 146.328748 258.491506 
L 146.796827 259.105162 
L 146.933103 259.718818 
L 147.498946 260.332475 
L 147.626335 260.332475 
L 148.248466 260.946131 
L 148.328454 261.559787 
L 148.358079 262.173443 
L 149.312013 262.787099 
L 149.593453 263.400755 
L 149.640854 264.014412 
L 149.916369 264.628068 
L 150.162259 265.241724 
L 150.828828 265.85538 
L 153.385489 266.469036 
L 153.767655 267.082692 
L 153.856531 267.696349 
L 154.179447 268.310005 
L 154.496437 268.923661 
L 154.502362 269.537317 
L 154.623826 270.150973 
L 155.530359 270.76463 
L 156.122865 271.378286 
L 156.682783 271.991942 
L 156.981998 272.605598 
L 157.127162 273.219254 
L 157.310839 273.83291 
L 157.870756 274.446567 
L 157.974445 275.060223 
L 159.452746 275.673879 
L 160.362242 276.287535 
L 160.385943 276.901191 
L 160.566657 277.514847 
L 160.637757 278.128504 
L 161.399127 278.128504 
L 161.493928 278.74216 
L 161.716118 279.355816 
L 162.358986 279.969472 
L 163.283295 280.583128 
L 163.952826 281.196785 
L 164.018002 281.810441 
L 164.112803 282.424097 
L 164.835659 282.424097 
L 164.957123 282.424097 
L 166.097696 282.424097 
L 167.413059 283.037753 
L 167.943351 283.651409 
L 168.532894 284.265065 
L 168.544744 284.878722 
L 168.86766 285.492378 
L 169.89862 286.106034 
L 169.990458 286.71969 
L 170.144509 286.71969 
L 170.369662 287.333346 
L 170.44965 287.947002 
L 170.748865 288.560659 
L 172.736721 289.174315 
L 172.84041 289.787971 
L 173.243314 290.401627 
L 173.720281 291.015283 
L 173.915807 291.628939 
L 174.037271 292.242596 
L 174.511276 292.242596 
L 175.47706 292.856252 
L 175.625186 293.469908 
L 176.069565 294.083564 
L 179.123932 294.69722 
L 180.04824 294.69722 
L 180.483732 295.924533 
L 181.31324 296.538189 
L 181.437666 297.151845 
L 182.714515 297.151845 
L 183.203332 297.765501 
L 186.379162 298.379157 
L 187.347909 298.992814 
L 188.28703 299.60647 
L 188.704747 299.60647 
L 189.249852 299.60647 
L 189.54018 300.220126 
L 190.3845 300.833782 
L 193.826958 301.447438 
L 194.182461 302.061094 
L 195.151207 302.674751 
L 196.069591 303.288407 
L 196.146617 303.288407 
L 199.799414 303.902063 
L 200.151955 304.515719 
L 206.799867 304.515719 
L 210.079386 304.515719 
L 211.273284 304.515719 
L 211.942816 305.129375 
L 212.544209 305.129375 
L 213.536656 305.743031 
L 217.091689 305.743031 
L 221.19479 306.356688 
L 223.206347 306.356688 
L 230.660067 306.356688 
L 230.763755 306.970344 
L 234.973508 306.970344 
L 235.894854 306.970344 
L 238.795169 306.970344 
L 242.006549 306.970344 
L 243.547063 306.970344 
L 244.255107 306.970344 
L 244.266958 306.970344 
L 245.167566 306.970344 
L 246.080025 306.970344 
L 251.409612 306.970344 
L 259.132923 306.970344 
L 272.064357 306.970344 
L 281.254118 306.970344 
L 282.021413 307.584 
L 283.55304 307.584 
L 287.887218 307.584 
L 310.680908 307.584 
L 313.412359 307.584 
L 330.313581 307.584 
L 333.107244 307.584 
L 398.487273 307.584 
L 398.487273 306.970344 
L 398.487273 306.970344 
L 333.107244 306.356688 
L 330.313581 305.743031 
L 313.412359 305.129375 
L 310.680908 304.515719 
L 287.887218 303.902063 
L 283.55304 303.288407 
L 282.021413 302.674751 
L 281.254118 302.061094 
L 272.064357 301.447438 
L 259.132923 300.833782 
L 251.409612 300.220126 
L 246.080025 299.60647 
L 245.167566 298.992814 
L 244.266958 298.379157 
L 244.255107 297.765501 
L 243.547063 297.151845 
L 242.006549 296.538189 
L 238.795169 295.924533 
L 235.894854 295.310877 
L 234.973508 294.69722 
L 230.763755 294.083564 
L 230.660067 293.469908 
L 223.206347 292.856252 
L 221.19479 292.242596 
L 217.091689 291.628939 
L 213.536656 291.015283 
L 212.544209 290.401627 
L 211.942816 289.787971 
L 211.273284 289.174315 
L 210.079386 288.560659 
L 206.799867 287.947002 
L 200.151955 287.333346 
L 199.799414 286.71969 
L 196.146617 286.106034 
L 196.069591 285.492378 
L 195.151207 284.878722 
L 194.182461 284.265065 
L 193.826958 283.651409 
L 190.3845 283.037753 
L 189.54018 282.424097 
L 189.249852 281.810441 
L 188.704747 281.196785 
L 188.28703 280.583128 
L 187.347909 279.969472 
L 186.379162 279.355816 
L 183.203332 278.74216 
L 182.714515 278.128504 
L 181.437666 277.514847 
L 181.31324 276.901191 
L 180.483732 276.287535 
L 180.04824 275.060223 
L 179.123932 274.446567 
L 176.069565 273.83291 
L 175.625186 273.219254 
L 175.47706 272.605598 
L 174.511276 271.991942 
L 174.037271 271.378286 
L 173.915807 270.76463 
L 173.720281 270.150973 
L 173.243314 269.537317 
L 172.84041 268.923661 
L 172.736721 268.310005 
L 170.748865 267.696349 
L 170.44965 267.082692 
L 170.369662 266.469036 
L 170.144509 265.85538 
L 169.990458 265.241724 
L 169.89862 264.628068 
L 168.86766 264.014412 
L 168.544744 263.400755 
L 168.532894 262.787099 
L 167.943351 262.173443 
L 167.413059 261.559787 
L 166.097696 260.946131 
L 164.957123 260.332475 
L 164.835659 259.718818 
L 164.112803 259.105162 
L 164.018002 258.491506 
L 163.952826 257.87785 
L 163.283295 257.264194 
L 162.358986 256.650538 
L 161.716118 256.036881 
L 161.493928 255.423225 
L 161.399127 254.809569 
L 160.637757 254.195913 
L 160.566657 253.582257 
L 160.385943 252.9686 
L 160.362242 252.354944 
L 159.452746 251.741288 
L 157.974445 251.127632 
L 157.870756 250.513976 
L 157.310839 249.90032 
L 157.127162 249.286663 
L 156.981998 248.673007 
L 156.682783 248.059351 
L 156.122865 247.445695 
L 155.530359 246.832039 
L 154.623826 246.218383 
L 154.502362 245.604726 
L 154.496437 244.99107 
L 154.179447 244.377414 
L 153.856531 243.763758 
L 153.767655 243.150102 
L 153.385489 242.536446 
L 150.828828 241.922789 
L 150.162259 241.309133 
L 149.916369 240.695477 
L 149.640854 240.081821 
L 149.593453 239.468165 
L 149.312013 238.854508 
L 148.358079 238.240852 
L 148.328454 237.627196 
L 148.248466 237.01354 
L 147.626335 236.399884 
L 147.498946 235.786228 
L 146.933103 235.172571 
L 146.796827 234.558915 
L 146.328748 233.945259 
L 146.305047 233.331603 
L 145.605891 232.717947 
L 144.616406 232.104291 
L 144.598631 231.490634 
L 144.16314 230.876978 
L 143.461021 230.263322 
L 143.256606 229.649666 
L 143.232906 229.03601 
L 143.170693 228.422354 
L 143.161805 227.808697 
L 142.421173 227.195041 
L 141.259862 226.581385 
L 141.165061 225.967729 
L 140.993235 225.354073 
L 140.590331 224.740416 
L 140.071889 224.12676 
L 140.042263 223.513104 
L 139.855624 222.899448 
L 139.538634 222.285792 
L 138.540262 221.672136 
L 138.027744 221.058479 
L 137.624841 220.444823 
L 137.109361 219.831167 
L 137.041223 219.217511 
L 136.836808 218.603855 
L 136.602769 217.990199 
L 136.318366 217.376542 
L 136.137652 216.762886 
L 135.847324 216.14923 
L 135.595509 215.535574 
L 135.536258 214.921918 
L 135.477008 214.308262 
L 135.011891 213.694605 
L 134.768964 213.080949 
L 134.662313 212.467293 
L 133.951306 211.853637 
L 133.607653 211.239981 
L 133.391388 210.626324 
L 133.305475 210.012668 
L 133.133648 209.399012 
L 132.872946 208.785356 
L 132.535218 208.1717 
L 132.324878 207.558044 
L 132.058251 206.944387 
L 130.180008 206.330731 
L 129.623053 205.717075 
L 129.3505 205.103419 
L 129.063135 204.489763 
L 128.54173 203.876107 
L 127.318206 203.26245 
L 127.152304 202.648794 
L 126.897527 202.035138 
L 126.764213 201.421482 
L 126.702 200.807826 
L 126.334647 200.194169 
L 126.281321 199.580513 
L 125.985069 198.966857 
L 125.967293 198.353201 
L 125.89323 197.739545 
L 125.742141 197.125889 
L 125.632528 196.512232 
L 125.466626 195.898576 
L 125.152598 195.28492 
L 125.042985 194.671264 
L 125.001509 194.057608 
L 124.758582 193.443952 
L 124.370491 192.830295 
L 123.683184 192.216639 
L 123.434332 191.602983 
L 123.348419 190.989327 
L 122.871452 190.375671 
L 122.640374 189.762015 
L 122.495211 189.148358 
L 122.492248 188.534702 
L 122.430035 187.921046 
L 122.231546 187.30739 
L 122.000468 186.693734 
L 121.721991 186.080077 
L 121.60349 185.466421 
L 121.259836 184.852765 
L 120.732507 184.239109 
L 120.498467 183.625453 
L 120.231839 183.011797 
L 120.196289 182.39814 
L 120.077788 181.784484 
L 119.917811 181.170828 
L 119.562308 180.557172 
L 119.50602 179.943516 
L 119.488245 179.32986 
L 119.420107 178.716203 
L 119.396406 178.102547 
L 119.375669 177.488891 
L 118.836489 176.875235 
L 118.47506 176.261579 
L 118.353597 175.647923 
L 118.246946 175.034266 
L 117.91218 174.42061 
L 117.518164 173.806954 
L 117.215986 173.193298 
L 117.168585 172.579642 
L 116.866408 171.965985 
L 116.848632 171.352329 
L 116.807157 170.738673 
L 116.786419 170.125017 
L 116.030975 169.511361 
L 115.945061 168.897705 
L 115.918399 168.284048 
L 115.693247 167.670392 
L 115.358481 167.056736 
L 114.7719 166.44308 
L 114.763013 165.829424 
L 114.668212 165.215768 
L 114.057931 164.602111 
L 113.942393 163.988455 
L 113.838704 163.374799 
L 112.431503 162.761143 
L 112.277452 162.147487 
L 112.132288 161.533831 
L 111.800485 160.920174 
L 111.519045 160.306518 
L 111.30278 160.306518 
L 110.929502 159.692862 
L 110.813963 159.079206 
L 110.621399 158.46555 
L 109.833366 157.851893 
L 109.809666 157.238237 
L 109.519338 157.238237 
L 109.131247 156.624581 
L 109.054222 156.010925 
L 108.32544 155.397269 
L 107.795147 154.783613 
L 107.463344 154.169956 
L 107.338918 153.5563 
L 107.29448 152.942644 
L 107.125616 152.328988 
L 106.586436 151.715332 
L 106.524223 151.101676 
L 105.928755 149.874363 
L 105.70064 149.260707 
L 105.596951 148.647051 
L 105.3955 148.033395 
L 104.992596 147.419738 
L 104.770406 146.806082 
L 104.749668 146.192426 
L 104.648943 145.57877 
L 104.515629 144.965114 
L 104.237151 144.351458 
L 103.899423 143.737801 
L 103.834247 143.124145 
L 103.730559 142.510489 
L 103.132128 141.896833 
L 102.886238 141.283177 
L 102.877351 140.669521 
L 102.80625 140.055864 
L 102.675899 139.442208 
L 102.640349 138.828552 
L 102.486297 138.214896 
L 101.801953 137.60124 
L 101.295361 136.987584 
L 101.120572 136.373927 
L 100.856907 135.760271 
L 100.821356 135.146615 
L 100.809506 134.532959 
L 100.729518 133.919303 
L 100.640642 133.305646 
L 100.536954 132.69199 
L 100.531029 132.078334 
L 100.468816 131.464678 
L 100.249589 130.851022 
L 100.217001 130.237366 
L 99.763734 129.623709 
L 99.488219 129.010053 
L 99.351943 128.396397 
L 98.578723 127.782741 
L 98.531322 127.169085 
L 98.507622 126.555429 
L 98.451334 125.941772 
L 98.371346 125.328116 
L 98.003992 124.71446 
L 97.609976 124.100804 
L 97.604051 123.487148 
L 97.414449 122.873492 
L 97.118197 122.259835 
L 97.035246 121.646179 
L 96.893044 121.032523 
L 96.365715 120.418867 
L 96.267951 119.805211 
L 96.057612 119.191554 
L 96.007249 118.577898 
L 95.562869 118.577898 
L 95.438443 117.964242 
L 95.014802 117.350586 
L 94.460809 116.73693 
L 94.161594 116.123274 
L 94.137894 115.509617 
L 94.07568 114.895961 
L 93.103971 114.282305 
L 92.834381 113.668649 
L 92.792906 113.054993 
L 92.778093 112.441337 
L 92.665517 111.82768 
L 92.629967 111.214024 
L 92.324826 110.600368 
L 92.221138 109.986712 
L 91.738246 109.373056 
L 91.678995 108.7594 
L 91.604932 108.145743 
L 91.519019 107.532087 
L 91.421255 106.918431 
L 91.311642 106.304775 
L 91.213878 105.691119 
L 90.8643 105.077462 
L 90.736911 104.463806 
L 90.319195 103.85015 
L 89.839266 103.236494 
L 89.599301 102.622838 
L 89.214172 102.009182 
L 89.187509 101.395525 
L 89.095671 100.781869 
L 88.15655 100.168213 
L 87.919547 99.554557 
L 87.344817 98.940901 
L 87.110777 98.327245 
L 87.066339 97.713588 
L 86.882663 97.099932 
L 86.856 96.486276 
L 85.907991 96.486276 
L 85.857628 95.87262 
L 85.5673 95.258964 
L 85.057746 94.645308 
L 84.690392 94.031651 
L 84.565966 93.417995 
L 84.551153 92.804339 
L 84.426727 92.190683 
L 84.186762 91.577027 
L 84.163062 90.96337 
L 83.98531 90.349714 
L 83.623882 89.736058 
L 83.620919 89.122402 
L 83.582407 88.508746 
L 83.472793 87.89509 
L 83.416505 87.281433 
L 83.10544 86.667777 
L 83.049152 86.054121 
L 83.043227 85.440465 
L 82.844737 85.440465 
L 82.687723 84.826809 
L 82.483309 84.826809 
L 82.163356 84.213153 
L 82.118918 83.599496 
L 81.976716 82.98584 
L 81.887841 82.372184 
L 81.855253 81.758528 
L 81.796002 81.144872 
L 81.784152 80.531215 
L 81.5116 79.917559 
L 81.185722 79.303903 
L 80.963532 78.690247 
L 80.667279 78.690247 
L 80.622841 78.076591 
L 80.557666 77.462935 
L 79.651132 76.849278 
L 79.423017 76.235622 
L 79.351917 75.621966 
L 79.126765 75.00831 
L 78.836437 75.00831 
L 78.726823 74.394654 
L 78.569809 73.780998 
L 78.510559 73.167341 
L 78.273557 73.167341 
L 78.178756 73.167341 
L 78.095805 73.167341 
L 78.069142 72.553685 
L 77.34036 71.940029 
L 76.946344 71.326373 
L 76.667866 71.326373 
L 76.635279 70.712717 
L 76.389389 70.712717 
L 76.102024 70.099061 
L 76.024998 69.485404 
L 75.873909 69.485404 
L 75.607281 68.871748 
L 75.494705 68.871748 
L 75.346579 68.258092 
L 75.248816 67.644436 
L 75.242891 67.03078 
L 74.931825 66.417123 
L 74.700748 66.417123 
L 74.588172 66.417123 
L 74.300807 65.803467 
L 74.063804 65.803467 
L 73.832727 65.803467 
z
" clip-path="url(#pf679168cf5)" style="fill: #7cfc00"/>
   </g>
   <g id="PolyCollection_3">
    <path d="M 73.832727 54.144 
L 73.832727 65.803467 
L 74.063804 65.803467 
L 74.300807 65.803467 
L 74.588172 66.417123 
L 74.700748 66.417123 
L 74.931825 66.417123 
L 75.242891 67.03078 
L 75.248816 67.644436 
L 75.346579 68.258092 
L 75.494705 68.871748 
L 75.607281 68.871748 
L 75.873909 69.485404 
L 76.024998 69.485404 
L 76.102024 70.099061 
L 76.389389 70.712717 
L 76.635279 70.712717 
L 76.667866 71.326373 
L 76.946344 71.326373 
L 77.34036 71.940029 
L 78.069142 72.553685 
L 78.095805 73.167341 
L 78.178756 73.167341 
L 78.273557 73.167341 
L 78.510559 73.167341 
L 78.569809 73.780998 
L 78.726823 74.394654 
L 78.836437 75.00831 
L 79.126765 75.00831 
L 79.351917 75.621966 
L 79.423017 76.235622 
L 79.651132 76.849278 
L 80.557666 77.462935 
L 80.622841 78.076591 
L 80.667279 78.690247 
L 80.963532 78.690247 
L 81.185722 79.303903 
L 81.5116 79.917559 
L 81.784152 80.531215 
L 81.796002 81.144872 
L 81.855253 81.758528 
L 81.887841 82.372184 
L 81.976716 82.98584 
L 82.118918 83.599496 
L 82.163356 84.213153 
L 82.483309 84.826809 
L 82.687723 84.826809 
L 82.844737 85.440465 
L 83.043227 85.440465 
L 83.049152 86.054121 
L 83.10544 86.667777 
L 83.416505 87.281433 
L 83.472793 87.89509 
L 83.582407 88.508746 
L 83.620919 89.122402 
L 83.623882 89.736058 
L 83.98531 90.349714 
L 84.163062 90.96337 
L 84.186762 91.577027 
L 84.426727 92.190683 
L 84.551153 92.804339 
L 84.565966 93.417995 
L 84.690392 94.031651 
L 85.057746 94.645308 
L 85.5673 95.258964 
L 85.857628 95.87262 
L 85.907991 96.486276 
L 86.856 96.486276 
L 86.882663 97.099932 
L 87.066339 97.713588 
L 87.110777 98.327245 
L 87.344817 98.940901 
L 87.919547 99.554557 
L 88.15655 100.168213 
L 89.095671 100.781869 
L 89.187509 101.395525 
L 89.214172 102.009182 
L 89.599301 102.622838 
L 89.839266 103.236494 
L 90.319195 103.85015 
L 90.736911 104.463806 
L 90.8643 105.077462 
L 91.213878 105.691119 
L 91.311642 106.304775 
L 91.421255 106.918431 
L 91.519019 107.532087 
L 91.604932 108.145743 
L 91.678995 108.7594 
L 91.738246 109.373056 
L 92.221138 109.986712 
L 92.324826 110.600368 
L 92.629967 111.214024 
L 92.665517 111.82768 
L 92.778093 112.441337 
L 92.792906 113.054993 
L 92.834381 113.668649 
L 93.103971 114.282305 
L 94.07568 114.895961 
L 94.137894 115.509617 
L 94.161594 116.123274 
L 94.460809 116.73693 
L 95.014802 117.350586 
L 95.438443 117.964242 
L 95.562869 118.577898 
L 96.007249 118.577898 
L 96.057612 119.191554 
L 96.267951 119.805211 
L 96.365715 120.418867 
L 96.893044 121.032523 
L 97.035246 121.646179 
L 97.118197 122.259835 
L 97.414449 122.873492 
L 97.604051 123.487148 
L 97.609976 124.100804 
L 98.003992 124.71446 
L 98.371346 125.328116 
L 98.451334 125.941772 
L 98.507622 126.555429 
L 98.531322 127.169085 
L 98.578723 127.782741 
L 99.351943 128.396397 
L 99.488219 129.010053 
L 99.763734 129.623709 
L 100.217001 130.237366 
L 100.249589 130.851022 
L 100.468816 131.464678 
L 100.531029 132.078334 
L 100.536954 132.69199 
L 100.640642 133.305646 
L 100.729518 133.919303 
L 100.809506 134.532959 
L 100.821356 135.146615 
L 100.856907 135.760271 
L 101.120572 136.373927 
L 101.295361 136.987584 
L 101.801953 137.60124 
L 102.486297 138.214896 
L 102.640349 138.828552 
L 102.675899 139.442208 
L 102.80625 140.055864 
L 102.877351 140.669521 
L 102.886238 141.283177 
L 103.132128 141.896833 
L 103.730559 142.510489 
L 103.834247 143.124145 
L 103.899423 143.737801 
L 104.237151 144.351458 
L 104.515629 144.965114 
L 104.648943 145.57877 
L 104.749668 146.192426 
L 104.770406 146.806082 
L 104.992596 147.419738 
L 105.3955 148.033395 
L 105.596951 148.647051 
L 105.70064 149.260707 
L 105.928755 149.874363 
L 106.524223 151.101676 
L 106.586436 151.715332 
L 107.125616 152.328988 
L 107.29448 152.942644 
L 107.338918 153.5563 
L 107.463344 154.169956 
L 107.795147 154.783613 
L 108.32544 155.397269 
L 109.054222 156.010925 
L 109.131247 156.624581 
L 109.519338 157.238237 
L 109.809666 157.238237 
L 109.833366 157.851893 
L 110.621399 158.46555 
L 110.813963 159.079206 
L 110.929502 159.692862 
L 111.30278 160.306518 
L 111.519045 160.306518 
L 111.800485 160.920174 
L 112.132288 161.533831 
L 112.277452 162.147487 
L 112.431503 162.761143 
L 113.838704 163.374799 
L 113.942393 163.988455 
L 114.057931 164.602111 
L 114.668212 165.215768 
L 114.763013 165.829424 
L 114.7719 166.44308 
L 115.358481 167.056736 
L 115.693247 167.670392 
L 115.918399 168.284048 
L 115.945061 168.897705 
L 116.030975 169.511361 
L 116.786419 170.125017 
L 116.807157 170.738673 
L 116.848632 171.352329 
L 116.866408 171.965985 
L 117.168585 172.579642 
L 117.215986 173.193298 
L 117.518164 173.806954 
L 117.91218 174.42061 
L 118.246946 175.034266 
L 118.353597 175.647923 
L 118.47506 176.261579 
L 118.836489 176.875235 
L 119.375669 177.488891 
L 119.396406 178.102547 
L 119.420107 178.716203 
L 119.488245 179.32986 
L 119.50602 179.943516 
L 119.562308 180.557172 
L 119.917811 181.170828 
L 120.077788 181.784484 
L 120.196289 182.39814 
L 120.231839 183.011797 
L 120.498467 183.625453 
L 120.732507 184.239109 
L 121.259836 184.852765 
L 121.60349 185.466421 
L 121.721991 186.080077 
L 122.000468 186.693734 
L 122.231546 187.30739 
L 122.430035 187.921046 
L 122.492248 188.534702 
L 122.495211 189.148358 
L 122.640374 189.762015 
L 122.871452 190.375671 
L 123.348419 190.989327 
L 123.434332 191.602983 
L 123.683184 192.216639 
L 124.370491 192.830295 
L 124.758582 193.443952 
L 125.001509 194.057608 
L 125.042985 194.671264 
L 125.152598 195.28492 
L 125.466626 195.898576 
L 125.632528 196.512232 
L 125.742141 197.125889 
L 125.89323 197.739545 
L 125.967293 198.353201 
L 125.985069 198.966857 
L 126.281321 199.580513 
L 126.334647 200.194169 
L 126.702 200.807826 
L 126.764213 201.421482 
L 126.897527 202.035138 
L 127.152304 202.648794 
L 127.318206 203.26245 
L 128.54173 203.876107 
L 129.063135 204.489763 
L 129.3505 205.103419 
L 129.623053 205.717075 
L 130.180008 206.330731 
L 132.058251 206.944387 
L 132.324878 207.558044 
L 132.535218 208.1717 
L 132.872946 208.785356 
L 133.133648 209.399012 
L 133.305475 210.012668 
L 133.391388 210.626324 
L 133.607653 211.239981 
L 133.951306 211.853637 
L 134.662313 212.467293 
L 134.768964 213.080949 
L 135.011891 213.694605 
L 135.477008 214.308262 
L 135.536258 214.921918 
L 135.595509 215.535574 
L 135.847324 216.14923 
L 136.137652 216.762886 
L 136.318366 217.376542 
L 136.602769 217.990199 
L 136.836808 218.603855 
L 137.041223 219.217511 
L 137.109361 219.831167 
L 137.624841 220.444823 
L 138.027744 221.058479 
L 138.540262 221.672136 
L 139.538634 222.285792 
L 139.855624 222.899448 
L 140.042263 223.513104 
L 140.071889 224.12676 
L 140.590331 224.740416 
L 140.993235 225.354073 
L 141.165061 225.967729 
L 141.259862 226.581385 
L 142.421173 227.195041 
L 143.161805 227.808697 
L 143.170693 228.422354 
L 143.232906 229.03601 
L 143.256606 229.649666 
L 143.461021 230.263322 
L 144.16314 230.876978 
L 144.598631 231.490634 
L 144.616406 232.104291 
L 145.605891 232.717947 
L 146.305047 233.331603 
L 146.328748 233.945259 
L 146.796827 234.558915 
L 146.933103 235.172571 
L 147.498946 235.786228 
L 147.626335 236.399884 
L 148.248466 237.01354 
L 148.328454 237.627196 
L 148.358079 238.240852 
L 149.312013 238.854508 
L 149.593453 239.468165 
L 149.640854 240.081821 
L 149.916369 240.695477 
L 150.162259 241.309133 
L 150.828828 241.922789 
L 153.385489 242.536446 
L 153.767655 243.150102 
L 153.856531 243.763758 
L 154.179447 244.377414 
L 154.496437 244.99107 
L 154.502362 245.604726 
L 154.623826 246.218383 
L 155.530359 246.832039 
L 156.122865 247.445695 
L 156.682783 248.059351 
L 156.981998 248.673007 
L 157.127162 249.286663 
L 157.310839 249.90032 
L 157.870756 250.513976 
L 157.974445 251.127632 
L 159.452746 251.741288 
L 160.362242 252.354944 
L 160.385943 252.9686 
L 160.566657 253.582257 
L 160.637757 254.195913 
L 161.399127 254.809569 
L 161.493928 255.423225 
L 161.716118 256.036881 
L 162.358986 256.650538 
L 163.283295 257.264194 
L 163.952826 257.87785 
L 164.018002 258.491506 
L 164.112803 259.105162 
L 164.835659 259.718818 
L 164.957123 260.332475 
L 166.097696 260.946131 
L 167.413059 261.559787 
L 167.943351 262.173443 
L 168.532894 262.787099 
L 168.544744 263.400755 
L 168.86766 264.014412 
L 169.89862 264.628068 
L 169.990458 265.241724 
L 170.144509 265.85538 
L 170.369662 266.469036 
L 170.44965 267.082692 
L 170.748865 267.696349 
L 172.736721 268.310005 
L 172.84041 268.923661 
L 173.243314 269.537317 
L 173.720281 270.150973 
L 173.915807 270.76463 
L 174.037271 271.378286 
L 174.511276 271.991942 
L 175.47706 272.605598 
L 175.625186 273.219254 
L 176.069565 273.83291 
L 179.123932 274.446567 
L 180.04824 275.060223 
L 180.483732 276.287535 
L 181.31324 276.901191 
L 181.437666 277.514847 
L 182.714515 278.128504 
L 183.203332 278.74216 
L 186.379162 279.355816 
L 187.347909 279.969472 
L 188.28703 280.583128 
L 188.704747 281.196785 
L 189.249852 281.810441 
L 189.54018 282.424097 
L 190.3845 283.037753 
L 193.826958 283.651409 
L 194.182461 284.265065 
L 195.151207 284.878722 
L 196.069591 285.492378 
L 196.146617 286.106034 
L 199.799414 286.71969 
L 200.151955 287.333346 
L 206.799867 287.947002 
L 210.079386 288.560659 
L 211.273284 289.174315 
L 211.942816 289.787971 
L 212.544209 290.401627 
L 213.536656 291.015283 
L 217.091689 291.628939 
L 221.19479 292.242596 
L 223.206347 292.856252 
L 230.660067 293.469908 
L 230.763755 294.083564 
L 234.973508 294.69722 
L 235.894854 295.310877 
L 238.795169 295.924533 
L 242.006549 296.538189 
L 243.547063 297.151845 
L 244.255107 297.765501 
L 244.266958 298.379157 
L 245.167566 298.992814 
L 246.080025 299.60647 
L 251.409612 300.220126 
L 259.132923 300.833782 
L 272.064357 301.447438 
L 281.254118 302.061094 
L 282.021413 302.674751 
L 283.55304 303.288407 
L 287.887218 303.902063 
L 310.680908 304.515719 
L 313.412359 305.129375 
L 330.313581 305.743031 
L 333.107244 306.356688 
L 398.487273 306.970344 
L 398.487273 306.970344 
L 398.487273 306.970344 
L 333.107244 306.356688 
L 330.313581 305.743031 
L 313.412359 305.129375 
L 310.680908 304.515719 
L 287.887218 303.902063 
L 283.55304 303.288407 
L 282.021413 302.674751 
L 281.254118 302.061094 
L 272.064357 301.447438 
L 259.132923 300.833782 
L 251.409612 300.220126 
L 246.080025 299.60647 
L 245.167566 298.992814 
L 244.266958 298.379157 
L 244.255107 297.765501 
L 243.547063 297.151845 
L 242.006549 296.538189 
L 238.795169 295.924533 
L 235.894854 295.310877 
L 234.973508 294.69722 
L 230.763755 294.083564 
L 230.660067 293.469908 
L 223.206347 292.856252 
L 221.19479 292.242596 
L 217.091689 291.628939 
L 213.536656 291.015283 
L 212.544209 290.401627 
L 211.942816 289.787971 
L 211.273284 289.174315 
L 210.079386 288.560659 
L 206.799867 287.947002 
L 200.151955 287.333346 
L 199.799414 286.71969 
L 196.146617 286.106034 
L 196.069591 285.492378 
L 195.151207 284.878722 
L 194.182461 284.265065 
L 193.826958 283.651409 
L 190.3845 283.037753 
L 189.54018 282.424097 
L 189.249852 281.810441 
L 188.704747 281.196785 
L 188.28703 280.583128 
L 187.347909 279.969472 
L 186.379162 279.355816 
L 183.203332 278.74216 
L 182.714515 278.128504 
L 181.437666 277.514847 
L 181.31324 276.901191 
L 180.483732 276.287535 
L 180.04824 275.060223 
L 179.123932 274.446567 
L 176.069565 273.83291 
L 175.625186 273.219254 
L 175.47706 272.605598 
L 174.511276 271.991942 
L 174.037271 271.378286 
L 173.915807 270.76463 
L 173.720281 270.150973 
L 173.243314 269.537317 
L 172.84041 268.923661 
L 172.736721 268.310005 
L 170.748865 267.696349 
L 170.44965 267.082692 
L 170.369662 266.469036 
L 170.144509 265.85538 
L 169.990458 265.241724 
L 169.89862 264.628068 
L 168.86766 264.014412 
L 168.544744 263.400755 
L 168.532894 262.787099 
L 167.943351 262.173443 
L 167.413059 261.559787 
L 166.097696 260.946131 
L 164.957123 260.332475 
L 164.835659 259.718818 
L 164.112803 259.105162 
L 164.018002 258.491506 
L 163.952826 257.87785 
L 163.283295 257.264194 
L 162.358986 256.650538 
L 161.716118 256.036881 
L 161.493928 255.423225 
L 161.399127 254.809569 
L 160.637757 254.195913 
L 160.566657 253.582257 
L 160.385943 252.9686 
L 160.362242 252.354944 
L 159.452746 251.741288 
L 157.974445 251.127632 
L 157.870756 250.513976 
L 157.310839 249.90032 
L 157.127162 249.286663 
L 156.981998 248.673007 
L 156.682783 248.059351 
L 156.122865 247.445695 
L 155.530359 246.832039 
L 154.623826 246.218383 
L 154.502362 245.604726 
L 154.496437 244.99107 
L 154.179447 244.377414 
L 153.856531 243.763758 
L 153.767655 243.150102 
L 153.385489 242.536446 
L 150.828828 241.922789 
L 150.162259 241.309133 
L 149.916369 240.695477 
L 149.640854 240.081821 
L 149.593453 239.468165 
L 149.312013 238.854508 
L 148.358079 238.240852 
L 148.328454 237.627196 
L 148.248466 237.01354 
L 147.626335 236.399884 
L 147.498946 235.786228 
L 146.933103 235.172571 
L 146.796827 234.558915 
L 146.328748 233.945259 
L 146.305047 233.331603 
L 145.605891 232.717947 
L 144.616406 232.104291 
L 144.598631 231.490634 
L 144.16314 230.876978 
L 143.461021 230.263322 
L 143.256606 229.649666 
L 143.232906 229.03601 
L 143.170693 228.422354 
L 143.161805 227.808697 
L 142.421173 227.195041 
L 141.259862 226.581385 
L 141.165061 225.967729 
L 140.993235 225.354073 
L 140.590331 224.740416 
L 140.071889 224.12676 
L 140.042263 223.513104 
L 139.855624 222.899448 
L 139.538634 222.285792 
L 138.540262 221.672136 
L 138.027744 221.058479 
L 137.624841 220.444823 
L 137.109361 219.831167 
L 137.041223 219.217511 
L 136.836808 218.603855 
L 136.602769 217.990199 
L 136.318366 217.376542 
L 136.137652 216.762886 
L 135.847324 216.14923 
L 135.595509 215.535574 
L 135.536258 214.921918 
L 135.477008 214.308262 
L 135.011891 213.694605 
L 134.768964 213.080949 
L 134.662313 212.467293 
L 133.951306 211.853637 
L 133.607653 211.239981 
L 133.391388 210.626324 
L 133.305475 210.012668 
L 133.133648 209.399012 
L 132.872946 208.785356 
L 132.535218 208.1717 
L 132.324878 207.558044 
L 132.058251 206.944387 
L 130.180008 206.330731 
L 129.623053 205.717075 
L 129.3505 205.103419 
L 129.063135 204.489763 
L 128.54173 203.876107 
L 127.318206 203.26245 
L 127.152304 202.648794 
L 126.897527 202.035138 
L 126.764213 201.421482 
L 126.702 200.807826 
L 126.334647 200.194169 
L 126.281321 199.580513 
L 125.985069 198.966857 
L 125.967293 198.353201 
L 125.89323 197.739545 
L 125.742141 197.125889 
L 125.632528 196.512232 
L 125.466626 195.898576 
L 125.152598 195.28492 
L 125.042985 194.671264 
L 125.001509 194.057608 
L 124.758582 193.443952 
L 124.370491 192.830295 
L 123.683184 192.216639 
L 123.434332 191.602983 
L 123.348419 190.989327 
L 122.871452 190.375671 
L 122.640374 189.762015 
L 122.495211 189.148358 
L 122.492248 188.534702 
L 122.430035 187.921046 
L 122.231546 187.30739 
L 122.000468 186.693734 
L 121.721991 186.080077 
L 121.60349 185.466421 
L 121.259836 184.852765 
L 120.732507 184.239109 
L 120.498467 183.625453 
L 120.231839 183.011797 
L 120.196289 182.39814 
L 120.077788 181.784484 
L 119.917811 181.170828 
L 119.562308 180.557172 
L 119.50602 179.943516 
L 119.488245 179.32986 
L 119.420107 178.716203 
L 119.396406 178.102547 
L 119.375669 177.488891 
L 118.836489 176.875235 
L 118.47506 176.261579 
L 118.353597 175.647923 
L 118.246946 175.034266 
L 117.91218 174.42061 
L 117.518164 173.806954 
L 117.215986 173.193298 
L 117.168585 172.579642 
L 116.866408 171.965985 
L 116.848632 171.352329 
L 116.807157 170.738673 
L 116.786419 170.125017 
L 116.030975 169.511361 
L 115.945061 168.897705 
L 115.918399 168.284048 
L 115.693247 167.670392 
L 115.358481 167.056736 
L 114.7719 166.44308 
L 114.763013 165.829424 
L 114.668212 165.215768 
L 114.057931 164.602111 
L 113.942393 163.988455 
L 113.838704 163.374799 
L 112.431503 162.761143 
L 112.277452 162.147487 
L 112.132288 161.533831 
L 111.800485 160.920174 
L 111.519045 160.306518 
L 111.30278 159.692862 
L 110.929502 159.079206 
L 110.813963 158.46555 
L 110.621399 157.851893 
L 109.833366 157.238237 
L 109.809666 156.624581 
L 109.519338 156.010925 
L 109.131247 155.397269 
L 109.054222 154.783613 
L 108.32544 154.169956 
L 107.795147 153.5563 
L 107.463344 152.942644 
L 107.338918 152.328988 
L 107.29448 151.715332 
L 107.125616 151.101676 
L 106.586436 150.488019 
L 106.524223 149.874363 
L 105.928755 148.647051 
L 105.70064 148.033395 
L 105.596951 147.419738 
L 105.3955 146.806082 
L 104.992596 146.192426 
L 104.770406 145.57877 
L 104.749668 144.965114 
L 104.648943 144.351458 
L 104.515629 143.737801 
L 104.237151 143.124145 
L 103.899423 142.510489 
L 103.834247 141.896833 
L 103.730559 141.283177 
L 103.132128 140.669521 
L 102.886238 140.055864 
L 102.877351 139.442208 
L 102.80625 138.828552 
L 102.675899 138.214896 
L 102.640349 137.60124 
L 102.486297 136.987584 
L 101.801953 136.373927 
L 101.295361 135.760271 
L 101.120572 135.146615 
L 100.856907 134.532959 
L 100.821356 133.919303 
L 100.809506 133.305646 
L 100.729518 132.69199 
L 100.640642 132.078334 
L 100.536954 131.464678 
L 100.531029 130.851022 
L 100.468816 130.237366 
L 100.249589 129.623709 
L 100.217001 129.010053 
L 99.763734 128.396397 
L 99.488219 127.782741 
L 99.351943 127.169085 
L 98.578723 126.555429 
L 98.531322 125.941772 
L 98.507622 125.328116 
L 98.451334 124.71446 
L 98.371346 124.100804 
L 98.003992 123.487148 
L 97.609976 122.873492 
L 97.604051 122.259835 
L 97.414449 121.646179 
L 97.118197 121.032523 
L 97.035246 120.418867 
L 96.893044 119.805211 
L 96.365715 119.191554 
L 96.267951 118.577898 
L 96.057612 117.964242 
L 96.007249 117.350586 
L 95.562869 116.73693 
L 95.438443 116.123274 
L 95.014802 115.509617 
L 94.460809 114.895961 
L 94.161594 114.282305 
L 94.137894 113.668649 
L 94.07568 113.054993 
L 93.103971 112.441337 
L 92.834381 111.82768 
L 92.792906 111.214024 
L 92.778093 110.600368 
L 92.665517 109.986712 
L 92.629967 109.373056 
L 92.324826 108.7594 
L 92.221138 108.145743 
L 91.738246 107.532087 
L 91.678995 106.918431 
L 91.604932 106.304775 
L 91.519019 105.691119 
L 91.421255 105.077462 
L 91.311642 104.463806 
L 91.213878 103.85015 
L 90.8643 103.236494 
L 90.736911 102.622838 
L 90.319195 102.009182 
L 89.839266 101.395525 
L 89.599301 100.781869 
L 89.214172 100.168213 
L 89.187509 99.554557 
L 89.095671 98.940901 
L 88.15655 98.327245 
L 87.919547 97.713588 
L 87.344817 97.099932 
L 87.110777 96.486276 
L 87.066339 95.87262 
L 86.882663 95.258964 
L 86.856 94.645308 
L 85.907991 94.031651 
L 85.857628 93.417995 
L 85.5673 92.804339 
L 85.057746 92.190683 
L 84.690392 91.577027 
L 84.565966 90.96337 
L 84.551153 90.349714 
L 84.426727 89.736058 
L 84.186762 89.122402 
L 84.163062 88.508746 
L 83.98531 87.89509 
L 83.623882 87.281433 
L 83.620919 86.667777 
L 83.582407 86.054121 
L 83.472793 85.440465 
L 83.416505 84.826809 
L 83.10544 84.213153 
L 83.049152 83.599496 
L 83.043227 82.98584 
L 82.844737 82.372184 
L 82.687723 81.758528 
L 82.483309 81.144872 
L 82.163356 80.531215 
L 82.118918 79.917559 
L 81.976716 79.303903 
L 81.887841 78.690247 
L 81.855253 78.076591 
L 81.796002 77.462935 
L 81.784152 76.849278 
L 81.5116 76.235622 
L 81.185722 75.621966 
L 80.963532 75.00831 
L 80.667279 74.394654 
L 80.622841 73.780998 
L 80.557666 73.167341 
L 79.651132 72.553685 
L 79.423017 71.940029 
L 79.351917 71.326373 
L 79.126765 70.712717 
L 78.836437 70.099061 
L 78.726823 69.485404 
L 78.569809 68.871748 
L 78.510559 68.258092 
L 78.273557 67.644436 
L 78.178756 67.03078 
L 78.095805 66.417123 
L 78.069142 65.803467 
L 77.34036 65.189811 
L 76.946344 64.576155 
L 76.667866 63.962499 
L 76.635279 63.348843 
L 76.389389 62.735186 
L 76.102024 62.12153 
L 76.024998 61.507874 
L 75.873909 60.894218 
L 75.607281 60.280562 
L 75.494705 59.666906 
L 75.346579 59.053249 
L 75.248816 58.439593 
L 75.242891 57.825937 
L 74.931825 57.212281 
L 74.700748 56.598625 
L 74.588172 55.984969 
L 74.300807 55.371312 
L 74.063804 54.757656 
L 73.832727 54.144 
z
" clip-path="url(#pf679168cf5)" style="fill: #ff0000"/>
   </g>
   <g id="matplotlib.axis_1">
    <g id="xtick_1">
     <g id="line2d_1">
      <defs>
       <path id="m59a01c7d53" d="M 0 0 
L 0 3.5 
" style="stroke: #000000; stroke-width: 0.8"/>
      </defs>
      <g>
       <use xlink:href="#m59a01c7d53" x="57.90914" y="307.584" style="stroke: #000000; stroke-width: 0.8"/>
      </g>
     </g>
     <g id="text_1">
      <!-- 0 -->
      <g transform="translate(54.72789 322.182437)scale(0.1 -0.1)">
       <defs>
        <path id="DejaVuSans-30" d="M 2034 4250 
Q 1547 4250 1301 3770 
Q 1056 3291 1056 2328 
Q 1056 1369 1301 889 
Q 1547 409 2034 409 
Q 2525 409 2770 889 
Q 3016 1369 3016 2328 
Q 3016 3291 2770 3770 
Q 2525 4250 2034 4250 
z
M 2034 4750 
Q 2819 4750 3233 4129 
Q 3647 3509 3647 2328 
Q 3647 1150 3233 529 
Q 2819 -91 2034 -91 
Q 1250 -91 836 529 
Q 422 1150 422 2328 
Q 422 3509 836 4129 
Q 1250 4750 2034 4750 
z
" transform="scale(0.015625)"/>
       </defs>
       <use xlink:href="#DejaVuSans-30"/>
      </g>
     </g>
    </g>
    <g id="xtick_2">
     <g id="line2d_2">
      <g>
       <use xlink:href="#m59a01c7d53" x="117.159698" y="307.584" style="stroke: #000000; stroke-width: 0.8"/>
      </g>
     </g>
     <g id="text_2">
      <!-- 200 -->
      <g transform="translate(107.615948 322.182437)scale(0.1 -0.1)">
       <defs>
        <path id="DejaVuSans-32" d="M 1228 531 
L 3431 531 
L 3431 0 
L 469 0 
L 469 531 
Q 828 903 1448 1529 
Q 2069 2156 2228 2338 
Q 2531 2678 2651 2914 
Q 2772 3150 2772 3378 
Q 2772 3750 2511 3984 
Q 2250 4219 1831 4219 
Q 1534 4219 1204 4116 
Q 875 4013 500 3803 
L 500 4441 
Q 881 4594 1212 4672 
Q 1544 4750 1819 4750 
Q 2544 4750 2975 4387 
Q 3406 4025 3406 3419 
Q 3406 3131 3298 2873 
Q 3191 2616 2906 2266 
Q 2828 2175 2409 1742 
Q 1991 1309 1228 531 
z
" transform="scale(0.015625)"/>
       </defs>
       <use xlink:href="#DejaVuSans-32"/>
       <use xlink:href="#DejaVuSans-30" x="63.623047"/>
       <use xlink:href="#DejaVuSans-30" x="127.246094"/>
      </g>
     </g>
    </g>
    <g id="xtick_3">
     <g id="line2d_3">
      <g>
       <use xlink:href="#m59a01c7d53" x="176.410256" y="307.584" style="stroke: #000000; stroke-width: 0.8"/>
      </g>
     </g>
     <g id="text_3">
      <!-- 400 -->
      <g transform="translate(166.866506 322.182437)scale(0.1 -0.1)">
       <defs>
        <path id="DejaVuSans-34" d="M 2419 4116 
L 825 1625 
L 2419 1625 
L 2419 4116 
z
M 2253 4666 
L 3047 4666 
L 3047 1625 
L 3713 1625 
L 3713 1100 
L 3047 1100 
L 3047 0 
L 2419 0 
L 2419 1100 
L 313 1100 
L 313 1709 
L 2253 4666 
z
" transform="scale(0.015625)"/>
       </defs>
       <use xlink:href="#DejaVuSans-34"/>
       <use xlink:href="#DejaVuSans-30" x="63.623047"/>
       <use xlink:href="#DejaVuSans-30" x="127.246094"/>
      </g>
     </g>
    </g>
    <g id="xtick_4">
     <g id="line2d_4">
      <g>
       <use xlink:href="#m59a01c7d53" x="235.660814" y="307.584" style="stroke: #000000; stroke-width: 0.8"/>
      </g>
     </g>
     <g id="text_4">
      <!-- 600 -->
      <g transform="translate(226.117064 322.182437)scale(0.1 -0.1)">
       <defs>
        <path id="DejaVuSans-36" d="M 2113 2584 
Q 1688 2584 1439 2293 
Q 1191 2003 1191 1497 
Q 1191 994 1439 701 
Q 1688 409 2113 409 
Q 2538 409 2786 701 
Q 3034 994 3034 1497 
Q 3034 2003 2786 2293 
Q 2538 2584 2113 2584 
z
M 3366 4563 
L 3366 3988 
Q 3128 4100 2886 4159 
Q 2644 4219 2406 4219 
Q 1781 4219 1451 3797 
Q 1122 3375 1075 2522 
Q 1259 2794 1537 2939 
Q 1816 3084 2150 3084 
Q 2853 3084 3261 2657 
Q 3669 2231 3669 1497 
Q 3669 778 3244 343 
Q 2819 -91 2113 -91 
Q 1303 -91 875 529 
Q 447 1150 447 2328 
Q 447 3434 972 4092 
Q 1497 4750 2381 4750 
Q 2619 4750 2861 4703 
Q 3103 4656 3366 4563 
z
" transform="scale(0.015625)"/>
       </defs>
       <use xlink:href="#DejaVuSans-36"/>
       <use xlink:href="#DejaVuSans-30" x="63.623047"/>
       <use xlink:href="#DejaVuSans-30" x="127.246094"/>
      </g>
     </g>
    </g>
    <g id="xtick_5">
     <g id="line2d_5">
      <g>
       <use xlink:href="#m59a01c7d53" x="294.911372" y="307.584" style="stroke: #000000; stroke-width: 0.8"/>
      </g>
     </g>
     <g id="text_5">
      <!-- 800 -->
      <g transform="translate(285.367622 322.182437)scale(0.1 -0.1)">
       <defs>
        <path id="DejaVuSans-38" d="M 2034 2216 
Q 1584 2216 1326 1975 
Q 1069 1734 1069 1313 
Q 1069 891 1326 650 
Q 1584 409 2034 409 
Q 2484 409 2743 651 
Q 3003 894 3003 1313 
Q 3003 1734 2745 1975 
Q 2488 2216 2034 2216 
z
M 1403 2484 
Q 997 2584 770 2862 
Q 544 3141 544 3541 
Q 544 4100 942 4425 
Q 1341 4750 2034 4750 
Q 2731 4750 3128 4425 
Q 3525 4100 3525 3541 
Q 3525 3141 3298 2862 
Q 3072 2584 2669 2484 
Q 3125 2378 3379 2068 
Q 3634 1759 3634 1313 
Q 3634 634 3220 271 
Q 2806 -91 2034 -91 
Q 1263 -91 848 271 
Q 434 634 434 1313 
Q 434 1759 690 2068 
Q 947 2378 1403 2484 
z
M 1172 3481 
Q 1172 3119 1398 2916 
Q 1625 2713 2034 2713 
Q 2441 2713 2670 2916 
Q 2900 3119 2900 3481 
Q 2900 3844 2670 4047 
Q 2441 4250 2034 4250 
Q 1625 4250 1398 4047 
Q 1172 3844 1172 3481 
z
" transform="scale(0.015625)"/>
       </defs>
       <use xlink:href="#DejaVuSans-38"/>
       <use xlink:href="#DejaVuSans-30" x="63.623047"/>
       <use xlink:href="#DejaVuSans-30" x="127.246094"/>
      </g>
     </g>
    </g>
    <g id="xtick_6">
     <g id="line2d_6">
      <g>
       <use xlink:href="#m59a01c7d53" x="354.16193" y="307.584" style="stroke: #000000; stroke-width: 0.8"/>
      </g>
     </g>
     <g id="text_6">
      <!-- 1000 -->
      <g transform="translate(341.43693 322.182437)scale(0.1 -0.1)">
       <defs>
        <path id="DejaVuSans-31" d="M 794 531 
L 1825 531 
L 1825 4091 
L 703 3866 
L 703 4441 
L 1819 4666 
L 2450 4666 
L 2450 531 
L 3481 531 
L 3481 0 
L 794 0 
L 794 531 
z
" transform="scale(0.015625)"/>
       </defs>
       <use xlink:href="#DejaVuSans-31"/>
       <use xlink:href="#DejaVuSans-30" x="63.623047"/>
       <use xlink:href="#DejaVuSans-30" x="127.246094"/>
       <use xlink:href="#DejaVuSans-30" x="190.869141"/>
      </g>
     </g>
    </g>
    <g id="xtick_7">
     <g id="line2d_7">
      <g>
       <use xlink:href="#m59a01c7d53" x="413.412488" y="307.584" style="stroke: #000000; stroke-width: 0.8"/>
      </g>
     </g>
     <g id="text_7">
      <!-- 1200 -->
      <g transform="translate(400.687488 322.182437)scale(0.1 -0.1)">
       <use xlink:href="#DejaVuSans-31"/>
       <use xlink:href="#DejaVuSans-32" x="63.623047"/>
       <use xlink:href="#DejaVuSans-30" x="127.246094"/>
       <use xlink:href="#DejaVuSans-30" x="190.869141"/>
      </g>
     </g>
    </g>
    <g id="text_8">
     <!-- Score -->
     <g transform="translate(222.157656 335.860562)scale(0.1 -0.1)">
      <defs>
       <path id="DejaVuSans-53" d="M 3425 4513 
L 3425 3897 
Q 3066 4069 2747 4153 
Q 2428 4238 2131 4238 
Q 1616 4238 1336 4038 
Q 1056 3838 1056 3469 
Q 1056 3159 1242 3001 
Q 1428 2844 1947 2747 
L 2328 2669 
Q 3034 2534 3370 2195 
Q 3706 1856 3706 1288 
Q 3706 609 3251 259 
Q 2797 -91 1919 -91 
Q 1588 -91 1214 -16 
Q 841 59 441 206 
L 441 856 
Q 825 641 1194 531 
Q 1563 422 1919 422 
Q 2459 422 2753 634 
Q 3047 847 3047 1241 
Q 3047 1584 2836 1778 
Q 2625 1972 2144 2069 
L 1759 2144 
Q 1053 2284 737 2584 
Q 422 2884 422 3419 
Q 422 4038 858 4394 
Q 1294 4750 2059 4750 
Q 2388 4750 2728 4690 
Q 3069 4631 3425 4513 
z
" transform="scale(0.015625)"/>
       <path id="DejaVuSans-63" d="M 3122 3366 
L 3122 2828 
Q 2878 2963 2633 3030 
Q 2388 3097 2138 3097 
Q 1578 3097 1268 2742 
Q 959 2388 959 1747 
Q 959 1106 1268 751 
Q 1578 397 2138 397 
Q 2388 397 2633 464 
Q 2878 531 3122 666 
L 3122 134 
Q 2881 22 2623 -34 
Q 2366 -91 2075 -91 
Q 1284 -91 818 406 
Q 353 903 353 1747 
Q 353 2603 823 3093 
Q 1294 3584 2113 3584 
Q 2378 3584 2631 3529 
Q 2884 3475 3122 3366 
z
" transform="scale(0.015625)"/>
       <path id="DejaVuSans-6f" d="M 1959 3097 
Q 1497 3097 1228 2736 
Q 959 2375 959 1747 
Q 959 1119 1226 758 
Q 1494 397 1959 397 
Q 2419 397 2687 759 
Q 2956 1122 2956 1747 
Q 2956 2369 2687 2733 
Q 2419 3097 1959 3097 
z
M 1959 3584 
Q 2709 3584 3137 3096 
Q 3566 2609 3566 1747 
Q 3566 888 3137 398 
Q 2709 -91 1959 -91 
Q 1206 -91 779 398 
Q 353 888 353 1747 
Q 353 2609 779 3096 
Q 1206 3584 1959 3584 
z
" transform="scale(0.015625)"/>
       <path id="DejaVuSans-72" d="M 2631 2963 
Q 2534 3019 2420 3045 
Q 2306 3072 2169 3072 
Q 1681 3072 1420 2755 
Q 1159 2438 1159 1844 
L 1159 0 
L 581 0 
L 581 3500 
L 1159 3500 
L 1159 2956 
Q 1341 3275 1631 3429 
Q 1922 3584 2338 3584 
Q 2397 3584 2469 3576 
Q 2541 3569 2628 3553 
L 2631 2963 
z
" transform="scale(0.015625)"/>
       <path id="DejaVuSans-65" d="M 3597 1894 
L 3597 1613 
L 953 1613 
Q 991 1019 1311 708 
Q 1631 397 2203 397 
Q 2534 397 2845 478 
Q 3156 559 3463 722 
L 3463 178 
Q 3153 47 2828 -22 
Q 2503 -91 2169 -91 
Q 1331 -91 842 396 
Q 353 884 353 1716 
Q 353 2575 817 3079 
Q 1281 3584 2069 3584 
Q 2775 3584 3186 3129 
Q 3597 2675 3597 1894 
z
M 3022 2063 
Q 3016 2534 2758 2815 
Q 2500 3097 2075 3097 
Q 1594 3097 1305 2825 
Q 1016 2553 972 2059 
L 3022 2063 
z
" transform="scale(0.015625)"/>
      </defs>
      <use xlink:href="#DejaVuSans-53"/>
      <use xlink:href="#DejaVuSans-63" x="63.476562"/>
      <use xlink:href="#DejaVuSans-6f" x="118.457031"/>
      <use xlink:href="#DejaVuSans-72" x="179.638672"/>
      <use xlink:href="#DejaVuSans-65" x="218.501953"/>
     </g>
    </g>
   </g>
   <g id="matplotlib.axis_2">
    <g id="ytick_1">
     <g id="line2d_8">
      <defs>
       <path id="mf6741856d8" d="M 0 0 
L -3.5 0 
" style="stroke: #000000; stroke-width: 0.8"/>
      </defs>
      <g>
       <use xlink:href="#mf6741856d8" x="57.6" y="307.584" style="stroke: #000000; stroke-width: 0.8"/>
      </g>
     </g>
     <g id="text_9">
      <!-- 0 -->
      <g transform="translate(44.2375 311.383219)scale(0.1 -0.1)">
       <use xlink:href="#DejaVuSans-30"/>
      </g>
     </g>
    </g>
    <g id="ytick_2">
     <g id="line2d_9">
      <g>
       <use xlink:href="#mf6741856d8" x="57.6" y="276.901191" style="stroke: #000000; stroke-width: 0.8"/>
      </g>
     </g>
     <g id="text_10">
      <!-- 50 -->
      <g transform="translate(37.875 280.70041)scale(0.1 -0.1)">
       <defs>
        <path id="DejaVuSans-35" d="M 691 4666 
L 3169 4666 
L 3169 4134 
L 1269 4134 
L 1269 2991 
Q 1406 3038 1543 3061 
Q 1681 3084 1819 3084 
Q 2600 3084 3056 2656 
Q 3513 2228 3513 1497 
Q 3513 744 3044 326 
Q 2575 -91 1722 -91 
Q 1428 -91 1123 -41 
Q 819 9 494 109 
L 494 744 
Q 775 591 1075 516 
Q 1375 441 1709 441 
Q 2250 441 2565 725 
Q 2881 1009 2881 1497 
Q 2881 1984 2565 2268 
Q 2250 2553 1709 2553 
Q 1456 2553 1204 2497 
Q 953 2441 691 2322 
L 691 4666 
z
" transform="scale(0.015625)"/>
       </defs>
       <use xlink:href="#DejaVuSans-35"/>
       <use xlink:href="#DejaVuSans-30" x="63.623047"/>
      </g>
     </g>
    </g>
    <g id="ytick_3">
     <g id="line2d_10">
      <g>
       <use xlink:href="#mf6741856d8" x="57.6" y="246.218383" style="stroke: #000000; stroke-width: 0.8"/>
      </g>
     </g>
     <g id="text_11">
      <!-- 100 -->
      <g transform="translate(31.5125 250.017601)scale(0.1 -0.1)">
       <use xlink:href="#DejaVuSans-31"/>
       <use xlink:href="#DejaVuSans-30" x="63.623047"/>
       <use xlink:href="#DejaVuSans-30" x="127.246094"/>
      </g>
     </g>
    </g>
    <g id="ytick_4">
     <g id="line2d_11">
      <g>
       <use xlink:href="#mf6741856d8" x="57.6" y="215.535574" style="stroke: #000000; stroke-width: 0.8"/>
      </g>
     </g>
     <g id="text_12">
      <!-- 150 -->
      <g transform="translate(31.5125 219.334793)scale(0.1 -0.1)">
       <use xlink:href="#DejaVuSans-31"/>
       <use xlink:href="#DejaVuSans-35" x="63.623047"/>
       <use xlink:href="#DejaVuSans-30" x="127.246094"/>
      </g>
     </g>
    </g>
    <g id="ytick_5">
     <g id="line2d_12">
      <g>
       <use xlink:href="#mf6741856d8" x="57.6" y="184.852765" style="stroke: #000000; stroke-width: 0.8"/>
      </g>
     </g>
     <g id="text_13">
      <!-- 200 -->
      <g transform="translate(31.5125 188.651984)scale(0.1 -0.1)">
       <use xlink:href="#DejaVuSans-32"/>
       <use xlink:href="#DejaVuSans-30" x="63.623047"/>
       <use xlink:href="#DejaVuSans-30" x="127.246094"/>
      </g>
     </g>
    </g>
    <g id="ytick_6">
     <g id="line2d_13">
      <g>
       <use xlink:href="#mf6741856d8" x="57.6" y="154.169956" style="stroke: #000000; stroke-width: 0.8"/>
      </g>
     </g>
     <g id="text_14">
      <!-- 250 -->
      <g transform="translate(31.5125 157.969175)scale(0.1 -0.1)">
       <use xlink:href="#DejaVuSans-32"/>
       <use xlink:href="#DejaVuSans-35" x="63.623047"/>
       <use xlink:href="#DejaVuSans-30" x="127.246094"/>
      </g>
     </g>
    </g>
    <g id="ytick_7">
     <g id="line2d_14">
      <g>
       <use xlink:href="#mf6741856d8" x="57.6" y="123.487148" style="stroke: #000000; stroke-width: 0.8"/>
      </g>
     </g>
     <g id="text_15">
      <!-- 300 -->
      <g transform="translate(31.5125 127.286366)scale(0.1 -0.1)">
       <defs>
        <path id="DejaVuSans-33" d="M 2597 2516 
Q 3050 2419 3304 2112 
Q 3559 1806 3559 1356 
Q 3559 666 3084 287 
Q 2609 -91 1734 -91 
Q 1441 -91 1130 -33 
Q 819 25 488 141 
L 488 750 
Q 750 597 1062 519 
Q 1375 441 1716 441 
Q 2309 441 2620 675 
Q 2931 909 2931 1356 
Q 2931 1769 2642 2001 
Q 2353 2234 1838 2234 
L 1294 2234 
L 1294 2753 
L 1863 2753 
Q 2328 2753 2575 2939 
Q 2822 3125 2822 3475 
Q 2822 3834 2567 4026 
Q 2313 4219 1838 4219 
Q 1578 4219 1281 4162 
Q 984 4106 628 3988 
L 628 4550 
Q 988 4650 1302 4700 
Q 1616 4750 1894 4750 
Q 2613 4750 3031 4423 
Q 3450 4097 3450 3541 
Q 3450 3153 3228 2886 
Q 3006 2619 2597 2516 
z
" transform="scale(0.015625)"/>
       </defs>
       <use xlink:href="#DejaVuSans-33"/>
       <use xlink:href="#DejaVuSans-30" x="63.623047"/>
       <use xlink:href="#DejaVuSans-30" x="127.246094"/>
      </g>
     </g>
    </g>
    <g id="ytick_8">
     <g id="line2d_15">
      <g>
       <use xlink:href="#mf6741856d8" x="57.6" y="92.804339" style="stroke: #000000; stroke-width: 0.8"/>
      </g>
     </g>
     <g id="text_16">
      <!-- 350 -->
      <g transform="translate(31.5125 96.603558)scale(0.1 -0.1)">
       <use xlink:href="#DejaVuSans-33"/>
       <use xlink:href="#DejaVuSans-35" x="63.623047"/>
       <use xlink:href="#DejaVuSans-30" x="127.246094"/>
      </g>
     </g>
    </g>
    <g id="ytick_9">
     <g id="line2d_16">
      <g>
       <use xlink:href="#mf6741856d8" x="57.6" y="62.12153" style="stroke: #000000; stroke-width: 0.8"/>
      </g>
     </g>
     <g id="text_17">
      <!-- 400 -->
      <g transform="translate(31.5125 65.920749)scale(0.1 -0.1)">
       <use xlink:href="#DejaVuSans-34"/>
       <use xlink:href="#DejaVuSans-30" x="63.623047"/>
       <use xlink:href="#DejaVuSans-30" x="127.246094"/>
      </g>
     </g>
    </g>
    <g id="text_18">
     <!-- Number of crosslinks -->
     <g transform="translate(25.432812 227.019406)rotate(-90)scale(0.1 -0.1)">
      <defs>
       <path id="DejaVuSans-4e" d="M 628 4666 
L 1478 4666 
L 3547 763 
L 3547 4666 
L 4159 4666 
L 4159 0 
L 3309 0 
L 1241 3903 
L 1241 0 
L 628 0 
L 628 4666 
z
" transform="scale(0.015625)"/>
       <path id="DejaVuSans-75" d="M 544 1381 
L 544 3500 
L 1119 3500 
L 1119 1403 
Q 1119 906 1312 657 
Q 1506 409 1894 409 
Q 2359 409 2629 706 
Q 2900 1003 2900 1516 
L 2900 3500 
L 3475 3500 
L 3475 0 
L 2900 0 
L 2900 538 
Q 2691 219 2414 64 
Q 2138 -91 1772 -91 
Q 1169 -91 856 284 
Q 544 659 544 1381 
z
M 1991 3584 
L 1991 3584 
z
" transform="scale(0.015625)"/>
       <path id="DejaVuSans-6d" d="M 3328 2828 
Q 3544 3216 3844 3400 
Q 4144 3584 4550 3584 
Q 5097 3584 5394 3201 
Q 5691 2819 5691 2113 
L 5691 0 
L 5113 0 
L 5113 2094 
Q 5113 2597 4934 2840 
Q 4756 3084 4391 3084 
Q 3944 3084 3684 2787 
Q 3425 2491 3425 1978 
L 3425 0 
L 2847 0 
L 2847 2094 
Q 2847 2600 2669 2842 
Q 2491 3084 2119 3084 
Q 1678 3084 1418 2786 
Q 1159 2488 1159 1978 
L 1159 0 
L 581 0 
L 581 3500 
L 1159 3500 
L 1159 2956 
Q 1356 3278 1631 3431 
Q 1906 3584 2284 3584 
Q 2666 3584 2933 3390 
Q 3200 3197 3328 2828 
z
" transform="scale(0.015625)"/>
       <path id="DejaVuSans-62" d="M 3116 1747 
Q 3116 2381 2855 2742 
Q 2594 3103 2138 3103 
Q 1681 3103 1420 2742 
Q 1159 2381 1159 1747 
Q 1159 1113 1420 752 
Q 1681 391 2138 391 
Q 2594 391 2855 752 
Q 3116 1113 3116 1747 
z
M 1159 2969 
Q 1341 3281 1617 3432 
Q 1894 3584 2278 3584 
Q 2916 3584 3314 3078 
Q 3713 2572 3713 1747 
Q 3713 922 3314 415 
Q 2916 -91 2278 -91 
Q 1894 -91 1617 61 
Q 1341 213 1159 525 
L 1159 0 
L 581 0 
L 581 4863 
L 1159 4863 
L 1159 2969 
z
" transform="scale(0.015625)"/>
       <path id="DejaVuSans-20" transform="scale(0.015625)"/>
       <path id="DejaVuSans-66" d="M 2375 4863 
L 2375 4384 
L 1825 4384 
Q 1516 4384 1395 4259 
Q 1275 4134 1275 3809 
L 1275 3500 
L 2222 3500 
L 2222 3053 
L 1275 3053 
L 1275 0 
L 697 0 
L 697 3053 
L 147 3053 
L 147 3500 
L 697 3500 
L 697 3744 
Q 697 4328 969 4595 
Q 1241 4863 1831 4863 
L 2375 4863 
z
" transform="scale(0.015625)"/>
       <path id="DejaVuSans-73" d="M 2834 3397 
L 2834 2853 
Q 2591 2978 2328 3040 
Q 2066 3103 1784 3103 
Q 1356 3103 1142 2972 
Q 928 2841 928 2578 
Q 928 2378 1081 2264 
Q 1234 2150 1697 2047 
L 1894 2003 
Q 2506 1872 2764 1633 
Q 3022 1394 3022 966 
Q 3022 478 2636 193 
Q 2250 -91 1575 -91 
Q 1294 -91 989 -36 
Q 684 19 347 128 
L 347 722 
Q 666 556 975 473 
Q 1284 391 1588 391 
Q 1994 391 2212 530 
Q 2431 669 2431 922 
Q 2431 1156 2273 1281 
Q 2116 1406 1581 1522 
L 1381 1569 
Q 847 1681 609 1914 
Q 372 2147 372 2553 
Q 372 3047 722 3315 
Q 1072 3584 1716 3584 
Q 2034 3584 2315 3537 
Q 2597 3491 2834 3397 
z
" transform="scale(0.015625)"/>
       <path id="DejaVuSans-6c" d="M 603 4863 
L 1178 4863 
L 1178 0 
L 603 0 
L 603 4863 
z
" transform="scale(0.015625)"/>
       <path id="DejaVuSans-69" d="M 603 3500 
L 1178 3500 
L 1178 0 
L 603 0 
L 603 3500 
z
M 603 4863 
L 1178 4863 
L 1178 4134 
L 603 4134 
L 603 4863 
z
" transform="scale(0.015625)"/>
       <path id="DejaVuSans-6e" d="M 3513 2113 
L 3513 0 
L 2938 0 
L 2938 2094 
Q 2938 2591 2744 2837 
Q 2550 3084 2163 3084 
Q 1697 3084 1428 2787 
Q 1159 2491 1159 1978 
L 1159 0 
L 581 0 
L 581 3500 
L 1159 3500 
L 1159 2956 
Q 1366 3272 1645 3428 
Q 1925 3584 2291 3584 
Q 2894 3584 3203 3211 
Q 3513 2838 3513 2113 
z
" transform="scale(0.015625)"/>
       <path id="DejaVuSans-6b" d="M 581 4863 
L 1159 4863 
L 1159 1991 
L 2875 3500 
L 3609 3500 
L 1753 1863 
L 3688 0 
L 2938 0 
L 1159 1709 
L 1159 0 
L 581 0 
L 581 4863 
z
" transform="scale(0.015625)"/>
      </defs>
      <use xlink:href="#DejaVuSans-4e"/>
      <use xlink:href="#DejaVuSans-75" x="74.804688"/>
      <use xlink:href="#DejaVuSans-6d" x="138.183594"/>
      <use xlink:href="#DejaVuSans-62" x="235.595703"/>
      <use xlink:href="#DejaVuSans-65" x="299.072266"/>
      <use xlink:href="#DejaVuSans-72" x="360.595703"/>
      <use xlink:href="#DejaVuSans-20" x="401.708984"/>
      <use xlink:href="#DejaVuSans-6f" x="433.496094"/>
      <use xlink:href="#DejaVuSans-66" x="494.677734"/>
      <use xlink:href="#DejaVuSans-20" x="529.882812"/>
      <use xlink:href="#DejaVuSans-63" x="561.669922"/>
      <use xlink:href="#DejaVuSans-72" x="616.650391"/>
      <use xlink:href="#DejaVuSans-6f" x="655.513672"/>
      <use xlink:href="#DejaVuSans-73" x="716.695312"/>
      <use xlink:href="#DejaVuSans-73" x="768.794922"/>
      <use xlink:href="#DejaVuSans-6c" x="820.894531"/>
      <use xlink:href="#DejaVuSans-69" x="848.677734"/>
      <use xlink:href="#DejaVuSans-6e" x="876.460938"/>
      <use xlink:href="#DejaVuSans-6b" x="939.839844"/>
      <use xlink:href="#DejaVuSans-73" x="997.75"/>
     </g>
    </g>
   </g>
   <g id="patch_3">
    <path d="M 57.6 307.584 
L 57.6 41.472 
" style="fill: none; stroke: #000000; stroke-width: 0.8; stroke-linejoin: miter; stroke-linecap: square"/>
   </g>
   <g id="patch_4">
    <path d="M 414.72 307.584 
L 414.72 41.472 
" style="fill: none; stroke: #000000; stroke-width: 0.8; stroke-linejoin: miter; stroke-linecap: square"/>
   </g>
   <g id="patch_5">
    <path d="M 57.6 307.584 
L 414.72 307.584 
" style="fill: none; stroke: #000000; stroke-width: 0.8; stroke-linejoin: miter; stroke-linecap: square"/>
   </g>
   <g id="patch_6">
    <path d="M 57.6 41.472 
L 414.72 41.472 
" style="fill: none; stroke: #000000; stroke-width: 0.8; stroke-linejoin: miter; stroke-linecap: square"/>
   </g>
   <g id="legend_1">
    <g id="patch_7">
     <path d="M 293.087188 93.506375 
L 407.72 93.506375 
Q 409.72 93.506375 409.72 91.506375 
L 409.72 48.472 
Q 409.72 46.472 407.72 46.472 
L 293.087188 46.472 
Q 291.087188 46.472 291.087188 48.472 
L 291.087188 91.506375 
Q 291.087188 93.506375 293.087188 93.506375 
z
" style="fill: #ffffff; opacity: 0.8; stroke: #cccccc; stroke-linejoin: miter"/>
    </g>
    <g id="patch_8">
     <path d="M 295.087188 58.070438 
L 315.087188 58.070438 
L 315.087188 51.070438 
L 295.087188 51.070438 
z
" style="fill: #008000"/>
    </g>
    <g id="text_19">
     <!-- true -->
     <g transform="translate(323.087188 58.070438)scale(0.1 -0.1)">
      <defs>
       <path id="DejaVuSans-74" d="M 1172 4494 
L 1172 3500 
L 2356 3500 
L 2356 3053 
L 1172 3053 
L 1172 1153 
Q 1172 725 1289 603 
Q 1406 481 1766 481 
L 2356 481 
L 2356 0 
L 1766 0 
Q 1100 0 847 248 
Q 594 497 594 1153 
L 594 3053 
L 172 3053 
L 172 3500 
L 594 3500 
L 594 4494 
L 1172 4494 
z
" transform="scale(0.015625)"/>
      </defs>
      <use xlink:href="#DejaVuSans-74"/>
      <use xlink:href="#DejaVuSans-72" x="39.208984"/>
      <use xlink:href="#DejaVuSans-75" x="80.322266"/>
      <use xlink:href="#DejaVuSans-65" x="143.701172"/>
     </g>
    </g>
    <g id="patch_9">
     <path d="M 295.087188 72.748563 
L 315.087188 72.748563 
L 315.087188 65.748563 
L 295.087188 65.748563 
z
" style="fill: #7cfc00"/>
    </g>
    <g id="text_20">
     <!-- true homeotypic -->
     <g transform="translate(323.087188 72.748563)scale(0.1 -0.1)">
      <defs>
       <path id="DejaVuSans-68" d="M 3513 2113 
L 3513 0 
L 2938 0 
L 2938 2094 
Q 2938 2591 2744 2837 
Q 2550 3084 2163 3084 
Q 1697 3084 1428 2787 
Q 1159 2491 1159 1978 
L 1159 0 
L 581 0 
L 581 4863 
L 1159 4863 
L 1159 2956 
Q 1366 3272 1645 3428 
Q 1925 3584 2291 3584 
Q 2894 3584 3203 3211 
Q 3513 2838 3513 2113 
z
" transform="scale(0.015625)"/>
       <path id="DejaVuSans-79" d="M 2059 -325 
Q 1816 -950 1584 -1140 
Q 1353 -1331 966 -1331 
L 506 -1331 
L 506 -850 
L 844 -850 
Q 1081 -850 1212 -737 
Q 1344 -625 1503 -206 
L 1606 56 
L 191 3500 
L 800 3500 
L 1894 763 
L 2988 3500 
L 3597 3500 
L 2059 -325 
z
" transform="scale(0.015625)"/>
       <path id="DejaVuSans-70" d="M 1159 525 
L 1159 -1331 
L 581 -1331 
L 581 3500 
L 1159 3500 
L 1159 2969 
Q 1341 3281 1617 3432 
Q 1894 3584 2278 3584 
Q 2916 3584 3314 3078 
Q 3713 2572 3713 1747 
Q 3713 922 3314 415 
Q 2916 -91 2278 -91 
Q 1894 -91 1617 61 
Q 1341 213 1159 525 
z
M 3116 1747 
Q 3116 2381 2855 2742 
Q 2594 3103 2138 3103 
Q 1681 3103 1420 2742 
Q 1159 2381 1159 1747 
Q 1159 1113 1420 752 
Q 1681 391 2138 391 
Q 2594 391 2855 752 
Q 3116 1113 3116 1747 
z
" transform="scale(0.015625)"/>
      </defs>
      <use xlink:href="#DejaVuSans-74"/>
      <use xlink:href="#DejaVuSans-72" x="39.208984"/>
      <use xlink:href="#DejaVuSans-75" x="80.322266"/>
      <use xlink:href="#DejaVuSans-65" x="143.701172"/>
      <use xlink:href="#DejaVuSans-20" x="205.224609"/>
      <use xlink:href="#DejaVuSans-68" x="237.011719"/>
      <use xlink:href="#DejaVuSans-6f" x="300.390625"/>
      <use xlink:href="#DejaVuSans-6d" x="361.572266"/>
      <use xlink:href="#DejaVuSans-65" x="458.984375"/>
      <use xlink:href="#DejaVuSans-6f" x="520.507812"/>
      <use xlink:href="#DejaVuSans-74" x="581.689453"/>
      <use xlink:href="#DejaVuSans-79" x="620.898438"/>
      <use xlink:href="#DejaVuSans-70" x="680.078125"/>
      <use xlink:href="#DejaVuSans-69" x="743.554688"/>
      <use xlink:href="#DejaVuSans-63" x="771.337891"/>
     </g>
    </g>
    <g id="patch_10">
     <path d="M 295.087188 87.426688 
L 315.087188 87.426688 
L 315.087188 80.426688 
L 295.087188 80.426688 
z
" style="fill: #ff0000"/>
    </g>
    <g id="text_21">
     <!-- false -->
     <g transform="translate(323.087188 87.426688)scale(0.1 -0.1)">
      <defs>
       <path id="DejaVuSans-61" d="M 2194 1759 
Q 1497 1759 1228 1600 
Q 959 1441 959 1056 
Q 959 750 1161 570 
Q 1363 391 1709 391 
Q 2188 391 2477 730 
Q 2766 1069 2766 1631 
L 2766 1759 
L 2194 1759 
z
M 3341 1997 
L 3341 0 
L 2766 0 
L 2766 531 
Q 2569 213 2275 61 
Q 1981 -91 1556 -91 
Q 1019 -91 701 211 
Q 384 513 384 1019 
Q 384 1609 779 1909 
Q 1175 2209 1959 2209 
L 2766 2209 
L 2766 2266 
Q 2766 2663 2505 2880 
Q 2244 3097 1772 3097 
Q 1472 3097 1187 3025 
Q 903 2953 641 2809 
L 641 3341 
Q 956 3463 1253 3523 
Q 1550 3584 1831 3584 
Q 2591 3584 2966 3190 
Q 3341 2797 3341 1997 
z
" transform="scale(0.015625)"/>
      </defs>
      <use xlink:href="#DejaVuSans-66"/>
      <use xlink:href="#DejaVuSans-61" x="35.205078"/>
      <use xlink:href="#DejaVuSans-6c" x="96.484375"/>
      <use xlink:href="#DejaVuSans-73" x="124.267578"/>
      <use xlink:href="#DejaVuSans-65" x="176.367188"/>
     </g>
    </g>
   </g>
  </g>
 </g>
 <defs>
  <clipPath id="pf679168cf5">
   <rect x="57.6" y="41.472" width="357.12" height="266.112"/>
  </clipPath>
 </defs>
</svg>
