<?xml version="1.0" encoding="utf-8" standalone="no"?>
<!DOCTYPE svg PUBLIC "-//W3C//DTD SVG 1.1//EN"
  "http://www.w3.org/Graphics/SVG/1.1/DTD/svg11.dtd">
<svg xmlns:xlink="http://www.w3.org/1999/xlink" width="460.8pt" height="345.6pt" viewBox="0 0 460.8 345.6" xmlns="http://www.w3.org/2000/svg" version="1.1">
 <metadata>
  <rdf:RDF xmlns:dc="http://purl.org/dc/elements/1.1/" xmlns:cc="http://creativecommons.org/ns#" xmlns:rdf="http://www.w3.org/1999/02/22-rdf-syntax-ns#">
   <cc:Work>
    <dc:type rdf:resource="http://purl.org/dc/dcmitype/StillImage"/>
    <dc:date>2022-07-21T14:53:58.984056</dc:date>
    <dc:format>image/svg+xml</dc:format>
    <dc:creator>
     <cc:Agent>
      <dc:title>Matplotlib v3.5.1, https://matplotlib.org/</dc:title>
     </cc:Agent>
    </dc:creator>
   </cc:Work>
  </rdf:RDF>
 </metadata>
 <defs>
  <style type="text/css">*{stroke-linejoin: round; stroke-linecap: butt}</style>
 </defs>
 <g id="figure_1">
  <g id="patch_1">
   <path d="M 0 345.6 
L 460.8 345.6 
L 460.8 0 
L 0 0 
z
" style="fill: #ffffff"/>
  </g>
  <g id="axes_1">
   <g id="patch_2">
    <path d="M 57.6 307.584 
L 414.72 307.584 
L 414.72 41.472 
L 57.6 41.472 
z
" style="fill: #ffffff"/>
   </g>
   <g id="PolyCollection_1">
    <path d="M 73.832727 93.246171 
L 73.832727 307.584 
L 74.133942 307.584 
L 74.186194 307.584 
L 75.169753 307.584 
L 75.197416 307.584 
L 75.387981 307.584 
L 75.434085 307.584 
L 75.676901 307.584 
L 76.273184 307.584 
L 76.519074 307.584 
L 77.493413 307.584 
L 77.588695 307.584 
L 77.616358 307.584 
L 78.015929 307.584 
L 78.264892 307.584 
L 78.762819 307.584 
L 79.1962 307.584 
L 79.328366 307.584 
L 79.691053 307.584 
L 79.792483 307.584 
L 79.906207 307.584 
L 80.007637 307.584 
L 80.096772 307.584 
L 80.173612 307.584 
L 80.235085 307.584 
L 80.736085 307.584 
L 80.843662 307.584 
L 81.160245 307.584 
L 81.197129 307.584 
L 81.313927 307.584 
L 81.329295 307.584 
L 81.372325 307.584 
L 81.652025 307.584 
L 82.660174 307.584 
L 82.72472 307.584 
L 82.749309 307.584 
L 83.059745 307.584 
L 83.634512 307.584 
L 84.07404 307.584 
L 84.203133 307.584 
L 84.664176 307.584 
L 84.716428 307.584 
L 84.934655 307.584 
L 85.036085 307.584 
L 85.58319 307.584 
L 85.730723 307.584 
L 85.816785 307.584 
L 86.124147 307.584 
L 86.320859 307.584 
L 86.327006 307.584 
L 86.735798 307.584 
L 87.116928 307.584 
L 87.199915 307.584 
L 87.258314 307.584 
L 87.282903 307.584 
L 87.332081 307.584 
L 88.134297 307.584 
L 88.275684 307.584 
L 88.561531 307.584 
L 89.031795 307.584 
L 89.065605 307.584 
L 89.293053 307.584 
L 89.357599 307.584 
L 89.363746 307.584 
L 89.471323 307.584 
L 89.563532 307.584 
L 89.64652 307.584 
L 89.658814 307.584 
L 89.695698 307.584 
L 89.96925 307.584 
L 90.150594 307.584 
L 90.676184 307.584 
L 91.386191 307.584 
L 91.546019 307.584 
L 91.582902 307.584 
L 91.718142 307.584 
L 91.791909 307.584 
L 91.80113 307.584 
L 92.05624 307.584 
L 92.677112 307.584 
L 92.784689 307.584 
L 92.852309 307.584 
L 93.202702 307.584 
L 93.491623 307.584 
L 93.629936 307.584 
L 93.734439 307.584 
L 93.755954 307.584 
L 93.986476 307.584 
L 94.404489 307.584 
L 94.613495 307.584 
L 94.721072 307.584 
L 94.957741 307.584 
L 95.575539 307.584 
L 95.640085 307.584 
L 96.199485 307.584 
L 96.374681 307.584 
L 96.420786 307.584 
L 96.549878 307.584 
L 96.894124 307.584 
L 97.444302 307.584 
L 98.200414 307.584 
L 98.280328 307.584 
L 98.682972 307.584 
L 98.984188 307.584 
L 99.008777 307.584 
L 99.82636 307.584 
L 100.026146 307.584 
L 100.146017 307.584 
L 100.533294 307.584 
L 100.757668 307.584 
L 101.049662 307.584 
L 101.393908 307.584 
L 101.544516 307.584 
L 101.704344 307.584 
L 103.164315 307.584 
L 103.271892 307.584 
L 103.391764 307.584 
L 104.02493 307.584 
L 104.123286 307.584 
L 104.132507 307.584 
L 104.741084 307.584 
L 105.088404 307.584 
L 105.321999 307.584 
L 105.349662 307.584 
L 105.438797 307.584 
L 106.222571 307.584 
L 106.244086 307.584 
L 106.287117 307.584 
L 106.305559 307.584 
L 106.619068 307.584 
L 106.668246 307.584 
L 106.981756 307.584 
L 107.390548 307.584 
L 107.737867 307.584 
L 107.848517 307.584 
L 107.974536 307.584 
L 108.349518 307.584 
L 108.908918 307.584 
L 108.930433 307.584 
L 108.955022 307.584 
L 109.025715 307.584 
L 109.044157 307.584 
L 109.102556 307.584 
L 109.471391 307.584 
L 109.637366 307.584 
L 109.760311 307.584 
L 109.797195 307.584 
L 110.073821 307.584 
L 110.316637 307.584 
L 110.863742 307.584 
L 111.220282 307.584 
L 111.343227 307.584 
L 111.632148 307.584 
L 111.87189 307.584 
L 112.077823 307.584 
L 112.142369 307.584 
L 112.145443 307.584 
L 112.296051 307.584 
L 112.535793 307.584 
L 113.030647 307.584 
L 113.119782 307.584 
L 113.377966 307.584 
L 114.091047 307.584 
L 114.493691 307.584 
L 114.745728 307.584 
L 114.788759 307.584 
L 114.902483 307.584 
L 115.228287 307.584 
L 115.40041 307.584 
L 115.514134 307.584 
L 115.670889 307.584 
L 115.74773 307.584 
L 115.766171 307.584 
L 116.073534 307.584 
L 116.128859 307.584 
L 116.509988 307.584 
L 116.574534 307.584 
L 116.712847 307.584 
L 116.977179 307.584 
L 117.149302 307.584 
L 118.418708 307.584 
L 118.959666 307.584 
L 119.257808 307.584 
L 119.540581 307.584 
L 120.118422 307.584 
L 122.067099 307.584 
L 122.343725 307.584 
L 122.561953 307.584 
L 122.912346 307.584 
L 123.182825 307.584 
L 123.361095 307.584 
L 123.45023 307.584 
L 123.674604 307.584 
L 124.031145 307.584 
L 124.768814 307.584 
L 124.879465 307.584 
L 125.131502 307.584 
L 125.614061 307.584 
L 125.675533 307.584 
L 125.737006 307.584 
L 125.998264 307.584 
L 126.299479 307.584 
L 126.48697 307.584 
L 126.782038 307.584 
L 127.024854 307.584 
L 127.236934 307.584 
L 127.307627 307.584 
L 127.842438 307.584 
L 128.26045 307.584 
L 128.792187 307.584 
L 129.827998 307.584 
L 130.156876 307.584 
L 130.350514 307.584 
L 130.381251 307.584 
L 130.919135 307.584 
L 131.337147 307.584 
L 131.515418 307.584 
L 131.613774 307.584 
L 132.818634 307.584 
L 133.58704 307.584 
L 133.596261 307.584 
L 133.660807 307.584 
L 133.685396 307.584 
L 133.897476 307.584 
L 134.625925 307.584 
L 135.077747 307.584 
L 135.096189 307.584 
L 136.122779 307.584 
L 136.848154 307.584 
L 136.872743 307.584 
L 137.358376 307.584 
L 137.499762 307.584 
L 138.086824 307.584 
L 138.21899 307.584 
L 138.864451 307.584 
L 138.947439 307.584 
L 138.978175 307.584 
L 139.967882 307.584 
L 140.259876 307.584 
L 140.309054 307.584 
L 140.594901 307.584 
L 140.850012 307.584 
L 141.541577 307.584 
L 144.194114 307.584 
L 144.590612 307.584 
L 144.68282 307.584 
L 145.017845 307.584 
L 145.346723 307.584 
L 145.35287 307.584 
L 145.478889 307.584 
L 146.419418 307.584 
L 147.034142 307.584 
L 147.615057 307.584 
L 147.925493 307.584 
L 148.076101 307.584 
L 148.266665 307.584 
L 148.84758 307.584 
L 148.955157 307.584 
L 150.488895 307.584 
L 151.432497 307.584 
L 151.457086 307.584 
L 151.644577 307.584 
L 151.718344 307.584 
L 152.508265 307.584 
L 152.606621 307.584 
L 152.837143 307.584 
L 153.504119 307.584 
L 154.46309 307.584 
L 155.157729 307.584 
L 155.225349 307.584 
L 155.323705 307.584 
L 156.073669 307.584 
L 156.199687 307.584 
L 157.383032 307.584 
L 158.747721 307.584 
L 159.2979 307.584 
L 159.909551 307.584 
L 159.921845 307.584 
L 160.25687 307.584 
L 161.326491 307.584 
L 161.421773 307.584 
L 161.581602 307.584 
L 161.815197 307.584 
L 161.898185 307.584 
L 162.208621 307.584 
L 164.271022 307.584 
L 164.378599 307.584 
L 164.796612 307.584 
L 165.291465 307.584 
L 165.494324 307.584 
L 165.620343 307.584 
L 166.112123 307.584 
L 167.114124 307.584 
L 167.267805 307.584 
L 167.728849 307.584 
L 170.897754 307.584 
L 171.856725 307.584 
L 172.308547 307.584 
L 173.169162 307.584 
L 173.298254 307.584 
L 174.622986 307.584 
L 175.130134 307.584 
L 178.425058 307.584 
L 179.430133 307.584 
L 180.404471 307.584 
L 180.837852 307.584 
L 181.403399 307.584 
L 181.704614 307.584 
L 182.580597 307.584 
L 186.152147 307.584 
L 186.520982 307.584 
L 187.526057 307.584 
L 188.47888 307.584 
L 188.558794 307.584 
L 192.348572 307.584 
L 192.714333 307.584 
L 199.611544 307.584 
L 203.014045 307.584 
L 204.252715 307.584 
L 204.947354 307.584 
L 205.5713 307.584 
L 206.600964 307.584 
L 210.289312 307.584 
L 214.54628 307.584 
L 216.633271 307.584 
L 224.366507 307.584 
L 224.474084 307.584 
L 228.841703 307.584 
L 229.7976 307.584 
L 232.806677 307.584 
L 236.138485 307.584 
L 237.736769 307.584 
L 238.471365 307.584 
L 238.483659 307.584 
L 239.418041 307.584 
L 240.364717 307.584 
L 245.894165 307.584 
L 253.907102 307.584 
L 267.323468 307.584 
L 276.857847 307.584 
L 277.653916 307.584 
L 279.242979 307.584 
L 283.73969 307.584 
L 307.388149 307.584 
L 310.222029 307.584 
L 327.757051 307.584 
L 330.655478 307.584 
L 398.487273 307.584 
L 398.487273 307.584 
L 398.487273 307.584 
L 330.655478 307.584 
L 327.757051 307.584 
L 310.222029 307.584 
L 307.388149 307.584 
L 283.73969 307.584 
L 279.242979 307.584 
L 277.653916 307.584 
L 276.857847 306.859886 
L 267.323468 306.859886 
L 253.907102 306.859886 
L 245.894165 306.859886 
L 240.364717 306.859886 
L 239.418041 306.859886 
L 238.483659 306.859886 
L 238.471365 306.859886 
L 237.736769 306.859886 
L 236.138485 306.859886 
L 232.806677 306.859886 
L 229.7976 306.859886 
L 228.841703 306.859886 
L 224.474084 306.859886 
L 224.366507 306.135771 
L 216.633271 306.135771 
L 214.54628 306.135771 
L 210.289312 305.411657 
L 206.600964 305.411657 
L 205.5713 304.687543 
L 204.947354 304.687543 
L 204.252715 303.963429 
L 203.014045 303.963429 
L 199.611544 303.963429 
L 192.714333 303.963429 
L 192.348572 303.239314 
L 188.558794 302.5152 
L 188.47888 302.5152 
L 187.526057 301.791086 
L 186.520982 301.066971 
L 186.152147 300.342857 
L 182.580597 299.618743 
L 181.704614 298.894629 
L 181.403399 298.170514 
L 180.837852 298.170514 
L 180.404471 298.170514 
L 179.430133 297.4464 
L 178.425058 296.722286 
L 175.130134 295.998171 
L 174.622986 295.274057 
L 173.298254 295.274057 
L 173.169162 294.549943 
L 172.308547 293.825829 
L 171.856725 292.3776 
L 170.897754 292.3776 
L 167.728849 291.653486 
L 167.267805 290.929371 
L 167.114124 290.205257 
L 166.112123 289.481143 
L 165.620343 289.481143 
L 165.494324 288.757029 
L 165.291465 288.032914 
L 164.796612 287.3088 
L 164.378599 286.584686 
L 164.271022 285.860571 
L 162.208621 285.136457 
L 161.898185 284.412343 
L 161.815197 283.688229 
L 161.581602 282.964114 
L 161.421773 282.964114 
L 161.326491 282.24 
L 160.25687 281.515886 
L 159.921845 280.791771 
L 159.909551 280.067657 
L 159.2979 279.343543 
L 158.747721 278.619429 
L 157.383032 277.895314 
L 156.199687 277.895314 
L 156.073669 277.895314 
L 155.323705 277.895314 
L 155.225349 277.1712 
L 155.157729 276.447086 
L 154.46309 275.722971 
L 153.504119 274.998857 
L 152.837143 274.274743 
L 152.606621 273.550629 
L 152.508265 272.826514 
L 151.718344 272.826514 
L 151.644577 272.1024 
L 151.457086 271.378286 
L 151.432497 270.654171 
L 150.488895 269.930057 
L 148.955157 269.205943 
L 148.84758 268.481829 
L 148.266665 267.757714 
L 148.076101 267.0336 
L 147.925493 266.309486 
L 147.615057 265.585371 
L 147.034142 264.861257 
L 146.419418 264.137143 
L 145.478889 263.413029 
L 145.35287 262.688914 
L 145.346723 261.9648 
L 145.017845 261.240686 
L 144.68282 260.516571 
L 144.590612 259.792457 
L 144.194114 259.068343 
L 141.541577 258.344229 
L 140.850012 257.620114 
L 140.594901 256.896 
L 140.309054 256.171886 
L 140.259876 255.447771 
L 139.967882 254.723657 
L 138.978175 253.999543 
L 138.947439 253.275429 
L 138.864451 252.551314 
L 138.21899 251.8272 
L 138.086824 251.8272 
L 137.499762 251.103086 
L 137.358376 250.378971 
L 136.872743 249.654857 
L 136.848154 248.930743 
L 136.122779 248.206629 
L 135.096189 247.482514 
L 135.077747 246.7584 
L 134.625925 246.034286 
L 133.897476 245.310171 
L 133.685396 245.310171 
L 133.660807 244.586057 
L 133.596261 243.861943 
L 133.58704 243.137829 
L 132.818634 243.137829 
L 131.613774 242.413714 
L 131.515418 242.413714 
L 131.337147 241.6896 
L 130.919135 240.965486 
L 130.381251 240.241371 
L 130.350514 239.517257 
L 130.156876 238.793143 
L 129.827998 238.069029 
L 128.792187 237.344914 
L 128.26045 236.6208 
L 127.842438 235.896686 
L 127.307627 235.172571 
L 127.236934 234.448457 
L 127.024854 233.724343 
L 126.782038 233.000229 
L 126.48697 232.276114 
L 126.299479 231.552 
L 125.998264 230.827886 
L 125.737006 230.103771 
L 125.675533 229.379657 
L 125.614061 228.655543 
L 125.131502 227.931429 
L 124.879465 227.207314 
L 124.768814 226.4832 
L 124.031145 225.759086 
L 123.674604 225.034971 
L 123.45023 224.310857 
L 123.361095 223.586743 
L 123.182825 222.862629 
L 122.912346 222.138514 
L 122.561953 221.4144 
L 122.343725 220.690286 
L 122.067099 219.966171 
L 120.118422 219.242057 
L 119.540581 218.517943 
L 119.257808 217.793829 
L 118.959666 217.069714 
L 118.418708 217.069714 
L 117.149302 216.3456 
L 116.977179 215.621486 
L 116.712847 214.897371 
L 116.574534 214.173257 
L 116.509988 213.449143 
L 116.128859 212.725029 
L 116.073534 212.000914 
L 115.766171 211.2768 
L 115.74773 210.552686 
L 115.670889 209.828571 
L 115.514134 209.104457 
L 115.40041 208.380343 
L 115.228287 207.656229 
L 114.902483 206.932114 
L 114.788759 206.208 
L 114.745728 205.483886 
L 114.493691 204.759771 
L 114.091047 204.759771 
L 113.377966 204.035657 
L 113.119782 203.311543 
L 113.030647 202.587429 
L 112.535793 201.863314 
L 112.296051 201.1392 
L 112.145443 200.415086 
L 112.142369 199.690971 
L 112.077823 198.966857 
L 111.87189 198.242743 
L 111.632148 197.518629 
L 111.343227 196.794514 
L 111.220282 196.0704 
L 110.863742 195.346286 
L 110.316637 194.622171 
L 110.073821 194.622171 
L 109.797195 193.898057 
L 109.760311 193.173943 
L 109.637366 192.449829 
L 109.471391 191.725714 
L 109.102556 191.0016 
L 109.044157 190.277486 
L 109.025715 189.553371 
L 108.955022 188.829257 
L 108.930433 188.105143 
L 108.908918 187.381029 
L 108.349518 186.656914 
L 107.974536 185.9328 
L 107.848517 185.208686 
L 107.737867 184.484571 
L 107.390548 183.760457 
L 106.981756 183.036343 
L 106.668246 182.312229 
L 106.619068 182.312229 
L 106.305559 181.588114 
L 106.287117 180.864 
L 106.244086 180.139886 
L 106.222571 179.415771 
L 105.438797 178.691657 
L 105.349662 177.967543 
L 105.321999 177.243429 
L 105.088404 176.519314 
L 104.741084 175.7952 
L 104.132507 175.071086 
L 104.123286 174.346971 
L 104.02493 173.622857 
L 103.391764 172.898743 
L 103.271892 172.174629 
L 103.164315 171.450514 
L 101.704344 171.450514 
L 101.544516 170.7264 
L 101.393908 170.002286 
L 101.049662 169.278171 
L 100.757668 168.554057 
L 100.533294 168.554057 
L 100.146017 167.829943 
L 100.026146 167.105829 
L 99.82636 166.381714 
L 99.008777 165.6576 
L 98.984188 164.933486 
L 98.682972 164.933486 
L 98.280328 164.209371 
L 98.200414 163.485257 
L 97.444302 162.761143 
L 96.894124 162.037029 
L 96.549878 161.312914 
L 96.420786 160.5888 
L 96.374681 159.864686 
L 96.199485 159.140571 
L 95.640085 158.416457 
L 95.575539 157.692343 
L 94.957741 156.244114 
L 94.721072 155.52 
L 94.613495 154.795886 
L 94.404489 154.071771 
L 93.986476 153.347657 
L 93.755954 152.623543 
L 93.734439 151.899429 
L 93.629936 151.175314 
L 93.491623 150.4512 
L 93.202702 149.727086 
L 92.852309 149.002971 
L 92.784689 148.278857 
L 92.677112 147.554743 
L 92.05624 146.830629 
L 91.80113 146.106514 
L 91.791909 145.3824 
L 91.718142 144.658286 
L 91.582902 143.934171 
L 91.546019 143.210057 
L 91.386191 142.485943 
L 90.676184 141.761829 
L 90.150594 141.037714 
L 89.96925 140.3136 
L 89.695698 139.589486 
L 89.658814 138.865371 
L 89.64652 138.141257 
L 89.563532 137.417143 
L 89.471323 136.693029 
L 89.363746 135.968914 
L 89.357599 135.2448 
L 89.293053 134.520686 
L 89.065605 133.796571 
L 89.031795 133.072457 
L 88.561531 132.348343 
L 88.275684 132.348343 
L 88.134297 131.624229 
L 87.332081 130.900114 
L 87.282903 130.176 
L 87.258314 129.451886 
L 87.199915 128.727771 
L 87.116928 128.003657 
L 86.735798 127.279543 
L 86.327006 126.555429 
L 86.320859 125.831314 
L 86.124147 125.1072 
L 85.816785 124.383086 
L 85.730723 123.658971 
L 85.58319 122.934857 
L 85.036085 122.934857 
L 84.934655 122.210743 
L 84.716428 121.486629 
L 84.664176 120.762514 
L 84.203133 120.762514 
L 84.07404 120.0384 
L 83.634512 119.314286 
L 83.059745 118.590171 
L 82.749309 117.866057 
L 82.72472 117.141943 
L 82.660174 116.417829 
L 81.652025 115.693714 
L 81.372325 114.9696 
L 81.329295 114.245486 
L 81.313927 113.521371 
L 81.197129 112.797257 
L 81.160245 112.073143 
L 80.843662 111.349029 
L 80.736085 110.624914 
L 80.235085 109.9008 
L 80.173612 109.176686 
L 80.096772 108.452571 
L 80.007637 107.728457 
L 79.906207 107.004343 
L 79.792483 106.280229 
L 79.691053 105.556114 
L 79.328366 104.832 
L 79.1962 104.107886 
L 78.762819 103.383771 
L 78.264892 102.659657 
L 78.015929 101.935543 
L 77.616358 101.211429 
L 77.588695 100.487314 
L 77.493413 99.7632 
L 76.519074 99.039086 
L 76.273184 98.314971 
L 75.676901 97.590857 
L 75.434085 96.866743 
L 75.387981 96.142629 
L 75.197416 95.418514 
L 75.169753 94.6944 
L 74.186194 94.6944 
L 74.133942 93.970286 
L 73.832727 93.246171 
z
" clip-path="url(#pa5c4123bf2)" style="fill: #008000"/>
   </g>
   <g id="PolyCollection_2">
    <path d="M 73.832727 57.040457 
L 73.832727 93.246171 
L 74.133942 93.970286 
L 74.186194 94.6944 
L 75.169753 94.6944 
L 75.197416 95.418514 
L 75.387981 96.142629 
L 75.434085 96.866743 
L 75.676901 97.590857 
L 76.273184 98.314971 
L 76.519074 99.039086 
L 77.493413 99.7632 
L 77.588695 100.487314 
L 77.616358 101.211429 
L 78.015929 101.935543 
L 78.264892 102.659657 
L 78.762819 103.383771 
L 79.1962 104.107886 
L 79.328366 104.832 
L 79.691053 105.556114 
L 79.792483 106.280229 
L 79.906207 107.004343 
L 80.007637 107.728457 
L 80.096772 108.452571 
L 80.173612 109.176686 
L 80.235085 109.9008 
L 80.736085 110.624914 
L 80.843662 111.349029 
L 81.160245 112.073143 
L 81.197129 112.797257 
L 81.313927 113.521371 
L 81.329295 114.245486 
L 81.372325 114.9696 
L 81.652025 115.693714 
L 82.660174 116.417829 
L 82.72472 117.141943 
L 82.749309 117.866057 
L 83.059745 118.590171 
L 83.634512 119.314286 
L 84.07404 120.0384 
L 84.203133 120.762514 
L 84.664176 120.762514 
L 84.716428 121.486629 
L 84.934655 122.210743 
L 85.036085 122.934857 
L 85.58319 122.934857 
L 85.730723 123.658971 
L 85.816785 124.383086 
L 86.124147 125.1072 
L 86.320859 125.831314 
L 86.327006 126.555429 
L 86.735798 127.279543 
L 87.116928 128.003657 
L 87.199915 128.727771 
L 87.258314 129.451886 
L 87.282903 130.176 
L 87.332081 130.900114 
L 88.134297 131.624229 
L 88.275684 132.348343 
L 88.561531 132.348343 
L 89.031795 133.072457 
L 89.065605 133.796571 
L 89.293053 134.520686 
L 89.357599 135.2448 
L 89.363746 135.968914 
L 89.471323 136.693029 
L 89.563532 137.417143 
L 89.64652 138.141257 
L 89.658814 138.865371 
L 89.695698 139.589486 
L 89.96925 140.3136 
L 90.150594 141.037714 
L 90.676184 141.761829 
L 91.386191 142.485943 
L 91.546019 143.210057 
L 91.582902 143.934171 
L 91.718142 144.658286 
L 91.791909 145.3824 
L 91.80113 146.106514 
L 92.05624 146.830629 
L 92.677112 147.554743 
L 92.784689 148.278857 
L 92.852309 149.002971 
L 93.202702 149.727086 
L 93.491623 150.4512 
L 93.629936 151.175314 
L 93.734439 151.899429 
L 93.755954 152.623543 
L 93.986476 153.347657 
L 94.404489 154.071771 
L 94.613495 154.795886 
L 94.721072 155.52 
L 94.957741 156.244114 
L 95.575539 157.692343 
L 95.640085 158.416457 
L 96.199485 159.140571 
L 96.374681 159.864686 
L 96.420786 160.5888 
L 96.549878 161.312914 
L 96.894124 162.037029 
L 97.444302 162.761143 
L 98.200414 163.485257 
L 98.280328 164.209371 
L 98.682972 164.933486 
L 98.984188 164.933486 
L 99.008777 165.6576 
L 99.82636 166.381714 
L 100.026146 167.105829 
L 100.146017 167.829943 
L 100.533294 168.554057 
L 100.757668 168.554057 
L 101.049662 169.278171 
L 101.393908 170.002286 
L 101.544516 170.7264 
L 101.704344 171.450514 
L 103.164315 171.450514 
L 103.271892 172.174629 
L 103.391764 172.898743 
L 104.02493 173.622857 
L 104.123286 174.346971 
L 104.132507 175.071086 
L 104.741084 175.7952 
L 105.088404 176.519314 
L 105.321999 177.243429 
L 105.349662 177.967543 
L 105.438797 178.691657 
L 106.222571 179.415771 
L 106.244086 180.139886 
L 106.287117 180.864 
L 106.305559 181.588114 
L 106.619068 182.312229 
L 106.668246 182.312229 
L 106.981756 183.036343 
L 107.390548 183.760457 
L 107.737867 184.484571 
L 107.848517 185.208686 
L 107.974536 185.9328 
L 108.349518 186.656914 
L 108.908918 187.381029 
L 108.930433 188.105143 
L 108.955022 188.829257 
L 109.025715 189.553371 
L 109.044157 190.277486 
L 109.102556 191.0016 
L 109.471391 191.725714 
L 109.637366 192.449829 
L 109.760311 193.173943 
L 109.797195 193.898057 
L 110.073821 194.622171 
L 110.316637 194.622171 
L 110.863742 195.346286 
L 111.220282 196.0704 
L 111.343227 196.794514 
L 111.632148 197.518629 
L 111.87189 198.242743 
L 112.077823 198.966857 
L 112.142369 199.690971 
L 112.145443 200.415086 
L 112.296051 201.1392 
L 112.535793 201.863314 
L 113.030647 202.587429 
L 113.119782 203.311543 
L 113.377966 204.035657 
L 114.091047 204.759771 
L 114.493691 204.759771 
L 114.745728 205.483886 
L 114.788759 206.208 
L 114.902483 206.932114 
L 115.228287 207.656229 
L 115.40041 208.380343 
L 115.514134 209.104457 
L 115.670889 209.828571 
L 115.74773 210.552686 
L 115.766171 211.2768 
L 116.073534 212.000914 
L 116.128859 212.725029 
L 116.509988 213.449143 
L 116.574534 214.173257 
L 116.712847 214.897371 
L 116.977179 215.621486 
L 117.149302 216.3456 
L 118.418708 217.069714 
L 118.959666 217.069714 
L 119.257808 217.793829 
L 119.540581 218.517943 
L 120.118422 219.242057 
L 122.067099 219.966171 
L 122.343725 220.690286 
L 122.561953 221.4144 
L 122.912346 222.138514 
L 123.182825 222.862629 
L 123.361095 223.586743 
L 123.45023 224.310857 
L 123.674604 225.034971 
L 124.031145 225.759086 
L 124.768814 226.4832 
L 124.879465 227.207314 
L 125.131502 227.931429 
L 125.614061 228.655543 
L 125.675533 229.379657 
L 125.737006 230.103771 
L 125.998264 230.827886 
L 126.299479 231.552 
L 126.48697 232.276114 
L 126.782038 233.000229 
L 127.024854 233.724343 
L 127.236934 234.448457 
L 127.307627 235.172571 
L 127.842438 235.896686 
L 128.26045 236.6208 
L 128.792187 237.344914 
L 129.827998 238.069029 
L 130.156876 238.793143 
L 130.350514 239.517257 
L 130.381251 240.241371 
L 130.919135 240.965486 
L 131.337147 241.6896 
L 131.515418 242.413714 
L 131.613774 242.413714 
L 132.818634 243.137829 
L 133.58704 243.137829 
L 133.596261 243.861943 
L 133.660807 244.586057 
L 133.685396 245.310171 
L 133.897476 245.310171 
L 134.625925 246.034286 
L 135.077747 246.7584 
L 135.096189 247.482514 
L 136.122779 248.206629 
L 136.848154 248.930743 
L 136.872743 249.654857 
L 137.358376 250.378971 
L 137.499762 251.103086 
L 138.086824 251.8272 
L 138.21899 251.8272 
L 138.864451 252.551314 
L 138.947439 253.275429 
L 138.978175 253.999543 
L 139.967882 254.723657 
L 140.259876 255.447771 
L 140.309054 256.171886 
L 140.594901 256.896 
L 140.850012 257.620114 
L 141.541577 258.344229 
L 144.194114 259.068343 
L 144.590612 259.792457 
L 144.68282 260.516571 
L 145.017845 261.240686 
L 145.346723 261.9648 
L 145.35287 262.688914 
L 145.478889 263.413029 
L 146.419418 264.137143 
L 147.034142 264.861257 
L 147.615057 265.585371 
L 147.925493 266.309486 
L 148.076101 267.0336 
L 148.266665 267.757714 
L 148.84758 268.481829 
L 148.955157 269.205943 
L 150.488895 269.930057 
L 151.432497 270.654171 
L 151.457086 271.378286 
L 151.644577 272.1024 
L 151.718344 272.826514 
L 152.508265 272.826514 
L 152.606621 273.550629 
L 152.837143 274.274743 
L 153.504119 274.998857 
L 154.46309 275.722971 
L 155.157729 276.447086 
L 155.225349 277.1712 
L 155.323705 277.895314 
L 156.073669 277.895314 
L 156.199687 277.895314 
L 157.383032 277.895314 
L 158.747721 278.619429 
L 159.2979 279.343543 
L 159.909551 280.067657 
L 159.921845 280.791771 
L 160.25687 281.515886 
L 161.326491 282.24 
L 161.421773 282.964114 
L 161.581602 282.964114 
L 161.815197 283.688229 
L 161.898185 284.412343 
L 162.208621 285.136457 
L 164.271022 285.860571 
L 164.378599 286.584686 
L 164.796612 287.3088 
L 165.291465 288.032914 
L 165.494324 288.757029 
L 165.620343 289.481143 
L 166.112123 289.481143 
L 167.114124 290.205257 
L 167.267805 290.929371 
L 167.728849 291.653486 
L 170.897754 292.3776 
L 171.856725 292.3776 
L 172.308547 293.825829 
L 173.169162 294.549943 
L 173.298254 295.274057 
L 174.622986 295.274057 
L 175.130134 295.998171 
L 178.425058 296.722286 
L 179.430133 297.4464 
L 180.404471 298.170514 
L 180.837852 298.170514 
L 181.403399 298.170514 
L 181.704614 298.894629 
L 182.580597 299.618743 
L 186.152147 300.342857 
L 186.520982 301.066971 
L 187.526057 301.791086 
L 188.47888 302.5152 
L 188.558794 302.5152 
L 192.348572 303.239314 
L 192.714333 303.963429 
L 199.611544 303.963429 
L 203.014045 303.963429 
L 204.252715 303.963429 
L 204.947354 304.687543 
L 205.5713 304.687543 
L 206.600964 305.411657 
L 210.289312 305.411657 
L 214.54628 306.135771 
L 216.633271 306.135771 
L 224.366507 306.135771 
L 224.474084 306.859886 
L 228.841703 306.859886 
L 229.7976 306.859886 
L 232.806677 306.859886 
L 236.138485 306.859886 
L 237.736769 306.859886 
L 238.471365 306.859886 
L 238.483659 306.859886 
L 239.418041 306.859886 
L 240.364717 306.859886 
L 245.894165 306.859886 
L 253.907102 306.859886 
L 267.323468 306.859886 
L 276.857847 306.859886 
L 277.653916 307.584 
L 279.242979 307.584 
L 283.73969 307.584 
L 307.388149 307.584 
L 310.222029 307.584 
L 327.757051 307.584 
L 330.655478 307.584 
L 398.487273 307.584 
L 398.487273 306.859886 
L 398.487273 306.859886 
L 330.655478 306.135771 
L 327.757051 305.411657 
L 310.222029 304.687543 
L 307.388149 303.963429 
L 283.73969 303.239314 
L 279.242979 302.5152 
L 277.653916 301.791086 
L 276.857847 301.066971 
L 267.323468 300.342857 
L 253.907102 299.618743 
L 245.894165 298.894629 
L 240.364717 298.170514 
L 239.418041 297.4464 
L 238.483659 296.722286 
L 238.471365 295.998171 
L 237.736769 295.274057 
L 236.138485 294.549943 
L 232.806677 293.825829 
L 229.7976 293.101714 
L 228.841703 292.3776 
L 224.474084 291.653486 
L 224.366507 290.929371 
L 216.633271 290.205257 
L 214.54628 289.481143 
L 210.289312 288.757029 
L 206.600964 288.032914 
L 205.5713 287.3088 
L 204.947354 286.584686 
L 204.252715 285.860571 
L 203.014045 285.136457 
L 199.611544 284.412343 
L 192.714333 283.688229 
L 192.348572 282.964114 
L 188.558794 282.24 
L 188.47888 281.515886 
L 187.526057 280.791771 
L 186.520982 280.067657 
L 186.152147 279.343543 
L 182.580597 278.619429 
L 181.704614 277.895314 
L 181.403399 277.1712 
L 180.837852 276.447086 
L 180.404471 275.722971 
L 179.430133 274.998857 
L 178.425058 274.274743 
L 175.130134 273.550629 
L 174.622986 272.826514 
L 173.298254 272.1024 
L 173.169162 271.378286 
L 172.308547 270.654171 
L 171.856725 269.205943 
L 170.897754 268.481829 
L 167.728849 267.757714 
L 167.267805 267.0336 
L 167.114124 266.309486 
L 166.112123 265.585371 
L 165.620343 264.861257 
L 165.494324 264.137143 
L 165.291465 263.413029 
L 164.796612 262.688914 
L 164.378599 261.9648 
L 164.271022 261.240686 
L 162.208621 260.516571 
L 161.898185 259.792457 
L 161.815197 259.068343 
L 161.581602 258.344229 
L 161.421773 257.620114 
L 161.326491 256.896 
L 160.25687 256.171886 
L 159.921845 255.447771 
L 159.909551 254.723657 
L 159.2979 253.999543 
L 158.747721 253.275429 
L 157.383032 252.551314 
L 156.199687 251.8272 
L 156.073669 251.103086 
L 155.323705 250.378971 
L 155.225349 249.654857 
L 155.157729 248.930743 
L 154.46309 248.206629 
L 153.504119 247.482514 
L 152.837143 246.7584 
L 152.606621 246.034286 
L 152.508265 245.310171 
L 151.718344 244.586057 
L 151.644577 243.861943 
L 151.457086 243.137829 
L 151.432497 242.413714 
L 150.488895 241.6896 
L 148.955157 240.965486 
L 148.84758 240.241371 
L 148.266665 239.517257 
L 148.076101 238.793143 
L 147.925493 238.069029 
L 147.615057 237.344914 
L 147.034142 236.6208 
L 146.419418 235.896686 
L 145.478889 235.172571 
L 145.35287 234.448457 
L 145.346723 233.724343 
L 145.017845 233.000229 
L 144.68282 232.276114 
L 144.590612 231.552 
L 144.194114 230.827886 
L 141.541577 230.103771 
L 140.850012 229.379657 
L 140.594901 228.655543 
L 140.309054 227.931429 
L 140.259876 227.207314 
L 139.967882 226.4832 
L 138.978175 225.759086 
L 138.947439 225.034971 
L 138.864451 224.310857 
L 138.21899 223.586743 
L 138.086824 222.862629 
L 137.499762 222.138514 
L 137.358376 221.4144 
L 136.872743 220.690286 
L 136.848154 219.966171 
L 136.122779 219.242057 
L 135.096189 218.517943 
L 135.077747 217.793829 
L 134.625925 217.069714 
L 133.897476 216.3456 
L 133.685396 215.621486 
L 133.660807 214.897371 
L 133.596261 214.173257 
L 133.58704 213.449143 
L 132.818634 212.725029 
L 131.613774 212.000914 
L 131.515418 211.2768 
L 131.337147 210.552686 
L 130.919135 209.828571 
L 130.381251 209.104457 
L 130.350514 208.380343 
L 130.156876 207.656229 
L 129.827998 206.932114 
L 128.792187 206.208 
L 128.26045 205.483886 
L 127.842438 204.759771 
L 127.307627 204.035657 
L 127.236934 203.311543 
L 127.024854 202.587429 
L 126.782038 201.863314 
L 126.48697 201.1392 
L 126.299479 200.415086 
L 125.998264 199.690971 
L 125.737006 198.966857 
L 125.675533 198.242743 
L 125.614061 197.518629 
L 125.131502 196.794514 
L 124.879465 196.0704 
L 124.768814 195.346286 
L 124.031145 194.622171 
L 123.674604 193.898057 
L 123.45023 193.173943 
L 123.361095 192.449829 
L 123.182825 191.725714 
L 122.912346 191.0016 
L 122.561953 190.277486 
L 122.343725 189.553371 
L 122.067099 188.829257 
L 120.118422 188.105143 
L 119.540581 187.381029 
L 119.257808 186.656914 
L 118.959666 185.9328 
L 118.418708 185.208686 
L 117.149302 184.484571 
L 116.977179 183.760457 
L 116.712847 183.036343 
L 116.574534 182.312229 
L 116.509988 181.588114 
L 116.128859 180.864 
L 116.073534 180.139886 
L 115.766171 179.415771 
L 115.74773 178.691657 
L 115.670889 177.967543 
L 115.514134 177.243429 
L 115.40041 176.519314 
L 115.228287 175.7952 
L 114.902483 175.071086 
L 114.788759 174.346971 
L 114.745728 173.622857 
L 114.493691 172.898743 
L 114.091047 172.174629 
L 113.377966 171.450514 
L 113.119782 170.7264 
L 113.030647 170.002286 
L 112.535793 169.278171 
L 112.296051 168.554057 
L 112.145443 167.829943 
L 112.142369 167.105829 
L 112.077823 166.381714 
L 111.87189 165.6576 
L 111.632148 164.933486 
L 111.343227 164.209371 
L 111.220282 163.485257 
L 110.863742 162.761143 
L 110.316637 162.037029 
L 110.073821 161.312914 
L 109.797195 160.5888 
L 109.760311 159.864686 
L 109.637366 159.140571 
L 109.471391 158.416457 
L 109.102556 157.692343 
L 109.044157 156.968229 
L 109.025715 156.244114 
L 108.955022 155.52 
L 108.930433 154.795886 
L 108.908918 154.071771 
L 108.349518 153.347657 
L 107.974536 152.623543 
L 107.848517 151.899429 
L 107.737867 151.175314 
L 107.390548 150.4512 
L 106.981756 149.727086 
L 106.668246 149.002971 
L 106.619068 148.278857 
L 106.305559 147.554743 
L 106.287117 146.830629 
L 106.244086 146.106514 
L 106.222571 145.3824 
L 105.438797 144.658286 
L 105.349662 143.934171 
L 105.321999 143.210057 
L 105.088404 142.485943 
L 104.741084 141.761829 
L 104.132507 141.037714 
L 104.123286 140.3136 
L 104.02493 139.589486 
L 103.391764 138.865371 
L 103.271892 138.141257 
L 103.164315 137.417143 
L 101.704344 136.693029 
L 101.544516 135.968914 
L 101.393908 135.2448 
L 101.049662 134.520686 
L 100.757668 133.796571 
L 100.533294 133.796571 
L 100.146017 133.072457 
L 100.026146 132.348343 
L 99.82636 131.624229 
L 99.008777 130.900114 
L 98.984188 130.176 
L 98.682972 130.176 
L 98.280328 129.451886 
L 98.200414 128.727771 
L 97.444302 128.003657 
L 96.894124 127.279543 
L 96.549878 126.555429 
L 96.420786 125.831314 
L 96.374681 125.1072 
L 96.199485 124.383086 
L 95.640085 123.658971 
L 95.575539 122.934857 
L 94.957741 121.486629 
L 94.721072 120.762514 
L 94.613495 120.0384 
L 94.404489 119.314286 
L 93.986476 118.590171 
L 93.755954 117.866057 
L 93.734439 117.141943 
L 93.629936 116.417829 
L 93.491623 115.693714 
L 93.202702 114.9696 
L 92.852309 114.245486 
L 92.784689 113.521371 
L 92.677112 112.797257 
L 92.05624 112.073143 
L 91.80113 111.349029 
L 91.791909 110.624914 
L 91.718142 109.9008 
L 91.582902 109.176686 
L 91.546019 108.452571 
L 91.386191 107.728457 
L 90.676184 107.004343 
L 90.150594 106.280229 
L 89.96925 105.556114 
L 89.695698 104.832 
L 89.658814 104.107886 
L 89.64652 103.383771 
L 89.563532 102.659657 
L 89.471323 101.935543 
L 89.363746 101.211429 
L 89.357599 100.487314 
L 89.293053 99.7632 
L 89.065605 99.039086 
L 89.031795 98.314971 
L 88.561531 97.590857 
L 88.275684 96.866743 
L 88.134297 96.142629 
L 87.332081 95.418514 
L 87.282903 94.6944 
L 87.258314 93.970286 
L 87.199915 93.246171 
L 87.116928 92.522057 
L 86.735798 91.797943 
L 86.327006 91.073829 
L 86.320859 90.349714 
L 86.124147 89.6256 
L 85.816785 88.901486 
L 85.730723 88.177371 
L 85.58319 87.453257 
L 85.036085 86.729143 
L 84.934655 86.005029 
L 84.716428 85.280914 
L 84.664176 84.5568 
L 84.203133 84.5568 
L 84.07404 83.832686 
L 83.634512 83.108571 
L 83.059745 82.384457 
L 82.749309 81.660343 
L 82.72472 80.936229 
L 82.660174 80.212114 
L 81.652025 79.488 
L 81.372325 78.763886 
L 81.329295 78.039771 
L 81.313927 77.315657 
L 81.197129 76.591543 
L 81.160245 75.867429 
L 80.843662 75.143314 
L 80.736085 74.4192 
L 80.235085 73.695086 
L 80.173612 72.970971 
L 80.096772 72.246857 
L 80.007637 71.522743 
L 79.906207 70.798629 
L 79.792483 70.074514 
L 79.691053 69.3504 
L 79.328366 68.626286 
L 79.1962 67.902171 
L 78.762819 67.178057 
L 78.264892 66.453943 
L 78.015929 65.729829 
L 77.616358 65.005714 
L 77.588695 64.2816 
L 77.493413 63.557486 
L 76.519074 62.833371 
L 76.273184 62.109257 
L 75.676901 61.385143 
L 75.434085 60.661029 
L 75.387981 59.936914 
L 75.197416 59.2128 
L 75.169753 58.488686 
L 74.186194 58.488686 
L 74.133942 57.764571 
L 73.832727 57.040457 
z
" clip-path="url(#pa5c4123bf2)" style="fill: #7cfc00"/>
   </g>
   <g id="PolyCollection_3">
    <path d="M 73.832727 54.144 
L 73.832727 57.040457 
L 74.133942 57.764571 
L 74.186194 58.488686 
L 75.169753 58.488686 
L 75.197416 59.2128 
L 75.387981 59.936914 
L 75.434085 60.661029 
L 75.676901 61.385143 
L 76.273184 62.109257 
L 76.519074 62.833371 
L 77.493413 63.557486 
L 77.588695 64.2816 
L 77.616358 65.005714 
L 78.015929 65.729829 
L 78.264892 66.453943 
L 78.762819 67.178057 
L 79.1962 67.902171 
L 79.328366 68.626286 
L 79.691053 69.3504 
L 79.792483 70.074514 
L 79.906207 70.798629 
L 80.007637 71.522743 
L 80.096772 72.246857 
L 80.173612 72.970971 
L 80.235085 73.695086 
L 80.736085 74.4192 
L 80.843662 75.143314 
L 81.160245 75.867429 
L 81.197129 76.591543 
L 81.313927 77.315657 
L 81.329295 78.039771 
L 81.372325 78.763886 
L 81.652025 79.488 
L 82.660174 80.212114 
L 82.72472 80.936229 
L 82.749309 81.660343 
L 83.059745 82.384457 
L 83.634512 83.108571 
L 84.07404 83.832686 
L 84.203133 84.5568 
L 84.664176 84.5568 
L 84.716428 85.280914 
L 84.934655 86.005029 
L 85.036085 86.729143 
L 85.58319 87.453257 
L 85.730723 88.177371 
L 85.816785 88.901486 
L 86.124147 89.6256 
L 86.320859 90.349714 
L 86.327006 91.073829 
L 86.735798 91.797943 
L 87.116928 92.522057 
L 87.199915 93.246171 
L 87.258314 93.970286 
L 87.282903 94.6944 
L 87.332081 95.418514 
L 88.134297 96.142629 
L 88.275684 96.866743 
L 88.561531 97.590857 
L 89.031795 98.314971 
L 89.065605 99.039086 
L 89.293053 99.7632 
L 89.357599 100.487314 
L 89.363746 101.211429 
L 89.471323 101.935543 
L 89.563532 102.659657 
L 89.64652 103.383771 
L 89.658814 104.107886 
L 89.695698 104.832 
L 89.96925 105.556114 
L 90.150594 106.280229 
L 90.676184 107.004343 
L 91.386191 107.728457 
L 91.546019 108.452571 
L 91.582902 109.176686 
L 91.718142 109.9008 
L 91.791909 110.624914 
L 91.80113 111.349029 
L 92.05624 112.073143 
L 92.677112 112.797257 
L 92.784689 113.521371 
L 92.852309 114.245486 
L 93.202702 114.9696 
L 93.491623 115.693714 
L 93.629936 116.417829 
L 93.734439 117.141943 
L 93.755954 117.866057 
L 93.986476 118.590171 
L 94.404489 119.314286 
L 94.613495 120.0384 
L 94.721072 120.762514 
L 94.957741 121.486629 
L 95.575539 122.934857 
L 95.640085 123.658971 
L 96.199485 124.383086 
L 96.374681 125.1072 
L 96.420786 125.831314 
L 96.549878 126.555429 
L 96.894124 127.279543 
L 97.444302 128.003657 
L 98.200414 128.727771 
L 98.280328 129.451886 
L 98.682972 130.176 
L 98.984188 130.176 
L 99.008777 130.900114 
L 99.82636 131.624229 
L 100.026146 132.348343 
L 100.146017 133.072457 
L 100.533294 133.796571 
L 100.757668 133.796571 
L 101.049662 134.520686 
L 101.393908 135.2448 
L 101.544516 135.968914 
L 101.704344 136.693029 
L 103.164315 137.417143 
L 103.271892 138.141257 
L 103.391764 138.865371 
L 104.02493 139.589486 
L 104.123286 140.3136 
L 104.132507 141.037714 
L 104.741084 141.761829 
L 105.088404 142.485943 
L 105.321999 143.210057 
L 105.349662 143.934171 
L 105.438797 144.658286 
L 106.222571 145.3824 
L 106.244086 146.106514 
L 106.287117 146.830629 
L 106.305559 147.554743 
L 106.619068 148.278857 
L 106.668246 149.002971 
L 106.981756 149.727086 
L 107.390548 150.4512 
L 107.737867 151.175314 
L 107.848517 151.899429 
L 107.974536 152.623543 
L 108.349518 153.347657 
L 108.908918 154.071771 
L 108.930433 154.795886 
L 108.955022 155.52 
L 109.025715 156.244114 
L 109.044157 156.968229 
L 109.102556 157.692343 
L 109.471391 158.416457 
L 109.637366 159.140571 
L 109.760311 159.864686 
L 109.797195 160.5888 
L 110.073821 161.312914 
L 110.316637 162.037029 
L 110.863742 162.761143 
L 111.220282 163.485257 
L 111.343227 164.209371 
L 111.632148 164.933486 
L 111.87189 165.6576 
L 112.077823 166.381714 
L 112.142369 167.105829 
L 112.145443 167.829943 
L 112.296051 168.554057 
L 112.535793 169.278171 
L 113.030647 170.002286 
L 113.119782 170.7264 
L 113.377966 171.450514 
L 114.091047 172.174629 
L 114.493691 172.898743 
L 114.745728 173.622857 
L 114.788759 174.346971 
L 114.902483 175.071086 
L 115.228287 175.7952 
L 115.40041 176.519314 
L 115.514134 177.243429 
L 115.670889 177.967543 
L 115.74773 178.691657 
L 115.766171 179.415771 
L 116.073534 180.139886 
L 116.128859 180.864 
L 116.509988 181.588114 
L 116.574534 182.312229 
L 116.712847 183.036343 
L 116.977179 183.760457 
L 117.149302 184.484571 
L 118.418708 185.208686 
L 118.959666 185.9328 
L 119.257808 186.656914 
L 119.540581 187.381029 
L 120.118422 188.105143 
L 122.067099 188.829257 
L 122.343725 189.553371 
L 122.561953 190.277486 
L 122.912346 191.0016 
L 123.182825 191.725714 
L 123.361095 192.449829 
L 123.45023 193.173943 
L 123.674604 193.898057 
L 124.031145 194.622171 
L 124.768814 195.346286 
L 124.879465 196.0704 
L 125.131502 196.794514 
L 125.614061 197.518629 
L 125.675533 198.242743 
L 125.737006 198.966857 
L 125.998264 199.690971 
L 126.299479 200.415086 
L 126.48697 201.1392 
L 126.782038 201.863314 
L 127.024854 202.587429 
L 127.236934 203.311543 
L 127.307627 204.035657 
L 127.842438 204.759771 
L 128.26045 205.483886 
L 128.792187 206.208 
L 129.827998 206.932114 
L 130.156876 207.656229 
L 130.350514 208.380343 
L 130.381251 209.104457 
L 130.919135 209.828571 
L 131.337147 210.552686 
L 131.515418 211.2768 
L 131.613774 212.000914 
L 132.818634 212.725029 
L 133.58704 213.449143 
L 133.596261 214.173257 
L 133.660807 214.897371 
L 133.685396 215.621486 
L 133.897476 216.3456 
L 134.625925 217.069714 
L 135.077747 217.793829 
L 135.096189 218.517943 
L 136.122779 219.242057 
L 136.848154 219.966171 
L 136.872743 220.690286 
L 137.358376 221.4144 
L 137.499762 222.138514 
L 138.086824 222.862629 
L 138.21899 223.586743 
L 138.864451 224.310857 
L 138.947439 225.034971 
L 138.978175 225.759086 
L 139.967882 226.4832 
L 140.259876 227.207314 
L 140.309054 227.931429 
L 140.594901 228.655543 
L 140.850012 229.379657 
L 141.541577 230.103771 
L 144.194114 230.827886 
L 144.590612 231.552 
L 144.68282 232.276114 
L 145.017845 233.000229 
L 145.346723 233.724343 
L 145.35287 234.448457 
L 145.478889 235.172571 
L 146.419418 235.896686 
L 147.034142 236.6208 
L 147.615057 237.344914 
L 147.925493 238.069029 
L 148.076101 238.793143 
L 148.266665 239.517257 
L 148.84758 240.241371 
L 148.955157 240.965486 
L 150.488895 241.6896 
L 151.432497 242.413714 
L 151.457086 243.137829 
L 151.644577 243.861943 
L 151.718344 244.586057 
L 152.508265 245.310171 
L 152.606621 246.034286 
L 152.837143 246.7584 
L 153.504119 247.482514 
L 154.46309 248.206629 
L 155.157729 248.930743 
L 155.225349 249.654857 
L 155.323705 250.378971 
L 156.073669 251.103086 
L 156.199687 251.8272 
L 157.383032 252.551314 
L 158.747721 253.275429 
L 159.2979 253.999543 
L 159.909551 254.723657 
L 159.921845 255.447771 
L 160.25687 256.171886 
L 161.326491 256.896 
L 161.421773 257.620114 
L 161.581602 258.344229 
L 161.815197 259.068343 
L 161.898185 259.792457 
L 162.208621 260.516571 
L 164.271022 261.240686 
L 164.378599 261.9648 
L 164.796612 262.688914 
L 165.291465 263.413029 
L 165.494324 264.137143 
L 165.620343 264.861257 
L 166.112123 265.585371 
L 167.114124 266.309486 
L 167.267805 267.0336 
L 167.728849 267.757714 
L 170.897754 268.481829 
L 171.856725 269.205943 
L 172.308547 270.654171 
L 173.169162 271.378286 
L 173.298254 272.1024 
L 174.622986 272.826514 
L 175.130134 273.550629 
L 178.425058 274.274743 
L 179.430133 274.998857 
L 180.404471 275.722971 
L 180.837852 276.447086 
L 181.403399 277.1712 
L 181.704614 277.895314 
L 182.580597 278.619429 
L 186.152147 279.343543 
L 186.520982 280.067657 
L 187.526057 280.791771 
L 188.47888 281.515886 
L 188.558794 282.24 
L 192.348572 282.964114 
L 192.714333 283.688229 
L 199.611544 284.412343 
L 203.014045 285.136457 
L 204.252715 285.860571 
L 204.947354 286.584686 
L 205.5713 287.3088 
L 206.600964 288.032914 
L 210.289312 288.757029 
L 214.54628 289.481143 
L 216.633271 290.205257 
L 224.366507 290.929371 
L 224.474084 291.653486 
L 228.841703 292.3776 
L 229.7976 293.101714 
L 232.806677 293.825829 
L 236.138485 294.549943 
L 237.736769 295.274057 
L 238.471365 295.998171 
L 238.483659 296.722286 
L 239.418041 297.4464 
L 240.364717 298.170514 
L 245.894165 298.894629 
L 253.907102 299.618743 
L 267.323468 300.342857 
L 276.857847 301.066971 
L 277.653916 301.791086 
L 279.242979 302.5152 
L 283.73969 303.239314 
L 307.388149 303.963429 
L 310.222029 304.687543 
L 327.757051 305.411657 
L 330.655478 306.135771 
L 398.487273 306.859886 
L 398.487273 306.859886 
L 398.487273 306.859886 
L 330.655478 306.135771 
L 327.757051 305.411657 
L 310.222029 304.687543 
L 307.388149 303.963429 
L 283.73969 303.239314 
L 279.242979 302.5152 
L 277.653916 301.791086 
L 276.857847 301.066971 
L 267.323468 300.342857 
L 253.907102 299.618743 
L 245.894165 298.894629 
L 240.364717 298.170514 
L 239.418041 297.4464 
L 238.483659 296.722286 
L 238.471365 295.998171 
L 237.736769 295.274057 
L 236.138485 294.549943 
L 232.806677 293.825829 
L 229.7976 293.101714 
L 228.841703 292.3776 
L 224.474084 291.653486 
L 224.366507 290.929371 
L 216.633271 290.205257 
L 214.54628 289.481143 
L 210.289312 288.757029 
L 206.600964 288.032914 
L 205.5713 287.3088 
L 204.947354 286.584686 
L 204.252715 285.860571 
L 203.014045 285.136457 
L 199.611544 284.412343 
L 192.714333 283.688229 
L 192.348572 282.964114 
L 188.558794 282.24 
L 188.47888 281.515886 
L 187.526057 280.791771 
L 186.520982 280.067657 
L 186.152147 279.343543 
L 182.580597 278.619429 
L 181.704614 277.895314 
L 181.403399 277.1712 
L 180.837852 276.447086 
L 180.404471 275.722971 
L 179.430133 274.998857 
L 178.425058 274.274743 
L 175.130134 273.550629 
L 174.622986 272.826514 
L 173.298254 272.1024 
L 173.169162 271.378286 
L 172.308547 270.654171 
L 171.856725 269.205943 
L 170.897754 268.481829 
L 167.728849 267.757714 
L 167.267805 267.0336 
L 167.114124 266.309486 
L 166.112123 265.585371 
L 165.620343 264.861257 
L 165.494324 264.137143 
L 165.291465 263.413029 
L 164.796612 262.688914 
L 164.378599 261.9648 
L 164.271022 261.240686 
L 162.208621 260.516571 
L 161.898185 259.792457 
L 161.815197 259.068343 
L 161.581602 258.344229 
L 161.421773 257.620114 
L 161.326491 256.896 
L 160.25687 256.171886 
L 159.921845 255.447771 
L 159.909551 254.723657 
L 159.2979 253.999543 
L 158.747721 253.275429 
L 157.383032 252.551314 
L 156.199687 251.8272 
L 156.073669 251.103086 
L 155.323705 250.378971 
L 155.225349 249.654857 
L 155.157729 248.930743 
L 154.46309 248.206629 
L 153.504119 247.482514 
L 152.837143 246.7584 
L 152.606621 246.034286 
L 152.508265 245.310171 
L 151.718344 244.586057 
L 151.644577 243.861943 
L 151.457086 243.137829 
L 151.432497 242.413714 
L 150.488895 241.6896 
L 148.955157 240.965486 
L 148.84758 240.241371 
L 148.266665 239.517257 
L 148.076101 238.793143 
L 147.925493 238.069029 
L 147.615057 237.344914 
L 147.034142 236.6208 
L 146.419418 235.896686 
L 145.478889 235.172571 
L 145.35287 234.448457 
L 145.346723 233.724343 
L 145.017845 233.000229 
L 144.68282 232.276114 
L 144.590612 231.552 
L 144.194114 230.827886 
L 141.541577 230.103771 
L 140.850012 229.379657 
L 140.594901 228.655543 
L 140.309054 227.931429 
L 140.259876 227.207314 
L 139.967882 226.4832 
L 138.978175 225.759086 
L 138.947439 225.034971 
L 138.864451 224.310857 
L 138.21899 223.586743 
L 138.086824 222.862629 
L 137.499762 222.138514 
L 137.358376 221.4144 
L 136.872743 220.690286 
L 136.848154 219.966171 
L 136.122779 219.242057 
L 135.096189 218.517943 
L 135.077747 217.793829 
L 134.625925 217.069714 
L 133.897476 216.3456 
L 133.685396 215.621486 
L 133.660807 214.897371 
L 133.596261 214.173257 
L 133.58704 213.449143 
L 132.818634 212.725029 
L 131.613774 212.000914 
L 131.515418 211.2768 
L 131.337147 210.552686 
L 130.919135 209.828571 
L 130.381251 209.104457 
L 130.350514 208.380343 
L 130.156876 207.656229 
L 129.827998 206.932114 
L 128.792187 206.208 
L 128.26045 205.483886 
L 127.842438 204.759771 
L 127.307627 204.035657 
L 127.236934 203.311543 
L 127.024854 202.587429 
L 126.782038 201.863314 
L 126.48697 201.1392 
L 126.299479 200.415086 
L 125.998264 199.690971 
L 125.737006 198.966857 
L 125.675533 198.242743 
L 125.614061 197.518629 
L 125.131502 196.794514 
L 124.879465 196.0704 
L 124.768814 195.346286 
L 124.031145 194.622171 
L 123.674604 193.898057 
L 123.45023 193.173943 
L 123.361095 192.449829 
L 123.182825 191.725714 
L 122.912346 191.0016 
L 122.561953 190.277486 
L 122.343725 189.553371 
L 122.067099 188.829257 
L 120.118422 188.105143 
L 119.540581 187.381029 
L 119.257808 186.656914 
L 118.959666 185.9328 
L 118.418708 185.208686 
L 117.149302 184.484571 
L 116.977179 183.760457 
L 116.712847 183.036343 
L 116.574534 182.312229 
L 116.509988 181.588114 
L 116.128859 180.864 
L 116.073534 180.139886 
L 115.766171 179.415771 
L 115.74773 178.691657 
L 115.670889 177.967543 
L 115.514134 177.243429 
L 115.40041 176.519314 
L 115.228287 175.7952 
L 114.902483 175.071086 
L 114.788759 174.346971 
L 114.745728 173.622857 
L 114.493691 172.898743 
L 114.091047 172.174629 
L 113.377966 171.450514 
L 113.119782 170.7264 
L 113.030647 170.002286 
L 112.535793 169.278171 
L 112.296051 168.554057 
L 112.145443 167.829943 
L 112.142369 167.105829 
L 112.077823 166.381714 
L 111.87189 165.6576 
L 111.632148 164.933486 
L 111.343227 164.209371 
L 111.220282 163.485257 
L 110.863742 162.761143 
L 110.316637 162.037029 
L 110.073821 161.312914 
L 109.797195 160.5888 
L 109.760311 159.864686 
L 109.637366 159.140571 
L 109.471391 158.416457 
L 109.102556 157.692343 
L 109.044157 156.968229 
L 109.025715 156.244114 
L 108.955022 155.52 
L 108.930433 154.795886 
L 108.908918 154.071771 
L 108.349518 153.347657 
L 107.974536 152.623543 
L 107.848517 151.899429 
L 107.737867 151.175314 
L 107.390548 150.4512 
L 106.981756 149.727086 
L 106.668246 149.002971 
L 106.619068 148.278857 
L 106.305559 147.554743 
L 106.287117 146.830629 
L 106.244086 146.106514 
L 106.222571 145.3824 
L 105.438797 144.658286 
L 105.349662 143.934171 
L 105.321999 143.210057 
L 105.088404 142.485943 
L 104.741084 141.761829 
L 104.132507 141.037714 
L 104.123286 140.3136 
L 104.02493 139.589486 
L 103.391764 138.865371 
L 103.271892 138.141257 
L 103.164315 137.417143 
L 101.704344 136.693029 
L 101.544516 135.968914 
L 101.393908 135.2448 
L 101.049662 134.520686 
L 100.757668 133.796571 
L 100.533294 133.072457 
L 100.146017 132.348343 
L 100.026146 131.624229 
L 99.82636 130.900114 
L 99.008777 130.176 
L 98.984188 129.451886 
L 98.682972 128.727771 
L 98.280328 128.003657 
L 98.200414 127.279543 
L 97.444302 126.555429 
L 96.894124 125.831314 
L 96.549878 125.1072 
L 96.420786 124.383086 
L 96.374681 123.658971 
L 96.199485 122.934857 
L 95.640085 122.210743 
L 95.575539 121.486629 
L 94.957741 120.0384 
L 94.721072 119.314286 
L 94.613495 118.590171 
L 94.404489 117.866057 
L 93.986476 117.141943 
L 93.755954 116.417829 
L 93.734439 115.693714 
L 93.629936 114.9696 
L 93.491623 114.245486 
L 93.202702 113.521371 
L 92.852309 112.797257 
L 92.784689 112.073143 
L 92.677112 111.349029 
L 92.05624 110.624914 
L 91.80113 109.9008 
L 91.791909 109.176686 
L 91.718142 108.452571 
L 91.582902 107.728457 
L 91.546019 107.004343 
L 91.386191 106.280229 
L 90.676184 105.556114 
L 90.150594 104.832 
L 89.96925 104.107886 
L 89.695698 103.383771 
L 89.658814 102.659657 
L 89.64652 101.935543 
L 89.563532 101.211429 
L 89.471323 100.487314 
L 89.363746 99.7632 
L 89.357599 99.039086 
L 89.293053 98.314971 
L 89.065605 97.590857 
L 89.031795 96.866743 
L 88.561531 96.142629 
L 88.275684 95.418514 
L 88.134297 94.6944 
L 87.332081 93.970286 
L 87.282903 93.246171 
L 87.258314 92.522057 
L 87.199915 91.797943 
L 87.116928 91.073829 
L 86.735798 90.349714 
L 86.327006 89.6256 
L 86.320859 88.901486 
L 86.124147 88.177371 
L 85.816785 87.453257 
L 85.730723 86.729143 
L 85.58319 86.005029 
L 85.036085 85.280914 
L 84.934655 84.5568 
L 84.716428 83.832686 
L 84.664176 83.108571 
L 84.203133 82.384457 
L 84.07404 81.660343 
L 83.634512 80.936229 
L 83.059745 80.212114 
L 82.749309 79.488 
L 82.72472 78.763886 
L 82.660174 78.039771 
L 81.652025 77.315657 
L 81.372325 76.591543 
L 81.329295 75.867429 
L 81.313927 75.143314 
L 81.197129 74.4192 
L 81.160245 73.695086 
L 80.843662 72.970971 
L 80.736085 72.246857 
L 80.235085 71.522743 
L 80.173612 70.798629 
L 80.096772 70.074514 
L 80.007637 69.3504 
L 79.906207 68.626286 
L 79.792483 67.902171 
L 79.691053 67.178057 
L 79.328366 66.453943 
L 79.1962 65.729829 
L 78.762819 65.005714 
L 78.264892 64.2816 
L 78.015929 63.557486 
L 77.616358 62.833371 
L 77.588695 62.109257 
L 77.493413 61.385143 
L 76.519074 60.661029 
L 76.273184 59.936914 
L 75.676901 59.2128 
L 75.434085 58.488686 
L 75.387981 57.764571 
L 75.197416 57.040457 
L 75.169753 56.316343 
L 74.186194 55.592229 
L 74.133942 54.868114 
L 73.832727 54.144 
z
" clip-path="url(#pa5c4123bf2)" style="fill: #ff0000"/>
   </g>
   <g id="matplotlib.axis_1">
    <g id="xtick_1">
     <g id="line2d_1">
      <defs>
       <path id="m3b4c351c38" d="M 0 0 
L 0 3.5 
" style="stroke: #000000; stroke-width: 0.8"/>
      </defs>
      <g>
       <use xlink:href="#m3b4c351c38" x="106.609847" y="307.584" style="stroke: #000000; stroke-width: 0.8"/>
      </g>
     </g>
     <g id="text_1">
      <!-- 200 -->
      <g transform="translate(97.066097 322.182437)scale(0.1 -0.1)">
       <defs>
        <path id="DejaVuSans-32" d="M 1228 531 
L 3431 531 
L 3431 0 
L 469 0 
L 469 531 
Q 828 903 1448 1529 
Q 2069 2156 2228 2338 
Q 2531 2678 2651 2914 
Q 2772 3150 2772 3378 
Q 2772 3750 2511 3984 
Q 2250 4219 1831 4219 
Q 1534 4219 1204 4116 
Q 875 4013 500 3803 
L 500 4441 
Q 881 4594 1212 4672 
Q 1544 4750 1819 4750 
Q 2544 4750 2975 4387 
Q 3406 4025 3406 3419 
Q 3406 3131 3298 2873 
Q 3191 2616 2906 2266 
Q 2828 2175 2409 1742 
Q 1991 1309 1228 531 
z
" transform="scale(0.015625)"/>
        <path id="DejaVuSans-30" d="M 2034 4250 
Q 1547 4250 1301 3770 
Q 1056 3291 1056 2328 
Q 1056 1369 1301 889 
Q 1547 409 2034 409 
Q 2525 409 2770 889 
Q 3016 1369 3016 2328 
Q 3016 3291 2770 3770 
Q 2525 4250 2034 4250 
z
M 2034 4750 
Q 2819 4750 3233 4129 
Q 3647 3509 3647 2328 
Q 3647 1150 3233 529 
Q 2819 -91 2034 -91 
Q 1250 -91 836 529 
Q 422 1150 422 2328 
Q 422 3509 836 4129 
Q 1250 4750 2034 4750 
z
" transform="scale(0.015625)"/>
       </defs>
       <use xlink:href="#DejaVuSans-32"/>
       <use xlink:href="#DejaVuSans-30" x="63.623047"/>
       <use xlink:href="#DejaVuSans-30" x="127.246094"/>
      </g>
     </g>
    </g>
    <g id="xtick_2">
     <g id="line2d_2">
      <g>
       <use xlink:href="#m3b4c351c38" x="168.082315" y="307.584" style="stroke: #000000; stroke-width: 0.8"/>
      </g>
     </g>
     <g id="text_2">
      <!-- 400 -->
      <g transform="translate(158.538565 322.182437)scale(0.1 -0.1)">
       <defs>
        <path id="DejaVuSans-34" d="M 2419 4116 
L 825 1625 
L 2419 1625 
L 2419 4116 
z
M 2253 4666 
L 3047 4666 
L 3047 1625 
L 3713 1625 
L 3713 1100 
L 3047 1100 
L 3047 0 
L 2419 0 
L 2419 1100 
L 313 1100 
L 313 1709 
L 2253 4666 
z
" transform="scale(0.015625)"/>
       </defs>
       <use xlink:href="#DejaVuSans-34"/>
       <use xlink:href="#DejaVuSans-30" x="63.623047"/>
       <use xlink:href="#DejaVuSans-30" x="127.246094"/>
      </g>
     </g>
    </g>
    <g id="xtick_3">
     <g id="line2d_3">
      <g>
       <use xlink:href="#m3b4c351c38" x="229.554783" y="307.584" style="stroke: #000000; stroke-width: 0.8"/>
      </g>
     </g>
     <g id="text_3">
      <!-- 600 -->
      <g transform="translate(220.011033 322.182437)scale(0.1 -0.1)">
       <defs>
        <path id="DejaVuSans-36" d="M 2113 2584 
Q 1688 2584 1439 2293 
Q 1191 2003 1191 1497 
Q 1191 994 1439 701 
Q 1688 409 2113 409 
Q 2538 409 2786 701 
Q 3034 994 3034 1497 
Q 3034 2003 2786 2293 
Q 2538 2584 2113 2584 
z
M 3366 4563 
L 3366 3988 
Q 3128 4100 2886 4159 
Q 2644 4219 2406 4219 
Q 1781 4219 1451 3797 
Q 1122 3375 1075 2522 
Q 1259 2794 1537 2939 
Q 1816 3084 2150 3084 
Q 2853 3084 3261 2657 
Q 3669 2231 3669 1497 
Q 3669 778 3244 343 
Q 2819 -91 2113 -91 
Q 1303 -91 875 529 
Q 447 1150 447 2328 
Q 447 3434 972 4092 
Q 1497 4750 2381 4750 
Q 2619 4750 2861 4703 
Q 3103 4656 3366 4563 
z
" transform="scale(0.015625)"/>
       </defs>
       <use xlink:href="#DejaVuSans-36"/>
       <use xlink:href="#DejaVuSans-30" x="63.623047"/>
       <use xlink:href="#DejaVuSans-30" x="127.246094"/>
      </g>
     </g>
    </g>
    <g id="xtick_4">
     <g id="line2d_4">
      <g>
       <use xlink:href="#m3b4c351c38" x="291.027251" y="307.584" style="stroke: #000000; stroke-width: 0.8"/>
      </g>
     </g>
     <g id="text_4">
      <!-- 800 -->
      <g transform="translate(281.483501 322.182437)scale(0.1 -0.1)">
       <defs>
        <path id="DejaVuSans-38" d="M 2034 2216 
Q 1584 2216 1326 1975 
Q 1069 1734 1069 1313 
Q 1069 891 1326 650 
Q 1584 409 2034 409 
Q 2484 409 2743 651 
Q 3003 894 3003 1313 
Q 3003 1734 2745 1975 
Q 2488 2216 2034 2216 
z
M 1403 2484 
Q 997 2584 770 2862 
Q 544 3141 544 3541 
Q 544 4100 942 4425 
Q 1341 4750 2034 4750 
Q 2731 4750 3128 4425 
Q 3525 4100 3525 3541 
Q 3525 3141 3298 2862 
Q 3072 2584 2669 2484 
Q 3125 2378 3379 2068 
Q 3634 1759 3634 1313 
Q 3634 634 3220 271 
Q 2806 -91 2034 -91 
Q 1263 -91 848 271 
Q 434 634 434 1313 
Q 434 1759 690 2068 
Q 947 2378 1403 2484 
z
M 1172 3481 
Q 1172 3119 1398 2916 
Q 1625 2713 2034 2713 
Q 2441 2713 2670 2916 
Q 2900 3119 2900 3481 
Q 2900 3844 2670 4047 
Q 2441 4250 2034 4250 
Q 1625 4250 1398 4047 
Q 1172 3844 1172 3481 
z
" transform="scale(0.015625)"/>
       </defs>
       <use xlink:href="#DejaVuSans-38"/>
       <use xlink:href="#DejaVuSans-30" x="63.623047"/>
       <use xlink:href="#DejaVuSans-30" x="127.246094"/>
      </g>
     </g>
    </g>
    <g id="xtick_5">
     <g id="line2d_5">
      <g>
       <use xlink:href="#m3b4c351c38" x="352.499719" y="307.584" style="stroke: #000000; stroke-width: 0.8"/>
      </g>
     </g>
     <g id="text_5">
      <!-- 1000 -->
      <g transform="translate(339.774719 322.182437)scale(0.1 -0.1)">
       <defs>
        <path id="DejaVuSans-31" d="M 794 531 
L 1825 531 
L 1825 4091 
L 703 3866 
L 703 4441 
L 1819 4666 
L 2450 4666 
L 2450 531 
L 3481 531 
L 3481 0 
L 794 0 
L 794 531 
z
" transform="scale(0.015625)"/>
       </defs>
       <use xlink:href="#DejaVuSans-31"/>
       <use xlink:href="#DejaVuSans-30" x="63.623047"/>
       <use xlink:href="#DejaVuSans-30" x="127.246094"/>
       <use xlink:href="#DejaVuSans-30" x="190.869141"/>
      </g>
     </g>
    </g>
    <g id="xtick_6">
     <g id="line2d_6">
      <g>
       <use xlink:href="#m3b4c351c38" x="413.972187" y="307.584" style="stroke: #000000; stroke-width: 0.8"/>
      </g>
     </g>
     <g id="text_6">
      <!-- 1200 -->
      <g transform="translate(401.247187 322.182437)scale(0.1 -0.1)">
       <use xlink:href="#DejaVuSans-31"/>
       <use xlink:href="#DejaVuSans-32" x="63.623047"/>
       <use xlink:href="#DejaVuSans-30" x="127.246094"/>
       <use xlink:href="#DejaVuSans-30" x="190.869141"/>
      </g>
     </g>
    </g>
    <g id="text_7">
     <!-- Score -->
     <g transform="translate(222.157656 335.860562)scale(0.1 -0.1)">
      <defs>
       <path id="DejaVuSans-53" d="M 3425 4513 
L 3425 3897 
Q 3066 4069 2747 4153 
Q 2428 4238 2131 4238 
Q 1616 4238 1336 4038 
Q 1056 3838 1056 3469 
Q 1056 3159 1242 3001 
Q 1428 2844 1947 2747 
L 2328 2669 
Q 3034 2534 3370 2195 
Q 3706 1856 3706 1288 
Q 3706 609 3251 259 
Q 2797 -91 1919 -91 
Q 1588 -91 1214 -16 
Q 841 59 441 206 
L 441 856 
Q 825 641 1194 531 
Q 1563 422 1919 422 
Q 2459 422 2753 634 
Q 3047 847 3047 1241 
Q 3047 1584 2836 1778 
Q 2625 1972 2144 2069 
L 1759 2144 
Q 1053 2284 737 2584 
Q 422 2884 422 3419 
Q 422 4038 858 4394 
Q 1294 4750 2059 4750 
Q 2388 4750 2728 4690 
Q 3069 4631 3425 4513 
z
" transform="scale(0.015625)"/>
       <path id="DejaVuSans-63" d="M 3122 3366 
L 3122 2828 
Q 2878 2963 2633 3030 
Q 2388 3097 2138 3097 
Q 1578 3097 1268 2742 
Q 959 2388 959 1747 
Q 959 1106 1268 751 
Q 1578 397 2138 397 
Q 2388 397 2633 464 
Q 2878 531 3122 666 
L 3122 134 
Q 2881 22 2623 -34 
Q 2366 -91 2075 -91 
Q 1284 -91 818 406 
Q 353 903 353 1747 
Q 353 2603 823 3093 
Q 1294 3584 2113 3584 
Q 2378 3584 2631 3529 
Q 2884 3475 3122 3366 
z
" transform="scale(0.015625)"/>
       <path id="DejaVuSans-6f" d="M 1959 3097 
Q 1497 3097 1228 2736 
Q 959 2375 959 1747 
Q 959 1119 1226 758 
Q 1494 397 1959 397 
Q 2419 397 2687 759 
Q 2956 1122 2956 1747 
Q 2956 2369 2687 2733 
Q 2419 3097 1959 3097 
z
M 1959 3584 
Q 2709 3584 3137 3096 
Q 3566 2609 3566 1747 
Q 3566 888 3137 398 
Q 2709 -91 1959 -91 
Q 1206 -91 779 398 
Q 353 888 353 1747 
Q 353 2609 779 3096 
Q 1206 3584 1959 3584 
z
" transform="scale(0.015625)"/>
       <path id="DejaVuSans-72" d="M 2631 2963 
Q 2534 3019 2420 3045 
Q 2306 3072 2169 3072 
Q 1681 3072 1420 2755 
Q 1159 2438 1159 1844 
L 1159 0 
L 581 0 
L 581 3500 
L 1159 3500 
L 1159 2956 
Q 1341 3275 1631 3429 
Q 1922 3584 2338 3584 
Q 2397 3584 2469 3576 
Q 2541 3569 2628 3553 
L 2631 2963 
z
" transform="scale(0.015625)"/>
       <path id="DejaVuSans-65" d="M 3597 1894 
L 3597 1613 
L 953 1613 
Q 991 1019 1311 708 
Q 1631 397 2203 397 
Q 2534 397 2845 478 
Q 3156 559 3463 722 
L 3463 178 
Q 3153 47 2828 -22 
Q 2503 -91 2169 -91 
Q 1331 -91 842 396 
Q 353 884 353 1716 
Q 353 2575 817 3079 
Q 1281 3584 2069 3584 
Q 2775 3584 3186 3129 
Q 3597 2675 3597 1894 
z
M 3022 2063 
Q 3016 2534 2758 2815 
Q 2500 3097 2075 3097 
Q 1594 3097 1305 2825 
Q 1016 2553 972 2059 
L 3022 2063 
z
" transform="scale(0.015625)"/>
      </defs>
      <use xlink:href="#DejaVuSans-53"/>
      <use xlink:href="#DejaVuSans-63" x="63.476562"/>
      <use xlink:href="#DejaVuSans-6f" x="118.457031"/>
      <use xlink:href="#DejaVuSans-72" x="179.638672"/>
      <use xlink:href="#DejaVuSans-65" x="218.501953"/>
     </g>
    </g>
   </g>
   <g id="matplotlib.axis_2">
    <g id="ytick_1">
     <g id="line2d_7">
      <defs>
       <path id="m151d389c4e" d="M 0 0 
L -3.5 0 
" style="stroke: #000000; stroke-width: 0.8"/>
      </defs>
      <g>
       <use xlink:href="#m151d389c4e" x="57.6" y="307.584" style="stroke: #000000; stroke-width: 0.8"/>
      </g>
     </g>
     <g id="text_8">
      <!-- 0 -->
      <g transform="translate(44.2375 311.383219)scale(0.1 -0.1)">
       <use xlink:href="#DejaVuSans-30"/>
      </g>
     </g>
    </g>
    <g id="ytick_2">
     <g id="line2d_8">
      <g>
       <use xlink:href="#m151d389c4e" x="57.6" y="271.378286" style="stroke: #000000; stroke-width: 0.8"/>
      </g>
     </g>
     <g id="text_9">
      <!-- 50 -->
      <g transform="translate(37.875 275.177504)scale(0.1 -0.1)">
       <defs>
        <path id="DejaVuSans-35" d="M 691 4666 
L 3169 4666 
L 3169 4134 
L 1269 4134 
L 1269 2991 
Q 1406 3038 1543 3061 
Q 1681 3084 1819 3084 
Q 2600 3084 3056 2656 
Q 3513 2228 3513 1497 
Q 3513 744 3044 326 
Q 2575 -91 1722 -91 
Q 1428 -91 1123 -41 
Q 819 9 494 109 
L 494 744 
Q 775 591 1075 516 
Q 1375 441 1709 441 
Q 2250 441 2565 725 
Q 2881 1009 2881 1497 
Q 2881 1984 2565 2268 
Q 2250 2553 1709 2553 
Q 1456 2553 1204 2497 
Q 953 2441 691 2322 
L 691 4666 
z
" transform="scale(0.015625)"/>
       </defs>
       <use xlink:href="#DejaVuSans-35"/>
       <use xlink:href="#DejaVuSans-30" x="63.623047"/>
      </g>
     </g>
    </g>
    <g id="ytick_3">
     <g id="line2d_9">
      <g>
       <use xlink:href="#m151d389c4e" x="57.6" y="235.172571" style="stroke: #000000; stroke-width: 0.8"/>
      </g>
     </g>
     <g id="text_10">
      <!-- 100 -->
      <g transform="translate(31.5125 238.97179)scale(0.1 -0.1)">
       <use xlink:href="#DejaVuSans-31"/>
       <use xlink:href="#DejaVuSans-30" x="63.623047"/>
       <use xlink:href="#DejaVuSans-30" x="127.246094"/>
      </g>
     </g>
    </g>
    <g id="ytick_4">
     <g id="line2d_10">
      <g>
       <use xlink:href="#m151d389c4e" x="57.6" y="198.966857" style="stroke: #000000; stroke-width: 0.8"/>
      </g>
     </g>
     <g id="text_11">
      <!-- 150 -->
      <g transform="translate(31.5125 202.766076)scale(0.1 -0.1)">
       <use xlink:href="#DejaVuSans-31"/>
       <use xlink:href="#DejaVuSans-35" x="63.623047"/>
       <use xlink:href="#DejaVuSans-30" x="127.246094"/>
      </g>
     </g>
    </g>
    <g id="ytick_5">
     <g id="line2d_11">
      <g>
       <use xlink:href="#m151d389c4e" x="57.6" y="162.761143" style="stroke: #000000; stroke-width: 0.8"/>
      </g>
     </g>
     <g id="text_12">
      <!-- 200 -->
      <g transform="translate(31.5125 166.560362)scale(0.1 -0.1)">
       <use xlink:href="#DejaVuSans-32"/>
       <use xlink:href="#DejaVuSans-30" x="63.623047"/>
       <use xlink:href="#DejaVuSans-30" x="127.246094"/>
      </g>
     </g>
    </g>
    <g id="ytick_6">
     <g id="line2d_12">
      <g>
       <use xlink:href="#m151d389c4e" x="57.6" y="126.555429" style="stroke: #000000; stroke-width: 0.8"/>
      </g>
     </g>
     <g id="text_13">
      <!-- 250 -->
      <g transform="translate(31.5125 130.354647)scale(0.1 -0.1)">
       <use xlink:href="#DejaVuSans-32"/>
       <use xlink:href="#DejaVuSans-35" x="63.623047"/>
       <use xlink:href="#DejaVuSans-30" x="127.246094"/>
      </g>
     </g>
    </g>
    <g id="ytick_7">
     <g id="line2d_13">
      <g>
       <use xlink:href="#m151d389c4e" x="57.6" y="90.349714" style="stroke: #000000; stroke-width: 0.8"/>
      </g>
     </g>
     <g id="text_14">
      <!-- 300 -->
      <g transform="translate(31.5125 94.148933)scale(0.1 -0.1)">
       <defs>
        <path id="DejaVuSans-33" d="M 2597 2516 
Q 3050 2419 3304 2112 
Q 3559 1806 3559 1356 
Q 3559 666 3084 287 
Q 2609 -91 1734 -91 
Q 1441 -91 1130 -33 
Q 819 25 488 141 
L 488 750 
Q 750 597 1062 519 
Q 1375 441 1716 441 
Q 2309 441 2620 675 
Q 2931 909 2931 1356 
Q 2931 1769 2642 2001 
Q 2353 2234 1838 2234 
L 1294 2234 
L 1294 2753 
L 1863 2753 
Q 2328 2753 2575 2939 
Q 2822 3125 2822 3475 
Q 2822 3834 2567 4026 
Q 2313 4219 1838 4219 
Q 1578 4219 1281 4162 
Q 984 4106 628 3988 
L 628 4550 
Q 988 4650 1302 4700 
Q 1616 4750 1894 4750 
Q 2613 4750 3031 4423 
Q 3450 4097 3450 3541 
Q 3450 3153 3228 2886 
Q 3006 2619 2597 2516 
z
" transform="scale(0.015625)"/>
       </defs>
       <use xlink:href="#DejaVuSans-33"/>
       <use xlink:href="#DejaVuSans-30" x="63.623047"/>
       <use xlink:href="#DejaVuSans-30" x="127.246094"/>
      </g>
     </g>
    </g>
    <g id="ytick_8">
     <g id="line2d_14">
      <g>
       <use xlink:href="#m151d389c4e" x="57.6" y="54.144" style="stroke: #000000; stroke-width: 0.8"/>
      </g>
     </g>
     <g id="text_15">
      <!-- 350 -->
      <g transform="translate(31.5125 57.943219)scale(0.1 -0.1)">
       <use xlink:href="#DejaVuSans-33"/>
       <use xlink:href="#DejaVuSans-35" x="63.623047"/>
       <use xlink:href="#DejaVuSans-30" x="127.246094"/>
      </g>
     </g>
    </g>
    <g id="text_16">
     <!-- Number of crosslinks -->
     <g transform="translate(25.432812 227.019406)rotate(-90)scale(0.1 -0.1)">
      <defs>
       <path id="DejaVuSans-4e" d="M 628 4666 
L 1478 4666 
L 3547 763 
L 3547 4666 
L 4159 4666 
L 4159 0 
L 3309 0 
L 1241 3903 
L 1241 0 
L 628 0 
L 628 4666 
z
" transform="scale(0.015625)"/>
       <path id="DejaVuSans-75" d="M 544 1381 
L 544 3500 
L 1119 3500 
L 1119 1403 
Q 1119 906 1312 657 
Q 1506 409 1894 409 
Q 2359 409 2629 706 
Q 2900 1003 2900 1516 
L 2900 3500 
L 3475 3500 
L 3475 0 
L 2900 0 
L 2900 538 
Q 2691 219 2414 64 
Q 2138 -91 1772 -91 
Q 1169 -91 856 284 
Q 544 659 544 1381 
z
M 1991 3584 
L 1991 3584 
z
" transform="scale(0.015625)"/>
       <path id="DejaVuSans-6d" d="M 3328 2828 
Q 3544 3216 3844 3400 
Q 4144 3584 4550 3584 
Q 5097 3584 5394 3201 
Q 5691 2819 5691 2113 
L 5691 0 
L 5113 0 
L 5113 2094 
Q 5113 2597 4934 2840 
Q 4756 3084 4391 3084 
Q 3944 3084 3684 2787 
Q 3425 2491 3425 1978 
L 3425 0 
L 2847 0 
L 2847 2094 
Q 2847 2600 2669 2842 
Q 2491 3084 2119 3084 
Q 1678 3084 1418 2786 
Q 1159 2488 1159 1978 
L 1159 0 
L 581 0 
L 581 3500 
L 1159 3500 
L 1159 2956 
Q 1356 3278 1631 3431 
Q 1906 3584 2284 3584 
Q 2666 3584 2933 3390 
Q 3200 3197 3328 2828 
z
" transform="scale(0.015625)"/>
       <path id="DejaVuSans-62" d="M 3116 1747 
Q 3116 2381 2855 2742 
Q 2594 3103 2138 3103 
Q 1681 3103 1420 2742 
Q 1159 2381 1159 1747 
Q 1159 1113 1420 752 
Q 1681 391 2138 391 
Q 2594 391 2855 752 
Q 3116 1113 3116 1747 
z
M 1159 2969 
Q 1341 3281 1617 3432 
Q 1894 3584 2278 3584 
Q 2916 3584 3314 3078 
Q 3713 2572 3713 1747 
Q 3713 922 3314 415 
Q 2916 -91 2278 -91 
Q 1894 -91 1617 61 
Q 1341 213 1159 525 
L 1159 0 
L 581 0 
L 581 4863 
L 1159 4863 
L 1159 2969 
z
" transform="scale(0.015625)"/>
       <path id="DejaVuSans-20" transform="scale(0.015625)"/>
       <path id="DejaVuSans-66" d="M 2375 4863 
L 2375 4384 
L 1825 4384 
Q 1516 4384 1395 4259 
Q 1275 4134 1275 3809 
L 1275 3500 
L 2222 3500 
L 2222 3053 
L 1275 3053 
L 1275 0 
L 697 0 
L 697 3053 
L 147 3053 
L 147 3500 
L 697 3500 
L 697 3744 
Q 697 4328 969 4595 
Q 1241 4863 1831 4863 
L 2375 4863 
z
" transform="scale(0.015625)"/>
       <path id="DejaVuSans-73" d="M 2834 3397 
L 2834 2853 
Q 2591 2978 2328 3040 
Q 2066 3103 1784 3103 
Q 1356 3103 1142 2972 
Q 928 2841 928 2578 
Q 928 2378 1081 2264 
Q 1234 2150 1697 2047 
L 1894 2003 
Q 2506 1872 2764 1633 
Q 3022 1394 3022 966 
Q 3022 478 2636 193 
Q 2250 -91 1575 -91 
Q 1294 -91 989 -36 
Q 684 19 347 128 
L 347 722 
Q 666 556 975 473 
Q 1284 391 1588 391 
Q 1994 391 2212 530 
Q 2431 669 2431 922 
Q 2431 1156 2273 1281 
Q 2116 1406 1581 1522 
L 1381 1569 
Q 847 1681 609 1914 
Q 372 2147 372 2553 
Q 372 3047 722 3315 
Q 1072 3584 1716 3584 
Q 2034 3584 2315 3537 
Q 2597 3491 2834 3397 
z
" transform="scale(0.015625)"/>
       <path id="DejaVuSans-6c" d="M 603 4863 
L 1178 4863 
L 1178 0 
L 603 0 
L 603 4863 
z
" transform="scale(0.015625)"/>
       <path id="DejaVuSans-69" d="M 603 3500 
L 1178 3500 
L 1178 0 
L 603 0 
L 603 3500 
z
M 603 4863 
L 1178 4863 
L 1178 4134 
L 603 4134 
L 603 4863 
z
" transform="scale(0.015625)"/>
       <path id="DejaVuSans-6e" d="M 3513 2113 
L 3513 0 
L 2938 0 
L 2938 2094 
Q 2938 2591 2744 2837 
Q 2550 3084 2163 3084 
Q 1697 3084 1428 2787 
Q 1159 2491 1159 1978 
L 1159 0 
L 581 0 
L 581 3500 
L 1159 3500 
L 1159 2956 
Q 1366 3272 1645 3428 
Q 1925 3584 2291 3584 
Q 2894 3584 3203 3211 
Q 3513 2838 3513 2113 
z
" transform="scale(0.015625)"/>
       <path id="DejaVuSans-6b" d="M 581 4863 
L 1159 4863 
L 1159 1991 
L 2875 3500 
L 3609 3500 
L 1753 1863 
L 3688 0 
L 2938 0 
L 1159 1709 
L 1159 0 
L 581 0 
L 581 4863 
z
" transform="scale(0.015625)"/>
      </defs>
      <use xlink:href="#DejaVuSans-4e"/>
      <use xlink:href="#DejaVuSans-75" x="74.804688"/>
      <use xlink:href="#DejaVuSans-6d" x="138.183594"/>
      <use xlink:href="#DejaVuSans-62" x="235.595703"/>
      <use xlink:href="#DejaVuSans-65" x="299.072266"/>
      <use xlink:href="#DejaVuSans-72" x="360.595703"/>
      <use xlink:href="#DejaVuSans-20" x="401.708984"/>
      <use xlink:href="#DejaVuSans-6f" x="433.496094"/>
      <use xlink:href="#DejaVuSans-66" x="494.677734"/>
      <use xlink:href="#DejaVuSans-20" x="529.882812"/>
      <use xlink:href="#DejaVuSans-63" x="561.669922"/>
      <use xlink:href="#DejaVuSans-72" x="616.650391"/>
      <use xlink:href="#DejaVuSans-6f" x="655.513672"/>
      <use xlink:href="#DejaVuSans-73" x="716.695312"/>
      <use xlink:href="#DejaVuSans-73" x="768.794922"/>
      <use xlink:href="#DejaVuSans-6c" x="820.894531"/>
      <use xlink:href="#DejaVuSans-69" x="848.677734"/>
      <use xlink:href="#DejaVuSans-6e" x="876.460938"/>
      <use xlink:href="#DejaVuSans-6b" x="939.839844"/>
      <use xlink:href="#DejaVuSans-73" x="997.75"/>
     </g>
    </g>
   </g>
   <g id="patch_3">
    <path d="M 57.6 307.584 
L 57.6 41.472 
" style="fill: none; stroke: #000000; stroke-width: 0.8; stroke-linejoin: miter; stroke-linecap: square"/>
   </g>
   <g id="patch_4">
    <path d="M 414.72 307.584 
L 414.72 41.472 
" style="fill: none; stroke: #000000; stroke-width: 0.8; stroke-linejoin: miter; stroke-linecap: square"/>
   </g>
   <g id="patch_5">
    <path d="M 57.6 307.584 
L 414.72 307.584 
" style="fill: none; stroke: #000000; stroke-width: 0.8; stroke-linejoin: miter; stroke-linecap: square"/>
   </g>
   <g id="patch_6">
    <path d="M 57.6 41.472 
L 414.72 41.472 
" style="fill: none; stroke: #000000; stroke-width: 0.8; stroke-linejoin: miter; stroke-linecap: square"/>
   </g>
   <g id="legend_1">
    <g id="patch_7">
     <path d="M 293.087188 93.506375 
L 407.72 93.506375 
Q 409.72 93.506375 409.72 91.506375 
L 409.72 48.472 
Q 409.72 46.472 407.72 46.472 
L 293.087188 46.472 
Q 291.087188 46.472 291.087188 48.472 
L 291.087188 91.506375 
Q 291.087188 93.506375 293.087188 93.506375 
z
" style="fill: #ffffff; opacity: 0.8; stroke: #cccccc; stroke-linejoin: miter"/>
    </g>
    <g id="patch_8">
     <path d="M 295.087188 58.070438 
L 315.087188 58.070438 
L 315.087188 51.070438 
L 295.087188 51.070438 
z
" style="fill: #008000"/>
    </g>
    <g id="text_17">
     <!-- true -->
     <g transform="translate(323.087188 58.070438)scale(0.1 -0.1)">
      <defs>
       <path id="DejaVuSans-74" d="M 1172 4494 
L 1172 3500 
L 2356 3500 
L 2356 3053 
L 1172 3053 
L 1172 1153 
Q 1172 725 1289 603 
Q 1406 481 1766 481 
L 2356 481 
L 2356 0 
L 1766 0 
Q 1100 0 847 248 
Q 594 497 594 1153 
L 594 3053 
L 172 3053 
L 172 3500 
L 594 3500 
L 594 4494 
L 1172 4494 
z
" transform="scale(0.015625)"/>
      </defs>
      <use xlink:href="#DejaVuSans-74"/>
      <use xlink:href="#DejaVuSans-72" x="39.208984"/>
      <use xlink:href="#DejaVuSans-75" x="80.322266"/>
      <use xlink:href="#DejaVuSans-65" x="143.701172"/>
     </g>
    </g>
    <g id="patch_9">
     <path d="M 295.087188 72.748563 
L 315.087188 72.748563 
L 315.087188 65.748563 
L 295.087188 65.748563 
z
" style="fill: #7cfc00"/>
    </g>
    <g id="text_18">
     <!-- true homeotypic -->
     <g transform="translate(323.087188 72.748563)scale(0.1 -0.1)">
      <defs>
       <path id="DejaVuSans-68" d="M 3513 2113 
L 3513 0 
L 2938 0 
L 2938 2094 
Q 2938 2591 2744 2837 
Q 2550 3084 2163 3084 
Q 1697 3084 1428 2787 
Q 1159 2491 1159 1978 
L 1159 0 
L 581 0 
L 581 4863 
L 1159 4863 
L 1159 2956 
Q 1366 3272 1645 3428 
Q 1925 3584 2291 3584 
Q 2894 3584 3203 3211 
Q 3513 2838 3513 2113 
z
" transform="scale(0.015625)"/>
       <path id="DejaVuSans-79" d="M 2059 -325 
Q 1816 -950 1584 -1140 
Q 1353 -1331 966 -1331 
L 506 -1331 
L 506 -850 
L 844 -850 
Q 1081 -850 1212 -737 
Q 1344 -625 1503 -206 
L 1606 56 
L 191 3500 
L 800 3500 
L 1894 763 
L 2988 3500 
L 3597 3500 
L 2059 -325 
z
" transform="scale(0.015625)"/>
       <path id="DejaVuSans-70" d="M 1159 525 
L 1159 -1331 
L 581 -1331 
L 581 3500 
L 1159 3500 
L 1159 2969 
Q 1341 3281 1617 3432 
Q 1894 3584 2278 3584 
Q 2916 3584 3314 3078 
Q 3713 2572 3713 1747 
Q 3713 922 3314 415 
Q 2916 -91 2278 -91 
Q 1894 -91 1617 61 
Q 1341 213 1159 525 
z
M 3116 1747 
Q 3116 2381 2855 2742 
Q 2594 3103 2138 3103 
Q 1681 3103 1420 2742 
Q 1159 2381 1159 1747 
Q 1159 1113 1420 752 
Q 1681 391 2138 391 
Q 2594 391 2855 752 
Q 3116 1113 3116 1747 
z
" transform="scale(0.015625)"/>
      </defs>
      <use xlink:href="#DejaVuSans-74"/>
      <use xlink:href="#DejaVuSans-72" x="39.208984"/>
      <use xlink:href="#DejaVuSans-75" x="80.322266"/>
      <use xlink:href="#DejaVuSans-65" x="143.701172"/>
      <use xlink:href="#DejaVuSans-20" x="205.224609"/>
      <use xlink:href="#DejaVuSans-68" x="237.011719"/>
      <use xlink:href="#DejaVuSans-6f" x="300.390625"/>
      <use xlink:href="#DejaVuSans-6d" x="361.572266"/>
      <use xlink:href="#DejaVuSans-65" x="458.984375"/>
      <use xlink:href="#DejaVuSans-6f" x="520.507812"/>
      <use xlink:href="#DejaVuSans-74" x="581.689453"/>
      <use xlink:href="#DejaVuSans-79" x="620.898438"/>
      <use xlink:href="#DejaVuSans-70" x="680.078125"/>
      <use xlink:href="#DejaVuSans-69" x="743.554688"/>
      <use xlink:href="#DejaVuSans-63" x="771.337891"/>
     </g>
    </g>
    <g id="patch_10">
     <path d="M 295.087188 87.426688 
L 315.087188 87.426688 
L 315.087188 80.426688 
L 295.087188 80.426688 
z
" style="fill: #ff0000"/>
    </g>
    <g id="text_19">
     <!-- false -->
     <g transform="translate(323.087188 87.426688)scale(0.1 -0.1)">
      <defs>
       <path id="DejaVuSans-61" d="M 2194 1759 
Q 1497 1759 1228 1600 
Q 959 1441 959 1056 
Q 959 750 1161 570 
Q 1363 391 1709 391 
Q 2188 391 2477 730 
Q 2766 1069 2766 1631 
L 2766 1759 
L 2194 1759 
z
M 3341 1997 
L 3341 0 
L 2766 0 
L 2766 531 
Q 2569 213 2275 61 
Q 1981 -91 1556 -91 
Q 1019 -91 701 211 
Q 384 513 384 1019 
Q 384 1609 779 1909 
Q 1175 2209 1959 2209 
L 2766 2209 
L 2766 2266 
Q 2766 2663 2505 2880 
Q 2244 3097 1772 3097 
Q 1472 3097 1187 3025 
Q 903 2953 641 2809 
L 641 3341 
Q 956 3463 1253 3523 
Q 1550 3584 1831 3584 
Q 2591 3584 2966 3190 
Q 3341 2797 3341 1997 
z
" transform="scale(0.015625)"/>
      </defs>
      <use xlink:href="#DejaVuSans-66"/>
      <use xlink:href="#DejaVuSans-61" x="35.205078"/>
      <use xlink:href="#DejaVuSans-6c" x="96.484375"/>
      <use xlink:href="#DejaVuSans-73" x="124.267578"/>
      <use xlink:href="#DejaVuSans-65" x="176.367188"/>
     </g>
    </g>
   </g>
  </g>
 </g>
 <defs>
  <clipPath id="pa5c4123bf2">
   <rect x="57.6" y="41.472" width="357.12" height="266.112"/>
  </clipPath>
 </defs>
</svg>
