<?xml version="1.0" encoding="utf-8" standalone="no"?>
<!DOCTYPE svg PUBLIC "-//W3C//DTD SVG 1.1//EN"
  "http://www.w3.org/Graphics/SVG/1.1/DTD/svg11.dtd">
<svg xmlns:xlink="http://www.w3.org/1999/xlink" width="460.8pt" height="345.6pt" viewBox="0 0 460.8 345.6" xmlns="http://www.w3.org/2000/svg" version="1.1">
 <metadata>
  <rdf:RDF xmlns:dc="http://purl.org/dc/elements/1.1/" xmlns:cc="http://creativecommons.org/ns#" xmlns:rdf="http://www.w3.org/1999/02/22-rdf-syntax-ns#">
   <cc:Work>
    <dc:type rdf:resource="http://purl.org/dc/dcmitype/StillImage"/>
    <dc:date>2022-07-21T14:49:53.089361</dc:date>
    <dc:format>image/svg+xml</dc:format>
    <dc:creator>
     <cc:Agent>
      <dc:title>Matplotlib v3.5.1, https://matplotlib.org/</dc:title>
     </cc:Agent>
    </dc:creator>
   </cc:Work>
  </rdf:RDF>
 </metadata>
 <defs>
  <style type="text/css">*{stroke-linejoin: round; stroke-linecap: butt}</style>
 </defs>
 <g id="figure_1">
  <g id="patch_1">
   <path d="M 0 345.6 
L 460.8 345.6 
L 460.8 0 
L 0 0 
z
" style="fill: #ffffff"/>
  </g>
  <g id="axes_1">
   <g id="patch_2">
    <path d="M 57.6 307.584 
L 414.72 307.584 
L 414.72 41.472 
L 57.6 41.472 
z
" style="fill: #ffffff"/>
   </g>
   <g id="PolyCollection_1">
    <path d="M 73.832727 94.464 
L 73.832727 307.584 
L 74.063804 307.584 
L 74.08158 307.584 
L 74.300807 307.584 
L 74.588172 307.584 
L 74.700748 307.584 
L 75.242891 307.584 
L 75.248816 307.584 
L 75.346579 307.584 
L 75.494705 307.584 
L 75.607281 307.584 
L 75.873909 307.584 
L 76.102024 307.584 
L 76.371614 307.584 
L 76.389389 307.584 
L 76.667866 307.584 
L 76.946344 307.584 
L 77.894353 307.584 
L 77.912128 307.584 
L 78.069142 307.584 
L 78.095805 307.584 
L 78.178756 307.584 
L 78.273557 307.584 
L 78.510559 307.584 
L 78.569809 307.584 
L 78.726823 307.584 
L 78.836437 307.584 
L 79.126765 307.584 
L 79.351917 307.584 
L 79.423017 307.584 
L 79.562256 307.584 
L 79.651132 307.584 
L 80.557666 307.584 
L 80.622841 307.584 
L 80.667279 307.584 
L 81.185722 307.584 
L 81.5116 307.584 
L 81.784152 307.584 
L 81.796002 307.584 
L 81.855253 307.584 
L 81.887841 307.584 
L 81.976716 307.584 
L 82.044855 307.584 
L 82.118918 307.584 
L 82.163356 307.584 
L 82.172243 307.584 
L 82.483309 307.584 
L 82.687723 307.584 
L 82.844737 307.584 
L 83.043227 307.584 
L 83.049152 307.584 
L 83.10544 307.584 
L 83.416505 307.584 
L 83.472793 307.584 
L 83.555744 307.584 
L 83.582407 307.584 
L 83.623882 307.584 
L 83.650545 307.584 
L 83.98531 307.584 
L 84.163062 307.584 
L 84.186762 307.584 
L 84.426727 307.584 
L 84.551153 307.584 
L 84.565966 307.584 
L 84.690392 307.584 
L 85.460649 307.584 
L 85.5436 307.584 
L 85.5673 307.584 
L 85.857628 307.584 
L 85.907991 307.584 
L 86.856 307.584 
L 86.882663 307.584 
L 87.066339 307.584 
L 87.110777 307.584 
L 87.827709 307.584 
L 87.883997 307.584 
L 88.15655 307.584 
L 88.633517 307.584 
L 89.095671 307.584 
L 89.599301 307.584 
L 89.702989 307.584 
L 89.839266 307.584 
L 90.319195 307.584 
L 90.736911 307.584 
L 90.8643 307.584 
L 91.213878 307.584 
L 91.311642 307.584 
L 91.421255 307.584 
L 91.519019 307.584 
L 91.604932 307.584 
L 91.738246 307.584 
L 92.221138 307.584 
L 92.324826 307.584 
L 92.629967 307.584 
L 92.665517 307.584 
L 92.792906 307.584 
L 92.834381 307.584 
L 93.103971 307.584 
L 94.07568 307.584 
L 94.137894 307.584 
L 94.161594 307.584 
L 94.460809 307.584 
L 95.014802 307.584 
L 95.438443 307.584 
L 95.562869 307.584 
L 96.057612 307.584 
L 96.10205 307.584 
L 96.267951 307.584 
L 96.365715 307.584 
L 96.893044 307.584 
L 97.035246 307.584 
L 97.118197 307.584 
L 97.414449 307.584 
L 97.604051 307.584 
L 97.609976 307.584 
L 98.003992 307.584 
L 98.371346 307.584 
L 98.531322 307.584 
L 98.578723 307.584 
L 99.351943 307.584 
L 99.488219 307.584 
L 100.217001 307.584 
L 100.249589 307.584 
L 100.468816 307.584 
L 100.531029 307.584 
L 100.536954 307.584 
L 100.640642 307.584 
L 100.729518 307.584 
L 100.809506 307.584 
L 100.856907 307.584 
L 101.120572 307.584 
L 101.295361 307.584 
L 101.801953 307.584 
L 102.486297 307.584 
L 102.640349 307.584 
L 102.675899 307.584 
L 102.80625 307.584 
L 102.877351 307.584 
L 103.132128 307.584 
L 103.730559 307.584 
L 103.834247 307.584 
L 103.899423 307.584 
L 104.515629 307.584 
L 104.648943 307.584 
L 104.749668 307.584 
L 104.770406 307.584 
L 104.992596 307.584 
L 105.3955 307.584 
L 105.596951 307.584 
L 105.70064 307.584 
L 105.928755 307.584 
L 106.524223 307.584 
L 106.586436 307.584 
L 107.125616 307.584 
L 107.29448 307.584 
L 107.463344 307.584 
L 107.795147 307.584 
L 108.32544 307.584 
L 108.399503 307.584 
L 109.054222 307.584 
L 109.131247 307.584 
L 109.519338 307.584 
L 109.809666 307.584 
L 109.833366 307.584 
L 110.257008 307.584 
L 110.621399 307.584 
L 110.813963 307.584 
L 110.929502 307.584 
L 111.30278 307.584 
L 111.519045 307.584 
L 111.800485 307.584 
L 112.132288 307.584 
L 112.277452 307.584 
L 113.838704 307.584 
L 113.942393 307.584 
L 114.057931 307.584 
L 114.668212 307.584 
L 114.7719 307.584 
L 115.693247 307.584 
L 115.918399 307.584 
L 115.945061 307.584 
L 116.030975 307.584 
L 116.786419 307.584 
L 116.807157 307.584 
L 116.848632 307.584 
L 116.866408 307.584 
L 117.168585 307.584 
L 117.215986 307.584 
L 117.518164 307.584 
L 117.91218 307.584 
L 118.246946 307.584 
L 118.353597 307.584 
L 118.47506 307.584 
L 118.836489 307.584 
L 119.396406 307.584 
L 119.420107 307.584 
L 119.488245 307.584 
L 119.50602 307.584 
L 119.562308 307.584 
L 119.917811 307.584 
L 120.077788 307.584 
L 120.196289 307.584 
L 120.231839 307.584 
L 120.498467 307.584 
L 120.732507 307.584 
L 121.60349 307.584 
L 121.721991 307.584 
L 122.231546 307.584 
L 122.430035 307.584 
L 122.492248 307.584 
L 122.495211 307.584 
L 122.640374 307.584 
L 122.871452 307.584 
L 123.348419 307.584 
L 123.434332 307.584 
L 123.683184 307.584 
L 124.370491 307.584 
L 124.758582 307.584 
L 125.001509 307.584 
L 125.042985 307.584 
L 125.152598 307.584 
L 125.466626 307.584 
L 125.632528 307.584 
L 125.742141 307.584 
L 125.89323 307.584 
L 125.967293 307.584 
L 125.985069 307.584 
L 126.281321 307.584 
L 126.334647 307.584 
L 126.702 307.584 
L 126.764213 307.584 
L 126.897527 307.584 
L 127.152304 307.584 
L 127.318206 307.584 
L 128.54173 307.584 
L 129.063135 307.584 
L 129.3505 307.584 
L 130.180008 307.584 
L 132.058251 307.584 
L 132.324878 307.584 
L 132.535218 307.584 
L 132.872946 307.584 
L 133.133648 307.584 
L 133.305475 307.584 
L 133.391388 307.584 
L 133.607653 307.584 
L 133.951306 307.584 
L 134.662313 307.584 
L 134.768964 307.584 
L 135.011891 307.584 
L 135.477008 307.584 
L 135.536258 307.584 
L 135.595509 307.584 
L 135.847324 307.584 
L 136.137652 307.584 
L 136.318366 307.584 
L 136.602769 307.584 
L 136.836808 307.584 
L 137.041223 307.584 
L 137.109361 307.584 
L 137.624841 307.584 
L 138.027744 307.584 
L 138.540262 307.584 
L 139.538634 307.584 
L 139.855624 307.584 
L 140.071889 307.584 
L 140.590331 307.584 
L 140.993235 307.584 
L 141.259862 307.584 
L 142.421173 307.584 
L 143.161805 307.584 
L 143.170693 307.584 
L 143.232906 307.584 
L 143.256606 307.584 
L 143.461021 307.584 
L 144.16314 307.584 
L 144.598631 307.584 
L 144.616406 307.584 
L 145.605891 307.584 
L 146.305047 307.584 
L 146.328748 307.584 
L 146.796827 307.584 
L 146.933103 307.584 
L 147.626335 307.584 
L 148.248466 307.584 
L 148.328454 307.584 
L 148.358079 307.584 
L 149.312013 307.584 
L 149.593453 307.584 
L 149.640854 307.584 
L 149.916369 307.584 
L 150.828828 307.584 
L 153.385489 307.584 
L 153.767655 307.584 
L 153.856531 307.584 
L 154.179447 307.584 
L 154.496437 307.584 
L 154.502362 307.584 
L 154.623826 307.584 
L 155.530359 307.584 
L 156.122865 307.584 
L 156.682783 307.584 
L 156.981998 307.584 
L 157.127162 307.584 
L 157.310839 307.584 
L 157.870756 307.584 
L 157.974445 307.584 
L 159.452746 307.584 
L 160.362242 307.584 
L 160.385943 307.584 
L 160.566657 307.584 
L 160.637757 307.584 
L 161.399127 307.584 
L 161.493928 307.584 
L 161.716118 307.584 
L 162.219747 307.584 
L 162.358986 307.584 
L 163.283295 307.584 
L 163.952826 307.584 
L 164.018002 307.584 
L 164.112803 307.584 
L 164.835659 307.584 
L 164.957123 307.584 
L 166.097696 307.584 
L 167.413059 307.584 
L 167.943351 307.584 
L 168.532894 307.584 
L 168.544744 307.584 
L 168.86766 307.584 
L 169.89862 307.584 
L 170.144509 307.584 
L 170.369662 307.584 
L 170.44965 307.584 
L 170.748865 307.584 
L 172.736721 307.584 
L 172.84041 307.584 
L 173.243314 307.584 
L 173.720281 307.584 
L 173.915807 307.584 
L 174.037271 307.584 
L 174.511276 307.584 
L 175.47706 307.584 
L 175.625186 307.584 
L 176.069565 307.584 
L 179.123932 307.584 
L 180.04824 307.584 
L 180.483732 307.584 
L 181.31324 307.584 
L 181.437666 307.584 
L 182.714515 307.584 
L 183.203332 307.584 
L 186.379162 307.584 
L 187.347909 307.584 
L 188.28703 307.584 
L 188.704747 307.584 
L 189.249852 307.584 
L 189.54018 307.584 
L 190.3845 307.584 
L 193.826958 307.584 
L 194.182461 307.584 
L 195.151207 307.584 
L 196.069591 307.584 
L 196.146617 307.584 
L 199.512049 307.584 
L 200.151955 307.584 
L 206.799867 307.584 
L 209.839421 307.584 
L 211.273284 307.584 
L 211.942816 307.584 
L 212.544209 307.584 
L 213.536656 307.584 
L 217.091689 307.584 
L 221.19479 307.584 
L 223.206347 307.584 
L 230.660067 307.584 
L 234.973508 307.584 
L 235.894854 307.584 
L 238.161188 307.584 
L 238.795169 307.584 
L 243.547063 307.584 
L 244.266958 307.584 
L 245.167566 307.584 
L 245.872648 307.584 
L 246.080025 307.584 
L 251.409612 307.584 
L 272.064357 307.584 
L 281.254118 307.584 
L 282.021413 307.584 
L 283.55304 307.584 
L 287.887218 307.584 
L 310.680908 307.584 
L 330.313581 307.584 
L 333.107244 307.584 
L 398.487273 307.584 
L 398.487273 307.584 
L 398.487273 307.584 
L 333.107244 307.584 
L 330.313581 307.584 
L 310.680908 307.584 
L 287.887218 307.584 
L 283.55304 307.584 
L 282.021413 307.584 
L 281.254118 306.944 
L 272.064357 306.944 
L 251.409612 306.944 
L 246.080025 306.944 
L 245.872648 306.944 
L 245.167566 306.944 
L 244.266958 306.944 
L 243.547063 306.944 
L 238.795169 306.944 
L 238.161188 306.944 
L 235.894854 306.944 
L 234.973508 306.944 
L 230.660067 306.304 
L 223.206347 306.304 
L 221.19479 306.304 
L 217.091689 305.664 
L 213.536656 305.664 
L 212.544209 305.024 
L 211.942816 305.024 
L 211.273284 304.384 
L 209.839421 304.384 
L 206.799867 304.384 
L 200.151955 304.384 
L 199.512049 303.744 
L 196.146617 303.104 
L 196.069591 303.104 
L 195.151207 302.464 
L 194.182461 301.824 
L 193.826958 301.184 
L 190.3845 300.544 
L 189.54018 299.904 
L 189.249852 299.264 
L 188.704747 299.264 
L 188.28703 299.264 
L 187.347909 298.624 
L 186.379162 297.984 
L 183.203332 297.344 
L 182.714515 296.704 
L 181.437666 296.704 
L 181.31324 296.064 
L 180.483732 295.424 
L 180.04824 294.144 
L 179.123932 294.144 
L 176.069565 293.504 
L 175.625186 292.864 
L 175.47706 292.224 
L 174.511276 291.584 
L 174.037271 291.584 
L 173.915807 290.944 
L 173.720281 290.304 
L 173.243314 289.664 
L 172.84041 289.024 
L 172.736721 288.384 
L 170.748865 287.744 
L 170.44965 287.104 
L 170.369662 286.464 
L 170.144509 285.824 
L 169.89862 285.184 
L 168.86766 284.544 
L 168.544744 283.904 
L 168.532894 283.264 
L 167.943351 282.624 
L 167.413059 281.984 
L 166.097696 281.344 
L 164.957123 281.344 
L 164.835659 281.344 
L 164.112803 281.344 
L 164.018002 280.704 
L 163.952826 280.064 
L 163.283295 279.424 
L 162.358986 278.784 
L 162.219747 278.784 
L 161.716118 278.144 
L 161.493928 277.504 
L 161.399127 276.864 
L 160.637757 276.864 
L 160.566657 276.224 
L 160.385943 275.584 
L 160.362242 274.944 
L 159.452746 274.304 
L 157.974445 273.664 
L 157.870756 273.024 
L 157.310839 272.384 
L 157.127162 271.744 
L 156.981998 271.104 
L 156.682783 270.464 
L 156.122865 269.824 
L 155.530359 269.184 
L 154.623826 268.544 
L 154.502362 267.904 
L 154.496437 267.264 
L 154.179447 266.624 
L 153.856531 265.984 
L 153.767655 265.344 
L 153.385489 264.704 
L 150.828828 264.064 
L 149.916369 263.424 
L 149.640854 262.784 
L 149.593453 262.144 
L 149.312013 261.504 
L 148.358079 260.864 
L 148.328454 260.224 
L 148.248466 259.584 
L 147.626335 258.944 
L 146.933103 258.304 
L 146.796827 257.664 
L 146.328748 257.024 
L 146.305047 256.384 
L 145.605891 255.744 
L 144.616406 255.104 
L 144.598631 254.464 
L 144.16314 253.824 
L 143.461021 253.184 
L 143.256606 253.184 
L 143.232906 252.544 
L 143.170693 251.904 
L 143.161805 251.264 
L 142.421173 251.264 
L 141.259862 250.624 
L 140.993235 249.984 
L 140.590331 249.344 
L 140.071889 248.704 
L 139.855624 248.064 
L 139.538634 247.424 
L 138.540262 246.784 
L 138.027744 246.144 
L 137.624841 245.504 
L 137.109361 244.864 
L 137.041223 244.224 
L 136.836808 243.584 
L 136.602769 242.944 
L 136.318366 242.304 
L 136.137652 241.664 
L 135.847324 241.024 
L 135.595509 240.384 
L 135.536258 239.744 
L 135.477008 239.104 
L 135.011891 238.464 
L 134.768964 237.824 
L 134.662313 237.184 
L 133.951306 236.544 
L 133.607653 235.904 
L 133.391388 235.264 
L 133.305475 234.624 
L 133.133648 233.984 
L 132.872946 233.344 
L 132.535218 232.704 
L 132.324878 232.064 
L 132.058251 231.424 
L 130.180008 230.784 
L 129.3505 230.144 
L 129.063135 229.504 
L 128.54173 229.504 
L 127.318206 228.864 
L 127.152304 228.224 
L 126.897527 227.584 
L 126.764213 226.944 
L 126.702 226.304 
L 126.334647 225.664 
L 126.281321 225.024 
L 125.985069 224.384 
L 125.967293 223.744 
L 125.89323 223.104 
L 125.742141 222.464 
L 125.632528 221.824 
L 125.466626 221.184 
L 125.152598 220.544 
L 125.042985 219.904 
L 125.001509 219.264 
L 124.758582 218.624 
L 124.370491 218.624 
L 123.683184 217.984 
L 123.434332 217.344 
L 123.348419 216.704 
L 122.871452 216.064 
L 122.640374 215.424 
L 122.495211 214.784 
L 122.492248 214.144 
L 122.430035 213.504 
L 122.231546 212.864 
L 121.721991 212.224 
L 121.60349 211.584 
L 120.732507 210.944 
L 120.498467 210.944 
L 120.231839 210.304 
L 120.196289 209.664 
L 120.077788 209.024 
L 119.917811 208.384 
L 119.562308 207.744 
L 119.50602 207.104 
L 119.488245 206.464 
L 119.420107 205.824 
L 119.396406 205.184 
L 118.836489 204.544 
L 118.47506 203.904 
L 118.353597 203.264 
L 118.246946 202.624 
L 117.91218 201.984 
L 117.518164 201.344 
L 117.215986 200.704 
L 117.168585 200.704 
L 116.866408 200.064 
L 116.848632 199.424 
L 116.807157 198.784 
L 116.786419 198.144 
L 116.030975 197.504 
L 115.945061 196.864 
L 115.918399 196.224 
L 115.693247 195.584 
L 114.7719 194.944 
L 114.668212 194.304 
L 114.057931 193.664 
L 113.942393 193.024 
L 113.838704 192.384 
L 112.277452 191.744 
L 112.132288 191.104 
L 111.800485 190.464 
L 111.519045 189.824 
L 111.30278 189.824 
L 110.929502 189.184 
L 110.813963 188.544 
L 110.621399 187.904 
L 110.257008 187.264 
L 109.833366 186.624 
L 109.809666 185.984 
L 109.519338 185.984 
L 109.131247 185.344 
L 109.054222 184.704 
L 108.399503 184.064 
L 108.32544 183.424 
L 107.795147 182.784 
L 107.463344 182.144 
L 107.29448 181.504 
L 107.125616 180.864 
L 106.586436 180.224 
L 106.524223 179.584 
L 105.928755 178.304 
L 105.70064 177.664 
L 105.596951 177.024 
L 105.3955 176.384 
L 104.992596 175.744 
L 104.770406 175.104 
L 104.749668 174.464 
L 104.648943 173.824 
L 104.515629 173.184 
L 103.899423 172.544 
L 103.834247 171.904 
L 103.730559 171.264 
L 103.132128 170.624 
L 102.877351 169.984 
L 102.80625 169.344 
L 102.675899 168.704 
L 102.640349 168.064 
L 102.486297 167.424 
L 101.801953 166.784 
L 101.295361 166.144 
L 101.120572 165.504 
L 100.856907 164.864 
L 100.809506 164.224 
L 100.729518 163.584 
L 100.640642 162.944 
L 100.536954 162.304 
L 100.531029 161.664 
L 100.468816 161.024 
L 100.249589 160.384 
L 100.217001 159.744 
L 99.488219 159.744 
L 99.351943 159.104 
L 98.578723 158.464 
L 98.531322 157.824 
L 98.371346 157.184 
L 98.003992 156.544 
L 97.609976 155.904 
L 97.604051 155.264 
L 97.414449 154.624 
L 97.118197 153.984 
L 97.035246 153.344 
L 96.893044 152.704 
L 96.365715 152.704 
L 96.267951 152.064 
L 96.10205 151.424 
L 96.057612 150.784 
L 95.562869 150.784 
L 95.438443 150.144 
L 95.014802 149.504 
L 94.460809 148.864 
L 94.161594 148.224 
L 94.137894 147.584 
L 94.07568 146.944 
L 93.103971 146.304 
L 92.834381 145.664 
L 92.792906 145.024 
L 92.665517 144.384 
L 92.629967 143.744 
L 92.324826 143.104 
L 92.221138 142.464 
L 91.738246 141.824 
L 91.604932 141.184 
L 91.519019 140.544 
L 91.421255 139.904 
L 91.311642 139.264 
L 91.213878 138.624 
L 90.8643 137.984 
L 90.736911 137.344 
L 90.319195 136.704 
L 89.839266 136.064 
L 89.702989 135.424 
L 89.599301 134.784 
L 89.095671 134.144 
L 88.633517 133.504 
L 88.15655 132.864 
L 87.883997 132.224 
L 87.827709 131.584 
L 87.110777 130.944 
L 87.066339 130.304 
L 86.882663 129.664 
L 86.856 129.024 
L 85.907991 129.024 
L 85.857628 128.384 
L 85.5673 127.744 
L 85.5436 127.104 
L 85.460649 126.464 
L 84.690392 125.824 
L 84.565966 125.184 
L 84.551153 124.544 
L 84.426727 123.904 
L 84.186762 123.264 
L 84.163062 122.624 
L 83.98531 121.984 
L 83.650545 121.344 
L 83.623882 120.704 
L 83.582407 120.064 
L 83.555744 119.424 
L 83.472793 118.784 
L 83.416505 118.144 
L 83.10544 117.504 
L 83.049152 116.864 
L 83.043227 116.224 
L 82.844737 116.224 
L 82.687723 115.584 
L 82.483309 115.584 
L 82.172243 114.944 
L 82.163356 114.304 
L 82.118918 113.664 
L 82.044855 113.024 
L 81.976716 112.384 
L 81.887841 111.744 
L 81.855253 111.104 
L 81.796002 110.464 
L 81.784152 109.824 
L 81.5116 109.184 
L 81.185722 108.544 
L 80.667279 108.544 
L 80.622841 107.904 
L 80.557666 107.264 
L 79.651132 106.624 
L 79.562256 105.984 
L 79.423017 105.344 
L 79.351917 104.704 
L 79.126765 104.064 
L 78.836437 104.064 
L 78.726823 103.424 
L 78.569809 102.784 
L 78.510559 102.144 
L 78.273557 102.144 
L 78.178756 102.144 
L 78.095805 102.144 
L 78.069142 101.504 
L 77.912128 100.864 
L 77.894353 100.224 
L 76.946344 99.584 
L 76.667866 99.584 
L 76.389389 99.584 
L 76.371614 98.944 
L 76.102024 98.304 
L 75.873909 98.304 
L 75.607281 97.664 
L 75.494705 97.664 
L 75.346579 97.024 
L 75.248816 96.384 
L 75.242891 95.744 
L 74.700748 95.744 
L 74.588172 95.744 
L 74.300807 95.104 
L 74.08158 94.464 
L 74.063804 94.464 
L 73.832727 94.464 
z
" clip-path="url(#p0bc4cf2c70)" style="fill: #008000"/>
   </g>
   <g id="PolyCollection_2">
    <path d="M 73.832727 66.304 
L 73.832727 94.464 
L 74.063804 94.464 
L 74.08158 94.464 
L 74.300807 95.104 
L 74.588172 95.744 
L 74.700748 95.744 
L 75.242891 95.744 
L 75.248816 96.384 
L 75.346579 97.024 
L 75.494705 97.664 
L 75.607281 97.664 
L 75.873909 98.304 
L 76.102024 98.304 
L 76.371614 98.944 
L 76.389389 99.584 
L 76.667866 99.584 
L 76.946344 99.584 
L 77.894353 100.224 
L 77.912128 100.864 
L 78.069142 101.504 
L 78.095805 102.144 
L 78.178756 102.144 
L 78.273557 102.144 
L 78.510559 102.144 
L 78.569809 102.784 
L 78.726823 103.424 
L 78.836437 104.064 
L 79.126765 104.064 
L 79.351917 104.704 
L 79.423017 105.344 
L 79.562256 105.984 
L 79.651132 106.624 
L 80.557666 107.264 
L 80.622841 107.904 
L 80.667279 108.544 
L 81.185722 108.544 
L 81.5116 109.184 
L 81.784152 109.824 
L 81.796002 110.464 
L 81.855253 111.104 
L 81.887841 111.744 
L 81.976716 112.384 
L 82.044855 113.024 
L 82.118918 113.664 
L 82.163356 114.304 
L 82.172243 114.944 
L 82.483309 115.584 
L 82.687723 115.584 
L 82.844737 116.224 
L 83.043227 116.224 
L 83.049152 116.864 
L 83.10544 117.504 
L 83.416505 118.144 
L 83.472793 118.784 
L 83.555744 119.424 
L 83.582407 120.064 
L 83.623882 120.704 
L 83.650545 121.344 
L 83.98531 121.984 
L 84.163062 122.624 
L 84.186762 123.264 
L 84.426727 123.904 
L 84.551153 124.544 
L 84.565966 125.184 
L 84.690392 125.824 
L 85.460649 126.464 
L 85.5436 127.104 
L 85.5673 127.744 
L 85.857628 128.384 
L 85.907991 129.024 
L 86.856 129.024 
L 86.882663 129.664 
L 87.066339 130.304 
L 87.110777 130.944 
L 87.827709 131.584 
L 87.883997 132.224 
L 88.15655 132.864 
L 88.633517 133.504 
L 89.095671 134.144 
L 89.599301 134.784 
L 89.702989 135.424 
L 89.839266 136.064 
L 90.319195 136.704 
L 90.736911 137.344 
L 90.8643 137.984 
L 91.213878 138.624 
L 91.311642 139.264 
L 91.421255 139.904 
L 91.519019 140.544 
L 91.604932 141.184 
L 91.738246 141.824 
L 92.221138 142.464 
L 92.324826 143.104 
L 92.629967 143.744 
L 92.665517 144.384 
L 92.792906 145.024 
L 92.834381 145.664 
L 93.103971 146.304 
L 94.07568 146.944 
L 94.137894 147.584 
L 94.161594 148.224 
L 94.460809 148.864 
L 95.014802 149.504 
L 95.438443 150.144 
L 95.562869 150.784 
L 96.057612 150.784 
L 96.10205 151.424 
L 96.267951 152.064 
L 96.365715 152.704 
L 96.893044 152.704 
L 97.035246 153.344 
L 97.118197 153.984 
L 97.414449 154.624 
L 97.604051 155.264 
L 97.609976 155.904 
L 98.003992 156.544 
L 98.371346 157.184 
L 98.531322 157.824 
L 98.578723 158.464 
L 99.351943 159.104 
L 99.488219 159.744 
L 100.217001 159.744 
L 100.249589 160.384 
L 100.468816 161.024 
L 100.531029 161.664 
L 100.536954 162.304 
L 100.640642 162.944 
L 100.729518 163.584 
L 100.809506 164.224 
L 100.856907 164.864 
L 101.120572 165.504 
L 101.295361 166.144 
L 101.801953 166.784 
L 102.486297 167.424 
L 102.640349 168.064 
L 102.675899 168.704 
L 102.80625 169.344 
L 102.877351 169.984 
L 103.132128 170.624 
L 103.730559 171.264 
L 103.834247 171.904 
L 103.899423 172.544 
L 104.515629 173.184 
L 104.648943 173.824 
L 104.749668 174.464 
L 104.770406 175.104 
L 104.992596 175.744 
L 105.3955 176.384 
L 105.596951 177.024 
L 105.70064 177.664 
L 105.928755 178.304 
L 106.524223 179.584 
L 106.586436 180.224 
L 107.125616 180.864 
L 107.29448 181.504 
L 107.463344 182.144 
L 107.795147 182.784 
L 108.32544 183.424 
L 108.399503 184.064 
L 109.054222 184.704 
L 109.131247 185.344 
L 109.519338 185.984 
L 109.809666 185.984 
L 109.833366 186.624 
L 110.257008 187.264 
L 110.621399 187.904 
L 110.813963 188.544 
L 110.929502 189.184 
L 111.30278 189.824 
L 111.519045 189.824 
L 111.800485 190.464 
L 112.132288 191.104 
L 112.277452 191.744 
L 113.838704 192.384 
L 113.942393 193.024 
L 114.057931 193.664 
L 114.668212 194.304 
L 114.7719 194.944 
L 115.693247 195.584 
L 115.918399 196.224 
L 115.945061 196.864 
L 116.030975 197.504 
L 116.786419 198.144 
L 116.807157 198.784 
L 116.848632 199.424 
L 116.866408 200.064 
L 117.168585 200.704 
L 117.215986 200.704 
L 117.518164 201.344 
L 117.91218 201.984 
L 118.246946 202.624 
L 118.353597 203.264 
L 118.47506 203.904 
L 118.836489 204.544 
L 119.396406 205.184 
L 119.420107 205.824 
L 119.488245 206.464 
L 119.50602 207.104 
L 119.562308 207.744 
L 119.917811 208.384 
L 120.077788 209.024 
L 120.196289 209.664 
L 120.231839 210.304 
L 120.498467 210.944 
L 120.732507 210.944 
L 121.60349 211.584 
L 121.721991 212.224 
L 122.231546 212.864 
L 122.430035 213.504 
L 122.492248 214.144 
L 122.495211 214.784 
L 122.640374 215.424 
L 122.871452 216.064 
L 123.348419 216.704 
L 123.434332 217.344 
L 123.683184 217.984 
L 124.370491 218.624 
L 124.758582 218.624 
L 125.001509 219.264 
L 125.042985 219.904 
L 125.152598 220.544 
L 125.466626 221.184 
L 125.632528 221.824 
L 125.742141 222.464 
L 125.89323 223.104 
L 125.967293 223.744 
L 125.985069 224.384 
L 126.281321 225.024 
L 126.334647 225.664 
L 126.702 226.304 
L 126.764213 226.944 
L 126.897527 227.584 
L 127.152304 228.224 
L 127.318206 228.864 
L 128.54173 229.504 
L 129.063135 229.504 
L 129.3505 230.144 
L 130.180008 230.784 
L 132.058251 231.424 
L 132.324878 232.064 
L 132.535218 232.704 
L 132.872946 233.344 
L 133.133648 233.984 
L 133.305475 234.624 
L 133.391388 235.264 
L 133.607653 235.904 
L 133.951306 236.544 
L 134.662313 237.184 
L 134.768964 237.824 
L 135.011891 238.464 
L 135.477008 239.104 
L 135.536258 239.744 
L 135.595509 240.384 
L 135.847324 241.024 
L 136.137652 241.664 
L 136.318366 242.304 
L 136.602769 242.944 
L 136.836808 243.584 
L 137.041223 244.224 
L 137.109361 244.864 
L 137.624841 245.504 
L 138.027744 246.144 
L 138.540262 246.784 
L 139.538634 247.424 
L 139.855624 248.064 
L 140.071889 248.704 
L 140.590331 249.344 
L 140.993235 249.984 
L 141.259862 250.624 
L 142.421173 251.264 
L 143.161805 251.264 
L 143.170693 251.904 
L 143.232906 252.544 
L 143.256606 253.184 
L 143.461021 253.184 
L 144.16314 253.824 
L 144.598631 254.464 
L 144.616406 255.104 
L 145.605891 255.744 
L 146.305047 256.384 
L 146.328748 257.024 
L 146.796827 257.664 
L 146.933103 258.304 
L 147.626335 258.944 
L 148.248466 259.584 
L 148.328454 260.224 
L 148.358079 260.864 
L 149.312013 261.504 
L 149.593453 262.144 
L 149.640854 262.784 
L 149.916369 263.424 
L 150.828828 264.064 
L 153.385489 264.704 
L 153.767655 265.344 
L 153.856531 265.984 
L 154.179447 266.624 
L 154.496437 267.264 
L 154.502362 267.904 
L 154.623826 268.544 
L 155.530359 269.184 
L 156.122865 269.824 
L 156.682783 270.464 
L 156.981998 271.104 
L 157.127162 271.744 
L 157.310839 272.384 
L 157.870756 273.024 
L 157.974445 273.664 
L 159.452746 274.304 
L 160.362242 274.944 
L 160.385943 275.584 
L 160.566657 276.224 
L 160.637757 276.864 
L 161.399127 276.864 
L 161.493928 277.504 
L 161.716118 278.144 
L 162.219747 278.784 
L 162.358986 278.784 
L 163.283295 279.424 
L 163.952826 280.064 
L 164.018002 280.704 
L 164.112803 281.344 
L 164.835659 281.344 
L 164.957123 281.344 
L 166.097696 281.344 
L 167.413059 281.984 
L 167.943351 282.624 
L 168.532894 283.264 
L 168.544744 283.904 
L 168.86766 284.544 
L 169.89862 285.184 
L 170.144509 285.824 
L 170.369662 286.464 
L 170.44965 287.104 
L 170.748865 287.744 
L 172.736721 288.384 
L 172.84041 289.024 
L 173.243314 289.664 
L 173.720281 290.304 
L 173.915807 290.944 
L 174.037271 291.584 
L 174.511276 291.584 
L 175.47706 292.224 
L 175.625186 292.864 
L 176.069565 293.504 
L 179.123932 294.144 
L 180.04824 294.144 
L 180.483732 295.424 
L 181.31324 296.064 
L 181.437666 296.704 
L 182.714515 296.704 
L 183.203332 297.344 
L 186.379162 297.984 
L 187.347909 298.624 
L 188.28703 299.264 
L 188.704747 299.264 
L 189.249852 299.264 
L 189.54018 299.904 
L 190.3845 300.544 
L 193.826958 301.184 
L 194.182461 301.824 
L 195.151207 302.464 
L 196.069591 303.104 
L 196.146617 303.104 
L 199.512049 303.744 
L 200.151955 304.384 
L 206.799867 304.384 
L 209.839421 304.384 
L 211.273284 304.384 
L 211.942816 305.024 
L 212.544209 305.024 
L 213.536656 305.664 
L 217.091689 305.664 
L 221.19479 306.304 
L 223.206347 306.304 
L 230.660067 306.304 
L 234.973508 306.944 
L 235.894854 306.944 
L 238.161188 306.944 
L 238.795169 306.944 
L 243.547063 306.944 
L 244.266958 306.944 
L 245.167566 306.944 
L 245.872648 306.944 
L 246.080025 306.944 
L 251.409612 306.944 
L 272.064357 306.944 
L 281.254118 306.944 
L 282.021413 307.584 
L 283.55304 307.584 
L 287.887218 307.584 
L 310.680908 307.584 
L 330.313581 307.584 
L 333.107244 307.584 
L 398.487273 307.584 
L 398.487273 306.944 
L 398.487273 306.944 
L 333.107244 306.304 
L 330.313581 305.664 
L 310.680908 305.024 
L 287.887218 304.384 
L 283.55304 303.744 
L 282.021413 303.104 
L 281.254118 302.464 
L 272.064357 301.824 
L 251.409612 301.184 
L 246.080025 300.544 
L 245.872648 299.904 
L 245.167566 299.264 
L 244.266958 298.624 
L 243.547063 297.984 
L 238.795169 297.344 
L 238.161188 296.704 
L 235.894854 296.064 
L 234.973508 295.424 
L 230.660067 294.784 
L 223.206347 294.144 
L 221.19479 293.504 
L 217.091689 292.864 
L 213.536656 292.224 
L 212.544209 291.584 
L 211.942816 290.944 
L 211.273284 290.304 
L 209.839421 289.664 
L 206.799867 289.024 
L 200.151955 288.384 
L 199.512049 287.744 
L 196.146617 287.104 
L 196.069591 286.464 
L 195.151207 285.824 
L 194.182461 285.184 
L 193.826958 284.544 
L 190.3845 283.904 
L 189.54018 283.264 
L 189.249852 282.624 
L 188.704747 281.984 
L 188.28703 281.344 
L 187.347909 280.704 
L 186.379162 280.064 
L 183.203332 279.424 
L 182.714515 278.784 
L 181.437666 278.144 
L 181.31324 277.504 
L 180.483732 276.864 
L 180.04824 275.584 
L 179.123932 274.944 
L 176.069565 274.304 
L 175.625186 273.664 
L 175.47706 273.024 
L 174.511276 272.384 
L 174.037271 271.744 
L 173.915807 271.104 
L 173.720281 270.464 
L 173.243314 269.824 
L 172.84041 269.184 
L 172.736721 268.544 
L 170.748865 267.904 
L 170.44965 267.264 
L 170.369662 266.624 
L 170.144509 265.984 
L 169.89862 265.344 
L 168.86766 264.704 
L 168.544744 264.064 
L 168.532894 263.424 
L 167.943351 262.784 
L 167.413059 262.144 
L 166.097696 261.504 
L 164.957123 260.864 
L 164.835659 260.224 
L 164.112803 259.584 
L 164.018002 258.944 
L 163.952826 258.304 
L 163.283295 257.664 
L 162.358986 257.024 
L 162.219747 256.384 
L 161.716118 255.744 
L 161.493928 255.104 
L 161.399127 254.464 
L 160.637757 253.824 
L 160.566657 253.184 
L 160.385943 252.544 
L 160.362242 251.904 
L 159.452746 251.264 
L 157.974445 250.624 
L 157.870756 249.984 
L 157.310839 249.344 
L 157.127162 248.704 
L 156.981998 248.064 
L 156.682783 247.424 
L 156.122865 246.784 
L 155.530359 246.144 
L 154.623826 245.504 
L 154.502362 244.864 
L 154.496437 244.224 
L 154.179447 243.584 
L 153.856531 242.944 
L 153.767655 242.304 
L 153.385489 241.664 
L 150.828828 241.024 
L 149.916369 240.384 
L 149.640854 239.744 
L 149.593453 239.104 
L 149.312013 238.464 
L 148.358079 237.824 
L 148.328454 237.184 
L 148.248466 236.544 
L 147.626335 235.904 
L 146.933103 235.264 
L 146.796827 234.624 
L 146.328748 233.984 
L 146.305047 233.344 
L 145.605891 232.704 
L 144.616406 232.064 
L 144.598631 231.424 
L 144.16314 230.784 
L 143.461021 230.144 
L 143.256606 229.504 
L 143.232906 228.864 
L 143.170693 228.224 
L 143.161805 227.584 
L 142.421173 226.944 
L 141.259862 226.304 
L 140.993235 225.664 
L 140.590331 225.024 
L 140.071889 224.384 
L 139.855624 223.744 
L 139.538634 223.104 
L 138.540262 222.464 
L 138.027744 221.824 
L 137.624841 221.184 
L 137.109361 220.544 
L 137.041223 219.904 
L 136.836808 219.264 
L 136.602769 218.624 
L 136.318366 217.984 
L 136.137652 217.344 
L 135.847324 216.704 
L 135.595509 216.064 
L 135.536258 215.424 
L 135.477008 214.784 
L 135.011891 214.144 
L 134.768964 213.504 
L 134.662313 212.864 
L 133.951306 212.224 
L 133.607653 211.584 
L 133.391388 210.944 
L 133.305475 210.304 
L 133.133648 209.664 
L 132.872946 209.024 
L 132.535218 208.384 
L 132.324878 207.744 
L 132.058251 207.104 
L 130.180008 206.464 
L 129.3505 205.824 
L 129.063135 205.184 
L 128.54173 204.544 
L 127.318206 203.904 
L 127.152304 203.264 
L 126.897527 202.624 
L 126.764213 201.984 
L 126.702 201.344 
L 126.334647 200.704 
L 126.281321 200.064 
L 125.985069 199.424 
L 125.967293 198.784 
L 125.89323 198.144 
L 125.742141 197.504 
L 125.632528 196.864 
L 125.466626 196.224 
L 125.152598 195.584 
L 125.042985 194.944 
L 125.001509 194.304 
L 124.758582 193.664 
L 124.370491 193.024 
L 123.683184 192.384 
L 123.434332 191.744 
L 123.348419 191.104 
L 122.871452 190.464 
L 122.640374 189.824 
L 122.495211 189.184 
L 122.492248 188.544 
L 122.430035 187.904 
L 122.231546 187.264 
L 121.721991 186.624 
L 121.60349 185.984 
L 120.732507 185.344 
L 120.498467 184.704 
L 120.231839 184.064 
L 120.196289 183.424 
L 120.077788 182.784 
L 119.917811 182.144 
L 119.562308 181.504 
L 119.50602 180.864 
L 119.488245 180.224 
L 119.420107 179.584 
L 119.396406 178.944 
L 118.836489 178.304 
L 118.47506 177.664 
L 118.353597 177.024 
L 118.246946 176.384 
L 117.91218 175.744 
L 117.518164 175.104 
L 117.215986 174.464 
L 117.168585 173.824 
L 116.866408 173.184 
L 116.848632 172.544 
L 116.807157 171.904 
L 116.786419 171.264 
L 116.030975 170.624 
L 115.945061 169.984 
L 115.918399 169.344 
L 115.693247 168.704 
L 114.7719 168.064 
L 114.668212 167.424 
L 114.057931 166.784 
L 113.942393 166.144 
L 113.838704 165.504 
L 112.277452 164.864 
L 112.132288 164.224 
L 111.800485 163.584 
L 111.519045 162.944 
L 111.30278 162.944 
L 110.929502 162.304 
L 110.813963 161.664 
L 110.621399 161.024 
L 110.257008 160.384 
L 109.833366 159.744 
L 109.809666 159.104 
L 109.519338 159.104 
L 109.131247 158.464 
L 109.054222 157.824 
L 108.399503 157.184 
L 108.32544 156.544 
L 107.795147 155.904 
L 107.463344 155.264 
L 107.29448 154.624 
L 107.125616 153.984 
L 106.586436 153.344 
L 106.524223 152.704 
L 105.928755 151.424 
L 105.70064 150.784 
L 105.596951 150.144 
L 105.3955 149.504 
L 104.992596 148.864 
L 104.770406 148.224 
L 104.749668 147.584 
L 104.648943 146.944 
L 104.515629 146.304 
L 103.899423 145.664 
L 103.834247 145.024 
L 103.730559 144.384 
L 103.132128 143.744 
L 102.877351 143.104 
L 102.80625 142.464 
L 102.675899 141.824 
L 102.640349 141.184 
L 102.486297 140.544 
L 101.801953 139.904 
L 101.295361 139.264 
L 101.120572 138.624 
L 100.856907 137.984 
L 100.809506 137.344 
L 100.729518 136.704 
L 100.640642 136.064 
L 100.536954 135.424 
L 100.531029 134.784 
L 100.468816 134.144 
L 100.249589 133.504 
L 100.217001 132.864 
L 99.488219 132.224 
L 99.351943 131.584 
L 98.578723 130.944 
L 98.531322 130.304 
L 98.371346 129.664 
L 98.003992 129.024 
L 97.609976 128.384 
L 97.604051 127.744 
L 97.414449 127.104 
L 97.118197 126.464 
L 97.035246 125.824 
L 96.893044 125.184 
L 96.365715 124.544 
L 96.267951 123.904 
L 96.10205 123.264 
L 96.057612 122.624 
L 95.562869 122.624 
L 95.438443 121.984 
L 95.014802 121.344 
L 94.460809 120.704 
L 94.161594 120.064 
L 94.137894 119.424 
L 94.07568 118.784 
L 93.103971 118.144 
L 92.834381 117.504 
L 92.792906 116.864 
L 92.665517 116.224 
L 92.629967 115.584 
L 92.324826 114.944 
L 92.221138 114.304 
L 91.738246 113.664 
L 91.604932 113.024 
L 91.519019 112.384 
L 91.421255 111.744 
L 91.311642 111.104 
L 91.213878 110.464 
L 90.8643 109.824 
L 90.736911 109.184 
L 90.319195 108.544 
L 89.839266 107.904 
L 89.702989 107.264 
L 89.599301 106.624 
L 89.095671 105.984 
L 88.633517 105.344 
L 88.15655 104.704 
L 87.883997 104.064 
L 87.827709 103.424 
L 87.110777 102.784 
L 87.066339 102.144 
L 86.882663 101.504 
L 86.856 100.864 
L 85.907991 100.864 
L 85.857628 100.224 
L 85.5673 99.584 
L 85.5436 98.944 
L 85.460649 98.304 
L 84.690392 97.664 
L 84.565966 97.024 
L 84.551153 96.384 
L 84.426727 95.744 
L 84.186762 95.104 
L 84.163062 94.464 
L 83.98531 93.824 
L 83.650545 93.184 
L 83.623882 92.544 
L 83.582407 91.904 
L 83.555744 91.264 
L 83.472793 90.624 
L 83.416505 89.984 
L 83.10544 89.344 
L 83.049152 88.704 
L 83.043227 88.064 
L 82.844737 88.064 
L 82.687723 87.424 
L 82.483309 87.424 
L 82.172243 86.784 
L 82.163356 86.144 
L 82.118918 85.504 
L 82.044855 84.864 
L 81.976716 84.224 
L 81.887841 83.584 
L 81.855253 82.944 
L 81.796002 82.304 
L 81.784152 81.664 
L 81.5116 81.024 
L 81.185722 80.384 
L 80.667279 80.384 
L 80.622841 79.744 
L 80.557666 79.104 
L 79.651132 78.464 
L 79.562256 77.824 
L 79.423017 77.184 
L 79.351917 76.544 
L 79.126765 75.904 
L 78.836437 75.904 
L 78.726823 75.264 
L 78.569809 74.624 
L 78.510559 73.984 
L 78.273557 73.984 
L 78.178756 73.984 
L 78.095805 73.984 
L 78.069142 73.344 
L 77.912128 72.704 
L 77.894353 72.064 
L 76.946344 71.424 
L 76.667866 71.424 
L 76.389389 71.424 
L 76.371614 70.784 
L 76.102024 70.144 
L 75.873909 70.144 
L 75.607281 69.504 
L 75.494705 69.504 
L 75.346579 68.864 
L 75.248816 68.224 
L 75.242891 67.584 
L 74.700748 67.584 
L 74.588172 67.584 
L 74.300807 66.944 
L 74.08158 66.304 
L 74.063804 66.304 
L 73.832727 66.304 
z
" clip-path="url(#p0bc4cf2c70)" style="fill: #7cfc00"/>
   </g>
   <g id="PolyCollection_3">
    <path d="M 73.832727 54.144 
L 73.832727 66.304 
L 74.063804 66.304 
L 74.08158 66.304 
L 74.300807 66.944 
L 74.588172 67.584 
L 74.700748 67.584 
L 75.242891 67.584 
L 75.248816 68.224 
L 75.346579 68.864 
L 75.494705 69.504 
L 75.607281 69.504 
L 75.873909 70.144 
L 76.102024 70.144 
L 76.371614 70.784 
L 76.389389 71.424 
L 76.667866 71.424 
L 76.946344 71.424 
L 77.894353 72.064 
L 77.912128 72.704 
L 78.069142 73.344 
L 78.095805 73.984 
L 78.178756 73.984 
L 78.273557 73.984 
L 78.510559 73.984 
L 78.569809 74.624 
L 78.726823 75.264 
L 78.836437 75.904 
L 79.126765 75.904 
L 79.351917 76.544 
L 79.423017 77.184 
L 79.562256 77.824 
L 79.651132 78.464 
L 80.557666 79.104 
L 80.622841 79.744 
L 80.667279 80.384 
L 81.185722 80.384 
L 81.5116 81.024 
L 81.784152 81.664 
L 81.796002 82.304 
L 81.855253 82.944 
L 81.887841 83.584 
L 81.976716 84.224 
L 82.044855 84.864 
L 82.118918 85.504 
L 82.163356 86.144 
L 82.172243 86.784 
L 82.483309 87.424 
L 82.687723 87.424 
L 82.844737 88.064 
L 83.043227 88.064 
L 83.049152 88.704 
L 83.10544 89.344 
L 83.416505 89.984 
L 83.472793 90.624 
L 83.555744 91.264 
L 83.582407 91.904 
L 83.623882 92.544 
L 83.650545 93.184 
L 83.98531 93.824 
L 84.163062 94.464 
L 84.186762 95.104 
L 84.426727 95.744 
L 84.551153 96.384 
L 84.565966 97.024 
L 84.690392 97.664 
L 85.460649 98.304 
L 85.5436 98.944 
L 85.5673 99.584 
L 85.857628 100.224 
L 85.907991 100.864 
L 86.856 100.864 
L 86.882663 101.504 
L 87.066339 102.144 
L 87.110777 102.784 
L 87.827709 103.424 
L 87.883997 104.064 
L 88.15655 104.704 
L 88.633517 105.344 
L 89.095671 105.984 
L 89.599301 106.624 
L 89.702989 107.264 
L 89.839266 107.904 
L 90.319195 108.544 
L 90.736911 109.184 
L 90.8643 109.824 
L 91.213878 110.464 
L 91.311642 111.104 
L 91.421255 111.744 
L 91.519019 112.384 
L 91.604932 113.024 
L 91.738246 113.664 
L 92.221138 114.304 
L 92.324826 114.944 
L 92.629967 115.584 
L 92.665517 116.224 
L 92.792906 116.864 
L 92.834381 117.504 
L 93.103971 118.144 
L 94.07568 118.784 
L 94.137894 119.424 
L 94.161594 120.064 
L 94.460809 120.704 
L 95.014802 121.344 
L 95.438443 121.984 
L 95.562869 122.624 
L 96.057612 122.624 
L 96.10205 123.264 
L 96.267951 123.904 
L 96.365715 124.544 
L 96.893044 125.184 
L 97.035246 125.824 
L 97.118197 126.464 
L 97.414449 127.104 
L 97.604051 127.744 
L 97.609976 128.384 
L 98.003992 129.024 
L 98.371346 129.664 
L 98.531322 130.304 
L 98.578723 130.944 
L 99.351943 131.584 
L 99.488219 132.224 
L 100.217001 132.864 
L 100.249589 133.504 
L 100.468816 134.144 
L 100.531029 134.784 
L 100.536954 135.424 
L 100.640642 136.064 
L 100.729518 136.704 
L 100.809506 137.344 
L 100.856907 137.984 
L 101.120572 138.624 
L 101.295361 139.264 
L 101.801953 139.904 
L 102.486297 140.544 
L 102.640349 141.184 
L 102.675899 141.824 
L 102.80625 142.464 
L 102.877351 143.104 
L 103.132128 143.744 
L 103.730559 144.384 
L 103.834247 145.024 
L 103.899423 145.664 
L 104.515629 146.304 
L 104.648943 146.944 
L 104.749668 147.584 
L 104.770406 148.224 
L 104.992596 148.864 
L 105.3955 149.504 
L 105.596951 150.144 
L 105.70064 150.784 
L 105.928755 151.424 
L 106.524223 152.704 
L 106.586436 153.344 
L 107.125616 153.984 
L 107.29448 154.624 
L 107.463344 155.264 
L 107.795147 155.904 
L 108.32544 156.544 
L 108.399503 157.184 
L 109.054222 157.824 
L 109.131247 158.464 
L 109.519338 159.104 
L 109.809666 159.104 
L 109.833366 159.744 
L 110.257008 160.384 
L 110.621399 161.024 
L 110.813963 161.664 
L 110.929502 162.304 
L 111.30278 162.944 
L 111.519045 162.944 
L 111.800485 163.584 
L 112.132288 164.224 
L 112.277452 164.864 
L 113.838704 165.504 
L 113.942393 166.144 
L 114.057931 166.784 
L 114.668212 167.424 
L 114.7719 168.064 
L 115.693247 168.704 
L 115.918399 169.344 
L 115.945061 169.984 
L 116.030975 170.624 
L 116.786419 171.264 
L 116.807157 171.904 
L 116.848632 172.544 
L 116.866408 173.184 
L 117.168585 173.824 
L 117.215986 174.464 
L 117.518164 175.104 
L 117.91218 175.744 
L 118.246946 176.384 
L 118.353597 177.024 
L 118.47506 177.664 
L 118.836489 178.304 
L 119.396406 178.944 
L 119.420107 179.584 
L 119.488245 180.224 
L 119.50602 180.864 
L 119.562308 181.504 
L 119.917811 182.144 
L 120.077788 182.784 
L 120.196289 183.424 
L 120.231839 184.064 
L 120.498467 184.704 
L 120.732507 185.344 
L 121.60349 185.984 
L 121.721991 186.624 
L 122.231546 187.264 
L 122.430035 187.904 
L 122.492248 188.544 
L 122.495211 189.184 
L 122.640374 189.824 
L 122.871452 190.464 
L 123.348419 191.104 
L 123.434332 191.744 
L 123.683184 192.384 
L 124.370491 193.024 
L 124.758582 193.664 
L 125.001509 194.304 
L 125.042985 194.944 
L 125.152598 195.584 
L 125.466626 196.224 
L 125.632528 196.864 
L 125.742141 197.504 
L 125.89323 198.144 
L 125.967293 198.784 
L 125.985069 199.424 
L 126.281321 200.064 
L 126.334647 200.704 
L 126.702 201.344 
L 126.764213 201.984 
L 126.897527 202.624 
L 127.152304 203.264 
L 127.318206 203.904 
L 128.54173 204.544 
L 129.063135 205.184 
L 129.3505 205.824 
L 130.180008 206.464 
L 132.058251 207.104 
L 132.324878 207.744 
L 132.535218 208.384 
L 132.872946 209.024 
L 133.133648 209.664 
L 133.305475 210.304 
L 133.391388 210.944 
L 133.607653 211.584 
L 133.951306 212.224 
L 134.662313 212.864 
L 134.768964 213.504 
L 135.011891 214.144 
L 135.477008 214.784 
L 135.536258 215.424 
L 135.595509 216.064 
L 135.847324 216.704 
L 136.137652 217.344 
L 136.318366 217.984 
L 136.602769 218.624 
L 136.836808 219.264 
L 137.041223 219.904 
L 137.109361 220.544 
L 137.624841 221.184 
L 138.027744 221.824 
L 138.540262 222.464 
L 139.538634 223.104 
L 139.855624 223.744 
L 140.071889 224.384 
L 140.590331 225.024 
L 140.993235 225.664 
L 141.259862 226.304 
L 142.421173 226.944 
L 143.161805 227.584 
L 143.170693 228.224 
L 143.232906 228.864 
L 143.256606 229.504 
L 143.461021 230.144 
L 144.16314 230.784 
L 144.598631 231.424 
L 144.616406 232.064 
L 145.605891 232.704 
L 146.305047 233.344 
L 146.328748 233.984 
L 146.796827 234.624 
L 146.933103 235.264 
L 147.626335 235.904 
L 148.248466 236.544 
L 148.328454 237.184 
L 148.358079 237.824 
L 149.312013 238.464 
L 149.593453 239.104 
L 149.640854 239.744 
L 149.916369 240.384 
L 150.828828 241.024 
L 153.385489 241.664 
L 153.767655 242.304 
L 153.856531 242.944 
L 154.179447 243.584 
L 154.496437 244.224 
L 154.502362 244.864 
L 154.623826 245.504 
L 155.530359 246.144 
L 156.122865 246.784 
L 156.682783 247.424 
L 156.981998 248.064 
L 157.127162 248.704 
L 157.310839 249.344 
L 157.870756 249.984 
L 157.974445 250.624 
L 159.452746 251.264 
L 160.362242 251.904 
L 160.385943 252.544 
L 160.566657 253.184 
L 160.637757 253.824 
L 161.399127 254.464 
L 161.493928 255.104 
L 161.716118 255.744 
L 162.219747 256.384 
L 162.358986 257.024 
L 163.283295 257.664 
L 163.952826 258.304 
L 164.018002 258.944 
L 164.112803 259.584 
L 164.835659 260.224 
L 164.957123 260.864 
L 166.097696 261.504 
L 167.413059 262.144 
L 167.943351 262.784 
L 168.532894 263.424 
L 168.544744 264.064 
L 168.86766 264.704 
L 169.89862 265.344 
L 170.144509 265.984 
L 170.369662 266.624 
L 170.44965 267.264 
L 170.748865 267.904 
L 172.736721 268.544 
L 172.84041 269.184 
L 173.243314 269.824 
L 173.720281 270.464 
L 173.915807 271.104 
L 174.037271 271.744 
L 174.511276 272.384 
L 175.47706 273.024 
L 175.625186 273.664 
L 176.069565 274.304 
L 179.123932 274.944 
L 180.04824 275.584 
L 180.483732 276.864 
L 181.31324 277.504 
L 181.437666 278.144 
L 182.714515 278.784 
L 183.203332 279.424 
L 186.379162 280.064 
L 187.347909 280.704 
L 188.28703 281.344 
L 188.704747 281.984 
L 189.249852 282.624 
L 189.54018 283.264 
L 190.3845 283.904 
L 193.826958 284.544 
L 194.182461 285.184 
L 195.151207 285.824 
L 196.069591 286.464 
L 196.146617 287.104 
L 199.512049 287.744 
L 200.151955 288.384 
L 206.799867 289.024 
L 209.839421 289.664 
L 211.273284 290.304 
L 211.942816 290.944 
L 212.544209 291.584 
L 213.536656 292.224 
L 217.091689 292.864 
L 221.19479 293.504 
L 223.206347 294.144 
L 230.660067 294.784 
L 234.973508 295.424 
L 235.894854 296.064 
L 238.161188 296.704 
L 238.795169 297.344 
L 243.547063 297.984 
L 244.266958 298.624 
L 245.167566 299.264 
L 245.872648 299.904 
L 246.080025 300.544 
L 251.409612 301.184 
L 272.064357 301.824 
L 281.254118 302.464 
L 282.021413 303.104 
L 283.55304 303.744 
L 287.887218 304.384 
L 310.680908 305.024 
L 330.313581 305.664 
L 333.107244 306.304 
L 398.487273 306.944 
L 398.487273 306.944 
L 398.487273 306.944 
L 333.107244 306.304 
L 330.313581 305.664 
L 310.680908 305.024 
L 287.887218 304.384 
L 283.55304 303.744 
L 282.021413 303.104 
L 281.254118 302.464 
L 272.064357 301.824 
L 251.409612 301.184 
L 246.080025 300.544 
L 245.872648 299.904 
L 245.167566 299.264 
L 244.266958 298.624 
L 243.547063 297.984 
L 238.795169 297.344 
L 238.161188 296.704 
L 235.894854 296.064 
L 234.973508 295.424 
L 230.660067 294.784 
L 223.206347 294.144 
L 221.19479 293.504 
L 217.091689 292.864 
L 213.536656 292.224 
L 212.544209 291.584 
L 211.942816 290.944 
L 211.273284 290.304 
L 209.839421 289.664 
L 206.799867 289.024 
L 200.151955 288.384 
L 199.512049 287.744 
L 196.146617 287.104 
L 196.069591 286.464 
L 195.151207 285.824 
L 194.182461 285.184 
L 193.826958 284.544 
L 190.3845 283.904 
L 189.54018 283.264 
L 189.249852 282.624 
L 188.704747 281.984 
L 188.28703 281.344 
L 187.347909 280.704 
L 186.379162 280.064 
L 183.203332 279.424 
L 182.714515 278.784 
L 181.437666 278.144 
L 181.31324 277.504 
L 180.483732 276.864 
L 180.04824 275.584 
L 179.123932 274.944 
L 176.069565 274.304 
L 175.625186 273.664 
L 175.47706 273.024 
L 174.511276 272.384 
L 174.037271 271.744 
L 173.915807 271.104 
L 173.720281 270.464 
L 173.243314 269.824 
L 172.84041 269.184 
L 172.736721 268.544 
L 170.748865 267.904 
L 170.44965 267.264 
L 170.369662 266.624 
L 170.144509 265.984 
L 169.89862 265.344 
L 168.86766 264.704 
L 168.544744 264.064 
L 168.532894 263.424 
L 167.943351 262.784 
L 167.413059 262.144 
L 166.097696 261.504 
L 164.957123 260.864 
L 164.835659 260.224 
L 164.112803 259.584 
L 164.018002 258.944 
L 163.952826 258.304 
L 163.283295 257.664 
L 162.358986 257.024 
L 162.219747 256.384 
L 161.716118 255.744 
L 161.493928 255.104 
L 161.399127 254.464 
L 160.637757 253.824 
L 160.566657 253.184 
L 160.385943 252.544 
L 160.362242 251.904 
L 159.452746 251.264 
L 157.974445 250.624 
L 157.870756 249.984 
L 157.310839 249.344 
L 157.127162 248.704 
L 156.981998 248.064 
L 156.682783 247.424 
L 156.122865 246.784 
L 155.530359 246.144 
L 154.623826 245.504 
L 154.502362 244.864 
L 154.496437 244.224 
L 154.179447 243.584 
L 153.856531 242.944 
L 153.767655 242.304 
L 153.385489 241.664 
L 150.828828 241.024 
L 149.916369 240.384 
L 149.640854 239.744 
L 149.593453 239.104 
L 149.312013 238.464 
L 148.358079 237.824 
L 148.328454 237.184 
L 148.248466 236.544 
L 147.626335 235.904 
L 146.933103 235.264 
L 146.796827 234.624 
L 146.328748 233.984 
L 146.305047 233.344 
L 145.605891 232.704 
L 144.616406 232.064 
L 144.598631 231.424 
L 144.16314 230.784 
L 143.461021 230.144 
L 143.256606 229.504 
L 143.232906 228.864 
L 143.170693 228.224 
L 143.161805 227.584 
L 142.421173 226.944 
L 141.259862 226.304 
L 140.993235 225.664 
L 140.590331 225.024 
L 140.071889 224.384 
L 139.855624 223.744 
L 139.538634 223.104 
L 138.540262 222.464 
L 138.027744 221.824 
L 137.624841 221.184 
L 137.109361 220.544 
L 137.041223 219.904 
L 136.836808 219.264 
L 136.602769 218.624 
L 136.318366 217.984 
L 136.137652 217.344 
L 135.847324 216.704 
L 135.595509 216.064 
L 135.536258 215.424 
L 135.477008 214.784 
L 135.011891 214.144 
L 134.768964 213.504 
L 134.662313 212.864 
L 133.951306 212.224 
L 133.607653 211.584 
L 133.391388 210.944 
L 133.305475 210.304 
L 133.133648 209.664 
L 132.872946 209.024 
L 132.535218 208.384 
L 132.324878 207.744 
L 132.058251 207.104 
L 130.180008 206.464 
L 129.3505 205.824 
L 129.063135 205.184 
L 128.54173 204.544 
L 127.318206 203.904 
L 127.152304 203.264 
L 126.897527 202.624 
L 126.764213 201.984 
L 126.702 201.344 
L 126.334647 200.704 
L 126.281321 200.064 
L 125.985069 199.424 
L 125.967293 198.784 
L 125.89323 198.144 
L 125.742141 197.504 
L 125.632528 196.864 
L 125.466626 196.224 
L 125.152598 195.584 
L 125.042985 194.944 
L 125.001509 194.304 
L 124.758582 193.664 
L 124.370491 193.024 
L 123.683184 192.384 
L 123.434332 191.744 
L 123.348419 191.104 
L 122.871452 190.464 
L 122.640374 189.824 
L 122.495211 189.184 
L 122.492248 188.544 
L 122.430035 187.904 
L 122.231546 187.264 
L 121.721991 186.624 
L 121.60349 185.984 
L 120.732507 185.344 
L 120.498467 184.704 
L 120.231839 184.064 
L 120.196289 183.424 
L 120.077788 182.784 
L 119.917811 182.144 
L 119.562308 181.504 
L 119.50602 180.864 
L 119.488245 180.224 
L 119.420107 179.584 
L 119.396406 178.944 
L 118.836489 178.304 
L 118.47506 177.664 
L 118.353597 177.024 
L 118.246946 176.384 
L 117.91218 175.744 
L 117.518164 175.104 
L 117.215986 174.464 
L 117.168585 173.824 
L 116.866408 173.184 
L 116.848632 172.544 
L 116.807157 171.904 
L 116.786419 171.264 
L 116.030975 170.624 
L 115.945061 169.984 
L 115.918399 169.344 
L 115.693247 168.704 
L 114.7719 168.064 
L 114.668212 167.424 
L 114.057931 166.784 
L 113.942393 166.144 
L 113.838704 165.504 
L 112.277452 164.864 
L 112.132288 164.224 
L 111.800485 163.584 
L 111.519045 162.944 
L 111.30278 162.304 
L 110.929502 161.664 
L 110.813963 161.024 
L 110.621399 160.384 
L 110.257008 159.744 
L 109.833366 159.104 
L 109.809666 158.464 
L 109.519338 157.824 
L 109.131247 157.184 
L 109.054222 156.544 
L 108.399503 155.904 
L 108.32544 155.264 
L 107.795147 154.624 
L 107.463344 153.984 
L 107.29448 153.344 
L 107.125616 152.704 
L 106.586436 152.064 
L 106.524223 151.424 
L 105.928755 150.144 
L 105.70064 149.504 
L 105.596951 148.864 
L 105.3955 148.224 
L 104.992596 147.584 
L 104.770406 146.944 
L 104.749668 146.304 
L 104.648943 145.664 
L 104.515629 145.024 
L 103.899423 144.384 
L 103.834247 143.744 
L 103.730559 143.104 
L 103.132128 142.464 
L 102.877351 141.824 
L 102.80625 141.184 
L 102.675899 140.544 
L 102.640349 139.904 
L 102.486297 139.264 
L 101.801953 138.624 
L 101.295361 137.984 
L 101.120572 137.344 
L 100.856907 136.704 
L 100.809506 136.064 
L 100.729518 135.424 
L 100.640642 134.784 
L 100.536954 134.144 
L 100.531029 133.504 
L 100.468816 132.864 
L 100.249589 132.224 
L 100.217001 131.584 
L 99.488219 130.944 
L 99.351943 130.304 
L 98.578723 129.664 
L 98.531322 129.024 
L 98.371346 128.384 
L 98.003992 127.744 
L 97.609976 127.104 
L 97.604051 126.464 
L 97.414449 125.824 
L 97.118197 125.184 
L 97.035246 124.544 
L 96.893044 123.904 
L 96.365715 123.264 
L 96.267951 122.624 
L 96.10205 121.984 
L 96.057612 121.344 
L 95.562869 120.704 
L 95.438443 120.064 
L 95.014802 119.424 
L 94.460809 118.784 
L 94.161594 118.144 
L 94.137894 117.504 
L 94.07568 116.864 
L 93.103971 116.224 
L 92.834381 115.584 
L 92.792906 114.944 
L 92.665517 114.304 
L 92.629967 113.664 
L 92.324826 113.024 
L 92.221138 112.384 
L 91.738246 111.744 
L 91.604932 111.104 
L 91.519019 110.464 
L 91.421255 109.824 
L 91.311642 109.184 
L 91.213878 108.544 
L 90.8643 107.904 
L 90.736911 107.264 
L 90.319195 106.624 
L 89.839266 105.984 
L 89.702989 105.344 
L 89.599301 104.704 
L 89.095671 104.064 
L 88.633517 103.424 
L 88.15655 102.784 
L 87.883997 102.144 
L 87.827709 101.504 
L 87.110777 100.864 
L 87.066339 100.224 
L 86.882663 99.584 
L 86.856 98.944 
L 85.907991 98.304 
L 85.857628 97.664 
L 85.5673 97.024 
L 85.5436 96.384 
L 85.460649 95.744 
L 84.690392 95.104 
L 84.565966 94.464 
L 84.551153 93.824 
L 84.426727 93.184 
L 84.186762 92.544 
L 84.163062 91.904 
L 83.98531 91.264 
L 83.650545 90.624 
L 83.623882 89.984 
L 83.582407 89.344 
L 83.555744 88.704 
L 83.472793 88.064 
L 83.416505 87.424 
L 83.10544 86.784 
L 83.049152 86.144 
L 83.043227 85.504 
L 82.844737 84.864 
L 82.687723 84.224 
L 82.483309 83.584 
L 82.172243 82.944 
L 82.163356 82.304 
L 82.118918 81.664 
L 82.044855 81.024 
L 81.976716 80.384 
L 81.887841 79.744 
L 81.855253 79.104 
L 81.796002 78.464 
L 81.784152 77.824 
L 81.5116 77.184 
L 81.185722 76.544 
L 80.667279 75.904 
L 80.622841 75.264 
L 80.557666 74.624 
L 79.651132 73.984 
L 79.562256 73.344 
L 79.423017 72.704 
L 79.351917 72.064 
L 79.126765 71.424 
L 78.836437 70.784 
L 78.726823 70.144 
L 78.569809 69.504 
L 78.510559 68.864 
L 78.273557 68.224 
L 78.178756 67.584 
L 78.095805 66.944 
L 78.069142 66.304 
L 77.912128 65.664 
L 77.894353 65.024 
L 76.946344 64.384 
L 76.667866 63.744 
L 76.389389 63.104 
L 76.371614 62.464 
L 76.102024 61.824 
L 75.873909 61.184 
L 75.607281 60.544 
L 75.494705 59.904 
L 75.346579 59.264 
L 75.248816 58.624 
L 75.242891 57.984 
L 74.700748 57.344 
L 74.588172 56.704 
L 74.300807 56.064 
L 74.08158 55.424 
L 74.063804 54.784 
L 73.832727 54.144 
z
" clip-path="url(#p0bc4cf2c70)" style="fill: #ff0000"/>
   </g>
   <g id="matplotlib.axis_1">
    <g id="xtick_1">
     <g id="line2d_1">
      <defs>
       <path id="ma96a9740ae" d="M 0 0 
L 0 3.5 
" style="stroke: #000000; stroke-width: 0.8"/>
      </defs>
      <g>
       <use xlink:href="#ma96a9740ae" x="57.90914" y="307.584" style="stroke: #000000; stroke-width: 0.8"/>
      </g>
     </g>
     <g id="text_1">
      <!-- 0 -->
      <g transform="translate(54.72789 322.182437)scale(0.1 -0.1)">
       <defs>
        <path id="DejaVuSans-30" d="M 2034 4250 
Q 1547 4250 1301 3770 
Q 1056 3291 1056 2328 
Q 1056 1369 1301 889 
Q 1547 409 2034 409 
Q 2525 409 2770 889 
Q 3016 1369 3016 2328 
Q 3016 3291 2770 3770 
Q 2525 4250 2034 4250 
z
M 2034 4750 
Q 2819 4750 3233 4129 
Q 3647 3509 3647 2328 
Q 3647 1150 3233 529 
Q 2819 -91 2034 -91 
Q 1250 -91 836 529 
Q 422 1150 422 2328 
Q 422 3509 836 4129 
Q 1250 4750 2034 4750 
z
" transform="scale(0.015625)"/>
       </defs>
       <use xlink:href="#DejaVuSans-30"/>
      </g>
     </g>
    </g>
    <g id="xtick_2">
     <g id="line2d_2">
      <g>
       <use xlink:href="#ma96a9740ae" x="117.159698" y="307.584" style="stroke: #000000; stroke-width: 0.8"/>
      </g>
     </g>
     <g id="text_2">
      <!-- 200 -->
      <g transform="translate(107.615948 322.182437)scale(0.1 -0.1)">
       <defs>
        <path id="DejaVuSans-32" d="M 1228 531 
L 3431 531 
L 3431 0 
L 469 0 
L 469 531 
Q 828 903 1448 1529 
Q 2069 2156 2228 2338 
Q 2531 2678 2651 2914 
Q 2772 3150 2772 3378 
Q 2772 3750 2511 3984 
Q 2250 4219 1831 4219 
Q 1534 4219 1204 4116 
Q 875 4013 500 3803 
L 500 4441 
Q 881 4594 1212 4672 
Q 1544 4750 1819 4750 
Q 2544 4750 2975 4387 
Q 3406 4025 3406 3419 
Q 3406 3131 3298 2873 
Q 3191 2616 2906 2266 
Q 2828 2175 2409 1742 
Q 1991 1309 1228 531 
z
" transform="scale(0.015625)"/>
       </defs>
       <use xlink:href="#DejaVuSans-32"/>
       <use xlink:href="#DejaVuSans-30" x="63.623047"/>
       <use xlink:href="#DejaVuSans-30" x="127.246094"/>
      </g>
     </g>
    </g>
    <g id="xtick_3">
     <g id="line2d_3">
      <g>
       <use xlink:href="#ma96a9740ae" x="176.410256" y="307.584" style="stroke: #000000; stroke-width: 0.8"/>
      </g>
     </g>
     <g id="text_3">
      <!-- 400 -->
      <g transform="translate(166.866506 322.182437)scale(0.1 -0.1)">
       <defs>
        <path id="DejaVuSans-34" d="M 2419 4116 
L 825 1625 
L 2419 1625 
L 2419 4116 
z
M 2253 4666 
L 3047 4666 
L 3047 1625 
L 3713 1625 
L 3713 1100 
L 3047 1100 
L 3047 0 
L 2419 0 
L 2419 1100 
L 313 1100 
L 313 1709 
L 2253 4666 
z
" transform="scale(0.015625)"/>
       </defs>
       <use xlink:href="#DejaVuSans-34"/>
       <use xlink:href="#DejaVuSans-30" x="63.623047"/>
       <use xlink:href="#DejaVuSans-30" x="127.246094"/>
      </g>
     </g>
    </g>
    <g id="xtick_4">
     <g id="line2d_4">
      <g>
       <use xlink:href="#ma96a9740ae" x="235.660814" y="307.584" style="stroke: #000000; stroke-width: 0.8"/>
      </g>
     </g>
     <g id="text_4">
      <!-- 600 -->
      <g transform="translate(226.117064 322.182437)scale(0.1 -0.1)">
       <defs>
        <path id="DejaVuSans-36" d="M 2113 2584 
Q 1688 2584 1439 2293 
Q 1191 2003 1191 1497 
Q 1191 994 1439 701 
Q 1688 409 2113 409 
Q 2538 409 2786 701 
Q 3034 994 3034 1497 
Q 3034 2003 2786 2293 
Q 2538 2584 2113 2584 
z
M 3366 4563 
L 3366 3988 
Q 3128 4100 2886 4159 
Q 2644 4219 2406 4219 
Q 1781 4219 1451 3797 
Q 1122 3375 1075 2522 
Q 1259 2794 1537 2939 
Q 1816 3084 2150 3084 
Q 2853 3084 3261 2657 
Q 3669 2231 3669 1497 
Q 3669 778 3244 343 
Q 2819 -91 2113 -91 
Q 1303 -91 875 529 
Q 447 1150 447 2328 
Q 447 3434 972 4092 
Q 1497 4750 2381 4750 
Q 2619 4750 2861 4703 
Q 3103 4656 3366 4563 
z
" transform="scale(0.015625)"/>
       </defs>
       <use xlink:href="#DejaVuSans-36"/>
       <use xlink:href="#DejaVuSans-30" x="63.623047"/>
       <use xlink:href="#DejaVuSans-30" x="127.246094"/>
      </g>
     </g>
    </g>
    <g id="xtick_5">
     <g id="line2d_5">
      <g>
       <use xlink:href="#ma96a9740ae" x="294.911372" y="307.584" style="stroke: #000000; stroke-width: 0.8"/>
      </g>
     </g>
     <g id="text_5">
      <!-- 800 -->
      <g transform="translate(285.367622 322.182437)scale(0.1 -0.1)">
       <defs>
        <path id="DejaVuSans-38" d="M 2034 2216 
Q 1584 2216 1326 1975 
Q 1069 1734 1069 1313 
Q 1069 891 1326 650 
Q 1584 409 2034 409 
Q 2484 409 2743 651 
Q 3003 894 3003 1313 
Q 3003 1734 2745 1975 
Q 2488 2216 2034 2216 
z
M 1403 2484 
Q 997 2584 770 2862 
Q 544 3141 544 3541 
Q 544 4100 942 4425 
Q 1341 4750 2034 4750 
Q 2731 4750 3128 4425 
Q 3525 4100 3525 3541 
Q 3525 3141 3298 2862 
Q 3072 2584 2669 2484 
Q 3125 2378 3379 2068 
Q 3634 1759 3634 1313 
Q 3634 634 3220 271 
Q 2806 -91 2034 -91 
Q 1263 -91 848 271 
Q 434 634 434 1313 
Q 434 1759 690 2068 
Q 947 2378 1403 2484 
z
M 1172 3481 
Q 1172 3119 1398 2916 
Q 1625 2713 2034 2713 
Q 2441 2713 2670 2916 
Q 2900 3119 2900 3481 
Q 2900 3844 2670 4047 
Q 2441 4250 2034 4250 
Q 1625 4250 1398 4047 
Q 1172 3844 1172 3481 
z
" transform="scale(0.015625)"/>
       </defs>
       <use xlink:href="#DejaVuSans-38"/>
       <use xlink:href="#DejaVuSans-30" x="63.623047"/>
       <use xlink:href="#DejaVuSans-30" x="127.246094"/>
      </g>
     </g>
    </g>
    <g id="xtick_6">
     <g id="line2d_6">
      <g>
       <use xlink:href="#ma96a9740ae" x="354.16193" y="307.584" style="stroke: #000000; stroke-width: 0.8"/>
      </g>
     </g>
     <g id="text_6">
      <!-- 1000 -->
      <g transform="translate(341.43693 322.182437)scale(0.1 -0.1)">
       <defs>
        <path id="DejaVuSans-31" d="M 794 531 
L 1825 531 
L 1825 4091 
L 703 3866 
L 703 4441 
L 1819 4666 
L 2450 4666 
L 2450 531 
L 3481 531 
L 3481 0 
L 794 0 
L 794 531 
z
" transform="scale(0.015625)"/>
       </defs>
       <use xlink:href="#DejaVuSans-31"/>
       <use xlink:href="#DejaVuSans-30" x="63.623047"/>
       <use xlink:href="#DejaVuSans-30" x="127.246094"/>
       <use xlink:href="#DejaVuSans-30" x="190.869141"/>
      </g>
     </g>
    </g>
    <g id="xtick_7">
     <g id="line2d_7">
      <g>
       <use xlink:href="#ma96a9740ae" x="413.412488" y="307.584" style="stroke: #000000; stroke-width: 0.8"/>
      </g>
     </g>
     <g id="text_7">
      <!-- 1200 -->
      <g transform="translate(400.687488 322.182437)scale(0.1 -0.1)">
       <use xlink:href="#DejaVuSans-31"/>
       <use xlink:href="#DejaVuSans-32" x="63.623047"/>
       <use xlink:href="#DejaVuSans-30" x="127.246094"/>
       <use xlink:href="#DejaVuSans-30" x="190.869141"/>
      </g>
     </g>
    </g>
    <g id="text_8">
     <!-- Score -->
     <g transform="translate(222.157656 335.860562)scale(0.1 -0.1)">
      <defs>
       <path id="DejaVuSans-53" d="M 3425 4513 
L 3425 3897 
Q 3066 4069 2747 4153 
Q 2428 4238 2131 4238 
Q 1616 4238 1336 4038 
Q 1056 3838 1056 3469 
Q 1056 3159 1242 3001 
Q 1428 2844 1947 2747 
L 2328 2669 
Q 3034 2534 3370 2195 
Q 3706 1856 3706 1288 
Q 3706 609 3251 259 
Q 2797 -91 1919 -91 
Q 1588 -91 1214 -16 
Q 841 59 441 206 
L 441 856 
Q 825 641 1194 531 
Q 1563 422 1919 422 
Q 2459 422 2753 634 
Q 3047 847 3047 1241 
Q 3047 1584 2836 1778 
Q 2625 1972 2144 2069 
L 1759 2144 
Q 1053 2284 737 2584 
Q 422 2884 422 3419 
Q 422 4038 858 4394 
Q 1294 4750 2059 4750 
Q 2388 4750 2728 4690 
Q 3069 4631 3425 4513 
z
" transform="scale(0.015625)"/>
       <path id="DejaVuSans-63" d="M 3122 3366 
L 3122 2828 
Q 2878 2963 2633 3030 
Q 2388 3097 2138 3097 
Q 1578 3097 1268 2742 
Q 959 2388 959 1747 
Q 959 1106 1268 751 
Q 1578 397 2138 397 
Q 2388 397 2633 464 
Q 2878 531 3122 666 
L 3122 134 
Q 2881 22 2623 -34 
Q 2366 -91 2075 -91 
Q 1284 -91 818 406 
Q 353 903 353 1747 
Q 353 2603 823 3093 
Q 1294 3584 2113 3584 
Q 2378 3584 2631 3529 
Q 2884 3475 3122 3366 
z
" transform="scale(0.015625)"/>
       <path id="DejaVuSans-6f" d="M 1959 3097 
Q 1497 3097 1228 2736 
Q 959 2375 959 1747 
Q 959 1119 1226 758 
Q 1494 397 1959 397 
Q 2419 397 2687 759 
Q 2956 1122 2956 1747 
Q 2956 2369 2687 2733 
Q 2419 3097 1959 3097 
z
M 1959 3584 
Q 2709 3584 3137 3096 
Q 3566 2609 3566 1747 
Q 3566 888 3137 398 
Q 2709 -91 1959 -91 
Q 1206 -91 779 398 
Q 353 888 353 1747 
Q 353 2609 779 3096 
Q 1206 3584 1959 3584 
z
" transform="scale(0.015625)"/>
       <path id="DejaVuSans-72" d="M 2631 2963 
Q 2534 3019 2420 3045 
Q 2306 3072 2169 3072 
Q 1681 3072 1420 2755 
Q 1159 2438 1159 1844 
L 1159 0 
L 581 0 
L 581 3500 
L 1159 3500 
L 1159 2956 
Q 1341 3275 1631 3429 
Q 1922 3584 2338 3584 
Q 2397 3584 2469 3576 
Q 2541 3569 2628 3553 
L 2631 2963 
z
" transform="scale(0.015625)"/>
       <path id="DejaVuSans-65" d="M 3597 1894 
L 3597 1613 
L 953 1613 
Q 991 1019 1311 708 
Q 1631 397 2203 397 
Q 2534 397 2845 478 
Q 3156 559 3463 722 
L 3463 178 
Q 3153 47 2828 -22 
Q 2503 -91 2169 -91 
Q 1331 -91 842 396 
Q 353 884 353 1716 
Q 353 2575 817 3079 
Q 1281 3584 2069 3584 
Q 2775 3584 3186 3129 
Q 3597 2675 3597 1894 
z
M 3022 2063 
Q 3016 2534 2758 2815 
Q 2500 3097 2075 3097 
Q 1594 3097 1305 2825 
Q 1016 2553 972 2059 
L 3022 2063 
z
" transform="scale(0.015625)"/>
      </defs>
      <use xlink:href="#DejaVuSans-53"/>
      <use xlink:href="#DejaVuSans-63" x="63.476562"/>
      <use xlink:href="#DejaVuSans-6f" x="118.457031"/>
      <use xlink:href="#DejaVuSans-72" x="179.638672"/>
      <use xlink:href="#DejaVuSans-65" x="218.501953"/>
     </g>
    </g>
   </g>
   <g id="matplotlib.axis_2">
    <g id="ytick_1">
     <g id="line2d_8">
      <defs>
       <path id="ma5cb5c9565" d="M 0 0 
L -3.5 0 
" style="stroke: #000000; stroke-width: 0.8"/>
      </defs>
      <g>
       <use xlink:href="#ma5cb5c9565" x="57.6" y="307.584" style="stroke: #000000; stroke-width: 0.8"/>
      </g>
     </g>
     <g id="text_9">
      <!-- 0 -->
      <g transform="translate(44.2375 311.383219)scale(0.1 -0.1)">
       <use xlink:href="#DejaVuSans-30"/>
      </g>
     </g>
    </g>
    <g id="ytick_2">
     <g id="line2d_9">
      <g>
       <use xlink:href="#ma5cb5c9565" x="57.6" y="275.584" style="stroke: #000000; stroke-width: 0.8"/>
      </g>
     </g>
     <g id="text_10">
      <!-- 50 -->
      <g transform="translate(37.875 279.383219)scale(0.1 -0.1)">
       <defs>
        <path id="DejaVuSans-35" d="M 691 4666 
L 3169 4666 
L 3169 4134 
L 1269 4134 
L 1269 2991 
Q 1406 3038 1543 3061 
Q 1681 3084 1819 3084 
Q 2600 3084 3056 2656 
Q 3513 2228 3513 1497 
Q 3513 744 3044 326 
Q 2575 -91 1722 -91 
Q 1428 -91 1123 -41 
Q 819 9 494 109 
L 494 744 
Q 775 591 1075 516 
Q 1375 441 1709 441 
Q 2250 441 2565 725 
Q 2881 1009 2881 1497 
Q 2881 1984 2565 2268 
Q 2250 2553 1709 2553 
Q 1456 2553 1204 2497 
Q 953 2441 691 2322 
L 691 4666 
z
" transform="scale(0.015625)"/>
       </defs>
       <use xlink:href="#DejaVuSans-35"/>
       <use xlink:href="#DejaVuSans-30" x="63.623047"/>
      </g>
     </g>
    </g>
    <g id="ytick_3">
     <g id="line2d_10">
      <g>
       <use xlink:href="#ma5cb5c9565" x="57.6" y="243.584" style="stroke: #000000; stroke-width: 0.8"/>
      </g>
     </g>
     <g id="text_11">
      <!-- 100 -->
      <g transform="translate(31.5125 247.383219)scale(0.1 -0.1)">
       <use xlink:href="#DejaVuSans-31"/>
       <use xlink:href="#DejaVuSans-30" x="63.623047"/>
       <use xlink:href="#DejaVuSans-30" x="127.246094"/>
      </g>
     </g>
    </g>
    <g id="ytick_4">
     <g id="line2d_11">
      <g>
       <use xlink:href="#ma5cb5c9565" x="57.6" y="211.584" style="stroke: #000000; stroke-width: 0.8"/>
      </g>
     </g>
     <g id="text_12">
      <!-- 150 -->
      <g transform="translate(31.5125 215.383219)scale(0.1 -0.1)">
       <use xlink:href="#DejaVuSans-31"/>
       <use xlink:href="#DejaVuSans-35" x="63.623047"/>
       <use xlink:href="#DejaVuSans-30" x="127.246094"/>
      </g>
     </g>
    </g>
    <g id="ytick_5">
     <g id="line2d_12">
      <g>
       <use xlink:href="#ma5cb5c9565" x="57.6" y="179.584" style="stroke: #000000; stroke-width: 0.8"/>
      </g>
     </g>
     <g id="text_13">
      <!-- 200 -->
      <g transform="translate(31.5125 183.383219)scale(0.1 -0.1)">
       <use xlink:href="#DejaVuSans-32"/>
       <use xlink:href="#DejaVuSans-30" x="63.623047"/>
       <use xlink:href="#DejaVuSans-30" x="127.246094"/>
      </g>
     </g>
    </g>
    <g id="ytick_6">
     <g id="line2d_13">
      <g>
       <use xlink:href="#ma5cb5c9565" x="57.6" y="147.584" style="stroke: #000000; stroke-width: 0.8"/>
      </g>
     </g>
     <g id="text_14">
      <!-- 250 -->
      <g transform="translate(31.5125 151.383219)scale(0.1 -0.1)">
       <use xlink:href="#DejaVuSans-32"/>
       <use xlink:href="#DejaVuSans-35" x="63.623047"/>
       <use xlink:href="#DejaVuSans-30" x="127.246094"/>
      </g>
     </g>
    </g>
    <g id="ytick_7">
     <g id="line2d_14">
      <g>
       <use xlink:href="#ma5cb5c9565" x="57.6" y="115.584" style="stroke: #000000; stroke-width: 0.8"/>
      </g>
     </g>
     <g id="text_15">
      <!-- 300 -->
      <g transform="translate(31.5125 119.383219)scale(0.1 -0.1)">
       <defs>
        <path id="DejaVuSans-33" d="M 2597 2516 
Q 3050 2419 3304 2112 
Q 3559 1806 3559 1356 
Q 3559 666 3084 287 
Q 2609 -91 1734 -91 
Q 1441 -91 1130 -33 
Q 819 25 488 141 
L 488 750 
Q 750 597 1062 519 
Q 1375 441 1716 441 
Q 2309 441 2620 675 
Q 2931 909 2931 1356 
Q 2931 1769 2642 2001 
Q 2353 2234 1838 2234 
L 1294 2234 
L 1294 2753 
L 1863 2753 
Q 2328 2753 2575 2939 
Q 2822 3125 2822 3475 
Q 2822 3834 2567 4026 
Q 2313 4219 1838 4219 
Q 1578 4219 1281 4162 
Q 984 4106 628 3988 
L 628 4550 
Q 988 4650 1302 4700 
Q 1616 4750 1894 4750 
Q 2613 4750 3031 4423 
Q 3450 4097 3450 3541 
Q 3450 3153 3228 2886 
Q 3006 2619 2597 2516 
z
" transform="scale(0.015625)"/>
       </defs>
       <use xlink:href="#DejaVuSans-33"/>
       <use xlink:href="#DejaVuSans-30" x="63.623047"/>
       <use xlink:href="#DejaVuSans-30" x="127.246094"/>
      </g>
     </g>
    </g>
    <g id="ytick_8">
     <g id="line2d_15">
      <g>
       <use xlink:href="#ma5cb5c9565" x="57.6" y="83.584" style="stroke: #000000; stroke-width: 0.8"/>
      </g>
     </g>
     <g id="text_16">
      <!-- 350 -->
      <g transform="translate(31.5125 87.383219)scale(0.1 -0.1)">
       <use xlink:href="#DejaVuSans-33"/>
       <use xlink:href="#DejaVuSans-35" x="63.623047"/>
       <use xlink:href="#DejaVuSans-30" x="127.246094"/>
      </g>
     </g>
    </g>
    <g id="ytick_9">
     <g id="line2d_16">
      <g>
       <use xlink:href="#ma5cb5c9565" x="57.6" y="51.584" style="stroke: #000000; stroke-width: 0.8"/>
      </g>
     </g>
     <g id="text_17">
      <!-- 400 -->
      <g transform="translate(31.5125 55.383219)scale(0.1 -0.1)">
       <use xlink:href="#DejaVuSans-34"/>
       <use xlink:href="#DejaVuSans-30" x="63.623047"/>
       <use xlink:href="#DejaVuSans-30" x="127.246094"/>
      </g>
     </g>
    </g>
    <g id="text_18">
     <!-- Number of crosslinks -->
     <g transform="translate(25.432812 227.019406)rotate(-90)scale(0.1 -0.1)">
      <defs>
       <path id="DejaVuSans-4e" d="M 628 4666 
L 1478 4666 
L 3547 763 
L 3547 4666 
L 4159 4666 
L 4159 0 
L 3309 0 
L 1241 3903 
L 1241 0 
L 628 0 
L 628 4666 
z
" transform="scale(0.015625)"/>
       <path id="DejaVuSans-75" d="M 544 1381 
L 544 3500 
L 1119 3500 
L 1119 1403 
Q 1119 906 1312 657 
Q 1506 409 1894 409 
Q 2359 409 2629 706 
Q 2900 1003 2900 1516 
L 2900 3500 
L 3475 3500 
L 3475 0 
L 2900 0 
L 2900 538 
Q 2691 219 2414 64 
Q 2138 -91 1772 -91 
Q 1169 -91 856 284 
Q 544 659 544 1381 
z
M 1991 3584 
L 1991 3584 
z
" transform="scale(0.015625)"/>
       <path id="DejaVuSans-6d" d="M 3328 2828 
Q 3544 3216 3844 3400 
Q 4144 3584 4550 3584 
Q 5097 3584 5394 3201 
Q 5691 2819 5691 2113 
L 5691 0 
L 5113 0 
L 5113 2094 
Q 5113 2597 4934 2840 
Q 4756 3084 4391 3084 
Q 3944 3084 3684 2787 
Q 3425 2491 3425 1978 
L 3425 0 
L 2847 0 
L 2847 2094 
Q 2847 2600 2669 2842 
Q 2491 3084 2119 3084 
Q 1678 3084 1418 2786 
Q 1159 2488 1159 1978 
L 1159 0 
L 581 0 
L 581 3500 
L 1159 3500 
L 1159 2956 
Q 1356 3278 1631 3431 
Q 1906 3584 2284 3584 
Q 2666 3584 2933 3390 
Q 3200 3197 3328 2828 
z
" transform="scale(0.015625)"/>
       <path id="DejaVuSans-62" d="M 3116 1747 
Q 3116 2381 2855 2742 
Q 2594 3103 2138 3103 
Q 1681 3103 1420 2742 
Q 1159 2381 1159 1747 
Q 1159 1113 1420 752 
Q 1681 391 2138 391 
Q 2594 391 2855 752 
Q 3116 1113 3116 1747 
z
M 1159 2969 
Q 1341 3281 1617 3432 
Q 1894 3584 2278 3584 
Q 2916 3584 3314 3078 
Q 3713 2572 3713 1747 
Q 3713 922 3314 415 
Q 2916 -91 2278 -91 
Q 1894 -91 1617 61 
Q 1341 213 1159 525 
L 1159 0 
L 581 0 
L 581 4863 
L 1159 4863 
L 1159 2969 
z
" transform="scale(0.015625)"/>
       <path id="DejaVuSans-20" transform="scale(0.015625)"/>
       <path id="DejaVuSans-66" d="M 2375 4863 
L 2375 4384 
L 1825 4384 
Q 1516 4384 1395 4259 
Q 1275 4134 1275 3809 
L 1275 3500 
L 2222 3500 
L 2222 3053 
L 1275 3053 
L 1275 0 
L 697 0 
L 697 3053 
L 147 3053 
L 147 3500 
L 697 3500 
L 697 3744 
Q 697 4328 969 4595 
Q 1241 4863 1831 4863 
L 2375 4863 
z
" transform="scale(0.015625)"/>
       <path id="DejaVuSans-73" d="M 2834 3397 
L 2834 2853 
Q 2591 2978 2328 3040 
Q 2066 3103 1784 3103 
Q 1356 3103 1142 2972 
Q 928 2841 928 2578 
Q 928 2378 1081 2264 
Q 1234 2150 1697 2047 
L 1894 2003 
Q 2506 1872 2764 1633 
Q 3022 1394 3022 966 
Q 3022 478 2636 193 
Q 2250 -91 1575 -91 
Q 1294 -91 989 -36 
Q 684 19 347 128 
L 347 722 
Q 666 556 975 473 
Q 1284 391 1588 391 
Q 1994 391 2212 530 
Q 2431 669 2431 922 
Q 2431 1156 2273 1281 
Q 2116 1406 1581 1522 
L 1381 1569 
Q 847 1681 609 1914 
Q 372 2147 372 2553 
Q 372 3047 722 3315 
Q 1072 3584 1716 3584 
Q 2034 3584 2315 3537 
Q 2597 3491 2834 3397 
z
" transform="scale(0.015625)"/>
       <path id="DejaVuSans-6c" d="M 603 4863 
L 1178 4863 
L 1178 0 
L 603 0 
L 603 4863 
z
" transform="scale(0.015625)"/>
       <path id="DejaVuSans-69" d="M 603 3500 
L 1178 3500 
L 1178 0 
L 603 0 
L 603 3500 
z
M 603 4863 
L 1178 4863 
L 1178 4134 
L 603 4134 
L 603 4863 
z
" transform="scale(0.015625)"/>
       <path id="DejaVuSans-6e" d="M 3513 2113 
L 3513 0 
L 2938 0 
L 2938 2094 
Q 2938 2591 2744 2837 
Q 2550 3084 2163 3084 
Q 1697 3084 1428 2787 
Q 1159 2491 1159 1978 
L 1159 0 
L 581 0 
L 581 3500 
L 1159 3500 
L 1159 2956 
Q 1366 3272 1645 3428 
Q 1925 3584 2291 3584 
Q 2894 3584 3203 3211 
Q 3513 2838 3513 2113 
z
" transform="scale(0.015625)"/>
       <path id="DejaVuSans-6b" d="M 581 4863 
L 1159 4863 
L 1159 1991 
L 2875 3500 
L 3609 3500 
L 1753 1863 
L 3688 0 
L 2938 0 
L 1159 1709 
L 1159 0 
L 581 0 
L 581 4863 
z
" transform="scale(0.015625)"/>
      </defs>
      <use xlink:href="#DejaVuSans-4e"/>
      <use xlink:href="#DejaVuSans-75" x="74.804688"/>
      <use xlink:href="#DejaVuSans-6d" x="138.183594"/>
      <use xlink:href="#DejaVuSans-62" x="235.595703"/>
      <use xlink:href="#DejaVuSans-65" x="299.072266"/>
      <use xlink:href="#DejaVuSans-72" x="360.595703"/>
      <use xlink:href="#DejaVuSans-20" x="401.708984"/>
      <use xlink:href="#DejaVuSans-6f" x="433.496094"/>
      <use xlink:href="#DejaVuSans-66" x="494.677734"/>
      <use xlink:href="#DejaVuSans-20" x="529.882812"/>
      <use xlink:href="#DejaVuSans-63" x="561.669922"/>
      <use xlink:href="#DejaVuSans-72" x="616.650391"/>
      <use xlink:href="#DejaVuSans-6f" x="655.513672"/>
      <use xlink:href="#DejaVuSans-73" x="716.695312"/>
      <use xlink:href="#DejaVuSans-73" x="768.794922"/>
      <use xlink:href="#DejaVuSans-6c" x="820.894531"/>
      <use xlink:href="#DejaVuSans-69" x="848.677734"/>
      <use xlink:href="#DejaVuSans-6e" x="876.460938"/>
      <use xlink:href="#DejaVuSans-6b" x="939.839844"/>
      <use xlink:href="#DejaVuSans-73" x="997.75"/>
     </g>
    </g>
   </g>
   <g id="patch_3">
    <path d="M 57.6 307.584 
L 57.6 41.472 
" style="fill: none; stroke: #000000; stroke-width: 0.8; stroke-linejoin: miter; stroke-linecap: square"/>
   </g>
   <g id="patch_4">
    <path d="M 414.72 307.584 
L 414.72 41.472 
" style="fill: none; stroke: #000000; stroke-width: 0.8; stroke-linejoin: miter; stroke-linecap: square"/>
   </g>
   <g id="patch_5">
    <path d="M 57.6 307.584 
L 414.72 307.584 
" style="fill: none; stroke: #000000; stroke-width: 0.8; stroke-linejoin: miter; stroke-linecap: square"/>
   </g>
   <g id="patch_6">
    <path d="M 57.6 41.472 
L 414.72 41.472 
" style="fill: none; stroke: #000000; stroke-width: 0.8; stroke-linejoin: miter; stroke-linecap: square"/>
   </g>
   <g id="legend_1">
    <g id="patch_7">
     <path d="M 293.087188 93.506375 
L 407.72 93.506375 
Q 409.72 93.506375 409.72 91.506375 
L 409.72 48.472 
Q 409.72 46.472 407.72 46.472 
L 293.087188 46.472 
Q 291.087188 46.472 291.087188 48.472 
L 291.087188 91.506375 
Q 291.087188 93.506375 293.087188 93.506375 
z
" style="fill: #ffffff; opacity: 0.8; stroke: #cccccc; stroke-linejoin: miter"/>
    </g>
    <g id="patch_8">
     <path d="M 295.087188 58.070438 
L 315.087188 58.070438 
L 315.087188 51.070438 
L 295.087188 51.070438 
z
" style="fill: #008000"/>
    </g>
    <g id="text_19">
     <!-- true -->
     <g transform="translate(323.087188 58.070438)scale(0.1 -0.1)">
      <defs>
       <path id="DejaVuSans-74" d="M 1172 4494 
L 1172 3500 
L 2356 3500 
L 2356 3053 
L 1172 3053 
L 1172 1153 
Q 1172 725 1289 603 
Q 1406 481 1766 481 
L 2356 481 
L 2356 0 
L 1766 0 
Q 1100 0 847 248 
Q 594 497 594 1153 
L 594 3053 
L 172 3053 
L 172 3500 
L 594 3500 
L 594 4494 
L 1172 4494 
z
" transform="scale(0.015625)"/>
      </defs>
      <use xlink:href="#DejaVuSans-74"/>
      <use xlink:href="#DejaVuSans-72" x="39.208984"/>
      <use xlink:href="#DejaVuSans-75" x="80.322266"/>
      <use xlink:href="#DejaVuSans-65" x="143.701172"/>
     </g>
    </g>
    <g id="patch_9">
     <path d="M 295.087188 72.748563 
L 315.087188 72.748563 
L 315.087188 65.748563 
L 295.087188 65.748563 
z
" style="fill: #7cfc00"/>
    </g>
    <g id="text_20">
     <!-- true homeotypic -->
     <g transform="translate(323.087188 72.748563)scale(0.1 -0.1)">
      <defs>
       <path id="DejaVuSans-68" d="M 3513 2113 
L 3513 0 
L 2938 0 
L 2938 2094 
Q 2938 2591 2744 2837 
Q 2550 3084 2163 3084 
Q 1697 3084 1428 2787 
Q 1159 2491 1159 1978 
L 1159 0 
L 581 0 
L 581 4863 
L 1159 4863 
L 1159 2956 
Q 1366 3272 1645 3428 
Q 1925 3584 2291 3584 
Q 2894 3584 3203 3211 
Q 3513 2838 3513 2113 
z
" transform="scale(0.015625)"/>
       <path id="DejaVuSans-79" d="M 2059 -325 
Q 1816 -950 1584 -1140 
Q 1353 -1331 966 -1331 
L 506 -1331 
L 506 -850 
L 844 -850 
Q 1081 -850 1212 -737 
Q 1344 -625 1503 -206 
L 1606 56 
L 191 3500 
L 800 3500 
L 1894 763 
L 2988 3500 
L 3597 3500 
L 2059 -325 
z
" transform="scale(0.015625)"/>
       <path id="DejaVuSans-70" d="M 1159 525 
L 1159 -1331 
L 581 -1331 
L 581 3500 
L 1159 3500 
L 1159 2969 
Q 1341 3281 1617 3432 
Q 1894 3584 2278 3584 
Q 2916 3584 3314 3078 
Q 3713 2572 3713 1747 
Q 3713 922 3314 415 
Q 2916 -91 2278 -91 
Q 1894 -91 1617 61 
Q 1341 213 1159 525 
z
M 3116 1747 
Q 3116 2381 2855 2742 
Q 2594 3103 2138 3103 
Q 1681 3103 1420 2742 
Q 1159 2381 1159 1747 
Q 1159 1113 1420 752 
Q 1681 391 2138 391 
Q 2594 391 2855 752 
Q 3116 1113 3116 1747 
z
" transform="scale(0.015625)"/>
      </defs>
      <use xlink:href="#DejaVuSans-74"/>
      <use xlink:href="#DejaVuSans-72" x="39.208984"/>
      <use xlink:href="#DejaVuSans-75" x="80.322266"/>
      <use xlink:href="#DejaVuSans-65" x="143.701172"/>
      <use xlink:href="#DejaVuSans-20" x="205.224609"/>
      <use xlink:href="#DejaVuSans-68" x="237.011719"/>
      <use xlink:href="#DejaVuSans-6f" x="300.390625"/>
      <use xlink:href="#DejaVuSans-6d" x="361.572266"/>
      <use xlink:href="#DejaVuSans-65" x="458.984375"/>
      <use xlink:href="#DejaVuSans-6f" x="520.507812"/>
      <use xlink:href="#DejaVuSans-74" x="581.689453"/>
      <use xlink:href="#DejaVuSans-79" x="620.898438"/>
      <use xlink:href="#DejaVuSans-70" x="680.078125"/>
      <use xlink:href="#DejaVuSans-69" x="743.554688"/>
      <use xlink:href="#DejaVuSans-63" x="771.337891"/>
     </g>
    </g>
    <g id="patch_10">
     <path d="M 295.087188 87.426688 
L 315.087188 87.426688 
L 315.087188 80.426688 
L 295.087188 80.426688 
z
" style="fill: #ff0000"/>
    </g>
    <g id="text_21">
     <!-- false -->
     <g transform="translate(323.087188 87.426688)scale(0.1 -0.1)">
      <defs>
       <path id="DejaVuSans-61" d="M 2194 1759 
Q 1497 1759 1228 1600 
Q 959 1441 959 1056 
Q 959 750 1161 570 
Q 1363 391 1709 391 
Q 2188 391 2477 730 
Q 2766 1069 2766 1631 
L 2766 1759 
L 2194 1759 
z
M 3341 1997 
L 3341 0 
L 2766 0 
L 2766 531 
Q 2569 213 2275 61 
Q 1981 -91 1556 -91 
Q 1019 -91 701 211 
Q 384 513 384 1019 
Q 384 1609 779 1909 
Q 1175 2209 1959 2209 
L 2766 2209 
L 2766 2266 
Q 2766 2663 2505 2880 
Q 2244 3097 1772 3097 
Q 1472 3097 1187 3025 
Q 903 2953 641 2809 
L 641 3341 
Q 956 3463 1253 3523 
Q 1550 3584 1831 3584 
Q 2591 3584 2966 3190 
Q 3341 2797 3341 1997 
z
" transform="scale(0.015625)"/>
      </defs>
      <use xlink:href="#DejaVuSans-66"/>
      <use xlink:href="#DejaVuSans-61" x="35.205078"/>
      <use xlink:href="#DejaVuSans-6c" x="96.484375"/>
      <use xlink:href="#DejaVuSans-73" x="124.267578"/>
      <use xlink:href="#DejaVuSans-65" x="176.367188"/>
     </g>
    </g>
   </g>
  </g>
 </g>
 <defs>
  <clipPath id="p0bc4cf2c70">
   <rect x="57.6" y="41.472" width="357.12" height="266.112"/>
  </clipPath>
 </defs>
</svg>
