<?xml version="1.0" encoding="utf-8" standalone="no"?>
<!DOCTYPE svg PUBLIC "-//W3C//DTD SVG 1.1//EN"
  "http://www.w3.org/Graphics/SVG/1.1/DTD/svg11.dtd">
<svg xmlns:xlink="http://www.w3.org/1999/xlink" width="460.8pt" height="345.6pt" viewBox="0 0 460.8 345.6" xmlns="http://www.w3.org/2000/svg" version="1.1">
 <metadata>
  <rdf:RDF xmlns:dc="http://purl.org/dc/elements/1.1/" xmlns:cc="http://creativecommons.org/ns#" xmlns:rdf="http://www.w3.org/1999/02/22-rdf-syntax-ns#">
   <cc:Work>
    <dc:type rdf:resource="http://purl.org/dc/dcmitype/StillImage"/>
    <dc:date>2022-07-21T14:39:53.773020</dc:date>
    <dc:format>image/svg+xml</dc:format>
    <dc:creator>
     <cc:Agent>
      <dc:title>Matplotlib v3.5.1, https://matplotlib.org/</dc:title>
     </cc:Agent>
    </dc:creator>
   </cc:Work>
  </rdf:RDF>
 </metadata>
 <defs>
  <style type="text/css">*{stroke-linejoin: round; stroke-linecap: butt}</style>
 </defs>
 <g id="figure_1">
  <g id="patch_1">
   <path d="M 0 345.6 
L 460.8 345.6 
L 460.8 0 
L 0 0 
z
" style="fill: #ffffff"/>
  </g>
  <g id="axes_1">
   <g id="patch_2">
    <path d="M 57.6 307.584 
L 414.72 307.584 
L 414.72 41.472 
L 57.6 41.472 
z
" style="fill: #ffffff"/>
   </g>
   <g id="PolyCollection_1">
    <path d="M 73.832727 94.520471 
L 73.832727 307.584 
L 73.983746 307.584 
L 74.214716 307.584 
L 74.738839 307.584 
L 74.851363 307.584 
L 75.393253 307.584 
L 75.496893 307.584 
L 75.644951 307.584 
L 75.757475 307.584 
L 76.023978 307.584 
L 76.539218 307.584 
L 76.817566 307.584 
L 77.095914 307.584 
L 78.21819 307.584 
L 78.244841 307.584 
L 78.327753 307.584 
L 78.416587 307.584 
L 78.42251 307.584 
L 78.443238 307.584 
L 78.659402 307.584 
L 78.875565 307.584 
L 78.985128 307.584 
L 79.180564 307.584 
L 79.275321 307.584 
L 79.571436 307.584 
L 79.71061 307.584 
L 79.799444 307.584 
L 80.003764 307.584 
L 80.042258 307.584 
L 80.705556 307.584 
L 80.770701 307.584 
L 80.815119 307.584 
L 81.15269 307.584 
L 81.33332 307.584 
L 81.659046 307.584 
L 81.943317 307.584 
L 82.00254 307.584 
L 82.035112 307.584 
L 82.123947 307.584 
L 82.266082 307.584 
L 82.310499 307.584 
L 82.630303 307.584 
L 82.834623 307.584 
L 82.991564 307.584 
L 83.195883 307.584 
L 83.252145 307.584 
L 83.563066 307.584 
L 83.619327 307.584 
L 83.72889 307.584 
L 83.971704 307.584 
L 84.131606 307.584 
L 84.332965 307.584 
L 84.486944 307.584 
L 84.697186 307.584 
L 84.711992 307.584 
L 84.83636 307.584 
L 85.606259 307.584 
L 85.680288 307.584 
L 85.71286 307.584 
L 86.053393 307.584 
L 86.43242 307.584 
L 87.000961 307.584 
L 87.211202 307.584 
L 87.255619 307.584 
L 88.691777 307.584 
L 88.77765 307.584 
L 89.23959 307.584 
L 89.742985 307.584 
L 89.982838 307.584 
L 90.462545 307.584 
L 90.575068 307.584 
L 91.007396 307.584 
L 91.356812 307.584 
L 91.564092 307.584 
L 91.771373 307.584 
L 91.880936 307.584 
L 92.363603 307.584 
L 92.467243 307.584 
L 92.772242 307.584 
L 92.807775 307.584 
L 92.935105 307.584 
L 92.976561 307.584 
L 93.246026 307.584 
L 93.586558 307.584 
L 94.217283 307.584 
L 94.279467 307.584 
L 94.303156 307.584 
L 94.69995 307.584 
L 95.274413 307.584 
L 95.34252 307.584 
L 95.579412 307.584 
L 95.70378 307.584 
L 96.147952 307.584 
L 96.198292 307.584 
L 96.408534 307.584 
L 96.506252 307.584 
L 97.012608 307.584 
L 97.033336 307.584 
L 97.258384 307.584 
L 97.554499 307.584 
L 97.744012 307.584 
L 97.749934 307.584 
L 98.51095 307.584 
L 98.670852 307.584 
L 98.71823 307.584 
L 99.491091 307.584 
L 99.600653 307.584 
L 99.627303 307.584 
L 100.275795 307.584 
L 100.355746 307.584 
L 100.607444 307.584 
L 100.669628 307.584 
L 100.675551 307.584 
L 100.779191 307.584 
L 100.868025 307.584 
L 100.947976 307.584 
L 101.258897 307.584 
L 101.581662 307.584 
L 101.797826 307.584 
L 101.939961 307.584 
L 102.256805 307.584 
L 102.777967 307.584 
L 102.813501 307.584 
L 103.014859 307.584 
L 103.269518 307.584 
L 103.470876 307.584 
L 103.86767 307.584 
L 103.97131 307.584 
L 104.036456 307.584 
L 104.652375 307.584 
L 104.785626 307.584 
L 104.886306 307.584 
L 105.12912 307.584 
L 105.531836 307.584 
L 105.573292 307.584 
L 105.733194 307.584 
L 105.836835 307.584 
L 106.064843 307.584 
L 106.698529 307.584 
L 106.722218 307.584 
L 106.861393 307.584 
L 106.920616 307.584 
L 106.994644 307.584 
L 107.261148 307.584 
L 107.429933 307.584 
L 107.474351 307.584 
L 107.598719 307.584 
L 107.930368 307.584 
L 108.534442 307.584 
L 109.188856 307.584 
L 109.265846 307.584 
L 109.653757 307.584 
L 109.943949 307.584 
L 109.967639 307.584 
L 110.669431 307.584 
L 110.699043 307.584 
L 110.755305 307.584 
L 110.947779 307.584 
L 111.012925 307.584 
L 111.063264 307.584 
L 111.436369 307.584 
L 111.652533 307.584 
L 111.933842 307.584 
L 112.265491 307.584 
L 112.410587 307.584 
L 112.496461 307.584 
L 113.24267 307.584 
L 113.971113 307.584 
L 114.190238 307.584 
L 114.800235 307.584 
L 114.903875 307.584 
L 114.936448 307.584 
L 115.451688 307.584 
L 115.747803 307.584 
L 115.824793 307.584 
L 116.04984 307.584 
L 116.162364 307.584 
L 116.337072 307.584 
L 116.938185 307.584 
L 116.979641 307.584 
L 116.997408 307.584 
L 117.071437 307.584 
L 117.299446 307.584 
L 117.346824 307.584 
L 117.497843 307.584 
L 117.648861 307.584 
L 118.042694 307.584 
L 118.377304 307.584 
L 118.605313 307.584 
L 118.966573 307.584 
L 119.135359 307.584 
L 119.52623 307.584 
L 119.54992 307.584 
L 119.618026 307.584 
L 119.635793 307.584 
L 119.692055 307.584 
L 119.872685 307.584 
L 120.047393 307.584 
L 120.325741 307.584 
L 120.361275 307.584 
L 120.627778 307.584 
L 120.645545 307.584 
L 120.835059 307.584 
L 121.732287 307.584 
L 121.850733 307.584 
L 122.360051 307.584 
L 122.445924 307.584 
L 122.558448 307.584 
L 122.620632 307.584 
L 122.623593 307.584 
L 122.999659 307.584 
L 123.476404 307.584 
L 123.811014 307.584 
L 124.498001 307.584 
L 124.885912 307.584 
L 125.170182 307.584 
L 125.259016 307.584 
L 125.279744 307.584 
L 125.561054 307.584 
L 125.759451 307.584 
L 125.869013 307.584 
L 126.020032 307.584 
L 126.111828 307.584 
L 126.150323 307.584 
L 126.407943 307.584 
L 126.461243 307.584 
L 126.828426 307.584 
L 126.89061 307.584 
L 127.023862 307.584 
L 127.278521 307.584 
L 127.444345 307.584 
L 128.6673 307.584 
L 129.188462 307.584 
L 129.475694 307.584 
L 129.866566 307.584 
L 130.304816 307.584 
L 130.488407 307.584 
L 131.056948 307.584 
L 131.678789 307.584 
L 132.448688 307.584 
L 132.593785 307.584 
L 132.996501 307.584 
L 133.257082 307.584 
L 133.428829 307.584 
L 133.514702 307.584 
L 135.134451 307.584 
L 135.599352 307.584 
L 135.658575 307.584 
L 135.717798 307.584 
L 135.969495 307.584 
L 136.259688 307.584 
L 136.440318 307.584 
L 136.452163 307.584 
L 136.724589 307.584 
L 136.958519 307.584 
L 137.162839 307.584 
L 137.230945 307.584 
L 137.746185 307.584 
L 138.068951 307.584 
L 138.148902 307.584 
L 138.661181 307.584 
L 138.690792 307.584 
L 139.016519 307.584 
L 139.659088 307.584 
L 139.975931 307.584 
L 140.055882 307.584 
L 140.192095 307.584 
L 140.710296 307.584 
L 141.113013 307.584 
L 141.379516 307.584 
L 142.540287 307.584 
L 143.280574 307.584 
L 143.289458 307.584 
L 143.351642 307.584 
L 143.375331 307.584 
L 143.57965 307.584 
L 144.281443 307.584 
L 144.716732 307.584 
L 144.734499 307.584 
L 145.723523 307.584 
L 145.821241 307.584 
L 146.422354 307.584 
L 146.446043 307.584 
L 146.913905 307.584 
L 147.050118 307.584 
L 147.743027 307.584 
L 148.364869 307.584 
L 148.44482 307.584 
L 148.474431 307.584 
L 149.427921 307.584 
L 149.709231 307.584 
L 149.756609 307.584 
L 150.031996 307.584 
L 150.94403 307.584 
L 153.499502 307.584 
L 153.881491 307.584 
L 153.970325 307.584 
L 154.609934 307.584 
L 154.615856 307.584 
L 154.737263 307.584 
L 155.643375 307.584 
L 156.040169 307.584 
L 156.235605 307.584 
L 156.795262 307.584 
L 157.094338 307.584 
L 157.239435 307.584 
L 157.423026 307.584 
L 157.680646 307.584 
L 157.982683 307.584 
L 158.086323 307.584 
L 158.432778 307.584 
L 159.563937 307.584 
L 159.617238 307.584 
L 160.47301 307.584 
L 160.496699 307.584 
L 160.67733 307.584 
L 160.748397 307.584 
L 160.775048 307.584 
L 161.509413 307.584 
L 161.521257 307.584 
L 161.604169 307.584 
L 161.826256 307.584 
L 162.329651 307.584 
L 162.468825 307.584 
L 164.127069 307.584 
L 164.221826 307.584 
L 164.944347 307.584 
L 165.065754 307.584 
L 165.504004 307.584 
L 166.205796 307.584 
L 166.946084 307.584 
L 167.520547 307.584 
L 167.547197 307.584 
L 167.603459 307.584 
L 168.050593 307.584 
L 168.639861 307.584 
L 168.651706 307.584 
L 168.974471 307.584 
L 169.110684 307.584 
L 170.004952 307.584 
L 170.250727 307.584 
L 170.478736 307.584 
L 170.555725 307.584 
L 170.854802 307.584 
L 172.841733 307.584 
L 172.945373 307.584 
L 173.34809 307.584 
L 173.824835 307.584 
L 174.020271 307.584 
L 174.141678 307.584 
L 174.615462 307.584 
L 175.580797 307.584 
L 175.728854 307.584 
L 176.173027 307.584 
L 179.024614 307.584 
L 179.225972 307.584 
L 180.149851 307.584 
L 180.58514 307.584 
L 181.414262 307.584 
L 181.53863 307.584 
L 182.814886 307.584 
L 183.303475 307.584 
L 186.477828 307.584 
L 187.446124 307.584 
L 188.384809 307.584 
L 188.802331 307.584 
L 189.347182 307.584 
L 189.637375 307.584 
L 190.481303 307.584 
L 193.922159 307.584 
L 194.277497 307.584 
L 195.245793 307.584 
L 196.163749 307.584 
L 196.240739 307.584 
L 199.604605 307.584 
L 200.244214 307.584 
L 206.889034 307.584 
L 209.927174 307.584 
L 211.36037 307.584 
L 212.02959 307.584 
L 212.630703 307.584 
L 213.622689 307.584 
L 217.176068 307.584 
L 221.277261 307.584 
L 223.287882 307.584 
L 230.738135 307.584 
L 235.049569 307.584 
L 235.970486 307.584 
L 238.235766 307.584 
L 238.869452 307.584 
L 243.619136 307.584 
L 244.338696 307.584 
L 245.238885 307.584 
L 245.943639 307.584 
L 246.15092 307.584 
L 251.478028 307.584 
L 272.123165 307.584 
L 281.308652 307.584 
L 282.075589 307.584 
L 283.606504 307.584 
L 287.938666 307.584 
L 310.721753 307.584 
L 330.345293 307.584 
L 333.137657 307.584 
L 398.487273 307.584 
L 398.487273 307.584 
L 398.487273 307.584 
L 333.137657 307.584 
L 330.345293 307.584 
L 310.721753 307.584 
L 287.938666 307.584 
L 283.606504 307.584 
L 282.075589 307.584 
L 281.308652 306.962824 
L 272.123165 306.962824 
L 251.478028 306.962824 
L 246.15092 306.962824 
L 245.943639 306.962824 
L 245.238885 306.962824 
L 244.338696 306.962824 
L 243.619136 306.962824 
L 238.869452 306.962824 
L 238.235766 306.962824 
L 235.970486 306.962824 
L 235.049569 306.962824 
L 230.738135 306.341647 
L 223.287882 306.341647 
L 221.277261 306.341647 
L 217.176068 305.720471 
L 213.622689 305.720471 
L 212.630703 305.099294 
L 212.02959 305.099294 
L 211.36037 304.478118 
L 209.927174 304.478118 
L 206.889034 304.478118 
L 200.244214 304.478118 
L 199.604605 303.856941 
L 196.240739 303.235765 
L 196.163749 303.235765 
L 195.245793 302.614588 
L 194.277497 301.993412 
L 193.922159 301.372235 
L 190.481303 300.751059 
L 189.637375 300.129882 
L 189.347182 299.508706 
L 188.802331 299.508706 
L 188.384809 299.508706 
L 187.446124 298.887529 
L 186.477828 298.266353 
L 183.303475 297.645176 
L 182.814886 297.024 
L 181.53863 297.024 
L 181.414262 296.402824 
L 180.58514 295.781647 
L 180.149851 294.539294 
L 179.225972 294.539294 
L 179.024614 293.918118 
L 176.173027 293.296941 
L 175.728854 292.675765 
L 175.580797 292.054588 
L 174.615462 291.433412 
L 174.141678 291.433412 
L 174.020271 290.812235 
L 173.824835 290.191059 
L 173.34809 289.569882 
L 172.945373 288.948706 
L 172.841733 288.327529 
L 170.854802 287.706353 
L 170.555725 287.085176 
L 170.478736 286.464 
L 170.250727 285.842824 
L 170.004952 285.221647 
L 169.110684 284.600471 
L 168.974471 283.979294 
L 168.651706 283.358118 
L 168.639861 282.736941 
L 168.050593 282.115765 
L 167.603459 281.494588 
L 167.547197 280.873412 
L 167.520547 280.252235 
L 166.946084 279.631059 
L 166.205796 279.009882 
L 165.504004 278.388706 
L 165.065754 278.388706 
L 164.944347 278.388706 
L 164.221826 278.388706 
L 164.127069 277.767529 
L 162.468825 277.146353 
L 162.329651 277.146353 
L 161.826256 276.525176 
L 161.604169 275.904 
L 161.521257 275.282824 
L 161.509413 274.661647 
L 160.775048 274.040471 
L 160.748397 274.040471 
L 160.67733 273.419294 
L 160.496699 272.798118 
L 160.47301 272.176941 
L 159.617238 271.555765 
L 159.563937 270.934588 
L 158.432778 270.313412 
L 158.086323 269.692235 
L 157.982683 269.071059 
L 157.680646 268.449882 
L 157.423026 267.828706 
L 157.239435 267.207529 
L 157.094338 266.586353 
L 156.795262 265.965176 
L 156.235605 265.344 
L 156.040169 264.722824 
L 155.643375 264.101647 
L 154.737263 263.480471 
L 154.615856 262.859294 
L 154.609934 262.238118 
L 153.970325 261.616941 
L 153.881491 260.995765 
L 153.499502 260.374588 
L 150.94403 259.753412 
L 150.031996 259.132235 
L 149.756609 258.511059 
L 149.709231 257.889882 
L 149.427921 257.268706 
L 148.474431 256.647529 
L 148.44482 256.026353 
L 148.364869 255.405176 
L 147.743027 254.784 
L 147.050118 254.162824 
L 146.913905 253.541647 
L 146.446043 252.920471 
L 146.422354 252.299294 
L 145.821241 251.678118 
L 145.723523 251.056941 
L 144.734499 250.435765 
L 144.716732 249.814588 
L 144.281443 249.193412 
L 143.57965 248.572235 
L 143.375331 248.572235 
L 143.351642 247.951059 
L 143.289458 247.329882 
L 143.280574 246.708706 
L 142.540287 246.708706 
L 141.379516 246.087529 
L 141.113013 245.466353 
L 140.710296 244.845176 
L 140.192095 244.224 
L 140.055882 243.602824 
L 139.975931 242.981647 
L 139.659088 242.360471 
L 139.016519 241.739294 
L 138.690792 241.118118 
L 138.661181 240.496941 
L 138.148902 239.875765 
L 138.068951 239.254588 
L 137.746185 238.633412 
L 137.230945 238.012235 
L 137.162839 237.391059 
L 136.958519 236.769882 
L 136.724589 236.148706 
L 136.452163 235.527529 
L 136.440318 234.906353 
L 136.259688 234.285176 
L 135.969495 233.664 
L 135.717798 233.042824 
L 135.658575 232.421647 
L 135.599352 231.800471 
L 135.134451 231.179294 
L 133.514702 230.558118 
L 133.428829 229.936941 
L 133.257082 229.315765 
L 132.996501 228.694588 
L 132.593785 228.073412 
L 132.448688 227.452235 
L 131.678789 226.831059 
L 131.056948 226.209882 
L 130.488407 225.588706 
L 130.304816 224.967529 
L 129.866566 224.346353 
L 129.475694 223.725176 
L 129.188462 223.104 
L 128.6673 223.104 
L 127.444345 222.482824 
L 127.278521 221.861647 
L 127.023862 221.240471 
L 126.89061 220.619294 
L 126.828426 219.998118 
L 126.461243 219.376941 
L 126.407943 218.755765 
L 126.150323 218.134588 
L 126.111828 217.513412 
L 126.020032 216.892235 
L 125.869013 216.271059 
L 125.759451 215.649882 
L 125.561054 215.028706 
L 125.279744 214.407529 
L 125.259016 213.786353 
L 125.170182 213.165176 
L 124.885912 212.544 
L 124.498001 212.544 
L 123.811014 211.922824 
L 123.476404 211.301647 
L 122.999659 210.680471 
L 122.623593 210.059294 
L 122.620632 209.438118 
L 122.558448 208.816941 
L 122.445924 208.195765 
L 122.360051 207.574588 
L 121.850733 206.953412 
L 121.732287 206.332235 
L 120.835059 205.711059 
L 120.645545 205.089882 
L 120.627778 205.089882 
L 120.361275 204.468706 
L 120.325741 203.847529 
L 120.047393 203.226353 
L 119.872685 202.605176 
L 119.692055 201.984 
L 119.635793 201.362824 
L 119.618026 200.741647 
L 119.54992 200.120471 
L 119.52623 199.499294 
L 119.135359 198.878118 
L 118.966573 198.256941 
L 118.605313 197.635765 
L 118.377304 197.014588 
L 118.042694 196.393412 
L 117.648861 195.772235 
L 117.497843 195.151059 
L 117.346824 194.529882 
L 117.299446 194.529882 
L 117.071437 193.908706 
L 116.997408 193.287529 
L 116.979641 192.666353 
L 116.938185 192.045176 
L 116.337072 191.424 
L 116.162364 190.802824 
L 116.04984 190.181647 
L 115.824793 189.560471 
L 115.747803 188.939294 
L 115.451688 188.318118 
L 114.936448 187.696941 
L 114.903875 187.075765 
L 114.800235 186.454588 
L 114.190238 185.833412 
L 113.971113 185.212235 
L 113.24267 184.591059 
L 112.496461 183.969882 
L 112.410587 183.348706 
L 112.265491 182.727529 
L 111.933842 182.106353 
L 111.652533 181.485176 
L 111.436369 181.485176 
L 111.063264 180.864 
L 111.012925 180.242824 
L 110.947779 179.621647 
L 110.755305 179.000471 
L 110.699043 178.379294 
L 110.669431 177.758118 
L 109.967639 177.136941 
L 109.943949 176.515765 
L 109.653757 176.515765 
L 109.265846 175.894588 
L 109.188856 175.273412 
L 108.534442 174.652235 
L 107.930368 174.031059 
L 107.598719 173.409882 
L 107.474351 172.788706 
L 107.429933 172.167529 
L 107.261148 171.546353 
L 106.994644 170.925176 
L 106.920616 170.304 
L 106.861393 169.682824 
L 106.722218 169.061647 
L 106.698529 167.819294 
L 106.064843 166.576941 
L 105.836835 165.955765 
L 105.733194 165.334588 
L 105.573292 164.713412 
L 105.531836 164.092235 
L 105.12912 163.471059 
L 104.886306 162.849882 
L 104.785626 162.228706 
L 104.652375 161.607529 
L 104.036456 160.986353 
L 103.97131 160.365176 
L 103.86767 159.744 
L 103.470876 159.122824 
L 103.269518 158.501647 
L 103.014859 157.880471 
L 102.813501 157.259294 
L 102.777967 156.638118 
L 102.256805 156.016941 
L 101.939961 155.395765 
L 101.797826 154.774588 
L 101.581662 154.153412 
L 101.258897 153.532235 
L 100.947976 152.911059 
L 100.868025 152.289882 
L 100.779191 151.668706 
L 100.675551 151.047529 
L 100.669628 150.426353 
L 100.607444 149.805176 
L 100.355746 149.184 
L 100.275795 148.562824 
L 99.627303 148.562824 
L 99.600653 147.941647 
L 99.491091 147.320471 
L 98.71823 146.699294 
L 98.670852 146.078118 
L 98.51095 145.456941 
L 97.749934 144.835765 
L 97.744012 144.214588 
L 97.554499 143.593412 
L 97.258384 142.972235 
L 97.033336 142.351059 
L 97.012608 141.729882 
L 96.506252 141.729882 
L 96.408534 141.108706 
L 96.198292 140.487529 
L 96.147952 139.866353 
L 95.70378 139.866353 
L 95.579412 139.245176 
L 95.34252 138.624 
L 95.274413 138.002824 
L 94.69995 137.381647 
L 94.303156 136.760471 
L 94.279467 136.139294 
L 94.217283 135.518118 
L 93.586558 134.896941 
L 93.246026 134.275765 
L 92.976561 133.654588 
L 92.935105 133.033412 
L 92.807775 132.412235 
L 92.772242 131.791059 
L 92.467243 131.169882 
L 92.363603 130.548706 
L 91.880936 129.927529 
L 91.771373 129.306353 
L 91.564092 128.685176 
L 91.356812 128.064 
L 91.007396 127.442824 
L 90.575068 126.821647 
L 90.462545 126.200471 
L 89.982838 125.579294 
L 89.742985 124.958118 
L 89.23959 124.336941 
L 88.77765 123.715765 
L 88.691777 123.094588 
L 87.255619 122.473412 
L 87.211202 121.852235 
L 87.000961 121.231059 
L 86.43242 120.609882 
L 86.053393 120.609882 
L 85.71286 119.988706 
L 85.680288 119.367529 
L 85.606259 118.746353 
L 84.83636 118.125176 
L 84.711992 117.504 
L 84.697186 116.882824 
L 84.486944 116.261647 
L 84.332965 115.640471 
L 84.131606 115.019294 
L 83.971704 114.398118 
L 83.72889 113.776941 
L 83.619327 113.155765 
L 83.563066 112.534588 
L 83.252145 111.913412 
L 83.195883 111.292235 
L 82.991564 111.292235 
L 82.834623 110.671059 
L 82.630303 110.671059 
L 82.310499 110.049882 
L 82.266082 109.428706 
L 82.123947 108.807529 
L 82.035112 108.186353 
L 82.00254 107.565176 
L 81.943317 106.944 
L 81.659046 106.322824 
L 81.33332 105.701647 
L 81.15269 105.080471 
L 80.815119 105.080471 
L 80.770701 104.459294 
L 80.705556 103.838118 
L 80.042258 103.838118 
L 80.003764 103.216941 
L 79.799444 102.595765 
L 79.71061 101.974588 
L 79.571436 101.353412 
L 79.275321 100.732235 
L 79.180564 100.111059 
L 78.985128 100.111059 
L 78.875565 99.489882 
L 78.659402 98.868706 
L 78.443238 98.247529 
L 78.42251 98.247529 
L 78.416587 98.247529 
L 78.327753 98.247529 
L 78.244841 98.247529 
L 78.21819 97.626353 
L 77.095914 97.005176 
L 76.817566 97.005176 
L 76.539218 97.005176 
L 76.023978 97.005176 
L 75.757475 96.384 
L 75.644951 96.384 
L 75.496893 95.762824 
L 75.393253 95.141647 
L 74.851363 95.141647 
L 74.738839 95.141647 
L 74.214716 95.141647 
L 73.983746 95.141647 
L 73.832727 94.520471 
z
" clip-path="url(#pdfb8ae6ac6)" style="fill: #008000"/>
   </g>
   <g id="PolyCollection_2">
    <path d="M 73.832727 67.188706 
L 73.832727 94.520471 
L 73.983746 95.141647 
L 74.214716 95.141647 
L 74.738839 95.141647 
L 74.851363 95.141647 
L 75.393253 95.141647 
L 75.496893 95.762824 
L 75.644951 96.384 
L 75.757475 96.384 
L 76.023978 97.005176 
L 76.539218 97.005176 
L 76.817566 97.005176 
L 77.095914 97.005176 
L 78.21819 97.626353 
L 78.244841 98.247529 
L 78.327753 98.247529 
L 78.416587 98.247529 
L 78.42251 98.247529 
L 78.443238 98.247529 
L 78.659402 98.868706 
L 78.875565 99.489882 
L 78.985128 100.111059 
L 79.180564 100.111059 
L 79.275321 100.732235 
L 79.571436 101.353412 
L 79.71061 101.974588 
L 79.799444 102.595765 
L 80.003764 103.216941 
L 80.042258 103.838118 
L 80.705556 103.838118 
L 80.770701 104.459294 
L 80.815119 105.080471 
L 81.15269 105.080471 
L 81.33332 105.701647 
L 81.659046 106.322824 
L 81.943317 106.944 
L 82.00254 107.565176 
L 82.035112 108.186353 
L 82.123947 108.807529 
L 82.266082 109.428706 
L 82.310499 110.049882 
L 82.630303 110.671059 
L 82.834623 110.671059 
L 82.991564 111.292235 
L 83.195883 111.292235 
L 83.252145 111.913412 
L 83.563066 112.534588 
L 83.619327 113.155765 
L 83.72889 113.776941 
L 83.971704 114.398118 
L 84.131606 115.019294 
L 84.332965 115.640471 
L 84.486944 116.261647 
L 84.697186 116.882824 
L 84.711992 117.504 
L 84.83636 118.125176 
L 85.606259 118.746353 
L 85.680288 119.367529 
L 85.71286 119.988706 
L 86.053393 120.609882 
L 86.43242 120.609882 
L 87.000961 121.231059 
L 87.211202 121.852235 
L 87.255619 122.473412 
L 88.691777 123.094588 
L 88.77765 123.715765 
L 89.23959 124.336941 
L 89.742985 124.958118 
L 89.982838 125.579294 
L 90.462545 126.200471 
L 90.575068 126.821647 
L 91.007396 127.442824 
L 91.356812 128.064 
L 91.564092 128.685176 
L 91.771373 129.306353 
L 91.880936 129.927529 
L 92.363603 130.548706 
L 92.467243 131.169882 
L 92.772242 131.791059 
L 92.807775 132.412235 
L 92.935105 133.033412 
L 92.976561 133.654588 
L 93.246026 134.275765 
L 93.586558 134.896941 
L 94.217283 135.518118 
L 94.279467 136.139294 
L 94.303156 136.760471 
L 94.69995 137.381647 
L 95.274413 138.002824 
L 95.34252 138.624 
L 95.579412 139.245176 
L 95.70378 139.866353 
L 96.147952 139.866353 
L 96.198292 140.487529 
L 96.408534 141.108706 
L 96.506252 141.729882 
L 97.012608 141.729882 
L 97.033336 142.351059 
L 97.258384 142.972235 
L 97.554499 143.593412 
L 97.744012 144.214588 
L 97.749934 144.835765 
L 98.51095 145.456941 
L 98.670852 146.078118 
L 98.71823 146.699294 
L 99.491091 147.320471 
L 99.600653 147.941647 
L 99.627303 148.562824 
L 100.275795 148.562824 
L 100.355746 149.184 
L 100.607444 149.805176 
L 100.669628 150.426353 
L 100.675551 151.047529 
L 100.779191 151.668706 
L 100.868025 152.289882 
L 100.947976 152.911059 
L 101.258897 153.532235 
L 101.581662 154.153412 
L 101.797826 154.774588 
L 101.939961 155.395765 
L 102.256805 156.016941 
L 102.777967 156.638118 
L 102.813501 157.259294 
L 103.014859 157.880471 
L 103.269518 158.501647 
L 103.470876 159.122824 
L 103.86767 159.744 
L 103.97131 160.365176 
L 104.036456 160.986353 
L 104.652375 161.607529 
L 104.785626 162.228706 
L 104.886306 162.849882 
L 105.12912 163.471059 
L 105.531836 164.092235 
L 105.573292 164.713412 
L 105.733194 165.334588 
L 105.836835 165.955765 
L 106.064843 166.576941 
L 106.698529 167.819294 
L 106.722218 169.061647 
L 106.861393 169.682824 
L 106.920616 170.304 
L 106.994644 170.925176 
L 107.261148 171.546353 
L 107.429933 172.167529 
L 107.474351 172.788706 
L 107.598719 173.409882 
L 107.930368 174.031059 
L 108.534442 174.652235 
L 109.188856 175.273412 
L 109.265846 175.894588 
L 109.653757 176.515765 
L 109.943949 176.515765 
L 109.967639 177.136941 
L 110.669431 177.758118 
L 110.699043 178.379294 
L 110.755305 179.000471 
L 110.947779 179.621647 
L 111.012925 180.242824 
L 111.063264 180.864 
L 111.436369 181.485176 
L 111.652533 181.485176 
L 111.933842 182.106353 
L 112.265491 182.727529 
L 112.410587 183.348706 
L 112.496461 183.969882 
L 113.24267 184.591059 
L 113.971113 185.212235 
L 114.190238 185.833412 
L 114.800235 186.454588 
L 114.903875 187.075765 
L 114.936448 187.696941 
L 115.451688 188.318118 
L 115.747803 188.939294 
L 115.824793 189.560471 
L 116.04984 190.181647 
L 116.162364 190.802824 
L 116.337072 191.424 
L 116.938185 192.045176 
L 116.979641 192.666353 
L 116.997408 193.287529 
L 117.071437 193.908706 
L 117.299446 194.529882 
L 117.346824 194.529882 
L 117.497843 195.151059 
L 117.648861 195.772235 
L 118.042694 196.393412 
L 118.377304 197.014588 
L 118.605313 197.635765 
L 118.966573 198.256941 
L 119.135359 198.878118 
L 119.52623 199.499294 
L 119.54992 200.120471 
L 119.618026 200.741647 
L 119.635793 201.362824 
L 119.692055 201.984 
L 119.872685 202.605176 
L 120.047393 203.226353 
L 120.325741 203.847529 
L 120.361275 204.468706 
L 120.627778 205.089882 
L 120.645545 205.089882 
L 120.835059 205.711059 
L 121.732287 206.332235 
L 121.850733 206.953412 
L 122.360051 207.574588 
L 122.445924 208.195765 
L 122.558448 208.816941 
L 122.620632 209.438118 
L 122.623593 210.059294 
L 122.999659 210.680471 
L 123.476404 211.301647 
L 123.811014 211.922824 
L 124.498001 212.544 
L 124.885912 212.544 
L 125.170182 213.165176 
L 125.259016 213.786353 
L 125.279744 214.407529 
L 125.561054 215.028706 
L 125.759451 215.649882 
L 125.869013 216.271059 
L 126.020032 216.892235 
L 126.111828 217.513412 
L 126.150323 218.134588 
L 126.407943 218.755765 
L 126.461243 219.376941 
L 126.828426 219.998118 
L 126.89061 220.619294 
L 127.023862 221.240471 
L 127.278521 221.861647 
L 127.444345 222.482824 
L 128.6673 223.104 
L 129.188462 223.104 
L 129.475694 223.725176 
L 129.866566 224.346353 
L 130.304816 224.967529 
L 130.488407 225.588706 
L 131.056948 226.209882 
L 131.678789 226.831059 
L 132.448688 227.452235 
L 132.593785 228.073412 
L 132.996501 228.694588 
L 133.257082 229.315765 
L 133.428829 229.936941 
L 133.514702 230.558118 
L 135.134451 231.179294 
L 135.599352 231.800471 
L 135.658575 232.421647 
L 135.717798 233.042824 
L 135.969495 233.664 
L 136.259688 234.285176 
L 136.440318 234.906353 
L 136.452163 235.527529 
L 136.724589 236.148706 
L 136.958519 236.769882 
L 137.162839 237.391059 
L 137.230945 238.012235 
L 137.746185 238.633412 
L 138.068951 239.254588 
L 138.148902 239.875765 
L 138.661181 240.496941 
L 138.690792 241.118118 
L 139.016519 241.739294 
L 139.659088 242.360471 
L 139.975931 242.981647 
L 140.055882 243.602824 
L 140.192095 244.224 
L 140.710296 244.845176 
L 141.113013 245.466353 
L 141.379516 246.087529 
L 142.540287 246.708706 
L 143.280574 246.708706 
L 143.289458 247.329882 
L 143.351642 247.951059 
L 143.375331 248.572235 
L 143.57965 248.572235 
L 144.281443 249.193412 
L 144.716732 249.814588 
L 144.734499 250.435765 
L 145.723523 251.056941 
L 145.821241 251.678118 
L 146.422354 252.299294 
L 146.446043 252.920471 
L 146.913905 253.541647 
L 147.050118 254.162824 
L 147.743027 254.784 
L 148.364869 255.405176 
L 148.44482 256.026353 
L 148.474431 256.647529 
L 149.427921 257.268706 
L 149.709231 257.889882 
L 149.756609 258.511059 
L 150.031996 259.132235 
L 150.94403 259.753412 
L 153.499502 260.374588 
L 153.881491 260.995765 
L 153.970325 261.616941 
L 154.609934 262.238118 
L 154.615856 262.859294 
L 154.737263 263.480471 
L 155.643375 264.101647 
L 156.040169 264.722824 
L 156.235605 265.344 
L 156.795262 265.965176 
L 157.094338 266.586353 
L 157.239435 267.207529 
L 157.423026 267.828706 
L 157.680646 268.449882 
L 157.982683 269.071059 
L 158.086323 269.692235 
L 158.432778 270.313412 
L 159.563937 270.934588 
L 159.617238 271.555765 
L 160.47301 272.176941 
L 160.496699 272.798118 
L 160.67733 273.419294 
L 160.748397 274.040471 
L 160.775048 274.040471 
L 161.509413 274.661647 
L 161.521257 275.282824 
L 161.604169 275.904 
L 161.826256 276.525176 
L 162.329651 277.146353 
L 162.468825 277.146353 
L 164.127069 277.767529 
L 164.221826 278.388706 
L 164.944347 278.388706 
L 165.065754 278.388706 
L 165.504004 278.388706 
L 166.205796 279.009882 
L 166.946084 279.631059 
L 167.520547 280.252235 
L 167.547197 280.873412 
L 167.603459 281.494588 
L 168.050593 282.115765 
L 168.639861 282.736941 
L 168.651706 283.358118 
L 168.974471 283.979294 
L 169.110684 284.600471 
L 170.004952 285.221647 
L 170.250727 285.842824 
L 170.478736 286.464 
L 170.555725 287.085176 
L 170.854802 287.706353 
L 172.841733 288.327529 
L 172.945373 288.948706 
L 173.34809 289.569882 
L 173.824835 290.191059 
L 174.020271 290.812235 
L 174.141678 291.433412 
L 174.615462 291.433412 
L 175.580797 292.054588 
L 175.728854 292.675765 
L 176.173027 293.296941 
L 179.024614 293.918118 
L 179.225972 294.539294 
L 180.149851 294.539294 
L 180.58514 295.781647 
L 181.414262 296.402824 
L 181.53863 297.024 
L 182.814886 297.024 
L 183.303475 297.645176 
L 186.477828 298.266353 
L 187.446124 298.887529 
L 188.384809 299.508706 
L 188.802331 299.508706 
L 189.347182 299.508706 
L 189.637375 300.129882 
L 190.481303 300.751059 
L 193.922159 301.372235 
L 194.277497 301.993412 
L 195.245793 302.614588 
L 196.163749 303.235765 
L 196.240739 303.235765 
L 199.604605 303.856941 
L 200.244214 304.478118 
L 206.889034 304.478118 
L 209.927174 304.478118 
L 211.36037 304.478118 
L 212.02959 305.099294 
L 212.630703 305.099294 
L 213.622689 305.720471 
L 217.176068 305.720471 
L 221.277261 306.341647 
L 223.287882 306.341647 
L 230.738135 306.341647 
L 235.049569 306.962824 
L 235.970486 306.962824 
L 238.235766 306.962824 
L 238.869452 306.962824 
L 243.619136 306.962824 
L 244.338696 306.962824 
L 245.238885 306.962824 
L 245.943639 306.962824 
L 246.15092 306.962824 
L 251.478028 306.962824 
L 272.123165 306.962824 
L 281.308652 306.962824 
L 282.075589 307.584 
L 283.606504 307.584 
L 287.938666 307.584 
L 310.721753 307.584 
L 330.345293 307.584 
L 333.137657 307.584 
L 398.487273 307.584 
L 398.487273 306.962824 
L 398.487273 306.962824 
L 333.137657 306.341647 
L 330.345293 305.720471 
L 310.721753 305.099294 
L 287.938666 304.478118 
L 283.606504 303.856941 
L 282.075589 303.235765 
L 281.308652 302.614588 
L 272.123165 301.993412 
L 251.478028 301.372235 
L 246.15092 300.751059 
L 245.943639 300.129882 
L 245.238885 299.508706 
L 244.338696 298.887529 
L 243.619136 298.266353 
L 238.869452 297.645176 
L 238.235766 297.024 
L 235.970486 296.402824 
L 235.049569 295.781647 
L 230.738135 295.160471 
L 223.287882 294.539294 
L 221.277261 293.918118 
L 217.176068 293.296941 
L 213.622689 292.675765 
L 212.630703 292.054588 
L 212.02959 291.433412 
L 211.36037 290.812235 
L 209.927174 290.191059 
L 206.889034 289.569882 
L 200.244214 288.948706 
L 199.604605 288.327529 
L 196.240739 287.706353 
L 196.163749 287.085176 
L 195.245793 286.464 
L 194.277497 285.842824 
L 193.922159 285.221647 
L 190.481303 284.600471 
L 189.637375 283.979294 
L 189.347182 283.358118 
L 188.802331 282.736941 
L 188.384809 282.115765 
L 187.446124 281.494588 
L 186.477828 280.873412 
L 183.303475 280.252235 
L 182.814886 279.631059 
L 181.53863 279.009882 
L 181.414262 278.388706 
L 180.58514 277.767529 
L 180.149851 276.525176 
L 179.225972 275.904 
L 179.024614 275.282824 
L 176.173027 274.661647 
L 175.728854 274.040471 
L 175.580797 273.419294 
L 174.615462 272.798118 
L 174.141678 272.176941 
L 174.020271 271.555765 
L 173.824835 270.934588 
L 173.34809 270.313412 
L 172.945373 269.692235 
L 172.841733 269.071059 
L 170.854802 268.449882 
L 170.555725 267.828706 
L 170.478736 267.207529 
L 170.250727 266.586353 
L 170.004952 265.965176 
L 169.110684 265.344 
L 168.974471 264.722824 
L 168.651706 264.101647 
L 168.639861 263.480471 
L 168.050593 262.859294 
L 167.603459 262.238118 
L 167.547197 261.616941 
L 167.520547 260.995765 
L 166.946084 260.374588 
L 166.205796 259.753412 
L 165.504004 259.132235 
L 165.065754 258.511059 
L 164.944347 257.889882 
L 164.221826 257.268706 
L 164.127069 256.647529 
L 162.468825 256.026353 
L 162.329651 255.405176 
L 161.826256 254.784 
L 161.604169 254.162824 
L 161.521257 253.541647 
L 161.509413 252.920471 
L 160.775048 252.299294 
L 160.748397 251.678118 
L 160.67733 251.056941 
L 160.496699 250.435765 
L 160.47301 249.814588 
L 159.617238 249.193412 
L 159.563937 248.572235 
L 158.432778 247.951059 
L 158.086323 247.329882 
L 157.982683 246.708706 
L 157.680646 246.087529 
L 157.423026 245.466353 
L 157.239435 244.845176 
L 157.094338 244.224 
L 156.795262 243.602824 
L 156.235605 242.981647 
L 156.040169 242.360471 
L 155.643375 241.739294 
L 154.737263 241.118118 
L 154.615856 240.496941 
L 154.609934 239.875765 
L 153.970325 239.254588 
L 153.881491 238.633412 
L 153.499502 238.012235 
L 150.94403 237.391059 
L 150.031996 236.769882 
L 149.756609 236.148706 
L 149.709231 235.527529 
L 149.427921 234.906353 
L 148.474431 234.285176 
L 148.44482 233.664 
L 148.364869 233.042824 
L 147.743027 232.421647 
L 147.050118 231.800471 
L 146.913905 231.179294 
L 146.446043 230.558118 
L 146.422354 229.936941 
L 145.821241 229.315765 
L 145.723523 228.694588 
L 144.734499 228.073412 
L 144.716732 227.452235 
L 144.281443 226.831059 
L 143.57965 226.209882 
L 143.375331 225.588706 
L 143.351642 224.967529 
L 143.289458 224.346353 
L 143.280574 223.725176 
L 142.540287 223.104 
L 141.379516 222.482824 
L 141.113013 221.861647 
L 140.710296 221.240471 
L 140.192095 220.619294 
L 140.055882 219.998118 
L 139.975931 219.376941 
L 139.659088 218.755765 
L 139.016519 218.134588 
L 138.690792 217.513412 
L 138.661181 216.892235 
L 138.148902 216.271059 
L 138.068951 215.649882 
L 137.746185 215.028706 
L 137.230945 214.407529 
L 137.162839 213.786353 
L 136.958519 213.165176 
L 136.724589 212.544 
L 136.452163 211.922824 
L 136.440318 211.301647 
L 136.259688 210.680471 
L 135.969495 210.059294 
L 135.717798 209.438118 
L 135.658575 208.816941 
L 135.599352 208.195765 
L 135.134451 207.574588 
L 133.514702 206.953412 
L 133.428829 206.332235 
L 133.257082 205.711059 
L 132.996501 205.089882 
L 132.593785 204.468706 
L 132.448688 203.847529 
L 131.678789 203.226353 
L 131.056948 202.605176 
L 130.488407 201.984 
L 130.304816 201.362824 
L 129.866566 200.741647 
L 129.475694 200.120471 
L 129.188462 199.499294 
L 128.6673 198.878118 
L 127.444345 198.256941 
L 127.278521 197.635765 
L 127.023862 197.014588 
L 126.89061 196.393412 
L 126.828426 195.772235 
L 126.461243 195.151059 
L 126.407943 194.529882 
L 126.150323 193.908706 
L 126.111828 193.287529 
L 126.020032 192.666353 
L 125.869013 192.045176 
L 125.759451 191.424 
L 125.561054 190.802824 
L 125.279744 190.181647 
L 125.259016 189.560471 
L 125.170182 188.939294 
L 124.885912 188.318118 
L 124.498001 187.696941 
L 123.811014 187.075765 
L 123.476404 186.454588 
L 122.999659 185.833412 
L 122.623593 185.212235 
L 122.620632 184.591059 
L 122.558448 183.969882 
L 122.445924 183.348706 
L 122.360051 182.727529 
L 121.850733 182.106353 
L 121.732287 181.485176 
L 120.835059 180.864 
L 120.645545 180.242824 
L 120.627778 179.621647 
L 120.361275 179.000471 
L 120.325741 178.379294 
L 120.047393 177.758118 
L 119.872685 177.136941 
L 119.692055 176.515765 
L 119.635793 175.894588 
L 119.618026 175.273412 
L 119.54992 174.652235 
L 119.52623 174.031059 
L 119.135359 173.409882 
L 118.966573 172.788706 
L 118.605313 172.167529 
L 118.377304 171.546353 
L 118.042694 170.925176 
L 117.648861 170.304 
L 117.497843 169.682824 
L 117.346824 169.061647 
L 117.299446 168.440471 
L 117.071437 167.819294 
L 116.997408 167.198118 
L 116.979641 166.576941 
L 116.938185 165.955765 
L 116.337072 165.334588 
L 116.162364 164.713412 
L 116.04984 164.092235 
L 115.824793 163.471059 
L 115.747803 162.849882 
L 115.451688 162.228706 
L 114.936448 161.607529 
L 114.903875 160.986353 
L 114.800235 160.365176 
L 114.190238 159.744 
L 113.971113 159.122824 
L 113.24267 158.501647 
L 112.496461 157.880471 
L 112.410587 157.259294 
L 112.265491 156.638118 
L 111.933842 156.016941 
L 111.652533 155.395765 
L 111.436369 155.395765 
L 111.063264 154.774588 
L 111.012925 154.153412 
L 110.947779 153.532235 
L 110.755305 152.911059 
L 110.699043 152.289882 
L 110.669431 151.668706 
L 109.967639 151.047529 
L 109.943949 150.426353 
L 109.653757 150.426353 
L 109.265846 149.805176 
L 109.188856 149.184 
L 108.534442 148.562824 
L 107.930368 147.941647 
L 107.598719 147.320471 
L 107.474351 146.699294 
L 107.429933 146.078118 
L 107.261148 145.456941 
L 106.994644 144.835765 
L 106.920616 144.214588 
L 106.861393 143.593412 
L 106.722218 142.972235 
L 106.698529 141.729882 
L 106.064843 140.487529 
L 105.836835 139.866353 
L 105.733194 139.245176 
L 105.573292 138.624 
L 105.531836 138.002824 
L 105.12912 137.381647 
L 104.886306 136.760471 
L 104.785626 136.139294 
L 104.652375 135.518118 
L 104.036456 134.896941 
L 103.97131 134.275765 
L 103.86767 133.654588 
L 103.470876 133.033412 
L 103.269518 132.412235 
L 103.014859 131.791059 
L 102.813501 131.169882 
L 102.777967 130.548706 
L 102.256805 129.927529 
L 101.939961 129.306353 
L 101.797826 128.685176 
L 101.581662 128.064 
L 101.258897 127.442824 
L 100.947976 126.821647 
L 100.868025 126.200471 
L 100.779191 125.579294 
L 100.675551 124.958118 
L 100.669628 124.336941 
L 100.607444 123.715765 
L 100.355746 123.094588 
L 100.275795 122.473412 
L 99.627303 121.852235 
L 99.600653 121.231059 
L 99.491091 120.609882 
L 98.71823 119.988706 
L 98.670852 119.367529 
L 98.51095 118.746353 
L 97.749934 118.125176 
L 97.744012 117.504 
L 97.554499 116.882824 
L 97.258384 116.261647 
L 97.033336 115.640471 
L 97.012608 115.019294 
L 96.506252 114.398118 
L 96.408534 113.776941 
L 96.198292 113.155765 
L 96.147952 112.534588 
L 95.70378 112.534588 
L 95.579412 111.913412 
L 95.34252 111.292235 
L 95.274413 110.671059 
L 94.69995 110.049882 
L 94.303156 109.428706 
L 94.279467 108.807529 
L 94.217283 108.186353 
L 93.586558 107.565176 
L 93.246026 106.944 
L 92.976561 106.322824 
L 92.935105 105.701647 
L 92.807775 105.080471 
L 92.772242 104.459294 
L 92.467243 103.838118 
L 92.363603 103.216941 
L 91.880936 102.595765 
L 91.771373 101.974588 
L 91.564092 101.353412 
L 91.356812 100.732235 
L 91.007396 100.111059 
L 90.575068 99.489882 
L 90.462545 98.868706 
L 89.982838 98.247529 
L 89.742985 97.626353 
L 89.23959 97.005176 
L 88.77765 96.384 
L 88.691777 95.762824 
L 87.255619 95.141647 
L 87.211202 94.520471 
L 87.000961 93.899294 
L 86.43242 93.278118 
L 86.053393 93.278118 
L 85.71286 92.656941 
L 85.680288 92.035765 
L 85.606259 91.414588 
L 84.83636 90.793412 
L 84.711992 90.172235 
L 84.697186 89.551059 
L 84.486944 88.929882 
L 84.332965 88.308706 
L 84.131606 87.687529 
L 83.971704 87.066353 
L 83.72889 86.445176 
L 83.619327 85.824 
L 83.563066 85.202824 
L 83.252145 84.581647 
L 83.195883 83.960471 
L 82.991564 83.960471 
L 82.834623 83.339294 
L 82.630303 83.339294 
L 82.310499 82.718118 
L 82.266082 82.096941 
L 82.123947 81.475765 
L 82.035112 80.854588 
L 82.00254 80.233412 
L 81.943317 79.612235 
L 81.659046 78.991059 
L 81.33332 78.369882 
L 81.15269 77.748706 
L 80.815119 77.748706 
L 80.770701 77.127529 
L 80.705556 76.506353 
L 80.042258 76.506353 
L 80.003764 75.885176 
L 79.799444 75.264 
L 79.71061 74.642824 
L 79.571436 74.021647 
L 79.275321 73.400471 
L 79.180564 72.779294 
L 78.985128 72.779294 
L 78.875565 72.158118 
L 78.659402 71.536941 
L 78.443238 70.915765 
L 78.42251 70.915765 
L 78.416587 70.915765 
L 78.327753 70.915765 
L 78.244841 70.915765 
L 78.21819 70.294588 
L 77.095914 69.673412 
L 76.817566 69.673412 
L 76.539218 69.673412 
L 76.023978 69.673412 
L 75.757475 69.052235 
L 75.644951 69.052235 
L 75.496893 68.431059 
L 75.393253 67.809882 
L 74.851363 67.809882 
L 74.738839 67.809882 
L 74.214716 67.809882 
L 73.983746 67.809882 
L 73.832727 67.188706 
z
" clip-path="url(#pdfb8ae6ac6)" style="fill: #7cfc00"/>
   </g>
   <g id="PolyCollection_3">
    <path d="M 73.832727 54.144 
L 73.832727 67.188706 
L 73.983746 67.809882 
L 74.214716 67.809882 
L 74.738839 67.809882 
L 74.851363 67.809882 
L 75.393253 67.809882 
L 75.496893 68.431059 
L 75.644951 69.052235 
L 75.757475 69.052235 
L 76.023978 69.673412 
L 76.539218 69.673412 
L 76.817566 69.673412 
L 77.095914 69.673412 
L 78.21819 70.294588 
L 78.244841 70.915765 
L 78.327753 70.915765 
L 78.416587 70.915765 
L 78.42251 70.915765 
L 78.443238 70.915765 
L 78.659402 71.536941 
L 78.875565 72.158118 
L 78.985128 72.779294 
L 79.180564 72.779294 
L 79.275321 73.400471 
L 79.571436 74.021647 
L 79.71061 74.642824 
L 79.799444 75.264 
L 80.003764 75.885176 
L 80.042258 76.506353 
L 80.705556 76.506353 
L 80.770701 77.127529 
L 80.815119 77.748706 
L 81.15269 77.748706 
L 81.33332 78.369882 
L 81.659046 78.991059 
L 81.943317 79.612235 
L 82.00254 80.233412 
L 82.035112 80.854588 
L 82.123947 81.475765 
L 82.266082 82.096941 
L 82.310499 82.718118 
L 82.630303 83.339294 
L 82.834623 83.339294 
L 82.991564 83.960471 
L 83.195883 83.960471 
L 83.252145 84.581647 
L 83.563066 85.202824 
L 83.619327 85.824 
L 83.72889 86.445176 
L 83.971704 87.066353 
L 84.131606 87.687529 
L 84.332965 88.308706 
L 84.486944 88.929882 
L 84.697186 89.551059 
L 84.711992 90.172235 
L 84.83636 90.793412 
L 85.606259 91.414588 
L 85.680288 92.035765 
L 85.71286 92.656941 
L 86.053393 93.278118 
L 86.43242 93.278118 
L 87.000961 93.899294 
L 87.211202 94.520471 
L 87.255619 95.141647 
L 88.691777 95.762824 
L 88.77765 96.384 
L 89.23959 97.005176 
L 89.742985 97.626353 
L 89.982838 98.247529 
L 90.462545 98.868706 
L 90.575068 99.489882 
L 91.007396 100.111059 
L 91.356812 100.732235 
L 91.564092 101.353412 
L 91.771373 101.974588 
L 91.880936 102.595765 
L 92.363603 103.216941 
L 92.467243 103.838118 
L 92.772242 104.459294 
L 92.807775 105.080471 
L 92.935105 105.701647 
L 92.976561 106.322824 
L 93.246026 106.944 
L 93.586558 107.565176 
L 94.217283 108.186353 
L 94.279467 108.807529 
L 94.303156 109.428706 
L 94.69995 110.049882 
L 95.274413 110.671059 
L 95.34252 111.292235 
L 95.579412 111.913412 
L 95.70378 112.534588 
L 96.147952 112.534588 
L 96.198292 113.155765 
L 96.408534 113.776941 
L 96.506252 114.398118 
L 97.012608 115.019294 
L 97.033336 115.640471 
L 97.258384 116.261647 
L 97.554499 116.882824 
L 97.744012 117.504 
L 97.749934 118.125176 
L 98.51095 118.746353 
L 98.670852 119.367529 
L 98.71823 119.988706 
L 99.491091 120.609882 
L 99.600653 121.231059 
L 99.627303 121.852235 
L 100.275795 122.473412 
L 100.355746 123.094588 
L 100.607444 123.715765 
L 100.669628 124.336941 
L 100.675551 124.958118 
L 100.779191 125.579294 
L 100.868025 126.200471 
L 100.947976 126.821647 
L 101.258897 127.442824 
L 101.581662 128.064 
L 101.797826 128.685176 
L 101.939961 129.306353 
L 102.256805 129.927529 
L 102.777967 130.548706 
L 102.813501 131.169882 
L 103.014859 131.791059 
L 103.269518 132.412235 
L 103.470876 133.033412 
L 103.86767 133.654588 
L 103.97131 134.275765 
L 104.036456 134.896941 
L 104.652375 135.518118 
L 104.785626 136.139294 
L 104.886306 136.760471 
L 105.12912 137.381647 
L 105.531836 138.002824 
L 105.573292 138.624 
L 105.733194 139.245176 
L 105.836835 139.866353 
L 106.064843 140.487529 
L 106.698529 141.729882 
L 106.722218 142.972235 
L 106.861393 143.593412 
L 106.920616 144.214588 
L 106.994644 144.835765 
L 107.261148 145.456941 
L 107.429933 146.078118 
L 107.474351 146.699294 
L 107.598719 147.320471 
L 107.930368 147.941647 
L 108.534442 148.562824 
L 109.188856 149.184 
L 109.265846 149.805176 
L 109.653757 150.426353 
L 109.943949 150.426353 
L 109.967639 151.047529 
L 110.669431 151.668706 
L 110.699043 152.289882 
L 110.755305 152.911059 
L 110.947779 153.532235 
L 111.012925 154.153412 
L 111.063264 154.774588 
L 111.436369 155.395765 
L 111.652533 155.395765 
L 111.933842 156.016941 
L 112.265491 156.638118 
L 112.410587 157.259294 
L 112.496461 157.880471 
L 113.24267 158.501647 
L 113.971113 159.122824 
L 114.190238 159.744 
L 114.800235 160.365176 
L 114.903875 160.986353 
L 114.936448 161.607529 
L 115.451688 162.228706 
L 115.747803 162.849882 
L 115.824793 163.471059 
L 116.04984 164.092235 
L 116.162364 164.713412 
L 116.337072 165.334588 
L 116.938185 165.955765 
L 116.979641 166.576941 
L 116.997408 167.198118 
L 117.071437 167.819294 
L 117.299446 168.440471 
L 117.346824 169.061647 
L 117.497843 169.682824 
L 117.648861 170.304 
L 118.042694 170.925176 
L 118.377304 171.546353 
L 118.605313 172.167529 
L 118.966573 172.788706 
L 119.135359 173.409882 
L 119.52623 174.031059 
L 119.54992 174.652235 
L 119.618026 175.273412 
L 119.635793 175.894588 
L 119.692055 176.515765 
L 119.872685 177.136941 
L 120.047393 177.758118 
L 120.325741 178.379294 
L 120.361275 179.000471 
L 120.627778 179.621647 
L 120.645545 180.242824 
L 120.835059 180.864 
L 121.732287 181.485176 
L 121.850733 182.106353 
L 122.360051 182.727529 
L 122.445924 183.348706 
L 122.558448 183.969882 
L 122.620632 184.591059 
L 122.623593 185.212235 
L 122.999659 185.833412 
L 123.476404 186.454588 
L 123.811014 187.075765 
L 124.498001 187.696941 
L 124.885912 188.318118 
L 125.170182 188.939294 
L 125.259016 189.560471 
L 125.279744 190.181647 
L 125.561054 190.802824 
L 125.759451 191.424 
L 125.869013 192.045176 
L 126.020032 192.666353 
L 126.111828 193.287529 
L 126.150323 193.908706 
L 126.407943 194.529882 
L 126.461243 195.151059 
L 126.828426 195.772235 
L 126.89061 196.393412 
L 127.023862 197.014588 
L 127.278521 197.635765 
L 127.444345 198.256941 
L 128.6673 198.878118 
L 129.188462 199.499294 
L 129.475694 200.120471 
L 129.866566 200.741647 
L 130.304816 201.362824 
L 130.488407 201.984 
L 131.056948 202.605176 
L 131.678789 203.226353 
L 132.448688 203.847529 
L 132.593785 204.468706 
L 132.996501 205.089882 
L 133.257082 205.711059 
L 133.428829 206.332235 
L 133.514702 206.953412 
L 135.134451 207.574588 
L 135.599352 208.195765 
L 135.658575 208.816941 
L 135.717798 209.438118 
L 135.969495 210.059294 
L 136.259688 210.680471 
L 136.440318 211.301647 
L 136.452163 211.922824 
L 136.724589 212.544 
L 136.958519 213.165176 
L 137.162839 213.786353 
L 137.230945 214.407529 
L 137.746185 215.028706 
L 138.068951 215.649882 
L 138.148902 216.271059 
L 138.661181 216.892235 
L 138.690792 217.513412 
L 139.016519 218.134588 
L 139.659088 218.755765 
L 139.975931 219.376941 
L 140.055882 219.998118 
L 140.192095 220.619294 
L 140.710296 221.240471 
L 141.113013 221.861647 
L 141.379516 222.482824 
L 142.540287 223.104 
L 143.280574 223.725176 
L 143.289458 224.346353 
L 143.351642 224.967529 
L 143.375331 225.588706 
L 143.57965 226.209882 
L 144.281443 226.831059 
L 144.716732 227.452235 
L 144.734499 228.073412 
L 145.723523 228.694588 
L 145.821241 229.315765 
L 146.422354 229.936941 
L 146.446043 230.558118 
L 146.913905 231.179294 
L 147.050118 231.800471 
L 147.743027 232.421647 
L 148.364869 233.042824 
L 148.44482 233.664 
L 148.474431 234.285176 
L 149.427921 234.906353 
L 149.709231 235.527529 
L 149.756609 236.148706 
L 150.031996 236.769882 
L 150.94403 237.391059 
L 153.499502 238.012235 
L 153.881491 238.633412 
L 153.970325 239.254588 
L 154.609934 239.875765 
L 154.615856 240.496941 
L 154.737263 241.118118 
L 155.643375 241.739294 
L 156.040169 242.360471 
L 156.235605 242.981647 
L 156.795262 243.602824 
L 157.094338 244.224 
L 157.239435 244.845176 
L 157.423026 245.466353 
L 157.680646 246.087529 
L 157.982683 246.708706 
L 158.086323 247.329882 
L 158.432778 247.951059 
L 159.563937 248.572235 
L 159.617238 249.193412 
L 160.47301 249.814588 
L 160.496699 250.435765 
L 160.67733 251.056941 
L 160.748397 251.678118 
L 160.775048 252.299294 
L 161.509413 252.920471 
L 161.521257 253.541647 
L 161.604169 254.162824 
L 161.826256 254.784 
L 162.329651 255.405176 
L 162.468825 256.026353 
L 164.127069 256.647529 
L 164.221826 257.268706 
L 164.944347 257.889882 
L 165.065754 258.511059 
L 165.504004 259.132235 
L 166.205796 259.753412 
L 166.946084 260.374588 
L 167.520547 260.995765 
L 167.547197 261.616941 
L 167.603459 262.238118 
L 168.050593 262.859294 
L 168.639861 263.480471 
L 168.651706 264.101647 
L 168.974471 264.722824 
L 169.110684 265.344 
L 170.004952 265.965176 
L 170.250727 266.586353 
L 170.478736 267.207529 
L 170.555725 267.828706 
L 170.854802 268.449882 
L 172.841733 269.071059 
L 172.945373 269.692235 
L 173.34809 270.313412 
L 173.824835 270.934588 
L 174.020271 271.555765 
L 174.141678 272.176941 
L 174.615462 272.798118 
L 175.580797 273.419294 
L 175.728854 274.040471 
L 176.173027 274.661647 
L 179.024614 275.282824 
L 179.225972 275.904 
L 180.149851 276.525176 
L 180.58514 277.767529 
L 181.414262 278.388706 
L 181.53863 279.009882 
L 182.814886 279.631059 
L 183.303475 280.252235 
L 186.477828 280.873412 
L 187.446124 281.494588 
L 188.384809 282.115765 
L 188.802331 282.736941 
L 189.347182 283.358118 
L 189.637375 283.979294 
L 190.481303 284.600471 
L 193.922159 285.221647 
L 194.277497 285.842824 
L 195.245793 286.464 
L 196.163749 287.085176 
L 196.240739 287.706353 
L 199.604605 288.327529 
L 200.244214 288.948706 
L 206.889034 289.569882 
L 209.927174 290.191059 
L 211.36037 290.812235 
L 212.02959 291.433412 
L 212.630703 292.054588 
L 213.622689 292.675765 
L 217.176068 293.296941 
L 221.277261 293.918118 
L 223.287882 294.539294 
L 230.738135 295.160471 
L 235.049569 295.781647 
L 235.970486 296.402824 
L 238.235766 297.024 
L 238.869452 297.645176 
L 243.619136 298.266353 
L 244.338696 298.887529 
L 245.238885 299.508706 
L 245.943639 300.129882 
L 246.15092 300.751059 
L 251.478028 301.372235 
L 272.123165 301.993412 
L 281.308652 302.614588 
L 282.075589 303.235765 
L 283.606504 303.856941 
L 287.938666 304.478118 
L 310.721753 305.099294 
L 330.345293 305.720471 
L 333.137657 306.341647 
L 398.487273 306.962824 
L 398.487273 306.962824 
L 398.487273 306.962824 
L 333.137657 306.341647 
L 330.345293 305.720471 
L 310.721753 305.099294 
L 287.938666 304.478118 
L 283.606504 303.856941 
L 282.075589 303.235765 
L 281.308652 302.614588 
L 272.123165 301.993412 
L 251.478028 301.372235 
L 246.15092 300.751059 
L 245.943639 300.129882 
L 245.238885 299.508706 
L 244.338696 298.887529 
L 243.619136 298.266353 
L 238.869452 297.645176 
L 238.235766 297.024 
L 235.970486 296.402824 
L 235.049569 295.781647 
L 230.738135 295.160471 
L 223.287882 294.539294 
L 221.277261 293.918118 
L 217.176068 293.296941 
L 213.622689 292.675765 
L 212.630703 292.054588 
L 212.02959 291.433412 
L 211.36037 290.812235 
L 209.927174 290.191059 
L 206.889034 289.569882 
L 200.244214 288.948706 
L 199.604605 288.327529 
L 196.240739 287.706353 
L 196.163749 287.085176 
L 195.245793 286.464 
L 194.277497 285.842824 
L 193.922159 285.221647 
L 190.481303 284.600471 
L 189.637375 283.979294 
L 189.347182 283.358118 
L 188.802331 282.736941 
L 188.384809 282.115765 
L 187.446124 281.494588 
L 186.477828 280.873412 
L 183.303475 280.252235 
L 182.814886 279.631059 
L 181.53863 279.009882 
L 181.414262 278.388706 
L 180.58514 277.767529 
L 180.149851 276.525176 
L 179.225972 275.904 
L 179.024614 275.282824 
L 176.173027 274.661647 
L 175.728854 274.040471 
L 175.580797 273.419294 
L 174.615462 272.798118 
L 174.141678 272.176941 
L 174.020271 271.555765 
L 173.824835 270.934588 
L 173.34809 270.313412 
L 172.945373 269.692235 
L 172.841733 269.071059 
L 170.854802 268.449882 
L 170.555725 267.828706 
L 170.478736 267.207529 
L 170.250727 266.586353 
L 170.004952 265.965176 
L 169.110684 265.344 
L 168.974471 264.722824 
L 168.651706 264.101647 
L 168.639861 263.480471 
L 168.050593 262.859294 
L 167.603459 262.238118 
L 167.547197 261.616941 
L 167.520547 260.995765 
L 166.946084 260.374588 
L 166.205796 259.753412 
L 165.504004 259.132235 
L 165.065754 258.511059 
L 164.944347 257.889882 
L 164.221826 257.268706 
L 164.127069 256.647529 
L 162.468825 256.026353 
L 162.329651 255.405176 
L 161.826256 254.784 
L 161.604169 254.162824 
L 161.521257 253.541647 
L 161.509413 252.920471 
L 160.775048 252.299294 
L 160.748397 251.678118 
L 160.67733 251.056941 
L 160.496699 250.435765 
L 160.47301 249.814588 
L 159.617238 249.193412 
L 159.563937 248.572235 
L 158.432778 247.951059 
L 158.086323 247.329882 
L 157.982683 246.708706 
L 157.680646 246.087529 
L 157.423026 245.466353 
L 157.239435 244.845176 
L 157.094338 244.224 
L 156.795262 243.602824 
L 156.235605 242.981647 
L 156.040169 242.360471 
L 155.643375 241.739294 
L 154.737263 241.118118 
L 154.615856 240.496941 
L 154.609934 239.875765 
L 153.970325 239.254588 
L 153.881491 238.633412 
L 153.499502 238.012235 
L 150.94403 237.391059 
L 150.031996 236.769882 
L 149.756609 236.148706 
L 149.709231 235.527529 
L 149.427921 234.906353 
L 148.474431 234.285176 
L 148.44482 233.664 
L 148.364869 233.042824 
L 147.743027 232.421647 
L 147.050118 231.800471 
L 146.913905 231.179294 
L 146.446043 230.558118 
L 146.422354 229.936941 
L 145.821241 229.315765 
L 145.723523 228.694588 
L 144.734499 228.073412 
L 144.716732 227.452235 
L 144.281443 226.831059 
L 143.57965 226.209882 
L 143.375331 225.588706 
L 143.351642 224.967529 
L 143.289458 224.346353 
L 143.280574 223.725176 
L 142.540287 223.104 
L 141.379516 222.482824 
L 141.113013 221.861647 
L 140.710296 221.240471 
L 140.192095 220.619294 
L 140.055882 219.998118 
L 139.975931 219.376941 
L 139.659088 218.755765 
L 139.016519 218.134588 
L 138.690792 217.513412 
L 138.661181 216.892235 
L 138.148902 216.271059 
L 138.068951 215.649882 
L 137.746185 215.028706 
L 137.230945 214.407529 
L 137.162839 213.786353 
L 136.958519 213.165176 
L 136.724589 212.544 
L 136.452163 211.922824 
L 136.440318 211.301647 
L 136.259688 210.680471 
L 135.969495 210.059294 
L 135.717798 209.438118 
L 135.658575 208.816941 
L 135.599352 208.195765 
L 135.134451 207.574588 
L 133.514702 206.953412 
L 133.428829 206.332235 
L 133.257082 205.711059 
L 132.996501 205.089882 
L 132.593785 204.468706 
L 132.448688 203.847529 
L 131.678789 203.226353 
L 131.056948 202.605176 
L 130.488407 201.984 
L 130.304816 201.362824 
L 129.866566 200.741647 
L 129.475694 200.120471 
L 129.188462 199.499294 
L 128.6673 198.878118 
L 127.444345 198.256941 
L 127.278521 197.635765 
L 127.023862 197.014588 
L 126.89061 196.393412 
L 126.828426 195.772235 
L 126.461243 195.151059 
L 126.407943 194.529882 
L 126.150323 193.908706 
L 126.111828 193.287529 
L 126.020032 192.666353 
L 125.869013 192.045176 
L 125.759451 191.424 
L 125.561054 190.802824 
L 125.279744 190.181647 
L 125.259016 189.560471 
L 125.170182 188.939294 
L 124.885912 188.318118 
L 124.498001 187.696941 
L 123.811014 187.075765 
L 123.476404 186.454588 
L 122.999659 185.833412 
L 122.623593 185.212235 
L 122.620632 184.591059 
L 122.558448 183.969882 
L 122.445924 183.348706 
L 122.360051 182.727529 
L 121.850733 182.106353 
L 121.732287 181.485176 
L 120.835059 180.864 
L 120.645545 180.242824 
L 120.627778 179.621647 
L 120.361275 179.000471 
L 120.325741 178.379294 
L 120.047393 177.758118 
L 119.872685 177.136941 
L 119.692055 176.515765 
L 119.635793 175.894588 
L 119.618026 175.273412 
L 119.54992 174.652235 
L 119.52623 174.031059 
L 119.135359 173.409882 
L 118.966573 172.788706 
L 118.605313 172.167529 
L 118.377304 171.546353 
L 118.042694 170.925176 
L 117.648861 170.304 
L 117.497843 169.682824 
L 117.346824 169.061647 
L 117.299446 168.440471 
L 117.071437 167.819294 
L 116.997408 167.198118 
L 116.979641 166.576941 
L 116.938185 165.955765 
L 116.337072 165.334588 
L 116.162364 164.713412 
L 116.04984 164.092235 
L 115.824793 163.471059 
L 115.747803 162.849882 
L 115.451688 162.228706 
L 114.936448 161.607529 
L 114.903875 160.986353 
L 114.800235 160.365176 
L 114.190238 159.744 
L 113.971113 159.122824 
L 113.24267 158.501647 
L 112.496461 157.880471 
L 112.410587 157.259294 
L 112.265491 156.638118 
L 111.933842 156.016941 
L 111.652533 155.395765 
L 111.436369 154.774588 
L 111.063264 154.153412 
L 111.012925 153.532235 
L 110.947779 152.911059 
L 110.755305 152.289882 
L 110.699043 151.668706 
L 110.669431 151.047529 
L 109.967639 150.426353 
L 109.943949 149.805176 
L 109.653757 149.184 
L 109.265846 148.562824 
L 109.188856 147.941647 
L 108.534442 147.320471 
L 107.930368 146.699294 
L 107.598719 146.078118 
L 107.474351 145.456941 
L 107.429933 144.835765 
L 107.261148 144.214588 
L 106.994644 143.593412 
L 106.920616 142.972235 
L 106.861393 142.351059 
L 106.722218 141.729882 
L 106.698529 140.487529 
L 106.064843 139.245176 
L 105.836835 138.624 
L 105.733194 138.002824 
L 105.573292 137.381647 
L 105.531836 136.760471 
L 105.12912 136.139294 
L 104.886306 135.518118 
L 104.785626 134.896941 
L 104.652375 134.275765 
L 104.036456 133.654588 
L 103.97131 133.033412 
L 103.86767 132.412235 
L 103.470876 131.791059 
L 103.269518 131.169882 
L 103.014859 130.548706 
L 102.813501 129.927529 
L 102.777967 129.306353 
L 102.256805 128.685176 
L 101.939961 128.064 
L 101.797826 127.442824 
L 101.581662 126.821647 
L 101.258897 126.200471 
L 100.947976 125.579294 
L 100.868025 124.958118 
L 100.779191 124.336941 
L 100.675551 123.715765 
L 100.669628 123.094588 
L 100.607444 122.473412 
L 100.355746 121.852235 
L 100.275795 121.231059 
L 99.627303 120.609882 
L 99.600653 119.988706 
L 99.491091 119.367529 
L 98.71823 118.746353 
L 98.670852 118.125176 
L 98.51095 117.504 
L 97.749934 116.882824 
L 97.744012 116.261647 
L 97.554499 115.640471 
L 97.258384 115.019294 
L 97.033336 114.398118 
L 97.012608 113.776941 
L 96.506252 113.155765 
L 96.408534 112.534588 
L 96.198292 111.913412 
L 96.147952 111.292235 
L 95.70378 110.671059 
L 95.579412 110.049882 
L 95.34252 109.428706 
L 95.274413 108.807529 
L 94.69995 108.186353 
L 94.303156 107.565176 
L 94.279467 106.944 
L 94.217283 106.322824 
L 93.586558 105.701647 
L 93.246026 105.080471 
L 92.976561 104.459294 
L 92.935105 103.838118 
L 92.807775 103.216941 
L 92.772242 102.595765 
L 92.467243 101.974588 
L 92.363603 101.353412 
L 91.880936 100.732235 
L 91.771373 100.111059 
L 91.564092 99.489882 
L 91.356812 98.868706 
L 91.007396 98.247529 
L 90.575068 97.626353 
L 90.462545 97.005176 
L 89.982838 96.384 
L 89.742985 95.762824 
L 89.23959 95.141647 
L 88.77765 94.520471 
L 88.691777 93.899294 
L 87.255619 93.278118 
L 87.211202 92.656941 
L 87.000961 92.035765 
L 86.43242 91.414588 
L 86.053393 90.793412 
L 85.71286 90.172235 
L 85.680288 89.551059 
L 85.606259 88.929882 
L 84.83636 88.308706 
L 84.711992 87.687529 
L 84.697186 87.066353 
L 84.486944 86.445176 
L 84.332965 85.824 
L 84.131606 85.202824 
L 83.971704 84.581647 
L 83.72889 83.960471 
L 83.619327 83.339294 
L 83.563066 82.718118 
L 83.252145 82.096941 
L 83.195883 81.475765 
L 82.991564 80.854588 
L 82.834623 80.233412 
L 82.630303 79.612235 
L 82.310499 78.991059 
L 82.266082 78.369882 
L 82.123947 77.748706 
L 82.035112 77.127529 
L 82.00254 76.506353 
L 81.943317 75.885176 
L 81.659046 75.264 
L 81.33332 74.642824 
L 81.15269 74.021647 
L 80.815119 73.400471 
L 80.770701 72.779294 
L 80.705556 72.158118 
L 80.042258 71.536941 
L 80.003764 70.915765 
L 79.799444 70.294588 
L 79.71061 69.673412 
L 79.571436 69.052235 
L 79.275321 68.431059 
L 79.180564 67.809882 
L 78.985128 67.188706 
L 78.875565 66.567529 
L 78.659402 65.946353 
L 78.443238 65.325176 
L 78.42251 64.704 
L 78.416587 64.082824 
L 78.327753 63.461647 
L 78.244841 62.840471 
L 78.21819 62.219294 
L 77.095914 61.598118 
L 76.817566 60.976941 
L 76.539218 60.355765 
L 76.023978 59.734588 
L 75.757475 59.113412 
L 75.644951 58.492235 
L 75.496893 57.871059 
L 75.393253 57.249882 
L 74.851363 56.628706 
L 74.738839 56.007529 
L 74.214716 55.386353 
L 73.983746 54.765176 
L 73.832727 54.144 
z
" clip-path="url(#pdfb8ae6ac6)" style="fill: #ff0000"/>
   </g>
   <g id="matplotlib.axis_1">
    <g id="xtick_1">
     <g id="line2d_1">
      <defs>
       <path id="m1958012bdd" d="M 0 0 
L 0 3.5 
" style="stroke: #000000; stroke-width: 0.8"/>
      </defs>
      <g>
       <use xlink:href="#m1958012bdd" x="58.067566" y="307.584" style="stroke: #000000; stroke-width: 0.8"/>
      </g>
     </g>
     <g id="text_1">
      <!-- 0 -->
      <g transform="translate(54.886316 322.182437)scale(0.1 -0.1)">
       <defs>
        <path id="DejaVuSans-30" d="M 2034 4250 
Q 1547 4250 1301 3770 
Q 1056 3291 1056 2328 
Q 1056 1369 1301 889 
Q 1547 409 2034 409 
Q 2525 409 2770 889 
Q 3016 1369 3016 2328 
Q 3016 3291 2770 3770 
Q 2525 4250 2034 4250 
z
M 2034 4750 
Q 2819 4750 3233 4129 
Q 3647 3509 3647 2328 
Q 3647 1150 3233 529 
Q 2819 -91 2034 -91 
Q 1250 -91 836 529 
Q 422 1150 422 2328 
Q 422 3509 836 4129 
Q 1250 4750 2034 4750 
z
" transform="scale(0.015625)"/>
       </defs>
       <use xlink:href="#DejaVuSans-30"/>
      </g>
     </g>
    </g>
    <g id="xtick_2">
     <g id="line2d_2">
      <g>
       <use xlink:href="#m1958012bdd" x="117.290562" y="307.584" style="stroke: #000000; stroke-width: 0.8"/>
      </g>
     </g>
     <g id="text_2">
      <!-- 200 -->
      <g transform="translate(107.746812 322.182437)scale(0.1 -0.1)">
       <defs>
        <path id="DejaVuSans-32" d="M 1228 531 
L 3431 531 
L 3431 0 
L 469 0 
L 469 531 
Q 828 903 1448 1529 
Q 2069 2156 2228 2338 
Q 2531 2678 2651 2914 
Q 2772 3150 2772 3378 
Q 2772 3750 2511 3984 
Q 2250 4219 1831 4219 
Q 1534 4219 1204 4116 
Q 875 4013 500 3803 
L 500 4441 
Q 881 4594 1212 4672 
Q 1544 4750 1819 4750 
Q 2544 4750 2975 4387 
Q 3406 4025 3406 3419 
Q 3406 3131 3298 2873 
Q 3191 2616 2906 2266 
Q 2828 2175 2409 1742 
Q 1991 1309 1228 531 
z
" transform="scale(0.015625)"/>
       </defs>
       <use xlink:href="#DejaVuSans-32"/>
       <use xlink:href="#DejaVuSans-30" x="63.623047"/>
       <use xlink:href="#DejaVuSans-30" x="127.246094"/>
      </g>
     </g>
    </g>
    <g id="xtick_3">
     <g id="line2d_3">
      <g>
       <use xlink:href="#m1958012bdd" x="176.513559" y="307.584" style="stroke: #000000; stroke-width: 0.8"/>
      </g>
     </g>
     <g id="text_3">
      <!-- 400 -->
      <g transform="translate(166.969809 322.182437)scale(0.1 -0.1)">
       <defs>
        <path id="DejaVuSans-34" d="M 2419 4116 
L 825 1625 
L 2419 1625 
L 2419 4116 
z
M 2253 4666 
L 3047 4666 
L 3047 1625 
L 3713 1625 
L 3713 1100 
L 3047 1100 
L 3047 0 
L 2419 0 
L 2419 1100 
L 313 1100 
L 313 1709 
L 2253 4666 
z
" transform="scale(0.015625)"/>
       </defs>
       <use xlink:href="#DejaVuSans-34"/>
       <use xlink:href="#DejaVuSans-30" x="63.623047"/>
       <use xlink:href="#DejaVuSans-30" x="127.246094"/>
      </g>
     </g>
    </g>
    <g id="xtick_4">
     <g id="line2d_4">
      <g>
       <use xlink:href="#m1958012bdd" x="235.736556" y="307.584" style="stroke: #000000; stroke-width: 0.8"/>
      </g>
     </g>
     <g id="text_4">
      <!-- 600 -->
      <g transform="translate(226.192806 322.182437)scale(0.1 -0.1)">
       <defs>
        <path id="DejaVuSans-36" d="M 2113 2584 
Q 1688 2584 1439 2293 
Q 1191 2003 1191 1497 
Q 1191 994 1439 701 
Q 1688 409 2113 409 
Q 2538 409 2786 701 
Q 3034 994 3034 1497 
Q 3034 2003 2786 2293 
Q 2538 2584 2113 2584 
z
M 3366 4563 
L 3366 3988 
Q 3128 4100 2886 4159 
Q 2644 4219 2406 4219 
Q 1781 4219 1451 3797 
Q 1122 3375 1075 2522 
Q 1259 2794 1537 2939 
Q 1816 3084 2150 3084 
Q 2853 3084 3261 2657 
Q 3669 2231 3669 1497 
Q 3669 778 3244 343 
Q 2819 -91 2113 -91 
Q 1303 -91 875 529 
Q 447 1150 447 2328 
Q 447 3434 972 4092 
Q 1497 4750 2381 4750 
Q 2619 4750 2861 4703 
Q 3103 4656 3366 4563 
z
" transform="scale(0.015625)"/>
       </defs>
       <use xlink:href="#DejaVuSans-36"/>
       <use xlink:href="#DejaVuSans-30" x="63.623047"/>
       <use xlink:href="#DejaVuSans-30" x="127.246094"/>
      </g>
     </g>
    </g>
    <g id="xtick_5">
     <g id="line2d_5">
      <g>
       <use xlink:href="#m1958012bdd" x="294.959552" y="307.584" style="stroke: #000000; stroke-width: 0.8"/>
      </g>
     </g>
     <g id="text_5">
      <!-- 800 -->
      <g transform="translate(285.415802 322.182437)scale(0.1 -0.1)">
       <defs>
        <path id="DejaVuSans-38" d="M 2034 2216 
Q 1584 2216 1326 1975 
Q 1069 1734 1069 1313 
Q 1069 891 1326 650 
Q 1584 409 2034 409 
Q 2484 409 2743 651 
Q 3003 894 3003 1313 
Q 3003 1734 2745 1975 
Q 2488 2216 2034 2216 
z
M 1403 2484 
Q 997 2584 770 2862 
Q 544 3141 544 3541 
Q 544 4100 942 4425 
Q 1341 4750 2034 4750 
Q 2731 4750 3128 4425 
Q 3525 4100 3525 3541 
Q 3525 3141 3298 2862 
Q 3072 2584 2669 2484 
Q 3125 2378 3379 2068 
Q 3634 1759 3634 1313 
Q 3634 634 3220 271 
Q 2806 -91 2034 -91 
Q 1263 -91 848 271 
Q 434 634 434 1313 
Q 434 1759 690 2068 
Q 947 2378 1403 2484 
z
M 1172 3481 
Q 1172 3119 1398 2916 
Q 1625 2713 2034 2713 
Q 2441 2713 2670 2916 
Q 2900 3119 2900 3481 
Q 2900 3844 2670 4047 
Q 2441 4250 2034 4250 
Q 1625 4250 1398 4047 
Q 1172 3844 1172 3481 
z
" transform="scale(0.015625)"/>
       </defs>
       <use xlink:href="#DejaVuSans-38"/>
       <use xlink:href="#DejaVuSans-30" x="63.623047"/>
       <use xlink:href="#DejaVuSans-30" x="127.246094"/>
      </g>
     </g>
    </g>
    <g id="xtick_6">
     <g id="line2d_6">
      <g>
       <use xlink:href="#m1958012bdd" x="354.182549" y="307.584" style="stroke: #000000; stroke-width: 0.8"/>
      </g>
     </g>
     <g id="text_6">
      <!-- 1000 -->
      <g transform="translate(341.457549 322.182437)scale(0.1 -0.1)">
       <defs>
        <path id="DejaVuSans-31" d="M 794 531 
L 1825 531 
L 1825 4091 
L 703 3866 
L 703 4441 
L 1819 4666 
L 2450 4666 
L 2450 531 
L 3481 531 
L 3481 0 
L 794 0 
L 794 531 
z
" transform="scale(0.015625)"/>
       </defs>
       <use xlink:href="#DejaVuSans-31"/>
       <use xlink:href="#DejaVuSans-30" x="63.623047"/>
       <use xlink:href="#DejaVuSans-30" x="127.246094"/>
       <use xlink:href="#DejaVuSans-30" x="190.869141"/>
      </g>
     </g>
    </g>
    <g id="xtick_7">
     <g id="line2d_7">
      <g>
       <use xlink:href="#m1958012bdd" x="413.405546" y="307.584" style="stroke: #000000; stroke-width: 0.8"/>
      </g>
     </g>
     <g id="text_7">
      <!-- 1200 -->
      <g transform="translate(400.680546 322.182437)scale(0.1 -0.1)">
       <use xlink:href="#DejaVuSans-31"/>
       <use xlink:href="#DejaVuSans-32" x="63.623047"/>
       <use xlink:href="#DejaVuSans-30" x="127.246094"/>
       <use xlink:href="#DejaVuSans-30" x="190.869141"/>
      </g>
     </g>
    </g>
    <g id="text_8">
     <!-- Score -->
     <g transform="translate(222.157656 335.860562)scale(0.1 -0.1)">
      <defs>
       <path id="DejaVuSans-53" d="M 3425 4513 
L 3425 3897 
Q 3066 4069 2747 4153 
Q 2428 4238 2131 4238 
Q 1616 4238 1336 4038 
Q 1056 3838 1056 3469 
Q 1056 3159 1242 3001 
Q 1428 2844 1947 2747 
L 2328 2669 
Q 3034 2534 3370 2195 
Q 3706 1856 3706 1288 
Q 3706 609 3251 259 
Q 2797 -91 1919 -91 
Q 1588 -91 1214 -16 
Q 841 59 441 206 
L 441 856 
Q 825 641 1194 531 
Q 1563 422 1919 422 
Q 2459 422 2753 634 
Q 3047 847 3047 1241 
Q 3047 1584 2836 1778 
Q 2625 1972 2144 2069 
L 1759 2144 
Q 1053 2284 737 2584 
Q 422 2884 422 3419 
Q 422 4038 858 4394 
Q 1294 4750 2059 4750 
Q 2388 4750 2728 4690 
Q 3069 4631 3425 4513 
z
" transform="scale(0.015625)"/>
       <path id="DejaVuSans-63" d="M 3122 3366 
L 3122 2828 
Q 2878 2963 2633 3030 
Q 2388 3097 2138 3097 
Q 1578 3097 1268 2742 
Q 959 2388 959 1747 
Q 959 1106 1268 751 
Q 1578 397 2138 397 
Q 2388 397 2633 464 
Q 2878 531 3122 666 
L 3122 134 
Q 2881 22 2623 -34 
Q 2366 -91 2075 -91 
Q 1284 -91 818 406 
Q 353 903 353 1747 
Q 353 2603 823 3093 
Q 1294 3584 2113 3584 
Q 2378 3584 2631 3529 
Q 2884 3475 3122 3366 
z
" transform="scale(0.015625)"/>
       <path id="DejaVuSans-6f" d="M 1959 3097 
Q 1497 3097 1228 2736 
Q 959 2375 959 1747 
Q 959 1119 1226 758 
Q 1494 397 1959 397 
Q 2419 397 2687 759 
Q 2956 1122 2956 1747 
Q 2956 2369 2687 2733 
Q 2419 3097 1959 3097 
z
M 1959 3584 
Q 2709 3584 3137 3096 
Q 3566 2609 3566 1747 
Q 3566 888 3137 398 
Q 2709 -91 1959 -91 
Q 1206 -91 779 398 
Q 353 888 353 1747 
Q 353 2609 779 3096 
Q 1206 3584 1959 3584 
z
" transform="scale(0.015625)"/>
       <path id="DejaVuSans-72" d="M 2631 2963 
Q 2534 3019 2420 3045 
Q 2306 3072 2169 3072 
Q 1681 3072 1420 2755 
Q 1159 2438 1159 1844 
L 1159 0 
L 581 0 
L 581 3500 
L 1159 3500 
L 1159 2956 
Q 1341 3275 1631 3429 
Q 1922 3584 2338 3584 
Q 2397 3584 2469 3576 
Q 2541 3569 2628 3553 
L 2631 2963 
z
" transform="scale(0.015625)"/>
       <path id="DejaVuSans-65" d="M 3597 1894 
L 3597 1613 
L 953 1613 
Q 991 1019 1311 708 
Q 1631 397 2203 397 
Q 2534 397 2845 478 
Q 3156 559 3463 722 
L 3463 178 
Q 3153 47 2828 -22 
Q 2503 -91 2169 -91 
Q 1331 -91 842 396 
Q 353 884 353 1716 
Q 353 2575 817 3079 
Q 1281 3584 2069 3584 
Q 2775 3584 3186 3129 
Q 3597 2675 3597 1894 
z
M 3022 2063 
Q 3016 2534 2758 2815 
Q 2500 3097 2075 3097 
Q 1594 3097 1305 2825 
Q 1016 2553 972 2059 
L 3022 2063 
z
" transform="scale(0.015625)"/>
      </defs>
      <use xlink:href="#DejaVuSans-53"/>
      <use xlink:href="#DejaVuSans-63" x="63.476562"/>
      <use xlink:href="#DejaVuSans-6f" x="118.457031"/>
      <use xlink:href="#DejaVuSans-72" x="179.638672"/>
      <use xlink:href="#DejaVuSans-65" x="218.501953"/>
     </g>
    </g>
   </g>
   <g id="matplotlib.axis_2">
    <g id="ytick_1">
     <g id="line2d_8">
      <defs>
       <path id="m03fd2bfbb3" d="M 0 0 
L -3.5 0 
" style="stroke: #000000; stroke-width: 0.8"/>
      </defs>
      <g>
       <use xlink:href="#m03fd2bfbb3" x="57.6" y="307.584" style="stroke: #000000; stroke-width: 0.8"/>
      </g>
     </g>
     <g id="text_9">
      <!-- 0 -->
      <g transform="translate(44.2375 311.383219)scale(0.1 -0.1)">
       <use xlink:href="#DejaVuSans-30"/>
      </g>
     </g>
    </g>
    <g id="ytick_2">
     <g id="line2d_9">
      <g>
       <use xlink:href="#m03fd2bfbb3" x="57.6" y="276.525176" style="stroke: #000000; stroke-width: 0.8"/>
      </g>
     </g>
     <g id="text_10">
      <!-- 50 -->
      <g transform="translate(37.875 280.324395)scale(0.1 -0.1)">
       <defs>
        <path id="DejaVuSans-35" d="M 691 4666 
L 3169 4666 
L 3169 4134 
L 1269 4134 
L 1269 2991 
Q 1406 3038 1543 3061 
Q 1681 3084 1819 3084 
Q 2600 3084 3056 2656 
Q 3513 2228 3513 1497 
Q 3513 744 3044 326 
Q 2575 -91 1722 -91 
Q 1428 -91 1123 -41 
Q 819 9 494 109 
L 494 744 
Q 775 591 1075 516 
Q 1375 441 1709 441 
Q 2250 441 2565 725 
Q 2881 1009 2881 1497 
Q 2881 1984 2565 2268 
Q 2250 2553 1709 2553 
Q 1456 2553 1204 2497 
Q 953 2441 691 2322 
L 691 4666 
z
" transform="scale(0.015625)"/>
       </defs>
       <use xlink:href="#DejaVuSans-35"/>
       <use xlink:href="#DejaVuSans-30" x="63.623047"/>
      </g>
     </g>
    </g>
    <g id="ytick_3">
     <g id="line2d_10">
      <g>
       <use xlink:href="#m03fd2bfbb3" x="57.6" y="245.466353" style="stroke: #000000; stroke-width: 0.8"/>
      </g>
     </g>
     <g id="text_11">
      <!-- 100 -->
      <g transform="translate(31.5125 249.265572)scale(0.1 -0.1)">
       <use xlink:href="#DejaVuSans-31"/>
       <use xlink:href="#DejaVuSans-30" x="63.623047"/>
       <use xlink:href="#DejaVuSans-30" x="127.246094"/>
      </g>
     </g>
    </g>
    <g id="ytick_4">
     <g id="line2d_11">
      <g>
       <use xlink:href="#m03fd2bfbb3" x="57.6" y="214.407529" style="stroke: #000000; stroke-width: 0.8"/>
      </g>
     </g>
     <g id="text_12">
      <!-- 150 -->
      <g transform="translate(31.5125 218.206748)scale(0.1 -0.1)">
       <use xlink:href="#DejaVuSans-31"/>
       <use xlink:href="#DejaVuSans-35" x="63.623047"/>
       <use xlink:href="#DejaVuSans-30" x="127.246094"/>
      </g>
     </g>
    </g>
    <g id="ytick_5">
     <g id="line2d_12">
      <g>
       <use xlink:href="#m03fd2bfbb3" x="57.6" y="183.348706" style="stroke: #000000; stroke-width: 0.8"/>
      </g>
     </g>
     <g id="text_13">
      <!-- 200 -->
      <g transform="translate(31.5125 187.147925)scale(0.1 -0.1)">
       <use xlink:href="#DejaVuSans-32"/>
       <use xlink:href="#DejaVuSans-30" x="63.623047"/>
       <use xlink:href="#DejaVuSans-30" x="127.246094"/>
      </g>
     </g>
    </g>
    <g id="ytick_6">
     <g id="line2d_13">
      <g>
       <use xlink:href="#m03fd2bfbb3" x="57.6" y="152.289882" style="stroke: #000000; stroke-width: 0.8"/>
      </g>
     </g>
     <g id="text_14">
      <!-- 250 -->
      <g transform="translate(31.5125 156.089101)scale(0.1 -0.1)">
       <use xlink:href="#DejaVuSans-32"/>
       <use xlink:href="#DejaVuSans-35" x="63.623047"/>
       <use xlink:href="#DejaVuSans-30" x="127.246094"/>
      </g>
     </g>
    </g>
    <g id="ytick_7">
     <g id="line2d_14">
      <g>
       <use xlink:href="#m03fd2bfbb3" x="57.6" y="121.231059" style="stroke: #000000; stroke-width: 0.8"/>
      </g>
     </g>
     <g id="text_15">
      <!-- 300 -->
      <g transform="translate(31.5125 125.030278)scale(0.1 -0.1)">
       <defs>
        <path id="DejaVuSans-33" d="M 2597 2516 
Q 3050 2419 3304 2112 
Q 3559 1806 3559 1356 
Q 3559 666 3084 287 
Q 2609 -91 1734 -91 
Q 1441 -91 1130 -33 
Q 819 25 488 141 
L 488 750 
Q 750 597 1062 519 
Q 1375 441 1716 441 
Q 2309 441 2620 675 
Q 2931 909 2931 1356 
Q 2931 1769 2642 2001 
Q 2353 2234 1838 2234 
L 1294 2234 
L 1294 2753 
L 1863 2753 
Q 2328 2753 2575 2939 
Q 2822 3125 2822 3475 
Q 2822 3834 2567 4026 
Q 2313 4219 1838 4219 
Q 1578 4219 1281 4162 
Q 984 4106 628 3988 
L 628 4550 
Q 988 4650 1302 4700 
Q 1616 4750 1894 4750 
Q 2613 4750 3031 4423 
Q 3450 4097 3450 3541 
Q 3450 3153 3228 2886 
Q 3006 2619 2597 2516 
z
" transform="scale(0.015625)"/>
       </defs>
       <use xlink:href="#DejaVuSans-33"/>
       <use xlink:href="#DejaVuSans-30" x="63.623047"/>
       <use xlink:href="#DejaVuSans-30" x="127.246094"/>
      </g>
     </g>
    </g>
    <g id="ytick_8">
     <g id="line2d_15">
      <g>
       <use xlink:href="#m03fd2bfbb3" x="57.6" y="90.172235" style="stroke: #000000; stroke-width: 0.8"/>
      </g>
     </g>
     <g id="text_16">
      <!-- 350 -->
      <g transform="translate(31.5125 93.971454)scale(0.1 -0.1)">
       <use xlink:href="#DejaVuSans-33"/>
       <use xlink:href="#DejaVuSans-35" x="63.623047"/>
       <use xlink:href="#DejaVuSans-30" x="127.246094"/>
      </g>
     </g>
    </g>
    <g id="ytick_9">
     <g id="line2d_16">
      <g>
       <use xlink:href="#m03fd2bfbb3" x="57.6" y="59.113412" style="stroke: #000000; stroke-width: 0.8"/>
      </g>
     </g>
     <g id="text_17">
      <!-- 400 -->
      <g transform="translate(31.5125 62.912631)scale(0.1 -0.1)">
       <use xlink:href="#DejaVuSans-34"/>
       <use xlink:href="#DejaVuSans-30" x="63.623047"/>
       <use xlink:href="#DejaVuSans-30" x="127.246094"/>
      </g>
     </g>
    </g>
    <g id="text_18">
     <!-- Number of crosslinks -->
     <g transform="translate(25.432812 227.019406)rotate(-90)scale(0.1 -0.1)">
      <defs>
       <path id="DejaVuSans-4e" d="M 628 4666 
L 1478 4666 
L 3547 763 
L 3547 4666 
L 4159 4666 
L 4159 0 
L 3309 0 
L 1241 3903 
L 1241 0 
L 628 0 
L 628 4666 
z
" transform="scale(0.015625)"/>
       <path id="DejaVuSans-75" d="M 544 1381 
L 544 3500 
L 1119 3500 
L 1119 1403 
Q 1119 906 1312 657 
Q 1506 409 1894 409 
Q 2359 409 2629 706 
Q 2900 1003 2900 1516 
L 2900 3500 
L 3475 3500 
L 3475 0 
L 2900 0 
L 2900 538 
Q 2691 219 2414 64 
Q 2138 -91 1772 -91 
Q 1169 -91 856 284 
Q 544 659 544 1381 
z
M 1991 3584 
L 1991 3584 
z
" transform="scale(0.015625)"/>
       <path id="DejaVuSans-6d" d="M 3328 2828 
Q 3544 3216 3844 3400 
Q 4144 3584 4550 3584 
Q 5097 3584 5394 3201 
Q 5691 2819 5691 2113 
L 5691 0 
L 5113 0 
L 5113 2094 
Q 5113 2597 4934 2840 
Q 4756 3084 4391 3084 
Q 3944 3084 3684 2787 
Q 3425 2491 3425 1978 
L 3425 0 
L 2847 0 
L 2847 2094 
Q 2847 2600 2669 2842 
Q 2491 3084 2119 3084 
Q 1678 3084 1418 2786 
Q 1159 2488 1159 1978 
L 1159 0 
L 581 0 
L 581 3500 
L 1159 3500 
L 1159 2956 
Q 1356 3278 1631 3431 
Q 1906 3584 2284 3584 
Q 2666 3584 2933 3390 
Q 3200 3197 3328 2828 
z
" transform="scale(0.015625)"/>
       <path id="DejaVuSans-62" d="M 3116 1747 
Q 3116 2381 2855 2742 
Q 2594 3103 2138 3103 
Q 1681 3103 1420 2742 
Q 1159 2381 1159 1747 
Q 1159 1113 1420 752 
Q 1681 391 2138 391 
Q 2594 391 2855 752 
Q 3116 1113 3116 1747 
z
M 1159 2969 
Q 1341 3281 1617 3432 
Q 1894 3584 2278 3584 
Q 2916 3584 3314 3078 
Q 3713 2572 3713 1747 
Q 3713 922 3314 415 
Q 2916 -91 2278 -91 
Q 1894 -91 1617 61 
Q 1341 213 1159 525 
L 1159 0 
L 581 0 
L 581 4863 
L 1159 4863 
L 1159 2969 
z
" transform="scale(0.015625)"/>
       <path id="DejaVuSans-20" transform="scale(0.015625)"/>
       <path id="DejaVuSans-66" d="M 2375 4863 
L 2375 4384 
L 1825 4384 
Q 1516 4384 1395 4259 
Q 1275 4134 1275 3809 
L 1275 3500 
L 2222 3500 
L 2222 3053 
L 1275 3053 
L 1275 0 
L 697 0 
L 697 3053 
L 147 3053 
L 147 3500 
L 697 3500 
L 697 3744 
Q 697 4328 969 4595 
Q 1241 4863 1831 4863 
L 2375 4863 
z
" transform="scale(0.015625)"/>
       <path id="DejaVuSans-73" d="M 2834 3397 
L 2834 2853 
Q 2591 2978 2328 3040 
Q 2066 3103 1784 3103 
Q 1356 3103 1142 2972 
Q 928 2841 928 2578 
Q 928 2378 1081 2264 
Q 1234 2150 1697 2047 
L 1894 2003 
Q 2506 1872 2764 1633 
Q 3022 1394 3022 966 
Q 3022 478 2636 193 
Q 2250 -91 1575 -91 
Q 1294 -91 989 -36 
Q 684 19 347 128 
L 347 722 
Q 666 556 975 473 
Q 1284 391 1588 391 
Q 1994 391 2212 530 
Q 2431 669 2431 922 
Q 2431 1156 2273 1281 
Q 2116 1406 1581 1522 
L 1381 1569 
Q 847 1681 609 1914 
Q 372 2147 372 2553 
Q 372 3047 722 3315 
Q 1072 3584 1716 3584 
Q 2034 3584 2315 3537 
Q 2597 3491 2834 3397 
z
" transform="scale(0.015625)"/>
       <path id="DejaVuSans-6c" d="M 603 4863 
L 1178 4863 
L 1178 0 
L 603 0 
L 603 4863 
z
" transform="scale(0.015625)"/>
       <path id="DejaVuSans-69" d="M 603 3500 
L 1178 3500 
L 1178 0 
L 603 0 
L 603 3500 
z
M 603 4863 
L 1178 4863 
L 1178 4134 
L 603 4134 
L 603 4863 
z
" transform="scale(0.015625)"/>
       <path id="DejaVuSans-6e" d="M 3513 2113 
L 3513 0 
L 2938 0 
L 2938 2094 
Q 2938 2591 2744 2837 
Q 2550 3084 2163 3084 
Q 1697 3084 1428 2787 
Q 1159 2491 1159 1978 
L 1159 0 
L 581 0 
L 581 3500 
L 1159 3500 
L 1159 2956 
Q 1366 3272 1645 3428 
Q 1925 3584 2291 3584 
Q 2894 3584 3203 3211 
Q 3513 2838 3513 2113 
z
" transform="scale(0.015625)"/>
       <path id="DejaVuSans-6b" d="M 581 4863 
L 1159 4863 
L 1159 1991 
L 2875 3500 
L 3609 3500 
L 1753 1863 
L 3688 0 
L 2938 0 
L 1159 1709 
L 1159 0 
L 581 0 
L 581 4863 
z
" transform="scale(0.015625)"/>
      </defs>
      <use xlink:href="#DejaVuSans-4e"/>
      <use xlink:href="#DejaVuSans-75" x="74.804688"/>
      <use xlink:href="#DejaVuSans-6d" x="138.183594"/>
      <use xlink:href="#DejaVuSans-62" x="235.595703"/>
      <use xlink:href="#DejaVuSans-65" x="299.072266"/>
      <use xlink:href="#DejaVuSans-72" x="360.595703"/>
      <use xlink:href="#DejaVuSans-20" x="401.708984"/>
      <use xlink:href="#DejaVuSans-6f" x="433.496094"/>
      <use xlink:href="#DejaVuSans-66" x="494.677734"/>
      <use xlink:href="#DejaVuSans-20" x="529.882812"/>
      <use xlink:href="#DejaVuSans-63" x="561.669922"/>
      <use xlink:href="#DejaVuSans-72" x="616.650391"/>
      <use xlink:href="#DejaVuSans-6f" x="655.513672"/>
      <use xlink:href="#DejaVuSans-73" x="716.695312"/>
      <use xlink:href="#DejaVuSans-73" x="768.794922"/>
      <use xlink:href="#DejaVuSans-6c" x="820.894531"/>
      <use xlink:href="#DejaVuSans-69" x="848.677734"/>
      <use xlink:href="#DejaVuSans-6e" x="876.460938"/>
      <use xlink:href="#DejaVuSans-6b" x="939.839844"/>
      <use xlink:href="#DejaVuSans-73" x="997.75"/>
     </g>
    </g>
   </g>
   <g id="patch_3">
    <path d="M 57.6 307.584 
L 57.6 41.472 
" style="fill: none; stroke: #000000; stroke-width: 0.8; stroke-linejoin: miter; stroke-linecap: square"/>
   </g>
   <g id="patch_4">
    <path d="M 414.72 307.584 
L 414.72 41.472 
" style="fill: none; stroke: #000000; stroke-width: 0.8; stroke-linejoin: miter; stroke-linecap: square"/>
   </g>
   <g id="patch_5">
    <path d="M 57.6 307.584 
L 414.72 307.584 
" style="fill: none; stroke: #000000; stroke-width: 0.8; stroke-linejoin: miter; stroke-linecap: square"/>
   </g>
   <g id="patch_6">
    <path d="M 57.6 41.472 
L 414.72 41.472 
" style="fill: none; stroke: #000000; stroke-width: 0.8; stroke-linejoin: miter; stroke-linecap: square"/>
   </g>
   <g id="legend_1">
    <g id="patch_7">
     <path d="M 293.087188 93.506375 
L 407.72 93.506375 
Q 409.72 93.506375 409.72 91.506375 
L 409.72 48.472 
Q 409.72 46.472 407.72 46.472 
L 293.087188 46.472 
Q 291.087188 46.472 291.087188 48.472 
L 291.087188 91.506375 
Q 291.087188 93.506375 293.087188 93.506375 
z
" style="fill: #ffffff; opacity: 0.8; stroke: #cccccc; stroke-linejoin: miter"/>
    </g>
    <g id="patch_8">
     <path d="M 295.087188 58.070438 
L 315.087188 58.070438 
L 315.087188 51.070438 
L 295.087188 51.070438 
z
" style="fill: #008000"/>
    </g>
    <g id="text_19">
     <!-- true -->
     <g transform="translate(323.087188 58.070438)scale(0.1 -0.1)">
      <defs>
       <path id="DejaVuSans-74" d="M 1172 4494 
L 1172 3500 
L 2356 3500 
L 2356 3053 
L 1172 3053 
L 1172 1153 
Q 1172 725 1289 603 
Q 1406 481 1766 481 
L 2356 481 
L 2356 0 
L 1766 0 
Q 1100 0 847 248 
Q 594 497 594 1153 
L 594 3053 
L 172 3053 
L 172 3500 
L 594 3500 
L 594 4494 
L 1172 4494 
z
" transform="scale(0.015625)"/>
      </defs>
      <use xlink:href="#DejaVuSans-74"/>
      <use xlink:href="#DejaVuSans-72" x="39.208984"/>
      <use xlink:href="#DejaVuSans-75" x="80.322266"/>
      <use xlink:href="#DejaVuSans-65" x="143.701172"/>
     </g>
    </g>
    <g id="patch_9">
     <path d="M 295.087188 72.748563 
L 315.087188 72.748563 
L 315.087188 65.748563 
L 295.087188 65.748563 
z
" style="fill: #7cfc00"/>
    </g>
    <g id="text_20">
     <!-- true homeotypic -->
     <g transform="translate(323.087188 72.748563)scale(0.1 -0.1)">
      <defs>
       <path id="DejaVuSans-68" d="M 3513 2113 
L 3513 0 
L 2938 0 
L 2938 2094 
Q 2938 2591 2744 2837 
Q 2550 3084 2163 3084 
Q 1697 3084 1428 2787 
Q 1159 2491 1159 1978 
L 1159 0 
L 581 0 
L 581 4863 
L 1159 4863 
L 1159 2956 
Q 1366 3272 1645 3428 
Q 1925 3584 2291 3584 
Q 2894 3584 3203 3211 
Q 3513 2838 3513 2113 
z
" transform="scale(0.015625)"/>
       <path id="DejaVuSans-79" d="M 2059 -325 
Q 1816 -950 1584 -1140 
Q 1353 -1331 966 -1331 
L 506 -1331 
L 506 -850 
L 844 -850 
Q 1081 -850 1212 -737 
Q 1344 -625 1503 -206 
L 1606 56 
L 191 3500 
L 800 3500 
L 1894 763 
L 2988 3500 
L 3597 3500 
L 2059 -325 
z
" transform="scale(0.015625)"/>
       <path id="DejaVuSans-70" d="M 1159 525 
L 1159 -1331 
L 581 -1331 
L 581 3500 
L 1159 3500 
L 1159 2969 
Q 1341 3281 1617 3432 
Q 1894 3584 2278 3584 
Q 2916 3584 3314 3078 
Q 3713 2572 3713 1747 
Q 3713 922 3314 415 
Q 2916 -91 2278 -91 
Q 1894 -91 1617 61 
Q 1341 213 1159 525 
z
M 3116 1747 
Q 3116 2381 2855 2742 
Q 2594 3103 2138 3103 
Q 1681 3103 1420 2742 
Q 1159 2381 1159 1747 
Q 1159 1113 1420 752 
Q 1681 391 2138 391 
Q 2594 391 2855 752 
Q 3116 1113 3116 1747 
z
" transform="scale(0.015625)"/>
      </defs>
      <use xlink:href="#DejaVuSans-74"/>
      <use xlink:href="#DejaVuSans-72" x="39.208984"/>
      <use xlink:href="#DejaVuSans-75" x="80.322266"/>
      <use xlink:href="#DejaVuSans-65" x="143.701172"/>
      <use xlink:href="#DejaVuSans-20" x="205.224609"/>
      <use xlink:href="#DejaVuSans-68" x="237.011719"/>
      <use xlink:href="#DejaVuSans-6f" x="300.390625"/>
      <use xlink:href="#DejaVuSans-6d" x="361.572266"/>
      <use xlink:href="#DejaVuSans-65" x="458.984375"/>
      <use xlink:href="#DejaVuSans-6f" x="520.507812"/>
      <use xlink:href="#DejaVuSans-74" x="581.689453"/>
      <use xlink:href="#DejaVuSans-79" x="620.898438"/>
      <use xlink:href="#DejaVuSans-70" x="680.078125"/>
      <use xlink:href="#DejaVuSans-69" x="743.554688"/>
      <use xlink:href="#DejaVuSans-63" x="771.337891"/>
     </g>
    </g>
    <g id="patch_10">
     <path d="M 295.087188 87.426688 
L 315.087188 87.426688 
L 315.087188 80.426688 
L 295.087188 80.426688 
z
" style="fill: #ff0000"/>
    </g>
    <g id="text_21">
     <!-- false -->
     <g transform="translate(323.087188 87.426688)scale(0.1 -0.1)">
      <defs>
       <path id="DejaVuSans-61" d="M 2194 1759 
Q 1497 1759 1228 1600 
Q 959 1441 959 1056 
Q 959 750 1161 570 
Q 1363 391 1709 391 
Q 2188 391 2477 730 
Q 2766 1069 2766 1631 
L 2766 1759 
L 2194 1759 
z
M 3341 1997 
L 3341 0 
L 2766 0 
L 2766 531 
Q 2569 213 2275 61 
Q 1981 -91 1556 -91 
Q 1019 -91 701 211 
Q 384 513 384 1019 
Q 384 1609 779 1909 
Q 1175 2209 1959 2209 
L 2766 2209 
L 2766 2266 
Q 2766 2663 2505 2880 
Q 2244 3097 1772 3097 
Q 1472 3097 1187 3025 
Q 903 2953 641 2809 
L 641 3341 
Q 956 3463 1253 3523 
Q 1550 3584 1831 3584 
Q 2591 3584 2966 3190 
Q 3341 2797 3341 1997 
z
" transform="scale(0.015625)"/>
      </defs>
      <use xlink:href="#DejaVuSans-66"/>
      <use xlink:href="#DejaVuSans-61" x="35.205078"/>
      <use xlink:href="#DejaVuSans-6c" x="96.484375"/>
      <use xlink:href="#DejaVuSans-73" x="124.267578"/>
      <use xlink:href="#DejaVuSans-65" x="176.367188"/>
     </g>
    </g>
   </g>
  </g>
 </g>
 <defs>
  <clipPath id="pdfb8ae6ac6">
   <rect x="57.6" y="41.472" width="357.12" height="266.112"/>
  </clipPath>
 </defs>
</svg>
