<?xml version="1.0" encoding="utf-8" standalone="no"?>
<!DOCTYPE svg PUBLIC "-//W3C//DTD SVG 1.1//EN"
  "http://www.w3.org/Graphics/SVG/1.1/DTD/svg11.dtd">
<svg xmlns:xlink="http://www.w3.org/1999/xlink" width="460.8pt" height="345.6pt" viewBox="0 0 460.8 345.6" xmlns="http://www.w3.org/2000/svg" version="1.1">
 <metadata>
  <rdf:RDF xmlns:dc="http://purl.org/dc/elements/1.1/" xmlns:cc="http://creativecommons.org/ns#" xmlns:rdf="http://www.w3.org/1999/02/22-rdf-syntax-ns#">
   <cc:Work>
    <dc:type rdf:resource="http://purl.org/dc/dcmitype/StillImage"/>
    <dc:date>2022-07-21T14:31:19.629508</dc:date>
    <dc:format>image/svg+xml</dc:format>
    <dc:creator>
     <cc:Agent>
      <dc:title>Matplotlib v3.5.1, https://matplotlib.org/</dc:title>
     </cc:Agent>
    </dc:creator>
   </cc:Work>
  </rdf:RDF>
 </metadata>
 <defs>
  <style type="text/css">*{stroke-linejoin: round; stroke-linecap: butt}</style>
 </defs>
 <g id="figure_1">
  <g id="patch_1">
   <path d="M 0 345.6 
L 460.8 345.6 
L 460.8 0 
L 0 0 
z
" style="fill: #ffffff"/>
  </g>
  <g id="axes_1">
   <g id="patch_2">
    <path d="M 57.6 307.584 
L 414.72 307.584 
L 414.72 41.472 
L 57.6 41.472 
z
" style="fill: #ffffff"/>
   </g>
   <g id="PolyCollection_1">
    <path d="M 73.832727 91.690667 
L 73.832727 307.584 
L 73.94334 307.584 
L 74.296686 307.584 
L 75.279911 307.584 
L 75.498064 307.584 
L 75.544152 307.584 
L 76.287716 307.584 
L 76.346095 307.584 
L 77.123456 307.584 
L 77.602778 307.584 
L 78.125116 307.584 
L 78.373995 307.584 
L 78.871752 307.584 
L 79.304985 307.584 
L 79.437106 307.584 
L 79.79967 307.584 
L 79.901065 307.584 
L 80.014751 307.584 
L 80.343516 307.584 
L 80.844346 307.584 
L 80.951886 307.584 
L 81.268362 307.584 
L 81.305233 307.584 
L 81.437353 307.584 
L 81.480369 307.584 
L 81.759974 307.584 
L 82.767779 307.584 
L 82.832303 307.584 
L 82.856884 307.584 
L 83.167214 307.584 
L 83.741785 307.584 
L 84.181164 307.584 
L 84.310212 307.584 
L 84.823332 307.584 
L 84.869421 307.584 
L 85.041485 307.584 
L 85.14288 307.584 
L 85.689799 307.584 
L 85.837282 307.584 
L 85.923315 307.584 
L 86.230572 307.584 
L 86.427217 307.584 
L 86.433362 307.584 
L 86.842015 307.584 
L 87.223014 307.584 
L 87.388933 307.584 
L 87.438095 307.584 
L 88.240037 307.584 
L 88.381376 307.584 
L 88.430537 307.584 
L 89.137229 307.584 
L 89.171028 307.584 
L 89.398398 307.584 
L 89.462922 307.584 
L 89.469068 307.584 
L 89.576608 307.584 
L 89.668785 307.584 
L 89.751745 307.584 
L 89.800906 307.584 
L 90.074365 307.584 
L 90.255647 307.584 
L 90.781058 307.584 
L 91.650597 307.584 
L 91.687468 307.584 
L 91.822661 307.584 
L 91.896403 307.584 
L 92.160644 307.584 
L 92.781305 307.584 
L 92.888845 307.584 
L 92.956441 307.584 
L 93.595537 307.584 
L 93.733803 307.584 
L 93.838271 307.584 
L 93.859779 307.584 
L 94.090222 307.584 
L 94.508092 307.584 
L 94.717028 307.584 
L 94.824568 307.584 
L 95.061156 307.584 
L 95.678744 307.584 
L 95.743268 307.584 
L 96.302477 307.584 
L 96.477614 307.584 
L 96.652751 307.584 
L 96.996879 307.584 
L 97.54687 307.584 
L 97.623685 307.584 
L 98.302724 307.584 
L 98.382611 307.584 
L 98.785119 307.584 
L 99.086231 307.584 
L 99.110812 307.584 
L 99.55019 307.584 
L 99.928117 307.584 
L 100.127834 307.584 
L 100.247665 307.584 
L 100.634809 307.584 
L 100.859107 307.584 
L 101.151002 307.584 
L 101.495131 307.584 
L 101.645687 307.584 
L 103.264935 307.584 
L 103.372475 307.584 
L 103.492305 307.584 
L 104.125256 307.584 
L 104.232796 307.584 
L 105.188367 307.584 
L 105.421883 307.584 
L 105.449536 307.584 
L 105.538641 307.584 
L 106.322148 307.584 
L 106.343656 307.584 
L 106.386672 307.584 
L 106.405107 307.584 
L 106.71851 307.584 
L 106.767671 307.584 
L 107.081074 307.584 
L 107.489727 307.584 
L 107.836928 307.584 
L 107.947541 307.584 
L 108.073516 307.584 
L 108.448371 307.584 
L 109.029088 307.584 
L 109.053668 307.584 
L 109.124337 307.584 
L 109.142773 307.584 
L 109.201152 307.584 
L 109.569861 307.584 
L 109.73578 307.584 
L 109.858683 307.584 
L 109.895554 307.584 
L 110.172086 307.584 
L 110.414819 307.584 
L 111.318157 307.584 
L 111.44106 307.584 
L 111.969543 307.584 
L 112.175406 307.584 
L 112.23993 307.584 
L 112.243002 307.584 
L 112.393558 307.584 
L 112.633219 307.584 
L 113.127904 307.584 
L 113.217009 307.584 
L 113.475105 307.584 
L 114.187943 307.584 
L 114.59045 307.584 
L 114.842402 307.584 
L 114.885418 307.584 
L 114.999103 307.584 
L 115.324796 307.584 
L 115.49686 307.584 
L 115.610546 307.584 
L 115.767247 307.584 
L 115.844062 307.584 
L 115.862497 307.584 
L 116.169755 307.584 
L 116.225061 307.584 
L 116.60606 307.584 
L 116.670585 307.584 
L 116.80885 307.584 
L 117.073092 307.584 
L 117.245156 307.584 
L 118.51413 307.584 
L 119.054904 307.584 
L 119.352944 307.584 
L 120.213265 307.584 
L 122.161278 307.584 
L 122.43781 307.584 
L 122.655963 307.584 
L 123.006237 307.584 
L 123.276623 307.584 
L 123.454833 307.584 
L 123.543937 307.584 
L 123.768236 307.584 
L 124.124654 307.584 
L 124.862073 307.584 
L 124.972685 307.584 
L 125.224637 307.584 
L 125.707031 307.584 
L 125.768483 307.584 
L 125.829934 307.584 
L 126.091103 307.584 
L 126.392216 307.584 
L 126.579643 307.584 
L 126.87461 307.584 
L 127.117344 307.584 
L 127.329351 307.584 
L 127.400021 307.584 
L 127.934649 307.584 
L 128.352519 307.584 
L 128.884075 307.584 
L 129.919533 307.584 
L 130.248299 307.584 
L 130.472597 307.584 
L 131.010298 307.584 
L 131.428168 307.584 
L 131.7047 307.584 
L 132.90915 307.584 
L 133.677294 307.584 
L 133.686511 307.584 
L 133.751036 307.584 
L 133.775616 307.584 
L 133.987624 307.584 
L 134.715824 307.584 
L 135.167493 307.584 
L 135.185929 307.584 
L 136.212169 307.584 
L 136.937297 307.584 
L 136.961878 307.584 
L 137.447345 307.584 
L 137.588683 307.584 
L 138.307666 307.584 
L 138.952907 307.584 
L 139.035867 307.584 
L 139.066592 307.584 
L 140.055962 307.584 
L 140.347857 307.584 
L 140.397018 307.584 
L 140.682767 307.584 
L 141.629121 307.584 
L 144.280754 307.584 
L 144.677117 307.584 
L 144.769294 307.584 
L 145.104205 307.584 
L 145.43297 307.584 
L 145.439115 307.584 
L 145.565091 307.584 
L 146.505299 307.584 
L 147.119815 307.584 
L 147.700531 307.584 
L 148.010862 307.584 
L 148.161418 307.584 
L 148.351918 307.584 
L 148.932635 307.584 
L 149.040175 307.584 
L 150.57339 307.584 
L 151.516671 307.584 
L 151.541252 307.584 
L 151.728679 307.584 
L 151.802421 307.584 
L 152.592073 307.584 
L 152.690395 307.584 
L 152.920838 307.584 
L 153.443176 307.584 
L 153.587587 307.584 
L 154.546231 307.584 
L 155.240633 307.584 
L 155.30823 307.584 
L 155.406553 307.584 
L 156.156261 307.584 
L 156.282237 307.584 
L 157.465179 307.584 
L 158.829402 307.584 
L 159.379394 307.584 
L 159.990836 307.584 
L 160.003127 307.584 
L 160.338037 307.584 
L 161.407294 307.584 
L 161.662318 307.584 
L 161.895833 307.584 
L 161.978793 307.584 
L 162.289123 307.584 
L 164.350822 307.584 
L 164.458362 307.584 
L 164.876232 307.584 
L 165.370917 307.584 
L 165.573707 307.584 
L 165.699683 307.584 
L 166.191295 307.584 
L 167.192955 307.584 
L 167.346584 307.584 
L 167.80747 307.584 
L 170.975296 307.584 
L 171.93394 307.584 
L 172.385609 307.584 
L 173.24593 307.584 
L 173.374978 307.584 
L 174.699258 307.584 
L 175.206234 307.584 
L 178.500035 307.584 
L 179.504768 307.584 
L 180.478774 307.584 
L 180.912008 307.584 
L 181.477362 307.584 
L 181.778474 307.584 
L 182.654158 307.584 
L 186.224492 307.584 
L 186.593201 307.584 
L 187.597933 307.584 
L 188.550432 307.584 
L 188.630319 307.584 
L 192.120765 307.584 
L 192.784442 307.584 
L 199.679303 307.584 
L 202.831766 307.584 
L 204.318893 307.584 
L 205.013295 307.584 
L 205.637028 307.584 
L 206.666341 307.584 
L 210.353433 307.584 
L 214.608951 307.584 
L 216.69523 307.584 
L 224.425832 307.584 
L 228.899502 307.584 
L 229.855074 307.584 
L 232.205594 307.584 
L 232.863126 307.584 
L 237.791538 307.584 
L 238.538174 307.584 
L 239.472237 307.584 
L 240.20351 307.584 
L 240.418591 307.584 
L 245.946155 307.584 
L 267.368156 307.584 
L 276.899288 307.584 
L 277.695085 307.584 
L 279.283607 307.584 
L 283.778786 307.584 
L 307.419187 307.584 
L 327.781149 307.584 
L 330.678589 307.584 
L 398.487273 307.584 
L 398.487273 307.584 
L 398.487273 307.584 
L 330.678589 307.584 
L 327.781149 307.584 
L 307.419187 307.584 
L 283.778786 307.584 
L 279.283607 307.584 
L 277.695085 307.584 
L 276.899288 306.801778 
L 267.368156 306.801778 
L 245.946155 306.801778 
L 240.418591 306.801778 
L 240.20351 306.801778 
L 239.472237 306.801778 
L 238.538174 306.801778 
L 237.791538 306.801778 
L 232.863126 306.801778 
L 232.205594 306.801778 
L 229.855074 306.801778 
L 228.899502 306.801778 
L 224.425832 306.019556 
L 216.69523 306.019556 
L 214.608951 306.019556 
L 210.353433 305.237333 
L 206.666341 305.237333 
L 205.637028 304.455111 
L 205.013295 304.455111 
L 204.318893 303.672889 
L 202.831766 303.672889 
L 199.679303 303.672889 
L 192.784442 303.672889 
L 192.120765 302.890667 
L 188.630319 302.108444 
L 188.550432 302.108444 
L 187.597933 301.326222 
L 186.593201 300.544 
L 186.224492 299.761778 
L 182.654158 298.979556 
L 181.778474 298.197333 
L 181.477362 297.415111 
L 180.912008 297.415111 
L 180.478774 297.415111 
L 179.504768 296.632889 
L 178.500035 295.850667 
L 175.206234 295.068444 
L 174.699258 294.286222 
L 173.374978 294.286222 
L 173.24593 293.504 
L 172.385609 292.721778 
L 171.93394 291.157333 
L 170.975296 291.157333 
L 167.80747 290.375111 
L 167.346584 289.592889 
L 167.192955 288.810667 
L 166.191295 288.028444 
L 165.699683 288.028444 
L 165.573707 287.246222 
L 165.370917 286.464 
L 164.876232 285.681778 
L 164.458362 284.899556 
L 164.350822 284.117333 
L 162.289123 283.335111 
L 161.978793 282.552889 
L 161.895833 281.770667 
L 161.662318 280.988444 
L 161.407294 280.206222 
L 160.338037 279.424 
L 160.003127 278.641778 
L 159.990836 277.859556 
L 159.379394 277.077333 
L 158.829402 276.295111 
L 157.465179 275.512889 
L 156.282237 275.512889 
L 156.156261 275.512889 
L 155.406553 275.512889 
L 155.30823 274.730667 
L 155.240633 273.948444 
L 154.546231 273.166222 
L 153.587587 272.384 
L 153.443176 272.384 
L 152.920838 271.601778 
L 152.690395 270.819556 
L 152.592073 270.037333 
L 151.802421 270.037333 
L 151.728679 269.255111 
L 151.541252 268.472889 
L 151.516671 267.690667 
L 150.57339 266.908444 
L 149.040175 266.126222 
L 148.932635 265.344 
L 148.351918 264.561778 
L 148.161418 263.779556 
L 148.010862 262.997333 
L 147.700531 262.215111 
L 147.119815 261.432889 
L 146.505299 260.650667 
L 145.565091 259.868444 
L 145.439115 259.086222 
L 145.43297 258.304 
L 145.104205 257.521778 
L 144.769294 256.739556 
L 144.677117 255.957333 
L 144.280754 255.175111 
L 141.629121 254.392889 
L 140.682767 253.610667 
L 140.397018 252.828444 
L 140.347857 252.046222 
L 140.055962 251.264 
L 139.066592 250.481778 
L 139.035867 249.699556 
L 138.952907 248.917333 
L 138.307666 248.135111 
L 137.588683 247.352889 
L 137.447345 246.570667 
L 136.961878 245.788444 
L 136.937297 245.006222 
L 136.212169 244.224 
L 135.185929 243.441778 
L 135.167493 242.659556 
L 134.715824 241.877333 
L 133.987624 241.095111 
L 133.775616 241.095111 
L 133.751036 240.312889 
L 133.686511 239.530667 
L 133.677294 238.748444 
L 132.90915 238.748444 
L 131.7047 237.966222 
L 131.428168 237.184 
L 131.010298 236.401778 
L 130.472597 235.619556 
L 130.248299 234.837333 
L 129.919533 234.055111 
L 128.884075 233.272889 
L 128.352519 232.490667 
L 127.934649 231.708444 
L 127.400021 230.926222 
L 127.329351 230.144 
L 127.117344 229.361778 
L 126.87461 228.579556 
L 126.579643 227.797333 
L 126.392216 227.015111 
L 126.091103 226.232889 
L 125.829934 225.450667 
L 125.768483 224.668444 
L 125.707031 223.886222 
L 125.224637 223.104 
L 124.972685 222.321778 
L 124.862073 221.539556 
L 124.124654 220.757333 
L 123.768236 219.975111 
L 123.543937 219.192889 
L 123.454833 218.410667 
L 123.276623 217.628444 
L 123.006237 216.846222 
L 122.655963 216.064 
L 122.43781 215.281778 
L 122.161278 214.499556 
L 120.213265 213.717333 
L 119.352944 212.935111 
L 119.054904 212.152889 
L 118.51413 212.152889 
L 117.245156 211.370667 
L 117.073092 210.588444 
L 116.80885 209.806222 
L 116.670585 209.024 
L 116.60606 208.241778 
L 116.225061 207.459556 
L 116.169755 206.677333 
L 115.862497 205.895111 
L 115.844062 205.112889 
L 115.767247 204.330667 
L 115.610546 203.548444 
L 115.49686 202.766222 
L 115.324796 201.984 
L 114.999103 201.201778 
L 114.885418 200.419556 
L 114.842402 199.637333 
L 114.59045 198.855111 
L 114.187943 198.855111 
L 113.475105 198.072889 
L 113.217009 197.290667 
L 113.127904 196.508444 
L 112.633219 195.726222 
L 112.393558 194.944 
L 112.243002 194.161778 
L 112.23993 193.379556 
L 112.175406 192.597333 
L 111.969543 191.815111 
L 111.44106 191.032889 
L 111.318157 190.250667 
L 110.414819 189.468444 
L 110.172086 189.468444 
L 109.895554 188.686222 
L 109.858683 187.904 
L 109.73578 187.121778 
L 109.569861 186.339556 
L 109.201152 185.557333 
L 109.142773 184.775111 
L 109.124337 183.992889 
L 109.053668 183.210667 
L 109.029088 182.428444 
L 108.448371 181.646222 
L 108.073516 180.864 
L 107.947541 180.081778 
L 107.836928 179.299556 
L 107.489727 178.517333 
L 107.081074 177.735111 
L 106.767671 176.952889 
L 106.71851 176.952889 
L 106.405107 176.170667 
L 106.386672 175.388444 
L 106.343656 174.606222 
L 106.322148 173.824 
L 105.538641 173.041778 
L 105.449536 172.259556 
L 105.421883 171.477333 
L 105.188367 170.695111 
L 104.232796 169.912889 
L 104.125256 169.130667 
L 103.492305 168.348444 
L 103.372475 167.566222 
L 103.264935 166.784 
L 101.645687 166.001778 
L 101.495131 165.219556 
L 101.151002 164.437333 
L 100.859107 163.655111 
L 100.634809 163.655111 
L 100.247665 162.872889 
L 100.127834 162.090667 
L 99.928117 161.308444 
L 99.55019 160.526222 
L 99.110812 159.744 
L 99.086231 158.961778 
L 98.785119 158.961778 
L 98.382611 158.179556 
L 98.302724 157.397333 
L 97.623685 156.615111 
L 97.54687 155.832889 
L 96.996879 155.050667 
L 96.652751 154.268444 
L 96.477614 153.486222 
L 96.302477 152.704 
L 95.743268 151.921778 
L 95.678744 151.139556 
L 95.061156 149.575111 
L 94.824568 148.792889 
L 94.717028 148.010667 
L 94.508092 147.228444 
L 94.090222 146.446222 
L 93.859779 145.664 
L 93.838271 144.881778 
L 93.733803 144.099556 
L 93.595537 143.317333 
L 92.956441 142.535111 
L 92.888845 141.752889 
L 92.781305 140.970667 
L 92.160644 140.188444 
L 91.896403 139.406222 
L 91.822661 138.624 
L 91.687468 137.841778 
L 91.650597 137.059556 
L 90.781058 136.277333 
L 90.255647 135.495111 
L 90.074365 134.712889 
L 89.800906 133.930667 
L 89.751745 133.148444 
L 89.668785 132.366222 
L 89.576608 131.584 
L 89.469068 130.801778 
L 89.462922 130.019556 
L 89.398398 129.237333 
L 89.171028 128.455111 
L 89.137229 127.672889 
L 88.430537 126.890667 
L 88.381376 126.890667 
L 88.240037 126.108444 
L 87.438095 125.326222 
L 87.388933 124.544 
L 87.223014 123.761778 
L 86.842015 122.979556 
L 86.433362 122.197333 
L 86.427217 121.415111 
L 86.230572 120.632889 
L 85.923315 119.850667 
L 85.837282 119.068444 
L 85.689799 118.286222 
L 85.14288 118.286222 
L 85.041485 117.504 
L 84.869421 116.721778 
L 84.823332 115.939556 
L 84.310212 115.939556 
L 84.181164 115.157333 
L 83.741785 114.375111 
L 83.167214 113.592889 
L 82.856884 112.810667 
L 82.832303 112.028444 
L 82.767779 111.246222 
L 81.759974 110.464 
L 81.480369 109.681778 
L 81.437353 108.899556 
L 81.305233 108.117333 
L 81.268362 107.335111 
L 80.951886 106.552889 
L 80.844346 105.770667 
L 80.343516 104.988444 
L 80.014751 104.206222 
L 79.901065 103.424 
L 79.79967 102.641778 
L 79.437106 101.859556 
L 79.304985 101.077333 
L 78.871752 100.295111 
L 78.373995 99.512889 
L 78.125116 98.730667 
L 77.602778 97.948444 
L 77.123456 97.166222 
L 76.346095 96.384 
L 76.287716 95.601778 
L 75.544152 94.819556 
L 75.498064 94.037333 
L 75.279911 93.255111 
L 74.296686 93.255111 
L 73.94334 92.472889 
L 73.832727 91.690667 
z
" clip-path="url(#p22dac8c374)" style="fill: #008000"/>
   </g>
   <g id="PolyCollection_2">
    <path d="M 73.832727 57.272889 
L 73.832727 91.690667 
L 73.94334 92.472889 
L 74.296686 93.255111 
L 75.279911 93.255111 
L 75.498064 94.037333 
L 75.544152 94.819556 
L 76.287716 95.601778 
L 76.346095 96.384 
L 77.123456 97.166222 
L 77.602778 97.948444 
L 78.125116 98.730667 
L 78.373995 99.512889 
L 78.871752 100.295111 
L 79.304985 101.077333 
L 79.437106 101.859556 
L 79.79967 102.641778 
L 79.901065 103.424 
L 80.014751 104.206222 
L 80.343516 104.988444 
L 80.844346 105.770667 
L 80.951886 106.552889 
L 81.268362 107.335111 
L 81.305233 108.117333 
L 81.437353 108.899556 
L 81.480369 109.681778 
L 81.759974 110.464 
L 82.767779 111.246222 
L 82.832303 112.028444 
L 82.856884 112.810667 
L 83.167214 113.592889 
L 83.741785 114.375111 
L 84.181164 115.157333 
L 84.310212 115.939556 
L 84.823332 115.939556 
L 84.869421 116.721778 
L 85.041485 117.504 
L 85.14288 118.286222 
L 85.689799 118.286222 
L 85.837282 119.068444 
L 85.923315 119.850667 
L 86.230572 120.632889 
L 86.427217 121.415111 
L 86.433362 122.197333 
L 86.842015 122.979556 
L 87.223014 123.761778 
L 87.388933 124.544 
L 87.438095 125.326222 
L 88.240037 126.108444 
L 88.381376 126.890667 
L 88.430537 126.890667 
L 89.137229 127.672889 
L 89.171028 128.455111 
L 89.398398 129.237333 
L 89.462922 130.019556 
L 89.469068 130.801778 
L 89.576608 131.584 
L 89.668785 132.366222 
L 89.751745 133.148444 
L 89.800906 133.930667 
L 90.074365 134.712889 
L 90.255647 135.495111 
L 90.781058 136.277333 
L 91.650597 137.059556 
L 91.687468 137.841778 
L 91.822661 138.624 
L 91.896403 139.406222 
L 92.160644 140.188444 
L 92.781305 140.970667 
L 92.888845 141.752889 
L 92.956441 142.535111 
L 93.595537 143.317333 
L 93.733803 144.099556 
L 93.838271 144.881778 
L 93.859779 145.664 
L 94.090222 146.446222 
L 94.508092 147.228444 
L 94.717028 148.010667 
L 94.824568 148.792889 
L 95.061156 149.575111 
L 95.678744 151.139556 
L 95.743268 151.921778 
L 96.302477 152.704 
L 96.477614 153.486222 
L 96.652751 154.268444 
L 96.996879 155.050667 
L 97.54687 155.832889 
L 97.623685 156.615111 
L 98.302724 157.397333 
L 98.382611 158.179556 
L 98.785119 158.961778 
L 99.086231 158.961778 
L 99.110812 159.744 
L 99.55019 160.526222 
L 99.928117 161.308444 
L 100.127834 162.090667 
L 100.247665 162.872889 
L 100.634809 163.655111 
L 100.859107 163.655111 
L 101.151002 164.437333 
L 101.495131 165.219556 
L 101.645687 166.001778 
L 103.264935 166.784 
L 103.372475 167.566222 
L 103.492305 168.348444 
L 104.125256 169.130667 
L 104.232796 169.912889 
L 105.188367 170.695111 
L 105.421883 171.477333 
L 105.449536 172.259556 
L 105.538641 173.041778 
L 106.322148 173.824 
L 106.343656 174.606222 
L 106.386672 175.388444 
L 106.405107 176.170667 
L 106.71851 176.952889 
L 106.767671 176.952889 
L 107.081074 177.735111 
L 107.489727 178.517333 
L 107.836928 179.299556 
L 107.947541 180.081778 
L 108.073516 180.864 
L 108.448371 181.646222 
L 109.029088 182.428444 
L 109.053668 183.210667 
L 109.124337 183.992889 
L 109.142773 184.775111 
L 109.201152 185.557333 
L 109.569861 186.339556 
L 109.73578 187.121778 
L 109.858683 187.904 
L 109.895554 188.686222 
L 110.172086 189.468444 
L 110.414819 189.468444 
L 111.318157 190.250667 
L 111.44106 191.032889 
L 111.969543 191.815111 
L 112.175406 192.597333 
L 112.23993 193.379556 
L 112.243002 194.161778 
L 112.393558 194.944 
L 112.633219 195.726222 
L 113.127904 196.508444 
L 113.217009 197.290667 
L 113.475105 198.072889 
L 114.187943 198.855111 
L 114.59045 198.855111 
L 114.842402 199.637333 
L 114.885418 200.419556 
L 114.999103 201.201778 
L 115.324796 201.984 
L 115.49686 202.766222 
L 115.610546 203.548444 
L 115.767247 204.330667 
L 115.844062 205.112889 
L 115.862497 205.895111 
L 116.169755 206.677333 
L 116.225061 207.459556 
L 116.60606 208.241778 
L 116.670585 209.024 
L 116.80885 209.806222 
L 117.073092 210.588444 
L 117.245156 211.370667 
L 118.51413 212.152889 
L 119.054904 212.152889 
L 119.352944 212.935111 
L 120.213265 213.717333 
L 122.161278 214.499556 
L 122.43781 215.281778 
L 122.655963 216.064 
L 123.006237 216.846222 
L 123.276623 217.628444 
L 123.454833 218.410667 
L 123.543937 219.192889 
L 123.768236 219.975111 
L 124.124654 220.757333 
L 124.862073 221.539556 
L 124.972685 222.321778 
L 125.224637 223.104 
L 125.707031 223.886222 
L 125.768483 224.668444 
L 125.829934 225.450667 
L 126.091103 226.232889 
L 126.392216 227.015111 
L 126.579643 227.797333 
L 126.87461 228.579556 
L 127.117344 229.361778 
L 127.329351 230.144 
L 127.400021 230.926222 
L 127.934649 231.708444 
L 128.352519 232.490667 
L 128.884075 233.272889 
L 129.919533 234.055111 
L 130.248299 234.837333 
L 130.472597 235.619556 
L 131.010298 236.401778 
L 131.428168 237.184 
L 131.7047 237.966222 
L 132.90915 238.748444 
L 133.677294 238.748444 
L 133.686511 239.530667 
L 133.751036 240.312889 
L 133.775616 241.095111 
L 133.987624 241.095111 
L 134.715824 241.877333 
L 135.167493 242.659556 
L 135.185929 243.441778 
L 136.212169 244.224 
L 136.937297 245.006222 
L 136.961878 245.788444 
L 137.447345 246.570667 
L 137.588683 247.352889 
L 138.307666 248.135111 
L 138.952907 248.917333 
L 139.035867 249.699556 
L 139.066592 250.481778 
L 140.055962 251.264 
L 140.347857 252.046222 
L 140.397018 252.828444 
L 140.682767 253.610667 
L 141.629121 254.392889 
L 144.280754 255.175111 
L 144.677117 255.957333 
L 144.769294 256.739556 
L 145.104205 257.521778 
L 145.43297 258.304 
L 145.439115 259.086222 
L 145.565091 259.868444 
L 146.505299 260.650667 
L 147.119815 261.432889 
L 147.700531 262.215111 
L 148.010862 262.997333 
L 148.161418 263.779556 
L 148.351918 264.561778 
L 148.932635 265.344 
L 149.040175 266.126222 
L 150.57339 266.908444 
L 151.516671 267.690667 
L 151.541252 268.472889 
L 151.728679 269.255111 
L 151.802421 270.037333 
L 152.592073 270.037333 
L 152.690395 270.819556 
L 152.920838 271.601778 
L 153.443176 272.384 
L 153.587587 272.384 
L 154.546231 273.166222 
L 155.240633 273.948444 
L 155.30823 274.730667 
L 155.406553 275.512889 
L 156.156261 275.512889 
L 156.282237 275.512889 
L 157.465179 275.512889 
L 158.829402 276.295111 
L 159.379394 277.077333 
L 159.990836 277.859556 
L 160.003127 278.641778 
L 160.338037 279.424 
L 161.407294 280.206222 
L 161.662318 280.988444 
L 161.895833 281.770667 
L 161.978793 282.552889 
L 162.289123 283.335111 
L 164.350822 284.117333 
L 164.458362 284.899556 
L 164.876232 285.681778 
L 165.370917 286.464 
L 165.573707 287.246222 
L 165.699683 288.028444 
L 166.191295 288.028444 
L 167.192955 288.810667 
L 167.346584 289.592889 
L 167.80747 290.375111 
L 170.975296 291.157333 
L 171.93394 291.157333 
L 172.385609 292.721778 
L 173.24593 293.504 
L 173.374978 294.286222 
L 174.699258 294.286222 
L 175.206234 295.068444 
L 178.500035 295.850667 
L 179.504768 296.632889 
L 180.478774 297.415111 
L 180.912008 297.415111 
L 181.477362 297.415111 
L 181.778474 298.197333 
L 182.654158 298.979556 
L 186.224492 299.761778 
L 186.593201 300.544 
L 187.597933 301.326222 
L 188.550432 302.108444 
L 188.630319 302.108444 
L 192.120765 302.890667 
L 192.784442 303.672889 
L 199.679303 303.672889 
L 202.831766 303.672889 
L 204.318893 303.672889 
L 205.013295 304.455111 
L 205.637028 304.455111 
L 206.666341 305.237333 
L 210.353433 305.237333 
L 214.608951 306.019556 
L 216.69523 306.019556 
L 224.425832 306.019556 
L 228.899502 306.801778 
L 229.855074 306.801778 
L 232.205594 306.801778 
L 232.863126 306.801778 
L 237.791538 306.801778 
L 238.538174 306.801778 
L 239.472237 306.801778 
L 240.20351 306.801778 
L 240.418591 306.801778 
L 245.946155 306.801778 
L 267.368156 306.801778 
L 276.899288 306.801778 
L 277.695085 307.584 
L 279.283607 307.584 
L 283.778786 307.584 
L 307.419187 307.584 
L 327.781149 307.584 
L 330.678589 307.584 
L 398.487273 307.584 
L 398.487273 306.801778 
L 398.487273 306.801778 
L 330.678589 306.019556 
L 327.781149 305.237333 
L 307.419187 304.455111 
L 283.778786 303.672889 
L 279.283607 302.890667 
L 277.695085 302.108444 
L 276.899288 301.326222 
L 267.368156 300.544 
L 245.946155 299.761778 
L 240.418591 298.979556 
L 240.20351 298.197333 
L 239.472237 297.415111 
L 238.538174 296.632889 
L 237.791538 295.850667 
L 232.863126 295.068444 
L 232.205594 294.286222 
L 229.855074 293.504 
L 228.899502 292.721778 
L 224.425832 291.939556 
L 216.69523 291.157333 
L 214.608951 290.375111 
L 210.353433 289.592889 
L 206.666341 288.810667 
L 205.637028 288.028444 
L 205.013295 287.246222 
L 204.318893 286.464 
L 202.831766 285.681778 
L 199.679303 284.899556 
L 192.784442 284.117333 
L 192.120765 283.335111 
L 188.630319 282.552889 
L 188.550432 281.770667 
L 187.597933 280.988444 
L 186.593201 280.206222 
L 186.224492 279.424 
L 182.654158 278.641778 
L 181.778474 277.859556 
L 181.477362 277.077333 
L 180.912008 276.295111 
L 180.478774 275.512889 
L 179.504768 274.730667 
L 178.500035 273.948444 
L 175.206234 273.166222 
L 174.699258 272.384 
L 173.374978 271.601778 
L 173.24593 270.819556 
L 172.385609 270.037333 
L 171.93394 268.472889 
L 170.975296 267.690667 
L 167.80747 266.908444 
L 167.346584 266.126222 
L 167.192955 265.344 
L 166.191295 264.561778 
L 165.699683 263.779556 
L 165.573707 262.997333 
L 165.370917 262.215111 
L 164.876232 261.432889 
L 164.458362 260.650667 
L 164.350822 259.868444 
L 162.289123 259.086222 
L 161.978793 258.304 
L 161.895833 257.521778 
L 161.662318 256.739556 
L 161.407294 255.957333 
L 160.338037 255.175111 
L 160.003127 254.392889 
L 159.990836 253.610667 
L 159.379394 252.828444 
L 158.829402 252.046222 
L 157.465179 251.264 
L 156.282237 250.481778 
L 156.156261 249.699556 
L 155.406553 248.917333 
L 155.30823 248.135111 
L 155.240633 247.352889 
L 154.546231 246.570667 
L 153.587587 245.788444 
L 153.443176 245.006222 
L 152.920838 244.224 
L 152.690395 243.441778 
L 152.592073 242.659556 
L 151.802421 241.877333 
L 151.728679 241.095111 
L 151.541252 240.312889 
L 151.516671 239.530667 
L 150.57339 238.748444 
L 149.040175 237.966222 
L 148.932635 237.184 
L 148.351918 236.401778 
L 148.161418 235.619556 
L 148.010862 234.837333 
L 147.700531 234.055111 
L 147.119815 233.272889 
L 146.505299 232.490667 
L 145.565091 231.708444 
L 145.439115 230.926222 
L 145.43297 230.144 
L 145.104205 229.361778 
L 144.769294 228.579556 
L 144.677117 227.797333 
L 144.280754 227.015111 
L 141.629121 226.232889 
L 140.682767 225.450667 
L 140.397018 224.668444 
L 140.347857 223.886222 
L 140.055962 223.104 
L 139.066592 222.321778 
L 139.035867 221.539556 
L 138.952907 220.757333 
L 138.307666 219.975111 
L 137.588683 219.192889 
L 137.447345 218.410667 
L 136.961878 217.628444 
L 136.937297 216.846222 
L 136.212169 216.064 
L 135.185929 215.281778 
L 135.167493 214.499556 
L 134.715824 213.717333 
L 133.987624 212.935111 
L 133.775616 212.152889 
L 133.751036 211.370667 
L 133.686511 210.588444 
L 133.677294 209.806222 
L 132.90915 209.024 
L 131.7047 208.241778 
L 131.428168 207.459556 
L 131.010298 206.677333 
L 130.472597 205.895111 
L 130.248299 205.112889 
L 129.919533 204.330667 
L 128.884075 203.548444 
L 128.352519 202.766222 
L 127.934649 201.984 
L 127.400021 201.201778 
L 127.329351 200.419556 
L 127.117344 199.637333 
L 126.87461 198.855111 
L 126.579643 198.072889 
L 126.392216 197.290667 
L 126.091103 196.508444 
L 125.829934 195.726222 
L 125.768483 194.944 
L 125.707031 194.161778 
L 125.224637 193.379556 
L 124.972685 192.597333 
L 124.862073 191.815111 
L 124.124654 191.032889 
L 123.768236 190.250667 
L 123.543937 189.468444 
L 123.454833 188.686222 
L 123.276623 187.904 
L 123.006237 187.121778 
L 122.655963 186.339556 
L 122.43781 185.557333 
L 122.161278 184.775111 
L 120.213265 183.992889 
L 119.352944 183.210667 
L 119.054904 182.428444 
L 118.51413 181.646222 
L 117.245156 180.864 
L 117.073092 180.081778 
L 116.80885 179.299556 
L 116.670585 178.517333 
L 116.60606 177.735111 
L 116.225061 176.952889 
L 116.169755 176.170667 
L 115.862497 175.388444 
L 115.844062 174.606222 
L 115.767247 173.824 
L 115.610546 173.041778 
L 115.49686 172.259556 
L 115.324796 171.477333 
L 114.999103 170.695111 
L 114.885418 169.912889 
L 114.842402 169.130667 
L 114.59045 168.348444 
L 114.187943 167.566222 
L 113.475105 166.784 
L 113.217009 166.001778 
L 113.127904 165.219556 
L 112.633219 164.437333 
L 112.393558 163.655111 
L 112.243002 162.872889 
L 112.23993 162.090667 
L 112.175406 161.308444 
L 111.969543 160.526222 
L 111.44106 159.744 
L 111.318157 158.961778 
L 110.414819 158.179556 
L 110.172086 157.397333 
L 109.895554 156.615111 
L 109.858683 155.832889 
L 109.73578 155.050667 
L 109.569861 154.268444 
L 109.201152 153.486222 
L 109.142773 152.704 
L 109.124337 151.921778 
L 109.053668 151.139556 
L 109.029088 150.357333 
L 108.448371 149.575111 
L 108.073516 148.792889 
L 107.947541 148.010667 
L 107.836928 147.228444 
L 107.489727 146.446222 
L 107.081074 145.664 
L 106.767671 144.881778 
L 106.71851 144.099556 
L 106.405107 143.317333 
L 106.386672 142.535111 
L 106.343656 141.752889 
L 106.322148 140.970667 
L 105.538641 140.188444 
L 105.449536 139.406222 
L 105.421883 138.624 
L 105.188367 137.841778 
L 104.232796 137.059556 
L 104.125256 136.277333 
L 103.492305 135.495111 
L 103.372475 134.712889 
L 103.264935 133.930667 
L 101.645687 133.148444 
L 101.495131 132.366222 
L 101.151002 131.584 
L 100.859107 130.801778 
L 100.634809 130.801778 
L 100.247665 130.019556 
L 100.127834 129.237333 
L 99.928117 128.455111 
L 99.55019 127.672889 
L 99.110812 126.890667 
L 99.086231 126.108444 
L 98.785119 126.108444 
L 98.382611 125.326222 
L 98.302724 124.544 
L 97.623685 123.761778 
L 97.54687 122.979556 
L 96.996879 122.197333 
L 96.652751 121.415111 
L 96.477614 120.632889 
L 96.302477 119.850667 
L 95.743268 119.068444 
L 95.678744 118.286222 
L 95.061156 116.721778 
L 94.824568 115.939556 
L 94.717028 115.157333 
L 94.508092 114.375111 
L 94.090222 113.592889 
L 93.859779 112.810667 
L 93.838271 112.028444 
L 93.733803 111.246222 
L 93.595537 110.464 
L 92.956441 109.681778 
L 92.888845 108.899556 
L 92.781305 108.117333 
L 92.160644 107.335111 
L 91.896403 106.552889 
L 91.822661 105.770667 
L 91.687468 104.988444 
L 91.650597 104.206222 
L 90.781058 103.424 
L 90.255647 102.641778 
L 90.074365 101.859556 
L 89.800906 101.077333 
L 89.751745 100.295111 
L 89.668785 99.512889 
L 89.576608 98.730667 
L 89.469068 97.948444 
L 89.462922 97.166222 
L 89.398398 96.384 
L 89.171028 95.601778 
L 89.137229 94.819556 
L 88.430537 94.037333 
L 88.381376 93.255111 
L 88.240037 92.472889 
L 87.438095 91.690667 
L 87.388933 90.908444 
L 87.223014 90.126222 
L 86.842015 89.344 
L 86.433362 88.561778 
L 86.427217 87.779556 
L 86.230572 86.997333 
L 85.923315 86.215111 
L 85.837282 85.432889 
L 85.689799 84.650667 
L 85.14288 83.868444 
L 85.041485 83.086222 
L 84.869421 82.304 
L 84.823332 81.521778 
L 84.310212 81.521778 
L 84.181164 80.739556 
L 83.741785 79.957333 
L 83.167214 79.175111 
L 82.856884 78.392889 
L 82.832303 77.610667 
L 82.767779 76.828444 
L 81.759974 76.046222 
L 81.480369 75.264 
L 81.437353 74.481778 
L 81.305233 73.699556 
L 81.268362 72.917333 
L 80.951886 72.135111 
L 80.844346 71.352889 
L 80.343516 70.570667 
L 80.014751 69.788444 
L 79.901065 69.006222 
L 79.79967 68.224 
L 79.437106 67.441778 
L 79.304985 66.659556 
L 78.871752 65.877333 
L 78.373995 65.095111 
L 78.125116 64.312889 
L 77.602778 63.530667 
L 77.123456 62.748444 
L 76.346095 61.966222 
L 76.287716 61.184 
L 75.544152 60.401778 
L 75.498064 59.619556 
L 75.279911 58.837333 
L 74.296686 58.837333 
L 73.94334 58.055111 
L 73.832727 57.272889 
z
" clip-path="url(#p22dac8c374)" style="fill: #7cfc00"/>
   </g>
   <g id="PolyCollection_3">
    <path d="M 73.832727 54.144 
L 73.832727 57.272889 
L 73.94334 58.055111 
L 74.296686 58.837333 
L 75.279911 58.837333 
L 75.498064 59.619556 
L 75.544152 60.401778 
L 76.287716 61.184 
L 76.346095 61.966222 
L 77.123456 62.748444 
L 77.602778 63.530667 
L 78.125116 64.312889 
L 78.373995 65.095111 
L 78.871752 65.877333 
L 79.304985 66.659556 
L 79.437106 67.441778 
L 79.79967 68.224 
L 79.901065 69.006222 
L 80.014751 69.788444 
L 80.343516 70.570667 
L 80.844346 71.352889 
L 80.951886 72.135111 
L 81.268362 72.917333 
L 81.305233 73.699556 
L 81.437353 74.481778 
L 81.480369 75.264 
L 81.759974 76.046222 
L 82.767779 76.828444 
L 82.832303 77.610667 
L 82.856884 78.392889 
L 83.167214 79.175111 
L 83.741785 79.957333 
L 84.181164 80.739556 
L 84.310212 81.521778 
L 84.823332 81.521778 
L 84.869421 82.304 
L 85.041485 83.086222 
L 85.14288 83.868444 
L 85.689799 84.650667 
L 85.837282 85.432889 
L 85.923315 86.215111 
L 86.230572 86.997333 
L 86.427217 87.779556 
L 86.433362 88.561778 
L 86.842015 89.344 
L 87.223014 90.126222 
L 87.388933 90.908444 
L 87.438095 91.690667 
L 88.240037 92.472889 
L 88.381376 93.255111 
L 88.430537 94.037333 
L 89.137229 94.819556 
L 89.171028 95.601778 
L 89.398398 96.384 
L 89.462922 97.166222 
L 89.469068 97.948444 
L 89.576608 98.730667 
L 89.668785 99.512889 
L 89.751745 100.295111 
L 89.800906 101.077333 
L 90.074365 101.859556 
L 90.255647 102.641778 
L 90.781058 103.424 
L 91.650597 104.206222 
L 91.687468 104.988444 
L 91.822661 105.770667 
L 91.896403 106.552889 
L 92.160644 107.335111 
L 92.781305 108.117333 
L 92.888845 108.899556 
L 92.956441 109.681778 
L 93.595537 110.464 
L 93.733803 111.246222 
L 93.838271 112.028444 
L 93.859779 112.810667 
L 94.090222 113.592889 
L 94.508092 114.375111 
L 94.717028 115.157333 
L 94.824568 115.939556 
L 95.061156 116.721778 
L 95.678744 118.286222 
L 95.743268 119.068444 
L 96.302477 119.850667 
L 96.477614 120.632889 
L 96.652751 121.415111 
L 96.996879 122.197333 
L 97.54687 122.979556 
L 97.623685 123.761778 
L 98.302724 124.544 
L 98.382611 125.326222 
L 98.785119 126.108444 
L 99.086231 126.108444 
L 99.110812 126.890667 
L 99.55019 127.672889 
L 99.928117 128.455111 
L 100.127834 129.237333 
L 100.247665 130.019556 
L 100.634809 130.801778 
L 100.859107 130.801778 
L 101.151002 131.584 
L 101.495131 132.366222 
L 101.645687 133.148444 
L 103.264935 133.930667 
L 103.372475 134.712889 
L 103.492305 135.495111 
L 104.125256 136.277333 
L 104.232796 137.059556 
L 105.188367 137.841778 
L 105.421883 138.624 
L 105.449536 139.406222 
L 105.538641 140.188444 
L 106.322148 140.970667 
L 106.343656 141.752889 
L 106.386672 142.535111 
L 106.405107 143.317333 
L 106.71851 144.099556 
L 106.767671 144.881778 
L 107.081074 145.664 
L 107.489727 146.446222 
L 107.836928 147.228444 
L 107.947541 148.010667 
L 108.073516 148.792889 
L 108.448371 149.575111 
L 109.029088 150.357333 
L 109.053668 151.139556 
L 109.124337 151.921778 
L 109.142773 152.704 
L 109.201152 153.486222 
L 109.569861 154.268444 
L 109.73578 155.050667 
L 109.858683 155.832889 
L 109.895554 156.615111 
L 110.172086 157.397333 
L 110.414819 158.179556 
L 111.318157 158.961778 
L 111.44106 159.744 
L 111.969543 160.526222 
L 112.175406 161.308444 
L 112.23993 162.090667 
L 112.243002 162.872889 
L 112.393558 163.655111 
L 112.633219 164.437333 
L 113.127904 165.219556 
L 113.217009 166.001778 
L 113.475105 166.784 
L 114.187943 167.566222 
L 114.59045 168.348444 
L 114.842402 169.130667 
L 114.885418 169.912889 
L 114.999103 170.695111 
L 115.324796 171.477333 
L 115.49686 172.259556 
L 115.610546 173.041778 
L 115.767247 173.824 
L 115.844062 174.606222 
L 115.862497 175.388444 
L 116.169755 176.170667 
L 116.225061 176.952889 
L 116.60606 177.735111 
L 116.670585 178.517333 
L 116.80885 179.299556 
L 117.073092 180.081778 
L 117.245156 180.864 
L 118.51413 181.646222 
L 119.054904 182.428444 
L 119.352944 183.210667 
L 120.213265 183.992889 
L 122.161278 184.775111 
L 122.43781 185.557333 
L 122.655963 186.339556 
L 123.006237 187.121778 
L 123.276623 187.904 
L 123.454833 188.686222 
L 123.543937 189.468444 
L 123.768236 190.250667 
L 124.124654 191.032889 
L 124.862073 191.815111 
L 124.972685 192.597333 
L 125.224637 193.379556 
L 125.707031 194.161778 
L 125.768483 194.944 
L 125.829934 195.726222 
L 126.091103 196.508444 
L 126.392216 197.290667 
L 126.579643 198.072889 
L 126.87461 198.855111 
L 127.117344 199.637333 
L 127.329351 200.419556 
L 127.400021 201.201778 
L 127.934649 201.984 
L 128.352519 202.766222 
L 128.884075 203.548444 
L 129.919533 204.330667 
L 130.248299 205.112889 
L 130.472597 205.895111 
L 131.010298 206.677333 
L 131.428168 207.459556 
L 131.7047 208.241778 
L 132.90915 209.024 
L 133.677294 209.806222 
L 133.686511 210.588444 
L 133.751036 211.370667 
L 133.775616 212.152889 
L 133.987624 212.935111 
L 134.715824 213.717333 
L 135.167493 214.499556 
L 135.185929 215.281778 
L 136.212169 216.064 
L 136.937297 216.846222 
L 136.961878 217.628444 
L 137.447345 218.410667 
L 137.588683 219.192889 
L 138.307666 219.975111 
L 138.952907 220.757333 
L 139.035867 221.539556 
L 139.066592 222.321778 
L 140.055962 223.104 
L 140.347857 223.886222 
L 140.397018 224.668444 
L 140.682767 225.450667 
L 141.629121 226.232889 
L 144.280754 227.015111 
L 144.677117 227.797333 
L 144.769294 228.579556 
L 145.104205 229.361778 
L 145.43297 230.144 
L 145.439115 230.926222 
L 145.565091 231.708444 
L 146.505299 232.490667 
L 147.119815 233.272889 
L 147.700531 234.055111 
L 148.010862 234.837333 
L 148.161418 235.619556 
L 148.351918 236.401778 
L 148.932635 237.184 
L 149.040175 237.966222 
L 150.57339 238.748444 
L 151.516671 239.530667 
L 151.541252 240.312889 
L 151.728679 241.095111 
L 151.802421 241.877333 
L 152.592073 242.659556 
L 152.690395 243.441778 
L 152.920838 244.224 
L 153.443176 245.006222 
L 153.587587 245.788444 
L 154.546231 246.570667 
L 155.240633 247.352889 
L 155.30823 248.135111 
L 155.406553 248.917333 
L 156.156261 249.699556 
L 156.282237 250.481778 
L 157.465179 251.264 
L 158.829402 252.046222 
L 159.379394 252.828444 
L 159.990836 253.610667 
L 160.003127 254.392889 
L 160.338037 255.175111 
L 161.407294 255.957333 
L 161.662318 256.739556 
L 161.895833 257.521778 
L 161.978793 258.304 
L 162.289123 259.086222 
L 164.350822 259.868444 
L 164.458362 260.650667 
L 164.876232 261.432889 
L 165.370917 262.215111 
L 165.573707 262.997333 
L 165.699683 263.779556 
L 166.191295 264.561778 
L 167.192955 265.344 
L 167.346584 266.126222 
L 167.80747 266.908444 
L 170.975296 267.690667 
L 171.93394 268.472889 
L 172.385609 270.037333 
L 173.24593 270.819556 
L 173.374978 271.601778 
L 174.699258 272.384 
L 175.206234 273.166222 
L 178.500035 273.948444 
L 179.504768 274.730667 
L 180.478774 275.512889 
L 180.912008 276.295111 
L 181.477362 277.077333 
L 181.778474 277.859556 
L 182.654158 278.641778 
L 186.224492 279.424 
L 186.593201 280.206222 
L 187.597933 280.988444 
L 188.550432 281.770667 
L 188.630319 282.552889 
L 192.120765 283.335111 
L 192.784442 284.117333 
L 199.679303 284.899556 
L 202.831766 285.681778 
L 204.318893 286.464 
L 205.013295 287.246222 
L 205.637028 288.028444 
L 206.666341 288.810667 
L 210.353433 289.592889 
L 214.608951 290.375111 
L 216.69523 291.157333 
L 224.425832 291.939556 
L 228.899502 292.721778 
L 229.855074 293.504 
L 232.205594 294.286222 
L 232.863126 295.068444 
L 237.791538 295.850667 
L 238.538174 296.632889 
L 239.472237 297.415111 
L 240.20351 298.197333 
L 240.418591 298.979556 
L 245.946155 299.761778 
L 267.368156 300.544 
L 276.899288 301.326222 
L 277.695085 302.108444 
L 279.283607 302.890667 
L 283.778786 303.672889 
L 307.419187 304.455111 
L 327.781149 305.237333 
L 330.678589 306.019556 
L 398.487273 306.801778 
L 398.487273 306.801778 
L 398.487273 306.801778 
L 330.678589 306.019556 
L 327.781149 305.237333 
L 307.419187 304.455111 
L 283.778786 303.672889 
L 279.283607 302.890667 
L 277.695085 302.108444 
L 276.899288 301.326222 
L 267.368156 300.544 
L 245.946155 299.761778 
L 240.418591 298.979556 
L 240.20351 298.197333 
L 239.472237 297.415111 
L 238.538174 296.632889 
L 237.791538 295.850667 
L 232.863126 295.068444 
L 232.205594 294.286222 
L 229.855074 293.504 
L 228.899502 292.721778 
L 224.425832 291.939556 
L 216.69523 291.157333 
L 214.608951 290.375111 
L 210.353433 289.592889 
L 206.666341 288.810667 
L 205.637028 288.028444 
L 205.013295 287.246222 
L 204.318893 286.464 
L 202.831766 285.681778 
L 199.679303 284.899556 
L 192.784442 284.117333 
L 192.120765 283.335111 
L 188.630319 282.552889 
L 188.550432 281.770667 
L 187.597933 280.988444 
L 186.593201 280.206222 
L 186.224492 279.424 
L 182.654158 278.641778 
L 181.778474 277.859556 
L 181.477362 277.077333 
L 180.912008 276.295111 
L 180.478774 275.512889 
L 179.504768 274.730667 
L 178.500035 273.948444 
L 175.206234 273.166222 
L 174.699258 272.384 
L 173.374978 271.601778 
L 173.24593 270.819556 
L 172.385609 270.037333 
L 171.93394 268.472889 
L 170.975296 267.690667 
L 167.80747 266.908444 
L 167.346584 266.126222 
L 167.192955 265.344 
L 166.191295 264.561778 
L 165.699683 263.779556 
L 165.573707 262.997333 
L 165.370917 262.215111 
L 164.876232 261.432889 
L 164.458362 260.650667 
L 164.350822 259.868444 
L 162.289123 259.086222 
L 161.978793 258.304 
L 161.895833 257.521778 
L 161.662318 256.739556 
L 161.407294 255.957333 
L 160.338037 255.175111 
L 160.003127 254.392889 
L 159.990836 253.610667 
L 159.379394 252.828444 
L 158.829402 252.046222 
L 157.465179 251.264 
L 156.282237 250.481778 
L 156.156261 249.699556 
L 155.406553 248.917333 
L 155.30823 248.135111 
L 155.240633 247.352889 
L 154.546231 246.570667 
L 153.587587 245.788444 
L 153.443176 245.006222 
L 152.920838 244.224 
L 152.690395 243.441778 
L 152.592073 242.659556 
L 151.802421 241.877333 
L 151.728679 241.095111 
L 151.541252 240.312889 
L 151.516671 239.530667 
L 150.57339 238.748444 
L 149.040175 237.966222 
L 148.932635 237.184 
L 148.351918 236.401778 
L 148.161418 235.619556 
L 148.010862 234.837333 
L 147.700531 234.055111 
L 147.119815 233.272889 
L 146.505299 232.490667 
L 145.565091 231.708444 
L 145.439115 230.926222 
L 145.43297 230.144 
L 145.104205 229.361778 
L 144.769294 228.579556 
L 144.677117 227.797333 
L 144.280754 227.015111 
L 141.629121 226.232889 
L 140.682767 225.450667 
L 140.397018 224.668444 
L 140.347857 223.886222 
L 140.055962 223.104 
L 139.066592 222.321778 
L 139.035867 221.539556 
L 138.952907 220.757333 
L 138.307666 219.975111 
L 137.588683 219.192889 
L 137.447345 218.410667 
L 136.961878 217.628444 
L 136.937297 216.846222 
L 136.212169 216.064 
L 135.185929 215.281778 
L 135.167493 214.499556 
L 134.715824 213.717333 
L 133.987624 212.935111 
L 133.775616 212.152889 
L 133.751036 211.370667 
L 133.686511 210.588444 
L 133.677294 209.806222 
L 132.90915 209.024 
L 131.7047 208.241778 
L 131.428168 207.459556 
L 131.010298 206.677333 
L 130.472597 205.895111 
L 130.248299 205.112889 
L 129.919533 204.330667 
L 128.884075 203.548444 
L 128.352519 202.766222 
L 127.934649 201.984 
L 127.400021 201.201778 
L 127.329351 200.419556 
L 127.117344 199.637333 
L 126.87461 198.855111 
L 126.579643 198.072889 
L 126.392216 197.290667 
L 126.091103 196.508444 
L 125.829934 195.726222 
L 125.768483 194.944 
L 125.707031 194.161778 
L 125.224637 193.379556 
L 124.972685 192.597333 
L 124.862073 191.815111 
L 124.124654 191.032889 
L 123.768236 190.250667 
L 123.543937 189.468444 
L 123.454833 188.686222 
L 123.276623 187.904 
L 123.006237 187.121778 
L 122.655963 186.339556 
L 122.43781 185.557333 
L 122.161278 184.775111 
L 120.213265 183.992889 
L 119.352944 183.210667 
L 119.054904 182.428444 
L 118.51413 181.646222 
L 117.245156 180.864 
L 117.073092 180.081778 
L 116.80885 179.299556 
L 116.670585 178.517333 
L 116.60606 177.735111 
L 116.225061 176.952889 
L 116.169755 176.170667 
L 115.862497 175.388444 
L 115.844062 174.606222 
L 115.767247 173.824 
L 115.610546 173.041778 
L 115.49686 172.259556 
L 115.324796 171.477333 
L 114.999103 170.695111 
L 114.885418 169.912889 
L 114.842402 169.130667 
L 114.59045 168.348444 
L 114.187943 167.566222 
L 113.475105 166.784 
L 113.217009 166.001778 
L 113.127904 165.219556 
L 112.633219 164.437333 
L 112.393558 163.655111 
L 112.243002 162.872889 
L 112.23993 162.090667 
L 112.175406 161.308444 
L 111.969543 160.526222 
L 111.44106 159.744 
L 111.318157 158.961778 
L 110.414819 158.179556 
L 110.172086 157.397333 
L 109.895554 156.615111 
L 109.858683 155.832889 
L 109.73578 155.050667 
L 109.569861 154.268444 
L 109.201152 153.486222 
L 109.142773 152.704 
L 109.124337 151.921778 
L 109.053668 151.139556 
L 109.029088 150.357333 
L 108.448371 149.575111 
L 108.073516 148.792889 
L 107.947541 148.010667 
L 107.836928 147.228444 
L 107.489727 146.446222 
L 107.081074 145.664 
L 106.767671 144.881778 
L 106.71851 144.099556 
L 106.405107 143.317333 
L 106.386672 142.535111 
L 106.343656 141.752889 
L 106.322148 140.970667 
L 105.538641 140.188444 
L 105.449536 139.406222 
L 105.421883 138.624 
L 105.188367 137.841778 
L 104.232796 137.059556 
L 104.125256 136.277333 
L 103.492305 135.495111 
L 103.372475 134.712889 
L 103.264935 133.930667 
L 101.645687 133.148444 
L 101.495131 132.366222 
L 101.151002 131.584 
L 100.859107 130.801778 
L 100.634809 130.019556 
L 100.247665 129.237333 
L 100.127834 128.455111 
L 99.928117 127.672889 
L 99.55019 126.890667 
L 99.110812 126.108444 
L 99.086231 125.326222 
L 98.785119 124.544 
L 98.382611 123.761778 
L 98.302724 122.979556 
L 97.623685 122.197333 
L 97.54687 121.415111 
L 96.996879 120.632889 
L 96.652751 119.850667 
L 96.477614 119.068444 
L 96.302477 118.286222 
L 95.743268 117.504 
L 95.678744 116.721778 
L 95.061156 115.157333 
L 94.824568 114.375111 
L 94.717028 113.592889 
L 94.508092 112.810667 
L 94.090222 112.028444 
L 93.859779 111.246222 
L 93.838271 110.464 
L 93.733803 109.681778 
L 93.595537 108.899556 
L 92.956441 108.117333 
L 92.888845 107.335111 
L 92.781305 106.552889 
L 92.160644 105.770667 
L 91.896403 104.988444 
L 91.822661 104.206222 
L 91.687468 103.424 
L 91.650597 102.641778 
L 90.781058 101.859556 
L 90.255647 101.077333 
L 90.074365 100.295111 
L 89.800906 99.512889 
L 89.751745 98.730667 
L 89.668785 97.948444 
L 89.576608 97.166222 
L 89.469068 96.384 
L 89.462922 95.601778 
L 89.398398 94.819556 
L 89.171028 94.037333 
L 89.137229 93.255111 
L 88.430537 92.472889 
L 88.381376 91.690667 
L 88.240037 90.908444 
L 87.438095 90.126222 
L 87.388933 89.344 
L 87.223014 88.561778 
L 86.842015 87.779556 
L 86.433362 86.997333 
L 86.427217 86.215111 
L 86.230572 85.432889 
L 85.923315 84.650667 
L 85.837282 83.868444 
L 85.689799 83.086222 
L 85.14288 82.304 
L 85.041485 81.521778 
L 84.869421 80.739556 
L 84.823332 79.957333 
L 84.310212 79.175111 
L 84.181164 78.392889 
L 83.741785 77.610667 
L 83.167214 76.828444 
L 82.856884 76.046222 
L 82.832303 75.264 
L 82.767779 74.481778 
L 81.759974 73.699556 
L 81.480369 72.917333 
L 81.437353 72.135111 
L 81.305233 71.352889 
L 81.268362 70.570667 
L 80.951886 69.788444 
L 80.844346 69.006222 
L 80.343516 68.224 
L 80.014751 67.441778 
L 79.901065 66.659556 
L 79.79967 65.877333 
L 79.437106 65.095111 
L 79.304985 64.312889 
L 78.871752 63.530667 
L 78.373995 62.748444 
L 78.125116 61.966222 
L 77.602778 61.184 
L 77.123456 60.401778 
L 76.346095 59.619556 
L 76.287716 58.837333 
L 75.544152 58.055111 
L 75.498064 57.272889 
L 75.279911 56.490667 
L 74.296686 55.708444 
L 73.94334 54.926222 
L 73.832727 54.144 
z
" clip-path="url(#p22dac8c374)" style="fill: #ff0000"/>
   </g>
   <g id="matplotlib.axis_1">
    <g id="xtick_1">
     <g id="line2d_1">
      <defs>
       <path id="mc098862209" d="M 0 0 
L 0 3.5 
" style="stroke: #000000; stroke-width: 0.8"/>
      </defs>
      <g>
       <use xlink:href="#mc098862209" x="106.709293" y="307.584" style="stroke: #000000; stroke-width: 0.8"/>
      </g>
     </g>
     <g id="text_1">
      <!-- 200 -->
      <g transform="translate(97.165543 322.182437)scale(0.1 -0.1)">
       <defs>
        <path id="DejaVuSans-32" d="M 1228 531 
L 3431 531 
L 3431 0 
L 469 0 
L 469 531 
Q 828 903 1448 1529 
Q 2069 2156 2228 2338 
Q 2531 2678 2651 2914 
Q 2772 3150 2772 3378 
Q 2772 3750 2511 3984 
Q 2250 4219 1831 4219 
Q 1534 4219 1204 4116 
Q 875 4013 500 3803 
L 500 4441 
Q 881 4594 1212 4672 
Q 1544 4750 1819 4750 
Q 2544 4750 2975 4387 
Q 3406 4025 3406 3419 
Q 3406 3131 3298 2873 
Q 3191 2616 2906 2266 
Q 2828 2175 2409 1742 
Q 1991 1309 1228 531 
z
" transform="scale(0.015625)"/>
        <path id="DejaVuSans-30" d="M 2034 4250 
Q 1547 4250 1301 3770 
Q 1056 3291 1056 2328 
Q 1056 1369 1301 889 
Q 1547 409 2034 409 
Q 2525 409 2770 889 
Q 3016 1369 3016 2328 
Q 3016 3291 2770 3770 
Q 2525 4250 2034 4250 
z
M 2034 4750 
Q 2819 4750 3233 4129 
Q 3647 3509 3647 2328 
Q 3647 1150 3233 529 
Q 2819 -91 2034 -91 
Q 1250 -91 836 529 
Q 422 1150 422 2328 
Q 422 3509 836 4129 
Q 1250 4750 2034 4750 
z
" transform="scale(0.015625)"/>
       </defs>
       <use xlink:href="#DejaVuSans-32"/>
       <use xlink:href="#DejaVuSans-30" x="63.623047"/>
       <use xlink:href="#DejaVuSans-30" x="127.246094"/>
      </g>
     </g>
    </g>
    <g id="xtick_2">
     <g id="line2d_2">
      <g>
       <use xlink:href="#mc098862209" x="168.160816" y="307.584" style="stroke: #000000; stroke-width: 0.8"/>
      </g>
     </g>
     <g id="text_2">
      <!-- 400 -->
      <g transform="translate(158.617066 322.182437)scale(0.1 -0.1)">
       <defs>
        <path id="DejaVuSans-34" d="M 2419 4116 
L 825 1625 
L 2419 1625 
L 2419 4116 
z
M 2253 4666 
L 3047 4666 
L 3047 1625 
L 3713 1625 
L 3713 1100 
L 3047 1100 
L 3047 0 
L 2419 0 
L 2419 1100 
L 313 1100 
L 313 1709 
L 2253 4666 
z
" transform="scale(0.015625)"/>
       </defs>
       <use xlink:href="#DejaVuSans-34"/>
       <use xlink:href="#DejaVuSans-30" x="63.623047"/>
       <use xlink:href="#DejaVuSans-30" x="127.246094"/>
      </g>
     </g>
    </g>
    <g id="xtick_3">
     <g id="line2d_3">
      <g>
       <use xlink:href="#mc098862209" x="229.61234" y="307.584" style="stroke: #000000; stroke-width: 0.8"/>
      </g>
     </g>
     <g id="text_3">
      <!-- 600 -->
      <g transform="translate(220.06859 322.182437)scale(0.1 -0.1)">
       <defs>
        <path id="DejaVuSans-36" d="M 2113 2584 
Q 1688 2584 1439 2293 
Q 1191 2003 1191 1497 
Q 1191 994 1439 701 
Q 1688 409 2113 409 
Q 2538 409 2786 701 
Q 3034 994 3034 1497 
Q 3034 2003 2786 2293 
Q 2538 2584 2113 2584 
z
M 3366 4563 
L 3366 3988 
Q 3128 4100 2886 4159 
Q 2644 4219 2406 4219 
Q 1781 4219 1451 3797 
Q 1122 3375 1075 2522 
Q 1259 2794 1537 2939 
Q 1816 3084 2150 3084 
Q 2853 3084 3261 2657 
Q 3669 2231 3669 1497 
Q 3669 778 3244 343 
Q 2819 -91 2113 -91 
Q 1303 -91 875 529 
Q 447 1150 447 2328 
Q 447 3434 972 4092 
Q 1497 4750 2381 4750 
Q 2619 4750 2861 4703 
Q 3103 4656 3366 4563 
z
" transform="scale(0.015625)"/>
       </defs>
       <use xlink:href="#DejaVuSans-36"/>
       <use xlink:href="#DejaVuSans-30" x="63.623047"/>
       <use xlink:href="#DejaVuSans-30" x="127.246094"/>
      </g>
     </g>
    </g>
    <g id="xtick_4">
     <g id="line2d_4">
      <g>
       <use xlink:href="#mc098862209" x="291.063864" y="307.584" style="stroke: #000000; stroke-width: 0.8"/>
      </g>
     </g>
     <g id="text_4">
      <!-- 800 -->
      <g transform="translate(281.520114 322.182437)scale(0.1 -0.1)">
       <defs>
        <path id="DejaVuSans-38" d="M 2034 2216 
Q 1584 2216 1326 1975 
Q 1069 1734 1069 1313 
Q 1069 891 1326 650 
Q 1584 409 2034 409 
Q 2484 409 2743 651 
Q 3003 894 3003 1313 
Q 3003 1734 2745 1975 
Q 2488 2216 2034 2216 
z
M 1403 2484 
Q 997 2584 770 2862 
Q 544 3141 544 3541 
Q 544 4100 942 4425 
Q 1341 4750 2034 4750 
Q 2731 4750 3128 4425 
Q 3525 4100 3525 3541 
Q 3525 3141 3298 2862 
Q 3072 2584 2669 2484 
Q 3125 2378 3379 2068 
Q 3634 1759 3634 1313 
Q 3634 634 3220 271 
Q 2806 -91 2034 -91 
Q 1263 -91 848 271 
Q 434 634 434 1313 
Q 434 1759 690 2068 
Q 947 2378 1403 2484 
z
M 1172 3481 
Q 1172 3119 1398 2916 
Q 1625 2713 2034 2713 
Q 2441 2713 2670 2916 
Q 2900 3119 2900 3481 
Q 2900 3844 2670 4047 
Q 2441 4250 2034 4250 
Q 1625 4250 1398 4047 
Q 1172 3844 1172 3481 
z
" transform="scale(0.015625)"/>
       </defs>
       <use xlink:href="#DejaVuSans-38"/>
       <use xlink:href="#DejaVuSans-30" x="63.623047"/>
       <use xlink:href="#DejaVuSans-30" x="127.246094"/>
      </g>
     </g>
    </g>
    <g id="xtick_5">
     <g id="line2d_5">
      <g>
       <use xlink:href="#mc098862209" x="352.515388" y="307.584" style="stroke: #000000; stroke-width: 0.8"/>
      </g>
     </g>
     <g id="text_5">
      <!-- 1000 -->
      <g transform="translate(339.790388 322.182437)scale(0.1 -0.1)">
       <defs>
        <path id="DejaVuSans-31" d="M 794 531 
L 1825 531 
L 1825 4091 
L 703 3866 
L 703 4441 
L 1819 4666 
L 2450 4666 
L 2450 531 
L 3481 531 
L 3481 0 
L 794 0 
L 794 531 
z
" transform="scale(0.015625)"/>
       </defs>
       <use xlink:href="#DejaVuSans-31"/>
       <use xlink:href="#DejaVuSans-30" x="63.623047"/>
       <use xlink:href="#DejaVuSans-30" x="127.246094"/>
       <use xlink:href="#DejaVuSans-30" x="190.869141"/>
      </g>
     </g>
    </g>
    <g id="xtick_6">
     <g id="line2d_6">
      <g>
       <use xlink:href="#mc098862209" x="413.966912" y="307.584" style="stroke: #000000; stroke-width: 0.8"/>
      </g>
     </g>
     <g id="text_6">
      <!-- 1200 -->
      <g transform="translate(401.241912 322.182437)scale(0.1 -0.1)">
       <use xlink:href="#DejaVuSans-31"/>
       <use xlink:href="#DejaVuSans-32" x="63.623047"/>
       <use xlink:href="#DejaVuSans-30" x="127.246094"/>
       <use xlink:href="#DejaVuSans-30" x="190.869141"/>
      </g>
     </g>
    </g>
    <g id="text_7">
     <!-- Score -->
     <g transform="translate(222.157656 335.860562)scale(0.1 -0.1)">
      <defs>
       <path id="DejaVuSans-53" d="M 3425 4513 
L 3425 3897 
Q 3066 4069 2747 4153 
Q 2428 4238 2131 4238 
Q 1616 4238 1336 4038 
Q 1056 3838 1056 3469 
Q 1056 3159 1242 3001 
Q 1428 2844 1947 2747 
L 2328 2669 
Q 3034 2534 3370 2195 
Q 3706 1856 3706 1288 
Q 3706 609 3251 259 
Q 2797 -91 1919 -91 
Q 1588 -91 1214 -16 
Q 841 59 441 206 
L 441 856 
Q 825 641 1194 531 
Q 1563 422 1919 422 
Q 2459 422 2753 634 
Q 3047 847 3047 1241 
Q 3047 1584 2836 1778 
Q 2625 1972 2144 2069 
L 1759 2144 
Q 1053 2284 737 2584 
Q 422 2884 422 3419 
Q 422 4038 858 4394 
Q 1294 4750 2059 4750 
Q 2388 4750 2728 4690 
Q 3069 4631 3425 4513 
z
" transform="scale(0.015625)"/>
       <path id="DejaVuSans-63" d="M 3122 3366 
L 3122 2828 
Q 2878 2963 2633 3030 
Q 2388 3097 2138 3097 
Q 1578 3097 1268 2742 
Q 959 2388 959 1747 
Q 959 1106 1268 751 
Q 1578 397 2138 397 
Q 2388 397 2633 464 
Q 2878 531 3122 666 
L 3122 134 
Q 2881 22 2623 -34 
Q 2366 -91 2075 -91 
Q 1284 -91 818 406 
Q 353 903 353 1747 
Q 353 2603 823 3093 
Q 1294 3584 2113 3584 
Q 2378 3584 2631 3529 
Q 2884 3475 3122 3366 
z
" transform="scale(0.015625)"/>
       <path id="DejaVuSans-6f" d="M 1959 3097 
Q 1497 3097 1228 2736 
Q 959 2375 959 1747 
Q 959 1119 1226 758 
Q 1494 397 1959 397 
Q 2419 397 2687 759 
Q 2956 1122 2956 1747 
Q 2956 2369 2687 2733 
Q 2419 3097 1959 3097 
z
M 1959 3584 
Q 2709 3584 3137 3096 
Q 3566 2609 3566 1747 
Q 3566 888 3137 398 
Q 2709 -91 1959 -91 
Q 1206 -91 779 398 
Q 353 888 353 1747 
Q 353 2609 779 3096 
Q 1206 3584 1959 3584 
z
" transform="scale(0.015625)"/>
       <path id="DejaVuSans-72" d="M 2631 2963 
Q 2534 3019 2420 3045 
Q 2306 3072 2169 3072 
Q 1681 3072 1420 2755 
Q 1159 2438 1159 1844 
L 1159 0 
L 581 0 
L 581 3500 
L 1159 3500 
L 1159 2956 
Q 1341 3275 1631 3429 
Q 1922 3584 2338 3584 
Q 2397 3584 2469 3576 
Q 2541 3569 2628 3553 
L 2631 2963 
z
" transform="scale(0.015625)"/>
       <path id="DejaVuSans-65" d="M 3597 1894 
L 3597 1613 
L 953 1613 
Q 991 1019 1311 708 
Q 1631 397 2203 397 
Q 2534 397 2845 478 
Q 3156 559 3463 722 
L 3463 178 
Q 3153 47 2828 -22 
Q 2503 -91 2169 -91 
Q 1331 -91 842 396 
Q 353 884 353 1716 
Q 353 2575 817 3079 
Q 1281 3584 2069 3584 
Q 2775 3584 3186 3129 
Q 3597 2675 3597 1894 
z
M 3022 2063 
Q 3016 2534 2758 2815 
Q 2500 3097 2075 3097 
Q 1594 3097 1305 2825 
Q 1016 2553 972 2059 
L 3022 2063 
z
" transform="scale(0.015625)"/>
      </defs>
      <use xlink:href="#DejaVuSans-53"/>
      <use xlink:href="#DejaVuSans-63" x="63.476562"/>
      <use xlink:href="#DejaVuSans-6f" x="118.457031"/>
      <use xlink:href="#DejaVuSans-72" x="179.638672"/>
      <use xlink:href="#DejaVuSans-65" x="218.501953"/>
     </g>
    </g>
   </g>
   <g id="matplotlib.axis_2">
    <g id="ytick_1">
     <g id="line2d_7">
      <defs>
       <path id="m65b05c4ce6" d="M 0 0 
L -3.5 0 
" style="stroke: #000000; stroke-width: 0.8"/>
      </defs>
      <g>
       <use xlink:href="#m65b05c4ce6" x="57.6" y="307.584" style="stroke: #000000; stroke-width: 0.8"/>
      </g>
     </g>
     <g id="text_8">
      <!-- 0 -->
      <g transform="translate(44.2375 311.383219)scale(0.1 -0.1)">
       <use xlink:href="#DejaVuSans-30"/>
      </g>
     </g>
    </g>
    <g id="ytick_2">
     <g id="line2d_8">
      <g>
       <use xlink:href="#m65b05c4ce6" x="57.6" y="268.472889" style="stroke: #000000; stroke-width: 0.8"/>
      </g>
     </g>
     <g id="text_9">
      <!-- 50 -->
      <g transform="translate(37.875 272.272108)scale(0.1 -0.1)">
       <defs>
        <path id="DejaVuSans-35" d="M 691 4666 
L 3169 4666 
L 3169 4134 
L 1269 4134 
L 1269 2991 
Q 1406 3038 1543 3061 
Q 1681 3084 1819 3084 
Q 2600 3084 3056 2656 
Q 3513 2228 3513 1497 
Q 3513 744 3044 326 
Q 2575 -91 1722 -91 
Q 1428 -91 1123 -41 
Q 819 9 494 109 
L 494 744 
Q 775 591 1075 516 
Q 1375 441 1709 441 
Q 2250 441 2565 725 
Q 2881 1009 2881 1497 
Q 2881 1984 2565 2268 
Q 2250 2553 1709 2553 
Q 1456 2553 1204 2497 
Q 953 2441 691 2322 
L 691 4666 
z
" transform="scale(0.015625)"/>
       </defs>
       <use xlink:href="#DejaVuSans-35"/>
       <use xlink:href="#DejaVuSans-30" x="63.623047"/>
      </g>
     </g>
    </g>
    <g id="ytick_3">
     <g id="line2d_9">
      <g>
       <use xlink:href="#m65b05c4ce6" x="57.6" y="229.361778" style="stroke: #000000; stroke-width: 0.8"/>
      </g>
     </g>
     <g id="text_10">
      <!-- 100 -->
      <g transform="translate(31.5125 233.160997)scale(0.1 -0.1)">
       <use xlink:href="#DejaVuSans-31"/>
       <use xlink:href="#DejaVuSans-30" x="63.623047"/>
       <use xlink:href="#DejaVuSans-30" x="127.246094"/>
      </g>
     </g>
    </g>
    <g id="ytick_4">
     <g id="line2d_10">
      <g>
       <use xlink:href="#m65b05c4ce6" x="57.6" y="190.250667" style="stroke: #000000; stroke-width: 0.8"/>
      </g>
     </g>
     <g id="text_11">
      <!-- 150 -->
      <g transform="translate(31.5125 194.049885)scale(0.1 -0.1)">
       <use xlink:href="#DejaVuSans-31"/>
       <use xlink:href="#DejaVuSans-35" x="63.623047"/>
       <use xlink:href="#DejaVuSans-30" x="127.246094"/>
      </g>
     </g>
    </g>
    <g id="ytick_5">
     <g id="line2d_11">
      <g>
       <use xlink:href="#m65b05c4ce6" x="57.6" y="151.139556" style="stroke: #000000; stroke-width: 0.8"/>
      </g>
     </g>
     <g id="text_12">
      <!-- 200 -->
      <g transform="translate(31.5125 154.938774)scale(0.1 -0.1)">
       <use xlink:href="#DejaVuSans-32"/>
       <use xlink:href="#DejaVuSans-30" x="63.623047"/>
       <use xlink:href="#DejaVuSans-30" x="127.246094"/>
      </g>
     </g>
    </g>
    <g id="ytick_6">
     <g id="line2d_12">
      <g>
       <use xlink:href="#m65b05c4ce6" x="57.6" y="112.028444" style="stroke: #000000; stroke-width: 0.8"/>
      </g>
     </g>
     <g id="text_13">
      <!-- 250 -->
      <g transform="translate(31.5125 115.827663)scale(0.1 -0.1)">
       <use xlink:href="#DejaVuSans-32"/>
       <use xlink:href="#DejaVuSans-35" x="63.623047"/>
       <use xlink:href="#DejaVuSans-30" x="127.246094"/>
      </g>
     </g>
    </g>
    <g id="ytick_7">
     <g id="line2d_13">
      <g>
       <use xlink:href="#m65b05c4ce6" x="57.6" y="72.917333" style="stroke: #000000; stroke-width: 0.8"/>
      </g>
     </g>
     <g id="text_14">
      <!-- 300 -->
      <g transform="translate(31.5125 76.716552)scale(0.1 -0.1)">
       <defs>
        <path id="DejaVuSans-33" d="M 2597 2516 
Q 3050 2419 3304 2112 
Q 3559 1806 3559 1356 
Q 3559 666 3084 287 
Q 2609 -91 1734 -91 
Q 1441 -91 1130 -33 
Q 819 25 488 141 
L 488 750 
Q 750 597 1062 519 
Q 1375 441 1716 441 
Q 2309 441 2620 675 
Q 2931 909 2931 1356 
Q 2931 1769 2642 2001 
Q 2353 2234 1838 2234 
L 1294 2234 
L 1294 2753 
L 1863 2753 
Q 2328 2753 2575 2939 
Q 2822 3125 2822 3475 
Q 2822 3834 2567 4026 
Q 2313 4219 1838 4219 
Q 1578 4219 1281 4162 
Q 984 4106 628 3988 
L 628 4550 
Q 988 4650 1302 4700 
Q 1616 4750 1894 4750 
Q 2613 4750 3031 4423 
Q 3450 4097 3450 3541 
Q 3450 3153 3228 2886 
Q 3006 2619 2597 2516 
z
" transform="scale(0.015625)"/>
       </defs>
       <use xlink:href="#DejaVuSans-33"/>
       <use xlink:href="#DejaVuSans-30" x="63.623047"/>
       <use xlink:href="#DejaVuSans-30" x="127.246094"/>
      </g>
     </g>
    </g>
    <g id="text_15">
     <!-- Number of crosslinks -->
     <g transform="translate(25.432812 227.019406)rotate(-90)scale(0.1 -0.1)">
      <defs>
       <path id="DejaVuSans-4e" d="M 628 4666 
L 1478 4666 
L 3547 763 
L 3547 4666 
L 4159 4666 
L 4159 0 
L 3309 0 
L 1241 3903 
L 1241 0 
L 628 0 
L 628 4666 
z
" transform="scale(0.015625)"/>
       <path id="DejaVuSans-75" d="M 544 1381 
L 544 3500 
L 1119 3500 
L 1119 1403 
Q 1119 906 1312 657 
Q 1506 409 1894 409 
Q 2359 409 2629 706 
Q 2900 1003 2900 1516 
L 2900 3500 
L 3475 3500 
L 3475 0 
L 2900 0 
L 2900 538 
Q 2691 219 2414 64 
Q 2138 -91 1772 -91 
Q 1169 -91 856 284 
Q 544 659 544 1381 
z
M 1991 3584 
L 1991 3584 
z
" transform="scale(0.015625)"/>
       <path id="DejaVuSans-6d" d="M 3328 2828 
Q 3544 3216 3844 3400 
Q 4144 3584 4550 3584 
Q 5097 3584 5394 3201 
Q 5691 2819 5691 2113 
L 5691 0 
L 5113 0 
L 5113 2094 
Q 5113 2597 4934 2840 
Q 4756 3084 4391 3084 
Q 3944 3084 3684 2787 
Q 3425 2491 3425 1978 
L 3425 0 
L 2847 0 
L 2847 2094 
Q 2847 2600 2669 2842 
Q 2491 3084 2119 3084 
Q 1678 3084 1418 2786 
Q 1159 2488 1159 1978 
L 1159 0 
L 581 0 
L 581 3500 
L 1159 3500 
L 1159 2956 
Q 1356 3278 1631 3431 
Q 1906 3584 2284 3584 
Q 2666 3584 2933 3390 
Q 3200 3197 3328 2828 
z
" transform="scale(0.015625)"/>
       <path id="DejaVuSans-62" d="M 3116 1747 
Q 3116 2381 2855 2742 
Q 2594 3103 2138 3103 
Q 1681 3103 1420 2742 
Q 1159 2381 1159 1747 
Q 1159 1113 1420 752 
Q 1681 391 2138 391 
Q 2594 391 2855 752 
Q 3116 1113 3116 1747 
z
M 1159 2969 
Q 1341 3281 1617 3432 
Q 1894 3584 2278 3584 
Q 2916 3584 3314 3078 
Q 3713 2572 3713 1747 
Q 3713 922 3314 415 
Q 2916 -91 2278 -91 
Q 1894 -91 1617 61 
Q 1341 213 1159 525 
L 1159 0 
L 581 0 
L 581 4863 
L 1159 4863 
L 1159 2969 
z
" transform="scale(0.015625)"/>
       <path id="DejaVuSans-20" transform="scale(0.015625)"/>
       <path id="DejaVuSans-66" d="M 2375 4863 
L 2375 4384 
L 1825 4384 
Q 1516 4384 1395 4259 
Q 1275 4134 1275 3809 
L 1275 3500 
L 2222 3500 
L 2222 3053 
L 1275 3053 
L 1275 0 
L 697 0 
L 697 3053 
L 147 3053 
L 147 3500 
L 697 3500 
L 697 3744 
Q 697 4328 969 4595 
Q 1241 4863 1831 4863 
L 2375 4863 
z
" transform="scale(0.015625)"/>
       <path id="DejaVuSans-73" d="M 2834 3397 
L 2834 2853 
Q 2591 2978 2328 3040 
Q 2066 3103 1784 3103 
Q 1356 3103 1142 2972 
Q 928 2841 928 2578 
Q 928 2378 1081 2264 
Q 1234 2150 1697 2047 
L 1894 2003 
Q 2506 1872 2764 1633 
Q 3022 1394 3022 966 
Q 3022 478 2636 193 
Q 2250 -91 1575 -91 
Q 1294 -91 989 -36 
Q 684 19 347 128 
L 347 722 
Q 666 556 975 473 
Q 1284 391 1588 391 
Q 1994 391 2212 530 
Q 2431 669 2431 922 
Q 2431 1156 2273 1281 
Q 2116 1406 1581 1522 
L 1381 1569 
Q 847 1681 609 1914 
Q 372 2147 372 2553 
Q 372 3047 722 3315 
Q 1072 3584 1716 3584 
Q 2034 3584 2315 3537 
Q 2597 3491 2834 3397 
z
" transform="scale(0.015625)"/>
       <path id="DejaVuSans-6c" d="M 603 4863 
L 1178 4863 
L 1178 0 
L 603 0 
L 603 4863 
z
" transform="scale(0.015625)"/>
       <path id="DejaVuSans-69" d="M 603 3500 
L 1178 3500 
L 1178 0 
L 603 0 
L 603 3500 
z
M 603 4863 
L 1178 4863 
L 1178 4134 
L 603 4134 
L 603 4863 
z
" transform="scale(0.015625)"/>
       <path id="DejaVuSans-6e" d="M 3513 2113 
L 3513 0 
L 2938 0 
L 2938 2094 
Q 2938 2591 2744 2837 
Q 2550 3084 2163 3084 
Q 1697 3084 1428 2787 
Q 1159 2491 1159 1978 
L 1159 0 
L 581 0 
L 581 3500 
L 1159 3500 
L 1159 2956 
Q 1366 3272 1645 3428 
Q 1925 3584 2291 3584 
Q 2894 3584 3203 3211 
Q 3513 2838 3513 2113 
z
" transform="scale(0.015625)"/>
       <path id="DejaVuSans-6b" d="M 581 4863 
L 1159 4863 
L 1159 1991 
L 2875 3500 
L 3609 3500 
L 1753 1863 
L 3688 0 
L 2938 0 
L 1159 1709 
L 1159 0 
L 581 0 
L 581 4863 
z
" transform="scale(0.015625)"/>
      </defs>
      <use xlink:href="#DejaVuSans-4e"/>
      <use xlink:href="#DejaVuSans-75" x="74.804688"/>
      <use xlink:href="#DejaVuSans-6d" x="138.183594"/>
      <use xlink:href="#DejaVuSans-62" x="235.595703"/>
      <use xlink:href="#DejaVuSans-65" x="299.072266"/>
      <use xlink:href="#DejaVuSans-72" x="360.595703"/>
      <use xlink:href="#DejaVuSans-20" x="401.708984"/>
      <use xlink:href="#DejaVuSans-6f" x="433.496094"/>
      <use xlink:href="#DejaVuSans-66" x="494.677734"/>
      <use xlink:href="#DejaVuSans-20" x="529.882812"/>
      <use xlink:href="#DejaVuSans-63" x="561.669922"/>
      <use xlink:href="#DejaVuSans-72" x="616.650391"/>
      <use xlink:href="#DejaVuSans-6f" x="655.513672"/>
      <use xlink:href="#DejaVuSans-73" x="716.695312"/>
      <use xlink:href="#DejaVuSans-73" x="768.794922"/>
      <use xlink:href="#DejaVuSans-6c" x="820.894531"/>
      <use xlink:href="#DejaVuSans-69" x="848.677734"/>
      <use xlink:href="#DejaVuSans-6e" x="876.460938"/>
      <use xlink:href="#DejaVuSans-6b" x="939.839844"/>
      <use xlink:href="#DejaVuSans-73" x="997.75"/>
     </g>
    </g>
   </g>
   <g id="patch_3">
    <path d="M 57.6 307.584 
L 57.6 41.472 
" style="fill: none; stroke: #000000; stroke-width: 0.8; stroke-linejoin: miter; stroke-linecap: square"/>
   </g>
   <g id="patch_4">
    <path d="M 414.72 307.584 
L 414.72 41.472 
" style="fill: none; stroke: #000000; stroke-width: 0.8; stroke-linejoin: miter; stroke-linecap: square"/>
   </g>
   <g id="patch_5">
    <path d="M 57.6 307.584 
L 414.72 307.584 
" style="fill: none; stroke: #000000; stroke-width: 0.8; stroke-linejoin: miter; stroke-linecap: square"/>
   </g>
   <g id="patch_6">
    <path d="M 57.6 41.472 
L 414.72 41.472 
" style="fill: none; stroke: #000000; stroke-width: 0.8; stroke-linejoin: miter; stroke-linecap: square"/>
   </g>
   <g id="legend_1">
    <g id="patch_7">
     <path d="M 293.087188 93.506375 
L 407.72 93.506375 
Q 409.72 93.506375 409.72 91.506375 
L 409.72 48.472 
Q 409.72 46.472 407.72 46.472 
L 293.087188 46.472 
Q 291.087188 46.472 291.087188 48.472 
L 291.087188 91.506375 
Q 291.087188 93.506375 293.087188 93.506375 
z
" style="fill: #ffffff; opacity: 0.8; stroke: #cccccc; stroke-linejoin: miter"/>
    </g>
    <g id="patch_8">
     <path d="M 295.087188 58.070438 
L 315.087188 58.070438 
L 315.087188 51.070438 
L 295.087188 51.070438 
z
" style="fill: #008000"/>
    </g>
    <g id="text_16">
     <!-- true -->
     <g transform="translate(323.087188 58.070438)scale(0.1 -0.1)">
      <defs>
       <path id="DejaVuSans-74" d="M 1172 4494 
L 1172 3500 
L 2356 3500 
L 2356 3053 
L 1172 3053 
L 1172 1153 
Q 1172 725 1289 603 
Q 1406 481 1766 481 
L 2356 481 
L 2356 0 
L 1766 0 
Q 1100 0 847 248 
Q 594 497 594 1153 
L 594 3053 
L 172 3053 
L 172 3500 
L 594 3500 
L 594 4494 
L 1172 4494 
z
" transform="scale(0.015625)"/>
      </defs>
      <use xlink:href="#DejaVuSans-74"/>
      <use xlink:href="#DejaVuSans-72" x="39.208984"/>
      <use xlink:href="#DejaVuSans-75" x="80.322266"/>
      <use xlink:href="#DejaVuSans-65" x="143.701172"/>
     </g>
    </g>
    <g id="patch_9">
     <path d="M 295.087188 72.748563 
L 315.087188 72.748563 
L 315.087188 65.748563 
L 295.087188 65.748563 
z
" style="fill: #7cfc00"/>
    </g>
    <g id="text_17">
     <!-- true homeotypic -->
     <g transform="translate(323.087188 72.748563)scale(0.1 -0.1)">
      <defs>
       <path id="DejaVuSans-68" d="M 3513 2113 
L 3513 0 
L 2938 0 
L 2938 2094 
Q 2938 2591 2744 2837 
Q 2550 3084 2163 3084 
Q 1697 3084 1428 2787 
Q 1159 2491 1159 1978 
L 1159 0 
L 581 0 
L 581 4863 
L 1159 4863 
L 1159 2956 
Q 1366 3272 1645 3428 
Q 1925 3584 2291 3584 
Q 2894 3584 3203 3211 
Q 3513 2838 3513 2113 
z
" transform="scale(0.015625)"/>
       <path id="DejaVuSans-79" d="M 2059 -325 
Q 1816 -950 1584 -1140 
Q 1353 -1331 966 -1331 
L 506 -1331 
L 506 -850 
L 844 -850 
Q 1081 -850 1212 -737 
Q 1344 -625 1503 -206 
L 1606 56 
L 191 3500 
L 800 3500 
L 1894 763 
L 2988 3500 
L 3597 3500 
L 2059 -325 
z
" transform="scale(0.015625)"/>
       <path id="DejaVuSans-70" d="M 1159 525 
L 1159 -1331 
L 581 -1331 
L 581 3500 
L 1159 3500 
L 1159 2969 
Q 1341 3281 1617 3432 
Q 1894 3584 2278 3584 
Q 2916 3584 3314 3078 
Q 3713 2572 3713 1747 
Q 3713 922 3314 415 
Q 2916 -91 2278 -91 
Q 1894 -91 1617 61 
Q 1341 213 1159 525 
z
M 3116 1747 
Q 3116 2381 2855 2742 
Q 2594 3103 2138 3103 
Q 1681 3103 1420 2742 
Q 1159 2381 1159 1747 
Q 1159 1113 1420 752 
Q 1681 391 2138 391 
Q 2594 391 2855 752 
Q 3116 1113 3116 1747 
z
" transform="scale(0.015625)"/>
      </defs>
      <use xlink:href="#DejaVuSans-74"/>
      <use xlink:href="#DejaVuSans-72" x="39.208984"/>
      <use xlink:href="#DejaVuSans-75" x="80.322266"/>
      <use xlink:href="#DejaVuSans-65" x="143.701172"/>
      <use xlink:href="#DejaVuSans-20" x="205.224609"/>
      <use xlink:href="#DejaVuSans-68" x="237.011719"/>
      <use xlink:href="#DejaVuSans-6f" x="300.390625"/>
      <use xlink:href="#DejaVuSans-6d" x="361.572266"/>
      <use xlink:href="#DejaVuSans-65" x="458.984375"/>
      <use xlink:href="#DejaVuSans-6f" x="520.507812"/>
      <use xlink:href="#DejaVuSans-74" x="581.689453"/>
      <use xlink:href="#DejaVuSans-79" x="620.898438"/>
      <use xlink:href="#DejaVuSans-70" x="680.078125"/>
      <use xlink:href="#DejaVuSans-69" x="743.554688"/>
      <use xlink:href="#DejaVuSans-63" x="771.337891"/>
     </g>
    </g>
    <g id="patch_10">
     <path d="M 295.087188 87.426688 
L 315.087188 87.426688 
L 315.087188 80.426688 
L 295.087188 80.426688 
z
" style="fill: #ff0000"/>
    </g>
    <g id="text_18">
     <!-- false -->
     <g transform="translate(323.087188 87.426688)scale(0.1 -0.1)">
      <defs>
       <path id="DejaVuSans-61" d="M 2194 1759 
Q 1497 1759 1228 1600 
Q 959 1441 959 1056 
Q 959 750 1161 570 
Q 1363 391 1709 391 
Q 2188 391 2477 730 
Q 2766 1069 2766 1631 
L 2766 1759 
L 2194 1759 
z
M 3341 1997 
L 3341 0 
L 2766 0 
L 2766 531 
Q 2569 213 2275 61 
Q 1981 -91 1556 -91 
Q 1019 -91 701 211 
Q 384 513 384 1019 
Q 384 1609 779 1909 
Q 1175 2209 1959 2209 
L 2766 2209 
L 2766 2266 
Q 2766 2663 2505 2880 
Q 2244 3097 1772 3097 
Q 1472 3097 1187 3025 
Q 903 2953 641 2809 
L 641 3341 
Q 956 3463 1253 3523 
Q 1550 3584 1831 3584 
Q 2591 3584 2966 3190 
Q 3341 2797 3341 1997 
z
" transform="scale(0.015625)"/>
      </defs>
      <use xlink:href="#DejaVuSans-66"/>
      <use xlink:href="#DejaVuSans-61" x="35.205078"/>
      <use xlink:href="#DejaVuSans-6c" x="96.484375"/>
      <use xlink:href="#DejaVuSans-73" x="124.267578"/>
      <use xlink:href="#DejaVuSans-65" x="176.367188"/>
     </g>
    </g>
   </g>
  </g>
 </g>
 <defs>
  <clipPath id="p22dac8c374">
   <rect x="57.6" y="41.472" width="357.12" height="266.112"/>
  </clipPath>
 </defs>
</svg>
