<?xml version="1.0" encoding="utf-8" standalone="no"?>
<!DOCTYPE svg PUBLIC "-//W3C//DTD SVG 1.1//EN"
  "http://www.w3.org/Graphics/SVG/1.1/DTD/svg11.dtd">
<svg xmlns:xlink="http://www.w3.org/1999/xlink" width="460.8pt" height="345.6pt" viewBox="0 0 460.8 345.6" xmlns="http://www.w3.org/2000/svg" version="1.1">
 <metadata>
  <rdf:RDF xmlns:dc="http://purl.org/dc/elements/1.1/" xmlns:cc="http://creativecommons.org/ns#" xmlns:rdf="http://www.w3.org/1999/02/22-rdf-syntax-ns#">
   <cc:Work>
    <dc:type rdf:resource="http://purl.org/dc/dcmitype/StillImage"/>
    <dc:date>2022-07-21T14:48:39.452872</dc:date>
    <dc:format>image/svg+xml</dc:format>
    <dc:creator>
     <cc:Agent>
      <dc:title>Matplotlib v3.5.1, https://matplotlib.org/</dc:title>
     </cc:Agent>
    </dc:creator>
   </cc:Work>
  </rdf:RDF>
 </metadata>
 <defs>
  <style type="text/css">*{stroke-linejoin: round; stroke-linecap: butt}</style>
 </defs>
 <g id="figure_1">
  <g id="patch_1">
   <path d="M 0 345.6 
L 460.8 345.6 
L 460.8 0 
L 0 0 
z
" style="fill: #ffffff"/>
  </g>
  <g id="axes_1">
   <g id="patch_2">
    <path d="M 57.6 307.584 
L 414.72 307.584 
L 414.72 41.472 
L 57.6 41.472 
z
" style="fill: #ffffff"/>
   </g>
   <g id="PolyCollection_1">
    <path d="M 73.832727 90.896628 
L 73.832727 307.584 
L 73.918759 307.584 
L 73.94334 307.584 
L 74.244452 307.584 
L 74.296686 307.584 
L 75.279911 307.584 
L 75.307564 307.584 
L 75.498064 307.584 
L 75.544152 307.584 
L 76.287716 307.584 
L 76.346095 307.584 
L 76.628772 307.584 
L 77.123456 307.584 
L 77.602778 307.584 
L 78.125116 307.584 
L 78.232656 307.584 
L 78.373995 307.584 
L 78.871752 307.584 
L 79.304985 307.584 
L 79.437106 307.584 
L 79.79967 307.584 
L 79.901065 307.584 
L 80.014751 307.584 
L 80.116146 307.584 
L 80.20525 307.584 
L 80.343516 307.584 
L 80.844346 307.584 
L 80.951886 307.584 
L 81.268362 307.584 
L 81.305233 307.584 
L 81.437353 307.584 
L 81.480369 307.584 
L 81.759974 307.584 
L 82.767779 307.584 
L 82.832303 307.584 
L 82.856884 307.584 
L 83.167214 307.584 
L 83.741785 307.584 
L 84.181164 307.584 
L 84.310212 307.584 
L 84.823332 307.584 
L 84.869421 307.584 
L 85.041485 307.584 
L 85.14288 307.584 
L 85.689799 307.584 
L 85.837282 307.584 
L 85.923315 307.584 
L 86.230572 307.584 
L 86.427217 307.584 
L 86.433362 307.584 
L 86.842015 307.584 
L 87.223014 307.584 
L 87.388933 307.584 
L 87.438095 307.584 
L 88.240037 307.584 
L 88.381376 307.584 
L 89.137229 307.584 
L 89.171028 307.584 
L 89.398398 307.584 
L 89.462922 307.584 
L 89.469068 307.584 
L 89.576608 307.584 
L 89.668785 307.584 
L 89.751745 307.584 
L 89.800906 307.584 
L 90.074365 307.584 
L 90.255647 307.584 
L 90.781058 307.584 
L 91.490823 307.584 
L 91.650597 307.584 
L 91.687468 307.584 
L 91.822661 307.584 
L 91.896403 307.584 
L 92.160644 307.584 
L 92.781305 307.584 
L 92.888845 307.584 
L 92.956441 307.584 
L 93.595537 307.584 
L 93.733803 307.584 
L 93.838271 307.584 
L 93.859779 307.584 
L 94.090222 307.584 
L 94.508092 307.584 
L 94.717028 307.584 
L 94.824568 307.584 
L 95.061156 307.584 
L 95.678744 307.584 
L 95.743268 307.584 
L 96.302477 307.584 
L 96.477614 307.584 
L 96.652751 307.584 
L 96.996879 307.584 
L 97.54687 307.584 
L 97.623685 307.584 
L 98.302724 307.584 
L 98.382611 307.584 
L 98.785119 307.584 
L 99.086231 307.584 
L 99.110812 307.584 
L 99.55019 307.584 
L 99.928117 307.584 
L 100.127834 307.584 
L 100.247665 307.584 
L 100.634809 307.584 
L 100.859107 307.584 
L 101.151002 307.584 
L 101.495131 307.584 
L 101.645687 307.584 
L 103.264935 307.584 
L 103.372475 307.584 
L 103.492305 307.584 
L 104.125256 307.584 
L 104.232796 307.584 
L 105.188367 307.584 
L 105.421883 307.584 
L 105.449536 307.584 
L 105.538641 307.584 
L 106.322148 307.584 
L 106.343656 307.584 
L 106.386672 307.584 
L 106.405107 307.584 
L 106.71851 307.584 
L 106.767671 307.584 
L 107.081074 307.584 
L 107.489727 307.584 
L 107.836928 307.584 
L 107.947541 307.584 
L 108.073516 307.584 
L 108.448371 307.584 
L 109.029088 307.584 
L 109.053668 307.584 
L 109.124337 307.584 
L 109.142773 307.584 
L 109.201152 307.584 
L 109.569861 307.584 
L 109.73578 307.584 
L 109.858683 307.584 
L 109.895554 307.584 
L 110.172086 307.584 
L 110.414819 307.584 
L 111.318157 307.584 
L 111.44106 307.584 
L 111.969543 307.584 
L 112.175406 307.584 
L 112.23993 307.584 
L 112.243002 307.584 
L 112.393558 307.584 
L 112.633219 307.584 
L 113.127904 307.584 
L 113.217009 307.584 
L 113.475105 307.584 
L 114.187943 307.584 
L 114.59045 307.584 
L 114.842402 307.584 
L 114.885418 307.584 
L 114.999103 307.584 
L 115.324796 307.584 
L 115.49686 307.584 
L 115.610546 307.584 
L 115.767247 307.584 
L 115.844062 307.584 
L 115.862497 307.584 
L 116.169755 307.584 
L 116.225061 307.584 
L 116.60606 307.584 
L 116.670585 307.584 
L 116.80885 307.584 
L 117.073092 307.584 
L 117.245156 307.584 
L 118.51413 307.584 
L 119.054904 307.584 
L 119.352944 307.584 
L 120.213265 307.584 
L 122.161278 307.584 
L 122.43781 307.584 
L 122.655963 307.584 
L 123.006237 307.584 
L 123.276623 307.584 
L 123.454833 307.584 
L 123.543937 307.584 
L 123.768236 307.584 
L 124.124654 307.584 
L 124.862073 307.584 
L 124.972685 307.584 
L 125.224637 307.584 
L 125.707031 307.584 
L 125.768483 307.584 
L 125.829934 307.584 
L 126.091103 307.584 
L 126.392216 307.584 
L 126.579643 307.584 
L 126.87461 307.584 
L 127.117344 307.584 
L 127.329351 307.584 
L 127.400021 307.584 
L 127.934649 307.584 
L 128.352519 307.584 
L 128.884075 307.584 
L 129.919533 307.584 
L 130.248299 307.584 
L 130.472597 307.584 
L 131.010298 307.584 
L 131.428168 307.584 
L 131.7047 307.584 
L 132.90915 307.584 
L 133.677294 307.584 
L 133.686511 307.584 
L 133.751036 307.584 
L 133.775616 307.584 
L 133.987624 307.584 
L 134.715824 307.584 
L 135.167493 307.584 
L 135.185929 307.584 
L 136.212169 307.584 
L 136.937297 307.584 
L 136.961878 307.584 
L 137.447345 307.584 
L 137.588683 307.584 
L 138.307666 307.584 
L 138.952907 307.584 
L 139.035867 307.584 
L 139.066592 307.584 
L 140.055962 307.584 
L 140.347857 307.584 
L 140.397018 307.584 
L 140.682767 307.584 
L 141.629121 307.584 
L 144.280754 307.584 
L 144.677117 307.584 
L 144.769294 307.584 
L 145.104205 307.584 
L 145.43297 307.584 
L 145.439115 307.584 
L 145.565091 307.584 
L 146.505299 307.584 
L 147.119815 307.584 
L 147.700531 307.584 
L 148.010862 307.584 
L 148.161418 307.584 
L 148.351918 307.584 
L 148.932635 307.584 
L 149.040175 307.584 
L 150.57339 307.584 
L 151.516671 307.584 
L 151.541252 307.584 
L 151.728679 307.584 
L 151.802421 307.584 
L 152.592073 307.584 
L 152.690395 307.584 
L 152.920838 307.584 
L 153.443176 307.584 
L 153.587587 307.584 
L 154.546231 307.584 
L 155.240633 307.584 
L 155.30823 307.584 
L 155.406553 307.584 
L 156.156261 307.584 
L 156.282237 307.584 
L 157.465179 307.584 
L 158.829402 307.584 
L 159.379394 307.584 
L 159.990836 307.584 
L 160.003127 307.584 
L 160.338037 307.584 
L 161.407294 307.584 
L 161.662318 307.584 
L 161.895833 307.584 
L 161.978793 307.584 
L 162.289123 307.584 
L 164.350822 307.584 
L 164.458362 307.584 
L 164.876232 307.584 
L 165.370917 307.584 
L 165.573707 307.584 
L 165.699683 307.584 
L 166.191295 307.584 
L 167.192955 307.584 
L 167.346584 307.584 
L 167.80747 307.584 
L 170.975296 307.584 
L 171.93394 307.584 
L 172.385609 307.584 
L 173.24593 307.584 
L 173.374978 307.584 
L 174.699258 307.584 
L 175.206234 307.584 
L 178.500035 307.584 
L 179.504768 307.584 
L 180.478774 307.584 
L 180.912008 307.584 
L 181.477362 307.584 
L 181.778474 307.584 
L 182.654158 307.584 
L 186.224492 307.584 
L 186.593201 307.584 
L 187.597933 307.584 
L 188.550432 307.584 
L 188.630319 307.584 
L 192.120765 307.584 
L 192.784442 307.584 
L 199.679303 307.584 
L 202.831766 307.584 
L 204.318893 307.584 
L 205.013295 307.584 
L 205.637028 307.584 
L 206.666341 307.584 
L 210.353433 307.584 
L 214.608951 307.584 
L 216.69523 307.584 
L 224.425832 307.584 
L 228.899502 307.584 
L 229.855074 307.584 
L 232.205594 307.584 
L 232.863126 307.584 
L 237.791538 307.584 
L 238.538174 307.584 
L 239.472237 307.584 
L 240.20351 307.584 
L 240.418591 307.584 
L 245.946155 307.584 
L 267.368156 307.584 
L 276.899288 307.584 
L 277.695085 307.584 
L 279.283607 307.584 
L 283.778786 307.584 
L 307.419187 307.584 
L 327.781149 307.584 
L 330.678589 307.584 
L 398.487273 307.584 
L 398.487273 307.584 
L 398.487273 307.584 
L 330.678589 307.584 
L 327.781149 307.584 
L 307.419187 307.584 
L 283.778786 307.584 
L 279.283607 307.584 
L 277.695085 307.584 
L 276.899288 306.81832 
L 267.368156 306.81832 
L 245.946155 306.81832 
L 240.418591 306.81832 
L 240.20351 306.81832 
L 239.472237 306.81832 
L 238.538174 306.81832 
L 237.791538 306.81832 
L 232.863126 306.81832 
L 232.205594 306.81832 
L 229.855074 306.81832 
L 228.899502 306.81832 
L 224.425832 306.05264 
L 216.69523 306.05264 
L 214.608951 306.05264 
L 210.353433 305.286961 
L 206.666341 305.286961 
L 205.637028 304.521281 
L 205.013295 304.521281 
L 204.318893 303.755601 
L 202.831766 303.755601 
L 199.679303 303.755601 
L 192.784442 303.755601 
L 192.120765 302.989921 
L 188.630319 302.224242 
L 188.550432 302.224242 
L 187.597933 301.458562 
L 186.593201 300.692882 
L 186.224492 299.927202 
L 182.654158 299.161523 
L 181.778474 298.395843 
L 181.477362 297.630163 
L 180.912008 297.630163 
L 180.478774 297.630163 
L 179.504768 296.864483 
L 178.500035 296.098804 
L 175.206234 295.333124 
L 174.699258 294.567444 
L 173.374978 294.567444 
L 173.24593 293.801764 
L 172.385609 293.036085 
L 171.93394 291.504725 
L 170.975296 291.504725 
L 167.80747 290.739045 
L 167.346584 289.973366 
L 167.192955 289.207686 
L 166.191295 288.442006 
L 165.699683 288.442006 
L 165.573707 287.676326 
L 165.370917 286.910647 
L 164.876232 286.144967 
L 164.458362 285.379287 
L 164.350822 284.613607 
L 162.289123 283.847927 
L 161.978793 283.082248 
L 161.895833 282.316568 
L 161.662318 281.550888 
L 161.407294 280.785208 
L 160.338037 280.019529 
L 160.003127 279.253849 
L 159.990836 278.488169 
L 159.379394 277.722489 
L 158.829402 276.95681 
L 157.465179 276.19113 
L 156.282237 276.19113 
L 156.156261 276.19113 
L 155.406553 276.19113 
L 155.30823 275.42545 
L 155.240633 274.65977 
L 154.546231 273.894091 
L 153.587587 273.128411 
L 153.443176 273.128411 
L 152.920838 272.362731 
L 152.690395 271.597051 
L 152.592073 270.831372 
L 151.802421 270.831372 
L 151.728679 270.065692 
L 151.541252 269.300012 
L 151.516671 268.534332 
L 150.57339 267.768653 
L 149.040175 267.002973 
L 148.932635 266.237293 
L 148.351918 265.471613 
L 148.161418 264.705934 
L 148.010862 263.940254 
L 147.700531 263.174574 
L 147.119815 262.408894 
L 146.505299 261.643215 
L 145.565091 260.877535 
L 145.439115 260.111855 
L 145.43297 259.346175 
L 145.104205 258.580495 
L 144.769294 257.814816 
L 144.677117 257.049136 
L 144.280754 256.283456 
L 141.629121 255.517776 
L 140.682767 254.752097 
L 140.397018 253.986417 
L 140.347857 253.220737 
L 140.055962 252.455057 
L 139.066592 251.689378 
L 139.035867 250.923698 
L 138.952907 250.158018 
L 138.307666 249.392338 
L 137.588683 248.626659 
L 137.447345 247.860979 
L 136.961878 247.095299 
L 136.937297 246.329619 
L 136.212169 245.56394 
L 135.185929 244.79826 
L 135.167493 244.03258 
L 134.715824 243.2669 
L 133.987624 242.501221 
L 133.775616 242.501221 
L 133.751036 241.735541 
L 133.686511 240.969861 
L 133.677294 240.204181 
L 132.90915 240.204181 
L 131.7047 239.438502 
L 131.428168 238.672822 
L 131.010298 237.907142 
L 130.472597 237.141462 
L 130.248299 236.375782 
L 129.919533 235.610103 
L 128.884075 234.844423 
L 128.352519 234.078743 
L 127.934649 233.313063 
L 127.400021 232.547384 
L 127.329351 231.781704 
L 127.117344 231.016024 
L 126.87461 230.250344 
L 126.579643 229.484665 
L 126.392216 228.718985 
L 126.091103 227.953305 
L 125.829934 227.187625 
L 125.768483 226.421946 
L 125.707031 225.656266 
L 125.224637 224.890586 
L 124.972685 224.124906 
L 124.862073 223.359227 
L 124.124654 222.593547 
L 123.768236 221.827867 
L 123.543937 221.062187 
L 123.454833 220.296508 
L 123.276623 219.530828 
L 123.006237 218.765148 
L 122.655963 217.999468 
L 122.43781 217.233789 
L 122.161278 216.468109 
L 120.213265 215.702429 
L 119.352944 214.936749 
L 119.054904 214.171069 
L 118.51413 214.171069 
L 117.245156 213.40539 
L 117.073092 212.63971 
L 116.80885 211.87403 
L 116.670585 211.10835 
L 116.60606 210.342671 
L 116.225061 209.576991 
L 116.169755 208.811311 
L 115.862497 208.045631 
L 115.844062 207.279952 
L 115.767247 206.514272 
L 115.610546 205.748592 
L 115.49686 204.982912 
L 115.324796 204.217233 
L 114.999103 203.451553 
L 114.885418 202.685873 
L 114.842402 201.920193 
L 114.59045 201.154514 
L 114.187943 201.154514 
L 113.475105 200.388834 
L 113.217009 199.623154 
L 113.127904 198.857474 
L 112.633219 198.091795 
L 112.393558 197.326115 
L 112.243002 196.560435 
L 112.23993 195.794755 
L 112.175406 195.029076 
L 111.969543 194.263396 
L 111.44106 193.497716 
L 111.318157 192.732036 
L 110.414819 191.966356 
L 110.172086 191.966356 
L 109.895554 191.200677 
L 109.858683 190.434997 
L 109.73578 189.669317 
L 109.569861 188.903637 
L 109.201152 188.137958 
L 109.142773 187.372278 
L 109.124337 186.606598 
L 109.053668 185.840918 
L 109.029088 185.075239 
L 108.448371 184.309559 
L 108.073516 183.543879 
L 107.947541 182.778199 
L 107.836928 182.01252 
L 107.489727 181.24684 
L 107.081074 180.48116 
L 106.767671 179.71548 
L 106.71851 179.71548 
L 106.405107 178.949801 
L 106.386672 178.184121 
L 106.343656 177.418441 
L 106.322148 176.652761 
L 105.538641 175.887082 
L 105.449536 175.121402 
L 105.421883 174.355722 
L 105.188367 173.590042 
L 104.232796 172.824363 
L 104.125256 172.058683 
L 103.492305 171.293003 
L 103.372475 170.527323 
L 103.264935 169.761644 
L 101.645687 168.995964 
L 101.495131 168.230284 
L 101.151002 167.464604 
L 100.859107 166.698924 
L 100.634809 166.698924 
L 100.247665 165.933245 
L 100.127834 165.167565 
L 99.928117 164.401885 
L 99.55019 163.636205 
L 99.110812 162.870526 
L 99.086231 162.104846 
L 98.785119 162.104846 
L 98.382611 161.339166 
L 98.302724 160.573486 
L 97.623685 159.807807 
L 97.54687 159.042127 
L 96.996879 158.276447 
L 96.652751 157.510767 
L 96.477614 156.745088 
L 96.302477 155.979408 
L 95.743268 155.213728 
L 95.678744 154.448048 
L 95.061156 152.916689 
L 94.824568 152.151009 
L 94.717028 151.385329 
L 94.508092 150.61965 
L 94.090222 149.85397 
L 93.859779 149.08829 
L 93.838271 148.32261 
L 93.733803 147.556931 
L 93.595537 146.791251 
L 92.956441 146.025571 
L 92.888845 145.259891 
L 92.781305 144.494211 
L 92.160644 143.728532 
L 91.896403 142.962852 
L 91.822661 142.197172 
L 91.687468 141.431492 
L 91.650597 140.665813 
L 91.490823 139.900133 
L 90.781058 139.134453 
L 90.255647 138.368773 
L 90.074365 137.603094 
L 89.800906 136.837414 
L 89.751745 136.071734 
L 89.668785 135.306054 
L 89.576608 134.540375 
L 89.469068 133.774695 
L 89.462922 133.009015 
L 89.398398 132.243335 
L 89.171028 131.477656 
L 89.137229 130.711976 
L 88.381376 130.711976 
L 88.240037 129.946296 
L 87.438095 129.180616 
L 87.388933 128.414937 
L 87.223014 127.649257 
L 86.842015 126.883577 
L 86.433362 126.117897 
L 86.427217 125.352218 
L 86.230572 124.586538 
L 85.923315 123.820858 
L 85.837282 123.055178 
L 85.689799 122.289498 
L 85.14288 122.289498 
L 85.041485 121.523819 
L 84.869421 120.758139 
L 84.823332 119.992459 
L 84.310212 119.992459 
L 84.181164 119.226779 
L 83.741785 118.4611 
L 83.167214 117.69542 
L 82.856884 116.92974 
L 82.832303 116.16406 
L 82.767779 115.398381 
L 81.759974 114.632701 
L 81.480369 113.867021 
L 81.437353 113.101341 
L 81.305233 112.335662 
L 81.268362 111.569982 
L 80.951886 110.804302 
L 80.844346 110.038622 
L 80.343516 109.272943 
L 80.20525 108.507263 
L 80.116146 107.741583 
L 80.014751 106.975903 
L 79.901065 106.210224 
L 79.79967 105.444544 
L 79.437106 104.678864 
L 79.304985 103.913184 
L 78.871752 103.147505 
L 78.373995 102.381825 
L 78.232656 101.616145 
L 78.125116 100.850465 
L 77.602778 100.084785 
L 77.123456 99.319106 
L 76.628772 98.553426 
L 76.346095 97.787746 
L 76.287716 97.022066 
L 75.544152 96.256387 
L 75.498064 95.490707 
L 75.307564 94.725027 
L 75.279911 93.959347 
L 74.296686 93.959347 
L 74.244452 93.193668 
L 73.94334 92.427988 
L 73.918759 91.662308 
L 73.832727 90.896628 
z
" clip-path="url(#pb729594f11)" style="fill: #008000"/>
   </g>
   <g id="PolyCollection_2">
    <path d="M 73.832727 57.206719 
L 73.832727 90.896628 
L 73.918759 91.662308 
L 73.94334 92.427988 
L 74.244452 93.193668 
L 74.296686 93.959347 
L 75.279911 93.959347 
L 75.307564 94.725027 
L 75.498064 95.490707 
L 75.544152 96.256387 
L 76.287716 97.022066 
L 76.346095 97.787746 
L 76.628772 98.553426 
L 77.123456 99.319106 
L 77.602778 100.084785 
L 78.125116 100.850465 
L 78.232656 101.616145 
L 78.373995 102.381825 
L 78.871752 103.147505 
L 79.304985 103.913184 
L 79.437106 104.678864 
L 79.79967 105.444544 
L 79.901065 106.210224 
L 80.014751 106.975903 
L 80.116146 107.741583 
L 80.20525 108.507263 
L 80.343516 109.272943 
L 80.844346 110.038622 
L 80.951886 110.804302 
L 81.268362 111.569982 
L 81.305233 112.335662 
L 81.437353 113.101341 
L 81.480369 113.867021 
L 81.759974 114.632701 
L 82.767779 115.398381 
L 82.832303 116.16406 
L 82.856884 116.92974 
L 83.167214 117.69542 
L 83.741785 118.4611 
L 84.181164 119.226779 
L 84.310212 119.992459 
L 84.823332 119.992459 
L 84.869421 120.758139 
L 85.041485 121.523819 
L 85.14288 122.289498 
L 85.689799 122.289498 
L 85.837282 123.055178 
L 85.923315 123.820858 
L 86.230572 124.586538 
L 86.427217 125.352218 
L 86.433362 126.117897 
L 86.842015 126.883577 
L 87.223014 127.649257 
L 87.388933 128.414937 
L 87.438095 129.180616 
L 88.240037 129.946296 
L 88.381376 130.711976 
L 89.137229 130.711976 
L 89.171028 131.477656 
L 89.398398 132.243335 
L 89.462922 133.009015 
L 89.469068 133.774695 
L 89.576608 134.540375 
L 89.668785 135.306054 
L 89.751745 136.071734 
L 89.800906 136.837414 
L 90.074365 137.603094 
L 90.255647 138.368773 
L 90.781058 139.134453 
L 91.490823 139.900133 
L 91.650597 140.665813 
L 91.687468 141.431492 
L 91.822661 142.197172 
L 91.896403 142.962852 
L 92.160644 143.728532 
L 92.781305 144.494211 
L 92.888845 145.259891 
L 92.956441 146.025571 
L 93.595537 146.791251 
L 93.733803 147.556931 
L 93.838271 148.32261 
L 93.859779 149.08829 
L 94.090222 149.85397 
L 94.508092 150.61965 
L 94.717028 151.385329 
L 94.824568 152.151009 
L 95.061156 152.916689 
L 95.678744 154.448048 
L 95.743268 155.213728 
L 96.302477 155.979408 
L 96.477614 156.745088 
L 96.652751 157.510767 
L 96.996879 158.276447 
L 97.54687 159.042127 
L 97.623685 159.807807 
L 98.302724 160.573486 
L 98.382611 161.339166 
L 98.785119 162.104846 
L 99.086231 162.104846 
L 99.110812 162.870526 
L 99.55019 163.636205 
L 99.928117 164.401885 
L 100.127834 165.167565 
L 100.247665 165.933245 
L 100.634809 166.698924 
L 100.859107 166.698924 
L 101.151002 167.464604 
L 101.495131 168.230284 
L 101.645687 168.995964 
L 103.264935 169.761644 
L 103.372475 170.527323 
L 103.492305 171.293003 
L 104.125256 172.058683 
L 104.232796 172.824363 
L 105.188367 173.590042 
L 105.421883 174.355722 
L 105.449536 175.121402 
L 105.538641 175.887082 
L 106.322148 176.652761 
L 106.343656 177.418441 
L 106.386672 178.184121 
L 106.405107 178.949801 
L 106.71851 179.71548 
L 106.767671 179.71548 
L 107.081074 180.48116 
L 107.489727 181.24684 
L 107.836928 182.01252 
L 107.947541 182.778199 
L 108.073516 183.543879 
L 108.448371 184.309559 
L 109.029088 185.075239 
L 109.053668 185.840918 
L 109.124337 186.606598 
L 109.142773 187.372278 
L 109.201152 188.137958 
L 109.569861 188.903637 
L 109.73578 189.669317 
L 109.858683 190.434997 
L 109.895554 191.200677 
L 110.172086 191.966356 
L 110.414819 191.966356 
L 111.318157 192.732036 
L 111.44106 193.497716 
L 111.969543 194.263396 
L 112.175406 195.029076 
L 112.23993 195.794755 
L 112.243002 196.560435 
L 112.393558 197.326115 
L 112.633219 198.091795 
L 113.127904 198.857474 
L 113.217009 199.623154 
L 113.475105 200.388834 
L 114.187943 201.154514 
L 114.59045 201.154514 
L 114.842402 201.920193 
L 114.885418 202.685873 
L 114.999103 203.451553 
L 115.324796 204.217233 
L 115.49686 204.982912 
L 115.610546 205.748592 
L 115.767247 206.514272 
L 115.844062 207.279952 
L 115.862497 208.045631 
L 116.169755 208.811311 
L 116.225061 209.576991 
L 116.60606 210.342671 
L 116.670585 211.10835 
L 116.80885 211.87403 
L 117.073092 212.63971 
L 117.245156 213.40539 
L 118.51413 214.171069 
L 119.054904 214.171069 
L 119.352944 214.936749 
L 120.213265 215.702429 
L 122.161278 216.468109 
L 122.43781 217.233789 
L 122.655963 217.999468 
L 123.006237 218.765148 
L 123.276623 219.530828 
L 123.454833 220.296508 
L 123.543937 221.062187 
L 123.768236 221.827867 
L 124.124654 222.593547 
L 124.862073 223.359227 
L 124.972685 224.124906 
L 125.224637 224.890586 
L 125.707031 225.656266 
L 125.768483 226.421946 
L 125.829934 227.187625 
L 126.091103 227.953305 
L 126.392216 228.718985 
L 126.579643 229.484665 
L 126.87461 230.250344 
L 127.117344 231.016024 
L 127.329351 231.781704 
L 127.400021 232.547384 
L 127.934649 233.313063 
L 128.352519 234.078743 
L 128.884075 234.844423 
L 129.919533 235.610103 
L 130.248299 236.375782 
L 130.472597 237.141462 
L 131.010298 237.907142 
L 131.428168 238.672822 
L 131.7047 239.438502 
L 132.90915 240.204181 
L 133.677294 240.204181 
L 133.686511 240.969861 
L 133.751036 241.735541 
L 133.775616 242.501221 
L 133.987624 242.501221 
L 134.715824 243.2669 
L 135.167493 244.03258 
L 135.185929 244.79826 
L 136.212169 245.56394 
L 136.937297 246.329619 
L 136.961878 247.095299 
L 137.447345 247.860979 
L 137.588683 248.626659 
L 138.307666 249.392338 
L 138.952907 250.158018 
L 139.035867 250.923698 
L 139.066592 251.689378 
L 140.055962 252.455057 
L 140.347857 253.220737 
L 140.397018 253.986417 
L 140.682767 254.752097 
L 141.629121 255.517776 
L 144.280754 256.283456 
L 144.677117 257.049136 
L 144.769294 257.814816 
L 145.104205 258.580495 
L 145.43297 259.346175 
L 145.439115 260.111855 
L 145.565091 260.877535 
L 146.505299 261.643215 
L 147.119815 262.408894 
L 147.700531 263.174574 
L 148.010862 263.940254 
L 148.161418 264.705934 
L 148.351918 265.471613 
L 148.932635 266.237293 
L 149.040175 267.002973 
L 150.57339 267.768653 
L 151.516671 268.534332 
L 151.541252 269.300012 
L 151.728679 270.065692 
L 151.802421 270.831372 
L 152.592073 270.831372 
L 152.690395 271.597051 
L 152.920838 272.362731 
L 153.443176 273.128411 
L 153.587587 273.128411 
L 154.546231 273.894091 
L 155.240633 274.65977 
L 155.30823 275.42545 
L 155.406553 276.19113 
L 156.156261 276.19113 
L 156.282237 276.19113 
L 157.465179 276.19113 
L 158.829402 276.95681 
L 159.379394 277.722489 
L 159.990836 278.488169 
L 160.003127 279.253849 
L 160.338037 280.019529 
L 161.407294 280.785208 
L 161.662318 281.550888 
L 161.895833 282.316568 
L 161.978793 283.082248 
L 162.289123 283.847927 
L 164.350822 284.613607 
L 164.458362 285.379287 
L 164.876232 286.144967 
L 165.370917 286.910647 
L 165.573707 287.676326 
L 165.699683 288.442006 
L 166.191295 288.442006 
L 167.192955 289.207686 
L 167.346584 289.973366 
L 167.80747 290.739045 
L 170.975296 291.504725 
L 171.93394 291.504725 
L 172.385609 293.036085 
L 173.24593 293.801764 
L 173.374978 294.567444 
L 174.699258 294.567444 
L 175.206234 295.333124 
L 178.500035 296.098804 
L 179.504768 296.864483 
L 180.478774 297.630163 
L 180.912008 297.630163 
L 181.477362 297.630163 
L 181.778474 298.395843 
L 182.654158 299.161523 
L 186.224492 299.927202 
L 186.593201 300.692882 
L 187.597933 301.458562 
L 188.550432 302.224242 
L 188.630319 302.224242 
L 192.120765 302.989921 
L 192.784442 303.755601 
L 199.679303 303.755601 
L 202.831766 303.755601 
L 204.318893 303.755601 
L 205.013295 304.521281 
L 205.637028 304.521281 
L 206.666341 305.286961 
L 210.353433 305.286961 
L 214.608951 306.05264 
L 216.69523 306.05264 
L 224.425832 306.05264 
L 228.899502 306.81832 
L 229.855074 306.81832 
L 232.205594 306.81832 
L 232.863126 306.81832 
L 237.791538 306.81832 
L 238.538174 306.81832 
L 239.472237 306.81832 
L 240.20351 306.81832 
L 240.418591 306.81832 
L 245.946155 306.81832 
L 267.368156 306.81832 
L 276.899288 306.81832 
L 277.695085 307.584 
L 279.283607 307.584 
L 283.778786 307.584 
L 307.419187 307.584 
L 327.781149 307.584 
L 330.678589 307.584 
L 398.487273 307.584 
L 398.487273 306.81832 
L 398.487273 306.81832 
L 330.678589 306.05264 
L 327.781149 305.286961 
L 307.419187 304.521281 
L 283.778786 303.755601 
L 279.283607 302.989921 
L 277.695085 302.224242 
L 276.899288 301.458562 
L 267.368156 300.692882 
L 245.946155 299.927202 
L 240.418591 299.161523 
L 240.20351 298.395843 
L 239.472237 297.630163 
L 238.538174 296.864483 
L 237.791538 296.098804 
L 232.863126 295.333124 
L 232.205594 294.567444 
L 229.855074 293.801764 
L 228.899502 293.036085 
L 224.425832 292.270405 
L 216.69523 291.504725 
L 214.608951 290.739045 
L 210.353433 289.973366 
L 206.666341 289.207686 
L 205.637028 288.442006 
L 205.013295 287.676326 
L 204.318893 286.910647 
L 202.831766 286.144967 
L 199.679303 285.379287 
L 192.784442 284.613607 
L 192.120765 283.847927 
L 188.630319 283.082248 
L 188.550432 282.316568 
L 187.597933 281.550888 
L 186.593201 280.785208 
L 186.224492 280.019529 
L 182.654158 279.253849 
L 181.778474 278.488169 
L 181.477362 277.722489 
L 180.912008 276.95681 
L 180.478774 276.19113 
L 179.504768 275.42545 
L 178.500035 274.65977 
L 175.206234 273.894091 
L 174.699258 273.128411 
L 173.374978 272.362731 
L 173.24593 271.597051 
L 172.385609 270.831372 
L 171.93394 269.300012 
L 170.975296 268.534332 
L 167.80747 267.768653 
L 167.346584 267.002973 
L 167.192955 266.237293 
L 166.191295 265.471613 
L 165.699683 264.705934 
L 165.573707 263.940254 
L 165.370917 263.174574 
L 164.876232 262.408894 
L 164.458362 261.643215 
L 164.350822 260.877535 
L 162.289123 260.111855 
L 161.978793 259.346175 
L 161.895833 258.580495 
L 161.662318 257.814816 
L 161.407294 257.049136 
L 160.338037 256.283456 
L 160.003127 255.517776 
L 159.990836 254.752097 
L 159.379394 253.986417 
L 158.829402 253.220737 
L 157.465179 252.455057 
L 156.282237 251.689378 
L 156.156261 250.923698 
L 155.406553 250.158018 
L 155.30823 249.392338 
L 155.240633 248.626659 
L 154.546231 247.860979 
L 153.587587 247.095299 
L 153.443176 246.329619 
L 152.920838 245.56394 
L 152.690395 244.79826 
L 152.592073 244.03258 
L 151.802421 243.2669 
L 151.728679 242.501221 
L 151.541252 241.735541 
L 151.516671 240.969861 
L 150.57339 240.204181 
L 149.040175 239.438502 
L 148.932635 238.672822 
L 148.351918 237.907142 
L 148.161418 237.141462 
L 148.010862 236.375782 
L 147.700531 235.610103 
L 147.119815 234.844423 
L 146.505299 234.078743 
L 145.565091 233.313063 
L 145.439115 232.547384 
L 145.43297 231.781704 
L 145.104205 231.016024 
L 144.769294 230.250344 
L 144.677117 229.484665 
L 144.280754 228.718985 
L 141.629121 227.953305 
L 140.682767 227.187625 
L 140.397018 226.421946 
L 140.347857 225.656266 
L 140.055962 224.890586 
L 139.066592 224.124906 
L 139.035867 223.359227 
L 138.952907 222.593547 
L 138.307666 221.827867 
L 137.588683 221.062187 
L 137.447345 220.296508 
L 136.961878 219.530828 
L 136.937297 218.765148 
L 136.212169 217.999468 
L 135.185929 217.233789 
L 135.167493 216.468109 
L 134.715824 215.702429 
L 133.987624 214.936749 
L 133.775616 214.171069 
L 133.751036 213.40539 
L 133.686511 212.63971 
L 133.677294 211.87403 
L 132.90915 211.10835 
L 131.7047 210.342671 
L 131.428168 209.576991 
L 131.010298 208.811311 
L 130.472597 208.045631 
L 130.248299 207.279952 
L 129.919533 206.514272 
L 128.884075 205.748592 
L 128.352519 204.982912 
L 127.934649 204.217233 
L 127.400021 203.451553 
L 127.329351 202.685873 
L 127.117344 201.920193 
L 126.87461 201.154514 
L 126.579643 200.388834 
L 126.392216 199.623154 
L 126.091103 198.857474 
L 125.829934 198.091795 
L 125.768483 197.326115 
L 125.707031 196.560435 
L 125.224637 195.794755 
L 124.972685 195.029076 
L 124.862073 194.263396 
L 124.124654 193.497716 
L 123.768236 192.732036 
L 123.543937 191.966356 
L 123.454833 191.200677 
L 123.276623 190.434997 
L 123.006237 189.669317 
L 122.655963 188.903637 
L 122.43781 188.137958 
L 122.161278 187.372278 
L 120.213265 186.606598 
L 119.352944 185.840918 
L 119.054904 185.075239 
L 118.51413 184.309559 
L 117.245156 183.543879 
L 117.073092 182.778199 
L 116.80885 182.01252 
L 116.670585 181.24684 
L 116.60606 180.48116 
L 116.225061 179.71548 
L 116.169755 178.949801 
L 115.862497 178.184121 
L 115.844062 177.418441 
L 115.767247 176.652761 
L 115.610546 175.887082 
L 115.49686 175.121402 
L 115.324796 174.355722 
L 114.999103 173.590042 
L 114.885418 172.824363 
L 114.842402 172.058683 
L 114.59045 171.293003 
L 114.187943 170.527323 
L 113.475105 169.761644 
L 113.217009 168.995964 
L 113.127904 168.230284 
L 112.633219 167.464604 
L 112.393558 166.698924 
L 112.243002 165.933245 
L 112.23993 165.167565 
L 112.175406 164.401885 
L 111.969543 163.636205 
L 111.44106 162.870526 
L 111.318157 162.104846 
L 110.414819 161.339166 
L 110.172086 160.573486 
L 109.895554 159.807807 
L 109.858683 159.042127 
L 109.73578 158.276447 
L 109.569861 157.510767 
L 109.201152 156.745088 
L 109.142773 155.979408 
L 109.124337 155.213728 
L 109.053668 154.448048 
L 109.029088 153.682369 
L 108.448371 152.916689 
L 108.073516 152.151009 
L 107.947541 151.385329 
L 107.836928 150.61965 
L 107.489727 149.85397 
L 107.081074 149.08829 
L 106.767671 148.32261 
L 106.71851 147.556931 
L 106.405107 146.791251 
L 106.386672 146.025571 
L 106.343656 145.259891 
L 106.322148 144.494211 
L 105.538641 143.728532 
L 105.449536 142.962852 
L 105.421883 142.197172 
L 105.188367 141.431492 
L 104.232796 140.665813 
L 104.125256 139.900133 
L 103.492305 139.134453 
L 103.372475 138.368773 
L 103.264935 137.603094 
L 101.645687 136.837414 
L 101.495131 136.071734 
L 101.151002 135.306054 
L 100.859107 134.540375 
L 100.634809 134.540375 
L 100.247665 133.774695 
L 100.127834 133.009015 
L 99.928117 132.243335 
L 99.55019 131.477656 
L 99.110812 130.711976 
L 99.086231 129.946296 
L 98.785119 129.946296 
L 98.382611 129.180616 
L 98.302724 128.414937 
L 97.623685 127.649257 
L 97.54687 126.883577 
L 96.996879 126.117897 
L 96.652751 125.352218 
L 96.477614 124.586538 
L 96.302477 123.820858 
L 95.743268 123.055178 
L 95.678744 122.289498 
L 95.061156 120.758139 
L 94.824568 119.992459 
L 94.717028 119.226779 
L 94.508092 118.4611 
L 94.090222 117.69542 
L 93.859779 116.92974 
L 93.838271 116.16406 
L 93.733803 115.398381 
L 93.595537 114.632701 
L 92.956441 113.867021 
L 92.888845 113.101341 
L 92.781305 112.335662 
L 92.160644 111.569982 
L 91.896403 110.804302 
L 91.822661 110.038622 
L 91.687468 109.272943 
L 91.650597 108.507263 
L 91.490823 107.741583 
L 90.781058 106.975903 
L 90.255647 106.210224 
L 90.074365 105.444544 
L 89.800906 104.678864 
L 89.751745 103.913184 
L 89.668785 103.147505 
L 89.576608 102.381825 
L 89.469068 101.616145 
L 89.462922 100.850465 
L 89.398398 100.084785 
L 89.171028 99.319106 
L 89.137229 98.553426 
L 88.381376 97.787746 
L 88.240037 97.022066 
L 87.438095 96.256387 
L 87.388933 95.490707 
L 87.223014 94.725027 
L 86.842015 93.959347 
L 86.433362 93.193668 
L 86.427217 92.427988 
L 86.230572 91.662308 
L 85.923315 90.896628 
L 85.837282 90.130949 
L 85.689799 89.365269 
L 85.14288 88.599589 
L 85.041485 87.833909 
L 84.869421 87.06823 
L 84.823332 86.30255 
L 84.310212 86.30255 
L 84.181164 85.53687 
L 83.741785 84.77119 
L 83.167214 84.005511 
L 82.856884 83.239831 
L 82.832303 82.474151 
L 82.767779 81.708471 
L 81.759974 80.942792 
L 81.480369 80.177112 
L 81.437353 79.411432 
L 81.305233 78.645752 
L 81.268362 77.880073 
L 80.951886 77.114393 
L 80.844346 76.348713 
L 80.343516 75.583033 
L 80.20525 74.817353 
L 80.116146 74.051674 
L 80.014751 73.285994 
L 79.901065 72.520314 
L 79.79967 71.754634 
L 79.437106 70.988955 
L 79.304985 70.223275 
L 78.871752 69.457595 
L 78.373995 68.691915 
L 78.232656 67.926236 
L 78.125116 67.160556 
L 77.602778 66.394876 
L 77.123456 65.629196 
L 76.628772 64.863517 
L 76.346095 64.097837 
L 76.287716 63.332157 
L 75.544152 62.566477 
L 75.498064 61.800798 
L 75.307564 61.035118 
L 75.279911 60.269438 
L 74.296686 60.269438 
L 74.244452 59.503758 
L 73.94334 58.738079 
L 73.918759 57.972399 
L 73.832727 57.206719 
z
" clip-path="url(#pb729594f11)" style="fill: #7cfc00"/>
   </g>
   <g id="PolyCollection_3">
    <path d="M 73.832727 54.144 
L 73.832727 57.206719 
L 73.918759 57.972399 
L 73.94334 58.738079 
L 74.244452 59.503758 
L 74.296686 60.269438 
L 75.279911 60.269438 
L 75.307564 61.035118 
L 75.498064 61.800798 
L 75.544152 62.566477 
L 76.287716 63.332157 
L 76.346095 64.097837 
L 76.628772 64.863517 
L 77.123456 65.629196 
L 77.602778 66.394876 
L 78.125116 67.160556 
L 78.232656 67.926236 
L 78.373995 68.691915 
L 78.871752 69.457595 
L 79.304985 70.223275 
L 79.437106 70.988955 
L 79.79967 71.754634 
L 79.901065 72.520314 
L 80.014751 73.285994 
L 80.116146 74.051674 
L 80.20525 74.817353 
L 80.343516 75.583033 
L 80.844346 76.348713 
L 80.951886 77.114393 
L 81.268362 77.880073 
L 81.305233 78.645752 
L 81.437353 79.411432 
L 81.480369 80.177112 
L 81.759974 80.942792 
L 82.767779 81.708471 
L 82.832303 82.474151 
L 82.856884 83.239831 
L 83.167214 84.005511 
L 83.741785 84.77119 
L 84.181164 85.53687 
L 84.310212 86.30255 
L 84.823332 86.30255 
L 84.869421 87.06823 
L 85.041485 87.833909 
L 85.14288 88.599589 
L 85.689799 89.365269 
L 85.837282 90.130949 
L 85.923315 90.896628 
L 86.230572 91.662308 
L 86.427217 92.427988 
L 86.433362 93.193668 
L 86.842015 93.959347 
L 87.223014 94.725027 
L 87.388933 95.490707 
L 87.438095 96.256387 
L 88.240037 97.022066 
L 88.381376 97.787746 
L 89.137229 98.553426 
L 89.171028 99.319106 
L 89.398398 100.084785 
L 89.462922 100.850465 
L 89.469068 101.616145 
L 89.576608 102.381825 
L 89.668785 103.147505 
L 89.751745 103.913184 
L 89.800906 104.678864 
L 90.074365 105.444544 
L 90.255647 106.210224 
L 90.781058 106.975903 
L 91.490823 107.741583 
L 91.650597 108.507263 
L 91.687468 109.272943 
L 91.822661 110.038622 
L 91.896403 110.804302 
L 92.160644 111.569982 
L 92.781305 112.335662 
L 92.888845 113.101341 
L 92.956441 113.867021 
L 93.595537 114.632701 
L 93.733803 115.398381 
L 93.838271 116.16406 
L 93.859779 116.92974 
L 94.090222 117.69542 
L 94.508092 118.4611 
L 94.717028 119.226779 
L 94.824568 119.992459 
L 95.061156 120.758139 
L 95.678744 122.289498 
L 95.743268 123.055178 
L 96.302477 123.820858 
L 96.477614 124.586538 
L 96.652751 125.352218 
L 96.996879 126.117897 
L 97.54687 126.883577 
L 97.623685 127.649257 
L 98.302724 128.414937 
L 98.382611 129.180616 
L 98.785119 129.946296 
L 99.086231 129.946296 
L 99.110812 130.711976 
L 99.55019 131.477656 
L 99.928117 132.243335 
L 100.127834 133.009015 
L 100.247665 133.774695 
L 100.634809 134.540375 
L 100.859107 134.540375 
L 101.151002 135.306054 
L 101.495131 136.071734 
L 101.645687 136.837414 
L 103.264935 137.603094 
L 103.372475 138.368773 
L 103.492305 139.134453 
L 104.125256 139.900133 
L 104.232796 140.665813 
L 105.188367 141.431492 
L 105.421883 142.197172 
L 105.449536 142.962852 
L 105.538641 143.728532 
L 106.322148 144.494211 
L 106.343656 145.259891 
L 106.386672 146.025571 
L 106.405107 146.791251 
L 106.71851 147.556931 
L 106.767671 148.32261 
L 107.081074 149.08829 
L 107.489727 149.85397 
L 107.836928 150.61965 
L 107.947541 151.385329 
L 108.073516 152.151009 
L 108.448371 152.916689 
L 109.029088 153.682369 
L 109.053668 154.448048 
L 109.124337 155.213728 
L 109.142773 155.979408 
L 109.201152 156.745088 
L 109.569861 157.510767 
L 109.73578 158.276447 
L 109.858683 159.042127 
L 109.895554 159.807807 
L 110.172086 160.573486 
L 110.414819 161.339166 
L 111.318157 162.104846 
L 111.44106 162.870526 
L 111.969543 163.636205 
L 112.175406 164.401885 
L 112.23993 165.167565 
L 112.243002 165.933245 
L 112.393558 166.698924 
L 112.633219 167.464604 
L 113.127904 168.230284 
L 113.217009 168.995964 
L 113.475105 169.761644 
L 114.187943 170.527323 
L 114.59045 171.293003 
L 114.842402 172.058683 
L 114.885418 172.824363 
L 114.999103 173.590042 
L 115.324796 174.355722 
L 115.49686 175.121402 
L 115.610546 175.887082 
L 115.767247 176.652761 
L 115.844062 177.418441 
L 115.862497 178.184121 
L 116.169755 178.949801 
L 116.225061 179.71548 
L 116.60606 180.48116 
L 116.670585 181.24684 
L 116.80885 182.01252 
L 117.073092 182.778199 
L 117.245156 183.543879 
L 118.51413 184.309559 
L 119.054904 185.075239 
L 119.352944 185.840918 
L 120.213265 186.606598 
L 122.161278 187.372278 
L 122.43781 188.137958 
L 122.655963 188.903637 
L 123.006237 189.669317 
L 123.276623 190.434997 
L 123.454833 191.200677 
L 123.543937 191.966356 
L 123.768236 192.732036 
L 124.124654 193.497716 
L 124.862073 194.263396 
L 124.972685 195.029076 
L 125.224637 195.794755 
L 125.707031 196.560435 
L 125.768483 197.326115 
L 125.829934 198.091795 
L 126.091103 198.857474 
L 126.392216 199.623154 
L 126.579643 200.388834 
L 126.87461 201.154514 
L 127.117344 201.920193 
L 127.329351 202.685873 
L 127.400021 203.451553 
L 127.934649 204.217233 
L 128.352519 204.982912 
L 128.884075 205.748592 
L 129.919533 206.514272 
L 130.248299 207.279952 
L 130.472597 208.045631 
L 131.010298 208.811311 
L 131.428168 209.576991 
L 131.7047 210.342671 
L 132.90915 211.10835 
L 133.677294 211.87403 
L 133.686511 212.63971 
L 133.751036 213.40539 
L 133.775616 214.171069 
L 133.987624 214.936749 
L 134.715824 215.702429 
L 135.167493 216.468109 
L 135.185929 217.233789 
L 136.212169 217.999468 
L 136.937297 218.765148 
L 136.961878 219.530828 
L 137.447345 220.296508 
L 137.588683 221.062187 
L 138.307666 221.827867 
L 138.952907 222.593547 
L 139.035867 223.359227 
L 139.066592 224.124906 
L 140.055962 224.890586 
L 140.347857 225.656266 
L 140.397018 226.421946 
L 140.682767 227.187625 
L 141.629121 227.953305 
L 144.280754 228.718985 
L 144.677117 229.484665 
L 144.769294 230.250344 
L 145.104205 231.016024 
L 145.43297 231.781704 
L 145.439115 232.547384 
L 145.565091 233.313063 
L 146.505299 234.078743 
L 147.119815 234.844423 
L 147.700531 235.610103 
L 148.010862 236.375782 
L 148.161418 237.141462 
L 148.351918 237.907142 
L 148.932635 238.672822 
L 149.040175 239.438502 
L 150.57339 240.204181 
L 151.516671 240.969861 
L 151.541252 241.735541 
L 151.728679 242.501221 
L 151.802421 243.2669 
L 152.592073 244.03258 
L 152.690395 244.79826 
L 152.920838 245.56394 
L 153.443176 246.329619 
L 153.587587 247.095299 
L 154.546231 247.860979 
L 155.240633 248.626659 
L 155.30823 249.392338 
L 155.406553 250.158018 
L 156.156261 250.923698 
L 156.282237 251.689378 
L 157.465179 252.455057 
L 158.829402 253.220737 
L 159.379394 253.986417 
L 159.990836 254.752097 
L 160.003127 255.517776 
L 160.338037 256.283456 
L 161.407294 257.049136 
L 161.662318 257.814816 
L 161.895833 258.580495 
L 161.978793 259.346175 
L 162.289123 260.111855 
L 164.350822 260.877535 
L 164.458362 261.643215 
L 164.876232 262.408894 
L 165.370917 263.174574 
L 165.573707 263.940254 
L 165.699683 264.705934 
L 166.191295 265.471613 
L 167.192955 266.237293 
L 167.346584 267.002973 
L 167.80747 267.768653 
L 170.975296 268.534332 
L 171.93394 269.300012 
L 172.385609 270.831372 
L 173.24593 271.597051 
L 173.374978 272.362731 
L 174.699258 273.128411 
L 175.206234 273.894091 
L 178.500035 274.65977 
L 179.504768 275.42545 
L 180.478774 276.19113 
L 180.912008 276.95681 
L 181.477362 277.722489 
L 181.778474 278.488169 
L 182.654158 279.253849 
L 186.224492 280.019529 
L 186.593201 280.785208 
L 187.597933 281.550888 
L 188.550432 282.316568 
L 188.630319 283.082248 
L 192.120765 283.847927 
L 192.784442 284.613607 
L 199.679303 285.379287 
L 202.831766 286.144967 
L 204.318893 286.910647 
L 205.013295 287.676326 
L 205.637028 288.442006 
L 206.666341 289.207686 
L 210.353433 289.973366 
L 214.608951 290.739045 
L 216.69523 291.504725 
L 224.425832 292.270405 
L 228.899502 293.036085 
L 229.855074 293.801764 
L 232.205594 294.567444 
L 232.863126 295.333124 
L 237.791538 296.098804 
L 238.538174 296.864483 
L 239.472237 297.630163 
L 240.20351 298.395843 
L 240.418591 299.161523 
L 245.946155 299.927202 
L 267.368156 300.692882 
L 276.899288 301.458562 
L 277.695085 302.224242 
L 279.283607 302.989921 
L 283.778786 303.755601 
L 307.419187 304.521281 
L 327.781149 305.286961 
L 330.678589 306.05264 
L 398.487273 306.81832 
L 398.487273 306.81832 
L 398.487273 306.81832 
L 330.678589 306.05264 
L 327.781149 305.286961 
L 307.419187 304.521281 
L 283.778786 303.755601 
L 279.283607 302.989921 
L 277.695085 302.224242 
L 276.899288 301.458562 
L 267.368156 300.692882 
L 245.946155 299.927202 
L 240.418591 299.161523 
L 240.20351 298.395843 
L 239.472237 297.630163 
L 238.538174 296.864483 
L 237.791538 296.098804 
L 232.863126 295.333124 
L 232.205594 294.567444 
L 229.855074 293.801764 
L 228.899502 293.036085 
L 224.425832 292.270405 
L 216.69523 291.504725 
L 214.608951 290.739045 
L 210.353433 289.973366 
L 206.666341 289.207686 
L 205.637028 288.442006 
L 205.013295 287.676326 
L 204.318893 286.910647 
L 202.831766 286.144967 
L 199.679303 285.379287 
L 192.784442 284.613607 
L 192.120765 283.847927 
L 188.630319 283.082248 
L 188.550432 282.316568 
L 187.597933 281.550888 
L 186.593201 280.785208 
L 186.224492 280.019529 
L 182.654158 279.253849 
L 181.778474 278.488169 
L 181.477362 277.722489 
L 180.912008 276.95681 
L 180.478774 276.19113 
L 179.504768 275.42545 
L 178.500035 274.65977 
L 175.206234 273.894091 
L 174.699258 273.128411 
L 173.374978 272.362731 
L 173.24593 271.597051 
L 172.385609 270.831372 
L 171.93394 269.300012 
L 170.975296 268.534332 
L 167.80747 267.768653 
L 167.346584 267.002973 
L 167.192955 266.237293 
L 166.191295 265.471613 
L 165.699683 264.705934 
L 165.573707 263.940254 
L 165.370917 263.174574 
L 164.876232 262.408894 
L 164.458362 261.643215 
L 164.350822 260.877535 
L 162.289123 260.111855 
L 161.978793 259.346175 
L 161.895833 258.580495 
L 161.662318 257.814816 
L 161.407294 257.049136 
L 160.338037 256.283456 
L 160.003127 255.517776 
L 159.990836 254.752097 
L 159.379394 253.986417 
L 158.829402 253.220737 
L 157.465179 252.455057 
L 156.282237 251.689378 
L 156.156261 250.923698 
L 155.406553 250.158018 
L 155.30823 249.392338 
L 155.240633 248.626659 
L 154.546231 247.860979 
L 153.587587 247.095299 
L 153.443176 246.329619 
L 152.920838 245.56394 
L 152.690395 244.79826 
L 152.592073 244.03258 
L 151.802421 243.2669 
L 151.728679 242.501221 
L 151.541252 241.735541 
L 151.516671 240.969861 
L 150.57339 240.204181 
L 149.040175 239.438502 
L 148.932635 238.672822 
L 148.351918 237.907142 
L 148.161418 237.141462 
L 148.010862 236.375782 
L 147.700531 235.610103 
L 147.119815 234.844423 
L 146.505299 234.078743 
L 145.565091 233.313063 
L 145.439115 232.547384 
L 145.43297 231.781704 
L 145.104205 231.016024 
L 144.769294 230.250344 
L 144.677117 229.484665 
L 144.280754 228.718985 
L 141.629121 227.953305 
L 140.682767 227.187625 
L 140.397018 226.421946 
L 140.347857 225.656266 
L 140.055962 224.890586 
L 139.066592 224.124906 
L 139.035867 223.359227 
L 138.952907 222.593547 
L 138.307666 221.827867 
L 137.588683 221.062187 
L 137.447345 220.296508 
L 136.961878 219.530828 
L 136.937297 218.765148 
L 136.212169 217.999468 
L 135.185929 217.233789 
L 135.167493 216.468109 
L 134.715824 215.702429 
L 133.987624 214.936749 
L 133.775616 214.171069 
L 133.751036 213.40539 
L 133.686511 212.63971 
L 133.677294 211.87403 
L 132.90915 211.10835 
L 131.7047 210.342671 
L 131.428168 209.576991 
L 131.010298 208.811311 
L 130.472597 208.045631 
L 130.248299 207.279952 
L 129.919533 206.514272 
L 128.884075 205.748592 
L 128.352519 204.982912 
L 127.934649 204.217233 
L 127.400021 203.451553 
L 127.329351 202.685873 
L 127.117344 201.920193 
L 126.87461 201.154514 
L 126.579643 200.388834 
L 126.392216 199.623154 
L 126.091103 198.857474 
L 125.829934 198.091795 
L 125.768483 197.326115 
L 125.707031 196.560435 
L 125.224637 195.794755 
L 124.972685 195.029076 
L 124.862073 194.263396 
L 124.124654 193.497716 
L 123.768236 192.732036 
L 123.543937 191.966356 
L 123.454833 191.200677 
L 123.276623 190.434997 
L 123.006237 189.669317 
L 122.655963 188.903637 
L 122.43781 188.137958 
L 122.161278 187.372278 
L 120.213265 186.606598 
L 119.352944 185.840918 
L 119.054904 185.075239 
L 118.51413 184.309559 
L 117.245156 183.543879 
L 117.073092 182.778199 
L 116.80885 182.01252 
L 116.670585 181.24684 
L 116.60606 180.48116 
L 116.225061 179.71548 
L 116.169755 178.949801 
L 115.862497 178.184121 
L 115.844062 177.418441 
L 115.767247 176.652761 
L 115.610546 175.887082 
L 115.49686 175.121402 
L 115.324796 174.355722 
L 114.999103 173.590042 
L 114.885418 172.824363 
L 114.842402 172.058683 
L 114.59045 171.293003 
L 114.187943 170.527323 
L 113.475105 169.761644 
L 113.217009 168.995964 
L 113.127904 168.230284 
L 112.633219 167.464604 
L 112.393558 166.698924 
L 112.243002 165.933245 
L 112.23993 165.167565 
L 112.175406 164.401885 
L 111.969543 163.636205 
L 111.44106 162.870526 
L 111.318157 162.104846 
L 110.414819 161.339166 
L 110.172086 160.573486 
L 109.895554 159.807807 
L 109.858683 159.042127 
L 109.73578 158.276447 
L 109.569861 157.510767 
L 109.201152 156.745088 
L 109.142773 155.979408 
L 109.124337 155.213728 
L 109.053668 154.448048 
L 109.029088 153.682369 
L 108.448371 152.916689 
L 108.073516 152.151009 
L 107.947541 151.385329 
L 107.836928 150.61965 
L 107.489727 149.85397 
L 107.081074 149.08829 
L 106.767671 148.32261 
L 106.71851 147.556931 
L 106.405107 146.791251 
L 106.386672 146.025571 
L 106.343656 145.259891 
L 106.322148 144.494211 
L 105.538641 143.728532 
L 105.449536 142.962852 
L 105.421883 142.197172 
L 105.188367 141.431492 
L 104.232796 140.665813 
L 104.125256 139.900133 
L 103.492305 139.134453 
L 103.372475 138.368773 
L 103.264935 137.603094 
L 101.645687 136.837414 
L 101.495131 136.071734 
L 101.151002 135.306054 
L 100.859107 134.540375 
L 100.634809 133.774695 
L 100.247665 133.009015 
L 100.127834 132.243335 
L 99.928117 131.477656 
L 99.55019 130.711976 
L 99.110812 129.946296 
L 99.086231 129.180616 
L 98.785119 128.414937 
L 98.382611 127.649257 
L 98.302724 126.883577 
L 97.623685 126.117897 
L 97.54687 125.352218 
L 96.996879 124.586538 
L 96.652751 123.820858 
L 96.477614 123.055178 
L 96.302477 122.289498 
L 95.743268 121.523819 
L 95.678744 120.758139 
L 95.061156 119.226779 
L 94.824568 118.4611 
L 94.717028 117.69542 
L 94.508092 116.92974 
L 94.090222 116.16406 
L 93.859779 115.398381 
L 93.838271 114.632701 
L 93.733803 113.867021 
L 93.595537 113.101341 
L 92.956441 112.335662 
L 92.888845 111.569982 
L 92.781305 110.804302 
L 92.160644 110.038622 
L 91.896403 109.272943 
L 91.822661 108.507263 
L 91.687468 107.741583 
L 91.650597 106.975903 
L 91.490823 106.210224 
L 90.781058 105.444544 
L 90.255647 104.678864 
L 90.074365 103.913184 
L 89.800906 103.147505 
L 89.751745 102.381825 
L 89.668785 101.616145 
L 89.576608 100.850465 
L 89.469068 100.084785 
L 89.462922 99.319106 
L 89.398398 98.553426 
L 89.171028 97.787746 
L 89.137229 97.022066 
L 88.381376 96.256387 
L 88.240037 95.490707 
L 87.438095 94.725027 
L 87.388933 93.959347 
L 87.223014 93.193668 
L 86.842015 92.427988 
L 86.433362 91.662308 
L 86.427217 90.896628 
L 86.230572 90.130949 
L 85.923315 89.365269 
L 85.837282 88.599589 
L 85.689799 87.833909 
L 85.14288 87.06823 
L 85.041485 86.30255 
L 84.869421 85.53687 
L 84.823332 84.77119 
L 84.310212 84.005511 
L 84.181164 83.239831 
L 83.741785 82.474151 
L 83.167214 81.708471 
L 82.856884 80.942792 
L 82.832303 80.177112 
L 82.767779 79.411432 
L 81.759974 78.645752 
L 81.480369 77.880073 
L 81.437353 77.114393 
L 81.305233 76.348713 
L 81.268362 75.583033 
L 80.951886 74.817353 
L 80.844346 74.051674 
L 80.343516 73.285994 
L 80.20525 72.520314 
L 80.116146 71.754634 
L 80.014751 70.988955 
L 79.901065 70.223275 
L 79.79967 69.457595 
L 79.437106 68.691915 
L 79.304985 67.926236 
L 78.871752 67.160556 
L 78.373995 66.394876 
L 78.232656 65.629196 
L 78.125116 64.863517 
L 77.602778 64.097837 
L 77.123456 63.332157 
L 76.628772 62.566477 
L 76.346095 61.800798 
L 76.287716 61.035118 
L 75.544152 60.269438 
L 75.498064 59.503758 
L 75.307564 58.738079 
L 75.279911 57.972399 
L 74.296686 57.206719 
L 74.244452 56.441039 
L 73.94334 55.67536 
L 73.918759 54.90968 
L 73.832727 54.144 
z
" clip-path="url(#pb729594f11)" style="fill: #ff0000"/>
   </g>
   <g id="matplotlib.axis_1">
    <g id="xtick_1">
     <g id="line2d_1">
      <defs>
       <path id="me7f0b0eeda" d="M 0 0 
L 0 3.5 
" style="stroke: #000000; stroke-width: 0.8"/>
      </defs>
      <g>
       <use xlink:href="#me7f0b0eeda" x="106.709293" y="307.584" style="stroke: #000000; stroke-width: 0.8"/>
      </g>
     </g>
     <g id="text_1">
      <!-- 200 -->
      <g transform="translate(97.165543 322.182437)scale(0.1 -0.1)">
       <defs>
        <path id="DejaVuSans-32" d="M 1228 531 
L 3431 531 
L 3431 0 
L 469 0 
L 469 531 
Q 828 903 1448 1529 
Q 2069 2156 2228 2338 
Q 2531 2678 2651 2914 
Q 2772 3150 2772 3378 
Q 2772 3750 2511 3984 
Q 2250 4219 1831 4219 
Q 1534 4219 1204 4116 
Q 875 4013 500 3803 
L 500 4441 
Q 881 4594 1212 4672 
Q 1544 4750 1819 4750 
Q 2544 4750 2975 4387 
Q 3406 4025 3406 3419 
Q 3406 3131 3298 2873 
Q 3191 2616 2906 2266 
Q 2828 2175 2409 1742 
Q 1991 1309 1228 531 
z
" transform="scale(0.015625)"/>
        <path id="DejaVuSans-30" d="M 2034 4250 
Q 1547 4250 1301 3770 
Q 1056 3291 1056 2328 
Q 1056 1369 1301 889 
Q 1547 409 2034 409 
Q 2525 409 2770 889 
Q 3016 1369 3016 2328 
Q 3016 3291 2770 3770 
Q 2525 4250 2034 4250 
z
M 2034 4750 
Q 2819 4750 3233 4129 
Q 3647 3509 3647 2328 
Q 3647 1150 3233 529 
Q 2819 -91 2034 -91 
Q 1250 -91 836 529 
Q 422 1150 422 2328 
Q 422 3509 836 4129 
Q 1250 4750 2034 4750 
z
" transform="scale(0.015625)"/>
       </defs>
       <use xlink:href="#DejaVuSans-32"/>
       <use xlink:href="#DejaVuSans-30" x="63.623047"/>
       <use xlink:href="#DejaVuSans-30" x="127.246094"/>
      </g>
     </g>
    </g>
    <g id="xtick_2">
     <g id="line2d_2">
      <g>
       <use xlink:href="#me7f0b0eeda" x="168.160816" y="307.584" style="stroke: #000000; stroke-width: 0.8"/>
      </g>
     </g>
     <g id="text_2">
      <!-- 400 -->
      <g transform="translate(158.617066 322.182437)scale(0.1 -0.1)">
       <defs>
        <path id="DejaVuSans-34" d="M 2419 4116 
L 825 1625 
L 2419 1625 
L 2419 4116 
z
M 2253 4666 
L 3047 4666 
L 3047 1625 
L 3713 1625 
L 3713 1100 
L 3047 1100 
L 3047 0 
L 2419 0 
L 2419 1100 
L 313 1100 
L 313 1709 
L 2253 4666 
z
" transform="scale(0.015625)"/>
       </defs>
       <use xlink:href="#DejaVuSans-34"/>
       <use xlink:href="#DejaVuSans-30" x="63.623047"/>
       <use xlink:href="#DejaVuSans-30" x="127.246094"/>
      </g>
     </g>
    </g>
    <g id="xtick_3">
     <g id="line2d_3">
      <g>
       <use xlink:href="#me7f0b0eeda" x="229.61234" y="307.584" style="stroke: #000000; stroke-width: 0.8"/>
      </g>
     </g>
     <g id="text_3">
      <!-- 600 -->
      <g transform="translate(220.06859 322.182437)scale(0.1 -0.1)">
       <defs>
        <path id="DejaVuSans-36" d="M 2113 2584 
Q 1688 2584 1439 2293 
Q 1191 2003 1191 1497 
Q 1191 994 1439 701 
Q 1688 409 2113 409 
Q 2538 409 2786 701 
Q 3034 994 3034 1497 
Q 3034 2003 2786 2293 
Q 2538 2584 2113 2584 
z
M 3366 4563 
L 3366 3988 
Q 3128 4100 2886 4159 
Q 2644 4219 2406 4219 
Q 1781 4219 1451 3797 
Q 1122 3375 1075 2522 
Q 1259 2794 1537 2939 
Q 1816 3084 2150 3084 
Q 2853 3084 3261 2657 
Q 3669 2231 3669 1497 
Q 3669 778 3244 343 
Q 2819 -91 2113 -91 
Q 1303 -91 875 529 
Q 447 1150 447 2328 
Q 447 3434 972 4092 
Q 1497 4750 2381 4750 
Q 2619 4750 2861 4703 
Q 3103 4656 3366 4563 
z
" transform="scale(0.015625)"/>
       </defs>
       <use xlink:href="#DejaVuSans-36"/>
       <use xlink:href="#DejaVuSans-30" x="63.623047"/>
       <use xlink:href="#DejaVuSans-30" x="127.246094"/>
      </g>
     </g>
    </g>
    <g id="xtick_4">
     <g id="line2d_4">
      <g>
       <use xlink:href="#me7f0b0eeda" x="291.063864" y="307.584" style="stroke: #000000; stroke-width: 0.8"/>
      </g>
     </g>
     <g id="text_4">
      <!-- 800 -->
      <g transform="translate(281.520114 322.182437)scale(0.1 -0.1)">
       <defs>
        <path id="DejaVuSans-38" d="M 2034 2216 
Q 1584 2216 1326 1975 
Q 1069 1734 1069 1313 
Q 1069 891 1326 650 
Q 1584 409 2034 409 
Q 2484 409 2743 651 
Q 3003 894 3003 1313 
Q 3003 1734 2745 1975 
Q 2488 2216 2034 2216 
z
M 1403 2484 
Q 997 2584 770 2862 
Q 544 3141 544 3541 
Q 544 4100 942 4425 
Q 1341 4750 2034 4750 
Q 2731 4750 3128 4425 
Q 3525 4100 3525 3541 
Q 3525 3141 3298 2862 
Q 3072 2584 2669 2484 
Q 3125 2378 3379 2068 
Q 3634 1759 3634 1313 
Q 3634 634 3220 271 
Q 2806 -91 2034 -91 
Q 1263 -91 848 271 
Q 434 634 434 1313 
Q 434 1759 690 2068 
Q 947 2378 1403 2484 
z
M 1172 3481 
Q 1172 3119 1398 2916 
Q 1625 2713 2034 2713 
Q 2441 2713 2670 2916 
Q 2900 3119 2900 3481 
Q 2900 3844 2670 4047 
Q 2441 4250 2034 4250 
Q 1625 4250 1398 4047 
Q 1172 3844 1172 3481 
z
" transform="scale(0.015625)"/>
       </defs>
       <use xlink:href="#DejaVuSans-38"/>
       <use xlink:href="#DejaVuSans-30" x="63.623047"/>
       <use xlink:href="#DejaVuSans-30" x="127.246094"/>
      </g>
     </g>
    </g>
    <g id="xtick_5">
     <g id="line2d_5">
      <g>
       <use xlink:href="#me7f0b0eeda" x="352.515388" y="307.584" style="stroke: #000000; stroke-width: 0.8"/>
      </g>
     </g>
     <g id="text_5">
      <!-- 1000 -->
      <g transform="translate(339.790388 322.182437)scale(0.1 -0.1)">
       <defs>
        <path id="DejaVuSans-31" d="M 794 531 
L 1825 531 
L 1825 4091 
L 703 3866 
L 703 4441 
L 1819 4666 
L 2450 4666 
L 2450 531 
L 3481 531 
L 3481 0 
L 794 0 
L 794 531 
z
" transform="scale(0.015625)"/>
       </defs>
       <use xlink:href="#DejaVuSans-31"/>
       <use xlink:href="#DejaVuSans-30" x="63.623047"/>
       <use xlink:href="#DejaVuSans-30" x="127.246094"/>
       <use xlink:href="#DejaVuSans-30" x="190.869141"/>
      </g>
     </g>
    </g>
    <g id="xtick_6">
     <g id="line2d_6">
      <g>
       <use xlink:href="#me7f0b0eeda" x="413.966912" y="307.584" style="stroke: #000000; stroke-width: 0.8"/>
      </g>
     </g>
     <g id="text_6">
      <!-- 1200 -->
      <g transform="translate(401.241912 322.182437)scale(0.1 -0.1)">
       <use xlink:href="#DejaVuSans-31"/>
       <use xlink:href="#DejaVuSans-32" x="63.623047"/>
       <use xlink:href="#DejaVuSans-30" x="127.246094"/>
       <use xlink:href="#DejaVuSans-30" x="190.869141"/>
      </g>
     </g>
    </g>
    <g id="text_7">
     <!-- Score -->
     <g transform="translate(222.157656 335.860562)scale(0.1 -0.1)">
      <defs>
       <path id="DejaVuSans-53" d="M 3425 4513 
L 3425 3897 
Q 3066 4069 2747 4153 
Q 2428 4238 2131 4238 
Q 1616 4238 1336 4038 
Q 1056 3838 1056 3469 
Q 1056 3159 1242 3001 
Q 1428 2844 1947 2747 
L 2328 2669 
Q 3034 2534 3370 2195 
Q 3706 1856 3706 1288 
Q 3706 609 3251 259 
Q 2797 -91 1919 -91 
Q 1588 -91 1214 -16 
Q 841 59 441 206 
L 441 856 
Q 825 641 1194 531 
Q 1563 422 1919 422 
Q 2459 422 2753 634 
Q 3047 847 3047 1241 
Q 3047 1584 2836 1778 
Q 2625 1972 2144 2069 
L 1759 2144 
Q 1053 2284 737 2584 
Q 422 2884 422 3419 
Q 422 4038 858 4394 
Q 1294 4750 2059 4750 
Q 2388 4750 2728 4690 
Q 3069 4631 3425 4513 
z
" transform="scale(0.015625)"/>
       <path id="DejaVuSans-63" d="M 3122 3366 
L 3122 2828 
Q 2878 2963 2633 3030 
Q 2388 3097 2138 3097 
Q 1578 3097 1268 2742 
Q 959 2388 959 1747 
Q 959 1106 1268 751 
Q 1578 397 2138 397 
Q 2388 397 2633 464 
Q 2878 531 3122 666 
L 3122 134 
Q 2881 22 2623 -34 
Q 2366 -91 2075 -91 
Q 1284 -91 818 406 
Q 353 903 353 1747 
Q 353 2603 823 3093 
Q 1294 3584 2113 3584 
Q 2378 3584 2631 3529 
Q 2884 3475 3122 3366 
z
" transform="scale(0.015625)"/>
       <path id="DejaVuSans-6f" d="M 1959 3097 
Q 1497 3097 1228 2736 
Q 959 2375 959 1747 
Q 959 1119 1226 758 
Q 1494 397 1959 397 
Q 2419 397 2687 759 
Q 2956 1122 2956 1747 
Q 2956 2369 2687 2733 
Q 2419 3097 1959 3097 
z
M 1959 3584 
Q 2709 3584 3137 3096 
Q 3566 2609 3566 1747 
Q 3566 888 3137 398 
Q 2709 -91 1959 -91 
Q 1206 -91 779 398 
Q 353 888 353 1747 
Q 353 2609 779 3096 
Q 1206 3584 1959 3584 
z
" transform="scale(0.015625)"/>
       <path id="DejaVuSans-72" d="M 2631 2963 
Q 2534 3019 2420 3045 
Q 2306 3072 2169 3072 
Q 1681 3072 1420 2755 
Q 1159 2438 1159 1844 
L 1159 0 
L 581 0 
L 581 3500 
L 1159 3500 
L 1159 2956 
Q 1341 3275 1631 3429 
Q 1922 3584 2338 3584 
Q 2397 3584 2469 3576 
Q 2541 3569 2628 3553 
L 2631 2963 
z
" transform="scale(0.015625)"/>
       <path id="DejaVuSans-65" d="M 3597 1894 
L 3597 1613 
L 953 1613 
Q 991 1019 1311 708 
Q 1631 397 2203 397 
Q 2534 397 2845 478 
Q 3156 559 3463 722 
L 3463 178 
Q 3153 47 2828 -22 
Q 2503 -91 2169 -91 
Q 1331 -91 842 396 
Q 353 884 353 1716 
Q 353 2575 817 3079 
Q 1281 3584 2069 3584 
Q 2775 3584 3186 3129 
Q 3597 2675 3597 1894 
z
M 3022 2063 
Q 3016 2534 2758 2815 
Q 2500 3097 2075 3097 
Q 1594 3097 1305 2825 
Q 1016 2553 972 2059 
L 3022 2063 
z
" transform="scale(0.015625)"/>
      </defs>
      <use xlink:href="#DejaVuSans-53"/>
      <use xlink:href="#DejaVuSans-63" x="63.476562"/>
      <use xlink:href="#DejaVuSans-6f" x="118.457031"/>
      <use xlink:href="#DejaVuSans-72" x="179.638672"/>
      <use xlink:href="#DejaVuSans-65" x="218.501953"/>
     </g>
    </g>
   </g>
   <g id="matplotlib.axis_2">
    <g id="ytick_1">
     <g id="line2d_7">
      <defs>
       <path id="m44bf7a5a07" d="M 0 0 
L -3.5 0 
" style="stroke: #000000; stroke-width: 0.8"/>
      </defs>
      <g>
       <use xlink:href="#m44bf7a5a07" x="57.6" y="307.584" style="stroke: #000000; stroke-width: 0.8"/>
      </g>
     </g>
     <g id="text_8">
      <!-- 0 -->
      <g transform="translate(44.2375 311.383219)scale(0.1 -0.1)">
       <use xlink:href="#DejaVuSans-30"/>
      </g>
     </g>
    </g>
    <g id="ytick_2">
     <g id="line2d_8">
      <g>
       <use xlink:href="#m44bf7a5a07" x="57.6" y="269.300012" style="stroke: #000000; stroke-width: 0.8"/>
      </g>
     </g>
     <g id="text_9">
      <!-- 50 -->
      <g transform="translate(37.875 273.099231)scale(0.1 -0.1)">
       <defs>
        <path id="DejaVuSans-35" d="M 691 4666 
L 3169 4666 
L 3169 4134 
L 1269 4134 
L 1269 2991 
Q 1406 3038 1543 3061 
Q 1681 3084 1819 3084 
Q 2600 3084 3056 2656 
Q 3513 2228 3513 1497 
Q 3513 744 3044 326 
Q 2575 -91 1722 -91 
Q 1428 -91 1123 -41 
Q 819 9 494 109 
L 494 744 
Q 775 591 1075 516 
Q 1375 441 1709 441 
Q 2250 441 2565 725 
Q 2881 1009 2881 1497 
Q 2881 1984 2565 2268 
Q 2250 2553 1709 2553 
Q 1456 2553 1204 2497 
Q 953 2441 691 2322 
L 691 4666 
z
" transform="scale(0.015625)"/>
       </defs>
       <use xlink:href="#DejaVuSans-35"/>
       <use xlink:href="#DejaVuSans-30" x="63.623047"/>
      </g>
     </g>
    </g>
    <g id="ytick_3">
     <g id="line2d_9">
      <g>
       <use xlink:href="#m44bf7a5a07" x="57.6" y="231.016024" style="stroke: #000000; stroke-width: 0.8"/>
      </g>
     </g>
     <g id="text_10">
      <!-- 100 -->
      <g transform="translate(31.5125 234.815243)scale(0.1 -0.1)">
       <use xlink:href="#DejaVuSans-31"/>
       <use xlink:href="#DejaVuSans-30" x="63.623047"/>
       <use xlink:href="#DejaVuSans-30" x="127.246094"/>
      </g>
     </g>
    </g>
    <g id="ytick_4">
     <g id="line2d_10">
      <g>
       <use xlink:href="#m44bf7a5a07" x="57.6" y="192.732036" style="stroke: #000000; stroke-width: 0.8"/>
      </g>
     </g>
     <g id="text_11">
      <!-- 150 -->
      <g transform="translate(31.5125 196.531255)scale(0.1 -0.1)">
       <use xlink:href="#DejaVuSans-31"/>
       <use xlink:href="#DejaVuSans-35" x="63.623047"/>
       <use xlink:href="#DejaVuSans-30" x="127.246094"/>
      </g>
     </g>
    </g>
    <g id="ytick_5">
     <g id="line2d_11">
      <g>
       <use xlink:href="#m44bf7a5a07" x="57.6" y="154.448048" style="stroke: #000000; stroke-width: 0.8"/>
      </g>
     </g>
     <g id="text_12">
      <!-- 200 -->
      <g transform="translate(31.5125 158.247267)scale(0.1 -0.1)">
       <use xlink:href="#DejaVuSans-32"/>
       <use xlink:href="#DejaVuSans-30" x="63.623047"/>
       <use xlink:href="#DejaVuSans-30" x="127.246094"/>
      </g>
     </g>
    </g>
    <g id="ytick_6">
     <g id="line2d_12">
      <g>
       <use xlink:href="#m44bf7a5a07" x="57.6" y="116.16406" style="stroke: #000000; stroke-width: 0.8"/>
      </g>
     </g>
     <g id="text_13">
      <!-- 250 -->
      <g transform="translate(31.5125 119.963279)scale(0.1 -0.1)">
       <use xlink:href="#DejaVuSans-32"/>
       <use xlink:href="#DejaVuSans-35" x="63.623047"/>
       <use xlink:href="#DejaVuSans-30" x="127.246094"/>
      </g>
     </g>
    </g>
    <g id="ytick_7">
     <g id="line2d_13">
      <g>
       <use xlink:href="#m44bf7a5a07" x="57.6" y="77.880073" style="stroke: #000000; stroke-width: 0.8"/>
      </g>
     </g>
     <g id="text_14">
      <!-- 300 -->
      <g transform="translate(31.5125 81.679291)scale(0.1 -0.1)">
       <defs>
        <path id="DejaVuSans-33" d="M 2597 2516 
Q 3050 2419 3304 2112 
Q 3559 1806 3559 1356 
Q 3559 666 3084 287 
Q 2609 -91 1734 -91 
Q 1441 -91 1130 -33 
Q 819 25 488 141 
L 488 750 
Q 750 597 1062 519 
Q 1375 441 1716 441 
Q 2309 441 2620 675 
Q 2931 909 2931 1356 
Q 2931 1769 2642 2001 
Q 2353 2234 1838 2234 
L 1294 2234 
L 1294 2753 
L 1863 2753 
Q 2328 2753 2575 2939 
Q 2822 3125 2822 3475 
Q 2822 3834 2567 4026 
Q 2313 4219 1838 4219 
Q 1578 4219 1281 4162 
Q 984 4106 628 3988 
L 628 4550 
Q 988 4650 1302 4700 
Q 1616 4750 1894 4750 
Q 2613 4750 3031 4423 
Q 3450 4097 3450 3541 
Q 3450 3153 3228 2886 
Q 3006 2619 2597 2516 
z
" transform="scale(0.015625)"/>
       </defs>
       <use xlink:href="#DejaVuSans-33"/>
       <use xlink:href="#DejaVuSans-30" x="63.623047"/>
       <use xlink:href="#DejaVuSans-30" x="127.246094"/>
      </g>
     </g>
    </g>
    <g id="text_15">
     <!-- Number of crosslinks -->
     <g transform="translate(25.432812 227.019406)rotate(-90)scale(0.1 -0.1)">
      <defs>
       <path id="DejaVuSans-4e" d="M 628 4666 
L 1478 4666 
L 3547 763 
L 3547 4666 
L 4159 4666 
L 4159 0 
L 3309 0 
L 1241 3903 
L 1241 0 
L 628 0 
L 628 4666 
z
" transform="scale(0.015625)"/>
       <path id="DejaVuSans-75" d="M 544 1381 
L 544 3500 
L 1119 3500 
L 1119 1403 
Q 1119 906 1312 657 
Q 1506 409 1894 409 
Q 2359 409 2629 706 
Q 2900 1003 2900 1516 
L 2900 3500 
L 3475 3500 
L 3475 0 
L 2900 0 
L 2900 538 
Q 2691 219 2414 64 
Q 2138 -91 1772 -91 
Q 1169 -91 856 284 
Q 544 659 544 1381 
z
M 1991 3584 
L 1991 3584 
z
" transform="scale(0.015625)"/>
       <path id="DejaVuSans-6d" d="M 3328 2828 
Q 3544 3216 3844 3400 
Q 4144 3584 4550 3584 
Q 5097 3584 5394 3201 
Q 5691 2819 5691 2113 
L 5691 0 
L 5113 0 
L 5113 2094 
Q 5113 2597 4934 2840 
Q 4756 3084 4391 3084 
Q 3944 3084 3684 2787 
Q 3425 2491 3425 1978 
L 3425 0 
L 2847 0 
L 2847 2094 
Q 2847 2600 2669 2842 
Q 2491 3084 2119 3084 
Q 1678 3084 1418 2786 
Q 1159 2488 1159 1978 
L 1159 0 
L 581 0 
L 581 3500 
L 1159 3500 
L 1159 2956 
Q 1356 3278 1631 3431 
Q 1906 3584 2284 3584 
Q 2666 3584 2933 3390 
Q 3200 3197 3328 2828 
z
" transform="scale(0.015625)"/>
       <path id="DejaVuSans-62" d="M 3116 1747 
Q 3116 2381 2855 2742 
Q 2594 3103 2138 3103 
Q 1681 3103 1420 2742 
Q 1159 2381 1159 1747 
Q 1159 1113 1420 752 
Q 1681 391 2138 391 
Q 2594 391 2855 752 
Q 3116 1113 3116 1747 
z
M 1159 2969 
Q 1341 3281 1617 3432 
Q 1894 3584 2278 3584 
Q 2916 3584 3314 3078 
Q 3713 2572 3713 1747 
Q 3713 922 3314 415 
Q 2916 -91 2278 -91 
Q 1894 -91 1617 61 
Q 1341 213 1159 525 
L 1159 0 
L 581 0 
L 581 4863 
L 1159 4863 
L 1159 2969 
z
" transform="scale(0.015625)"/>
       <path id="DejaVuSans-20" transform="scale(0.015625)"/>
       <path id="DejaVuSans-66" d="M 2375 4863 
L 2375 4384 
L 1825 4384 
Q 1516 4384 1395 4259 
Q 1275 4134 1275 3809 
L 1275 3500 
L 2222 3500 
L 2222 3053 
L 1275 3053 
L 1275 0 
L 697 0 
L 697 3053 
L 147 3053 
L 147 3500 
L 697 3500 
L 697 3744 
Q 697 4328 969 4595 
Q 1241 4863 1831 4863 
L 2375 4863 
z
" transform="scale(0.015625)"/>
       <path id="DejaVuSans-73" d="M 2834 3397 
L 2834 2853 
Q 2591 2978 2328 3040 
Q 2066 3103 1784 3103 
Q 1356 3103 1142 2972 
Q 928 2841 928 2578 
Q 928 2378 1081 2264 
Q 1234 2150 1697 2047 
L 1894 2003 
Q 2506 1872 2764 1633 
Q 3022 1394 3022 966 
Q 3022 478 2636 193 
Q 2250 -91 1575 -91 
Q 1294 -91 989 -36 
Q 684 19 347 128 
L 347 722 
Q 666 556 975 473 
Q 1284 391 1588 391 
Q 1994 391 2212 530 
Q 2431 669 2431 922 
Q 2431 1156 2273 1281 
Q 2116 1406 1581 1522 
L 1381 1569 
Q 847 1681 609 1914 
Q 372 2147 372 2553 
Q 372 3047 722 3315 
Q 1072 3584 1716 3584 
Q 2034 3584 2315 3537 
Q 2597 3491 2834 3397 
z
" transform="scale(0.015625)"/>
       <path id="DejaVuSans-6c" d="M 603 4863 
L 1178 4863 
L 1178 0 
L 603 0 
L 603 4863 
z
" transform="scale(0.015625)"/>
       <path id="DejaVuSans-69" d="M 603 3500 
L 1178 3500 
L 1178 0 
L 603 0 
L 603 3500 
z
M 603 4863 
L 1178 4863 
L 1178 4134 
L 603 4134 
L 603 4863 
z
" transform="scale(0.015625)"/>
       <path id="DejaVuSans-6e" d="M 3513 2113 
L 3513 0 
L 2938 0 
L 2938 2094 
Q 2938 2591 2744 2837 
Q 2550 3084 2163 3084 
Q 1697 3084 1428 2787 
Q 1159 2491 1159 1978 
L 1159 0 
L 581 0 
L 581 3500 
L 1159 3500 
L 1159 2956 
Q 1366 3272 1645 3428 
Q 1925 3584 2291 3584 
Q 2894 3584 3203 3211 
Q 3513 2838 3513 2113 
z
" transform="scale(0.015625)"/>
       <path id="DejaVuSans-6b" d="M 581 4863 
L 1159 4863 
L 1159 1991 
L 2875 3500 
L 3609 3500 
L 1753 1863 
L 3688 0 
L 2938 0 
L 1159 1709 
L 1159 0 
L 581 0 
L 581 4863 
z
" transform="scale(0.015625)"/>
      </defs>
      <use xlink:href="#DejaVuSans-4e"/>
      <use xlink:href="#DejaVuSans-75" x="74.804688"/>
      <use xlink:href="#DejaVuSans-6d" x="138.183594"/>
      <use xlink:href="#DejaVuSans-62" x="235.595703"/>
      <use xlink:href="#DejaVuSans-65" x="299.072266"/>
      <use xlink:href="#DejaVuSans-72" x="360.595703"/>
      <use xlink:href="#DejaVuSans-20" x="401.708984"/>
      <use xlink:href="#DejaVuSans-6f" x="433.496094"/>
      <use xlink:href="#DejaVuSans-66" x="494.677734"/>
      <use xlink:href="#DejaVuSans-20" x="529.882812"/>
      <use xlink:href="#DejaVuSans-63" x="561.669922"/>
      <use xlink:href="#DejaVuSans-72" x="616.650391"/>
      <use xlink:href="#DejaVuSans-6f" x="655.513672"/>
      <use xlink:href="#DejaVuSans-73" x="716.695312"/>
      <use xlink:href="#DejaVuSans-73" x="768.794922"/>
      <use xlink:href="#DejaVuSans-6c" x="820.894531"/>
      <use xlink:href="#DejaVuSans-69" x="848.677734"/>
      <use xlink:href="#DejaVuSans-6e" x="876.460938"/>
      <use xlink:href="#DejaVuSans-6b" x="939.839844"/>
      <use xlink:href="#DejaVuSans-73" x="997.75"/>
     </g>
    </g>
   </g>
   <g id="patch_3">
    <path d="M 57.6 307.584 
L 57.6 41.472 
" style="fill: none; stroke: #000000; stroke-width: 0.8; stroke-linejoin: miter; stroke-linecap: square"/>
   </g>
   <g id="patch_4">
    <path d="M 414.72 307.584 
L 414.72 41.472 
" style="fill: none; stroke: #000000; stroke-width: 0.8; stroke-linejoin: miter; stroke-linecap: square"/>
   </g>
   <g id="patch_5">
    <path d="M 57.6 307.584 
L 414.72 307.584 
" style="fill: none; stroke: #000000; stroke-width: 0.8; stroke-linejoin: miter; stroke-linecap: square"/>
   </g>
   <g id="patch_6">
    <path d="M 57.6 41.472 
L 414.72 41.472 
" style="fill: none; stroke: #000000; stroke-width: 0.8; stroke-linejoin: miter; stroke-linecap: square"/>
   </g>
   <g id="legend_1">
    <g id="patch_7">
     <path d="M 293.087188 93.506375 
L 407.72 93.506375 
Q 409.72 93.506375 409.72 91.506375 
L 409.72 48.472 
Q 409.72 46.472 407.72 46.472 
L 293.087188 46.472 
Q 291.087188 46.472 291.087188 48.472 
L 291.087188 91.506375 
Q 291.087188 93.506375 293.087188 93.506375 
z
" style="fill: #ffffff; opacity: 0.8; stroke: #cccccc; stroke-linejoin: miter"/>
    </g>
    <g id="patch_8">
     <path d="M 295.087188 58.070438 
L 315.087188 58.070438 
L 315.087188 51.070438 
L 295.087188 51.070438 
z
" style="fill: #008000"/>
    </g>
    <g id="text_16">
     <!-- true -->
     <g transform="translate(323.087188 58.070438)scale(0.1 -0.1)">
      <defs>
       <path id="DejaVuSans-74" d="M 1172 4494 
L 1172 3500 
L 2356 3500 
L 2356 3053 
L 1172 3053 
L 1172 1153 
Q 1172 725 1289 603 
Q 1406 481 1766 481 
L 2356 481 
L 2356 0 
L 1766 0 
Q 1100 0 847 248 
Q 594 497 594 1153 
L 594 3053 
L 172 3053 
L 172 3500 
L 594 3500 
L 594 4494 
L 1172 4494 
z
" transform="scale(0.015625)"/>
      </defs>
      <use xlink:href="#DejaVuSans-74"/>
      <use xlink:href="#DejaVuSans-72" x="39.208984"/>
      <use xlink:href="#DejaVuSans-75" x="80.322266"/>
      <use xlink:href="#DejaVuSans-65" x="143.701172"/>
     </g>
    </g>
    <g id="patch_9">
     <path d="M 295.087188 72.748563 
L 315.087188 72.748563 
L 315.087188 65.748563 
L 295.087188 65.748563 
z
" style="fill: #7cfc00"/>
    </g>
    <g id="text_17">
     <!-- true homeotypic -->
     <g transform="translate(323.087188 72.748563)scale(0.1 -0.1)">
      <defs>
       <path id="DejaVuSans-68" d="M 3513 2113 
L 3513 0 
L 2938 0 
L 2938 2094 
Q 2938 2591 2744 2837 
Q 2550 3084 2163 3084 
Q 1697 3084 1428 2787 
Q 1159 2491 1159 1978 
L 1159 0 
L 581 0 
L 581 4863 
L 1159 4863 
L 1159 2956 
Q 1366 3272 1645 3428 
Q 1925 3584 2291 3584 
Q 2894 3584 3203 3211 
Q 3513 2838 3513 2113 
z
" transform="scale(0.015625)"/>
       <path id="DejaVuSans-79" d="M 2059 -325 
Q 1816 -950 1584 -1140 
Q 1353 -1331 966 -1331 
L 506 -1331 
L 506 -850 
L 844 -850 
Q 1081 -850 1212 -737 
Q 1344 -625 1503 -206 
L 1606 56 
L 191 3500 
L 800 3500 
L 1894 763 
L 2988 3500 
L 3597 3500 
L 2059 -325 
z
" transform="scale(0.015625)"/>
       <path id="DejaVuSans-70" d="M 1159 525 
L 1159 -1331 
L 581 -1331 
L 581 3500 
L 1159 3500 
L 1159 2969 
Q 1341 3281 1617 3432 
Q 1894 3584 2278 3584 
Q 2916 3584 3314 3078 
Q 3713 2572 3713 1747 
Q 3713 922 3314 415 
Q 2916 -91 2278 -91 
Q 1894 -91 1617 61 
Q 1341 213 1159 525 
z
M 3116 1747 
Q 3116 2381 2855 2742 
Q 2594 3103 2138 3103 
Q 1681 3103 1420 2742 
Q 1159 2381 1159 1747 
Q 1159 1113 1420 752 
Q 1681 391 2138 391 
Q 2594 391 2855 752 
Q 3116 1113 3116 1747 
z
" transform="scale(0.015625)"/>
      </defs>
      <use xlink:href="#DejaVuSans-74"/>
      <use xlink:href="#DejaVuSans-72" x="39.208984"/>
      <use xlink:href="#DejaVuSans-75" x="80.322266"/>
      <use xlink:href="#DejaVuSans-65" x="143.701172"/>
      <use xlink:href="#DejaVuSans-20" x="205.224609"/>
      <use xlink:href="#DejaVuSans-68" x="237.011719"/>
      <use xlink:href="#DejaVuSans-6f" x="300.390625"/>
      <use xlink:href="#DejaVuSans-6d" x="361.572266"/>
      <use xlink:href="#DejaVuSans-65" x="458.984375"/>
      <use xlink:href="#DejaVuSans-6f" x="520.507812"/>
      <use xlink:href="#DejaVuSans-74" x="581.689453"/>
      <use xlink:href="#DejaVuSans-79" x="620.898438"/>
      <use xlink:href="#DejaVuSans-70" x="680.078125"/>
      <use xlink:href="#DejaVuSans-69" x="743.554688"/>
      <use xlink:href="#DejaVuSans-63" x="771.337891"/>
     </g>
    </g>
    <g id="patch_10">
     <path d="M 295.087188 87.426688 
L 315.087188 87.426688 
L 315.087188 80.426688 
L 295.087188 80.426688 
z
" style="fill: #ff0000"/>
    </g>
    <g id="text_18">
     <!-- false -->
     <g transform="translate(323.087188 87.426688)scale(0.1 -0.1)">
      <defs>
       <path id="DejaVuSans-61" d="M 2194 1759 
Q 1497 1759 1228 1600 
Q 959 1441 959 1056 
Q 959 750 1161 570 
Q 1363 391 1709 391 
Q 2188 391 2477 730 
Q 2766 1069 2766 1631 
L 2766 1759 
L 2194 1759 
z
M 3341 1997 
L 3341 0 
L 2766 0 
L 2766 531 
Q 2569 213 2275 61 
Q 1981 -91 1556 -91 
Q 1019 -91 701 211 
Q 384 513 384 1019 
Q 384 1609 779 1909 
Q 1175 2209 1959 2209 
L 2766 2209 
L 2766 2266 
Q 2766 2663 2505 2880 
Q 2244 3097 1772 3097 
Q 1472 3097 1187 3025 
Q 903 2953 641 2809 
L 641 3341 
Q 956 3463 1253 3523 
Q 1550 3584 1831 3584 
Q 2591 3584 2966 3190 
Q 3341 2797 3341 1997 
z
" transform="scale(0.015625)"/>
      </defs>
      <use xlink:href="#DejaVuSans-66"/>
      <use xlink:href="#DejaVuSans-61" x="35.205078"/>
      <use xlink:href="#DejaVuSans-6c" x="96.484375"/>
      <use xlink:href="#DejaVuSans-73" x="124.267578"/>
      <use xlink:href="#DejaVuSans-65" x="176.367188"/>
     </g>
    </g>
   </g>
  </g>
 </g>
 <defs>
  <clipPath id="pb729594f11">
   <rect x="57.6" y="41.472" width="357.12" height="266.112"/>
  </clipPath>
 </defs>
</svg>
