<?xml version="1.0" encoding="utf-8" standalone="no"?>
<!DOCTYPE svg PUBLIC "-//W3C//DTD SVG 1.1//EN"
  "http://www.w3.org/Graphics/SVG/1.1/DTD/svg11.dtd">
<svg xmlns:xlink="http://www.w3.org/1999/xlink" width="460.8pt" height="345.6pt" viewBox="0 0 460.8 345.6" xmlns="http://www.w3.org/2000/svg" version="1.1">
 <metadata>
  <rdf:RDF xmlns:dc="http://purl.org/dc/elements/1.1/" xmlns:cc="http://creativecommons.org/ns#" xmlns:rdf="http://www.w3.org/1999/02/22-rdf-syntax-ns#">
   <cc:Work>
    <dc:type rdf:resource="http://purl.org/dc/dcmitype/StillImage"/>
    <dc:date>2022-07-21T13:15:33.539610</dc:date>
    <dc:format>image/svg+xml</dc:format>
    <dc:creator>
     <cc:Agent>
      <dc:title>Matplotlib v3.5.1, https://matplotlib.org/</dc:title>
     </cc:Agent>
    </dc:creator>
   </cc:Work>
  </rdf:RDF>
 </metadata>
 <defs>
  <style type="text/css">*{stroke-linejoin: round; stroke-linecap: butt}</style>
 </defs>
 <g id="figure_1">
  <g id="patch_1">
   <path d="M 0 345.6 
L 460.8 345.6 
L 460.8 0 
L 0 0 
z
" style="fill: #ffffff"/>
  </g>
  <g id="axes_1">
   <g id="patch_2">
    <path d="M 57.6 307.584 
L 414.72 307.584 
L 414.72 41.472 
L 57.6 41.472 
z
" style="fill: #ffffff"/>
   </g>
   <g id="PolyCollection_1">
    <path d="M 73.832727 109.135698 
L 73.832727 307.584 
L 73.950774 307.584 
L 74.005012 307.584 
L 74.320867 307.584 
L 74.429343 307.584 
L 74.4772 307.584 
L 74.515485 307.584 
L 74.847293 307.584 
L 75.376909 307.584 
L 75.434337 307.584 
L 75.568336 307.584 
L 75.603431 307.584 
L 75.992667 307.584 
L 76.101142 307.584 
L 76.308522 307.584 
L 76.359569 307.584 
L 76.461664 307.584 
L 76.637139 307.584 
L 76.681806 307.584 
L 76.716901 307.584 
L 77.004042 307.584 
L 77.118898 307.584 
L 77.281612 307.584 
L 77.329468 307.584 
L 77.543229 307.584 
L 77.836751 307.584 
L 78.024988 307.584 
L 78.031369 307.584 
L 78.127083 307.584 
L 78.688603 307.584 
L 78.717317 307.584 
L 78.982125 307.584 
L 79.486217 307.584 
L 79.597883 307.584 
L 79.955215 307.584 
L 79.999881 307.584 
L 80.165785 307.584 
L 80.207261 307.584 
L 80.296594 307.584 
L 80.886828 307.584 
L 80.918733 307.584 
L 80.921923 307.584 
L 81.25054 307.584 
L 81.512158 307.584 
L 82.137487 307.584 
L 82.351248 307.584 
L 82.686246 307.584 
L 82.868102 307.584 
L 83.388147 307.584 
L 83.525336 307.584 
L 83.544479 307.584 
L 83.885858 307.584 
L 84.492045 307.584 
L 84.517568 307.584 
L 84.766424 307.584 
L 85.251374 307.584 
L 85.905417 307.584 
L 86.974221 307.584 
L 87.082696 307.584 
L 87.500646 307.584 
L 87.609122 307.584 
L 87.692073 307.584 
L 87.749502 307.584 
L 87.905834 307.584 
L 88.183404 307.584 
L 88.476926 307.584 
L 88.563068 307.584 
L 88.674734 307.584 
L 88.697067 307.584 
L 88.802353 307.584 
L 88.961875 307.584 
L 89.27135 307.584 
L 89.386206 307.584 
L 89.695681 307.584 
L 90.218916 307.584 
L 90.573056 307.584 
L 90.860197 307.584 
L 90.991006 307.584 
L 91.546146 307.584 
L 91.692907 307.584 
L 91.78543 307.584 
L 92.362903 307.584 
L 92.796805 307.584 
L 93.061613 307.584 
L 93.10947 307.584 
L 93.230707 307.584 
L 94.082559 307.584 
L 94.101702 307.584 
L 94.238892 307.584 
L 94.273987 307.584 
L 94.822745 307.584 
L 95.052458 307.584 
L 96.175499 307.584 
L 96.682782 307.584 
L 96.73702 307.584 
L 97.059256 307.584 
L 97.556967 307.584 
L 97.844108 307.584 
L 98.217392 307.584 
L 98.252487 307.584 
L 98.584294 307.584 
L 98.83315 307.584 
L 98.979911 307.584 
L 99.286195 307.584 
L 99.554193 307.584 
L 99.563765 307.584 
L 99.790287 307.584 
L 100.150809 307.584 
L 100.169952 307.584 
L 101.404659 307.584 
L 101.48442 307.584 
L 102.371367 307.584 
L 102.486224 307.584 
L 102.553223 307.584 
L 102.661699 307.584 
L 103.172172 307.584 
L 103.845358 307.584 
L 104.122928 307.584 
L 104.288832 307.584 
L 104.907781 307.584 
L 105.207684 307.584 
L 105.217255 307.584 
L 105.46292 307.584 
L 105.517158 307.584 
L 106.027631 307.584 
L 106.139297 307.584 
L 106.250963 307.584 
L 107.13791 307.584 
L 107.498432 307.584 
L 107.664336 307.584 
L 108.264142 307.584 
L 108.445998 307.584 
L 108.506616 307.584 
L 108.52895 307.584 
L 108.806519 307.584 
L 108.892662 307.584 
L 109.339326 307.584 
L 109.6488 307.584 
L 111.196172 307.584 
L 111.649217 307.584 
L 111.872549 307.584 
L 112.274546 307.584 
L 112.43726 307.584 
L 113.06578 307.584 
L 113.120017 307.584 
L 113.254017 307.584 
L 113.981441 307.584 
L 114.290915 307.584 
L 114.444057 307.584 
L 114.648246 307.584 
L 115.535194 307.584 
L 116.080762 307.584 
L 116.214761 307.584 
L 116.27538 307.584 
L 116.27857 307.584 
L 116.677377 307.584 
L 117.136803 307.584 
L 117.305897 307.584 
L 117.784466 307.584 
L 118.703318 307.584 
L 118.757555 307.584 
L 118.830936 307.584 
L 119.00003 307.584 
L 119.902929 307.584 
L 120.863257 307.584 
L 121.041923 307.584 
L 121.644919 307.584 
L 122.633961 307.584 
L 123.176339 307.584 
L 123.316719 307.584 
L 123.958001 307.584 
L 124.130285 307.584 
L 124.51314 307.584 
L 124.548235 307.584 
L 126.350844 307.584 
L 126.443367 307.584 
L 126.740079 307.584 
L 126.749651 307.584 
L 127.499408 307.584 
L 128.498021 307.584 
L 128.683068 307.584 
L 128.861733 307.584 
L 129.014875 307.584 
L 129.030828 307.584 
L 129.627443 307.584 
L 129.844394 307.584 
L 129.88268 307.584 
L 129.933727 307.584 
L 130.198535 307.584 
L 130.380391 307.584 
L 131.528956 307.584 
L 132.077714 307.584 
L 132.135142 307.584 
L 132.320189 307.584 
L 132.336141 307.584 
L 133.277326 307.584 
L 134.055798 307.584 
L 134.77046 307.584 
L 136.16469 307.584 
L 137.045256 307.584 
L 137.948155 307.584 
L 138.053441 307.584 
L 140.433522 307.584 
L 141.208803 307.584 
L 141.345992 307.584 
L 141.460849 307.584 
L 142.02875 307.584 
L 143.193267 307.584 
L 143.477218 307.584 
L 143.649503 307.584 
L 144.035548 307.584 
L 144.842734 307.584 
L 145.487206 307.584 
L 145.79349 307.584 
L 145.803061 307.584 
L 145.876442 307.584 
L 145.908346 307.584 
L 146.364582 307.584 
L 146.412438 307.584 
L 146.463486 307.584 
L 146.84315 307.584 
L 147.107958 307.584 
L 147.379147 307.584 
L 147.758811 307.584 
L 147.848144 307.584 
L 148.160809 307.584 
L 148.463902 307.584 
L 148.626616 307.584 
L 148.846757 307.584 
L 148.929709 307.584 
L 150.234606 307.584 
L 150.256939 307.584 
L 150.649366 307.584 
L 150.923745 307.584 
L 151.006697 307.584 
L 151.303409 307.584 
L 151.3066 307.584 
L 152.684877 307.584 
L 152.735925 307.584 
L 153.023066 307.584 
L 153.185779 307.584 
L 153.89087 307.584 
L 154.854388 307.584 
L 155.361671 307.584 
L 155.795573 307.584 
L 156.934566 307.584 
L 156.982423 307.584 
L 157.148327 307.584 
L 159.043459 307.584 
L 159.515646 307.584 
L 159.630503 307.584 
L 161.318255 307.584 
L 162.039298 307.584 
L 162.109488 307.584 
L 162.230725 307.584 
L 163.707907 307.584 
L 164.125857 307.584 
L 165.293564 307.584 
L 165.995465 307.584 
L 166.461272 307.584 
L 167.089792 307.584 
L 167.099363 307.584 
L 168.164976 307.584 
L 168.480831 307.584 
L 168.672258 307.584 
L 168.761591 307.584 
L 169.211446 307.584 
L 169.473063 307.584 
L 171.084244 307.584 
L 172.484855 307.584 
L 172.80071 307.584 
L 175.3116 307.584 
L 175.681693 307.584 
L 177.206732 307.584 
L 177.26416 307.584 
L 178.138345 307.584 
L 180.177047 307.584 
L 180.866186 307.584 
L 181.191613 307.584 
L 181.915846 307.584 
L 182.356129 307.584 
L 183.731217 307.584 
L 184.209785 307.584 
L 184.774496 307.584 
L 185.63911 307.584 
L 196.668521 307.584 
L 197.297041 307.584 
L 197.912799 307.584 
L 198.260559 307.584 
L 203.531194 307.584 
L 204.166095 307.584 
L 206.054846 307.584 
L 210.419391 307.584 
L 211.985906 307.584 
L 222.670747 307.584 
L 223.146125 307.584 
L 228.27638 307.584 
L 229.890752 307.584 
L 232.972733 307.584 
L 240.103405 307.584 
L 244.168048 307.584 
L 245.737753 307.584 
L 249.601396 307.584 
L 250.574486 307.584 
L 252.150572 307.584 
L 255.3506 307.584 
L 255.516504 307.584 
L 258.384725 307.584 
L 263.505409 307.584 
L 263.626646 307.584 
L 281.148637 307.584 
L 283.81905 307.584 
L 315.155721 307.584 
L 331.813098 307.584 
L 352.311785 307.584 
L 353.552873 307.584 
L 398.487273 307.584 
L 398.487273 307.584 
L 398.487273 307.584 
L 353.552873 307.584 
L 352.311785 307.584 
L 331.813098 307.584 
L 315.155721 307.584 
L 283.81905 307.584 
L 281.148637 307.584 
L 263.626646 306.787019 
L 263.505409 305.990038 
L 258.384725 305.990038 
L 255.516504 305.990038 
L 255.3506 305.990038 
L 252.150572 305.193057 
L 250.574486 304.396075 
L 249.601396 304.396075 
L 245.737753 304.396075 
L 244.168048 304.396075 
L 240.103405 304.396075 
L 232.972733 304.396075 
L 229.890752 304.396075 
L 228.27638 304.396075 
L 223.146125 304.396075 
L 222.670747 304.396075 
L 211.985906 304.396075 
L 210.419391 303.599094 
L 206.054846 302.802113 
L 204.166095 302.802113 
L 203.531194 302.005132 
L 198.260559 301.208151 
L 197.912799 300.41117 
L 197.297041 299.614189 
L 196.668521 298.817208 
L 185.63911 298.817208 
L 184.774496 298.020226 
L 184.209785 297.223245 
L 183.731217 296.426264 
L 182.356129 295.629283 
L 181.915846 294.832302 
L 181.191613 294.035321 
L 180.866186 293.23834 
L 180.177047 293.23834 
L 178.138345 292.441358 
L 177.26416 291.644377 
L 177.206732 290.847396 
L 175.681693 290.050415 
L 175.3116 289.253434 
L 172.80071 289.253434 
L 172.484855 288.456453 
L 171.084244 288.456453 
L 169.473063 287.659472 
L 169.211446 287.659472 
L 168.761591 286.862491 
L 168.672258 286.065509 
L 168.480831 285.268528 
L 168.164976 284.471547 
L 167.099363 283.674566 
L 167.089792 282.877585 
L 166.461272 282.080604 
L 165.995465 281.283623 
L 165.293564 280.486642 
L 164.125857 279.68966 
L 163.707907 278.892679 
L 162.230725 278.892679 
L 162.109488 278.095698 
L 162.039298 277.298717 
L 161.318255 276.501736 
L 159.630503 275.704755 
L 159.515646 274.907774 
L 159.043459 274.110792 
L 157.148327 274.110792 
L 156.982423 273.313811 
L 156.934566 272.51683 
L 155.795573 271.719849 
L 155.361671 270.922868 
L 154.854388 270.125887 
L 153.89087 269.328906 
L 153.185779 268.531925 
L 153.023066 267.734943 
L 152.735925 266.937962 
L 152.684877 266.140981 
L 151.3066 265.344 
L 151.303409 264.547019 
L 151.006697 263.750038 
L 150.923745 262.953057 
L 150.649366 262.156075 
L 150.256939 261.359094 
L 150.234606 260.562113 
L 148.929709 260.562113 
L 148.846757 260.562113 
L 148.626616 259.765132 
L 148.463902 259.765132 
L 148.160809 258.968151 
L 147.848144 258.17117 
L 147.758811 257.374189 
L 147.379147 256.577208 
L 147.107958 255.780226 
L 146.84315 254.983245 
L 146.463486 254.186264 
L 146.412438 253.389283 
L 146.364582 252.592302 
L 145.908346 251.795321 
L 145.876442 250.99834 
L 145.803061 250.201358 
L 145.79349 250.201358 
L 145.487206 249.404377 
L 144.842734 248.607396 
L 144.035548 247.810415 
L 143.649503 247.013434 
L 143.477218 246.216453 
L 143.193267 245.419472 
L 142.02875 244.622491 
L 141.460849 243.825509 
L 141.345992 243.825509 
L 141.208803 243.028528 
L 140.433522 242.231547 
L 138.053441 241.434566 
L 137.948155 240.637585 
L 137.045256 239.840604 
L 136.16469 239.043623 
L 134.77046 238.246642 
L 134.055798 237.44966 
L 133.277326 236.652679 
L 132.336141 235.855698 
L 132.320189 235.058717 
L 132.135142 234.261736 
L 132.077714 233.464755 
L 131.528956 232.667774 
L 130.380391 231.870792 
L 130.198535 231.073811 
L 129.933727 230.27683 
L 129.88268 229.479849 
L 129.844394 228.682868 
L 129.627443 227.885887 
L 129.030828 227.088906 
L 129.014875 226.291925 
L 128.861733 225.494943 
L 128.683068 224.697962 
L 128.498021 223.900981 
L 127.499408 223.104 
L 126.749651 222.307019 
L 126.740079 221.510038 
L 126.443367 220.713057 
L 126.350844 219.916075 
L 124.548235 219.119094 
L 124.51314 218.322113 
L 124.130285 217.525132 
L 123.958001 216.728151 
L 123.316719 216.728151 
L 123.176339 215.93117 
L 122.633961 215.134189 
L 121.644919 214.337208 
L 121.041923 213.540226 
L 120.863257 212.743245 
L 119.902929 211.946264 
L 119.00003 211.149283 
L 118.830936 210.352302 
L 118.757555 209.555321 
L 118.703318 208.75834 
L 117.784466 207.961358 
L 117.305897 207.164377 
L 117.136803 206.367396 
L 116.677377 205.570415 
L 116.27857 204.773434 
L 116.27538 203.976453 
L 116.214761 203.179472 
L 116.080762 202.382491 
L 115.535194 201.585509 
L 114.648246 200.788528 
L 114.444057 199.991547 
L 114.290915 199.194566 
L 113.981441 198.397585 
L 113.254017 197.600604 
L 113.120017 196.803623 
L 113.06578 196.006642 
L 112.43726 195.20966 
L 112.274546 195.20966 
L 111.872549 194.412679 
L 111.649217 194.412679 
L 111.196172 193.615698 
L 109.6488 192.818717 
L 109.339326 192.021736 
L 108.892662 191.224755 
L 108.806519 190.427774 
L 108.52895 189.630792 
L 108.506616 188.833811 
L 108.445998 188.03683 
L 108.264142 187.239849 
L 107.664336 186.442868 
L 107.498432 185.645887 
L 107.13791 184.848906 
L 106.250963 184.051925 
L 106.139297 183.254943 
L 106.027631 182.457962 
L 105.517158 181.660981 
L 105.46292 180.864 
L 105.217255 180.067019 
L 105.207684 180.067019 
L 104.907781 179.270038 
L 104.288832 178.473057 
L 104.122928 177.676075 
L 103.845358 176.879094 
L 103.172172 176.082113 
L 102.661699 176.082113 
L 102.553223 175.285132 
L 102.486224 174.488151 
L 102.371367 173.69117 
L 101.48442 172.894189 
L 101.404659 172.097208 
L 100.169952 171.300226 
L 100.150809 170.503245 
L 99.790287 170.503245 
L 99.563765 169.706264 
L 99.554193 168.909283 
L 99.286195 168.112302 
L 98.979911 167.315321 
L 98.83315 166.51834 
L 98.584294 165.721358 
L 98.252487 165.721358 
L 98.217392 164.924377 
L 97.844108 164.127396 
L 97.556967 163.330415 
L 97.059256 162.533434 
L 96.73702 161.736453 
L 96.682782 160.939472 
L 96.175499 160.142491 
L 95.052458 159.345509 
L 94.822745 158.548528 
L 94.273987 157.751547 
L 94.238892 156.954566 
L 94.101702 156.157585 
L 94.082559 155.360604 
L 93.230707 154.563623 
L 93.10947 153.766642 
L 93.061613 152.96966 
L 92.796805 152.172679 
L 92.362903 152.172679 
L 91.78543 151.375698 
L 91.692907 150.578717 
L 91.546146 149.781736 
L 90.991006 148.984755 
L 90.860197 148.187774 
L 90.573056 147.390792 
L 90.218916 146.593811 
L 89.695681 145.79683 
L 89.386206 144.999849 
L 89.27135 144.202868 
L 88.961875 143.405887 
L 88.802353 142.608906 
L 88.697067 141.811925 
L 88.674734 141.014943 
L 88.563068 140.217962 
L 88.476926 139.420981 
L 88.183404 138.624 
L 87.905834 137.827019 
L 87.749502 137.030038 
L 87.692073 136.233057 
L 87.609122 135.436075 
L 87.500646 134.639094 
L 87.082696 134.639094 
L 86.974221 133.842113 
L 85.905417 133.045132 
L 85.251374 133.045132 
L 84.766424 132.248151 
L 84.517568 131.45117 
L 84.492045 131.45117 
L 83.885858 130.654189 
L 83.544479 129.857208 
L 83.525336 129.857208 
L 83.388147 129.857208 
L 82.868102 129.060226 
L 82.686246 128.263245 
L 82.351248 127.466264 
L 82.137487 126.669283 
L 81.512158 126.669283 
L 81.25054 125.872302 
L 80.921923 125.075321 
L 80.918733 125.075321 
L 80.886828 125.075321 
L 80.296594 125.075321 
L 80.207261 124.27834 
L 80.165785 123.481358 
L 79.999881 122.684377 
L 79.955215 121.887396 
L 79.597883 121.090415 
L 79.486217 120.293434 
L 78.982125 120.293434 
L 78.717317 119.496453 
L 78.688603 118.699472 
L 78.127083 117.902491 
L 78.031369 117.105509 
L 78.024988 116.308528 
L 77.836751 116.308528 
L 77.543229 115.511547 
L 77.329468 115.511547 
L 77.281612 115.511547 
L 77.118898 115.511547 
L 77.004042 114.714566 
L 76.716901 113.917585 
L 76.681806 113.917585 
L 76.637139 113.917585 
L 76.461664 113.120604 
L 76.359569 113.120604 
L 76.308522 113.120604 
L 76.101142 113.120604 
L 75.992667 113.120604 
L 75.603431 113.120604 
L 75.568336 113.120604 
L 75.434337 113.120604 
L 75.376909 113.120604 
L 74.847293 112.323623 
L 74.515485 112.323623 
L 74.4772 111.526642 
L 74.429343 111.526642 
L 74.320867 110.72966 
L 74.005012 109.932679 
L 73.950774 109.135698 
L 73.832727 109.135698 
z
" clip-path="url(#p87ba921508)" style="fill: #008000"/>
   </g>
   <g id="PolyCollection_2">
    <path d="M 73.832727 75.662491 
L 73.832727 109.135698 
L 73.950774 109.135698 
L 74.005012 109.932679 
L 74.320867 110.72966 
L 74.429343 111.526642 
L 74.4772 111.526642 
L 74.515485 112.323623 
L 74.847293 112.323623 
L 75.376909 113.120604 
L 75.434337 113.120604 
L 75.568336 113.120604 
L 75.603431 113.120604 
L 75.992667 113.120604 
L 76.101142 113.120604 
L 76.308522 113.120604 
L 76.359569 113.120604 
L 76.461664 113.120604 
L 76.637139 113.917585 
L 76.681806 113.917585 
L 76.716901 113.917585 
L 77.004042 114.714566 
L 77.118898 115.511547 
L 77.281612 115.511547 
L 77.329468 115.511547 
L 77.543229 115.511547 
L 77.836751 116.308528 
L 78.024988 116.308528 
L 78.031369 117.105509 
L 78.127083 117.902491 
L 78.688603 118.699472 
L 78.717317 119.496453 
L 78.982125 120.293434 
L 79.486217 120.293434 
L 79.597883 121.090415 
L 79.955215 121.887396 
L 79.999881 122.684377 
L 80.165785 123.481358 
L 80.207261 124.27834 
L 80.296594 125.075321 
L 80.886828 125.075321 
L 80.918733 125.075321 
L 80.921923 125.075321 
L 81.25054 125.872302 
L 81.512158 126.669283 
L 82.137487 126.669283 
L 82.351248 127.466264 
L 82.686246 128.263245 
L 82.868102 129.060226 
L 83.388147 129.857208 
L 83.525336 129.857208 
L 83.544479 129.857208 
L 83.885858 130.654189 
L 84.492045 131.45117 
L 84.517568 131.45117 
L 84.766424 132.248151 
L 85.251374 133.045132 
L 85.905417 133.045132 
L 86.974221 133.842113 
L 87.082696 134.639094 
L 87.500646 134.639094 
L 87.609122 135.436075 
L 87.692073 136.233057 
L 87.749502 137.030038 
L 87.905834 137.827019 
L 88.183404 138.624 
L 88.476926 139.420981 
L 88.563068 140.217962 
L 88.674734 141.014943 
L 88.697067 141.811925 
L 88.802353 142.608906 
L 88.961875 143.405887 
L 89.27135 144.202868 
L 89.386206 144.999849 
L 89.695681 145.79683 
L 90.218916 146.593811 
L 90.573056 147.390792 
L 90.860197 148.187774 
L 90.991006 148.984755 
L 91.546146 149.781736 
L 91.692907 150.578717 
L 91.78543 151.375698 
L 92.362903 152.172679 
L 92.796805 152.172679 
L 93.061613 152.96966 
L 93.10947 153.766642 
L 93.230707 154.563623 
L 94.082559 155.360604 
L 94.101702 156.157585 
L 94.238892 156.954566 
L 94.273987 157.751547 
L 94.822745 158.548528 
L 95.052458 159.345509 
L 96.175499 160.142491 
L 96.682782 160.939472 
L 96.73702 161.736453 
L 97.059256 162.533434 
L 97.556967 163.330415 
L 97.844108 164.127396 
L 98.217392 164.924377 
L 98.252487 165.721358 
L 98.584294 165.721358 
L 98.83315 166.51834 
L 98.979911 167.315321 
L 99.286195 168.112302 
L 99.554193 168.909283 
L 99.563765 169.706264 
L 99.790287 170.503245 
L 100.150809 170.503245 
L 100.169952 171.300226 
L 101.404659 172.097208 
L 101.48442 172.894189 
L 102.371367 173.69117 
L 102.486224 174.488151 
L 102.553223 175.285132 
L 102.661699 176.082113 
L 103.172172 176.082113 
L 103.845358 176.879094 
L 104.122928 177.676075 
L 104.288832 178.473057 
L 104.907781 179.270038 
L 105.207684 180.067019 
L 105.217255 180.067019 
L 105.46292 180.864 
L 105.517158 181.660981 
L 106.027631 182.457962 
L 106.139297 183.254943 
L 106.250963 184.051925 
L 107.13791 184.848906 
L 107.498432 185.645887 
L 107.664336 186.442868 
L 108.264142 187.239849 
L 108.445998 188.03683 
L 108.506616 188.833811 
L 108.52895 189.630792 
L 108.806519 190.427774 
L 108.892662 191.224755 
L 109.339326 192.021736 
L 109.6488 192.818717 
L 111.196172 193.615698 
L 111.649217 194.412679 
L 111.872549 194.412679 
L 112.274546 195.20966 
L 112.43726 195.20966 
L 113.06578 196.006642 
L 113.120017 196.803623 
L 113.254017 197.600604 
L 113.981441 198.397585 
L 114.290915 199.194566 
L 114.444057 199.991547 
L 114.648246 200.788528 
L 115.535194 201.585509 
L 116.080762 202.382491 
L 116.214761 203.179472 
L 116.27538 203.976453 
L 116.27857 204.773434 
L 116.677377 205.570415 
L 117.136803 206.367396 
L 117.305897 207.164377 
L 117.784466 207.961358 
L 118.703318 208.75834 
L 118.757555 209.555321 
L 118.830936 210.352302 
L 119.00003 211.149283 
L 119.902929 211.946264 
L 120.863257 212.743245 
L 121.041923 213.540226 
L 121.644919 214.337208 
L 122.633961 215.134189 
L 123.176339 215.93117 
L 123.316719 216.728151 
L 123.958001 216.728151 
L 124.130285 217.525132 
L 124.51314 218.322113 
L 124.548235 219.119094 
L 126.350844 219.916075 
L 126.443367 220.713057 
L 126.740079 221.510038 
L 126.749651 222.307019 
L 127.499408 223.104 
L 128.498021 223.900981 
L 128.683068 224.697962 
L 128.861733 225.494943 
L 129.014875 226.291925 
L 129.030828 227.088906 
L 129.627443 227.885887 
L 129.844394 228.682868 
L 129.88268 229.479849 
L 129.933727 230.27683 
L 130.198535 231.073811 
L 130.380391 231.870792 
L 131.528956 232.667774 
L 132.077714 233.464755 
L 132.135142 234.261736 
L 132.320189 235.058717 
L 132.336141 235.855698 
L 133.277326 236.652679 
L 134.055798 237.44966 
L 134.77046 238.246642 
L 136.16469 239.043623 
L 137.045256 239.840604 
L 137.948155 240.637585 
L 138.053441 241.434566 
L 140.433522 242.231547 
L 141.208803 243.028528 
L 141.345992 243.825509 
L 141.460849 243.825509 
L 142.02875 244.622491 
L 143.193267 245.419472 
L 143.477218 246.216453 
L 143.649503 247.013434 
L 144.035548 247.810415 
L 144.842734 248.607396 
L 145.487206 249.404377 
L 145.79349 250.201358 
L 145.803061 250.201358 
L 145.876442 250.99834 
L 145.908346 251.795321 
L 146.364582 252.592302 
L 146.412438 253.389283 
L 146.463486 254.186264 
L 146.84315 254.983245 
L 147.107958 255.780226 
L 147.379147 256.577208 
L 147.758811 257.374189 
L 147.848144 258.17117 
L 148.160809 258.968151 
L 148.463902 259.765132 
L 148.626616 259.765132 
L 148.846757 260.562113 
L 148.929709 260.562113 
L 150.234606 260.562113 
L 150.256939 261.359094 
L 150.649366 262.156075 
L 150.923745 262.953057 
L 151.006697 263.750038 
L 151.303409 264.547019 
L 151.3066 265.344 
L 152.684877 266.140981 
L 152.735925 266.937962 
L 153.023066 267.734943 
L 153.185779 268.531925 
L 153.89087 269.328906 
L 154.854388 270.125887 
L 155.361671 270.922868 
L 155.795573 271.719849 
L 156.934566 272.51683 
L 156.982423 273.313811 
L 157.148327 274.110792 
L 159.043459 274.110792 
L 159.515646 274.907774 
L 159.630503 275.704755 
L 161.318255 276.501736 
L 162.039298 277.298717 
L 162.109488 278.095698 
L 162.230725 278.892679 
L 163.707907 278.892679 
L 164.125857 279.68966 
L 165.293564 280.486642 
L 165.995465 281.283623 
L 166.461272 282.080604 
L 167.089792 282.877585 
L 167.099363 283.674566 
L 168.164976 284.471547 
L 168.480831 285.268528 
L 168.672258 286.065509 
L 168.761591 286.862491 
L 169.211446 287.659472 
L 169.473063 287.659472 
L 171.084244 288.456453 
L 172.484855 288.456453 
L 172.80071 289.253434 
L 175.3116 289.253434 
L 175.681693 290.050415 
L 177.206732 290.847396 
L 177.26416 291.644377 
L 178.138345 292.441358 
L 180.177047 293.23834 
L 180.866186 293.23834 
L 181.191613 294.035321 
L 181.915846 294.832302 
L 182.356129 295.629283 
L 183.731217 296.426264 
L 184.209785 297.223245 
L 184.774496 298.020226 
L 185.63911 298.817208 
L 196.668521 298.817208 
L 197.297041 299.614189 
L 197.912799 300.41117 
L 198.260559 301.208151 
L 203.531194 302.005132 
L 204.166095 302.802113 
L 206.054846 302.802113 
L 210.419391 303.599094 
L 211.985906 304.396075 
L 222.670747 304.396075 
L 223.146125 304.396075 
L 228.27638 304.396075 
L 229.890752 304.396075 
L 232.972733 304.396075 
L 240.103405 304.396075 
L 244.168048 304.396075 
L 245.737753 304.396075 
L 249.601396 304.396075 
L 250.574486 304.396075 
L 252.150572 305.193057 
L 255.3506 305.990038 
L 255.516504 305.990038 
L 258.384725 305.990038 
L 263.505409 305.990038 
L 263.626646 306.787019 
L 281.148637 307.584 
L 283.81905 307.584 
L 315.155721 307.584 
L 331.813098 307.584 
L 352.311785 307.584 
L 353.552873 307.584 
L 398.487273 307.584 
L 398.487273 306.787019 
L 398.487273 306.787019 
L 353.552873 305.990038 
L 352.311785 305.193057 
L 331.813098 304.396075 
L 315.155721 303.599094 
L 283.81905 302.802113 
L 281.148637 302.005132 
L 263.626646 301.208151 
L 263.505409 300.41117 
L 258.384725 299.614189 
L 255.516504 298.817208 
L 255.3506 298.020226 
L 252.150572 297.223245 
L 250.574486 296.426264 
L 249.601396 295.629283 
L 245.737753 294.832302 
L 244.168048 294.035321 
L 240.103405 293.23834 
L 232.972733 292.441358 
L 229.890752 291.644377 
L 228.27638 290.847396 
L 223.146125 290.050415 
L 222.670747 289.253434 
L 211.985906 288.456453 
L 210.419391 287.659472 
L 206.054846 286.862491 
L 204.166095 286.065509 
L 203.531194 285.268528 
L 198.260559 284.471547 
L 197.912799 283.674566 
L 197.297041 282.877585 
L 196.668521 282.080604 
L 185.63911 281.283623 
L 184.774496 280.486642 
L 184.209785 279.68966 
L 183.731217 278.892679 
L 182.356129 278.095698 
L 181.915846 277.298717 
L 181.191613 276.501736 
L 180.866186 275.704755 
L 180.177047 274.907774 
L 178.138345 274.110792 
L 177.26416 273.313811 
L 177.206732 272.51683 
L 175.681693 271.719849 
L 175.3116 270.922868 
L 172.80071 270.125887 
L 172.484855 269.328906 
L 171.084244 268.531925 
L 169.473063 267.734943 
L 169.211446 266.937962 
L 168.761591 266.140981 
L 168.672258 265.344 
L 168.480831 264.547019 
L 168.164976 263.750038 
L 167.099363 262.953057 
L 167.089792 262.156075 
L 166.461272 261.359094 
L 165.995465 260.562113 
L 165.293564 259.765132 
L 164.125857 258.968151 
L 163.707907 258.17117 
L 162.230725 257.374189 
L 162.109488 256.577208 
L 162.039298 255.780226 
L 161.318255 254.983245 
L 159.630503 254.186264 
L 159.515646 253.389283 
L 159.043459 252.592302 
L 157.148327 251.795321 
L 156.982423 250.99834 
L 156.934566 250.201358 
L 155.795573 249.404377 
L 155.361671 248.607396 
L 154.854388 247.810415 
L 153.89087 247.013434 
L 153.185779 246.216453 
L 153.023066 245.419472 
L 152.735925 244.622491 
L 152.684877 243.825509 
L 151.3066 243.028528 
L 151.303409 242.231547 
L 151.006697 241.434566 
L 150.923745 240.637585 
L 150.649366 239.840604 
L 150.256939 239.043623 
L 150.234606 238.246642 
L 148.929709 237.44966 
L 148.846757 236.652679 
L 148.626616 235.855698 
L 148.463902 235.058717 
L 148.160809 234.261736 
L 147.848144 233.464755 
L 147.758811 232.667774 
L 147.379147 231.870792 
L 147.107958 231.073811 
L 146.84315 230.27683 
L 146.463486 229.479849 
L 146.412438 228.682868 
L 146.364582 227.885887 
L 145.908346 227.088906 
L 145.876442 226.291925 
L 145.803061 225.494943 
L 145.79349 224.697962 
L 145.487206 223.900981 
L 144.842734 223.104 
L 144.035548 222.307019 
L 143.649503 221.510038 
L 143.477218 220.713057 
L 143.193267 219.916075 
L 142.02875 219.119094 
L 141.460849 218.322113 
L 141.345992 217.525132 
L 141.208803 216.728151 
L 140.433522 215.93117 
L 138.053441 215.134189 
L 137.948155 214.337208 
L 137.045256 213.540226 
L 136.16469 212.743245 
L 134.77046 211.946264 
L 134.055798 211.149283 
L 133.277326 210.352302 
L 132.336141 209.555321 
L 132.320189 208.75834 
L 132.135142 207.961358 
L 132.077714 207.164377 
L 131.528956 206.367396 
L 130.380391 205.570415 
L 130.198535 204.773434 
L 129.933727 203.976453 
L 129.88268 203.179472 
L 129.844394 202.382491 
L 129.627443 201.585509 
L 129.030828 200.788528 
L 129.014875 199.991547 
L 128.861733 199.194566 
L 128.683068 198.397585 
L 128.498021 197.600604 
L 127.499408 196.803623 
L 126.749651 196.006642 
L 126.740079 195.20966 
L 126.443367 194.412679 
L 126.350844 193.615698 
L 124.548235 192.818717 
L 124.51314 192.021736 
L 124.130285 191.224755 
L 123.958001 190.427774 
L 123.316719 189.630792 
L 123.176339 188.833811 
L 122.633961 188.03683 
L 121.644919 187.239849 
L 121.041923 186.442868 
L 120.863257 185.645887 
L 119.902929 184.848906 
L 119.00003 184.051925 
L 118.830936 183.254943 
L 118.757555 182.457962 
L 118.703318 181.660981 
L 117.784466 180.864 
L 117.305897 180.067019 
L 117.136803 179.270038 
L 116.677377 178.473057 
L 116.27857 177.676075 
L 116.27538 176.879094 
L 116.214761 176.082113 
L 116.080762 175.285132 
L 115.535194 174.488151 
L 114.648246 173.69117 
L 114.444057 172.894189 
L 114.290915 172.097208 
L 113.981441 171.300226 
L 113.254017 170.503245 
L 113.120017 169.706264 
L 113.06578 168.909283 
L 112.43726 168.112302 
L 112.274546 167.315321 
L 111.872549 166.51834 
L 111.649217 166.51834 
L 111.196172 165.721358 
L 109.6488 164.924377 
L 109.339326 164.127396 
L 108.892662 163.330415 
L 108.806519 162.533434 
L 108.52895 161.736453 
L 108.506616 160.939472 
L 108.445998 160.142491 
L 108.264142 159.345509 
L 107.664336 158.548528 
L 107.498432 157.751547 
L 107.13791 156.954566 
L 106.250963 156.157585 
L 106.139297 155.360604 
L 106.027631 154.563623 
L 105.517158 153.766642 
L 105.46292 152.96966 
L 105.217255 152.172679 
L 105.207684 151.375698 
L 104.907781 150.578717 
L 104.288832 149.781736 
L 104.122928 148.984755 
L 103.845358 148.187774 
L 103.172172 147.390792 
L 102.661699 147.390792 
L 102.553223 146.593811 
L 102.486224 145.79683 
L 102.371367 144.999849 
L 101.48442 144.202868 
L 101.404659 143.405887 
L 100.169952 142.608906 
L 100.150809 141.811925 
L 99.790287 141.014943 
L 99.563765 140.217962 
L 99.554193 139.420981 
L 99.286195 138.624 
L 98.979911 137.827019 
L 98.83315 137.030038 
L 98.584294 136.233057 
L 98.252487 135.436075 
L 98.217392 134.639094 
L 97.844108 133.842113 
L 97.556967 133.045132 
L 97.059256 132.248151 
L 96.73702 131.45117 
L 96.682782 130.654189 
L 96.175499 129.857208 
L 95.052458 129.060226 
L 94.822745 128.263245 
L 94.273987 127.466264 
L 94.238892 126.669283 
L 94.101702 125.872302 
L 94.082559 125.075321 
L 93.230707 124.27834 
L 93.10947 123.481358 
L 93.061613 122.684377 
L 92.796805 121.887396 
L 92.362903 121.887396 
L 91.78543 121.090415 
L 91.692907 120.293434 
L 91.546146 119.496453 
L 90.991006 118.699472 
L 90.860197 117.902491 
L 90.573056 117.105509 
L 90.218916 116.308528 
L 89.695681 115.511547 
L 89.386206 114.714566 
L 89.27135 113.917585 
L 88.961875 113.120604 
L 88.802353 112.323623 
L 88.697067 111.526642 
L 88.674734 110.72966 
L 88.563068 109.932679 
L 88.476926 109.135698 
L 88.183404 108.338717 
L 87.905834 107.541736 
L 87.749502 106.744755 
L 87.692073 105.947774 
L 87.609122 105.150792 
L 87.500646 104.353811 
L 87.082696 104.353811 
L 86.974221 103.55683 
L 85.905417 102.759849 
L 85.251374 102.759849 
L 84.766424 101.962868 
L 84.517568 101.165887 
L 84.492045 101.165887 
L 83.885858 100.368906 
L 83.544479 99.571925 
L 83.525336 99.571925 
L 83.388147 98.774943 
L 82.868102 97.977962 
L 82.686246 97.180981 
L 82.351248 96.384 
L 82.137487 95.587019 
L 81.512158 95.587019 
L 81.25054 94.790038 
L 80.921923 93.993057 
L 80.918733 93.993057 
L 80.886828 93.993057 
L 80.296594 93.993057 
L 80.207261 93.196075 
L 80.165785 92.399094 
L 79.999881 91.602113 
L 79.955215 90.805132 
L 79.597883 90.008151 
L 79.486217 89.21117 
L 78.982125 88.414189 
L 78.717317 87.617208 
L 78.688603 86.820226 
L 78.127083 86.023245 
L 78.031369 85.226264 
L 78.024988 84.429283 
L 77.836751 84.429283 
L 77.543229 83.632302 
L 77.329468 83.632302 
L 77.281612 83.632302 
L 77.118898 82.835321 
L 77.004042 82.03834 
L 76.716901 81.241358 
L 76.681806 81.241358 
L 76.637139 81.241358 
L 76.461664 79.647396 
L 76.359569 79.647396 
L 76.308522 79.647396 
L 76.101142 79.647396 
L 75.992667 79.647396 
L 75.603431 79.647396 
L 75.568336 79.647396 
L 75.434337 79.647396 
L 75.376909 79.647396 
L 74.847293 78.850415 
L 74.515485 78.850415 
L 74.4772 78.053434 
L 74.429343 78.053434 
L 74.320867 77.256453 
L 74.005012 76.459472 
L 73.950774 75.662491 
L 73.832727 75.662491 
z
" clip-path="url(#p87ba921508)" style="fill: #7cfc00"/>
   </g>
   <g id="PolyCollection_3">
    <path d="M 73.832727 54.144 
L 73.832727 75.662491 
L 73.950774 75.662491 
L 74.005012 76.459472 
L 74.320867 77.256453 
L 74.429343 78.053434 
L 74.4772 78.053434 
L 74.515485 78.850415 
L 74.847293 78.850415 
L 75.376909 79.647396 
L 75.434337 79.647396 
L 75.568336 79.647396 
L 75.603431 79.647396 
L 75.992667 79.647396 
L 76.101142 79.647396 
L 76.308522 79.647396 
L 76.359569 79.647396 
L 76.461664 79.647396 
L 76.637139 81.241358 
L 76.681806 81.241358 
L 76.716901 81.241358 
L 77.004042 82.03834 
L 77.118898 82.835321 
L 77.281612 83.632302 
L 77.329468 83.632302 
L 77.543229 83.632302 
L 77.836751 84.429283 
L 78.024988 84.429283 
L 78.031369 85.226264 
L 78.127083 86.023245 
L 78.688603 86.820226 
L 78.717317 87.617208 
L 78.982125 88.414189 
L 79.486217 89.21117 
L 79.597883 90.008151 
L 79.955215 90.805132 
L 79.999881 91.602113 
L 80.165785 92.399094 
L 80.207261 93.196075 
L 80.296594 93.993057 
L 80.886828 93.993057 
L 80.918733 93.993057 
L 80.921923 93.993057 
L 81.25054 94.790038 
L 81.512158 95.587019 
L 82.137487 95.587019 
L 82.351248 96.384 
L 82.686246 97.180981 
L 82.868102 97.977962 
L 83.388147 98.774943 
L 83.525336 99.571925 
L 83.544479 99.571925 
L 83.885858 100.368906 
L 84.492045 101.165887 
L 84.517568 101.165887 
L 84.766424 101.962868 
L 85.251374 102.759849 
L 85.905417 102.759849 
L 86.974221 103.55683 
L 87.082696 104.353811 
L 87.500646 104.353811 
L 87.609122 105.150792 
L 87.692073 105.947774 
L 87.749502 106.744755 
L 87.905834 107.541736 
L 88.183404 108.338717 
L 88.476926 109.135698 
L 88.563068 109.932679 
L 88.674734 110.72966 
L 88.697067 111.526642 
L 88.802353 112.323623 
L 88.961875 113.120604 
L 89.27135 113.917585 
L 89.386206 114.714566 
L 89.695681 115.511547 
L 90.218916 116.308528 
L 90.573056 117.105509 
L 90.860197 117.902491 
L 90.991006 118.699472 
L 91.546146 119.496453 
L 91.692907 120.293434 
L 91.78543 121.090415 
L 92.362903 121.887396 
L 92.796805 121.887396 
L 93.061613 122.684377 
L 93.10947 123.481358 
L 93.230707 124.27834 
L 94.082559 125.075321 
L 94.101702 125.872302 
L 94.238892 126.669283 
L 94.273987 127.466264 
L 94.822745 128.263245 
L 95.052458 129.060226 
L 96.175499 129.857208 
L 96.682782 130.654189 
L 96.73702 131.45117 
L 97.059256 132.248151 
L 97.556967 133.045132 
L 97.844108 133.842113 
L 98.217392 134.639094 
L 98.252487 135.436075 
L 98.584294 136.233057 
L 98.83315 137.030038 
L 98.979911 137.827019 
L 99.286195 138.624 
L 99.554193 139.420981 
L 99.563765 140.217962 
L 99.790287 141.014943 
L 100.150809 141.811925 
L 100.169952 142.608906 
L 101.404659 143.405887 
L 101.48442 144.202868 
L 102.371367 144.999849 
L 102.486224 145.79683 
L 102.553223 146.593811 
L 102.661699 147.390792 
L 103.172172 147.390792 
L 103.845358 148.187774 
L 104.122928 148.984755 
L 104.288832 149.781736 
L 104.907781 150.578717 
L 105.207684 151.375698 
L 105.217255 152.172679 
L 105.46292 152.96966 
L 105.517158 153.766642 
L 106.027631 154.563623 
L 106.139297 155.360604 
L 106.250963 156.157585 
L 107.13791 156.954566 
L 107.498432 157.751547 
L 107.664336 158.548528 
L 108.264142 159.345509 
L 108.445998 160.142491 
L 108.506616 160.939472 
L 108.52895 161.736453 
L 108.806519 162.533434 
L 108.892662 163.330415 
L 109.339326 164.127396 
L 109.6488 164.924377 
L 111.196172 165.721358 
L 111.649217 166.51834 
L 111.872549 166.51834 
L 112.274546 167.315321 
L 112.43726 168.112302 
L 113.06578 168.909283 
L 113.120017 169.706264 
L 113.254017 170.503245 
L 113.981441 171.300226 
L 114.290915 172.097208 
L 114.444057 172.894189 
L 114.648246 173.69117 
L 115.535194 174.488151 
L 116.080762 175.285132 
L 116.214761 176.082113 
L 116.27538 176.879094 
L 116.27857 177.676075 
L 116.677377 178.473057 
L 117.136803 179.270038 
L 117.305897 180.067019 
L 117.784466 180.864 
L 118.703318 181.660981 
L 118.757555 182.457962 
L 118.830936 183.254943 
L 119.00003 184.051925 
L 119.902929 184.848906 
L 120.863257 185.645887 
L 121.041923 186.442868 
L 121.644919 187.239849 
L 122.633961 188.03683 
L 123.176339 188.833811 
L 123.316719 189.630792 
L 123.958001 190.427774 
L 124.130285 191.224755 
L 124.51314 192.021736 
L 124.548235 192.818717 
L 126.350844 193.615698 
L 126.443367 194.412679 
L 126.740079 195.20966 
L 126.749651 196.006642 
L 127.499408 196.803623 
L 128.498021 197.600604 
L 128.683068 198.397585 
L 128.861733 199.194566 
L 129.014875 199.991547 
L 129.030828 200.788528 
L 129.627443 201.585509 
L 129.844394 202.382491 
L 129.88268 203.179472 
L 129.933727 203.976453 
L 130.198535 204.773434 
L 130.380391 205.570415 
L 131.528956 206.367396 
L 132.077714 207.164377 
L 132.135142 207.961358 
L 132.320189 208.75834 
L 132.336141 209.555321 
L 133.277326 210.352302 
L 134.055798 211.149283 
L 134.77046 211.946264 
L 136.16469 212.743245 
L 137.045256 213.540226 
L 137.948155 214.337208 
L 138.053441 215.134189 
L 140.433522 215.93117 
L 141.208803 216.728151 
L 141.345992 217.525132 
L 141.460849 218.322113 
L 142.02875 219.119094 
L 143.193267 219.916075 
L 143.477218 220.713057 
L 143.649503 221.510038 
L 144.035548 222.307019 
L 144.842734 223.104 
L 145.487206 223.900981 
L 145.79349 224.697962 
L 145.803061 225.494943 
L 145.876442 226.291925 
L 145.908346 227.088906 
L 146.364582 227.885887 
L 146.412438 228.682868 
L 146.463486 229.479849 
L 146.84315 230.27683 
L 147.107958 231.073811 
L 147.379147 231.870792 
L 147.758811 232.667774 
L 147.848144 233.464755 
L 148.160809 234.261736 
L 148.463902 235.058717 
L 148.626616 235.855698 
L 148.846757 236.652679 
L 148.929709 237.44966 
L 150.234606 238.246642 
L 150.256939 239.043623 
L 150.649366 239.840604 
L 150.923745 240.637585 
L 151.006697 241.434566 
L 151.303409 242.231547 
L 151.3066 243.028528 
L 152.684877 243.825509 
L 152.735925 244.622491 
L 153.023066 245.419472 
L 153.185779 246.216453 
L 153.89087 247.013434 
L 154.854388 247.810415 
L 155.361671 248.607396 
L 155.795573 249.404377 
L 156.934566 250.201358 
L 156.982423 250.99834 
L 157.148327 251.795321 
L 159.043459 252.592302 
L 159.515646 253.389283 
L 159.630503 254.186264 
L 161.318255 254.983245 
L 162.039298 255.780226 
L 162.109488 256.577208 
L 162.230725 257.374189 
L 163.707907 258.17117 
L 164.125857 258.968151 
L 165.293564 259.765132 
L 165.995465 260.562113 
L 166.461272 261.359094 
L 167.089792 262.156075 
L 167.099363 262.953057 
L 168.164976 263.750038 
L 168.480831 264.547019 
L 168.672258 265.344 
L 168.761591 266.140981 
L 169.211446 266.937962 
L 169.473063 267.734943 
L 171.084244 268.531925 
L 172.484855 269.328906 
L 172.80071 270.125887 
L 175.3116 270.922868 
L 175.681693 271.719849 
L 177.206732 272.51683 
L 177.26416 273.313811 
L 178.138345 274.110792 
L 180.177047 274.907774 
L 180.866186 275.704755 
L 181.191613 276.501736 
L 181.915846 277.298717 
L 182.356129 278.095698 
L 183.731217 278.892679 
L 184.209785 279.68966 
L 184.774496 280.486642 
L 185.63911 281.283623 
L 196.668521 282.080604 
L 197.297041 282.877585 
L 197.912799 283.674566 
L 198.260559 284.471547 
L 203.531194 285.268528 
L 204.166095 286.065509 
L 206.054846 286.862491 
L 210.419391 287.659472 
L 211.985906 288.456453 
L 222.670747 289.253434 
L 223.146125 290.050415 
L 228.27638 290.847396 
L 229.890752 291.644377 
L 232.972733 292.441358 
L 240.103405 293.23834 
L 244.168048 294.035321 
L 245.737753 294.832302 
L 249.601396 295.629283 
L 250.574486 296.426264 
L 252.150572 297.223245 
L 255.3506 298.020226 
L 255.516504 298.817208 
L 258.384725 299.614189 
L 263.505409 300.41117 
L 263.626646 301.208151 
L 281.148637 302.005132 
L 283.81905 302.802113 
L 315.155721 303.599094 
L 331.813098 304.396075 
L 352.311785 305.193057 
L 353.552873 305.990038 
L 398.487273 306.787019 
L 398.487273 306.787019 
L 398.487273 306.787019 
L 353.552873 305.990038 
L 352.311785 305.193057 
L 331.813098 304.396075 
L 315.155721 303.599094 
L 283.81905 302.802113 
L 281.148637 302.005132 
L 263.626646 301.208151 
L 263.505409 300.41117 
L 258.384725 299.614189 
L 255.516504 298.817208 
L 255.3506 298.020226 
L 252.150572 297.223245 
L 250.574486 296.426264 
L 249.601396 295.629283 
L 245.737753 294.832302 
L 244.168048 294.035321 
L 240.103405 293.23834 
L 232.972733 292.441358 
L 229.890752 291.644377 
L 228.27638 290.847396 
L 223.146125 290.050415 
L 222.670747 289.253434 
L 211.985906 288.456453 
L 210.419391 287.659472 
L 206.054846 286.862491 
L 204.166095 286.065509 
L 203.531194 285.268528 
L 198.260559 284.471547 
L 197.912799 283.674566 
L 197.297041 282.877585 
L 196.668521 282.080604 
L 185.63911 281.283623 
L 184.774496 280.486642 
L 184.209785 279.68966 
L 183.731217 278.892679 
L 182.356129 278.095698 
L 181.915846 277.298717 
L 181.191613 276.501736 
L 180.866186 275.704755 
L 180.177047 274.907774 
L 178.138345 274.110792 
L 177.26416 273.313811 
L 177.206732 272.51683 
L 175.681693 271.719849 
L 175.3116 270.922868 
L 172.80071 270.125887 
L 172.484855 269.328906 
L 171.084244 268.531925 
L 169.473063 267.734943 
L 169.211446 266.937962 
L 168.761591 266.140981 
L 168.672258 265.344 
L 168.480831 264.547019 
L 168.164976 263.750038 
L 167.099363 262.953057 
L 167.089792 262.156075 
L 166.461272 261.359094 
L 165.995465 260.562113 
L 165.293564 259.765132 
L 164.125857 258.968151 
L 163.707907 258.17117 
L 162.230725 257.374189 
L 162.109488 256.577208 
L 162.039298 255.780226 
L 161.318255 254.983245 
L 159.630503 254.186264 
L 159.515646 253.389283 
L 159.043459 252.592302 
L 157.148327 251.795321 
L 156.982423 250.99834 
L 156.934566 250.201358 
L 155.795573 249.404377 
L 155.361671 248.607396 
L 154.854388 247.810415 
L 153.89087 247.013434 
L 153.185779 246.216453 
L 153.023066 245.419472 
L 152.735925 244.622491 
L 152.684877 243.825509 
L 151.3066 243.028528 
L 151.303409 242.231547 
L 151.006697 241.434566 
L 150.923745 240.637585 
L 150.649366 239.840604 
L 150.256939 239.043623 
L 150.234606 238.246642 
L 148.929709 237.44966 
L 148.846757 236.652679 
L 148.626616 235.855698 
L 148.463902 235.058717 
L 148.160809 234.261736 
L 147.848144 233.464755 
L 147.758811 232.667774 
L 147.379147 231.870792 
L 147.107958 231.073811 
L 146.84315 230.27683 
L 146.463486 229.479849 
L 146.412438 228.682868 
L 146.364582 227.885887 
L 145.908346 227.088906 
L 145.876442 226.291925 
L 145.803061 225.494943 
L 145.79349 224.697962 
L 145.487206 223.900981 
L 144.842734 223.104 
L 144.035548 222.307019 
L 143.649503 221.510038 
L 143.477218 220.713057 
L 143.193267 219.916075 
L 142.02875 219.119094 
L 141.460849 218.322113 
L 141.345992 217.525132 
L 141.208803 216.728151 
L 140.433522 215.93117 
L 138.053441 215.134189 
L 137.948155 214.337208 
L 137.045256 213.540226 
L 136.16469 212.743245 
L 134.77046 211.946264 
L 134.055798 211.149283 
L 133.277326 210.352302 
L 132.336141 209.555321 
L 132.320189 208.75834 
L 132.135142 207.961358 
L 132.077714 207.164377 
L 131.528956 206.367396 
L 130.380391 205.570415 
L 130.198535 204.773434 
L 129.933727 203.976453 
L 129.88268 203.179472 
L 129.844394 202.382491 
L 129.627443 201.585509 
L 129.030828 200.788528 
L 129.014875 199.991547 
L 128.861733 199.194566 
L 128.683068 198.397585 
L 128.498021 197.600604 
L 127.499408 196.803623 
L 126.749651 196.006642 
L 126.740079 195.20966 
L 126.443367 194.412679 
L 126.350844 193.615698 
L 124.548235 192.818717 
L 124.51314 192.021736 
L 124.130285 191.224755 
L 123.958001 190.427774 
L 123.316719 189.630792 
L 123.176339 188.833811 
L 122.633961 188.03683 
L 121.644919 187.239849 
L 121.041923 186.442868 
L 120.863257 185.645887 
L 119.902929 184.848906 
L 119.00003 184.051925 
L 118.830936 183.254943 
L 118.757555 182.457962 
L 118.703318 181.660981 
L 117.784466 180.864 
L 117.305897 180.067019 
L 117.136803 179.270038 
L 116.677377 178.473057 
L 116.27857 177.676075 
L 116.27538 176.879094 
L 116.214761 176.082113 
L 116.080762 175.285132 
L 115.535194 174.488151 
L 114.648246 173.69117 
L 114.444057 172.894189 
L 114.290915 172.097208 
L 113.981441 171.300226 
L 113.254017 170.503245 
L 113.120017 169.706264 
L 113.06578 168.909283 
L 112.43726 168.112302 
L 112.274546 167.315321 
L 111.872549 166.51834 
L 111.649217 165.721358 
L 111.196172 164.924377 
L 109.6488 164.127396 
L 109.339326 163.330415 
L 108.892662 162.533434 
L 108.806519 161.736453 
L 108.52895 160.939472 
L 108.506616 160.142491 
L 108.445998 159.345509 
L 108.264142 158.548528 
L 107.664336 157.751547 
L 107.498432 156.954566 
L 107.13791 156.157585 
L 106.250963 155.360604 
L 106.139297 154.563623 
L 106.027631 153.766642 
L 105.517158 152.96966 
L 105.46292 152.172679 
L 105.217255 151.375698 
L 105.207684 150.578717 
L 104.907781 149.781736 
L 104.288832 148.984755 
L 104.122928 148.187774 
L 103.845358 147.390792 
L 103.172172 146.593811 
L 102.661699 145.79683 
L 102.553223 144.999849 
L 102.486224 144.202868 
L 102.371367 143.405887 
L 101.48442 142.608906 
L 101.404659 141.811925 
L 100.169952 141.014943 
L 100.150809 140.217962 
L 99.790287 139.420981 
L 99.563765 138.624 
L 99.554193 137.827019 
L 99.286195 137.030038 
L 98.979911 136.233057 
L 98.83315 135.436075 
L 98.584294 134.639094 
L 98.252487 133.842113 
L 98.217392 133.045132 
L 97.844108 132.248151 
L 97.556967 131.45117 
L 97.059256 130.654189 
L 96.73702 129.857208 
L 96.682782 129.060226 
L 96.175499 128.263245 
L 95.052458 127.466264 
L 94.822745 126.669283 
L 94.273987 125.872302 
L 94.238892 125.075321 
L 94.101702 124.27834 
L 94.082559 123.481358 
L 93.230707 122.684377 
L 93.10947 121.887396 
L 93.061613 121.090415 
L 92.796805 120.293434 
L 92.362903 119.496453 
L 91.78543 118.699472 
L 91.692907 117.902491 
L 91.546146 117.105509 
L 90.991006 116.308528 
L 90.860197 115.511547 
L 90.573056 114.714566 
L 90.218916 113.917585 
L 89.695681 113.120604 
L 89.386206 112.323623 
L 89.27135 111.526642 
L 88.961875 110.72966 
L 88.802353 109.932679 
L 88.697067 109.135698 
L 88.674734 108.338717 
L 88.563068 107.541736 
L 88.476926 106.744755 
L 88.183404 105.947774 
L 87.905834 105.150792 
L 87.749502 104.353811 
L 87.692073 103.55683 
L 87.609122 102.759849 
L 87.500646 101.962868 
L 87.082696 101.165887 
L 86.974221 100.368906 
L 85.905417 99.571925 
L 85.251374 98.774943 
L 84.766424 97.977962 
L 84.517568 97.180981 
L 84.492045 96.384 
L 83.885858 95.587019 
L 83.544479 94.790038 
L 83.525336 93.993057 
L 83.388147 93.196075 
L 82.868102 92.399094 
L 82.686246 91.602113 
L 82.351248 90.805132 
L 82.137487 90.008151 
L 81.512158 89.21117 
L 81.25054 88.414189 
L 80.921923 87.617208 
L 80.918733 86.820226 
L 80.886828 86.023245 
L 80.296594 85.226264 
L 80.207261 84.429283 
L 80.165785 83.632302 
L 79.999881 82.835321 
L 79.955215 82.03834 
L 79.597883 81.241358 
L 79.486217 80.444377 
L 78.982125 79.647396 
L 78.717317 78.850415 
L 78.688603 78.053434 
L 78.127083 77.256453 
L 78.031369 76.459472 
L 78.024988 75.662491 
L 77.836751 74.865509 
L 77.543229 74.068528 
L 77.329468 73.271547 
L 77.281612 72.474566 
L 77.118898 71.677585 
L 77.004042 70.880604 
L 76.716901 70.083623 
L 76.681806 69.286642 
L 76.637139 68.48966 
L 76.461664 66.895698 
L 76.359569 66.098717 
L 76.308522 65.301736 
L 76.101142 64.504755 
L 75.992667 63.707774 
L 75.603431 62.910792 
L 75.568336 62.113811 
L 75.434337 61.31683 
L 75.376909 60.519849 
L 74.847293 59.722868 
L 74.515485 58.925887 
L 74.4772 58.128906 
L 74.429343 57.331925 
L 74.320867 56.534943 
L 74.005012 55.737962 
L 73.950774 54.940981 
L 73.832727 54.144 
z
" clip-path="url(#p87ba921508)" style="fill: #ff0000"/>
   </g>
   <g id="matplotlib.axis_1">
    <g id="xtick_1">
     <g id="line2d_1">
      <defs>
       <path id="m4eda56ac66" d="M 0 0 
L 0 3.5 
" style="stroke: #000000; stroke-width: 0.8"/>
      </defs>
      <g>
       <use xlink:href="#m4eda56ac66" x="117.864227" y="307.584" style="stroke: #000000; stroke-width: 0.8"/>
      </g>
     </g>
     <g id="text_1">
      <!-- 200 -->
      <g transform="translate(108.320477 322.182437)scale(0.1 -0.1)">
       <defs>
        <path id="DejaVuSans-32" d="M 1228 531 
L 3431 531 
L 3431 0 
L 469 0 
L 469 531 
Q 828 903 1448 1529 
Q 2069 2156 2228 2338 
Q 2531 2678 2651 2914 
Q 2772 3150 2772 3378 
Q 2772 3750 2511 3984 
Q 2250 4219 1831 4219 
Q 1534 4219 1204 4116 
Q 875 4013 500 3803 
L 500 4441 
Q 881 4594 1212 4672 
Q 1544 4750 1819 4750 
Q 2544 4750 2975 4387 
Q 3406 4025 3406 3419 
Q 3406 3131 3298 2873 
Q 3191 2616 2906 2266 
Q 2828 2175 2409 1742 
Q 1991 1309 1228 531 
z
" transform="scale(0.015625)"/>
        <path id="DejaVuSans-30" d="M 2034 4250 
Q 1547 4250 1301 3770 
Q 1056 3291 1056 2328 
Q 1056 1369 1301 889 
Q 1547 409 2034 409 
Q 2525 409 2770 889 
Q 3016 1369 3016 2328 
Q 3016 3291 2770 3770 
Q 2525 4250 2034 4250 
z
M 2034 4750 
Q 2819 4750 3233 4129 
Q 3647 3509 3647 2328 
Q 3647 1150 3233 529 
Q 2819 -91 2034 -91 
Q 1250 -91 836 529 
Q 422 1150 422 2328 
Q 422 3509 836 4129 
Q 1250 4750 2034 4750 
z
" transform="scale(0.015625)"/>
       </defs>
       <use xlink:href="#DejaVuSans-32"/>
       <use xlink:href="#DejaVuSans-30" x="63.623047"/>
       <use xlink:href="#DejaVuSans-30" x="127.246094"/>
      </g>
     </g>
    </g>
    <g id="xtick_2">
     <g id="line2d_2">
      <g>
       <use xlink:href="#m4eda56ac66" x="181.673372" y="307.584" style="stroke: #000000; stroke-width: 0.8"/>
      </g>
     </g>
     <g id="text_2">
      <!-- 400 -->
      <g transform="translate(172.129622 322.182437)scale(0.1 -0.1)">
       <defs>
        <path id="DejaVuSans-34" d="M 2419 4116 
L 825 1625 
L 2419 1625 
L 2419 4116 
z
M 2253 4666 
L 3047 4666 
L 3047 1625 
L 3713 1625 
L 3713 1100 
L 3047 1100 
L 3047 0 
L 2419 0 
L 2419 1100 
L 313 1100 
L 313 1709 
L 2253 4666 
z
" transform="scale(0.015625)"/>
       </defs>
       <use xlink:href="#DejaVuSans-34"/>
       <use xlink:href="#DejaVuSans-30" x="63.623047"/>
       <use xlink:href="#DejaVuSans-30" x="127.246094"/>
      </g>
     </g>
    </g>
    <g id="xtick_3">
     <g id="line2d_3">
      <g>
       <use xlink:href="#m4eda56ac66" x="245.482516" y="307.584" style="stroke: #000000; stroke-width: 0.8"/>
      </g>
     </g>
     <g id="text_3">
      <!-- 600 -->
      <g transform="translate(235.938766 322.182437)scale(0.1 -0.1)">
       <defs>
        <path id="DejaVuSans-36" d="M 2113 2584 
Q 1688 2584 1439 2293 
Q 1191 2003 1191 1497 
Q 1191 994 1439 701 
Q 1688 409 2113 409 
Q 2538 409 2786 701 
Q 3034 994 3034 1497 
Q 3034 2003 2786 2293 
Q 2538 2584 2113 2584 
z
M 3366 4563 
L 3366 3988 
Q 3128 4100 2886 4159 
Q 2644 4219 2406 4219 
Q 1781 4219 1451 3797 
Q 1122 3375 1075 2522 
Q 1259 2794 1537 2939 
Q 1816 3084 2150 3084 
Q 2853 3084 3261 2657 
Q 3669 2231 3669 1497 
Q 3669 778 3244 343 
Q 2819 -91 2113 -91 
Q 1303 -91 875 529 
Q 447 1150 447 2328 
Q 447 3434 972 4092 
Q 1497 4750 2381 4750 
Q 2619 4750 2861 4703 
Q 3103 4656 3366 4563 
z
" transform="scale(0.015625)"/>
       </defs>
       <use xlink:href="#DejaVuSans-36"/>
       <use xlink:href="#DejaVuSans-30" x="63.623047"/>
       <use xlink:href="#DejaVuSans-30" x="127.246094"/>
      </g>
     </g>
    </g>
    <g id="xtick_4">
     <g id="line2d_4">
      <g>
       <use xlink:href="#m4eda56ac66" x="309.29166" y="307.584" style="stroke: #000000; stroke-width: 0.8"/>
      </g>
     </g>
     <g id="text_4">
      <!-- 800 -->
      <g transform="translate(299.74791 322.182437)scale(0.1 -0.1)">
       <defs>
        <path id="DejaVuSans-38" d="M 2034 2216 
Q 1584 2216 1326 1975 
Q 1069 1734 1069 1313 
Q 1069 891 1326 650 
Q 1584 409 2034 409 
Q 2484 409 2743 651 
Q 3003 894 3003 1313 
Q 3003 1734 2745 1975 
Q 2488 2216 2034 2216 
z
M 1403 2484 
Q 997 2584 770 2862 
Q 544 3141 544 3541 
Q 544 4100 942 4425 
Q 1341 4750 2034 4750 
Q 2731 4750 3128 4425 
Q 3525 4100 3525 3541 
Q 3525 3141 3298 2862 
Q 3072 2584 2669 2484 
Q 3125 2378 3379 2068 
Q 3634 1759 3634 1313 
Q 3634 634 3220 271 
Q 2806 -91 2034 -91 
Q 1263 -91 848 271 
Q 434 634 434 1313 
Q 434 1759 690 2068 
Q 947 2378 1403 2484 
z
M 1172 3481 
Q 1172 3119 1398 2916 
Q 1625 2713 2034 2713 
Q 2441 2713 2670 2916 
Q 2900 3119 2900 3481 
Q 2900 3844 2670 4047 
Q 2441 4250 2034 4250 
Q 1625 4250 1398 4047 
Q 1172 3844 1172 3481 
z
" transform="scale(0.015625)"/>
       </defs>
       <use xlink:href="#DejaVuSans-38"/>
       <use xlink:href="#DejaVuSans-30" x="63.623047"/>
       <use xlink:href="#DejaVuSans-30" x="127.246094"/>
      </g>
     </g>
    </g>
    <g id="xtick_5">
     <g id="line2d_5">
      <g>
       <use xlink:href="#m4eda56ac66" x="373.100805" y="307.584" style="stroke: #000000; stroke-width: 0.8"/>
      </g>
     </g>
     <g id="text_5">
      <!-- 1000 -->
      <g transform="translate(360.375805 322.182437)scale(0.1 -0.1)">
       <defs>
        <path id="DejaVuSans-31" d="M 794 531 
L 1825 531 
L 1825 4091 
L 703 3866 
L 703 4441 
L 1819 4666 
L 2450 4666 
L 2450 531 
L 3481 531 
L 3481 0 
L 794 0 
L 794 531 
z
" transform="scale(0.015625)"/>
       </defs>
       <use xlink:href="#DejaVuSans-31"/>
       <use xlink:href="#DejaVuSans-30" x="63.623047"/>
       <use xlink:href="#DejaVuSans-30" x="127.246094"/>
       <use xlink:href="#DejaVuSans-30" x="190.869141"/>
      </g>
     </g>
    </g>
    <g id="text_6">
     <!-- Score -->
     <g transform="translate(222.157656 335.860562)scale(0.1 -0.1)">
      <defs>
       <path id="DejaVuSans-53" d="M 3425 4513 
L 3425 3897 
Q 3066 4069 2747 4153 
Q 2428 4238 2131 4238 
Q 1616 4238 1336 4038 
Q 1056 3838 1056 3469 
Q 1056 3159 1242 3001 
Q 1428 2844 1947 2747 
L 2328 2669 
Q 3034 2534 3370 2195 
Q 3706 1856 3706 1288 
Q 3706 609 3251 259 
Q 2797 -91 1919 -91 
Q 1588 -91 1214 -16 
Q 841 59 441 206 
L 441 856 
Q 825 641 1194 531 
Q 1563 422 1919 422 
Q 2459 422 2753 634 
Q 3047 847 3047 1241 
Q 3047 1584 2836 1778 
Q 2625 1972 2144 2069 
L 1759 2144 
Q 1053 2284 737 2584 
Q 422 2884 422 3419 
Q 422 4038 858 4394 
Q 1294 4750 2059 4750 
Q 2388 4750 2728 4690 
Q 3069 4631 3425 4513 
z
" transform="scale(0.015625)"/>
       <path id="DejaVuSans-63" d="M 3122 3366 
L 3122 2828 
Q 2878 2963 2633 3030 
Q 2388 3097 2138 3097 
Q 1578 3097 1268 2742 
Q 959 2388 959 1747 
Q 959 1106 1268 751 
Q 1578 397 2138 397 
Q 2388 397 2633 464 
Q 2878 531 3122 666 
L 3122 134 
Q 2881 22 2623 -34 
Q 2366 -91 2075 -91 
Q 1284 -91 818 406 
Q 353 903 353 1747 
Q 353 2603 823 3093 
Q 1294 3584 2113 3584 
Q 2378 3584 2631 3529 
Q 2884 3475 3122 3366 
z
" transform="scale(0.015625)"/>
       <path id="DejaVuSans-6f" d="M 1959 3097 
Q 1497 3097 1228 2736 
Q 959 2375 959 1747 
Q 959 1119 1226 758 
Q 1494 397 1959 397 
Q 2419 397 2687 759 
Q 2956 1122 2956 1747 
Q 2956 2369 2687 2733 
Q 2419 3097 1959 3097 
z
M 1959 3584 
Q 2709 3584 3137 3096 
Q 3566 2609 3566 1747 
Q 3566 888 3137 398 
Q 2709 -91 1959 -91 
Q 1206 -91 779 398 
Q 353 888 353 1747 
Q 353 2609 779 3096 
Q 1206 3584 1959 3584 
z
" transform="scale(0.015625)"/>
       <path id="DejaVuSans-72" d="M 2631 2963 
Q 2534 3019 2420 3045 
Q 2306 3072 2169 3072 
Q 1681 3072 1420 2755 
Q 1159 2438 1159 1844 
L 1159 0 
L 581 0 
L 581 3500 
L 1159 3500 
L 1159 2956 
Q 1341 3275 1631 3429 
Q 1922 3584 2338 3584 
Q 2397 3584 2469 3576 
Q 2541 3569 2628 3553 
L 2631 2963 
z
" transform="scale(0.015625)"/>
       <path id="DejaVuSans-65" d="M 3597 1894 
L 3597 1613 
L 953 1613 
Q 991 1019 1311 708 
Q 1631 397 2203 397 
Q 2534 397 2845 478 
Q 3156 559 3463 722 
L 3463 178 
Q 3153 47 2828 -22 
Q 2503 -91 2169 -91 
Q 1331 -91 842 396 
Q 353 884 353 1716 
Q 353 2575 817 3079 
Q 1281 3584 2069 3584 
Q 2775 3584 3186 3129 
Q 3597 2675 3597 1894 
z
M 3022 2063 
Q 3016 2534 2758 2815 
Q 2500 3097 2075 3097 
Q 1594 3097 1305 2825 
Q 1016 2553 972 2059 
L 3022 2063 
z
" transform="scale(0.015625)"/>
      </defs>
      <use xlink:href="#DejaVuSans-53"/>
      <use xlink:href="#DejaVuSans-63" x="63.476562"/>
      <use xlink:href="#DejaVuSans-6f" x="118.457031"/>
      <use xlink:href="#DejaVuSans-72" x="179.638672"/>
      <use xlink:href="#DejaVuSans-65" x="218.501953"/>
     </g>
    </g>
   </g>
   <g id="matplotlib.axis_2">
    <g id="ytick_1">
     <g id="line2d_6">
      <defs>
       <path id="mff41ee3523" d="M 0 0 
L -3.5 0 
" style="stroke: #000000; stroke-width: 0.8"/>
      </defs>
      <g>
       <use xlink:href="#mff41ee3523" x="57.6" y="307.584" style="stroke: #000000; stroke-width: 0.8"/>
      </g>
     </g>
     <g id="text_7">
      <!-- 0 -->
      <g transform="translate(44.2375 311.383219)scale(0.1 -0.1)">
       <use xlink:href="#DejaVuSans-30"/>
      </g>
     </g>
    </g>
    <g id="ytick_2">
     <g id="line2d_7">
      <g>
       <use xlink:href="#mff41ee3523" x="57.6" y="267.734943" style="stroke: #000000; stroke-width: 0.8"/>
      </g>
     </g>
     <g id="text_8">
      <!-- 50 -->
      <g transform="translate(37.875 271.534162)scale(0.1 -0.1)">
       <defs>
        <path id="DejaVuSans-35" d="M 691 4666 
L 3169 4666 
L 3169 4134 
L 1269 4134 
L 1269 2991 
Q 1406 3038 1543 3061 
Q 1681 3084 1819 3084 
Q 2600 3084 3056 2656 
Q 3513 2228 3513 1497 
Q 3513 744 3044 326 
Q 2575 -91 1722 -91 
Q 1428 -91 1123 -41 
Q 819 9 494 109 
L 494 744 
Q 775 591 1075 516 
Q 1375 441 1709 441 
Q 2250 441 2565 725 
Q 2881 1009 2881 1497 
Q 2881 1984 2565 2268 
Q 2250 2553 1709 2553 
Q 1456 2553 1204 2497 
Q 953 2441 691 2322 
L 691 4666 
z
" transform="scale(0.015625)"/>
       </defs>
       <use xlink:href="#DejaVuSans-35"/>
       <use xlink:href="#DejaVuSans-30" x="63.623047"/>
      </g>
     </g>
    </g>
    <g id="ytick_3">
     <g id="line2d_8">
      <g>
       <use xlink:href="#mff41ee3523" x="57.6" y="227.885887" style="stroke: #000000; stroke-width: 0.8"/>
      </g>
     </g>
     <g id="text_9">
      <!-- 100 -->
      <g transform="translate(31.5125 231.685106)scale(0.1 -0.1)">
       <use xlink:href="#DejaVuSans-31"/>
       <use xlink:href="#DejaVuSans-30" x="63.623047"/>
       <use xlink:href="#DejaVuSans-30" x="127.246094"/>
      </g>
     </g>
    </g>
    <g id="ytick_4">
     <g id="line2d_9">
      <g>
       <use xlink:href="#mff41ee3523" x="57.6" y="188.03683" style="stroke: #000000; stroke-width: 0.8"/>
      </g>
     </g>
     <g id="text_10">
      <!-- 150 -->
      <g transform="translate(31.5125 191.836049)scale(0.1 -0.1)">
       <use xlink:href="#DejaVuSans-31"/>
       <use xlink:href="#DejaVuSans-35" x="63.623047"/>
       <use xlink:href="#DejaVuSans-30" x="127.246094"/>
      </g>
     </g>
    </g>
    <g id="ytick_5">
     <g id="line2d_10">
      <g>
       <use xlink:href="#mff41ee3523" x="57.6" y="148.187774" style="stroke: #000000; stroke-width: 0.8"/>
      </g>
     </g>
     <g id="text_11">
      <!-- 200 -->
      <g transform="translate(31.5125 151.986992)scale(0.1 -0.1)">
       <use xlink:href="#DejaVuSans-32"/>
       <use xlink:href="#DejaVuSans-30" x="63.623047"/>
       <use xlink:href="#DejaVuSans-30" x="127.246094"/>
      </g>
     </g>
    </g>
    <g id="ytick_6">
     <g id="line2d_11">
      <g>
       <use xlink:href="#mff41ee3523" x="57.6" y="108.338717" style="stroke: #000000; stroke-width: 0.8"/>
      </g>
     </g>
     <g id="text_12">
      <!-- 250 -->
      <g transform="translate(31.5125 112.137936)scale(0.1 -0.1)">
       <use xlink:href="#DejaVuSans-32"/>
       <use xlink:href="#DejaVuSans-35" x="63.623047"/>
       <use xlink:href="#DejaVuSans-30" x="127.246094"/>
      </g>
     </g>
    </g>
    <g id="ytick_7">
     <g id="line2d_12">
      <g>
       <use xlink:href="#mff41ee3523" x="57.6" y="68.48966" style="stroke: #000000; stroke-width: 0.8"/>
      </g>
     </g>
     <g id="text_13">
      <!-- 300 -->
      <g transform="translate(31.5125 72.288879)scale(0.1 -0.1)">
       <defs>
        <path id="DejaVuSans-33" d="M 2597 2516 
Q 3050 2419 3304 2112 
Q 3559 1806 3559 1356 
Q 3559 666 3084 287 
Q 2609 -91 1734 -91 
Q 1441 -91 1130 -33 
Q 819 25 488 141 
L 488 750 
Q 750 597 1062 519 
Q 1375 441 1716 441 
Q 2309 441 2620 675 
Q 2931 909 2931 1356 
Q 2931 1769 2642 2001 
Q 2353 2234 1838 2234 
L 1294 2234 
L 1294 2753 
L 1863 2753 
Q 2328 2753 2575 2939 
Q 2822 3125 2822 3475 
Q 2822 3834 2567 4026 
Q 2313 4219 1838 4219 
Q 1578 4219 1281 4162 
Q 984 4106 628 3988 
L 628 4550 
Q 988 4650 1302 4700 
Q 1616 4750 1894 4750 
Q 2613 4750 3031 4423 
Q 3450 4097 3450 3541 
Q 3450 3153 3228 2886 
Q 3006 2619 2597 2516 
z
" transform="scale(0.015625)"/>
       </defs>
       <use xlink:href="#DejaVuSans-33"/>
       <use xlink:href="#DejaVuSans-30" x="63.623047"/>
       <use xlink:href="#DejaVuSans-30" x="127.246094"/>
      </g>
     </g>
    </g>
    <g id="text_14">
     <!-- Number of crosslinks -->
     <g transform="translate(25.432812 227.019406)rotate(-90)scale(0.1 -0.1)">
      <defs>
       <path id="DejaVuSans-4e" d="M 628 4666 
L 1478 4666 
L 3547 763 
L 3547 4666 
L 4159 4666 
L 4159 0 
L 3309 0 
L 1241 3903 
L 1241 0 
L 628 0 
L 628 4666 
z
" transform="scale(0.015625)"/>
       <path id="DejaVuSans-75" d="M 544 1381 
L 544 3500 
L 1119 3500 
L 1119 1403 
Q 1119 906 1312 657 
Q 1506 409 1894 409 
Q 2359 409 2629 706 
Q 2900 1003 2900 1516 
L 2900 3500 
L 3475 3500 
L 3475 0 
L 2900 0 
L 2900 538 
Q 2691 219 2414 64 
Q 2138 -91 1772 -91 
Q 1169 -91 856 284 
Q 544 659 544 1381 
z
M 1991 3584 
L 1991 3584 
z
" transform="scale(0.015625)"/>
       <path id="DejaVuSans-6d" d="M 3328 2828 
Q 3544 3216 3844 3400 
Q 4144 3584 4550 3584 
Q 5097 3584 5394 3201 
Q 5691 2819 5691 2113 
L 5691 0 
L 5113 0 
L 5113 2094 
Q 5113 2597 4934 2840 
Q 4756 3084 4391 3084 
Q 3944 3084 3684 2787 
Q 3425 2491 3425 1978 
L 3425 0 
L 2847 0 
L 2847 2094 
Q 2847 2600 2669 2842 
Q 2491 3084 2119 3084 
Q 1678 3084 1418 2786 
Q 1159 2488 1159 1978 
L 1159 0 
L 581 0 
L 581 3500 
L 1159 3500 
L 1159 2956 
Q 1356 3278 1631 3431 
Q 1906 3584 2284 3584 
Q 2666 3584 2933 3390 
Q 3200 3197 3328 2828 
z
" transform="scale(0.015625)"/>
       <path id="DejaVuSans-62" d="M 3116 1747 
Q 3116 2381 2855 2742 
Q 2594 3103 2138 3103 
Q 1681 3103 1420 2742 
Q 1159 2381 1159 1747 
Q 1159 1113 1420 752 
Q 1681 391 2138 391 
Q 2594 391 2855 752 
Q 3116 1113 3116 1747 
z
M 1159 2969 
Q 1341 3281 1617 3432 
Q 1894 3584 2278 3584 
Q 2916 3584 3314 3078 
Q 3713 2572 3713 1747 
Q 3713 922 3314 415 
Q 2916 -91 2278 -91 
Q 1894 -91 1617 61 
Q 1341 213 1159 525 
L 1159 0 
L 581 0 
L 581 4863 
L 1159 4863 
L 1159 2969 
z
" transform="scale(0.015625)"/>
       <path id="DejaVuSans-20" transform="scale(0.015625)"/>
       <path id="DejaVuSans-66" d="M 2375 4863 
L 2375 4384 
L 1825 4384 
Q 1516 4384 1395 4259 
Q 1275 4134 1275 3809 
L 1275 3500 
L 2222 3500 
L 2222 3053 
L 1275 3053 
L 1275 0 
L 697 0 
L 697 3053 
L 147 3053 
L 147 3500 
L 697 3500 
L 697 3744 
Q 697 4328 969 4595 
Q 1241 4863 1831 4863 
L 2375 4863 
z
" transform="scale(0.015625)"/>
       <path id="DejaVuSans-73" d="M 2834 3397 
L 2834 2853 
Q 2591 2978 2328 3040 
Q 2066 3103 1784 3103 
Q 1356 3103 1142 2972 
Q 928 2841 928 2578 
Q 928 2378 1081 2264 
Q 1234 2150 1697 2047 
L 1894 2003 
Q 2506 1872 2764 1633 
Q 3022 1394 3022 966 
Q 3022 478 2636 193 
Q 2250 -91 1575 -91 
Q 1294 -91 989 -36 
Q 684 19 347 128 
L 347 722 
Q 666 556 975 473 
Q 1284 391 1588 391 
Q 1994 391 2212 530 
Q 2431 669 2431 922 
Q 2431 1156 2273 1281 
Q 2116 1406 1581 1522 
L 1381 1569 
Q 847 1681 609 1914 
Q 372 2147 372 2553 
Q 372 3047 722 3315 
Q 1072 3584 1716 3584 
Q 2034 3584 2315 3537 
Q 2597 3491 2834 3397 
z
" transform="scale(0.015625)"/>
       <path id="DejaVuSans-6c" d="M 603 4863 
L 1178 4863 
L 1178 0 
L 603 0 
L 603 4863 
z
" transform="scale(0.015625)"/>
       <path id="DejaVuSans-69" d="M 603 3500 
L 1178 3500 
L 1178 0 
L 603 0 
L 603 3500 
z
M 603 4863 
L 1178 4863 
L 1178 4134 
L 603 4134 
L 603 4863 
z
" transform="scale(0.015625)"/>
       <path id="DejaVuSans-6e" d="M 3513 2113 
L 3513 0 
L 2938 0 
L 2938 2094 
Q 2938 2591 2744 2837 
Q 2550 3084 2163 3084 
Q 1697 3084 1428 2787 
Q 1159 2491 1159 1978 
L 1159 0 
L 581 0 
L 581 3500 
L 1159 3500 
L 1159 2956 
Q 1366 3272 1645 3428 
Q 1925 3584 2291 3584 
Q 2894 3584 3203 3211 
Q 3513 2838 3513 2113 
z
" transform="scale(0.015625)"/>
       <path id="DejaVuSans-6b" d="M 581 4863 
L 1159 4863 
L 1159 1991 
L 2875 3500 
L 3609 3500 
L 1753 1863 
L 3688 0 
L 2938 0 
L 1159 1709 
L 1159 0 
L 581 0 
L 581 4863 
z
" transform="scale(0.015625)"/>
      </defs>
      <use xlink:href="#DejaVuSans-4e"/>
      <use xlink:href="#DejaVuSans-75" x="74.804688"/>
      <use xlink:href="#DejaVuSans-6d" x="138.183594"/>
      <use xlink:href="#DejaVuSans-62" x="235.595703"/>
      <use xlink:href="#DejaVuSans-65" x="299.072266"/>
      <use xlink:href="#DejaVuSans-72" x="360.595703"/>
      <use xlink:href="#DejaVuSans-20" x="401.708984"/>
      <use xlink:href="#DejaVuSans-6f" x="433.496094"/>
      <use xlink:href="#DejaVuSans-66" x="494.677734"/>
      <use xlink:href="#DejaVuSans-20" x="529.882812"/>
      <use xlink:href="#DejaVuSans-63" x="561.669922"/>
      <use xlink:href="#DejaVuSans-72" x="616.650391"/>
      <use xlink:href="#DejaVuSans-6f" x="655.513672"/>
      <use xlink:href="#DejaVuSans-73" x="716.695312"/>
      <use xlink:href="#DejaVuSans-73" x="768.794922"/>
      <use xlink:href="#DejaVuSans-6c" x="820.894531"/>
      <use xlink:href="#DejaVuSans-69" x="848.677734"/>
      <use xlink:href="#DejaVuSans-6e" x="876.460938"/>
      <use xlink:href="#DejaVuSans-6b" x="939.839844"/>
      <use xlink:href="#DejaVuSans-73" x="997.75"/>
     </g>
    </g>
   </g>
   <g id="patch_3">
    <path d="M 57.6 307.584 
L 57.6 41.472 
" style="fill: none; stroke: #000000; stroke-width: 0.8; stroke-linejoin: miter; stroke-linecap: square"/>
   </g>
   <g id="patch_4">
    <path d="M 414.72 307.584 
L 414.72 41.472 
" style="fill: none; stroke: #000000; stroke-width: 0.8; stroke-linejoin: miter; stroke-linecap: square"/>
   </g>
   <g id="patch_5">
    <path d="M 57.6 307.584 
L 414.72 307.584 
" style="fill: none; stroke: #000000; stroke-width: 0.8; stroke-linejoin: miter; stroke-linecap: square"/>
   </g>
   <g id="patch_6">
    <path d="M 57.6 41.472 
L 414.72 41.472 
" style="fill: none; stroke: #000000; stroke-width: 0.8; stroke-linejoin: miter; stroke-linecap: square"/>
   </g>
   <g id="legend_1">
    <g id="patch_7">
     <path d="M 293.087188 93.506375 
L 407.72 93.506375 
Q 409.72 93.506375 409.72 91.506375 
L 409.72 48.472 
Q 409.72 46.472 407.72 46.472 
L 293.087188 46.472 
Q 291.087188 46.472 291.087188 48.472 
L 291.087188 91.506375 
Q 291.087188 93.506375 293.087188 93.506375 
z
" style="fill: #ffffff; opacity: 0.8; stroke: #cccccc; stroke-linejoin: miter"/>
    </g>
    <g id="patch_8">
     <path d="M 295.087188 58.070438 
L 315.087188 58.070438 
L 315.087188 51.070438 
L 295.087188 51.070438 
z
" style="fill: #008000"/>
    </g>
    <g id="text_15">
     <!-- true -->
     <g transform="translate(323.087188 58.070438)scale(0.1 -0.1)">
      <defs>
       <path id="DejaVuSans-74" d="M 1172 4494 
L 1172 3500 
L 2356 3500 
L 2356 3053 
L 1172 3053 
L 1172 1153 
Q 1172 725 1289 603 
Q 1406 481 1766 481 
L 2356 481 
L 2356 0 
L 1766 0 
Q 1100 0 847 248 
Q 594 497 594 1153 
L 594 3053 
L 172 3053 
L 172 3500 
L 594 3500 
L 594 4494 
L 1172 4494 
z
" transform="scale(0.015625)"/>
      </defs>
      <use xlink:href="#DejaVuSans-74"/>
      <use xlink:href="#DejaVuSans-72" x="39.208984"/>
      <use xlink:href="#DejaVuSans-75" x="80.322266"/>
      <use xlink:href="#DejaVuSans-65" x="143.701172"/>
     </g>
    </g>
    <g id="patch_9">
     <path d="M 295.087188 72.748563 
L 315.087188 72.748563 
L 315.087188 65.748563 
L 295.087188 65.748563 
z
" style="fill: #7cfc00"/>
    </g>
    <g id="text_16">
     <!-- true homeotypic -->
     <g transform="translate(323.087188 72.748563)scale(0.1 -0.1)">
      <defs>
       <path id="DejaVuSans-68" d="M 3513 2113 
L 3513 0 
L 2938 0 
L 2938 2094 
Q 2938 2591 2744 2837 
Q 2550 3084 2163 3084 
Q 1697 3084 1428 2787 
Q 1159 2491 1159 1978 
L 1159 0 
L 581 0 
L 581 4863 
L 1159 4863 
L 1159 2956 
Q 1366 3272 1645 3428 
Q 1925 3584 2291 3584 
Q 2894 3584 3203 3211 
Q 3513 2838 3513 2113 
z
" transform="scale(0.015625)"/>
       <path id="DejaVuSans-79" d="M 2059 -325 
Q 1816 -950 1584 -1140 
Q 1353 -1331 966 -1331 
L 506 -1331 
L 506 -850 
L 844 -850 
Q 1081 -850 1212 -737 
Q 1344 -625 1503 -206 
L 1606 56 
L 191 3500 
L 800 3500 
L 1894 763 
L 2988 3500 
L 3597 3500 
L 2059 -325 
z
" transform="scale(0.015625)"/>
       <path id="DejaVuSans-70" d="M 1159 525 
L 1159 -1331 
L 581 -1331 
L 581 3500 
L 1159 3500 
L 1159 2969 
Q 1341 3281 1617 3432 
Q 1894 3584 2278 3584 
Q 2916 3584 3314 3078 
Q 3713 2572 3713 1747 
Q 3713 922 3314 415 
Q 2916 -91 2278 -91 
Q 1894 -91 1617 61 
Q 1341 213 1159 525 
z
M 3116 1747 
Q 3116 2381 2855 2742 
Q 2594 3103 2138 3103 
Q 1681 3103 1420 2742 
Q 1159 2381 1159 1747 
Q 1159 1113 1420 752 
Q 1681 391 2138 391 
Q 2594 391 2855 752 
Q 3116 1113 3116 1747 
z
" transform="scale(0.015625)"/>
      </defs>
      <use xlink:href="#DejaVuSans-74"/>
      <use xlink:href="#DejaVuSans-72" x="39.208984"/>
      <use xlink:href="#DejaVuSans-75" x="80.322266"/>
      <use xlink:href="#DejaVuSans-65" x="143.701172"/>
      <use xlink:href="#DejaVuSans-20" x="205.224609"/>
      <use xlink:href="#DejaVuSans-68" x="237.011719"/>
      <use xlink:href="#DejaVuSans-6f" x="300.390625"/>
      <use xlink:href="#DejaVuSans-6d" x="361.572266"/>
      <use xlink:href="#DejaVuSans-65" x="458.984375"/>
      <use xlink:href="#DejaVuSans-6f" x="520.507812"/>
      <use xlink:href="#DejaVuSans-74" x="581.689453"/>
      <use xlink:href="#DejaVuSans-79" x="620.898438"/>
      <use xlink:href="#DejaVuSans-70" x="680.078125"/>
      <use xlink:href="#DejaVuSans-69" x="743.554688"/>
      <use xlink:href="#DejaVuSans-63" x="771.337891"/>
     </g>
    </g>
    <g id="patch_10">
     <path d="M 295.087188 87.426688 
L 315.087188 87.426688 
L 315.087188 80.426688 
L 295.087188 80.426688 
z
" style="fill: #ff0000"/>
    </g>
    <g id="text_17">
     <!-- false -->
     <g transform="translate(323.087188 87.426688)scale(0.1 -0.1)">
      <defs>
       <path id="DejaVuSans-61" d="M 2194 1759 
Q 1497 1759 1228 1600 
Q 959 1441 959 1056 
Q 959 750 1161 570 
Q 1363 391 1709 391 
Q 2188 391 2477 730 
Q 2766 1069 2766 1631 
L 2766 1759 
L 2194 1759 
z
M 3341 1997 
L 3341 0 
L 2766 0 
L 2766 531 
Q 2569 213 2275 61 
Q 1981 -91 1556 -91 
Q 1019 -91 701 211 
Q 384 513 384 1019 
Q 384 1609 779 1909 
Q 1175 2209 1959 2209 
L 2766 2209 
L 2766 2266 
Q 2766 2663 2505 2880 
Q 2244 3097 1772 3097 
Q 1472 3097 1187 3025 
Q 903 2953 641 2809 
L 641 3341 
Q 956 3463 1253 3523 
Q 1550 3584 1831 3584 
Q 2591 3584 2966 3190 
Q 3341 2797 3341 1997 
z
" transform="scale(0.015625)"/>
      </defs>
      <use xlink:href="#DejaVuSans-66"/>
      <use xlink:href="#DejaVuSans-61" x="35.205078"/>
      <use xlink:href="#DejaVuSans-6c" x="96.484375"/>
      <use xlink:href="#DejaVuSans-73" x="124.267578"/>
      <use xlink:href="#DejaVuSans-65" x="176.367188"/>
     </g>
    </g>
   </g>
  </g>
 </g>
 <defs>
  <clipPath id="p87ba921508">
   <rect x="57.6" y="41.472" width="357.12" height="266.112"/>
  </clipPath>
 </defs>
</svg>
