<?xml version="1.0" encoding="utf-8" standalone="no"?>
<!DOCTYPE svg PUBLIC "-//W3C//DTD SVG 1.1//EN"
  "http://www.w3.org/Graphics/SVG/1.1/DTD/svg11.dtd">
<svg xmlns:xlink="http://www.w3.org/1999/xlink" width="460.8pt" height="345.6pt" viewBox="0 0 460.8 345.6" xmlns="http://www.w3.org/2000/svg" version="1.1">
 <metadata>
  <rdf:RDF xmlns:dc="http://purl.org/dc/elements/1.1/" xmlns:cc="http://creativecommons.org/ns#" xmlns:rdf="http://www.w3.org/1999/02/22-rdf-syntax-ns#">
   <cc:Work>
    <dc:type rdf:resource="http://purl.org/dc/dcmitype/StillImage"/>
    <dc:date>2022-07-21T13:25:14.686130</dc:date>
    <dc:format>image/svg+xml</dc:format>
    <dc:creator>
     <cc:Agent>
      <dc:title>Matplotlib v3.5.1, https://matplotlib.org/</dc:title>
     </cc:Agent>
    </dc:creator>
   </cc:Work>
  </rdf:RDF>
 </metadata>
 <defs>
  <style type="text/css">*{stroke-linejoin: round; stroke-linecap: butt}</style>
 </defs>
 <g id="figure_1">
  <g id="patch_1">
   <path d="M 0 345.6 
L 460.8 345.6 
L 460.8 0 
L 0 0 
z
" style="fill: #ffffff"/>
  </g>
  <g id="axes_1">
   <g id="patch_2">
    <path d="M 57.6 307.584 
L 414.72 307.584 
L 414.72 41.472 
L 57.6 41.472 
z
" style="fill: #ffffff"/>
   </g>
   <g id="PolyCollection_1">
    <path d="M 73.832727 108.231805 
L 73.832727 307.584 
L 73.950774 307.584 
L 74.005012 307.584 
L 74.320867 307.584 
L 74.429343 307.584 
L 74.4772 307.584 
L 74.515485 307.584 
L 75.10891 307.584 
L 75.217386 307.584 
L 75.376909 307.584 
L 75.434337 307.584 
L 75.568336 307.584 
L 75.603431 307.584 
L 75.992667 307.584 
L 76.101142 307.584 
L 76.308522 307.584 
L 76.359569 307.584 
L 76.461664 307.584 
L 76.637139 307.584 
L 76.681806 307.584 
L 76.716901 307.584 
L 77.004042 307.584 
L 77.118898 307.584 
L 77.281612 307.584 
L 77.329468 307.584 
L 77.543229 307.584 
L 77.836751 307.584 
L 78.031369 307.584 
L 78.688603 307.584 
L 78.982125 307.584 
L 79.999881 307.584 
L 80.207261 307.584 
L 80.296594 307.584 
L 80.740067 307.584 
L 80.886828 307.584 
L 80.918733 307.584 
L 81.25054 307.584 
L 81.512158 307.584 
L 81.990726 307.584 
L 82.137487 307.584 
L 82.868102 307.584 
L 83.388147 307.584 
L 83.525336 307.584 
L 83.544479 307.584 
L 83.68805 307.584 
L 83.885858 307.584 
L 84.492045 307.584 
L 84.517568 307.584 
L 84.830233 307.584 
L 85.251374 307.584 
L 85.905417 307.584 
L 86.383986 307.584 
L 86.974221 307.584 
L 87.082696 307.584 
L 87.500646 307.584 
L 87.749502 307.584 
L 87.905834 307.584 
L 88.183404 307.584 
L 88.563068 307.584 
L 88.709829 307.584 
L 88.776829 307.584 
L 88.802353 307.584 
L 88.961875 307.584 
L 89.27135 307.584 
L 89.386206 307.584 
L 90.088107 307.584 
L 90.218916 307.584 
L 90.802769 307.584 
L 90.860197 307.584 
L 90.991006 307.584 
L 91.692907 307.584 
L 91.973667 307.584 
L 92.362903 307.584 
L 93.061613 307.584 
L 93.10947 307.584 
L 93.230707 307.584 
L 93.977274 307.584 
L 94.082559 307.584 
L 94.238892 307.584 
L 94.273987 307.584 
L 94.752555 307.584 
L 94.822745 307.584 
L 95.052458 307.584 
L 96.175499 307.584 
L 96.682782 307.584 
L 96.73702 307.584 
L 97.059256 307.584 
L 97.317683 307.584 
L 97.556967 307.584 
L 97.844108 307.584 
L 98.217392 307.584 
L 98.252487 307.584 
L 98.83315 307.584 
L 98.90015 307.584 
L 98.979911 307.584 
L 99.286195 307.584 
L 99.554193 307.584 
L 99.563765 307.584 
L 99.790287 307.584 
L 100.150809 307.584 
L 100.169952 307.584 
L 101.404659 307.584 
L 101.48442 307.584 
L 102.371367 307.584 
L 102.486224 307.584 
L 102.553223 307.584 
L 102.661699 307.584 
L 103.845358 307.584 
L 104.288832 307.584 
L 104.907781 307.584 
L 105.207684 307.584 
L 105.217255 307.584 
L 106.139297 307.584 
L 107.498432 307.584 
L 108.264142 307.584 
L 108.52895 307.584 
L 108.892662 307.584 
L 109.326564 307.584 
L 109.339326 307.584 
L 109.524372 307.584 
L 109.6488 307.584 
L 110.819698 307.584 
L 111.196172 307.584 
L 111.649217 307.584 
L 111.872549 307.584 
L 111.990596 307.584 
L 112.083119 307.584 
L 112.274546 307.584 
L 112.43726 307.584 
L 113.254017 307.584 
L 113.981441 307.584 
L 114.013345 307.584 
L 114.444057 307.584 
L 114.648246 307.584 
L 115.535194 307.584 
L 115.940382 307.584 
L 115.978667 307.584 
L 116.080762 307.584 
L 116.214761 307.584 
L 116.27538 307.584 
L 116.677377 307.584 
L 117.139994 307.584 
L 117.305897 307.584 
L 117.931227 307.584 
L 118.703318 307.584 
L 118.757555 307.584 
L 118.830936 307.584 
L 119.00003 307.584 
L 119.618979 307.584 
L 119.902929 307.584 
L 120.068833 307.584 
L 120.863257 307.584 
L 121.041923 307.584 
L 121.086589 307.584 
L 121.644919 307.584 
L 122.155392 307.584 
L 122.633961 307.584 
L 123.176339 307.584 
L 123.316719 307.584 
L 123.642145 307.584 
L 123.661288 307.584 
L 123.830382 307.584 
L 123.958001 307.584 
L 124.257904 307.584 
L 124.51314 307.584 
L 124.548235 307.584 
L 124.844948 307.584 
L 126.274273 307.584 
L 126.350844 307.584 
L 126.443367 307.584 
L 127.499408 307.584 
L 128.498021 307.584 
L 128.683068 307.584 
L 128.861733 307.584 
L 129.509396 307.584 
L 129.627443 307.584 
L 129.844394 307.584 
L 129.88268 307.584 
L 129.933727 307.584 
L 130.380391 307.584 
L 131.528956 307.584 
L 131.860763 307.584 
L 132.077714 307.584 
L 132.320189 307.584 
L 132.444617 307.584 
L 133.175232 307.584 
L 133.277326 307.584 
L 133.567658 307.584 
L 134.033464 307.584 
L 134.055798 307.584 
L 134.77046 307.584 
L 135.60636 307.584 
L 136.16469 307.584 
L 136.703877 307.584 
L 137.045256 307.584 
L 138.053441 307.584 
L 138.988245 307.584 
L 140.433522 307.584 
L 140.803615 307.584 
L 141.208803 307.584 
L 141.345992 307.584 
L 141.460849 307.584 
L 142.258463 307.584 
L 143.193267 307.584 
L 143.477218 307.584 
L 143.649503 307.584 
L 143.91431 307.584 
L 144.842734 307.584 
L 145.487206 307.584 
L 145.79349 307.584 
L 145.876442 307.584 
L 145.908346 307.584 
L 146.013631 307.584 
L 146.339058 307.584 
L 146.364582 307.584 
L 146.412438 307.584 
L 146.463486 307.584 
L 146.84315 307.584 
L 146.932483 307.584 
L 147.028197 307.584 
L 147.107958 307.584 
L 147.379147 307.584 
L 147.758811 307.584 
L 147.848144 307.584 
L 148.154428 307.584 
L 148.37776 307.584 
L 148.463902 307.584 
L 148.626616 307.584 
L 148.846757 307.584 
L 148.929709 307.584 
L 150.256939 307.584 
L 150.649366 307.584 
L 150.719556 307.584 
L 150.923745 307.584 
L 151.006697 307.584 
L 151.3066 307.584 
L 153.023066 307.584 
L 153.185779 307.584 
L 153.198541 307.584 
L 153.89087 307.584 
L 155.798764 307.584 
L 156.203952 307.584 
L 156.794186 307.584 
L 157.148327 307.584 
L 157.856609 307.584 
L 158.708461 307.584 
L 159.043459 307.584 
L 159.515646 307.584 
L 159.630503 307.584 
L 160.361117 307.584 
L 160.594021 307.584 
L 161.318255 307.584 
L 162.039298 307.584 
L 162.109488 307.584 
L 162.230725 307.584 
L 163.707907 307.584 
L 165.867847 307.584 
L 166.461272 307.584 
L 167.083411 307.584 
L 168.164976 307.584 
L 168.480831 307.584 
L 168.672258 307.584 
L 168.761591 307.584 
L 169.211446 307.584 
L 169.473063 307.584 
L 170.921531 307.584 
L 171.084244 307.584 
L 171.604289 307.584 
L 172.484855 307.584 
L 172.80071 307.584 
L 173.087851 307.584 
L 175.681693 307.584 
L 177.26416 307.584 
L 177.793776 307.584 
L 178.138345 307.584 
L 178.272344 307.584 
L 180.177047 307.584 
L 181.191613 307.584 
L 181.915846 307.584 
L 182.442272 307.584 
L 183.169696 307.584 
L 183.731217 307.584 
L 184.209785 307.584 
L 184.774496 307.584 
L 185.63911 307.584 
L 185.747586 307.584 
L 186.159155 307.584 
L 193.302588 307.584 
L 193.998108 307.584 
L 196.668521 307.584 
L 197.297041 307.584 
L 197.912799 307.584 
L 198.260559 307.584 
L 198.917793 307.584 
L 199.042221 307.584 
L 199.613313 307.584 
L 201.511635 307.584 
L 203.531194 307.584 
L 204.166095 307.584 
L 206.054846 307.584 
L 210.419391 307.584 
L 211.985906 307.584 
L 221.822085 307.584 
L 222.670747 307.584 
L 223.146125 307.584 
L 228.27638 307.584 
L 229.890752 307.584 
L 232.972733 307.584 
L 236.354618 307.584 
L 240.103405 307.584 
L 244.168048 307.584 
L 245.737753 307.584 
L 249.601396 307.584 
L 250.574486 307.584 
L 252.150572 307.584 
L 255.3506 307.584 
L 255.516504 307.584 
L 258.384725 307.584 
L 263.505409 307.584 
L 263.626646 307.584 
L 281.148637 307.584 
L 283.81905 307.584 
L 315.155721 307.584 
L 331.813098 307.584 
L 352.311785 307.584 
L 353.552873 307.584 
L 398.487273 307.584 
L 398.487273 307.584 
L 398.487273 307.584 
L 353.552873 307.584 
L 352.311785 307.584 
L 331.813098 307.584 
L 315.155721 307.584 
L 283.81905 307.584 
L 281.148637 307.584 
L 263.626646 306.811317 
L 263.505409 306.038634 
L 258.384725 306.038634 
L 255.516504 306.038634 
L 255.3506 306.038634 
L 252.150572 305.265951 
L 250.574486 304.493268 
L 249.601396 304.493268 
L 245.737753 304.493268 
L 244.168048 304.493268 
L 240.103405 304.493268 
L 236.354618 303.720585 
L 232.972733 303.720585 
L 229.890752 303.720585 
L 228.27638 303.720585 
L 223.146125 303.720585 
L 222.670747 303.720585 
L 221.822085 302.947902 
L 211.985906 302.947902 
L 210.419391 302.17522 
L 206.054846 301.402537 
L 204.166095 301.402537 
L 203.531194 300.629854 
L 201.511635 299.857171 
L 199.613313 299.084488 
L 199.042221 298.311805 
L 198.917793 297.539122 
L 198.260559 296.766439 
L 197.912799 295.993756 
L 197.297041 295.221073 
L 196.668521 294.44839 
L 193.998108 293.675707 
L 193.302588 292.903024 
L 186.159155 292.130341 
L 185.747586 291.357659 
L 185.63911 291.357659 
L 184.774496 290.584976 
L 184.209785 289.812293 
L 183.731217 289.03961 
L 183.169696 288.266927 
L 182.442272 287.494244 
L 181.915846 286.721561 
L 181.191613 285.948878 
L 180.177047 285.948878 
L 178.272344 285.176195 
L 178.138345 284.403512 
L 177.793776 283.630829 
L 177.26416 282.858146 
L 175.681693 282.085463 
L 173.087851 281.31278 
L 172.80071 281.31278 
L 172.484855 280.540098 
L 171.604289 279.767415 
L 171.084244 279.767415 
L 170.921531 278.994732 
L 169.473063 278.222049 
L 169.211446 278.222049 
L 168.761591 277.449366 
L 168.672258 276.676683 
L 168.480831 275.904 
L 168.164976 275.131317 
L 167.083411 274.358634 
L 166.461272 273.585951 
L 165.867847 272.813268 
L 163.707907 272.040585 
L 162.230725 272.040585 
L 162.109488 271.267902 
L 162.039298 270.49522 
L 161.318255 269.722537 
L 160.594021 268.949854 
L 160.361117 268.177171 
L 159.630503 267.404488 
L 159.515646 266.631805 
L 159.043459 265.859122 
L 158.708461 265.086439 
L 157.856609 264.313756 
L 157.148327 264.313756 
L 156.794186 263.541073 
L 156.203952 262.76839 
L 155.798764 261.995707 
L 153.89087 261.223024 
L 153.198541 260.450341 
L 153.185779 259.677659 
L 153.023066 258.904976 
L 151.3066 258.132293 
L 151.006697 257.35961 
L 150.923745 256.586927 
L 150.719556 255.814244 
L 150.649366 255.041561 
L 150.256939 254.268878 
L 148.929709 254.268878 
L 148.846757 254.268878 
L 148.626616 253.496195 
L 148.463902 253.496195 
L 148.37776 252.723512 
L 148.154428 251.950829 
L 147.848144 251.178146 
L 147.758811 250.405463 
L 147.379147 249.63278 
L 147.107958 248.860098 
L 147.028197 248.087415 
L 146.932483 247.314732 
L 146.84315 246.542049 
L 146.463486 245.769366 
L 146.412438 244.996683 
L 146.364582 244.224 
L 146.339058 243.451317 
L 146.013631 242.678634 
L 145.908346 241.905951 
L 145.876442 241.133268 
L 145.79349 241.133268 
L 145.487206 240.360585 
L 144.842734 239.587902 
L 143.91431 238.81522 
L 143.649503 238.042537 
L 143.477218 237.269854 
L 143.193267 236.497171 
L 142.258463 235.724488 
L 141.460849 234.951805 
L 141.345992 234.951805 
L 141.208803 234.179122 
L 140.803615 233.406439 
L 140.433522 232.633756 
L 138.988245 231.861073 
L 138.053441 231.08839 
L 137.045256 230.315707 
L 136.703877 229.543024 
L 136.16469 228.770341 
L 135.60636 227.997659 
L 134.77046 227.224976 
L 134.055798 226.452293 
L 134.033464 225.67961 
L 133.567658 224.906927 
L 133.277326 224.134244 
L 133.175232 223.361561 
L 132.444617 222.588878 
L 132.320189 221.816195 
L 132.077714 221.043512 
L 131.860763 220.270829 
L 131.528956 219.498146 
L 130.380391 218.725463 
L 129.933727 217.95278 
L 129.88268 217.180098 
L 129.844394 216.407415 
L 129.627443 215.634732 
L 129.509396 214.862049 
L 128.861733 214.089366 
L 128.683068 213.316683 
L 128.498021 212.544 
L 127.499408 211.771317 
L 126.443367 210.998634 
L 126.350844 210.225951 
L 126.274273 209.453268 
L 124.844948 208.680585 
L 124.548235 207.907902 
L 124.51314 207.13522 
L 124.257904 206.362537 
L 123.958001 205.589854 
L 123.830382 204.817171 
L 123.661288 204.044488 
L 123.642145 203.271805 
L 123.316719 203.271805 
L 123.176339 202.499122 
L 122.633961 201.726439 
L 122.155392 200.953756 
L 121.644919 200.181073 
L 121.086589 199.40839 
L 121.041923 198.635707 
L 120.863257 197.863024 
L 120.068833 197.090341 
L 119.902929 196.317659 
L 119.618979 195.544976 
L 119.00003 194.772293 
L 118.830936 193.99961 
L 118.757555 193.226927 
L 118.703318 192.454244 
L 117.931227 191.681561 
L 117.305897 190.908878 
L 117.139994 190.136195 
L 116.677377 189.363512 
L 116.27538 188.590829 
L 116.214761 187.818146 
L 116.080762 187.045463 
L 115.978667 186.27278 
L 115.940382 185.500098 
L 115.535194 184.727415 
L 114.648246 183.954732 
L 114.444057 183.182049 
L 114.013345 182.409366 
L 113.981441 181.636683 
L 113.254017 180.864 
L 112.43726 180.091317 
L 112.274546 180.091317 
L 112.083119 179.318634 
L 111.990596 178.545951 
L 111.872549 177.773268 
L 111.649217 177.773268 
L 111.196172 177.000585 
L 110.819698 176.227902 
L 109.6488 175.45522 
L 109.524372 175.45522 
L 109.339326 174.682537 
L 109.326564 173.909854 
L 108.892662 173.137171 
L 108.52895 172.364488 
L 108.264142 171.591805 
L 107.498432 170.819122 
L 106.139297 170.046439 
L 105.217255 169.273756 
L 105.207684 169.273756 
L 104.907781 168.501073 
L 104.288832 167.72839 
L 103.845358 166.955707 
L 102.661699 166.955707 
L 102.553223 166.183024 
L 102.486224 165.410341 
L 102.371367 164.637659 
L 101.48442 163.864976 
L 101.404659 163.092293 
L 100.169952 162.31961 
L 100.150809 161.546927 
L 99.790287 161.546927 
L 99.563765 160.774244 
L 99.554193 160.001561 
L 99.286195 159.228878 
L 98.979911 158.456195 
L 98.90015 157.683512 
L 98.83315 156.910829 
L 98.252487 156.910829 
L 98.217392 156.138146 
L 97.844108 155.365463 
L 97.556967 154.59278 
L 97.317683 153.820098 
L 97.059256 153.047415 
L 96.73702 152.274732 
L 96.682782 151.502049 
L 96.175499 150.729366 
L 95.052458 149.956683 
L 94.822745 149.184 
L 94.752555 148.411317 
L 94.273987 147.638634 
L 94.238892 146.865951 
L 94.082559 146.093268 
L 93.977274 145.320585 
L 93.230707 144.547902 
L 93.10947 143.77522 
L 93.061613 143.002537 
L 92.362903 143.002537 
L 91.973667 142.229854 
L 91.692907 141.457171 
L 90.991006 140.684488 
L 90.860197 139.911805 
L 90.802769 139.139122 
L 90.218916 138.366439 
L 90.088107 137.593756 
L 89.386206 136.821073 
L 89.27135 136.04839 
L 88.961875 135.275707 
L 88.802353 134.503024 
L 88.776829 133.730341 
L 88.709829 132.957659 
L 88.563068 132.184976 
L 88.183404 131.412293 
L 87.905834 130.63961 
L 87.749502 129.866927 
L 87.500646 129.094244 
L 87.082696 129.094244 
L 86.974221 128.321561 
L 86.383986 127.548878 
L 85.905417 126.776195 
L 85.251374 126.776195 
L 84.830233 126.003512 
L 84.517568 125.230829 
L 84.492045 125.230829 
L 83.885858 124.458146 
L 83.68805 123.685463 
L 83.544479 122.91278 
L 83.525336 122.91278 
L 83.388147 122.91278 
L 82.868102 122.140098 
L 82.137487 121.367415 
L 81.990726 120.594732 
L 81.512158 120.594732 
L 81.25054 119.822049 
L 80.918733 119.822049 
L 80.886828 119.822049 
L 80.740067 119.049366 
L 80.296594 119.049366 
L 80.207261 118.276683 
L 79.999881 117.504 
L 78.982125 117.504 
L 78.688603 116.731317 
L 78.031369 115.958634 
L 77.836751 115.958634 
L 77.543229 115.185951 
L 77.329468 115.185951 
L 77.281612 115.185951 
L 77.118898 115.185951 
L 77.004042 114.413268 
L 76.716901 113.640585 
L 76.681806 113.640585 
L 76.637139 113.640585 
L 76.461664 112.867902 
L 76.359569 112.867902 
L 76.308522 112.867902 
L 76.101142 112.867902 
L 75.992667 112.867902 
L 75.603431 112.867902 
L 75.568336 112.867902 
L 75.434337 112.867902 
L 75.376909 112.867902 
L 75.217386 112.09522 
L 75.10891 111.322537 
L 74.515485 111.322537 
L 74.4772 110.549854 
L 74.429343 110.549854 
L 74.320867 109.777171 
L 74.005012 109.004488 
L 73.950774 108.231805 
L 73.832727 108.231805 
z
" clip-path="url(#pfb2a582e6f)" style="fill: #008000"/>
   </g>
   <g id="PolyCollection_2">
    <path d="M 73.832727 75.779122 
L 73.832727 108.231805 
L 73.950774 108.231805 
L 74.005012 109.004488 
L 74.320867 109.777171 
L 74.429343 110.549854 
L 74.4772 110.549854 
L 74.515485 111.322537 
L 75.10891 111.322537 
L 75.217386 112.09522 
L 75.376909 112.867902 
L 75.434337 112.867902 
L 75.568336 112.867902 
L 75.603431 112.867902 
L 75.992667 112.867902 
L 76.101142 112.867902 
L 76.308522 112.867902 
L 76.359569 112.867902 
L 76.461664 112.867902 
L 76.637139 113.640585 
L 76.681806 113.640585 
L 76.716901 113.640585 
L 77.004042 114.413268 
L 77.118898 115.185951 
L 77.281612 115.185951 
L 77.329468 115.185951 
L 77.543229 115.185951 
L 77.836751 115.958634 
L 78.031369 115.958634 
L 78.688603 116.731317 
L 78.982125 117.504 
L 79.999881 117.504 
L 80.207261 118.276683 
L 80.296594 119.049366 
L 80.740067 119.049366 
L 80.886828 119.822049 
L 80.918733 119.822049 
L 81.25054 119.822049 
L 81.512158 120.594732 
L 81.990726 120.594732 
L 82.137487 121.367415 
L 82.868102 122.140098 
L 83.388147 122.91278 
L 83.525336 122.91278 
L 83.544479 122.91278 
L 83.68805 123.685463 
L 83.885858 124.458146 
L 84.492045 125.230829 
L 84.517568 125.230829 
L 84.830233 126.003512 
L 85.251374 126.776195 
L 85.905417 126.776195 
L 86.383986 127.548878 
L 86.974221 128.321561 
L 87.082696 129.094244 
L 87.500646 129.094244 
L 87.749502 129.866927 
L 87.905834 130.63961 
L 88.183404 131.412293 
L 88.563068 132.184976 
L 88.709829 132.957659 
L 88.776829 133.730341 
L 88.802353 134.503024 
L 88.961875 135.275707 
L 89.27135 136.04839 
L 89.386206 136.821073 
L 90.088107 137.593756 
L 90.218916 138.366439 
L 90.802769 139.139122 
L 90.860197 139.911805 
L 90.991006 140.684488 
L 91.692907 141.457171 
L 91.973667 142.229854 
L 92.362903 143.002537 
L 93.061613 143.002537 
L 93.10947 143.77522 
L 93.230707 144.547902 
L 93.977274 145.320585 
L 94.082559 146.093268 
L 94.238892 146.865951 
L 94.273987 147.638634 
L 94.752555 148.411317 
L 94.822745 149.184 
L 95.052458 149.956683 
L 96.175499 150.729366 
L 96.682782 151.502049 
L 96.73702 152.274732 
L 97.059256 153.047415 
L 97.317683 153.820098 
L 97.556967 154.59278 
L 97.844108 155.365463 
L 98.217392 156.138146 
L 98.252487 156.910829 
L 98.83315 156.910829 
L 98.90015 157.683512 
L 98.979911 158.456195 
L 99.286195 159.228878 
L 99.554193 160.001561 
L 99.563765 160.774244 
L 99.790287 161.546927 
L 100.150809 161.546927 
L 100.169952 162.31961 
L 101.404659 163.092293 
L 101.48442 163.864976 
L 102.371367 164.637659 
L 102.486224 165.410341 
L 102.553223 166.183024 
L 102.661699 166.955707 
L 103.845358 166.955707 
L 104.288832 167.72839 
L 104.907781 168.501073 
L 105.207684 169.273756 
L 105.217255 169.273756 
L 106.139297 170.046439 
L 107.498432 170.819122 
L 108.264142 171.591805 
L 108.52895 172.364488 
L 108.892662 173.137171 
L 109.326564 173.909854 
L 109.339326 174.682537 
L 109.524372 175.45522 
L 109.6488 175.45522 
L 110.819698 176.227902 
L 111.196172 177.000585 
L 111.649217 177.773268 
L 111.872549 177.773268 
L 111.990596 178.545951 
L 112.083119 179.318634 
L 112.274546 180.091317 
L 112.43726 180.091317 
L 113.254017 180.864 
L 113.981441 181.636683 
L 114.013345 182.409366 
L 114.444057 183.182049 
L 114.648246 183.954732 
L 115.535194 184.727415 
L 115.940382 185.500098 
L 115.978667 186.27278 
L 116.080762 187.045463 
L 116.214761 187.818146 
L 116.27538 188.590829 
L 116.677377 189.363512 
L 117.139994 190.136195 
L 117.305897 190.908878 
L 117.931227 191.681561 
L 118.703318 192.454244 
L 118.757555 193.226927 
L 118.830936 193.99961 
L 119.00003 194.772293 
L 119.618979 195.544976 
L 119.902929 196.317659 
L 120.068833 197.090341 
L 120.863257 197.863024 
L 121.041923 198.635707 
L 121.086589 199.40839 
L 121.644919 200.181073 
L 122.155392 200.953756 
L 122.633961 201.726439 
L 123.176339 202.499122 
L 123.316719 203.271805 
L 123.642145 203.271805 
L 123.661288 204.044488 
L 123.830382 204.817171 
L 123.958001 205.589854 
L 124.257904 206.362537 
L 124.51314 207.13522 
L 124.548235 207.907902 
L 124.844948 208.680585 
L 126.274273 209.453268 
L 126.350844 210.225951 
L 126.443367 210.998634 
L 127.499408 211.771317 
L 128.498021 212.544 
L 128.683068 213.316683 
L 128.861733 214.089366 
L 129.509396 214.862049 
L 129.627443 215.634732 
L 129.844394 216.407415 
L 129.88268 217.180098 
L 129.933727 217.95278 
L 130.380391 218.725463 
L 131.528956 219.498146 
L 131.860763 220.270829 
L 132.077714 221.043512 
L 132.320189 221.816195 
L 132.444617 222.588878 
L 133.175232 223.361561 
L 133.277326 224.134244 
L 133.567658 224.906927 
L 134.033464 225.67961 
L 134.055798 226.452293 
L 134.77046 227.224976 
L 135.60636 227.997659 
L 136.16469 228.770341 
L 136.703877 229.543024 
L 137.045256 230.315707 
L 138.053441 231.08839 
L 138.988245 231.861073 
L 140.433522 232.633756 
L 140.803615 233.406439 
L 141.208803 234.179122 
L 141.345992 234.951805 
L 141.460849 234.951805 
L 142.258463 235.724488 
L 143.193267 236.497171 
L 143.477218 237.269854 
L 143.649503 238.042537 
L 143.91431 238.81522 
L 144.842734 239.587902 
L 145.487206 240.360585 
L 145.79349 241.133268 
L 145.876442 241.133268 
L 145.908346 241.905951 
L 146.013631 242.678634 
L 146.339058 243.451317 
L 146.364582 244.224 
L 146.412438 244.996683 
L 146.463486 245.769366 
L 146.84315 246.542049 
L 146.932483 247.314732 
L 147.028197 248.087415 
L 147.107958 248.860098 
L 147.379147 249.63278 
L 147.758811 250.405463 
L 147.848144 251.178146 
L 148.154428 251.950829 
L 148.37776 252.723512 
L 148.463902 253.496195 
L 148.626616 253.496195 
L 148.846757 254.268878 
L 148.929709 254.268878 
L 150.256939 254.268878 
L 150.649366 255.041561 
L 150.719556 255.814244 
L 150.923745 256.586927 
L 151.006697 257.35961 
L 151.3066 258.132293 
L 153.023066 258.904976 
L 153.185779 259.677659 
L 153.198541 260.450341 
L 153.89087 261.223024 
L 155.798764 261.995707 
L 156.203952 262.76839 
L 156.794186 263.541073 
L 157.148327 264.313756 
L 157.856609 264.313756 
L 158.708461 265.086439 
L 159.043459 265.859122 
L 159.515646 266.631805 
L 159.630503 267.404488 
L 160.361117 268.177171 
L 160.594021 268.949854 
L 161.318255 269.722537 
L 162.039298 270.49522 
L 162.109488 271.267902 
L 162.230725 272.040585 
L 163.707907 272.040585 
L 165.867847 272.813268 
L 166.461272 273.585951 
L 167.083411 274.358634 
L 168.164976 275.131317 
L 168.480831 275.904 
L 168.672258 276.676683 
L 168.761591 277.449366 
L 169.211446 278.222049 
L 169.473063 278.222049 
L 170.921531 278.994732 
L 171.084244 279.767415 
L 171.604289 279.767415 
L 172.484855 280.540098 
L 172.80071 281.31278 
L 173.087851 281.31278 
L 175.681693 282.085463 
L 177.26416 282.858146 
L 177.793776 283.630829 
L 178.138345 284.403512 
L 178.272344 285.176195 
L 180.177047 285.948878 
L 181.191613 285.948878 
L 181.915846 286.721561 
L 182.442272 287.494244 
L 183.169696 288.266927 
L 183.731217 289.03961 
L 184.209785 289.812293 
L 184.774496 290.584976 
L 185.63911 291.357659 
L 185.747586 291.357659 
L 186.159155 292.130341 
L 193.302588 292.903024 
L 193.998108 293.675707 
L 196.668521 294.44839 
L 197.297041 295.221073 
L 197.912799 295.993756 
L 198.260559 296.766439 
L 198.917793 297.539122 
L 199.042221 298.311805 
L 199.613313 299.084488 
L 201.511635 299.857171 
L 203.531194 300.629854 
L 204.166095 301.402537 
L 206.054846 301.402537 
L 210.419391 302.17522 
L 211.985906 302.947902 
L 221.822085 302.947902 
L 222.670747 303.720585 
L 223.146125 303.720585 
L 228.27638 303.720585 
L 229.890752 303.720585 
L 232.972733 303.720585 
L 236.354618 303.720585 
L 240.103405 304.493268 
L 244.168048 304.493268 
L 245.737753 304.493268 
L 249.601396 304.493268 
L 250.574486 304.493268 
L 252.150572 305.265951 
L 255.3506 306.038634 
L 255.516504 306.038634 
L 258.384725 306.038634 
L 263.505409 306.038634 
L 263.626646 306.811317 
L 281.148637 307.584 
L 283.81905 307.584 
L 315.155721 307.584 
L 331.813098 307.584 
L 352.311785 307.584 
L 353.552873 307.584 
L 398.487273 307.584 
L 398.487273 306.811317 
L 398.487273 306.811317 
L 353.552873 306.038634 
L 352.311785 305.265951 
L 331.813098 304.493268 
L 315.155721 303.720585 
L 283.81905 302.947902 
L 281.148637 302.17522 
L 263.626646 301.402537 
L 263.505409 300.629854 
L 258.384725 299.857171 
L 255.516504 299.084488 
L 255.3506 298.311805 
L 252.150572 297.539122 
L 250.574486 296.766439 
L 249.601396 295.993756 
L 245.737753 295.221073 
L 244.168048 294.44839 
L 240.103405 293.675707 
L 236.354618 292.903024 
L 232.972733 292.130341 
L 229.890752 291.357659 
L 228.27638 290.584976 
L 223.146125 289.812293 
L 222.670747 289.03961 
L 221.822085 288.266927 
L 211.985906 287.494244 
L 210.419391 286.721561 
L 206.054846 285.948878 
L 204.166095 285.176195 
L 203.531194 284.403512 
L 201.511635 283.630829 
L 199.613313 282.858146 
L 199.042221 282.085463 
L 198.917793 281.31278 
L 198.260559 280.540098 
L 197.912799 279.767415 
L 197.297041 278.994732 
L 196.668521 278.222049 
L 193.998108 277.449366 
L 193.302588 276.676683 
L 186.159155 275.904 
L 185.747586 275.131317 
L 185.63911 274.358634 
L 184.774496 273.585951 
L 184.209785 272.813268 
L 183.731217 272.040585 
L 183.169696 271.267902 
L 182.442272 270.49522 
L 181.915846 269.722537 
L 181.191613 268.949854 
L 180.177047 268.177171 
L 178.272344 267.404488 
L 178.138345 266.631805 
L 177.793776 265.859122 
L 177.26416 265.086439 
L 175.681693 264.313756 
L 173.087851 263.541073 
L 172.80071 262.76839 
L 172.484855 261.995707 
L 171.604289 261.223024 
L 171.084244 260.450341 
L 170.921531 259.677659 
L 169.473063 258.904976 
L 169.211446 258.132293 
L 168.761591 257.35961 
L 168.672258 256.586927 
L 168.480831 255.814244 
L 168.164976 255.041561 
L 167.083411 254.268878 
L 166.461272 253.496195 
L 165.867847 252.723512 
L 163.707907 251.950829 
L 162.230725 251.178146 
L 162.109488 250.405463 
L 162.039298 249.63278 
L 161.318255 248.860098 
L 160.594021 248.087415 
L 160.361117 247.314732 
L 159.630503 246.542049 
L 159.515646 245.769366 
L 159.043459 244.996683 
L 158.708461 244.224 
L 157.856609 243.451317 
L 157.148327 242.678634 
L 156.794186 241.905951 
L 156.203952 241.133268 
L 155.798764 240.360585 
L 153.89087 239.587902 
L 153.198541 238.81522 
L 153.185779 238.042537 
L 153.023066 237.269854 
L 151.3066 236.497171 
L 151.006697 235.724488 
L 150.923745 234.951805 
L 150.719556 234.179122 
L 150.649366 233.406439 
L 150.256939 232.633756 
L 148.929709 231.861073 
L 148.846757 231.08839 
L 148.626616 230.315707 
L 148.463902 229.543024 
L 148.37776 228.770341 
L 148.154428 227.997659 
L 147.848144 227.224976 
L 147.758811 226.452293 
L 147.379147 225.67961 
L 147.107958 224.906927 
L 147.028197 224.134244 
L 146.932483 223.361561 
L 146.84315 222.588878 
L 146.463486 221.816195 
L 146.412438 221.043512 
L 146.364582 220.270829 
L 146.339058 219.498146 
L 146.013631 218.725463 
L 145.908346 217.95278 
L 145.876442 217.180098 
L 145.79349 216.407415 
L 145.487206 215.634732 
L 144.842734 214.862049 
L 143.91431 214.089366 
L 143.649503 213.316683 
L 143.477218 212.544 
L 143.193267 211.771317 
L 142.258463 210.998634 
L 141.460849 210.225951 
L 141.345992 209.453268 
L 141.208803 208.680585 
L 140.803615 207.907902 
L 140.433522 207.13522 
L 138.988245 206.362537 
L 138.053441 205.589854 
L 137.045256 204.817171 
L 136.703877 204.044488 
L 136.16469 203.271805 
L 135.60636 202.499122 
L 134.77046 201.726439 
L 134.055798 200.953756 
L 134.033464 200.181073 
L 133.567658 199.40839 
L 133.277326 198.635707 
L 133.175232 197.863024 
L 132.444617 197.090341 
L 132.320189 196.317659 
L 132.077714 195.544976 
L 131.860763 194.772293 
L 131.528956 193.99961 
L 130.380391 193.226927 
L 129.933727 192.454244 
L 129.88268 191.681561 
L 129.844394 190.908878 
L 129.627443 190.136195 
L 129.509396 189.363512 
L 128.861733 188.590829 
L 128.683068 187.818146 
L 128.498021 187.045463 
L 127.499408 186.27278 
L 126.443367 185.500098 
L 126.350844 184.727415 
L 126.274273 183.954732 
L 124.844948 183.182049 
L 124.548235 182.409366 
L 124.51314 181.636683 
L 124.257904 180.864 
L 123.958001 180.091317 
L 123.830382 179.318634 
L 123.661288 178.545951 
L 123.642145 177.773268 
L 123.316719 177.000585 
L 123.176339 176.227902 
L 122.633961 175.45522 
L 122.155392 174.682537 
L 121.644919 173.909854 
L 121.086589 173.137171 
L 121.041923 172.364488 
L 120.863257 171.591805 
L 120.068833 170.819122 
L 119.902929 170.046439 
L 119.618979 169.273756 
L 119.00003 168.501073 
L 118.830936 167.72839 
L 118.757555 166.955707 
L 118.703318 166.183024 
L 117.931227 165.410341 
L 117.305897 164.637659 
L 117.139994 163.864976 
L 116.677377 163.092293 
L 116.27538 162.31961 
L 116.214761 161.546927 
L 116.080762 160.774244 
L 115.978667 160.001561 
L 115.940382 159.228878 
L 115.535194 158.456195 
L 114.648246 157.683512 
L 114.444057 156.910829 
L 114.013345 156.138146 
L 113.981441 155.365463 
L 113.254017 154.59278 
L 112.43726 153.820098 
L 112.274546 153.047415 
L 112.083119 152.274732 
L 111.990596 151.502049 
L 111.872549 150.729366 
L 111.649217 150.729366 
L 111.196172 149.956683 
L 110.819698 149.184 
L 109.6488 148.411317 
L 109.524372 148.411317 
L 109.339326 147.638634 
L 109.326564 146.865951 
L 108.892662 146.093268 
L 108.52895 145.320585 
L 108.264142 144.547902 
L 107.498432 143.77522 
L 106.139297 143.002537 
L 105.217255 142.229854 
L 105.207684 141.457171 
L 104.907781 140.684488 
L 104.288832 139.911805 
L 103.845358 139.139122 
L 102.661699 139.139122 
L 102.553223 138.366439 
L 102.486224 137.593756 
L 102.371367 136.821073 
L 101.48442 136.04839 
L 101.404659 135.275707 
L 100.169952 134.503024 
L 100.150809 133.730341 
L 99.790287 132.957659 
L 99.563765 132.184976 
L 99.554193 131.412293 
L 99.286195 130.63961 
L 98.979911 129.866927 
L 98.90015 129.094244 
L 98.83315 128.321561 
L 98.252487 127.548878 
L 98.217392 126.776195 
L 97.844108 126.003512 
L 97.556967 125.230829 
L 97.317683 124.458146 
L 97.059256 123.685463 
L 96.73702 122.91278 
L 96.682782 122.140098 
L 96.175499 121.367415 
L 95.052458 120.594732 
L 94.822745 119.822049 
L 94.752555 119.049366 
L 94.273987 118.276683 
L 94.238892 117.504 
L 94.082559 116.731317 
L 93.977274 115.958634 
L 93.230707 115.185951 
L 93.10947 114.413268 
L 93.061613 113.640585 
L 92.362903 113.640585 
L 91.973667 112.867902 
L 91.692907 112.09522 
L 90.991006 111.322537 
L 90.860197 110.549854 
L 90.802769 109.777171 
L 90.218916 109.004488 
L 90.088107 108.231805 
L 89.386206 107.459122 
L 89.27135 106.686439 
L 88.961875 105.913756 
L 88.802353 105.141073 
L 88.776829 104.36839 
L 88.709829 103.595707 
L 88.563068 102.823024 
L 88.183404 102.050341 
L 87.905834 101.277659 
L 87.749502 100.504976 
L 87.500646 99.732293 
L 87.082696 99.732293 
L 86.974221 98.95961 
L 86.383986 98.186927 
L 85.905417 97.414244 
L 85.251374 97.414244 
L 84.830233 96.641561 
L 84.517568 95.868878 
L 84.492045 95.868878 
L 83.885858 95.096195 
L 83.68805 94.323512 
L 83.544479 93.550829 
L 83.525336 93.550829 
L 83.388147 92.778146 
L 82.868102 92.005463 
L 82.137487 91.23278 
L 81.990726 90.460098 
L 81.512158 90.460098 
L 81.25054 89.687415 
L 80.918733 89.687415 
L 80.886828 89.687415 
L 80.740067 88.914732 
L 80.296594 88.914732 
L 80.207261 88.142049 
L 79.999881 87.369366 
L 78.982125 86.596683 
L 78.688603 85.824 
L 78.031369 85.051317 
L 77.836751 85.051317 
L 77.543229 84.278634 
L 77.329468 84.278634 
L 77.281612 84.278634 
L 77.118898 83.505951 
L 77.004042 82.733268 
L 76.716901 81.960585 
L 76.681806 81.960585 
L 76.637139 81.960585 
L 76.461664 80.41522 
L 76.359569 80.41522 
L 76.308522 80.41522 
L 76.101142 80.41522 
L 75.992667 80.41522 
L 75.603431 80.41522 
L 75.568336 80.41522 
L 75.434337 80.41522 
L 75.376909 80.41522 
L 75.217386 79.642537 
L 75.10891 78.869854 
L 74.515485 78.869854 
L 74.4772 78.097171 
L 74.429343 78.097171 
L 74.320867 77.324488 
L 74.005012 76.551805 
L 73.950774 75.779122 
L 73.832727 75.779122 
z
" clip-path="url(#pfb2a582e6f)" style="fill: #7cfc00"/>
   </g>
   <g id="PolyCollection_3">
    <path d="M 73.832727 54.144 
L 73.832727 75.779122 
L 73.950774 75.779122 
L 74.005012 76.551805 
L 74.320867 77.324488 
L 74.429343 78.097171 
L 74.4772 78.097171 
L 74.515485 78.869854 
L 75.10891 78.869854 
L 75.217386 79.642537 
L 75.376909 80.41522 
L 75.434337 80.41522 
L 75.568336 80.41522 
L 75.603431 80.41522 
L 75.992667 80.41522 
L 76.101142 80.41522 
L 76.308522 80.41522 
L 76.359569 80.41522 
L 76.461664 80.41522 
L 76.637139 81.960585 
L 76.681806 81.960585 
L 76.716901 81.960585 
L 77.004042 82.733268 
L 77.118898 83.505951 
L 77.281612 84.278634 
L 77.329468 84.278634 
L 77.543229 84.278634 
L 77.836751 85.051317 
L 78.031369 85.051317 
L 78.688603 85.824 
L 78.982125 86.596683 
L 79.999881 87.369366 
L 80.207261 88.142049 
L 80.296594 88.914732 
L 80.740067 88.914732 
L 80.886828 89.687415 
L 80.918733 89.687415 
L 81.25054 89.687415 
L 81.512158 90.460098 
L 81.990726 90.460098 
L 82.137487 91.23278 
L 82.868102 92.005463 
L 83.388147 92.778146 
L 83.525336 93.550829 
L 83.544479 93.550829 
L 83.68805 94.323512 
L 83.885858 95.096195 
L 84.492045 95.868878 
L 84.517568 95.868878 
L 84.830233 96.641561 
L 85.251374 97.414244 
L 85.905417 97.414244 
L 86.383986 98.186927 
L 86.974221 98.95961 
L 87.082696 99.732293 
L 87.500646 99.732293 
L 87.749502 100.504976 
L 87.905834 101.277659 
L 88.183404 102.050341 
L 88.563068 102.823024 
L 88.709829 103.595707 
L 88.776829 104.36839 
L 88.802353 105.141073 
L 88.961875 105.913756 
L 89.27135 106.686439 
L 89.386206 107.459122 
L 90.088107 108.231805 
L 90.218916 109.004488 
L 90.802769 109.777171 
L 90.860197 110.549854 
L 90.991006 111.322537 
L 91.692907 112.09522 
L 91.973667 112.867902 
L 92.362903 113.640585 
L 93.061613 113.640585 
L 93.10947 114.413268 
L 93.230707 115.185951 
L 93.977274 115.958634 
L 94.082559 116.731317 
L 94.238892 117.504 
L 94.273987 118.276683 
L 94.752555 119.049366 
L 94.822745 119.822049 
L 95.052458 120.594732 
L 96.175499 121.367415 
L 96.682782 122.140098 
L 96.73702 122.91278 
L 97.059256 123.685463 
L 97.317683 124.458146 
L 97.556967 125.230829 
L 97.844108 126.003512 
L 98.217392 126.776195 
L 98.252487 127.548878 
L 98.83315 128.321561 
L 98.90015 129.094244 
L 98.979911 129.866927 
L 99.286195 130.63961 
L 99.554193 131.412293 
L 99.563765 132.184976 
L 99.790287 132.957659 
L 100.150809 133.730341 
L 100.169952 134.503024 
L 101.404659 135.275707 
L 101.48442 136.04839 
L 102.371367 136.821073 
L 102.486224 137.593756 
L 102.553223 138.366439 
L 102.661699 139.139122 
L 103.845358 139.139122 
L 104.288832 139.911805 
L 104.907781 140.684488 
L 105.207684 141.457171 
L 105.217255 142.229854 
L 106.139297 143.002537 
L 107.498432 143.77522 
L 108.264142 144.547902 
L 108.52895 145.320585 
L 108.892662 146.093268 
L 109.326564 146.865951 
L 109.339326 147.638634 
L 109.524372 148.411317 
L 109.6488 148.411317 
L 110.819698 149.184 
L 111.196172 149.956683 
L 111.649217 150.729366 
L 111.872549 150.729366 
L 111.990596 151.502049 
L 112.083119 152.274732 
L 112.274546 153.047415 
L 112.43726 153.820098 
L 113.254017 154.59278 
L 113.981441 155.365463 
L 114.013345 156.138146 
L 114.444057 156.910829 
L 114.648246 157.683512 
L 115.535194 158.456195 
L 115.940382 159.228878 
L 115.978667 160.001561 
L 116.080762 160.774244 
L 116.214761 161.546927 
L 116.27538 162.31961 
L 116.677377 163.092293 
L 117.139994 163.864976 
L 117.305897 164.637659 
L 117.931227 165.410341 
L 118.703318 166.183024 
L 118.757555 166.955707 
L 118.830936 167.72839 
L 119.00003 168.501073 
L 119.618979 169.273756 
L 119.902929 170.046439 
L 120.068833 170.819122 
L 120.863257 171.591805 
L 121.041923 172.364488 
L 121.086589 173.137171 
L 121.644919 173.909854 
L 122.155392 174.682537 
L 122.633961 175.45522 
L 123.176339 176.227902 
L 123.316719 177.000585 
L 123.642145 177.773268 
L 123.661288 178.545951 
L 123.830382 179.318634 
L 123.958001 180.091317 
L 124.257904 180.864 
L 124.51314 181.636683 
L 124.548235 182.409366 
L 124.844948 183.182049 
L 126.274273 183.954732 
L 126.350844 184.727415 
L 126.443367 185.500098 
L 127.499408 186.27278 
L 128.498021 187.045463 
L 128.683068 187.818146 
L 128.861733 188.590829 
L 129.509396 189.363512 
L 129.627443 190.136195 
L 129.844394 190.908878 
L 129.88268 191.681561 
L 129.933727 192.454244 
L 130.380391 193.226927 
L 131.528956 193.99961 
L 131.860763 194.772293 
L 132.077714 195.544976 
L 132.320189 196.317659 
L 132.444617 197.090341 
L 133.175232 197.863024 
L 133.277326 198.635707 
L 133.567658 199.40839 
L 134.033464 200.181073 
L 134.055798 200.953756 
L 134.77046 201.726439 
L 135.60636 202.499122 
L 136.16469 203.271805 
L 136.703877 204.044488 
L 137.045256 204.817171 
L 138.053441 205.589854 
L 138.988245 206.362537 
L 140.433522 207.13522 
L 140.803615 207.907902 
L 141.208803 208.680585 
L 141.345992 209.453268 
L 141.460849 210.225951 
L 142.258463 210.998634 
L 143.193267 211.771317 
L 143.477218 212.544 
L 143.649503 213.316683 
L 143.91431 214.089366 
L 144.842734 214.862049 
L 145.487206 215.634732 
L 145.79349 216.407415 
L 145.876442 217.180098 
L 145.908346 217.95278 
L 146.013631 218.725463 
L 146.339058 219.498146 
L 146.364582 220.270829 
L 146.412438 221.043512 
L 146.463486 221.816195 
L 146.84315 222.588878 
L 146.932483 223.361561 
L 147.028197 224.134244 
L 147.107958 224.906927 
L 147.379147 225.67961 
L 147.758811 226.452293 
L 147.848144 227.224976 
L 148.154428 227.997659 
L 148.37776 228.770341 
L 148.463902 229.543024 
L 148.626616 230.315707 
L 148.846757 231.08839 
L 148.929709 231.861073 
L 150.256939 232.633756 
L 150.649366 233.406439 
L 150.719556 234.179122 
L 150.923745 234.951805 
L 151.006697 235.724488 
L 151.3066 236.497171 
L 153.023066 237.269854 
L 153.185779 238.042537 
L 153.198541 238.81522 
L 153.89087 239.587902 
L 155.798764 240.360585 
L 156.203952 241.133268 
L 156.794186 241.905951 
L 157.148327 242.678634 
L 157.856609 243.451317 
L 158.708461 244.224 
L 159.043459 244.996683 
L 159.515646 245.769366 
L 159.630503 246.542049 
L 160.361117 247.314732 
L 160.594021 248.087415 
L 161.318255 248.860098 
L 162.039298 249.63278 
L 162.109488 250.405463 
L 162.230725 251.178146 
L 163.707907 251.950829 
L 165.867847 252.723512 
L 166.461272 253.496195 
L 167.083411 254.268878 
L 168.164976 255.041561 
L 168.480831 255.814244 
L 168.672258 256.586927 
L 168.761591 257.35961 
L 169.211446 258.132293 
L 169.473063 258.904976 
L 170.921531 259.677659 
L 171.084244 260.450341 
L 171.604289 261.223024 
L 172.484855 261.995707 
L 172.80071 262.76839 
L 173.087851 263.541073 
L 175.681693 264.313756 
L 177.26416 265.086439 
L 177.793776 265.859122 
L 178.138345 266.631805 
L 178.272344 267.404488 
L 180.177047 268.177171 
L 181.191613 268.949854 
L 181.915846 269.722537 
L 182.442272 270.49522 
L 183.169696 271.267902 
L 183.731217 272.040585 
L 184.209785 272.813268 
L 184.774496 273.585951 
L 185.63911 274.358634 
L 185.747586 275.131317 
L 186.159155 275.904 
L 193.302588 276.676683 
L 193.998108 277.449366 
L 196.668521 278.222049 
L 197.297041 278.994732 
L 197.912799 279.767415 
L 198.260559 280.540098 
L 198.917793 281.31278 
L 199.042221 282.085463 
L 199.613313 282.858146 
L 201.511635 283.630829 
L 203.531194 284.403512 
L 204.166095 285.176195 
L 206.054846 285.948878 
L 210.419391 286.721561 
L 211.985906 287.494244 
L 221.822085 288.266927 
L 222.670747 289.03961 
L 223.146125 289.812293 
L 228.27638 290.584976 
L 229.890752 291.357659 
L 232.972733 292.130341 
L 236.354618 292.903024 
L 240.103405 293.675707 
L 244.168048 294.44839 
L 245.737753 295.221073 
L 249.601396 295.993756 
L 250.574486 296.766439 
L 252.150572 297.539122 
L 255.3506 298.311805 
L 255.516504 299.084488 
L 258.384725 299.857171 
L 263.505409 300.629854 
L 263.626646 301.402537 
L 281.148637 302.17522 
L 283.81905 302.947902 
L 315.155721 303.720585 
L 331.813098 304.493268 
L 352.311785 305.265951 
L 353.552873 306.038634 
L 398.487273 306.811317 
L 398.487273 306.811317 
L 398.487273 306.811317 
L 353.552873 306.038634 
L 352.311785 305.265951 
L 331.813098 304.493268 
L 315.155721 303.720585 
L 283.81905 302.947902 
L 281.148637 302.17522 
L 263.626646 301.402537 
L 263.505409 300.629854 
L 258.384725 299.857171 
L 255.516504 299.084488 
L 255.3506 298.311805 
L 252.150572 297.539122 
L 250.574486 296.766439 
L 249.601396 295.993756 
L 245.737753 295.221073 
L 244.168048 294.44839 
L 240.103405 293.675707 
L 236.354618 292.903024 
L 232.972733 292.130341 
L 229.890752 291.357659 
L 228.27638 290.584976 
L 223.146125 289.812293 
L 222.670747 289.03961 
L 221.822085 288.266927 
L 211.985906 287.494244 
L 210.419391 286.721561 
L 206.054846 285.948878 
L 204.166095 285.176195 
L 203.531194 284.403512 
L 201.511635 283.630829 
L 199.613313 282.858146 
L 199.042221 282.085463 
L 198.917793 281.31278 
L 198.260559 280.540098 
L 197.912799 279.767415 
L 197.297041 278.994732 
L 196.668521 278.222049 
L 193.998108 277.449366 
L 193.302588 276.676683 
L 186.159155 275.904 
L 185.747586 275.131317 
L 185.63911 274.358634 
L 184.774496 273.585951 
L 184.209785 272.813268 
L 183.731217 272.040585 
L 183.169696 271.267902 
L 182.442272 270.49522 
L 181.915846 269.722537 
L 181.191613 268.949854 
L 180.177047 268.177171 
L 178.272344 267.404488 
L 178.138345 266.631805 
L 177.793776 265.859122 
L 177.26416 265.086439 
L 175.681693 264.313756 
L 173.087851 263.541073 
L 172.80071 262.76839 
L 172.484855 261.995707 
L 171.604289 261.223024 
L 171.084244 260.450341 
L 170.921531 259.677659 
L 169.473063 258.904976 
L 169.211446 258.132293 
L 168.761591 257.35961 
L 168.672258 256.586927 
L 168.480831 255.814244 
L 168.164976 255.041561 
L 167.083411 254.268878 
L 166.461272 253.496195 
L 165.867847 252.723512 
L 163.707907 251.950829 
L 162.230725 251.178146 
L 162.109488 250.405463 
L 162.039298 249.63278 
L 161.318255 248.860098 
L 160.594021 248.087415 
L 160.361117 247.314732 
L 159.630503 246.542049 
L 159.515646 245.769366 
L 159.043459 244.996683 
L 158.708461 244.224 
L 157.856609 243.451317 
L 157.148327 242.678634 
L 156.794186 241.905951 
L 156.203952 241.133268 
L 155.798764 240.360585 
L 153.89087 239.587902 
L 153.198541 238.81522 
L 153.185779 238.042537 
L 153.023066 237.269854 
L 151.3066 236.497171 
L 151.006697 235.724488 
L 150.923745 234.951805 
L 150.719556 234.179122 
L 150.649366 233.406439 
L 150.256939 232.633756 
L 148.929709 231.861073 
L 148.846757 231.08839 
L 148.626616 230.315707 
L 148.463902 229.543024 
L 148.37776 228.770341 
L 148.154428 227.997659 
L 147.848144 227.224976 
L 147.758811 226.452293 
L 147.379147 225.67961 
L 147.107958 224.906927 
L 147.028197 224.134244 
L 146.932483 223.361561 
L 146.84315 222.588878 
L 146.463486 221.816195 
L 146.412438 221.043512 
L 146.364582 220.270829 
L 146.339058 219.498146 
L 146.013631 218.725463 
L 145.908346 217.95278 
L 145.876442 217.180098 
L 145.79349 216.407415 
L 145.487206 215.634732 
L 144.842734 214.862049 
L 143.91431 214.089366 
L 143.649503 213.316683 
L 143.477218 212.544 
L 143.193267 211.771317 
L 142.258463 210.998634 
L 141.460849 210.225951 
L 141.345992 209.453268 
L 141.208803 208.680585 
L 140.803615 207.907902 
L 140.433522 207.13522 
L 138.988245 206.362537 
L 138.053441 205.589854 
L 137.045256 204.817171 
L 136.703877 204.044488 
L 136.16469 203.271805 
L 135.60636 202.499122 
L 134.77046 201.726439 
L 134.055798 200.953756 
L 134.033464 200.181073 
L 133.567658 199.40839 
L 133.277326 198.635707 
L 133.175232 197.863024 
L 132.444617 197.090341 
L 132.320189 196.317659 
L 132.077714 195.544976 
L 131.860763 194.772293 
L 131.528956 193.99961 
L 130.380391 193.226927 
L 129.933727 192.454244 
L 129.88268 191.681561 
L 129.844394 190.908878 
L 129.627443 190.136195 
L 129.509396 189.363512 
L 128.861733 188.590829 
L 128.683068 187.818146 
L 128.498021 187.045463 
L 127.499408 186.27278 
L 126.443367 185.500098 
L 126.350844 184.727415 
L 126.274273 183.954732 
L 124.844948 183.182049 
L 124.548235 182.409366 
L 124.51314 181.636683 
L 124.257904 180.864 
L 123.958001 180.091317 
L 123.830382 179.318634 
L 123.661288 178.545951 
L 123.642145 177.773268 
L 123.316719 177.000585 
L 123.176339 176.227902 
L 122.633961 175.45522 
L 122.155392 174.682537 
L 121.644919 173.909854 
L 121.086589 173.137171 
L 121.041923 172.364488 
L 120.863257 171.591805 
L 120.068833 170.819122 
L 119.902929 170.046439 
L 119.618979 169.273756 
L 119.00003 168.501073 
L 118.830936 167.72839 
L 118.757555 166.955707 
L 118.703318 166.183024 
L 117.931227 165.410341 
L 117.305897 164.637659 
L 117.139994 163.864976 
L 116.677377 163.092293 
L 116.27538 162.31961 
L 116.214761 161.546927 
L 116.080762 160.774244 
L 115.978667 160.001561 
L 115.940382 159.228878 
L 115.535194 158.456195 
L 114.648246 157.683512 
L 114.444057 156.910829 
L 114.013345 156.138146 
L 113.981441 155.365463 
L 113.254017 154.59278 
L 112.43726 153.820098 
L 112.274546 153.047415 
L 112.083119 152.274732 
L 111.990596 151.502049 
L 111.872549 150.729366 
L 111.649217 149.956683 
L 111.196172 149.184 
L 110.819698 148.411317 
L 109.6488 147.638634 
L 109.524372 146.865951 
L 109.339326 146.093268 
L 109.326564 145.320585 
L 108.892662 144.547902 
L 108.52895 143.77522 
L 108.264142 143.002537 
L 107.498432 142.229854 
L 106.139297 141.457171 
L 105.217255 140.684488 
L 105.207684 139.911805 
L 104.907781 139.139122 
L 104.288832 138.366439 
L 103.845358 137.593756 
L 102.661699 136.821073 
L 102.553223 136.04839 
L 102.486224 135.275707 
L 102.371367 134.503024 
L 101.48442 133.730341 
L 101.404659 132.957659 
L 100.169952 132.184976 
L 100.150809 131.412293 
L 99.790287 130.63961 
L 99.563765 129.866927 
L 99.554193 129.094244 
L 99.286195 128.321561 
L 98.979911 127.548878 
L 98.90015 126.776195 
L 98.83315 126.003512 
L 98.252487 125.230829 
L 98.217392 124.458146 
L 97.844108 123.685463 
L 97.556967 122.91278 
L 97.317683 122.140098 
L 97.059256 121.367415 
L 96.73702 120.594732 
L 96.682782 119.822049 
L 96.175499 119.049366 
L 95.052458 118.276683 
L 94.822745 117.504 
L 94.752555 116.731317 
L 94.273987 115.958634 
L 94.238892 115.185951 
L 94.082559 114.413268 
L 93.977274 113.640585 
L 93.230707 112.867902 
L 93.10947 112.09522 
L 93.061613 111.322537 
L 92.362903 110.549854 
L 91.973667 109.777171 
L 91.692907 109.004488 
L 90.991006 108.231805 
L 90.860197 107.459122 
L 90.802769 106.686439 
L 90.218916 105.913756 
L 90.088107 105.141073 
L 89.386206 104.36839 
L 89.27135 103.595707 
L 88.961875 102.823024 
L 88.802353 102.050341 
L 88.776829 101.277659 
L 88.709829 100.504976 
L 88.563068 99.732293 
L 88.183404 98.95961 
L 87.905834 98.186927 
L 87.749502 97.414244 
L 87.500646 96.641561 
L 87.082696 95.868878 
L 86.974221 95.096195 
L 86.383986 94.323512 
L 85.905417 93.550829 
L 85.251374 92.778146 
L 84.830233 92.005463 
L 84.517568 91.23278 
L 84.492045 90.460098 
L 83.885858 89.687415 
L 83.68805 88.914732 
L 83.544479 88.142049 
L 83.525336 87.369366 
L 83.388147 86.596683 
L 82.868102 85.824 
L 82.137487 85.051317 
L 81.990726 84.278634 
L 81.512158 83.505951 
L 81.25054 82.733268 
L 80.918733 81.960585 
L 80.886828 81.187902 
L 80.740067 80.41522 
L 80.296594 79.642537 
L 80.207261 78.869854 
L 79.999881 78.097171 
L 78.982125 77.324488 
L 78.688603 76.551805 
L 78.031369 75.779122 
L 77.836751 75.006439 
L 77.543229 74.233756 
L 77.329468 73.461073 
L 77.281612 72.68839 
L 77.118898 71.915707 
L 77.004042 71.143024 
L 76.716901 70.370341 
L 76.681806 69.597659 
L 76.637139 68.824976 
L 76.461664 67.27961 
L 76.359569 66.506927 
L 76.308522 65.734244 
L 76.101142 64.961561 
L 75.992667 64.188878 
L 75.603431 63.416195 
L 75.568336 62.643512 
L 75.434337 61.870829 
L 75.376909 61.098146 
L 75.217386 60.325463 
L 75.10891 59.55278 
L 74.515485 58.780098 
L 74.4772 58.007415 
L 74.429343 57.234732 
L 74.320867 56.462049 
L 74.005012 55.689366 
L 73.950774 54.916683 
L 73.832727 54.144 
z
" clip-path="url(#pfb2a582e6f)" style="fill: #ff0000"/>
   </g>
   <g id="matplotlib.axis_1">
    <g id="xtick_1">
     <g id="line2d_1">
      <defs>
       <path id="m6695d69a48" d="M 0 0 
L 0 3.5 
" style="stroke: #000000; stroke-width: 0.8"/>
      </defs>
      <g>
       <use xlink:href="#m6695d69a48" x="117.864227" y="307.584" style="stroke: #000000; stroke-width: 0.8"/>
      </g>
     </g>
     <g id="text_1">
      <!-- 200 -->
      <g transform="translate(108.320477 322.182437)scale(0.1 -0.1)">
       <defs>
        <path id="DejaVuSans-32" d="M 1228 531 
L 3431 531 
L 3431 0 
L 469 0 
L 469 531 
Q 828 903 1448 1529 
Q 2069 2156 2228 2338 
Q 2531 2678 2651 2914 
Q 2772 3150 2772 3378 
Q 2772 3750 2511 3984 
Q 2250 4219 1831 4219 
Q 1534 4219 1204 4116 
Q 875 4013 500 3803 
L 500 4441 
Q 881 4594 1212 4672 
Q 1544 4750 1819 4750 
Q 2544 4750 2975 4387 
Q 3406 4025 3406 3419 
Q 3406 3131 3298 2873 
Q 3191 2616 2906 2266 
Q 2828 2175 2409 1742 
Q 1991 1309 1228 531 
z
" transform="scale(0.015625)"/>
        <path id="DejaVuSans-30" d="M 2034 4250 
Q 1547 4250 1301 3770 
Q 1056 3291 1056 2328 
Q 1056 1369 1301 889 
Q 1547 409 2034 409 
Q 2525 409 2770 889 
Q 3016 1369 3016 2328 
Q 3016 3291 2770 3770 
Q 2525 4250 2034 4250 
z
M 2034 4750 
Q 2819 4750 3233 4129 
Q 3647 3509 3647 2328 
Q 3647 1150 3233 529 
Q 2819 -91 2034 -91 
Q 1250 -91 836 529 
Q 422 1150 422 2328 
Q 422 3509 836 4129 
Q 1250 4750 2034 4750 
z
" transform="scale(0.015625)"/>
       </defs>
       <use xlink:href="#DejaVuSans-32"/>
       <use xlink:href="#DejaVuSans-30" x="63.623047"/>
       <use xlink:href="#DejaVuSans-30" x="127.246094"/>
      </g>
     </g>
    </g>
    <g id="xtick_2">
     <g id="line2d_2">
      <g>
       <use xlink:href="#m6695d69a48" x="181.673372" y="307.584" style="stroke: #000000; stroke-width: 0.8"/>
      </g>
     </g>
     <g id="text_2">
      <!-- 400 -->
      <g transform="translate(172.129622 322.182437)scale(0.1 -0.1)">
       <defs>
        <path id="DejaVuSans-34" d="M 2419 4116 
L 825 1625 
L 2419 1625 
L 2419 4116 
z
M 2253 4666 
L 3047 4666 
L 3047 1625 
L 3713 1625 
L 3713 1100 
L 3047 1100 
L 3047 0 
L 2419 0 
L 2419 1100 
L 313 1100 
L 313 1709 
L 2253 4666 
z
" transform="scale(0.015625)"/>
       </defs>
       <use xlink:href="#DejaVuSans-34"/>
       <use xlink:href="#DejaVuSans-30" x="63.623047"/>
       <use xlink:href="#DejaVuSans-30" x="127.246094"/>
      </g>
     </g>
    </g>
    <g id="xtick_3">
     <g id="line2d_3">
      <g>
       <use xlink:href="#m6695d69a48" x="245.482516" y="307.584" style="stroke: #000000; stroke-width: 0.8"/>
      </g>
     </g>
     <g id="text_3">
      <!-- 600 -->
      <g transform="translate(235.938766 322.182437)scale(0.1 -0.1)">
       <defs>
        <path id="DejaVuSans-36" d="M 2113 2584 
Q 1688 2584 1439 2293 
Q 1191 2003 1191 1497 
Q 1191 994 1439 701 
Q 1688 409 2113 409 
Q 2538 409 2786 701 
Q 3034 994 3034 1497 
Q 3034 2003 2786 2293 
Q 2538 2584 2113 2584 
z
M 3366 4563 
L 3366 3988 
Q 3128 4100 2886 4159 
Q 2644 4219 2406 4219 
Q 1781 4219 1451 3797 
Q 1122 3375 1075 2522 
Q 1259 2794 1537 2939 
Q 1816 3084 2150 3084 
Q 2853 3084 3261 2657 
Q 3669 2231 3669 1497 
Q 3669 778 3244 343 
Q 2819 -91 2113 -91 
Q 1303 -91 875 529 
Q 447 1150 447 2328 
Q 447 3434 972 4092 
Q 1497 4750 2381 4750 
Q 2619 4750 2861 4703 
Q 3103 4656 3366 4563 
z
" transform="scale(0.015625)"/>
       </defs>
       <use xlink:href="#DejaVuSans-36"/>
       <use xlink:href="#DejaVuSans-30" x="63.623047"/>
       <use xlink:href="#DejaVuSans-30" x="127.246094"/>
      </g>
     </g>
    </g>
    <g id="xtick_4">
     <g id="line2d_4">
      <g>
       <use xlink:href="#m6695d69a48" x="309.29166" y="307.584" style="stroke: #000000; stroke-width: 0.8"/>
      </g>
     </g>
     <g id="text_4">
      <!-- 800 -->
      <g transform="translate(299.74791 322.182437)scale(0.1 -0.1)">
       <defs>
        <path id="DejaVuSans-38" d="M 2034 2216 
Q 1584 2216 1326 1975 
Q 1069 1734 1069 1313 
Q 1069 891 1326 650 
Q 1584 409 2034 409 
Q 2484 409 2743 651 
Q 3003 894 3003 1313 
Q 3003 1734 2745 1975 
Q 2488 2216 2034 2216 
z
M 1403 2484 
Q 997 2584 770 2862 
Q 544 3141 544 3541 
Q 544 4100 942 4425 
Q 1341 4750 2034 4750 
Q 2731 4750 3128 4425 
Q 3525 4100 3525 3541 
Q 3525 3141 3298 2862 
Q 3072 2584 2669 2484 
Q 3125 2378 3379 2068 
Q 3634 1759 3634 1313 
Q 3634 634 3220 271 
Q 2806 -91 2034 -91 
Q 1263 -91 848 271 
Q 434 634 434 1313 
Q 434 1759 690 2068 
Q 947 2378 1403 2484 
z
M 1172 3481 
Q 1172 3119 1398 2916 
Q 1625 2713 2034 2713 
Q 2441 2713 2670 2916 
Q 2900 3119 2900 3481 
Q 2900 3844 2670 4047 
Q 2441 4250 2034 4250 
Q 1625 4250 1398 4047 
Q 1172 3844 1172 3481 
z
" transform="scale(0.015625)"/>
       </defs>
       <use xlink:href="#DejaVuSans-38"/>
       <use xlink:href="#DejaVuSans-30" x="63.623047"/>
       <use xlink:href="#DejaVuSans-30" x="127.246094"/>
      </g>
     </g>
    </g>
    <g id="xtick_5">
     <g id="line2d_5">
      <g>
       <use xlink:href="#m6695d69a48" x="373.100805" y="307.584" style="stroke: #000000; stroke-width: 0.8"/>
      </g>
     </g>
     <g id="text_5">
      <!-- 1000 -->
      <g transform="translate(360.375805 322.182437)scale(0.1 -0.1)">
       <defs>
        <path id="DejaVuSans-31" d="M 794 531 
L 1825 531 
L 1825 4091 
L 703 3866 
L 703 4441 
L 1819 4666 
L 2450 4666 
L 2450 531 
L 3481 531 
L 3481 0 
L 794 0 
L 794 531 
z
" transform="scale(0.015625)"/>
       </defs>
       <use xlink:href="#DejaVuSans-31"/>
       <use xlink:href="#DejaVuSans-30" x="63.623047"/>
       <use xlink:href="#DejaVuSans-30" x="127.246094"/>
       <use xlink:href="#DejaVuSans-30" x="190.869141"/>
      </g>
     </g>
    </g>
    <g id="text_6">
     <!-- Score -->
     <g transform="translate(222.157656 335.860562)scale(0.1 -0.1)">
      <defs>
       <path id="DejaVuSans-53" d="M 3425 4513 
L 3425 3897 
Q 3066 4069 2747 4153 
Q 2428 4238 2131 4238 
Q 1616 4238 1336 4038 
Q 1056 3838 1056 3469 
Q 1056 3159 1242 3001 
Q 1428 2844 1947 2747 
L 2328 2669 
Q 3034 2534 3370 2195 
Q 3706 1856 3706 1288 
Q 3706 609 3251 259 
Q 2797 -91 1919 -91 
Q 1588 -91 1214 -16 
Q 841 59 441 206 
L 441 856 
Q 825 641 1194 531 
Q 1563 422 1919 422 
Q 2459 422 2753 634 
Q 3047 847 3047 1241 
Q 3047 1584 2836 1778 
Q 2625 1972 2144 2069 
L 1759 2144 
Q 1053 2284 737 2584 
Q 422 2884 422 3419 
Q 422 4038 858 4394 
Q 1294 4750 2059 4750 
Q 2388 4750 2728 4690 
Q 3069 4631 3425 4513 
z
" transform="scale(0.015625)"/>
       <path id="DejaVuSans-63" d="M 3122 3366 
L 3122 2828 
Q 2878 2963 2633 3030 
Q 2388 3097 2138 3097 
Q 1578 3097 1268 2742 
Q 959 2388 959 1747 
Q 959 1106 1268 751 
Q 1578 397 2138 397 
Q 2388 397 2633 464 
Q 2878 531 3122 666 
L 3122 134 
Q 2881 22 2623 -34 
Q 2366 -91 2075 -91 
Q 1284 -91 818 406 
Q 353 903 353 1747 
Q 353 2603 823 3093 
Q 1294 3584 2113 3584 
Q 2378 3584 2631 3529 
Q 2884 3475 3122 3366 
z
" transform="scale(0.015625)"/>
       <path id="DejaVuSans-6f" d="M 1959 3097 
Q 1497 3097 1228 2736 
Q 959 2375 959 1747 
Q 959 1119 1226 758 
Q 1494 397 1959 397 
Q 2419 397 2687 759 
Q 2956 1122 2956 1747 
Q 2956 2369 2687 2733 
Q 2419 3097 1959 3097 
z
M 1959 3584 
Q 2709 3584 3137 3096 
Q 3566 2609 3566 1747 
Q 3566 888 3137 398 
Q 2709 -91 1959 -91 
Q 1206 -91 779 398 
Q 353 888 353 1747 
Q 353 2609 779 3096 
Q 1206 3584 1959 3584 
z
" transform="scale(0.015625)"/>
       <path id="DejaVuSans-72" d="M 2631 2963 
Q 2534 3019 2420 3045 
Q 2306 3072 2169 3072 
Q 1681 3072 1420 2755 
Q 1159 2438 1159 1844 
L 1159 0 
L 581 0 
L 581 3500 
L 1159 3500 
L 1159 2956 
Q 1341 3275 1631 3429 
Q 1922 3584 2338 3584 
Q 2397 3584 2469 3576 
Q 2541 3569 2628 3553 
L 2631 2963 
z
" transform="scale(0.015625)"/>
       <path id="DejaVuSans-65" d="M 3597 1894 
L 3597 1613 
L 953 1613 
Q 991 1019 1311 708 
Q 1631 397 2203 397 
Q 2534 397 2845 478 
Q 3156 559 3463 722 
L 3463 178 
Q 3153 47 2828 -22 
Q 2503 -91 2169 -91 
Q 1331 -91 842 396 
Q 353 884 353 1716 
Q 353 2575 817 3079 
Q 1281 3584 2069 3584 
Q 2775 3584 3186 3129 
Q 3597 2675 3597 1894 
z
M 3022 2063 
Q 3016 2534 2758 2815 
Q 2500 3097 2075 3097 
Q 1594 3097 1305 2825 
Q 1016 2553 972 2059 
L 3022 2063 
z
" transform="scale(0.015625)"/>
      </defs>
      <use xlink:href="#DejaVuSans-53"/>
      <use xlink:href="#DejaVuSans-63" x="63.476562"/>
      <use xlink:href="#DejaVuSans-6f" x="118.457031"/>
      <use xlink:href="#DejaVuSans-72" x="179.638672"/>
      <use xlink:href="#DejaVuSans-65" x="218.501953"/>
     </g>
    </g>
   </g>
   <g id="matplotlib.axis_2">
    <g id="ytick_1">
     <g id="line2d_6">
      <defs>
       <path id="mb074c9193a" d="M 0 0 
L -3.5 0 
" style="stroke: #000000; stroke-width: 0.8"/>
      </defs>
      <g>
       <use xlink:href="#mb074c9193a" x="57.6" y="307.584" style="stroke: #000000; stroke-width: 0.8"/>
      </g>
     </g>
     <g id="text_7">
      <!-- 0 -->
      <g transform="translate(44.2375 311.383219)scale(0.1 -0.1)">
       <use xlink:href="#DejaVuSans-30"/>
      </g>
     </g>
    </g>
    <g id="ytick_2">
     <g id="line2d_7">
      <g>
       <use xlink:href="#mb074c9193a" x="57.6" y="268.949854" style="stroke: #000000; stroke-width: 0.8"/>
      </g>
     </g>
     <g id="text_8">
      <!-- 50 -->
      <g transform="translate(37.875 272.749072)scale(0.1 -0.1)">
       <defs>
        <path id="DejaVuSans-35" d="M 691 4666 
L 3169 4666 
L 3169 4134 
L 1269 4134 
L 1269 2991 
Q 1406 3038 1543 3061 
Q 1681 3084 1819 3084 
Q 2600 3084 3056 2656 
Q 3513 2228 3513 1497 
Q 3513 744 3044 326 
Q 2575 -91 1722 -91 
Q 1428 -91 1123 -41 
Q 819 9 494 109 
L 494 744 
Q 775 591 1075 516 
Q 1375 441 1709 441 
Q 2250 441 2565 725 
Q 2881 1009 2881 1497 
Q 2881 1984 2565 2268 
Q 2250 2553 1709 2553 
Q 1456 2553 1204 2497 
Q 953 2441 691 2322 
L 691 4666 
z
" transform="scale(0.015625)"/>
       </defs>
       <use xlink:href="#DejaVuSans-35"/>
       <use xlink:href="#DejaVuSans-30" x="63.623047"/>
      </g>
     </g>
    </g>
    <g id="ytick_3">
     <g id="line2d_8">
      <g>
       <use xlink:href="#mb074c9193a" x="57.6" y="230.315707" style="stroke: #000000; stroke-width: 0.8"/>
      </g>
     </g>
     <g id="text_9">
      <!-- 100 -->
      <g transform="translate(31.5125 234.114926)scale(0.1 -0.1)">
       <use xlink:href="#DejaVuSans-31"/>
       <use xlink:href="#DejaVuSans-30" x="63.623047"/>
       <use xlink:href="#DejaVuSans-30" x="127.246094"/>
      </g>
     </g>
    </g>
    <g id="ytick_4">
     <g id="line2d_9">
      <g>
       <use xlink:href="#mb074c9193a" x="57.6" y="191.681561" style="stroke: #000000; stroke-width: 0.8"/>
      </g>
     </g>
     <g id="text_10">
      <!-- 150 -->
      <g transform="translate(31.5125 195.48078)scale(0.1 -0.1)">
       <use xlink:href="#DejaVuSans-31"/>
       <use xlink:href="#DejaVuSans-35" x="63.623047"/>
       <use xlink:href="#DejaVuSans-30" x="127.246094"/>
      </g>
     </g>
    </g>
    <g id="ytick_5">
     <g id="line2d_10">
      <g>
       <use xlink:href="#mb074c9193a" x="57.6" y="153.047415" style="stroke: #000000; stroke-width: 0.8"/>
      </g>
     </g>
     <g id="text_11">
      <!-- 200 -->
      <g transform="translate(31.5125 156.846633)scale(0.1 -0.1)">
       <use xlink:href="#DejaVuSans-32"/>
       <use xlink:href="#DejaVuSans-30" x="63.623047"/>
       <use xlink:href="#DejaVuSans-30" x="127.246094"/>
      </g>
     </g>
    </g>
    <g id="ytick_6">
     <g id="line2d_11">
      <g>
       <use xlink:href="#mb074c9193a" x="57.6" y="114.413268" style="stroke: #000000; stroke-width: 0.8"/>
      </g>
     </g>
     <g id="text_12">
      <!-- 250 -->
      <g transform="translate(31.5125 118.212487)scale(0.1 -0.1)">
       <use xlink:href="#DejaVuSans-32"/>
       <use xlink:href="#DejaVuSans-35" x="63.623047"/>
       <use xlink:href="#DejaVuSans-30" x="127.246094"/>
      </g>
     </g>
    </g>
    <g id="ytick_7">
     <g id="line2d_12">
      <g>
       <use xlink:href="#mb074c9193a" x="57.6" y="75.779122" style="stroke: #000000; stroke-width: 0.8"/>
      </g>
     </g>
     <g id="text_13">
      <!-- 300 -->
      <g transform="translate(31.5125 79.578341)scale(0.1 -0.1)">
       <defs>
        <path id="DejaVuSans-33" d="M 2597 2516 
Q 3050 2419 3304 2112 
Q 3559 1806 3559 1356 
Q 3559 666 3084 287 
Q 2609 -91 1734 -91 
Q 1441 -91 1130 -33 
Q 819 25 488 141 
L 488 750 
Q 750 597 1062 519 
Q 1375 441 1716 441 
Q 2309 441 2620 675 
Q 2931 909 2931 1356 
Q 2931 1769 2642 2001 
Q 2353 2234 1838 2234 
L 1294 2234 
L 1294 2753 
L 1863 2753 
Q 2328 2753 2575 2939 
Q 2822 3125 2822 3475 
Q 2822 3834 2567 4026 
Q 2313 4219 1838 4219 
Q 1578 4219 1281 4162 
Q 984 4106 628 3988 
L 628 4550 
Q 988 4650 1302 4700 
Q 1616 4750 1894 4750 
Q 2613 4750 3031 4423 
Q 3450 4097 3450 3541 
Q 3450 3153 3228 2886 
Q 3006 2619 2597 2516 
z
" transform="scale(0.015625)"/>
       </defs>
       <use xlink:href="#DejaVuSans-33"/>
       <use xlink:href="#DejaVuSans-30" x="63.623047"/>
       <use xlink:href="#DejaVuSans-30" x="127.246094"/>
      </g>
     </g>
    </g>
    <g id="text_14">
     <!-- Number of crosslinks -->
     <g transform="translate(25.432812 227.019406)rotate(-90)scale(0.1 -0.1)">
      <defs>
       <path id="DejaVuSans-4e" d="M 628 4666 
L 1478 4666 
L 3547 763 
L 3547 4666 
L 4159 4666 
L 4159 0 
L 3309 0 
L 1241 3903 
L 1241 0 
L 628 0 
L 628 4666 
z
" transform="scale(0.015625)"/>
       <path id="DejaVuSans-75" d="M 544 1381 
L 544 3500 
L 1119 3500 
L 1119 1403 
Q 1119 906 1312 657 
Q 1506 409 1894 409 
Q 2359 409 2629 706 
Q 2900 1003 2900 1516 
L 2900 3500 
L 3475 3500 
L 3475 0 
L 2900 0 
L 2900 538 
Q 2691 219 2414 64 
Q 2138 -91 1772 -91 
Q 1169 -91 856 284 
Q 544 659 544 1381 
z
M 1991 3584 
L 1991 3584 
z
" transform="scale(0.015625)"/>
       <path id="DejaVuSans-6d" d="M 3328 2828 
Q 3544 3216 3844 3400 
Q 4144 3584 4550 3584 
Q 5097 3584 5394 3201 
Q 5691 2819 5691 2113 
L 5691 0 
L 5113 0 
L 5113 2094 
Q 5113 2597 4934 2840 
Q 4756 3084 4391 3084 
Q 3944 3084 3684 2787 
Q 3425 2491 3425 1978 
L 3425 0 
L 2847 0 
L 2847 2094 
Q 2847 2600 2669 2842 
Q 2491 3084 2119 3084 
Q 1678 3084 1418 2786 
Q 1159 2488 1159 1978 
L 1159 0 
L 581 0 
L 581 3500 
L 1159 3500 
L 1159 2956 
Q 1356 3278 1631 3431 
Q 1906 3584 2284 3584 
Q 2666 3584 2933 3390 
Q 3200 3197 3328 2828 
z
" transform="scale(0.015625)"/>
       <path id="DejaVuSans-62" d="M 3116 1747 
Q 3116 2381 2855 2742 
Q 2594 3103 2138 3103 
Q 1681 3103 1420 2742 
Q 1159 2381 1159 1747 
Q 1159 1113 1420 752 
Q 1681 391 2138 391 
Q 2594 391 2855 752 
Q 3116 1113 3116 1747 
z
M 1159 2969 
Q 1341 3281 1617 3432 
Q 1894 3584 2278 3584 
Q 2916 3584 3314 3078 
Q 3713 2572 3713 1747 
Q 3713 922 3314 415 
Q 2916 -91 2278 -91 
Q 1894 -91 1617 61 
Q 1341 213 1159 525 
L 1159 0 
L 581 0 
L 581 4863 
L 1159 4863 
L 1159 2969 
z
" transform="scale(0.015625)"/>
       <path id="DejaVuSans-20" transform="scale(0.015625)"/>
       <path id="DejaVuSans-66" d="M 2375 4863 
L 2375 4384 
L 1825 4384 
Q 1516 4384 1395 4259 
Q 1275 4134 1275 3809 
L 1275 3500 
L 2222 3500 
L 2222 3053 
L 1275 3053 
L 1275 0 
L 697 0 
L 697 3053 
L 147 3053 
L 147 3500 
L 697 3500 
L 697 3744 
Q 697 4328 969 4595 
Q 1241 4863 1831 4863 
L 2375 4863 
z
" transform="scale(0.015625)"/>
       <path id="DejaVuSans-73" d="M 2834 3397 
L 2834 2853 
Q 2591 2978 2328 3040 
Q 2066 3103 1784 3103 
Q 1356 3103 1142 2972 
Q 928 2841 928 2578 
Q 928 2378 1081 2264 
Q 1234 2150 1697 2047 
L 1894 2003 
Q 2506 1872 2764 1633 
Q 3022 1394 3022 966 
Q 3022 478 2636 193 
Q 2250 -91 1575 -91 
Q 1294 -91 989 -36 
Q 684 19 347 128 
L 347 722 
Q 666 556 975 473 
Q 1284 391 1588 391 
Q 1994 391 2212 530 
Q 2431 669 2431 922 
Q 2431 1156 2273 1281 
Q 2116 1406 1581 1522 
L 1381 1569 
Q 847 1681 609 1914 
Q 372 2147 372 2553 
Q 372 3047 722 3315 
Q 1072 3584 1716 3584 
Q 2034 3584 2315 3537 
Q 2597 3491 2834 3397 
z
" transform="scale(0.015625)"/>
       <path id="DejaVuSans-6c" d="M 603 4863 
L 1178 4863 
L 1178 0 
L 603 0 
L 603 4863 
z
" transform="scale(0.015625)"/>
       <path id="DejaVuSans-69" d="M 603 3500 
L 1178 3500 
L 1178 0 
L 603 0 
L 603 3500 
z
M 603 4863 
L 1178 4863 
L 1178 4134 
L 603 4134 
L 603 4863 
z
" transform="scale(0.015625)"/>
       <path id="DejaVuSans-6e" d="M 3513 2113 
L 3513 0 
L 2938 0 
L 2938 2094 
Q 2938 2591 2744 2837 
Q 2550 3084 2163 3084 
Q 1697 3084 1428 2787 
Q 1159 2491 1159 1978 
L 1159 0 
L 581 0 
L 581 3500 
L 1159 3500 
L 1159 2956 
Q 1366 3272 1645 3428 
Q 1925 3584 2291 3584 
Q 2894 3584 3203 3211 
Q 3513 2838 3513 2113 
z
" transform="scale(0.015625)"/>
       <path id="DejaVuSans-6b" d="M 581 4863 
L 1159 4863 
L 1159 1991 
L 2875 3500 
L 3609 3500 
L 1753 1863 
L 3688 0 
L 2938 0 
L 1159 1709 
L 1159 0 
L 581 0 
L 581 4863 
z
" transform="scale(0.015625)"/>
      </defs>
      <use xlink:href="#DejaVuSans-4e"/>
      <use xlink:href="#DejaVuSans-75" x="74.804688"/>
      <use xlink:href="#DejaVuSans-6d" x="138.183594"/>
      <use xlink:href="#DejaVuSans-62" x="235.595703"/>
      <use xlink:href="#DejaVuSans-65" x="299.072266"/>
      <use xlink:href="#DejaVuSans-72" x="360.595703"/>
      <use xlink:href="#DejaVuSans-20" x="401.708984"/>
      <use xlink:href="#DejaVuSans-6f" x="433.496094"/>
      <use xlink:href="#DejaVuSans-66" x="494.677734"/>
      <use xlink:href="#DejaVuSans-20" x="529.882812"/>
      <use xlink:href="#DejaVuSans-63" x="561.669922"/>
      <use xlink:href="#DejaVuSans-72" x="616.650391"/>
      <use xlink:href="#DejaVuSans-6f" x="655.513672"/>
      <use xlink:href="#DejaVuSans-73" x="716.695312"/>
      <use xlink:href="#DejaVuSans-73" x="768.794922"/>
      <use xlink:href="#DejaVuSans-6c" x="820.894531"/>
      <use xlink:href="#DejaVuSans-69" x="848.677734"/>
      <use xlink:href="#DejaVuSans-6e" x="876.460938"/>
      <use xlink:href="#DejaVuSans-6b" x="939.839844"/>
      <use xlink:href="#DejaVuSans-73" x="997.75"/>
     </g>
    </g>
   </g>
   <g id="patch_3">
    <path d="M 57.6 307.584 
L 57.6 41.472 
" style="fill: none; stroke: #000000; stroke-width: 0.8; stroke-linejoin: miter; stroke-linecap: square"/>
   </g>
   <g id="patch_4">
    <path d="M 414.72 307.584 
L 414.72 41.472 
" style="fill: none; stroke: #000000; stroke-width: 0.8; stroke-linejoin: miter; stroke-linecap: square"/>
   </g>
   <g id="patch_5">
    <path d="M 57.6 307.584 
L 414.72 307.584 
" style="fill: none; stroke: #000000; stroke-width: 0.8; stroke-linejoin: miter; stroke-linecap: square"/>
   </g>
   <g id="patch_6">
    <path d="M 57.6 41.472 
L 414.72 41.472 
" style="fill: none; stroke: #000000; stroke-width: 0.8; stroke-linejoin: miter; stroke-linecap: square"/>
   </g>
   <g id="legend_1">
    <g id="patch_7">
     <path d="M 293.087188 93.506375 
L 407.72 93.506375 
Q 409.72 93.506375 409.72 91.506375 
L 409.72 48.472 
Q 409.72 46.472 407.72 46.472 
L 293.087188 46.472 
Q 291.087188 46.472 291.087188 48.472 
L 291.087188 91.506375 
Q 291.087188 93.506375 293.087188 93.506375 
z
" style="fill: #ffffff; opacity: 0.8; stroke: #cccccc; stroke-linejoin: miter"/>
    </g>
    <g id="patch_8">
     <path d="M 295.087188 58.070438 
L 315.087188 58.070438 
L 315.087188 51.070438 
L 295.087188 51.070438 
z
" style="fill: #008000"/>
    </g>
    <g id="text_15">
     <!-- true -->
     <g transform="translate(323.087188 58.070438)scale(0.1 -0.1)">
      <defs>
       <path id="DejaVuSans-74" d="M 1172 4494 
L 1172 3500 
L 2356 3500 
L 2356 3053 
L 1172 3053 
L 1172 1153 
Q 1172 725 1289 603 
Q 1406 481 1766 481 
L 2356 481 
L 2356 0 
L 1766 0 
Q 1100 0 847 248 
Q 594 497 594 1153 
L 594 3053 
L 172 3053 
L 172 3500 
L 594 3500 
L 594 4494 
L 1172 4494 
z
" transform="scale(0.015625)"/>
      </defs>
      <use xlink:href="#DejaVuSans-74"/>
      <use xlink:href="#DejaVuSans-72" x="39.208984"/>
      <use xlink:href="#DejaVuSans-75" x="80.322266"/>
      <use xlink:href="#DejaVuSans-65" x="143.701172"/>
     </g>
    </g>
    <g id="patch_9">
     <path d="M 295.087188 72.748563 
L 315.087188 72.748563 
L 315.087188 65.748563 
L 295.087188 65.748563 
z
" style="fill: #7cfc00"/>
    </g>
    <g id="text_16">
     <!-- true homeotypic -->
     <g transform="translate(323.087188 72.748563)scale(0.1 -0.1)">
      <defs>
       <path id="DejaVuSans-68" d="M 3513 2113 
L 3513 0 
L 2938 0 
L 2938 2094 
Q 2938 2591 2744 2837 
Q 2550 3084 2163 3084 
Q 1697 3084 1428 2787 
Q 1159 2491 1159 1978 
L 1159 0 
L 581 0 
L 581 4863 
L 1159 4863 
L 1159 2956 
Q 1366 3272 1645 3428 
Q 1925 3584 2291 3584 
Q 2894 3584 3203 3211 
Q 3513 2838 3513 2113 
z
" transform="scale(0.015625)"/>
       <path id="DejaVuSans-79" d="M 2059 -325 
Q 1816 -950 1584 -1140 
Q 1353 -1331 966 -1331 
L 506 -1331 
L 506 -850 
L 844 -850 
Q 1081 -850 1212 -737 
Q 1344 -625 1503 -206 
L 1606 56 
L 191 3500 
L 800 3500 
L 1894 763 
L 2988 3500 
L 3597 3500 
L 2059 -325 
z
" transform="scale(0.015625)"/>
       <path id="DejaVuSans-70" d="M 1159 525 
L 1159 -1331 
L 581 -1331 
L 581 3500 
L 1159 3500 
L 1159 2969 
Q 1341 3281 1617 3432 
Q 1894 3584 2278 3584 
Q 2916 3584 3314 3078 
Q 3713 2572 3713 1747 
Q 3713 922 3314 415 
Q 2916 -91 2278 -91 
Q 1894 -91 1617 61 
Q 1341 213 1159 525 
z
M 3116 1747 
Q 3116 2381 2855 2742 
Q 2594 3103 2138 3103 
Q 1681 3103 1420 2742 
Q 1159 2381 1159 1747 
Q 1159 1113 1420 752 
Q 1681 391 2138 391 
Q 2594 391 2855 752 
Q 3116 1113 3116 1747 
z
" transform="scale(0.015625)"/>
      </defs>
      <use xlink:href="#DejaVuSans-74"/>
      <use xlink:href="#DejaVuSans-72" x="39.208984"/>
      <use xlink:href="#DejaVuSans-75" x="80.322266"/>
      <use xlink:href="#DejaVuSans-65" x="143.701172"/>
      <use xlink:href="#DejaVuSans-20" x="205.224609"/>
      <use xlink:href="#DejaVuSans-68" x="237.011719"/>
      <use xlink:href="#DejaVuSans-6f" x="300.390625"/>
      <use xlink:href="#DejaVuSans-6d" x="361.572266"/>
      <use xlink:href="#DejaVuSans-65" x="458.984375"/>
      <use xlink:href="#DejaVuSans-6f" x="520.507812"/>
      <use xlink:href="#DejaVuSans-74" x="581.689453"/>
      <use xlink:href="#DejaVuSans-79" x="620.898438"/>
      <use xlink:href="#DejaVuSans-70" x="680.078125"/>
      <use xlink:href="#DejaVuSans-69" x="743.554688"/>
      <use xlink:href="#DejaVuSans-63" x="771.337891"/>
     </g>
    </g>
    <g id="patch_10">
     <path d="M 295.087188 87.426688 
L 315.087188 87.426688 
L 315.087188 80.426688 
L 295.087188 80.426688 
z
" style="fill: #ff0000"/>
    </g>
    <g id="text_17">
     <!-- false -->
     <g transform="translate(323.087188 87.426688)scale(0.1 -0.1)">
      <defs>
       <path id="DejaVuSans-61" d="M 2194 1759 
Q 1497 1759 1228 1600 
Q 959 1441 959 1056 
Q 959 750 1161 570 
Q 1363 391 1709 391 
Q 2188 391 2477 730 
Q 2766 1069 2766 1631 
L 2766 1759 
L 2194 1759 
z
M 3341 1997 
L 3341 0 
L 2766 0 
L 2766 531 
Q 2569 213 2275 61 
Q 1981 -91 1556 -91 
Q 1019 -91 701 211 
Q 384 513 384 1019 
Q 384 1609 779 1909 
Q 1175 2209 1959 2209 
L 2766 2209 
L 2766 2266 
Q 2766 2663 2505 2880 
Q 2244 3097 1772 3097 
Q 1472 3097 1187 3025 
Q 903 2953 641 2809 
L 641 3341 
Q 956 3463 1253 3523 
Q 1550 3584 1831 3584 
Q 2591 3584 2966 3190 
Q 3341 2797 3341 1997 
z
" transform="scale(0.015625)"/>
      </defs>
      <use xlink:href="#DejaVuSans-66"/>
      <use xlink:href="#DejaVuSans-61" x="35.205078"/>
      <use xlink:href="#DejaVuSans-6c" x="96.484375"/>
      <use xlink:href="#DejaVuSans-73" x="124.267578"/>
      <use xlink:href="#DejaVuSans-65" x="176.367188"/>
     </g>
    </g>
   </g>
  </g>
 </g>
 <defs>
  <clipPath id="pfb2a582e6f">
   <rect x="57.6" y="41.472" width="357.12" height="266.112"/>
  </clipPath>
 </defs>
</svg>
