<?xml version="1.0" encoding="utf-8" standalone="no"?>
<!DOCTYPE svg PUBLIC "-//W3C//DTD SVG 1.1//EN"
  "http://www.w3.org/Graphics/SVG/1.1/DTD/svg11.dtd">
<svg xmlns:xlink="http://www.w3.org/1999/xlink" width="460.8pt" height="345.6pt" viewBox="0 0 460.8 345.6" xmlns="http://www.w3.org/2000/svg" version="1.1">
 <metadata>
  <rdf:RDF xmlns:dc="http://purl.org/dc/elements/1.1/" xmlns:cc="http://creativecommons.org/ns#" xmlns:rdf="http://www.w3.org/1999/02/22-rdf-syntax-ns#">
   <cc:Work>
    <dc:type rdf:resource="http://purl.org/dc/dcmitype/StillImage"/>
    <dc:date>2022-07-21T13:29:12.912131</dc:date>
    <dc:format>image/svg+xml</dc:format>
    <dc:creator>
     <cc:Agent>
      <dc:title>Matplotlib v3.5.1, https://matplotlib.org/</dc:title>
     </cc:Agent>
    </dc:creator>
   </cc:Work>
  </rdf:RDF>
 </metadata>
 <defs>
  <style type="text/css">*{stroke-linejoin: round; stroke-linecap: butt}</style>
 </defs>
 <g id="figure_1">
  <g id="patch_1">
   <path d="M 0 345.6 
L 460.8 345.6 
L 460.8 0 
L 0 0 
z
" style="fill: #ffffff"/>
  </g>
  <g id="axes_1">
   <g id="patch_2">
    <path d="M 57.6 307.584 
L 414.72 307.584 
L 414.72 41.472 
L 57.6 41.472 
z
" style="fill: #ffffff"/>
   </g>
   <g id="PolyCollection_1">
    <path d="M 73.832727 104.832 
L 73.832727 307.584 
L 74.515751 307.584 
L 74.846701 307.584 
L 75.12836 307.584 
L 75.188212 307.584 
L 75.751531 307.584 
L 75.874757 307.584 
L 75.997983 307.584 
L 76.515532 307.584 
L 76.976749 307.584 
L 77.374592 307.584 
L 77.557671 307.584 
L 78.420252 307.584 
L 78.487147 307.584 
L 78.511792 307.584 
L 78.818096 307.584 
L 78.913156 307.584 
L 79.40606 307.584 
L 79.747572 307.584 
L 80.772107 307.584 
L 81.560753 307.584 
L 82.645141 307.584 
L 82.824699 307.584 
L 83.518285 307.584 
L 83.578138 307.584 
L 83.726009 307.584 
L 84.528738 307.584 
L 84.87025 307.584 
L 86.20461 307.584 
L 86.243338 307.584 
L 86.845385 307.584 
L 86.993256 307.584 
L 87.06015 307.584 
L 87.063671 307.584 
L 87.503764 307.584 
L 88.01075 307.584 
L 88.19735 307.584 
L 88.725461 307.584 
L 89.799287 307.584 
L 89.880264 307.584 
L 90.066863 307.584 
L 91.735694 307.584 
L 92.151141 307.584 
L 92.320137 307.584 
L 92.985557 307.584 
L 94.076987 307.584 
L 94.675512 307.584 
L 94.830425 307.584 
L 95.538094 307.584 
L 96.150703 307.584 
L 96.189431 307.584 
L 97.069616 307.584 
L 98.280751 307.584 
L 98.60818 307.584 
L 98.618742 307.584 
L 98.921526 307.584 
L 99.717213 307.584 
L 100.548108 307.584 
L 100.752311 307.584 
L 100.949472 307.584 
L 101.118468 307.584 
L 101.136072 307.584 
L 101.611372 307.584 
L 101.79445 307.584 
L 102.033861 307.584 
L 102.132441 307.584 
L 102.424663 307.584 
L 102.625345 307.584 
L 103.892812 307.584 
L 104.498379 307.584 
L 104.783559 307.584 
L 105.822178 307.584 
L 106.681238 307.584 
L 107.469884 307.584 
L 110.976542 307.584 
L 111.092727 307.584 
L 113.719199 307.584 
L 113.750886 307.584 
L 114.120564 307.584 
L 114.574739 307.584 
L 114.726131 307.584 
L 114.852878 307.584 
L 115.546464 307.584 
L 116.76464 307.584 
L 117.077986 307.584 
L 117.268106 307.584 
L 117.694115 307.584 
L 118.584863 307.584 
L 119.296052 307.584 
L 119.634044 307.584 
L 119.725583 307.584 
L 119.76079 307.584 
L 119.817122 307.584 
L 120.317067 307.584 
L 120.373399 307.584 
L 121.084589 307.584 
L 121.383852 307.584 
L 121.80282 307.584 
L 121.901401 307.584 
L 122.165456 307.584 
L 122.246433 307.584 
L 122.580904 307.584 
L 122.760461 307.584 
L 123.003392 307.584 
L 123.094932 307.584 
L 124.534915 307.584 
L 124.55956 307.584 
L 124.992611 307.584 
L 125.295395 307.584 
L 125.386934 307.584 
L 125.717884 307.584 
L 127.238844 307.584 
L 127.295175 307.584 
L 127.612042 307.584 
L 130.671566 307.584 
L 131.92847 307.584 
L 131.981281 307.584 
L 132.16436 307.584 
L 133.16425 307.584 
L 134.25568 307.584 
L 134.77675 307.584 
L 134.903496 307.584 
L 136.765968 307.584 
L 137.561655 307.584 
L 137.589821 307.584 
L 137.639112 307.584 
L 137.7729 307.584 
L 139.86422 307.584 
L 141.927374 307.584 
L 142.441402 307.584 
L 143.134988 307.584 
L 144.321478 307.584 
L 144.670031 307.584 
L 144.881275 307.584 
L 145.476281 307.584 
L 147.542955 307.584 
L 149.088561 307.584 
L 149.437114 307.584 
L 152.616343 307.584 
L 154.299257 307.584 
L 155.327313 307.584 
L 157.577067 307.584 
L 158.696662 307.584 
L 159.49587 307.584 
L 161.499172 307.584 
L 162.027283 307.584 
L 162.650454 307.584 
L 163.604575 307.584 
L 175.775776 307.584 
L 176.469361 307.584 
L 177.148864 307.584 
L 177.532625 307.584 
L 183.348889 307.584 
L 184.049516 307.584 
L 186.133795 307.584 
L 190.950168 307.584 
L 192.678852 307.584 
L 204.469813 307.584 
L 204.994403 307.584 
L 210.655754 307.584 
L 212.437249 307.584 
L 215.838284 307.584 
L 223.70714 307.584 
L 228.192564 307.584 
L 229.924768 307.584 
L 234.188385 307.584 
L 235.262211 307.584 
L 237.001457 307.584 
L 240.53276 307.584 
L 240.715839 307.584 
L 243.880984 307.584 
L 249.531773 307.584 
L 249.665561 307.584 
L 269.00147 307.584 
L 271.94833 307.584 
L 306.529045 307.584 
L 324.910833 307.584 
L 347.531592 307.584 
L 348.90116 307.584 
L 398.487273 307.584 
L 398.487273 307.584 
L 398.487273 307.584 
L 348.90116 307.584 
L 347.531592 307.584 
L 324.910833 307.584 
L 306.529045 307.584 
L 271.94833 307.584 
L 269.00147 307.584 
L 249.665561 306.176 
L 249.531773 304.768 
L 243.880984 304.768 
L 240.715839 304.768 
L 240.53276 304.768 
L 237.001457 303.36 
L 235.262211 301.952 
L 234.188385 301.952 
L 229.924768 301.952 
L 228.192564 301.952 
L 223.70714 301.952 
L 215.838284 301.952 
L 212.437249 301.952 
L 210.655754 301.952 
L 204.994403 301.952 
L 204.469813 301.952 
L 192.678852 301.952 
L 190.950168 300.544 
L 186.133795 299.136 
L 184.049516 299.136 
L 183.348889 297.728 
L 177.532625 296.32 
L 177.148864 294.912 
L 176.469361 293.504 
L 175.775776 292.096 
L 163.604575 292.096 
L 162.650454 290.688 
L 162.027283 289.28 
L 161.499172 287.872 
L 159.49587 286.464 
L 158.696662 285.056 
L 157.577067 285.056 
L 155.327313 283.648 
L 154.299257 282.24 
L 152.616343 280.832 
L 149.437114 280.832 
L 149.088561 279.424 
L 147.542955 279.424 
L 145.476281 279.424 
L 144.881275 278.016 
L 144.670031 276.608 
L 144.321478 275.2 
L 143.134988 273.792 
L 142.441402 272.384 
L 141.927374 270.976 
L 139.86422 269.568 
L 137.7729 269.568 
L 137.639112 268.16 
L 137.589821 266.752 
L 137.561655 265.344 
L 136.765968 263.936 
L 134.903496 262.528 
L 134.77675 261.12 
L 134.25568 259.712 
L 133.16425 258.304 
L 132.16436 258.304 
L 131.981281 256.896 
L 131.92847 255.488 
L 130.671566 254.08 
L 127.612042 252.672 
L 127.295175 251.264 
L 127.238844 249.856 
L 125.717884 248.448 
L 125.386934 247.04 
L 125.295395 245.632 
L 124.992611 244.224 
L 124.55956 242.816 
L 124.534915 241.408 
L 123.094932 241.408 
L 123.003392 241.408 
L 122.760461 240 
L 122.580904 240 
L 122.246433 238.592 
L 122.165456 237.184 
L 121.901401 235.776 
L 121.80282 234.368 
L 121.383852 232.96 
L 121.084589 231.552 
L 120.373399 230.144 
L 120.317067 228.736 
L 119.817122 227.328 
L 119.76079 225.92 
L 119.725583 224.512 
L 119.634044 224.512 
L 119.296052 223.104 
L 118.584863 221.696 
L 117.694115 220.288 
L 117.268106 218.88 
L 117.077986 217.472 
L 116.76464 216.064 
L 115.546464 214.656 
L 114.852878 213.248 
L 114.726131 213.248 
L 114.574739 211.84 
L 114.120564 210.432 
L 113.750886 209.024 
L 113.719199 207.616 
L 111.092727 206.208 
L 110.976542 204.8 
L 107.469884 203.392 
L 106.681238 201.984 
L 105.822178 200.576 
L 104.783559 199.168 
L 104.498379 197.76 
L 103.892812 196.352 
L 102.625345 194.944 
L 102.424663 193.536 
L 102.132441 192.128 
L 102.033861 190.72 
L 101.79445 189.312 
L 101.611372 187.904 
L 101.136072 186.496 
L 101.118468 185.088 
L 100.949472 183.68 
L 100.752311 182.272 
L 100.548108 180.864 
L 99.717213 179.456 
L 98.921526 178.048 
L 98.618742 176.64 
L 98.60818 175.232 
L 98.280751 173.824 
L 97.069616 172.416 
L 96.189431 171.008 
L 96.150703 169.6 
L 95.538094 168.192 
L 94.830425 168.192 
L 94.675512 166.784 
L 94.076987 165.376 
L 92.985557 163.968 
L 92.320137 162.56 
L 92.151141 161.152 
L 91.735694 159.744 
L 90.066863 158.336 
L 89.880264 156.928 
L 89.799287 155.52 
L 88.725461 154.112 
L 88.19735 152.704 
L 88.01075 151.296 
L 87.503764 149.888 
L 87.063671 148.48 
L 87.06015 147.072 
L 86.993256 145.664 
L 86.845385 144.256 
L 86.243338 142.848 
L 86.20461 141.44 
L 84.87025 140.032 
L 84.528738 138.624 
L 83.726009 137.216 
L 83.578138 135.808 
L 83.518285 134.4 
L 82.824699 132.992 
L 82.645141 132.992 
L 81.560753 131.584 
L 80.772107 130.176 
L 79.747572 128.768 
L 79.40606 127.36 
L 78.913156 125.952 
L 78.818096 124.544 
L 78.511792 123.136 
L 78.487147 121.728 
L 78.420252 120.32 
L 77.557671 118.912 
L 77.374592 117.504 
L 76.976749 116.096 
L 76.515532 114.688 
L 75.997983 113.28 
L 75.874757 111.872 
L 75.751531 110.464 
L 75.188212 109.056 
L 75.12836 107.648 
L 74.846701 107.648 
L 74.515751 106.24 
L 73.832727 104.832 
z
" clip-path="url(#p5de31b9e32)" style="fill: #008000"/>
   </g>
   <g id="PolyCollection_2">
    <path d="M 73.832727 54.144 
L 73.832727 104.832 
L 74.515751 106.24 
L 74.846701 107.648 
L 75.12836 107.648 
L 75.188212 109.056 
L 75.751531 110.464 
L 75.874757 111.872 
L 75.997983 113.28 
L 76.515532 114.688 
L 76.976749 116.096 
L 77.374592 117.504 
L 77.557671 118.912 
L 78.420252 120.32 
L 78.487147 121.728 
L 78.511792 123.136 
L 78.818096 124.544 
L 78.913156 125.952 
L 79.40606 127.36 
L 79.747572 128.768 
L 80.772107 130.176 
L 81.560753 131.584 
L 82.645141 132.992 
L 82.824699 132.992 
L 83.518285 134.4 
L 83.578138 135.808 
L 83.726009 137.216 
L 84.528738 138.624 
L 84.87025 140.032 
L 86.20461 141.44 
L 86.243338 142.848 
L 86.845385 144.256 
L 86.993256 145.664 
L 87.06015 147.072 
L 87.063671 148.48 
L 87.503764 149.888 
L 88.01075 151.296 
L 88.19735 152.704 
L 88.725461 154.112 
L 89.799287 155.52 
L 89.880264 156.928 
L 90.066863 158.336 
L 91.735694 159.744 
L 92.151141 161.152 
L 92.320137 162.56 
L 92.985557 163.968 
L 94.076987 165.376 
L 94.675512 166.784 
L 94.830425 168.192 
L 95.538094 168.192 
L 96.150703 169.6 
L 96.189431 171.008 
L 97.069616 172.416 
L 98.280751 173.824 
L 98.60818 175.232 
L 98.618742 176.64 
L 98.921526 178.048 
L 99.717213 179.456 
L 100.548108 180.864 
L 100.752311 182.272 
L 100.949472 183.68 
L 101.118468 185.088 
L 101.136072 186.496 
L 101.611372 187.904 
L 101.79445 189.312 
L 102.033861 190.72 
L 102.132441 192.128 
L 102.424663 193.536 
L 102.625345 194.944 
L 103.892812 196.352 
L 104.498379 197.76 
L 104.783559 199.168 
L 105.822178 200.576 
L 106.681238 201.984 
L 107.469884 203.392 
L 110.976542 204.8 
L 111.092727 206.208 
L 113.719199 207.616 
L 113.750886 209.024 
L 114.120564 210.432 
L 114.574739 211.84 
L 114.726131 213.248 
L 114.852878 213.248 
L 115.546464 214.656 
L 116.76464 216.064 
L 117.077986 217.472 
L 117.268106 218.88 
L 117.694115 220.288 
L 118.584863 221.696 
L 119.296052 223.104 
L 119.634044 224.512 
L 119.725583 224.512 
L 119.76079 225.92 
L 119.817122 227.328 
L 120.317067 228.736 
L 120.373399 230.144 
L 121.084589 231.552 
L 121.383852 232.96 
L 121.80282 234.368 
L 121.901401 235.776 
L 122.165456 237.184 
L 122.246433 238.592 
L 122.580904 240 
L 122.760461 240 
L 123.003392 241.408 
L 123.094932 241.408 
L 124.534915 241.408 
L 124.55956 242.816 
L 124.992611 244.224 
L 125.295395 245.632 
L 125.386934 247.04 
L 125.717884 248.448 
L 127.238844 249.856 
L 127.295175 251.264 
L 127.612042 252.672 
L 130.671566 254.08 
L 131.92847 255.488 
L 131.981281 256.896 
L 132.16436 258.304 
L 133.16425 258.304 
L 134.25568 259.712 
L 134.77675 261.12 
L 134.903496 262.528 
L 136.765968 263.936 
L 137.561655 265.344 
L 137.589821 266.752 
L 137.639112 268.16 
L 137.7729 269.568 
L 139.86422 269.568 
L 141.927374 270.976 
L 142.441402 272.384 
L 143.134988 273.792 
L 144.321478 275.2 
L 144.670031 276.608 
L 144.881275 278.016 
L 145.476281 279.424 
L 147.542955 279.424 
L 149.088561 279.424 
L 149.437114 280.832 
L 152.616343 280.832 
L 154.299257 282.24 
L 155.327313 283.648 
L 157.577067 285.056 
L 158.696662 285.056 
L 159.49587 286.464 
L 161.499172 287.872 
L 162.027283 289.28 
L 162.650454 290.688 
L 163.604575 292.096 
L 175.775776 292.096 
L 176.469361 293.504 
L 177.148864 294.912 
L 177.532625 296.32 
L 183.348889 297.728 
L 184.049516 299.136 
L 186.133795 299.136 
L 190.950168 300.544 
L 192.678852 301.952 
L 204.469813 301.952 
L 204.994403 301.952 
L 210.655754 301.952 
L 212.437249 301.952 
L 215.838284 301.952 
L 223.70714 301.952 
L 228.192564 301.952 
L 229.924768 301.952 
L 234.188385 301.952 
L 235.262211 301.952 
L 237.001457 303.36 
L 240.53276 304.768 
L 240.715839 304.768 
L 243.880984 304.768 
L 249.531773 304.768 
L 249.665561 306.176 
L 269.00147 307.584 
L 271.94833 307.584 
L 306.529045 307.584 
L 324.910833 307.584 
L 347.531592 307.584 
L 348.90116 307.584 
L 398.487273 307.584 
L 398.487273 306.176 
L 398.487273 306.176 
L 348.90116 304.768 
L 347.531592 303.36 
L 324.910833 301.952 
L 306.529045 300.544 
L 271.94833 299.136 
L 269.00147 297.728 
L 249.665561 296.32 
L 249.531773 294.912 
L 243.880984 293.504 
L 240.715839 292.096 
L 240.53276 290.688 
L 237.001457 289.28 
L 235.262211 287.872 
L 234.188385 286.464 
L 229.924768 285.056 
L 228.192564 283.648 
L 223.70714 282.24 
L 215.838284 280.832 
L 212.437249 279.424 
L 210.655754 278.016 
L 204.994403 276.608 
L 204.469813 275.2 
L 192.678852 273.792 
L 190.950168 272.384 
L 186.133795 270.976 
L 184.049516 269.568 
L 183.348889 268.16 
L 177.532625 266.752 
L 177.148864 265.344 
L 176.469361 263.936 
L 175.775776 262.528 
L 163.604575 261.12 
L 162.650454 259.712 
L 162.027283 258.304 
L 161.499172 256.896 
L 159.49587 255.488 
L 158.696662 254.08 
L 157.577067 252.672 
L 155.327313 251.264 
L 154.299257 249.856 
L 152.616343 248.448 
L 149.437114 247.04 
L 149.088561 245.632 
L 147.542955 244.224 
L 145.476281 242.816 
L 144.881275 241.408 
L 144.670031 240 
L 144.321478 238.592 
L 143.134988 237.184 
L 142.441402 235.776 
L 141.927374 234.368 
L 139.86422 232.96 
L 137.7729 231.552 
L 137.639112 230.144 
L 137.589821 228.736 
L 137.561655 227.328 
L 136.765968 225.92 
L 134.903496 224.512 
L 134.77675 223.104 
L 134.25568 221.696 
L 133.16425 220.288 
L 132.16436 218.88 
L 131.981281 217.472 
L 131.92847 216.064 
L 130.671566 214.656 
L 127.612042 213.248 
L 127.295175 211.84 
L 127.238844 210.432 
L 125.717884 209.024 
L 125.386934 207.616 
L 125.295395 206.208 
L 124.992611 204.8 
L 124.55956 203.392 
L 124.534915 201.984 
L 123.094932 200.576 
L 123.003392 199.168 
L 122.760461 197.76 
L 122.580904 196.352 
L 122.246433 194.944 
L 122.165456 193.536 
L 121.901401 192.128 
L 121.80282 190.72 
L 121.383852 189.312 
L 121.084589 187.904 
L 120.373399 186.496 
L 120.317067 185.088 
L 119.817122 183.68 
L 119.76079 182.272 
L 119.725583 180.864 
L 119.634044 179.456 
L 119.296052 178.048 
L 118.584863 176.64 
L 117.694115 175.232 
L 117.268106 173.824 
L 117.077986 172.416 
L 116.76464 171.008 
L 115.546464 169.6 
L 114.852878 168.192 
L 114.726131 166.784 
L 114.574739 165.376 
L 114.120564 163.968 
L 113.750886 162.56 
L 113.719199 161.152 
L 111.092727 159.744 
L 110.976542 158.336 
L 107.469884 156.928 
L 106.681238 155.52 
L 105.822178 154.112 
L 104.783559 152.704 
L 104.498379 151.296 
L 103.892812 149.888 
L 102.625345 148.48 
L 102.424663 147.072 
L 102.132441 145.664 
L 102.033861 144.256 
L 101.79445 142.848 
L 101.611372 141.44 
L 101.136072 140.032 
L 101.118468 138.624 
L 100.949472 137.216 
L 100.752311 135.808 
L 100.548108 134.4 
L 99.717213 132.992 
L 98.921526 131.584 
L 98.618742 130.176 
L 98.60818 128.768 
L 98.280751 127.36 
L 97.069616 125.952 
L 96.189431 124.544 
L 96.150703 123.136 
L 95.538094 121.728 
L 94.830425 120.32 
L 94.675512 118.912 
L 94.076987 117.504 
L 92.985557 116.096 
L 92.320137 114.688 
L 92.151141 113.28 
L 91.735694 111.872 
L 90.066863 110.464 
L 89.880264 109.056 
L 89.799287 107.648 
L 88.725461 106.24 
L 88.19735 104.832 
L 88.01075 103.424 
L 87.503764 102.016 
L 87.063671 100.608 
L 87.06015 99.2 
L 86.993256 97.792 
L 86.845385 96.384 
L 86.243338 94.976 
L 86.20461 93.568 
L 84.87025 92.16 
L 84.528738 90.752 
L 83.726009 89.344 
L 83.578138 87.936 
L 83.518285 86.528 
L 82.824699 85.12 
L 82.645141 83.712 
L 81.560753 82.304 
L 80.772107 80.896 
L 79.747572 79.488 
L 79.40606 78.08 
L 78.913156 76.672 
L 78.818096 75.264 
L 78.511792 73.856 
L 78.487147 72.448 
L 78.420252 71.04 
L 77.557671 69.632 
L 77.374592 68.224 
L 76.976749 66.816 
L 76.515532 65.408 
L 75.997983 64 
L 75.874757 62.592 
L 75.751531 61.184 
L 75.188212 59.776 
L 75.12836 58.368 
L 74.846701 56.96 
L 74.515751 55.552 
L 73.832727 54.144 
z
" clip-path="url(#p5de31b9e32)" style="fill: #7cfc00"/>
   </g>
   <g id="PolyCollection_3">
    <path d="M 73.832727 54.144 
L 73.832727 54.144 
L 74.515751 55.552 
L 74.846701 56.96 
L 75.12836 58.368 
L 75.188212 59.776 
L 75.751531 61.184 
L 75.874757 62.592 
L 75.997983 64 
L 76.515532 65.408 
L 76.976749 66.816 
L 77.374592 68.224 
L 77.557671 69.632 
L 78.420252 71.04 
L 78.487147 72.448 
L 78.511792 73.856 
L 78.818096 75.264 
L 78.913156 76.672 
L 79.40606 78.08 
L 79.747572 79.488 
L 80.772107 80.896 
L 81.560753 82.304 
L 82.645141 83.712 
L 82.824699 85.12 
L 83.518285 86.528 
L 83.578138 87.936 
L 83.726009 89.344 
L 84.528738 90.752 
L 84.87025 92.16 
L 86.20461 93.568 
L 86.243338 94.976 
L 86.845385 96.384 
L 86.993256 97.792 
L 87.06015 99.2 
L 87.063671 100.608 
L 87.503764 102.016 
L 88.01075 103.424 
L 88.19735 104.832 
L 88.725461 106.24 
L 89.799287 107.648 
L 89.880264 109.056 
L 90.066863 110.464 
L 91.735694 111.872 
L 92.151141 113.28 
L 92.320137 114.688 
L 92.985557 116.096 
L 94.076987 117.504 
L 94.675512 118.912 
L 94.830425 120.32 
L 95.538094 121.728 
L 96.150703 123.136 
L 96.189431 124.544 
L 97.069616 125.952 
L 98.280751 127.36 
L 98.60818 128.768 
L 98.618742 130.176 
L 98.921526 131.584 
L 99.717213 132.992 
L 100.548108 134.4 
L 100.752311 135.808 
L 100.949472 137.216 
L 101.118468 138.624 
L 101.136072 140.032 
L 101.611372 141.44 
L 101.79445 142.848 
L 102.033861 144.256 
L 102.132441 145.664 
L 102.424663 147.072 
L 102.625345 148.48 
L 103.892812 149.888 
L 104.498379 151.296 
L 104.783559 152.704 
L 105.822178 154.112 
L 106.681238 155.52 
L 107.469884 156.928 
L 110.976542 158.336 
L 111.092727 159.744 
L 113.719199 161.152 
L 113.750886 162.56 
L 114.120564 163.968 
L 114.574739 165.376 
L 114.726131 166.784 
L 114.852878 168.192 
L 115.546464 169.6 
L 116.76464 171.008 
L 117.077986 172.416 
L 117.268106 173.824 
L 117.694115 175.232 
L 118.584863 176.64 
L 119.296052 178.048 
L 119.634044 179.456 
L 119.725583 180.864 
L 119.76079 182.272 
L 119.817122 183.68 
L 120.317067 185.088 
L 120.373399 186.496 
L 121.084589 187.904 
L 121.383852 189.312 
L 121.80282 190.72 
L 121.901401 192.128 
L 122.165456 193.536 
L 122.246433 194.944 
L 122.580904 196.352 
L 122.760461 197.76 
L 123.003392 199.168 
L 123.094932 200.576 
L 124.534915 201.984 
L 124.55956 203.392 
L 124.992611 204.8 
L 125.295395 206.208 
L 125.386934 207.616 
L 125.717884 209.024 
L 127.238844 210.432 
L 127.295175 211.84 
L 127.612042 213.248 
L 130.671566 214.656 
L 131.92847 216.064 
L 131.981281 217.472 
L 132.16436 218.88 
L 133.16425 220.288 
L 134.25568 221.696 
L 134.77675 223.104 
L 134.903496 224.512 
L 136.765968 225.92 
L 137.561655 227.328 
L 137.589821 228.736 
L 137.639112 230.144 
L 137.7729 231.552 
L 139.86422 232.96 
L 141.927374 234.368 
L 142.441402 235.776 
L 143.134988 237.184 
L 144.321478 238.592 
L 144.670031 240 
L 144.881275 241.408 
L 145.476281 242.816 
L 147.542955 244.224 
L 149.088561 245.632 
L 149.437114 247.04 
L 152.616343 248.448 
L 154.299257 249.856 
L 155.327313 251.264 
L 157.577067 252.672 
L 158.696662 254.08 
L 159.49587 255.488 
L 161.499172 256.896 
L 162.027283 258.304 
L 162.650454 259.712 
L 163.604575 261.12 
L 175.775776 262.528 
L 176.469361 263.936 
L 177.148864 265.344 
L 177.532625 266.752 
L 183.348889 268.16 
L 184.049516 269.568 
L 186.133795 270.976 
L 190.950168 272.384 
L 192.678852 273.792 
L 204.469813 275.2 
L 204.994403 276.608 
L 210.655754 278.016 
L 212.437249 279.424 
L 215.838284 280.832 
L 223.70714 282.24 
L 228.192564 283.648 
L 229.924768 285.056 
L 234.188385 286.464 
L 235.262211 287.872 
L 237.001457 289.28 
L 240.53276 290.688 
L 240.715839 292.096 
L 243.880984 293.504 
L 249.531773 294.912 
L 249.665561 296.32 
L 269.00147 297.728 
L 271.94833 299.136 
L 306.529045 300.544 
L 324.910833 301.952 
L 347.531592 303.36 
L 348.90116 304.768 
L 398.487273 306.176 
L 398.487273 306.176 
L 398.487273 306.176 
L 348.90116 304.768 
L 347.531592 303.36 
L 324.910833 301.952 
L 306.529045 300.544 
L 271.94833 299.136 
L 269.00147 297.728 
L 249.665561 296.32 
L 249.531773 294.912 
L 243.880984 293.504 
L 240.715839 292.096 
L 240.53276 290.688 
L 237.001457 289.28 
L 235.262211 287.872 
L 234.188385 286.464 
L 229.924768 285.056 
L 228.192564 283.648 
L 223.70714 282.24 
L 215.838284 280.832 
L 212.437249 279.424 
L 210.655754 278.016 
L 204.994403 276.608 
L 204.469813 275.2 
L 192.678852 273.792 
L 190.950168 272.384 
L 186.133795 270.976 
L 184.049516 269.568 
L 183.348889 268.16 
L 177.532625 266.752 
L 177.148864 265.344 
L 176.469361 263.936 
L 175.775776 262.528 
L 163.604575 261.12 
L 162.650454 259.712 
L 162.027283 258.304 
L 161.499172 256.896 
L 159.49587 255.488 
L 158.696662 254.08 
L 157.577067 252.672 
L 155.327313 251.264 
L 154.299257 249.856 
L 152.616343 248.448 
L 149.437114 247.04 
L 149.088561 245.632 
L 147.542955 244.224 
L 145.476281 242.816 
L 144.881275 241.408 
L 144.670031 240 
L 144.321478 238.592 
L 143.134988 237.184 
L 142.441402 235.776 
L 141.927374 234.368 
L 139.86422 232.96 
L 137.7729 231.552 
L 137.639112 230.144 
L 137.589821 228.736 
L 137.561655 227.328 
L 136.765968 225.92 
L 134.903496 224.512 
L 134.77675 223.104 
L 134.25568 221.696 
L 133.16425 220.288 
L 132.16436 218.88 
L 131.981281 217.472 
L 131.92847 216.064 
L 130.671566 214.656 
L 127.612042 213.248 
L 127.295175 211.84 
L 127.238844 210.432 
L 125.717884 209.024 
L 125.386934 207.616 
L 125.295395 206.208 
L 124.992611 204.8 
L 124.55956 203.392 
L 124.534915 201.984 
L 123.094932 200.576 
L 123.003392 199.168 
L 122.760461 197.76 
L 122.580904 196.352 
L 122.246433 194.944 
L 122.165456 193.536 
L 121.901401 192.128 
L 121.80282 190.72 
L 121.383852 189.312 
L 121.084589 187.904 
L 120.373399 186.496 
L 120.317067 185.088 
L 119.817122 183.68 
L 119.76079 182.272 
L 119.725583 180.864 
L 119.634044 179.456 
L 119.296052 178.048 
L 118.584863 176.64 
L 117.694115 175.232 
L 117.268106 173.824 
L 117.077986 172.416 
L 116.76464 171.008 
L 115.546464 169.6 
L 114.852878 168.192 
L 114.726131 166.784 
L 114.574739 165.376 
L 114.120564 163.968 
L 113.750886 162.56 
L 113.719199 161.152 
L 111.092727 159.744 
L 110.976542 158.336 
L 107.469884 156.928 
L 106.681238 155.52 
L 105.822178 154.112 
L 104.783559 152.704 
L 104.498379 151.296 
L 103.892812 149.888 
L 102.625345 148.48 
L 102.424663 147.072 
L 102.132441 145.664 
L 102.033861 144.256 
L 101.79445 142.848 
L 101.611372 141.44 
L 101.136072 140.032 
L 101.118468 138.624 
L 100.949472 137.216 
L 100.752311 135.808 
L 100.548108 134.4 
L 99.717213 132.992 
L 98.921526 131.584 
L 98.618742 130.176 
L 98.60818 128.768 
L 98.280751 127.36 
L 97.069616 125.952 
L 96.189431 124.544 
L 96.150703 123.136 
L 95.538094 121.728 
L 94.830425 120.32 
L 94.675512 118.912 
L 94.076987 117.504 
L 92.985557 116.096 
L 92.320137 114.688 
L 92.151141 113.28 
L 91.735694 111.872 
L 90.066863 110.464 
L 89.880264 109.056 
L 89.799287 107.648 
L 88.725461 106.24 
L 88.19735 104.832 
L 88.01075 103.424 
L 87.503764 102.016 
L 87.063671 100.608 
L 87.06015 99.2 
L 86.993256 97.792 
L 86.845385 96.384 
L 86.243338 94.976 
L 86.20461 93.568 
L 84.87025 92.16 
L 84.528738 90.752 
L 83.726009 89.344 
L 83.578138 87.936 
L 83.518285 86.528 
L 82.824699 85.12 
L 82.645141 83.712 
L 81.560753 82.304 
L 80.772107 80.896 
L 79.747572 79.488 
L 79.40606 78.08 
L 78.913156 76.672 
L 78.818096 75.264 
L 78.511792 73.856 
L 78.487147 72.448 
L 78.420252 71.04 
L 77.557671 69.632 
L 77.374592 68.224 
L 76.976749 66.816 
L 76.515532 65.408 
L 75.997983 64 
L 75.874757 62.592 
L 75.751531 61.184 
L 75.188212 59.776 
L 75.12836 58.368 
L 74.846701 56.96 
L 74.515751 55.552 
L 73.832727 54.144 
z
" clip-path="url(#p5de31b9e32)" style="fill: #ff0000"/>
   </g>
   <g id="matplotlib.axis_1">
    <g id="xtick_1">
     <g id="line2d_1">
      <defs>
       <path id="m6c8a2411f0" d="M 0 0 
L 0 3.5 
" style="stroke: #000000; stroke-width: 0.8"/>
      </defs>
      <g>
       <use xlink:href="#m6c8a2411f0" x="88.813479" y="307.584" style="stroke: #000000; stroke-width: 0.8"/>
      </g>
     </g>
     <g id="text_1">
      <!-- 200 -->
      <g transform="translate(79.269729 322.182437)scale(0.1 -0.1)">
       <defs>
        <path id="DejaVuSans-32" d="M 1228 531 
L 3431 531 
L 3431 0 
L 469 0 
L 469 531 
Q 828 903 1448 1529 
Q 2069 2156 2228 2338 
Q 2531 2678 2651 2914 
Q 2772 3150 2772 3378 
Q 2772 3750 2511 3984 
Q 2250 4219 1831 4219 
Q 1534 4219 1204 4116 
Q 875 4013 500 3803 
L 500 4441 
Q 881 4594 1212 4672 
Q 1544 4750 1819 4750 
Q 2544 4750 2975 4387 
Q 3406 4025 3406 3419 
Q 3406 3131 3298 2873 
Q 3191 2616 2906 2266 
Q 2828 2175 2409 1742 
Q 1991 1309 1228 531 
z
" transform="scale(0.015625)"/>
        <path id="DejaVuSans-30" d="M 2034 4250 
Q 1547 4250 1301 3770 
Q 1056 3291 1056 2328 
Q 1056 1369 1301 889 
Q 1547 409 2034 409 
Q 2525 409 2770 889 
Q 3016 1369 3016 2328 
Q 3016 3291 2770 3770 
Q 2525 4250 2034 4250 
z
M 2034 4750 
Q 2819 4750 3233 4129 
Q 3647 3509 3647 2328 
Q 3647 1150 3233 529 
Q 2819 -91 2034 -91 
Q 1250 -91 836 529 
Q 422 1150 422 2328 
Q 422 3509 836 4129 
Q 1250 4750 2034 4750 
z
" transform="scale(0.015625)"/>
       </defs>
       <use xlink:href="#DejaVuSans-32"/>
       <use xlink:href="#DejaVuSans-30" x="63.623047"/>
       <use xlink:href="#DejaVuSans-30" x="127.246094"/>
      </g>
     </g>
    </g>
    <g id="xtick_2">
     <g id="line2d_2">
      <g>
       <use xlink:href="#m6c8a2411f0" x="159.228294" y="307.584" style="stroke: #000000; stroke-width: 0.8"/>
      </g>
     </g>
     <g id="text_2">
      <!-- 400 -->
      <g transform="translate(149.684544 322.182437)scale(0.1 -0.1)">
       <defs>
        <path id="DejaVuSans-34" d="M 2419 4116 
L 825 1625 
L 2419 1625 
L 2419 4116 
z
M 2253 4666 
L 3047 4666 
L 3047 1625 
L 3713 1625 
L 3713 1100 
L 3047 1100 
L 3047 0 
L 2419 0 
L 2419 1100 
L 313 1100 
L 313 1709 
L 2253 4666 
z
" transform="scale(0.015625)"/>
       </defs>
       <use xlink:href="#DejaVuSans-34"/>
       <use xlink:href="#DejaVuSans-30" x="63.623047"/>
       <use xlink:href="#DejaVuSans-30" x="127.246094"/>
      </g>
     </g>
    </g>
    <g id="xtick_3">
     <g id="line2d_3">
      <g>
       <use xlink:href="#m6c8a2411f0" x="229.643109" y="307.584" style="stroke: #000000; stroke-width: 0.8"/>
      </g>
     </g>
     <g id="text_3">
      <!-- 600 -->
      <g transform="translate(220.099359 322.182437)scale(0.1 -0.1)">
       <defs>
        <path id="DejaVuSans-36" d="M 2113 2584 
Q 1688 2584 1439 2293 
Q 1191 2003 1191 1497 
Q 1191 994 1439 701 
Q 1688 409 2113 409 
Q 2538 409 2786 701 
Q 3034 994 3034 1497 
Q 3034 2003 2786 2293 
Q 2538 2584 2113 2584 
z
M 3366 4563 
L 3366 3988 
Q 3128 4100 2886 4159 
Q 2644 4219 2406 4219 
Q 1781 4219 1451 3797 
Q 1122 3375 1075 2522 
Q 1259 2794 1537 2939 
Q 1816 3084 2150 3084 
Q 2853 3084 3261 2657 
Q 3669 2231 3669 1497 
Q 3669 778 3244 343 
Q 2819 -91 2113 -91 
Q 1303 -91 875 529 
Q 447 1150 447 2328 
Q 447 3434 972 4092 
Q 1497 4750 2381 4750 
Q 2619 4750 2861 4703 
Q 3103 4656 3366 4563 
z
" transform="scale(0.015625)"/>
       </defs>
       <use xlink:href="#DejaVuSans-36"/>
       <use xlink:href="#DejaVuSans-30" x="63.623047"/>
       <use xlink:href="#DejaVuSans-30" x="127.246094"/>
      </g>
     </g>
    </g>
    <g id="xtick_4">
     <g id="line2d_4">
      <g>
       <use xlink:href="#m6c8a2411f0" x="300.057924" y="307.584" style="stroke: #000000; stroke-width: 0.8"/>
      </g>
     </g>
     <g id="text_4">
      <!-- 800 -->
      <g transform="translate(290.514174 322.182437)scale(0.1 -0.1)">
       <defs>
        <path id="DejaVuSans-38" d="M 2034 2216 
Q 1584 2216 1326 1975 
Q 1069 1734 1069 1313 
Q 1069 891 1326 650 
Q 1584 409 2034 409 
Q 2484 409 2743 651 
Q 3003 894 3003 1313 
Q 3003 1734 2745 1975 
Q 2488 2216 2034 2216 
z
M 1403 2484 
Q 997 2584 770 2862 
Q 544 3141 544 3541 
Q 544 4100 942 4425 
Q 1341 4750 2034 4750 
Q 2731 4750 3128 4425 
Q 3525 4100 3525 3541 
Q 3525 3141 3298 2862 
Q 3072 2584 2669 2484 
Q 3125 2378 3379 2068 
Q 3634 1759 3634 1313 
Q 3634 634 3220 271 
Q 2806 -91 2034 -91 
Q 1263 -91 848 271 
Q 434 634 434 1313 
Q 434 1759 690 2068 
Q 947 2378 1403 2484 
z
M 1172 3481 
Q 1172 3119 1398 2916 
Q 1625 2713 2034 2713 
Q 2441 2713 2670 2916 
Q 2900 3119 2900 3481 
Q 2900 3844 2670 4047 
Q 2441 4250 2034 4250 
Q 1625 4250 1398 4047 
Q 1172 3844 1172 3481 
z
" transform="scale(0.015625)"/>
       </defs>
       <use xlink:href="#DejaVuSans-38"/>
       <use xlink:href="#DejaVuSans-30" x="63.623047"/>
       <use xlink:href="#DejaVuSans-30" x="127.246094"/>
      </g>
     </g>
    </g>
    <g id="xtick_5">
     <g id="line2d_5">
      <g>
       <use xlink:href="#m6c8a2411f0" x="370.472739" y="307.584" style="stroke: #000000; stroke-width: 0.8"/>
      </g>
     </g>
     <g id="text_5">
      <!-- 1000 -->
      <g transform="translate(357.747739 322.182437)scale(0.1 -0.1)">
       <defs>
        <path id="DejaVuSans-31" d="M 794 531 
L 1825 531 
L 1825 4091 
L 703 3866 
L 703 4441 
L 1819 4666 
L 2450 4666 
L 2450 531 
L 3481 531 
L 3481 0 
L 794 0 
L 794 531 
z
" transform="scale(0.015625)"/>
       </defs>
       <use xlink:href="#DejaVuSans-31"/>
       <use xlink:href="#DejaVuSans-30" x="63.623047"/>
       <use xlink:href="#DejaVuSans-30" x="127.246094"/>
       <use xlink:href="#DejaVuSans-30" x="190.869141"/>
      </g>
     </g>
    </g>
    <g id="text_6">
     <!-- Score -->
     <g transform="translate(222.157656 335.860562)scale(0.1 -0.1)">
      <defs>
       <path id="DejaVuSans-53" d="M 3425 4513 
L 3425 3897 
Q 3066 4069 2747 4153 
Q 2428 4238 2131 4238 
Q 1616 4238 1336 4038 
Q 1056 3838 1056 3469 
Q 1056 3159 1242 3001 
Q 1428 2844 1947 2747 
L 2328 2669 
Q 3034 2534 3370 2195 
Q 3706 1856 3706 1288 
Q 3706 609 3251 259 
Q 2797 -91 1919 -91 
Q 1588 -91 1214 -16 
Q 841 59 441 206 
L 441 856 
Q 825 641 1194 531 
Q 1563 422 1919 422 
Q 2459 422 2753 634 
Q 3047 847 3047 1241 
Q 3047 1584 2836 1778 
Q 2625 1972 2144 2069 
L 1759 2144 
Q 1053 2284 737 2584 
Q 422 2884 422 3419 
Q 422 4038 858 4394 
Q 1294 4750 2059 4750 
Q 2388 4750 2728 4690 
Q 3069 4631 3425 4513 
z
" transform="scale(0.015625)"/>
       <path id="DejaVuSans-63" d="M 3122 3366 
L 3122 2828 
Q 2878 2963 2633 3030 
Q 2388 3097 2138 3097 
Q 1578 3097 1268 2742 
Q 959 2388 959 1747 
Q 959 1106 1268 751 
Q 1578 397 2138 397 
Q 2388 397 2633 464 
Q 2878 531 3122 666 
L 3122 134 
Q 2881 22 2623 -34 
Q 2366 -91 2075 -91 
Q 1284 -91 818 406 
Q 353 903 353 1747 
Q 353 2603 823 3093 
Q 1294 3584 2113 3584 
Q 2378 3584 2631 3529 
Q 2884 3475 3122 3366 
z
" transform="scale(0.015625)"/>
       <path id="DejaVuSans-6f" d="M 1959 3097 
Q 1497 3097 1228 2736 
Q 959 2375 959 1747 
Q 959 1119 1226 758 
Q 1494 397 1959 397 
Q 2419 397 2687 759 
Q 2956 1122 2956 1747 
Q 2956 2369 2687 2733 
Q 2419 3097 1959 3097 
z
M 1959 3584 
Q 2709 3584 3137 3096 
Q 3566 2609 3566 1747 
Q 3566 888 3137 398 
Q 2709 -91 1959 -91 
Q 1206 -91 779 398 
Q 353 888 353 1747 
Q 353 2609 779 3096 
Q 1206 3584 1959 3584 
z
" transform="scale(0.015625)"/>
       <path id="DejaVuSans-72" d="M 2631 2963 
Q 2534 3019 2420 3045 
Q 2306 3072 2169 3072 
Q 1681 3072 1420 2755 
Q 1159 2438 1159 1844 
L 1159 0 
L 581 0 
L 581 3500 
L 1159 3500 
L 1159 2956 
Q 1341 3275 1631 3429 
Q 1922 3584 2338 3584 
Q 2397 3584 2469 3576 
Q 2541 3569 2628 3553 
L 2631 2963 
z
" transform="scale(0.015625)"/>
       <path id="DejaVuSans-65" d="M 3597 1894 
L 3597 1613 
L 953 1613 
Q 991 1019 1311 708 
Q 1631 397 2203 397 
Q 2534 397 2845 478 
Q 3156 559 3463 722 
L 3463 178 
Q 3153 47 2828 -22 
Q 2503 -91 2169 -91 
Q 1331 -91 842 396 
Q 353 884 353 1716 
Q 353 2575 817 3079 
Q 1281 3584 2069 3584 
Q 2775 3584 3186 3129 
Q 3597 2675 3597 1894 
z
M 3022 2063 
Q 3016 2534 2758 2815 
Q 2500 3097 2075 3097 
Q 1594 3097 1305 2825 
Q 1016 2553 972 2059 
L 3022 2063 
z
" transform="scale(0.015625)"/>
      </defs>
      <use xlink:href="#DejaVuSans-53"/>
      <use xlink:href="#DejaVuSans-63" x="63.476562"/>
      <use xlink:href="#DejaVuSans-6f" x="118.457031"/>
      <use xlink:href="#DejaVuSans-72" x="179.638672"/>
      <use xlink:href="#DejaVuSans-65" x="218.501953"/>
     </g>
    </g>
   </g>
   <g id="matplotlib.axis_2">
    <g id="ytick_1">
     <g id="line2d_6">
      <defs>
       <path id="m85c83ef913" d="M 0 0 
L -3.5 0 
" style="stroke: #000000; stroke-width: 0.8"/>
      </defs>
      <g>
       <use xlink:href="#m85c83ef913" x="57.6" y="307.584" style="stroke: #000000; stroke-width: 0.8"/>
      </g>
     </g>
     <g id="text_7">
      <!-- 0 -->
      <g transform="translate(44.2375 311.383219)scale(0.1 -0.1)">
       <use xlink:href="#DejaVuSans-30"/>
      </g>
     </g>
    </g>
    <g id="ytick_2">
     <g id="line2d_7">
      <g>
       <use xlink:href="#m85c83ef913" x="57.6" y="272.384" style="stroke: #000000; stroke-width: 0.8"/>
      </g>
     </g>
     <g id="text_8">
      <!-- 25 -->
      <g transform="translate(37.875 276.183219)scale(0.1 -0.1)">
       <defs>
        <path id="DejaVuSans-35" d="M 691 4666 
L 3169 4666 
L 3169 4134 
L 1269 4134 
L 1269 2991 
Q 1406 3038 1543 3061 
Q 1681 3084 1819 3084 
Q 2600 3084 3056 2656 
Q 3513 2228 3513 1497 
Q 3513 744 3044 326 
Q 2575 -91 1722 -91 
Q 1428 -91 1123 -41 
Q 819 9 494 109 
L 494 744 
Q 775 591 1075 516 
Q 1375 441 1709 441 
Q 2250 441 2565 725 
Q 2881 1009 2881 1497 
Q 2881 1984 2565 2268 
Q 2250 2553 1709 2553 
Q 1456 2553 1204 2497 
Q 953 2441 691 2322 
L 691 4666 
z
" transform="scale(0.015625)"/>
       </defs>
       <use xlink:href="#DejaVuSans-32"/>
       <use xlink:href="#DejaVuSans-35" x="63.623047"/>
      </g>
     </g>
    </g>
    <g id="ytick_3">
     <g id="line2d_8">
      <g>
       <use xlink:href="#m85c83ef913" x="57.6" y="237.184" style="stroke: #000000; stroke-width: 0.8"/>
      </g>
     </g>
     <g id="text_9">
      <!-- 50 -->
      <g transform="translate(37.875 240.983219)scale(0.1 -0.1)">
       <use xlink:href="#DejaVuSans-35"/>
       <use xlink:href="#DejaVuSans-30" x="63.623047"/>
      </g>
     </g>
    </g>
    <g id="ytick_4">
     <g id="line2d_9">
      <g>
       <use xlink:href="#m85c83ef913" x="57.6" y="201.984" style="stroke: #000000; stroke-width: 0.8"/>
      </g>
     </g>
     <g id="text_10">
      <!-- 75 -->
      <g transform="translate(37.875 205.783219)scale(0.1 -0.1)">
       <defs>
        <path id="DejaVuSans-37" d="M 525 4666 
L 3525 4666 
L 3525 4397 
L 1831 0 
L 1172 0 
L 2766 4134 
L 525 4134 
L 525 4666 
z
" transform="scale(0.015625)"/>
       </defs>
       <use xlink:href="#DejaVuSans-37"/>
       <use xlink:href="#DejaVuSans-35" x="63.623047"/>
      </g>
     </g>
    </g>
    <g id="ytick_5">
     <g id="line2d_10">
      <g>
       <use xlink:href="#m85c83ef913" x="57.6" y="166.784" style="stroke: #000000; stroke-width: 0.8"/>
      </g>
     </g>
     <g id="text_11">
      <!-- 100 -->
      <g transform="translate(31.5125 170.583219)scale(0.1 -0.1)">
       <use xlink:href="#DejaVuSans-31"/>
       <use xlink:href="#DejaVuSans-30" x="63.623047"/>
       <use xlink:href="#DejaVuSans-30" x="127.246094"/>
      </g>
     </g>
    </g>
    <g id="ytick_6">
     <g id="line2d_11">
      <g>
       <use xlink:href="#m85c83ef913" x="57.6" y="131.584" style="stroke: #000000; stroke-width: 0.8"/>
      </g>
     </g>
     <g id="text_12">
      <!-- 125 -->
      <g transform="translate(31.5125 135.383219)scale(0.1 -0.1)">
       <use xlink:href="#DejaVuSans-31"/>
       <use xlink:href="#DejaVuSans-32" x="63.623047"/>
       <use xlink:href="#DejaVuSans-35" x="127.246094"/>
      </g>
     </g>
    </g>
    <g id="ytick_7">
     <g id="line2d_12">
      <g>
       <use xlink:href="#m85c83ef913" x="57.6" y="96.384" style="stroke: #000000; stroke-width: 0.8"/>
      </g>
     </g>
     <g id="text_13">
      <!-- 150 -->
      <g transform="translate(31.5125 100.183219)scale(0.1 -0.1)">
       <use xlink:href="#DejaVuSans-31"/>
       <use xlink:href="#DejaVuSans-35" x="63.623047"/>
       <use xlink:href="#DejaVuSans-30" x="127.246094"/>
      </g>
     </g>
    </g>
    <g id="ytick_8">
     <g id="line2d_13">
      <g>
       <use xlink:href="#m85c83ef913" x="57.6" y="61.184" style="stroke: #000000; stroke-width: 0.8"/>
      </g>
     </g>
     <g id="text_14">
      <!-- 175 -->
      <g transform="translate(31.5125 64.983219)scale(0.1 -0.1)">
       <use xlink:href="#DejaVuSans-31"/>
       <use xlink:href="#DejaVuSans-37" x="63.623047"/>
       <use xlink:href="#DejaVuSans-35" x="127.246094"/>
      </g>
     </g>
    </g>
    <g id="text_15">
     <!-- Number of crosslinks -->
     <g transform="translate(25.432812 227.019406)rotate(-90)scale(0.1 -0.1)">
      <defs>
       <path id="DejaVuSans-4e" d="M 628 4666 
L 1478 4666 
L 3547 763 
L 3547 4666 
L 4159 4666 
L 4159 0 
L 3309 0 
L 1241 3903 
L 1241 0 
L 628 0 
L 628 4666 
z
" transform="scale(0.015625)"/>
       <path id="DejaVuSans-75" d="M 544 1381 
L 544 3500 
L 1119 3500 
L 1119 1403 
Q 1119 906 1312 657 
Q 1506 409 1894 409 
Q 2359 409 2629 706 
Q 2900 1003 2900 1516 
L 2900 3500 
L 3475 3500 
L 3475 0 
L 2900 0 
L 2900 538 
Q 2691 219 2414 64 
Q 2138 -91 1772 -91 
Q 1169 -91 856 284 
Q 544 659 544 1381 
z
M 1991 3584 
L 1991 3584 
z
" transform="scale(0.015625)"/>
       <path id="DejaVuSans-6d" d="M 3328 2828 
Q 3544 3216 3844 3400 
Q 4144 3584 4550 3584 
Q 5097 3584 5394 3201 
Q 5691 2819 5691 2113 
L 5691 0 
L 5113 0 
L 5113 2094 
Q 5113 2597 4934 2840 
Q 4756 3084 4391 3084 
Q 3944 3084 3684 2787 
Q 3425 2491 3425 1978 
L 3425 0 
L 2847 0 
L 2847 2094 
Q 2847 2600 2669 2842 
Q 2491 3084 2119 3084 
Q 1678 3084 1418 2786 
Q 1159 2488 1159 1978 
L 1159 0 
L 581 0 
L 581 3500 
L 1159 3500 
L 1159 2956 
Q 1356 3278 1631 3431 
Q 1906 3584 2284 3584 
Q 2666 3584 2933 3390 
Q 3200 3197 3328 2828 
z
" transform="scale(0.015625)"/>
       <path id="DejaVuSans-62" d="M 3116 1747 
Q 3116 2381 2855 2742 
Q 2594 3103 2138 3103 
Q 1681 3103 1420 2742 
Q 1159 2381 1159 1747 
Q 1159 1113 1420 752 
Q 1681 391 2138 391 
Q 2594 391 2855 752 
Q 3116 1113 3116 1747 
z
M 1159 2969 
Q 1341 3281 1617 3432 
Q 1894 3584 2278 3584 
Q 2916 3584 3314 3078 
Q 3713 2572 3713 1747 
Q 3713 922 3314 415 
Q 2916 -91 2278 -91 
Q 1894 -91 1617 61 
Q 1341 213 1159 525 
L 1159 0 
L 581 0 
L 581 4863 
L 1159 4863 
L 1159 2969 
z
" transform="scale(0.015625)"/>
       <path id="DejaVuSans-20" transform="scale(0.015625)"/>
       <path id="DejaVuSans-66" d="M 2375 4863 
L 2375 4384 
L 1825 4384 
Q 1516 4384 1395 4259 
Q 1275 4134 1275 3809 
L 1275 3500 
L 2222 3500 
L 2222 3053 
L 1275 3053 
L 1275 0 
L 697 0 
L 697 3053 
L 147 3053 
L 147 3500 
L 697 3500 
L 697 3744 
Q 697 4328 969 4595 
Q 1241 4863 1831 4863 
L 2375 4863 
z
" transform="scale(0.015625)"/>
       <path id="DejaVuSans-73" d="M 2834 3397 
L 2834 2853 
Q 2591 2978 2328 3040 
Q 2066 3103 1784 3103 
Q 1356 3103 1142 2972 
Q 928 2841 928 2578 
Q 928 2378 1081 2264 
Q 1234 2150 1697 2047 
L 1894 2003 
Q 2506 1872 2764 1633 
Q 3022 1394 3022 966 
Q 3022 478 2636 193 
Q 2250 -91 1575 -91 
Q 1294 -91 989 -36 
Q 684 19 347 128 
L 347 722 
Q 666 556 975 473 
Q 1284 391 1588 391 
Q 1994 391 2212 530 
Q 2431 669 2431 922 
Q 2431 1156 2273 1281 
Q 2116 1406 1581 1522 
L 1381 1569 
Q 847 1681 609 1914 
Q 372 2147 372 2553 
Q 372 3047 722 3315 
Q 1072 3584 1716 3584 
Q 2034 3584 2315 3537 
Q 2597 3491 2834 3397 
z
" transform="scale(0.015625)"/>
       <path id="DejaVuSans-6c" d="M 603 4863 
L 1178 4863 
L 1178 0 
L 603 0 
L 603 4863 
z
" transform="scale(0.015625)"/>
       <path id="DejaVuSans-69" d="M 603 3500 
L 1178 3500 
L 1178 0 
L 603 0 
L 603 3500 
z
M 603 4863 
L 1178 4863 
L 1178 4134 
L 603 4134 
L 603 4863 
z
" transform="scale(0.015625)"/>
       <path id="DejaVuSans-6e" d="M 3513 2113 
L 3513 0 
L 2938 0 
L 2938 2094 
Q 2938 2591 2744 2837 
Q 2550 3084 2163 3084 
Q 1697 3084 1428 2787 
Q 1159 2491 1159 1978 
L 1159 0 
L 581 0 
L 581 3500 
L 1159 3500 
L 1159 2956 
Q 1366 3272 1645 3428 
Q 1925 3584 2291 3584 
Q 2894 3584 3203 3211 
Q 3513 2838 3513 2113 
z
" transform="scale(0.015625)"/>
       <path id="DejaVuSans-6b" d="M 581 4863 
L 1159 4863 
L 1159 1991 
L 2875 3500 
L 3609 3500 
L 1753 1863 
L 3688 0 
L 2938 0 
L 1159 1709 
L 1159 0 
L 581 0 
L 581 4863 
z
" transform="scale(0.015625)"/>
      </defs>
      <use xlink:href="#DejaVuSans-4e"/>
      <use xlink:href="#DejaVuSans-75" x="74.804688"/>
      <use xlink:href="#DejaVuSans-6d" x="138.183594"/>
      <use xlink:href="#DejaVuSans-62" x="235.595703"/>
      <use xlink:href="#DejaVuSans-65" x="299.072266"/>
      <use xlink:href="#DejaVuSans-72" x="360.595703"/>
      <use xlink:href="#DejaVuSans-20" x="401.708984"/>
      <use xlink:href="#DejaVuSans-6f" x="433.496094"/>
      <use xlink:href="#DejaVuSans-66" x="494.677734"/>
      <use xlink:href="#DejaVuSans-20" x="529.882812"/>
      <use xlink:href="#DejaVuSans-63" x="561.669922"/>
      <use xlink:href="#DejaVuSans-72" x="616.650391"/>
      <use xlink:href="#DejaVuSans-6f" x="655.513672"/>
      <use xlink:href="#DejaVuSans-73" x="716.695312"/>
      <use xlink:href="#DejaVuSans-73" x="768.794922"/>
      <use xlink:href="#DejaVuSans-6c" x="820.894531"/>
      <use xlink:href="#DejaVuSans-69" x="848.677734"/>
      <use xlink:href="#DejaVuSans-6e" x="876.460938"/>
      <use xlink:href="#DejaVuSans-6b" x="939.839844"/>
      <use xlink:href="#DejaVuSans-73" x="997.75"/>
     </g>
    </g>
   </g>
   <g id="patch_3">
    <path d="M 57.6 307.584 
L 57.6 41.472 
" style="fill: none; stroke: #000000; stroke-width: 0.8; stroke-linejoin: miter; stroke-linecap: square"/>
   </g>
   <g id="patch_4">
    <path d="M 414.72 307.584 
L 414.72 41.472 
" style="fill: none; stroke: #000000; stroke-width: 0.8; stroke-linejoin: miter; stroke-linecap: square"/>
   </g>
   <g id="patch_5">
    <path d="M 57.6 307.584 
L 414.72 307.584 
" style="fill: none; stroke: #000000; stroke-width: 0.8; stroke-linejoin: miter; stroke-linecap: square"/>
   </g>
   <g id="patch_6">
    <path d="M 57.6 41.472 
L 414.72 41.472 
" style="fill: none; stroke: #000000; stroke-width: 0.8; stroke-linejoin: miter; stroke-linecap: square"/>
   </g>
   <g id="legend_1">
    <g id="patch_7">
     <path d="M 293.087188 93.506375 
L 407.72 93.506375 
Q 409.72 93.506375 409.72 91.506375 
L 409.72 48.472 
Q 409.72 46.472 407.72 46.472 
L 293.087188 46.472 
Q 291.087188 46.472 291.087188 48.472 
L 291.087188 91.506375 
Q 291.087188 93.506375 293.087188 93.506375 
z
" style="fill: #ffffff; opacity: 0.8; stroke: #cccccc; stroke-linejoin: miter"/>
    </g>
    <g id="patch_8">
     <path d="M 295.087188 58.070438 
L 315.087188 58.070438 
L 315.087188 51.070438 
L 295.087188 51.070438 
z
" style="fill: #008000"/>
    </g>
    <g id="text_16">
     <!-- true -->
     <g transform="translate(323.087188 58.070438)scale(0.1 -0.1)">
      <defs>
       <path id="DejaVuSans-74" d="M 1172 4494 
L 1172 3500 
L 2356 3500 
L 2356 3053 
L 1172 3053 
L 1172 1153 
Q 1172 725 1289 603 
Q 1406 481 1766 481 
L 2356 481 
L 2356 0 
L 1766 0 
Q 1100 0 847 248 
Q 594 497 594 1153 
L 594 3053 
L 172 3053 
L 172 3500 
L 594 3500 
L 594 4494 
L 1172 4494 
z
" transform="scale(0.015625)"/>
      </defs>
      <use xlink:href="#DejaVuSans-74"/>
      <use xlink:href="#DejaVuSans-72" x="39.208984"/>
      <use xlink:href="#DejaVuSans-75" x="80.322266"/>
      <use xlink:href="#DejaVuSans-65" x="143.701172"/>
     </g>
    </g>
    <g id="patch_9">
     <path d="M 295.087188 72.748563 
L 315.087188 72.748563 
L 315.087188 65.748563 
L 295.087188 65.748563 
z
" style="fill: #7cfc00"/>
    </g>
    <g id="text_17">
     <!-- true homeotypic -->
     <g transform="translate(323.087188 72.748563)scale(0.1 -0.1)">
      <defs>
       <path id="DejaVuSans-68" d="M 3513 2113 
L 3513 0 
L 2938 0 
L 2938 2094 
Q 2938 2591 2744 2837 
Q 2550 3084 2163 3084 
Q 1697 3084 1428 2787 
Q 1159 2491 1159 1978 
L 1159 0 
L 581 0 
L 581 4863 
L 1159 4863 
L 1159 2956 
Q 1366 3272 1645 3428 
Q 1925 3584 2291 3584 
Q 2894 3584 3203 3211 
Q 3513 2838 3513 2113 
z
" transform="scale(0.015625)"/>
       <path id="DejaVuSans-79" d="M 2059 -325 
Q 1816 -950 1584 -1140 
Q 1353 -1331 966 -1331 
L 506 -1331 
L 506 -850 
L 844 -850 
Q 1081 -850 1212 -737 
Q 1344 -625 1503 -206 
L 1606 56 
L 191 3500 
L 800 3500 
L 1894 763 
L 2988 3500 
L 3597 3500 
L 2059 -325 
z
" transform="scale(0.015625)"/>
       <path id="DejaVuSans-70" d="M 1159 525 
L 1159 -1331 
L 581 -1331 
L 581 3500 
L 1159 3500 
L 1159 2969 
Q 1341 3281 1617 3432 
Q 1894 3584 2278 3584 
Q 2916 3584 3314 3078 
Q 3713 2572 3713 1747 
Q 3713 922 3314 415 
Q 2916 -91 2278 -91 
Q 1894 -91 1617 61 
Q 1341 213 1159 525 
z
M 3116 1747 
Q 3116 2381 2855 2742 
Q 2594 3103 2138 3103 
Q 1681 3103 1420 2742 
Q 1159 2381 1159 1747 
Q 1159 1113 1420 752 
Q 1681 391 2138 391 
Q 2594 391 2855 752 
Q 3116 1113 3116 1747 
z
" transform="scale(0.015625)"/>
      </defs>
      <use xlink:href="#DejaVuSans-74"/>
      <use xlink:href="#DejaVuSans-72" x="39.208984"/>
      <use xlink:href="#DejaVuSans-75" x="80.322266"/>
      <use xlink:href="#DejaVuSans-65" x="143.701172"/>
      <use xlink:href="#DejaVuSans-20" x="205.224609"/>
      <use xlink:href="#DejaVuSans-68" x="237.011719"/>
      <use xlink:href="#DejaVuSans-6f" x="300.390625"/>
      <use xlink:href="#DejaVuSans-6d" x="361.572266"/>
      <use xlink:href="#DejaVuSans-65" x="458.984375"/>
      <use xlink:href="#DejaVuSans-6f" x="520.507812"/>
      <use xlink:href="#DejaVuSans-74" x="581.689453"/>
      <use xlink:href="#DejaVuSans-79" x="620.898438"/>
      <use xlink:href="#DejaVuSans-70" x="680.078125"/>
      <use xlink:href="#DejaVuSans-69" x="743.554688"/>
      <use xlink:href="#DejaVuSans-63" x="771.337891"/>
     </g>
    </g>
    <g id="patch_10">
     <path d="M 295.087188 87.426688 
L 315.087188 87.426688 
L 315.087188 80.426688 
L 295.087188 80.426688 
z
" style="fill: #ff0000"/>
    </g>
    <g id="text_18">
     <!-- false -->
     <g transform="translate(323.087188 87.426688)scale(0.1 -0.1)">
      <defs>
       <path id="DejaVuSans-61" d="M 2194 1759 
Q 1497 1759 1228 1600 
Q 959 1441 959 1056 
Q 959 750 1161 570 
Q 1363 391 1709 391 
Q 2188 391 2477 730 
Q 2766 1069 2766 1631 
L 2766 1759 
L 2194 1759 
z
M 3341 1997 
L 3341 0 
L 2766 0 
L 2766 531 
Q 2569 213 2275 61 
Q 1981 -91 1556 -91 
Q 1019 -91 701 211 
Q 384 513 384 1019 
Q 384 1609 779 1909 
Q 1175 2209 1959 2209 
L 2766 2209 
L 2766 2266 
Q 2766 2663 2505 2880 
Q 2244 3097 1772 3097 
Q 1472 3097 1187 3025 
Q 903 2953 641 2809 
L 641 3341 
Q 956 3463 1253 3523 
Q 1550 3584 1831 3584 
Q 2591 3584 2966 3190 
Q 3341 2797 3341 1997 
z
" transform="scale(0.015625)"/>
      </defs>
      <use xlink:href="#DejaVuSans-66"/>
      <use xlink:href="#DejaVuSans-61" x="35.205078"/>
      <use xlink:href="#DejaVuSans-6c" x="96.484375"/>
      <use xlink:href="#DejaVuSans-73" x="124.267578"/>
      <use xlink:href="#DejaVuSans-65" x="176.367188"/>
     </g>
    </g>
   </g>
  </g>
 </g>
 <defs>
  <clipPath id="p5de31b9e32">
   <rect x="57.6" y="41.472" width="357.12" height="266.112"/>
  </clipPath>
 </defs>
</svg>
