<?xml version="1.0" encoding="utf-8" standalone="no"?>
<!DOCTYPE svg PUBLIC "-//W3C//DTD SVG 1.1//EN"
  "http://www.w3.org/Graphics/SVG/1.1/DTD/svg11.dtd">
<svg xmlns:xlink="http://www.w3.org/1999/xlink" width="460.8pt" height="345.6pt" viewBox="0 0 460.8 345.6" xmlns="http://www.w3.org/2000/svg" version="1.1">
 <metadata>
  <rdf:RDF xmlns:dc="http://purl.org/dc/elements/1.1/" xmlns:cc="http://creativecommons.org/ns#" xmlns:rdf="http://www.w3.org/1999/02/22-rdf-syntax-ns#">
   <cc:Work>
    <dc:type rdf:resource="http://purl.org/dc/dcmitype/StillImage"/>
    <dc:date>2022-07-21T13:31:06.492707</dc:date>
    <dc:format>image/svg+xml</dc:format>
    <dc:creator>
     <cc:Agent>
      <dc:title>Matplotlib v3.5.1, https://matplotlib.org/</dc:title>
     </cc:Agent>
    </dc:creator>
   </cc:Work>
  </rdf:RDF>
 </metadata>
 <defs>
  <style type="text/css">*{stroke-linejoin: round; stroke-linecap: butt}</style>
 </defs>
 <g id="figure_1">
  <g id="patch_1">
   <path d="M 0 345.6 
L 460.8 345.6 
L 460.8 0 
L 0 0 
z
" style="fill: #ffffff"/>
  </g>
  <g id="axes_1">
   <g id="patch_2">
    <path d="M 57.6 307.584 
L 414.72 307.584 
L 414.72 41.472 
L 57.6 41.472 
z
" style="fill: #ffffff"/>
   </g>
   <g id="PolyCollection_1">
    <path d="M 73.832727 109.275429 
L 73.832727 307.584 
L 73.880577 307.584 
L 73.998607 307.584 
L 74.052836 307.584 
L 74.368645 307.584 
L 74.381405 307.584 
L 74.477105 307.584 
L 74.524954 307.584 
L 74.563234 307.584 
L 75.424531 307.584 
L 75.481951 307.584 
L 75.61593 307.584 
L 76.040198 307.584 
L 76.148658 307.584 
L 76.356007 307.584 
L 76.407047 307.584 
L 76.509126 307.584 
L 76.684576 307.584 
L 76.729235 307.584 
L 77.118414 307.584 
L 77.166264 307.584 
L 77.328953 307.584 
L 77.590532 307.584 
L 77.884011 307.584 
L 78.07222 307.584 
L 78.0786 307.584 
L 78.1743 307.584 
L 78.735737 307.584 
L 78.764447 307.584 
L 79.029216 307.584 
L 79.223805 307.584 
L 79.412015 307.584 
L 79.644884 307.584 
L 80.002162 307.584 
L 80.046822 307.584 
L 80.212701 307.584 
L 80.343491 307.584 
L 80.933638 307.584 
L 80.965538 307.584 
L 81.297297 307.584 
L 81.533356 307.584 
L 81.558876 307.584 
L 81.763035 307.584 
L 82.184113 307.584 
L 82.362752 307.584 
L 82.397842 307.584 
L 82.732791 307.584 
L 82.91462 307.584 
L 83.182579 307.584 
L 83.239999 307.584 
L 83.434588 307.584 
L 83.571758 307.584 
L 83.779107 307.584 
L 83.932226 307.584 
L 84.142765 307.584 
L 84.538324 307.584 
L 84.812662 307.584 
L 85.29754 307.584 
L 85.562309 307.584 
L 85.951488 307.584 
L 87.020133 307.584 
L 87.128593 307.584 
L 87.546481 307.584 
L 87.654941 307.584 
L 87.7953 307.584 
L 87.95161 307.584 
L 88.229139 307.584 
L 88.337598 307.584 
L 88.522617 307.584 
L 88.608747 307.584 
L 88.634267 307.584 
L 88.720397 307.584 
L 88.742726 307.584 
L 88.828856 307.584 
L 88.847996 307.584 
L 89.007495 307.584 
L 89.316924 307.584 
L 89.431764 307.584 
L 89.441334 307.584 
L 89.741192 307.584 
L 90.184601 307.584 
L 90.618439 307.584 
L 90.905538 307.584 
L 91.036327 307.584 
L 91.368086 307.584 
L 91.738124 307.584 
L 91.792354 307.584 
L 91.830634 307.584 
L 92.408021 307.584 
L 92.77168 307.584 
L 92.84186 307.584 
L 93.106629 307.584 
L 93.138529 307.584 
L 93.154478 307.584 
L 93.275698 307.584 
L 94.127424 307.584 
L 94.146564 307.584 
L 94.283734 307.584 
L 94.318824 307.584 
L 94.867501 307.584 
L 95.097181 307.584 
L 95.483169 307.584 
L 96.220056 307.584 
L 96.727264 307.584 
L 97.103682 307.584 
L 97.60132 307.584 
L 97.888419 307.584 
L 98.105338 307.584 
L 98.296737 307.584 
L 98.877315 307.584 
L 99.024054 307.584 
L 99.330293 307.584 
L 99.834311 307.584 
L 100.10546 307.584 
L 100.19478 307.584 
L 100.21392 307.584 
L 100.612668 307.584 
L 101.448445 307.584 
L 101.528194 307.584 
L 102.415011 307.584 
L 102.52985 307.584 
L 102.59684 307.584 
L 102.705299 307.584 
L 103.215697 307.584 
L 103.888785 307.584 
L 104.332193 307.584 
L 104.95105 307.584 
L 105.250909 307.584 
L 105.506108 307.584 
L 105.560338 307.584 
L 106.070736 307.584 
L 106.182385 307.584 
L 106.294035 307.584 
L 106.762963 307.584 
L 107.180851 307.584 
L 107.54132 307.584 
L 107.707199 307.584 
L 108.488746 307.584 
L 108.549356 307.584 
L 108.571686 307.584 
L 108.849214 307.584 
L 108.935344 307.584 
L 109.381942 307.584 
L 109.691371 307.584 
L 110.619657 307.584 
L 111.334214 307.584 
L 112.31673 307.584 
L 112.47942 307.584 
L 113.107847 307.584 
L 113.162077 307.584 
L 113.296056 307.584 
L 114.023373 307.584 
L 114.332802 307.584 
L 115.541807 307.584 
L 115.576897 307.584 
L 116.122385 307.584 
L 116.256364 307.584 
L 116.316974 307.584 
L 116.320164 307.584 
L 116.718912 307.584 
L 117.17827 307.584 
L 117.34734 307.584 
L 117.825838 307.584 
L 118.798784 307.584 
L 118.872154 307.584 
L 119.041223 307.584 
L 120.553277 307.584 
L 120.929695 307.584 
L 121.082814 307.584 
L 121.685722 307.584 
L 122.674618 307.584 
L 123.216916 307.584 
L 123.357275 307.584 
L 123.998463 307.584 
L 124.55352 307.584 
L 124.58861 307.584 
L 125.386107 307.584 
L 126.483462 307.584 
L 126.780131 307.584 
L 126.789701 307.584 
L 127.06404 307.584 
L 127.784977 307.584 
L 128.537814 307.584 
L 128.722833 307.584 
L 128.901473 307.584 
L 129.054592 307.584 
L 129.070542 307.584 
L 129.50119 307.584 
L 129.667069 307.584 
L 129.883989 307.584 
L 129.973308 307.584 
L 130.238077 307.584 
L 130.419906 307.584 
L 131.568302 307.584 
L 132.116979 307.584 
L 132.375368 307.584 
L 133.316415 307.584 
L 134.094771 307.584 
L 134.809328 307.584 
L 137.986556 307.584 
L 138.091825 307.584 
L 140.471555 307.584 
L 140.500265 307.584 
L 140.835214 307.584 
L 141.246722 307.584 
L 141.383892 307.584 
L 141.498731 307.584 
L 142.127159 307.584 
L 143.230894 307.584 
L 143.514803 307.584 
L 143.687062 307.584 
L 144.073051 307.584 
L 144.880117 307.584 
L 145.524495 307.584 
L 145.830734 307.584 
L 145.913673 307.584 
L 145.945573 307.584 
L 145.996613 307.584 
L 146.449591 307.584 
L 146.500631 307.584 
L 147.145008 307.584 
L 147.416157 307.584 
L 147.795766 307.584 
L 147.885085 307.584 
L 148.124334 307.584 
L 148.197704 307.584 
L 148.500753 307.584 
L 148.663442 307.584 
L 148.883551 307.584 
L 148.966491 307.584 
L 150.271195 307.584 
L 150.293525 307.584 
L 150.685894 307.584 
L 150.960233 307.584 
L 151.043172 307.584 
L 151.343031 307.584 
L 152.721105 307.584 
L 152.772145 307.584 
L 153.059244 307.584 
L 155.831343 307.584 
L 156.970168 307.584 
L 157.018018 307.584 
L 157.183897 307.584 
L 158.089854 307.584 
L 159.078749 307.584 
L 159.550868 307.584 
L 159.665707 307.584 
L 161.35321 307.584 
L 162.074147 307.584 
L 162.099667 307.584 
L 162.144327 307.584 
L 162.265546 307.584 
L 164.160399 307.584 
L 166.029731 307.584 
L 166.495469 307.584 
L 167.123897 307.584 
L 168.198922 307.584 
L 168.514731 307.584 
L 168.70613 307.584 
L 169.245238 307.584 
L 171.11776 307.584 
L 172.518165 307.584 
L 172.833973 307.584 
L 175.714532 307.584 
L 177.239345 307.584 
L 178.170822 307.584 
L 180.209223 307.584 
L 181.223639 307.584 
L 181.947766 307.584 
L 183.762869 307.584 
L 184.241367 307.584 
L 184.805995 307.584 
L 185.670481 307.584 
L 196.698266 307.584 
L 197.326693 307.584 
L 197.942361 307.584 
L 198.29007 307.584 
L 203.559928 307.584 
L 204.194735 307.584 
L 206.083208 307.584 
L 210.44711 307.584 
L 212.013394 307.584 
L 222.69666 307.584 
L 223.171968 307.584 
L 228.301467 307.584 
L 229.9156 307.584 
L 232.997128 307.584 
L 240.126749 307.584 
L 244.190792 307.584 
L 245.760266 307.584 
L 249.62334 307.584 
L 250.596286 307.584 
L 252.17214 307.584 
L 255.371697 307.584 
L 255.537576 307.584 
L 258.405374 307.584 
L 263.525303 307.584 
L 263.646523 307.584 
L 281.165931 307.584 
L 283.83595 307.584 
L 315.168003 307.584 
L 331.822925 307.584 
L 352.318591 307.584 
L 353.559496 307.584 
L 398.487273 307.584 
L 398.487273 307.584 
L 398.487273 307.584 
L 353.559496 307.584 
L 352.318591 307.584 
L 331.822925 307.584 
L 315.168003 307.584 
L 283.83595 307.584 
L 281.165931 307.584 
L 263.646523 306.761143 
L 263.525303 305.938286 
L 258.405374 305.938286 
L 255.537576 305.938286 
L 255.371697 305.938286 
L 252.17214 305.115429 
L 250.596286 304.292571 
L 249.62334 304.292571 
L 245.760266 304.292571 
L 244.190792 304.292571 
L 240.126749 304.292571 
L 232.997128 304.292571 
L 229.9156 304.292571 
L 228.301467 304.292571 
L 223.171968 304.292571 
L 222.69666 304.292571 
L 212.013394 304.292571 
L 210.44711 303.469714 
L 206.083208 302.646857 
L 204.194735 302.646857 
L 203.559928 301.824 
L 198.29007 301.001143 
L 197.942361 300.178286 
L 197.326693 299.355429 
L 196.698266 298.532571 
L 185.670481 298.532571 
L 184.805995 297.709714 
L 184.241367 296.886857 
L 183.762869 296.064 
L 181.947766 295.241143 
L 181.223639 294.418286 
L 180.209223 294.418286 
L 178.170822 293.595429 
L 177.239345 292.772571 
L 175.714532 291.949714 
L 172.833973 291.949714 
L 172.518165 291.126857 
L 171.11776 291.126857 
L 169.245238 291.126857 
L 168.70613 290.304 
L 168.514731 289.481143 
L 168.198922 288.658286 
L 167.123897 287.835429 
L 166.495469 287.012571 
L 166.029731 286.189714 
L 164.160399 285.366857 
L 162.265546 285.366857 
L 162.144327 284.544 
L 162.099667 283.721143 
L 162.074147 282.898286 
L 161.35321 282.075429 
L 159.665707 281.252571 
L 159.550868 280.429714 
L 159.078749 279.606857 
L 158.089854 278.784 
L 157.183897 278.784 
L 157.018018 277.961143 
L 156.970168 277.138286 
L 155.831343 276.315429 
L 153.059244 275.492571 
L 152.772145 274.669714 
L 152.721105 273.846857 
L 151.343031 273.024 
L 151.043172 272.201143 
L 150.960233 271.378286 
L 150.685894 270.555429 
L 150.293525 269.732571 
L 150.271195 268.909714 
L 148.966491 268.909714 
L 148.883551 268.909714 
L 148.663442 268.086857 
L 148.500753 268.086857 
L 148.197704 267.264 
L 148.124334 266.441143 
L 147.885085 265.618286 
L 147.795766 264.795429 
L 147.416157 263.972571 
L 147.145008 263.149714 
L 146.500631 262.326857 
L 146.449591 261.504 
L 145.996613 260.681143 
L 145.945573 259.858286 
L 145.913673 259.035429 
L 145.830734 259.035429 
L 145.524495 258.212571 
L 144.880117 257.389714 
L 144.073051 256.566857 
L 143.687062 255.744 
L 143.514803 254.921143 
L 143.230894 254.098286 
L 142.127159 253.275429 
L 141.498731 252.452571 
L 141.383892 252.452571 
L 141.246722 251.629714 
L 140.835214 250.806857 
L 140.500265 249.984 
L 140.471555 249.161143 
L 138.091825 248.338286 
L 137.986556 247.515429 
L 134.809328 246.692571 
L 134.094771 245.869714 
L 133.316415 245.046857 
L 132.375368 244.224 
L 132.116979 243.401143 
L 131.568302 242.578286 
L 130.419906 241.755429 
L 130.238077 240.932571 
L 129.973308 240.109714 
L 129.883989 239.286857 
L 129.667069 238.464 
L 129.50119 237.641143 
L 129.070542 236.818286 
L 129.054592 235.995429 
L 128.901473 235.172571 
L 128.722833 234.349714 
L 128.537814 233.526857 
L 127.784977 232.704 
L 127.06404 231.881143 
L 126.789701 231.058286 
L 126.780131 230.235429 
L 126.483462 229.412571 
L 125.386107 228.589714 
L 124.58861 227.766857 
L 124.55352 226.944 
L 123.998463 226.121143 
L 123.357275 226.121143 
L 123.216916 225.298286 
L 122.674618 224.475429 
L 121.685722 223.652571 
L 121.082814 222.829714 
L 120.929695 222.006857 
L 120.553277 221.184 
L 119.041223 220.361143 
L 118.872154 219.538286 
L 118.798784 218.715429 
L 117.825838 217.892571 
L 117.34734 217.069714 
L 117.17827 216.246857 
L 116.718912 215.424 
L 116.320164 214.601143 
L 116.316974 213.778286 
L 116.256364 212.955429 
L 116.122385 212.132571 
L 115.576897 211.309714 
L 115.541807 210.486857 
L 114.332802 209.664 
L 114.023373 208.841143 
L 113.296056 208.018286 
L 113.162077 207.195429 
L 113.107847 206.372571 
L 112.47942 205.549714 
L 112.31673 205.549714 
L 111.334214 204.726857 
L 110.619657 203.904 
L 109.691371 203.081143 
L 109.381942 202.258286 
L 108.935344 201.435429 
L 108.849214 200.612571 
L 108.571686 199.789714 
L 108.549356 198.966857 
L 108.488746 198.144 
L 107.707199 197.321143 
L 107.54132 196.498286 
L 107.180851 195.675429 
L 106.762963 194.852571 
L 106.294035 194.029714 
L 106.182385 193.206857 
L 106.070736 192.384 
L 105.560338 191.561143 
L 105.506108 190.738286 
L 105.250909 190.738286 
L 104.95105 189.915429 
L 104.332193 189.092571 
L 103.888785 188.269714 
L 103.215697 187.446857 
L 102.705299 187.446857 
L 102.59684 186.624 
L 102.52985 185.801143 
L 102.415011 184.155429 
L 101.528194 183.332571 
L 101.448445 182.509714 
L 100.612668 181.686857 
L 100.21392 180.041143 
L 100.19478 179.218286 
L 100.10546 178.395429 
L 99.834311 178.395429 
L 99.330293 177.572571 
L 99.024054 176.749714 
L 98.877315 175.926857 
L 98.296737 175.926857 
L 98.105338 175.104 
L 97.888419 174.281143 
L 97.60132 173.458286 
L 97.103682 172.635429 
L 96.727264 171.812571 
L 96.220056 170.989714 
L 95.483169 170.166857 
L 95.097181 169.344 
L 94.867501 168.521143 
L 94.318824 167.698286 
L 94.283734 166.875429 
L 94.146564 166.052571 
L 94.127424 165.229714 
L 93.275698 164.406857 
L 93.154478 163.584 
L 93.138529 162.761143 
L 93.106629 161.938286 
L 92.84186 161.115429 
L 92.77168 160.292571 
L 92.408021 160.292571 
L 91.830634 159.469714 
L 91.792354 158.646857 
L 91.738124 157.824 
L 91.368086 157.001143 
L 91.036327 156.178286 
L 90.905538 155.355429 
L 90.618439 154.532571 
L 90.184601 153.709714 
L 89.741192 152.886857 
L 89.441334 152.064 
L 89.431764 151.241143 
L 89.316924 150.418286 
L 89.007495 149.595429 
L 88.847996 148.772571 
L 88.828856 147.949714 
L 88.742726 147.126857 
L 88.720397 146.304 
L 88.634267 145.481143 
L 88.608747 144.658286 
L 88.522617 143.835429 
L 88.337598 143.012571 
L 88.229139 142.189714 
L 87.95161 141.366857 
L 87.7953 140.544 
L 87.654941 139.721143 
L 87.546481 138.898286 
L 87.128593 138.898286 
L 87.020133 138.075429 
L 85.951488 137.252571 
L 85.562309 136.429714 
L 85.29754 136.429714 
L 84.812662 135.606857 
L 84.538324 135.606857 
L 84.142765 134.784 
L 83.932226 133.961143 
L 83.779107 133.138286 
L 83.571758 133.138286 
L 83.434588 133.138286 
L 83.239999 133.138286 
L 83.182579 132.315429 
L 82.91462 131.492571 
L 82.732791 130.669714 
L 82.397842 129.846857 
L 82.362752 129.024 
L 82.184113 128.201143 
L 81.763035 127.378286 
L 81.558876 127.378286 
L 81.533356 126.555429 
L 81.297297 125.732571 
L 80.965538 125.732571 
L 80.933638 125.732571 
L 80.343491 125.732571 
L 80.212701 124.909714 
L 80.046822 124.086857 
L 80.002162 123.264 
L 79.644884 122.441143 
L 79.412015 121.618286 
L 79.223805 120.795429 
L 79.029216 120.795429 
L 78.764447 119.972571 
L 78.735737 119.149714 
L 78.1743 118.326857 
L 78.0786 117.504 
L 78.07222 116.681143 
L 77.884011 116.681143 
L 77.590532 115.858286 
L 77.328953 115.858286 
L 77.166264 115.858286 
L 77.118414 115.035429 
L 76.729235 115.035429 
L 76.684576 115.035429 
L 76.509126 114.212571 
L 76.407047 114.212571 
L 76.356007 114.212571 
L 76.148658 114.212571 
L 76.040198 114.212571 
L 75.61593 114.212571 
L 75.481951 114.212571 
L 75.424531 114.212571 
L 74.563234 114.212571 
L 74.524954 113.389714 
L 74.477105 113.389714 
L 74.381405 112.566857 
L 74.368645 111.744 
L 74.052836 110.921143 
L 73.998607 110.098286 
L 73.880577 110.098286 
L 73.832727 109.275429 
z
" clip-path="url(#p500362898a)" style="fill: #008000"/>
   </g>
   <g id="PolyCollection_2">
    <path d="M 73.832727 74.715429 
L 73.832727 109.275429 
L 73.880577 110.098286 
L 73.998607 110.098286 
L 74.052836 110.921143 
L 74.368645 111.744 
L 74.381405 112.566857 
L 74.477105 113.389714 
L 74.524954 113.389714 
L 74.563234 114.212571 
L 75.424531 114.212571 
L 75.481951 114.212571 
L 75.61593 114.212571 
L 76.040198 114.212571 
L 76.148658 114.212571 
L 76.356007 114.212571 
L 76.407047 114.212571 
L 76.509126 114.212571 
L 76.684576 115.035429 
L 76.729235 115.035429 
L 77.118414 115.035429 
L 77.166264 115.858286 
L 77.328953 115.858286 
L 77.590532 115.858286 
L 77.884011 116.681143 
L 78.07222 116.681143 
L 78.0786 117.504 
L 78.1743 118.326857 
L 78.735737 119.149714 
L 78.764447 119.972571 
L 79.029216 120.795429 
L 79.223805 120.795429 
L 79.412015 121.618286 
L 79.644884 122.441143 
L 80.002162 123.264 
L 80.046822 124.086857 
L 80.212701 124.909714 
L 80.343491 125.732571 
L 80.933638 125.732571 
L 80.965538 125.732571 
L 81.297297 125.732571 
L 81.533356 126.555429 
L 81.558876 127.378286 
L 81.763035 127.378286 
L 82.184113 128.201143 
L 82.362752 129.024 
L 82.397842 129.846857 
L 82.732791 130.669714 
L 82.91462 131.492571 
L 83.182579 132.315429 
L 83.239999 133.138286 
L 83.434588 133.138286 
L 83.571758 133.138286 
L 83.779107 133.138286 
L 83.932226 133.961143 
L 84.142765 134.784 
L 84.538324 135.606857 
L 84.812662 135.606857 
L 85.29754 136.429714 
L 85.562309 136.429714 
L 85.951488 137.252571 
L 87.020133 138.075429 
L 87.128593 138.898286 
L 87.546481 138.898286 
L 87.654941 139.721143 
L 87.7953 140.544 
L 87.95161 141.366857 
L 88.229139 142.189714 
L 88.337598 143.012571 
L 88.522617 143.835429 
L 88.608747 144.658286 
L 88.634267 145.481143 
L 88.720397 146.304 
L 88.742726 147.126857 
L 88.828856 147.949714 
L 88.847996 148.772571 
L 89.007495 149.595429 
L 89.316924 150.418286 
L 89.431764 151.241143 
L 89.441334 152.064 
L 89.741192 152.886857 
L 90.184601 153.709714 
L 90.618439 154.532571 
L 90.905538 155.355429 
L 91.036327 156.178286 
L 91.368086 157.001143 
L 91.738124 157.824 
L 91.792354 158.646857 
L 91.830634 159.469714 
L 92.408021 160.292571 
L 92.77168 160.292571 
L 92.84186 161.115429 
L 93.106629 161.938286 
L 93.138529 162.761143 
L 93.154478 163.584 
L 93.275698 164.406857 
L 94.127424 165.229714 
L 94.146564 166.052571 
L 94.283734 166.875429 
L 94.318824 167.698286 
L 94.867501 168.521143 
L 95.097181 169.344 
L 95.483169 170.166857 
L 96.220056 170.989714 
L 96.727264 171.812571 
L 97.103682 172.635429 
L 97.60132 173.458286 
L 97.888419 174.281143 
L 98.105338 175.104 
L 98.296737 175.926857 
L 98.877315 175.926857 
L 99.024054 176.749714 
L 99.330293 177.572571 
L 99.834311 178.395429 
L 100.10546 178.395429 
L 100.19478 179.218286 
L 100.21392 180.041143 
L 100.612668 181.686857 
L 101.448445 182.509714 
L 101.528194 183.332571 
L 102.415011 184.155429 
L 102.52985 185.801143 
L 102.59684 186.624 
L 102.705299 187.446857 
L 103.215697 187.446857 
L 103.888785 188.269714 
L 104.332193 189.092571 
L 104.95105 189.915429 
L 105.250909 190.738286 
L 105.506108 190.738286 
L 105.560338 191.561143 
L 106.070736 192.384 
L 106.182385 193.206857 
L 106.294035 194.029714 
L 106.762963 194.852571 
L 107.180851 195.675429 
L 107.54132 196.498286 
L 107.707199 197.321143 
L 108.488746 198.144 
L 108.549356 198.966857 
L 108.571686 199.789714 
L 108.849214 200.612571 
L 108.935344 201.435429 
L 109.381942 202.258286 
L 109.691371 203.081143 
L 110.619657 203.904 
L 111.334214 204.726857 
L 112.31673 205.549714 
L 112.47942 205.549714 
L 113.107847 206.372571 
L 113.162077 207.195429 
L 113.296056 208.018286 
L 114.023373 208.841143 
L 114.332802 209.664 
L 115.541807 210.486857 
L 115.576897 211.309714 
L 116.122385 212.132571 
L 116.256364 212.955429 
L 116.316974 213.778286 
L 116.320164 214.601143 
L 116.718912 215.424 
L 117.17827 216.246857 
L 117.34734 217.069714 
L 117.825838 217.892571 
L 118.798784 218.715429 
L 118.872154 219.538286 
L 119.041223 220.361143 
L 120.553277 221.184 
L 120.929695 222.006857 
L 121.082814 222.829714 
L 121.685722 223.652571 
L 122.674618 224.475429 
L 123.216916 225.298286 
L 123.357275 226.121143 
L 123.998463 226.121143 
L 124.55352 226.944 
L 124.58861 227.766857 
L 125.386107 228.589714 
L 126.483462 229.412571 
L 126.780131 230.235429 
L 126.789701 231.058286 
L 127.06404 231.881143 
L 127.784977 232.704 
L 128.537814 233.526857 
L 128.722833 234.349714 
L 128.901473 235.172571 
L 129.054592 235.995429 
L 129.070542 236.818286 
L 129.50119 237.641143 
L 129.667069 238.464 
L 129.883989 239.286857 
L 129.973308 240.109714 
L 130.238077 240.932571 
L 130.419906 241.755429 
L 131.568302 242.578286 
L 132.116979 243.401143 
L 132.375368 244.224 
L 133.316415 245.046857 
L 134.094771 245.869714 
L 134.809328 246.692571 
L 137.986556 247.515429 
L 138.091825 248.338286 
L 140.471555 249.161143 
L 140.500265 249.984 
L 140.835214 250.806857 
L 141.246722 251.629714 
L 141.383892 252.452571 
L 141.498731 252.452571 
L 142.127159 253.275429 
L 143.230894 254.098286 
L 143.514803 254.921143 
L 143.687062 255.744 
L 144.073051 256.566857 
L 144.880117 257.389714 
L 145.524495 258.212571 
L 145.830734 259.035429 
L 145.913673 259.035429 
L 145.945573 259.858286 
L 145.996613 260.681143 
L 146.449591 261.504 
L 146.500631 262.326857 
L 147.145008 263.149714 
L 147.416157 263.972571 
L 147.795766 264.795429 
L 147.885085 265.618286 
L 148.124334 266.441143 
L 148.197704 267.264 
L 148.500753 268.086857 
L 148.663442 268.086857 
L 148.883551 268.909714 
L 148.966491 268.909714 
L 150.271195 268.909714 
L 150.293525 269.732571 
L 150.685894 270.555429 
L 150.960233 271.378286 
L 151.043172 272.201143 
L 151.343031 273.024 
L 152.721105 273.846857 
L 152.772145 274.669714 
L 153.059244 275.492571 
L 155.831343 276.315429 
L 156.970168 277.138286 
L 157.018018 277.961143 
L 157.183897 278.784 
L 158.089854 278.784 
L 159.078749 279.606857 
L 159.550868 280.429714 
L 159.665707 281.252571 
L 161.35321 282.075429 
L 162.074147 282.898286 
L 162.099667 283.721143 
L 162.144327 284.544 
L 162.265546 285.366857 
L 164.160399 285.366857 
L 166.029731 286.189714 
L 166.495469 287.012571 
L 167.123897 287.835429 
L 168.198922 288.658286 
L 168.514731 289.481143 
L 168.70613 290.304 
L 169.245238 291.126857 
L 171.11776 291.126857 
L 172.518165 291.126857 
L 172.833973 291.949714 
L 175.714532 291.949714 
L 177.239345 292.772571 
L 178.170822 293.595429 
L 180.209223 294.418286 
L 181.223639 294.418286 
L 181.947766 295.241143 
L 183.762869 296.064 
L 184.241367 296.886857 
L 184.805995 297.709714 
L 185.670481 298.532571 
L 196.698266 298.532571 
L 197.326693 299.355429 
L 197.942361 300.178286 
L 198.29007 301.001143 
L 203.559928 301.824 
L 204.194735 302.646857 
L 206.083208 302.646857 
L 210.44711 303.469714 
L 212.013394 304.292571 
L 222.69666 304.292571 
L 223.171968 304.292571 
L 228.301467 304.292571 
L 229.9156 304.292571 
L 232.997128 304.292571 
L 240.126749 304.292571 
L 244.190792 304.292571 
L 245.760266 304.292571 
L 249.62334 304.292571 
L 250.596286 304.292571 
L 252.17214 305.115429 
L 255.371697 305.938286 
L 255.537576 305.938286 
L 258.405374 305.938286 
L 263.525303 305.938286 
L 263.646523 306.761143 
L 281.165931 307.584 
L 283.83595 307.584 
L 315.168003 307.584 
L 331.822925 307.584 
L 352.318591 307.584 
L 353.559496 307.584 
L 398.487273 307.584 
L 398.487273 306.761143 
L 398.487273 306.761143 
L 353.559496 305.938286 
L 352.318591 305.115429 
L 331.822925 304.292571 
L 315.168003 303.469714 
L 283.83595 302.646857 
L 281.165931 301.824 
L 263.646523 301.001143 
L 263.525303 300.178286 
L 258.405374 299.355429 
L 255.537576 298.532571 
L 255.371697 297.709714 
L 252.17214 296.886857 
L 250.596286 296.064 
L 249.62334 295.241143 
L 245.760266 294.418286 
L 244.190792 293.595429 
L 240.126749 292.772571 
L 232.997128 291.949714 
L 229.9156 291.126857 
L 228.301467 290.304 
L 223.171968 289.481143 
L 222.69666 288.658286 
L 212.013394 287.835429 
L 210.44711 287.012571 
L 206.083208 286.189714 
L 204.194735 285.366857 
L 203.559928 284.544 
L 198.29007 283.721143 
L 197.942361 282.898286 
L 197.326693 282.075429 
L 196.698266 281.252571 
L 185.670481 280.429714 
L 184.805995 279.606857 
L 184.241367 278.784 
L 183.762869 277.961143 
L 181.947766 277.138286 
L 181.223639 276.315429 
L 180.209223 275.492571 
L 178.170822 274.669714 
L 177.239345 273.846857 
L 175.714532 273.024 
L 172.833973 272.201143 
L 172.518165 271.378286 
L 171.11776 270.555429 
L 169.245238 269.732571 
L 168.70613 268.909714 
L 168.514731 268.086857 
L 168.198922 267.264 
L 167.123897 266.441143 
L 166.495469 265.618286 
L 166.029731 264.795429 
L 164.160399 263.972571 
L 162.265546 263.149714 
L 162.144327 262.326857 
L 162.099667 261.504 
L 162.074147 260.681143 
L 161.35321 259.858286 
L 159.665707 259.035429 
L 159.550868 258.212571 
L 159.078749 257.389714 
L 158.089854 256.566857 
L 157.183897 255.744 
L 157.018018 254.921143 
L 156.970168 254.098286 
L 155.831343 253.275429 
L 153.059244 252.452571 
L 152.772145 251.629714 
L 152.721105 250.806857 
L 151.343031 249.984 
L 151.043172 249.161143 
L 150.960233 248.338286 
L 150.685894 247.515429 
L 150.293525 246.692571 
L 150.271195 245.869714 
L 148.966491 245.046857 
L 148.883551 244.224 
L 148.663442 243.401143 
L 148.500753 242.578286 
L 148.197704 241.755429 
L 148.124334 240.932571 
L 147.885085 240.109714 
L 147.795766 239.286857 
L 147.416157 238.464 
L 147.145008 237.641143 
L 146.500631 236.818286 
L 146.449591 235.995429 
L 145.996613 235.172571 
L 145.945573 234.349714 
L 145.913673 233.526857 
L 145.830734 232.704 
L 145.524495 231.881143 
L 144.880117 231.058286 
L 144.073051 230.235429 
L 143.687062 229.412571 
L 143.514803 228.589714 
L 143.230894 227.766857 
L 142.127159 226.944 
L 141.498731 226.121143 
L 141.383892 225.298286 
L 141.246722 224.475429 
L 140.835214 223.652571 
L 140.500265 222.829714 
L 140.471555 222.006857 
L 138.091825 221.184 
L 137.986556 220.361143 
L 134.809328 219.538286 
L 134.094771 218.715429 
L 133.316415 217.892571 
L 132.375368 217.069714 
L 132.116979 216.246857 
L 131.568302 215.424 
L 130.419906 214.601143 
L 130.238077 213.778286 
L 129.973308 212.955429 
L 129.883989 212.132571 
L 129.667069 211.309714 
L 129.50119 210.486857 
L 129.070542 209.664 
L 129.054592 208.841143 
L 128.901473 208.018286 
L 128.722833 207.195429 
L 128.537814 206.372571 
L 127.784977 205.549714 
L 127.06404 204.726857 
L 126.789701 203.904 
L 126.780131 203.081143 
L 126.483462 202.258286 
L 125.386107 201.435429 
L 124.58861 200.612571 
L 124.55352 199.789714 
L 123.998463 198.966857 
L 123.357275 198.144 
L 123.216916 197.321143 
L 122.674618 196.498286 
L 121.685722 195.675429 
L 121.082814 194.852571 
L 120.929695 194.029714 
L 120.553277 193.206857 
L 119.041223 192.384 
L 118.872154 191.561143 
L 118.798784 190.738286 
L 117.825838 189.915429 
L 117.34734 189.092571 
L 117.17827 188.269714 
L 116.718912 187.446857 
L 116.320164 186.624 
L 116.316974 185.801143 
L 116.256364 184.978286 
L 116.122385 184.155429 
L 115.576897 183.332571 
L 115.541807 182.509714 
L 114.332802 181.686857 
L 114.023373 180.864 
L 113.296056 180.041143 
L 113.162077 179.218286 
L 113.107847 178.395429 
L 112.47942 177.572571 
L 112.31673 176.749714 
L 111.334214 175.926857 
L 110.619657 175.104 
L 109.691371 174.281143 
L 109.381942 173.458286 
L 108.935344 172.635429 
L 108.849214 171.812571 
L 108.571686 170.989714 
L 108.549356 170.166857 
L 108.488746 169.344 
L 107.707199 168.521143 
L 107.54132 167.698286 
L 107.180851 166.875429 
L 106.762963 166.052571 
L 106.294035 165.229714 
L 106.182385 164.406857 
L 106.070736 163.584 
L 105.560338 162.761143 
L 105.506108 161.938286 
L 105.250909 161.115429 
L 104.95105 160.292571 
L 104.332193 159.469714 
L 103.888785 158.646857 
L 103.215697 157.824 
L 102.705299 157.824 
L 102.59684 157.001143 
L 102.52985 156.178286 
L 102.415011 154.532571 
L 101.528194 153.709714 
L 101.448445 152.886857 
L 100.612668 152.064 
L 100.21392 150.418286 
L 100.19478 149.595429 
L 100.10546 148.772571 
L 99.834311 147.949714 
L 99.330293 147.126857 
L 99.024054 146.304 
L 98.877315 145.481143 
L 98.296737 144.658286 
L 98.105338 143.835429 
L 97.888419 143.012571 
L 97.60132 142.189714 
L 97.103682 141.366857 
L 96.727264 140.544 
L 96.220056 139.721143 
L 95.483169 138.898286 
L 95.097181 138.075429 
L 94.867501 137.252571 
L 94.318824 136.429714 
L 94.283734 135.606857 
L 94.146564 134.784 
L 94.127424 133.961143 
L 93.275698 133.138286 
L 93.154478 132.315429 
L 93.138529 131.492571 
L 93.106629 130.669714 
L 92.84186 129.846857 
L 92.77168 129.024 
L 92.408021 129.024 
L 91.830634 128.201143 
L 91.792354 127.378286 
L 91.738124 126.555429 
L 91.368086 125.732571 
L 91.036327 124.909714 
L 90.905538 124.086857 
L 90.618439 123.264 
L 90.184601 122.441143 
L 89.741192 121.618286 
L 89.441334 120.795429 
L 89.431764 119.972571 
L 89.316924 119.149714 
L 89.007495 118.326857 
L 88.847996 117.504 
L 88.828856 116.681143 
L 88.742726 115.858286 
L 88.720397 115.035429 
L 88.634267 114.212571 
L 88.608747 113.389714 
L 88.522617 112.566857 
L 88.337598 111.744 
L 88.229139 110.921143 
L 87.95161 110.098286 
L 87.7953 109.275429 
L 87.654941 108.452571 
L 87.546481 107.629714 
L 87.128593 107.629714 
L 87.020133 106.806857 
L 85.951488 105.984 
L 85.562309 105.161143 
L 85.29754 105.161143 
L 84.812662 104.338286 
L 84.538324 104.338286 
L 84.142765 103.515429 
L 83.932226 102.692571 
L 83.779107 101.869714 
L 83.571758 101.869714 
L 83.434588 101.046857 
L 83.239999 101.046857 
L 83.182579 100.224 
L 82.91462 99.401143 
L 82.732791 98.578286 
L 82.397842 97.755429 
L 82.362752 96.932571 
L 82.184113 96.109714 
L 81.763035 95.286857 
L 81.558876 95.286857 
L 81.533356 94.464 
L 81.297297 93.641143 
L 80.965538 93.641143 
L 80.933638 93.641143 
L 80.343491 93.641143 
L 80.212701 92.818286 
L 80.046822 91.995429 
L 80.002162 91.172571 
L 79.644884 90.349714 
L 79.412015 89.526857 
L 79.223805 88.704 
L 79.029216 87.881143 
L 78.764447 87.058286 
L 78.735737 86.235429 
L 78.1743 85.412571 
L 78.0786 84.589714 
L 78.07222 83.766857 
L 77.884011 83.766857 
L 77.590532 82.944 
L 77.328953 82.944 
L 77.166264 82.121143 
L 77.118414 81.298286 
L 76.729235 81.298286 
L 76.684576 81.298286 
L 76.509126 79.652571 
L 76.407047 79.652571 
L 76.356007 79.652571 
L 76.148658 79.652571 
L 76.040198 79.652571 
L 75.61593 79.652571 
L 75.481951 79.652571 
L 75.424531 79.652571 
L 74.563234 79.652571 
L 74.524954 78.829714 
L 74.477105 78.829714 
L 74.381405 78.006857 
L 74.368645 77.184 
L 74.052836 76.361143 
L 73.998607 75.538286 
L 73.880577 75.538286 
L 73.832727 74.715429 
z
" clip-path="url(#p500362898a)" style="fill: #7cfc00"/>
   </g>
   <g id="PolyCollection_3">
    <path d="M 73.832727 54.144 
L 73.832727 74.715429 
L 73.880577 75.538286 
L 73.998607 75.538286 
L 74.052836 76.361143 
L 74.368645 77.184 
L 74.381405 78.006857 
L 74.477105 78.829714 
L 74.524954 78.829714 
L 74.563234 79.652571 
L 75.424531 79.652571 
L 75.481951 79.652571 
L 75.61593 79.652571 
L 76.040198 79.652571 
L 76.148658 79.652571 
L 76.356007 79.652571 
L 76.407047 79.652571 
L 76.509126 79.652571 
L 76.684576 81.298286 
L 76.729235 81.298286 
L 77.118414 81.298286 
L 77.166264 82.121143 
L 77.328953 82.944 
L 77.590532 82.944 
L 77.884011 83.766857 
L 78.07222 83.766857 
L 78.0786 84.589714 
L 78.1743 85.412571 
L 78.735737 86.235429 
L 78.764447 87.058286 
L 79.029216 87.881143 
L 79.223805 88.704 
L 79.412015 89.526857 
L 79.644884 90.349714 
L 80.002162 91.172571 
L 80.046822 91.995429 
L 80.212701 92.818286 
L 80.343491 93.641143 
L 80.933638 93.641143 
L 80.965538 93.641143 
L 81.297297 93.641143 
L 81.533356 94.464 
L 81.558876 95.286857 
L 81.763035 95.286857 
L 82.184113 96.109714 
L 82.362752 96.932571 
L 82.397842 97.755429 
L 82.732791 98.578286 
L 82.91462 99.401143 
L 83.182579 100.224 
L 83.239999 101.046857 
L 83.434588 101.046857 
L 83.571758 101.869714 
L 83.779107 101.869714 
L 83.932226 102.692571 
L 84.142765 103.515429 
L 84.538324 104.338286 
L 84.812662 104.338286 
L 85.29754 105.161143 
L 85.562309 105.161143 
L 85.951488 105.984 
L 87.020133 106.806857 
L 87.128593 107.629714 
L 87.546481 107.629714 
L 87.654941 108.452571 
L 87.7953 109.275429 
L 87.95161 110.098286 
L 88.229139 110.921143 
L 88.337598 111.744 
L 88.522617 112.566857 
L 88.608747 113.389714 
L 88.634267 114.212571 
L 88.720397 115.035429 
L 88.742726 115.858286 
L 88.828856 116.681143 
L 88.847996 117.504 
L 89.007495 118.326857 
L 89.316924 119.149714 
L 89.431764 119.972571 
L 89.441334 120.795429 
L 89.741192 121.618286 
L 90.184601 122.441143 
L 90.618439 123.264 
L 90.905538 124.086857 
L 91.036327 124.909714 
L 91.368086 125.732571 
L 91.738124 126.555429 
L 91.792354 127.378286 
L 91.830634 128.201143 
L 92.408021 129.024 
L 92.77168 129.024 
L 92.84186 129.846857 
L 93.106629 130.669714 
L 93.138529 131.492571 
L 93.154478 132.315429 
L 93.275698 133.138286 
L 94.127424 133.961143 
L 94.146564 134.784 
L 94.283734 135.606857 
L 94.318824 136.429714 
L 94.867501 137.252571 
L 95.097181 138.075429 
L 95.483169 138.898286 
L 96.220056 139.721143 
L 96.727264 140.544 
L 97.103682 141.366857 
L 97.60132 142.189714 
L 97.888419 143.012571 
L 98.105338 143.835429 
L 98.296737 144.658286 
L 98.877315 145.481143 
L 99.024054 146.304 
L 99.330293 147.126857 
L 99.834311 147.949714 
L 100.10546 148.772571 
L 100.19478 149.595429 
L 100.21392 150.418286 
L 100.612668 152.064 
L 101.448445 152.886857 
L 101.528194 153.709714 
L 102.415011 154.532571 
L 102.52985 156.178286 
L 102.59684 157.001143 
L 102.705299 157.824 
L 103.215697 157.824 
L 103.888785 158.646857 
L 104.332193 159.469714 
L 104.95105 160.292571 
L 105.250909 161.115429 
L 105.506108 161.938286 
L 105.560338 162.761143 
L 106.070736 163.584 
L 106.182385 164.406857 
L 106.294035 165.229714 
L 106.762963 166.052571 
L 107.180851 166.875429 
L 107.54132 167.698286 
L 107.707199 168.521143 
L 108.488746 169.344 
L 108.549356 170.166857 
L 108.571686 170.989714 
L 108.849214 171.812571 
L 108.935344 172.635429 
L 109.381942 173.458286 
L 109.691371 174.281143 
L 110.619657 175.104 
L 111.334214 175.926857 
L 112.31673 176.749714 
L 112.47942 177.572571 
L 113.107847 178.395429 
L 113.162077 179.218286 
L 113.296056 180.041143 
L 114.023373 180.864 
L 114.332802 181.686857 
L 115.541807 182.509714 
L 115.576897 183.332571 
L 116.122385 184.155429 
L 116.256364 184.978286 
L 116.316974 185.801143 
L 116.320164 186.624 
L 116.718912 187.446857 
L 117.17827 188.269714 
L 117.34734 189.092571 
L 117.825838 189.915429 
L 118.798784 190.738286 
L 118.872154 191.561143 
L 119.041223 192.384 
L 120.553277 193.206857 
L 120.929695 194.029714 
L 121.082814 194.852571 
L 121.685722 195.675429 
L 122.674618 196.498286 
L 123.216916 197.321143 
L 123.357275 198.144 
L 123.998463 198.966857 
L 124.55352 199.789714 
L 124.58861 200.612571 
L 125.386107 201.435429 
L 126.483462 202.258286 
L 126.780131 203.081143 
L 126.789701 203.904 
L 127.06404 204.726857 
L 127.784977 205.549714 
L 128.537814 206.372571 
L 128.722833 207.195429 
L 128.901473 208.018286 
L 129.054592 208.841143 
L 129.070542 209.664 
L 129.50119 210.486857 
L 129.667069 211.309714 
L 129.883989 212.132571 
L 129.973308 212.955429 
L 130.238077 213.778286 
L 130.419906 214.601143 
L 131.568302 215.424 
L 132.116979 216.246857 
L 132.375368 217.069714 
L 133.316415 217.892571 
L 134.094771 218.715429 
L 134.809328 219.538286 
L 137.986556 220.361143 
L 138.091825 221.184 
L 140.471555 222.006857 
L 140.500265 222.829714 
L 140.835214 223.652571 
L 141.246722 224.475429 
L 141.383892 225.298286 
L 141.498731 226.121143 
L 142.127159 226.944 
L 143.230894 227.766857 
L 143.514803 228.589714 
L 143.687062 229.412571 
L 144.073051 230.235429 
L 144.880117 231.058286 
L 145.524495 231.881143 
L 145.830734 232.704 
L 145.913673 233.526857 
L 145.945573 234.349714 
L 145.996613 235.172571 
L 146.449591 235.995429 
L 146.500631 236.818286 
L 147.145008 237.641143 
L 147.416157 238.464 
L 147.795766 239.286857 
L 147.885085 240.109714 
L 148.124334 240.932571 
L 148.197704 241.755429 
L 148.500753 242.578286 
L 148.663442 243.401143 
L 148.883551 244.224 
L 148.966491 245.046857 
L 150.271195 245.869714 
L 150.293525 246.692571 
L 150.685894 247.515429 
L 150.960233 248.338286 
L 151.043172 249.161143 
L 151.343031 249.984 
L 152.721105 250.806857 
L 152.772145 251.629714 
L 153.059244 252.452571 
L 155.831343 253.275429 
L 156.970168 254.098286 
L 157.018018 254.921143 
L 157.183897 255.744 
L 158.089854 256.566857 
L 159.078749 257.389714 
L 159.550868 258.212571 
L 159.665707 259.035429 
L 161.35321 259.858286 
L 162.074147 260.681143 
L 162.099667 261.504 
L 162.144327 262.326857 
L 162.265546 263.149714 
L 164.160399 263.972571 
L 166.029731 264.795429 
L 166.495469 265.618286 
L 167.123897 266.441143 
L 168.198922 267.264 
L 168.514731 268.086857 
L 168.70613 268.909714 
L 169.245238 269.732571 
L 171.11776 270.555429 
L 172.518165 271.378286 
L 172.833973 272.201143 
L 175.714532 273.024 
L 177.239345 273.846857 
L 178.170822 274.669714 
L 180.209223 275.492571 
L 181.223639 276.315429 
L 181.947766 277.138286 
L 183.762869 277.961143 
L 184.241367 278.784 
L 184.805995 279.606857 
L 185.670481 280.429714 
L 196.698266 281.252571 
L 197.326693 282.075429 
L 197.942361 282.898286 
L 198.29007 283.721143 
L 203.559928 284.544 
L 204.194735 285.366857 
L 206.083208 286.189714 
L 210.44711 287.012571 
L 212.013394 287.835429 
L 222.69666 288.658286 
L 223.171968 289.481143 
L 228.301467 290.304 
L 229.9156 291.126857 
L 232.997128 291.949714 
L 240.126749 292.772571 
L 244.190792 293.595429 
L 245.760266 294.418286 
L 249.62334 295.241143 
L 250.596286 296.064 
L 252.17214 296.886857 
L 255.371697 297.709714 
L 255.537576 298.532571 
L 258.405374 299.355429 
L 263.525303 300.178286 
L 263.646523 301.001143 
L 281.165931 301.824 
L 283.83595 302.646857 
L 315.168003 303.469714 
L 331.822925 304.292571 
L 352.318591 305.115429 
L 353.559496 305.938286 
L 398.487273 306.761143 
L 398.487273 306.761143 
L 398.487273 306.761143 
L 353.559496 305.938286 
L 352.318591 305.115429 
L 331.822925 304.292571 
L 315.168003 303.469714 
L 283.83595 302.646857 
L 281.165931 301.824 
L 263.646523 301.001143 
L 263.525303 300.178286 
L 258.405374 299.355429 
L 255.537576 298.532571 
L 255.371697 297.709714 
L 252.17214 296.886857 
L 250.596286 296.064 
L 249.62334 295.241143 
L 245.760266 294.418286 
L 244.190792 293.595429 
L 240.126749 292.772571 
L 232.997128 291.949714 
L 229.9156 291.126857 
L 228.301467 290.304 
L 223.171968 289.481143 
L 222.69666 288.658286 
L 212.013394 287.835429 
L 210.44711 287.012571 
L 206.083208 286.189714 
L 204.194735 285.366857 
L 203.559928 284.544 
L 198.29007 283.721143 
L 197.942361 282.898286 
L 197.326693 282.075429 
L 196.698266 281.252571 
L 185.670481 280.429714 
L 184.805995 279.606857 
L 184.241367 278.784 
L 183.762869 277.961143 
L 181.947766 277.138286 
L 181.223639 276.315429 
L 180.209223 275.492571 
L 178.170822 274.669714 
L 177.239345 273.846857 
L 175.714532 273.024 
L 172.833973 272.201143 
L 172.518165 271.378286 
L 171.11776 270.555429 
L 169.245238 269.732571 
L 168.70613 268.909714 
L 168.514731 268.086857 
L 168.198922 267.264 
L 167.123897 266.441143 
L 166.495469 265.618286 
L 166.029731 264.795429 
L 164.160399 263.972571 
L 162.265546 263.149714 
L 162.144327 262.326857 
L 162.099667 261.504 
L 162.074147 260.681143 
L 161.35321 259.858286 
L 159.665707 259.035429 
L 159.550868 258.212571 
L 159.078749 257.389714 
L 158.089854 256.566857 
L 157.183897 255.744 
L 157.018018 254.921143 
L 156.970168 254.098286 
L 155.831343 253.275429 
L 153.059244 252.452571 
L 152.772145 251.629714 
L 152.721105 250.806857 
L 151.343031 249.984 
L 151.043172 249.161143 
L 150.960233 248.338286 
L 150.685894 247.515429 
L 150.293525 246.692571 
L 150.271195 245.869714 
L 148.966491 245.046857 
L 148.883551 244.224 
L 148.663442 243.401143 
L 148.500753 242.578286 
L 148.197704 241.755429 
L 148.124334 240.932571 
L 147.885085 240.109714 
L 147.795766 239.286857 
L 147.416157 238.464 
L 147.145008 237.641143 
L 146.500631 236.818286 
L 146.449591 235.995429 
L 145.996613 235.172571 
L 145.945573 234.349714 
L 145.913673 233.526857 
L 145.830734 232.704 
L 145.524495 231.881143 
L 144.880117 231.058286 
L 144.073051 230.235429 
L 143.687062 229.412571 
L 143.514803 228.589714 
L 143.230894 227.766857 
L 142.127159 226.944 
L 141.498731 226.121143 
L 141.383892 225.298286 
L 141.246722 224.475429 
L 140.835214 223.652571 
L 140.500265 222.829714 
L 140.471555 222.006857 
L 138.091825 221.184 
L 137.986556 220.361143 
L 134.809328 219.538286 
L 134.094771 218.715429 
L 133.316415 217.892571 
L 132.375368 217.069714 
L 132.116979 216.246857 
L 131.568302 215.424 
L 130.419906 214.601143 
L 130.238077 213.778286 
L 129.973308 212.955429 
L 129.883989 212.132571 
L 129.667069 211.309714 
L 129.50119 210.486857 
L 129.070542 209.664 
L 129.054592 208.841143 
L 128.901473 208.018286 
L 128.722833 207.195429 
L 128.537814 206.372571 
L 127.784977 205.549714 
L 127.06404 204.726857 
L 126.789701 203.904 
L 126.780131 203.081143 
L 126.483462 202.258286 
L 125.386107 201.435429 
L 124.58861 200.612571 
L 124.55352 199.789714 
L 123.998463 198.966857 
L 123.357275 198.144 
L 123.216916 197.321143 
L 122.674618 196.498286 
L 121.685722 195.675429 
L 121.082814 194.852571 
L 120.929695 194.029714 
L 120.553277 193.206857 
L 119.041223 192.384 
L 118.872154 191.561143 
L 118.798784 190.738286 
L 117.825838 189.915429 
L 117.34734 189.092571 
L 117.17827 188.269714 
L 116.718912 187.446857 
L 116.320164 186.624 
L 116.316974 185.801143 
L 116.256364 184.978286 
L 116.122385 184.155429 
L 115.576897 183.332571 
L 115.541807 182.509714 
L 114.332802 181.686857 
L 114.023373 180.864 
L 113.296056 180.041143 
L 113.162077 179.218286 
L 113.107847 178.395429 
L 112.47942 177.572571 
L 112.31673 176.749714 
L 111.334214 175.926857 
L 110.619657 175.104 
L 109.691371 174.281143 
L 109.381942 173.458286 
L 108.935344 172.635429 
L 108.849214 171.812571 
L 108.571686 170.989714 
L 108.549356 170.166857 
L 108.488746 169.344 
L 107.707199 168.521143 
L 107.54132 167.698286 
L 107.180851 166.875429 
L 106.762963 166.052571 
L 106.294035 165.229714 
L 106.182385 164.406857 
L 106.070736 163.584 
L 105.560338 162.761143 
L 105.506108 161.938286 
L 105.250909 161.115429 
L 104.95105 160.292571 
L 104.332193 159.469714 
L 103.888785 158.646857 
L 103.215697 157.824 
L 102.705299 157.001143 
L 102.59684 156.178286 
L 102.52985 155.355429 
L 102.415011 153.709714 
L 101.528194 152.886857 
L 101.448445 152.064 
L 100.612668 151.241143 
L 100.21392 149.595429 
L 100.19478 148.772571 
L 100.10546 147.949714 
L 99.834311 147.126857 
L 99.330293 146.304 
L 99.024054 145.481143 
L 98.877315 144.658286 
L 98.296737 143.835429 
L 98.105338 143.012571 
L 97.888419 142.189714 
L 97.60132 141.366857 
L 97.103682 140.544 
L 96.727264 139.721143 
L 96.220056 138.898286 
L 95.483169 138.075429 
L 95.097181 137.252571 
L 94.867501 136.429714 
L 94.318824 135.606857 
L 94.283734 134.784 
L 94.146564 133.961143 
L 94.127424 133.138286 
L 93.275698 132.315429 
L 93.154478 131.492571 
L 93.138529 130.669714 
L 93.106629 129.846857 
L 92.84186 129.024 
L 92.77168 128.201143 
L 92.408021 127.378286 
L 91.830634 126.555429 
L 91.792354 125.732571 
L 91.738124 124.909714 
L 91.368086 124.086857 
L 91.036327 123.264 
L 90.905538 122.441143 
L 90.618439 121.618286 
L 90.184601 120.795429 
L 89.741192 119.972571 
L 89.441334 119.149714 
L 89.431764 118.326857 
L 89.316924 117.504 
L 89.007495 116.681143 
L 88.847996 115.858286 
L 88.828856 115.035429 
L 88.742726 114.212571 
L 88.720397 113.389714 
L 88.634267 112.566857 
L 88.608747 111.744 
L 88.522617 110.921143 
L 88.337598 110.098286 
L 88.229139 109.275429 
L 87.95161 108.452571 
L 87.7953 107.629714 
L 87.654941 106.806857 
L 87.546481 105.984 
L 87.128593 105.161143 
L 87.020133 104.338286 
L 85.951488 103.515429 
L 85.562309 102.692571 
L 85.29754 101.869714 
L 84.812662 101.046857 
L 84.538324 100.224 
L 84.142765 99.401143 
L 83.932226 98.578286 
L 83.779107 97.755429 
L 83.571758 96.932571 
L 83.434588 96.109714 
L 83.239999 95.286857 
L 83.182579 94.464 
L 82.91462 93.641143 
L 82.732791 92.818286 
L 82.397842 91.995429 
L 82.362752 91.172571 
L 82.184113 90.349714 
L 81.763035 89.526857 
L 81.558876 88.704 
L 81.533356 87.881143 
L 81.297297 87.058286 
L 80.965538 86.235429 
L 80.933638 85.412571 
L 80.343491 84.589714 
L 80.212701 83.766857 
L 80.046822 82.944 
L 80.002162 82.121143 
L 79.644884 81.298286 
L 79.412015 80.475429 
L 79.223805 79.652571 
L 79.029216 78.829714 
L 78.764447 78.006857 
L 78.735737 77.184 
L 78.1743 76.361143 
L 78.0786 75.538286 
L 78.07222 74.715429 
L 77.884011 73.892571 
L 77.590532 73.069714 
L 77.328953 72.246857 
L 77.166264 71.424 
L 77.118414 70.601143 
L 76.729235 69.778286 
L 76.684576 68.955429 
L 76.509126 67.309714 
L 76.407047 66.486857 
L 76.356007 65.664 
L 76.148658 64.841143 
L 76.040198 64.018286 
L 75.61593 63.195429 
L 75.481951 62.372571 
L 75.424531 61.549714 
L 74.563234 60.726857 
L 74.524954 59.904 
L 74.477105 59.081143 
L 74.381405 58.258286 
L 74.368645 57.435429 
L 74.052836 56.612571 
L 73.998607 55.789714 
L 73.880577 54.966857 
L 73.832727 54.144 
z
" clip-path="url(#p500362898a)" style="fill: #ff0000"/>
   </g>
   <g id="matplotlib.axis_1">
    <g id="xtick_1">
     <g id="line2d_1">
      <defs>
       <path id="m8e74edc126" d="M 0 0 
L 0 3.5 
" style="stroke: #000000; stroke-width: 0.8"/>
      </defs>
      <g>
       <use xlink:href="#m8e74edc126" x="117.905587" y="307.584" style="stroke: #000000; stroke-width: 0.8"/>
      </g>
     </g>
     <g id="text_1">
      <!-- 200 -->
      <g transform="translate(108.361837 322.182437)scale(0.1 -0.1)">
       <defs>
        <path id="DejaVuSans-32" d="M 1228 531 
L 3431 531 
L 3431 0 
L 469 0 
L 469 531 
Q 828 903 1448 1529 
Q 2069 2156 2228 2338 
Q 2531 2678 2651 2914 
Q 2772 3150 2772 3378 
Q 2772 3750 2511 3984 
Q 2250 4219 1831 4219 
Q 1534 4219 1204 4116 
Q 875 4013 500 3803 
L 500 4441 
Q 881 4594 1212 4672 
Q 1544 4750 1819 4750 
Q 2544 4750 2975 4387 
Q 3406 4025 3406 3419 
Q 3406 3131 3298 2873 
Q 3191 2616 2906 2266 
Q 2828 2175 2409 1742 
Q 1991 1309 1228 531 
z
" transform="scale(0.015625)"/>
        <path id="DejaVuSans-30" d="M 2034 4250 
Q 1547 4250 1301 3770 
Q 1056 3291 1056 2328 
Q 1056 1369 1301 889 
Q 1547 409 2034 409 
Q 2525 409 2770 889 
Q 3016 1369 3016 2328 
Q 3016 3291 2770 3770 
Q 2525 4250 2034 4250 
z
M 2034 4750 
Q 2819 4750 3233 4129 
Q 3647 3509 3647 2328 
Q 3647 1150 3233 529 
Q 2819 -91 2034 -91 
Q 1250 -91 836 529 
Q 422 1150 422 2328 
Q 422 3509 836 4129 
Q 1250 4750 2034 4750 
z
" transform="scale(0.015625)"/>
       </defs>
       <use xlink:href="#DejaVuSans-32"/>
       <use xlink:href="#DejaVuSans-30" x="63.623047"/>
       <use xlink:href="#DejaVuSans-30" x="127.246094"/>
      </g>
     </g>
    </g>
    <g id="xtick_2">
     <g id="line2d_2">
      <g>
       <use xlink:href="#m8e74edc126" x="181.705327" y="307.584" style="stroke: #000000; stroke-width: 0.8"/>
      </g>
     </g>
     <g id="text_2">
      <!-- 400 -->
      <g transform="translate(172.161577 322.182437)scale(0.1 -0.1)">
       <defs>
        <path id="DejaVuSans-34" d="M 2419 4116 
L 825 1625 
L 2419 1625 
L 2419 4116 
z
M 2253 4666 
L 3047 4666 
L 3047 1625 
L 3713 1625 
L 3713 1100 
L 3047 1100 
L 3047 0 
L 2419 0 
L 2419 1100 
L 313 1100 
L 313 1709 
L 2253 4666 
z
" transform="scale(0.015625)"/>
       </defs>
       <use xlink:href="#DejaVuSans-34"/>
       <use xlink:href="#DejaVuSans-30" x="63.623047"/>
       <use xlink:href="#DejaVuSans-30" x="127.246094"/>
      </g>
     </g>
    </g>
    <g id="xtick_3">
     <g id="line2d_3">
      <g>
       <use xlink:href="#m8e74edc126" x="245.505067" y="307.584" style="stroke: #000000; stroke-width: 0.8"/>
      </g>
     </g>
     <g id="text_3">
      <!-- 600 -->
      <g transform="translate(235.961317 322.182437)scale(0.1 -0.1)">
       <defs>
        <path id="DejaVuSans-36" d="M 2113 2584 
Q 1688 2584 1439 2293 
Q 1191 2003 1191 1497 
Q 1191 994 1439 701 
Q 1688 409 2113 409 
Q 2538 409 2786 701 
Q 3034 994 3034 1497 
Q 3034 2003 2786 2293 
Q 2538 2584 2113 2584 
z
M 3366 4563 
L 3366 3988 
Q 3128 4100 2886 4159 
Q 2644 4219 2406 4219 
Q 1781 4219 1451 3797 
Q 1122 3375 1075 2522 
Q 1259 2794 1537 2939 
Q 1816 3084 2150 3084 
Q 2853 3084 3261 2657 
Q 3669 2231 3669 1497 
Q 3669 778 3244 343 
Q 2819 -91 2113 -91 
Q 1303 -91 875 529 
Q 447 1150 447 2328 
Q 447 3434 972 4092 
Q 1497 4750 2381 4750 
Q 2619 4750 2861 4703 
Q 3103 4656 3366 4563 
z
" transform="scale(0.015625)"/>
       </defs>
       <use xlink:href="#DejaVuSans-36"/>
       <use xlink:href="#DejaVuSans-30" x="63.623047"/>
       <use xlink:href="#DejaVuSans-30" x="127.246094"/>
      </g>
     </g>
    </g>
    <g id="xtick_4">
     <g id="line2d_4">
      <g>
       <use xlink:href="#m8e74edc126" x="309.304807" y="307.584" style="stroke: #000000; stroke-width: 0.8"/>
      </g>
     </g>
     <g id="text_4">
      <!-- 800 -->
      <g transform="translate(299.761057 322.182437)scale(0.1 -0.1)">
       <defs>
        <path id="DejaVuSans-38" d="M 2034 2216 
Q 1584 2216 1326 1975 
Q 1069 1734 1069 1313 
Q 1069 891 1326 650 
Q 1584 409 2034 409 
Q 2484 409 2743 651 
Q 3003 894 3003 1313 
Q 3003 1734 2745 1975 
Q 2488 2216 2034 2216 
z
M 1403 2484 
Q 997 2584 770 2862 
Q 544 3141 544 3541 
Q 544 4100 942 4425 
Q 1341 4750 2034 4750 
Q 2731 4750 3128 4425 
Q 3525 4100 3525 3541 
Q 3525 3141 3298 2862 
Q 3072 2584 2669 2484 
Q 3125 2378 3379 2068 
Q 3634 1759 3634 1313 
Q 3634 634 3220 271 
Q 2806 -91 2034 -91 
Q 1263 -91 848 271 
Q 434 634 434 1313 
Q 434 1759 690 2068 
Q 947 2378 1403 2484 
z
M 1172 3481 
Q 1172 3119 1398 2916 
Q 1625 2713 2034 2713 
Q 2441 2713 2670 2916 
Q 2900 3119 2900 3481 
Q 2900 3844 2670 4047 
Q 2441 4250 2034 4250 
Q 1625 4250 1398 4047 
Q 1172 3844 1172 3481 
z
" transform="scale(0.015625)"/>
       </defs>
       <use xlink:href="#DejaVuSans-38"/>
       <use xlink:href="#DejaVuSans-30" x="63.623047"/>
       <use xlink:href="#DejaVuSans-30" x="127.246094"/>
      </g>
     </g>
    </g>
    <g id="xtick_5">
     <g id="line2d_5">
      <g>
       <use xlink:href="#m8e74edc126" x="373.104546" y="307.584" style="stroke: #000000; stroke-width: 0.8"/>
      </g>
     </g>
     <g id="text_5">
      <!-- 1000 -->
      <g transform="translate(360.379546 322.182437)scale(0.1 -0.1)">
       <defs>
        <path id="DejaVuSans-31" d="M 794 531 
L 1825 531 
L 1825 4091 
L 703 3866 
L 703 4441 
L 1819 4666 
L 2450 4666 
L 2450 531 
L 3481 531 
L 3481 0 
L 794 0 
L 794 531 
z
" transform="scale(0.015625)"/>
       </defs>
       <use xlink:href="#DejaVuSans-31"/>
       <use xlink:href="#DejaVuSans-30" x="63.623047"/>
       <use xlink:href="#DejaVuSans-30" x="127.246094"/>
       <use xlink:href="#DejaVuSans-30" x="190.869141"/>
      </g>
     </g>
    </g>
    <g id="text_6">
     <!-- Score -->
     <g transform="translate(222.157656 335.860562)scale(0.1 -0.1)">
      <defs>
       <path id="DejaVuSans-53" d="M 3425 4513 
L 3425 3897 
Q 3066 4069 2747 4153 
Q 2428 4238 2131 4238 
Q 1616 4238 1336 4038 
Q 1056 3838 1056 3469 
Q 1056 3159 1242 3001 
Q 1428 2844 1947 2747 
L 2328 2669 
Q 3034 2534 3370 2195 
Q 3706 1856 3706 1288 
Q 3706 609 3251 259 
Q 2797 -91 1919 -91 
Q 1588 -91 1214 -16 
Q 841 59 441 206 
L 441 856 
Q 825 641 1194 531 
Q 1563 422 1919 422 
Q 2459 422 2753 634 
Q 3047 847 3047 1241 
Q 3047 1584 2836 1778 
Q 2625 1972 2144 2069 
L 1759 2144 
Q 1053 2284 737 2584 
Q 422 2884 422 3419 
Q 422 4038 858 4394 
Q 1294 4750 2059 4750 
Q 2388 4750 2728 4690 
Q 3069 4631 3425 4513 
z
" transform="scale(0.015625)"/>
       <path id="DejaVuSans-63" d="M 3122 3366 
L 3122 2828 
Q 2878 2963 2633 3030 
Q 2388 3097 2138 3097 
Q 1578 3097 1268 2742 
Q 959 2388 959 1747 
Q 959 1106 1268 751 
Q 1578 397 2138 397 
Q 2388 397 2633 464 
Q 2878 531 3122 666 
L 3122 134 
Q 2881 22 2623 -34 
Q 2366 -91 2075 -91 
Q 1284 -91 818 406 
Q 353 903 353 1747 
Q 353 2603 823 3093 
Q 1294 3584 2113 3584 
Q 2378 3584 2631 3529 
Q 2884 3475 3122 3366 
z
" transform="scale(0.015625)"/>
       <path id="DejaVuSans-6f" d="M 1959 3097 
Q 1497 3097 1228 2736 
Q 959 2375 959 1747 
Q 959 1119 1226 758 
Q 1494 397 1959 397 
Q 2419 397 2687 759 
Q 2956 1122 2956 1747 
Q 2956 2369 2687 2733 
Q 2419 3097 1959 3097 
z
M 1959 3584 
Q 2709 3584 3137 3096 
Q 3566 2609 3566 1747 
Q 3566 888 3137 398 
Q 2709 -91 1959 -91 
Q 1206 -91 779 398 
Q 353 888 353 1747 
Q 353 2609 779 3096 
Q 1206 3584 1959 3584 
z
" transform="scale(0.015625)"/>
       <path id="DejaVuSans-72" d="M 2631 2963 
Q 2534 3019 2420 3045 
Q 2306 3072 2169 3072 
Q 1681 3072 1420 2755 
Q 1159 2438 1159 1844 
L 1159 0 
L 581 0 
L 581 3500 
L 1159 3500 
L 1159 2956 
Q 1341 3275 1631 3429 
Q 1922 3584 2338 3584 
Q 2397 3584 2469 3576 
Q 2541 3569 2628 3553 
L 2631 2963 
z
" transform="scale(0.015625)"/>
       <path id="DejaVuSans-65" d="M 3597 1894 
L 3597 1613 
L 953 1613 
Q 991 1019 1311 708 
Q 1631 397 2203 397 
Q 2534 397 2845 478 
Q 3156 559 3463 722 
L 3463 178 
Q 3153 47 2828 -22 
Q 2503 -91 2169 -91 
Q 1331 -91 842 396 
Q 353 884 353 1716 
Q 353 2575 817 3079 
Q 1281 3584 2069 3584 
Q 2775 3584 3186 3129 
Q 3597 2675 3597 1894 
z
M 3022 2063 
Q 3016 2534 2758 2815 
Q 2500 3097 2075 3097 
Q 1594 3097 1305 2825 
Q 1016 2553 972 2059 
L 3022 2063 
z
" transform="scale(0.015625)"/>
      </defs>
      <use xlink:href="#DejaVuSans-53"/>
      <use xlink:href="#DejaVuSans-63" x="63.476562"/>
      <use xlink:href="#DejaVuSans-6f" x="118.457031"/>
      <use xlink:href="#DejaVuSans-72" x="179.638672"/>
      <use xlink:href="#DejaVuSans-65" x="218.501953"/>
     </g>
    </g>
   </g>
   <g id="matplotlib.axis_2">
    <g id="ytick_1">
     <g id="line2d_6">
      <defs>
       <path id="mbea78751b6" d="M 0 0 
L -3.5 0 
" style="stroke: #000000; stroke-width: 0.8"/>
      </defs>
      <g>
       <use xlink:href="#mbea78751b6" x="57.6" y="307.584" style="stroke: #000000; stroke-width: 0.8"/>
      </g>
     </g>
     <g id="text_7">
      <!-- 0 -->
      <g transform="translate(44.2375 311.383219)scale(0.1 -0.1)">
       <use xlink:href="#DejaVuSans-30"/>
      </g>
     </g>
    </g>
    <g id="ytick_2">
     <g id="line2d_7">
      <g>
       <use xlink:href="#mbea78751b6" x="57.6" y="266.441143" style="stroke: #000000; stroke-width: 0.8"/>
      </g>
     </g>
     <g id="text_8">
      <!-- 50 -->
      <g transform="translate(37.875 270.240362)scale(0.1 -0.1)">
       <defs>
        <path id="DejaVuSans-35" d="M 691 4666 
L 3169 4666 
L 3169 4134 
L 1269 4134 
L 1269 2991 
Q 1406 3038 1543 3061 
Q 1681 3084 1819 3084 
Q 2600 3084 3056 2656 
Q 3513 2228 3513 1497 
Q 3513 744 3044 326 
Q 2575 -91 1722 -91 
Q 1428 -91 1123 -41 
Q 819 9 494 109 
L 494 744 
Q 775 591 1075 516 
Q 1375 441 1709 441 
Q 2250 441 2565 725 
Q 2881 1009 2881 1497 
Q 2881 1984 2565 2268 
Q 2250 2553 1709 2553 
Q 1456 2553 1204 2497 
Q 953 2441 691 2322 
L 691 4666 
z
" transform="scale(0.015625)"/>
       </defs>
       <use xlink:href="#DejaVuSans-35"/>
       <use xlink:href="#DejaVuSans-30" x="63.623047"/>
      </g>
     </g>
    </g>
    <g id="ytick_3">
     <g id="line2d_8">
      <g>
       <use xlink:href="#mbea78751b6" x="57.6" y="225.298286" style="stroke: #000000; stroke-width: 0.8"/>
      </g>
     </g>
     <g id="text_9">
      <!-- 100 -->
      <g transform="translate(31.5125 229.097504)scale(0.1 -0.1)">
       <use xlink:href="#DejaVuSans-31"/>
       <use xlink:href="#DejaVuSans-30" x="63.623047"/>
       <use xlink:href="#DejaVuSans-30" x="127.246094"/>
      </g>
     </g>
    </g>
    <g id="ytick_4">
     <g id="line2d_9">
      <g>
       <use xlink:href="#mbea78751b6" x="57.6" y="184.155429" style="stroke: #000000; stroke-width: 0.8"/>
      </g>
     </g>
     <g id="text_10">
      <!-- 150 -->
      <g transform="translate(31.5125 187.954647)scale(0.1 -0.1)">
       <use xlink:href="#DejaVuSans-31"/>
       <use xlink:href="#DejaVuSans-35" x="63.623047"/>
       <use xlink:href="#DejaVuSans-30" x="127.246094"/>
      </g>
     </g>
    </g>
    <g id="ytick_5">
     <g id="line2d_10">
      <g>
       <use xlink:href="#mbea78751b6" x="57.6" y="143.012571" style="stroke: #000000; stroke-width: 0.8"/>
      </g>
     </g>
     <g id="text_11">
      <!-- 200 -->
      <g transform="translate(31.5125 146.81179)scale(0.1 -0.1)">
       <use xlink:href="#DejaVuSans-32"/>
       <use xlink:href="#DejaVuSans-30" x="63.623047"/>
       <use xlink:href="#DejaVuSans-30" x="127.246094"/>
      </g>
     </g>
    </g>
    <g id="ytick_6">
     <g id="line2d_11">
      <g>
       <use xlink:href="#mbea78751b6" x="57.6" y="101.869714" style="stroke: #000000; stroke-width: 0.8"/>
      </g>
     </g>
     <g id="text_12">
      <!-- 250 -->
      <g transform="translate(31.5125 105.668933)scale(0.1 -0.1)">
       <use xlink:href="#DejaVuSans-32"/>
       <use xlink:href="#DejaVuSans-35" x="63.623047"/>
       <use xlink:href="#DejaVuSans-30" x="127.246094"/>
      </g>
     </g>
    </g>
    <g id="ytick_7">
     <g id="line2d_12">
      <g>
       <use xlink:href="#mbea78751b6" x="57.6" y="60.726857" style="stroke: #000000; stroke-width: 0.8"/>
      </g>
     </g>
     <g id="text_13">
      <!-- 300 -->
      <g transform="translate(31.5125 64.526076)scale(0.1 -0.1)">
       <defs>
        <path id="DejaVuSans-33" d="M 2597 2516 
Q 3050 2419 3304 2112 
Q 3559 1806 3559 1356 
Q 3559 666 3084 287 
Q 2609 -91 1734 -91 
Q 1441 -91 1130 -33 
Q 819 25 488 141 
L 488 750 
Q 750 597 1062 519 
Q 1375 441 1716 441 
Q 2309 441 2620 675 
Q 2931 909 2931 1356 
Q 2931 1769 2642 2001 
Q 2353 2234 1838 2234 
L 1294 2234 
L 1294 2753 
L 1863 2753 
Q 2328 2753 2575 2939 
Q 2822 3125 2822 3475 
Q 2822 3834 2567 4026 
Q 2313 4219 1838 4219 
Q 1578 4219 1281 4162 
Q 984 4106 628 3988 
L 628 4550 
Q 988 4650 1302 4700 
Q 1616 4750 1894 4750 
Q 2613 4750 3031 4423 
Q 3450 4097 3450 3541 
Q 3450 3153 3228 2886 
Q 3006 2619 2597 2516 
z
" transform="scale(0.015625)"/>
       </defs>
       <use xlink:href="#DejaVuSans-33"/>
       <use xlink:href="#DejaVuSans-30" x="63.623047"/>
       <use xlink:href="#DejaVuSans-30" x="127.246094"/>
      </g>
     </g>
    </g>
    <g id="text_14">
     <!-- Number of crosslinks -->
     <g transform="translate(25.432812 227.019406)rotate(-90)scale(0.1 -0.1)">
      <defs>
       <path id="DejaVuSans-4e" d="M 628 4666 
L 1478 4666 
L 3547 763 
L 3547 4666 
L 4159 4666 
L 4159 0 
L 3309 0 
L 1241 3903 
L 1241 0 
L 628 0 
L 628 4666 
z
" transform="scale(0.015625)"/>
       <path id="DejaVuSans-75" d="M 544 1381 
L 544 3500 
L 1119 3500 
L 1119 1403 
Q 1119 906 1312 657 
Q 1506 409 1894 409 
Q 2359 409 2629 706 
Q 2900 1003 2900 1516 
L 2900 3500 
L 3475 3500 
L 3475 0 
L 2900 0 
L 2900 538 
Q 2691 219 2414 64 
Q 2138 -91 1772 -91 
Q 1169 -91 856 284 
Q 544 659 544 1381 
z
M 1991 3584 
L 1991 3584 
z
" transform="scale(0.015625)"/>
       <path id="DejaVuSans-6d" d="M 3328 2828 
Q 3544 3216 3844 3400 
Q 4144 3584 4550 3584 
Q 5097 3584 5394 3201 
Q 5691 2819 5691 2113 
L 5691 0 
L 5113 0 
L 5113 2094 
Q 5113 2597 4934 2840 
Q 4756 3084 4391 3084 
Q 3944 3084 3684 2787 
Q 3425 2491 3425 1978 
L 3425 0 
L 2847 0 
L 2847 2094 
Q 2847 2600 2669 2842 
Q 2491 3084 2119 3084 
Q 1678 3084 1418 2786 
Q 1159 2488 1159 1978 
L 1159 0 
L 581 0 
L 581 3500 
L 1159 3500 
L 1159 2956 
Q 1356 3278 1631 3431 
Q 1906 3584 2284 3584 
Q 2666 3584 2933 3390 
Q 3200 3197 3328 2828 
z
" transform="scale(0.015625)"/>
       <path id="DejaVuSans-62" d="M 3116 1747 
Q 3116 2381 2855 2742 
Q 2594 3103 2138 3103 
Q 1681 3103 1420 2742 
Q 1159 2381 1159 1747 
Q 1159 1113 1420 752 
Q 1681 391 2138 391 
Q 2594 391 2855 752 
Q 3116 1113 3116 1747 
z
M 1159 2969 
Q 1341 3281 1617 3432 
Q 1894 3584 2278 3584 
Q 2916 3584 3314 3078 
Q 3713 2572 3713 1747 
Q 3713 922 3314 415 
Q 2916 -91 2278 -91 
Q 1894 -91 1617 61 
Q 1341 213 1159 525 
L 1159 0 
L 581 0 
L 581 4863 
L 1159 4863 
L 1159 2969 
z
" transform="scale(0.015625)"/>
       <path id="DejaVuSans-20" transform="scale(0.015625)"/>
       <path id="DejaVuSans-66" d="M 2375 4863 
L 2375 4384 
L 1825 4384 
Q 1516 4384 1395 4259 
Q 1275 4134 1275 3809 
L 1275 3500 
L 2222 3500 
L 2222 3053 
L 1275 3053 
L 1275 0 
L 697 0 
L 697 3053 
L 147 3053 
L 147 3500 
L 697 3500 
L 697 3744 
Q 697 4328 969 4595 
Q 1241 4863 1831 4863 
L 2375 4863 
z
" transform="scale(0.015625)"/>
       <path id="DejaVuSans-73" d="M 2834 3397 
L 2834 2853 
Q 2591 2978 2328 3040 
Q 2066 3103 1784 3103 
Q 1356 3103 1142 2972 
Q 928 2841 928 2578 
Q 928 2378 1081 2264 
Q 1234 2150 1697 2047 
L 1894 2003 
Q 2506 1872 2764 1633 
Q 3022 1394 3022 966 
Q 3022 478 2636 193 
Q 2250 -91 1575 -91 
Q 1294 -91 989 -36 
Q 684 19 347 128 
L 347 722 
Q 666 556 975 473 
Q 1284 391 1588 391 
Q 1994 391 2212 530 
Q 2431 669 2431 922 
Q 2431 1156 2273 1281 
Q 2116 1406 1581 1522 
L 1381 1569 
Q 847 1681 609 1914 
Q 372 2147 372 2553 
Q 372 3047 722 3315 
Q 1072 3584 1716 3584 
Q 2034 3584 2315 3537 
Q 2597 3491 2834 3397 
z
" transform="scale(0.015625)"/>
       <path id="DejaVuSans-6c" d="M 603 4863 
L 1178 4863 
L 1178 0 
L 603 0 
L 603 4863 
z
" transform="scale(0.015625)"/>
       <path id="DejaVuSans-69" d="M 603 3500 
L 1178 3500 
L 1178 0 
L 603 0 
L 603 3500 
z
M 603 4863 
L 1178 4863 
L 1178 4134 
L 603 4134 
L 603 4863 
z
" transform="scale(0.015625)"/>
       <path id="DejaVuSans-6e" d="M 3513 2113 
L 3513 0 
L 2938 0 
L 2938 2094 
Q 2938 2591 2744 2837 
Q 2550 3084 2163 3084 
Q 1697 3084 1428 2787 
Q 1159 2491 1159 1978 
L 1159 0 
L 581 0 
L 581 3500 
L 1159 3500 
L 1159 2956 
Q 1366 3272 1645 3428 
Q 1925 3584 2291 3584 
Q 2894 3584 3203 3211 
Q 3513 2838 3513 2113 
z
" transform="scale(0.015625)"/>
       <path id="DejaVuSans-6b" d="M 581 4863 
L 1159 4863 
L 1159 1991 
L 2875 3500 
L 3609 3500 
L 1753 1863 
L 3688 0 
L 2938 0 
L 1159 1709 
L 1159 0 
L 581 0 
L 581 4863 
z
" transform="scale(0.015625)"/>
      </defs>
      <use xlink:href="#DejaVuSans-4e"/>
      <use xlink:href="#DejaVuSans-75" x="74.804688"/>
      <use xlink:href="#DejaVuSans-6d" x="138.183594"/>
      <use xlink:href="#DejaVuSans-62" x="235.595703"/>
      <use xlink:href="#DejaVuSans-65" x="299.072266"/>
      <use xlink:href="#DejaVuSans-72" x="360.595703"/>
      <use xlink:href="#DejaVuSans-20" x="401.708984"/>
      <use xlink:href="#DejaVuSans-6f" x="433.496094"/>
      <use xlink:href="#DejaVuSans-66" x="494.677734"/>
      <use xlink:href="#DejaVuSans-20" x="529.882812"/>
      <use xlink:href="#DejaVuSans-63" x="561.669922"/>
      <use xlink:href="#DejaVuSans-72" x="616.650391"/>
      <use xlink:href="#DejaVuSans-6f" x="655.513672"/>
      <use xlink:href="#DejaVuSans-73" x="716.695312"/>
      <use xlink:href="#DejaVuSans-73" x="768.794922"/>
      <use xlink:href="#DejaVuSans-6c" x="820.894531"/>
      <use xlink:href="#DejaVuSans-69" x="848.677734"/>
      <use xlink:href="#DejaVuSans-6e" x="876.460938"/>
      <use xlink:href="#DejaVuSans-6b" x="939.839844"/>
      <use xlink:href="#DejaVuSans-73" x="997.75"/>
     </g>
    </g>
   </g>
   <g id="patch_3">
    <path d="M 57.6 307.584 
L 57.6 41.472 
" style="fill: none; stroke: #000000; stroke-width: 0.8; stroke-linejoin: miter; stroke-linecap: square"/>
   </g>
   <g id="patch_4">
    <path d="M 414.72 307.584 
L 414.72 41.472 
" style="fill: none; stroke: #000000; stroke-width: 0.8; stroke-linejoin: miter; stroke-linecap: square"/>
   </g>
   <g id="patch_5">
    <path d="M 57.6 307.584 
L 414.72 307.584 
" style="fill: none; stroke: #000000; stroke-width: 0.8; stroke-linejoin: miter; stroke-linecap: square"/>
   </g>
   <g id="patch_6">
    <path d="M 57.6 41.472 
L 414.72 41.472 
" style="fill: none; stroke: #000000; stroke-width: 0.8; stroke-linejoin: miter; stroke-linecap: square"/>
   </g>
   <g id="legend_1">
    <g id="patch_7">
     <path d="M 293.087188 93.506375 
L 407.72 93.506375 
Q 409.72 93.506375 409.72 91.506375 
L 409.72 48.472 
Q 409.72 46.472 407.72 46.472 
L 293.087188 46.472 
Q 291.087188 46.472 291.087188 48.472 
L 291.087188 91.506375 
Q 291.087188 93.506375 293.087188 93.506375 
z
" style="fill: #ffffff; opacity: 0.8; stroke: #cccccc; stroke-linejoin: miter"/>
    </g>
    <g id="patch_8">
     <path d="M 295.087188 58.070438 
L 315.087188 58.070438 
L 315.087188 51.070438 
L 295.087188 51.070438 
z
" style="fill: #008000"/>
    </g>
    <g id="text_15">
     <!-- true -->
     <g transform="translate(323.087188 58.070438)scale(0.1 -0.1)">
      <defs>
       <path id="DejaVuSans-74" d="M 1172 4494 
L 1172 3500 
L 2356 3500 
L 2356 3053 
L 1172 3053 
L 1172 1153 
Q 1172 725 1289 603 
Q 1406 481 1766 481 
L 2356 481 
L 2356 0 
L 1766 0 
Q 1100 0 847 248 
Q 594 497 594 1153 
L 594 3053 
L 172 3053 
L 172 3500 
L 594 3500 
L 594 4494 
L 1172 4494 
z
" transform="scale(0.015625)"/>
      </defs>
      <use xlink:href="#DejaVuSans-74"/>
      <use xlink:href="#DejaVuSans-72" x="39.208984"/>
      <use xlink:href="#DejaVuSans-75" x="80.322266"/>
      <use xlink:href="#DejaVuSans-65" x="143.701172"/>
     </g>
    </g>
    <g id="patch_9">
     <path d="M 295.087188 72.748563 
L 315.087188 72.748563 
L 315.087188 65.748563 
L 295.087188 65.748563 
z
" style="fill: #7cfc00"/>
    </g>
    <g id="text_16">
     <!-- true homeotypic -->
     <g transform="translate(323.087188 72.748563)scale(0.1 -0.1)">
      <defs>
       <path id="DejaVuSans-68" d="M 3513 2113 
L 3513 0 
L 2938 0 
L 2938 2094 
Q 2938 2591 2744 2837 
Q 2550 3084 2163 3084 
Q 1697 3084 1428 2787 
Q 1159 2491 1159 1978 
L 1159 0 
L 581 0 
L 581 4863 
L 1159 4863 
L 1159 2956 
Q 1366 3272 1645 3428 
Q 1925 3584 2291 3584 
Q 2894 3584 3203 3211 
Q 3513 2838 3513 2113 
z
" transform="scale(0.015625)"/>
       <path id="DejaVuSans-79" d="M 2059 -325 
Q 1816 -950 1584 -1140 
Q 1353 -1331 966 -1331 
L 506 -1331 
L 506 -850 
L 844 -850 
Q 1081 -850 1212 -737 
Q 1344 -625 1503 -206 
L 1606 56 
L 191 3500 
L 800 3500 
L 1894 763 
L 2988 3500 
L 3597 3500 
L 2059 -325 
z
" transform="scale(0.015625)"/>
       <path id="DejaVuSans-70" d="M 1159 525 
L 1159 -1331 
L 581 -1331 
L 581 3500 
L 1159 3500 
L 1159 2969 
Q 1341 3281 1617 3432 
Q 1894 3584 2278 3584 
Q 2916 3584 3314 3078 
Q 3713 2572 3713 1747 
Q 3713 922 3314 415 
Q 2916 -91 2278 -91 
Q 1894 -91 1617 61 
Q 1341 213 1159 525 
z
M 3116 1747 
Q 3116 2381 2855 2742 
Q 2594 3103 2138 3103 
Q 1681 3103 1420 2742 
Q 1159 2381 1159 1747 
Q 1159 1113 1420 752 
Q 1681 391 2138 391 
Q 2594 391 2855 752 
Q 3116 1113 3116 1747 
z
" transform="scale(0.015625)"/>
      </defs>
      <use xlink:href="#DejaVuSans-74"/>
      <use xlink:href="#DejaVuSans-72" x="39.208984"/>
      <use xlink:href="#DejaVuSans-75" x="80.322266"/>
      <use xlink:href="#DejaVuSans-65" x="143.701172"/>
      <use xlink:href="#DejaVuSans-20" x="205.224609"/>
      <use xlink:href="#DejaVuSans-68" x="237.011719"/>
      <use xlink:href="#DejaVuSans-6f" x="300.390625"/>
      <use xlink:href="#DejaVuSans-6d" x="361.572266"/>
      <use xlink:href="#DejaVuSans-65" x="458.984375"/>
      <use xlink:href="#DejaVuSans-6f" x="520.507812"/>
      <use xlink:href="#DejaVuSans-74" x="581.689453"/>
      <use xlink:href="#DejaVuSans-79" x="620.898438"/>
      <use xlink:href="#DejaVuSans-70" x="680.078125"/>
      <use xlink:href="#DejaVuSans-69" x="743.554688"/>
      <use xlink:href="#DejaVuSans-63" x="771.337891"/>
     </g>
    </g>
    <g id="patch_10">
     <path d="M 295.087188 87.426688 
L 315.087188 87.426688 
L 315.087188 80.426688 
L 295.087188 80.426688 
z
" style="fill: #ff0000"/>
    </g>
    <g id="text_17">
     <!-- false -->
     <g transform="translate(323.087188 87.426688)scale(0.1 -0.1)">
      <defs>
       <path id="DejaVuSans-61" d="M 2194 1759 
Q 1497 1759 1228 1600 
Q 959 1441 959 1056 
Q 959 750 1161 570 
Q 1363 391 1709 391 
Q 2188 391 2477 730 
Q 2766 1069 2766 1631 
L 2766 1759 
L 2194 1759 
z
M 3341 1997 
L 3341 0 
L 2766 0 
L 2766 531 
Q 2569 213 2275 61 
Q 1981 -91 1556 -91 
Q 1019 -91 701 211 
Q 384 513 384 1019 
Q 384 1609 779 1909 
Q 1175 2209 1959 2209 
L 2766 2209 
L 2766 2266 
Q 2766 2663 2505 2880 
Q 2244 3097 1772 3097 
Q 1472 3097 1187 3025 
Q 903 2953 641 2809 
L 641 3341 
Q 956 3463 1253 3523 
Q 1550 3584 1831 3584 
Q 2591 3584 2966 3190 
Q 3341 2797 3341 1997 
z
" transform="scale(0.015625)"/>
      </defs>
      <use xlink:href="#DejaVuSans-66"/>
      <use xlink:href="#DejaVuSans-61" x="35.205078"/>
      <use xlink:href="#DejaVuSans-6c" x="96.484375"/>
      <use xlink:href="#DejaVuSans-73" x="124.267578"/>
      <use xlink:href="#DejaVuSans-65" x="176.367188"/>
     </g>
    </g>
   </g>
  </g>
 </g>
 <defs>
  <clipPath id="p500362898a">
   <rect x="57.6" y="41.472" width="357.12" height="266.112"/>
  </clipPath>
 </defs>
</svg>
