<?xml version="1.0" encoding="utf-8" standalone="no"?>
<!DOCTYPE svg PUBLIC "-//W3C//DTD SVG 1.1//EN"
  "http://www.w3.org/Graphics/SVG/1.1/DTD/svg11.dtd">
<svg xmlns:xlink="http://www.w3.org/1999/xlink" width="460.8pt" height="345.6pt" viewBox="0 0 460.8 345.6" xmlns="http://www.w3.org/2000/svg" version="1.1">
 <metadata>
  <rdf:RDF xmlns:dc="http://purl.org/dc/elements/1.1/" xmlns:cc="http://creativecommons.org/ns#" xmlns:rdf="http://www.w3.org/1999/02/22-rdf-syntax-ns#">
   <cc:Work>
    <dc:type rdf:resource="http://purl.org/dc/dcmitype/StillImage"/>
    <dc:date>2022-07-27T13:24:33.906464</dc:date>
    <dc:format>image/svg+xml</dc:format>
    <dc:creator>
     <cc:Agent>
      <dc:title>Matplotlib v3.5.1, https://matplotlib.org/</dc:title>
     </cc:Agent>
    </dc:creator>
   </cc:Work>
  </rdf:RDF>
 </metadata>
 <defs>
  <style type="text/css">*{stroke-linejoin: round; stroke-linecap: butt}</style>
 </defs>
 <g id="figure_1">
  <g id="patch_1">
   <path d="M 0 345.6 
L 460.8 345.6 
L 460.8 0 
L 0 0 
z
" style="fill: #ffffff"/>
  </g>
  <g id="axes_1">
   <g id="patch_2">
    <path d="M 57.6 307.584 
L 414.72 307.584 
L 414.72 41.472 
L 57.6 41.472 
z
" style="fill: #ffffff"/>
   </g>
   <g id="PolyCollection_1">
    <path d="M 73.832727 135.872208 
L 73.832727 307.584 
L 73.844678 307.584 
L 73.856628 307.584 
L 73.868578 307.584 
L 73.976131 307.584 
L 74.059783 307.584 
L 74.215138 307.584 
L 74.334641 307.584 
L 74.430244 307.584 
L 74.513896 307.584 
L 74.609499 307.584 
L 74.752902 307.584 
L 74.764853 307.584 
L 74.956058 307.584 
L 74.979959 307.584 
L 74.991909 307.584 
L 75.063611 307.584 
L 75.135313 307.584 
L 75.147263 307.584 
L 75.242866 307.584 
L 75.517723 307.584 
L 75.577475 307.584 
L 75.661127 307.584 
L 75.75673 307.584 
L 75.804531 307.584 
L 75.888184 307.584 
L 75.947935 307.584 
L 76.11524 307.584 
L 76.186942 307.584 
L 76.413998 307.584 
L 76.521551 307.584 
L 76.593253 307.584 
L 76.605203 307.584 
L 76.772508 307.584 
L 76.86811 307.584 
L 76.892011 307.584 
L 76.951763 307.584 
L 77.119067 307.584 
L 77.131018 307.584 
L 77.166869 307.584 
L 77.298322 307.584 
L 77.334173 307.584 
L 77.501478 307.584 
L 77.525378 307.584 
L 77.57318 307.584 
L 77.716584 307.584 
L 77.740484 307.584 
L 77.907789 307.584 
L 78.039243 307.584 
L 78.254348 307.584 
L 78.373852 307.584 
L 78.385802 307.584 
L 78.744312 307.584 
L 78.816014 307.584 
L 78.863815 307.584 
L 79.090871 307.584 
L 79.150623 307.584 
L 79.329878 307.584 
L 79.592785 307.584 
L 79.903494 307.584 
L 79.975196 307.584 
L 80.070798 307.584 
L 80.1186 307.584 
L 80.190301 307.584 
L 80.477109 307.584 
L 80.835619 307.584 
L 80.847569 307.584 
L 81.014874 307.584 
L 81.122427 307.584 
L 81.755794 307.584 
L 81.839447 307.584 
L 81.887248 307.584 
L 81.935049 307.584 
L 81.947 307.584 
L 82.903026 307.584 
L 83.118132 307.584 
L 83.512492 307.584 
L 83.548343 307.584 
L 84.181711 307.584 
L 84.289264 307.584 
L 84.384866 307.584 
L 84.492419 307.584 
L 84.588022 307.584 
L 85.293091 307.584 
L 85.352843 307.584 
L 85.520148 307.584 
L 85.61575 307.584 
L 85.902558 307.584 
L 86.284968 307.584 
L 86.296919 307.584 
L 86.559826 307.584 
L 86.786882 307.584 
L 86.918336 307.584 
L 87.08564 307.584 
L 87.503902 307.584 
L 87.611455 307.584 
L 88.280673 307.584 
L 88.412127 307.584 
L 88.651133 307.584 
L 88.770637 307.584 
L 88.949891 307.584 
L 89.141097 307.584 
L 89.487656 307.584 
L 90.085173 307.584 
L 90.300278 307.584 
L 90.395881 307.584 
L 90.778292 307.584 
L 91.136801 307.584 
L 91.375808 307.584 
L 91.913573 307.584 
L 91.925523 307.584 
L 92.17648 307.584 
L 92.212331 307.584 
L 92.331834 307.584 
L 92.427437 307.584 
L 93.192258 307.584 
L 93.741973 307.584 
L 94.172185 307.584 
L 94.351439 307.584 
L 94.542645 307.584 
L 94.650198 307.584 
L 94.829453 307.584 
L 95.068459 307.584 
L 95.295515 307.584 
L 95.47477 307.584 
L 96.024485 307.584 
L 97.805084 307.584 
L 98.557955 307.584 
L 98.773061 307.584 
L 100.015895 307.584 
L 101.545537 307.584 
L 101.904046 307.584 
L 103.660745 307.584 
L 107.054638 307.584 
L 107.090489 307.584 
L 108.24967 307.584 
L 109.122044 307.584 
L 109.157895 307.584 
L 110.496332 307.584 
L 110.926544 307.584 
L 111.775017 307.584 
L 113.244907 307.584 
L 113.890225 307.584 
L 114.308486 307.584 
L 114.547493 307.584 
L 116.818055 307.584 
L 124.65747 307.584 
L 125.828602 307.584 
L 126.306615 307.584 
L 127.274592 307.584 
L 127.716754 307.584 
L 128.158916 307.584 
L 131.361604 307.584 
L 131.744014 307.584 
L 132.006921 307.584 
L 134.14603 307.584 
L 134.15798 307.584 
L 134.361136 307.584 
L 141.913743 307.584 
L 142.786117 307.584 
L 143.455335 307.584 
L 143.849696 307.584 
L 144.052851 307.584 
L 144.877424 307.584 
L 144.949126 307.584 
L 145.881251 307.584 
L 146.454867 307.584 
L 146.789476 307.584 
L 146.873129 307.584 
L 146.992632 307.584 
L 147.136036 307.584 
L 147.386993 307.584 
L 147.625999 307.584 
L 148.187665 307.584 
L 148.952486 307.584 
L 149.036138 307.584 
L 149.800959 307.584 
L 149.872661 307.584 
L 150.804786 307.584 
L 151.246948 307.584 
L 151.808614 307.584 
L 152.214925 307.584 
L 154.162828 307.584 
L 154.58109 307.584 
L 155.68052 307.584 
L 155.716371 307.584 
L 157.186261 307.584 
L 157.305764 307.584 
L 157.544771 307.584 
L 158.213989 307.584 
L 159.34927 307.584 
L 159.504625 307.584 
L 160.341148 307.584 
L 160.79526 307.584 
L 160.986465 307.584 
L 161.703485 307.584 
L 162.301001 307.584 
L 163.543835 307.584 
L 164.189153 307.584 
L 164.225004 307.584 
L 164.392309 307.584 
L 166.555318 307.584 
L 166.62702 307.584 
L 168.300066 307.584 
L 169.638502 307.584 
L 169.710204 307.584 
L 170.845485 307.584 
L 171.096442 307.584 
L 171.347399 307.584 
L 172.614134 307.584 
L 173.175799 307.584 
L 173.617961 307.584 
L 174.65764 307.584 
L 174.729342 307.584 
L 174.753242 307.584 
L 175.422461 307.584 
L 175.733169 307.584 
L 179.150963 307.584 
L 179.174864 307.584 
L 179.366069 307.584 
L 179.569224 307.584 
L 179.78433 307.584 
L 180.214542 307.584 
L 181.768085 307.584 
L 182.030992 307.584 
L 182.054893 307.584 
L 182.186346 307.584 
L 182.449253 307.584 
L 182.736061 307.584 
L 182.843614 307.584 
L 184.385206 307.584 
L 184.468859 307.584 
L 185.138077 307.584 
L 186.046302 307.584 
L 186.058252 307.584 
L 186.619918 307.584 
L 186.69162 307.584 
L 187.217434 307.584 
L 187.480341 307.584 
L 187.647646 307.584 
L 187.81495 307.584 
L 188.484169 307.584 
L 189.487996 307.584 
L 190.420122 307.584 
L 190.455973 307.584 
L 190.862284 307.584 
L 191.137141 307.584 
L 191.256645 307.584 
L 191.268595 307.584 
L 191.662956 307.584 
L 191.961714 307.584 
L 192.320224 307.584 
L 192.977492 307.584 
L 193.085045 307.584 
L 193.144796 307.584 
L 193.945468 307.584 
L 194.614687 307.584 
L 194.841743 307.584 
L 194.853693 307.584 
L 194.877594 307.584 
L 195.618514 307.584 
L 195.738017 307.584 
L 196.156279 307.584 
L 196.466987 307.584 
L 196.478938 307.584 
L 196.945001 307.584 
L 196.968901 307.584 
L 197.924927 307.584 
L 198.522444 307.584 
L 199.167761 307.584 
L 199.574073 307.584 
L 199.657725 307.584 
L 199.789178 307.584 
L 199.944533 307.584 
L 200.159639 307.584 
L 200.781056 307.584 
L 200.804956 307.584 
L 200.984211 307.584 
L 201.008112 307.584 
L 201.557827 307.584 
L 202.788711 307.584 
L 203.063568 307.584 
L 203.637184 307.584 
L 204.95172 307.584 
L 204.999521 307.584 
L 205.369981 307.584 
L 205.728491 307.584 
L 205.836044 307.584 
L 205.931647 307.584 
L 205.991398 307.584 
L 206.0631 307.584 
L 206.995226 307.584 
L 207.748097 307.584 
L 208.034904 307.584 
L 208.369514 307.584 
L 209.194086 307.584 
L 209.564546 307.584 
L 209.946957 307.584 
L 210.126212 307.584 
L 210.759579 307.584 
L 210.974685 307.584 
L 211.14199 307.584 
L 211.428797 307.584 
L 212.372873 307.584 
L 213.042092 307.584 
L 214.165422 307.584 
L 214.213224 307.584 
L 214.380528 307.584 
L 214.571733 307.584 
L 214.595634 307.584 
L 215.085598 307.584 
L 215.193151 307.584 
L 215.587511 307.584 
L 215.862369 307.584 
L 217.033501 307.584 
L 217.224706 307.584 
L 217.439812 307.584 
L 217.487613 307.584 
L 217.523464 307.584 
L 218.10903 307.584 
L 218.969454 307.584 
L 219.112858 307.584 
L 219.17261 307.584 
L 219.423566 307.584 
L 219.435517 307.584 
L 219.531119 307.584 
L 219.92548 307.584 
L 221.311718 307.584 
L 222.184092 307.584 
L 222.542602 307.584 
L 222.638205 307.584 
L 222.889161 307.584 
L 222.925012 307.584 
L 223.486678 307.584 
L 223.618131 307.584 
L 223.869088 307.584 
L 224.072244 307.584 
L 224.741462 307.584 
L 224.813164 307.584 
L 224.920717 307.584 
L 225.04022 307.584 
L 225.422631 307.584 
L 225.518233 307.584 
L 225.960396 307.584 
L 226.593763 307.584 
L 226.773018 307.584 
L 226.904471 307.584 
L 227.107627 307.584 
L 227.466137 307.584 
L 227.501988 307.584 
L 228.732871 307.584 
L 228.828474 307.584 
L 229.186984 307.584 
L 229.270636 307.584 
L 230.250563 307.584 
L 230.788328 307.584 
L 230.88393 307.584 
L 230.943682 307.584 
L 231.134887 307.584 
L 231.433645 307.584 
L 231.744354 307.584 
L 231.816056 307.584 
L 232.162615 307.584 
L 232.568927 307.584 
L 232.604778 307.584 
L 233.78786 307.584 
L 233.823711 307.584 
L 233.895413 307.584 
L 233.907363 307.584 
L 233.931264 307.584 
L 233.943214 307.584 
L 234.038817 307.584 
L 234.827538 307.584 
L 235.472856 307.584 
L 236.213776 307.584 
L 236.404982 307.584 
L 236.739591 307.584 
L 237.133952 307.584 
L 237.193703 307.584 
L 237.372958 307.584 
L 237.695617 307.584 
L 237.850971 307.584 
L 237.970475 307.584 
L 238.711395 307.584 
L 238.91455 307.584 
L 239.022103 307.584 
L 239.344762 307.584 
L 239.822775 307.584 
L 242.17699 307.584 
L 242.368195 307.584 
L 242.90596 307.584 
L 243.013513 307.584 
L 243.180817 307.584 
L 243.563228 307.584 
L 244.806062 307.584 
L 244.877764 307.584 
L 244.901665 307.584 
L 245.045068 307.584 
L 245.46333 307.584 
L 245.905492 307.584 
L 245.989144 307.584 
L 246.013045 307.584 
L 246.777866 307.584 
L 247.817544 307.584 
L 248.881124 307.584 
L 249.072329 307.584 
L 249.12013 307.584 
L 249.13208 307.584 
L 249.705696 307.584 
L 250.004454 307.584 
L 250.183709 307.584 
L 250.339064 307.584 
L 251.868705 307.584 
L 252.02406 307.584 
L 252.944235 307.584 
L 253.111539 307.584 
L 253.195192 307.584 
L 253.278844 307.584 
L 253.350546 307.584 
L 254.688983 307.584 
L 256.218625 307.584 
L 256.923694 307.584 
L 257.1388 307.584 
L 257.306104 307.584 
L 257.569012 307.584 
L 257.604863 307.584 
L 257.796068 307.584 
L 259.050852 307.584 
L 259.433263 307.584 
L 259.851524 307.584 
L 261.15411 307.584 
L 261.189961 307.584 
L 261.548471 307.584 
L 262.122086 307.584 
L 262.803255 307.584 
L 263.257367 307.584 
L 263.448573 307.584 
L 264.4524 307.584 
L 264.870662 307.584 
L 266.041794 307.584 
L 266.101545 307.584 
L 267.38023 307.584 
L 269.531289 307.584 
L 270.260259 307.584 
L 270.726322 307.584 
L 270.965329 307.584 
L 271.108733 307.584 
L 271.299938 307.584 
L 272.184262 307.584 
L 272.255964 307.584 
L 273.080537 307.584 
L 273.18809 307.584 
L 273.594401 307.584 
L 274.717731 307.584 
L 275.147943 307.584 
L 277.788966 307.584 
L 278.422333 307.584 
L 278.434283 307.584 
L 280.226832 307.584 
L 280.48974 307.584 
L 281.409915 307.584 
L 282.616898 307.584 
L 283.79998 307.584 
L 284.588702 307.584 
L 287.301426 307.584 
L 287.456781 307.584 
L 287.564333 307.584 
L 287.588234 307.584 
L 288.651813 307.584 
L 290.73117 307.584 
L 291.364538 307.584 
L 291.531842 307.584 
L 292.153259 307.584 
L 292.643223 307.584 
L 292.870279 307.584 
L 293.850206 307.584 
L 293.886057 307.584 
L 295.547152 307.584 
L 295.989314 307.584 
L 296.539029 307.584 
L 296.789986 307.584 
L 298.235976 307.584 
L 298.510833 307.584 
L 299.060548 307.584 
L 299.13225 307.584 
L 299.359307 307.584 
L 299.897071 307.584 
L 300.972601 307.584 
L 302.526143 307.584 
L 302.645647 307.584 
L 303.314865 307.584 
L 303.673375 307.584 
L 304.844507 307.584 
L 310.258005 307.584 
L 310.831621 307.584 
L 313.054382 307.584 
L 313.35314 307.584 
L 315.456398 307.584 
L 316.735083 307.584 
L 318.348377 307.584 
L 323.224111 307.584 
L 324.777653 307.584 
L 331.087426 307.584 
L 348.343699 307.584 
L 369.698934 307.584 
L 373.55889 307.584 
L 398.487273 307.584 
L 398.487273 307.171231 
L 398.487273 307.171231 
L 373.55889 306.758463 
L 369.698934 306.345694 
L 348.343699 305.932925 
L 331.087426 305.520156 
L 324.777653 305.107388 
L 323.224111 304.694619 
L 318.348377 304.28185 
L 316.735083 303.869081 
L 315.456398 303.456313 
L 313.35314 303.043544 
L 313.054382 302.630775 
L 310.831621 302.218007 
L 310.258005 301.805238 
L 304.844507 301.392469 
L 303.673375 300.9797 
L 303.314865 300.566932 
L 302.645647 300.154163 
L 302.526143 299.741394 
L 300.972601 299.328625 
L 299.897071 298.915857 
L 299.359307 298.503088 
L 299.13225 298.090319 
L 299.060548 297.67755 
L 298.510833 297.264782 
L 298.235976 296.852013 
L 296.789986 296.439244 
L 296.539029 296.026476 
L 295.989314 295.613707 
L 295.547152 295.200938 
L 293.886057 294.788169 
L 293.850206 294.375401 
L 292.870279 293.962632 
L 292.643223 293.137094 
L 292.153259 292.724326 
L 291.531842 292.311557 
L 291.364538 291.898788 
L 290.73117 291.48602 
L 288.651813 291.073251 
L 287.588234 290.660482 
L 287.564333 290.247713 
L 287.456781 289.834945 
L 287.301426 288.596638 
L 284.588702 288.18387 
L 283.79998 287.771101 
L 282.616898 287.358332 
L 281.409915 286.945564 
L 280.48974 286.532795 
L 280.226832 286.120026 
L 278.434283 285.707257 
L 278.422333 285.294489 
L 277.788966 284.88172 
L 275.147943 284.468951 
L 274.717731 284.468951 
L 273.594401 284.056182 
L 273.18809 283.643414 
L 273.080537 282.817876 
L 272.255964 282.405107 
L 272.184262 281.992339 
L 271.299938 281.57957 
L 271.108733 281.166801 
L 270.965329 280.754033 
L 270.726322 280.341264 
L 270.260259 279.928495 
L 269.531289 279.515726 
L 267.38023 279.102958 
L 266.101545 278.690189 
L 266.041794 278.27742 
L 264.870662 277.864651 
L 264.4524 277.451883 
L 263.448573 277.039114 
L 263.257367 276.626345 
L 262.803255 276.213577 
L 262.122086 275.800808 
L 261.548471 275.388039 
L 261.189961 274.97527 
L 261.15411 274.562502 
L 259.851524 274.149733 
L 259.433263 273.736964 
L 259.050852 273.324195 
L 257.796068 272.911427 
L 257.604863 272.498658 
L 257.569012 272.085889 
L 257.306104 271.673121 
L 257.1388 271.260352 
L 256.923694 270.847583 
L 256.218625 270.434814 
L 254.688983 270.022046 
L 253.350546 269.609277 
L 253.278844 269.196508 
L 253.195192 268.783739 
L 253.111539 268.370971 
L 252.944235 267.958202 
L 252.02406 267.545433 
L 251.868705 267.132664 
L 250.339064 266.719896 
L 250.183709 266.307127 
L 250.004454 265.894358 
L 249.705696 265.48159 
L 249.13208 265.068821 
L 249.12013 264.656052 
L 249.072329 264.243283 
L 248.881124 263.830515 
L 247.817544 263.004977 
L 246.777866 262.592208 
L 246.013045 262.17944 
L 245.989144 261.766671 
L 245.905492 261.353902 
L 245.46333 260.941134 
L 245.045068 260.528365 
L 244.901665 260.115596 
L 244.877764 259.702827 
L 244.806062 259.290059 
L 243.563228 258.87729 
L 243.180817 258.464521 
L 243.013513 258.051752 
L 242.90596 257.638984 
L 242.368195 257.226215 
L 242.17699 256.400678 
L 239.822775 255.987909 
L 239.344762 255.57514 
L 239.022103 255.162371 
L 238.91455 254.749603 
L 238.711395 254.336834 
L 237.970475 253.924065 
L 237.850971 253.511296 
L 237.695617 253.098528 
L 237.372958 252.685759 
L 237.193703 251.860221 
L 237.133952 251.447453 
L 236.739591 251.034684 
L 236.404982 250.621915 
L 236.213776 250.209147 
L 235.472856 249.796378 
L 234.827538 249.383609 
L 234.038817 248.97084 
L 233.943214 248.558072 
L 233.931264 248.145303 
L 233.907363 247.732534 
L 233.895413 247.319765 
L 233.823711 246.906997 
L 233.78786 246.494228 
L 232.604778 246.081459 
L 232.568927 244.843153 
L 232.162615 244.430384 
L 231.816056 244.017616 
L 231.744354 243.604847 
L 231.433645 243.192078 
L 231.134887 242.779309 
L 230.943682 242.366541 
L 230.88393 241.953772 
L 230.788328 241.541003 
L 230.250563 241.128235 
L 229.270636 240.715466 
L 229.186984 240.302697 
L 228.828474 239.889928 
L 228.732871 239.47716 
L 227.501988 239.064391 
L 227.466137 238.651622 
L 227.107627 238.238853 
L 226.904471 237.826085 
L 226.773018 237.413316 
L 226.593763 237.000547 
L 225.960396 236.17501 
L 225.518233 235.762241 
L 225.422631 235.349472 
L 225.04022 234.936704 
L 224.920717 234.111166 
L 224.813164 233.698397 
L 224.741462 233.285629 
L 224.072244 232.87286 
L 223.869088 232.460091 
L 223.618131 232.047322 
L 223.486678 231.634554 
L 222.925012 231.221785 
L 222.889161 230.396248 
L 222.638205 229.983479 
L 222.542602 229.57071 
L 222.184092 229.157941 
L 221.311718 228.745173 
L 219.92548 228.332404 
L 219.531119 227.919635 
L 219.435517 227.506866 
L 219.423566 227.094098 
L 219.17261 226.26856 
L 219.112858 225.855792 
L 218.969454 225.443023 
L 218.10903 225.030254 
L 217.523464 224.204717 
L 217.487613 223.379179 
L 217.439812 222.96641 
L 217.224706 222.553642 
L 217.033501 222.140873 
L 215.862369 221.315336 
L 215.587511 220.902567 
L 215.193151 220.489798 
L 215.085598 220.077029 
L 214.595634 219.664261 
L 214.571733 219.251492 
L 214.380528 218.838723 
L 214.213224 218.425954 
L 214.165422 218.013186 
L 213.042092 217.600417 
L 212.372873 217.187648 
L 211.428797 215.949342 
L 211.14199 215.123805 
L 210.974685 214.711036 
L 210.759579 214.298267 
L 210.126212 214.298267 
L 209.946957 213.059961 
L 209.564546 212.647192 
L 209.194086 212.234423 
L 208.369514 211.821655 
L 208.034904 211.408886 
L 207.748097 210.583349 
L 206.995226 210.17058 
L 206.0631 209.757811 
L 205.991398 209.345042 
L 205.931647 208.932274 
L 205.836044 208.519505 
L 205.728491 207.693967 
L 205.369981 207.281199 
L 204.999521 206.86843 
L 204.95172 206.455661 
L 203.637184 206.042893 
L 203.063568 205.630124 
L 202.788711 205.217355 
L 201.557827 204.804586 
L 201.008112 204.391818 
L 200.984211 203.979049 
L 200.804956 203.56628 
L 200.781056 203.153511 
L 200.159639 202.740743 
L 199.944533 202.327974 
L 199.789178 201.915205 
L 199.657725 201.502436 
L 199.574073 201.089668 
L 199.167761 200.676899 
L 198.522444 200.26413 
L 197.924927 199.438593 
L 196.968901 199.025824 
L 196.945001 198.613055 
L 196.478938 198.200287 
L 196.466987 197.787518 
L 196.156279 197.374749 
L 195.738017 196.96198 
L 195.618514 196.549212 
L 194.877594 196.136443 
L 194.853693 195.723674 
L 194.841743 195.310906 
L 194.614687 194.898137 
L 193.945468 193.659831 
L 193.144796 193.247062 
L 193.085045 192.834293 
L 192.977492 192.421524 
L 192.320224 192.008756 
L 191.961714 191.595987 
L 191.662956 191.183218 
L 191.268595 190.77045 
L 191.256645 190.357681 
L 191.137141 190.357681 
L 190.862284 189.944912 
L 190.455973 189.532143 
L 190.420122 189.119375 
L 189.487996 188.706606 
L 188.484169 188.293837 
L 187.81495 187.881068 
L 187.647646 187.4683 
L 187.480341 186.642762 
L 187.217434 186.229993 
L 186.69162 185.817225 
L 186.619918 185.404456 
L 186.058252 185.404456 
L 186.046302 184.991687 
L 185.138077 184.578919 
L 184.468859 183.753381 
L 184.385206 183.340612 
L 182.843614 183.340612 
L 182.736061 182.927844 
L 182.449253 182.515075 
L 182.186346 182.102306 
L 182.054893 181.689537 
L 182.030992 181.276769 
L 181.768085 180.864 
L 180.214542 180.451231 
L 179.78433 180.038463 
L 179.569224 179.625694 
L 179.366069 179.212925 
L 179.174864 178.800156 
L 179.150963 178.387388 
L 175.733169 177.974619 
L 175.422461 177.56185 
L 174.753242 177.149081 
L 174.729342 176.736313 
L 174.65764 176.323544 
L 173.617961 175.498007 
L 173.175799 174.672469 
L 172.614134 174.2597 
L 171.347399 173.434163 
L 171.096442 173.021394 
L 170.845485 172.608625 
L 169.710204 172.195857 
L 169.638502 171.783088 
L 168.300066 171.370319 
L 166.62702 170.95755 
L 166.555318 170.544782 
L 164.392309 169.719244 
L 164.225004 169.306476 
L 164.189153 168.893707 
L 163.543835 168.480938 
L 162.301001 168.068169 
L 161.703485 167.655401 
L 160.986465 167.655401 
L 160.79526 167.242632 
L 160.341148 166.829863 
L 159.504625 166.417094 
L 159.34927 166.004326 
L 158.213989 165.591557 
L 157.544771 165.178788 
L 157.305764 164.76602 
L 157.186261 164.353251 
L 155.716371 164.353251 
L 155.68052 163.940482 
L 154.58109 163.527713 
L 154.162828 163.114945 
L 152.214925 162.702176 
L 151.808614 162.289407 
L 151.246948 161.46387 
L 150.804786 161.051101 
L 149.872661 160.638332 
L 149.800959 160.225564 
L 149.036138 159.812795 
L 148.952486 159.400026 
L 148.187665 158.987257 
L 147.625999 158.574489 
L 147.386993 158.16172 
L 147.136036 157.748951 
L 146.992632 157.336182 
L 146.873129 156.923414 
L 146.789476 156.510645 
L 146.454867 156.097876 
L 145.881251 155.685107 
L 144.949126 155.272339 
L 144.877424 154.85957 
L 144.052851 154.85957 
L 143.849696 154.446801 
L 143.455335 154.034033 
L 142.786117 153.621264 
L 141.913743 153.208495 
L 134.361136 153.208495 
L 134.15798 152.795726 
L 134.14603 152.382958 
L 132.006921 151.970189 
L 131.744014 151.55742 
L 131.361604 151.144651 
L 128.158916 150.731883 
L 127.716754 150.319114 
L 127.274592 149.906345 
L 126.306615 149.493577 
L 125.828602 149.080808 
L 124.65747 148.668039 
L 116.818055 148.25527 
L 114.547493 147.842502 
L 114.308486 147.842502 
L 113.890225 147.429733 
L 113.244907 147.016964 
L 111.775017 146.604195 
L 110.926544 146.604195 
L 110.496332 146.191427 
L 109.157895 145.365889 
L 109.122044 144.953121 
L 108.24967 144.540352 
L 107.090489 144.127583 
L 107.054638 144.127583 
L 103.660745 144.127583 
L 101.904046 144.127583 
L 101.545537 143.714814 
L 100.015895 143.302046 
L 98.773061 142.889277 
L 98.557955 142.889277 
L 97.805084 142.063739 
L 96.024485 142.063739 
L 95.47477 142.063739 
L 95.295515 141.650971 
L 95.068459 141.238202 
L 94.829453 141.238202 
L 94.650198 141.238202 
L 94.542645 141.238202 
L 94.351439 140.825433 
L 94.172185 140.825433 
L 93.741973 140.412664 
L 93.192258 140.412664 
L 92.427437 139.999896 
L 92.331834 139.999896 
L 92.212331 139.999896 
L 92.17648 139.999896 
L 91.925523 139.999896 
L 91.913573 139.587127 
L 91.375808 139.587127 
L 91.136801 139.587127 
L 90.778292 139.587127 
L 90.395881 139.587127 
L 90.300278 139.587127 
L 90.085173 139.587127 
L 89.487656 139.587127 
L 89.141097 139.587127 
L 88.949891 139.587127 
L 88.770637 139.587127 
L 88.651133 139.587127 
L 88.412127 139.587127 
L 88.280673 139.587127 
L 87.611455 139.587127 
L 87.503902 139.587127 
L 87.08564 139.174358 
L 86.918336 138.76159 
L 86.786882 138.76159 
L 86.559826 138.76159 
L 86.296919 138.76159 
L 86.284968 138.76159 
L 85.902558 138.76159 
L 85.61575 138.76159 
L 85.520148 138.76159 
L 85.352843 138.76159 
L 85.293091 138.76159 
L 84.588022 138.76159 
L 84.492419 138.76159 
L 84.384866 138.348821 
L 84.289264 138.348821 
L 84.181711 138.348821 
L 83.548343 138.348821 
L 83.512492 138.348821 
L 83.118132 138.348821 
L 82.903026 138.348821 
L 81.947 138.348821 
L 81.935049 138.348821 
L 81.887248 138.348821 
L 81.839447 138.348821 
L 81.755794 138.348821 
L 81.122427 138.348821 
L 81.014874 138.348821 
L 80.847569 138.348821 
L 80.835619 138.348821 
L 80.477109 138.348821 
L 80.190301 138.348821 
L 80.1186 138.348821 
L 80.070798 138.348821 
L 79.975196 138.348821 
L 79.903494 138.348821 
L 79.592785 137.936052 
L 79.329878 137.936052 
L 79.150623 137.936052 
L 79.090871 137.936052 
L 78.863815 137.936052 
L 78.816014 137.936052 
L 78.744312 137.936052 
L 78.385802 137.936052 
L 78.373852 137.936052 
L 78.254348 137.936052 
L 78.039243 137.936052 
L 77.907789 137.936052 
L 77.740484 137.936052 
L 77.716584 137.936052 
L 77.57318 137.936052 
L 77.525378 137.936052 
L 77.501478 137.936052 
L 77.334173 137.936052 
L 77.298322 137.936052 
L 77.166869 137.936052 
L 77.131018 137.936052 
L 77.119067 137.936052 
L 76.951763 137.936052 
L 76.892011 137.936052 
L 76.86811 137.936052 
L 76.772508 137.936052 
L 76.605203 137.936052 
L 76.593253 137.936052 
L 76.521551 137.936052 
L 76.413998 137.936052 
L 76.186942 137.936052 
L 76.11524 137.936052 
L 75.947935 137.523283 
L 75.888184 137.523283 
L 75.804531 137.523283 
L 75.75673 137.523283 
L 75.661127 137.523283 
L 75.577475 137.523283 
L 75.517723 137.523283 
L 75.242866 137.523283 
L 75.147263 137.110515 
L 75.135313 137.110515 
L 75.063611 137.110515 
L 74.991909 137.110515 
L 74.979959 137.110515 
L 74.956058 136.697746 
L 74.764853 136.697746 
L 74.752902 136.697746 
L 74.609499 136.697746 
L 74.513896 136.697746 
L 74.430244 136.697746 
L 74.334641 136.697746 
L 74.215138 136.697746 
L 74.059783 136.697746 
L 73.976131 136.697746 
L 73.868578 136.697746 
L 73.856628 136.697746 
L 73.844678 136.284977 
L 73.832727 135.872208 
z
" clip-path="url(#peb84b5f43f)" style="fill: #008000"/>
   </g>
   <g id="PolyCollection_2">
    <path d="M 73.832727 135.872208 
L 73.832727 135.872208 
L 73.844678 136.284977 
L 73.856628 136.697746 
L 73.868578 136.697746 
L 73.976131 136.697746 
L 74.059783 136.697746 
L 74.215138 136.697746 
L 74.334641 136.697746 
L 74.430244 136.697746 
L 74.513896 136.697746 
L 74.609499 136.697746 
L 74.752902 136.697746 
L 74.764853 136.697746 
L 74.956058 136.697746 
L 74.979959 137.110515 
L 74.991909 137.110515 
L 75.063611 137.110515 
L 75.135313 137.110515 
L 75.147263 137.110515 
L 75.242866 137.523283 
L 75.517723 137.523283 
L 75.577475 137.523283 
L 75.661127 137.523283 
L 75.75673 137.523283 
L 75.804531 137.523283 
L 75.888184 137.523283 
L 75.947935 137.523283 
L 76.11524 137.936052 
L 76.186942 137.936052 
L 76.413998 137.936052 
L 76.521551 137.936052 
L 76.593253 137.936052 
L 76.605203 137.936052 
L 76.772508 137.936052 
L 76.86811 137.936052 
L 76.892011 137.936052 
L 76.951763 137.936052 
L 77.119067 137.936052 
L 77.131018 137.936052 
L 77.166869 137.936052 
L 77.298322 137.936052 
L 77.334173 137.936052 
L 77.501478 137.936052 
L 77.525378 137.936052 
L 77.57318 137.936052 
L 77.716584 137.936052 
L 77.740484 137.936052 
L 77.907789 137.936052 
L 78.039243 137.936052 
L 78.254348 137.936052 
L 78.373852 137.936052 
L 78.385802 137.936052 
L 78.744312 137.936052 
L 78.816014 137.936052 
L 78.863815 137.936052 
L 79.090871 137.936052 
L 79.150623 137.936052 
L 79.329878 137.936052 
L 79.592785 137.936052 
L 79.903494 138.348821 
L 79.975196 138.348821 
L 80.070798 138.348821 
L 80.1186 138.348821 
L 80.190301 138.348821 
L 80.477109 138.348821 
L 80.835619 138.348821 
L 80.847569 138.348821 
L 81.014874 138.348821 
L 81.122427 138.348821 
L 81.755794 138.348821 
L 81.839447 138.348821 
L 81.887248 138.348821 
L 81.935049 138.348821 
L 81.947 138.348821 
L 82.903026 138.348821 
L 83.118132 138.348821 
L 83.512492 138.348821 
L 83.548343 138.348821 
L 84.181711 138.348821 
L 84.289264 138.348821 
L 84.384866 138.348821 
L 84.492419 138.76159 
L 84.588022 138.76159 
L 85.293091 138.76159 
L 85.352843 138.76159 
L 85.520148 138.76159 
L 85.61575 138.76159 
L 85.902558 138.76159 
L 86.284968 138.76159 
L 86.296919 138.76159 
L 86.559826 138.76159 
L 86.786882 138.76159 
L 86.918336 138.76159 
L 87.08564 139.174358 
L 87.503902 139.587127 
L 87.611455 139.587127 
L 88.280673 139.587127 
L 88.412127 139.587127 
L 88.651133 139.587127 
L 88.770637 139.587127 
L 88.949891 139.587127 
L 89.141097 139.587127 
L 89.487656 139.587127 
L 90.085173 139.587127 
L 90.300278 139.587127 
L 90.395881 139.587127 
L 90.778292 139.587127 
L 91.136801 139.587127 
L 91.375808 139.587127 
L 91.913573 139.587127 
L 91.925523 139.999896 
L 92.17648 139.999896 
L 92.212331 139.999896 
L 92.331834 139.999896 
L 92.427437 139.999896 
L 93.192258 140.412664 
L 93.741973 140.412664 
L 94.172185 140.825433 
L 94.351439 140.825433 
L 94.542645 141.238202 
L 94.650198 141.238202 
L 94.829453 141.238202 
L 95.068459 141.238202 
L 95.295515 141.650971 
L 95.47477 142.063739 
L 96.024485 142.063739 
L 97.805084 142.063739 
L 98.557955 142.889277 
L 98.773061 142.889277 
L 100.015895 143.302046 
L 101.545537 143.714814 
L 101.904046 144.127583 
L 103.660745 144.127583 
L 107.054638 144.127583 
L 107.090489 144.127583 
L 108.24967 144.540352 
L 109.122044 144.953121 
L 109.157895 145.365889 
L 110.496332 146.191427 
L 110.926544 146.604195 
L 111.775017 146.604195 
L 113.244907 147.016964 
L 113.890225 147.429733 
L 114.308486 147.842502 
L 114.547493 147.842502 
L 116.818055 148.25527 
L 124.65747 148.668039 
L 125.828602 149.080808 
L 126.306615 149.493577 
L 127.274592 149.906345 
L 127.716754 150.319114 
L 128.158916 150.731883 
L 131.361604 151.144651 
L 131.744014 151.55742 
L 132.006921 151.970189 
L 134.14603 152.382958 
L 134.15798 152.795726 
L 134.361136 153.208495 
L 141.913743 153.208495 
L 142.786117 153.621264 
L 143.455335 154.034033 
L 143.849696 154.446801 
L 144.052851 154.85957 
L 144.877424 154.85957 
L 144.949126 155.272339 
L 145.881251 155.685107 
L 146.454867 156.097876 
L 146.789476 156.510645 
L 146.873129 156.923414 
L 146.992632 157.336182 
L 147.136036 157.748951 
L 147.386993 158.16172 
L 147.625999 158.574489 
L 148.187665 158.987257 
L 148.952486 159.400026 
L 149.036138 159.812795 
L 149.800959 160.225564 
L 149.872661 160.638332 
L 150.804786 161.051101 
L 151.246948 161.46387 
L 151.808614 162.289407 
L 152.214925 162.702176 
L 154.162828 163.114945 
L 154.58109 163.527713 
L 155.68052 163.940482 
L 155.716371 164.353251 
L 157.186261 164.353251 
L 157.305764 164.76602 
L 157.544771 165.178788 
L 158.213989 165.591557 
L 159.34927 166.004326 
L 159.504625 166.417094 
L 160.341148 166.829863 
L 160.79526 167.242632 
L 160.986465 167.655401 
L 161.703485 167.655401 
L 162.301001 168.068169 
L 163.543835 168.480938 
L 164.189153 168.893707 
L 164.225004 169.306476 
L 164.392309 169.719244 
L 166.555318 170.544782 
L 166.62702 170.95755 
L 168.300066 171.370319 
L 169.638502 171.783088 
L 169.710204 172.195857 
L 170.845485 172.608625 
L 171.096442 173.021394 
L 171.347399 173.434163 
L 172.614134 174.2597 
L 173.175799 174.672469 
L 173.617961 175.498007 
L 174.65764 176.323544 
L 174.729342 176.736313 
L 174.753242 177.149081 
L 175.422461 177.56185 
L 175.733169 177.974619 
L 179.150963 178.387388 
L 179.174864 178.800156 
L 179.366069 179.212925 
L 179.569224 179.625694 
L 179.78433 180.038463 
L 180.214542 180.451231 
L 181.768085 180.864 
L 182.030992 181.276769 
L 182.054893 181.689537 
L 182.186346 182.102306 
L 182.449253 182.515075 
L 182.736061 182.927844 
L 182.843614 183.340612 
L 184.385206 183.340612 
L 184.468859 183.753381 
L 185.138077 184.578919 
L 186.046302 184.991687 
L 186.058252 185.404456 
L 186.619918 185.404456 
L 186.69162 185.817225 
L 187.217434 186.229993 
L 187.480341 186.642762 
L 187.647646 187.4683 
L 187.81495 187.881068 
L 188.484169 188.293837 
L 189.487996 188.706606 
L 190.420122 189.119375 
L 190.455973 189.532143 
L 190.862284 189.944912 
L 191.137141 190.357681 
L 191.256645 190.357681 
L 191.268595 190.77045 
L 191.662956 191.183218 
L 191.961714 191.595987 
L 192.320224 192.008756 
L 192.977492 192.421524 
L 193.085045 192.834293 
L 193.144796 193.247062 
L 193.945468 193.659831 
L 194.614687 194.898137 
L 194.841743 195.310906 
L 194.853693 195.723674 
L 194.877594 196.136443 
L 195.618514 196.549212 
L 195.738017 196.96198 
L 196.156279 197.374749 
L 196.466987 197.787518 
L 196.478938 198.200287 
L 196.945001 198.613055 
L 196.968901 199.025824 
L 197.924927 199.438593 
L 198.522444 200.26413 
L 199.167761 200.676899 
L 199.574073 201.089668 
L 199.657725 201.502436 
L 199.789178 201.915205 
L 199.944533 202.327974 
L 200.159639 202.740743 
L 200.781056 203.153511 
L 200.804956 203.56628 
L 200.984211 203.979049 
L 201.008112 204.391818 
L 201.557827 204.804586 
L 202.788711 205.217355 
L 203.063568 205.630124 
L 203.637184 206.042893 
L 204.95172 206.455661 
L 204.999521 206.86843 
L 205.369981 207.281199 
L 205.728491 207.693967 
L 205.836044 208.519505 
L 205.931647 208.932274 
L 205.991398 209.345042 
L 206.0631 209.757811 
L 206.995226 210.17058 
L 207.748097 210.583349 
L 208.034904 211.408886 
L 208.369514 211.821655 
L 209.194086 212.234423 
L 209.564546 212.647192 
L 209.946957 213.059961 
L 210.126212 214.298267 
L 210.759579 214.298267 
L 210.974685 214.711036 
L 211.14199 215.123805 
L 211.428797 215.949342 
L 212.372873 217.187648 
L 213.042092 217.600417 
L 214.165422 218.013186 
L 214.213224 218.425954 
L 214.380528 218.838723 
L 214.571733 219.251492 
L 214.595634 219.664261 
L 215.085598 220.077029 
L 215.193151 220.489798 
L 215.587511 220.902567 
L 215.862369 221.315336 
L 217.033501 222.140873 
L 217.224706 222.553642 
L 217.439812 222.96641 
L 217.487613 223.379179 
L 217.523464 224.204717 
L 218.10903 225.030254 
L 218.969454 225.443023 
L 219.112858 225.855792 
L 219.17261 226.26856 
L 219.423566 227.094098 
L 219.435517 227.506866 
L 219.531119 227.919635 
L 219.92548 228.332404 
L 221.311718 228.745173 
L 222.184092 229.157941 
L 222.542602 229.57071 
L 222.638205 229.983479 
L 222.889161 230.396248 
L 222.925012 231.221785 
L 223.486678 231.634554 
L 223.618131 232.047322 
L 223.869088 232.460091 
L 224.072244 232.87286 
L 224.741462 233.285629 
L 224.813164 233.698397 
L 224.920717 234.111166 
L 225.04022 234.936704 
L 225.422631 235.349472 
L 225.518233 235.762241 
L 225.960396 236.17501 
L 226.593763 237.000547 
L 226.773018 237.413316 
L 226.904471 237.826085 
L 227.107627 238.238853 
L 227.466137 238.651622 
L 227.501988 239.064391 
L 228.732871 239.47716 
L 228.828474 239.889928 
L 229.186984 240.302697 
L 229.270636 240.715466 
L 230.250563 241.128235 
L 230.788328 241.541003 
L 230.88393 241.953772 
L 230.943682 242.366541 
L 231.134887 242.779309 
L 231.433645 243.192078 
L 231.744354 243.604847 
L 231.816056 244.017616 
L 232.162615 244.430384 
L 232.568927 244.843153 
L 232.604778 246.081459 
L 233.78786 246.494228 
L 233.823711 246.906997 
L 233.895413 247.319765 
L 233.907363 247.732534 
L 233.931264 248.145303 
L 233.943214 248.558072 
L 234.038817 248.97084 
L 234.827538 249.383609 
L 235.472856 249.796378 
L 236.213776 250.209147 
L 236.404982 250.621915 
L 236.739591 251.034684 
L 237.133952 251.447453 
L 237.193703 251.860221 
L 237.372958 252.685759 
L 237.695617 253.098528 
L 237.850971 253.511296 
L 237.970475 253.924065 
L 238.711395 254.336834 
L 238.91455 254.749603 
L 239.022103 255.162371 
L 239.344762 255.57514 
L 239.822775 255.987909 
L 242.17699 256.400678 
L 242.368195 257.226215 
L 242.90596 257.638984 
L 243.013513 258.051752 
L 243.180817 258.464521 
L 243.563228 258.87729 
L 244.806062 259.290059 
L 244.877764 259.702827 
L 244.901665 260.115596 
L 245.045068 260.528365 
L 245.46333 260.941134 
L 245.905492 261.353902 
L 245.989144 261.766671 
L 246.013045 262.17944 
L 246.777866 262.592208 
L 247.817544 263.004977 
L 248.881124 263.830515 
L 249.072329 264.243283 
L 249.12013 264.656052 
L 249.13208 265.068821 
L 249.705696 265.48159 
L 250.004454 265.894358 
L 250.183709 266.307127 
L 250.339064 266.719896 
L 251.868705 267.132664 
L 252.02406 267.545433 
L 252.944235 267.958202 
L 253.111539 268.370971 
L 253.195192 268.783739 
L 253.278844 269.196508 
L 253.350546 269.609277 
L 254.688983 270.022046 
L 256.218625 270.434814 
L 256.923694 270.847583 
L 257.1388 271.260352 
L 257.306104 271.673121 
L 257.569012 272.085889 
L 257.604863 272.498658 
L 257.796068 272.911427 
L 259.050852 273.324195 
L 259.433263 273.736964 
L 259.851524 274.149733 
L 261.15411 274.562502 
L 261.189961 274.97527 
L 261.548471 275.388039 
L 262.122086 275.800808 
L 262.803255 276.213577 
L 263.257367 276.626345 
L 263.448573 277.039114 
L 264.4524 277.451883 
L 264.870662 277.864651 
L 266.041794 278.27742 
L 266.101545 278.690189 
L 267.38023 279.102958 
L 269.531289 279.515726 
L 270.260259 279.928495 
L 270.726322 280.341264 
L 270.965329 280.754033 
L 271.108733 281.166801 
L 271.299938 281.57957 
L 272.184262 281.992339 
L 272.255964 282.405107 
L 273.080537 282.817876 
L 273.18809 283.643414 
L 273.594401 284.056182 
L 274.717731 284.468951 
L 275.147943 284.468951 
L 277.788966 284.88172 
L 278.422333 285.294489 
L 278.434283 285.707257 
L 280.226832 286.120026 
L 280.48974 286.532795 
L 281.409915 286.945564 
L 282.616898 287.358332 
L 283.79998 287.771101 
L 284.588702 288.18387 
L 287.301426 288.596638 
L 287.456781 289.834945 
L 287.564333 290.247713 
L 287.588234 290.660482 
L 288.651813 291.073251 
L 290.73117 291.48602 
L 291.364538 291.898788 
L 291.531842 292.311557 
L 292.153259 292.724326 
L 292.643223 293.137094 
L 292.870279 293.962632 
L 293.850206 294.375401 
L 293.886057 294.788169 
L 295.547152 295.200938 
L 295.989314 295.613707 
L 296.539029 296.026476 
L 296.789986 296.439244 
L 298.235976 296.852013 
L 298.510833 297.264782 
L 299.060548 297.67755 
L 299.13225 298.090319 
L 299.359307 298.503088 
L 299.897071 298.915857 
L 300.972601 299.328625 
L 302.526143 299.741394 
L 302.645647 300.154163 
L 303.314865 300.566932 
L 303.673375 300.9797 
L 304.844507 301.392469 
L 310.258005 301.805238 
L 310.831621 302.218007 
L 313.054382 302.630775 
L 313.35314 303.043544 
L 315.456398 303.456313 
L 316.735083 303.869081 
L 318.348377 304.28185 
L 323.224111 304.694619 
L 324.777653 305.107388 
L 331.087426 305.520156 
L 348.343699 305.932925 
L 369.698934 306.345694 
L 373.55889 306.758463 
L 398.487273 307.171231 
L 398.487273 307.171231 
L 398.487273 307.171231 
L 373.55889 306.758463 
L 369.698934 306.345694 
L 348.343699 305.932925 
L 331.087426 305.520156 
L 324.777653 305.107388 
L 323.224111 304.694619 
L 318.348377 304.28185 
L 316.735083 303.869081 
L 315.456398 303.456313 
L 313.35314 303.043544 
L 313.054382 302.630775 
L 310.831621 302.218007 
L 310.258005 301.805238 
L 304.844507 301.392469 
L 303.673375 300.9797 
L 303.314865 300.566932 
L 302.645647 300.154163 
L 302.526143 299.741394 
L 300.972601 299.328625 
L 299.897071 298.915857 
L 299.359307 298.503088 
L 299.13225 298.090319 
L 299.060548 297.67755 
L 298.510833 297.264782 
L 298.235976 296.852013 
L 296.789986 296.439244 
L 296.539029 296.026476 
L 295.989314 295.613707 
L 295.547152 295.200938 
L 293.886057 294.788169 
L 293.850206 294.375401 
L 292.870279 293.962632 
L 292.643223 293.137094 
L 292.153259 292.724326 
L 291.531842 292.311557 
L 291.364538 291.898788 
L 290.73117 291.48602 
L 288.651813 291.073251 
L 287.588234 290.660482 
L 287.564333 290.247713 
L 287.456781 289.834945 
L 287.301426 288.596638 
L 284.588702 288.18387 
L 283.79998 287.771101 
L 282.616898 287.358332 
L 281.409915 286.945564 
L 280.48974 286.532795 
L 280.226832 286.120026 
L 278.434283 285.707257 
L 278.422333 285.294489 
L 277.788966 284.88172 
L 275.147943 284.468951 
L 274.717731 284.468951 
L 273.594401 284.056182 
L 273.18809 283.643414 
L 273.080537 282.817876 
L 272.255964 282.405107 
L 272.184262 281.992339 
L 271.299938 281.57957 
L 271.108733 281.166801 
L 270.965329 280.754033 
L 270.726322 280.341264 
L 270.260259 279.928495 
L 269.531289 279.515726 
L 267.38023 279.102958 
L 266.101545 278.690189 
L 266.041794 278.27742 
L 264.870662 277.864651 
L 264.4524 277.451883 
L 263.448573 277.039114 
L 263.257367 276.626345 
L 262.803255 276.213577 
L 262.122086 275.800808 
L 261.548471 275.388039 
L 261.189961 274.97527 
L 261.15411 274.562502 
L 259.851524 274.149733 
L 259.433263 273.736964 
L 259.050852 273.324195 
L 257.796068 272.911427 
L 257.604863 272.498658 
L 257.569012 272.085889 
L 257.306104 271.673121 
L 257.1388 271.260352 
L 256.923694 270.847583 
L 256.218625 270.434814 
L 254.688983 270.022046 
L 253.350546 269.609277 
L 253.278844 269.196508 
L 253.195192 268.783739 
L 253.111539 268.370971 
L 252.944235 267.958202 
L 252.02406 267.545433 
L 251.868705 267.132664 
L 250.339064 266.719896 
L 250.183709 266.307127 
L 250.004454 265.894358 
L 249.705696 265.48159 
L 249.13208 265.068821 
L 249.12013 264.656052 
L 249.072329 264.243283 
L 248.881124 263.830515 
L 247.817544 263.004977 
L 246.777866 262.592208 
L 246.013045 262.17944 
L 245.989144 261.766671 
L 245.905492 261.353902 
L 245.46333 260.941134 
L 245.045068 260.528365 
L 244.901665 260.115596 
L 244.877764 259.702827 
L 244.806062 259.290059 
L 243.563228 258.87729 
L 243.180817 258.464521 
L 243.013513 258.051752 
L 242.90596 257.638984 
L 242.368195 257.226215 
L 242.17699 256.400678 
L 239.822775 255.987909 
L 239.344762 255.57514 
L 239.022103 255.162371 
L 238.91455 254.749603 
L 238.711395 254.336834 
L 237.970475 253.924065 
L 237.850971 253.511296 
L 237.695617 253.098528 
L 237.372958 252.685759 
L 237.193703 251.860221 
L 237.133952 251.447453 
L 236.739591 251.034684 
L 236.404982 250.621915 
L 236.213776 250.209147 
L 235.472856 249.796378 
L 234.827538 249.383609 
L 234.038817 248.97084 
L 233.943214 248.558072 
L 233.931264 248.145303 
L 233.907363 247.732534 
L 233.895413 247.319765 
L 233.823711 246.906997 
L 233.78786 246.494228 
L 232.604778 246.081459 
L 232.568927 244.843153 
L 232.162615 244.430384 
L 231.816056 244.017616 
L 231.744354 243.604847 
L 231.433645 243.192078 
L 231.134887 242.779309 
L 230.943682 242.366541 
L 230.88393 241.953772 
L 230.788328 241.541003 
L 230.250563 241.128235 
L 229.270636 240.715466 
L 229.186984 240.302697 
L 228.828474 239.889928 
L 228.732871 239.47716 
L 227.501988 239.064391 
L 227.466137 238.651622 
L 227.107627 238.238853 
L 226.904471 237.826085 
L 226.773018 237.413316 
L 226.593763 237.000547 
L 225.960396 236.17501 
L 225.518233 235.762241 
L 225.422631 235.349472 
L 225.04022 234.936704 
L 224.920717 234.111166 
L 224.813164 233.698397 
L 224.741462 233.285629 
L 224.072244 232.87286 
L 223.869088 232.460091 
L 223.618131 232.047322 
L 223.486678 231.634554 
L 222.925012 231.221785 
L 222.889161 230.396248 
L 222.638205 229.983479 
L 222.542602 229.57071 
L 222.184092 229.157941 
L 221.311718 228.745173 
L 219.92548 228.332404 
L 219.531119 227.919635 
L 219.435517 227.506866 
L 219.423566 227.094098 
L 219.17261 226.26856 
L 219.112858 225.855792 
L 218.969454 225.443023 
L 218.10903 225.030254 
L 217.523464 224.204717 
L 217.487613 223.379179 
L 217.439812 222.96641 
L 217.224706 222.553642 
L 217.033501 222.140873 
L 215.862369 221.315336 
L 215.587511 220.902567 
L 215.193151 220.489798 
L 215.085598 220.077029 
L 214.595634 219.664261 
L 214.571733 219.251492 
L 214.380528 218.838723 
L 214.213224 218.425954 
L 214.165422 218.013186 
L 213.042092 217.600417 
L 212.372873 217.187648 
L 211.428797 215.949342 
L 211.14199 215.123805 
L 210.974685 214.711036 
L 210.759579 214.298267 
L 210.126212 214.298267 
L 209.946957 213.059961 
L 209.564546 212.647192 
L 209.194086 212.234423 
L 208.369514 211.821655 
L 208.034904 211.408886 
L 207.748097 210.583349 
L 206.995226 210.17058 
L 206.0631 209.757811 
L 205.991398 209.345042 
L 205.931647 208.932274 
L 205.836044 208.519505 
L 205.728491 207.693967 
L 205.369981 207.281199 
L 204.999521 206.86843 
L 204.95172 206.455661 
L 203.637184 206.042893 
L 203.063568 205.630124 
L 202.788711 205.217355 
L 201.557827 204.804586 
L 201.008112 204.391818 
L 200.984211 203.979049 
L 200.804956 203.56628 
L 200.781056 203.153511 
L 200.159639 202.740743 
L 199.944533 202.327974 
L 199.789178 201.915205 
L 199.657725 201.502436 
L 199.574073 201.089668 
L 199.167761 200.676899 
L 198.522444 200.26413 
L 197.924927 199.438593 
L 196.968901 199.025824 
L 196.945001 198.613055 
L 196.478938 198.200287 
L 196.466987 197.787518 
L 196.156279 197.374749 
L 195.738017 196.96198 
L 195.618514 196.549212 
L 194.877594 196.136443 
L 194.853693 195.723674 
L 194.841743 195.310906 
L 194.614687 194.898137 
L 193.945468 193.659831 
L 193.144796 193.247062 
L 193.085045 192.834293 
L 192.977492 192.421524 
L 192.320224 192.008756 
L 191.961714 191.595987 
L 191.662956 191.183218 
L 191.268595 190.77045 
L 191.256645 190.357681 
L 191.137141 190.357681 
L 190.862284 189.944912 
L 190.455973 189.532143 
L 190.420122 189.119375 
L 189.487996 188.706606 
L 188.484169 188.293837 
L 187.81495 187.881068 
L 187.647646 187.4683 
L 187.480341 186.642762 
L 187.217434 186.229993 
L 186.69162 185.817225 
L 186.619918 185.404456 
L 186.058252 185.404456 
L 186.046302 184.991687 
L 185.138077 184.578919 
L 184.468859 183.753381 
L 184.385206 183.340612 
L 182.843614 183.340612 
L 182.736061 182.927844 
L 182.449253 182.515075 
L 182.186346 182.102306 
L 182.054893 181.689537 
L 182.030992 181.276769 
L 181.768085 180.864 
L 180.214542 180.451231 
L 179.78433 180.038463 
L 179.569224 179.625694 
L 179.366069 179.212925 
L 179.174864 178.800156 
L 179.150963 178.387388 
L 175.733169 177.974619 
L 175.422461 177.56185 
L 174.753242 177.149081 
L 174.729342 176.736313 
L 174.65764 176.323544 
L 173.617961 175.498007 
L 173.175799 174.672469 
L 172.614134 174.2597 
L 171.347399 173.434163 
L 171.096442 173.021394 
L 170.845485 172.608625 
L 169.710204 172.195857 
L 169.638502 171.783088 
L 168.300066 171.370319 
L 166.62702 170.95755 
L 166.555318 170.544782 
L 164.392309 169.719244 
L 164.225004 169.306476 
L 164.189153 168.893707 
L 163.543835 168.480938 
L 162.301001 168.068169 
L 161.703485 167.655401 
L 160.986465 167.655401 
L 160.79526 167.242632 
L 160.341148 166.829863 
L 159.504625 166.417094 
L 159.34927 166.004326 
L 158.213989 165.591557 
L 157.544771 165.178788 
L 157.305764 164.76602 
L 157.186261 164.353251 
L 155.716371 164.353251 
L 155.68052 163.940482 
L 154.58109 163.527713 
L 154.162828 163.114945 
L 152.214925 162.702176 
L 151.808614 162.289407 
L 151.246948 161.46387 
L 150.804786 161.051101 
L 149.872661 160.638332 
L 149.800959 160.225564 
L 149.036138 159.812795 
L 148.952486 159.400026 
L 148.187665 158.987257 
L 147.625999 158.574489 
L 147.386993 158.16172 
L 147.136036 157.748951 
L 146.992632 157.336182 
L 146.873129 156.923414 
L 146.789476 156.510645 
L 146.454867 156.097876 
L 145.881251 155.685107 
L 144.949126 155.272339 
L 144.877424 154.85957 
L 144.052851 154.85957 
L 143.849696 154.446801 
L 143.455335 154.034033 
L 142.786117 153.621264 
L 141.913743 153.208495 
L 134.361136 153.208495 
L 134.15798 152.795726 
L 134.14603 152.382958 
L 132.006921 151.970189 
L 131.744014 151.55742 
L 131.361604 151.144651 
L 128.158916 150.731883 
L 127.716754 150.319114 
L 127.274592 149.906345 
L 126.306615 149.493577 
L 125.828602 149.080808 
L 124.65747 148.668039 
L 116.818055 148.25527 
L 114.547493 147.842502 
L 114.308486 147.842502 
L 113.890225 147.429733 
L 113.244907 147.016964 
L 111.775017 146.604195 
L 110.926544 146.604195 
L 110.496332 146.191427 
L 109.157895 145.365889 
L 109.122044 144.953121 
L 108.24967 144.540352 
L 107.090489 144.127583 
L 107.054638 144.127583 
L 103.660745 144.127583 
L 101.904046 144.127583 
L 101.545537 143.714814 
L 100.015895 143.302046 
L 98.773061 142.889277 
L 98.557955 142.889277 
L 97.805084 142.063739 
L 96.024485 142.063739 
L 95.47477 142.063739 
L 95.295515 141.650971 
L 95.068459 141.238202 
L 94.829453 141.238202 
L 94.650198 141.238202 
L 94.542645 141.238202 
L 94.351439 140.825433 
L 94.172185 140.825433 
L 93.741973 140.412664 
L 93.192258 140.412664 
L 92.427437 139.999896 
L 92.331834 139.999896 
L 92.212331 139.999896 
L 92.17648 139.999896 
L 91.925523 139.999896 
L 91.913573 139.587127 
L 91.375808 139.587127 
L 91.136801 139.587127 
L 90.778292 139.587127 
L 90.395881 139.587127 
L 90.300278 139.587127 
L 90.085173 139.587127 
L 89.487656 139.587127 
L 89.141097 139.587127 
L 88.949891 139.587127 
L 88.770637 139.587127 
L 88.651133 139.587127 
L 88.412127 139.587127 
L 88.280673 139.587127 
L 87.611455 139.587127 
L 87.503902 139.587127 
L 87.08564 139.174358 
L 86.918336 138.76159 
L 86.786882 138.76159 
L 86.559826 138.76159 
L 86.296919 138.76159 
L 86.284968 138.76159 
L 85.902558 138.76159 
L 85.61575 138.76159 
L 85.520148 138.76159 
L 85.352843 138.76159 
L 85.293091 138.76159 
L 84.588022 138.76159 
L 84.492419 138.76159 
L 84.384866 138.348821 
L 84.289264 138.348821 
L 84.181711 138.348821 
L 83.548343 138.348821 
L 83.512492 138.348821 
L 83.118132 138.348821 
L 82.903026 138.348821 
L 81.947 138.348821 
L 81.935049 138.348821 
L 81.887248 138.348821 
L 81.839447 138.348821 
L 81.755794 138.348821 
L 81.122427 138.348821 
L 81.014874 138.348821 
L 80.847569 138.348821 
L 80.835619 138.348821 
L 80.477109 138.348821 
L 80.190301 138.348821 
L 80.1186 138.348821 
L 80.070798 138.348821 
L 79.975196 138.348821 
L 79.903494 138.348821 
L 79.592785 137.936052 
L 79.329878 137.936052 
L 79.150623 137.936052 
L 79.090871 137.936052 
L 78.863815 137.936052 
L 78.816014 137.936052 
L 78.744312 137.936052 
L 78.385802 137.936052 
L 78.373852 137.936052 
L 78.254348 137.936052 
L 78.039243 137.936052 
L 77.907789 137.936052 
L 77.740484 137.936052 
L 77.716584 137.936052 
L 77.57318 137.936052 
L 77.525378 137.936052 
L 77.501478 137.936052 
L 77.334173 137.936052 
L 77.298322 137.936052 
L 77.166869 137.936052 
L 77.131018 137.936052 
L 77.119067 137.936052 
L 76.951763 137.936052 
L 76.892011 137.936052 
L 76.86811 137.936052 
L 76.772508 137.936052 
L 76.605203 137.936052 
L 76.593253 137.936052 
L 76.521551 137.936052 
L 76.413998 137.936052 
L 76.186942 137.936052 
L 76.11524 137.936052 
L 75.947935 137.523283 
L 75.888184 137.523283 
L 75.804531 137.523283 
L 75.75673 137.523283 
L 75.661127 137.523283 
L 75.577475 137.523283 
L 75.517723 137.523283 
L 75.242866 137.523283 
L 75.147263 137.110515 
L 75.135313 137.110515 
L 75.063611 137.110515 
L 74.991909 137.110515 
L 74.979959 137.110515 
L 74.956058 136.697746 
L 74.764853 136.697746 
L 74.752902 136.697746 
L 74.609499 136.697746 
L 74.513896 136.697746 
L 74.430244 136.697746 
L 74.334641 136.697746 
L 74.215138 136.697746 
L 74.059783 136.697746 
L 73.976131 136.697746 
L 73.868578 136.697746 
L 73.856628 136.697746 
L 73.844678 136.284977 
L 73.832727 135.872208 
z
" clip-path="url(#peb84b5f43f)" style="fill: #7cfc00"/>
   </g>
   <g id="PolyCollection_3">
    <path d="M 73.832727 54.144 
L 73.832727 135.872208 
L 73.844678 136.284977 
L 73.856628 136.697746 
L 73.868578 136.697746 
L 73.976131 136.697746 
L 74.059783 136.697746 
L 74.215138 136.697746 
L 74.334641 136.697746 
L 74.430244 136.697746 
L 74.513896 136.697746 
L 74.609499 136.697746 
L 74.752902 136.697746 
L 74.764853 136.697746 
L 74.956058 136.697746 
L 74.979959 137.110515 
L 74.991909 137.110515 
L 75.063611 137.110515 
L 75.135313 137.110515 
L 75.147263 137.110515 
L 75.242866 137.523283 
L 75.517723 137.523283 
L 75.577475 137.523283 
L 75.661127 137.523283 
L 75.75673 137.523283 
L 75.804531 137.523283 
L 75.888184 137.523283 
L 75.947935 137.523283 
L 76.11524 137.936052 
L 76.186942 137.936052 
L 76.413998 137.936052 
L 76.521551 137.936052 
L 76.593253 137.936052 
L 76.605203 137.936052 
L 76.772508 137.936052 
L 76.86811 137.936052 
L 76.892011 137.936052 
L 76.951763 137.936052 
L 77.119067 137.936052 
L 77.131018 137.936052 
L 77.166869 137.936052 
L 77.298322 137.936052 
L 77.334173 137.936052 
L 77.501478 137.936052 
L 77.525378 137.936052 
L 77.57318 137.936052 
L 77.716584 137.936052 
L 77.740484 137.936052 
L 77.907789 137.936052 
L 78.039243 137.936052 
L 78.254348 137.936052 
L 78.373852 137.936052 
L 78.385802 137.936052 
L 78.744312 137.936052 
L 78.816014 137.936052 
L 78.863815 137.936052 
L 79.090871 137.936052 
L 79.150623 137.936052 
L 79.329878 137.936052 
L 79.592785 137.936052 
L 79.903494 138.348821 
L 79.975196 138.348821 
L 80.070798 138.348821 
L 80.1186 138.348821 
L 80.190301 138.348821 
L 80.477109 138.348821 
L 80.835619 138.348821 
L 80.847569 138.348821 
L 81.014874 138.348821 
L 81.122427 138.348821 
L 81.755794 138.348821 
L 81.839447 138.348821 
L 81.887248 138.348821 
L 81.935049 138.348821 
L 81.947 138.348821 
L 82.903026 138.348821 
L 83.118132 138.348821 
L 83.512492 138.348821 
L 83.548343 138.348821 
L 84.181711 138.348821 
L 84.289264 138.348821 
L 84.384866 138.348821 
L 84.492419 138.76159 
L 84.588022 138.76159 
L 85.293091 138.76159 
L 85.352843 138.76159 
L 85.520148 138.76159 
L 85.61575 138.76159 
L 85.902558 138.76159 
L 86.284968 138.76159 
L 86.296919 138.76159 
L 86.559826 138.76159 
L 86.786882 138.76159 
L 86.918336 138.76159 
L 87.08564 139.174358 
L 87.503902 139.587127 
L 87.611455 139.587127 
L 88.280673 139.587127 
L 88.412127 139.587127 
L 88.651133 139.587127 
L 88.770637 139.587127 
L 88.949891 139.587127 
L 89.141097 139.587127 
L 89.487656 139.587127 
L 90.085173 139.587127 
L 90.300278 139.587127 
L 90.395881 139.587127 
L 90.778292 139.587127 
L 91.136801 139.587127 
L 91.375808 139.587127 
L 91.913573 139.587127 
L 91.925523 139.999896 
L 92.17648 139.999896 
L 92.212331 139.999896 
L 92.331834 139.999896 
L 92.427437 139.999896 
L 93.192258 140.412664 
L 93.741973 140.412664 
L 94.172185 140.825433 
L 94.351439 140.825433 
L 94.542645 141.238202 
L 94.650198 141.238202 
L 94.829453 141.238202 
L 95.068459 141.238202 
L 95.295515 141.650971 
L 95.47477 142.063739 
L 96.024485 142.063739 
L 97.805084 142.063739 
L 98.557955 142.889277 
L 98.773061 142.889277 
L 100.015895 143.302046 
L 101.545537 143.714814 
L 101.904046 144.127583 
L 103.660745 144.127583 
L 107.054638 144.127583 
L 107.090489 144.127583 
L 108.24967 144.540352 
L 109.122044 144.953121 
L 109.157895 145.365889 
L 110.496332 146.191427 
L 110.926544 146.604195 
L 111.775017 146.604195 
L 113.244907 147.016964 
L 113.890225 147.429733 
L 114.308486 147.842502 
L 114.547493 147.842502 
L 116.818055 148.25527 
L 124.65747 148.668039 
L 125.828602 149.080808 
L 126.306615 149.493577 
L 127.274592 149.906345 
L 127.716754 150.319114 
L 128.158916 150.731883 
L 131.361604 151.144651 
L 131.744014 151.55742 
L 132.006921 151.970189 
L 134.14603 152.382958 
L 134.15798 152.795726 
L 134.361136 153.208495 
L 141.913743 153.208495 
L 142.786117 153.621264 
L 143.455335 154.034033 
L 143.849696 154.446801 
L 144.052851 154.85957 
L 144.877424 154.85957 
L 144.949126 155.272339 
L 145.881251 155.685107 
L 146.454867 156.097876 
L 146.789476 156.510645 
L 146.873129 156.923414 
L 146.992632 157.336182 
L 147.136036 157.748951 
L 147.386993 158.16172 
L 147.625999 158.574489 
L 148.187665 158.987257 
L 148.952486 159.400026 
L 149.036138 159.812795 
L 149.800959 160.225564 
L 149.872661 160.638332 
L 150.804786 161.051101 
L 151.246948 161.46387 
L 151.808614 162.289407 
L 152.214925 162.702176 
L 154.162828 163.114945 
L 154.58109 163.527713 
L 155.68052 163.940482 
L 155.716371 164.353251 
L 157.186261 164.353251 
L 157.305764 164.76602 
L 157.544771 165.178788 
L 158.213989 165.591557 
L 159.34927 166.004326 
L 159.504625 166.417094 
L 160.341148 166.829863 
L 160.79526 167.242632 
L 160.986465 167.655401 
L 161.703485 167.655401 
L 162.301001 168.068169 
L 163.543835 168.480938 
L 164.189153 168.893707 
L 164.225004 169.306476 
L 164.392309 169.719244 
L 166.555318 170.544782 
L 166.62702 170.95755 
L 168.300066 171.370319 
L 169.638502 171.783088 
L 169.710204 172.195857 
L 170.845485 172.608625 
L 171.096442 173.021394 
L 171.347399 173.434163 
L 172.614134 174.2597 
L 173.175799 174.672469 
L 173.617961 175.498007 
L 174.65764 176.323544 
L 174.729342 176.736313 
L 174.753242 177.149081 
L 175.422461 177.56185 
L 175.733169 177.974619 
L 179.150963 178.387388 
L 179.174864 178.800156 
L 179.366069 179.212925 
L 179.569224 179.625694 
L 179.78433 180.038463 
L 180.214542 180.451231 
L 181.768085 180.864 
L 182.030992 181.276769 
L 182.054893 181.689537 
L 182.186346 182.102306 
L 182.449253 182.515075 
L 182.736061 182.927844 
L 182.843614 183.340612 
L 184.385206 183.340612 
L 184.468859 183.753381 
L 185.138077 184.578919 
L 186.046302 184.991687 
L 186.058252 185.404456 
L 186.619918 185.404456 
L 186.69162 185.817225 
L 187.217434 186.229993 
L 187.480341 186.642762 
L 187.647646 187.4683 
L 187.81495 187.881068 
L 188.484169 188.293837 
L 189.487996 188.706606 
L 190.420122 189.119375 
L 190.455973 189.532143 
L 190.862284 189.944912 
L 191.137141 190.357681 
L 191.256645 190.357681 
L 191.268595 190.77045 
L 191.662956 191.183218 
L 191.961714 191.595987 
L 192.320224 192.008756 
L 192.977492 192.421524 
L 193.085045 192.834293 
L 193.144796 193.247062 
L 193.945468 193.659831 
L 194.614687 194.898137 
L 194.841743 195.310906 
L 194.853693 195.723674 
L 194.877594 196.136443 
L 195.618514 196.549212 
L 195.738017 196.96198 
L 196.156279 197.374749 
L 196.466987 197.787518 
L 196.478938 198.200287 
L 196.945001 198.613055 
L 196.968901 199.025824 
L 197.924927 199.438593 
L 198.522444 200.26413 
L 199.167761 200.676899 
L 199.574073 201.089668 
L 199.657725 201.502436 
L 199.789178 201.915205 
L 199.944533 202.327974 
L 200.159639 202.740743 
L 200.781056 203.153511 
L 200.804956 203.56628 
L 200.984211 203.979049 
L 201.008112 204.391818 
L 201.557827 204.804586 
L 202.788711 205.217355 
L 203.063568 205.630124 
L 203.637184 206.042893 
L 204.95172 206.455661 
L 204.999521 206.86843 
L 205.369981 207.281199 
L 205.728491 207.693967 
L 205.836044 208.519505 
L 205.931647 208.932274 
L 205.991398 209.345042 
L 206.0631 209.757811 
L 206.995226 210.17058 
L 207.748097 210.583349 
L 208.034904 211.408886 
L 208.369514 211.821655 
L 209.194086 212.234423 
L 209.564546 212.647192 
L 209.946957 213.059961 
L 210.126212 214.298267 
L 210.759579 214.298267 
L 210.974685 214.711036 
L 211.14199 215.123805 
L 211.428797 215.949342 
L 212.372873 217.187648 
L 213.042092 217.600417 
L 214.165422 218.013186 
L 214.213224 218.425954 
L 214.380528 218.838723 
L 214.571733 219.251492 
L 214.595634 219.664261 
L 215.085598 220.077029 
L 215.193151 220.489798 
L 215.587511 220.902567 
L 215.862369 221.315336 
L 217.033501 222.140873 
L 217.224706 222.553642 
L 217.439812 222.96641 
L 217.487613 223.379179 
L 217.523464 224.204717 
L 218.10903 225.030254 
L 218.969454 225.443023 
L 219.112858 225.855792 
L 219.17261 226.26856 
L 219.423566 227.094098 
L 219.435517 227.506866 
L 219.531119 227.919635 
L 219.92548 228.332404 
L 221.311718 228.745173 
L 222.184092 229.157941 
L 222.542602 229.57071 
L 222.638205 229.983479 
L 222.889161 230.396248 
L 222.925012 231.221785 
L 223.486678 231.634554 
L 223.618131 232.047322 
L 223.869088 232.460091 
L 224.072244 232.87286 
L 224.741462 233.285629 
L 224.813164 233.698397 
L 224.920717 234.111166 
L 225.04022 234.936704 
L 225.422631 235.349472 
L 225.518233 235.762241 
L 225.960396 236.17501 
L 226.593763 237.000547 
L 226.773018 237.413316 
L 226.904471 237.826085 
L 227.107627 238.238853 
L 227.466137 238.651622 
L 227.501988 239.064391 
L 228.732871 239.47716 
L 228.828474 239.889928 
L 229.186984 240.302697 
L 229.270636 240.715466 
L 230.250563 241.128235 
L 230.788328 241.541003 
L 230.88393 241.953772 
L 230.943682 242.366541 
L 231.134887 242.779309 
L 231.433645 243.192078 
L 231.744354 243.604847 
L 231.816056 244.017616 
L 232.162615 244.430384 
L 232.568927 244.843153 
L 232.604778 246.081459 
L 233.78786 246.494228 
L 233.823711 246.906997 
L 233.895413 247.319765 
L 233.907363 247.732534 
L 233.931264 248.145303 
L 233.943214 248.558072 
L 234.038817 248.97084 
L 234.827538 249.383609 
L 235.472856 249.796378 
L 236.213776 250.209147 
L 236.404982 250.621915 
L 236.739591 251.034684 
L 237.133952 251.447453 
L 237.193703 251.860221 
L 237.372958 252.685759 
L 237.695617 253.098528 
L 237.850971 253.511296 
L 237.970475 253.924065 
L 238.711395 254.336834 
L 238.91455 254.749603 
L 239.022103 255.162371 
L 239.344762 255.57514 
L 239.822775 255.987909 
L 242.17699 256.400678 
L 242.368195 257.226215 
L 242.90596 257.638984 
L 243.013513 258.051752 
L 243.180817 258.464521 
L 243.563228 258.87729 
L 244.806062 259.290059 
L 244.877764 259.702827 
L 244.901665 260.115596 
L 245.045068 260.528365 
L 245.46333 260.941134 
L 245.905492 261.353902 
L 245.989144 261.766671 
L 246.013045 262.17944 
L 246.777866 262.592208 
L 247.817544 263.004977 
L 248.881124 263.830515 
L 249.072329 264.243283 
L 249.12013 264.656052 
L 249.13208 265.068821 
L 249.705696 265.48159 
L 250.004454 265.894358 
L 250.183709 266.307127 
L 250.339064 266.719896 
L 251.868705 267.132664 
L 252.02406 267.545433 
L 252.944235 267.958202 
L 253.111539 268.370971 
L 253.195192 268.783739 
L 253.278844 269.196508 
L 253.350546 269.609277 
L 254.688983 270.022046 
L 256.218625 270.434814 
L 256.923694 270.847583 
L 257.1388 271.260352 
L 257.306104 271.673121 
L 257.569012 272.085889 
L 257.604863 272.498658 
L 257.796068 272.911427 
L 259.050852 273.324195 
L 259.433263 273.736964 
L 259.851524 274.149733 
L 261.15411 274.562502 
L 261.189961 274.97527 
L 261.548471 275.388039 
L 262.122086 275.800808 
L 262.803255 276.213577 
L 263.257367 276.626345 
L 263.448573 277.039114 
L 264.4524 277.451883 
L 264.870662 277.864651 
L 266.041794 278.27742 
L 266.101545 278.690189 
L 267.38023 279.102958 
L 269.531289 279.515726 
L 270.260259 279.928495 
L 270.726322 280.341264 
L 270.965329 280.754033 
L 271.108733 281.166801 
L 271.299938 281.57957 
L 272.184262 281.992339 
L 272.255964 282.405107 
L 273.080537 282.817876 
L 273.18809 283.643414 
L 273.594401 284.056182 
L 274.717731 284.468951 
L 275.147943 284.468951 
L 277.788966 284.88172 
L 278.422333 285.294489 
L 278.434283 285.707257 
L 280.226832 286.120026 
L 280.48974 286.532795 
L 281.409915 286.945564 
L 282.616898 287.358332 
L 283.79998 287.771101 
L 284.588702 288.18387 
L 287.301426 288.596638 
L 287.456781 289.834945 
L 287.564333 290.247713 
L 287.588234 290.660482 
L 288.651813 291.073251 
L 290.73117 291.48602 
L 291.364538 291.898788 
L 291.531842 292.311557 
L 292.153259 292.724326 
L 292.643223 293.137094 
L 292.870279 293.962632 
L 293.850206 294.375401 
L 293.886057 294.788169 
L 295.547152 295.200938 
L 295.989314 295.613707 
L 296.539029 296.026476 
L 296.789986 296.439244 
L 298.235976 296.852013 
L 298.510833 297.264782 
L 299.060548 297.67755 
L 299.13225 298.090319 
L 299.359307 298.503088 
L 299.897071 298.915857 
L 300.972601 299.328625 
L 302.526143 299.741394 
L 302.645647 300.154163 
L 303.314865 300.566932 
L 303.673375 300.9797 
L 304.844507 301.392469 
L 310.258005 301.805238 
L 310.831621 302.218007 
L 313.054382 302.630775 
L 313.35314 303.043544 
L 315.456398 303.456313 
L 316.735083 303.869081 
L 318.348377 304.28185 
L 323.224111 304.694619 
L 324.777653 305.107388 
L 331.087426 305.520156 
L 348.343699 305.932925 
L 369.698934 306.345694 
L 373.55889 306.758463 
L 398.487273 307.171231 
L 398.487273 307.171231 
L 398.487273 307.171231 
L 373.55889 306.758463 
L 369.698934 306.345694 
L 348.343699 305.932925 
L 331.087426 305.520156 
L 324.777653 305.107388 
L 323.224111 304.694619 
L 318.348377 304.28185 
L 316.735083 303.869081 
L 315.456398 303.456313 
L 313.35314 303.043544 
L 313.054382 302.630775 
L 310.831621 302.218007 
L 310.258005 301.805238 
L 304.844507 301.392469 
L 303.673375 300.9797 
L 303.314865 300.566932 
L 302.645647 300.154163 
L 302.526143 299.741394 
L 300.972601 299.328625 
L 299.897071 298.915857 
L 299.359307 298.503088 
L 299.13225 298.090319 
L 299.060548 297.67755 
L 298.510833 297.264782 
L 298.235976 296.852013 
L 296.789986 296.439244 
L 296.539029 296.026476 
L 295.989314 295.613707 
L 295.547152 295.200938 
L 293.886057 294.788169 
L 293.850206 294.375401 
L 292.870279 293.962632 
L 292.643223 293.137094 
L 292.153259 292.724326 
L 291.531842 292.311557 
L 291.364538 291.898788 
L 290.73117 291.48602 
L 288.651813 291.073251 
L 287.588234 290.660482 
L 287.564333 290.247713 
L 287.456781 289.834945 
L 287.301426 288.596638 
L 284.588702 288.18387 
L 283.79998 287.771101 
L 282.616898 287.358332 
L 281.409915 286.945564 
L 280.48974 286.532795 
L 280.226832 286.120026 
L 278.434283 285.707257 
L 278.422333 285.294489 
L 277.788966 284.88172 
L 275.147943 284.468951 
L 274.717731 284.056182 
L 273.594401 283.643414 
L 273.18809 283.230645 
L 273.080537 282.405107 
L 272.255964 281.992339 
L 272.184262 281.57957 
L 271.299938 281.166801 
L 271.108733 280.754033 
L 270.965329 280.341264 
L 270.726322 279.928495 
L 270.260259 279.515726 
L 269.531289 279.102958 
L 267.38023 278.690189 
L 266.101545 278.27742 
L 266.041794 277.864651 
L 264.870662 277.451883 
L 264.4524 277.039114 
L 263.448573 276.626345 
L 263.257367 276.213577 
L 262.803255 275.800808 
L 262.122086 275.388039 
L 261.548471 274.97527 
L 261.189961 274.562502 
L 261.15411 274.149733 
L 259.851524 273.736964 
L 259.433263 273.324195 
L 259.050852 272.911427 
L 257.796068 272.498658 
L 257.604863 272.085889 
L 257.569012 271.673121 
L 257.306104 271.260352 
L 257.1388 270.847583 
L 256.923694 270.434814 
L 256.218625 270.022046 
L 254.688983 269.609277 
L 253.350546 269.196508 
L 253.278844 268.783739 
L 253.195192 268.370971 
L 253.111539 267.958202 
L 252.944235 267.545433 
L 252.02406 267.132664 
L 251.868705 266.719896 
L 250.339064 266.307127 
L 250.183709 265.894358 
L 250.004454 265.48159 
L 249.705696 265.068821 
L 249.13208 264.656052 
L 249.12013 264.243283 
L 249.072329 263.830515 
L 248.881124 263.417746 
L 247.817544 262.592208 
L 246.777866 262.17944 
L 246.013045 261.766671 
L 245.989144 261.353902 
L 245.905492 260.941134 
L 245.46333 260.528365 
L 245.045068 260.115596 
L 244.901665 259.702827 
L 244.877764 259.290059 
L 244.806062 258.87729 
L 243.563228 258.464521 
L 243.180817 258.051752 
L 243.013513 257.638984 
L 242.90596 257.226215 
L 242.368195 256.813446 
L 242.17699 255.987909 
L 239.822775 255.57514 
L 239.344762 255.162371 
L 239.022103 254.749603 
L 238.91455 254.336834 
L 238.711395 253.924065 
L 237.970475 253.511296 
L 237.850971 253.098528 
L 237.695617 252.685759 
L 237.372958 252.27299 
L 237.193703 251.447453 
L 237.133952 251.034684 
L 236.739591 250.621915 
L 236.404982 250.209147 
L 236.213776 249.796378 
L 235.472856 249.383609 
L 234.827538 248.97084 
L 234.038817 248.558072 
L 233.943214 248.145303 
L 233.931264 247.732534 
L 233.907363 247.319765 
L 233.895413 246.906997 
L 233.823711 246.494228 
L 233.78786 246.081459 
L 232.604778 245.668691 
L 232.568927 244.430384 
L 232.162615 244.017616 
L 231.816056 243.604847 
L 231.744354 243.192078 
L 231.433645 242.779309 
L 231.134887 242.366541 
L 230.943682 241.953772 
L 230.88393 241.541003 
L 230.788328 241.128235 
L 230.250563 240.715466 
L 229.270636 240.302697 
L 229.186984 239.889928 
L 228.828474 239.47716 
L 228.732871 239.064391 
L 227.501988 238.651622 
L 227.466137 238.238853 
L 227.107627 237.826085 
L 226.904471 237.413316 
L 226.773018 237.000547 
L 226.593763 236.587779 
L 225.960396 235.762241 
L 225.518233 235.349472 
L 225.422631 234.936704 
L 225.04022 234.523935 
L 224.920717 233.698397 
L 224.813164 233.285629 
L 224.741462 232.87286 
L 224.072244 232.460091 
L 223.869088 232.047322 
L 223.618131 231.634554 
L 223.486678 231.221785 
L 222.925012 230.809016 
L 222.889161 229.983479 
L 222.638205 229.57071 
L 222.542602 229.157941 
L 222.184092 228.745173 
L 221.311718 228.332404 
L 219.92548 227.919635 
L 219.531119 227.506866 
L 219.435517 227.094098 
L 219.423566 226.681329 
L 219.17261 225.855792 
L 219.112858 225.443023 
L 218.969454 225.030254 
L 218.10903 224.617485 
L 217.523464 223.791948 
L 217.487613 222.96641 
L 217.439812 222.553642 
L 217.224706 222.140873 
L 217.033501 221.728104 
L 215.862369 220.902567 
L 215.587511 220.489798 
L 215.193151 220.077029 
L 215.085598 219.664261 
L 214.595634 219.251492 
L 214.571733 218.838723 
L 214.380528 218.425954 
L 214.213224 218.013186 
L 214.165422 217.600417 
L 213.042092 217.187648 
L 212.372873 216.774879 
L 211.428797 215.536573 
L 211.14199 214.711036 
L 210.974685 214.298267 
L 210.759579 213.885498 
L 210.126212 213.47273 
L 209.946957 212.234423 
L 209.564546 211.821655 
L 209.194086 211.408886 
L 208.369514 210.996117 
L 208.034904 210.583349 
L 207.748097 209.757811 
L 206.995226 209.345042 
L 206.0631 208.932274 
L 205.991398 208.519505 
L 205.931647 208.106736 
L 205.836044 207.693967 
L 205.728491 206.86843 
L 205.369981 206.455661 
L 204.999521 206.042893 
L 204.95172 205.630124 
L 203.637184 205.217355 
L 203.063568 204.804586 
L 202.788711 204.391818 
L 201.557827 203.979049 
L 201.008112 203.56628 
L 200.984211 203.153511 
L 200.804956 202.740743 
L 200.781056 202.327974 
L 200.159639 201.915205 
L 199.944533 201.502436 
L 199.789178 201.089668 
L 199.657725 200.676899 
L 199.574073 200.26413 
L 199.167761 199.851362 
L 198.522444 199.438593 
L 197.924927 198.613055 
L 196.968901 198.200287 
L 196.945001 197.787518 
L 196.478938 197.374749 
L 196.466987 196.96198 
L 196.156279 196.549212 
L 195.738017 196.136443 
L 195.618514 195.723674 
L 194.877594 195.310906 
L 194.853693 194.898137 
L 194.841743 194.485368 
L 194.614687 194.072599 
L 193.945468 192.834293 
L 193.144796 192.421524 
L 193.085045 192.008756 
L 192.977492 191.595987 
L 192.320224 191.183218 
L 191.961714 190.77045 
L 191.662956 190.357681 
L 191.268595 189.944912 
L 191.256645 189.532143 
L 191.137141 189.119375 
L 190.862284 188.706606 
L 190.455973 188.293837 
L 190.420122 187.881068 
L 189.487996 187.4683 
L 188.484169 187.055531 
L 187.81495 186.642762 
L 187.647646 186.229993 
L 187.480341 185.404456 
L 187.217434 184.991687 
L 186.69162 184.578919 
L 186.619918 184.16615 
L 186.058252 183.753381 
L 186.046302 183.340612 
L 185.138077 182.927844 
L 184.468859 182.102306 
L 184.385206 181.689537 
L 182.843614 181.276769 
L 182.736061 180.864 
L 182.449253 180.451231 
L 182.186346 180.038463 
L 182.054893 179.625694 
L 182.030992 179.212925 
L 181.768085 178.800156 
L 180.214542 178.387388 
L 179.78433 177.974619 
L 179.569224 177.56185 
L 179.366069 177.149081 
L 179.174864 176.736313 
L 179.150963 176.323544 
L 175.733169 175.910775 
L 175.422461 175.498007 
L 174.753242 175.085238 
L 174.729342 174.672469 
L 174.65764 174.2597 
L 173.617961 173.434163 
L 173.175799 172.608625 
L 172.614134 172.195857 
L 171.347399 171.370319 
L 171.096442 170.95755 
L 170.845485 170.544782 
L 169.710204 170.132013 
L 169.638502 169.719244 
L 168.300066 169.306476 
L 166.62702 168.893707 
L 166.555318 168.480938 
L 164.392309 167.655401 
L 164.225004 167.242632 
L 164.189153 166.829863 
L 163.543835 166.417094 
L 162.301001 166.004326 
L 161.703485 165.591557 
L 160.986465 165.178788 
L 160.79526 164.76602 
L 160.341148 164.353251 
L 159.504625 163.940482 
L 159.34927 163.527713 
L 158.213989 163.114945 
L 157.544771 162.702176 
L 157.305764 162.289407 
L 157.186261 161.876638 
L 155.716371 161.46387 
L 155.68052 161.051101 
L 154.58109 160.638332 
L 154.162828 160.225564 
L 152.214925 159.812795 
L 151.808614 159.400026 
L 151.246948 158.574489 
L 150.804786 158.16172 
L 149.872661 157.748951 
L 149.800959 157.336182 
L 149.036138 156.923414 
L 148.952486 156.510645 
L 148.187665 156.097876 
L 147.625999 155.685107 
L 147.386993 155.272339 
L 147.136036 154.85957 
L 146.992632 154.446801 
L 146.873129 154.034033 
L 146.789476 153.621264 
L 146.454867 153.208495 
L 145.881251 152.795726 
L 144.949126 152.382958 
L 144.877424 151.970189 
L 144.052851 151.55742 
L 143.849696 151.144651 
L 143.455335 150.731883 
L 142.786117 150.319114 
L 141.913743 149.906345 
L 134.361136 149.493577 
L 134.15798 149.080808 
L 134.14603 148.668039 
L 132.006921 148.25527 
L 131.744014 147.429733 
L 131.361604 147.016964 
L 128.158916 146.604195 
L 127.716754 146.191427 
L 127.274592 145.778658 
L 126.306615 144.953121 
L 125.828602 144.540352 
L 124.65747 144.127583 
L 116.818055 143.714814 
L 114.547493 143.302046 
L 114.308486 142.889277 
L 113.890225 142.476508 
L 113.244907 142.063739 
L 111.775017 141.650971 
L 110.926544 141.238202 
L 110.496332 140.825433 
L 109.157895 139.999896 
L 109.122044 139.174358 
L 108.24967 138.76159 
L 107.090489 137.936052 
L 107.054638 137.523283 
L 103.660745 137.110515 
L 101.904046 136.697746 
L 101.545537 136.284977 
L 100.015895 135.872208 
L 98.773061 135.45944 
L 98.557955 135.046671 
L 97.805084 134.221134 
L 96.024485 133.808365 
L 95.47477 132.982827 
L 95.295515 132.570059 
L 95.068459 132.15729 
L 94.829453 131.744521 
L 94.650198 131.331752 
L 94.542645 130.918984 
L 94.351439 130.506215 
L 94.172185 130.093446 
L 93.741973 129.680678 
L 93.192258 129.267909 
L 92.427437 128.85514 
L 92.331834 128.029603 
L 92.212331 127.616834 
L 92.17648 127.204065 
L 91.925523 126.378528 
L 91.913573 125.965759 
L 91.375808 125.55299 
L 91.136801 125.140221 
L 90.778292 124.727453 
L 90.395881 124.314684 
L 90.300278 123.901915 
L 90.085173 122.663609 
L 89.487656 121.425303 
L 89.141097 119.774228 
L 88.949891 119.361459 
L 88.770637 118.948691 
L 88.651133 118.535922 
L 88.412127 117.710384 
L 88.280673 116.472078 
L 87.611455 115.646541 
L 87.503902 115.233772 
L 87.08564 114.821003 
L 86.918336 114.408235 
L 86.786882 113.169928 
L 86.559826 112.75716 
L 86.296919 112.344391 
L 86.284968 111.931622 
L 85.902558 111.518853 
L 85.61575 110.280547 
L 85.520148 109.867779 
L 85.352843 109.45501 
L 85.293091 109.042241 
L 84.588022 108.216704 
L 84.492419 107.391166 
L 84.384866 106.565629 
L 84.289264 106.15286 
L 84.181711 105.740091 
L 83.548343 105.327322 
L 83.512492 104.914554 
L 83.118132 104.501785 
L 82.903026 104.089016 
L 81.947 103.676248 
L 81.935049 103.263479 
L 81.887248 102.025173 
L 81.839447 101.612404 
L 81.755794 100.374098 
L 81.122427 99.961329 
L 81.014874 99.54856 
L 80.847569 99.135792 
L 80.835619 98.723023 
L 80.477109 97.484717 
L 80.190301 97.071948 
L 80.1186 96.659179 
L 80.070798 96.24641 
L 79.975196 95.833642 
L 79.903494 95.008104 
L 79.592785 94.595336 
L 79.329878 93.769798 
L 79.150623 93.357029 
L 79.090871 92.944261 
L 78.863815 92.531492 
L 78.816014 92.118723 
L 78.744312 91.705954 
L 78.385802 90.880417 
L 78.373852 90.467648 
L 78.254348 90.054879 
L 78.039243 89.642111 
L 77.907789 88.816573 
L 77.740484 87.578267 
L 77.716584 86.339961 
L 77.57318 85.927192 
L 77.525378 85.101655 
L 77.501478 84.276117 
L 77.334173 83.863349 
L 77.298322 80.973967 
L 77.166869 80.561199 
L 77.131018 79.322893 
L 77.119067 78.910124 
L 76.951763 78.497355 
L 76.892011 76.020743 
L 76.86811 75.195205 
L 76.772508 74.782436 
L 76.605203 74.369668 
L 76.593253 73.956899 
L 76.521551 71.893055 
L 76.413998 71.480287 
L 76.186942 70.654749 
L 76.11524 70.24198 
L 75.947935 69.829212 
L 75.888184 69.003674 
L 75.804531 67.765368 
L 75.75673 67.352599 
L 75.661127 66.939831 
L 75.577475 65.701524 
L 75.517723 65.288756 
L 75.242866 64.875987 
L 75.147263 64.463218 
L 75.135313 64.05045 
L 75.063611 63.637681 
L 74.991909 63.224912 
L 74.979959 62.812143 
L 74.956058 62.399375 
L 74.764853 61.986606 
L 74.752902 61.573837 
L 74.609499 60.7483 
L 74.513896 59.509993 
L 74.430244 58.684456 
L 74.334641 58.271687 
L 74.215138 57.858919 
L 74.059783 57.44615 
L 73.976131 56.620612 
L 73.868578 55.795075 
L 73.856628 54.969537 
L 73.844678 54.556769 
L 73.832727 54.144 
z
" clip-path="url(#peb84b5f43f)" style="fill: #ff0000"/>
   </g>
   <g id="matplotlib.axis_1">
    <g id="xtick_1">
     <g id="line2d_1">
      <defs>
       <path id="m67a5888e3a" d="M 0 0 
L 0 3.5 
" style="stroke: #000000; stroke-width: 0.8"/>
      </defs>
      <g>
       <use xlink:href="#m67a5888e3a" x="68.897242" y="307.584" style="stroke: #000000; stroke-width: 0.8"/>
      </g>
     </g>
     <g id="text_1">
      <!-- 0 -->
      <g transform="translate(65.715992 322.182437)scale(0.1 -0.1)">
       <defs>
        <path id="DejaVuSans-30" d="M 2034 4250 
Q 1547 4250 1301 3770 
Q 1056 3291 1056 2328 
Q 1056 1369 1301 889 
Q 1547 409 2034 409 
Q 2525 409 2770 889 
Q 3016 1369 3016 2328 
Q 3016 3291 2770 3770 
Q 2525 4250 2034 4250 
z
M 2034 4750 
Q 2819 4750 3233 4129 
Q 3647 3509 3647 2328 
Q 3647 1150 3233 529 
Q 2819 -91 2034 -91 
Q 1250 -91 836 529 
Q 422 1150 422 2328 
Q 422 3509 836 4129 
Q 1250 4750 2034 4750 
z
" transform="scale(0.015625)"/>
       </defs>
       <use xlink:href="#DejaVuSans-30"/>
      </g>
     </g>
    </g>
    <g id="xtick_2">
     <g id="line2d_2">
      <g>
       <use xlink:href="#m67a5888e3a" x="128.648879" y="307.584" style="stroke: #000000; stroke-width: 0.8"/>
      </g>
     </g>
     <g id="text_2">
      <!-- 50 -->
      <g transform="translate(122.286379 322.182437)scale(0.1 -0.1)">
       <defs>
        <path id="DejaVuSans-35" d="M 691 4666 
L 3169 4666 
L 3169 4134 
L 1269 4134 
L 1269 2991 
Q 1406 3038 1543 3061 
Q 1681 3084 1819 3084 
Q 2600 3084 3056 2656 
Q 3513 2228 3513 1497 
Q 3513 744 3044 326 
Q 2575 -91 1722 -91 
Q 1428 -91 1123 -41 
Q 819 9 494 109 
L 494 744 
Q 775 591 1075 516 
Q 1375 441 1709 441 
Q 2250 441 2565 725 
Q 2881 1009 2881 1497 
Q 2881 1984 2565 2268 
Q 2250 2553 1709 2553 
Q 1456 2553 1204 2497 
Q 953 2441 691 2322 
L 691 4666 
z
" transform="scale(0.015625)"/>
       </defs>
       <use xlink:href="#DejaVuSans-35"/>
       <use xlink:href="#DejaVuSans-30" x="63.623047"/>
      </g>
     </g>
    </g>
    <g id="xtick_3">
     <g id="line2d_3">
      <g>
       <use xlink:href="#m67a5888e3a" x="188.400516" y="307.584" style="stroke: #000000; stroke-width: 0.8"/>
      </g>
     </g>
     <g id="text_3">
      <!-- 100 -->
      <g transform="translate(178.856766 322.182437)scale(0.1 -0.1)">
       <defs>
        <path id="DejaVuSans-31" d="M 794 531 
L 1825 531 
L 1825 4091 
L 703 3866 
L 703 4441 
L 1819 4666 
L 2450 4666 
L 2450 531 
L 3481 531 
L 3481 0 
L 794 0 
L 794 531 
z
" transform="scale(0.015625)"/>
       </defs>
       <use xlink:href="#DejaVuSans-31"/>
       <use xlink:href="#DejaVuSans-30" x="63.623047"/>
       <use xlink:href="#DejaVuSans-30" x="127.246094"/>
      </g>
     </g>
    </g>
    <g id="xtick_4">
     <g id="line2d_4">
      <g>
       <use xlink:href="#m67a5888e3a" x="248.152154" y="307.584" style="stroke: #000000; stroke-width: 0.8"/>
      </g>
     </g>
     <g id="text_4">
      <!-- 150 -->
      <g transform="translate(238.608404 322.182437)scale(0.1 -0.1)">
       <use xlink:href="#DejaVuSans-31"/>
       <use xlink:href="#DejaVuSans-35" x="63.623047"/>
       <use xlink:href="#DejaVuSans-30" x="127.246094"/>
      </g>
     </g>
    </g>
    <g id="xtick_5">
     <g id="line2d_5">
      <g>
       <use xlink:href="#m67a5888e3a" x="307.903791" y="307.584" style="stroke: #000000; stroke-width: 0.8"/>
      </g>
     </g>
     <g id="text_5">
      <!-- 200 -->
      <g transform="translate(298.360041 322.182437)scale(0.1 -0.1)">
       <defs>
        <path id="DejaVuSans-32" d="M 1228 531 
L 3431 531 
L 3431 0 
L 469 0 
L 469 531 
Q 828 903 1448 1529 
Q 2069 2156 2228 2338 
Q 2531 2678 2651 2914 
Q 2772 3150 2772 3378 
Q 2772 3750 2511 3984 
Q 2250 4219 1831 4219 
Q 1534 4219 1204 4116 
Q 875 4013 500 3803 
L 500 4441 
Q 881 4594 1212 4672 
Q 1544 4750 1819 4750 
Q 2544 4750 2975 4387 
Q 3406 4025 3406 3419 
Q 3406 3131 3298 2873 
Q 3191 2616 2906 2266 
Q 2828 2175 2409 1742 
Q 1991 1309 1228 531 
z
" transform="scale(0.015625)"/>
       </defs>
       <use xlink:href="#DejaVuSans-32"/>
       <use xlink:href="#DejaVuSans-30" x="63.623047"/>
       <use xlink:href="#DejaVuSans-30" x="127.246094"/>
      </g>
     </g>
    </g>
    <g id="xtick_6">
     <g id="line2d_6">
      <g>
       <use xlink:href="#m67a5888e3a" x="367.655428" y="307.584" style="stroke: #000000; stroke-width: 0.8"/>
      </g>
     </g>
     <g id="text_6">
      <!-- 250 -->
      <g transform="translate(358.111678 322.182437)scale(0.1 -0.1)">
       <use xlink:href="#DejaVuSans-32"/>
       <use xlink:href="#DejaVuSans-35" x="63.623047"/>
       <use xlink:href="#DejaVuSans-30" x="127.246094"/>
      </g>
     </g>
    </g>
    <g id="text_7">
     <!-- Score -->
     <g transform="translate(222.157656 335.860562)scale(0.1 -0.1)">
      <defs>
       <path id="DejaVuSans-53" d="M 3425 4513 
L 3425 3897 
Q 3066 4069 2747 4153 
Q 2428 4238 2131 4238 
Q 1616 4238 1336 4038 
Q 1056 3838 1056 3469 
Q 1056 3159 1242 3001 
Q 1428 2844 1947 2747 
L 2328 2669 
Q 3034 2534 3370 2195 
Q 3706 1856 3706 1288 
Q 3706 609 3251 259 
Q 2797 -91 1919 -91 
Q 1588 -91 1214 -16 
Q 841 59 441 206 
L 441 856 
Q 825 641 1194 531 
Q 1563 422 1919 422 
Q 2459 422 2753 634 
Q 3047 847 3047 1241 
Q 3047 1584 2836 1778 
Q 2625 1972 2144 2069 
L 1759 2144 
Q 1053 2284 737 2584 
Q 422 2884 422 3419 
Q 422 4038 858 4394 
Q 1294 4750 2059 4750 
Q 2388 4750 2728 4690 
Q 3069 4631 3425 4513 
z
" transform="scale(0.015625)"/>
       <path id="DejaVuSans-63" d="M 3122 3366 
L 3122 2828 
Q 2878 2963 2633 3030 
Q 2388 3097 2138 3097 
Q 1578 3097 1268 2742 
Q 959 2388 959 1747 
Q 959 1106 1268 751 
Q 1578 397 2138 397 
Q 2388 397 2633 464 
Q 2878 531 3122 666 
L 3122 134 
Q 2881 22 2623 -34 
Q 2366 -91 2075 -91 
Q 1284 -91 818 406 
Q 353 903 353 1747 
Q 353 2603 823 3093 
Q 1294 3584 2113 3584 
Q 2378 3584 2631 3529 
Q 2884 3475 3122 3366 
z
" transform="scale(0.015625)"/>
       <path id="DejaVuSans-6f" d="M 1959 3097 
Q 1497 3097 1228 2736 
Q 959 2375 959 1747 
Q 959 1119 1226 758 
Q 1494 397 1959 397 
Q 2419 397 2687 759 
Q 2956 1122 2956 1747 
Q 2956 2369 2687 2733 
Q 2419 3097 1959 3097 
z
M 1959 3584 
Q 2709 3584 3137 3096 
Q 3566 2609 3566 1747 
Q 3566 888 3137 398 
Q 2709 -91 1959 -91 
Q 1206 -91 779 398 
Q 353 888 353 1747 
Q 353 2609 779 3096 
Q 1206 3584 1959 3584 
z
" transform="scale(0.015625)"/>
       <path id="DejaVuSans-72" d="M 2631 2963 
Q 2534 3019 2420 3045 
Q 2306 3072 2169 3072 
Q 1681 3072 1420 2755 
Q 1159 2438 1159 1844 
L 1159 0 
L 581 0 
L 581 3500 
L 1159 3500 
L 1159 2956 
Q 1341 3275 1631 3429 
Q 1922 3584 2338 3584 
Q 2397 3584 2469 3576 
Q 2541 3569 2628 3553 
L 2631 2963 
z
" transform="scale(0.015625)"/>
       <path id="DejaVuSans-65" d="M 3597 1894 
L 3597 1613 
L 953 1613 
Q 991 1019 1311 708 
Q 1631 397 2203 397 
Q 2534 397 2845 478 
Q 3156 559 3463 722 
L 3463 178 
Q 3153 47 2828 -22 
Q 2503 -91 2169 -91 
Q 1331 -91 842 396 
Q 353 884 353 1716 
Q 353 2575 817 3079 
Q 1281 3584 2069 3584 
Q 2775 3584 3186 3129 
Q 3597 2675 3597 1894 
z
M 3022 2063 
Q 3016 2534 2758 2815 
Q 2500 3097 2075 3097 
Q 1594 3097 1305 2825 
Q 1016 2553 972 2059 
L 3022 2063 
z
" transform="scale(0.015625)"/>
      </defs>
      <use xlink:href="#DejaVuSans-53"/>
      <use xlink:href="#DejaVuSans-63" x="63.476562"/>
      <use xlink:href="#DejaVuSans-6f" x="118.457031"/>
      <use xlink:href="#DejaVuSans-72" x="179.638672"/>
      <use xlink:href="#DejaVuSans-65" x="218.501953"/>
     </g>
    </g>
   </g>
   <g id="matplotlib.axis_2">
    <g id="ytick_1">
     <g id="line2d_7">
      <defs>
       <path id="m4fcb6db753" d="M 0 0 
L -3.5 0 
" style="stroke: #000000; stroke-width: 0.8"/>
      </defs>
      <g>
       <use xlink:href="#m4fcb6db753" x="57.6" y="307.584" style="stroke: #000000; stroke-width: 0.8"/>
      </g>
     </g>
     <g id="text_8">
      <!-- 0 -->
      <g transform="translate(44.2375 311.383219)scale(0.1 -0.1)">
       <use xlink:href="#DejaVuSans-30"/>
      </g>
     </g>
    </g>
    <g id="ytick_2">
     <g id="line2d_8">
      <g>
       <use xlink:href="#m4fcb6db753" x="57.6" y="266.307127" style="stroke: #000000; stroke-width: 0.8"/>
      </g>
     </g>
     <g id="text_9">
      <!-- 100 -->
      <g transform="translate(31.5125 270.106346)scale(0.1 -0.1)">
       <use xlink:href="#DejaVuSans-31"/>
       <use xlink:href="#DejaVuSans-30" x="63.623047"/>
       <use xlink:href="#DejaVuSans-30" x="127.246094"/>
      </g>
     </g>
    </g>
    <g id="ytick_3">
     <g id="line2d_9">
      <g>
       <use xlink:href="#m4fcb6db753" x="57.6" y="225.030254" style="stroke: #000000; stroke-width: 0.8"/>
      </g>
     </g>
     <g id="text_10">
      <!-- 200 -->
      <g transform="translate(31.5125 228.829473)scale(0.1 -0.1)">
       <use xlink:href="#DejaVuSans-32"/>
       <use xlink:href="#DejaVuSans-30" x="63.623047"/>
       <use xlink:href="#DejaVuSans-30" x="127.246094"/>
      </g>
     </g>
    </g>
    <g id="ytick_4">
     <g id="line2d_10">
      <g>
       <use xlink:href="#m4fcb6db753" x="57.6" y="183.753381" style="stroke: #000000; stroke-width: 0.8"/>
      </g>
     </g>
     <g id="text_11">
      <!-- 300 -->
      <g transform="translate(31.5125 187.5526)scale(0.1 -0.1)">
       <defs>
        <path id="DejaVuSans-33" d="M 2597 2516 
Q 3050 2419 3304 2112 
Q 3559 1806 3559 1356 
Q 3559 666 3084 287 
Q 2609 -91 1734 -91 
Q 1441 -91 1130 -33 
Q 819 25 488 141 
L 488 750 
Q 750 597 1062 519 
Q 1375 441 1716 441 
Q 2309 441 2620 675 
Q 2931 909 2931 1356 
Q 2931 1769 2642 2001 
Q 2353 2234 1838 2234 
L 1294 2234 
L 1294 2753 
L 1863 2753 
Q 2328 2753 2575 2939 
Q 2822 3125 2822 3475 
Q 2822 3834 2567 4026 
Q 2313 4219 1838 4219 
Q 1578 4219 1281 4162 
Q 984 4106 628 3988 
L 628 4550 
Q 988 4650 1302 4700 
Q 1616 4750 1894 4750 
Q 2613 4750 3031 4423 
Q 3450 4097 3450 3541 
Q 3450 3153 3228 2886 
Q 3006 2619 2597 2516 
z
" transform="scale(0.015625)"/>
       </defs>
       <use xlink:href="#DejaVuSans-33"/>
       <use xlink:href="#DejaVuSans-30" x="63.623047"/>
       <use xlink:href="#DejaVuSans-30" x="127.246094"/>
      </g>
     </g>
    </g>
    <g id="ytick_5">
     <g id="line2d_11">
      <g>
       <use xlink:href="#m4fcb6db753" x="57.6" y="142.476508" style="stroke: #000000; stroke-width: 0.8"/>
      </g>
     </g>
     <g id="text_12">
      <!-- 400 -->
      <g transform="translate(31.5125 146.275727)scale(0.1 -0.1)">
       <defs>
        <path id="DejaVuSans-34" d="M 2419 4116 
L 825 1625 
L 2419 1625 
L 2419 4116 
z
M 2253 4666 
L 3047 4666 
L 3047 1625 
L 3713 1625 
L 3713 1100 
L 3047 1100 
L 3047 0 
L 2419 0 
L 2419 1100 
L 313 1100 
L 313 1709 
L 2253 4666 
z
" transform="scale(0.015625)"/>
       </defs>
       <use xlink:href="#DejaVuSans-34"/>
       <use xlink:href="#DejaVuSans-30" x="63.623047"/>
       <use xlink:href="#DejaVuSans-30" x="127.246094"/>
      </g>
     </g>
    </g>
    <g id="ytick_6">
     <g id="line2d_12">
      <g>
       <use xlink:href="#m4fcb6db753" x="57.6" y="101.199635" style="stroke: #000000; stroke-width: 0.8"/>
      </g>
     </g>
     <g id="text_13">
      <!-- 500 -->
      <g transform="translate(31.5125 104.998854)scale(0.1 -0.1)">
       <use xlink:href="#DejaVuSans-35"/>
       <use xlink:href="#DejaVuSans-30" x="63.623047"/>
       <use xlink:href="#DejaVuSans-30" x="127.246094"/>
      </g>
     </g>
    </g>
    <g id="ytick_7">
     <g id="line2d_13">
      <g>
       <use xlink:href="#m4fcb6db753" x="57.6" y="59.922762" style="stroke: #000000; stroke-width: 0.8"/>
      </g>
     </g>
     <g id="text_14">
      <!-- 600 -->
      <g transform="translate(31.5125 63.721981)scale(0.1 -0.1)">
       <defs>
        <path id="DejaVuSans-36" d="M 2113 2584 
Q 1688 2584 1439 2293 
Q 1191 2003 1191 1497 
Q 1191 994 1439 701 
Q 1688 409 2113 409 
Q 2538 409 2786 701 
Q 3034 994 3034 1497 
Q 3034 2003 2786 2293 
Q 2538 2584 2113 2584 
z
M 3366 4563 
L 3366 3988 
Q 3128 4100 2886 4159 
Q 2644 4219 2406 4219 
Q 1781 4219 1451 3797 
Q 1122 3375 1075 2522 
Q 1259 2794 1537 2939 
Q 1816 3084 2150 3084 
Q 2853 3084 3261 2657 
Q 3669 2231 3669 1497 
Q 3669 778 3244 343 
Q 2819 -91 2113 -91 
Q 1303 -91 875 529 
Q 447 1150 447 2328 
Q 447 3434 972 4092 
Q 1497 4750 2381 4750 
Q 2619 4750 2861 4703 
Q 3103 4656 3366 4563 
z
" transform="scale(0.015625)"/>
       </defs>
       <use xlink:href="#DejaVuSans-36"/>
       <use xlink:href="#DejaVuSans-30" x="63.623047"/>
       <use xlink:href="#DejaVuSans-30" x="127.246094"/>
      </g>
     </g>
    </g>
    <g id="text_15">
     <!-- Number of crosslinks -->
     <g transform="translate(25.432812 227.019406)rotate(-90)scale(0.1 -0.1)">
      <defs>
       <path id="DejaVuSans-4e" d="M 628 4666 
L 1478 4666 
L 3547 763 
L 3547 4666 
L 4159 4666 
L 4159 0 
L 3309 0 
L 1241 3903 
L 1241 0 
L 628 0 
L 628 4666 
z
" transform="scale(0.015625)"/>
       <path id="DejaVuSans-75" d="M 544 1381 
L 544 3500 
L 1119 3500 
L 1119 1403 
Q 1119 906 1312 657 
Q 1506 409 1894 409 
Q 2359 409 2629 706 
Q 2900 1003 2900 1516 
L 2900 3500 
L 3475 3500 
L 3475 0 
L 2900 0 
L 2900 538 
Q 2691 219 2414 64 
Q 2138 -91 1772 -91 
Q 1169 -91 856 284 
Q 544 659 544 1381 
z
M 1991 3584 
L 1991 3584 
z
" transform="scale(0.015625)"/>
       <path id="DejaVuSans-6d" d="M 3328 2828 
Q 3544 3216 3844 3400 
Q 4144 3584 4550 3584 
Q 5097 3584 5394 3201 
Q 5691 2819 5691 2113 
L 5691 0 
L 5113 0 
L 5113 2094 
Q 5113 2597 4934 2840 
Q 4756 3084 4391 3084 
Q 3944 3084 3684 2787 
Q 3425 2491 3425 1978 
L 3425 0 
L 2847 0 
L 2847 2094 
Q 2847 2600 2669 2842 
Q 2491 3084 2119 3084 
Q 1678 3084 1418 2786 
Q 1159 2488 1159 1978 
L 1159 0 
L 581 0 
L 581 3500 
L 1159 3500 
L 1159 2956 
Q 1356 3278 1631 3431 
Q 1906 3584 2284 3584 
Q 2666 3584 2933 3390 
Q 3200 3197 3328 2828 
z
" transform="scale(0.015625)"/>
       <path id="DejaVuSans-62" d="M 3116 1747 
Q 3116 2381 2855 2742 
Q 2594 3103 2138 3103 
Q 1681 3103 1420 2742 
Q 1159 2381 1159 1747 
Q 1159 1113 1420 752 
Q 1681 391 2138 391 
Q 2594 391 2855 752 
Q 3116 1113 3116 1747 
z
M 1159 2969 
Q 1341 3281 1617 3432 
Q 1894 3584 2278 3584 
Q 2916 3584 3314 3078 
Q 3713 2572 3713 1747 
Q 3713 922 3314 415 
Q 2916 -91 2278 -91 
Q 1894 -91 1617 61 
Q 1341 213 1159 525 
L 1159 0 
L 581 0 
L 581 4863 
L 1159 4863 
L 1159 2969 
z
" transform="scale(0.015625)"/>
       <path id="DejaVuSans-20" transform="scale(0.015625)"/>
       <path id="DejaVuSans-66" d="M 2375 4863 
L 2375 4384 
L 1825 4384 
Q 1516 4384 1395 4259 
Q 1275 4134 1275 3809 
L 1275 3500 
L 2222 3500 
L 2222 3053 
L 1275 3053 
L 1275 0 
L 697 0 
L 697 3053 
L 147 3053 
L 147 3500 
L 697 3500 
L 697 3744 
Q 697 4328 969 4595 
Q 1241 4863 1831 4863 
L 2375 4863 
z
" transform="scale(0.015625)"/>
       <path id="DejaVuSans-73" d="M 2834 3397 
L 2834 2853 
Q 2591 2978 2328 3040 
Q 2066 3103 1784 3103 
Q 1356 3103 1142 2972 
Q 928 2841 928 2578 
Q 928 2378 1081 2264 
Q 1234 2150 1697 2047 
L 1894 2003 
Q 2506 1872 2764 1633 
Q 3022 1394 3022 966 
Q 3022 478 2636 193 
Q 2250 -91 1575 -91 
Q 1294 -91 989 -36 
Q 684 19 347 128 
L 347 722 
Q 666 556 975 473 
Q 1284 391 1588 391 
Q 1994 391 2212 530 
Q 2431 669 2431 922 
Q 2431 1156 2273 1281 
Q 2116 1406 1581 1522 
L 1381 1569 
Q 847 1681 609 1914 
Q 372 2147 372 2553 
Q 372 3047 722 3315 
Q 1072 3584 1716 3584 
Q 2034 3584 2315 3537 
Q 2597 3491 2834 3397 
z
" transform="scale(0.015625)"/>
       <path id="DejaVuSans-6c" d="M 603 4863 
L 1178 4863 
L 1178 0 
L 603 0 
L 603 4863 
z
" transform="scale(0.015625)"/>
       <path id="DejaVuSans-69" d="M 603 3500 
L 1178 3500 
L 1178 0 
L 603 0 
L 603 3500 
z
M 603 4863 
L 1178 4863 
L 1178 4134 
L 603 4134 
L 603 4863 
z
" transform="scale(0.015625)"/>
       <path id="DejaVuSans-6e" d="M 3513 2113 
L 3513 0 
L 2938 0 
L 2938 2094 
Q 2938 2591 2744 2837 
Q 2550 3084 2163 3084 
Q 1697 3084 1428 2787 
Q 1159 2491 1159 1978 
L 1159 0 
L 581 0 
L 581 3500 
L 1159 3500 
L 1159 2956 
Q 1366 3272 1645 3428 
Q 1925 3584 2291 3584 
Q 2894 3584 3203 3211 
Q 3513 2838 3513 2113 
z
" transform="scale(0.015625)"/>
       <path id="DejaVuSans-6b" d="M 581 4863 
L 1159 4863 
L 1159 1991 
L 2875 3500 
L 3609 3500 
L 1753 1863 
L 3688 0 
L 2938 0 
L 1159 1709 
L 1159 0 
L 581 0 
L 581 4863 
z
" transform="scale(0.015625)"/>
      </defs>
      <use xlink:href="#DejaVuSans-4e"/>
      <use xlink:href="#DejaVuSans-75" x="74.804688"/>
      <use xlink:href="#DejaVuSans-6d" x="138.183594"/>
      <use xlink:href="#DejaVuSans-62" x="235.595703"/>
      <use xlink:href="#DejaVuSans-65" x="299.072266"/>
      <use xlink:href="#DejaVuSans-72" x="360.595703"/>
      <use xlink:href="#DejaVuSans-20" x="401.708984"/>
      <use xlink:href="#DejaVuSans-6f" x="433.496094"/>
      <use xlink:href="#DejaVuSans-66" x="494.677734"/>
      <use xlink:href="#DejaVuSans-20" x="529.882812"/>
      <use xlink:href="#DejaVuSans-63" x="561.669922"/>
      <use xlink:href="#DejaVuSans-72" x="616.650391"/>
      <use xlink:href="#DejaVuSans-6f" x="655.513672"/>
      <use xlink:href="#DejaVuSans-73" x="716.695312"/>
      <use xlink:href="#DejaVuSans-73" x="768.794922"/>
      <use xlink:href="#DejaVuSans-6c" x="820.894531"/>
      <use xlink:href="#DejaVuSans-69" x="848.677734"/>
      <use xlink:href="#DejaVuSans-6e" x="876.460938"/>
      <use xlink:href="#DejaVuSans-6b" x="939.839844"/>
      <use xlink:href="#DejaVuSans-73" x="997.75"/>
     </g>
    </g>
   </g>
   <g id="patch_3">
    <path d="M 57.6 307.584 
L 57.6 41.472 
" style="fill: none; stroke: #000000; stroke-width: 0.8; stroke-linejoin: miter; stroke-linecap: square"/>
   </g>
   <g id="patch_4">
    <path d="M 414.72 307.584 
L 414.72 41.472 
" style="fill: none; stroke: #000000; stroke-width: 0.8; stroke-linejoin: miter; stroke-linecap: square"/>
   </g>
   <g id="patch_5">
    <path d="M 57.6 307.584 
L 414.72 307.584 
" style="fill: none; stroke: #000000; stroke-width: 0.8; stroke-linejoin: miter; stroke-linecap: square"/>
   </g>
   <g id="patch_6">
    <path d="M 57.6 41.472 
L 414.72 41.472 
" style="fill: none; stroke: #000000; stroke-width: 0.8; stroke-linejoin: miter; stroke-linecap: square"/>
   </g>
   <g id="legend_1">
    <g id="patch_7">
     <path d="M 278.598125 93.506375 
L 407.72 93.506375 
Q 409.72 93.506375 409.72 91.506375 
L 409.72 48.472 
Q 409.72 46.472 407.72 46.472 
L 278.598125 46.472 
Q 276.598125 46.472 276.598125 48.472 
L 276.598125 91.506375 
Q 276.598125 93.506375 278.598125 93.506375 
z
" style="fill: #ffffff; opacity: 0.8; stroke: #cccccc; stroke-linejoin: miter"/>
    </g>
    <g id="patch_8">
     <path d="M 280.598125 58.070438 
L 300.598125 58.070438 
L 300.598125 51.070438 
L 280.598125 51.070438 
z
" style="fill: #008000"/>
    </g>
    <g id="text_16">
     <!-- correct -->
     <g transform="translate(308.598125 58.070438)scale(0.1 -0.1)">
      <defs>
       <path id="DejaVuSans-74" d="M 1172 4494 
L 1172 3500 
L 2356 3500 
L 2356 3053 
L 1172 3053 
L 1172 1153 
Q 1172 725 1289 603 
Q 1406 481 1766 481 
L 2356 481 
L 2356 0 
L 1766 0 
Q 1100 0 847 248 
Q 594 497 594 1153 
L 594 3053 
L 172 3053 
L 172 3500 
L 594 3500 
L 594 4494 
L 1172 4494 
z
" transform="scale(0.015625)"/>
      </defs>
      <use xlink:href="#DejaVuSans-63"/>
      <use xlink:href="#DejaVuSans-6f" x="54.980469"/>
      <use xlink:href="#DejaVuSans-72" x="116.162109"/>
      <use xlink:href="#DejaVuSans-72" x="155.525391"/>
      <use xlink:href="#DejaVuSans-65" x="194.388672"/>
      <use xlink:href="#DejaVuSans-63" x="255.912109"/>
      <use xlink:href="#DejaVuSans-74" x="310.892578"/>
     </g>
    </g>
    <g id="patch_9">
     <path d="M 280.598125 72.748563 
L 300.598125 72.748563 
L 300.598125 65.748563 
L 280.598125 65.748563 
z
" style="fill: #7cfc00"/>
    </g>
    <g id="text_17">
     <!-- correct homeotypic -->
     <g transform="translate(308.598125 72.748563)scale(0.1 -0.1)">
      <defs>
       <path id="DejaVuSans-68" d="M 3513 2113 
L 3513 0 
L 2938 0 
L 2938 2094 
Q 2938 2591 2744 2837 
Q 2550 3084 2163 3084 
Q 1697 3084 1428 2787 
Q 1159 2491 1159 1978 
L 1159 0 
L 581 0 
L 581 4863 
L 1159 4863 
L 1159 2956 
Q 1366 3272 1645 3428 
Q 1925 3584 2291 3584 
Q 2894 3584 3203 3211 
Q 3513 2838 3513 2113 
z
" transform="scale(0.015625)"/>
       <path id="DejaVuSans-79" d="M 2059 -325 
Q 1816 -950 1584 -1140 
Q 1353 -1331 966 -1331 
L 506 -1331 
L 506 -850 
L 844 -850 
Q 1081 -850 1212 -737 
Q 1344 -625 1503 -206 
L 1606 56 
L 191 3500 
L 800 3500 
L 1894 763 
L 2988 3500 
L 3597 3500 
L 2059 -325 
z
" transform="scale(0.015625)"/>
       <path id="DejaVuSans-70" d="M 1159 525 
L 1159 -1331 
L 581 -1331 
L 581 3500 
L 1159 3500 
L 1159 2969 
Q 1341 3281 1617 3432 
Q 1894 3584 2278 3584 
Q 2916 3584 3314 3078 
Q 3713 2572 3713 1747 
Q 3713 922 3314 415 
Q 2916 -91 2278 -91 
Q 1894 -91 1617 61 
Q 1341 213 1159 525 
z
M 3116 1747 
Q 3116 2381 2855 2742 
Q 2594 3103 2138 3103 
Q 1681 3103 1420 2742 
Q 1159 2381 1159 1747 
Q 1159 1113 1420 752 
Q 1681 391 2138 391 
Q 2594 391 2855 752 
Q 3116 1113 3116 1747 
z
" transform="scale(0.015625)"/>
      </defs>
      <use xlink:href="#DejaVuSans-63"/>
      <use xlink:href="#DejaVuSans-6f" x="54.980469"/>
      <use xlink:href="#DejaVuSans-72" x="116.162109"/>
      <use xlink:href="#DejaVuSans-72" x="155.525391"/>
      <use xlink:href="#DejaVuSans-65" x="194.388672"/>
      <use xlink:href="#DejaVuSans-63" x="255.912109"/>
      <use xlink:href="#DejaVuSans-74" x="310.892578"/>
      <use xlink:href="#DejaVuSans-20" x="350.101562"/>
      <use xlink:href="#DejaVuSans-68" x="381.888672"/>
      <use xlink:href="#DejaVuSans-6f" x="445.267578"/>
      <use xlink:href="#DejaVuSans-6d" x="506.449219"/>
      <use xlink:href="#DejaVuSans-65" x="603.861328"/>
      <use xlink:href="#DejaVuSans-6f" x="665.384766"/>
      <use xlink:href="#DejaVuSans-74" x="726.566406"/>
      <use xlink:href="#DejaVuSans-79" x="765.775391"/>
      <use xlink:href="#DejaVuSans-70" x="824.955078"/>
      <use xlink:href="#DejaVuSans-69" x="888.431641"/>
      <use xlink:href="#DejaVuSans-63" x="916.214844"/>
     </g>
    </g>
    <g id="patch_10">
     <path d="M 280.598125 87.426688 
L 300.598125 87.426688 
L 300.598125 80.426688 
L 280.598125 80.426688 
z
" style="fill: #ff0000"/>
    </g>
    <g id="text_18">
     <!-- false -->
     <g transform="translate(308.598125 87.426688)scale(0.1 -0.1)">
      <defs>
       <path id="DejaVuSans-61" d="M 2194 1759 
Q 1497 1759 1228 1600 
Q 959 1441 959 1056 
Q 959 750 1161 570 
Q 1363 391 1709 391 
Q 2188 391 2477 730 
Q 2766 1069 2766 1631 
L 2766 1759 
L 2194 1759 
z
M 3341 1997 
L 3341 0 
L 2766 0 
L 2766 531 
Q 2569 213 2275 61 
Q 1981 -91 1556 -91 
Q 1019 -91 701 211 
Q 384 513 384 1019 
Q 384 1609 779 1909 
Q 1175 2209 1959 2209 
L 2766 2209 
L 2766 2266 
Q 2766 2663 2505 2880 
Q 2244 3097 1772 3097 
Q 1472 3097 1187 3025 
Q 903 2953 641 2809 
L 641 3341 
Q 956 3463 1253 3523 
Q 1550 3584 1831 3584 
Q 2591 3584 2966 3190 
Q 3341 2797 3341 1997 
z
" transform="scale(0.015625)"/>
      </defs>
      <use xlink:href="#DejaVuSans-66"/>
      <use xlink:href="#DejaVuSans-61" x="35.205078"/>
      <use xlink:href="#DejaVuSans-6c" x="96.484375"/>
      <use xlink:href="#DejaVuSans-73" x="124.267578"/>
      <use xlink:href="#DejaVuSans-65" x="176.367188"/>
     </g>
    </g>
   </g>
  </g>
 </g>
 <defs>
  <clipPath id="peb84b5f43f">
   <rect x="57.6" y="41.472" width="357.12" height="266.112"/>
  </clipPath>
 </defs>
</svg>
