<?xml version="1.0" encoding="utf-8" standalone="no"?>
<!DOCTYPE svg PUBLIC "-//W3C//DTD SVG 1.1//EN"
  "http://www.w3.org/Graphics/SVG/1.1/DTD/svg11.dtd">
<svg xmlns:xlink="http://www.w3.org/1999/xlink" width="460.8pt" height="345.6pt" viewBox="0 0 460.8 345.6" xmlns="http://www.w3.org/2000/svg" version="1.1">
 <metadata>
  <rdf:RDF xmlns:dc="http://purl.org/dc/elements/1.1/" xmlns:cc="http://creativecommons.org/ns#" xmlns:rdf="http://www.w3.org/1999/02/22-rdf-syntax-ns#">
   <cc:Work>
    <dc:type rdf:resource="http://purl.org/dc/dcmitype/StillImage"/>
    <dc:date>2022-07-28T11:32:32.314723</dc:date>
    <dc:format>image/svg+xml</dc:format>
    <dc:creator>
     <cc:Agent>
      <dc:title>Matplotlib v3.5.1, https://matplotlib.org/</dc:title>
     </cc:Agent>
    </dc:creator>
   </cc:Work>
  </rdf:RDF>
 </metadata>
 <defs>
  <style type="text/css">*{stroke-linejoin: round; stroke-linecap: butt}</style>
 </defs>
 <g id="figure_1">
  <g id="patch_1">
   <path d="M 0 345.6 
L 460.8 345.6 
L 460.8 0 
L 0 0 
z
" style="fill: #ffffff"/>
  </g>
  <g id="axes_1">
   <g id="patch_2">
    <path d="M 57.6 307.584 
L 414.72 307.584 
L 414.72 41.472 
L 57.6 41.472 
z
" style="fill: #ffffff"/>
   </g>
   <g id="PolyCollection_1">
    <path d="M 73.832727 99.633231 
L 73.832727 307.584 
L 74.153215 307.584 
L 74.297435 307.584 
L 74.361533 307.584 
L 74.585875 307.584 
L 74.762143 307.584 
L 74.922387 307.584 
L 75.210827 307.584 
L 75.387095 307.584 
L 75.403119 307.584 
L 75.563364 307.584 
L 75.739632 307.584 
L 75.851803 307.584 
L 76.188316 307.584 
L 76.300486 307.584 
L 76.492779 307.584 
L 76.60495 307.584 
L 76.636999 307.584 
L 76.74917 307.584 
L 77.00556 307.584 
L 77.310024 307.584 
L 77.454244 307.584 
L 77.55039 307.584 
L 77.774732 307.584 
L 77.790757 307.584 
L 77.918952 307.584 
L 77.951001 307.584 
L 78.335586 307.584 
L 78.495831 307.584 
L 78.800294 307.584 
L 79.056685 307.584 
L 79.745735 307.584 
L 79.905979 307.584 
L 79.938027 307.584 
L 79.954052 307.584 
L 80.498882 307.584 
L 80.787321 307.584 
L 80.899492 307.584 
L 81.3642 307.584 
L 81.828908 307.584 
L 81.989152 307.584 
L 82.16542 307.584 
L 82.758324 307.584 
L 82.85447 307.584 
L 83.623642 307.584 
L 83.671715 307.584 
L 83.687739 307.584 
L 84.008228 307.584 
L 84.248594 307.584 
L 84.649204 307.584 
L 84.729326 307.584 
L 85.210058 307.584 
L 85.514522 307.584 
L 85.642717 307.584 
L 85.754888 307.584 
L 85.802962 307.584 
L 86.299718 307.584 
L 86.732377 307.584 
L 86.828524 307.584 
L 87.309256 307.584 
L 87.998306 307.584 
L 88.030354 307.584 
L 88.142525 307.584 
L 88.270721 307.584 
L 88.350843 307.584 
L 88.751453 307.584 
L 89.296283 307.584 
L 89.520625 307.584 
L 89.64882 307.584 
L 90.722455 307.584 
L 91.219212 307.584 
L 91.28331 307.584 
L 92.180677 307.584 
L 93.094068 307.584 
L 93.398532 307.584 
L 93.446605 307.584 
L 93.991435 307.584 
L 94.376021 307.584 
L 95.049046 307.584 
L 95.177241 307.584 
L 96.058584 307.584 
L 97.052097 307.584 
L 97.132219 307.584 
L 98.285977 307.584 
L 98.446221 307.584 
L 98.942978 307.584 
L 99.808296 307.584 
L 100.289028 307.584 
L 100.849882 307.584 
L 100.897956 307.584 
L 101.122297 307.584 
L 101.699176 307.584 
L 102.00364 307.584 
L 102.115811 307.584 
L 102.372201 307.584 
L 102.628592 307.584 
L 103.413788 307.584 
L 103.814398 307.584 
L 104.327179 307.584 
L 105.368766 307.584 
L 105.92962 307.584 
L 106.234084 307.584 
L 106.76289 307.584 
L 107.371817 307.584 
L 107.500013 307.584 
L 108.349306 307.584 
L 110.063918 307.584 
L 111.025383 307.584 
L 111.329847 307.584 
L 111.490091 307.584 
L 111.538164 307.584 
L 111.682384 307.584 
L 114.310387 307.584 
L 114.887266 307.584 
L 116.008974 307.584 
L 116.377536 307.584 
L 116.489707 307.584 
L 118.444685 307.584 
L 118.604929 307.584 
L 119.854833 307.584 
L 119.902906 307.584 
L 120.784248 307.584 
L 121.168834 307.584 
L 121.216907 307.584 
L 121.505347 307.584 
L 123.011641 307.584 
L 124.726253 307.584 
L 125.239034 307.584 
L 125.36723 307.584 
L 125.815913 307.584 
L 125.976157 307.584 
L 126.02423 307.584 
L 126.31267 307.584 
L 127.466427 307.584 
L 127.562574 307.584 
L 128.123428 307.584 
L 129.661772 307.584 
L 129.757918 307.584 
L 131.905189 307.584 
L 133.796069 307.584 
L 134.437046 307.584 
L 134.709461 307.584 
L 134.725485 307.584 
L 138.042538 307.584 
L 139.388588 307.584 
L 139.46871 307.584 
L 140.542346 307.584 
L 140.926932 307.584 
L 141.856347 307.584 
L 143.747228 307.584 
L 144.019643 307.584 
L 146.311133 307.584 
L 146.455353 307.584 
L 147.721282 307.584 
L 147.849477 307.584 
L 150.189041 307.584 
L 151.198578 307.584 
L 151.503042 307.584 
L 152.432458 307.584 
L 152.91319 307.584 
L 153.009337 307.584 
L 153.986826 307.584 
L 154.131045 307.584 
L 154.40346 307.584 
L 154.980339 307.584 
L 155.541194 307.584 
L 156.069999 307.584 
L 156.807122 307.584 
L 156.98339 307.584 
L 157.720513 307.584 
L 158.601856 307.584 
L 159.531272 307.584 
L 159.70754 307.584 
L 160.861298 307.584 
L 161.053591 307.584 
L 161.229859 307.584 
L 162.239397 307.584 
L 162.271446 307.584 
L 162.495787 307.584 
L 163.056642 307.584 
L 163.216886 307.584 
L 163.954009 307.584 
L 164.018106 307.584 
L 164.178351 307.584 
L 164.931498 307.584 
L 167.206964 307.584 
L 168.264575 307.584 
L 169.22604 307.584 
L 171.886092 307.584 
L 172.142482 307.584 
L 174.64229 307.584 
L 174.690363 307.584 
L 174.78651 307.584 
L 175.379413 307.584 
L 175.812072 307.584 
L 176.869683 307.584 
L 178.824661 307.584 
L 179.40154 307.584 
L 180.186736 307.584 
L 180.859761 307.584 
L 181.116152 307.584 
L 181.212298 307.584 
L 182.5263 307.584 
L 182.606422 307.584 
L 182.686544 307.584 
L 183.151252 307.584 
L 183.599935 307.584 
L 183.776204 307.584 
L 185.026108 307.584 
L 185.458767 307.584 
L 186.836866 307.584 
L 186.99711 307.584 
L 187.237476 307.584 
L 187.622062 307.584 
L 188.022673 307.584 
L 188.807869 307.584 
L 189.961626 307.584 
L 190.105846 307.584 
L 190.346212 307.584 
L 190.394285 307.584 
L 191.644189 307.584 
L 191.708287 307.584 
L 191.772384 307.584 
L 192.076848 307.584 
L 192.477458 307.584 
L 192.493483 307.584 
L 193.278679 307.584 
L 193.871582 307.584 
L 194.929193 307.584 
L 196.034878 307.584 
L 196.531634 307.584 
L 197.380928 307.584 
L 197.60527 307.584 
L 198.102026 307.584 
L 199.992907 307.584 
L 200.249297 307.584 
L 200.697981 307.584 
L 200.8422 307.584 
L 201.403055 307.584 
L 202.412593 307.584 
L 202.604886 307.584 
L 202.813203 307.584 
L 203.934912 307.584 
L 204.271424 307.584 
L 204.736132 307.584 
L 204.896376 307.584 
L 205.216864 307.584 
L 205.585426 307.584 
L 207.059672 307.584 
L 207.652575 307.584 
L 207.860892 307.584 
L 210.072261 307.584 
L 212.043263 307.584 
L 213.036776 307.584 
L 213.197021 307.584 
L 213.469436 307.584 
L 214.959706 307.584 
L 215.760926 307.584 
L 216.129488 307.584 
L 217.219147 307.584 
L 217.876148 307.584 
L 218.5011 307.584 
L 218.933759 307.584 
L 220.087517 307.584 
L 220.456078 307.584 
L 220.82464 307.584 
L 221.77008 307.584 
L 221.850202 307.584 
L 222.010446 307.584 
L 222.202739 307.584 
L 222.71552 307.584 
L 222.779618 307.584 
L 223.164204 307.584 
L 223.628911 307.584 
L 225.087133 307.584 
L 225.103157 307.584 
L 226.24089 307.584 
L 227.090184 307.584 
L 227.586941 307.584 
L 228.548405 307.584 
L 230.0547 307.584 
L 230.182895 307.584 
L 230.663627 307.584 
L 231.977629 307.584 
L 232.730776 307.584 
L 233.548021 307.584 
L 234.221046 307.584 
L 234.717803 307.584 
L 235.390828 307.584 
L 236.16 307.584 
L 236.400366 307.584 
L 238.307271 307.584 
L 238.932223 307.584 
L 239.044394 307.584 
L 239.861639 307.584 
L 242.137105 307.584 
L 242.345422 307.584 
L 243.306887 307.584 
L 247.136721 307.584 
L 247.200818 307.584 
L 247.82577 307.584 
L 249.860871 307.584 
L 250.982579 307.584 
L 253.258045 307.584 
L 253.306119 307.584 
L 254.780364 307.584 
L 255.549536 307.584 
L 255.789902 307.584 
L 256.494976 307.584 
L 256.607147 307.584 
L 258.818516 307.584 
L 259.347321 307.584 
L 259.667809 307.584 
L 259.988298 307.584 
L 260.741445 307.584 
L 260.965787 307.584 
L 262.215691 307.584 
L 262.600276 307.584 
L 264.875743 307.584 
L 266.446135 307.584 
L 266.478184 307.584 
L 267.311453 307.584 
L 268.913894 307.584 
L 269.074138 307.584 
L 269.522822 307.584 
L 270.0997 307.584 
L 271.58997 307.584 
L 272.343118 307.584 
L 272.839874 307.584 
L 273.112289 307.584 
L 273.384704 307.584 
L 276.89405 307.584 
L 277.631173 307.584 
L 277.695271 307.584 
L 281.941739 307.584 
L 285.979891 307.584 
L 287.085575 307.584 
L 288.527772 307.584 
L 288.671991 307.584 
L 289.921895 307.584 
L 291.57241 307.584 
L 291.588434 307.584 
L 292.37363 307.584 
L 293.944022 307.584 
L 294.889462 307.584 
L 295.209951 307.584 
L 296.73227 307.584 
L 303.799034 307.584 
L 304.456035 307.584 
L 304.58423 307.584 
L 304.840621 307.584 
L 308.606357 307.584 
L 308.750577 307.584 
L 308.910821 307.584 
L 309.022992 307.584 
L 309.471675 307.584 
L 312.388118 307.584 
L 313.317534 307.584 
L 313.525851 307.584 
L 314.90395 307.584 
L 315.19239 307.584 
L 316.378196 307.584 
L 320.079835 307.584 
L 321.025275 307.584 
L 322.24313 307.584 
L 325.079451 307.584 
L 326.008867 307.584 
L 332.610923 307.584 
L 332.835265 307.584 
L 334.293486 307.584 
L 335.799781 307.584 
L 339.918054 307.584 
L 340.783373 307.584 
L 342.033276 307.584 
L 364.35528 307.584 
L 380.363665 307.584 
L 397.477735 307.584 
L 398.487273 307.584 
L 398.487273 307.042462 
L 398.487273 307.042462 
L 397.477735 306.500923 
L 380.363665 305.417846 
L 364.35528 304.876308 
L 342.033276 304.334769 
L 340.783373 303.793231 
L 339.918054 302.710154 
L 335.799781 302.168615 
L 334.293486 301.627077 
L 332.835265 301.085538 
L 332.610923 300.544 
L 326.008867 300.002462 
L 325.079451 299.460923 
L 322.24313 298.919385 
L 321.025275 298.377846 
L 320.079835 297.836308 
L 316.378196 297.294769 
L 315.19239 296.211692 
L 314.90395 295.670154 
L 313.525851 295.128615 
L 313.317534 294.587077 
L 312.388118 294.045538 
L 309.471675 292.962462 
L 309.022992 292.420923 
L 308.910821 291.879385 
L 308.750577 291.337846 
L 308.606357 290.796308 
L 304.840621 290.254769 
L 304.58423 289.713231 
L 304.456035 289.171692 
L 303.799034 288.630154 
L 296.73227 288.088615 
L 295.209951 287.547077 
L 294.889462 287.005538 
L 293.944022 286.464 
L 292.37363 285.922462 
L 291.588434 285.380923 
L 291.57241 284.839385 
L 289.921895 284.297846 
L 288.671991 283.756308 
L 288.527772 283.214769 
L 287.085575 281.590154 
L 285.979891 281.048615 
L 281.941739 279.424 
L 277.695271 278.882462 
L 277.631173 278.340923 
L 276.89405 277.257846 
L 273.384704 276.716308 
L 273.112289 276.174769 
L 272.839874 275.633231 
L 272.343118 275.091692 
L 271.58997 274.550154 
L 270.0997 274.008615 
L 269.522822 273.467077 
L 269.074138 272.925538 
L 268.913894 272.384 
L 267.311453 271.842462 
L 266.478184 271.300923 
L 266.446135 270.759385 
L 264.875743 270.217846 
L 262.600276 269.676308 
L 262.215691 268.593231 
L 260.965787 268.051692 
L 260.741445 267.510154 
L 259.988298 266.968615 
L 259.667809 266.427077 
L 259.347321 265.885538 
L 258.818516 265.344 
L 256.607147 264.802462 
L 256.494976 264.260923 
L 255.789902 263.719385 
L 255.549536 263.177846 
L 254.780364 262.636308 
L 253.306119 261.011692 
L 253.258045 260.470154 
L 250.982579 259.928615 
L 249.860871 258.845538 
L 247.82577 258.304 
L 247.200818 257.762462 
L 247.136721 256.679385 
L 243.306887 255.596308 
L 242.345422 255.054769 
L 242.137105 254.513231 
L 239.861639 252.888615 
L 239.044394 252.347077 
L 238.932223 251.805538 
L 238.307271 251.264 
L 236.400366 250.722462 
L 236.16 250.180923 
L 235.390828 249.639385 
L 234.717803 249.097846 
L 234.221046 248.556308 
L 233.548021 248.014769 
L 232.730776 246.931692 
L 231.977629 246.390154 
L 230.663627 245.307077 
L 230.182895 244.224 
L 230.0547 243.140923 
L 228.548405 242.599385 
L 227.586941 242.057846 
L 227.090184 241.516308 
L 226.24089 240.433231 
L 225.103157 239.891692 
L 225.087133 239.350154 
L 223.628911 238.267077 
L 223.164204 237.725538 
L 222.779618 237.184 
L 222.71552 236.642462 
L 222.202739 235.017846 
L 222.010446 234.476308 
L 221.850202 233.934769 
L 221.77008 233.393231 
L 220.82464 232.851692 
L 220.456078 232.310154 
L 220.087517 231.768615 
L 218.933759 231.227077 
L 218.5011 230.685538 
L 217.876148 229.060923 
L 217.219147 228.519385 
L 216.129488 227.977846 
L 215.760926 227.436308 
L 214.959706 226.894769 
L 213.469436 226.353231 
L 213.197021 225.811692 
L 213.036776 225.270154 
L 212.043263 224.728615 
L 210.072261 224.187077 
L 207.860892 223.645538 
L 207.652575 223.104 
L 207.059672 222.562462 
L 205.585426 222.020923 
L 205.216864 221.479385 
L 204.896376 220.937846 
L 204.736132 220.396308 
L 204.271424 219.854769 
L 203.934912 219.313231 
L 202.813203 218.230154 
L 202.604886 217.688615 
L 202.412593 217.147077 
L 201.403055 216.605538 
L 200.8422 216.064 
L 200.697981 215.522462 
L 200.249297 214.980923 
L 199.992907 214.439385 
L 198.102026 213.356308 
L 197.60527 212.814769 
L 197.380928 212.273231 
L 196.531634 211.731692 
L 196.034878 210.107077 
L 194.929193 209.565538 
L 193.871582 209.024 
L 193.278679 207.940923 
L 192.493483 207.399385 
L 192.477458 206.316308 
L 192.076848 205.774769 
L 191.772384 205.233231 
L 191.708287 204.691692 
L 191.644189 204.150154 
L 190.394285 203.608615 
L 190.346212 203.067077 
L 190.105846 202.525538 
L 189.961626 201.984 
L 188.807869 201.442462 
L 188.022673 200.900923 
L 187.622062 199.817846 
L 187.237476 199.276308 
L 186.99711 197.651692 
L 186.836866 197.110154 
L 185.458767 196.568615 
L 185.026108 196.027077 
L 183.776204 195.485538 
L 183.599935 194.944 
L 183.151252 194.402462 
L 182.686544 193.860923 
L 182.606422 193.319385 
L 182.5263 192.236308 
L 181.212298 191.694769 
L 181.116152 191.153231 
L 180.859761 190.070154 
L 180.186736 189.528615 
L 179.40154 188.445538 
L 178.824661 187.362462 
L 176.869683 186.820923 
L 175.812072 186.279385 
L 175.379413 185.737846 
L 174.78651 185.196308 
L 174.690363 184.654769 
L 174.64229 184.113231 
L 172.142482 183.571692 
L 171.886092 183.030154 
L 169.22604 181.405538 
L 168.264575 180.864 
L 167.206964 179.780923 
L 164.931498 179.239385 
L 164.178351 178.697846 
L 164.018106 178.156308 
L 163.954009 177.614769 
L 163.216886 177.073231 
L 163.056642 176.531692 
L 162.495787 175.990154 
L 162.271446 175.448615 
L 162.239397 174.907077 
L 161.229859 174.365538 
L 161.053591 173.282462 
L 160.861298 172.740923 
L 159.70754 172.740923 
L 159.531272 171.657846 
L 158.601856 171.116308 
L 157.720513 170.574769 
L 156.98339 170.033231 
L 156.807122 169.491692 
L 156.069999 168.950154 
L 155.541194 168.408615 
L 154.980339 167.867077 
L 154.40346 167.325538 
L 154.131045 166.784 
L 153.986826 166.242462 
L 153.009337 164.617846 
L 152.91319 163.534769 
L 152.432458 162.993231 
L 151.503042 161.368615 
L 151.198578 160.827077 
L 150.189041 160.285538 
L 147.849477 159.744 
L 147.721282 159.202462 
L 146.455353 158.660923 
L 146.311133 158.119385 
L 144.019643 157.577846 
L 143.747228 157.577846 
L 141.856347 157.036308 
L 140.926932 156.494769 
L 140.542346 155.953231 
L 139.46871 155.411692 
L 139.388588 154.870154 
L 138.042538 153.787077 
L 134.725485 153.245538 
L 134.709461 152.704 
L 134.437046 152.162462 
L 133.796069 151.620923 
L 131.905189 151.079385 
L 129.757918 150.537846 
L 129.661772 149.454769 
L 128.123428 149.454769 
L 127.562574 148.913231 
L 127.466427 148.371692 
L 126.31267 147.288615 
L 126.02423 146.747077 
L 125.976157 146.205538 
L 125.815913 145.664 
L 125.36723 145.122462 
L 125.239034 144.580923 
L 124.726253 144.039385 
L 123.011641 142.414769 
L 121.505347 141.331692 
L 121.216907 140.790154 
L 121.168834 140.248615 
L 120.784248 139.707077 
L 119.902906 139.165538 
L 119.854833 138.624 
L 118.604929 138.082462 
L 118.444685 137.540923 
L 116.489707 136.999385 
L 116.377536 136.457846 
L 116.008974 135.374769 
L 114.887266 134.833231 
L 114.310387 134.291692 
L 111.682384 133.750154 
L 111.538164 133.750154 
L 111.490091 133.208615 
L 111.329847 132.667077 
L 111.025383 132.125538 
L 110.063918 131.584 
L 108.349306 131.584 
L 107.500013 131.042462 
L 107.371817 130.500923 
L 106.76289 129.959385 
L 106.234084 129.959385 
L 105.92962 129.417846 
L 105.368766 128.876308 
L 104.327179 128.334769 
L 103.814398 127.793231 
L 103.413788 127.251692 
L 102.628592 126.710154 
L 102.372201 126.168615 
L 102.115811 125.627077 
L 102.00364 125.627077 
L 101.699176 125.085538 
L 101.122297 124.002462 
L 100.897956 123.460923 
L 100.849882 122.919385 
L 100.289028 122.919385 
L 99.808296 122.919385 
L 98.942978 122.919385 
L 98.446221 122.919385 
L 98.285977 122.377846 
L 97.132219 121.836308 
L 97.052097 121.836308 
L 96.058584 120.753231 
L 95.177241 120.211692 
L 95.049046 119.670154 
L 94.376021 119.128615 
L 93.991435 118.045538 
L 93.446605 118.045538 
L 93.398532 117.504 
L 93.094068 117.504 
L 92.180677 116.962462 
L 91.28331 116.420923 
L 91.219212 116.420923 
L 90.722455 116.420923 
L 89.64882 115.337846 
L 89.520625 113.713231 
L 89.296283 113.713231 
L 88.751453 113.713231 
L 88.350843 113.171692 
L 88.270721 113.171692 
L 88.142525 112.630154 
L 88.030354 112.630154 
L 87.998306 112.630154 
L 87.309256 112.630154 
L 86.828524 112.088615 
L 86.732377 112.088615 
L 86.299718 111.547077 
L 85.802962 111.005538 
L 85.754888 110.464 
L 85.642717 110.464 
L 85.514522 109.922462 
L 85.210058 109.380923 
L 84.729326 108.839385 
L 84.649204 108.839385 
L 84.248594 108.297846 
L 84.008228 108.297846 
L 83.687739 107.756308 
L 83.671715 107.214769 
L 83.623642 107.214769 
L 82.85447 106.673231 
L 82.758324 106.673231 
L 82.16542 106.131692 
L 81.989152 106.131692 
L 81.828908 105.590154 
L 81.3642 105.590154 
L 80.899492 105.590154 
L 80.787321 105.590154 
L 80.498882 105.590154 
L 79.954052 105.590154 
L 79.938027 105.048615 
L 79.905979 105.048615 
L 79.745735 105.048615 
L 79.056685 105.048615 
L 78.800294 104.507077 
L 78.495831 104.507077 
L 78.335586 104.507077 
L 77.951001 103.965538 
L 77.918952 103.965538 
L 77.790757 103.965538 
L 77.774732 103.965538 
L 77.55039 103.424 
L 77.454244 102.882462 
L 77.310024 102.340923 
L 77.00556 102.340923 
L 76.74917 102.340923 
L 76.636999 101.799385 
L 76.60495 101.799385 
L 76.492779 101.799385 
L 76.300486 101.799385 
L 76.188316 101.799385 
L 75.851803 101.799385 
L 75.739632 101.799385 
L 75.563364 101.799385 
L 75.403119 101.799385 
L 75.387095 101.257846 
L 75.210827 100.716308 
L 74.922387 100.716308 
L 74.762143 100.174769 
L 74.585875 99.633231 
L 74.361533 99.633231 
L 74.297435 99.633231 
L 74.153215 99.633231 
L 73.832727 99.633231 
z
" clip-path="url(#p9d431a232c)" style="fill: #008000"/>
   </g>
   <g id="PolyCollection_2">
    <path d="M 73.832727 99.633231 
L 73.832727 99.633231 
L 74.153215 99.633231 
L 74.297435 99.633231 
L 74.361533 99.633231 
L 74.585875 99.633231 
L 74.762143 100.174769 
L 74.922387 100.716308 
L 75.210827 100.716308 
L 75.387095 101.257846 
L 75.403119 101.799385 
L 75.563364 101.799385 
L 75.739632 101.799385 
L 75.851803 101.799385 
L 76.188316 101.799385 
L 76.300486 101.799385 
L 76.492779 101.799385 
L 76.60495 101.799385 
L 76.636999 101.799385 
L 76.74917 102.340923 
L 77.00556 102.340923 
L 77.310024 102.340923 
L 77.454244 102.882462 
L 77.55039 103.424 
L 77.774732 103.965538 
L 77.790757 103.965538 
L 77.918952 103.965538 
L 77.951001 103.965538 
L 78.335586 104.507077 
L 78.495831 104.507077 
L 78.800294 104.507077 
L 79.056685 105.048615 
L 79.745735 105.048615 
L 79.905979 105.048615 
L 79.938027 105.048615 
L 79.954052 105.590154 
L 80.498882 105.590154 
L 80.787321 105.590154 
L 80.899492 105.590154 
L 81.3642 105.590154 
L 81.828908 105.590154 
L 81.989152 106.131692 
L 82.16542 106.131692 
L 82.758324 106.673231 
L 82.85447 106.673231 
L 83.623642 107.214769 
L 83.671715 107.214769 
L 83.687739 107.756308 
L 84.008228 108.297846 
L 84.248594 108.297846 
L 84.649204 108.839385 
L 84.729326 108.839385 
L 85.210058 109.380923 
L 85.514522 109.922462 
L 85.642717 110.464 
L 85.754888 110.464 
L 85.802962 111.005538 
L 86.299718 111.547077 
L 86.732377 112.088615 
L 86.828524 112.088615 
L 87.309256 112.630154 
L 87.998306 112.630154 
L 88.030354 112.630154 
L 88.142525 112.630154 
L 88.270721 113.171692 
L 88.350843 113.171692 
L 88.751453 113.713231 
L 89.296283 113.713231 
L 89.520625 113.713231 
L 89.64882 115.337846 
L 90.722455 116.420923 
L 91.219212 116.420923 
L 91.28331 116.420923 
L 92.180677 116.962462 
L 93.094068 117.504 
L 93.398532 117.504 
L 93.446605 118.045538 
L 93.991435 118.045538 
L 94.376021 119.128615 
L 95.049046 119.670154 
L 95.177241 120.211692 
L 96.058584 120.753231 
L 97.052097 121.836308 
L 97.132219 121.836308 
L 98.285977 122.377846 
L 98.446221 122.919385 
L 98.942978 122.919385 
L 99.808296 122.919385 
L 100.289028 122.919385 
L 100.849882 122.919385 
L 100.897956 123.460923 
L 101.122297 124.002462 
L 101.699176 125.085538 
L 102.00364 125.627077 
L 102.115811 125.627077 
L 102.372201 126.168615 
L 102.628592 126.710154 
L 103.413788 127.251692 
L 103.814398 127.793231 
L 104.327179 128.334769 
L 105.368766 128.876308 
L 105.92962 129.417846 
L 106.234084 129.959385 
L 106.76289 129.959385 
L 107.371817 130.500923 
L 107.500013 131.042462 
L 108.349306 131.584 
L 110.063918 131.584 
L 111.025383 132.125538 
L 111.329847 132.667077 
L 111.490091 133.208615 
L 111.538164 133.750154 
L 111.682384 133.750154 
L 114.310387 134.291692 
L 114.887266 134.833231 
L 116.008974 135.374769 
L 116.377536 136.457846 
L 116.489707 136.999385 
L 118.444685 137.540923 
L 118.604929 138.082462 
L 119.854833 138.624 
L 119.902906 139.165538 
L 120.784248 139.707077 
L 121.168834 140.248615 
L 121.216907 140.790154 
L 121.505347 141.331692 
L 123.011641 142.414769 
L 124.726253 144.039385 
L 125.239034 144.580923 
L 125.36723 145.122462 
L 125.815913 145.664 
L 125.976157 146.205538 
L 126.02423 146.747077 
L 126.31267 147.288615 
L 127.466427 148.371692 
L 127.562574 148.913231 
L 128.123428 149.454769 
L 129.661772 149.454769 
L 129.757918 150.537846 
L 131.905189 151.079385 
L 133.796069 151.620923 
L 134.437046 152.162462 
L 134.709461 152.704 
L 134.725485 153.245538 
L 138.042538 153.787077 
L 139.388588 154.870154 
L 139.46871 155.411692 
L 140.542346 155.953231 
L 140.926932 156.494769 
L 141.856347 157.036308 
L 143.747228 157.577846 
L 144.019643 157.577846 
L 146.311133 158.119385 
L 146.455353 158.660923 
L 147.721282 159.202462 
L 147.849477 159.744 
L 150.189041 160.285538 
L 151.198578 160.827077 
L 151.503042 161.368615 
L 152.432458 162.993231 
L 152.91319 163.534769 
L 153.009337 164.617846 
L 153.986826 166.242462 
L 154.131045 166.784 
L 154.40346 167.325538 
L 154.980339 167.867077 
L 155.541194 168.408615 
L 156.069999 168.950154 
L 156.807122 169.491692 
L 156.98339 170.033231 
L 157.720513 170.574769 
L 158.601856 171.116308 
L 159.531272 171.657846 
L 159.70754 172.740923 
L 160.861298 172.740923 
L 161.053591 173.282462 
L 161.229859 174.365538 
L 162.239397 174.907077 
L 162.271446 175.448615 
L 162.495787 175.990154 
L 163.056642 176.531692 
L 163.216886 177.073231 
L 163.954009 177.614769 
L 164.018106 178.156308 
L 164.178351 178.697846 
L 164.931498 179.239385 
L 167.206964 179.780923 
L 168.264575 180.864 
L 169.22604 181.405538 
L 171.886092 183.030154 
L 172.142482 183.571692 
L 174.64229 184.113231 
L 174.690363 184.654769 
L 174.78651 185.196308 
L 175.379413 185.737846 
L 175.812072 186.279385 
L 176.869683 186.820923 
L 178.824661 187.362462 
L 179.40154 188.445538 
L 180.186736 189.528615 
L 180.859761 190.070154 
L 181.116152 191.153231 
L 181.212298 191.694769 
L 182.5263 192.236308 
L 182.606422 193.319385 
L 182.686544 193.860923 
L 183.151252 194.402462 
L 183.599935 194.944 
L 183.776204 195.485538 
L 185.026108 196.027077 
L 185.458767 196.568615 
L 186.836866 197.110154 
L 186.99711 197.651692 
L 187.237476 199.276308 
L 187.622062 199.817846 
L 188.022673 200.900923 
L 188.807869 201.442462 
L 189.961626 201.984 
L 190.105846 202.525538 
L 190.346212 203.067077 
L 190.394285 203.608615 
L 191.644189 204.150154 
L 191.708287 204.691692 
L 191.772384 205.233231 
L 192.076848 205.774769 
L 192.477458 206.316308 
L 192.493483 207.399385 
L 193.278679 207.940923 
L 193.871582 209.024 
L 194.929193 209.565538 
L 196.034878 210.107077 
L 196.531634 211.731692 
L 197.380928 212.273231 
L 197.60527 212.814769 
L 198.102026 213.356308 
L 199.992907 214.439385 
L 200.249297 214.980923 
L 200.697981 215.522462 
L 200.8422 216.064 
L 201.403055 216.605538 
L 202.412593 217.147077 
L 202.604886 217.688615 
L 202.813203 218.230154 
L 203.934912 219.313231 
L 204.271424 219.854769 
L 204.736132 220.396308 
L 204.896376 220.937846 
L 205.216864 221.479385 
L 205.585426 222.020923 
L 207.059672 222.562462 
L 207.652575 223.104 
L 207.860892 223.645538 
L 210.072261 224.187077 
L 212.043263 224.728615 
L 213.036776 225.270154 
L 213.197021 225.811692 
L 213.469436 226.353231 
L 214.959706 226.894769 
L 215.760926 227.436308 
L 216.129488 227.977846 
L 217.219147 228.519385 
L 217.876148 229.060923 
L 218.5011 230.685538 
L 218.933759 231.227077 
L 220.087517 231.768615 
L 220.456078 232.310154 
L 220.82464 232.851692 
L 221.77008 233.393231 
L 221.850202 233.934769 
L 222.010446 234.476308 
L 222.202739 235.017846 
L 222.71552 236.642462 
L 222.779618 237.184 
L 223.164204 237.725538 
L 223.628911 238.267077 
L 225.087133 239.350154 
L 225.103157 239.891692 
L 226.24089 240.433231 
L 227.090184 241.516308 
L 227.586941 242.057846 
L 228.548405 242.599385 
L 230.0547 243.140923 
L 230.182895 244.224 
L 230.663627 245.307077 
L 231.977629 246.390154 
L 232.730776 246.931692 
L 233.548021 248.014769 
L 234.221046 248.556308 
L 234.717803 249.097846 
L 235.390828 249.639385 
L 236.16 250.180923 
L 236.400366 250.722462 
L 238.307271 251.264 
L 238.932223 251.805538 
L 239.044394 252.347077 
L 239.861639 252.888615 
L 242.137105 254.513231 
L 242.345422 255.054769 
L 243.306887 255.596308 
L 247.136721 256.679385 
L 247.200818 257.762462 
L 247.82577 258.304 
L 249.860871 258.845538 
L 250.982579 259.928615 
L 253.258045 260.470154 
L 253.306119 261.011692 
L 254.780364 262.636308 
L 255.549536 263.177846 
L 255.789902 263.719385 
L 256.494976 264.260923 
L 256.607147 264.802462 
L 258.818516 265.344 
L 259.347321 265.885538 
L 259.667809 266.427077 
L 259.988298 266.968615 
L 260.741445 267.510154 
L 260.965787 268.051692 
L 262.215691 268.593231 
L 262.600276 269.676308 
L 264.875743 270.217846 
L 266.446135 270.759385 
L 266.478184 271.300923 
L 267.311453 271.842462 
L 268.913894 272.384 
L 269.074138 272.925538 
L 269.522822 273.467077 
L 270.0997 274.008615 
L 271.58997 274.550154 
L 272.343118 275.091692 
L 272.839874 275.633231 
L 273.112289 276.174769 
L 273.384704 276.716308 
L 276.89405 277.257846 
L 277.631173 278.340923 
L 277.695271 278.882462 
L 281.941739 279.424 
L 285.979891 281.048615 
L 287.085575 281.590154 
L 288.527772 283.214769 
L 288.671991 283.756308 
L 289.921895 284.297846 
L 291.57241 284.839385 
L 291.588434 285.380923 
L 292.37363 285.922462 
L 293.944022 286.464 
L 294.889462 287.005538 
L 295.209951 287.547077 
L 296.73227 288.088615 
L 303.799034 288.630154 
L 304.456035 289.171692 
L 304.58423 289.713231 
L 304.840621 290.254769 
L 308.606357 290.796308 
L 308.750577 291.337846 
L 308.910821 291.879385 
L 309.022992 292.420923 
L 309.471675 292.962462 
L 312.388118 294.045538 
L 313.317534 294.587077 
L 313.525851 295.128615 
L 314.90395 295.670154 
L 315.19239 296.211692 
L 316.378196 297.294769 
L 320.079835 297.836308 
L 321.025275 298.377846 
L 322.24313 298.919385 
L 325.079451 299.460923 
L 326.008867 300.002462 
L 332.610923 300.544 
L 332.835265 301.085538 
L 334.293486 301.627077 
L 335.799781 302.168615 
L 339.918054 302.710154 
L 340.783373 303.793231 
L 342.033276 304.334769 
L 364.35528 304.876308 
L 380.363665 305.417846 
L 397.477735 306.500923 
L 398.487273 307.042462 
L 398.487273 307.042462 
L 398.487273 307.042462 
L 397.477735 306.500923 
L 380.363665 305.417846 
L 364.35528 304.876308 
L 342.033276 304.334769 
L 340.783373 303.793231 
L 339.918054 302.710154 
L 335.799781 302.168615 
L 334.293486 301.627077 
L 332.835265 301.085538 
L 332.610923 300.544 
L 326.008867 300.002462 
L 325.079451 299.460923 
L 322.24313 298.919385 
L 321.025275 298.377846 
L 320.079835 297.836308 
L 316.378196 297.294769 
L 315.19239 296.211692 
L 314.90395 295.670154 
L 313.525851 295.128615 
L 313.317534 294.587077 
L 312.388118 294.045538 
L 309.471675 292.962462 
L 309.022992 292.420923 
L 308.910821 291.879385 
L 308.750577 291.337846 
L 308.606357 290.796308 
L 304.840621 290.254769 
L 304.58423 289.713231 
L 304.456035 289.171692 
L 303.799034 288.630154 
L 296.73227 288.088615 
L 295.209951 287.547077 
L 294.889462 287.005538 
L 293.944022 286.464 
L 292.37363 285.922462 
L 291.588434 285.380923 
L 291.57241 284.839385 
L 289.921895 284.297846 
L 288.671991 283.756308 
L 288.527772 283.214769 
L 287.085575 281.590154 
L 285.979891 281.048615 
L 281.941739 279.424 
L 277.695271 278.882462 
L 277.631173 278.340923 
L 276.89405 277.257846 
L 273.384704 276.716308 
L 273.112289 276.174769 
L 272.839874 275.633231 
L 272.343118 275.091692 
L 271.58997 274.550154 
L 270.0997 274.008615 
L 269.522822 273.467077 
L 269.074138 272.925538 
L 268.913894 272.384 
L 267.311453 271.842462 
L 266.478184 271.300923 
L 266.446135 270.759385 
L 264.875743 270.217846 
L 262.600276 269.676308 
L 262.215691 268.593231 
L 260.965787 268.051692 
L 260.741445 267.510154 
L 259.988298 266.968615 
L 259.667809 266.427077 
L 259.347321 265.885538 
L 258.818516 265.344 
L 256.607147 264.802462 
L 256.494976 264.260923 
L 255.789902 263.719385 
L 255.549536 263.177846 
L 254.780364 262.636308 
L 253.306119 261.011692 
L 253.258045 260.470154 
L 250.982579 259.928615 
L 249.860871 258.845538 
L 247.82577 258.304 
L 247.200818 257.762462 
L 247.136721 256.679385 
L 243.306887 255.596308 
L 242.345422 255.054769 
L 242.137105 254.513231 
L 239.861639 252.888615 
L 239.044394 252.347077 
L 238.932223 251.805538 
L 238.307271 251.264 
L 236.400366 250.722462 
L 236.16 250.180923 
L 235.390828 249.639385 
L 234.717803 249.097846 
L 234.221046 248.556308 
L 233.548021 248.014769 
L 232.730776 246.931692 
L 231.977629 246.390154 
L 230.663627 245.307077 
L 230.182895 244.224 
L 230.0547 243.140923 
L 228.548405 242.599385 
L 227.586941 242.057846 
L 227.090184 241.516308 
L 226.24089 240.433231 
L 225.103157 239.891692 
L 225.087133 239.350154 
L 223.628911 238.267077 
L 223.164204 237.725538 
L 222.779618 237.184 
L 222.71552 236.642462 
L 222.202739 235.017846 
L 222.010446 234.476308 
L 221.850202 233.934769 
L 221.77008 233.393231 
L 220.82464 232.851692 
L 220.456078 232.310154 
L 220.087517 231.768615 
L 218.933759 231.227077 
L 218.5011 230.685538 
L 217.876148 229.060923 
L 217.219147 228.519385 
L 216.129488 227.977846 
L 215.760926 227.436308 
L 214.959706 226.894769 
L 213.469436 226.353231 
L 213.197021 225.811692 
L 213.036776 225.270154 
L 212.043263 224.728615 
L 210.072261 224.187077 
L 207.860892 223.645538 
L 207.652575 223.104 
L 207.059672 222.562462 
L 205.585426 222.020923 
L 205.216864 221.479385 
L 204.896376 220.937846 
L 204.736132 220.396308 
L 204.271424 219.854769 
L 203.934912 219.313231 
L 202.813203 218.230154 
L 202.604886 217.688615 
L 202.412593 217.147077 
L 201.403055 216.605538 
L 200.8422 216.064 
L 200.697981 215.522462 
L 200.249297 214.980923 
L 199.992907 214.439385 
L 198.102026 213.356308 
L 197.60527 212.814769 
L 197.380928 212.273231 
L 196.531634 211.731692 
L 196.034878 210.107077 
L 194.929193 209.565538 
L 193.871582 209.024 
L 193.278679 207.940923 
L 192.493483 207.399385 
L 192.477458 206.316308 
L 192.076848 205.774769 
L 191.772384 205.233231 
L 191.708287 204.691692 
L 191.644189 204.150154 
L 190.394285 203.608615 
L 190.346212 203.067077 
L 190.105846 202.525538 
L 189.961626 201.984 
L 188.807869 201.442462 
L 188.022673 200.900923 
L 187.622062 199.817846 
L 187.237476 199.276308 
L 186.99711 197.651692 
L 186.836866 197.110154 
L 185.458767 196.568615 
L 185.026108 196.027077 
L 183.776204 195.485538 
L 183.599935 194.944 
L 183.151252 194.402462 
L 182.686544 193.860923 
L 182.606422 193.319385 
L 182.5263 192.236308 
L 181.212298 191.694769 
L 181.116152 191.153231 
L 180.859761 190.070154 
L 180.186736 189.528615 
L 179.40154 188.445538 
L 178.824661 187.362462 
L 176.869683 186.820923 
L 175.812072 186.279385 
L 175.379413 185.737846 
L 174.78651 185.196308 
L 174.690363 184.654769 
L 174.64229 184.113231 
L 172.142482 183.571692 
L 171.886092 183.030154 
L 169.22604 181.405538 
L 168.264575 180.864 
L 167.206964 179.780923 
L 164.931498 179.239385 
L 164.178351 178.697846 
L 164.018106 178.156308 
L 163.954009 177.614769 
L 163.216886 177.073231 
L 163.056642 176.531692 
L 162.495787 175.990154 
L 162.271446 175.448615 
L 162.239397 174.907077 
L 161.229859 174.365538 
L 161.053591 173.282462 
L 160.861298 172.740923 
L 159.70754 172.740923 
L 159.531272 171.657846 
L 158.601856 171.116308 
L 157.720513 170.574769 
L 156.98339 170.033231 
L 156.807122 169.491692 
L 156.069999 168.950154 
L 155.541194 168.408615 
L 154.980339 167.867077 
L 154.40346 167.325538 
L 154.131045 166.784 
L 153.986826 166.242462 
L 153.009337 164.617846 
L 152.91319 163.534769 
L 152.432458 162.993231 
L 151.503042 161.368615 
L 151.198578 160.827077 
L 150.189041 160.285538 
L 147.849477 159.744 
L 147.721282 159.202462 
L 146.455353 158.660923 
L 146.311133 158.119385 
L 144.019643 157.577846 
L 143.747228 157.577846 
L 141.856347 157.036308 
L 140.926932 156.494769 
L 140.542346 155.953231 
L 139.46871 155.411692 
L 139.388588 154.870154 
L 138.042538 153.787077 
L 134.725485 153.245538 
L 134.709461 152.704 
L 134.437046 152.162462 
L 133.796069 151.620923 
L 131.905189 151.079385 
L 129.757918 150.537846 
L 129.661772 149.454769 
L 128.123428 149.454769 
L 127.562574 148.913231 
L 127.466427 148.371692 
L 126.31267 147.288615 
L 126.02423 146.747077 
L 125.976157 146.205538 
L 125.815913 145.664 
L 125.36723 145.122462 
L 125.239034 144.580923 
L 124.726253 144.039385 
L 123.011641 142.414769 
L 121.505347 141.331692 
L 121.216907 140.790154 
L 121.168834 140.248615 
L 120.784248 139.707077 
L 119.902906 139.165538 
L 119.854833 138.624 
L 118.604929 138.082462 
L 118.444685 137.540923 
L 116.489707 136.999385 
L 116.377536 136.457846 
L 116.008974 135.374769 
L 114.887266 134.833231 
L 114.310387 134.291692 
L 111.682384 133.750154 
L 111.538164 133.750154 
L 111.490091 133.208615 
L 111.329847 132.667077 
L 111.025383 132.125538 
L 110.063918 131.584 
L 108.349306 131.584 
L 107.500013 131.042462 
L 107.371817 130.500923 
L 106.76289 129.959385 
L 106.234084 129.959385 
L 105.92962 129.417846 
L 105.368766 128.876308 
L 104.327179 128.334769 
L 103.814398 127.793231 
L 103.413788 127.251692 
L 102.628592 126.710154 
L 102.372201 126.168615 
L 102.115811 125.627077 
L 102.00364 125.627077 
L 101.699176 125.085538 
L 101.122297 124.002462 
L 100.897956 123.460923 
L 100.849882 122.919385 
L 100.289028 122.919385 
L 99.808296 122.919385 
L 98.942978 122.919385 
L 98.446221 122.919385 
L 98.285977 122.377846 
L 97.132219 121.836308 
L 97.052097 121.836308 
L 96.058584 120.753231 
L 95.177241 120.211692 
L 95.049046 119.670154 
L 94.376021 119.128615 
L 93.991435 118.045538 
L 93.446605 118.045538 
L 93.398532 117.504 
L 93.094068 117.504 
L 92.180677 116.962462 
L 91.28331 116.420923 
L 91.219212 116.420923 
L 90.722455 116.420923 
L 89.64882 115.337846 
L 89.520625 113.713231 
L 89.296283 113.713231 
L 88.751453 113.713231 
L 88.350843 113.171692 
L 88.270721 113.171692 
L 88.142525 112.630154 
L 88.030354 112.630154 
L 87.998306 112.630154 
L 87.309256 112.630154 
L 86.828524 112.088615 
L 86.732377 112.088615 
L 86.299718 111.547077 
L 85.802962 111.005538 
L 85.754888 110.464 
L 85.642717 110.464 
L 85.514522 109.922462 
L 85.210058 109.380923 
L 84.729326 108.839385 
L 84.649204 108.839385 
L 84.248594 108.297846 
L 84.008228 108.297846 
L 83.687739 107.756308 
L 83.671715 107.214769 
L 83.623642 107.214769 
L 82.85447 106.673231 
L 82.758324 106.673231 
L 82.16542 106.131692 
L 81.989152 106.131692 
L 81.828908 105.590154 
L 81.3642 105.590154 
L 80.899492 105.590154 
L 80.787321 105.590154 
L 80.498882 105.590154 
L 79.954052 105.590154 
L 79.938027 105.048615 
L 79.905979 105.048615 
L 79.745735 105.048615 
L 79.056685 105.048615 
L 78.800294 104.507077 
L 78.495831 104.507077 
L 78.335586 104.507077 
L 77.951001 103.965538 
L 77.918952 103.965538 
L 77.790757 103.965538 
L 77.774732 103.965538 
L 77.55039 103.424 
L 77.454244 102.882462 
L 77.310024 102.340923 
L 77.00556 102.340923 
L 76.74917 102.340923 
L 76.636999 101.799385 
L 76.60495 101.799385 
L 76.492779 101.799385 
L 76.300486 101.799385 
L 76.188316 101.799385 
L 75.851803 101.799385 
L 75.739632 101.799385 
L 75.563364 101.799385 
L 75.403119 101.799385 
L 75.387095 101.257846 
L 75.210827 100.716308 
L 74.922387 100.716308 
L 74.762143 100.174769 
L 74.585875 99.633231 
L 74.361533 99.633231 
L 74.297435 99.633231 
L 74.153215 99.633231 
L 73.832727 99.633231 
z
" clip-path="url(#p9d431a232c)" style="fill: #7cfc00"/>
   </g>
   <g id="PolyCollection_3">
    <path d="M 73.832727 54.144 
L 73.832727 99.633231 
L 74.153215 99.633231 
L 74.297435 99.633231 
L 74.361533 99.633231 
L 74.585875 99.633231 
L 74.762143 100.174769 
L 74.922387 100.716308 
L 75.210827 100.716308 
L 75.387095 101.257846 
L 75.403119 101.799385 
L 75.563364 101.799385 
L 75.739632 101.799385 
L 75.851803 101.799385 
L 76.188316 101.799385 
L 76.300486 101.799385 
L 76.492779 101.799385 
L 76.60495 101.799385 
L 76.636999 101.799385 
L 76.74917 102.340923 
L 77.00556 102.340923 
L 77.310024 102.340923 
L 77.454244 102.882462 
L 77.55039 103.424 
L 77.774732 103.965538 
L 77.790757 103.965538 
L 77.918952 103.965538 
L 77.951001 103.965538 
L 78.335586 104.507077 
L 78.495831 104.507077 
L 78.800294 104.507077 
L 79.056685 105.048615 
L 79.745735 105.048615 
L 79.905979 105.048615 
L 79.938027 105.048615 
L 79.954052 105.590154 
L 80.498882 105.590154 
L 80.787321 105.590154 
L 80.899492 105.590154 
L 81.3642 105.590154 
L 81.828908 105.590154 
L 81.989152 106.131692 
L 82.16542 106.131692 
L 82.758324 106.673231 
L 82.85447 106.673231 
L 83.623642 107.214769 
L 83.671715 107.214769 
L 83.687739 107.756308 
L 84.008228 108.297846 
L 84.248594 108.297846 
L 84.649204 108.839385 
L 84.729326 108.839385 
L 85.210058 109.380923 
L 85.514522 109.922462 
L 85.642717 110.464 
L 85.754888 110.464 
L 85.802962 111.005538 
L 86.299718 111.547077 
L 86.732377 112.088615 
L 86.828524 112.088615 
L 87.309256 112.630154 
L 87.998306 112.630154 
L 88.030354 112.630154 
L 88.142525 112.630154 
L 88.270721 113.171692 
L 88.350843 113.171692 
L 88.751453 113.713231 
L 89.296283 113.713231 
L 89.520625 113.713231 
L 89.64882 115.337846 
L 90.722455 116.420923 
L 91.219212 116.420923 
L 91.28331 116.420923 
L 92.180677 116.962462 
L 93.094068 117.504 
L 93.398532 117.504 
L 93.446605 118.045538 
L 93.991435 118.045538 
L 94.376021 119.128615 
L 95.049046 119.670154 
L 95.177241 120.211692 
L 96.058584 120.753231 
L 97.052097 121.836308 
L 97.132219 121.836308 
L 98.285977 122.377846 
L 98.446221 122.919385 
L 98.942978 122.919385 
L 99.808296 122.919385 
L 100.289028 122.919385 
L 100.849882 122.919385 
L 100.897956 123.460923 
L 101.122297 124.002462 
L 101.699176 125.085538 
L 102.00364 125.627077 
L 102.115811 125.627077 
L 102.372201 126.168615 
L 102.628592 126.710154 
L 103.413788 127.251692 
L 103.814398 127.793231 
L 104.327179 128.334769 
L 105.368766 128.876308 
L 105.92962 129.417846 
L 106.234084 129.959385 
L 106.76289 129.959385 
L 107.371817 130.500923 
L 107.500013 131.042462 
L 108.349306 131.584 
L 110.063918 131.584 
L 111.025383 132.125538 
L 111.329847 132.667077 
L 111.490091 133.208615 
L 111.538164 133.750154 
L 111.682384 133.750154 
L 114.310387 134.291692 
L 114.887266 134.833231 
L 116.008974 135.374769 
L 116.377536 136.457846 
L 116.489707 136.999385 
L 118.444685 137.540923 
L 118.604929 138.082462 
L 119.854833 138.624 
L 119.902906 139.165538 
L 120.784248 139.707077 
L 121.168834 140.248615 
L 121.216907 140.790154 
L 121.505347 141.331692 
L 123.011641 142.414769 
L 124.726253 144.039385 
L 125.239034 144.580923 
L 125.36723 145.122462 
L 125.815913 145.664 
L 125.976157 146.205538 
L 126.02423 146.747077 
L 126.31267 147.288615 
L 127.466427 148.371692 
L 127.562574 148.913231 
L 128.123428 149.454769 
L 129.661772 149.454769 
L 129.757918 150.537846 
L 131.905189 151.079385 
L 133.796069 151.620923 
L 134.437046 152.162462 
L 134.709461 152.704 
L 134.725485 153.245538 
L 138.042538 153.787077 
L 139.388588 154.870154 
L 139.46871 155.411692 
L 140.542346 155.953231 
L 140.926932 156.494769 
L 141.856347 157.036308 
L 143.747228 157.577846 
L 144.019643 157.577846 
L 146.311133 158.119385 
L 146.455353 158.660923 
L 147.721282 159.202462 
L 147.849477 159.744 
L 150.189041 160.285538 
L 151.198578 160.827077 
L 151.503042 161.368615 
L 152.432458 162.993231 
L 152.91319 163.534769 
L 153.009337 164.617846 
L 153.986826 166.242462 
L 154.131045 166.784 
L 154.40346 167.325538 
L 154.980339 167.867077 
L 155.541194 168.408615 
L 156.069999 168.950154 
L 156.807122 169.491692 
L 156.98339 170.033231 
L 157.720513 170.574769 
L 158.601856 171.116308 
L 159.531272 171.657846 
L 159.70754 172.740923 
L 160.861298 172.740923 
L 161.053591 173.282462 
L 161.229859 174.365538 
L 162.239397 174.907077 
L 162.271446 175.448615 
L 162.495787 175.990154 
L 163.056642 176.531692 
L 163.216886 177.073231 
L 163.954009 177.614769 
L 164.018106 178.156308 
L 164.178351 178.697846 
L 164.931498 179.239385 
L 167.206964 179.780923 
L 168.264575 180.864 
L 169.22604 181.405538 
L 171.886092 183.030154 
L 172.142482 183.571692 
L 174.64229 184.113231 
L 174.690363 184.654769 
L 174.78651 185.196308 
L 175.379413 185.737846 
L 175.812072 186.279385 
L 176.869683 186.820923 
L 178.824661 187.362462 
L 179.40154 188.445538 
L 180.186736 189.528615 
L 180.859761 190.070154 
L 181.116152 191.153231 
L 181.212298 191.694769 
L 182.5263 192.236308 
L 182.606422 193.319385 
L 182.686544 193.860923 
L 183.151252 194.402462 
L 183.599935 194.944 
L 183.776204 195.485538 
L 185.026108 196.027077 
L 185.458767 196.568615 
L 186.836866 197.110154 
L 186.99711 197.651692 
L 187.237476 199.276308 
L 187.622062 199.817846 
L 188.022673 200.900923 
L 188.807869 201.442462 
L 189.961626 201.984 
L 190.105846 202.525538 
L 190.346212 203.067077 
L 190.394285 203.608615 
L 191.644189 204.150154 
L 191.708287 204.691692 
L 191.772384 205.233231 
L 192.076848 205.774769 
L 192.477458 206.316308 
L 192.493483 207.399385 
L 193.278679 207.940923 
L 193.871582 209.024 
L 194.929193 209.565538 
L 196.034878 210.107077 
L 196.531634 211.731692 
L 197.380928 212.273231 
L 197.60527 212.814769 
L 198.102026 213.356308 
L 199.992907 214.439385 
L 200.249297 214.980923 
L 200.697981 215.522462 
L 200.8422 216.064 
L 201.403055 216.605538 
L 202.412593 217.147077 
L 202.604886 217.688615 
L 202.813203 218.230154 
L 203.934912 219.313231 
L 204.271424 219.854769 
L 204.736132 220.396308 
L 204.896376 220.937846 
L 205.216864 221.479385 
L 205.585426 222.020923 
L 207.059672 222.562462 
L 207.652575 223.104 
L 207.860892 223.645538 
L 210.072261 224.187077 
L 212.043263 224.728615 
L 213.036776 225.270154 
L 213.197021 225.811692 
L 213.469436 226.353231 
L 214.959706 226.894769 
L 215.760926 227.436308 
L 216.129488 227.977846 
L 217.219147 228.519385 
L 217.876148 229.060923 
L 218.5011 230.685538 
L 218.933759 231.227077 
L 220.087517 231.768615 
L 220.456078 232.310154 
L 220.82464 232.851692 
L 221.77008 233.393231 
L 221.850202 233.934769 
L 222.010446 234.476308 
L 222.202739 235.017846 
L 222.71552 236.642462 
L 222.779618 237.184 
L 223.164204 237.725538 
L 223.628911 238.267077 
L 225.087133 239.350154 
L 225.103157 239.891692 
L 226.24089 240.433231 
L 227.090184 241.516308 
L 227.586941 242.057846 
L 228.548405 242.599385 
L 230.0547 243.140923 
L 230.182895 244.224 
L 230.663627 245.307077 
L 231.977629 246.390154 
L 232.730776 246.931692 
L 233.548021 248.014769 
L 234.221046 248.556308 
L 234.717803 249.097846 
L 235.390828 249.639385 
L 236.16 250.180923 
L 236.400366 250.722462 
L 238.307271 251.264 
L 238.932223 251.805538 
L 239.044394 252.347077 
L 239.861639 252.888615 
L 242.137105 254.513231 
L 242.345422 255.054769 
L 243.306887 255.596308 
L 247.136721 256.679385 
L 247.200818 257.762462 
L 247.82577 258.304 
L 249.860871 258.845538 
L 250.982579 259.928615 
L 253.258045 260.470154 
L 253.306119 261.011692 
L 254.780364 262.636308 
L 255.549536 263.177846 
L 255.789902 263.719385 
L 256.494976 264.260923 
L 256.607147 264.802462 
L 258.818516 265.344 
L 259.347321 265.885538 
L 259.667809 266.427077 
L 259.988298 266.968615 
L 260.741445 267.510154 
L 260.965787 268.051692 
L 262.215691 268.593231 
L 262.600276 269.676308 
L 264.875743 270.217846 
L 266.446135 270.759385 
L 266.478184 271.300923 
L 267.311453 271.842462 
L 268.913894 272.384 
L 269.074138 272.925538 
L 269.522822 273.467077 
L 270.0997 274.008615 
L 271.58997 274.550154 
L 272.343118 275.091692 
L 272.839874 275.633231 
L 273.112289 276.174769 
L 273.384704 276.716308 
L 276.89405 277.257846 
L 277.631173 278.340923 
L 277.695271 278.882462 
L 281.941739 279.424 
L 285.979891 281.048615 
L 287.085575 281.590154 
L 288.527772 283.214769 
L 288.671991 283.756308 
L 289.921895 284.297846 
L 291.57241 284.839385 
L 291.588434 285.380923 
L 292.37363 285.922462 
L 293.944022 286.464 
L 294.889462 287.005538 
L 295.209951 287.547077 
L 296.73227 288.088615 
L 303.799034 288.630154 
L 304.456035 289.171692 
L 304.58423 289.713231 
L 304.840621 290.254769 
L 308.606357 290.796308 
L 308.750577 291.337846 
L 308.910821 291.879385 
L 309.022992 292.420923 
L 309.471675 292.962462 
L 312.388118 294.045538 
L 313.317534 294.587077 
L 313.525851 295.128615 
L 314.90395 295.670154 
L 315.19239 296.211692 
L 316.378196 297.294769 
L 320.079835 297.836308 
L 321.025275 298.377846 
L 322.24313 298.919385 
L 325.079451 299.460923 
L 326.008867 300.002462 
L 332.610923 300.544 
L 332.835265 301.085538 
L 334.293486 301.627077 
L 335.799781 302.168615 
L 339.918054 302.710154 
L 340.783373 303.793231 
L 342.033276 304.334769 
L 364.35528 304.876308 
L 380.363665 305.417846 
L 397.477735 306.500923 
L 398.487273 307.042462 
L 398.487273 307.042462 
L 398.487273 307.042462 
L 397.477735 306.500923 
L 380.363665 305.417846 
L 364.35528 304.876308 
L 342.033276 304.334769 
L 340.783373 303.793231 
L 339.918054 302.710154 
L 335.799781 302.168615 
L 334.293486 301.627077 
L 332.835265 301.085538 
L 332.610923 300.544 
L 326.008867 300.002462 
L 325.079451 299.460923 
L 322.24313 298.919385 
L 321.025275 298.377846 
L 320.079835 297.836308 
L 316.378196 297.294769 
L 315.19239 296.211692 
L 314.90395 295.670154 
L 313.525851 295.128615 
L 313.317534 294.587077 
L 312.388118 294.045538 
L 309.471675 292.962462 
L 309.022992 292.420923 
L 308.910821 291.879385 
L 308.750577 291.337846 
L 308.606357 290.796308 
L 304.840621 290.254769 
L 304.58423 289.713231 
L 304.456035 289.171692 
L 303.799034 288.630154 
L 296.73227 288.088615 
L 295.209951 287.547077 
L 294.889462 287.005538 
L 293.944022 286.464 
L 292.37363 285.922462 
L 291.588434 285.380923 
L 291.57241 284.839385 
L 289.921895 284.297846 
L 288.671991 283.756308 
L 288.527772 283.214769 
L 287.085575 281.590154 
L 285.979891 281.048615 
L 281.941739 279.424 
L 277.695271 278.882462 
L 277.631173 278.340923 
L 276.89405 277.257846 
L 273.384704 276.716308 
L 273.112289 276.174769 
L 272.839874 275.633231 
L 272.343118 275.091692 
L 271.58997 274.550154 
L 270.0997 274.008615 
L 269.522822 273.467077 
L 269.074138 272.925538 
L 268.913894 272.384 
L 267.311453 271.842462 
L 266.478184 271.300923 
L 266.446135 270.759385 
L 264.875743 270.217846 
L 262.600276 269.676308 
L 262.215691 268.593231 
L 260.965787 268.051692 
L 260.741445 267.510154 
L 259.988298 266.968615 
L 259.667809 266.427077 
L 259.347321 265.885538 
L 258.818516 265.344 
L 256.607147 264.802462 
L 256.494976 264.260923 
L 255.789902 263.719385 
L 255.549536 263.177846 
L 254.780364 262.636308 
L 253.306119 261.011692 
L 253.258045 260.470154 
L 250.982579 259.928615 
L 249.860871 258.845538 
L 247.82577 258.304 
L 247.200818 257.762462 
L 247.136721 256.679385 
L 243.306887 255.596308 
L 242.345422 255.054769 
L 242.137105 254.513231 
L 239.861639 252.888615 
L 239.044394 252.347077 
L 238.932223 251.805538 
L 238.307271 251.264 
L 236.400366 250.722462 
L 236.16 250.180923 
L 235.390828 249.639385 
L 234.717803 249.097846 
L 234.221046 248.556308 
L 233.548021 248.014769 
L 232.730776 246.931692 
L 231.977629 246.390154 
L 230.663627 245.307077 
L 230.182895 244.224 
L 230.0547 243.140923 
L 228.548405 242.599385 
L 227.586941 242.057846 
L 227.090184 241.516308 
L 226.24089 240.433231 
L 225.103157 239.891692 
L 225.087133 239.350154 
L 223.628911 238.267077 
L 223.164204 237.725538 
L 222.779618 237.184 
L 222.71552 236.642462 
L 222.202739 235.017846 
L 222.010446 234.476308 
L 221.850202 233.934769 
L 221.77008 233.393231 
L 220.82464 232.851692 
L 220.456078 232.310154 
L 220.087517 231.768615 
L 218.933759 231.227077 
L 218.5011 230.144 
L 217.876148 228.519385 
L 217.219147 227.977846 
L 216.129488 227.436308 
L 215.760926 226.894769 
L 214.959706 226.353231 
L 213.469436 225.811692 
L 213.197021 225.270154 
L 213.036776 224.728615 
L 212.043263 224.187077 
L 210.072261 223.645538 
L 207.860892 223.104 
L 207.652575 222.562462 
L 207.059672 222.020923 
L 205.585426 221.479385 
L 205.216864 220.937846 
L 204.896376 220.396308 
L 204.736132 219.854769 
L 204.271424 219.313231 
L 203.934912 218.771692 
L 202.813203 217.688615 
L 202.604886 217.147077 
L 202.412593 216.605538 
L 201.403055 216.064 
L 200.8422 215.522462 
L 200.697981 214.980923 
L 200.249297 214.439385 
L 199.992907 213.897846 
L 198.102026 212.814769 
L 197.60527 212.273231 
L 197.380928 211.731692 
L 196.531634 211.190154 
L 196.034878 209.565538 
L 194.929193 209.024 
L 193.871582 208.482462 
L 193.278679 207.399385 
L 192.493483 206.857846 
L 192.477458 205.774769 
L 192.076848 205.233231 
L 191.772384 204.691692 
L 191.708287 204.150154 
L 191.644189 203.608615 
L 190.394285 203.067077 
L 190.346212 202.525538 
L 190.105846 201.984 
L 189.961626 201.442462 
L 188.807869 200.900923 
L 188.022673 200.359385 
L 187.622062 199.276308 
L 187.237476 198.734769 
L 186.99711 197.110154 
L 186.836866 196.568615 
L 185.458767 196.027077 
L 185.026108 195.485538 
L 183.776204 194.944 
L 183.599935 194.402462 
L 183.151252 193.860923 
L 182.686544 193.319385 
L 182.606422 192.777846 
L 182.5263 191.694769 
L 181.212298 191.153231 
L 181.116152 190.611692 
L 180.859761 189.528615 
L 180.186736 188.987077 
L 179.40154 187.904 
L 178.824661 186.820923 
L 176.869683 186.279385 
L 175.812072 185.737846 
L 175.379413 185.196308 
L 174.78651 184.654769 
L 174.690363 184.113231 
L 174.64229 183.571692 
L 172.142482 183.030154 
L 171.886092 182.488615 
L 169.22604 180.864 
L 168.264575 180.322462 
L 167.206964 179.239385 
L 164.931498 178.697846 
L 164.178351 178.156308 
L 164.018106 177.614769 
L 163.954009 177.073231 
L 163.216886 176.531692 
L 163.056642 175.990154 
L 162.495787 175.448615 
L 162.271446 174.907077 
L 162.239397 174.365538 
L 161.229859 173.824 
L 161.053591 172.740923 
L 160.861298 172.199385 
L 159.70754 171.657846 
L 159.531272 170.574769 
L 158.601856 170.033231 
L 157.720513 169.491692 
L 156.98339 168.950154 
L 156.807122 168.408615 
L 156.069999 167.867077 
L 155.541194 167.325538 
L 154.980339 166.784 
L 154.40346 166.242462 
L 154.131045 165.700923 
L 153.986826 165.159385 
L 153.009337 163.534769 
L 152.91319 162.451692 
L 152.432458 161.910154 
L 151.503042 160.285538 
L 151.198578 159.744 
L 150.189041 159.202462 
L 147.849477 158.660923 
L 147.721282 158.119385 
L 146.455353 157.577846 
L 146.311133 157.036308 
L 144.019643 156.494769 
L 143.747228 155.953231 
L 141.856347 155.411692 
L 140.926932 154.870154 
L 140.542346 154.328615 
L 139.46871 153.787077 
L 139.388588 153.245538 
L 138.042538 152.162462 
L 134.725485 151.620923 
L 134.709461 151.079385 
L 134.437046 150.537846 
L 133.796069 149.996308 
L 131.905189 149.454769 
L 129.757918 148.913231 
L 129.661772 147.830154 
L 128.123428 147.288615 
L 127.562574 146.747077 
L 127.466427 146.205538 
L 126.31267 145.122462 
L 126.02423 144.580923 
L 125.976157 144.039385 
L 125.815913 143.497846 
L 125.36723 142.956308 
L 125.239034 142.414769 
L 124.726253 141.873231 
L 123.011641 140.248615 
L 121.505347 139.165538 
L 121.216907 138.624 
L 121.168834 138.082462 
L 120.784248 137.540923 
L 119.902906 136.999385 
L 119.854833 136.457846 
L 118.604929 135.916308 
L 118.444685 135.374769 
L 116.489707 134.833231 
L 116.377536 134.291692 
L 116.008974 133.208615 
L 114.887266 132.667077 
L 114.310387 132.125538 
L 111.682384 131.584 
L 111.538164 131.042462 
L 111.490091 130.500923 
L 111.329847 129.959385 
L 111.025383 129.417846 
L 110.063918 128.876308 
L 108.349306 128.334769 
L 107.500013 127.793231 
L 107.371817 127.251692 
L 106.76289 126.710154 
L 106.234084 126.168615 
L 105.92962 125.085538 
L 105.368766 124.544 
L 104.327179 124.002462 
L 103.814398 123.460923 
L 103.413788 122.919385 
L 102.628592 122.377846 
L 102.372201 121.836308 
L 102.115811 121.294769 
L 102.00364 120.753231 
L 101.699176 120.211692 
L 101.122297 119.128615 
L 100.897956 118.587077 
L 100.849882 118.045538 
L 100.289028 117.504 
L 99.808296 116.962462 
L 98.942978 116.420923 
L 98.446221 115.879385 
L 98.285977 115.337846 
L 97.132219 114.796308 
L 97.052097 114.254769 
L 96.058584 113.171692 
L 95.177241 112.088615 
L 95.049046 111.547077 
L 94.376021 109.922462 
L 93.991435 108.839385 
L 93.446605 108.297846 
L 93.398532 107.756308 
L 93.094068 107.214769 
L 92.180677 106.673231 
L 91.28331 106.131692 
L 91.219212 105.048615 
L 90.722455 104.507077 
L 89.64882 102.340923 
L 89.520625 100.716308 
L 89.296283 100.174769 
L 88.751453 99.633231 
L 88.350843 99.091692 
L 88.270721 98.550154 
L 88.142525 98.008615 
L 88.030354 97.467077 
L 87.998306 96.925538 
L 87.309256 96.384 
L 86.828524 95.842462 
L 86.732377 95.300923 
L 86.299718 94.759385 
L 85.802962 94.217846 
L 85.754888 93.676308 
L 85.642717 92.593231 
L 85.514522 92.051692 
L 85.210058 90.968615 
L 84.729326 90.427077 
L 84.649204 89.344 
L 84.248594 88.802462 
L 84.008228 88.260923 
L 83.687739 87.719385 
L 83.671715 87.177846 
L 83.623642 86.636308 
L 82.85447 86.094769 
L 82.758324 85.553231 
L 82.16542 85.011692 
L 81.989152 84.470154 
L 81.828908 83.928615 
L 81.3642 83.387077 
L 80.899492 82.845538 
L 80.787321 82.304 
L 80.498882 81.220923 
L 79.954052 80.679385 
L 79.938027 80.137846 
L 79.905979 79.596308 
L 79.745735 78.513231 
L 79.056685 76.888615 
L 78.800294 76.347077 
L 78.495831 75.805538 
L 78.335586 75.264 
L 77.951001 74.180923 
L 77.918952 73.639385 
L 77.790757 72.556308 
L 77.774732 72.014769 
L 77.55039 71.473231 
L 77.454244 70.390154 
L 77.310024 69.848615 
L 77.00556 68.224 
L 76.74917 67.682462 
L 76.636999 67.140923 
L 76.60495 66.599385 
L 76.492779 65.516308 
L 76.300486 64.433231 
L 76.188316 63.891692 
L 75.851803 63.350154 
L 75.739632 62.267077 
L 75.563364 61.725538 
L 75.403119 60.642462 
L 75.387095 60.100923 
L 75.210827 59.559385 
L 74.922387 59.017846 
L 74.762143 57.934769 
L 74.585875 57.393231 
L 74.361533 56.310154 
L 74.297435 55.227077 
L 74.153215 54.685538 
L 73.832727 54.144 
z
" clip-path="url(#p9d431a232c)" style="fill: #ff0000"/>
   </g>
   <g id="matplotlib.axis_1">
    <g id="xtick_1">
     <g id="line2d_1">
      <defs>
       <path id="m8cc2e16849" d="M 0 0 
L 0 3.5 
" style="stroke: #000000; stroke-width: 0.8"/>
      </defs>
      <g>
       <use xlink:href="#m8cc2e16849" x="67.23067" y="307.584" style="stroke: #000000; stroke-width: 0.8"/>
      </g>
     </g>
     <g id="text_1">
      <!-- 0 -->
      <g transform="translate(64.04942 322.182437)scale(0.1 -0.1)">
       <defs>
        <path id="DejaVuSans-30" d="M 2034 4250 
Q 1547 4250 1301 3770 
Q 1056 3291 1056 2328 
Q 1056 1369 1301 889 
Q 1547 409 2034 409 
Q 2525 409 2770 889 
Q 3016 1369 3016 2328 
Q 3016 3291 2770 3770 
Q 2525 4250 2034 4250 
z
M 2034 4750 
Q 2819 4750 3233 4129 
Q 3647 3509 3647 2328 
Q 3647 1150 3233 529 
Q 2819 -91 2034 -91 
Q 1250 -91 836 529 
Q 422 1150 422 2328 
Q 422 3509 836 4129 
Q 1250 4750 2034 4750 
z
" transform="scale(0.015625)"/>
       </defs>
       <use xlink:href="#DejaVuSans-30"/>
      </g>
     </g>
    </g>
    <g id="xtick_2">
     <g id="line2d_2">
      <g>
       <use xlink:href="#m8cc2e16849" x="107.291695" y="307.584" style="stroke: #000000; stroke-width: 0.8"/>
      </g>
     </g>
     <g id="text_2">
      <!-- 25 -->
      <g transform="translate(100.929195 322.182437)scale(0.1 -0.1)">
       <defs>
        <path id="DejaVuSans-32" d="M 1228 531 
L 3431 531 
L 3431 0 
L 469 0 
L 469 531 
Q 828 903 1448 1529 
Q 2069 2156 2228 2338 
Q 2531 2678 2651 2914 
Q 2772 3150 2772 3378 
Q 2772 3750 2511 3984 
Q 2250 4219 1831 4219 
Q 1534 4219 1204 4116 
Q 875 4013 500 3803 
L 500 4441 
Q 881 4594 1212 4672 
Q 1544 4750 1819 4750 
Q 2544 4750 2975 4387 
Q 3406 4025 3406 3419 
Q 3406 3131 3298 2873 
Q 3191 2616 2906 2266 
Q 2828 2175 2409 1742 
Q 1991 1309 1228 531 
z
" transform="scale(0.015625)"/>
        <path id="DejaVuSans-35" d="M 691 4666 
L 3169 4666 
L 3169 4134 
L 1269 4134 
L 1269 2991 
Q 1406 3038 1543 3061 
Q 1681 3084 1819 3084 
Q 2600 3084 3056 2656 
Q 3513 2228 3513 1497 
Q 3513 744 3044 326 
Q 2575 -91 1722 -91 
Q 1428 -91 1123 -41 
Q 819 9 494 109 
L 494 744 
Q 775 591 1075 516 
Q 1375 441 1709 441 
Q 2250 441 2565 725 
Q 2881 1009 2881 1497 
Q 2881 1984 2565 2268 
Q 2250 2553 1709 2553 
Q 1456 2553 1204 2497 
Q 953 2441 691 2322 
L 691 4666 
z
" transform="scale(0.015625)"/>
       </defs>
       <use xlink:href="#DejaVuSans-32"/>
       <use xlink:href="#DejaVuSans-35" x="63.623047"/>
      </g>
     </g>
    </g>
    <g id="xtick_3">
     <g id="line2d_3">
      <g>
       <use xlink:href="#m8cc2e16849" x="147.35272" y="307.584" style="stroke: #000000; stroke-width: 0.8"/>
      </g>
     </g>
     <g id="text_3">
      <!-- 50 -->
      <g transform="translate(140.99022 322.182437)scale(0.1 -0.1)">
       <use xlink:href="#DejaVuSans-35"/>
       <use xlink:href="#DejaVuSans-30" x="63.623047"/>
      </g>
     </g>
    </g>
    <g id="xtick_4">
     <g id="line2d_4">
      <g>
       <use xlink:href="#m8cc2e16849" x="187.413745" y="307.584" style="stroke: #000000; stroke-width: 0.8"/>
      </g>
     </g>
     <g id="text_4">
      <!-- 75 -->
      <g transform="translate(181.051245 322.182437)scale(0.1 -0.1)">
       <defs>
        <path id="DejaVuSans-37" d="M 525 4666 
L 3525 4666 
L 3525 4397 
L 1831 0 
L 1172 0 
L 2766 4134 
L 525 4134 
L 525 4666 
z
" transform="scale(0.015625)"/>
       </defs>
       <use xlink:href="#DejaVuSans-37"/>
       <use xlink:href="#DejaVuSans-35" x="63.623047"/>
      </g>
     </g>
    </g>
    <g id="xtick_5">
     <g id="line2d_5">
      <g>
       <use xlink:href="#m8cc2e16849" x="227.47477" y="307.584" style="stroke: #000000; stroke-width: 0.8"/>
      </g>
     </g>
     <g id="text_5">
      <!-- 100 -->
      <g transform="translate(217.93102 322.182437)scale(0.1 -0.1)">
       <defs>
        <path id="DejaVuSans-31" d="M 794 531 
L 1825 531 
L 1825 4091 
L 703 3866 
L 703 4441 
L 1819 4666 
L 2450 4666 
L 2450 531 
L 3481 531 
L 3481 0 
L 794 0 
L 794 531 
z
" transform="scale(0.015625)"/>
       </defs>
       <use xlink:href="#DejaVuSans-31"/>
       <use xlink:href="#DejaVuSans-30" x="63.623047"/>
       <use xlink:href="#DejaVuSans-30" x="127.246094"/>
      </g>
     </g>
    </g>
    <g id="xtick_6">
     <g id="line2d_6">
      <g>
       <use xlink:href="#m8cc2e16849" x="267.535795" y="307.584" style="stroke: #000000; stroke-width: 0.8"/>
      </g>
     </g>
     <g id="text_6">
      <!-- 125 -->
      <g transform="translate(257.992045 322.182437)scale(0.1 -0.1)">
       <use xlink:href="#DejaVuSans-31"/>
       <use xlink:href="#DejaVuSans-32" x="63.623047"/>
       <use xlink:href="#DejaVuSans-35" x="127.246094"/>
      </g>
     </g>
    </g>
    <g id="xtick_7">
     <g id="line2d_7">
      <g>
       <use xlink:href="#m8cc2e16849" x="307.59682" y="307.584" style="stroke: #000000; stroke-width: 0.8"/>
      </g>
     </g>
     <g id="text_7">
      <!-- 150 -->
      <g transform="translate(298.05307 322.182437)scale(0.1 -0.1)">
       <use xlink:href="#DejaVuSans-31"/>
       <use xlink:href="#DejaVuSans-35" x="63.623047"/>
       <use xlink:href="#DejaVuSans-30" x="127.246094"/>
      </g>
     </g>
    </g>
    <g id="xtick_8">
     <g id="line2d_8">
      <g>
       <use xlink:href="#m8cc2e16849" x="347.657844" y="307.584" style="stroke: #000000; stroke-width: 0.8"/>
      </g>
     </g>
     <g id="text_8">
      <!-- 175 -->
      <g transform="translate(338.114094 322.182437)scale(0.1 -0.1)">
       <use xlink:href="#DejaVuSans-31"/>
       <use xlink:href="#DejaVuSans-37" x="63.623047"/>
       <use xlink:href="#DejaVuSans-35" x="127.246094"/>
      </g>
     </g>
    </g>
    <g id="xtick_9">
     <g id="line2d_9">
      <g>
       <use xlink:href="#m8cc2e16849" x="387.718869" y="307.584" style="stroke: #000000; stroke-width: 0.8"/>
      </g>
     </g>
     <g id="text_9">
      <!-- 200 -->
      <g transform="translate(378.175119 322.182437)scale(0.1 -0.1)">
       <use xlink:href="#DejaVuSans-32"/>
       <use xlink:href="#DejaVuSans-30" x="63.623047"/>
       <use xlink:href="#DejaVuSans-30" x="127.246094"/>
      </g>
     </g>
    </g>
    <g id="text_10">
     <!-- Score -->
     <g transform="translate(222.157656 335.860562)scale(0.1 -0.1)">
      <defs>
       <path id="DejaVuSans-53" d="M 3425 4513 
L 3425 3897 
Q 3066 4069 2747 4153 
Q 2428 4238 2131 4238 
Q 1616 4238 1336 4038 
Q 1056 3838 1056 3469 
Q 1056 3159 1242 3001 
Q 1428 2844 1947 2747 
L 2328 2669 
Q 3034 2534 3370 2195 
Q 3706 1856 3706 1288 
Q 3706 609 3251 259 
Q 2797 -91 1919 -91 
Q 1588 -91 1214 -16 
Q 841 59 441 206 
L 441 856 
Q 825 641 1194 531 
Q 1563 422 1919 422 
Q 2459 422 2753 634 
Q 3047 847 3047 1241 
Q 3047 1584 2836 1778 
Q 2625 1972 2144 2069 
L 1759 2144 
Q 1053 2284 737 2584 
Q 422 2884 422 3419 
Q 422 4038 858 4394 
Q 1294 4750 2059 4750 
Q 2388 4750 2728 4690 
Q 3069 4631 3425 4513 
z
" transform="scale(0.015625)"/>
       <path id="DejaVuSans-63" d="M 3122 3366 
L 3122 2828 
Q 2878 2963 2633 3030 
Q 2388 3097 2138 3097 
Q 1578 3097 1268 2742 
Q 959 2388 959 1747 
Q 959 1106 1268 751 
Q 1578 397 2138 397 
Q 2388 397 2633 464 
Q 2878 531 3122 666 
L 3122 134 
Q 2881 22 2623 -34 
Q 2366 -91 2075 -91 
Q 1284 -91 818 406 
Q 353 903 353 1747 
Q 353 2603 823 3093 
Q 1294 3584 2113 3584 
Q 2378 3584 2631 3529 
Q 2884 3475 3122 3366 
z
" transform="scale(0.015625)"/>
       <path id="DejaVuSans-6f" d="M 1959 3097 
Q 1497 3097 1228 2736 
Q 959 2375 959 1747 
Q 959 1119 1226 758 
Q 1494 397 1959 397 
Q 2419 397 2687 759 
Q 2956 1122 2956 1747 
Q 2956 2369 2687 2733 
Q 2419 3097 1959 3097 
z
M 1959 3584 
Q 2709 3584 3137 3096 
Q 3566 2609 3566 1747 
Q 3566 888 3137 398 
Q 2709 -91 1959 -91 
Q 1206 -91 779 398 
Q 353 888 353 1747 
Q 353 2609 779 3096 
Q 1206 3584 1959 3584 
z
" transform="scale(0.015625)"/>
       <path id="DejaVuSans-72" d="M 2631 2963 
Q 2534 3019 2420 3045 
Q 2306 3072 2169 3072 
Q 1681 3072 1420 2755 
Q 1159 2438 1159 1844 
L 1159 0 
L 581 0 
L 581 3500 
L 1159 3500 
L 1159 2956 
Q 1341 3275 1631 3429 
Q 1922 3584 2338 3584 
Q 2397 3584 2469 3576 
Q 2541 3569 2628 3553 
L 2631 2963 
z
" transform="scale(0.015625)"/>
       <path id="DejaVuSans-65" d="M 3597 1894 
L 3597 1613 
L 953 1613 
Q 991 1019 1311 708 
Q 1631 397 2203 397 
Q 2534 397 2845 478 
Q 3156 559 3463 722 
L 3463 178 
Q 3153 47 2828 -22 
Q 2503 -91 2169 -91 
Q 1331 -91 842 396 
Q 353 884 353 1716 
Q 353 2575 817 3079 
Q 1281 3584 2069 3584 
Q 2775 3584 3186 3129 
Q 3597 2675 3597 1894 
z
M 3022 2063 
Q 3016 2534 2758 2815 
Q 2500 3097 2075 3097 
Q 1594 3097 1305 2825 
Q 1016 2553 972 2059 
L 3022 2063 
z
" transform="scale(0.015625)"/>
      </defs>
      <use xlink:href="#DejaVuSans-53"/>
      <use xlink:href="#DejaVuSans-63" x="63.476562"/>
      <use xlink:href="#DejaVuSans-6f" x="118.457031"/>
      <use xlink:href="#DejaVuSans-72" x="179.638672"/>
      <use xlink:href="#DejaVuSans-65" x="218.501953"/>
     </g>
    </g>
   </g>
   <g id="matplotlib.axis_2">
    <g id="ytick_1">
     <g id="line2d_10">
      <defs>
       <path id="md47bdbe6bf" d="M 0 0 
L -3.5 0 
" style="stroke: #000000; stroke-width: 0.8"/>
      </defs>
      <g>
       <use xlink:href="#md47bdbe6bf" x="57.6" y="307.584" style="stroke: #000000; stroke-width: 0.8"/>
      </g>
     </g>
     <g id="text_11">
      <!-- 0 -->
      <g transform="translate(44.2375 311.383219)scale(0.1 -0.1)">
       <use xlink:href="#DejaVuSans-30"/>
      </g>
     </g>
    </g>
    <g id="ytick_2">
     <g id="line2d_11">
      <g>
       <use xlink:href="#md47bdbe6bf" x="57.6" y="253.430154" style="stroke: #000000; stroke-width: 0.8"/>
      </g>
     </g>
     <g id="text_12">
      <!-- 100 -->
      <g transform="translate(31.5125 257.229373)scale(0.1 -0.1)">
       <use xlink:href="#DejaVuSans-31"/>
       <use xlink:href="#DejaVuSans-30" x="63.623047"/>
       <use xlink:href="#DejaVuSans-30" x="127.246094"/>
      </g>
     </g>
    </g>
    <g id="ytick_3">
     <g id="line2d_12">
      <g>
       <use xlink:href="#md47bdbe6bf" x="57.6" y="199.276308" style="stroke: #000000; stroke-width: 0.8"/>
      </g>
     </g>
     <g id="text_13">
      <!-- 200 -->
      <g transform="translate(31.5125 203.075526)scale(0.1 -0.1)">
       <use xlink:href="#DejaVuSans-32"/>
       <use xlink:href="#DejaVuSans-30" x="63.623047"/>
       <use xlink:href="#DejaVuSans-30" x="127.246094"/>
      </g>
     </g>
    </g>
    <g id="ytick_4">
     <g id="line2d_13">
      <g>
       <use xlink:href="#md47bdbe6bf" x="57.6" y="145.122462" style="stroke: #000000; stroke-width: 0.8"/>
      </g>
     </g>
     <g id="text_14">
      <!-- 300 -->
      <g transform="translate(31.5125 148.92168)scale(0.1 -0.1)">
       <defs>
        <path id="DejaVuSans-33" d="M 2597 2516 
Q 3050 2419 3304 2112 
Q 3559 1806 3559 1356 
Q 3559 666 3084 287 
Q 2609 -91 1734 -91 
Q 1441 -91 1130 -33 
Q 819 25 488 141 
L 488 750 
Q 750 597 1062 519 
Q 1375 441 1716 441 
Q 2309 441 2620 675 
Q 2931 909 2931 1356 
Q 2931 1769 2642 2001 
Q 2353 2234 1838 2234 
L 1294 2234 
L 1294 2753 
L 1863 2753 
Q 2328 2753 2575 2939 
Q 2822 3125 2822 3475 
Q 2822 3834 2567 4026 
Q 2313 4219 1838 4219 
Q 1578 4219 1281 4162 
Q 984 4106 628 3988 
L 628 4550 
Q 988 4650 1302 4700 
Q 1616 4750 1894 4750 
Q 2613 4750 3031 4423 
Q 3450 4097 3450 3541 
Q 3450 3153 3228 2886 
Q 3006 2619 2597 2516 
z
" transform="scale(0.015625)"/>
       </defs>
       <use xlink:href="#DejaVuSans-33"/>
       <use xlink:href="#DejaVuSans-30" x="63.623047"/>
       <use xlink:href="#DejaVuSans-30" x="127.246094"/>
      </g>
     </g>
    </g>
    <g id="ytick_5">
     <g id="line2d_14">
      <g>
       <use xlink:href="#md47bdbe6bf" x="57.6" y="90.968615" style="stroke: #000000; stroke-width: 0.8"/>
      </g>
     </g>
     <g id="text_15">
      <!-- 400 -->
      <g transform="translate(31.5125 94.767834)scale(0.1 -0.1)">
       <defs>
        <path id="DejaVuSans-34" d="M 2419 4116 
L 825 1625 
L 2419 1625 
L 2419 4116 
z
M 2253 4666 
L 3047 4666 
L 3047 1625 
L 3713 1625 
L 3713 1100 
L 3047 1100 
L 3047 0 
L 2419 0 
L 2419 1100 
L 313 1100 
L 313 1709 
L 2253 4666 
z
" transform="scale(0.015625)"/>
       </defs>
       <use xlink:href="#DejaVuSans-34"/>
       <use xlink:href="#DejaVuSans-30" x="63.623047"/>
       <use xlink:href="#DejaVuSans-30" x="127.246094"/>
      </g>
     </g>
    </g>
    <g id="text_16">
     <!-- Number of crosslinks -->
     <g transform="translate(25.432812 227.019406)rotate(-90)scale(0.1 -0.1)">
      <defs>
       <path id="DejaVuSans-4e" d="M 628 4666 
L 1478 4666 
L 3547 763 
L 3547 4666 
L 4159 4666 
L 4159 0 
L 3309 0 
L 1241 3903 
L 1241 0 
L 628 0 
L 628 4666 
z
" transform="scale(0.015625)"/>
       <path id="DejaVuSans-75" d="M 544 1381 
L 544 3500 
L 1119 3500 
L 1119 1403 
Q 1119 906 1312 657 
Q 1506 409 1894 409 
Q 2359 409 2629 706 
Q 2900 1003 2900 1516 
L 2900 3500 
L 3475 3500 
L 3475 0 
L 2900 0 
L 2900 538 
Q 2691 219 2414 64 
Q 2138 -91 1772 -91 
Q 1169 -91 856 284 
Q 544 659 544 1381 
z
M 1991 3584 
L 1991 3584 
z
" transform="scale(0.015625)"/>
       <path id="DejaVuSans-6d" d="M 3328 2828 
Q 3544 3216 3844 3400 
Q 4144 3584 4550 3584 
Q 5097 3584 5394 3201 
Q 5691 2819 5691 2113 
L 5691 0 
L 5113 0 
L 5113 2094 
Q 5113 2597 4934 2840 
Q 4756 3084 4391 3084 
Q 3944 3084 3684 2787 
Q 3425 2491 3425 1978 
L 3425 0 
L 2847 0 
L 2847 2094 
Q 2847 2600 2669 2842 
Q 2491 3084 2119 3084 
Q 1678 3084 1418 2786 
Q 1159 2488 1159 1978 
L 1159 0 
L 581 0 
L 581 3500 
L 1159 3500 
L 1159 2956 
Q 1356 3278 1631 3431 
Q 1906 3584 2284 3584 
Q 2666 3584 2933 3390 
Q 3200 3197 3328 2828 
z
" transform="scale(0.015625)"/>
       <path id="DejaVuSans-62" d="M 3116 1747 
Q 3116 2381 2855 2742 
Q 2594 3103 2138 3103 
Q 1681 3103 1420 2742 
Q 1159 2381 1159 1747 
Q 1159 1113 1420 752 
Q 1681 391 2138 391 
Q 2594 391 2855 752 
Q 3116 1113 3116 1747 
z
M 1159 2969 
Q 1341 3281 1617 3432 
Q 1894 3584 2278 3584 
Q 2916 3584 3314 3078 
Q 3713 2572 3713 1747 
Q 3713 922 3314 415 
Q 2916 -91 2278 -91 
Q 1894 -91 1617 61 
Q 1341 213 1159 525 
L 1159 0 
L 581 0 
L 581 4863 
L 1159 4863 
L 1159 2969 
z
" transform="scale(0.015625)"/>
       <path id="DejaVuSans-20" transform="scale(0.015625)"/>
       <path id="DejaVuSans-66" d="M 2375 4863 
L 2375 4384 
L 1825 4384 
Q 1516 4384 1395 4259 
Q 1275 4134 1275 3809 
L 1275 3500 
L 2222 3500 
L 2222 3053 
L 1275 3053 
L 1275 0 
L 697 0 
L 697 3053 
L 147 3053 
L 147 3500 
L 697 3500 
L 697 3744 
Q 697 4328 969 4595 
Q 1241 4863 1831 4863 
L 2375 4863 
z
" transform="scale(0.015625)"/>
       <path id="DejaVuSans-73" d="M 2834 3397 
L 2834 2853 
Q 2591 2978 2328 3040 
Q 2066 3103 1784 3103 
Q 1356 3103 1142 2972 
Q 928 2841 928 2578 
Q 928 2378 1081 2264 
Q 1234 2150 1697 2047 
L 1894 2003 
Q 2506 1872 2764 1633 
Q 3022 1394 3022 966 
Q 3022 478 2636 193 
Q 2250 -91 1575 -91 
Q 1294 -91 989 -36 
Q 684 19 347 128 
L 347 722 
Q 666 556 975 473 
Q 1284 391 1588 391 
Q 1994 391 2212 530 
Q 2431 669 2431 922 
Q 2431 1156 2273 1281 
Q 2116 1406 1581 1522 
L 1381 1569 
Q 847 1681 609 1914 
Q 372 2147 372 2553 
Q 372 3047 722 3315 
Q 1072 3584 1716 3584 
Q 2034 3584 2315 3537 
Q 2597 3491 2834 3397 
z
" transform="scale(0.015625)"/>
       <path id="DejaVuSans-6c" d="M 603 4863 
L 1178 4863 
L 1178 0 
L 603 0 
L 603 4863 
z
" transform="scale(0.015625)"/>
       <path id="DejaVuSans-69" d="M 603 3500 
L 1178 3500 
L 1178 0 
L 603 0 
L 603 3500 
z
M 603 4863 
L 1178 4863 
L 1178 4134 
L 603 4134 
L 603 4863 
z
" transform="scale(0.015625)"/>
       <path id="DejaVuSans-6e" d="M 3513 2113 
L 3513 0 
L 2938 0 
L 2938 2094 
Q 2938 2591 2744 2837 
Q 2550 3084 2163 3084 
Q 1697 3084 1428 2787 
Q 1159 2491 1159 1978 
L 1159 0 
L 581 0 
L 581 3500 
L 1159 3500 
L 1159 2956 
Q 1366 3272 1645 3428 
Q 1925 3584 2291 3584 
Q 2894 3584 3203 3211 
Q 3513 2838 3513 2113 
z
" transform="scale(0.015625)"/>
       <path id="DejaVuSans-6b" d="M 581 4863 
L 1159 4863 
L 1159 1991 
L 2875 3500 
L 3609 3500 
L 1753 1863 
L 3688 0 
L 2938 0 
L 1159 1709 
L 1159 0 
L 581 0 
L 581 4863 
z
" transform="scale(0.015625)"/>
      </defs>
      <use xlink:href="#DejaVuSans-4e"/>
      <use xlink:href="#DejaVuSans-75" x="74.804688"/>
      <use xlink:href="#DejaVuSans-6d" x="138.183594"/>
      <use xlink:href="#DejaVuSans-62" x="235.595703"/>
      <use xlink:href="#DejaVuSans-65" x="299.072266"/>
      <use xlink:href="#DejaVuSans-72" x="360.595703"/>
      <use xlink:href="#DejaVuSans-20" x="401.708984"/>
      <use xlink:href="#DejaVuSans-6f" x="433.496094"/>
      <use xlink:href="#DejaVuSans-66" x="494.677734"/>
      <use xlink:href="#DejaVuSans-20" x="529.882812"/>
      <use xlink:href="#DejaVuSans-63" x="561.669922"/>
      <use xlink:href="#DejaVuSans-72" x="616.650391"/>
      <use xlink:href="#DejaVuSans-6f" x="655.513672"/>
      <use xlink:href="#DejaVuSans-73" x="716.695312"/>
      <use xlink:href="#DejaVuSans-73" x="768.794922"/>
      <use xlink:href="#DejaVuSans-6c" x="820.894531"/>
      <use xlink:href="#DejaVuSans-69" x="848.677734"/>
      <use xlink:href="#DejaVuSans-6e" x="876.460938"/>
      <use xlink:href="#DejaVuSans-6b" x="939.839844"/>
      <use xlink:href="#DejaVuSans-73" x="997.75"/>
     </g>
    </g>
   </g>
   <g id="patch_3">
    <path d="M 57.6 307.584 
L 57.6 41.472 
" style="fill: none; stroke: #000000; stroke-width: 0.8; stroke-linejoin: miter; stroke-linecap: square"/>
   </g>
   <g id="patch_4">
    <path d="M 414.72 307.584 
L 414.72 41.472 
" style="fill: none; stroke: #000000; stroke-width: 0.8; stroke-linejoin: miter; stroke-linecap: square"/>
   </g>
   <g id="patch_5">
    <path d="M 57.6 307.584 
L 414.72 307.584 
" style="fill: none; stroke: #000000; stroke-width: 0.8; stroke-linejoin: miter; stroke-linecap: square"/>
   </g>
   <g id="patch_6">
    <path d="M 57.6 41.472 
L 414.72 41.472 
" style="fill: none; stroke: #000000; stroke-width: 0.8; stroke-linejoin: miter; stroke-linecap: square"/>
   </g>
   <g id="legend_1">
    <g id="patch_7">
     <path d="M 278.598125 93.506375 
L 407.72 93.506375 
Q 409.72 93.506375 409.72 91.506375 
L 409.72 48.472 
Q 409.72 46.472 407.72 46.472 
L 278.598125 46.472 
Q 276.598125 46.472 276.598125 48.472 
L 276.598125 91.506375 
Q 276.598125 93.506375 278.598125 93.506375 
z
" style="fill: #ffffff; opacity: 0.8; stroke: #cccccc; stroke-linejoin: miter"/>
    </g>
    <g id="patch_8">
     <path d="M 280.598125 58.070438 
L 300.598125 58.070438 
L 300.598125 51.070438 
L 280.598125 51.070438 
z
" style="fill: #008000"/>
    </g>
    <g id="text_17">
     <!-- correct -->
     <g transform="translate(308.598125 58.070438)scale(0.1 -0.1)">
      <defs>
       <path id="DejaVuSans-74" d="M 1172 4494 
L 1172 3500 
L 2356 3500 
L 2356 3053 
L 1172 3053 
L 1172 1153 
Q 1172 725 1289 603 
Q 1406 481 1766 481 
L 2356 481 
L 2356 0 
L 1766 0 
Q 1100 0 847 248 
Q 594 497 594 1153 
L 594 3053 
L 172 3053 
L 172 3500 
L 594 3500 
L 594 4494 
L 1172 4494 
z
" transform="scale(0.015625)"/>
      </defs>
      <use xlink:href="#DejaVuSans-63"/>
      <use xlink:href="#DejaVuSans-6f" x="54.980469"/>
      <use xlink:href="#DejaVuSans-72" x="116.162109"/>
      <use xlink:href="#DejaVuSans-72" x="155.525391"/>
      <use xlink:href="#DejaVuSans-65" x="194.388672"/>
      <use xlink:href="#DejaVuSans-63" x="255.912109"/>
      <use xlink:href="#DejaVuSans-74" x="310.892578"/>
     </g>
    </g>
    <g id="patch_9">
     <path d="M 280.598125 72.748563 
L 300.598125 72.748563 
L 300.598125 65.748563 
L 280.598125 65.748563 
z
" style="fill: #7cfc00"/>
    </g>
    <g id="text_18">
     <!-- correct homeotypic -->
     <g transform="translate(308.598125 72.748563)scale(0.1 -0.1)">
      <defs>
       <path id="DejaVuSans-68" d="M 3513 2113 
L 3513 0 
L 2938 0 
L 2938 2094 
Q 2938 2591 2744 2837 
Q 2550 3084 2163 3084 
Q 1697 3084 1428 2787 
Q 1159 2491 1159 1978 
L 1159 0 
L 581 0 
L 581 4863 
L 1159 4863 
L 1159 2956 
Q 1366 3272 1645 3428 
Q 1925 3584 2291 3584 
Q 2894 3584 3203 3211 
Q 3513 2838 3513 2113 
z
" transform="scale(0.015625)"/>
       <path id="DejaVuSans-79" d="M 2059 -325 
Q 1816 -950 1584 -1140 
Q 1353 -1331 966 -1331 
L 506 -1331 
L 506 -850 
L 844 -850 
Q 1081 -850 1212 -737 
Q 1344 -625 1503 -206 
L 1606 56 
L 191 3500 
L 800 3500 
L 1894 763 
L 2988 3500 
L 3597 3500 
L 2059 -325 
z
" transform="scale(0.015625)"/>
       <path id="DejaVuSans-70" d="M 1159 525 
L 1159 -1331 
L 581 -1331 
L 581 3500 
L 1159 3500 
L 1159 2969 
Q 1341 3281 1617 3432 
Q 1894 3584 2278 3584 
Q 2916 3584 3314 3078 
Q 3713 2572 3713 1747 
Q 3713 922 3314 415 
Q 2916 -91 2278 -91 
Q 1894 -91 1617 61 
Q 1341 213 1159 525 
z
M 3116 1747 
Q 3116 2381 2855 2742 
Q 2594 3103 2138 3103 
Q 1681 3103 1420 2742 
Q 1159 2381 1159 1747 
Q 1159 1113 1420 752 
Q 1681 391 2138 391 
Q 2594 391 2855 752 
Q 3116 1113 3116 1747 
z
" transform="scale(0.015625)"/>
      </defs>
      <use xlink:href="#DejaVuSans-63"/>
      <use xlink:href="#DejaVuSans-6f" x="54.980469"/>
      <use xlink:href="#DejaVuSans-72" x="116.162109"/>
      <use xlink:href="#DejaVuSans-72" x="155.525391"/>
      <use xlink:href="#DejaVuSans-65" x="194.388672"/>
      <use xlink:href="#DejaVuSans-63" x="255.912109"/>
      <use xlink:href="#DejaVuSans-74" x="310.892578"/>
      <use xlink:href="#DejaVuSans-20" x="350.101562"/>
      <use xlink:href="#DejaVuSans-68" x="381.888672"/>
      <use xlink:href="#DejaVuSans-6f" x="445.267578"/>
      <use xlink:href="#DejaVuSans-6d" x="506.449219"/>
      <use xlink:href="#DejaVuSans-65" x="603.861328"/>
      <use xlink:href="#DejaVuSans-6f" x="665.384766"/>
      <use xlink:href="#DejaVuSans-74" x="726.566406"/>
      <use xlink:href="#DejaVuSans-79" x="765.775391"/>
      <use xlink:href="#DejaVuSans-70" x="824.955078"/>
      <use xlink:href="#DejaVuSans-69" x="888.431641"/>
      <use xlink:href="#DejaVuSans-63" x="916.214844"/>
     </g>
    </g>
    <g id="patch_10">
     <path d="M 280.598125 87.426688 
L 300.598125 87.426688 
L 300.598125 80.426688 
L 280.598125 80.426688 
z
" style="fill: #ff0000"/>
    </g>
    <g id="text_19">
     <!-- false -->
     <g transform="translate(308.598125 87.426688)scale(0.1 -0.1)">
      <defs>
       <path id="DejaVuSans-61" d="M 2194 1759 
Q 1497 1759 1228 1600 
Q 959 1441 959 1056 
Q 959 750 1161 570 
Q 1363 391 1709 391 
Q 2188 391 2477 730 
Q 2766 1069 2766 1631 
L 2766 1759 
L 2194 1759 
z
M 3341 1997 
L 3341 0 
L 2766 0 
L 2766 531 
Q 2569 213 2275 61 
Q 1981 -91 1556 -91 
Q 1019 -91 701 211 
Q 384 513 384 1019 
Q 384 1609 779 1909 
Q 1175 2209 1959 2209 
L 2766 2209 
L 2766 2266 
Q 2766 2663 2505 2880 
Q 2244 3097 1772 3097 
Q 1472 3097 1187 3025 
Q 903 2953 641 2809 
L 641 3341 
Q 956 3463 1253 3523 
Q 1550 3584 1831 3584 
Q 2591 3584 2966 3190 
Q 3341 2797 3341 1997 
z
" transform="scale(0.015625)"/>
      </defs>
      <use xlink:href="#DejaVuSans-66"/>
      <use xlink:href="#DejaVuSans-61" x="35.205078"/>
      <use xlink:href="#DejaVuSans-6c" x="96.484375"/>
      <use xlink:href="#DejaVuSans-73" x="124.267578"/>
      <use xlink:href="#DejaVuSans-65" x="176.367188"/>
     </g>
    </g>
   </g>
  </g>
 </g>
 <defs>
  <clipPath id="p9d431a232c">
   <rect x="57.6" y="41.472" width="357.12" height="266.112"/>
  </clipPath>
 </defs>
</svg>
