<?xml version="1.0" encoding="utf-8" standalone="no"?>
<!DOCTYPE svg PUBLIC "-//W3C//DTD SVG 1.1//EN"
  "http://www.w3.org/Graphics/SVG/1.1/DTD/svg11.dtd">
<svg xmlns:xlink="http://www.w3.org/1999/xlink" width="460.8pt" height="345.6pt" viewBox="0 0 460.8 345.6" xmlns="http://www.w3.org/2000/svg" version="1.1">
 <metadata>
  <rdf:RDF xmlns:dc="http://purl.org/dc/elements/1.1/" xmlns:cc="http://creativecommons.org/ns#" xmlns:rdf="http://www.w3.org/1999/02/22-rdf-syntax-ns#">
   <cc:Work>
    <dc:type rdf:resource="http://purl.org/dc/dcmitype/StillImage"/>
    <dc:date>2022-08-11T12:18:49.472618</dc:date>
    <dc:format>image/svg+xml</dc:format>
    <dc:creator>
     <cc:Agent>
      <dc:title>Matplotlib v3.5.1, https://matplotlib.org/</dc:title>
     </cc:Agent>
    </dc:creator>
   </cc:Work>
  </rdf:RDF>
 </metadata>
 <defs>
  <style type="text/css">*{stroke-linejoin: round; stroke-linecap: butt}</style>
 </defs>
 <g id="figure_1">
  <g id="patch_1">
   <path d="M 0 345.6 
L 460.8 345.6 
L 460.8 0 
L 0 0 
z
" style="fill: #ffffff"/>
  </g>
  <g id="axes_1">
   <g id="patch_2">
    <path d="M 57.6 307.584 
L 414.72 307.584 
L 414.72 41.472 
L 57.6 41.472 
z
" style="fill: #ffffff"/>
   </g>
   <g id="PolyCollection_1">
    <path d="M 73.832727 72.83082 
L 73.832727 307.584 
L 75.430166 307.584 
L 76.066646 307.584 
L 78.600085 307.584 
L 78.637525 307.584 
L 78.762325 307.584 
L 78.986965 307.584 
L 79.660884 307.584 
L 84.478162 307.584 
L 88.384399 307.584 
L 88.396879 307.584 
L 94.175116 307.584 
L 96.271755 307.584 
L 96.296715 307.584 
L 96.334155 307.584 
L 97.070475 307.584 
L 98.181194 307.584 
L 99.067274 307.584 
L 99.379274 307.584 
L 100.602313 307.584 
L 100.677193 307.584 
L 101.713032 307.584 
L 106.13095 307.584 
L 106.68007 307.584 
L 110.860867 307.584 
L 112.183747 307.584 
L 112.520706 307.584 
L 112.570626 307.584 
L 113.743746 307.584 
L 114.242946 307.584 
L 115.715585 307.584 
L 117.787264 307.584 
L 119.521983 307.584 
L 119.921342 307.584 
L 120.195902 307.584 
L 120.994622 307.584 
L 122.429821 307.584 
L 122.442301 307.584 
L 122.654461 307.584 
L 123.066301 307.584 
L 130.379577 307.584 
L 130.541817 307.584 
L 130.716537 307.584 
L 131.452856 307.584 
L 132.151736 307.584 
L 132.563576 307.584 
L 132.713336 307.584 
L 132.775736 307.584 
L 133.424695 307.584 
L 133.636855 307.584 
L 133.711735 307.584 
L 134.210935 307.584 
L 135.284214 307.584 
L 135.633654 307.584 
L 135.721014 307.584 
L 135.845814 307.584 
L 135.908214 307.584 
L 135.995574 307.584 
L 136.257654 307.584 
L 136.507254 307.584 
L 137.093813 307.584 
L 137.430773 307.584 
L 137.979893 307.584 
L 138.092213 307.584 
L 138.316853 307.584 
L 138.778612 307.584 
L 138.853492 307.584 
L 139.477492 307.584 
L 139.826932 307.584 
L 140.288692 307.584 
L 140.875251 307.584 
L 141.299571 307.584 
L 141.549171 307.584 
L 143.77061 307.584 
L 144.918769 307.584 
L 144.956209 307.584 
L 146.491248 307.584 
L 146.616048 307.584 
L 146.865648 307.584 
L 148.912367 307.584 
L 148.949807 307.584 
L 149.785966 307.584 
L 150.260206 307.584 
L 150.459886 307.584 
L 151.208686 307.584 
L 151.832685 307.584 
L 153.130605 307.584 
L 153.804524 307.584 
L 153.841964 307.584 
L 154.016684 307.584 
L 155.027564 307.584 
L 156.275563 307.584 
L 156.350443 307.584 
L 156.974443 307.584 
L 158.097642 307.584 
L 159.495401 307.584 
L 159.570281 307.584 
L 160.631081 307.584 
L 160.755881 307.584 
L 161.01796 307.584 
L 161.28004 307.584 
L 162.60292 307.584 
L 163.189479 307.584 
L 163.651239 307.584 
L 163.813479 307.584 
L 164.736998 307.584 
L 164.811878 307.584 
L 164.836838 307.584 
L 165.535718 307.584 
L 168.256357 307.584 
L 169.429476 307.584 
L 169.454436 307.584 
L 169.654116 307.584 
L 169.778916 307.584 
L 170.090916 307.584 
L 172.162594 307.584 
L 172.462114 307.584 
L 172.599394 307.584 
L 172.873954 307.584 
L 173.173474 307.584 
L 173.285794 307.584 
L 173.635234 307.584 
L 174.895713 307.584 
L 174.933153 307.584 
L 174.983073 307.584 
L 175.681953 307.584 
L 176.630432 307.584 
L 176.642912 307.584 
L 177.229472 307.584 
L 177.304352 307.584 
L 177.840991 307.584 
L 177.853471 307.584 
L 178.128031 307.584 
L 178.302751 307.584 
L 178.477471 307.584 
L 179.176351 307.584 
L 180.24963 307.584 
L 181.19811 307.584 
L 181.659869 307.584 
L 181.946909 307.584 
L 182.071709 307.584 
L 182.084189 307.584 
L 182.496029 307.584 
L 182.808029 307.584 
L 183.868828 307.584 
L 183.981148 307.584 
L 184.043548 307.584 
L 184.879708 307.584 
L 185.578587 307.584 
L 185.815707 307.584 
L 185.828187 307.584 
L 185.853147 307.584 
L 186.626907 307.584 
L 186.751707 307.584 
L 187.188506 307.584 
L 187.512986 307.584 
L 187.525466 307.584 
L 188.012186 307.584 
L 188.037146 307.584 
L 188.736025 307.584 
L 189.035545 307.584 
L 189.659545 307.584 
L 190.333465 307.584 
L 190.670424 307.584 
L 190.757784 307.584 
L 190.845144 307.584 
L 190.982424 307.584 
L 191.144664 307.584 
L 191.369304 307.584 
L 192.018264 307.584 
L 192.043224 307.584 
L 192.230424 307.584 
L 192.255384 307.584 
L 192.829463 307.584 
L 194.114903 307.584 
L 194.401942 307.584 
L 194.576662 307.584 
L 195.000982 307.584 
L 195.150742 307.584 
L 196.373781 307.584 
L 196.423701 307.584 
L 196.810581 307.584 
L 197.184981 307.584 
L 197.297301 307.584 
L 197.397141 307.584 
L 197.459541 307.584 
L 197.534421 307.584 
L 198.50786 307.584 
L 199.2941 307.584 
L 199.943059 307.584 
L 200.404819 307.584 
L 200.804179 307.584 
L 201.191059 307.584 
L 201.590419 307.584 
L 201.777618 307.584 
L 202.439058 307.584 
L 202.663698 307.584 
L 202.838418 307.584 
L 203.137938 307.584 
L 203.499858 307.584 
L 204.123857 307.584 
L 204.822737 307.584 
L 205.995856 307.584 
L 206.045776 307.584 
L 206.220496 307.584 
L 206.420176 307.584 
L 206.445136 307.584 
L 206.956816 307.584 
L 207.069136 307.584 
L 207.480975 307.584 
L 207.768015 307.584 
L 208.991055 307.584 
L 209.190734 307.584 
L 209.415374 307.584 
L 209.502734 307.584 
L 211.012814 307.584 
L 211.162573 307.584 
L 211.224973 307.584 
L 211.487053 307.584 
L 211.499533 307.584 
L 211.599373 307.584 
L 214.369932 307.584 
L 214.744332 307.584 
L 214.844171 307.584 
L 215.106251 307.584 
L 215.143691 307.584 
L 215.867531 307.584 
L 216.129611 307.584 
L 216.341771 307.584 
L 217.04065 307.584 
L 217.11553 307.584 
L 217.22785 307.584 
L 217.35265 307.584 
L 217.75201 307.584 
L 217.85185 307.584 
L 218.07649 307.584 
L 218.31361 307.584 
L 218.550729 307.584 
L 218.975049 307.584 
L 219.162249 307.584 
L 219.299529 307.584 
L 219.511689 307.584 
L 221.208968 307.584 
L 221.308808 307.584 
L 221.683208 307.584 
L 221.770568 307.584 
L 222.793927 307.584 
L 223.355527 307.584 
L 223.455367 307.584 
L 223.517767 307.584 
L 223.717447 307.584 
L 224.004487 307.584 
L 224.029447 307.584 
L 224.353926 307.584 
L 224.428806 307.584 
L 224.790726 307.584 
L 225.215046 307.584 
L 225.252486 307.584 
L 225.514566 307.584 
L 225.888966 307.584 
L 226.488005 307.584 
L 226.525445 307.584 
L 226.600325 307.584 
L 226.612805 307.584 
L 226.637765 307.584 
L 226.650245 307.584 
L 226.750085 307.584 
L 228.247684 307.584 
L 229.021444 307.584 
L 229.221124 307.584 
L 229.570564 307.584 
L 229.982403 307.584 
L 230.044803 307.584 
L 230.232003 307.584 
L 230.568963 307.584 
L 230.731203 307.584 
L 230.856003 307.584 
L 230.918403 307.584 
L 231.629762 307.584 
L 231.642242 307.584 
L 231.742082 307.584 
L 231.841922 307.584 
L 231.954242 307.584 
L 232.291202 307.584 
L 232.752962 307.584 
L 232.790402 307.584 
L 235.036801 307.584 
L 235.24896 307.584 
L 235.44864 307.584 
L 236.01024 307.584 
L 236.12256 307.584 
L 236.29728 307.584 
L 236.69664 307.584 
L 236.79648 307.584 
L 237.994559 307.584 
L 238.069439 307.584 
L 238.094399 307.584 
L 238.244159 307.584 
L 238.680959 307.584 
L 239.142718 307.584 
L 239.230078 307.584 
L 239.255038 307.584 
L 240.053758 307.584 
L 241.139517 307.584 
L 242.250237 307.584 
L 242.449917 307.584 
L 242.499837 307.584 
L 242.512317 307.584 
L 243.111356 307.584 
L 243.423356 307.584 
L 243.610556 307.584 
L 245.370235 307.584 
L 245.532475 307.584 
L 246.493434 307.584 
L 246.668154 307.584 
L 246.755514 307.584 
L 246.842874 307.584 
L 246.917754 307.584 
L 248.315513 307.584 
L 249.912953 307.584 
L 250.649272 307.584 
L 250.873912 307.584 
L 251.048632 307.584 
L 251.360632 307.584 
L 251.560312 307.584 
L 252.171831 307.584 
L 252.870711 307.584 
L 253.270071 307.584 
L 253.706871 307.584 
L 255.06719 307.584 
L 255.47903 307.584 
L 256.078069 307.584 
L 256.789429 307.584 
L 257.263669 307.584 
L 257.463349 307.584 
L 258.374388 307.584 
L 258.511668 307.584 
L 258.948468 307.584 
L 260.171507 307.584 
L 260.233907 307.584 
L 261.569266 307.584 
L 262.480306 307.584 
L 263.016946 307.584 
L 263.815665 307.584 
L 264.576945 307.584 
L 265.313264 307.584 
L 265.463024 307.584 
L 265.662704 307.584 
L 266.586224 307.584 
L 266.661104 307.584 
L 267.522223 307.584 
L 267.634543 307.584 
L 268.058863 307.584 
L 269.231982 307.584 
L 269.681262 307.584 
L 272.239661 307.584 
L 272.43934 307.584 
L 272.51422 307.584 
L 273.10078 307.584 
L 274.985259 307.584 
L 275.259819 307.584 
L 276.220778 307.584 
L 276.732458 307.584 
L 277.481258 307.584 
L 278.716777 307.584 
L 282.373415 307.584 
L 282.535655 307.584 
L 282.647975 307.584 
L 282.672935 307.584 
L 283.783654 307.584 
L 285.955173 307.584 
L 286.616613 307.584 
L 286.791333 307.584 
L 287.440292 307.584 
L 287.951972 307.584 
L 288.189092 307.584 
L 289.212451 307.584 
L 289.249891 307.584 
L 290.984611 307.584 
L 292.28253 307.584 
L 294.079649 307.584 
L 294.653729 307.584 
L 294.728609 307.584 
L 294.965728 307.584 
L 295.527328 307.584 
L 296.650527 307.584 
L 298.272927 307.584 
L 298.397727 307.584 
L 299.096606 307.584 
L 306.946522 307.584 
L 309.217881 307.584 
L 309.267801 307.584 
L 309.579801 307.584 
L 311.776279 307.584 
L 313.111639 307.584 
L 314.796438 307.584 
L 319.888275 307.584 
L 328.100111 307.584 
L 346.121221 307.584 
L 368.422969 307.584 
L 372.454007 307.584 
L 398.487273 307.584 
L 398.487273 307.000037 
L 398.487273 307.000037 
L 372.454007 306.416074 
L 368.422969 305.832111 
L 346.121221 305.248147 
L 328.100111 304.664184 
L 319.888275 304.080221 
L 314.796438 303.496258 
L 313.111639 302.912295 
L 311.776279 302.328332 
L 309.579801 301.744369 
L 309.267801 301.160406 
L 309.217881 300.576442 
L 306.946522 299.992479 
L 299.096606 299.408516 
L 298.397727 298.824553 
L 298.272927 298.24059 
L 296.650527 297.656627 
L 295.527328 297.072664 
L 294.965728 296.4887 
L 294.728609 295.904737 
L 294.653729 295.320774 
L 294.079649 294.736811 
L 292.28253 294.152848 
L 290.984611 293.568885 
L 289.249891 292.984922 
L 289.212451 292.400959 
L 288.189092 291.816995 
L 287.951972 290.649069 
L 287.440292 290.065106 
L 286.791333 289.481143 
L 286.616613 288.89718 
L 285.955173 288.313217 
L 283.783654 287.729253 
L 282.672935 287.14529 
L 282.647975 286.561327 
L 282.535655 285.977364 
L 282.373415 284.225475 
L 278.716777 283.641512 
L 277.481258 283.057548 
L 276.732458 282.473585 
L 276.220778 281.889622 
L 275.259819 281.305659 
L 274.985259 280.721696 
L 273.10078 280.137733 
L 272.51422 279.55377 
L 272.43934 278.969806 
L 272.239661 278.385843 
L 269.681262 277.80188 
L 269.231982 277.80188 
L 268.058863 277.217917 
L 267.634543 276.633954 
L 267.522223 276.049991 
L 266.661104 275.466028 
L 266.586224 274.882065 
L 265.662704 274.298101 
L 265.463024 273.714138 
L 265.313264 273.130175 
L 264.576945 272.546212 
L 263.815665 271.962249 
L 263.016946 271.378286 
L 262.480306 270.794323 
L 261.569266 270.210359 
L 260.233907 269.626396 
L 260.171507 269.042433 
L 258.948468 268.45847 
L 258.511668 267.874507 
L 258.374388 267.290544 
L 257.463349 266.706581 
L 257.263669 266.122618 
L 256.789429 265.538654 
L 256.078069 264.954691 
L 255.47903 264.370728 
L 255.06719 263.786765 
L 253.706871 263.202802 
L 253.270071 262.618839 
L 252.870711 262.034876 
L 252.171831 261.450912 
L 251.560312 260.866949 
L 251.360632 260.282986 
L 251.048632 259.699023 
L 250.873912 259.11506 
L 250.649272 258.531097 
L 249.912953 257.947134 
L 248.315513 257.363171 
L 246.917754 256.779207 
L 246.842874 256.195244 
L 246.755514 255.611281 
L 246.668154 255.027318 
L 246.493434 254.443355 
L 245.532475 253.859392 
L 245.370235 253.275429 
L 243.610556 252.691465 
L 243.423356 252.107502 
L 243.111356 251.523539 
L 242.512317 250.939576 
L 242.499837 250.355613 
L 242.449917 249.77165 
L 242.250237 249.187687 
L 241.139517 248.01976 
L 240.053758 247.435797 
L 239.255038 246.851834 
L 239.230078 246.267871 
L 239.142718 245.683908 
L 238.680959 245.099945 
L 238.244159 244.515982 
L 238.094399 243.932018 
L 238.069439 243.348055 
L 237.994559 242.764092 
L 236.79648 242.180129 
L 236.69664 241.596166 
L 236.29728 241.012203 
L 236.12256 240.42824 
L 236.01024 239.844276 
L 235.44864 239.260313 
L 235.24896 238.67635 
L 235.036801 238.092387 
L 232.790402 237.508424 
L 232.752962 236.924461 
L 232.291202 236.340498 
L 231.954242 235.756535 
L 231.841922 235.172571 
L 231.742082 234.588608 
L 231.642242 234.004645 
L 231.629762 233.420682 
L 230.918403 232.836719 
L 230.856003 232.252756 
L 230.731203 231.668793 
L 230.568963 231.084829 
L 230.232003 230.500866 
L 230.044803 229.33294 
L 229.982403 228.748977 
L 229.570564 228.165014 
L 229.221124 227.581051 
L 229.021444 226.997088 
L 228.247684 226.413124 
L 226.750085 225.829161 
L 226.650245 225.245198 
L 226.637765 224.661235 
L 226.612805 224.077272 
L 226.600325 223.493309 
L 226.525445 222.909346 
L 226.488005 222.325382 
L 225.888966 221.741419 
L 225.514566 221.157456 
L 225.252486 220.573493 
L 225.215046 219.405567 
L 224.790726 218.821604 
L 224.428806 218.237641 
L 224.353926 217.653677 
L 224.029447 217.069714 
L 224.004487 216.485751 
L 223.717447 215.901788 
L 223.517767 215.317825 
L 223.455367 214.733862 
L 223.355527 214.149899 
L 222.793927 213.565935 
L 221.770568 212.981972 
L 221.683208 212.398009 
L 221.308808 211.814046 
L 221.208968 211.230083 
L 219.511689 210.64612 
L 219.299529 210.062157 
L 219.162249 209.478194 
L 218.975049 208.89423 
L 218.550729 208.310267 
L 218.31361 207.142341 
L 218.07649 206.558378 
L 217.85185 205.974415 
L 217.75201 205.390452 
L 217.35265 204.806488 
L 217.22785 203.638562 
L 217.11553 203.054599 
L 217.04065 202.470636 
L 216.341771 201.886673 
L 216.129611 201.30271 
L 215.867531 200.718747 
L 215.143691 200.134783 
L 215.106251 198.966857 
L 214.844171 198.382894 
L 214.744332 197.798931 
L 214.369932 197.214968 
L 211.599373 196.631005 
L 211.499533 196.047041 
L 211.487053 195.463078 
L 211.224973 194.295152 
L 211.162573 193.711189 
L 211.012814 193.127226 
L 209.502734 192.543263 
L 209.415374 191.9593 
L 209.190734 191.375336 
L 208.991055 190.791373 
L 207.768015 189.623447 
L 207.480975 189.039484 
L 207.069136 188.455521 
L 206.956816 187.871558 
L 206.445136 187.287594 
L 206.420176 186.703631 
L 206.220496 186.119668 
L 206.045776 185.535705 
L 205.995856 184.951742 
L 204.822737 184.367779 
L 204.123857 183.783816 
L 203.499858 183.199853 
L 203.137938 181.447963 
L 202.838418 180.280037 
L 202.663698 179.696074 
L 202.439058 179.112111 
L 201.777618 179.112111 
L 201.590419 177.944184 
L 201.191059 177.360221 
L 200.804179 176.776258 
L 200.404819 176.192295 
L 199.943059 175.608332 
L 199.2941 174.440406 
L 198.50786 173.856442 
L 197.534421 173.272479 
L 197.459541 172.688516 
L 197.397141 172.104553 
L 197.297301 171.52059 
L 197.184981 170.352664 
L 196.810581 169.7687 
L 196.423701 169.184737 
L 196.373781 168.600774 
L 195.150742 168.016811 
L 195.000982 167.432848 
L 194.576662 167.432848 
L 194.401942 166.848885 
L 194.114903 166.264922 
L 192.829463 165.680959 
L 192.255384 165.096995 
L 192.230424 164.513032 
L 192.043224 163.929069 
L 192.018264 163.345106 
L 191.369304 162.761143 
L 191.144664 162.17718 
L 190.982424 161.593217 
L 190.845144 161.009253 
L 190.757784 160.42529 
L 190.670424 160.42529 
L 190.333465 159.841327 
L 189.659545 159.257364 
L 189.035545 158.089438 
L 188.736025 157.505475 
L 188.037146 156.921512 
L 188.012186 156.337548 
L 187.525466 155.753585 
L 187.512986 155.169622 
L 187.188506 154.585659 
L 186.751707 154.001696 
L 186.626907 153.417733 
L 185.853147 152.83377 
L 185.828187 152.249806 
L 185.815707 151.665843 
L 185.578587 151.08188 
L 184.879708 149.913954 
L 184.043548 149.329991 
L 183.981148 148.746028 
L 183.868828 148.162065 
L 182.808029 146.994138 
L 182.496029 146.410175 
L 182.084189 145.826212 
L 182.071709 145.242249 
L 181.946909 144.658286 
L 181.659869 144.074323 
L 181.19811 143.490359 
L 180.24963 142.906396 
L 179.176351 142.322433 
L 178.477471 141.73847 
L 178.302751 141.154507 
L 178.128031 139.986581 
L 177.853471 139.402618 
L 177.840991 138.818654 
L 177.304352 138.234691 
L 177.229472 137.650728 
L 176.642912 137.650728 
L 176.630432 137.066765 
L 175.681953 136.482802 
L 174.983073 135.314876 
L 174.933153 134.730912 
L 174.895713 134.146949 
L 173.635234 133.562986 
L 173.285794 133.562986 
L 173.173474 132.979023 
L 172.873954 132.39506 
L 172.599394 131.811097 
L 172.462114 131.227134 
L 172.162594 130.643171 
L 170.090916 130.059207 
L 169.778916 129.475244 
L 169.654116 128.891281 
L 169.454436 128.307318 
L 169.429476 127.723355 
L 168.256357 127.139392 
L 165.535718 126.555429 
L 164.836838 125.971465 
L 164.811878 125.387502 
L 164.736998 124.803539 
L 163.813479 124.219576 
L 163.651239 123.05165 
L 163.189479 121.883724 
L 162.60292 121.29976 
L 161.28004 120.131834 
L 161.01796 119.547871 
L 160.755881 118.963908 
L 160.631081 118.963908 
L 159.570281 118.379945 
L 159.495401 117.795982 
L 158.097642 117.212018 
L 156.974443 116.628055 
L 156.350443 116.044092 
L 156.275563 115.460129 
L 155.027564 114.876166 
L 154.016684 113.70824 
L 153.841964 113.124276 
L 153.804524 112.540313 
L 153.130605 111.95635 
L 151.832685 111.372387 
L 151.208686 110.788424 
L 150.459886 110.788424 
L 150.260206 110.204461 
L 149.785966 109.620498 
L 148.949807 109.036535 
L 148.912367 108.452571 
L 146.865648 107.868608 
L 146.616048 107.284645 
L 146.491248 106.700682 
L 144.956209 106.700682 
L 144.918769 106.116719 
L 143.77061 105.532756 
L 141.549171 105.532756 
L 141.299571 104.948793 
L 140.875251 104.364829 
L 140.288692 103.196903 
L 139.826932 102.61294 
L 139.477492 102.028977 
L 138.853492 101.445014 
L 138.778612 100.861051 
L 138.316853 100.277088 
L 138.092213 100.277088 
L 137.979893 99.693124 
L 137.430773 99.109161 
L 137.093813 98.525198 
L 136.507254 97.941235 
L 136.257654 97.357272 
L 135.995574 96.773309 
L 135.908214 96.773309 
L 135.845814 96.189346 
L 135.721014 95.605382 
L 135.633654 95.021419 
L 135.284214 94.437456 
L 134.210935 93.853493 
L 133.711735 93.26953 
L 133.636855 92.685567 
L 133.424695 92.101604 
L 132.775736 92.101604 
L 132.713336 91.517641 
L 132.563576 90.933677 
L 132.151736 90.349714 
L 131.452856 89.765751 
L 130.716537 89.181788 
L 130.541817 88.597825 
L 130.379577 88.013862 
L 123.066301 87.429899 
L 122.654461 87.429899 
L 122.442301 86.845935 
L 122.429821 86.261972 
L 120.994622 86.261972 
L 120.195902 85.678009 
L 119.921342 85.094046 
L 119.521983 84.510083 
L 117.787264 84.510083 
L 115.715585 83.92612 
L 114.242946 83.342157 
L 113.743746 82.758194 
L 112.570626 82.17423 
L 112.520706 81.590267 
L 112.183747 81.006304 
L 110.860867 81.006304 
L 106.68007 80.422341 
L 106.13095 79.838378 
L 101.713032 79.838378 
L 100.677193 79.254415 
L 100.602313 78.670452 
L 99.379274 78.086488 
L 99.067274 77.502525 
L 98.181194 77.502525 
L 97.070475 76.918562 
L 96.334155 75.750636 
L 96.296715 75.750636 
L 96.271755 75.166673 
L 94.175116 74.58271 
L 88.396879 74.58271 
L 88.384399 73.998747 
L 84.478162 73.414783 
L 79.660884 73.414783 
L 78.986965 73.414783 
L 78.762325 73.414783 
L 78.637525 73.414783 
L 78.600085 73.414783 
L 76.066646 72.83082 
L 75.430166 72.83082 
L 73.832727 72.83082 
z
" clip-path="url(#pfbcf05fd41)" style="fill: #008000"/>
   </g>
   <g id="PolyCollection_2">
    <path d="M 73.832727 72.83082 
L 73.832727 72.83082 
L 75.430166 72.83082 
L 76.066646 72.83082 
L 78.600085 73.414783 
L 78.637525 73.414783 
L 78.762325 73.414783 
L 78.986965 73.414783 
L 79.660884 73.414783 
L 84.478162 73.414783 
L 88.384399 73.998747 
L 88.396879 74.58271 
L 94.175116 74.58271 
L 96.271755 75.166673 
L 96.296715 75.750636 
L 96.334155 75.750636 
L 97.070475 76.918562 
L 98.181194 77.502525 
L 99.067274 77.502525 
L 99.379274 78.086488 
L 100.602313 78.670452 
L 100.677193 79.254415 
L 101.713032 79.838378 
L 106.13095 79.838378 
L 106.68007 80.422341 
L 110.860867 81.006304 
L 112.183747 81.006304 
L 112.520706 81.590267 
L 112.570626 82.17423 
L 113.743746 82.758194 
L 114.242946 83.342157 
L 115.715585 83.92612 
L 117.787264 84.510083 
L 119.521983 84.510083 
L 119.921342 85.094046 
L 120.195902 85.678009 
L 120.994622 86.261972 
L 122.429821 86.261972 
L 122.442301 86.845935 
L 122.654461 87.429899 
L 123.066301 87.429899 
L 130.379577 88.013862 
L 130.541817 88.597825 
L 130.716537 89.181788 
L 131.452856 89.765751 
L 132.151736 90.349714 
L 132.563576 90.933677 
L 132.713336 91.517641 
L 132.775736 92.101604 
L 133.424695 92.101604 
L 133.636855 92.685567 
L 133.711735 93.26953 
L 134.210935 93.853493 
L 135.284214 94.437456 
L 135.633654 95.021419 
L 135.721014 95.605382 
L 135.845814 96.189346 
L 135.908214 96.773309 
L 135.995574 96.773309 
L 136.257654 97.357272 
L 136.507254 97.941235 
L 137.093813 98.525198 
L 137.430773 99.109161 
L 137.979893 99.693124 
L 138.092213 100.277088 
L 138.316853 100.277088 
L 138.778612 100.861051 
L 138.853492 101.445014 
L 139.477492 102.028977 
L 139.826932 102.61294 
L 140.288692 103.196903 
L 140.875251 104.364829 
L 141.299571 104.948793 
L 141.549171 105.532756 
L 143.77061 105.532756 
L 144.918769 106.116719 
L 144.956209 106.700682 
L 146.491248 106.700682 
L 146.616048 107.284645 
L 146.865648 107.868608 
L 148.912367 108.452571 
L 148.949807 109.036535 
L 149.785966 109.620498 
L 150.260206 110.204461 
L 150.459886 110.788424 
L 151.208686 110.788424 
L 151.832685 111.372387 
L 153.130605 111.95635 
L 153.804524 112.540313 
L 153.841964 113.124276 
L 154.016684 113.70824 
L 155.027564 114.876166 
L 156.275563 115.460129 
L 156.350443 116.044092 
L 156.974443 116.628055 
L 158.097642 117.212018 
L 159.495401 117.795982 
L 159.570281 118.379945 
L 160.631081 118.963908 
L 160.755881 118.963908 
L 161.01796 119.547871 
L 161.28004 120.131834 
L 162.60292 121.29976 
L 163.189479 121.883724 
L 163.651239 123.05165 
L 163.813479 124.219576 
L 164.736998 124.803539 
L 164.811878 125.387502 
L 164.836838 125.971465 
L 165.535718 126.555429 
L 168.256357 127.139392 
L 169.429476 127.723355 
L 169.454436 128.307318 
L 169.654116 128.891281 
L 169.778916 129.475244 
L 170.090916 130.059207 
L 172.162594 130.643171 
L 172.462114 131.227134 
L 172.599394 131.811097 
L 172.873954 132.39506 
L 173.173474 132.979023 
L 173.285794 133.562986 
L 173.635234 133.562986 
L 174.895713 134.146949 
L 174.933153 134.730912 
L 174.983073 135.314876 
L 175.681953 136.482802 
L 176.630432 137.066765 
L 176.642912 137.650728 
L 177.229472 137.650728 
L 177.304352 138.234691 
L 177.840991 138.818654 
L 177.853471 139.402618 
L 178.128031 139.986581 
L 178.302751 141.154507 
L 178.477471 141.73847 
L 179.176351 142.322433 
L 180.24963 142.906396 
L 181.19811 143.490359 
L 181.659869 144.074323 
L 181.946909 144.658286 
L 182.071709 145.242249 
L 182.084189 145.826212 
L 182.496029 146.410175 
L 182.808029 146.994138 
L 183.868828 148.162065 
L 183.981148 148.746028 
L 184.043548 149.329991 
L 184.879708 149.913954 
L 185.578587 151.08188 
L 185.815707 151.665843 
L 185.828187 152.249806 
L 185.853147 152.83377 
L 186.626907 153.417733 
L 186.751707 154.001696 
L 187.188506 154.585659 
L 187.512986 155.169622 
L 187.525466 155.753585 
L 188.012186 156.337548 
L 188.037146 156.921512 
L 188.736025 157.505475 
L 189.035545 158.089438 
L 189.659545 159.257364 
L 190.333465 159.841327 
L 190.670424 160.42529 
L 190.757784 160.42529 
L 190.845144 161.009253 
L 190.982424 161.593217 
L 191.144664 162.17718 
L 191.369304 162.761143 
L 192.018264 163.345106 
L 192.043224 163.929069 
L 192.230424 164.513032 
L 192.255384 165.096995 
L 192.829463 165.680959 
L 194.114903 166.264922 
L 194.401942 166.848885 
L 194.576662 167.432848 
L 195.000982 167.432848 
L 195.150742 168.016811 
L 196.373781 168.600774 
L 196.423701 169.184737 
L 196.810581 169.7687 
L 197.184981 170.352664 
L 197.297301 171.52059 
L 197.397141 172.104553 
L 197.459541 172.688516 
L 197.534421 173.272479 
L 198.50786 173.856442 
L 199.2941 174.440406 
L 199.943059 175.608332 
L 200.404819 176.192295 
L 200.804179 176.776258 
L 201.191059 177.360221 
L 201.590419 177.944184 
L 201.777618 179.112111 
L 202.439058 179.112111 
L 202.663698 179.696074 
L 202.838418 180.280037 
L 203.137938 181.447963 
L 203.499858 183.199853 
L 204.123857 183.783816 
L 204.822737 184.367779 
L 205.995856 184.951742 
L 206.045776 185.535705 
L 206.220496 186.119668 
L 206.420176 186.703631 
L 206.445136 187.287594 
L 206.956816 187.871558 
L 207.069136 188.455521 
L 207.480975 189.039484 
L 207.768015 189.623447 
L 208.991055 190.791373 
L 209.190734 191.375336 
L 209.415374 191.9593 
L 209.502734 192.543263 
L 211.012814 193.127226 
L 211.162573 193.711189 
L 211.224973 194.295152 
L 211.487053 195.463078 
L 211.499533 196.047041 
L 211.599373 196.631005 
L 214.369932 197.214968 
L 214.744332 197.798931 
L 214.844171 198.382894 
L 215.106251 198.966857 
L 215.143691 200.134783 
L 215.867531 200.718747 
L 216.129611 201.30271 
L 216.341771 201.886673 
L 217.04065 202.470636 
L 217.11553 203.054599 
L 217.22785 203.638562 
L 217.35265 204.806488 
L 217.75201 205.390452 
L 217.85185 205.974415 
L 218.07649 206.558378 
L 218.31361 207.142341 
L 218.550729 208.310267 
L 218.975049 208.89423 
L 219.162249 209.478194 
L 219.299529 210.062157 
L 219.511689 210.64612 
L 221.208968 211.230083 
L 221.308808 211.814046 
L 221.683208 212.398009 
L 221.770568 212.981972 
L 222.793927 213.565935 
L 223.355527 214.149899 
L 223.455367 214.733862 
L 223.517767 215.317825 
L 223.717447 215.901788 
L 224.004487 216.485751 
L 224.029447 217.069714 
L 224.353926 217.653677 
L 224.428806 218.237641 
L 224.790726 218.821604 
L 225.215046 219.405567 
L 225.252486 220.573493 
L 225.514566 221.157456 
L 225.888966 221.741419 
L 226.488005 222.325382 
L 226.525445 222.909346 
L 226.600325 223.493309 
L 226.612805 224.077272 
L 226.637765 224.661235 
L 226.650245 225.245198 
L 226.750085 225.829161 
L 228.247684 226.413124 
L 229.021444 226.997088 
L 229.221124 227.581051 
L 229.570564 228.165014 
L 229.982403 228.748977 
L 230.044803 229.33294 
L 230.232003 230.500866 
L 230.568963 231.084829 
L 230.731203 231.668793 
L 230.856003 232.252756 
L 230.918403 232.836719 
L 231.629762 233.420682 
L 231.642242 234.004645 
L 231.742082 234.588608 
L 231.841922 235.172571 
L 231.954242 235.756535 
L 232.291202 236.340498 
L 232.752962 236.924461 
L 232.790402 237.508424 
L 235.036801 238.092387 
L 235.24896 238.67635 
L 235.44864 239.260313 
L 236.01024 239.844276 
L 236.12256 240.42824 
L 236.29728 241.012203 
L 236.69664 241.596166 
L 236.79648 242.180129 
L 237.994559 242.764092 
L 238.069439 243.348055 
L 238.094399 243.932018 
L 238.244159 244.515982 
L 238.680959 245.099945 
L 239.142718 245.683908 
L 239.230078 246.267871 
L 239.255038 246.851834 
L 240.053758 247.435797 
L 241.139517 248.01976 
L 242.250237 249.187687 
L 242.449917 249.77165 
L 242.499837 250.355613 
L 242.512317 250.939576 
L 243.111356 251.523539 
L 243.423356 252.107502 
L 243.610556 252.691465 
L 245.370235 253.275429 
L 245.532475 253.859392 
L 246.493434 254.443355 
L 246.668154 255.027318 
L 246.755514 255.611281 
L 246.842874 256.195244 
L 246.917754 256.779207 
L 248.315513 257.363171 
L 249.912953 257.947134 
L 250.649272 258.531097 
L 250.873912 259.11506 
L 251.048632 259.699023 
L 251.360632 260.282986 
L 251.560312 260.866949 
L 252.171831 261.450912 
L 252.870711 262.034876 
L 253.270071 262.618839 
L 253.706871 263.202802 
L 255.06719 263.786765 
L 255.47903 264.370728 
L 256.078069 264.954691 
L 256.789429 265.538654 
L 257.263669 266.122618 
L 257.463349 266.706581 
L 258.374388 267.290544 
L 258.511668 267.874507 
L 258.948468 268.45847 
L 260.171507 269.042433 
L 260.233907 269.626396 
L 261.569266 270.210359 
L 262.480306 270.794323 
L 263.016946 271.378286 
L 263.815665 271.962249 
L 264.576945 272.546212 
L 265.313264 273.130175 
L 265.463024 273.714138 
L 265.662704 274.298101 
L 266.586224 274.882065 
L 266.661104 275.466028 
L 267.522223 276.049991 
L 267.634543 276.633954 
L 268.058863 277.217917 
L 269.231982 277.80188 
L 269.681262 277.80188 
L 272.239661 278.385843 
L 272.43934 278.969806 
L 272.51422 279.55377 
L 273.10078 280.137733 
L 274.985259 280.721696 
L 275.259819 281.305659 
L 276.220778 281.889622 
L 276.732458 282.473585 
L 277.481258 283.057548 
L 278.716777 283.641512 
L 282.373415 284.225475 
L 282.535655 285.977364 
L 282.647975 286.561327 
L 282.672935 287.14529 
L 283.783654 287.729253 
L 285.955173 288.313217 
L 286.616613 288.89718 
L 286.791333 289.481143 
L 287.440292 290.065106 
L 287.951972 290.649069 
L 288.189092 291.816995 
L 289.212451 292.400959 
L 289.249891 292.984922 
L 290.984611 293.568885 
L 292.28253 294.152848 
L 294.079649 294.736811 
L 294.653729 295.320774 
L 294.728609 295.904737 
L 294.965728 296.4887 
L 295.527328 297.072664 
L 296.650527 297.656627 
L 298.272927 298.24059 
L 298.397727 298.824553 
L 299.096606 299.408516 
L 306.946522 299.992479 
L 309.217881 300.576442 
L 309.267801 301.160406 
L 309.579801 301.744369 
L 311.776279 302.328332 
L 313.111639 302.912295 
L 314.796438 303.496258 
L 319.888275 304.080221 
L 328.100111 304.664184 
L 346.121221 305.248147 
L 368.422969 305.832111 
L 372.454007 306.416074 
L 398.487273 307.000037 
L 398.487273 307.000037 
L 398.487273 307.000037 
L 372.454007 306.416074 
L 368.422969 305.832111 
L 346.121221 305.248147 
L 328.100111 304.664184 
L 319.888275 304.080221 
L 314.796438 303.496258 
L 313.111639 302.912295 
L 311.776279 302.328332 
L 309.579801 301.744369 
L 309.267801 301.160406 
L 309.217881 300.576442 
L 306.946522 299.992479 
L 299.096606 299.408516 
L 298.397727 298.824553 
L 298.272927 298.24059 
L 296.650527 297.656627 
L 295.527328 297.072664 
L 294.965728 296.4887 
L 294.728609 295.904737 
L 294.653729 295.320774 
L 294.079649 294.736811 
L 292.28253 294.152848 
L 290.984611 293.568885 
L 289.249891 292.984922 
L 289.212451 292.400959 
L 288.189092 291.816995 
L 287.951972 290.649069 
L 287.440292 290.065106 
L 286.791333 289.481143 
L 286.616613 288.89718 
L 285.955173 288.313217 
L 283.783654 287.729253 
L 282.672935 287.14529 
L 282.647975 286.561327 
L 282.535655 285.977364 
L 282.373415 284.225475 
L 278.716777 283.641512 
L 277.481258 283.057548 
L 276.732458 282.473585 
L 276.220778 281.889622 
L 275.259819 281.305659 
L 274.985259 280.721696 
L 273.10078 280.137733 
L 272.51422 279.55377 
L 272.43934 278.969806 
L 272.239661 278.385843 
L 269.681262 277.80188 
L 269.231982 277.80188 
L 268.058863 277.217917 
L 267.634543 276.633954 
L 267.522223 276.049991 
L 266.661104 275.466028 
L 266.586224 274.882065 
L 265.662704 274.298101 
L 265.463024 273.714138 
L 265.313264 273.130175 
L 264.576945 272.546212 
L 263.815665 271.962249 
L 263.016946 271.378286 
L 262.480306 270.794323 
L 261.569266 270.210359 
L 260.233907 269.626396 
L 260.171507 269.042433 
L 258.948468 268.45847 
L 258.511668 267.874507 
L 258.374388 267.290544 
L 257.463349 266.706581 
L 257.263669 266.122618 
L 256.789429 265.538654 
L 256.078069 264.954691 
L 255.47903 264.370728 
L 255.06719 263.786765 
L 253.706871 263.202802 
L 253.270071 262.618839 
L 252.870711 262.034876 
L 252.171831 261.450912 
L 251.560312 260.866949 
L 251.360632 260.282986 
L 251.048632 259.699023 
L 250.873912 259.11506 
L 250.649272 258.531097 
L 249.912953 257.947134 
L 248.315513 257.363171 
L 246.917754 256.779207 
L 246.842874 256.195244 
L 246.755514 255.611281 
L 246.668154 255.027318 
L 246.493434 254.443355 
L 245.532475 253.859392 
L 245.370235 253.275429 
L 243.610556 252.691465 
L 243.423356 252.107502 
L 243.111356 251.523539 
L 242.512317 250.939576 
L 242.499837 250.355613 
L 242.449917 249.77165 
L 242.250237 249.187687 
L 241.139517 248.01976 
L 240.053758 247.435797 
L 239.255038 246.851834 
L 239.230078 246.267871 
L 239.142718 245.683908 
L 238.680959 245.099945 
L 238.244159 244.515982 
L 238.094399 243.932018 
L 238.069439 243.348055 
L 237.994559 242.764092 
L 236.79648 242.180129 
L 236.69664 241.596166 
L 236.29728 241.012203 
L 236.12256 240.42824 
L 236.01024 239.844276 
L 235.44864 239.260313 
L 235.24896 238.67635 
L 235.036801 238.092387 
L 232.790402 237.508424 
L 232.752962 236.924461 
L 232.291202 236.340498 
L 231.954242 235.756535 
L 231.841922 235.172571 
L 231.742082 234.588608 
L 231.642242 234.004645 
L 231.629762 233.420682 
L 230.918403 232.836719 
L 230.856003 232.252756 
L 230.731203 231.668793 
L 230.568963 231.084829 
L 230.232003 230.500866 
L 230.044803 229.33294 
L 229.982403 228.748977 
L 229.570564 228.165014 
L 229.221124 227.581051 
L 229.021444 226.997088 
L 228.247684 226.413124 
L 226.750085 225.829161 
L 226.650245 225.245198 
L 226.637765 224.661235 
L 226.612805 224.077272 
L 226.600325 223.493309 
L 226.525445 222.909346 
L 226.488005 222.325382 
L 225.888966 221.741419 
L 225.514566 221.157456 
L 225.252486 220.573493 
L 225.215046 219.405567 
L 224.790726 218.821604 
L 224.428806 218.237641 
L 224.353926 217.653677 
L 224.029447 217.069714 
L 224.004487 216.485751 
L 223.717447 215.901788 
L 223.517767 215.317825 
L 223.455367 214.733862 
L 223.355527 214.149899 
L 222.793927 213.565935 
L 221.770568 212.981972 
L 221.683208 212.398009 
L 221.308808 211.814046 
L 221.208968 211.230083 
L 219.511689 210.64612 
L 219.299529 210.062157 
L 219.162249 209.478194 
L 218.975049 208.89423 
L 218.550729 208.310267 
L 218.31361 207.142341 
L 218.07649 206.558378 
L 217.85185 205.974415 
L 217.75201 205.390452 
L 217.35265 204.806488 
L 217.22785 203.638562 
L 217.11553 203.054599 
L 217.04065 202.470636 
L 216.341771 201.886673 
L 216.129611 201.30271 
L 215.867531 200.718747 
L 215.143691 200.134783 
L 215.106251 198.966857 
L 214.844171 198.382894 
L 214.744332 197.798931 
L 214.369932 197.214968 
L 211.599373 196.631005 
L 211.499533 196.047041 
L 211.487053 195.463078 
L 211.224973 194.295152 
L 211.162573 193.711189 
L 211.012814 193.127226 
L 209.502734 192.543263 
L 209.415374 191.9593 
L 209.190734 191.375336 
L 208.991055 190.791373 
L 207.768015 189.623447 
L 207.480975 189.039484 
L 207.069136 188.455521 
L 206.956816 187.871558 
L 206.445136 187.287594 
L 206.420176 186.703631 
L 206.220496 186.119668 
L 206.045776 185.535705 
L 205.995856 184.951742 
L 204.822737 184.367779 
L 204.123857 183.783816 
L 203.499858 183.199853 
L 203.137938 181.447963 
L 202.838418 180.280037 
L 202.663698 179.696074 
L 202.439058 179.112111 
L 201.777618 179.112111 
L 201.590419 177.944184 
L 201.191059 177.360221 
L 200.804179 176.776258 
L 200.404819 176.192295 
L 199.943059 175.608332 
L 199.2941 174.440406 
L 198.50786 173.856442 
L 197.534421 173.272479 
L 197.459541 172.688516 
L 197.397141 172.104553 
L 197.297301 171.52059 
L 197.184981 170.352664 
L 196.810581 169.7687 
L 196.423701 169.184737 
L 196.373781 168.600774 
L 195.150742 168.016811 
L 195.000982 167.432848 
L 194.576662 167.432848 
L 194.401942 166.848885 
L 194.114903 166.264922 
L 192.829463 165.680959 
L 192.255384 165.096995 
L 192.230424 164.513032 
L 192.043224 163.929069 
L 192.018264 163.345106 
L 191.369304 162.761143 
L 191.144664 162.17718 
L 190.982424 161.593217 
L 190.845144 161.009253 
L 190.757784 160.42529 
L 190.670424 160.42529 
L 190.333465 159.841327 
L 189.659545 159.257364 
L 189.035545 158.089438 
L 188.736025 157.505475 
L 188.037146 156.921512 
L 188.012186 156.337548 
L 187.525466 155.753585 
L 187.512986 155.169622 
L 187.188506 154.585659 
L 186.751707 154.001696 
L 186.626907 153.417733 
L 185.853147 152.83377 
L 185.828187 152.249806 
L 185.815707 151.665843 
L 185.578587 151.08188 
L 184.879708 149.913954 
L 184.043548 149.329991 
L 183.981148 148.746028 
L 183.868828 148.162065 
L 182.808029 146.994138 
L 182.496029 146.410175 
L 182.084189 145.826212 
L 182.071709 145.242249 
L 181.946909 144.658286 
L 181.659869 144.074323 
L 181.19811 143.490359 
L 180.24963 142.906396 
L 179.176351 142.322433 
L 178.477471 141.73847 
L 178.302751 141.154507 
L 178.128031 139.986581 
L 177.853471 139.402618 
L 177.840991 138.818654 
L 177.304352 138.234691 
L 177.229472 137.650728 
L 176.642912 137.650728 
L 176.630432 137.066765 
L 175.681953 136.482802 
L 174.983073 135.314876 
L 174.933153 134.730912 
L 174.895713 134.146949 
L 173.635234 133.562986 
L 173.285794 133.562986 
L 173.173474 132.979023 
L 172.873954 132.39506 
L 172.599394 131.811097 
L 172.462114 131.227134 
L 172.162594 130.643171 
L 170.090916 130.059207 
L 169.778916 129.475244 
L 169.654116 128.891281 
L 169.454436 128.307318 
L 169.429476 127.723355 
L 168.256357 127.139392 
L 165.535718 126.555429 
L 164.836838 125.971465 
L 164.811878 125.387502 
L 164.736998 124.803539 
L 163.813479 124.219576 
L 163.651239 123.05165 
L 163.189479 121.883724 
L 162.60292 121.29976 
L 161.28004 120.131834 
L 161.01796 119.547871 
L 160.755881 118.963908 
L 160.631081 118.963908 
L 159.570281 118.379945 
L 159.495401 117.795982 
L 158.097642 117.212018 
L 156.974443 116.628055 
L 156.350443 116.044092 
L 156.275563 115.460129 
L 155.027564 114.876166 
L 154.016684 113.70824 
L 153.841964 113.124276 
L 153.804524 112.540313 
L 153.130605 111.95635 
L 151.832685 111.372387 
L 151.208686 110.788424 
L 150.459886 110.788424 
L 150.260206 110.204461 
L 149.785966 109.620498 
L 148.949807 109.036535 
L 148.912367 108.452571 
L 146.865648 107.868608 
L 146.616048 107.284645 
L 146.491248 106.700682 
L 144.956209 106.700682 
L 144.918769 106.116719 
L 143.77061 105.532756 
L 141.549171 105.532756 
L 141.299571 104.948793 
L 140.875251 104.364829 
L 140.288692 103.196903 
L 139.826932 102.61294 
L 139.477492 102.028977 
L 138.853492 101.445014 
L 138.778612 100.861051 
L 138.316853 100.277088 
L 138.092213 100.277088 
L 137.979893 99.693124 
L 137.430773 99.109161 
L 137.093813 98.525198 
L 136.507254 97.941235 
L 136.257654 97.357272 
L 135.995574 96.773309 
L 135.908214 96.773309 
L 135.845814 96.189346 
L 135.721014 95.605382 
L 135.633654 95.021419 
L 135.284214 94.437456 
L 134.210935 93.853493 
L 133.711735 93.26953 
L 133.636855 92.685567 
L 133.424695 92.101604 
L 132.775736 92.101604 
L 132.713336 91.517641 
L 132.563576 90.933677 
L 132.151736 90.349714 
L 131.452856 89.765751 
L 130.716537 89.181788 
L 130.541817 88.597825 
L 130.379577 88.013862 
L 123.066301 87.429899 
L 122.654461 87.429899 
L 122.442301 86.845935 
L 122.429821 86.261972 
L 120.994622 86.261972 
L 120.195902 85.678009 
L 119.921342 85.094046 
L 119.521983 84.510083 
L 117.787264 84.510083 
L 115.715585 83.92612 
L 114.242946 83.342157 
L 113.743746 82.758194 
L 112.570626 82.17423 
L 112.520706 81.590267 
L 112.183747 81.006304 
L 110.860867 81.006304 
L 106.68007 80.422341 
L 106.13095 79.838378 
L 101.713032 79.838378 
L 100.677193 79.254415 
L 100.602313 78.670452 
L 99.379274 78.086488 
L 99.067274 77.502525 
L 98.181194 77.502525 
L 97.070475 76.918562 
L 96.334155 75.750636 
L 96.296715 75.750636 
L 96.271755 75.166673 
L 94.175116 74.58271 
L 88.396879 74.58271 
L 88.384399 73.998747 
L 84.478162 73.414783 
L 79.660884 73.414783 
L 78.986965 73.414783 
L 78.762325 73.414783 
L 78.637525 73.414783 
L 78.600085 73.414783 
L 76.066646 72.83082 
L 75.430166 72.83082 
L 73.832727 72.83082 
z
" clip-path="url(#pfbcf05fd41)" style="fill: #7cfc00"/>
   </g>
   <g id="PolyCollection_3">
    <path d="M 73.832727 54.144 
L 73.832727 72.83082 
L 75.430166 72.83082 
L 76.066646 72.83082 
L 78.600085 73.414783 
L 78.637525 73.414783 
L 78.762325 73.414783 
L 78.986965 73.414783 
L 79.660884 73.414783 
L 84.478162 73.414783 
L 88.384399 73.998747 
L 88.396879 74.58271 
L 94.175116 74.58271 
L 96.271755 75.166673 
L 96.296715 75.750636 
L 96.334155 75.750636 
L 97.070475 76.918562 
L 98.181194 77.502525 
L 99.067274 77.502525 
L 99.379274 78.086488 
L 100.602313 78.670452 
L 100.677193 79.254415 
L 101.713032 79.838378 
L 106.13095 79.838378 
L 106.68007 80.422341 
L 110.860867 81.006304 
L 112.183747 81.006304 
L 112.520706 81.590267 
L 112.570626 82.17423 
L 113.743746 82.758194 
L 114.242946 83.342157 
L 115.715585 83.92612 
L 117.787264 84.510083 
L 119.521983 84.510083 
L 119.921342 85.094046 
L 120.195902 85.678009 
L 120.994622 86.261972 
L 122.429821 86.261972 
L 122.442301 86.845935 
L 122.654461 87.429899 
L 123.066301 87.429899 
L 130.379577 88.013862 
L 130.541817 88.597825 
L 130.716537 89.181788 
L 131.452856 89.765751 
L 132.151736 90.349714 
L 132.563576 90.933677 
L 132.713336 91.517641 
L 132.775736 92.101604 
L 133.424695 92.101604 
L 133.636855 92.685567 
L 133.711735 93.26953 
L 134.210935 93.853493 
L 135.284214 94.437456 
L 135.633654 95.021419 
L 135.721014 95.605382 
L 135.845814 96.189346 
L 135.908214 96.773309 
L 135.995574 96.773309 
L 136.257654 97.357272 
L 136.507254 97.941235 
L 137.093813 98.525198 
L 137.430773 99.109161 
L 137.979893 99.693124 
L 138.092213 100.277088 
L 138.316853 100.277088 
L 138.778612 100.861051 
L 138.853492 101.445014 
L 139.477492 102.028977 
L 139.826932 102.61294 
L 140.288692 103.196903 
L 140.875251 104.364829 
L 141.299571 104.948793 
L 141.549171 105.532756 
L 143.77061 105.532756 
L 144.918769 106.116719 
L 144.956209 106.700682 
L 146.491248 106.700682 
L 146.616048 107.284645 
L 146.865648 107.868608 
L 148.912367 108.452571 
L 148.949807 109.036535 
L 149.785966 109.620498 
L 150.260206 110.204461 
L 150.459886 110.788424 
L 151.208686 110.788424 
L 151.832685 111.372387 
L 153.130605 111.95635 
L 153.804524 112.540313 
L 153.841964 113.124276 
L 154.016684 113.70824 
L 155.027564 114.876166 
L 156.275563 115.460129 
L 156.350443 116.044092 
L 156.974443 116.628055 
L 158.097642 117.212018 
L 159.495401 117.795982 
L 159.570281 118.379945 
L 160.631081 118.963908 
L 160.755881 118.963908 
L 161.01796 119.547871 
L 161.28004 120.131834 
L 162.60292 121.29976 
L 163.189479 121.883724 
L 163.651239 123.05165 
L 163.813479 124.219576 
L 164.736998 124.803539 
L 164.811878 125.387502 
L 164.836838 125.971465 
L 165.535718 126.555429 
L 168.256357 127.139392 
L 169.429476 127.723355 
L 169.454436 128.307318 
L 169.654116 128.891281 
L 169.778916 129.475244 
L 170.090916 130.059207 
L 172.162594 130.643171 
L 172.462114 131.227134 
L 172.599394 131.811097 
L 172.873954 132.39506 
L 173.173474 132.979023 
L 173.285794 133.562986 
L 173.635234 133.562986 
L 174.895713 134.146949 
L 174.933153 134.730912 
L 174.983073 135.314876 
L 175.681953 136.482802 
L 176.630432 137.066765 
L 176.642912 137.650728 
L 177.229472 137.650728 
L 177.304352 138.234691 
L 177.840991 138.818654 
L 177.853471 139.402618 
L 178.128031 139.986581 
L 178.302751 141.154507 
L 178.477471 141.73847 
L 179.176351 142.322433 
L 180.24963 142.906396 
L 181.19811 143.490359 
L 181.659869 144.074323 
L 181.946909 144.658286 
L 182.071709 145.242249 
L 182.084189 145.826212 
L 182.496029 146.410175 
L 182.808029 146.994138 
L 183.868828 148.162065 
L 183.981148 148.746028 
L 184.043548 149.329991 
L 184.879708 149.913954 
L 185.578587 151.08188 
L 185.815707 151.665843 
L 185.828187 152.249806 
L 185.853147 152.83377 
L 186.626907 153.417733 
L 186.751707 154.001696 
L 187.188506 154.585659 
L 187.512986 155.169622 
L 187.525466 155.753585 
L 188.012186 156.337548 
L 188.037146 156.921512 
L 188.736025 157.505475 
L 189.035545 158.089438 
L 189.659545 159.257364 
L 190.333465 159.841327 
L 190.670424 160.42529 
L 190.757784 160.42529 
L 190.845144 161.009253 
L 190.982424 161.593217 
L 191.144664 162.17718 
L 191.369304 162.761143 
L 192.018264 163.345106 
L 192.043224 163.929069 
L 192.230424 164.513032 
L 192.255384 165.096995 
L 192.829463 165.680959 
L 194.114903 166.264922 
L 194.401942 166.848885 
L 194.576662 167.432848 
L 195.000982 167.432848 
L 195.150742 168.016811 
L 196.373781 168.600774 
L 196.423701 169.184737 
L 196.810581 169.7687 
L 197.184981 170.352664 
L 197.297301 171.52059 
L 197.397141 172.104553 
L 197.459541 172.688516 
L 197.534421 173.272479 
L 198.50786 173.856442 
L 199.2941 174.440406 
L 199.943059 175.608332 
L 200.404819 176.192295 
L 200.804179 176.776258 
L 201.191059 177.360221 
L 201.590419 177.944184 
L 201.777618 179.112111 
L 202.439058 179.112111 
L 202.663698 179.696074 
L 202.838418 180.280037 
L 203.137938 181.447963 
L 203.499858 183.199853 
L 204.123857 183.783816 
L 204.822737 184.367779 
L 205.995856 184.951742 
L 206.045776 185.535705 
L 206.220496 186.119668 
L 206.420176 186.703631 
L 206.445136 187.287594 
L 206.956816 187.871558 
L 207.069136 188.455521 
L 207.480975 189.039484 
L 207.768015 189.623447 
L 208.991055 190.791373 
L 209.190734 191.375336 
L 209.415374 191.9593 
L 209.502734 192.543263 
L 211.012814 193.127226 
L 211.162573 193.711189 
L 211.224973 194.295152 
L 211.487053 195.463078 
L 211.499533 196.047041 
L 211.599373 196.631005 
L 214.369932 197.214968 
L 214.744332 197.798931 
L 214.844171 198.382894 
L 215.106251 198.966857 
L 215.143691 200.134783 
L 215.867531 200.718747 
L 216.129611 201.30271 
L 216.341771 201.886673 
L 217.04065 202.470636 
L 217.11553 203.054599 
L 217.22785 203.638562 
L 217.35265 204.806488 
L 217.75201 205.390452 
L 217.85185 205.974415 
L 218.07649 206.558378 
L 218.31361 207.142341 
L 218.550729 208.310267 
L 218.975049 208.89423 
L 219.162249 209.478194 
L 219.299529 210.062157 
L 219.511689 210.64612 
L 221.208968 211.230083 
L 221.308808 211.814046 
L 221.683208 212.398009 
L 221.770568 212.981972 
L 222.793927 213.565935 
L 223.355527 214.149899 
L 223.455367 214.733862 
L 223.517767 215.317825 
L 223.717447 215.901788 
L 224.004487 216.485751 
L 224.029447 217.069714 
L 224.353926 217.653677 
L 224.428806 218.237641 
L 224.790726 218.821604 
L 225.215046 219.405567 
L 225.252486 220.573493 
L 225.514566 221.157456 
L 225.888966 221.741419 
L 226.488005 222.325382 
L 226.525445 222.909346 
L 226.600325 223.493309 
L 226.612805 224.077272 
L 226.637765 224.661235 
L 226.650245 225.245198 
L 226.750085 225.829161 
L 228.247684 226.413124 
L 229.021444 226.997088 
L 229.221124 227.581051 
L 229.570564 228.165014 
L 229.982403 228.748977 
L 230.044803 229.33294 
L 230.232003 230.500866 
L 230.568963 231.084829 
L 230.731203 231.668793 
L 230.856003 232.252756 
L 230.918403 232.836719 
L 231.629762 233.420682 
L 231.642242 234.004645 
L 231.742082 234.588608 
L 231.841922 235.172571 
L 231.954242 235.756535 
L 232.291202 236.340498 
L 232.752962 236.924461 
L 232.790402 237.508424 
L 235.036801 238.092387 
L 235.24896 238.67635 
L 235.44864 239.260313 
L 236.01024 239.844276 
L 236.12256 240.42824 
L 236.29728 241.012203 
L 236.69664 241.596166 
L 236.79648 242.180129 
L 237.994559 242.764092 
L 238.069439 243.348055 
L 238.094399 243.932018 
L 238.244159 244.515982 
L 238.680959 245.099945 
L 239.142718 245.683908 
L 239.230078 246.267871 
L 239.255038 246.851834 
L 240.053758 247.435797 
L 241.139517 248.01976 
L 242.250237 249.187687 
L 242.449917 249.77165 
L 242.499837 250.355613 
L 242.512317 250.939576 
L 243.111356 251.523539 
L 243.423356 252.107502 
L 243.610556 252.691465 
L 245.370235 253.275429 
L 245.532475 253.859392 
L 246.493434 254.443355 
L 246.668154 255.027318 
L 246.755514 255.611281 
L 246.842874 256.195244 
L 246.917754 256.779207 
L 248.315513 257.363171 
L 249.912953 257.947134 
L 250.649272 258.531097 
L 250.873912 259.11506 
L 251.048632 259.699023 
L 251.360632 260.282986 
L 251.560312 260.866949 
L 252.171831 261.450912 
L 252.870711 262.034876 
L 253.270071 262.618839 
L 253.706871 263.202802 
L 255.06719 263.786765 
L 255.47903 264.370728 
L 256.078069 264.954691 
L 256.789429 265.538654 
L 257.263669 266.122618 
L 257.463349 266.706581 
L 258.374388 267.290544 
L 258.511668 267.874507 
L 258.948468 268.45847 
L 260.171507 269.042433 
L 260.233907 269.626396 
L 261.569266 270.210359 
L 262.480306 270.794323 
L 263.016946 271.378286 
L 263.815665 271.962249 
L 264.576945 272.546212 
L 265.313264 273.130175 
L 265.463024 273.714138 
L 265.662704 274.298101 
L 266.586224 274.882065 
L 266.661104 275.466028 
L 267.522223 276.049991 
L 267.634543 276.633954 
L 268.058863 277.217917 
L 269.231982 277.80188 
L 269.681262 277.80188 
L 272.239661 278.385843 
L 272.43934 278.969806 
L 272.51422 279.55377 
L 273.10078 280.137733 
L 274.985259 280.721696 
L 275.259819 281.305659 
L 276.220778 281.889622 
L 276.732458 282.473585 
L 277.481258 283.057548 
L 278.716777 283.641512 
L 282.373415 284.225475 
L 282.535655 285.977364 
L 282.647975 286.561327 
L 282.672935 287.14529 
L 283.783654 287.729253 
L 285.955173 288.313217 
L 286.616613 288.89718 
L 286.791333 289.481143 
L 287.440292 290.065106 
L 287.951972 290.649069 
L 288.189092 291.816995 
L 289.212451 292.400959 
L 289.249891 292.984922 
L 290.984611 293.568885 
L 292.28253 294.152848 
L 294.079649 294.736811 
L 294.653729 295.320774 
L 294.728609 295.904737 
L 294.965728 296.4887 
L 295.527328 297.072664 
L 296.650527 297.656627 
L 298.272927 298.24059 
L 298.397727 298.824553 
L 299.096606 299.408516 
L 306.946522 299.992479 
L 309.217881 300.576442 
L 309.267801 301.160406 
L 309.579801 301.744369 
L 311.776279 302.328332 
L 313.111639 302.912295 
L 314.796438 303.496258 
L 319.888275 304.080221 
L 328.100111 304.664184 
L 346.121221 305.248147 
L 368.422969 305.832111 
L 372.454007 306.416074 
L 398.487273 307.000037 
L 398.487273 307.000037 
L 398.487273 307.000037 
L 372.454007 306.416074 
L 368.422969 305.832111 
L 346.121221 305.248147 
L 328.100111 304.664184 
L 319.888275 304.080221 
L 314.796438 303.496258 
L 313.111639 302.912295 
L 311.776279 302.328332 
L 309.579801 301.744369 
L 309.267801 301.160406 
L 309.217881 300.576442 
L 306.946522 299.992479 
L 299.096606 299.408516 
L 298.397727 298.824553 
L 298.272927 298.24059 
L 296.650527 297.656627 
L 295.527328 297.072664 
L 294.965728 296.4887 
L 294.728609 295.904737 
L 294.653729 295.320774 
L 294.079649 294.736811 
L 292.28253 294.152848 
L 290.984611 293.568885 
L 289.249891 292.984922 
L 289.212451 292.400959 
L 288.189092 291.816995 
L 287.951972 290.649069 
L 287.440292 290.065106 
L 286.791333 289.481143 
L 286.616613 288.89718 
L 285.955173 288.313217 
L 283.783654 287.729253 
L 282.672935 287.14529 
L 282.647975 286.561327 
L 282.535655 285.977364 
L 282.373415 284.225475 
L 278.716777 283.641512 
L 277.481258 283.057548 
L 276.732458 282.473585 
L 276.220778 281.889622 
L 275.259819 281.305659 
L 274.985259 280.721696 
L 273.10078 280.137733 
L 272.51422 279.55377 
L 272.43934 278.969806 
L 272.239661 278.385843 
L 269.681262 277.80188 
L 269.231982 277.217917 
L 268.058863 276.633954 
L 267.634543 276.049991 
L 267.522223 275.466028 
L 266.661104 274.882065 
L 266.586224 274.298101 
L 265.662704 273.714138 
L 265.463024 273.130175 
L 265.313264 272.546212 
L 264.576945 271.962249 
L 263.815665 271.378286 
L 263.016946 270.794323 
L 262.480306 270.210359 
L 261.569266 269.626396 
L 260.233907 269.042433 
L 260.171507 268.45847 
L 258.948468 267.874507 
L 258.511668 267.290544 
L 258.374388 266.706581 
L 257.463349 266.122618 
L 257.263669 265.538654 
L 256.789429 264.954691 
L 256.078069 264.370728 
L 255.47903 263.786765 
L 255.06719 263.202802 
L 253.706871 262.618839 
L 253.270071 262.034876 
L 252.870711 261.450912 
L 252.171831 260.866949 
L 251.560312 260.282986 
L 251.360632 259.699023 
L 251.048632 259.11506 
L 250.873912 258.531097 
L 250.649272 257.947134 
L 249.912953 257.363171 
L 248.315513 256.779207 
L 246.917754 256.195244 
L 246.842874 255.611281 
L 246.755514 255.027318 
L 246.668154 254.443355 
L 246.493434 253.859392 
L 245.532475 253.275429 
L 245.370235 252.691465 
L 243.610556 252.107502 
L 243.423356 251.523539 
L 243.111356 250.939576 
L 242.512317 250.355613 
L 242.499837 249.77165 
L 242.449917 249.187687 
L 242.250237 248.603724 
L 241.139517 247.435797 
L 240.053758 246.851834 
L 239.255038 246.267871 
L 239.230078 245.683908 
L 239.142718 245.099945 
L 238.680959 244.515982 
L 238.244159 243.932018 
L 238.094399 243.348055 
L 238.069439 242.764092 
L 237.994559 242.180129 
L 236.79648 241.596166 
L 236.69664 241.012203 
L 236.29728 240.42824 
L 236.12256 239.844276 
L 236.01024 239.260313 
L 235.44864 238.67635 
L 235.24896 238.092387 
L 235.036801 237.508424 
L 232.790402 236.924461 
L 232.752962 236.340498 
L 232.291202 235.756535 
L 231.954242 235.172571 
L 231.841922 234.588608 
L 231.742082 234.004645 
L 231.642242 233.420682 
L 231.629762 232.836719 
L 230.918403 232.252756 
L 230.856003 231.668793 
L 230.731203 231.084829 
L 230.568963 230.500866 
L 230.232003 229.916903 
L 230.044803 228.748977 
L 229.982403 228.165014 
L 229.570564 227.581051 
L 229.221124 226.997088 
L 229.021444 226.413124 
L 228.247684 225.829161 
L 226.750085 225.245198 
L 226.650245 224.661235 
L 226.637765 224.077272 
L 226.612805 223.493309 
L 226.600325 222.909346 
L 226.525445 222.325382 
L 226.488005 221.741419 
L 225.888966 221.157456 
L 225.514566 220.573493 
L 225.252486 219.98953 
L 225.215046 218.821604 
L 224.790726 218.237641 
L 224.428806 217.653677 
L 224.353926 217.069714 
L 224.029447 216.485751 
L 224.004487 215.901788 
L 223.717447 215.317825 
L 223.517767 214.733862 
L 223.455367 214.149899 
L 223.355527 213.565935 
L 222.793927 212.981972 
L 221.770568 212.398009 
L 221.683208 211.814046 
L 221.308808 211.230083 
L 221.208968 210.64612 
L 219.511689 210.062157 
L 219.299529 209.478194 
L 219.162249 208.89423 
L 218.975049 208.310267 
L 218.550729 207.726304 
L 218.31361 206.558378 
L 218.07649 205.974415 
L 217.85185 205.390452 
L 217.75201 204.806488 
L 217.35265 204.222525 
L 217.22785 203.054599 
L 217.11553 202.470636 
L 217.04065 201.886673 
L 216.341771 201.30271 
L 216.129611 200.718747 
L 215.867531 200.134783 
L 215.143691 199.55082 
L 215.106251 198.382894 
L 214.844171 197.798931 
L 214.744332 197.214968 
L 214.369932 196.631005 
L 211.599373 196.047041 
L 211.499533 195.463078 
L 211.487053 194.879115 
L 211.224973 193.711189 
L 211.162573 193.127226 
L 211.012814 192.543263 
L 209.502734 191.9593 
L 209.415374 191.375336 
L 209.190734 190.791373 
L 208.991055 190.20741 
L 207.768015 189.039484 
L 207.480975 188.455521 
L 207.069136 187.871558 
L 206.956816 187.287594 
L 206.445136 186.703631 
L 206.420176 186.119668 
L 206.220496 185.535705 
L 206.045776 184.951742 
L 205.995856 184.367779 
L 204.822737 183.783816 
L 204.123857 183.199853 
L 203.499858 182.615889 
L 203.137938 180.864 
L 202.838418 179.696074 
L 202.663698 179.112111 
L 202.439058 178.528147 
L 201.777618 177.944184 
L 201.590419 176.776258 
L 201.191059 176.192295 
L 200.804179 175.608332 
L 200.404819 175.024369 
L 199.943059 174.440406 
L 199.2941 173.272479 
L 198.50786 172.688516 
L 197.534421 172.104553 
L 197.459541 171.52059 
L 197.397141 170.936627 
L 197.297301 170.352664 
L 197.184981 169.184737 
L 196.810581 168.600774 
L 196.423701 168.016811 
L 196.373781 167.432848 
L 195.150742 166.848885 
L 195.000982 166.264922 
L 194.576662 165.680959 
L 194.401942 165.096995 
L 194.114903 164.513032 
L 192.829463 163.929069 
L 192.255384 163.345106 
L 192.230424 162.761143 
L 192.043224 162.17718 
L 192.018264 161.593217 
L 191.369304 161.009253 
L 191.144664 160.42529 
L 190.982424 159.841327 
L 190.845144 159.257364 
L 190.757784 158.673401 
L 190.670424 158.089438 
L 190.333465 157.505475 
L 189.659545 156.921512 
L 189.035545 155.753585 
L 188.736025 155.169622 
L 188.037146 154.585659 
L 188.012186 154.001696 
L 187.525466 153.417733 
L 187.512986 152.83377 
L 187.188506 152.249806 
L 186.751707 151.665843 
L 186.626907 151.08188 
L 185.853147 150.497917 
L 185.828187 149.913954 
L 185.815707 149.329991 
L 185.578587 148.746028 
L 184.879708 147.578101 
L 184.043548 146.994138 
L 183.981148 146.410175 
L 183.868828 145.826212 
L 182.808029 144.658286 
L 182.496029 144.074323 
L 182.084189 143.490359 
L 182.071709 142.906396 
L 181.946909 142.322433 
L 181.659869 141.73847 
L 181.19811 141.154507 
L 180.24963 140.570544 
L 179.176351 139.986581 
L 178.477471 139.402618 
L 178.302751 138.818654 
L 178.128031 137.650728 
L 177.853471 137.066765 
L 177.840991 136.482802 
L 177.304352 135.898839 
L 177.229472 135.314876 
L 176.642912 134.730912 
L 176.630432 134.146949 
L 175.681953 133.562986 
L 174.983073 132.39506 
L 174.933153 131.811097 
L 174.895713 131.227134 
L 173.635234 130.643171 
L 173.285794 130.059207 
L 173.173474 129.475244 
L 172.873954 128.891281 
L 172.599394 128.307318 
L 172.462114 127.723355 
L 172.162594 127.139392 
L 170.090916 126.555429 
L 169.778916 125.971465 
L 169.654116 125.387502 
L 169.454436 124.803539 
L 169.429476 124.219576 
L 168.256357 123.635613 
L 165.535718 123.05165 
L 164.836838 122.467687 
L 164.811878 121.883724 
L 164.736998 121.29976 
L 163.813479 120.715797 
L 163.651239 119.547871 
L 163.189479 118.379945 
L 162.60292 117.795982 
L 161.28004 116.628055 
L 161.01796 116.044092 
L 160.755881 115.460129 
L 160.631081 114.876166 
L 159.570281 114.292203 
L 159.495401 113.70824 
L 158.097642 113.124276 
L 156.974443 112.540313 
L 156.350443 111.95635 
L 156.275563 111.372387 
L 155.027564 110.788424 
L 154.016684 109.620498 
L 153.841964 109.036535 
L 153.804524 108.452571 
L 153.130605 107.868608 
L 151.832685 107.284645 
L 151.208686 106.700682 
L 150.459886 106.116719 
L 150.260206 105.532756 
L 149.785966 104.948793 
L 148.949807 104.364829 
L 148.912367 103.780866 
L 146.865648 103.196903 
L 146.616048 102.61294 
L 146.491248 102.028977 
L 144.956209 101.445014 
L 144.918769 100.861051 
L 143.77061 100.277088 
L 141.549171 99.693124 
L 141.299571 99.109161 
L 140.875251 98.525198 
L 140.288692 97.357272 
L 139.826932 96.773309 
L 139.477492 96.189346 
L 138.853492 95.605382 
L 138.778612 95.021419 
L 138.316853 94.437456 
L 138.092213 93.853493 
L 137.979893 93.26953 
L 137.430773 92.685567 
L 137.093813 92.101604 
L 136.507254 91.517641 
L 136.257654 90.933677 
L 135.995574 90.349714 
L 135.908214 89.765751 
L 135.845814 89.181788 
L 135.721014 88.597825 
L 135.633654 88.013862 
L 135.284214 87.429899 
L 134.210935 86.845935 
L 133.711735 86.261972 
L 133.636855 85.678009 
L 133.424695 85.094046 
L 132.775736 84.510083 
L 132.713336 83.92612 
L 132.563576 83.342157 
L 132.151736 82.758194 
L 131.452856 82.17423 
L 130.716537 81.590267 
L 130.541817 81.006304 
L 130.379577 80.422341 
L 123.066301 79.838378 
L 122.654461 79.254415 
L 122.442301 78.670452 
L 122.429821 78.086488 
L 120.994622 77.502525 
L 120.195902 76.918562 
L 119.921342 75.750636 
L 119.521983 75.166673 
L 117.787264 74.58271 
L 115.715585 73.998747 
L 114.242946 73.414783 
L 113.743746 72.83082 
L 112.570626 72.246857 
L 112.520706 71.662894 
L 112.183747 71.078931 
L 110.860867 70.494968 
L 106.68007 69.911005 
L 106.13095 69.327041 
L 101.713032 68.743078 
L 100.677193 68.159115 
L 100.602313 67.575152 
L 99.379274 66.991189 
L 99.067274 66.407226 
L 98.181194 65.823263 
L 97.070475 65.2393 
L 96.334155 64.071373 
L 96.296715 63.48741 
L 96.271755 62.903447 
L 94.175116 61.735521 
L 88.396879 61.151558 
L 88.384399 60.567594 
L 84.478162 59.983631 
L 79.660884 59.399668 
L 78.986965 58.815705 
L 78.762325 58.231742 
L 78.637525 57.647779 
L 78.600085 56.479853 
L 76.066646 55.895889 
L 75.430166 54.727963 
L 73.832727 54.144 
z
" clip-path="url(#pfbcf05fd41)" style="fill: #ff0000"/>
   </g>
   <g id="matplotlib.axis_1">
    <g id="xtick_1">
     <g id="line2d_1">
      <defs>
       <path id="m36ac8c4d74" d="M 0 0 
L 0 3.5 
" style="stroke: #000000; stroke-width: 0.8"/>
      </defs>
      <g>
       <use xlink:href="#m36ac8c4d74" x="116.689024" y="307.584" style="stroke: #000000; stroke-width: 0.8"/>
      </g>
     </g>
     <g id="text_1">
      <!-- 50 -->
      <g transform="translate(110.326524 322.182437)scale(0.1 -0.1)">
       <defs>
        <path id="DejaVuSans-35" d="M 691 4666 
L 3169 4666 
L 3169 4134 
L 1269 4134 
L 1269 2991 
Q 1406 3038 1543 3061 
Q 1681 3084 1819 3084 
Q 2600 3084 3056 2656 
Q 3513 2228 3513 1497 
Q 3513 744 3044 326 
Q 2575 -91 1722 -91 
Q 1428 -91 1123 -41 
Q 819 9 494 109 
L 494 744 
Q 775 591 1075 516 
Q 1375 441 1709 441 
Q 2250 441 2565 725 
Q 2881 1009 2881 1497 
Q 2881 1984 2565 2268 
Q 2250 2553 1709 2553 
Q 1456 2553 1204 2497 
Q 953 2441 691 2322 
L 691 4666 
z
" transform="scale(0.015625)"/>
        <path id="DejaVuSans-30" d="M 2034 4250 
Q 1547 4250 1301 3770 
Q 1056 3291 1056 2328 
Q 1056 1369 1301 889 
Q 1547 409 2034 409 
Q 2525 409 2770 889 
Q 3016 1369 3016 2328 
Q 3016 3291 2770 3770 
Q 2525 4250 2034 4250 
z
M 2034 4750 
Q 2819 4750 3233 4129 
Q 3647 3509 3647 2328 
Q 3647 1150 3233 529 
Q 2819 -91 2034 -91 
Q 1250 -91 836 529 
Q 422 1150 422 2328 
Q 422 3509 836 4129 
Q 1250 4750 2034 4750 
z
" transform="scale(0.015625)"/>
       </defs>
       <use xlink:href="#DejaVuSans-35"/>
       <use xlink:href="#DejaVuSans-30" x="63.623047"/>
      </g>
     </g>
    </g>
    <g id="xtick_2">
     <g id="line2d_2">
      <g>
       <use xlink:href="#m36ac8c4d74" x="179.088991" y="307.584" style="stroke: #000000; stroke-width: 0.8"/>
      </g>
     </g>
     <g id="text_2">
      <!-- 100 -->
      <g transform="translate(169.545241 322.182437)scale(0.1 -0.1)">
       <defs>
        <path id="DejaVuSans-31" d="M 794 531 
L 1825 531 
L 1825 4091 
L 703 3866 
L 703 4441 
L 1819 4666 
L 2450 4666 
L 2450 531 
L 3481 531 
L 3481 0 
L 794 0 
L 794 531 
z
" transform="scale(0.015625)"/>
       </defs>
       <use xlink:href="#DejaVuSans-31"/>
       <use xlink:href="#DejaVuSans-30" x="63.623047"/>
       <use xlink:href="#DejaVuSans-30" x="127.246094"/>
      </g>
     </g>
    </g>
    <g id="xtick_3">
     <g id="line2d_3">
      <g>
       <use xlink:href="#m36ac8c4d74" x="241.488957" y="307.584" style="stroke: #000000; stroke-width: 0.8"/>
      </g>
     </g>
     <g id="text_3">
      <!-- 150 -->
      <g transform="translate(231.945207 322.182437)scale(0.1 -0.1)">
       <use xlink:href="#DejaVuSans-31"/>
       <use xlink:href="#DejaVuSans-35" x="63.623047"/>
       <use xlink:href="#DejaVuSans-30" x="127.246094"/>
      </g>
     </g>
    </g>
    <g id="xtick_4">
     <g id="line2d_4">
      <g>
       <use xlink:href="#m36ac8c4d74" x="303.888924" y="307.584" style="stroke: #000000; stroke-width: 0.8"/>
      </g>
     </g>
     <g id="text_4">
      <!-- 200 -->
      <g transform="translate(294.345174 322.182437)scale(0.1 -0.1)">
       <defs>
        <path id="DejaVuSans-32" d="M 1228 531 
L 3431 531 
L 3431 0 
L 469 0 
L 469 531 
Q 828 903 1448 1529 
Q 2069 2156 2228 2338 
Q 2531 2678 2651 2914 
Q 2772 3150 2772 3378 
Q 2772 3750 2511 3984 
Q 2250 4219 1831 4219 
Q 1534 4219 1204 4116 
Q 875 4013 500 3803 
L 500 4441 
Q 881 4594 1212 4672 
Q 1544 4750 1819 4750 
Q 2544 4750 2975 4387 
Q 3406 4025 3406 3419 
Q 3406 3131 3298 2873 
Q 3191 2616 2906 2266 
Q 2828 2175 2409 1742 
Q 1991 1309 1228 531 
z
" transform="scale(0.015625)"/>
       </defs>
       <use xlink:href="#DejaVuSans-32"/>
       <use xlink:href="#DejaVuSans-30" x="63.623047"/>
       <use xlink:href="#DejaVuSans-30" x="127.246094"/>
      </g>
     </g>
    </g>
    <g id="xtick_5">
     <g id="line2d_5">
      <g>
       <use xlink:href="#m36ac8c4d74" x="366.28889" y="307.584" style="stroke: #000000; stroke-width: 0.8"/>
      </g>
     </g>
     <g id="text_5">
      <!-- 250 -->
      <g transform="translate(356.74514 322.182437)scale(0.1 -0.1)">
       <use xlink:href="#DejaVuSans-32"/>
       <use xlink:href="#DejaVuSans-35" x="63.623047"/>
       <use xlink:href="#DejaVuSans-30" x="127.246094"/>
      </g>
     </g>
    </g>
    <g id="text_6">
     <!-- Score -->
     <g transform="translate(222.157656 335.860562)scale(0.1 -0.1)">
      <defs>
       <path id="DejaVuSans-53" d="M 3425 4513 
L 3425 3897 
Q 3066 4069 2747 4153 
Q 2428 4238 2131 4238 
Q 1616 4238 1336 4038 
Q 1056 3838 1056 3469 
Q 1056 3159 1242 3001 
Q 1428 2844 1947 2747 
L 2328 2669 
Q 3034 2534 3370 2195 
Q 3706 1856 3706 1288 
Q 3706 609 3251 259 
Q 2797 -91 1919 -91 
Q 1588 -91 1214 -16 
Q 841 59 441 206 
L 441 856 
Q 825 641 1194 531 
Q 1563 422 1919 422 
Q 2459 422 2753 634 
Q 3047 847 3047 1241 
Q 3047 1584 2836 1778 
Q 2625 1972 2144 2069 
L 1759 2144 
Q 1053 2284 737 2584 
Q 422 2884 422 3419 
Q 422 4038 858 4394 
Q 1294 4750 2059 4750 
Q 2388 4750 2728 4690 
Q 3069 4631 3425 4513 
z
" transform="scale(0.015625)"/>
       <path id="DejaVuSans-63" d="M 3122 3366 
L 3122 2828 
Q 2878 2963 2633 3030 
Q 2388 3097 2138 3097 
Q 1578 3097 1268 2742 
Q 959 2388 959 1747 
Q 959 1106 1268 751 
Q 1578 397 2138 397 
Q 2388 397 2633 464 
Q 2878 531 3122 666 
L 3122 134 
Q 2881 22 2623 -34 
Q 2366 -91 2075 -91 
Q 1284 -91 818 406 
Q 353 903 353 1747 
Q 353 2603 823 3093 
Q 1294 3584 2113 3584 
Q 2378 3584 2631 3529 
Q 2884 3475 3122 3366 
z
" transform="scale(0.015625)"/>
       <path id="DejaVuSans-6f" d="M 1959 3097 
Q 1497 3097 1228 2736 
Q 959 2375 959 1747 
Q 959 1119 1226 758 
Q 1494 397 1959 397 
Q 2419 397 2687 759 
Q 2956 1122 2956 1747 
Q 2956 2369 2687 2733 
Q 2419 3097 1959 3097 
z
M 1959 3584 
Q 2709 3584 3137 3096 
Q 3566 2609 3566 1747 
Q 3566 888 3137 398 
Q 2709 -91 1959 -91 
Q 1206 -91 779 398 
Q 353 888 353 1747 
Q 353 2609 779 3096 
Q 1206 3584 1959 3584 
z
" transform="scale(0.015625)"/>
       <path id="DejaVuSans-72" d="M 2631 2963 
Q 2534 3019 2420 3045 
Q 2306 3072 2169 3072 
Q 1681 3072 1420 2755 
Q 1159 2438 1159 1844 
L 1159 0 
L 581 0 
L 581 3500 
L 1159 3500 
L 1159 2956 
Q 1341 3275 1631 3429 
Q 1922 3584 2338 3584 
Q 2397 3584 2469 3576 
Q 2541 3569 2628 3553 
L 2631 2963 
z
" transform="scale(0.015625)"/>
       <path id="DejaVuSans-65" d="M 3597 1894 
L 3597 1613 
L 953 1613 
Q 991 1019 1311 708 
Q 1631 397 2203 397 
Q 2534 397 2845 478 
Q 3156 559 3463 722 
L 3463 178 
Q 3153 47 2828 -22 
Q 2503 -91 2169 -91 
Q 1331 -91 842 396 
Q 353 884 353 1716 
Q 353 2575 817 3079 
Q 1281 3584 2069 3584 
Q 2775 3584 3186 3129 
Q 3597 2675 3597 1894 
z
M 3022 2063 
Q 3016 2534 2758 2815 
Q 2500 3097 2075 3097 
Q 1594 3097 1305 2825 
Q 1016 2553 972 2059 
L 3022 2063 
z
" transform="scale(0.015625)"/>
      </defs>
      <use xlink:href="#DejaVuSans-53"/>
      <use xlink:href="#DejaVuSans-63" x="63.476562"/>
      <use xlink:href="#DejaVuSans-6f" x="118.457031"/>
      <use xlink:href="#DejaVuSans-72" x="179.638672"/>
      <use xlink:href="#DejaVuSans-65" x="218.501953"/>
     </g>
    </g>
   </g>
   <g id="matplotlib.axis_2">
    <g id="ytick_1">
     <g id="line2d_6">
      <defs>
       <path id="m40667f937b" d="M 0 0 
L -3.5 0 
" style="stroke: #000000; stroke-width: 0.8"/>
      </defs>
      <g>
       <use xlink:href="#m40667f937b" x="57.6" y="307.584" style="stroke: #000000; stroke-width: 0.8"/>
      </g>
     </g>
     <g id="text_7">
      <!-- 0 -->
      <g transform="translate(44.2375 311.383219)scale(0.1 -0.1)">
       <use xlink:href="#DejaVuSans-30"/>
      </g>
     </g>
    </g>
    <g id="ytick_2">
     <g id="line2d_7">
      <g>
       <use xlink:href="#m40667f937b" x="57.6" y="249.187687" style="stroke: #000000; stroke-width: 0.8"/>
      </g>
     </g>
     <g id="text_8">
      <!-- 100 -->
      <g transform="translate(31.5125 252.986905)scale(0.1 -0.1)">
       <use xlink:href="#DejaVuSans-31"/>
       <use xlink:href="#DejaVuSans-30" x="63.623047"/>
       <use xlink:href="#DejaVuSans-30" x="127.246094"/>
      </g>
     </g>
    </g>
    <g id="ytick_3">
     <g id="line2d_8">
      <g>
       <use xlink:href="#m40667f937b" x="57.6" y="190.791373" style="stroke: #000000; stroke-width: 0.8"/>
      </g>
     </g>
     <g id="text_9">
      <!-- 200 -->
      <g transform="translate(31.5125 194.590592)scale(0.1 -0.1)">
       <use xlink:href="#DejaVuSans-32"/>
       <use xlink:href="#DejaVuSans-30" x="63.623047"/>
       <use xlink:href="#DejaVuSans-30" x="127.246094"/>
      </g>
     </g>
    </g>
    <g id="ytick_4">
     <g id="line2d_9">
      <g>
       <use xlink:href="#m40667f937b" x="57.6" y="132.39506" style="stroke: #000000; stroke-width: 0.8"/>
      </g>
     </g>
     <g id="text_10">
      <!-- 300 -->
      <g transform="translate(31.5125 136.194279)scale(0.1 -0.1)">
       <defs>
        <path id="DejaVuSans-33" d="M 2597 2516 
Q 3050 2419 3304 2112 
Q 3559 1806 3559 1356 
Q 3559 666 3084 287 
Q 2609 -91 1734 -91 
Q 1441 -91 1130 -33 
Q 819 25 488 141 
L 488 750 
Q 750 597 1062 519 
Q 1375 441 1716 441 
Q 2309 441 2620 675 
Q 2931 909 2931 1356 
Q 2931 1769 2642 2001 
Q 2353 2234 1838 2234 
L 1294 2234 
L 1294 2753 
L 1863 2753 
Q 2328 2753 2575 2939 
Q 2822 3125 2822 3475 
Q 2822 3834 2567 4026 
Q 2313 4219 1838 4219 
Q 1578 4219 1281 4162 
Q 984 4106 628 3988 
L 628 4550 
Q 988 4650 1302 4700 
Q 1616 4750 1894 4750 
Q 2613 4750 3031 4423 
Q 3450 4097 3450 3541 
Q 3450 3153 3228 2886 
Q 3006 2619 2597 2516 
z
" transform="scale(0.015625)"/>
       </defs>
       <use xlink:href="#DejaVuSans-33"/>
       <use xlink:href="#DejaVuSans-30" x="63.623047"/>
       <use xlink:href="#DejaVuSans-30" x="127.246094"/>
      </g>
     </g>
    </g>
    <g id="ytick_5">
     <g id="line2d_10">
      <g>
       <use xlink:href="#m40667f937b" x="57.6" y="73.998747" style="stroke: #000000; stroke-width: 0.8"/>
      </g>
     </g>
     <g id="text_11">
      <!-- 400 -->
      <g transform="translate(31.5125 77.797965)scale(0.1 -0.1)">
       <defs>
        <path id="DejaVuSans-34" d="M 2419 4116 
L 825 1625 
L 2419 1625 
L 2419 4116 
z
M 2253 4666 
L 3047 4666 
L 3047 1625 
L 3713 1625 
L 3713 1100 
L 3047 1100 
L 3047 0 
L 2419 0 
L 2419 1100 
L 313 1100 
L 313 1709 
L 2253 4666 
z
" transform="scale(0.015625)"/>
       </defs>
       <use xlink:href="#DejaVuSans-34"/>
       <use xlink:href="#DejaVuSans-30" x="63.623047"/>
       <use xlink:href="#DejaVuSans-30" x="127.246094"/>
      </g>
     </g>
    </g>
    <g id="text_12">
     <!-- Number of crosslinks -->
     <g transform="translate(25.432812 227.019406)rotate(-90)scale(0.1 -0.1)">
      <defs>
       <path id="DejaVuSans-4e" d="M 628 4666 
L 1478 4666 
L 3547 763 
L 3547 4666 
L 4159 4666 
L 4159 0 
L 3309 0 
L 1241 3903 
L 1241 0 
L 628 0 
L 628 4666 
z
" transform="scale(0.015625)"/>
       <path id="DejaVuSans-75" d="M 544 1381 
L 544 3500 
L 1119 3500 
L 1119 1403 
Q 1119 906 1312 657 
Q 1506 409 1894 409 
Q 2359 409 2629 706 
Q 2900 1003 2900 1516 
L 2900 3500 
L 3475 3500 
L 3475 0 
L 2900 0 
L 2900 538 
Q 2691 219 2414 64 
Q 2138 -91 1772 -91 
Q 1169 -91 856 284 
Q 544 659 544 1381 
z
M 1991 3584 
L 1991 3584 
z
" transform="scale(0.015625)"/>
       <path id="DejaVuSans-6d" d="M 3328 2828 
Q 3544 3216 3844 3400 
Q 4144 3584 4550 3584 
Q 5097 3584 5394 3201 
Q 5691 2819 5691 2113 
L 5691 0 
L 5113 0 
L 5113 2094 
Q 5113 2597 4934 2840 
Q 4756 3084 4391 3084 
Q 3944 3084 3684 2787 
Q 3425 2491 3425 1978 
L 3425 0 
L 2847 0 
L 2847 2094 
Q 2847 2600 2669 2842 
Q 2491 3084 2119 3084 
Q 1678 3084 1418 2786 
Q 1159 2488 1159 1978 
L 1159 0 
L 581 0 
L 581 3500 
L 1159 3500 
L 1159 2956 
Q 1356 3278 1631 3431 
Q 1906 3584 2284 3584 
Q 2666 3584 2933 3390 
Q 3200 3197 3328 2828 
z
" transform="scale(0.015625)"/>
       <path id="DejaVuSans-62" d="M 3116 1747 
Q 3116 2381 2855 2742 
Q 2594 3103 2138 3103 
Q 1681 3103 1420 2742 
Q 1159 2381 1159 1747 
Q 1159 1113 1420 752 
Q 1681 391 2138 391 
Q 2594 391 2855 752 
Q 3116 1113 3116 1747 
z
M 1159 2969 
Q 1341 3281 1617 3432 
Q 1894 3584 2278 3584 
Q 2916 3584 3314 3078 
Q 3713 2572 3713 1747 
Q 3713 922 3314 415 
Q 2916 -91 2278 -91 
Q 1894 -91 1617 61 
Q 1341 213 1159 525 
L 1159 0 
L 581 0 
L 581 4863 
L 1159 4863 
L 1159 2969 
z
" transform="scale(0.015625)"/>
       <path id="DejaVuSans-20" transform="scale(0.015625)"/>
       <path id="DejaVuSans-66" d="M 2375 4863 
L 2375 4384 
L 1825 4384 
Q 1516 4384 1395 4259 
Q 1275 4134 1275 3809 
L 1275 3500 
L 2222 3500 
L 2222 3053 
L 1275 3053 
L 1275 0 
L 697 0 
L 697 3053 
L 147 3053 
L 147 3500 
L 697 3500 
L 697 3744 
Q 697 4328 969 4595 
Q 1241 4863 1831 4863 
L 2375 4863 
z
" transform="scale(0.015625)"/>
       <path id="DejaVuSans-73" d="M 2834 3397 
L 2834 2853 
Q 2591 2978 2328 3040 
Q 2066 3103 1784 3103 
Q 1356 3103 1142 2972 
Q 928 2841 928 2578 
Q 928 2378 1081 2264 
Q 1234 2150 1697 2047 
L 1894 2003 
Q 2506 1872 2764 1633 
Q 3022 1394 3022 966 
Q 3022 478 2636 193 
Q 2250 -91 1575 -91 
Q 1294 -91 989 -36 
Q 684 19 347 128 
L 347 722 
Q 666 556 975 473 
Q 1284 391 1588 391 
Q 1994 391 2212 530 
Q 2431 669 2431 922 
Q 2431 1156 2273 1281 
Q 2116 1406 1581 1522 
L 1381 1569 
Q 847 1681 609 1914 
Q 372 2147 372 2553 
Q 372 3047 722 3315 
Q 1072 3584 1716 3584 
Q 2034 3584 2315 3537 
Q 2597 3491 2834 3397 
z
" transform="scale(0.015625)"/>
       <path id="DejaVuSans-6c" d="M 603 4863 
L 1178 4863 
L 1178 0 
L 603 0 
L 603 4863 
z
" transform="scale(0.015625)"/>
       <path id="DejaVuSans-69" d="M 603 3500 
L 1178 3500 
L 1178 0 
L 603 0 
L 603 3500 
z
M 603 4863 
L 1178 4863 
L 1178 4134 
L 603 4134 
L 603 4863 
z
" transform="scale(0.015625)"/>
       <path id="DejaVuSans-6e" d="M 3513 2113 
L 3513 0 
L 2938 0 
L 2938 2094 
Q 2938 2591 2744 2837 
Q 2550 3084 2163 3084 
Q 1697 3084 1428 2787 
Q 1159 2491 1159 1978 
L 1159 0 
L 581 0 
L 581 3500 
L 1159 3500 
L 1159 2956 
Q 1366 3272 1645 3428 
Q 1925 3584 2291 3584 
Q 2894 3584 3203 3211 
Q 3513 2838 3513 2113 
z
" transform="scale(0.015625)"/>
       <path id="DejaVuSans-6b" d="M 581 4863 
L 1159 4863 
L 1159 1991 
L 2875 3500 
L 3609 3500 
L 1753 1863 
L 3688 0 
L 2938 0 
L 1159 1709 
L 1159 0 
L 581 0 
L 581 4863 
z
" transform="scale(0.015625)"/>
      </defs>
      <use xlink:href="#DejaVuSans-4e"/>
      <use xlink:href="#DejaVuSans-75" x="74.804688"/>
      <use xlink:href="#DejaVuSans-6d" x="138.183594"/>
      <use xlink:href="#DejaVuSans-62" x="235.595703"/>
      <use xlink:href="#DejaVuSans-65" x="299.072266"/>
      <use xlink:href="#DejaVuSans-72" x="360.595703"/>
      <use xlink:href="#DejaVuSans-20" x="401.708984"/>
      <use xlink:href="#DejaVuSans-6f" x="433.496094"/>
      <use xlink:href="#DejaVuSans-66" x="494.677734"/>
      <use xlink:href="#DejaVuSans-20" x="529.882812"/>
      <use xlink:href="#DejaVuSans-63" x="561.669922"/>
      <use xlink:href="#DejaVuSans-72" x="616.650391"/>
      <use xlink:href="#DejaVuSans-6f" x="655.513672"/>
      <use xlink:href="#DejaVuSans-73" x="716.695312"/>
      <use xlink:href="#DejaVuSans-73" x="768.794922"/>
      <use xlink:href="#DejaVuSans-6c" x="820.894531"/>
      <use xlink:href="#DejaVuSans-69" x="848.677734"/>
      <use xlink:href="#DejaVuSans-6e" x="876.460938"/>
      <use xlink:href="#DejaVuSans-6b" x="939.839844"/>
      <use xlink:href="#DejaVuSans-73" x="997.75"/>
     </g>
    </g>
   </g>
   <g id="patch_3">
    <path d="M 57.6 307.584 
L 57.6 41.472 
" style="fill: none; stroke: #000000; stroke-width: 0.8; stroke-linejoin: miter; stroke-linecap: square"/>
   </g>
   <g id="patch_4">
    <path d="M 414.72 307.584 
L 414.72 41.472 
" style="fill: none; stroke: #000000; stroke-width: 0.8; stroke-linejoin: miter; stroke-linecap: square"/>
   </g>
   <g id="patch_5">
    <path d="M 57.6 307.584 
L 414.72 307.584 
" style="fill: none; stroke: #000000; stroke-width: 0.8; stroke-linejoin: miter; stroke-linecap: square"/>
   </g>
   <g id="patch_6">
    <path d="M 57.6 41.472 
L 414.72 41.472 
" style="fill: none; stroke: #000000; stroke-width: 0.8; stroke-linejoin: miter; stroke-linecap: square"/>
   </g>
   <g id="legend_1">
    <g id="patch_7">
     <path d="M 278.598125 93.506375 
L 407.72 93.506375 
Q 409.72 93.506375 409.72 91.506375 
L 409.72 48.472 
Q 409.72 46.472 407.72 46.472 
L 278.598125 46.472 
Q 276.598125 46.472 276.598125 48.472 
L 276.598125 91.506375 
Q 276.598125 93.506375 278.598125 93.506375 
z
" style="fill: #ffffff; opacity: 0.8; stroke: #cccccc; stroke-linejoin: miter"/>
    </g>
    <g id="patch_8">
     <path d="M 280.598125 58.070438 
L 300.598125 58.070438 
L 300.598125 51.070438 
L 280.598125 51.070438 
z
" style="fill: #008000"/>
    </g>
    <g id="text_13">
     <!-- correct -->
     <g transform="translate(308.598125 58.070438)scale(0.1 -0.1)">
      <defs>
       <path id="DejaVuSans-74" d="M 1172 4494 
L 1172 3500 
L 2356 3500 
L 2356 3053 
L 1172 3053 
L 1172 1153 
Q 1172 725 1289 603 
Q 1406 481 1766 481 
L 2356 481 
L 2356 0 
L 1766 0 
Q 1100 0 847 248 
Q 594 497 594 1153 
L 594 3053 
L 172 3053 
L 172 3500 
L 594 3500 
L 594 4494 
L 1172 4494 
z
" transform="scale(0.015625)"/>
      </defs>
      <use xlink:href="#DejaVuSans-63"/>
      <use xlink:href="#DejaVuSans-6f" x="54.980469"/>
      <use xlink:href="#DejaVuSans-72" x="116.162109"/>
      <use xlink:href="#DejaVuSans-72" x="155.525391"/>
      <use xlink:href="#DejaVuSans-65" x="194.388672"/>
      <use xlink:href="#DejaVuSans-63" x="255.912109"/>
      <use xlink:href="#DejaVuSans-74" x="310.892578"/>
     </g>
    </g>
    <g id="patch_9">
     <path d="M 280.598125 72.748563 
L 300.598125 72.748563 
L 300.598125 65.748563 
L 280.598125 65.748563 
z
" style="fill: #7cfc00"/>
    </g>
    <g id="text_14">
     <!-- correct homeotypic -->
     <g transform="translate(308.598125 72.748563)scale(0.1 -0.1)">
      <defs>
       <path id="DejaVuSans-68" d="M 3513 2113 
L 3513 0 
L 2938 0 
L 2938 2094 
Q 2938 2591 2744 2837 
Q 2550 3084 2163 3084 
Q 1697 3084 1428 2787 
Q 1159 2491 1159 1978 
L 1159 0 
L 581 0 
L 581 4863 
L 1159 4863 
L 1159 2956 
Q 1366 3272 1645 3428 
Q 1925 3584 2291 3584 
Q 2894 3584 3203 3211 
Q 3513 2838 3513 2113 
z
" transform="scale(0.015625)"/>
       <path id="DejaVuSans-79" d="M 2059 -325 
Q 1816 -950 1584 -1140 
Q 1353 -1331 966 -1331 
L 506 -1331 
L 506 -850 
L 844 -850 
Q 1081 -850 1212 -737 
Q 1344 -625 1503 -206 
L 1606 56 
L 191 3500 
L 800 3500 
L 1894 763 
L 2988 3500 
L 3597 3500 
L 2059 -325 
z
" transform="scale(0.015625)"/>
       <path id="DejaVuSans-70" d="M 1159 525 
L 1159 -1331 
L 581 -1331 
L 581 3500 
L 1159 3500 
L 1159 2969 
Q 1341 3281 1617 3432 
Q 1894 3584 2278 3584 
Q 2916 3584 3314 3078 
Q 3713 2572 3713 1747 
Q 3713 922 3314 415 
Q 2916 -91 2278 -91 
Q 1894 -91 1617 61 
Q 1341 213 1159 525 
z
M 3116 1747 
Q 3116 2381 2855 2742 
Q 2594 3103 2138 3103 
Q 1681 3103 1420 2742 
Q 1159 2381 1159 1747 
Q 1159 1113 1420 752 
Q 1681 391 2138 391 
Q 2594 391 2855 752 
Q 3116 1113 3116 1747 
z
" transform="scale(0.015625)"/>
      </defs>
      <use xlink:href="#DejaVuSans-63"/>
      <use xlink:href="#DejaVuSans-6f" x="54.980469"/>
      <use xlink:href="#DejaVuSans-72" x="116.162109"/>
      <use xlink:href="#DejaVuSans-72" x="155.525391"/>
      <use xlink:href="#DejaVuSans-65" x="194.388672"/>
      <use xlink:href="#DejaVuSans-63" x="255.912109"/>
      <use xlink:href="#DejaVuSans-74" x="310.892578"/>
      <use xlink:href="#DejaVuSans-20" x="350.101562"/>
      <use xlink:href="#DejaVuSans-68" x="381.888672"/>
      <use xlink:href="#DejaVuSans-6f" x="445.267578"/>
      <use xlink:href="#DejaVuSans-6d" x="506.449219"/>
      <use xlink:href="#DejaVuSans-65" x="603.861328"/>
      <use xlink:href="#DejaVuSans-6f" x="665.384766"/>
      <use xlink:href="#DejaVuSans-74" x="726.566406"/>
      <use xlink:href="#DejaVuSans-79" x="765.775391"/>
      <use xlink:href="#DejaVuSans-70" x="824.955078"/>
      <use xlink:href="#DejaVuSans-69" x="888.431641"/>
      <use xlink:href="#DejaVuSans-63" x="916.214844"/>
     </g>
    </g>
    <g id="patch_10">
     <path d="M 280.598125 87.426688 
L 300.598125 87.426688 
L 300.598125 80.426688 
L 280.598125 80.426688 
z
" style="fill: #ff0000"/>
    </g>
    <g id="text_15">
     <!-- false -->
     <g transform="translate(308.598125 87.426688)scale(0.1 -0.1)">
      <defs>
       <path id="DejaVuSans-61" d="M 2194 1759 
Q 1497 1759 1228 1600 
Q 959 1441 959 1056 
Q 959 750 1161 570 
Q 1363 391 1709 391 
Q 2188 391 2477 730 
Q 2766 1069 2766 1631 
L 2766 1759 
L 2194 1759 
z
M 3341 1997 
L 3341 0 
L 2766 0 
L 2766 531 
Q 2569 213 2275 61 
Q 1981 -91 1556 -91 
Q 1019 -91 701 211 
Q 384 513 384 1019 
Q 384 1609 779 1909 
Q 1175 2209 1959 2209 
L 2766 2209 
L 2766 2266 
Q 2766 2663 2505 2880 
Q 2244 3097 1772 3097 
Q 1472 3097 1187 3025 
Q 903 2953 641 2809 
L 641 3341 
Q 956 3463 1253 3523 
Q 1550 3584 1831 3584 
Q 2591 3584 2966 3190 
Q 3341 2797 3341 1997 
z
" transform="scale(0.015625)"/>
      </defs>
      <use xlink:href="#DejaVuSans-66"/>
      <use xlink:href="#DejaVuSans-61" x="35.205078"/>
      <use xlink:href="#DejaVuSans-6c" x="96.484375"/>
      <use xlink:href="#DejaVuSans-73" x="124.267578"/>
      <use xlink:href="#DejaVuSans-65" x="176.367188"/>
     </g>
    </g>
   </g>
  </g>
 </g>
 <defs>
  <clipPath id="pfbcf05fd41">
   <rect x="57.6" y="41.472" width="357.12" height="266.112"/>
  </clipPath>
 </defs>
</svg>
