<?xml version="1.0" encoding="utf-8" standalone="no"?>
<!DOCTYPE svg PUBLIC "-//W3C//DTD SVG 1.1//EN"
  "http://www.w3.org/Graphics/SVG/1.1/DTD/svg11.dtd">
<svg xmlns:xlink="http://www.w3.org/1999/xlink" width="460.8pt" height="345.6pt" viewBox="0 0 460.8 345.6" xmlns="http://www.w3.org/2000/svg" version="1.1">
 <metadata>
  <rdf:RDF xmlns:dc="http://purl.org/dc/elements/1.1/" xmlns:cc="http://creativecommons.org/ns#" xmlns:rdf="http://www.w3.org/1999/02/22-rdf-syntax-ns#">
   <cc:Work>
    <dc:type rdf:resource="http://purl.org/dc/dcmitype/StillImage"/>
    <dc:date>2022-07-27T13:28:59.184988</dc:date>
    <dc:format>image/svg+xml</dc:format>
    <dc:creator>
     <cc:Agent>
      <dc:title>Matplotlib v3.5.1, https://matplotlib.org/</dc:title>
     </cc:Agent>
    </dc:creator>
   </cc:Work>
  </rdf:RDF>
 </metadata>
 <defs>
  <style type="text/css">*{stroke-linejoin: round; stroke-linecap: butt}</style>
 </defs>
 <g id="figure_1">
  <g id="patch_1">
   <path d="M 0 345.6 
L 460.8 345.6 
L 460.8 0 
L 0 0 
z
" style="fill: #ffffff"/>
  </g>
  <g id="axes_1">
   <g id="patch_2">
    <path d="M 57.6 307.584 
L 414.72 307.584 
L 414.72 41.472 
L 57.6 41.472 
z
" style="fill: #ffffff"/>
   </g>
   <g id="PolyCollection_1">
    <path d="M 73.832727 133.371358 
L 73.832727 307.584 
L 74.09558 307.584 
L 74.234738 307.584 
L 74.296586 307.584 
L 74.513053 307.584 
L 74.543977 307.584 
L 74.574901 307.584 
L 74.667673 307.584 
L 74.80683 307.584 
L 75.116069 307.584 
L 75.301612 307.584 
L 75.456232 307.584 
L 75.641775 307.584 
L 75.981938 307.584 
L 76.059248 307.584 
L 76.090172 307.584 
L 76.167482 307.584 
L 76.291177 307.584 
L 76.306639 307.584 
L 76.353025 307.584 
L 76.461259 307.584 
L 76.600416 307.584 
L 76.739574 307.584 
L 76.755036 307.584 
L 76.816883 307.584 
L 76.847807 307.584 
L 77.141584 307.584 
L 77.280742 307.584 
L 77.373514 307.584 
L 77.589981 307.584 
L 77.605443 307.584 
L 77.729138 307.584 
L 77.760062 307.584 
L 78.131149 307.584 
L 78.285769 307.584 
L 78.301231 307.584 
L 78.548622 307.584 
L 78.579546 307.584 
L 78.826937 307.584 
L 78.857861 307.584 
L 79.074328 307.584 
L 79.491801 307.584 
L 79.615496 307.584 
L 79.677344 307.584 
L 79.692806 307.584 
L 80.218512 307.584 
L 80.605061 307.584 
L 80.682371 307.584 
L 80.9143 307.584 
L 80.976148 307.584 
L 81.053458 307.584 
L 81.656474 307.584 
L 82.02756 307.584 
L 82.491419 307.584 
L 82.568729 307.584 
L 82.862506 307.584 
L 83.171745 307.584 
L 83.233592 307.584 
L 83.29544 307.584 
L 83.604679 307.584 
L 83.836608 307.584 
L 84.130385 307.584 
L 84.161309 307.584 
L 84.223157 307.584 
L 84.300467 307.584 
L 84.516934 307.584 
L 84.764325 307.584 
L 84.872559 307.584 
L 85.058102 307.584 
L 85.181798 307.584 
L 85.336417 307.584 
L 85.815738 307.584 
L 86.295058 307.584 
L 86.325982 307.584 
L 86.526987 307.584 
L 86.789841 307.584 
L 87.191851 307.584 
L 87.454704 307.584 
L 87.485628 307.584 
L 87.593862 307.584 
L 87.717558 307.584 
L 87.934025 307.584 
L 88.413345 307.584 
L 88.707122 307.584 
L 88.92359 307.584 
L 89.047285 307.584 
L 90.021388 307.584 
L 90.083236 307.584 
L 90.825409 307.584 
L 90.918181 307.584 
L 91.490273 307.584 
L 91.629431 307.584 
L 92.387066 307.584 
L 92.4953 307.584 
L 92.634457 307.584 
L 92.711767 307.584 
L 92.789077 307.584 
L 93.12924 307.584 
L 93.60856 307.584 
L 93.964185 307.584 
L 94.056957 307.584 
L 94.381658 307.584 
L 95.232065 307.584 
L 96.190706 307.584 
L 96.268015 307.584 
L 97.381276 307.584 
L 97.535895 307.584 
L 97.551357 307.584 
L 97.876058 307.584 
L 98.850161 307.584 
L 99.901573 307.584 
L 100.118041 307.584 
L 100.597361 307.584 
L 100.736519 307.584 
L 100.937524 307.584 
L 100.968448 307.584 
L 101.231301 307.584 
L 101.324073 307.584 
L 101.571464 307.584 
L 102.715648 307.584 
L 103.210431 307.584 
L 103.566055 307.584 
L 103.937142 307.584 
L 104.215457 307.584 
L 104.756625 307.584 
L 105.297794 307.584 
L 105.560647 307.584 
L 106.148201 307.584 
L 107.09138 307.584 
L 107.740782 307.584 
L 108.405645 307.584 
L 108.683961 307.584 
L 109.333362 307.584 
L 109.673525 307.584 
L 109.967302 307.584 
L 110.121922 307.584 
L 110.168308 307.584 
L 110.307465 307.584 
L 110.972329 307.584 
L 112.518524 307.584 
L 113.137002 307.584 
L 113.508089 307.584 
L 113.894637 307.584 
L 113.910099 307.584 
L 114.482191 307.584 
L 114.745045 307.584 
L 114.837816 307.584 
L 116.832408 307.584 
L 117.234418 307.584 
L 119.460939 307.584 
L 119.507325 307.584 
L 119.677406 307.584 
L 119.78564 307.584 
L 120.574199 307.584 
L 121.239063 307.584 
L 122.893492 307.584 
L 123.388274 307.584 
L 123.51197 307.584 
L 123.944904 307.584 
L 124.099524 307.584 
L 124.269605 307.584 
L 124.424225 307.584 
L 125.166398 307.584 
L 125.630257 307.584 
L 126.171425 307.584 
L 126.480664 307.584 
L 126.820827 307.584 
L 127.655772 307.584 
L 127.748544 307.584 
L 129.433896 307.584 
L 129.820445 307.584 
L 130.686314 307.584 
L 131.644955 307.584 
L 132.07789 307.584 
L 132.263433 307.584 
L 132.526286 307.584 
L 134.876502 307.584 
L 135.742372 307.584 
L 137.041175 307.584 
L 138.154436 307.584 
L 138.525522 307.584 
L 139.252234 307.584 
L 139.453239 307.584 
L 141.076744 307.584 
L 141.509679 307.584 
L 143.828971 307.584 
L 143.859895 307.584 
L 144.555683 307.584 
L 144.787612 307.584 
L 145.081389 307.584 
L 145.205084 307.584 
L 146.225573 307.584 
L 147.215138 307.584 
L 147.462529 307.584 
L 147.555301 307.584 
L 148.730409 307.584 
L 150.09106 307.584 
L 151.266168 307.584 
L 152.085652 307.584 
L 152.62682 307.584 
L 153.044293 307.584 
L 153.276222 307.584 
L 153.508151 307.584 
L 153.801928 307.584 
L 154.018395 307.584 
L 154.729645 307.584 
L 155.580052 307.584 
L 156.476845 307.584 
L 156.646927 307.584 
L 157.94573 307.584 
L 158.115812 307.584 
L 158.17766 307.584 
L 159.089915 307.584 
L 159.878474 307.584 
L 160.033094 307.584 
L 160.806191 307.584 
L 161.563827 307.584 
L 161.687522 307.584 
L 163.883119 307.584 
L 164.903608 307.584 
L 165.073689 307.584 
L 165.831324 307.584 
L 167.980535 307.584 
L 168.398008 307.584 
L 168.645399 307.584 
L 168.954638 307.584 
L 169.68135 307.584 
L 170.516295 307.584 
L 171.042001 307.584 
L 171.103849 307.584 
L 171.567708 307.584 
L 172.309881 307.584 
L 173.206674 307.584 
L 174.691021 307.584 
L 175.031184 307.584 
L 175.093032 307.584 
L 175.649662 307.584 
L 176.407298 307.584 
L 177.0567 307.584 
L 177.304091 307.584 
L 178.664742 307.584 
L 179.267758 307.584 
L 179.36053 307.584 
L 179.700693 307.584 
L 179.870774 307.584 
L 181.246888 307.584 
L 181.494279 307.584 
L 182.545691 307.584 
L 182.978626 307.584 
L 183.287865 307.584 
L 183.581642 307.584 
L 183.968191 307.584 
L 184.432049 307.584 
L 184.725826 307.584 
L 185.004141 307.584 
L 185.839087 307.584 
L 185.978244 307.584 
L 186.210173 307.584 
L 186.967809 307.584 
L 187.462591 307.584 
L 187.524439 307.584 
L 187.586287 307.584 
L 187.694521 307.584 
L 188.266613 307.584 
L 188.282075 307.584 
L 189.03971 307.584 
L 190.261204 307.584 
L 191.699165 307.584 
L 191.884709 307.584 
L 192.255796 307.584 
L 192.657806 307.584 
L 193.214436 307.584 
L 193.693757 307.584 
L 193.863838 307.584 
L 194.760631 307.584 
L 195.363647 307.584 
L 195.518267 307.584 
L 195.765658 307.584 
L 196.693375 307.584 
L 196.878918 307.584 
L 197.420087 307.584 
L 197.466472 307.584 
L 197.853021 307.584 
L 198.038564 307.584 
L 198.23957 307.584 
L 198.31688 307.584 
L 199.321906 307.584 
L 200.095004 307.584 
L 200.249623 307.584 
L 200.558862 307.584 
L 200.574324 307.584 
L 200.914487 307.584 
L 202.336986 307.584 
L 202.909078 307.584 
L 203.110084 307.584 
L 203.249241 307.584 
L 204.331578 307.584 
L 205.243833 307.584 
L 208.104293 307.584 
L 208.521766 307.584 
L 209.464945 307.584 
L 210.346276 307.584 
L 210.732825 307.584 
L 211.08845 307.584 
L 212.139862 307.584 
L 212.773802 307.584 
L 213.376818 307.584 
L 214.907551 307.584 
L 215.263176 307.584 
L 215.92804 307.584 
L 216.531056 307.584 
L 216.948528 307.584 
L 217.443311 307.584 
L 217.876245 307.584 
L 218.324642 307.584 
L 219.406978 307.584 
L 219.731679 307.584 
L 219.747141 307.584 
L 220.844939 307.584 
L 221.664423 307.584 
L 222.143743 307.584 
L 222.885917 307.584 
L 223.581704 307.584 
L 224.138335 307.584 
L 224.524883 307.584 
L 224.648579 307.584 
L 225.112437 307.584 
L 225.591758 307.584 
L 227.107029 307.584 
L 227.895588 307.584 
L 228.081132 307.584 
L 229.673712 307.584 
L 230.415886 307.584 
L 231.575532 307.584 
L 231.962081 307.584 
L 232.487787 307.584 
L 233.090803 307.584 
L 233.199037 307.584 
L 233.987596 307.584 
L 234.544226 307.584 
L 235.92034 307.584 
L 235.966726 307.584 
L 236.183193 307.584 
L 236.384198 307.584 
L 237.311915 307.584 
L 240.04868 307.584 
L 241.007321 307.584 
L 241.069169 307.584 
L 241.131017 307.584 
L 241.672185 307.584 
L 241.703109 307.584 
L 241.935038 307.584 
L 243.635852 307.584 
L 244.718189 307.584 
L 245.243895 307.584 
L 246.913786 307.584 
L 246.960171 307.584 
L 247.90335 307.584 
L 249.356774 307.584 
L 250.037099 307.584 
L 250.145333 307.584 
L 252.279082 307.584 
L 252.310006 307.584 
L 253.407804 307.584 
L 254.134516 307.584 
L 254.350983 307.584 
L 255.557015 307.584 
L 255.928102 307.584 
L 256.330113 307.584 
L 258.123699 307.584 
L 259.08234 307.584 
L 259.63897 307.584 
L 259.669894 307.584 
L 260.473915 307.584 
L 262.02011 307.584 
L 262.607664 307.584 
L 263.164294 307.584 
L 264.602255 307.584 
L 265.328967 307.584 
L 266.071141 307.584 
L 266.488613 307.584 
L 269.720161 307.584 
L 270.43141 307.584 
L 270.493258 307.584 
L 271.080812 307.584 
L 271.683828 307.584 
L 272.719779 307.584 
L 273.755729 307.584 
L 273.786653 307.584 
L 273.910349 307.584 
L 274.590675 307.584 
L 279.55396 307.584 
L 280.945536 307.584 
L 281.084693 307.584 
L 282.290725 307.584 
L 283.883306 307.584 
L 283.898768 307.584 
L 284.656403 307.584 
L 287.083929 307.584 
L 287.393168 307.584 
L 288.862054 307.584 
L 290.841183 307.584 
L 295.680773 307.584 
L 296.314713 307.584 
L 296.6858 307.584 
L 297.659903 307.584 
L 300.458515 307.584 
L 300.613135 307.584 
L 301.107917 307.584 
L 301.154303 307.584 
L 304.865171 307.584 
L 306.071203 307.584 
L 306.395904 307.584 
L 306.674219 307.584 
L 306.937072 307.584 
L 307.184463 307.584 
L 307.818403 307.584 
L 311.390113 307.584 
L 312.302368 307.584 
L 313.477477 307.584 
L 317.111035 307.584 
L 320.265272 307.584 
L 320.976522 307.584 
L 322.244402 307.584 
L 323.481358 307.584 
L 325.104862 307.584 
L 330.532006 307.584 
L 331.366952 307.584 
L 331.598881 307.584 
L 332.572984 307.584 
L 332.743065 307.584 
L 334.196488 307.584 
L 336.855944 307.584 
L 347.230911 307.584 
L 352.163273 307.584 
L 354.111479 307.584 
L 369.557966 307.584 
L 387.04543 307.584 
L 389.967739 307.584 
L 398.487273 307.584 
L 398.487273 307.14628 
L 398.487273 307.14628 
L 389.967739 306.70856 
L 387.04543 306.270839 
L 369.557966 305.395399 
L 354.111479 304.957679 
L 352.163273 304.519959 
L 347.230911 304.082238 
L 336.855944 303.644518 
L 334.196488 303.206798 
L 332.743065 302.769078 
L 332.572984 302.331358 
L 331.598881 301.893637 
L 331.366952 301.455917 
L 330.532006 300.580477 
L 325.104862 299.705036 
L 323.481358 299.267316 
L 322.244402 298.829596 
L 320.976522 298.391876 
L 320.265272 297.954155 
L 317.111035 297.516435 
L 313.477477 297.078715 
L 312.302368 296.640995 
L 311.390113 296.203275 
L 307.818403 295.765554 
L 307.184463 295.327834 
L 306.937072 294.890114 
L 306.674219 294.014674 
L 306.395904 293.576953 
L 306.071203 293.139233 
L 304.865171 292.701513 
L 301.154303 292.263793 
L 301.107917 291.826073 
L 300.613135 291.388352 
L 300.458515 290.950632 
L 297.659903 290.512912 
L 296.6858 290.075192 
L 296.314713 289.637472 
L 295.680773 289.199751 
L 290.841183 288.762031 
L 288.862054 288.324311 
L 287.393168 287.886591 
L 287.083929 287.44887 
L 284.656403 287.01115 
L 283.898768 286.57343 
L 283.883306 286.13571 
L 282.290725 285.69799 
L 281.084693 285.260269 
L 280.945536 284.822549 
L 279.55396 283.947109 
L 274.590675 283.071668 
L 273.910349 282.633948 
L 273.786653 282.196228 
L 273.755729 281.758508 
L 272.719779 280.883067 
L 271.683828 280.445347 
L 271.080812 280.007627 
L 270.493258 279.569907 
L 270.43141 279.132187 
L 269.720161 278.256746 
L 266.488613 277.819026 
L 266.071141 277.381306 
L 265.328967 276.943585 
L 264.602255 276.505865 
L 263.164294 276.068145 
L 262.607664 275.630425 
L 262.02011 275.192705 
L 260.473915 274.754984 
L 259.669894 274.317264 
L 259.63897 273.879544 
L 259.08234 273.441824 
L 258.123699 273.004104 
L 256.330113 272.566383 
L 255.928102 272.128663 
L 255.557015 271.253223 
L 254.350983 270.815503 
L 254.134516 270.377782 
L 253.407804 269.940062 
L 252.310006 269.502342 
L 252.279082 269.064622 
L 250.145333 268.626902 
L 250.037099 268.189181 
L 249.356774 267.751461 
L 247.90335 267.313741 
L 246.960171 266.438301 
L 246.913786 266.00058 
L 245.243895 265.56286 
L 244.718189 265.12514 
L 243.635852 264.68742 
L 241.935038 264.249699 
L 241.703109 263.811979 
L 241.672185 263.374259 
L 241.131017 262.936539 
L 241.069169 262.498819 
L 241.007321 261.623378 
L 240.04868 261.185658 
L 237.311915 259.872497 
L 236.384198 259.434777 
L 236.183193 258.997057 
L 235.966726 258.559337 
L 235.92034 258.121617 
L 234.544226 257.683896 
L 233.987596 257.246176 
L 233.199037 256.808456 
L 233.090803 256.370736 
L 232.487787 255.495295 
L 231.962081 255.057575 
L 231.575532 254.619855 
L 230.415886 254.182135 
L 229.673712 253.744415 
L 228.081132 253.306694 
L 227.895588 252.868974 
L 227.107029 251.993534 
L 225.591758 251.555813 
L 225.112437 250.680373 
L 224.648579 250.242653 
L 224.524883 249.367212 
L 224.138335 248.929492 
L 223.581704 248.491772 
L 222.885917 248.054052 
L 222.143743 247.616332 
L 221.664423 246.740891 
L 220.844939 245.865451 
L 219.747141 245.427731 
L 219.731679 244.55229 
L 219.406978 244.11457 
L 218.324642 243.67685 
L 217.876245 243.23913 
L 217.443311 242.801409 
L 216.948528 241.488249 
L 216.531056 241.050528 
L 215.92804 240.612808 
L 215.263176 240.175088 
L 214.907551 239.737368 
L 213.376818 239.299648 
L 212.773802 238.424207 
L 212.139862 237.986487 
L 211.08845 237.548767 
L 210.732825 236.673326 
L 210.346276 236.235606 
L 209.464945 235.797886 
L 208.521766 235.360166 
L 208.104293 234.922446 
L 205.243833 234.484725 
L 204.331578 234.047005 
L 203.249241 233.609285 
L 203.110084 233.171565 
L 202.909078 232.733845 
L 202.336986 232.296124 
L 200.914487 231.858404 
L 200.574324 231.420684 
L 200.558862 230.545244 
L 200.249623 230.107523 
L 200.095004 229.669803 
L 199.321906 229.232083 
L 198.31688 228.794363 
L 198.23957 227.918922 
L 198.038564 227.481202 
L 197.853021 227.043482 
L 197.466472 226.605762 
L 197.420087 226.168041 
L 196.878918 225.730321 
L 196.693375 224.854881 
L 195.765658 224.417161 
L 195.518267 223.97944 
L 195.363647 223.54172 
L 194.760631 223.104 
L 193.863838 222.66628 
L 193.693757 222.22856 
L 193.214436 221.790839 
L 192.657806 221.353119 
L 192.255796 220.915399 
L 191.884709 220.477679 
L 191.699165 219.164518 
L 190.261204 218.726798 
L 189.03971 218.289078 
L 188.282075 217.851358 
L 188.266613 216.975917 
L 187.694521 216.538197 
L 187.586287 216.100477 
L 187.524439 215.662756 
L 187.462591 215.225036 
L 186.967809 214.787316 
L 186.210173 214.349596 
L 185.978244 213.911876 
L 185.839087 213.474155 
L 185.004141 213.036435 
L 184.725826 212.598715 
L 184.432049 212.160995 
L 183.968191 211.723275 
L 183.581642 210.847834 
L 183.287865 210.847834 
L 182.978626 209.534674 
L 182.545691 209.096953 
L 181.494279 208.659233 
L 181.246888 208.221513 
L 179.870774 207.783793 
L 179.700693 207.346073 
L 179.36053 206.908352 
L 179.267758 206.470632 
L 178.664742 206.032912 
L 177.304091 205.595192 
L 177.0567 205.157472 
L 176.407298 204.719751 
L 175.649662 204.282031 
L 175.093032 202.96887 
L 175.031184 202.53115 
L 174.691021 202.09343 
L 173.206674 201.65571 
L 172.309881 201.21799 
L 171.567708 200.780269 
L 171.103849 200.342549 
L 171.042001 199.904829 
L 170.516295 199.904829 
L 169.68135 199.467109 
L 168.954638 199.029389 
L 168.645399 198.591668 
L 168.398008 198.153948 
L 167.980535 197.716228 
L 165.831324 196.840788 
L 165.073689 196.403067 
L 164.903608 195.965347 
L 163.883119 195.089907 
L 161.687522 194.652187 
L 161.563827 194.214466 
L 160.806191 193.776746 
L 160.033094 193.339026 
L 159.878474 192.463585 
L 159.089915 192.025865 
L 158.17766 191.588145 
L 158.115812 191.150425 
L 157.94573 190.274984 
L 156.646927 190.274984 
L 156.476845 189.837264 
L 155.580052 189.399544 
L 154.729645 188.961824 
L 154.018395 188.524104 
L 153.801928 188.086383 
L 153.508151 187.648663 
L 153.276222 187.210943 
L 153.044293 186.335503 
L 152.62682 185.897782 
L 152.085652 185.460062 
L 151.266168 185.022342 
L 150.09106 184.146902 
L 148.730409 183.271461 
L 147.555301 182.833741 
L 147.462529 182.396021 
L 147.215138 181.958301 
L 146.225573 181.52058 
L 145.205084 181.08286 
L 145.081389 180.64514 
L 144.787612 179.769699 
L 144.555683 179.331979 
L 143.859895 178.894259 
L 143.828971 178.456539 
L 141.509679 178.018819 
L 141.076744 177.581098 
L 139.453239 177.143378 
L 139.252234 176.705658 
L 138.525522 176.267938 
L 138.154436 175.830218 
L 137.041175 175.392497 
L 135.742372 174.954777 
L 134.876502 174.517057 
L 132.526286 174.079337 
L 132.263433 173.641617 
L 132.07789 173.203896 
L 131.644955 172.766176 
L 130.686314 171.890736 
L 129.820445 171.453016 
L 129.433896 171.453016 
L 127.748544 171.015295 
L 127.655772 170.139855 
L 126.820827 169.702135 
L 126.480664 169.702135 
L 126.171425 169.702135 
L 125.630257 169.264415 
L 125.166398 168.826694 
L 124.424225 167.951254 
L 124.269605 167.513534 
L 124.099524 167.075813 
L 123.944904 166.638093 
L 123.51197 166.200373 
L 123.388274 165.762653 
L 122.893492 165.324933 
L 121.239063 164.011772 
L 120.574199 164.011772 
L 119.78564 163.136332 
L 119.677406 163.136332 
L 119.507325 162.698611 
L 119.460939 162.260891 
L 117.234418 161.823171 
L 116.832408 161.385451 
L 114.837816 160.947731 
L 114.745045 160.947731 
L 114.482191 160.51001 
L 113.910099 160.07229 
L 113.894637 159.63457 
L 113.508089 159.19685 
L 113.137002 159.19685 
L 112.518524 158.75913 
L 110.972329 158.75913 
L 110.307465 158.321409 
L 110.168308 158.321409 
L 110.121922 157.883689 
L 109.967302 157.445969 
L 109.673525 157.008249 
L 109.333362 156.570528 
L 108.683961 156.132808 
L 108.405645 156.132808 
L 107.740782 156.132808 
L 107.09138 156.132808 
L 106.148201 155.695088 
L 105.560647 155.257368 
L 105.297794 154.381927 
L 104.756625 153.944207 
L 104.215457 153.506487 
L 103.937142 153.068767 
L 103.566055 153.068767 
L 103.210431 152.631047 
L 102.715648 152.193326 
L 101.571464 151.317886 
L 101.324073 150.880166 
L 101.231301 150.880166 
L 100.968448 150.880166 
L 100.937524 150.442446 
L 100.736519 150.442446 
L 100.597361 150.442446 
L 100.118041 149.129285 
L 99.901573 148.691565 
L 98.850161 148.691565 
L 97.876058 148.691565 
L 97.551357 148.253845 
L 97.535895 148.253845 
L 97.381276 147.816124 
L 96.268015 147.378404 
L 96.190706 147.378404 
L 95.232065 146.940684 
L 94.381658 146.502964 
L 94.056957 146.502964 
L 93.964185 146.502964 
L 93.60856 146.065244 
L 93.12924 145.627523 
L 92.789077 145.189803 
L 92.711767 145.189803 
L 92.634457 145.189803 
L 92.4953 145.189803 
L 92.387066 145.189803 
L 91.629431 145.189803 
L 91.490273 144.752083 
L 90.918181 144.752083 
L 90.825409 144.314363 
L 90.083236 144.314363 
L 90.021388 144.314363 
L 89.047285 144.314363 
L 88.92359 143.438922 
L 88.707122 143.438922 
L 88.413345 143.438922 
L 87.934025 143.438922 
L 87.717558 143.438922 
L 87.593862 143.001202 
L 87.485628 143.001202 
L 87.454704 143.001202 
L 87.191851 143.001202 
L 86.789841 143.001202 
L 86.526987 143.001202 
L 86.325982 142.563482 
L 86.295058 142.563482 
L 85.815738 141.688041 
L 85.336417 141.250321 
L 85.181798 140.812601 
L 85.058102 140.374881 
L 84.872559 140.374881 
L 84.764325 139.937161 
L 84.516934 139.937161 
L 84.300467 139.49944 
L 84.223157 139.49944 
L 84.161309 139.06172 
L 84.130385 139.06172 
L 83.836608 138.624 
L 83.604679 138.624 
L 83.29544 138.18628 
L 83.233592 137.74856 
L 83.171745 137.74856 
L 82.862506 137.74856 
L 82.568729 137.74856 
L 82.491419 137.310839 
L 82.02756 137.310839 
L 81.656474 137.310839 
L 81.053458 137.310839 
L 80.976148 137.310839 
L 80.9143 137.310839 
L 80.682371 137.310839 
L 80.605061 137.310839 
L 80.218512 137.310839 
L 79.692806 137.310839 
L 79.677344 136.873119 
L 79.615496 136.873119 
L 79.491801 136.873119 
L 79.074328 136.435399 
L 78.857861 136.435399 
L 78.826937 136.435399 
L 78.579546 135.997679 
L 78.548622 135.997679 
L 78.301231 135.997679 
L 78.285769 135.997679 
L 78.131149 135.997679 
L 77.760062 135.997679 
L 77.729138 135.997679 
L 77.605443 135.997679 
L 77.589981 135.997679 
L 77.373514 135.997679 
L 77.280742 135.997679 
L 77.141584 135.559959 
L 76.847807 135.559959 
L 76.816883 135.122238 
L 76.755036 134.684518 
L 76.739574 134.684518 
L 76.600416 134.246798 
L 76.461259 134.246798 
L 76.353025 134.246798 
L 76.306639 134.246798 
L 76.291177 134.246798 
L 76.167482 133.809078 
L 76.090172 133.809078 
L 76.059248 133.809078 
L 75.981938 133.809078 
L 75.641775 133.809078 
L 75.456232 133.809078 
L 75.301612 133.809078 
L 75.116069 133.809078 
L 74.80683 133.809078 
L 74.667673 133.809078 
L 74.574901 133.809078 
L 74.543977 133.809078 
L 74.513053 133.371358 
L 74.296586 133.371358 
L 74.234738 133.371358 
L 74.09558 133.371358 
L 73.832727 133.371358 
z
" clip-path="url(#p60e3b4245e)" style="fill: #008000"/>
   </g>
   <g id="PolyCollection_2">
    <path d="M 73.832727 133.371358 
L 73.832727 133.371358 
L 74.09558 133.371358 
L 74.234738 133.371358 
L 74.296586 133.371358 
L 74.513053 133.371358 
L 74.543977 133.809078 
L 74.574901 133.809078 
L 74.667673 133.809078 
L 74.80683 133.809078 
L 75.116069 133.809078 
L 75.301612 133.809078 
L 75.456232 133.809078 
L 75.641775 133.809078 
L 75.981938 133.809078 
L 76.059248 133.809078 
L 76.090172 133.809078 
L 76.167482 133.809078 
L 76.291177 134.246798 
L 76.306639 134.246798 
L 76.353025 134.246798 
L 76.461259 134.246798 
L 76.600416 134.246798 
L 76.739574 134.684518 
L 76.755036 134.684518 
L 76.816883 135.122238 
L 76.847807 135.559959 
L 77.141584 135.559959 
L 77.280742 135.997679 
L 77.373514 135.997679 
L 77.589981 135.997679 
L 77.605443 135.997679 
L 77.729138 135.997679 
L 77.760062 135.997679 
L 78.131149 135.997679 
L 78.285769 135.997679 
L 78.301231 135.997679 
L 78.548622 135.997679 
L 78.579546 135.997679 
L 78.826937 136.435399 
L 78.857861 136.435399 
L 79.074328 136.435399 
L 79.491801 136.873119 
L 79.615496 136.873119 
L 79.677344 136.873119 
L 79.692806 137.310839 
L 80.218512 137.310839 
L 80.605061 137.310839 
L 80.682371 137.310839 
L 80.9143 137.310839 
L 80.976148 137.310839 
L 81.053458 137.310839 
L 81.656474 137.310839 
L 82.02756 137.310839 
L 82.491419 137.310839 
L 82.568729 137.74856 
L 82.862506 137.74856 
L 83.171745 137.74856 
L 83.233592 137.74856 
L 83.29544 138.18628 
L 83.604679 138.624 
L 83.836608 138.624 
L 84.130385 139.06172 
L 84.161309 139.06172 
L 84.223157 139.49944 
L 84.300467 139.49944 
L 84.516934 139.937161 
L 84.764325 139.937161 
L 84.872559 140.374881 
L 85.058102 140.374881 
L 85.181798 140.812601 
L 85.336417 141.250321 
L 85.815738 141.688041 
L 86.295058 142.563482 
L 86.325982 142.563482 
L 86.526987 143.001202 
L 86.789841 143.001202 
L 87.191851 143.001202 
L 87.454704 143.001202 
L 87.485628 143.001202 
L 87.593862 143.001202 
L 87.717558 143.438922 
L 87.934025 143.438922 
L 88.413345 143.438922 
L 88.707122 143.438922 
L 88.92359 143.438922 
L 89.047285 144.314363 
L 90.021388 144.314363 
L 90.083236 144.314363 
L 90.825409 144.314363 
L 90.918181 144.752083 
L 91.490273 144.752083 
L 91.629431 145.189803 
L 92.387066 145.189803 
L 92.4953 145.189803 
L 92.634457 145.189803 
L 92.711767 145.189803 
L 92.789077 145.189803 
L 93.12924 145.627523 
L 93.60856 146.065244 
L 93.964185 146.502964 
L 94.056957 146.502964 
L 94.381658 146.502964 
L 95.232065 146.940684 
L 96.190706 147.378404 
L 96.268015 147.378404 
L 97.381276 147.816124 
L 97.535895 148.253845 
L 97.551357 148.253845 
L 97.876058 148.691565 
L 98.850161 148.691565 
L 99.901573 148.691565 
L 100.118041 149.129285 
L 100.597361 150.442446 
L 100.736519 150.442446 
L 100.937524 150.442446 
L 100.968448 150.880166 
L 101.231301 150.880166 
L 101.324073 150.880166 
L 101.571464 151.317886 
L 102.715648 152.193326 
L 103.210431 152.631047 
L 103.566055 153.068767 
L 103.937142 153.068767 
L 104.215457 153.506487 
L 104.756625 153.944207 
L 105.297794 154.381927 
L 105.560647 155.257368 
L 106.148201 155.695088 
L 107.09138 156.132808 
L 107.740782 156.132808 
L 108.405645 156.132808 
L 108.683961 156.132808 
L 109.333362 156.570528 
L 109.673525 157.008249 
L 109.967302 157.445969 
L 110.121922 157.883689 
L 110.168308 158.321409 
L 110.307465 158.321409 
L 110.972329 158.75913 
L 112.518524 158.75913 
L 113.137002 159.19685 
L 113.508089 159.19685 
L 113.894637 159.63457 
L 113.910099 160.07229 
L 114.482191 160.51001 
L 114.745045 160.947731 
L 114.837816 160.947731 
L 116.832408 161.385451 
L 117.234418 161.823171 
L 119.460939 162.260891 
L 119.507325 162.698611 
L 119.677406 163.136332 
L 119.78564 163.136332 
L 120.574199 164.011772 
L 121.239063 164.011772 
L 122.893492 165.324933 
L 123.388274 165.762653 
L 123.51197 166.200373 
L 123.944904 166.638093 
L 124.099524 167.075813 
L 124.269605 167.513534 
L 124.424225 167.951254 
L 125.166398 168.826694 
L 125.630257 169.264415 
L 126.171425 169.702135 
L 126.480664 169.702135 
L 126.820827 169.702135 
L 127.655772 170.139855 
L 127.748544 171.015295 
L 129.433896 171.453016 
L 129.820445 171.453016 
L 130.686314 171.890736 
L 131.644955 172.766176 
L 132.07789 173.203896 
L 132.263433 173.641617 
L 132.526286 174.079337 
L 134.876502 174.517057 
L 135.742372 174.954777 
L 137.041175 175.392497 
L 138.154436 175.830218 
L 138.525522 176.267938 
L 139.252234 176.705658 
L 139.453239 177.143378 
L 141.076744 177.581098 
L 141.509679 178.018819 
L 143.828971 178.456539 
L 143.859895 178.894259 
L 144.555683 179.331979 
L 144.787612 179.769699 
L 145.081389 180.64514 
L 145.205084 181.08286 
L 146.225573 181.52058 
L 147.215138 181.958301 
L 147.462529 182.396021 
L 147.555301 182.833741 
L 148.730409 183.271461 
L 150.09106 184.146902 
L 151.266168 185.022342 
L 152.085652 185.460062 
L 152.62682 185.897782 
L 153.044293 186.335503 
L 153.276222 187.210943 
L 153.508151 187.648663 
L 153.801928 188.086383 
L 154.018395 188.524104 
L 154.729645 188.961824 
L 155.580052 189.399544 
L 156.476845 189.837264 
L 156.646927 190.274984 
L 157.94573 190.274984 
L 158.115812 191.150425 
L 158.17766 191.588145 
L 159.089915 192.025865 
L 159.878474 192.463585 
L 160.033094 193.339026 
L 160.806191 193.776746 
L 161.563827 194.214466 
L 161.687522 194.652187 
L 163.883119 195.089907 
L 164.903608 195.965347 
L 165.073689 196.403067 
L 165.831324 196.840788 
L 167.980535 197.716228 
L 168.398008 198.153948 
L 168.645399 198.591668 
L 168.954638 199.029389 
L 169.68135 199.467109 
L 170.516295 199.904829 
L 171.042001 199.904829 
L 171.103849 200.342549 
L 171.567708 200.780269 
L 172.309881 201.21799 
L 173.206674 201.65571 
L 174.691021 202.09343 
L 175.031184 202.53115 
L 175.093032 202.96887 
L 175.649662 204.282031 
L 176.407298 204.719751 
L 177.0567 205.157472 
L 177.304091 205.595192 
L 178.664742 206.032912 
L 179.267758 206.470632 
L 179.36053 206.908352 
L 179.700693 207.346073 
L 179.870774 207.783793 
L 181.246888 208.221513 
L 181.494279 208.659233 
L 182.545691 209.096953 
L 182.978626 209.534674 
L 183.287865 210.847834 
L 183.581642 210.847834 
L 183.968191 211.723275 
L 184.432049 212.160995 
L 184.725826 212.598715 
L 185.004141 213.036435 
L 185.839087 213.474155 
L 185.978244 213.911876 
L 186.210173 214.349596 
L 186.967809 214.787316 
L 187.462591 215.225036 
L 187.524439 215.662756 
L 187.586287 216.100477 
L 187.694521 216.538197 
L 188.266613 216.975917 
L 188.282075 217.851358 
L 189.03971 218.289078 
L 190.261204 218.726798 
L 191.699165 219.164518 
L 191.884709 220.477679 
L 192.255796 220.915399 
L 192.657806 221.353119 
L 193.214436 221.790839 
L 193.693757 222.22856 
L 193.863838 222.66628 
L 194.760631 223.104 
L 195.363647 223.54172 
L 195.518267 223.97944 
L 195.765658 224.417161 
L 196.693375 224.854881 
L 196.878918 225.730321 
L 197.420087 226.168041 
L 197.466472 226.605762 
L 197.853021 227.043482 
L 198.038564 227.481202 
L 198.23957 227.918922 
L 198.31688 228.794363 
L 199.321906 229.232083 
L 200.095004 229.669803 
L 200.249623 230.107523 
L 200.558862 230.545244 
L 200.574324 231.420684 
L 200.914487 231.858404 
L 202.336986 232.296124 
L 202.909078 232.733845 
L 203.110084 233.171565 
L 203.249241 233.609285 
L 204.331578 234.047005 
L 205.243833 234.484725 
L 208.104293 234.922446 
L 208.521766 235.360166 
L 209.464945 235.797886 
L 210.346276 236.235606 
L 210.732825 236.673326 
L 211.08845 237.548767 
L 212.139862 237.986487 
L 212.773802 238.424207 
L 213.376818 239.299648 
L 214.907551 239.737368 
L 215.263176 240.175088 
L 215.92804 240.612808 
L 216.531056 241.050528 
L 216.948528 241.488249 
L 217.443311 242.801409 
L 217.876245 243.23913 
L 218.324642 243.67685 
L 219.406978 244.11457 
L 219.731679 244.55229 
L 219.747141 245.427731 
L 220.844939 245.865451 
L 221.664423 246.740891 
L 222.143743 247.616332 
L 222.885917 248.054052 
L 223.581704 248.491772 
L 224.138335 248.929492 
L 224.524883 249.367212 
L 224.648579 250.242653 
L 225.112437 250.680373 
L 225.591758 251.555813 
L 227.107029 251.993534 
L 227.895588 252.868974 
L 228.081132 253.306694 
L 229.673712 253.744415 
L 230.415886 254.182135 
L 231.575532 254.619855 
L 231.962081 255.057575 
L 232.487787 255.495295 
L 233.090803 256.370736 
L 233.199037 256.808456 
L 233.987596 257.246176 
L 234.544226 257.683896 
L 235.92034 258.121617 
L 235.966726 258.559337 
L 236.183193 258.997057 
L 236.384198 259.434777 
L 237.311915 259.872497 
L 240.04868 261.185658 
L 241.007321 261.623378 
L 241.069169 262.498819 
L 241.131017 262.936539 
L 241.672185 263.374259 
L 241.703109 263.811979 
L 241.935038 264.249699 
L 243.635852 264.68742 
L 244.718189 265.12514 
L 245.243895 265.56286 
L 246.913786 266.00058 
L 246.960171 266.438301 
L 247.90335 267.313741 
L 249.356774 267.751461 
L 250.037099 268.189181 
L 250.145333 268.626902 
L 252.279082 269.064622 
L 252.310006 269.502342 
L 253.407804 269.940062 
L 254.134516 270.377782 
L 254.350983 270.815503 
L 255.557015 271.253223 
L 255.928102 272.128663 
L 256.330113 272.566383 
L 258.123699 273.004104 
L 259.08234 273.441824 
L 259.63897 273.879544 
L 259.669894 274.317264 
L 260.473915 274.754984 
L 262.02011 275.192705 
L 262.607664 275.630425 
L 263.164294 276.068145 
L 264.602255 276.505865 
L 265.328967 276.943585 
L 266.071141 277.381306 
L 266.488613 277.819026 
L 269.720161 278.256746 
L 270.43141 279.132187 
L 270.493258 279.569907 
L 271.080812 280.007627 
L 271.683828 280.445347 
L 272.719779 280.883067 
L 273.755729 281.758508 
L 273.786653 282.196228 
L 273.910349 282.633948 
L 274.590675 283.071668 
L 279.55396 283.947109 
L 280.945536 284.822549 
L 281.084693 285.260269 
L 282.290725 285.69799 
L 283.883306 286.13571 
L 283.898768 286.57343 
L 284.656403 287.01115 
L 287.083929 287.44887 
L 287.393168 287.886591 
L 288.862054 288.324311 
L 290.841183 288.762031 
L 295.680773 289.199751 
L 296.314713 289.637472 
L 296.6858 290.075192 
L 297.659903 290.512912 
L 300.458515 290.950632 
L 300.613135 291.388352 
L 301.107917 291.826073 
L 301.154303 292.263793 
L 304.865171 292.701513 
L 306.071203 293.139233 
L 306.395904 293.576953 
L 306.674219 294.014674 
L 306.937072 294.890114 
L 307.184463 295.327834 
L 307.818403 295.765554 
L 311.390113 296.203275 
L 312.302368 296.640995 
L 313.477477 297.078715 
L 317.111035 297.516435 
L 320.265272 297.954155 
L 320.976522 298.391876 
L 322.244402 298.829596 
L 323.481358 299.267316 
L 325.104862 299.705036 
L 330.532006 300.580477 
L 331.366952 301.455917 
L 331.598881 301.893637 
L 332.572984 302.331358 
L 332.743065 302.769078 
L 334.196488 303.206798 
L 336.855944 303.644518 
L 347.230911 304.082238 
L 352.163273 304.519959 
L 354.111479 304.957679 
L 369.557966 305.395399 
L 387.04543 306.270839 
L 389.967739 306.70856 
L 398.487273 307.14628 
L 398.487273 307.14628 
L 398.487273 307.14628 
L 389.967739 306.70856 
L 387.04543 306.270839 
L 369.557966 305.395399 
L 354.111479 304.957679 
L 352.163273 304.519959 
L 347.230911 304.082238 
L 336.855944 303.644518 
L 334.196488 303.206798 
L 332.743065 302.769078 
L 332.572984 302.331358 
L 331.598881 301.893637 
L 331.366952 301.455917 
L 330.532006 300.580477 
L 325.104862 299.705036 
L 323.481358 299.267316 
L 322.244402 298.829596 
L 320.976522 298.391876 
L 320.265272 297.954155 
L 317.111035 297.516435 
L 313.477477 297.078715 
L 312.302368 296.640995 
L 311.390113 296.203275 
L 307.818403 295.765554 
L 307.184463 295.327834 
L 306.937072 294.890114 
L 306.674219 294.014674 
L 306.395904 293.576953 
L 306.071203 293.139233 
L 304.865171 292.701513 
L 301.154303 292.263793 
L 301.107917 291.826073 
L 300.613135 291.388352 
L 300.458515 290.950632 
L 297.659903 290.512912 
L 296.6858 290.075192 
L 296.314713 289.637472 
L 295.680773 289.199751 
L 290.841183 288.762031 
L 288.862054 288.324311 
L 287.393168 287.886591 
L 287.083929 287.44887 
L 284.656403 287.01115 
L 283.898768 286.57343 
L 283.883306 286.13571 
L 282.290725 285.69799 
L 281.084693 285.260269 
L 280.945536 284.822549 
L 279.55396 283.947109 
L 274.590675 283.071668 
L 273.910349 282.633948 
L 273.786653 282.196228 
L 273.755729 281.758508 
L 272.719779 280.883067 
L 271.683828 280.445347 
L 271.080812 280.007627 
L 270.493258 279.569907 
L 270.43141 279.132187 
L 269.720161 278.256746 
L 266.488613 277.819026 
L 266.071141 277.381306 
L 265.328967 276.943585 
L 264.602255 276.505865 
L 263.164294 276.068145 
L 262.607664 275.630425 
L 262.02011 275.192705 
L 260.473915 274.754984 
L 259.669894 274.317264 
L 259.63897 273.879544 
L 259.08234 273.441824 
L 258.123699 273.004104 
L 256.330113 272.566383 
L 255.928102 272.128663 
L 255.557015 271.253223 
L 254.350983 270.815503 
L 254.134516 270.377782 
L 253.407804 269.940062 
L 252.310006 269.502342 
L 252.279082 269.064622 
L 250.145333 268.626902 
L 250.037099 268.189181 
L 249.356774 267.751461 
L 247.90335 267.313741 
L 246.960171 266.438301 
L 246.913786 266.00058 
L 245.243895 265.56286 
L 244.718189 265.12514 
L 243.635852 264.68742 
L 241.935038 264.249699 
L 241.703109 263.811979 
L 241.672185 263.374259 
L 241.131017 262.936539 
L 241.069169 262.498819 
L 241.007321 261.623378 
L 240.04868 261.185658 
L 237.311915 259.872497 
L 236.384198 259.434777 
L 236.183193 258.997057 
L 235.966726 258.559337 
L 235.92034 258.121617 
L 234.544226 257.683896 
L 233.987596 257.246176 
L 233.199037 256.808456 
L 233.090803 256.370736 
L 232.487787 255.495295 
L 231.962081 255.057575 
L 231.575532 254.619855 
L 230.415886 254.182135 
L 229.673712 253.744415 
L 228.081132 253.306694 
L 227.895588 252.868974 
L 227.107029 251.993534 
L 225.591758 251.555813 
L 225.112437 250.680373 
L 224.648579 250.242653 
L 224.524883 249.367212 
L 224.138335 248.929492 
L 223.581704 248.491772 
L 222.885917 248.054052 
L 222.143743 247.616332 
L 221.664423 246.740891 
L 220.844939 245.865451 
L 219.747141 245.427731 
L 219.731679 244.55229 
L 219.406978 244.11457 
L 218.324642 243.67685 
L 217.876245 243.23913 
L 217.443311 242.801409 
L 216.948528 241.488249 
L 216.531056 241.050528 
L 215.92804 240.612808 
L 215.263176 240.175088 
L 214.907551 239.737368 
L 213.376818 239.299648 
L 212.773802 238.424207 
L 212.139862 237.986487 
L 211.08845 237.548767 
L 210.732825 236.673326 
L 210.346276 236.235606 
L 209.464945 235.797886 
L 208.521766 235.360166 
L 208.104293 234.922446 
L 205.243833 234.484725 
L 204.331578 234.047005 
L 203.249241 233.609285 
L 203.110084 233.171565 
L 202.909078 232.733845 
L 202.336986 232.296124 
L 200.914487 231.858404 
L 200.574324 231.420684 
L 200.558862 230.545244 
L 200.249623 230.107523 
L 200.095004 229.669803 
L 199.321906 229.232083 
L 198.31688 228.794363 
L 198.23957 227.918922 
L 198.038564 227.481202 
L 197.853021 227.043482 
L 197.466472 226.605762 
L 197.420087 226.168041 
L 196.878918 225.730321 
L 196.693375 224.854881 
L 195.765658 224.417161 
L 195.518267 223.97944 
L 195.363647 223.54172 
L 194.760631 223.104 
L 193.863838 222.66628 
L 193.693757 222.22856 
L 193.214436 221.790839 
L 192.657806 221.353119 
L 192.255796 220.915399 
L 191.884709 220.477679 
L 191.699165 219.164518 
L 190.261204 218.726798 
L 189.03971 218.289078 
L 188.282075 217.851358 
L 188.266613 216.975917 
L 187.694521 216.538197 
L 187.586287 216.100477 
L 187.524439 215.662756 
L 187.462591 215.225036 
L 186.967809 214.787316 
L 186.210173 214.349596 
L 185.978244 213.911876 
L 185.839087 213.474155 
L 185.004141 213.036435 
L 184.725826 212.598715 
L 184.432049 212.160995 
L 183.968191 211.723275 
L 183.581642 210.847834 
L 183.287865 210.847834 
L 182.978626 209.534674 
L 182.545691 209.096953 
L 181.494279 208.659233 
L 181.246888 208.221513 
L 179.870774 207.783793 
L 179.700693 207.346073 
L 179.36053 206.908352 
L 179.267758 206.470632 
L 178.664742 206.032912 
L 177.304091 205.595192 
L 177.0567 205.157472 
L 176.407298 204.719751 
L 175.649662 204.282031 
L 175.093032 202.96887 
L 175.031184 202.53115 
L 174.691021 202.09343 
L 173.206674 201.65571 
L 172.309881 201.21799 
L 171.567708 200.780269 
L 171.103849 200.342549 
L 171.042001 199.904829 
L 170.516295 199.904829 
L 169.68135 199.467109 
L 168.954638 199.029389 
L 168.645399 198.591668 
L 168.398008 198.153948 
L 167.980535 197.716228 
L 165.831324 196.840788 
L 165.073689 196.403067 
L 164.903608 195.965347 
L 163.883119 195.089907 
L 161.687522 194.652187 
L 161.563827 194.214466 
L 160.806191 193.776746 
L 160.033094 193.339026 
L 159.878474 192.463585 
L 159.089915 192.025865 
L 158.17766 191.588145 
L 158.115812 191.150425 
L 157.94573 190.274984 
L 156.646927 190.274984 
L 156.476845 189.837264 
L 155.580052 189.399544 
L 154.729645 188.961824 
L 154.018395 188.524104 
L 153.801928 188.086383 
L 153.508151 187.648663 
L 153.276222 187.210943 
L 153.044293 186.335503 
L 152.62682 185.897782 
L 152.085652 185.460062 
L 151.266168 185.022342 
L 150.09106 184.146902 
L 148.730409 183.271461 
L 147.555301 182.833741 
L 147.462529 182.396021 
L 147.215138 181.958301 
L 146.225573 181.52058 
L 145.205084 181.08286 
L 145.081389 180.64514 
L 144.787612 179.769699 
L 144.555683 179.331979 
L 143.859895 178.894259 
L 143.828971 178.456539 
L 141.509679 178.018819 
L 141.076744 177.581098 
L 139.453239 177.143378 
L 139.252234 176.705658 
L 138.525522 176.267938 
L 138.154436 175.830218 
L 137.041175 175.392497 
L 135.742372 174.954777 
L 134.876502 174.517057 
L 132.526286 174.079337 
L 132.263433 173.641617 
L 132.07789 173.203896 
L 131.644955 172.766176 
L 130.686314 171.890736 
L 129.820445 171.453016 
L 129.433896 171.453016 
L 127.748544 171.015295 
L 127.655772 170.139855 
L 126.820827 169.702135 
L 126.480664 169.702135 
L 126.171425 169.702135 
L 125.630257 169.264415 
L 125.166398 168.826694 
L 124.424225 167.951254 
L 124.269605 167.513534 
L 124.099524 167.075813 
L 123.944904 166.638093 
L 123.51197 166.200373 
L 123.388274 165.762653 
L 122.893492 165.324933 
L 121.239063 164.011772 
L 120.574199 164.011772 
L 119.78564 163.136332 
L 119.677406 163.136332 
L 119.507325 162.698611 
L 119.460939 162.260891 
L 117.234418 161.823171 
L 116.832408 161.385451 
L 114.837816 160.947731 
L 114.745045 160.947731 
L 114.482191 160.51001 
L 113.910099 160.07229 
L 113.894637 159.63457 
L 113.508089 159.19685 
L 113.137002 159.19685 
L 112.518524 158.75913 
L 110.972329 158.75913 
L 110.307465 158.321409 
L 110.168308 158.321409 
L 110.121922 157.883689 
L 109.967302 157.445969 
L 109.673525 157.008249 
L 109.333362 156.570528 
L 108.683961 156.132808 
L 108.405645 156.132808 
L 107.740782 156.132808 
L 107.09138 156.132808 
L 106.148201 155.695088 
L 105.560647 155.257368 
L 105.297794 154.381927 
L 104.756625 153.944207 
L 104.215457 153.506487 
L 103.937142 153.068767 
L 103.566055 153.068767 
L 103.210431 152.631047 
L 102.715648 152.193326 
L 101.571464 151.317886 
L 101.324073 150.880166 
L 101.231301 150.880166 
L 100.968448 150.880166 
L 100.937524 150.442446 
L 100.736519 150.442446 
L 100.597361 150.442446 
L 100.118041 149.129285 
L 99.901573 148.691565 
L 98.850161 148.691565 
L 97.876058 148.691565 
L 97.551357 148.253845 
L 97.535895 148.253845 
L 97.381276 147.816124 
L 96.268015 147.378404 
L 96.190706 147.378404 
L 95.232065 146.940684 
L 94.381658 146.502964 
L 94.056957 146.502964 
L 93.964185 146.502964 
L 93.60856 146.065244 
L 93.12924 145.627523 
L 92.789077 145.189803 
L 92.711767 145.189803 
L 92.634457 145.189803 
L 92.4953 145.189803 
L 92.387066 145.189803 
L 91.629431 145.189803 
L 91.490273 144.752083 
L 90.918181 144.752083 
L 90.825409 144.314363 
L 90.083236 144.314363 
L 90.021388 144.314363 
L 89.047285 144.314363 
L 88.92359 143.438922 
L 88.707122 143.438922 
L 88.413345 143.438922 
L 87.934025 143.438922 
L 87.717558 143.438922 
L 87.593862 143.001202 
L 87.485628 143.001202 
L 87.454704 143.001202 
L 87.191851 143.001202 
L 86.789841 143.001202 
L 86.526987 143.001202 
L 86.325982 142.563482 
L 86.295058 142.563482 
L 85.815738 141.688041 
L 85.336417 141.250321 
L 85.181798 140.812601 
L 85.058102 140.374881 
L 84.872559 140.374881 
L 84.764325 139.937161 
L 84.516934 139.937161 
L 84.300467 139.49944 
L 84.223157 139.49944 
L 84.161309 139.06172 
L 84.130385 139.06172 
L 83.836608 138.624 
L 83.604679 138.624 
L 83.29544 138.18628 
L 83.233592 137.74856 
L 83.171745 137.74856 
L 82.862506 137.74856 
L 82.568729 137.74856 
L 82.491419 137.310839 
L 82.02756 137.310839 
L 81.656474 137.310839 
L 81.053458 137.310839 
L 80.976148 137.310839 
L 80.9143 137.310839 
L 80.682371 137.310839 
L 80.605061 137.310839 
L 80.218512 137.310839 
L 79.692806 137.310839 
L 79.677344 136.873119 
L 79.615496 136.873119 
L 79.491801 136.873119 
L 79.074328 136.435399 
L 78.857861 136.435399 
L 78.826937 136.435399 
L 78.579546 135.997679 
L 78.548622 135.997679 
L 78.301231 135.997679 
L 78.285769 135.997679 
L 78.131149 135.997679 
L 77.760062 135.997679 
L 77.729138 135.997679 
L 77.605443 135.997679 
L 77.589981 135.997679 
L 77.373514 135.997679 
L 77.280742 135.997679 
L 77.141584 135.559959 
L 76.847807 135.559959 
L 76.816883 135.122238 
L 76.755036 134.684518 
L 76.739574 134.684518 
L 76.600416 134.246798 
L 76.461259 134.246798 
L 76.353025 134.246798 
L 76.306639 134.246798 
L 76.291177 134.246798 
L 76.167482 133.809078 
L 76.090172 133.809078 
L 76.059248 133.809078 
L 75.981938 133.809078 
L 75.641775 133.809078 
L 75.456232 133.809078 
L 75.301612 133.809078 
L 75.116069 133.809078 
L 74.80683 133.809078 
L 74.667673 133.809078 
L 74.574901 133.809078 
L 74.543977 133.809078 
L 74.513053 133.371358 
L 74.296586 133.371358 
L 74.234738 133.371358 
L 74.09558 133.371358 
L 73.832727 133.371358 
z
" clip-path="url(#p60e3b4245e)" style="fill: #7cfc00"/>
   </g>
   <g id="PolyCollection_3">
    <path d="M 73.832727 54.144 
L 73.832727 133.371358 
L 74.09558 133.371358 
L 74.234738 133.371358 
L 74.296586 133.371358 
L 74.513053 133.371358 
L 74.543977 133.809078 
L 74.574901 133.809078 
L 74.667673 133.809078 
L 74.80683 133.809078 
L 75.116069 133.809078 
L 75.301612 133.809078 
L 75.456232 133.809078 
L 75.641775 133.809078 
L 75.981938 133.809078 
L 76.059248 133.809078 
L 76.090172 133.809078 
L 76.167482 133.809078 
L 76.291177 134.246798 
L 76.306639 134.246798 
L 76.353025 134.246798 
L 76.461259 134.246798 
L 76.600416 134.246798 
L 76.739574 134.684518 
L 76.755036 134.684518 
L 76.816883 135.122238 
L 76.847807 135.559959 
L 77.141584 135.559959 
L 77.280742 135.997679 
L 77.373514 135.997679 
L 77.589981 135.997679 
L 77.605443 135.997679 
L 77.729138 135.997679 
L 77.760062 135.997679 
L 78.131149 135.997679 
L 78.285769 135.997679 
L 78.301231 135.997679 
L 78.548622 135.997679 
L 78.579546 135.997679 
L 78.826937 136.435399 
L 78.857861 136.435399 
L 79.074328 136.435399 
L 79.491801 136.873119 
L 79.615496 136.873119 
L 79.677344 136.873119 
L 79.692806 137.310839 
L 80.218512 137.310839 
L 80.605061 137.310839 
L 80.682371 137.310839 
L 80.9143 137.310839 
L 80.976148 137.310839 
L 81.053458 137.310839 
L 81.656474 137.310839 
L 82.02756 137.310839 
L 82.491419 137.310839 
L 82.568729 137.74856 
L 82.862506 137.74856 
L 83.171745 137.74856 
L 83.233592 137.74856 
L 83.29544 138.18628 
L 83.604679 138.624 
L 83.836608 138.624 
L 84.130385 139.06172 
L 84.161309 139.06172 
L 84.223157 139.49944 
L 84.300467 139.49944 
L 84.516934 139.937161 
L 84.764325 139.937161 
L 84.872559 140.374881 
L 85.058102 140.374881 
L 85.181798 140.812601 
L 85.336417 141.250321 
L 85.815738 141.688041 
L 86.295058 142.563482 
L 86.325982 142.563482 
L 86.526987 143.001202 
L 86.789841 143.001202 
L 87.191851 143.001202 
L 87.454704 143.001202 
L 87.485628 143.001202 
L 87.593862 143.001202 
L 87.717558 143.438922 
L 87.934025 143.438922 
L 88.413345 143.438922 
L 88.707122 143.438922 
L 88.92359 143.438922 
L 89.047285 144.314363 
L 90.021388 144.314363 
L 90.083236 144.314363 
L 90.825409 144.314363 
L 90.918181 144.752083 
L 91.490273 144.752083 
L 91.629431 145.189803 
L 92.387066 145.189803 
L 92.4953 145.189803 
L 92.634457 145.189803 
L 92.711767 145.189803 
L 92.789077 145.189803 
L 93.12924 145.627523 
L 93.60856 146.065244 
L 93.964185 146.502964 
L 94.056957 146.502964 
L 94.381658 146.502964 
L 95.232065 146.940684 
L 96.190706 147.378404 
L 96.268015 147.378404 
L 97.381276 147.816124 
L 97.535895 148.253845 
L 97.551357 148.253845 
L 97.876058 148.691565 
L 98.850161 148.691565 
L 99.901573 148.691565 
L 100.118041 149.129285 
L 100.597361 150.442446 
L 100.736519 150.442446 
L 100.937524 150.442446 
L 100.968448 150.880166 
L 101.231301 150.880166 
L 101.324073 150.880166 
L 101.571464 151.317886 
L 102.715648 152.193326 
L 103.210431 152.631047 
L 103.566055 153.068767 
L 103.937142 153.068767 
L 104.215457 153.506487 
L 104.756625 153.944207 
L 105.297794 154.381927 
L 105.560647 155.257368 
L 106.148201 155.695088 
L 107.09138 156.132808 
L 107.740782 156.132808 
L 108.405645 156.132808 
L 108.683961 156.132808 
L 109.333362 156.570528 
L 109.673525 157.008249 
L 109.967302 157.445969 
L 110.121922 157.883689 
L 110.168308 158.321409 
L 110.307465 158.321409 
L 110.972329 158.75913 
L 112.518524 158.75913 
L 113.137002 159.19685 
L 113.508089 159.19685 
L 113.894637 159.63457 
L 113.910099 160.07229 
L 114.482191 160.51001 
L 114.745045 160.947731 
L 114.837816 160.947731 
L 116.832408 161.385451 
L 117.234418 161.823171 
L 119.460939 162.260891 
L 119.507325 162.698611 
L 119.677406 163.136332 
L 119.78564 163.136332 
L 120.574199 164.011772 
L 121.239063 164.011772 
L 122.893492 165.324933 
L 123.388274 165.762653 
L 123.51197 166.200373 
L 123.944904 166.638093 
L 124.099524 167.075813 
L 124.269605 167.513534 
L 124.424225 167.951254 
L 125.166398 168.826694 
L 125.630257 169.264415 
L 126.171425 169.702135 
L 126.480664 169.702135 
L 126.820827 169.702135 
L 127.655772 170.139855 
L 127.748544 171.015295 
L 129.433896 171.453016 
L 129.820445 171.453016 
L 130.686314 171.890736 
L 131.644955 172.766176 
L 132.07789 173.203896 
L 132.263433 173.641617 
L 132.526286 174.079337 
L 134.876502 174.517057 
L 135.742372 174.954777 
L 137.041175 175.392497 
L 138.154436 175.830218 
L 138.525522 176.267938 
L 139.252234 176.705658 
L 139.453239 177.143378 
L 141.076744 177.581098 
L 141.509679 178.018819 
L 143.828971 178.456539 
L 143.859895 178.894259 
L 144.555683 179.331979 
L 144.787612 179.769699 
L 145.081389 180.64514 
L 145.205084 181.08286 
L 146.225573 181.52058 
L 147.215138 181.958301 
L 147.462529 182.396021 
L 147.555301 182.833741 
L 148.730409 183.271461 
L 150.09106 184.146902 
L 151.266168 185.022342 
L 152.085652 185.460062 
L 152.62682 185.897782 
L 153.044293 186.335503 
L 153.276222 187.210943 
L 153.508151 187.648663 
L 153.801928 188.086383 
L 154.018395 188.524104 
L 154.729645 188.961824 
L 155.580052 189.399544 
L 156.476845 189.837264 
L 156.646927 190.274984 
L 157.94573 190.274984 
L 158.115812 191.150425 
L 158.17766 191.588145 
L 159.089915 192.025865 
L 159.878474 192.463585 
L 160.033094 193.339026 
L 160.806191 193.776746 
L 161.563827 194.214466 
L 161.687522 194.652187 
L 163.883119 195.089907 
L 164.903608 195.965347 
L 165.073689 196.403067 
L 165.831324 196.840788 
L 167.980535 197.716228 
L 168.398008 198.153948 
L 168.645399 198.591668 
L 168.954638 199.029389 
L 169.68135 199.467109 
L 170.516295 199.904829 
L 171.042001 199.904829 
L 171.103849 200.342549 
L 171.567708 200.780269 
L 172.309881 201.21799 
L 173.206674 201.65571 
L 174.691021 202.09343 
L 175.031184 202.53115 
L 175.093032 202.96887 
L 175.649662 204.282031 
L 176.407298 204.719751 
L 177.0567 205.157472 
L 177.304091 205.595192 
L 178.664742 206.032912 
L 179.267758 206.470632 
L 179.36053 206.908352 
L 179.700693 207.346073 
L 179.870774 207.783793 
L 181.246888 208.221513 
L 181.494279 208.659233 
L 182.545691 209.096953 
L 182.978626 209.534674 
L 183.287865 210.847834 
L 183.581642 210.847834 
L 183.968191 211.723275 
L 184.432049 212.160995 
L 184.725826 212.598715 
L 185.004141 213.036435 
L 185.839087 213.474155 
L 185.978244 213.911876 
L 186.210173 214.349596 
L 186.967809 214.787316 
L 187.462591 215.225036 
L 187.524439 215.662756 
L 187.586287 216.100477 
L 187.694521 216.538197 
L 188.266613 216.975917 
L 188.282075 217.851358 
L 189.03971 218.289078 
L 190.261204 218.726798 
L 191.699165 219.164518 
L 191.884709 220.477679 
L 192.255796 220.915399 
L 192.657806 221.353119 
L 193.214436 221.790839 
L 193.693757 222.22856 
L 193.863838 222.66628 
L 194.760631 223.104 
L 195.363647 223.54172 
L 195.518267 223.97944 
L 195.765658 224.417161 
L 196.693375 224.854881 
L 196.878918 225.730321 
L 197.420087 226.168041 
L 197.466472 226.605762 
L 197.853021 227.043482 
L 198.038564 227.481202 
L 198.23957 227.918922 
L 198.31688 228.794363 
L 199.321906 229.232083 
L 200.095004 229.669803 
L 200.249623 230.107523 
L 200.558862 230.545244 
L 200.574324 231.420684 
L 200.914487 231.858404 
L 202.336986 232.296124 
L 202.909078 232.733845 
L 203.110084 233.171565 
L 203.249241 233.609285 
L 204.331578 234.047005 
L 205.243833 234.484725 
L 208.104293 234.922446 
L 208.521766 235.360166 
L 209.464945 235.797886 
L 210.346276 236.235606 
L 210.732825 236.673326 
L 211.08845 237.548767 
L 212.139862 237.986487 
L 212.773802 238.424207 
L 213.376818 239.299648 
L 214.907551 239.737368 
L 215.263176 240.175088 
L 215.92804 240.612808 
L 216.531056 241.050528 
L 216.948528 241.488249 
L 217.443311 242.801409 
L 217.876245 243.23913 
L 218.324642 243.67685 
L 219.406978 244.11457 
L 219.731679 244.55229 
L 219.747141 245.427731 
L 220.844939 245.865451 
L 221.664423 246.740891 
L 222.143743 247.616332 
L 222.885917 248.054052 
L 223.581704 248.491772 
L 224.138335 248.929492 
L 224.524883 249.367212 
L 224.648579 250.242653 
L 225.112437 250.680373 
L 225.591758 251.555813 
L 227.107029 251.993534 
L 227.895588 252.868974 
L 228.081132 253.306694 
L 229.673712 253.744415 
L 230.415886 254.182135 
L 231.575532 254.619855 
L 231.962081 255.057575 
L 232.487787 255.495295 
L 233.090803 256.370736 
L 233.199037 256.808456 
L 233.987596 257.246176 
L 234.544226 257.683896 
L 235.92034 258.121617 
L 235.966726 258.559337 
L 236.183193 258.997057 
L 236.384198 259.434777 
L 237.311915 259.872497 
L 240.04868 261.185658 
L 241.007321 261.623378 
L 241.069169 262.498819 
L 241.131017 262.936539 
L 241.672185 263.374259 
L 241.703109 263.811979 
L 241.935038 264.249699 
L 243.635852 264.68742 
L 244.718189 265.12514 
L 245.243895 265.56286 
L 246.913786 266.00058 
L 246.960171 266.438301 
L 247.90335 267.313741 
L 249.356774 267.751461 
L 250.037099 268.189181 
L 250.145333 268.626902 
L 252.279082 269.064622 
L 252.310006 269.502342 
L 253.407804 269.940062 
L 254.134516 270.377782 
L 254.350983 270.815503 
L 255.557015 271.253223 
L 255.928102 272.128663 
L 256.330113 272.566383 
L 258.123699 273.004104 
L 259.08234 273.441824 
L 259.63897 273.879544 
L 259.669894 274.317264 
L 260.473915 274.754984 
L 262.02011 275.192705 
L 262.607664 275.630425 
L 263.164294 276.068145 
L 264.602255 276.505865 
L 265.328967 276.943585 
L 266.071141 277.381306 
L 266.488613 277.819026 
L 269.720161 278.256746 
L 270.43141 279.132187 
L 270.493258 279.569907 
L 271.080812 280.007627 
L 271.683828 280.445347 
L 272.719779 280.883067 
L 273.755729 281.758508 
L 273.786653 282.196228 
L 273.910349 282.633948 
L 274.590675 283.071668 
L 279.55396 283.947109 
L 280.945536 284.822549 
L 281.084693 285.260269 
L 282.290725 285.69799 
L 283.883306 286.13571 
L 283.898768 286.57343 
L 284.656403 287.01115 
L 287.083929 287.44887 
L 287.393168 287.886591 
L 288.862054 288.324311 
L 290.841183 288.762031 
L 295.680773 289.199751 
L 296.314713 289.637472 
L 296.6858 290.075192 
L 297.659903 290.512912 
L 300.458515 290.950632 
L 300.613135 291.388352 
L 301.107917 291.826073 
L 301.154303 292.263793 
L 304.865171 292.701513 
L 306.071203 293.139233 
L 306.395904 293.576953 
L 306.674219 294.014674 
L 306.937072 294.890114 
L 307.184463 295.327834 
L 307.818403 295.765554 
L 311.390113 296.203275 
L 312.302368 296.640995 
L 313.477477 297.078715 
L 317.111035 297.516435 
L 320.265272 297.954155 
L 320.976522 298.391876 
L 322.244402 298.829596 
L 323.481358 299.267316 
L 325.104862 299.705036 
L 330.532006 300.580477 
L 331.366952 301.455917 
L 331.598881 301.893637 
L 332.572984 302.331358 
L 332.743065 302.769078 
L 334.196488 303.206798 
L 336.855944 303.644518 
L 347.230911 304.082238 
L 352.163273 304.519959 
L 354.111479 304.957679 
L 369.557966 305.395399 
L 387.04543 306.270839 
L 389.967739 306.70856 
L 398.487273 307.14628 
L 398.487273 307.14628 
L 398.487273 307.14628 
L 389.967739 306.70856 
L 387.04543 306.270839 
L 369.557966 305.395399 
L 354.111479 304.957679 
L 352.163273 304.519959 
L 347.230911 304.082238 
L 336.855944 303.644518 
L 334.196488 303.206798 
L 332.743065 302.769078 
L 332.572984 302.331358 
L 331.598881 301.893637 
L 331.366952 301.455917 
L 330.532006 300.580477 
L 325.104862 299.705036 
L 323.481358 299.267316 
L 322.244402 298.829596 
L 320.976522 298.391876 
L 320.265272 297.954155 
L 317.111035 297.516435 
L 313.477477 297.078715 
L 312.302368 296.640995 
L 311.390113 296.203275 
L 307.818403 295.765554 
L 307.184463 295.327834 
L 306.937072 294.890114 
L 306.674219 294.014674 
L 306.395904 293.576953 
L 306.071203 293.139233 
L 304.865171 292.701513 
L 301.154303 292.263793 
L 301.107917 291.826073 
L 300.613135 291.388352 
L 300.458515 290.950632 
L 297.659903 290.512912 
L 296.6858 290.075192 
L 296.314713 289.637472 
L 295.680773 289.199751 
L 290.841183 288.762031 
L 288.862054 288.324311 
L 287.393168 287.886591 
L 287.083929 287.44887 
L 284.656403 287.01115 
L 283.898768 286.57343 
L 283.883306 286.13571 
L 282.290725 285.69799 
L 281.084693 285.260269 
L 280.945536 284.822549 
L 279.55396 283.947109 
L 274.590675 283.071668 
L 273.910349 282.633948 
L 273.786653 282.196228 
L 273.755729 281.758508 
L 272.719779 280.883067 
L 271.683828 280.445347 
L 271.080812 280.007627 
L 270.493258 279.569907 
L 270.43141 279.132187 
L 269.720161 278.256746 
L 266.488613 277.819026 
L 266.071141 277.381306 
L 265.328967 276.943585 
L 264.602255 276.505865 
L 263.164294 276.068145 
L 262.607664 275.630425 
L 262.02011 275.192705 
L 260.473915 274.754984 
L 259.669894 274.317264 
L 259.63897 273.879544 
L 259.08234 273.441824 
L 258.123699 273.004104 
L 256.330113 272.566383 
L 255.928102 272.128663 
L 255.557015 271.253223 
L 254.350983 270.815503 
L 254.134516 270.377782 
L 253.407804 269.940062 
L 252.310006 269.502342 
L 252.279082 269.064622 
L 250.145333 268.626902 
L 250.037099 268.189181 
L 249.356774 267.751461 
L 247.90335 267.313741 
L 246.960171 266.438301 
L 246.913786 266.00058 
L 245.243895 265.56286 
L 244.718189 265.12514 
L 243.635852 264.68742 
L 241.935038 264.249699 
L 241.703109 263.811979 
L 241.672185 263.374259 
L 241.131017 262.936539 
L 241.069169 262.498819 
L 241.007321 261.623378 
L 240.04868 261.185658 
L 237.311915 259.872497 
L 236.384198 259.434777 
L 236.183193 258.997057 
L 235.966726 258.559337 
L 235.92034 258.121617 
L 234.544226 257.683896 
L 233.987596 257.246176 
L 233.199037 256.808456 
L 233.090803 256.370736 
L 232.487787 255.495295 
L 231.962081 255.057575 
L 231.575532 254.619855 
L 230.415886 254.182135 
L 229.673712 253.744415 
L 228.081132 253.306694 
L 227.895588 252.868974 
L 227.107029 251.993534 
L 225.591758 251.555813 
L 225.112437 250.680373 
L 224.648579 250.242653 
L 224.524883 249.367212 
L 224.138335 248.929492 
L 223.581704 248.491772 
L 222.885917 248.054052 
L 222.143743 247.616332 
L 221.664423 246.740891 
L 220.844939 245.865451 
L 219.747141 245.427731 
L 219.731679 244.55229 
L 219.406978 244.11457 
L 218.324642 243.67685 
L 217.876245 243.23913 
L 217.443311 242.801409 
L 216.948528 241.488249 
L 216.531056 241.050528 
L 215.92804 240.612808 
L 215.263176 240.175088 
L 214.907551 239.737368 
L 213.376818 238.861927 
L 212.773802 237.986487 
L 212.139862 237.548767 
L 211.08845 237.111047 
L 210.732825 236.235606 
L 210.346276 235.797886 
L 209.464945 235.360166 
L 208.521766 234.922446 
L 208.104293 234.484725 
L 205.243833 234.047005 
L 204.331578 233.609285 
L 203.249241 233.171565 
L 203.110084 232.733845 
L 202.909078 232.296124 
L 202.336986 231.858404 
L 200.914487 231.420684 
L 200.574324 230.982964 
L 200.558862 230.107523 
L 200.249623 229.669803 
L 200.095004 229.232083 
L 199.321906 228.794363 
L 198.31688 228.356642 
L 198.23957 227.481202 
L 198.038564 227.043482 
L 197.853021 226.605762 
L 197.466472 226.168041 
L 197.420087 225.730321 
L 196.878918 225.292601 
L 196.693375 224.417161 
L 195.765658 223.97944 
L 195.518267 223.54172 
L 195.363647 223.104 
L 194.760631 222.66628 
L 193.863838 222.22856 
L 193.693757 221.790839 
L 193.214436 221.353119 
L 192.657806 220.915399 
L 192.255796 220.477679 
L 191.884709 220.039959 
L 191.699165 218.726798 
L 190.261204 218.289078 
L 189.03971 217.851358 
L 188.282075 217.413637 
L 188.266613 216.538197 
L 187.694521 216.100477 
L 187.586287 215.662756 
L 187.524439 215.225036 
L 187.462591 214.787316 
L 186.967809 214.349596 
L 186.210173 213.911876 
L 185.978244 213.474155 
L 185.839087 213.036435 
L 185.004141 212.598715 
L 184.725826 212.160995 
L 184.432049 211.723275 
L 183.968191 211.285554 
L 183.581642 210.410114 
L 183.287865 209.972394 
L 182.978626 208.659233 
L 182.545691 208.221513 
L 181.494279 207.783793 
L 181.246888 207.346073 
L 179.870774 206.908352 
L 179.700693 206.470632 
L 179.36053 206.032912 
L 179.267758 205.595192 
L 178.664742 205.157472 
L 177.304091 204.719751 
L 177.0567 204.282031 
L 176.407298 203.844311 
L 175.649662 203.406591 
L 175.093032 202.09343 
L 175.031184 201.65571 
L 174.691021 201.21799 
L 173.206674 200.780269 
L 172.309881 200.342549 
L 171.567708 199.904829 
L 171.103849 199.467109 
L 171.042001 199.029389 
L 170.516295 198.591668 
L 169.68135 198.153948 
L 168.954638 197.716228 
L 168.645399 197.278508 
L 168.398008 196.840788 
L 167.980535 196.403067 
L 165.831324 195.527627 
L 165.073689 195.089907 
L 164.903608 194.652187 
L 163.883119 193.776746 
L 161.687522 193.339026 
L 161.563827 192.901306 
L 160.806191 192.463585 
L 160.033094 192.025865 
L 159.878474 191.150425 
L 159.089915 190.712705 
L 158.17766 190.274984 
L 158.115812 189.837264 
L 157.94573 188.961824 
L 156.646927 188.524104 
L 156.476845 188.086383 
L 155.580052 187.648663 
L 154.729645 187.210943 
L 154.018395 186.773223 
L 153.801928 186.335503 
L 153.508151 185.897782 
L 153.276222 185.460062 
L 153.044293 184.584622 
L 152.62682 184.146902 
L 152.085652 183.709181 
L 151.266168 183.271461 
L 150.09106 182.396021 
L 148.730409 181.52058 
L 147.555301 181.08286 
L 147.462529 180.64514 
L 147.215138 180.20742 
L 146.225573 179.769699 
L 145.205084 179.331979 
L 145.081389 178.894259 
L 144.787612 178.018819 
L 144.555683 177.581098 
L 143.859895 177.143378 
L 143.828971 176.705658 
L 141.509679 176.267938 
L 141.076744 175.830218 
L 139.453239 175.392497 
L 139.252234 174.954777 
L 138.525522 174.517057 
L 138.154436 174.079337 
L 137.041175 173.641617 
L 135.742372 173.203896 
L 134.876502 172.766176 
L 132.526286 172.328456 
L 132.263433 171.890736 
L 132.07789 171.453016 
L 131.644955 171.015295 
L 130.686314 170.139855 
L 129.820445 169.702135 
L 129.433896 169.264415 
L 127.748544 168.826694 
L 127.655772 167.951254 
L 126.820827 167.513534 
L 126.480664 167.075813 
L 126.171425 166.638093 
L 125.630257 166.200373 
L 125.166398 165.762653 
L 124.424225 164.887212 
L 124.269605 164.449492 
L 124.099524 164.011772 
L 123.944904 163.574052 
L 123.51197 163.136332 
L 123.388274 162.698611 
L 122.893492 162.260891 
L 121.239063 160.947731 
L 120.574199 160.51001 
L 119.78564 159.63457 
L 119.677406 159.19685 
L 119.507325 158.75913 
L 119.460939 158.321409 
L 117.234418 157.883689 
L 116.832408 157.445969 
L 114.837816 157.008249 
L 114.745045 156.570528 
L 114.482191 155.695088 
L 113.910099 155.257368 
L 113.894637 154.819648 
L 113.508089 154.381927 
L 113.137002 153.944207 
L 112.518524 153.506487 
L 110.972329 153.068767 
L 110.307465 152.631047 
L 110.168308 152.193326 
L 110.121922 151.755606 
L 109.967302 151.317886 
L 109.673525 150.880166 
L 109.333362 150.442446 
L 108.683961 150.004725 
L 108.405645 149.567005 
L 107.740782 149.129285 
L 107.09138 148.691565 
L 106.148201 148.253845 
L 105.560647 147.816124 
L 105.297794 146.940684 
L 104.756625 146.065244 
L 104.215457 145.627523 
L 103.937142 145.189803 
L 103.566055 144.752083 
L 103.210431 144.314363 
L 102.715648 143.438922 
L 101.571464 142.563482 
L 101.324073 142.125762 
L 101.231301 141.688041 
L 100.968448 141.250321 
L 100.937524 140.812601 
L 100.736519 140.374881 
L 100.597361 139.937161 
L 100.118041 138.18628 
L 99.901573 137.74856 
L 98.850161 137.310839 
L 97.876058 136.873119 
L 97.551357 136.435399 
L 97.535895 135.997679 
L 97.381276 135.559959 
L 96.268015 135.122238 
L 96.190706 134.684518 
L 95.232065 134.246798 
L 94.381658 133.371358 
L 94.056957 132.933637 
L 93.964185 132.495917 
L 93.60856 131.620477 
L 93.12924 131.182756 
L 92.789077 130.745036 
L 92.711767 129.869596 
L 92.634457 129.431876 
L 92.4953 128.994155 
L 92.387066 128.118715 
L 91.629431 127.680995 
L 91.490273 125.492394 
L 90.918181 125.054674 
L 90.825409 124.616953 
L 90.083236 124.179233 
L 90.021388 123.741513 
L 89.047285 123.303793 
L 88.92359 121.115192 
L 88.707122 118.926591 
L 88.413345 118.48887 
L 87.934025 118.05115 
L 87.717558 117.61343 
L 87.593862 116.73799 
L 87.485628 116.300269 
L 87.454704 115.862549 
L 87.191851 114.987109 
L 86.789841 114.111668 
L 86.526987 113.673948 
L 86.325982 112.798508 
L 86.295058 112.360788 
L 85.815738 111.485347 
L 85.336417 110.172187 
L 85.181798 109.296746 
L 85.058102 108.859026 
L 84.872559 108.421306 
L 84.764325 107.983585 
L 84.516934 107.545865 
L 84.300467 107.108145 
L 84.223157 106.232705 
L 84.161309 104.481824 
L 84.130385 104.044104 
L 83.836608 103.168663 
L 83.604679 101.855503 
L 83.29544 101.417782 
L 83.233592 99.229181 
L 83.171745 98.791461 
L 82.862506 97.478301 
L 82.568729 97.04058 
L 82.491419 96.60286 
L 82.02756 96.16514 
L 81.656474 95.72742 
L 81.053458 94.414259 
L 80.976148 93.976539 
L 80.9143 93.538819 
L 80.682371 93.101098 
L 80.605061 92.225658 
L 80.218512 91.350218 
L 79.692806 89.161617 
L 79.677344 86.535295 
L 79.615496 86.097575 
L 79.491801 85.659855 
L 79.074328 85.222135 
L 78.857861 84.346694 
L 78.826937 82.158093 
L 78.579546 80.844933 
L 78.548622 79.969492 
L 78.301231 79.531772 
L 78.285769 77.780891 
L 78.131149 77.343171 
L 77.760062 76.03001 
L 77.729138 75.59229 
L 77.605443 75.15457 
L 77.589981 74.71685 
L 77.373514 74.27913 
L 77.280742 72.090528 
L 77.141584 71.652808 
L 76.847807 70.339648 
L 76.816883 69.901927 
L 76.755036 69.464207 
L 76.739574 69.026487 
L 76.600416 68.588767 
L 76.461259 68.151047 
L 76.353025 67.275606 
L 76.306639 66.837886 
L 76.291177 66.400166 
L 76.167482 65.087005 
L 76.090172 64.649285 
L 76.059248 63.773845 
L 75.981938 62.460684 
L 75.641775 62.022964 
L 75.456232 61.585244 
L 75.301612 61.147523 
L 75.116069 60.709803 
L 74.80683 58.958922 
L 74.667673 58.521202 
L 74.574901 58.083482 
L 74.543977 57.208041 
L 74.513053 56.770321 
L 74.296586 55.894881 
L 74.234738 55.457161 
L 74.09558 55.01944 
L 73.832727 54.144 
z
" clip-path="url(#p60e3b4245e)" style="fill: #ff0000"/>
   </g>
   <g id="matplotlib.axis_1">
    <g id="xtick_1">
     <g id="line2d_1">
      <defs>
       <path id="m2857017fe8" d="M 0 0 
L 0 3.5 
" style="stroke: #000000; stroke-width: 0.8"/>
      </defs>
      <g>
       <use xlink:href="#m2857017fe8" x="67.416018" y="307.584" style="stroke: #000000; stroke-width: 0.8"/>
      </g>
     </g>
     <g id="text_1">
      <!-- 0 -->
      <g transform="translate(64.234768 322.182437)scale(0.1 -0.1)">
       <defs>
        <path id="DejaVuSans-30" d="M 2034 4250 
Q 1547 4250 1301 3770 
Q 1056 3291 1056 2328 
Q 1056 1369 1301 889 
Q 1547 409 2034 409 
Q 2525 409 2770 889 
Q 3016 1369 3016 2328 
Q 3016 3291 2770 3770 
Q 2525 4250 2034 4250 
z
M 2034 4750 
Q 2819 4750 3233 4129 
Q 3647 3509 3647 2328 
Q 3647 1150 3233 529 
Q 2819 -91 2034 -91 
Q 1250 -91 836 529 
Q 422 1150 422 2328 
Q 422 3509 836 4129 
Q 1250 4750 2034 4750 
z
" transform="scale(0.015625)"/>
       </defs>
       <use xlink:href="#DejaVuSans-30"/>
      </g>
     </g>
    </g>
    <g id="xtick_2">
     <g id="line2d_2">
      <g>
       <use xlink:href="#m2857017fe8" x="144.725764" y="307.584" style="stroke: #000000; stroke-width: 0.8"/>
      </g>
     </g>
     <g id="text_2">
      <!-- 50 -->
      <g transform="translate(138.363264 322.182437)scale(0.1 -0.1)">
       <defs>
        <path id="DejaVuSans-35" d="M 691 4666 
L 3169 4666 
L 3169 4134 
L 1269 4134 
L 1269 2991 
Q 1406 3038 1543 3061 
Q 1681 3084 1819 3084 
Q 2600 3084 3056 2656 
Q 3513 2228 3513 1497 
Q 3513 744 3044 326 
Q 2575 -91 1722 -91 
Q 1428 -91 1123 -41 
Q 819 9 494 109 
L 494 744 
Q 775 591 1075 516 
Q 1375 441 1709 441 
Q 2250 441 2565 725 
Q 2881 1009 2881 1497 
Q 2881 1984 2565 2268 
Q 2250 2553 1709 2553 
Q 1456 2553 1204 2497 
Q 953 2441 691 2322 
L 691 4666 
z
" transform="scale(0.015625)"/>
       </defs>
       <use xlink:href="#DejaVuSans-35"/>
       <use xlink:href="#DejaVuSans-30" x="63.623047"/>
      </g>
     </g>
    </g>
    <g id="xtick_3">
     <g id="line2d_3">
      <g>
       <use xlink:href="#m2857017fe8" x="222.035509" y="307.584" style="stroke: #000000; stroke-width: 0.8"/>
      </g>
     </g>
     <g id="text_3">
      <!-- 100 -->
      <g transform="translate(212.491759 322.182437)scale(0.1 -0.1)">
       <defs>
        <path id="DejaVuSans-31" d="M 794 531 
L 1825 531 
L 1825 4091 
L 703 3866 
L 703 4441 
L 1819 4666 
L 2450 4666 
L 2450 531 
L 3481 531 
L 3481 0 
L 794 0 
L 794 531 
z
" transform="scale(0.015625)"/>
       </defs>
       <use xlink:href="#DejaVuSans-31"/>
       <use xlink:href="#DejaVuSans-30" x="63.623047"/>
       <use xlink:href="#DejaVuSans-30" x="127.246094"/>
      </g>
     </g>
    </g>
    <g id="xtick_4">
     <g id="line2d_4">
      <g>
       <use xlink:href="#m2857017fe8" x="299.345255" y="307.584" style="stroke: #000000; stroke-width: 0.8"/>
      </g>
     </g>
     <g id="text_4">
      <!-- 150 -->
      <g transform="translate(289.801505 322.182437)scale(0.1 -0.1)">
       <use xlink:href="#DejaVuSans-31"/>
       <use xlink:href="#DejaVuSans-35" x="63.623047"/>
       <use xlink:href="#DejaVuSans-30" x="127.246094"/>
      </g>
     </g>
    </g>
    <g id="xtick_5">
     <g id="line2d_5">
      <g>
       <use xlink:href="#m2857017fe8" x="376.655001" y="307.584" style="stroke: #000000; stroke-width: 0.8"/>
      </g>
     </g>
     <g id="text_5">
      <!-- 200 -->
      <g transform="translate(367.111251 322.182437)scale(0.1 -0.1)">
       <defs>
        <path id="DejaVuSans-32" d="M 1228 531 
L 3431 531 
L 3431 0 
L 469 0 
L 469 531 
Q 828 903 1448 1529 
Q 2069 2156 2228 2338 
Q 2531 2678 2651 2914 
Q 2772 3150 2772 3378 
Q 2772 3750 2511 3984 
Q 2250 4219 1831 4219 
Q 1534 4219 1204 4116 
Q 875 4013 500 3803 
L 500 4441 
Q 881 4594 1212 4672 
Q 1544 4750 1819 4750 
Q 2544 4750 2975 4387 
Q 3406 4025 3406 3419 
Q 3406 3131 3298 2873 
Q 3191 2616 2906 2266 
Q 2828 2175 2409 1742 
Q 1991 1309 1228 531 
z
" transform="scale(0.015625)"/>
       </defs>
       <use xlink:href="#DejaVuSans-32"/>
       <use xlink:href="#DejaVuSans-30" x="63.623047"/>
       <use xlink:href="#DejaVuSans-30" x="127.246094"/>
      </g>
     </g>
    </g>
    <g id="text_6">
     <!-- Score -->
     <g transform="translate(222.157656 335.860562)scale(0.1 -0.1)">
      <defs>
       <path id="DejaVuSans-53" d="M 3425 4513 
L 3425 3897 
Q 3066 4069 2747 4153 
Q 2428 4238 2131 4238 
Q 1616 4238 1336 4038 
Q 1056 3838 1056 3469 
Q 1056 3159 1242 3001 
Q 1428 2844 1947 2747 
L 2328 2669 
Q 3034 2534 3370 2195 
Q 3706 1856 3706 1288 
Q 3706 609 3251 259 
Q 2797 -91 1919 -91 
Q 1588 -91 1214 -16 
Q 841 59 441 206 
L 441 856 
Q 825 641 1194 531 
Q 1563 422 1919 422 
Q 2459 422 2753 634 
Q 3047 847 3047 1241 
Q 3047 1584 2836 1778 
Q 2625 1972 2144 2069 
L 1759 2144 
Q 1053 2284 737 2584 
Q 422 2884 422 3419 
Q 422 4038 858 4394 
Q 1294 4750 2059 4750 
Q 2388 4750 2728 4690 
Q 3069 4631 3425 4513 
z
" transform="scale(0.015625)"/>
       <path id="DejaVuSans-63" d="M 3122 3366 
L 3122 2828 
Q 2878 2963 2633 3030 
Q 2388 3097 2138 3097 
Q 1578 3097 1268 2742 
Q 959 2388 959 1747 
Q 959 1106 1268 751 
Q 1578 397 2138 397 
Q 2388 397 2633 464 
Q 2878 531 3122 666 
L 3122 134 
Q 2881 22 2623 -34 
Q 2366 -91 2075 -91 
Q 1284 -91 818 406 
Q 353 903 353 1747 
Q 353 2603 823 3093 
Q 1294 3584 2113 3584 
Q 2378 3584 2631 3529 
Q 2884 3475 3122 3366 
z
" transform="scale(0.015625)"/>
       <path id="DejaVuSans-6f" d="M 1959 3097 
Q 1497 3097 1228 2736 
Q 959 2375 959 1747 
Q 959 1119 1226 758 
Q 1494 397 1959 397 
Q 2419 397 2687 759 
Q 2956 1122 2956 1747 
Q 2956 2369 2687 2733 
Q 2419 3097 1959 3097 
z
M 1959 3584 
Q 2709 3584 3137 3096 
Q 3566 2609 3566 1747 
Q 3566 888 3137 398 
Q 2709 -91 1959 -91 
Q 1206 -91 779 398 
Q 353 888 353 1747 
Q 353 2609 779 3096 
Q 1206 3584 1959 3584 
z
" transform="scale(0.015625)"/>
       <path id="DejaVuSans-72" d="M 2631 2963 
Q 2534 3019 2420 3045 
Q 2306 3072 2169 3072 
Q 1681 3072 1420 2755 
Q 1159 2438 1159 1844 
L 1159 0 
L 581 0 
L 581 3500 
L 1159 3500 
L 1159 2956 
Q 1341 3275 1631 3429 
Q 1922 3584 2338 3584 
Q 2397 3584 2469 3576 
Q 2541 3569 2628 3553 
L 2631 2963 
z
" transform="scale(0.015625)"/>
       <path id="DejaVuSans-65" d="M 3597 1894 
L 3597 1613 
L 953 1613 
Q 991 1019 1311 708 
Q 1631 397 2203 397 
Q 2534 397 2845 478 
Q 3156 559 3463 722 
L 3463 178 
Q 3153 47 2828 -22 
Q 2503 -91 2169 -91 
Q 1331 -91 842 396 
Q 353 884 353 1716 
Q 353 2575 817 3079 
Q 1281 3584 2069 3584 
Q 2775 3584 3186 3129 
Q 3597 2675 3597 1894 
z
M 3022 2063 
Q 3016 2534 2758 2815 
Q 2500 3097 2075 3097 
Q 1594 3097 1305 2825 
Q 1016 2553 972 2059 
L 3022 2063 
z
" transform="scale(0.015625)"/>
      </defs>
      <use xlink:href="#DejaVuSans-53"/>
      <use xlink:href="#DejaVuSans-63" x="63.476562"/>
      <use xlink:href="#DejaVuSans-6f" x="118.457031"/>
      <use xlink:href="#DejaVuSans-72" x="179.638672"/>
      <use xlink:href="#DejaVuSans-65" x="218.501953"/>
     </g>
    </g>
   </g>
   <g id="matplotlib.axis_2">
    <g id="ytick_1">
     <g id="line2d_6">
      <defs>
       <path id="m3280fbc4e5" d="M 0 0 
L -3.5 0 
" style="stroke: #000000; stroke-width: 0.8"/>
      </defs>
      <g>
       <use xlink:href="#m3280fbc4e5" x="57.6" y="307.584" style="stroke: #000000; stroke-width: 0.8"/>
      </g>
     </g>
     <g id="text_7">
      <!-- 0 -->
      <g transform="translate(44.2375 311.383219)scale(0.1 -0.1)">
       <use xlink:href="#DejaVuSans-30"/>
      </g>
     </g>
    </g>
    <g id="ytick_2">
     <g id="line2d_7">
      <g>
       <use xlink:href="#m3280fbc4e5" x="57.6" y="263.811979" style="stroke: #000000; stroke-width: 0.8"/>
      </g>
     </g>
     <g id="text_8">
      <!-- 100 -->
      <g transform="translate(31.5125 267.611198)scale(0.1 -0.1)">
       <use xlink:href="#DejaVuSans-31"/>
       <use xlink:href="#DejaVuSans-30" x="63.623047"/>
       <use xlink:href="#DejaVuSans-30" x="127.246094"/>
      </g>
     </g>
    </g>
    <g id="ytick_3">
     <g id="line2d_8">
      <g>
       <use xlink:href="#m3280fbc4e5" x="57.6" y="220.039959" style="stroke: #000000; stroke-width: 0.8"/>
      </g>
     </g>
     <g id="text_9">
      <!-- 200 -->
      <g transform="translate(31.5125 223.839177)scale(0.1 -0.1)">
       <use xlink:href="#DejaVuSans-32"/>
       <use xlink:href="#DejaVuSans-30" x="63.623047"/>
       <use xlink:href="#DejaVuSans-30" x="127.246094"/>
      </g>
     </g>
    </g>
    <g id="ytick_4">
     <g id="line2d_9">
      <g>
       <use xlink:href="#m3280fbc4e5" x="57.6" y="176.267938" style="stroke: #000000; stroke-width: 0.8"/>
      </g>
     </g>
     <g id="text_10">
      <!-- 300 -->
      <g transform="translate(31.5125 180.067157)scale(0.1 -0.1)">
       <defs>
        <path id="DejaVuSans-33" d="M 2597 2516 
Q 3050 2419 3304 2112 
Q 3559 1806 3559 1356 
Q 3559 666 3084 287 
Q 2609 -91 1734 -91 
Q 1441 -91 1130 -33 
Q 819 25 488 141 
L 488 750 
Q 750 597 1062 519 
Q 1375 441 1716 441 
Q 2309 441 2620 675 
Q 2931 909 2931 1356 
Q 2931 1769 2642 2001 
Q 2353 2234 1838 2234 
L 1294 2234 
L 1294 2753 
L 1863 2753 
Q 2328 2753 2575 2939 
Q 2822 3125 2822 3475 
Q 2822 3834 2567 4026 
Q 2313 4219 1838 4219 
Q 1578 4219 1281 4162 
Q 984 4106 628 3988 
L 628 4550 
Q 988 4650 1302 4700 
Q 1616 4750 1894 4750 
Q 2613 4750 3031 4423 
Q 3450 4097 3450 3541 
Q 3450 3153 3228 2886 
Q 3006 2619 2597 2516 
z
" transform="scale(0.015625)"/>
       </defs>
       <use xlink:href="#DejaVuSans-33"/>
       <use xlink:href="#DejaVuSans-30" x="63.623047"/>
       <use xlink:href="#DejaVuSans-30" x="127.246094"/>
      </g>
     </g>
    </g>
    <g id="ytick_5">
     <g id="line2d_10">
      <g>
       <use xlink:href="#m3280fbc4e5" x="57.6" y="132.495917" style="stroke: #000000; stroke-width: 0.8"/>
      </g>
     </g>
     <g id="text_11">
      <!-- 400 -->
      <g transform="translate(31.5125 136.295136)scale(0.1 -0.1)">
       <defs>
        <path id="DejaVuSans-34" d="M 2419 4116 
L 825 1625 
L 2419 1625 
L 2419 4116 
z
M 2253 4666 
L 3047 4666 
L 3047 1625 
L 3713 1625 
L 3713 1100 
L 3047 1100 
L 3047 0 
L 2419 0 
L 2419 1100 
L 313 1100 
L 313 1709 
L 2253 4666 
z
" transform="scale(0.015625)"/>
       </defs>
       <use xlink:href="#DejaVuSans-34"/>
       <use xlink:href="#DejaVuSans-30" x="63.623047"/>
       <use xlink:href="#DejaVuSans-30" x="127.246094"/>
      </g>
     </g>
    </g>
    <g id="ytick_6">
     <g id="line2d_11">
      <g>
       <use xlink:href="#m3280fbc4e5" x="57.6" y="88.723896" style="stroke: #000000; stroke-width: 0.8"/>
      </g>
     </g>
     <g id="text_12">
      <!-- 500 -->
      <g transform="translate(31.5125 92.523115)scale(0.1 -0.1)">
       <use xlink:href="#DejaVuSans-35"/>
       <use xlink:href="#DejaVuSans-30" x="63.623047"/>
       <use xlink:href="#DejaVuSans-30" x="127.246094"/>
      </g>
     </g>
    </g>
    <g id="ytick_7">
     <g id="line2d_12">
      <g>
       <use xlink:href="#m3280fbc4e5" x="57.6" y="44.951876" style="stroke: #000000; stroke-width: 0.8"/>
      </g>
     </g>
     <g id="text_13">
      <!-- 600 -->
      <g transform="translate(31.5125 48.751094)scale(0.1 -0.1)">
       <defs>
        <path id="DejaVuSans-36" d="M 2113 2584 
Q 1688 2584 1439 2293 
Q 1191 2003 1191 1497 
Q 1191 994 1439 701 
Q 1688 409 2113 409 
Q 2538 409 2786 701 
Q 3034 994 3034 1497 
Q 3034 2003 2786 2293 
Q 2538 2584 2113 2584 
z
M 3366 4563 
L 3366 3988 
Q 3128 4100 2886 4159 
Q 2644 4219 2406 4219 
Q 1781 4219 1451 3797 
Q 1122 3375 1075 2522 
Q 1259 2794 1537 2939 
Q 1816 3084 2150 3084 
Q 2853 3084 3261 2657 
Q 3669 2231 3669 1497 
Q 3669 778 3244 343 
Q 2819 -91 2113 -91 
Q 1303 -91 875 529 
Q 447 1150 447 2328 
Q 447 3434 972 4092 
Q 1497 4750 2381 4750 
Q 2619 4750 2861 4703 
Q 3103 4656 3366 4563 
z
" transform="scale(0.015625)"/>
       </defs>
       <use xlink:href="#DejaVuSans-36"/>
       <use xlink:href="#DejaVuSans-30" x="63.623047"/>
       <use xlink:href="#DejaVuSans-30" x="127.246094"/>
      </g>
     </g>
    </g>
    <g id="text_14">
     <!-- Number of crosslinks -->
     <g transform="translate(25.432812 227.019406)rotate(-90)scale(0.1 -0.1)">
      <defs>
       <path id="DejaVuSans-4e" d="M 628 4666 
L 1478 4666 
L 3547 763 
L 3547 4666 
L 4159 4666 
L 4159 0 
L 3309 0 
L 1241 3903 
L 1241 0 
L 628 0 
L 628 4666 
z
" transform="scale(0.015625)"/>
       <path id="DejaVuSans-75" d="M 544 1381 
L 544 3500 
L 1119 3500 
L 1119 1403 
Q 1119 906 1312 657 
Q 1506 409 1894 409 
Q 2359 409 2629 706 
Q 2900 1003 2900 1516 
L 2900 3500 
L 3475 3500 
L 3475 0 
L 2900 0 
L 2900 538 
Q 2691 219 2414 64 
Q 2138 -91 1772 -91 
Q 1169 -91 856 284 
Q 544 659 544 1381 
z
M 1991 3584 
L 1991 3584 
z
" transform="scale(0.015625)"/>
       <path id="DejaVuSans-6d" d="M 3328 2828 
Q 3544 3216 3844 3400 
Q 4144 3584 4550 3584 
Q 5097 3584 5394 3201 
Q 5691 2819 5691 2113 
L 5691 0 
L 5113 0 
L 5113 2094 
Q 5113 2597 4934 2840 
Q 4756 3084 4391 3084 
Q 3944 3084 3684 2787 
Q 3425 2491 3425 1978 
L 3425 0 
L 2847 0 
L 2847 2094 
Q 2847 2600 2669 2842 
Q 2491 3084 2119 3084 
Q 1678 3084 1418 2786 
Q 1159 2488 1159 1978 
L 1159 0 
L 581 0 
L 581 3500 
L 1159 3500 
L 1159 2956 
Q 1356 3278 1631 3431 
Q 1906 3584 2284 3584 
Q 2666 3584 2933 3390 
Q 3200 3197 3328 2828 
z
" transform="scale(0.015625)"/>
       <path id="DejaVuSans-62" d="M 3116 1747 
Q 3116 2381 2855 2742 
Q 2594 3103 2138 3103 
Q 1681 3103 1420 2742 
Q 1159 2381 1159 1747 
Q 1159 1113 1420 752 
Q 1681 391 2138 391 
Q 2594 391 2855 752 
Q 3116 1113 3116 1747 
z
M 1159 2969 
Q 1341 3281 1617 3432 
Q 1894 3584 2278 3584 
Q 2916 3584 3314 3078 
Q 3713 2572 3713 1747 
Q 3713 922 3314 415 
Q 2916 -91 2278 -91 
Q 1894 -91 1617 61 
Q 1341 213 1159 525 
L 1159 0 
L 581 0 
L 581 4863 
L 1159 4863 
L 1159 2969 
z
" transform="scale(0.015625)"/>
       <path id="DejaVuSans-20" transform="scale(0.015625)"/>
       <path id="DejaVuSans-66" d="M 2375 4863 
L 2375 4384 
L 1825 4384 
Q 1516 4384 1395 4259 
Q 1275 4134 1275 3809 
L 1275 3500 
L 2222 3500 
L 2222 3053 
L 1275 3053 
L 1275 0 
L 697 0 
L 697 3053 
L 147 3053 
L 147 3500 
L 697 3500 
L 697 3744 
Q 697 4328 969 4595 
Q 1241 4863 1831 4863 
L 2375 4863 
z
" transform="scale(0.015625)"/>
       <path id="DejaVuSans-73" d="M 2834 3397 
L 2834 2853 
Q 2591 2978 2328 3040 
Q 2066 3103 1784 3103 
Q 1356 3103 1142 2972 
Q 928 2841 928 2578 
Q 928 2378 1081 2264 
Q 1234 2150 1697 2047 
L 1894 2003 
Q 2506 1872 2764 1633 
Q 3022 1394 3022 966 
Q 3022 478 2636 193 
Q 2250 -91 1575 -91 
Q 1294 -91 989 -36 
Q 684 19 347 128 
L 347 722 
Q 666 556 975 473 
Q 1284 391 1588 391 
Q 1994 391 2212 530 
Q 2431 669 2431 922 
Q 2431 1156 2273 1281 
Q 2116 1406 1581 1522 
L 1381 1569 
Q 847 1681 609 1914 
Q 372 2147 372 2553 
Q 372 3047 722 3315 
Q 1072 3584 1716 3584 
Q 2034 3584 2315 3537 
Q 2597 3491 2834 3397 
z
" transform="scale(0.015625)"/>
       <path id="DejaVuSans-6c" d="M 603 4863 
L 1178 4863 
L 1178 0 
L 603 0 
L 603 4863 
z
" transform="scale(0.015625)"/>
       <path id="DejaVuSans-69" d="M 603 3500 
L 1178 3500 
L 1178 0 
L 603 0 
L 603 3500 
z
M 603 4863 
L 1178 4863 
L 1178 4134 
L 603 4134 
L 603 4863 
z
" transform="scale(0.015625)"/>
       <path id="DejaVuSans-6e" d="M 3513 2113 
L 3513 0 
L 2938 0 
L 2938 2094 
Q 2938 2591 2744 2837 
Q 2550 3084 2163 3084 
Q 1697 3084 1428 2787 
Q 1159 2491 1159 1978 
L 1159 0 
L 581 0 
L 581 3500 
L 1159 3500 
L 1159 2956 
Q 1366 3272 1645 3428 
Q 1925 3584 2291 3584 
Q 2894 3584 3203 3211 
Q 3513 2838 3513 2113 
z
" transform="scale(0.015625)"/>
       <path id="DejaVuSans-6b" d="M 581 4863 
L 1159 4863 
L 1159 1991 
L 2875 3500 
L 3609 3500 
L 1753 1863 
L 3688 0 
L 2938 0 
L 1159 1709 
L 1159 0 
L 581 0 
L 581 4863 
z
" transform="scale(0.015625)"/>
      </defs>
      <use xlink:href="#DejaVuSans-4e"/>
      <use xlink:href="#DejaVuSans-75" x="74.804688"/>
      <use xlink:href="#DejaVuSans-6d" x="138.183594"/>
      <use xlink:href="#DejaVuSans-62" x="235.595703"/>
      <use xlink:href="#DejaVuSans-65" x="299.072266"/>
      <use xlink:href="#DejaVuSans-72" x="360.595703"/>
      <use xlink:href="#DejaVuSans-20" x="401.708984"/>
      <use xlink:href="#DejaVuSans-6f" x="433.496094"/>
      <use xlink:href="#DejaVuSans-66" x="494.677734"/>
      <use xlink:href="#DejaVuSans-20" x="529.882812"/>
      <use xlink:href="#DejaVuSans-63" x="561.669922"/>
      <use xlink:href="#DejaVuSans-72" x="616.650391"/>
      <use xlink:href="#DejaVuSans-6f" x="655.513672"/>
      <use xlink:href="#DejaVuSans-73" x="716.695312"/>
      <use xlink:href="#DejaVuSans-73" x="768.794922"/>
      <use xlink:href="#DejaVuSans-6c" x="820.894531"/>
      <use xlink:href="#DejaVuSans-69" x="848.677734"/>
      <use xlink:href="#DejaVuSans-6e" x="876.460938"/>
      <use xlink:href="#DejaVuSans-6b" x="939.839844"/>
      <use xlink:href="#DejaVuSans-73" x="997.75"/>
     </g>
    </g>
   </g>
   <g id="patch_3">
    <path d="M 57.6 307.584 
L 57.6 41.472 
" style="fill: none; stroke: #000000; stroke-width: 0.8; stroke-linejoin: miter; stroke-linecap: square"/>
   </g>
   <g id="patch_4">
    <path d="M 414.72 307.584 
L 414.72 41.472 
" style="fill: none; stroke: #000000; stroke-width: 0.8; stroke-linejoin: miter; stroke-linecap: square"/>
   </g>
   <g id="patch_5">
    <path d="M 57.6 307.584 
L 414.72 307.584 
" style="fill: none; stroke: #000000; stroke-width: 0.8; stroke-linejoin: miter; stroke-linecap: square"/>
   </g>
   <g id="patch_6">
    <path d="M 57.6 41.472 
L 414.72 41.472 
" style="fill: none; stroke: #000000; stroke-width: 0.8; stroke-linejoin: miter; stroke-linecap: square"/>
   </g>
   <g id="legend_1">
    <g id="patch_7">
     <path d="M 278.598125 93.506375 
L 407.72 93.506375 
Q 409.72 93.506375 409.72 91.506375 
L 409.72 48.472 
Q 409.72 46.472 407.72 46.472 
L 278.598125 46.472 
Q 276.598125 46.472 276.598125 48.472 
L 276.598125 91.506375 
Q 276.598125 93.506375 278.598125 93.506375 
z
" style="fill: #ffffff; opacity: 0.8; stroke: #cccccc; stroke-linejoin: miter"/>
    </g>
    <g id="patch_8">
     <path d="M 280.598125 58.070438 
L 300.598125 58.070438 
L 300.598125 51.070438 
L 280.598125 51.070438 
z
" style="fill: #008000"/>
    </g>
    <g id="text_15">
     <!-- correct -->
     <g transform="translate(308.598125 58.070438)scale(0.1 -0.1)">
      <defs>
       <path id="DejaVuSans-74" d="M 1172 4494 
L 1172 3500 
L 2356 3500 
L 2356 3053 
L 1172 3053 
L 1172 1153 
Q 1172 725 1289 603 
Q 1406 481 1766 481 
L 2356 481 
L 2356 0 
L 1766 0 
Q 1100 0 847 248 
Q 594 497 594 1153 
L 594 3053 
L 172 3053 
L 172 3500 
L 594 3500 
L 594 4494 
L 1172 4494 
z
" transform="scale(0.015625)"/>
      </defs>
      <use xlink:href="#DejaVuSans-63"/>
      <use xlink:href="#DejaVuSans-6f" x="54.980469"/>
      <use xlink:href="#DejaVuSans-72" x="116.162109"/>
      <use xlink:href="#DejaVuSans-72" x="155.525391"/>
      <use xlink:href="#DejaVuSans-65" x="194.388672"/>
      <use xlink:href="#DejaVuSans-63" x="255.912109"/>
      <use xlink:href="#DejaVuSans-74" x="310.892578"/>
     </g>
    </g>
    <g id="patch_9">
     <path d="M 280.598125 72.748563 
L 300.598125 72.748563 
L 300.598125 65.748563 
L 280.598125 65.748563 
z
" style="fill: #7cfc00"/>
    </g>
    <g id="text_16">
     <!-- correct homeotypic -->
     <g transform="translate(308.598125 72.748563)scale(0.1 -0.1)">
      <defs>
       <path id="DejaVuSans-68" d="M 3513 2113 
L 3513 0 
L 2938 0 
L 2938 2094 
Q 2938 2591 2744 2837 
Q 2550 3084 2163 3084 
Q 1697 3084 1428 2787 
Q 1159 2491 1159 1978 
L 1159 0 
L 581 0 
L 581 4863 
L 1159 4863 
L 1159 2956 
Q 1366 3272 1645 3428 
Q 1925 3584 2291 3584 
Q 2894 3584 3203 3211 
Q 3513 2838 3513 2113 
z
" transform="scale(0.015625)"/>
       <path id="DejaVuSans-79" d="M 2059 -325 
Q 1816 -950 1584 -1140 
Q 1353 -1331 966 -1331 
L 506 -1331 
L 506 -850 
L 844 -850 
Q 1081 -850 1212 -737 
Q 1344 -625 1503 -206 
L 1606 56 
L 191 3500 
L 800 3500 
L 1894 763 
L 2988 3500 
L 3597 3500 
L 2059 -325 
z
" transform="scale(0.015625)"/>
       <path id="DejaVuSans-70" d="M 1159 525 
L 1159 -1331 
L 581 -1331 
L 581 3500 
L 1159 3500 
L 1159 2969 
Q 1341 3281 1617 3432 
Q 1894 3584 2278 3584 
Q 2916 3584 3314 3078 
Q 3713 2572 3713 1747 
Q 3713 922 3314 415 
Q 2916 -91 2278 -91 
Q 1894 -91 1617 61 
Q 1341 213 1159 525 
z
M 3116 1747 
Q 3116 2381 2855 2742 
Q 2594 3103 2138 3103 
Q 1681 3103 1420 2742 
Q 1159 2381 1159 1747 
Q 1159 1113 1420 752 
Q 1681 391 2138 391 
Q 2594 391 2855 752 
Q 3116 1113 3116 1747 
z
" transform="scale(0.015625)"/>
      </defs>
      <use xlink:href="#DejaVuSans-63"/>
      <use xlink:href="#DejaVuSans-6f" x="54.980469"/>
      <use xlink:href="#DejaVuSans-72" x="116.162109"/>
      <use xlink:href="#DejaVuSans-72" x="155.525391"/>
      <use xlink:href="#DejaVuSans-65" x="194.388672"/>
      <use xlink:href="#DejaVuSans-63" x="255.912109"/>
      <use xlink:href="#DejaVuSans-74" x="310.892578"/>
      <use xlink:href="#DejaVuSans-20" x="350.101562"/>
      <use xlink:href="#DejaVuSans-68" x="381.888672"/>
      <use xlink:href="#DejaVuSans-6f" x="445.267578"/>
      <use xlink:href="#DejaVuSans-6d" x="506.449219"/>
      <use xlink:href="#DejaVuSans-65" x="603.861328"/>
      <use xlink:href="#DejaVuSans-6f" x="665.384766"/>
      <use xlink:href="#DejaVuSans-74" x="726.566406"/>
      <use xlink:href="#DejaVuSans-79" x="765.775391"/>
      <use xlink:href="#DejaVuSans-70" x="824.955078"/>
      <use xlink:href="#DejaVuSans-69" x="888.431641"/>
      <use xlink:href="#DejaVuSans-63" x="916.214844"/>
     </g>
    </g>
    <g id="patch_10">
     <path d="M 280.598125 87.426688 
L 300.598125 87.426688 
L 300.598125 80.426688 
L 280.598125 80.426688 
z
" style="fill: #ff0000"/>
    </g>
    <g id="text_17">
     <!-- false -->
     <g transform="translate(308.598125 87.426688)scale(0.1 -0.1)">
      <defs>
       <path id="DejaVuSans-61" d="M 2194 1759 
Q 1497 1759 1228 1600 
Q 959 1441 959 1056 
Q 959 750 1161 570 
Q 1363 391 1709 391 
Q 2188 391 2477 730 
Q 2766 1069 2766 1631 
L 2766 1759 
L 2194 1759 
z
M 3341 1997 
L 3341 0 
L 2766 0 
L 2766 531 
Q 2569 213 2275 61 
Q 1981 -91 1556 -91 
Q 1019 -91 701 211 
Q 384 513 384 1019 
Q 384 1609 779 1909 
Q 1175 2209 1959 2209 
L 2766 2209 
L 2766 2266 
Q 2766 2663 2505 2880 
Q 2244 3097 1772 3097 
Q 1472 3097 1187 3025 
Q 903 2953 641 2809 
L 641 3341 
Q 956 3463 1253 3523 
Q 1550 3584 1831 3584 
Q 2591 3584 2966 3190 
Q 3341 2797 3341 1997 
z
" transform="scale(0.015625)"/>
      </defs>
      <use xlink:href="#DejaVuSans-66"/>
      <use xlink:href="#DejaVuSans-61" x="35.205078"/>
      <use xlink:href="#DejaVuSans-6c" x="96.484375"/>
      <use xlink:href="#DejaVuSans-73" x="124.267578"/>
      <use xlink:href="#DejaVuSans-65" x="176.367188"/>
     </g>
    </g>
   </g>
  </g>
 </g>
 <defs>
  <clipPath id="p60e3b4245e">
   <rect x="57.6" y="41.472" width="357.12" height="266.112"/>
  </clipPath>
 </defs>
</svg>
