<?xml version="1.0" encoding="utf-8" standalone="no"?>
<!DOCTYPE svg PUBLIC "-//W3C//DTD SVG 1.1//EN"
  "http://www.w3.org/Graphics/SVG/1.1/DTD/svg11.dtd">
<svg xmlns:xlink="http://www.w3.org/1999/xlink" width="460.8pt" height="345.6pt" viewBox="0 0 460.8 345.6" xmlns="http://www.w3.org/2000/svg" version="1.1">
 <metadata>
  <rdf:RDF xmlns:dc="http://purl.org/dc/elements/1.1/" xmlns:cc="http://creativecommons.org/ns#" xmlns:rdf="http://www.w3.org/1999/02/22-rdf-syntax-ns#">
   <cc:Work>
    <dc:type rdf:resource="http://purl.org/dc/dcmitype/StillImage"/>
    <dc:date>2022-07-28T11:17:13.337191</dc:date>
    <dc:format>image/svg+xml</dc:format>
    <dc:creator>
     <cc:Agent>
      <dc:title>Matplotlib v3.5.1, https://matplotlib.org/</dc:title>
     </cc:Agent>
    </dc:creator>
   </cc:Work>
  </rdf:RDF>
 </metadata>
 <defs>
  <style type="text/css">*{stroke-linejoin: round; stroke-linecap: butt}</style>
 </defs>
 <g id="figure_1">
  <g id="patch_1">
   <path d="M 0 345.6 
L 460.8 345.6 
L 460.8 0 
L 0 0 
z
" style="fill: #ffffff"/>
  </g>
  <g id="axes_1">
   <g id="patch_2">
    <path d="M 57.6 307.584 
L 414.72 307.584 
L 414.72 41.472 
L 57.6 41.472 
z
" style="fill: #ffffff"/>
   </g>
   <g id="PolyCollection_1">
    <path d="M 73.832727 66.816 
L 73.832727 307.584 
L 74.149061 307.584 
L 74.795482 307.584 
L 75.056801 307.584 
L 75.593193 307.584 
L 75.661961 307.584 
L 76.22586 307.584 
L 76.294628 307.584 
L 76.734744 307.584 
L 77.037324 307.584 
L 77.28489 307.584 
L 78.165122 307.584 
L 78.756528 307.584 
L 78.797789 307.584 
L 78.921572 307.584 
L 79.086616 307.584 
L 79.127877 307.584 
L 79.265413 307.584 
L 79.375442 307.584 
L 79.512978 307.584 
L 80.585762 307.584 
L 80.888342 307.584 
L 81.589777 307.584 
L 81.878604 307.584 
L 82.414995 307.584 
L 82.676314 307.584 
L 84.1342 307.584 
L 84.78062 307.584 
L 85.509563 307.584 
L 85.564578 307.584 
L 85.770882 307.584 
L 86.678622 307.584 
L 87.022463 307.584 
L 87.902695 307.584 
L 88.122754 307.584 
L 88.824189 307.584 
L 89.498117 307.584 
L 89.511871 307.584 
L 89.869465 307.584 
L 90.488379 307.584 
L 90.98351 307.584 
L 92.606439 307.584 
L 93.527932 307.584 
L 93.816758 307.584 
L 94.339397 307.584 
L 94.394411 307.584 
L 94.476933 307.584 
L 95.439687 307.584 
L 96.031094 307.584 
L 96.209891 307.584 
L 96.251152 307.584 
L 97.22766 307.584 
L 97.585254 307.584 
L 98.039124 307.584 
L 98.561762 307.584 
L 98.58927 307.584 
L 98.630531 307.584 
L 99.166922 307.584 
L 100.047155 307.584 
L 100.170938 307.584 
L 100.184691 307.584 
L 100.666068 307.584 
L 101.642576 307.584 
L 101.986417 307.584 
L 102.082693 307.584 
L 103.004186 307.584 
L 103.416795 307.584 
L 103.801897 307.584 
L 104.07697 307.584 
L 104.558347 307.584 
L 104.83342 307.584 
L 107.804205 307.584 
L 108.574408 307.584 
L 108.615669 307.584 
L 109.193322 307.584 
L 109.977279 307.584 
L 111.421411 307.584 
L 112.975571 307.584 
L 113.071847 307.584 
L 113.429441 307.584 
L 113.759529 307.584 
L 113.910819 307.584 
L 115.423718 307.584 
L 116.097646 307.584 
L 117.486764 307.584 
L 117.816851 307.584 
L 119.082185 307.584 
L 120.49881 307.584 
L 122.300536 307.584 
L 122.50684 307.584 
L 123.524609 307.584 
L 124.184784 307.584 
L 124.6249 307.584 
L 124.968741 307.584 
L 125.505133 307.584 
L 125.642669 307.584 
L 126.165307 307.584 
L 127.114308 307.584 
L 128.090816 307.584 
L 128.118323 307.584 
L 128.544686 307.584 
L 128.874773 307.584 
L 129.177353 307.584 
L 129.438672 307.584 
L 129.65873 307.584 
L 129.96131 307.584 
L 132.973356 307.584 
L 133.330951 307.584 
L 133.922357 307.584 
L 134.211183 307.584 
L 134.541271 307.584 
L 135.022648 307.584 
L 138.103462 307.584 
L 138.557332 307.584 
L 138.722375 307.584 
L 139.011202 307.584 
L 139.189999 307.584 
L 139.671376 307.584 
L 139.726391 307.584 
L 139.740144 307.584 
L 139.822666 307.584 
L 140.867942 307.584 
L 140.922957 307.584 
L 142.050755 307.584 
L 142.14703 307.584 
L 142.614654 307.584 
L 142.628408 307.584 
L 144.485148 307.584 
L 144.526409 307.584 
L 144.897757 307.584 
L 145.489164 307.584 
L 146.396904 307.584 
L 147.717253 307.584 
L 148.074847 307.584 
L 148.569978 307.584 
L 149.75279 307.584 
L 150.041617 307.584 
L 150.426719 307.584 
L 150.467979 307.584 
L 151.251937 307.584 
L 151.788328 307.584 
L 152.17343 307.584 
L 152.407242 307.584 
L 154.882896 307.584 
L 155.089201 307.584 
L 156.574593 307.584 
L 156.90468 307.584 
L 158.610131 307.584 
L 159.119016 307.584 
L 159.187784 307.584 
L 159.242798 307.584 
L 159.449103 307.584 
L 159.47661 307.584 
L 159.490364 307.584 
L 159.792944 307.584 
L 159.806697 307.584 
L 159.834205 307.584 
L 160.98951 307.584 
L 162.846251 307.584 
L 163.011294 307.584 
L 163.313874 307.584 
L 163.355135 307.584 
L 163.698976 307.584 
L 164.771759 307.584 
L 165.404427 307.584 
L 165.500702 307.584 
L 167.288675 307.584 
L 168.223922 307.584 
L 168.320197 307.584 
L 169.626792 307.584 
L 169.915619 307.584 
L 171.043417 307.584 
L 172.1162 307.584 
L 172.308751 307.584 
L 172.817636 307.584 
L 172.996433 307.584 
L 174.124231 307.584 
L 174.811913 307.584 
L 175.939711 307.584 
L 177.507625 307.584 
L 177.576393 307.584 
L 178.690438 307.584 
L 178.704191 307.584 
L 178.938003 307.584 
L 179.213076 307.584 
L 179.914511 307.584 
L 180.093308 307.584 
L 180.450903 307.584 
L 180.794744 307.584 
L 181.028556 307.584 
L 182.500194 307.584 
L 183.435442 307.584 
L 185.250921 307.584 
L 185.801067 307.584 
L 186.131154 307.584 
L 187.78159 307.584 
L 188.771852 307.584 
L 189.156954 307.584 
L 189.555809 307.584 
L 189.927157 307.584 
L 190.326013 307.584 
L 191.082462 307.584 
L 191.495072 307.584 
L 191.522579 307.584 
L 192.155246 307.584 
L 192.196507 307.584 
L 192.980464 307.584 
L 193.929465 307.584 
L 194.342074 307.584 
L 195.676176 307.584 
L 195.99251 307.584 
L 196.185061 307.584 
L 196.212568 307.584 
L 196.583916 307.584 
L 196.845235 307.584 
L 197.244091 307.584 
L 197.285352 307.584 
L 199.114585 307.584 
L 199.128339 307.584 
L 199.664731 307.584 
L 200.132354 307.584 
L 200.462441 307.584 
L 202.099124 307.584 
L 202.938096 307.584 
L 203.034371 307.584 
L 203.887096 307.584 
L 204.175923 307.584 
L 205.344982 307.584 
L 206.706591 307.584 
L 207.297998 307.584 
L 207.53181 307.584 
L 208.879666 307.584 
L 209.044709 307.584 
L 210.007464 307.584 
L 210.076232 307.584 
L 210.475087 307.584 
L 214.628685 307.584 
L 214.669946 307.584 
L 214.83499 307.584 
L 215.165077 307.584 
L 216.732991 307.584 
L 217.338151 307.584 
L 218.383427 307.584 
L 219.648762 307.584 
L 219.978849 307.584 
L 220.32269 307.584 
L 221.436734 307.584 
L 221.931865 307.584 
L 222.193184 307.584 
L 222.78459 307.584 
L 223.348489 307.584 
L 225.6591 307.584 
L 228.341059 307.584 
L 228.602378 307.584 
L 229.235045 307.584 
L 229.565132 307.584 
L 230.651669 307.584 
L 232.247091 307.584 
L 233.11357 307.584 
L 233.993803 307.584 
L 234.942803 307.584 
L 237.198399 307.584 
L 237.762298 307.584 
L 239.082647 307.584 
L 240.196692 307.584 
L 240.994403 307.584 
L 241.407012 307.584 
L 243.841405 307.584 
L 244.859174 307.584 
L 245.835682 307.584 
L 246.880958 307.584 
L 247.747437 307.584 
L 247.967495 307.584 
L 248.462626 307.584 
L 248.971511 307.584 
L 251.488426 307.584 
L 251.722238 307.584 
L 253.427688 307.584 
L 256.013372 307.584 
L 256.137154 307.584 
L 256.522256 307.584 
L 259.465534 307.584 
L 259.658085 307.584 
L 259.726853 307.584 
L 264.499364 307.584 
L 264.568132 307.584 
L 268.694223 307.584 
L 271.871312 307.584 
L 274.374474 307.584 
L 274.6633 307.584 
L 274.677054 307.584 
L 277.207723 307.584 
L 282.324075 307.584 
L 286.340136 307.584 
L 287.289137 307.584 
L 292.488011 307.584 
L 297.439319 307.584 
L 311.192954 307.584 
L 317.27206 307.584 
L 321.178092 307.584 
L 333.24003 307.584 
L 354.049279 307.584 
L 398.487273 307.584 
L 398.487273 306.917053 
L 398.487273 306.917053 
L 354.049279 306.250105 
L 333.24003 305.583158 
L 321.178092 304.916211 
L 317.27206 304.249263 
L 311.192954 303.582316 
L 297.439319 302.915368 
L 292.488011 302.248421 
L 287.289137 301.581474 
L 286.340136 300.914526 
L 282.324075 300.247579 
L 277.207723 299.580632 
L 274.677054 298.913684 
L 274.6633 298.246737 
L 274.374474 297.579789 
L 271.871312 296.912842 
L 268.694223 296.245895 
L 264.568132 295.578947 
L 264.499364 294.912 
L 259.726853 294.245053 
L 259.658085 293.578105 
L 259.465534 292.911158 
L 256.522256 292.244211 
L 256.137154 291.577263 
L 256.013372 290.910316 
L 253.427688 290.243368 
L 251.722238 289.576421 
L 251.488426 288.909474 
L 248.971511 288.242526 
L 248.462626 286.908632 
L 247.967495 286.241684 
L 247.747437 285.574737 
L 246.880958 284.907789 
L 245.835682 284.240842 
L 244.859174 283.573895 
L 243.841405 282.906947 
L 241.407012 282.24 
L 240.994403 279.572211 
L 240.196692 278.905263 
L 239.082647 278.238316 
L 237.762298 277.571368 
L 237.198399 276.904421 
L 234.942803 276.237474 
L 233.993803 275.570526 
L 233.11357 274.236632 
L 232.247091 272.902737 
L 230.651669 271.568842 
L 229.565132 270.901895 
L 229.235045 269.568 
L 228.602378 268.901053 
L 228.341059 268.234105 
L 225.6591 266.900211 
L 223.348489 265.566316 
L 222.78459 264.899368 
L 222.193184 264.232421 
L 221.931865 263.565474 
L 221.436734 262.231579 
L 220.32269 261.564632 
L 219.978849 260.897684 
L 219.648762 260.230737 
L 218.383427 258.229895 
L 217.338151 257.562947 
L 216.732991 256.229053 
L 215.165077 255.562105 
L 214.83499 254.895158 
L 214.669946 254.228211 
L 214.628685 253.561263 
L 210.475087 252.894316 
L 210.076232 252.227368 
L 210.007464 251.560421 
L 209.044709 250.226526 
L 208.879666 249.559579 
L 207.53181 248.892632 
L 207.297998 248.225684 
L 206.706591 247.558737 
L 205.344982 246.891789 
L 204.175923 244.890947 
L 203.887096 244.224 
L 203.034371 243.557053 
L 202.938096 242.890105 
L 202.099124 242.223158 
L 200.462441 240.889263 
L 200.132354 240.222316 
L 199.664731 238.888421 
L 199.128339 237.554526 
L 199.114585 236.887579 
L 197.285352 235.553684 
L 197.244091 234.219789 
L 196.845235 233.552842 
L 196.583916 232.885895 
L 196.212568 231.552 
L 196.185061 230.885053 
L 195.99251 230.218105 
L 195.676176 229.551158 
L 194.342074 228.217263 
L 193.929465 226.883368 
L 192.980464 226.216421 
L 192.196507 225.549474 
L 192.155246 224.882526 
L 191.522579 224.215579 
L 191.495072 223.548632 
L 191.082462 222.214737 
L 190.326013 220.880842 
L 189.927157 219.546947 
L 189.555809 218.88 
L 189.156954 218.213053 
L 188.771852 216.879158 
L 187.78159 216.212211 
L 186.131154 215.545263 
L 185.801067 214.211368 
L 185.250921 213.544421 
L 183.435442 213.544421 
L 182.500194 212.210526 
L 181.028556 211.543579 
L 180.794744 210.876632 
L 180.450903 210.209684 
L 180.093308 209.542737 
L 179.914511 208.208842 
L 179.213076 207.541895 
L 178.938003 206.874947 
L 178.704191 206.208 
L 178.690438 205.541053 
L 177.576393 204.874105 
L 177.507625 204.207158 
L 175.939711 202.873263 
L 174.811913 202.206316 
L 174.124231 201.539368 
L 172.996433 200.872421 
L 172.817636 200.205474 
L 172.308751 198.871579 
L 172.1162 198.204632 
L 171.043417 197.537684 
L 169.915619 196.203789 
L 169.626792 194.202947 
L 168.320197 193.536 
L 168.223922 192.869053 
L 167.288675 192.202105 
L 165.500702 191.535158 
L 165.404427 190.868211 
L 164.771759 190.201263 
L 163.698976 189.534316 
L 163.355135 188.867368 
L 163.313874 188.200421 
L 163.011294 187.533474 
L 162.846251 186.866526 
L 160.98951 186.199579 
L 159.834205 185.532632 
L 159.806697 184.865684 
L 159.792944 183.531789 
L 159.490364 182.864842 
L 159.47661 182.197895 
L 159.449103 180.864 
L 159.242798 180.197053 
L 159.187784 179.530105 
L 159.119016 178.863158 
L 158.610131 178.196211 
L 156.90468 177.529263 
L 156.574593 176.862316 
L 155.089201 176.195368 
L 154.882896 175.528421 
L 152.407242 174.861474 
L 152.17343 172.193684 
L 151.788328 171.526737 
L 151.251937 170.859789 
L 150.467979 170.192842 
L 150.426719 168.858947 
L 150.041617 168.192 
L 149.75279 167.525053 
L 148.569978 166.858105 
L 148.074847 166.191158 
L 147.717253 165.524211 
L 146.396904 164.857263 
L 145.489164 163.523368 
L 144.897757 162.189474 
L 144.526409 160.855579 
L 144.485148 160.188632 
L 142.628408 159.521684 
L 142.614654 158.854737 
L 142.14703 158.187789 
L 142.050755 157.520842 
L 140.922957 156.853895 
L 140.867942 155.52 
L 139.822666 154.853053 
L 139.740144 153.519158 
L 139.726391 152.852211 
L 139.671376 152.185263 
L 139.189999 151.518316 
L 139.011202 150.851368 
L 138.722375 149.517474 
L 138.557332 147.516632 
L 138.103462 146.182737 
L 135.022648 145.515789 
L 134.541271 144.848842 
L 134.211183 144.181895 
L 133.922357 143.514947 
L 133.330951 142.848 
L 132.973356 142.181053 
L 129.96131 141.514105 
L 129.65873 140.847158 
L 129.438672 140.180211 
L 129.177353 139.513263 
L 128.874773 138.179368 
L 128.544686 137.512421 
L 128.118323 136.178526 
L 128.090816 135.511579 
L 127.114308 134.844632 
L 126.165307 133.510737 
L 125.642669 132.843789 
L 125.505133 132.176842 
L 124.968741 131.509895 
L 124.6249 129.509053 
L 124.184784 128.175158 
L 123.524609 127.508211 
L 122.50684 126.841263 
L 122.300536 126.174316 
L 120.49881 125.507368 
L 119.082185 124.840421 
L 117.816851 124.173474 
L 117.486764 123.506526 
L 116.097646 122.839579 
L 115.423718 122.172632 
L 113.910819 121.505684 
L 113.759529 120.838737 
L 113.429441 120.171789 
L 113.071847 119.504842 
L 112.975571 118.837895 
L 111.421411 118.170947 
L 109.977279 116.170105 
L 109.193322 115.503158 
L 108.615669 114.836211 
L 108.574408 114.169263 
L 107.804205 112.835368 
L 104.83342 112.168421 
L 104.558347 112.168421 
L 104.07697 111.501474 
L 103.801897 110.834526 
L 103.416795 110.167579 
L 103.004186 108.833684 
L 102.082693 108.166737 
L 101.986417 107.499789 
L 101.642576 106.832842 
L 100.666068 106.165895 
L 100.184691 105.498947 
L 100.170938 104.832 
L 100.047155 104.165053 
L 99.166922 103.498105 
L 98.630531 101.497263 
L 98.58927 101.497263 
L 98.561762 100.830316 
L 98.039124 100.163368 
L 97.585254 99.496421 
L 97.22766 98.829474 
L 96.251152 98.162526 
L 96.209891 97.495579 
L 96.031094 96.828632 
L 95.439687 96.161684 
L 94.476933 95.494737 
L 94.394411 94.160842 
L 94.339397 92.826947 
L 93.816758 92.16 
L 93.527932 91.493053 
L 92.606439 90.826105 
L 90.98351 88.825263 
L 90.488379 88.158316 
L 89.869465 86.824421 
L 89.511871 86.157474 
L 89.498117 85.490526 
L 88.824189 84.823579 
L 88.122754 84.156632 
L 87.902695 83.489684 
L 87.022463 82.822737 
L 86.678622 82.155789 
L 85.770882 81.488842 
L 85.564578 80.821895 
L 85.509563 80.821895 
L 84.78062 80.154947 
L 84.1342 78.821053 
L 82.676314 78.154105 
L 82.414995 77.487158 
L 81.878604 76.820211 
L 81.589777 76.153263 
L 80.888342 75.486316 
L 80.585762 74.819368 
L 79.512978 74.819368 
L 79.375442 74.152421 
L 79.265413 74.152421 
L 79.127877 74.152421 
L 79.086616 74.152421 
L 78.921572 73.485474 
L 78.797789 72.818526 
L 78.756528 72.151579 
L 78.165122 72.151579 
L 77.28489 71.484632 
L 77.037324 71.484632 
L 76.734744 70.817684 
L 76.294628 70.150737 
L 76.22586 69.483789 
L 75.661961 68.816842 
L 75.593193 68.816842 
L 75.056801 68.149895 
L 74.795482 67.482947 
L 74.149061 66.816 
L 73.832727 66.816 
z
" clip-path="url(#p9305145232)" style="fill: #008000"/>
   </g>
   <g id="PolyCollection_2">
    <path d="M 73.832727 66.816 
L 73.832727 66.816 
L 74.149061 66.816 
L 74.795482 67.482947 
L 75.056801 68.149895 
L 75.593193 68.816842 
L 75.661961 68.816842 
L 76.22586 69.483789 
L 76.294628 70.150737 
L 76.734744 70.817684 
L 77.037324 71.484632 
L 77.28489 71.484632 
L 78.165122 72.151579 
L 78.756528 72.151579 
L 78.797789 72.818526 
L 78.921572 73.485474 
L 79.086616 74.152421 
L 79.127877 74.152421 
L 79.265413 74.152421 
L 79.375442 74.152421 
L 79.512978 74.819368 
L 80.585762 74.819368 
L 80.888342 75.486316 
L 81.589777 76.153263 
L 81.878604 76.820211 
L 82.414995 77.487158 
L 82.676314 78.154105 
L 84.1342 78.821053 
L 84.78062 80.154947 
L 85.509563 80.821895 
L 85.564578 80.821895 
L 85.770882 81.488842 
L 86.678622 82.155789 
L 87.022463 82.822737 
L 87.902695 83.489684 
L 88.122754 84.156632 
L 88.824189 84.823579 
L 89.498117 85.490526 
L 89.511871 86.157474 
L 89.869465 86.824421 
L 90.488379 88.158316 
L 90.98351 88.825263 
L 92.606439 90.826105 
L 93.527932 91.493053 
L 93.816758 92.16 
L 94.339397 92.826947 
L 94.394411 94.160842 
L 94.476933 95.494737 
L 95.439687 96.161684 
L 96.031094 96.828632 
L 96.209891 97.495579 
L 96.251152 98.162526 
L 97.22766 98.829474 
L 97.585254 99.496421 
L 98.039124 100.163368 
L 98.561762 100.830316 
L 98.58927 101.497263 
L 98.630531 101.497263 
L 99.166922 103.498105 
L 100.047155 104.165053 
L 100.170938 104.832 
L 100.184691 105.498947 
L 100.666068 106.165895 
L 101.642576 106.832842 
L 101.986417 107.499789 
L 102.082693 108.166737 
L 103.004186 108.833684 
L 103.416795 110.167579 
L 103.801897 110.834526 
L 104.07697 111.501474 
L 104.558347 112.168421 
L 104.83342 112.168421 
L 107.804205 112.835368 
L 108.574408 114.169263 
L 108.615669 114.836211 
L 109.193322 115.503158 
L 109.977279 116.170105 
L 111.421411 118.170947 
L 112.975571 118.837895 
L 113.071847 119.504842 
L 113.429441 120.171789 
L 113.759529 120.838737 
L 113.910819 121.505684 
L 115.423718 122.172632 
L 116.097646 122.839579 
L 117.486764 123.506526 
L 117.816851 124.173474 
L 119.082185 124.840421 
L 120.49881 125.507368 
L 122.300536 126.174316 
L 122.50684 126.841263 
L 123.524609 127.508211 
L 124.184784 128.175158 
L 124.6249 129.509053 
L 124.968741 131.509895 
L 125.505133 132.176842 
L 125.642669 132.843789 
L 126.165307 133.510737 
L 127.114308 134.844632 
L 128.090816 135.511579 
L 128.118323 136.178526 
L 128.544686 137.512421 
L 128.874773 138.179368 
L 129.177353 139.513263 
L 129.438672 140.180211 
L 129.65873 140.847158 
L 129.96131 141.514105 
L 132.973356 142.181053 
L 133.330951 142.848 
L 133.922357 143.514947 
L 134.211183 144.181895 
L 134.541271 144.848842 
L 135.022648 145.515789 
L 138.103462 146.182737 
L 138.557332 147.516632 
L 138.722375 149.517474 
L 139.011202 150.851368 
L 139.189999 151.518316 
L 139.671376 152.185263 
L 139.726391 152.852211 
L 139.740144 153.519158 
L 139.822666 154.853053 
L 140.867942 155.52 
L 140.922957 156.853895 
L 142.050755 157.520842 
L 142.14703 158.187789 
L 142.614654 158.854737 
L 142.628408 159.521684 
L 144.485148 160.188632 
L 144.526409 160.855579 
L 144.897757 162.189474 
L 145.489164 163.523368 
L 146.396904 164.857263 
L 147.717253 165.524211 
L 148.074847 166.191158 
L 148.569978 166.858105 
L 149.75279 167.525053 
L 150.041617 168.192 
L 150.426719 168.858947 
L 150.467979 170.192842 
L 151.251937 170.859789 
L 151.788328 171.526737 
L 152.17343 172.193684 
L 152.407242 174.861474 
L 154.882896 175.528421 
L 155.089201 176.195368 
L 156.574593 176.862316 
L 156.90468 177.529263 
L 158.610131 178.196211 
L 159.119016 178.863158 
L 159.187784 179.530105 
L 159.242798 180.197053 
L 159.449103 180.864 
L 159.47661 182.197895 
L 159.490364 182.864842 
L 159.792944 183.531789 
L 159.806697 184.865684 
L 159.834205 185.532632 
L 160.98951 186.199579 
L 162.846251 186.866526 
L 163.011294 187.533474 
L 163.313874 188.200421 
L 163.355135 188.867368 
L 163.698976 189.534316 
L 164.771759 190.201263 
L 165.404427 190.868211 
L 165.500702 191.535158 
L 167.288675 192.202105 
L 168.223922 192.869053 
L 168.320197 193.536 
L 169.626792 194.202947 
L 169.915619 196.203789 
L 171.043417 197.537684 
L 172.1162 198.204632 
L 172.308751 198.871579 
L 172.817636 200.205474 
L 172.996433 200.872421 
L 174.124231 201.539368 
L 174.811913 202.206316 
L 175.939711 202.873263 
L 177.507625 204.207158 
L 177.576393 204.874105 
L 178.690438 205.541053 
L 178.704191 206.208 
L 178.938003 206.874947 
L 179.213076 207.541895 
L 179.914511 208.208842 
L 180.093308 209.542737 
L 180.450903 210.209684 
L 180.794744 210.876632 
L 181.028556 211.543579 
L 182.500194 212.210526 
L 183.435442 213.544421 
L 185.250921 213.544421 
L 185.801067 214.211368 
L 186.131154 215.545263 
L 187.78159 216.212211 
L 188.771852 216.879158 
L 189.156954 218.213053 
L 189.555809 218.88 
L 189.927157 219.546947 
L 190.326013 220.880842 
L 191.082462 222.214737 
L 191.495072 223.548632 
L 191.522579 224.215579 
L 192.155246 224.882526 
L 192.196507 225.549474 
L 192.980464 226.216421 
L 193.929465 226.883368 
L 194.342074 228.217263 
L 195.676176 229.551158 
L 195.99251 230.218105 
L 196.185061 230.885053 
L 196.212568 231.552 
L 196.583916 232.885895 
L 196.845235 233.552842 
L 197.244091 234.219789 
L 197.285352 235.553684 
L 199.114585 236.887579 
L 199.128339 237.554526 
L 199.664731 238.888421 
L 200.132354 240.222316 
L 200.462441 240.889263 
L 202.099124 242.223158 
L 202.938096 242.890105 
L 203.034371 243.557053 
L 203.887096 244.224 
L 204.175923 244.890947 
L 205.344982 246.891789 
L 206.706591 247.558737 
L 207.297998 248.225684 
L 207.53181 248.892632 
L 208.879666 249.559579 
L 209.044709 250.226526 
L 210.007464 251.560421 
L 210.076232 252.227368 
L 210.475087 252.894316 
L 214.628685 253.561263 
L 214.669946 254.228211 
L 214.83499 254.895158 
L 215.165077 255.562105 
L 216.732991 256.229053 
L 217.338151 257.562947 
L 218.383427 258.229895 
L 219.648762 260.230737 
L 219.978849 260.897684 
L 220.32269 261.564632 
L 221.436734 262.231579 
L 221.931865 263.565474 
L 222.193184 264.232421 
L 222.78459 264.899368 
L 223.348489 265.566316 
L 225.6591 266.900211 
L 228.341059 268.234105 
L 228.602378 268.901053 
L 229.235045 269.568 
L 229.565132 270.901895 
L 230.651669 271.568842 
L 232.247091 272.902737 
L 233.11357 274.236632 
L 233.993803 275.570526 
L 234.942803 276.237474 
L 237.198399 276.904421 
L 237.762298 277.571368 
L 239.082647 278.238316 
L 240.196692 278.905263 
L 240.994403 279.572211 
L 241.407012 282.24 
L 243.841405 282.906947 
L 244.859174 283.573895 
L 245.835682 284.240842 
L 246.880958 284.907789 
L 247.747437 285.574737 
L 247.967495 286.241684 
L 248.462626 286.908632 
L 248.971511 288.242526 
L 251.488426 288.909474 
L 251.722238 289.576421 
L 253.427688 290.243368 
L 256.013372 290.910316 
L 256.137154 291.577263 
L 256.522256 292.244211 
L 259.465534 292.911158 
L 259.658085 293.578105 
L 259.726853 294.245053 
L 264.499364 294.912 
L 264.568132 295.578947 
L 268.694223 296.245895 
L 271.871312 296.912842 
L 274.374474 297.579789 
L 274.6633 298.246737 
L 274.677054 298.913684 
L 277.207723 299.580632 
L 282.324075 300.247579 
L 286.340136 300.914526 
L 287.289137 301.581474 
L 292.488011 302.248421 
L 297.439319 302.915368 
L 311.192954 303.582316 
L 317.27206 304.249263 
L 321.178092 304.916211 
L 333.24003 305.583158 
L 354.049279 306.250105 
L 398.487273 306.917053 
L 398.487273 306.917053 
L 398.487273 306.917053 
L 354.049279 306.250105 
L 333.24003 305.583158 
L 321.178092 304.916211 
L 317.27206 304.249263 
L 311.192954 303.582316 
L 297.439319 302.915368 
L 292.488011 302.248421 
L 287.289137 301.581474 
L 286.340136 300.914526 
L 282.324075 300.247579 
L 277.207723 299.580632 
L 274.677054 298.913684 
L 274.6633 298.246737 
L 274.374474 297.579789 
L 271.871312 296.912842 
L 268.694223 296.245895 
L 264.568132 295.578947 
L 264.499364 294.912 
L 259.726853 294.245053 
L 259.658085 293.578105 
L 259.465534 292.911158 
L 256.522256 292.244211 
L 256.137154 291.577263 
L 256.013372 290.910316 
L 253.427688 290.243368 
L 251.722238 289.576421 
L 251.488426 288.909474 
L 248.971511 288.242526 
L 248.462626 286.908632 
L 247.967495 286.241684 
L 247.747437 285.574737 
L 246.880958 284.907789 
L 245.835682 284.240842 
L 244.859174 283.573895 
L 243.841405 282.906947 
L 241.407012 282.24 
L 240.994403 279.572211 
L 240.196692 278.905263 
L 239.082647 278.238316 
L 237.762298 277.571368 
L 237.198399 276.904421 
L 234.942803 276.237474 
L 233.993803 275.570526 
L 233.11357 274.236632 
L 232.247091 272.902737 
L 230.651669 271.568842 
L 229.565132 270.901895 
L 229.235045 269.568 
L 228.602378 268.901053 
L 228.341059 268.234105 
L 225.6591 266.900211 
L 223.348489 265.566316 
L 222.78459 264.899368 
L 222.193184 264.232421 
L 221.931865 263.565474 
L 221.436734 262.231579 
L 220.32269 261.564632 
L 219.978849 260.897684 
L 219.648762 260.230737 
L 218.383427 258.229895 
L 217.338151 257.562947 
L 216.732991 256.229053 
L 215.165077 255.562105 
L 214.83499 254.895158 
L 214.669946 254.228211 
L 214.628685 253.561263 
L 210.475087 252.894316 
L 210.076232 252.227368 
L 210.007464 251.560421 
L 209.044709 250.226526 
L 208.879666 249.559579 
L 207.53181 248.892632 
L 207.297998 248.225684 
L 206.706591 247.558737 
L 205.344982 246.891789 
L 204.175923 244.890947 
L 203.887096 244.224 
L 203.034371 243.557053 
L 202.938096 242.890105 
L 202.099124 242.223158 
L 200.462441 240.889263 
L 200.132354 240.222316 
L 199.664731 238.888421 
L 199.128339 237.554526 
L 199.114585 236.887579 
L 197.285352 235.553684 
L 197.244091 234.219789 
L 196.845235 233.552842 
L 196.583916 232.885895 
L 196.212568 231.552 
L 196.185061 230.885053 
L 195.99251 230.218105 
L 195.676176 229.551158 
L 194.342074 228.217263 
L 193.929465 226.883368 
L 192.980464 226.216421 
L 192.196507 225.549474 
L 192.155246 224.882526 
L 191.522579 224.215579 
L 191.495072 223.548632 
L 191.082462 222.214737 
L 190.326013 220.880842 
L 189.927157 219.546947 
L 189.555809 218.88 
L 189.156954 218.213053 
L 188.771852 216.879158 
L 187.78159 216.212211 
L 186.131154 215.545263 
L 185.801067 214.211368 
L 185.250921 213.544421 
L 183.435442 213.544421 
L 182.500194 212.210526 
L 181.028556 211.543579 
L 180.794744 210.876632 
L 180.450903 210.209684 
L 180.093308 209.542737 
L 179.914511 208.208842 
L 179.213076 207.541895 
L 178.938003 206.874947 
L 178.704191 206.208 
L 178.690438 205.541053 
L 177.576393 204.874105 
L 177.507625 204.207158 
L 175.939711 202.873263 
L 174.811913 202.206316 
L 174.124231 201.539368 
L 172.996433 200.872421 
L 172.817636 200.205474 
L 172.308751 198.871579 
L 172.1162 198.204632 
L 171.043417 197.537684 
L 169.915619 196.203789 
L 169.626792 194.202947 
L 168.320197 193.536 
L 168.223922 192.869053 
L 167.288675 192.202105 
L 165.500702 191.535158 
L 165.404427 190.868211 
L 164.771759 190.201263 
L 163.698976 189.534316 
L 163.355135 188.867368 
L 163.313874 188.200421 
L 163.011294 187.533474 
L 162.846251 186.866526 
L 160.98951 186.199579 
L 159.834205 185.532632 
L 159.806697 184.865684 
L 159.792944 183.531789 
L 159.490364 182.864842 
L 159.47661 182.197895 
L 159.449103 180.864 
L 159.242798 180.197053 
L 159.187784 179.530105 
L 159.119016 178.863158 
L 158.610131 178.196211 
L 156.90468 177.529263 
L 156.574593 176.862316 
L 155.089201 176.195368 
L 154.882896 175.528421 
L 152.407242 174.861474 
L 152.17343 172.193684 
L 151.788328 171.526737 
L 151.251937 170.859789 
L 150.467979 170.192842 
L 150.426719 168.858947 
L 150.041617 168.192 
L 149.75279 167.525053 
L 148.569978 166.858105 
L 148.074847 166.191158 
L 147.717253 165.524211 
L 146.396904 164.857263 
L 145.489164 163.523368 
L 144.897757 162.189474 
L 144.526409 160.855579 
L 144.485148 160.188632 
L 142.628408 159.521684 
L 142.614654 158.854737 
L 142.14703 158.187789 
L 142.050755 157.520842 
L 140.922957 156.853895 
L 140.867942 155.52 
L 139.822666 154.853053 
L 139.740144 153.519158 
L 139.726391 152.852211 
L 139.671376 152.185263 
L 139.189999 151.518316 
L 139.011202 150.851368 
L 138.722375 149.517474 
L 138.557332 147.516632 
L 138.103462 146.182737 
L 135.022648 145.515789 
L 134.541271 144.848842 
L 134.211183 144.181895 
L 133.922357 143.514947 
L 133.330951 142.848 
L 132.973356 142.181053 
L 129.96131 141.514105 
L 129.65873 140.847158 
L 129.438672 140.180211 
L 129.177353 139.513263 
L 128.874773 138.179368 
L 128.544686 137.512421 
L 128.118323 136.178526 
L 128.090816 135.511579 
L 127.114308 134.844632 
L 126.165307 133.510737 
L 125.642669 132.843789 
L 125.505133 132.176842 
L 124.968741 131.509895 
L 124.6249 129.509053 
L 124.184784 128.175158 
L 123.524609 127.508211 
L 122.50684 126.841263 
L 122.300536 126.174316 
L 120.49881 125.507368 
L 119.082185 124.840421 
L 117.816851 124.173474 
L 117.486764 123.506526 
L 116.097646 122.839579 
L 115.423718 122.172632 
L 113.910819 121.505684 
L 113.759529 120.838737 
L 113.429441 120.171789 
L 113.071847 119.504842 
L 112.975571 118.837895 
L 111.421411 118.170947 
L 109.977279 116.170105 
L 109.193322 115.503158 
L 108.615669 114.836211 
L 108.574408 114.169263 
L 107.804205 112.835368 
L 104.83342 112.168421 
L 104.558347 112.168421 
L 104.07697 111.501474 
L 103.801897 110.834526 
L 103.416795 110.167579 
L 103.004186 108.833684 
L 102.082693 108.166737 
L 101.986417 107.499789 
L 101.642576 106.832842 
L 100.666068 106.165895 
L 100.184691 105.498947 
L 100.170938 104.832 
L 100.047155 104.165053 
L 99.166922 103.498105 
L 98.630531 101.497263 
L 98.58927 101.497263 
L 98.561762 100.830316 
L 98.039124 100.163368 
L 97.585254 99.496421 
L 97.22766 98.829474 
L 96.251152 98.162526 
L 96.209891 97.495579 
L 96.031094 96.828632 
L 95.439687 96.161684 
L 94.476933 95.494737 
L 94.394411 94.160842 
L 94.339397 92.826947 
L 93.816758 92.16 
L 93.527932 91.493053 
L 92.606439 90.826105 
L 90.98351 88.825263 
L 90.488379 88.158316 
L 89.869465 86.824421 
L 89.511871 86.157474 
L 89.498117 85.490526 
L 88.824189 84.823579 
L 88.122754 84.156632 
L 87.902695 83.489684 
L 87.022463 82.822737 
L 86.678622 82.155789 
L 85.770882 81.488842 
L 85.564578 80.821895 
L 85.509563 80.821895 
L 84.78062 80.154947 
L 84.1342 78.821053 
L 82.676314 78.154105 
L 82.414995 77.487158 
L 81.878604 76.820211 
L 81.589777 76.153263 
L 80.888342 75.486316 
L 80.585762 74.819368 
L 79.512978 74.819368 
L 79.375442 74.152421 
L 79.265413 74.152421 
L 79.127877 74.152421 
L 79.086616 74.152421 
L 78.921572 73.485474 
L 78.797789 72.818526 
L 78.756528 72.151579 
L 78.165122 72.151579 
L 77.28489 71.484632 
L 77.037324 71.484632 
L 76.734744 70.817684 
L 76.294628 70.150737 
L 76.22586 69.483789 
L 75.661961 68.816842 
L 75.593193 68.816842 
L 75.056801 68.149895 
L 74.795482 67.482947 
L 74.149061 66.816 
L 73.832727 66.816 
z
" clip-path="url(#p9305145232)" style="fill: #7cfc00"/>
   </g>
   <g id="PolyCollection_3">
    <path d="M 73.832727 54.144 
L 73.832727 66.816 
L 74.149061 66.816 
L 74.795482 67.482947 
L 75.056801 68.149895 
L 75.593193 68.816842 
L 75.661961 68.816842 
L 76.22586 69.483789 
L 76.294628 70.150737 
L 76.734744 70.817684 
L 77.037324 71.484632 
L 77.28489 71.484632 
L 78.165122 72.151579 
L 78.756528 72.151579 
L 78.797789 72.818526 
L 78.921572 73.485474 
L 79.086616 74.152421 
L 79.127877 74.152421 
L 79.265413 74.152421 
L 79.375442 74.152421 
L 79.512978 74.819368 
L 80.585762 74.819368 
L 80.888342 75.486316 
L 81.589777 76.153263 
L 81.878604 76.820211 
L 82.414995 77.487158 
L 82.676314 78.154105 
L 84.1342 78.821053 
L 84.78062 80.154947 
L 85.509563 80.821895 
L 85.564578 80.821895 
L 85.770882 81.488842 
L 86.678622 82.155789 
L 87.022463 82.822737 
L 87.902695 83.489684 
L 88.122754 84.156632 
L 88.824189 84.823579 
L 89.498117 85.490526 
L 89.511871 86.157474 
L 89.869465 86.824421 
L 90.488379 88.158316 
L 90.98351 88.825263 
L 92.606439 90.826105 
L 93.527932 91.493053 
L 93.816758 92.16 
L 94.339397 92.826947 
L 94.394411 94.160842 
L 94.476933 95.494737 
L 95.439687 96.161684 
L 96.031094 96.828632 
L 96.209891 97.495579 
L 96.251152 98.162526 
L 97.22766 98.829474 
L 97.585254 99.496421 
L 98.039124 100.163368 
L 98.561762 100.830316 
L 98.58927 101.497263 
L 98.630531 101.497263 
L 99.166922 103.498105 
L 100.047155 104.165053 
L 100.170938 104.832 
L 100.184691 105.498947 
L 100.666068 106.165895 
L 101.642576 106.832842 
L 101.986417 107.499789 
L 102.082693 108.166737 
L 103.004186 108.833684 
L 103.416795 110.167579 
L 103.801897 110.834526 
L 104.07697 111.501474 
L 104.558347 112.168421 
L 104.83342 112.168421 
L 107.804205 112.835368 
L 108.574408 114.169263 
L 108.615669 114.836211 
L 109.193322 115.503158 
L 109.977279 116.170105 
L 111.421411 118.170947 
L 112.975571 118.837895 
L 113.071847 119.504842 
L 113.429441 120.171789 
L 113.759529 120.838737 
L 113.910819 121.505684 
L 115.423718 122.172632 
L 116.097646 122.839579 
L 117.486764 123.506526 
L 117.816851 124.173474 
L 119.082185 124.840421 
L 120.49881 125.507368 
L 122.300536 126.174316 
L 122.50684 126.841263 
L 123.524609 127.508211 
L 124.184784 128.175158 
L 124.6249 129.509053 
L 124.968741 131.509895 
L 125.505133 132.176842 
L 125.642669 132.843789 
L 126.165307 133.510737 
L 127.114308 134.844632 
L 128.090816 135.511579 
L 128.118323 136.178526 
L 128.544686 137.512421 
L 128.874773 138.179368 
L 129.177353 139.513263 
L 129.438672 140.180211 
L 129.65873 140.847158 
L 129.96131 141.514105 
L 132.973356 142.181053 
L 133.330951 142.848 
L 133.922357 143.514947 
L 134.211183 144.181895 
L 134.541271 144.848842 
L 135.022648 145.515789 
L 138.103462 146.182737 
L 138.557332 147.516632 
L 138.722375 149.517474 
L 139.011202 150.851368 
L 139.189999 151.518316 
L 139.671376 152.185263 
L 139.726391 152.852211 
L 139.740144 153.519158 
L 139.822666 154.853053 
L 140.867942 155.52 
L 140.922957 156.853895 
L 142.050755 157.520842 
L 142.14703 158.187789 
L 142.614654 158.854737 
L 142.628408 159.521684 
L 144.485148 160.188632 
L 144.526409 160.855579 
L 144.897757 162.189474 
L 145.489164 163.523368 
L 146.396904 164.857263 
L 147.717253 165.524211 
L 148.074847 166.191158 
L 148.569978 166.858105 
L 149.75279 167.525053 
L 150.041617 168.192 
L 150.426719 168.858947 
L 150.467979 170.192842 
L 151.251937 170.859789 
L 151.788328 171.526737 
L 152.17343 172.193684 
L 152.407242 174.861474 
L 154.882896 175.528421 
L 155.089201 176.195368 
L 156.574593 176.862316 
L 156.90468 177.529263 
L 158.610131 178.196211 
L 159.119016 178.863158 
L 159.187784 179.530105 
L 159.242798 180.197053 
L 159.449103 180.864 
L 159.47661 182.197895 
L 159.490364 182.864842 
L 159.792944 183.531789 
L 159.806697 184.865684 
L 159.834205 185.532632 
L 160.98951 186.199579 
L 162.846251 186.866526 
L 163.011294 187.533474 
L 163.313874 188.200421 
L 163.355135 188.867368 
L 163.698976 189.534316 
L 164.771759 190.201263 
L 165.404427 190.868211 
L 165.500702 191.535158 
L 167.288675 192.202105 
L 168.223922 192.869053 
L 168.320197 193.536 
L 169.626792 194.202947 
L 169.915619 196.203789 
L 171.043417 197.537684 
L 172.1162 198.204632 
L 172.308751 198.871579 
L 172.817636 200.205474 
L 172.996433 200.872421 
L 174.124231 201.539368 
L 174.811913 202.206316 
L 175.939711 202.873263 
L 177.507625 204.207158 
L 177.576393 204.874105 
L 178.690438 205.541053 
L 178.704191 206.208 
L 178.938003 206.874947 
L 179.213076 207.541895 
L 179.914511 208.208842 
L 180.093308 209.542737 
L 180.450903 210.209684 
L 180.794744 210.876632 
L 181.028556 211.543579 
L 182.500194 212.210526 
L 183.435442 213.544421 
L 185.250921 213.544421 
L 185.801067 214.211368 
L 186.131154 215.545263 
L 187.78159 216.212211 
L 188.771852 216.879158 
L 189.156954 218.213053 
L 189.555809 218.88 
L 189.927157 219.546947 
L 190.326013 220.880842 
L 191.082462 222.214737 
L 191.495072 223.548632 
L 191.522579 224.215579 
L 192.155246 224.882526 
L 192.196507 225.549474 
L 192.980464 226.216421 
L 193.929465 226.883368 
L 194.342074 228.217263 
L 195.676176 229.551158 
L 195.99251 230.218105 
L 196.185061 230.885053 
L 196.212568 231.552 
L 196.583916 232.885895 
L 196.845235 233.552842 
L 197.244091 234.219789 
L 197.285352 235.553684 
L 199.114585 236.887579 
L 199.128339 237.554526 
L 199.664731 238.888421 
L 200.132354 240.222316 
L 200.462441 240.889263 
L 202.099124 242.223158 
L 202.938096 242.890105 
L 203.034371 243.557053 
L 203.887096 244.224 
L 204.175923 244.890947 
L 205.344982 246.891789 
L 206.706591 247.558737 
L 207.297998 248.225684 
L 207.53181 248.892632 
L 208.879666 249.559579 
L 209.044709 250.226526 
L 210.007464 251.560421 
L 210.076232 252.227368 
L 210.475087 252.894316 
L 214.628685 253.561263 
L 214.669946 254.228211 
L 214.83499 254.895158 
L 215.165077 255.562105 
L 216.732991 256.229053 
L 217.338151 257.562947 
L 218.383427 258.229895 
L 219.648762 260.230737 
L 219.978849 260.897684 
L 220.32269 261.564632 
L 221.436734 262.231579 
L 221.931865 263.565474 
L 222.193184 264.232421 
L 222.78459 264.899368 
L 223.348489 265.566316 
L 225.6591 266.900211 
L 228.341059 268.234105 
L 228.602378 268.901053 
L 229.235045 269.568 
L 229.565132 270.901895 
L 230.651669 271.568842 
L 232.247091 272.902737 
L 233.11357 274.236632 
L 233.993803 275.570526 
L 234.942803 276.237474 
L 237.198399 276.904421 
L 237.762298 277.571368 
L 239.082647 278.238316 
L 240.196692 278.905263 
L 240.994403 279.572211 
L 241.407012 282.24 
L 243.841405 282.906947 
L 244.859174 283.573895 
L 245.835682 284.240842 
L 246.880958 284.907789 
L 247.747437 285.574737 
L 247.967495 286.241684 
L 248.462626 286.908632 
L 248.971511 288.242526 
L 251.488426 288.909474 
L 251.722238 289.576421 
L 253.427688 290.243368 
L 256.013372 290.910316 
L 256.137154 291.577263 
L 256.522256 292.244211 
L 259.465534 292.911158 
L 259.658085 293.578105 
L 259.726853 294.245053 
L 264.499364 294.912 
L 264.568132 295.578947 
L 268.694223 296.245895 
L 271.871312 296.912842 
L 274.374474 297.579789 
L 274.6633 298.246737 
L 274.677054 298.913684 
L 277.207723 299.580632 
L 282.324075 300.247579 
L 286.340136 300.914526 
L 287.289137 301.581474 
L 292.488011 302.248421 
L 297.439319 302.915368 
L 311.192954 303.582316 
L 317.27206 304.249263 
L 321.178092 304.916211 
L 333.24003 305.583158 
L 354.049279 306.250105 
L 398.487273 306.917053 
L 398.487273 306.917053 
L 398.487273 306.917053 
L 354.049279 306.250105 
L 333.24003 305.583158 
L 321.178092 304.916211 
L 317.27206 304.249263 
L 311.192954 303.582316 
L 297.439319 302.915368 
L 292.488011 302.248421 
L 287.289137 301.581474 
L 286.340136 300.914526 
L 282.324075 300.247579 
L 277.207723 299.580632 
L 274.677054 298.913684 
L 274.6633 298.246737 
L 274.374474 297.579789 
L 271.871312 296.912842 
L 268.694223 296.245895 
L 264.568132 295.578947 
L 264.499364 294.912 
L 259.726853 294.245053 
L 259.658085 293.578105 
L 259.465534 292.911158 
L 256.522256 292.244211 
L 256.137154 291.577263 
L 256.013372 290.910316 
L 253.427688 290.243368 
L 251.722238 289.576421 
L 251.488426 288.909474 
L 248.971511 288.242526 
L 248.462626 286.908632 
L 247.967495 286.241684 
L 247.747437 285.574737 
L 246.880958 284.907789 
L 245.835682 284.240842 
L 244.859174 283.573895 
L 243.841405 282.906947 
L 241.407012 282.24 
L 240.994403 279.572211 
L 240.196692 278.905263 
L 239.082647 278.238316 
L 237.762298 277.571368 
L 237.198399 276.904421 
L 234.942803 276.237474 
L 233.993803 275.570526 
L 233.11357 274.236632 
L 232.247091 272.902737 
L 230.651669 271.568842 
L 229.565132 270.901895 
L 229.235045 269.568 
L 228.602378 268.901053 
L 228.341059 268.234105 
L 225.6591 266.900211 
L 223.348489 265.566316 
L 222.78459 264.899368 
L 222.193184 264.232421 
L 221.931865 263.565474 
L 221.436734 262.231579 
L 220.32269 261.564632 
L 219.978849 260.897684 
L 219.648762 260.230737 
L 218.383427 258.229895 
L 217.338151 257.562947 
L 216.732991 256.229053 
L 215.165077 255.562105 
L 214.83499 254.228211 
L 214.669946 253.561263 
L 214.628685 252.894316 
L 210.475087 252.227368 
L 210.076232 251.560421 
L 210.007464 250.893474 
L 209.044709 249.559579 
L 208.879666 248.892632 
L 207.53181 248.225684 
L 207.297998 247.558737 
L 206.706591 246.891789 
L 205.344982 246.224842 
L 204.175923 244.224 
L 203.887096 243.557053 
L 203.034371 242.890105 
L 202.938096 242.223158 
L 202.099124 241.556211 
L 200.462441 240.222316 
L 200.132354 239.555368 
L 199.664731 238.221474 
L 199.128339 236.887579 
L 199.114585 236.220632 
L 197.285352 234.886737 
L 197.244091 233.552842 
L 196.845235 232.885895 
L 196.583916 232.218947 
L 196.212568 230.885053 
L 196.185061 230.218105 
L 195.99251 229.551158 
L 195.676176 228.884211 
L 194.342074 227.550316 
L 193.929465 226.216421 
L 192.980464 225.549474 
L 192.196507 224.882526 
L 192.155246 224.215579 
L 191.522579 223.548632 
L 191.495072 222.881684 
L 191.082462 221.547789 
L 190.326013 220.213895 
L 189.927157 218.88 
L 189.555809 218.213053 
L 189.156954 217.546105 
L 188.771852 216.212211 
L 187.78159 215.545263 
L 186.131154 214.878316 
L 185.801067 213.544421 
L 185.250921 212.877474 
L 183.435442 212.210526 
L 182.500194 210.876632 
L 181.028556 210.209684 
L 180.794744 209.542737 
L 180.450903 208.875789 
L 180.093308 208.208842 
L 179.914511 206.874947 
L 179.213076 206.208 
L 178.938003 205.541053 
L 178.704191 204.874105 
L 178.690438 204.207158 
L 177.576393 203.540211 
L 177.507625 202.873263 
L 175.939711 201.539368 
L 174.811913 200.872421 
L 174.124231 200.205474 
L 172.996433 199.538526 
L 172.817636 198.871579 
L 172.308751 197.537684 
L 172.1162 196.870737 
L 171.043417 196.203789 
L 169.915619 194.869895 
L 169.626792 192.869053 
L 168.320197 192.202105 
L 168.223922 191.535158 
L 167.288675 190.868211 
L 165.500702 190.201263 
L 165.404427 189.534316 
L 164.771759 188.867368 
L 163.698976 188.200421 
L 163.355135 187.533474 
L 163.313874 186.866526 
L 163.011294 186.199579 
L 162.846251 185.532632 
L 160.98951 184.865684 
L 159.834205 184.198737 
L 159.806697 183.531789 
L 159.792944 182.197895 
L 159.490364 181.530947 
L 159.47661 180.864 
L 159.449103 179.530105 
L 159.242798 178.863158 
L 159.187784 178.196211 
L 159.119016 177.529263 
L 158.610131 176.862316 
L 156.90468 176.195368 
L 156.574593 175.528421 
L 155.089201 174.861474 
L 154.882896 174.194526 
L 152.407242 173.527579 
L 152.17343 170.859789 
L 151.788328 170.192842 
L 151.251937 169.525895 
L 150.467979 168.858947 
L 150.426719 167.525053 
L 150.041617 166.858105 
L 149.75279 166.191158 
L 148.569978 165.524211 
L 148.074847 164.857263 
L 147.717253 164.190316 
L 146.396904 163.523368 
L 145.489164 162.189474 
L 144.897757 160.855579 
L 144.526409 159.521684 
L 144.485148 158.854737 
L 142.628408 158.187789 
L 142.614654 157.520842 
L 142.14703 156.853895 
L 142.050755 156.186947 
L 140.922957 155.52 
L 140.867942 154.186105 
L 139.822666 153.519158 
L 139.740144 152.185263 
L 139.726391 151.518316 
L 139.671376 150.851368 
L 139.189999 150.184421 
L 139.011202 149.517474 
L 138.722375 148.183579 
L 138.557332 146.182737 
L 138.103462 144.848842 
L 135.022648 144.181895 
L 134.541271 143.514947 
L 134.211183 142.848 
L 133.922357 142.181053 
L 133.330951 141.514105 
L 132.973356 140.847158 
L 129.96131 140.180211 
L 129.65873 139.513263 
L 129.438672 138.846316 
L 129.177353 138.179368 
L 128.874773 136.845474 
L 128.544686 136.178526 
L 128.118323 134.844632 
L 128.090816 134.177684 
L 127.114308 133.510737 
L 126.165307 132.176842 
L 125.642669 131.509895 
L 125.505133 130.842947 
L 124.968741 130.176 
L 124.6249 127.508211 
L 124.184784 126.174316 
L 123.524609 125.507368 
L 122.50684 124.840421 
L 122.300536 124.173474 
L 120.49881 123.506526 
L 119.082185 122.839579 
L 117.816851 122.172632 
L 117.486764 121.505684 
L 116.097646 120.838737 
L 115.423718 120.171789 
L 113.910819 119.504842 
L 113.759529 118.837895 
L 113.429441 118.170947 
L 113.071847 117.504 
L 112.975571 116.837053 
L 111.421411 116.170105 
L 109.977279 114.169263 
L 109.193322 113.502316 
L 108.615669 112.835368 
L 108.574408 112.168421 
L 107.804205 110.834526 
L 104.83342 110.167579 
L 104.558347 109.500632 
L 104.07697 108.833684 
L 103.801897 108.166737 
L 103.416795 107.499789 
L 103.004186 106.165895 
L 102.082693 105.498947 
L 101.986417 104.832 
L 101.642576 104.165053 
L 100.666068 102.831158 
L 100.184691 102.164211 
L 100.170938 101.497263 
L 100.047155 100.830316 
L 99.166922 100.163368 
L 98.630531 98.162526 
L 98.58927 97.495579 
L 98.561762 96.828632 
L 98.039124 96.161684 
L 97.585254 95.494737 
L 97.22766 94.827789 
L 96.251152 93.493895 
L 96.209891 92.826947 
L 96.031094 92.16 
L 95.439687 91.493053 
L 94.476933 90.826105 
L 94.394411 89.492211 
L 94.339397 88.158316 
L 93.816758 87.491368 
L 93.527932 86.824421 
L 92.606439 86.157474 
L 90.98351 84.156632 
L 90.488379 83.489684 
L 89.869465 82.155789 
L 89.511871 81.488842 
L 89.498117 80.821895 
L 88.824189 80.154947 
L 88.122754 79.488 
L 87.902695 78.821053 
L 87.022463 78.154105 
L 86.678622 77.487158 
L 85.770882 76.820211 
L 85.564578 76.153263 
L 85.509563 75.486316 
L 84.78062 74.819368 
L 84.1342 73.485474 
L 82.676314 72.818526 
L 82.414995 72.151579 
L 81.878604 71.484632 
L 81.589777 70.817684 
L 80.888342 70.150737 
L 80.585762 69.483789 
L 79.512978 68.816842 
L 79.375442 68.149895 
L 79.265413 67.482947 
L 79.127877 66.816 
L 79.086616 65.482105 
L 78.921572 64.815158 
L 78.797789 64.148211 
L 78.756528 63.481263 
L 78.165122 62.814316 
L 77.28489 62.147368 
L 77.037324 61.480421 
L 76.734744 60.146526 
L 76.294628 59.479579 
L 76.22586 58.812632 
L 75.661961 58.145684 
L 75.593193 56.811789 
L 75.056801 56.144842 
L 74.795482 55.477895 
L 74.149061 54.810947 
L 73.832727 54.144 
z
" clip-path="url(#p9305145232)" style="fill: #ff0000"/>
   </g>
   <g id="matplotlib.axis_1">
    <g id="xtick_1">
     <g id="line2d_1">
      <defs>
       <path id="m175558dcfb" d="M 0 0 
L 0 3.5 
" style="stroke: #000000; stroke-width: 0.8"/>
      </defs>
      <g>
       <use xlink:href="#m175558dcfb" x="121.062709" y="307.584" style="stroke: #000000; stroke-width: 0.8"/>
      </g>
     </g>
     <g id="text_1">
      <!-- 50 -->
      <g transform="translate(114.700209 322.182437)scale(0.1 -0.1)">
       <defs>
        <path id="DejaVuSans-35" d="M 691 4666 
L 3169 4666 
L 3169 4134 
L 1269 4134 
L 1269 2991 
Q 1406 3038 1543 3061 
Q 1681 3084 1819 3084 
Q 2600 3084 3056 2656 
Q 3513 2228 3513 1497 
Q 3513 744 3044 326 
Q 2575 -91 1722 -91 
Q 1428 -91 1123 -41 
Q 819 9 494 109 
L 494 744 
Q 775 591 1075 516 
Q 1375 441 1709 441 
Q 2250 441 2565 725 
Q 2881 1009 2881 1497 
Q 2881 1984 2565 2268 
Q 2250 2553 1709 2553 
Q 1456 2553 1204 2497 
Q 953 2441 691 2322 
L 691 4666 
z
" transform="scale(0.015625)"/>
        <path id="DejaVuSans-30" d="M 2034 4250 
Q 1547 4250 1301 3770 
Q 1056 3291 1056 2328 
Q 1056 1369 1301 889 
Q 1547 409 2034 409 
Q 2525 409 2770 889 
Q 3016 1369 3016 2328 
Q 3016 3291 2770 3770 
Q 2525 4250 2034 4250 
z
M 2034 4750 
Q 2819 4750 3233 4129 
Q 3647 3509 3647 2328 
Q 3647 1150 3233 529 
Q 2819 -91 2034 -91 
Q 1250 -91 836 529 
Q 422 1150 422 2328 
Q 422 3509 836 4129 
Q 1250 4750 2034 4750 
z
" transform="scale(0.015625)"/>
       </defs>
       <use xlink:href="#DejaVuSans-35"/>
       <use xlink:href="#DejaVuSans-30" x="63.623047"/>
      </g>
     </g>
    </g>
    <g id="xtick_2">
     <g id="line2d_2">
      <g>
       <use xlink:href="#m175558dcfb" x="189.830882" y="307.584" style="stroke: #000000; stroke-width: 0.8"/>
      </g>
     </g>
     <g id="text_2">
      <!-- 100 -->
      <g transform="translate(180.287132 322.182437)scale(0.1 -0.1)">
       <defs>
        <path id="DejaVuSans-31" d="M 794 531 
L 1825 531 
L 1825 4091 
L 703 3866 
L 703 4441 
L 1819 4666 
L 2450 4666 
L 2450 531 
L 3481 531 
L 3481 0 
L 794 0 
L 794 531 
z
" transform="scale(0.015625)"/>
       </defs>
       <use xlink:href="#DejaVuSans-31"/>
       <use xlink:href="#DejaVuSans-30" x="63.623047"/>
       <use xlink:href="#DejaVuSans-30" x="127.246094"/>
      </g>
     </g>
    </g>
    <g id="xtick_3">
     <g id="line2d_3">
      <g>
       <use xlink:href="#m175558dcfb" x="258.599055" y="307.584" style="stroke: #000000; stroke-width: 0.8"/>
      </g>
     </g>
     <g id="text_3">
      <!-- 150 -->
      <g transform="translate(249.055305 322.182437)scale(0.1 -0.1)">
       <use xlink:href="#DejaVuSans-31"/>
       <use xlink:href="#DejaVuSans-35" x="63.623047"/>
       <use xlink:href="#DejaVuSans-30" x="127.246094"/>
      </g>
     </g>
    </g>
    <g id="xtick_4">
     <g id="line2d_4">
      <g>
       <use xlink:href="#m175558dcfb" x="327.367228" y="307.584" style="stroke: #000000; stroke-width: 0.8"/>
      </g>
     </g>
     <g id="text_4">
      <!-- 200 -->
      <g transform="translate(317.823478 322.182437)scale(0.1 -0.1)">
       <defs>
        <path id="DejaVuSans-32" d="M 1228 531 
L 3431 531 
L 3431 0 
L 469 0 
L 469 531 
Q 828 903 1448 1529 
Q 2069 2156 2228 2338 
Q 2531 2678 2651 2914 
Q 2772 3150 2772 3378 
Q 2772 3750 2511 3984 
Q 2250 4219 1831 4219 
Q 1534 4219 1204 4116 
Q 875 4013 500 3803 
L 500 4441 
Q 881 4594 1212 4672 
Q 1544 4750 1819 4750 
Q 2544 4750 2975 4387 
Q 3406 4025 3406 3419 
Q 3406 3131 3298 2873 
Q 3191 2616 2906 2266 
Q 2828 2175 2409 1742 
Q 1991 1309 1228 531 
z
" transform="scale(0.015625)"/>
       </defs>
       <use xlink:href="#DejaVuSans-32"/>
       <use xlink:href="#DejaVuSans-30" x="63.623047"/>
       <use xlink:href="#DejaVuSans-30" x="127.246094"/>
      </g>
     </g>
    </g>
    <g id="xtick_5">
     <g id="line2d_5">
      <g>
       <use xlink:href="#m175558dcfb" x="396.135401" y="307.584" style="stroke: #000000; stroke-width: 0.8"/>
      </g>
     </g>
     <g id="text_5">
      <!-- 250 -->
      <g transform="translate(386.591651 322.182437)scale(0.1 -0.1)">
       <use xlink:href="#DejaVuSans-32"/>
       <use xlink:href="#DejaVuSans-35" x="63.623047"/>
       <use xlink:href="#DejaVuSans-30" x="127.246094"/>
      </g>
     </g>
    </g>
    <g id="text_6">
     <!-- Score -->
     <g transform="translate(222.157656 335.860562)scale(0.1 -0.1)">
      <defs>
       <path id="DejaVuSans-53" d="M 3425 4513 
L 3425 3897 
Q 3066 4069 2747 4153 
Q 2428 4238 2131 4238 
Q 1616 4238 1336 4038 
Q 1056 3838 1056 3469 
Q 1056 3159 1242 3001 
Q 1428 2844 1947 2747 
L 2328 2669 
Q 3034 2534 3370 2195 
Q 3706 1856 3706 1288 
Q 3706 609 3251 259 
Q 2797 -91 1919 -91 
Q 1588 -91 1214 -16 
Q 841 59 441 206 
L 441 856 
Q 825 641 1194 531 
Q 1563 422 1919 422 
Q 2459 422 2753 634 
Q 3047 847 3047 1241 
Q 3047 1584 2836 1778 
Q 2625 1972 2144 2069 
L 1759 2144 
Q 1053 2284 737 2584 
Q 422 2884 422 3419 
Q 422 4038 858 4394 
Q 1294 4750 2059 4750 
Q 2388 4750 2728 4690 
Q 3069 4631 3425 4513 
z
" transform="scale(0.015625)"/>
       <path id="DejaVuSans-63" d="M 3122 3366 
L 3122 2828 
Q 2878 2963 2633 3030 
Q 2388 3097 2138 3097 
Q 1578 3097 1268 2742 
Q 959 2388 959 1747 
Q 959 1106 1268 751 
Q 1578 397 2138 397 
Q 2388 397 2633 464 
Q 2878 531 3122 666 
L 3122 134 
Q 2881 22 2623 -34 
Q 2366 -91 2075 -91 
Q 1284 -91 818 406 
Q 353 903 353 1747 
Q 353 2603 823 3093 
Q 1294 3584 2113 3584 
Q 2378 3584 2631 3529 
Q 2884 3475 3122 3366 
z
" transform="scale(0.015625)"/>
       <path id="DejaVuSans-6f" d="M 1959 3097 
Q 1497 3097 1228 2736 
Q 959 2375 959 1747 
Q 959 1119 1226 758 
Q 1494 397 1959 397 
Q 2419 397 2687 759 
Q 2956 1122 2956 1747 
Q 2956 2369 2687 2733 
Q 2419 3097 1959 3097 
z
M 1959 3584 
Q 2709 3584 3137 3096 
Q 3566 2609 3566 1747 
Q 3566 888 3137 398 
Q 2709 -91 1959 -91 
Q 1206 -91 779 398 
Q 353 888 353 1747 
Q 353 2609 779 3096 
Q 1206 3584 1959 3584 
z
" transform="scale(0.015625)"/>
       <path id="DejaVuSans-72" d="M 2631 2963 
Q 2534 3019 2420 3045 
Q 2306 3072 2169 3072 
Q 1681 3072 1420 2755 
Q 1159 2438 1159 1844 
L 1159 0 
L 581 0 
L 581 3500 
L 1159 3500 
L 1159 2956 
Q 1341 3275 1631 3429 
Q 1922 3584 2338 3584 
Q 2397 3584 2469 3576 
Q 2541 3569 2628 3553 
L 2631 2963 
z
" transform="scale(0.015625)"/>
       <path id="DejaVuSans-65" d="M 3597 1894 
L 3597 1613 
L 953 1613 
Q 991 1019 1311 708 
Q 1631 397 2203 397 
Q 2534 397 2845 478 
Q 3156 559 3463 722 
L 3463 178 
Q 3153 47 2828 -22 
Q 2503 -91 2169 -91 
Q 1331 -91 842 396 
Q 353 884 353 1716 
Q 353 2575 817 3079 
Q 1281 3584 2069 3584 
Q 2775 3584 3186 3129 
Q 3597 2675 3597 1894 
z
M 3022 2063 
Q 3016 2534 2758 2815 
Q 2500 3097 2075 3097 
Q 1594 3097 1305 2825 
Q 1016 2553 972 2059 
L 3022 2063 
z
" transform="scale(0.015625)"/>
      </defs>
      <use xlink:href="#DejaVuSans-53"/>
      <use xlink:href="#DejaVuSans-63" x="63.476562"/>
      <use xlink:href="#DejaVuSans-6f" x="118.457031"/>
      <use xlink:href="#DejaVuSans-72" x="179.638672"/>
      <use xlink:href="#DejaVuSans-65" x="218.501953"/>
     </g>
    </g>
   </g>
   <g id="matplotlib.axis_2">
    <g id="ytick_1">
     <g id="line2d_6">
      <defs>
       <path id="mbb8bfff718" d="M 0 0 
L -3.5 0 
" style="stroke: #000000; stroke-width: 0.8"/>
      </defs>
      <g>
       <use xlink:href="#mbb8bfff718" x="57.6" y="307.584" style="stroke: #000000; stroke-width: 0.8"/>
      </g>
     </g>
     <g id="text_7">
      <!-- 0 -->
      <g transform="translate(44.2375 311.383219)scale(0.1 -0.1)">
       <use xlink:href="#DejaVuSans-30"/>
      </g>
     </g>
    </g>
    <g id="ytick_2">
     <g id="line2d_7">
      <g>
       <use xlink:href="#mbb8bfff718" x="57.6" y="274.236632" style="stroke: #000000; stroke-width: 0.8"/>
      </g>
     </g>
     <g id="text_8">
      <!-- 50 -->
      <g transform="translate(37.875 278.03585)scale(0.1 -0.1)">
       <use xlink:href="#DejaVuSans-35"/>
       <use xlink:href="#DejaVuSans-30" x="63.623047"/>
      </g>
     </g>
    </g>
    <g id="ytick_3">
     <g id="line2d_8">
      <g>
       <use xlink:href="#mbb8bfff718" x="57.6" y="240.889263" style="stroke: #000000; stroke-width: 0.8"/>
      </g>
     </g>
     <g id="text_9">
      <!-- 100 -->
      <g transform="translate(31.5125 244.688482)scale(0.1 -0.1)">
       <use xlink:href="#DejaVuSans-31"/>
       <use xlink:href="#DejaVuSans-30" x="63.623047"/>
       <use xlink:href="#DejaVuSans-30" x="127.246094"/>
      </g>
     </g>
    </g>
    <g id="ytick_4">
     <g id="line2d_9">
      <g>
       <use xlink:href="#mbb8bfff718" x="57.6" y="207.541895" style="stroke: #000000; stroke-width: 0.8"/>
      </g>
     </g>
     <g id="text_10">
      <!-- 150 -->
      <g transform="translate(31.5125 211.341113)scale(0.1 -0.1)">
       <use xlink:href="#DejaVuSans-31"/>
       <use xlink:href="#DejaVuSans-35" x="63.623047"/>
       <use xlink:href="#DejaVuSans-30" x="127.246094"/>
      </g>
     </g>
    </g>
    <g id="ytick_5">
     <g id="line2d_10">
      <g>
       <use xlink:href="#mbb8bfff718" x="57.6" y="174.194526" style="stroke: #000000; stroke-width: 0.8"/>
      </g>
     </g>
     <g id="text_11">
      <!-- 200 -->
      <g transform="translate(31.5125 177.993745)scale(0.1 -0.1)">
       <use xlink:href="#DejaVuSans-32"/>
       <use xlink:href="#DejaVuSans-30" x="63.623047"/>
       <use xlink:href="#DejaVuSans-30" x="127.246094"/>
      </g>
     </g>
    </g>
    <g id="ytick_6">
     <g id="line2d_11">
      <g>
       <use xlink:href="#mbb8bfff718" x="57.6" y="140.847158" style="stroke: #000000; stroke-width: 0.8"/>
      </g>
     </g>
     <g id="text_12">
      <!-- 250 -->
      <g transform="translate(31.5125 144.646377)scale(0.1 -0.1)">
       <use xlink:href="#DejaVuSans-32"/>
       <use xlink:href="#DejaVuSans-35" x="63.623047"/>
       <use xlink:href="#DejaVuSans-30" x="127.246094"/>
      </g>
     </g>
    </g>
    <g id="ytick_7">
     <g id="line2d_12">
      <g>
       <use xlink:href="#mbb8bfff718" x="57.6" y="107.499789" style="stroke: #000000; stroke-width: 0.8"/>
      </g>
     </g>
     <g id="text_13">
      <!-- 300 -->
      <g transform="translate(31.5125 111.299008)scale(0.1 -0.1)">
       <defs>
        <path id="DejaVuSans-33" d="M 2597 2516 
Q 3050 2419 3304 2112 
Q 3559 1806 3559 1356 
Q 3559 666 3084 287 
Q 2609 -91 1734 -91 
Q 1441 -91 1130 -33 
Q 819 25 488 141 
L 488 750 
Q 750 597 1062 519 
Q 1375 441 1716 441 
Q 2309 441 2620 675 
Q 2931 909 2931 1356 
Q 2931 1769 2642 2001 
Q 2353 2234 1838 2234 
L 1294 2234 
L 1294 2753 
L 1863 2753 
Q 2328 2753 2575 2939 
Q 2822 3125 2822 3475 
Q 2822 3834 2567 4026 
Q 2313 4219 1838 4219 
Q 1578 4219 1281 4162 
Q 984 4106 628 3988 
L 628 4550 
Q 988 4650 1302 4700 
Q 1616 4750 1894 4750 
Q 2613 4750 3031 4423 
Q 3450 4097 3450 3541 
Q 3450 3153 3228 2886 
Q 3006 2619 2597 2516 
z
" transform="scale(0.015625)"/>
       </defs>
       <use xlink:href="#DejaVuSans-33"/>
       <use xlink:href="#DejaVuSans-30" x="63.623047"/>
       <use xlink:href="#DejaVuSans-30" x="127.246094"/>
      </g>
     </g>
    </g>
    <g id="ytick_8">
     <g id="line2d_13">
      <g>
       <use xlink:href="#mbb8bfff718" x="57.6" y="74.152421" style="stroke: #000000; stroke-width: 0.8"/>
      </g>
     </g>
     <g id="text_14">
      <!-- 350 -->
      <g transform="translate(31.5125 77.95164)scale(0.1 -0.1)">
       <use xlink:href="#DejaVuSans-33"/>
       <use xlink:href="#DejaVuSans-35" x="63.623047"/>
       <use xlink:href="#DejaVuSans-30" x="127.246094"/>
      </g>
     </g>
    </g>
    <g id="text_15">
     <!-- Number of crosslinks -->
     <g transform="translate(25.432812 227.019406)rotate(-90)scale(0.1 -0.1)">
      <defs>
       <path id="DejaVuSans-4e" d="M 628 4666 
L 1478 4666 
L 3547 763 
L 3547 4666 
L 4159 4666 
L 4159 0 
L 3309 0 
L 1241 3903 
L 1241 0 
L 628 0 
L 628 4666 
z
" transform="scale(0.015625)"/>
       <path id="DejaVuSans-75" d="M 544 1381 
L 544 3500 
L 1119 3500 
L 1119 1403 
Q 1119 906 1312 657 
Q 1506 409 1894 409 
Q 2359 409 2629 706 
Q 2900 1003 2900 1516 
L 2900 3500 
L 3475 3500 
L 3475 0 
L 2900 0 
L 2900 538 
Q 2691 219 2414 64 
Q 2138 -91 1772 -91 
Q 1169 -91 856 284 
Q 544 659 544 1381 
z
M 1991 3584 
L 1991 3584 
z
" transform="scale(0.015625)"/>
       <path id="DejaVuSans-6d" d="M 3328 2828 
Q 3544 3216 3844 3400 
Q 4144 3584 4550 3584 
Q 5097 3584 5394 3201 
Q 5691 2819 5691 2113 
L 5691 0 
L 5113 0 
L 5113 2094 
Q 5113 2597 4934 2840 
Q 4756 3084 4391 3084 
Q 3944 3084 3684 2787 
Q 3425 2491 3425 1978 
L 3425 0 
L 2847 0 
L 2847 2094 
Q 2847 2600 2669 2842 
Q 2491 3084 2119 3084 
Q 1678 3084 1418 2786 
Q 1159 2488 1159 1978 
L 1159 0 
L 581 0 
L 581 3500 
L 1159 3500 
L 1159 2956 
Q 1356 3278 1631 3431 
Q 1906 3584 2284 3584 
Q 2666 3584 2933 3390 
Q 3200 3197 3328 2828 
z
" transform="scale(0.015625)"/>
       <path id="DejaVuSans-62" d="M 3116 1747 
Q 3116 2381 2855 2742 
Q 2594 3103 2138 3103 
Q 1681 3103 1420 2742 
Q 1159 2381 1159 1747 
Q 1159 1113 1420 752 
Q 1681 391 2138 391 
Q 2594 391 2855 752 
Q 3116 1113 3116 1747 
z
M 1159 2969 
Q 1341 3281 1617 3432 
Q 1894 3584 2278 3584 
Q 2916 3584 3314 3078 
Q 3713 2572 3713 1747 
Q 3713 922 3314 415 
Q 2916 -91 2278 -91 
Q 1894 -91 1617 61 
Q 1341 213 1159 525 
L 1159 0 
L 581 0 
L 581 4863 
L 1159 4863 
L 1159 2969 
z
" transform="scale(0.015625)"/>
       <path id="DejaVuSans-20" transform="scale(0.015625)"/>
       <path id="DejaVuSans-66" d="M 2375 4863 
L 2375 4384 
L 1825 4384 
Q 1516 4384 1395 4259 
Q 1275 4134 1275 3809 
L 1275 3500 
L 2222 3500 
L 2222 3053 
L 1275 3053 
L 1275 0 
L 697 0 
L 697 3053 
L 147 3053 
L 147 3500 
L 697 3500 
L 697 3744 
Q 697 4328 969 4595 
Q 1241 4863 1831 4863 
L 2375 4863 
z
" transform="scale(0.015625)"/>
       <path id="DejaVuSans-73" d="M 2834 3397 
L 2834 2853 
Q 2591 2978 2328 3040 
Q 2066 3103 1784 3103 
Q 1356 3103 1142 2972 
Q 928 2841 928 2578 
Q 928 2378 1081 2264 
Q 1234 2150 1697 2047 
L 1894 2003 
Q 2506 1872 2764 1633 
Q 3022 1394 3022 966 
Q 3022 478 2636 193 
Q 2250 -91 1575 -91 
Q 1294 -91 989 -36 
Q 684 19 347 128 
L 347 722 
Q 666 556 975 473 
Q 1284 391 1588 391 
Q 1994 391 2212 530 
Q 2431 669 2431 922 
Q 2431 1156 2273 1281 
Q 2116 1406 1581 1522 
L 1381 1569 
Q 847 1681 609 1914 
Q 372 2147 372 2553 
Q 372 3047 722 3315 
Q 1072 3584 1716 3584 
Q 2034 3584 2315 3537 
Q 2597 3491 2834 3397 
z
" transform="scale(0.015625)"/>
       <path id="DejaVuSans-6c" d="M 603 4863 
L 1178 4863 
L 1178 0 
L 603 0 
L 603 4863 
z
" transform="scale(0.015625)"/>
       <path id="DejaVuSans-69" d="M 603 3500 
L 1178 3500 
L 1178 0 
L 603 0 
L 603 3500 
z
M 603 4863 
L 1178 4863 
L 1178 4134 
L 603 4134 
L 603 4863 
z
" transform="scale(0.015625)"/>
       <path id="DejaVuSans-6e" d="M 3513 2113 
L 3513 0 
L 2938 0 
L 2938 2094 
Q 2938 2591 2744 2837 
Q 2550 3084 2163 3084 
Q 1697 3084 1428 2787 
Q 1159 2491 1159 1978 
L 1159 0 
L 581 0 
L 581 3500 
L 1159 3500 
L 1159 2956 
Q 1366 3272 1645 3428 
Q 1925 3584 2291 3584 
Q 2894 3584 3203 3211 
Q 3513 2838 3513 2113 
z
" transform="scale(0.015625)"/>
       <path id="DejaVuSans-6b" d="M 581 4863 
L 1159 4863 
L 1159 1991 
L 2875 3500 
L 3609 3500 
L 1753 1863 
L 3688 0 
L 2938 0 
L 1159 1709 
L 1159 0 
L 581 0 
L 581 4863 
z
" transform="scale(0.015625)"/>
      </defs>
      <use xlink:href="#DejaVuSans-4e"/>
      <use xlink:href="#DejaVuSans-75" x="74.804688"/>
      <use xlink:href="#DejaVuSans-6d" x="138.183594"/>
      <use xlink:href="#DejaVuSans-62" x="235.595703"/>
      <use xlink:href="#DejaVuSans-65" x="299.072266"/>
      <use xlink:href="#DejaVuSans-72" x="360.595703"/>
      <use xlink:href="#DejaVuSans-20" x="401.708984"/>
      <use xlink:href="#DejaVuSans-6f" x="433.496094"/>
      <use xlink:href="#DejaVuSans-66" x="494.677734"/>
      <use xlink:href="#DejaVuSans-20" x="529.882812"/>
      <use xlink:href="#DejaVuSans-63" x="561.669922"/>
      <use xlink:href="#DejaVuSans-72" x="616.650391"/>
      <use xlink:href="#DejaVuSans-6f" x="655.513672"/>
      <use xlink:href="#DejaVuSans-73" x="716.695312"/>
      <use xlink:href="#DejaVuSans-73" x="768.794922"/>
      <use xlink:href="#DejaVuSans-6c" x="820.894531"/>
      <use xlink:href="#DejaVuSans-69" x="848.677734"/>
      <use xlink:href="#DejaVuSans-6e" x="876.460938"/>
      <use xlink:href="#DejaVuSans-6b" x="939.839844"/>
      <use xlink:href="#DejaVuSans-73" x="997.75"/>
     </g>
    </g>
   </g>
   <g id="patch_3">
    <path d="M 57.6 307.584 
L 57.6 41.472 
" style="fill: none; stroke: #000000; stroke-width: 0.8; stroke-linejoin: miter; stroke-linecap: square"/>
   </g>
   <g id="patch_4">
    <path d="M 414.72 307.584 
L 414.72 41.472 
" style="fill: none; stroke: #000000; stroke-width: 0.8; stroke-linejoin: miter; stroke-linecap: square"/>
   </g>
   <g id="patch_5">
    <path d="M 57.6 307.584 
L 414.72 307.584 
" style="fill: none; stroke: #000000; stroke-width: 0.8; stroke-linejoin: miter; stroke-linecap: square"/>
   </g>
   <g id="patch_6">
    <path d="M 57.6 41.472 
L 414.72 41.472 
" style="fill: none; stroke: #000000; stroke-width: 0.8; stroke-linejoin: miter; stroke-linecap: square"/>
   </g>
   <g id="legend_1">
    <g id="patch_7">
     <path d="M 278.598125 93.506375 
L 407.72 93.506375 
Q 409.72 93.506375 409.72 91.506375 
L 409.72 48.472 
Q 409.72 46.472 407.72 46.472 
L 278.598125 46.472 
Q 276.598125 46.472 276.598125 48.472 
L 276.598125 91.506375 
Q 276.598125 93.506375 278.598125 93.506375 
z
" style="fill: #ffffff; opacity: 0.8; stroke: #cccccc; stroke-linejoin: miter"/>
    </g>
    <g id="patch_8">
     <path d="M 280.598125 58.070438 
L 300.598125 58.070438 
L 300.598125 51.070438 
L 280.598125 51.070438 
z
" style="fill: #008000"/>
    </g>
    <g id="text_16">
     <!-- correct -->
     <g transform="translate(308.598125 58.070438)scale(0.1 -0.1)">
      <defs>
       <path id="DejaVuSans-74" d="M 1172 4494 
L 1172 3500 
L 2356 3500 
L 2356 3053 
L 1172 3053 
L 1172 1153 
Q 1172 725 1289 603 
Q 1406 481 1766 481 
L 2356 481 
L 2356 0 
L 1766 0 
Q 1100 0 847 248 
Q 594 497 594 1153 
L 594 3053 
L 172 3053 
L 172 3500 
L 594 3500 
L 594 4494 
L 1172 4494 
z
" transform="scale(0.015625)"/>
      </defs>
      <use xlink:href="#DejaVuSans-63"/>
      <use xlink:href="#DejaVuSans-6f" x="54.980469"/>
      <use xlink:href="#DejaVuSans-72" x="116.162109"/>
      <use xlink:href="#DejaVuSans-72" x="155.525391"/>
      <use xlink:href="#DejaVuSans-65" x="194.388672"/>
      <use xlink:href="#DejaVuSans-63" x="255.912109"/>
      <use xlink:href="#DejaVuSans-74" x="310.892578"/>
     </g>
    </g>
    <g id="patch_9">
     <path d="M 280.598125 72.748563 
L 300.598125 72.748563 
L 300.598125 65.748563 
L 280.598125 65.748563 
z
" style="fill: #7cfc00"/>
    </g>
    <g id="text_17">
     <!-- correct homeotypic -->
     <g transform="translate(308.598125 72.748563)scale(0.1 -0.1)">
      <defs>
       <path id="DejaVuSans-68" d="M 3513 2113 
L 3513 0 
L 2938 0 
L 2938 2094 
Q 2938 2591 2744 2837 
Q 2550 3084 2163 3084 
Q 1697 3084 1428 2787 
Q 1159 2491 1159 1978 
L 1159 0 
L 581 0 
L 581 4863 
L 1159 4863 
L 1159 2956 
Q 1366 3272 1645 3428 
Q 1925 3584 2291 3584 
Q 2894 3584 3203 3211 
Q 3513 2838 3513 2113 
z
" transform="scale(0.015625)"/>
       <path id="DejaVuSans-79" d="M 2059 -325 
Q 1816 -950 1584 -1140 
Q 1353 -1331 966 -1331 
L 506 -1331 
L 506 -850 
L 844 -850 
Q 1081 -850 1212 -737 
Q 1344 -625 1503 -206 
L 1606 56 
L 191 3500 
L 800 3500 
L 1894 763 
L 2988 3500 
L 3597 3500 
L 2059 -325 
z
" transform="scale(0.015625)"/>
       <path id="DejaVuSans-70" d="M 1159 525 
L 1159 -1331 
L 581 -1331 
L 581 3500 
L 1159 3500 
L 1159 2969 
Q 1341 3281 1617 3432 
Q 1894 3584 2278 3584 
Q 2916 3584 3314 3078 
Q 3713 2572 3713 1747 
Q 3713 922 3314 415 
Q 2916 -91 2278 -91 
Q 1894 -91 1617 61 
Q 1341 213 1159 525 
z
M 3116 1747 
Q 3116 2381 2855 2742 
Q 2594 3103 2138 3103 
Q 1681 3103 1420 2742 
Q 1159 2381 1159 1747 
Q 1159 1113 1420 752 
Q 1681 391 2138 391 
Q 2594 391 2855 752 
Q 3116 1113 3116 1747 
z
" transform="scale(0.015625)"/>
      </defs>
      <use xlink:href="#DejaVuSans-63"/>
      <use xlink:href="#DejaVuSans-6f" x="54.980469"/>
      <use xlink:href="#DejaVuSans-72" x="116.162109"/>
      <use xlink:href="#DejaVuSans-72" x="155.525391"/>
      <use xlink:href="#DejaVuSans-65" x="194.388672"/>
      <use xlink:href="#DejaVuSans-63" x="255.912109"/>
      <use xlink:href="#DejaVuSans-74" x="310.892578"/>
      <use xlink:href="#DejaVuSans-20" x="350.101562"/>
      <use xlink:href="#DejaVuSans-68" x="381.888672"/>
      <use xlink:href="#DejaVuSans-6f" x="445.267578"/>
      <use xlink:href="#DejaVuSans-6d" x="506.449219"/>
      <use xlink:href="#DejaVuSans-65" x="603.861328"/>
      <use xlink:href="#DejaVuSans-6f" x="665.384766"/>
      <use xlink:href="#DejaVuSans-74" x="726.566406"/>
      <use xlink:href="#DejaVuSans-79" x="765.775391"/>
      <use xlink:href="#DejaVuSans-70" x="824.955078"/>
      <use xlink:href="#DejaVuSans-69" x="888.431641"/>
      <use xlink:href="#DejaVuSans-63" x="916.214844"/>
     </g>
    </g>
    <g id="patch_10">
     <path d="M 280.598125 87.426688 
L 300.598125 87.426688 
L 300.598125 80.426688 
L 280.598125 80.426688 
z
" style="fill: #ff0000"/>
    </g>
    <g id="text_18">
     <!-- false -->
     <g transform="translate(308.598125 87.426688)scale(0.1 -0.1)">
      <defs>
       <path id="DejaVuSans-61" d="M 2194 1759 
Q 1497 1759 1228 1600 
Q 959 1441 959 1056 
Q 959 750 1161 570 
Q 1363 391 1709 391 
Q 2188 391 2477 730 
Q 2766 1069 2766 1631 
L 2766 1759 
L 2194 1759 
z
M 3341 1997 
L 3341 0 
L 2766 0 
L 2766 531 
Q 2569 213 2275 61 
Q 1981 -91 1556 -91 
Q 1019 -91 701 211 
Q 384 513 384 1019 
Q 384 1609 779 1909 
Q 1175 2209 1959 2209 
L 2766 2209 
L 2766 2266 
Q 2766 2663 2505 2880 
Q 2244 3097 1772 3097 
Q 1472 3097 1187 3025 
Q 903 2953 641 2809 
L 641 3341 
Q 956 3463 1253 3523 
Q 1550 3584 1831 3584 
Q 2591 3584 2966 3190 
Q 3341 2797 3341 1997 
z
" transform="scale(0.015625)"/>
      </defs>
      <use xlink:href="#DejaVuSans-66"/>
      <use xlink:href="#DejaVuSans-61" x="35.205078"/>
      <use xlink:href="#DejaVuSans-6c" x="96.484375"/>
      <use xlink:href="#DejaVuSans-73" x="124.267578"/>
      <use xlink:href="#DejaVuSans-65" x="176.367188"/>
     </g>
    </g>
   </g>
  </g>
 </g>
 <defs>
  <clipPath id="p9305145232">
   <rect x="57.6" y="41.472" width="357.12" height="266.112"/>
  </clipPath>
 </defs>
</svg>
