<?xml version="1.0" encoding="utf-8" standalone="no"?>
<!DOCTYPE svg PUBLIC "-//W3C//DTD SVG 1.1//EN"
  "http://www.w3.org/Graphics/SVG/1.1/DTD/svg11.dtd">
<svg xmlns:xlink="http://www.w3.org/1999/xlink" width="460.8pt" height="345.6pt" viewBox="0 0 460.8 345.6" xmlns="http://www.w3.org/2000/svg" version="1.1">
 <metadata>
  <rdf:RDF xmlns:dc="http://purl.org/dc/elements/1.1/" xmlns:cc="http://creativecommons.org/ns#" xmlns:rdf="http://www.w3.org/1999/02/22-rdf-syntax-ns#">
   <cc:Work>
    <dc:type rdf:resource="http://purl.org/dc/dcmitype/StillImage"/>
    <dc:date>2022-07-28T11:23:46.917009</dc:date>
    <dc:format>image/svg+xml</dc:format>
    <dc:creator>
     <cc:Agent>
      <dc:title>Matplotlib v3.5.1, https://matplotlib.org/</dc:title>
     </cc:Agent>
    </dc:creator>
   </cc:Work>
  </rdf:RDF>
 </metadata>
 <defs>
  <style type="text/css">*{stroke-linejoin: round; stroke-linecap: butt}</style>
 </defs>
 <g id="figure_1">
  <g id="patch_1">
   <path d="M 0 345.6 
L 460.8 345.6 
L 460.8 0 
L 0 0 
z
" style="fill: #ffffff"/>
  </g>
  <g id="axes_1">
   <g id="patch_2">
    <path d="M 57.6 307.584 
L 414.72 307.584 
L 414.72 41.472 
L 57.6 41.472 
z
" style="fill: #ffffff"/>
   </g>
   <g id="PolyCollection_1">
    <path d="M 73.832727 102.943006 
L 73.832727 307.584 
L 73.924475 307.584 
L 73.990008 307.584 
L 74.003115 307.584 
L 74.016222 307.584 
L 74.14729 307.584 
L 74.239037 307.584 
L 74.409425 307.584 
L 74.645347 307.584 
L 74.841948 307.584 
L 74.868162 307.584 
L 75.222044 307.584 
L 75.313792 307.584 
L 75.366219 307.584 
L 75.838062 307.584 
L 75.903596 307.584 
L 75.995343 307.584 
L 76.100197 307.584 
L 76.152625 307.584 
L 76.309906 307.584 
L 76.362333 307.584 
L 76.572041 307.584 
L 76.93903 307.584 
L 77.214272 307.584 
L 77.607475 307.584 
L 77.646796 307.584 
L 77.79097 307.584 
L 77.83029 307.584 
L 77.908931 307.584 
L 78.013785 307.584 
L 78.184173 307.584 
L 78.249707 307.584 
L 78.27592 307.584 
L 78.459415 307.584 
L 78.813298 307.584 
L 78.944365 307.584 
L 78.983686 307.584 
L 79.756985 307.584 
L 80.01912 307.584 
L 80.071547 307.584 
L 80.726885 307.584 
L 80.962807 307.584 
L 81.277369 307.584 
L 81.578825 307.584 
L 81.670572 307.584 
L 81.683679 307.584 
L 81.919601 307.584 
L 81.985135 307.584 
L 82.496298 307.584 
L 82.679793 307.584 
L 82.823967 307.584 
L 83.636587 307.584 
L 84.173964 307.584 
L 84.527847 307.584 
L 84.99969 307.584 
L 85.065224 307.584 
L 85.563281 307.584 
L 85.589495 307.584 
L 85.681242 307.584 
L 85.786096 307.584 
L 85.89095 307.584 
L 86.008911 307.584 
L 86.3759 307.584 
L 86.624929 307.584 
L 86.808424 307.584 
L 86.913278 307.584 
L 86.991918 307.584 
L 87.044345 307.584 
L 87.948712 307.584 
L 88.250168 307.584 
L 88.341915 307.584 
L 88.52541 307.584 
L 89.102107 307.584 
L 89.403563 307.584 
L 90.019581 307.584 
L 90.268609 307.584 
L 90.779773 307.584 
L 90.845307 307.584 
L 91.382684 307.584 
L 91.448218 307.584 
L 91.867635 307.584 
L 92.155983 307.584 
L 92.391905 307.584 
L 93.230738 307.584 
L 93.95161 307.584 
L 94.108891 307.584 
L 94.148212 307.584 
L 94.279279 307.584 
L 94.384133 307.584 
L 94.515201 307.584 
L 95.537529 307.584 
L 95.825877 307.584 
L 96.494322 307.584 
L 96.769564 307.584 
L 97.280728 307.584 
L 97.529757 307.584 
L 98.919074 307.584 
L 99.535092 307.584 
L 100.22975 307.584 
L 100.282177 307.584 
L 100.478779 307.584 
L 101.343825 307.584 
L 101.671494 307.584 
L 102.510327 307.584 
L 102.720035 307.584 
L 103.38848 307.584 
L 104.030712 307.584 
L 104.043818 307.584 
L 104.384594 307.584 
L 104.974399 307.584 
L 105.446242 307.584 
L 106.99284 307.584 
L 107.870994 307.584 
L 108.146236 307.584 
L 108.644293 307.584 
L 108.69672 307.584 
L 108.77536 307.584 
L 109.692834 307.584 
L 110.256425 307.584 
L 110.426812 307.584 
L 110.466133 307.584 
L 111.396713 307.584 
L 111.737489 307.584 
L 112.170012 307.584 
L 112.668069 307.584 
L 112.694283 307.584 
L 112.733603 307.584 
L 113.244767 307.584 
L 114.0836 307.584 
L 114.201561 307.584 
L 114.214667 307.584 
L 114.673404 307.584 
L 115.603984 307.584 
L 115.931653 307.584 
L 116.023401 307.584 
L 116.901554 307.584 
L 117.294757 307.584 
L 117.661746 307.584 
L 117.923882 307.584 
L 118.382618 307.584 
L 118.644754 307.584 
L 121.475815 307.584 
L 122.209793 307.584 
L 122.249114 307.584 
L 122.799598 307.584 
L 123.546683 307.584 
L 124.922894 307.584 
L 126.403958 307.584 
L 126.495705 307.584 
L 126.836481 307.584 
L 127.151043 307.584 
L 127.295218 307.584 
L 128.736962 307.584 
L 129.379193 307.584 
L 130.702976 307.584 
L 131.017539 307.584 
L 132.223361 307.584 
L 133.573358 307.584 
L 135.290344 307.584 
L 135.486945 307.584 
L 136.456846 307.584 
L 137.085971 307.584 
L 137.505387 307.584 
L 137.833056 307.584 
L 138.34422 307.584 
L 138.475288 307.584 
L 138.973345 307.584 
L 139.877711 307.584 
L 140.808292 307.584 
L 140.834505 307.584 
L 141.240815 307.584 
L 141.555377 307.584 
L 141.843726 307.584 
L 142.092754 307.584 
L 142.302463 307.584 
L 142.590811 307.584 
L 145.461193 307.584 
L 145.801969 307.584 
L 146.36556 307.584 
L 146.640802 307.584 
L 146.955364 307.584 
L 147.414101 307.584 
L 150.350016 307.584 
L 150.782539 307.584 
L 150.93982 307.584 
L 151.215062 307.584 
L 151.38545 307.584 
L 151.844187 307.584 
L 151.896614 307.584 
L 151.909721 307.584 
L 151.988361 307.584 
L 152.984475 307.584 
L 153.036902 307.584 
L 154.111657 307.584 
L 154.203404 307.584 
L 154.649034 307.584 
L 154.662141 307.584 
L 156.431554 307.584 
L 156.470875 307.584 
L 156.824757 307.584 
L 157.388348 307.584 
L 158.253395 307.584 
L 159.511644 307.584 
L 159.85242 307.584 
L 160.324263 307.584 
L 161.451445 307.584 
L 161.726687 307.584 
L 162.093676 307.584 
L 162.132997 307.584 
L 162.880082 307.584 
L 163.391246 307.584 
L 163.758235 307.584 
L 163.98105 307.584 
L 166.340268 307.584 
L 166.536869 307.584 
L 167.9524 307.584 
L 168.266962 307.584 
L 169.892201 307.584 
L 170.377151 307.584 
L 170.442685 307.584 
L 170.495112 307.584 
L 170.691714 307.584 
L 170.717927 307.584 
L 170.731034 307.584 
L 171.019383 307.584 
L 171.032489 307.584 
L 171.058703 307.584 
L 172.159671 307.584 
L 173.929084 307.584 
L 174.086365 307.584 
L 174.374714 307.584 
L 174.414035 307.584 
L 174.741704 307.584 
L 175.764031 307.584 
L 176.366942 307.584 
L 176.45869 307.584 
L 178.162569 307.584 
L 179.053829 307.584 
L 179.145576 307.584 
L 180.390719 307.584 
L 180.665961 307.584 
L 181.740716 307.584 
L 182.763043 307.584 
L 182.946538 307.584 
L 183.431488 307.584 
L 183.601876 307.584 
L 184.676631 307.584 
L 185.331969 307.584 
L 186.406724 307.584 
L 187.900895 307.584 
L 187.966429 307.584 
L 189.028076 307.584 
L 189.041183 307.584 
L 189.263998 307.584 
L 189.526134 307.584 
L 190.194578 307.584 
L 190.364966 307.584 
L 190.705742 307.584 
L 191.033411 307.584 
L 191.256226 307.584 
L 192.65865 307.584 
L 193.54991 307.584 
L 195.280003 307.584 
L 195.804273 307.584 
L 196.118836 307.584 
L 197.691648 307.584 
L 198.635335 307.584 
L 199.002324 307.584 
L 199.38242 307.584 
L 199.736303 307.584 
L 200.116399 307.584 
L 200.837271 307.584 
L 201.230474 307.584 
L 201.256687 307.584 
L 201.859598 307.584 
L 201.898919 307.584 
L 202.646004 307.584 
L 203.550371 307.584 
L 203.943574 307.584 
L 205.21493 307.584 
L 205.516386 307.584 
L 205.69988 307.584 
L 205.726094 307.584 
L 206.079977 307.584 
L 206.329005 307.584 
L 206.709101 307.584 
L 206.748421 307.584 
L 208.491621 307.584 
L 208.504728 307.584 
L 209.015892 307.584 
L 209.461522 307.584 
L 209.776084 307.584 
L 211.335789 307.584 
L 212.135302 307.584 
L 212.227049 307.584 
L 213.039668 307.584 
L 213.31491 307.584 
L 214.428985 307.584 
L 215.726555 307.584 
L 216.290146 307.584 
L 216.512961 307.584 
L 217.797424 307.584 
L 217.954705 307.584 
L 218.872178 307.584 
L 218.937712 307.584 
L 219.317808 307.584 
L 223.276051 307.584 
L 223.315371 307.584 
L 223.472652 307.584 
L 223.787215 307.584 
L 225.281386 307.584 
L 225.858083 307.584 
L 226.854198 307.584 
L 228.06002 307.584 
L 228.374582 307.584 
L 228.702251 307.584 
L 229.763899 307.584 
L 230.235743 307.584 
L 230.484771 307.584 
L 231.048362 307.584 
L 231.585739 307.584 
L 233.787676 307.584 
L 236.343495 307.584 
L 236.592523 307.584 
L 237.195434 307.584 
L 237.509997 307.584 
L 238.545431 307.584 
L 240.065816 307.584 
L 240.891542 307.584 
L 241.730375 307.584 
L 242.634741 307.584 
L 244.784251 307.584 
L 245.321628 307.584 
L 246.579877 307.584 
L 247.641525 307.584 
L 248.401718 307.584 
L 248.794921 307.584 
L 251.114818 307.584 
L 252.084718 307.584 
L 253.015299 307.584 
L 254.011413 307.584 
L 254.837139 307.584 
L 255.046847 307.584 
L 255.51869 307.584 
L 256.003641 307.584 
L 258.402179 307.584 
L 258.624994 307.584 
L 260.250232 307.584 
L 262.714304 307.584 
L 262.832265 307.584 
L 263.199254 307.584 
L 266.004102 307.584 
L 266.187596 307.584 
L 266.25313 307.584 
L 270.801177 307.584 
L 270.866711 307.584 
L 274.79874 307.584 
L 277.826403 307.584 
L 280.211834 307.584 
L 280.487076 307.584 
L 280.500183 307.584 
L 282.911827 307.584 
L 287.787544 307.584 
L 291.614719 307.584 
L 292.519085 307.584 
L 297.473442 307.584 
L 302.191877 307.584 
L 315.298641 307.584 
L 321.091831 307.584 
L 324.814152 307.584 
L 336.308784 307.584 
L 356.139318 307.584 
L 398.487273 307.584 
L 398.487273 307.05928 
L 398.487273 307.05928 
L 356.139318 306.534559 
L 336.308784 306.009839 
L 324.814152 305.485118 
L 321.091831 304.960398 
L 315.298641 304.435677 
L 302.191877 303.910957 
L 297.473442 303.386236 
L 292.519085 302.861516 
L 291.614719 302.336795 
L 287.787544 301.812075 
L 282.911827 301.287354 
L 280.500183 300.762634 
L 280.487076 300.237913 
L 280.211834 299.713193 
L 277.826403 299.188472 
L 274.79874 298.663752 
L 270.866711 298.139031 
L 270.801177 297.614311 
L 266.25313 297.08959 
L 266.187596 296.56487 
L 266.004102 296.040149 
L 263.199254 295.515429 
L 262.832265 294.990708 
L 262.714304 294.465988 
L 260.250232 293.941267 
L 258.624994 293.416547 
L 258.402179 292.891826 
L 256.003641 292.367106 
L 255.51869 291.317665 
L 255.046847 290.792944 
L 254.837139 290.268224 
L 254.011413 289.743503 
L 253.015299 289.218783 
L 252.084718 288.694062 
L 251.114818 288.169342 
L 248.794921 287.644621 
L 248.401718 285.545739 
L 247.641525 285.021019 
L 246.579877 284.496298 
L 245.321628 283.971578 
L 244.784251 283.446857 
L 242.634741 282.922137 
L 241.730375 282.397416 
L 240.891542 281.347975 
L 240.065816 280.298534 
L 238.545431 279.249093 
L 237.509997 278.724373 
L 237.195434 277.674932 
L 236.592523 277.150211 
L 236.343495 276.625491 
L 233.787676 275.57605 
L 231.585739 274.526609 
L 231.048362 274.001888 
L 230.484771 273.477168 
L 230.235743 272.952447 
L 229.763899 271.903006 
L 228.702251 271.378286 
L 228.374582 270.853565 
L 228.06002 270.328845 
L 226.854198 268.754683 
L 225.858083 268.229963 
L 225.281386 267.180522 
L 223.787215 266.655801 
L 223.472652 266.131081 
L 223.315371 265.60636 
L 223.276051 265.08164 
L 219.317808 264.556919 
L 218.937712 264.032199 
L 218.872178 263.507478 
L 217.954705 262.458037 
L 217.797424 261.933317 
L 216.512961 261.408596 
L 216.290146 260.883876 
L 215.726555 260.359155 
L 214.428985 259.834435 
L 213.31491 258.260273 
L 213.039668 257.735553 
L 212.227049 257.210832 
L 212.135302 256.686112 
L 211.335789 256.161391 
L 209.776084 255.11195 
L 209.461522 254.58723 
L 209.015892 253.537789 
L 208.504728 252.488348 
L 208.491621 251.963627 
L 206.748421 250.914186 
L 206.709101 249.864745 
L 206.329005 249.340025 
L 206.079977 248.815304 
L 205.726094 247.765863 
L 205.69988 247.241143 
L 205.516386 246.716422 
L 205.21493 246.191702 
L 203.943574 245.142261 
L 203.550371 244.09282 
L 202.646004 243.568099 
L 201.898919 243.043379 
L 201.859598 242.518658 
L 201.256687 241.993938 
L 201.230474 241.469217 
L 200.837271 240.419776 
L 200.116399 239.370335 
L 199.736303 238.320894 
L 199.38242 237.796174 
L 199.002324 237.271453 
L 198.635335 236.222012 
L 197.691648 235.697292 
L 196.118836 235.172571 
L 195.804273 234.12313 
L 195.280003 233.59841 
L 193.54991 233.59841 
L 192.65865 232.548969 
L 191.256226 232.024248 
L 191.033411 231.499528 
L 190.705742 230.974807 
L 190.364966 230.450087 
L 190.194578 229.400646 
L 189.526134 228.875925 
L 189.263998 228.351205 
L 189.041183 227.826484 
L 189.028076 227.301764 
L 187.966429 226.777043 
L 187.900895 226.252323 
L 186.406724 225.202882 
L 185.331969 224.678161 
L 184.676631 224.153441 
L 183.601876 223.62872 
L 183.431488 223.104 
L 182.946538 222.054559 
L 182.763043 221.529839 
L 181.740716 221.005118 
L 180.665961 219.955677 
L 180.390719 218.381516 
L 179.145576 217.856795 
L 179.053829 217.332075 
L 178.162569 216.807354 
L 176.45869 216.282634 
L 176.366942 215.757913 
L 175.764031 215.233193 
L 174.741704 214.708472 
L 174.414035 214.183752 
L 174.374714 213.659031 
L 174.086365 213.134311 
L 173.929084 212.60959 
L 172.159671 212.08487 
L 171.058703 211.560149 
L 171.032489 211.035429 
L 171.019383 209.985988 
L 170.731034 209.461267 
L 170.717927 208.936547 
L 170.691714 207.887106 
L 170.495112 207.362385 
L 170.442685 206.837665 
L 170.377151 206.312944 
L 169.892201 205.788224 
L 168.266962 205.263503 
L 167.9524 204.738783 
L 166.536869 204.214062 
L 166.340268 203.689342 
L 163.98105 203.164621 
L 163.758235 201.065739 
L 163.391246 200.541019 
L 162.880082 200.016298 
L 162.132997 199.491578 
L 162.093676 198.442137 
L 161.726687 197.917416 
L 161.451445 197.392696 
L 160.324263 196.867975 
L 159.85242 196.343255 
L 159.511644 195.818534 
L 158.253395 195.293814 
L 157.388348 194.244373 
L 156.824757 193.194932 
L 156.470875 192.145491 
L 156.431554 191.62077 
L 154.662141 191.09605 
L 154.649034 190.571329 
L 154.203404 190.046609 
L 154.111657 189.521888 
L 153.036902 188.997168 
L 152.984475 187.947727 
L 151.988361 187.423006 
L 151.909721 186.373565 
L 151.896614 185.848845 
L 151.844187 185.324124 
L 151.38545 184.799404 
L 151.215062 184.274683 
L 150.93982 183.225242 
L 150.782539 181.651081 
L 150.350016 180.60164 
L 147.414101 180.076919 
L 146.955364 179.552199 
L 146.640802 179.027478 
L 146.36556 178.502758 
L 145.801969 177.978037 
L 145.461193 177.453317 
L 142.590811 176.928596 
L 142.302463 176.403876 
L 142.092754 175.879155 
L 141.843726 175.354435 
L 141.555377 174.304994 
L 141.240815 173.780273 
L 140.834505 172.730832 
L 140.808292 172.206112 
L 139.877711 171.681391 
L 138.973345 170.63195 
L 138.475288 170.10723 
L 138.34422 169.582509 
L 137.833056 169.057789 
L 137.505387 167.483627 
L 137.085971 166.434186 
L 136.456846 165.909466 
L 135.486945 165.384745 
L 135.290344 164.860025 
L 133.573358 164.335304 
L 132.223361 163.810584 
L 131.017539 163.285863 
L 130.702976 162.761143 
L 129.379193 162.236422 
L 128.736962 161.711702 
L 127.295218 161.186981 
L 127.151043 160.662261 
L 126.836481 160.13754 
L 126.495705 159.61282 
L 126.403958 159.088099 
L 124.922894 158.563379 
L 123.546683 156.989217 
L 122.799598 156.464497 
L 122.249114 155.939776 
L 122.209793 155.415056 
L 121.475815 154.365615 
L 118.644754 153.840894 
L 118.382618 153.840894 
L 117.923882 153.316174 
L 117.661746 152.791453 
L 117.294757 152.266733 
L 116.901554 151.217292 
L 116.023401 150.692571 
L 115.931653 150.167851 
L 115.603984 149.64313 
L 114.673404 149.11841 
L 114.214667 148.593689 
L 114.201561 148.068969 
L 114.0836 147.544248 
L 113.244767 147.019528 
L 112.733603 145.445366 
L 112.694283 145.445366 
L 112.668069 144.920646 
L 112.170012 144.395925 
L 111.737489 143.871205 
L 111.396713 143.346484 
L 110.466133 142.821764 
L 110.426812 142.297043 
L 110.256425 141.772323 
L 109.692834 141.247602 
L 108.77536 140.722882 
L 108.69672 139.673441 
L 108.644293 138.624 
L 108.146236 138.09928 
L 107.870994 137.574559 
L 106.99284 137.049839 
L 105.446242 135.475677 
L 104.974399 134.950957 
L 104.384594 133.901516 
L 104.043818 133.376795 
L 104.030712 132.852075 
L 103.38848 132.327354 
L 102.720035 131.802634 
L 102.510327 131.277913 
L 101.671494 130.753193 
L 101.343825 130.228472 
L 100.478779 129.703752 
L 100.282177 129.179031 
L 100.22975 129.179031 
L 99.535092 128.654311 
L 98.919074 127.60487 
L 97.529757 127.080149 
L 97.280728 126.555429 
L 96.769564 126.030708 
L 96.494322 125.505988 
L 95.825877 124.981267 
L 95.537529 124.456547 
L 94.515201 124.456547 
L 94.384133 123.931826 
L 94.279279 123.931826 
L 94.148212 123.931826 
L 94.108891 123.931826 
L 93.95161 123.407106 
L 93.230738 123.407106 
L 92.391905 122.882385 
L 92.155983 122.882385 
L 91.867635 122.357665 
L 91.448218 121.832944 
L 91.382684 121.308224 
L 90.845307 120.783503 
L 90.779773 120.783503 
L 90.268609 120.258783 
L 90.019581 119.734062 
L 89.403563 119.209342 
L 89.102107 119.209342 
L 88.52541 118.159901 
L 88.341915 117.63518 
L 88.250168 117.11046 
L 87.948712 116.585739 
L 87.044345 116.061019 
L 86.991918 115.536298 
L 86.913278 115.536298 
L 86.808424 114.486857 
L 86.624929 114.486857 
L 86.3759 114.486857 
L 86.008911 113.962137 
L 85.89095 113.437416 
L 85.786096 113.437416 
L 85.681242 113.437416 
L 85.589495 113.437416 
L 85.563281 112.912696 
L 85.065224 112.387975 
L 84.99969 112.387975 
L 84.527847 112.387975 
L 84.173964 112.387975 
L 83.636587 111.863255 
L 82.823967 111.863255 
L 82.679793 111.338534 
L 82.496298 110.813814 
L 81.985135 110.813814 
L 81.919601 110.289093 
L 81.683679 110.289093 
L 81.670572 110.289093 
L 81.578825 109.764373 
L 81.277369 109.764373 
L 80.962807 109.764373 
L 80.726885 109.764373 
L 80.071547 109.764373 
L 80.01912 109.239652 
L 79.756985 109.239652 
L 78.983686 109.239652 
L 78.944365 109.239652 
L 78.813298 109.239652 
L 78.459415 109.239652 
L 78.27592 109.239652 
L 78.249707 108.714932 
L 78.184173 108.190211 
L 78.013785 108.190211 
L 77.908931 107.665491 
L 77.83029 107.665491 
L 77.79097 107.665491 
L 77.646796 107.665491 
L 77.607475 107.665491 
L 77.214272 107.665491 
L 76.93903 107.665491 
L 76.572041 107.665491 
L 76.362333 107.14077 
L 76.309906 106.61605 
L 76.152625 106.61605 
L 76.100197 106.61605 
L 75.995343 106.61605 
L 75.903596 106.61605 
L 75.838062 106.61605 
L 75.366219 106.61605 
L 75.313792 106.61605 
L 75.222044 106.091329 
L 74.868162 106.091329 
L 74.841948 106.091329 
L 74.645347 106.091329 
L 74.409425 106.091329 
L 74.239037 105.566609 
L 74.14729 104.517168 
L 74.016222 104.517168 
L 74.003115 103.992447 
L 73.990008 103.467727 
L 73.924475 102.943006 
L 73.832727 102.943006 
z
" clip-path="url(#p0ae53e156d)" style="fill: #008000"/>
   </g>
   <g id="PolyCollection_2">
    <path d="M 73.832727 102.943006 
L 73.832727 102.943006 
L 73.924475 102.943006 
L 73.990008 103.467727 
L 74.003115 103.992447 
L 74.016222 104.517168 
L 74.14729 104.517168 
L 74.239037 105.566609 
L 74.409425 106.091329 
L 74.645347 106.091329 
L 74.841948 106.091329 
L 74.868162 106.091329 
L 75.222044 106.091329 
L 75.313792 106.61605 
L 75.366219 106.61605 
L 75.838062 106.61605 
L 75.903596 106.61605 
L 75.995343 106.61605 
L 76.100197 106.61605 
L 76.152625 106.61605 
L 76.309906 106.61605 
L 76.362333 107.14077 
L 76.572041 107.665491 
L 76.93903 107.665491 
L 77.214272 107.665491 
L 77.607475 107.665491 
L 77.646796 107.665491 
L 77.79097 107.665491 
L 77.83029 107.665491 
L 77.908931 107.665491 
L 78.013785 108.190211 
L 78.184173 108.190211 
L 78.249707 108.714932 
L 78.27592 109.239652 
L 78.459415 109.239652 
L 78.813298 109.239652 
L 78.944365 109.239652 
L 78.983686 109.239652 
L 79.756985 109.239652 
L 80.01912 109.239652 
L 80.071547 109.764373 
L 80.726885 109.764373 
L 80.962807 109.764373 
L 81.277369 109.764373 
L 81.578825 109.764373 
L 81.670572 110.289093 
L 81.683679 110.289093 
L 81.919601 110.289093 
L 81.985135 110.813814 
L 82.496298 110.813814 
L 82.679793 111.338534 
L 82.823967 111.863255 
L 83.636587 111.863255 
L 84.173964 112.387975 
L 84.527847 112.387975 
L 84.99969 112.387975 
L 85.065224 112.387975 
L 85.563281 112.912696 
L 85.589495 113.437416 
L 85.681242 113.437416 
L 85.786096 113.437416 
L 85.89095 113.437416 
L 86.008911 113.962137 
L 86.3759 114.486857 
L 86.624929 114.486857 
L 86.808424 114.486857 
L 86.913278 115.536298 
L 86.991918 115.536298 
L 87.044345 116.061019 
L 87.948712 116.585739 
L 88.250168 117.11046 
L 88.341915 117.63518 
L 88.52541 118.159901 
L 89.102107 119.209342 
L 89.403563 119.209342 
L 90.019581 119.734062 
L 90.268609 120.258783 
L 90.779773 120.783503 
L 90.845307 120.783503 
L 91.382684 121.308224 
L 91.448218 121.832944 
L 91.867635 122.357665 
L 92.155983 122.882385 
L 92.391905 122.882385 
L 93.230738 123.407106 
L 93.95161 123.407106 
L 94.108891 123.931826 
L 94.148212 123.931826 
L 94.279279 123.931826 
L 94.384133 123.931826 
L 94.515201 124.456547 
L 95.537529 124.456547 
L 95.825877 124.981267 
L 96.494322 125.505988 
L 96.769564 126.030708 
L 97.280728 126.555429 
L 97.529757 127.080149 
L 98.919074 127.60487 
L 99.535092 128.654311 
L 100.22975 129.179031 
L 100.282177 129.179031 
L 100.478779 129.703752 
L 101.343825 130.228472 
L 101.671494 130.753193 
L 102.510327 131.277913 
L 102.720035 131.802634 
L 103.38848 132.327354 
L 104.030712 132.852075 
L 104.043818 133.376795 
L 104.384594 133.901516 
L 104.974399 134.950957 
L 105.446242 135.475677 
L 106.99284 137.049839 
L 107.870994 137.574559 
L 108.146236 138.09928 
L 108.644293 138.624 
L 108.69672 139.673441 
L 108.77536 140.722882 
L 109.692834 141.247602 
L 110.256425 141.772323 
L 110.426812 142.297043 
L 110.466133 142.821764 
L 111.396713 143.346484 
L 111.737489 143.871205 
L 112.170012 144.395925 
L 112.668069 144.920646 
L 112.694283 145.445366 
L 112.733603 145.445366 
L 113.244767 147.019528 
L 114.0836 147.544248 
L 114.201561 148.068969 
L 114.214667 148.593689 
L 114.673404 149.11841 
L 115.603984 149.64313 
L 115.931653 150.167851 
L 116.023401 150.692571 
L 116.901554 151.217292 
L 117.294757 152.266733 
L 117.661746 152.791453 
L 117.923882 153.316174 
L 118.382618 153.840894 
L 118.644754 153.840894 
L 121.475815 154.365615 
L 122.209793 155.415056 
L 122.249114 155.939776 
L 122.799598 156.464497 
L 123.546683 156.989217 
L 124.922894 158.563379 
L 126.403958 159.088099 
L 126.495705 159.61282 
L 126.836481 160.13754 
L 127.151043 160.662261 
L 127.295218 161.186981 
L 128.736962 161.711702 
L 129.379193 162.236422 
L 130.702976 162.761143 
L 131.017539 163.285863 
L 132.223361 163.810584 
L 133.573358 164.335304 
L 135.290344 164.860025 
L 135.486945 165.384745 
L 136.456846 165.909466 
L 137.085971 166.434186 
L 137.505387 167.483627 
L 137.833056 169.057789 
L 138.34422 169.582509 
L 138.475288 170.10723 
L 138.973345 170.63195 
L 139.877711 171.681391 
L 140.808292 172.206112 
L 140.834505 172.730832 
L 141.240815 173.780273 
L 141.555377 174.304994 
L 141.843726 175.354435 
L 142.092754 175.879155 
L 142.302463 176.403876 
L 142.590811 176.928596 
L 145.461193 177.453317 
L 145.801969 177.978037 
L 146.36556 178.502758 
L 146.640802 179.027478 
L 146.955364 179.552199 
L 147.414101 180.076919 
L 150.350016 180.60164 
L 150.782539 181.651081 
L 150.93982 183.225242 
L 151.215062 184.274683 
L 151.38545 184.799404 
L 151.844187 185.324124 
L 151.896614 185.848845 
L 151.909721 186.373565 
L 151.988361 187.423006 
L 152.984475 187.947727 
L 153.036902 188.997168 
L 154.111657 189.521888 
L 154.203404 190.046609 
L 154.649034 190.571329 
L 154.662141 191.09605 
L 156.431554 191.62077 
L 156.470875 192.145491 
L 156.824757 193.194932 
L 157.388348 194.244373 
L 158.253395 195.293814 
L 159.511644 195.818534 
L 159.85242 196.343255 
L 160.324263 196.867975 
L 161.451445 197.392696 
L 161.726687 197.917416 
L 162.093676 198.442137 
L 162.132997 199.491578 
L 162.880082 200.016298 
L 163.391246 200.541019 
L 163.758235 201.065739 
L 163.98105 203.164621 
L 166.340268 203.689342 
L 166.536869 204.214062 
L 167.9524 204.738783 
L 168.266962 205.263503 
L 169.892201 205.788224 
L 170.377151 206.312944 
L 170.442685 206.837665 
L 170.495112 207.362385 
L 170.691714 207.887106 
L 170.717927 208.936547 
L 170.731034 209.461267 
L 171.019383 209.985988 
L 171.032489 211.035429 
L 171.058703 211.560149 
L 172.159671 212.08487 
L 173.929084 212.60959 
L 174.086365 213.134311 
L 174.374714 213.659031 
L 174.414035 214.183752 
L 174.741704 214.708472 
L 175.764031 215.233193 
L 176.366942 215.757913 
L 176.45869 216.282634 
L 178.162569 216.807354 
L 179.053829 217.332075 
L 179.145576 217.856795 
L 180.390719 218.381516 
L 180.665961 219.955677 
L 181.740716 221.005118 
L 182.763043 221.529839 
L 182.946538 222.054559 
L 183.431488 223.104 
L 183.601876 223.62872 
L 184.676631 224.153441 
L 185.331969 224.678161 
L 186.406724 225.202882 
L 187.900895 226.252323 
L 187.966429 226.777043 
L 189.028076 227.301764 
L 189.041183 227.826484 
L 189.263998 228.351205 
L 189.526134 228.875925 
L 190.194578 229.400646 
L 190.364966 230.450087 
L 190.705742 230.974807 
L 191.033411 231.499528 
L 191.256226 232.024248 
L 192.65865 232.548969 
L 193.54991 233.59841 
L 195.280003 233.59841 
L 195.804273 234.12313 
L 196.118836 235.172571 
L 197.691648 235.697292 
L 198.635335 236.222012 
L 199.002324 237.271453 
L 199.38242 237.796174 
L 199.736303 238.320894 
L 200.116399 239.370335 
L 200.837271 240.419776 
L 201.230474 241.469217 
L 201.256687 241.993938 
L 201.859598 242.518658 
L 201.898919 243.043379 
L 202.646004 243.568099 
L 203.550371 244.09282 
L 203.943574 245.142261 
L 205.21493 246.191702 
L 205.516386 246.716422 
L 205.69988 247.241143 
L 205.726094 247.765863 
L 206.079977 248.815304 
L 206.329005 249.340025 
L 206.709101 249.864745 
L 206.748421 250.914186 
L 208.491621 251.963627 
L 208.504728 252.488348 
L 209.015892 253.537789 
L 209.461522 254.58723 
L 209.776084 255.11195 
L 211.335789 256.161391 
L 212.135302 256.686112 
L 212.227049 257.210832 
L 213.039668 257.735553 
L 213.31491 258.260273 
L 214.428985 259.834435 
L 215.726555 260.359155 
L 216.290146 260.883876 
L 216.512961 261.408596 
L 217.797424 261.933317 
L 217.954705 262.458037 
L 218.872178 263.507478 
L 218.937712 264.032199 
L 219.317808 264.556919 
L 223.276051 265.08164 
L 223.315371 265.60636 
L 223.472652 266.131081 
L 223.787215 266.655801 
L 225.281386 267.180522 
L 225.858083 268.229963 
L 226.854198 268.754683 
L 228.06002 270.328845 
L 228.374582 270.853565 
L 228.702251 271.378286 
L 229.763899 271.903006 
L 230.235743 272.952447 
L 230.484771 273.477168 
L 231.048362 274.001888 
L 231.585739 274.526609 
L 233.787676 275.57605 
L 236.343495 276.625491 
L 236.592523 277.150211 
L 237.195434 277.674932 
L 237.509997 278.724373 
L 238.545431 279.249093 
L 240.065816 280.298534 
L 240.891542 281.347975 
L 241.730375 282.397416 
L 242.634741 282.922137 
L 244.784251 283.446857 
L 245.321628 283.971578 
L 246.579877 284.496298 
L 247.641525 285.021019 
L 248.401718 285.545739 
L 248.794921 287.644621 
L 251.114818 288.169342 
L 252.084718 288.694062 
L 253.015299 289.218783 
L 254.011413 289.743503 
L 254.837139 290.268224 
L 255.046847 290.792944 
L 255.51869 291.317665 
L 256.003641 292.367106 
L 258.402179 292.891826 
L 258.624994 293.416547 
L 260.250232 293.941267 
L 262.714304 294.465988 
L 262.832265 294.990708 
L 263.199254 295.515429 
L 266.004102 296.040149 
L 266.187596 296.56487 
L 266.25313 297.08959 
L 270.801177 297.614311 
L 270.866711 298.139031 
L 274.79874 298.663752 
L 277.826403 299.188472 
L 280.211834 299.713193 
L 280.487076 300.237913 
L 280.500183 300.762634 
L 282.911827 301.287354 
L 287.787544 301.812075 
L 291.614719 302.336795 
L 292.519085 302.861516 
L 297.473442 303.386236 
L 302.191877 303.910957 
L 315.298641 304.435677 
L 321.091831 304.960398 
L 324.814152 305.485118 
L 336.308784 306.009839 
L 356.139318 306.534559 
L 398.487273 307.05928 
L 398.487273 307.05928 
L 398.487273 307.05928 
L 356.139318 306.534559 
L 336.308784 306.009839 
L 324.814152 305.485118 
L 321.091831 304.960398 
L 315.298641 304.435677 
L 302.191877 303.910957 
L 297.473442 303.386236 
L 292.519085 302.861516 
L 291.614719 302.336795 
L 287.787544 301.812075 
L 282.911827 301.287354 
L 280.500183 300.762634 
L 280.487076 300.237913 
L 280.211834 299.713193 
L 277.826403 299.188472 
L 274.79874 298.663752 
L 270.866711 298.139031 
L 270.801177 297.614311 
L 266.25313 297.08959 
L 266.187596 296.56487 
L 266.004102 296.040149 
L 263.199254 295.515429 
L 262.832265 294.990708 
L 262.714304 294.465988 
L 260.250232 293.941267 
L 258.624994 293.416547 
L 258.402179 292.891826 
L 256.003641 292.367106 
L 255.51869 291.317665 
L 255.046847 290.792944 
L 254.837139 290.268224 
L 254.011413 289.743503 
L 253.015299 289.218783 
L 252.084718 288.694062 
L 251.114818 288.169342 
L 248.794921 287.644621 
L 248.401718 285.545739 
L 247.641525 285.021019 
L 246.579877 284.496298 
L 245.321628 283.971578 
L 244.784251 283.446857 
L 242.634741 282.922137 
L 241.730375 282.397416 
L 240.891542 281.347975 
L 240.065816 280.298534 
L 238.545431 279.249093 
L 237.509997 278.724373 
L 237.195434 277.674932 
L 236.592523 277.150211 
L 236.343495 276.625491 
L 233.787676 275.57605 
L 231.585739 274.526609 
L 231.048362 274.001888 
L 230.484771 273.477168 
L 230.235743 272.952447 
L 229.763899 271.903006 
L 228.702251 271.378286 
L 228.374582 270.853565 
L 228.06002 270.328845 
L 226.854198 268.754683 
L 225.858083 268.229963 
L 225.281386 267.180522 
L 223.787215 266.655801 
L 223.472652 266.131081 
L 223.315371 265.60636 
L 223.276051 265.08164 
L 219.317808 264.556919 
L 218.937712 264.032199 
L 218.872178 263.507478 
L 217.954705 262.458037 
L 217.797424 261.933317 
L 216.512961 261.408596 
L 216.290146 260.883876 
L 215.726555 260.359155 
L 214.428985 259.834435 
L 213.31491 258.260273 
L 213.039668 257.735553 
L 212.227049 257.210832 
L 212.135302 256.686112 
L 211.335789 256.161391 
L 209.776084 255.11195 
L 209.461522 254.58723 
L 209.015892 253.537789 
L 208.504728 252.488348 
L 208.491621 251.963627 
L 206.748421 250.914186 
L 206.709101 249.864745 
L 206.329005 249.340025 
L 206.079977 248.815304 
L 205.726094 247.765863 
L 205.69988 247.241143 
L 205.516386 246.716422 
L 205.21493 246.191702 
L 203.943574 245.142261 
L 203.550371 244.09282 
L 202.646004 243.568099 
L 201.898919 243.043379 
L 201.859598 242.518658 
L 201.256687 241.993938 
L 201.230474 241.469217 
L 200.837271 240.419776 
L 200.116399 239.370335 
L 199.736303 238.320894 
L 199.38242 237.796174 
L 199.002324 237.271453 
L 198.635335 236.222012 
L 197.691648 235.697292 
L 196.118836 235.172571 
L 195.804273 234.12313 
L 195.280003 233.59841 
L 193.54991 233.59841 
L 192.65865 232.548969 
L 191.256226 232.024248 
L 191.033411 231.499528 
L 190.705742 230.974807 
L 190.364966 230.450087 
L 190.194578 229.400646 
L 189.526134 228.875925 
L 189.263998 228.351205 
L 189.041183 227.826484 
L 189.028076 227.301764 
L 187.966429 226.777043 
L 187.900895 226.252323 
L 186.406724 225.202882 
L 185.331969 224.678161 
L 184.676631 224.153441 
L 183.601876 223.62872 
L 183.431488 223.104 
L 182.946538 222.054559 
L 182.763043 221.529839 
L 181.740716 221.005118 
L 180.665961 219.955677 
L 180.390719 218.381516 
L 179.145576 217.856795 
L 179.053829 217.332075 
L 178.162569 216.807354 
L 176.45869 216.282634 
L 176.366942 215.757913 
L 175.764031 215.233193 
L 174.741704 214.708472 
L 174.414035 214.183752 
L 174.374714 213.659031 
L 174.086365 213.134311 
L 173.929084 212.60959 
L 172.159671 212.08487 
L 171.058703 211.560149 
L 171.032489 211.035429 
L 171.019383 209.985988 
L 170.731034 209.461267 
L 170.717927 208.936547 
L 170.691714 207.887106 
L 170.495112 207.362385 
L 170.442685 206.837665 
L 170.377151 206.312944 
L 169.892201 205.788224 
L 168.266962 205.263503 
L 167.9524 204.738783 
L 166.536869 204.214062 
L 166.340268 203.689342 
L 163.98105 203.164621 
L 163.758235 201.065739 
L 163.391246 200.541019 
L 162.880082 200.016298 
L 162.132997 199.491578 
L 162.093676 198.442137 
L 161.726687 197.917416 
L 161.451445 197.392696 
L 160.324263 196.867975 
L 159.85242 196.343255 
L 159.511644 195.818534 
L 158.253395 195.293814 
L 157.388348 194.244373 
L 156.824757 193.194932 
L 156.470875 192.145491 
L 156.431554 191.62077 
L 154.662141 191.09605 
L 154.649034 190.571329 
L 154.203404 190.046609 
L 154.111657 189.521888 
L 153.036902 188.997168 
L 152.984475 187.947727 
L 151.988361 187.423006 
L 151.909721 186.373565 
L 151.896614 185.848845 
L 151.844187 185.324124 
L 151.38545 184.799404 
L 151.215062 184.274683 
L 150.93982 183.225242 
L 150.782539 181.651081 
L 150.350016 180.60164 
L 147.414101 180.076919 
L 146.955364 179.552199 
L 146.640802 179.027478 
L 146.36556 178.502758 
L 145.801969 177.978037 
L 145.461193 177.453317 
L 142.590811 176.928596 
L 142.302463 176.403876 
L 142.092754 175.879155 
L 141.843726 175.354435 
L 141.555377 174.304994 
L 141.240815 173.780273 
L 140.834505 172.730832 
L 140.808292 172.206112 
L 139.877711 171.681391 
L 138.973345 170.63195 
L 138.475288 170.10723 
L 138.34422 169.582509 
L 137.833056 169.057789 
L 137.505387 167.483627 
L 137.085971 166.434186 
L 136.456846 165.909466 
L 135.486945 165.384745 
L 135.290344 164.860025 
L 133.573358 164.335304 
L 132.223361 163.810584 
L 131.017539 163.285863 
L 130.702976 162.761143 
L 129.379193 162.236422 
L 128.736962 161.711702 
L 127.295218 161.186981 
L 127.151043 160.662261 
L 126.836481 160.13754 
L 126.495705 159.61282 
L 126.403958 159.088099 
L 124.922894 158.563379 
L 123.546683 156.989217 
L 122.799598 156.464497 
L 122.249114 155.939776 
L 122.209793 155.415056 
L 121.475815 154.365615 
L 118.644754 153.840894 
L 118.382618 153.840894 
L 117.923882 153.316174 
L 117.661746 152.791453 
L 117.294757 152.266733 
L 116.901554 151.217292 
L 116.023401 150.692571 
L 115.931653 150.167851 
L 115.603984 149.64313 
L 114.673404 149.11841 
L 114.214667 148.593689 
L 114.201561 148.068969 
L 114.0836 147.544248 
L 113.244767 147.019528 
L 112.733603 145.445366 
L 112.694283 145.445366 
L 112.668069 144.920646 
L 112.170012 144.395925 
L 111.737489 143.871205 
L 111.396713 143.346484 
L 110.466133 142.821764 
L 110.426812 142.297043 
L 110.256425 141.772323 
L 109.692834 141.247602 
L 108.77536 140.722882 
L 108.69672 139.673441 
L 108.644293 138.624 
L 108.146236 138.09928 
L 107.870994 137.574559 
L 106.99284 137.049839 
L 105.446242 135.475677 
L 104.974399 134.950957 
L 104.384594 133.901516 
L 104.043818 133.376795 
L 104.030712 132.852075 
L 103.38848 132.327354 
L 102.720035 131.802634 
L 102.510327 131.277913 
L 101.671494 130.753193 
L 101.343825 130.228472 
L 100.478779 129.703752 
L 100.282177 129.179031 
L 100.22975 129.179031 
L 99.535092 128.654311 
L 98.919074 127.60487 
L 97.529757 127.080149 
L 97.280728 126.555429 
L 96.769564 126.030708 
L 96.494322 125.505988 
L 95.825877 124.981267 
L 95.537529 124.456547 
L 94.515201 124.456547 
L 94.384133 123.931826 
L 94.279279 123.931826 
L 94.148212 123.931826 
L 94.108891 123.931826 
L 93.95161 123.407106 
L 93.230738 123.407106 
L 92.391905 122.882385 
L 92.155983 122.882385 
L 91.867635 122.357665 
L 91.448218 121.832944 
L 91.382684 121.308224 
L 90.845307 120.783503 
L 90.779773 120.783503 
L 90.268609 120.258783 
L 90.019581 119.734062 
L 89.403563 119.209342 
L 89.102107 119.209342 
L 88.52541 118.159901 
L 88.341915 117.63518 
L 88.250168 117.11046 
L 87.948712 116.585739 
L 87.044345 116.061019 
L 86.991918 115.536298 
L 86.913278 115.536298 
L 86.808424 114.486857 
L 86.624929 114.486857 
L 86.3759 114.486857 
L 86.008911 113.962137 
L 85.89095 113.437416 
L 85.786096 113.437416 
L 85.681242 113.437416 
L 85.589495 113.437416 
L 85.563281 112.912696 
L 85.065224 112.387975 
L 84.99969 112.387975 
L 84.527847 112.387975 
L 84.173964 112.387975 
L 83.636587 111.863255 
L 82.823967 111.863255 
L 82.679793 111.338534 
L 82.496298 110.813814 
L 81.985135 110.813814 
L 81.919601 110.289093 
L 81.683679 110.289093 
L 81.670572 110.289093 
L 81.578825 109.764373 
L 81.277369 109.764373 
L 80.962807 109.764373 
L 80.726885 109.764373 
L 80.071547 109.764373 
L 80.01912 109.239652 
L 79.756985 109.239652 
L 78.983686 109.239652 
L 78.944365 109.239652 
L 78.813298 109.239652 
L 78.459415 109.239652 
L 78.27592 109.239652 
L 78.249707 108.714932 
L 78.184173 108.190211 
L 78.013785 108.190211 
L 77.908931 107.665491 
L 77.83029 107.665491 
L 77.79097 107.665491 
L 77.646796 107.665491 
L 77.607475 107.665491 
L 77.214272 107.665491 
L 76.93903 107.665491 
L 76.572041 107.665491 
L 76.362333 107.14077 
L 76.309906 106.61605 
L 76.152625 106.61605 
L 76.100197 106.61605 
L 75.995343 106.61605 
L 75.903596 106.61605 
L 75.838062 106.61605 
L 75.366219 106.61605 
L 75.313792 106.61605 
L 75.222044 106.091329 
L 74.868162 106.091329 
L 74.841948 106.091329 
L 74.645347 106.091329 
L 74.409425 106.091329 
L 74.239037 105.566609 
L 74.14729 104.517168 
L 74.016222 104.517168 
L 74.003115 103.992447 
L 73.990008 103.467727 
L 73.924475 102.943006 
L 73.832727 102.943006 
z
" clip-path="url(#p0ae53e156d)" style="fill: #7cfc00"/>
   </g>
   <g id="PolyCollection_3">
    <path d="M 73.832727 54.144 
L 73.832727 102.943006 
L 73.924475 102.943006 
L 73.990008 103.467727 
L 74.003115 103.992447 
L 74.016222 104.517168 
L 74.14729 104.517168 
L 74.239037 105.566609 
L 74.409425 106.091329 
L 74.645347 106.091329 
L 74.841948 106.091329 
L 74.868162 106.091329 
L 75.222044 106.091329 
L 75.313792 106.61605 
L 75.366219 106.61605 
L 75.838062 106.61605 
L 75.903596 106.61605 
L 75.995343 106.61605 
L 76.100197 106.61605 
L 76.152625 106.61605 
L 76.309906 106.61605 
L 76.362333 107.14077 
L 76.572041 107.665491 
L 76.93903 107.665491 
L 77.214272 107.665491 
L 77.607475 107.665491 
L 77.646796 107.665491 
L 77.79097 107.665491 
L 77.83029 107.665491 
L 77.908931 107.665491 
L 78.013785 108.190211 
L 78.184173 108.190211 
L 78.249707 108.714932 
L 78.27592 109.239652 
L 78.459415 109.239652 
L 78.813298 109.239652 
L 78.944365 109.239652 
L 78.983686 109.239652 
L 79.756985 109.239652 
L 80.01912 109.239652 
L 80.071547 109.764373 
L 80.726885 109.764373 
L 80.962807 109.764373 
L 81.277369 109.764373 
L 81.578825 109.764373 
L 81.670572 110.289093 
L 81.683679 110.289093 
L 81.919601 110.289093 
L 81.985135 110.813814 
L 82.496298 110.813814 
L 82.679793 111.338534 
L 82.823967 111.863255 
L 83.636587 111.863255 
L 84.173964 112.387975 
L 84.527847 112.387975 
L 84.99969 112.387975 
L 85.065224 112.387975 
L 85.563281 112.912696 
L 85.589495 113.437416 
L 85.681242 113.437416 
L 85.786096 113.437416 
L 85.89095 113.437416 
L 86.008911 113.962137 
L 86.3759 114.486857 
L 86.624929 114.486857 
L 86.808424 114.486857 
L 86.913278 115.536298 
L 86.991918 115.536298 
L 87.044345 116.061019 
L 87.948712 116.585739 
L 88.250168 117.11046 
L 88.341915 117.63518 
L 88.52541 118.159901 
L 89.102107 119.209342 
L 89.403563 119.209342 
L 90.019581 119.734062 
L 90.268609 120.258783 
L 90.779773 120.783503 
L 90.845307 120.783503 
L 91.382684 121.308224 
L 91.448218 121.832944 
L 91.867635 122.357665 
L 92.155983 122.882385 
L 92.391905 122.882385 
L 93.230738 123.407106 
L 93.95161 123.407106 
L 94.108891 123.931826 
L 94.148212 123.931826 
L 94.279279 123.931826 
L 94.384133 123.931826 
L 94.515201 124.456547 
L 95.537529 124.456547 
L 95.825877 124.981267 
L 96.494322 125.505988 
L 96.769564 126.030708 
L 97.280728 126.555429 
L 97.529757 127.080149 
L 98.919074 127.60487 
L 99.535092 128.654311 
L 100.22975 129.179031 
L 100.282177 129.179031 
L 100.478779 129.703752 
L 101.343825 130.228472 
L 101.671494 130.753193 
L 102.510327 131.277913 
L 102.720035 131.802634 
L 103.38848 132.327354 
L 104.030712 132.852075 
L 104.043818 133.376795 
L 104.384594 133.901516 
L 104.974399 134.950957 
L 105.446242 135.475677 
L 106.99284 137.049839 
L 107.870994 137.574559 
L 108.146236 138.09928 
L 108.644293 138.624 
L 108.69672 139.673441 
L 108.77536 140.722882 
L 109.692834 141.247602 
L 110.256425 141.772323 
L 110.426812 142.297043 
L 110.466133 142.821764 
L 111.396713 143.346484 
L 111.737489 143.871205 
L 112.170012 144.395925 
L 112.668069 144.920646 
L 112.694283 145.445366 
L 112.733603 145.445366 
L 113.244767 147.019528 
L 114.0836 147.544248 
L 114.201561 148.068969 
L 114.214667 148.593689 
L 114.673404 149.11841 
L 115.603984 149.64313 
L 115.931653 150.167851 
L 116.023401 150.692571 
L 116.901554 151.217292 
L 117.294757 152.266733 
L 117.661746 152.791453 
L 117.923882 153.316174 
L 118.382618 153.840894 
L 118.644754 153.840894 
L 121.475815 154.365615 
L 122.209793 155.415056 
L 122.249114 155.939776 
L 122.799598 156.464497 
L 123.546683 156.989217 
L 124.922894 158.563379 
L 126.403958 159.088099 
L 126.495705 159.61282 
L 126.836481 160.13754 
L 127.151043 160.662261 
L 127.295218 161.186981 
L 128.736962 161.711702 
L 129.379193 162.236422 
L 130.702976 162.761143 
L 131.017539 163.285863 
L 132.223361 163.810584 
L 133.573358 164.335304 
L 135.290344 164.860025 
L 135.486945 165.384745 
L 136.456846 165.909466 
L 137.085971 166.434186 
L 137.505387 167.483627 
L 137.833056 169.057789 
L 138.34422 169.582509 
L 138.475288 170.10723 
L 138.973345 170.63195 
L 139.877711 171.681391 
L 140.808292 172.206112 
L 140.834505 172.730832 
L 141.240815 173.780273 
L 141.555377 174.304994 
L 141.843726 175.354435 
L 142.092754 175.879155 
L 142.302463 176.403876 
L 142.590811 176.928596 
L 145.461193 177.453317 
L 145.801969 177.978037 
L 146.36556 178.502758 
L 146.640802 179.027478 
L 146.955364 179.552199 
L 147.414101 180.076919 
L 150.350016 180.60164 
L 150.782539 181.651081 
L 150.93982 183.225242 
L 151.215062 184.274683 
L 151.38545 184.799404 
L 151.844187 185.324124 
L 151.896614 185.848845 
L 151.909721 186.373565 
L 151.988361 187.423006 
L 152.984475 187.947727 
L 153.036902 188.997168 
L 154.111657 189.521888 
L 154.203404 190.046609 
L 154.649034 190.571329 
L 154.662141 191.09605 
L 156.431554 191.62077 
L 156.470875 192.145491 
L 156.824757 193.194932 
L 157.388348 194.244373 
L 158.253395 195.293814 
L 159.511644 195.818534 
L 159.85242 196.343255 
L 160.324263 196.867975 
L 161.451445 197.392696 
L 161.726687 197.917416 
L 162.093676 198.442137 
L 162.132997 199.491578 
L 162.880082 200.016298 
L 163.391246 200.541019 
L 163.758235 201.065739 
L 163.98105 203.164621 
L 166.340268 203.689342 
L 166.536869 204.214062 
L 167.9524 204.738783 
L 168.266962 205.263503 
L 169.892201 205.788224 
L 170.377151 206.312944 
L 170.442685 206.837665 
L 170.495112 207.362385 
L 170.691714 207.887106 
L 170.717927 208.936547 
L 170.731034 209.461267 
L 171.019383 209.985988 
L 171.032489 211.035429 
L 171.058703 211.560149 
L 172.159671 212.08487 
L 173.929084 212.60959 
L 174.086365 213.134311 
L 174.374714 213.659031 
L 174.414035 214.183752 
L 174.741704 214.708472 
L 175.764031 215.233193 
L 176.366942 215.757913 
L 176.45869 216.282634 
L 178.162569 216.807354 
L 179.053829 217.332075 
L 179.145576 217.856795 
L 180.390719 218.381516 
L 180.665961 219.955677 
L 181.740716 221.005118 
L 182.763043 221.529839 
L 182.946538 222.054559 
L 183.431488 223.104 
L 183.601876 223.62872 
L 184.676631 224.153441 
L 185.331969 224.678161 
L 186.406724 225.202882 
L 187.900895 226.252323 
L 187.966429 226.777043 
L 189.028076 227.301764 
L 189.041183 227.826484 
L 189.263998 228.351205 
L 189.526134 228.875925 
L 190.194578 229.400646 
L 190.364966 230.450087 
L 190.705742 230.974807 
L 191.033411 231.499528 
L 191.256226 232.024248 
L 192.65865 232.548969 
L 193.54991 233.59841 
L 195.280003 233.59841 
L 195.804273 234.12313 
L 196.118836 235.172571 
L 197.691648 235.697292 
L 198.635335 236.222012 
L 199.002324 237.271453 
L 199.38242 237.796174 
L 199.736303 238.320894 
L 200.116399 239.370335 
L 200.837271 240.419776 
L 201.230474 241.469217 
L 201.256687 241.993938 
L 201.859598 242.518658 
L 201.898919 243.043379 
L 202.646004 243.568099 
L 203.550371 244.09282 
L 203.943574 245.142261 
L 205.21493 246.191702 
L 205.516386 246.716422 
L 205.69988 247.241143 
L 205.726094 247.765863 
L 206.079977 248.815304 
L 206.329005 249.340025 
L 206.709101 249.864745 
L 206.748421 250.914186 
L 208.491621 251.963627 
L 208.504728 252.488348 
L 209.015892 253.537789 
L 209.461522 254.58723 
L 209.776084 255.11195 
L 211.335789 256.161391 
L 212.135302 256.686112 
L 212.227049 257.210832 
L 213.039668 257.735553 
L 213.31491 258.260273 
L 214.428985 259.834435 
L 215.726555 260.359155 
L 216.290146 260.883876 
L 216.512961 261.408596 
L 217.797424 261.933317 
L 217.954705 262.458037 
L 218.872178 263.507478 
L 218.937712 264.032199 
L 219.317808 264.556919 
L 223.276051 265.08164 
L 223.315371 265.60636 
L 223.472652 266.131081 
L 223.787215 266.655801 
L 225.281386 267.180522 
L 225.858083 268.229963 
L 226.854198 268.754683 
L 228.06002 270.328845 
L 228.374582 270.853565 
L 228.702251 271.378286 
L 229.763899 271.903006 
L 230.235743 272.952447 
L 230.484771 273.477168 
L 231.048362 274.001888 
L 231.585739 274.526609 
L 233.787676 275.57605 
L 236.343495 276.625491 
L 236.592523 277.150211 
L 237.195434 277.674932 
L 237.509997 278.724373 
L 238.545431 279.249093 
L 240.065816 280.298534 
L 240.891542 281.347975 
L 241.730375 282.397416 
L 242.634741 282.922137 
L 244.784251 283.446857 
L 245.321628 283.971578 
L 246.579877 284.496298 
L 247.641525 285.021019 
L 248.401718 285.545739 
L 248.794921 287.644621 
L 251.114818 288.169342 
L 252.084718 288.694062 
L 253.015299 289.218783 
L 254.011413 289.743503 
L 254.837139 290.268224 
L 255.046847 290.792944 
L 255.51869 291.317665 
L 256.003641 292.367106 
L 258.402179 292.891826 
L 258.624994 293.416547 
L 260.250232 293.941267 
L 262.714304 294.465988 
L 262.832265 294.990708 
L 263.199254 295.515429 
L 266.004102 296.040149 
L 266.187596 296.56487 
L 266.25313 297.08959 
L 270.801177 297.614311 
L 270.866711 298.139031 
L 274.79874 298.663752 
L 277.826403 299.188472 
L 280.211834 299.713193 
L 280.487076 300.237913 
L 280.500183 300.762634 
L 282.911827 301.287354 
L 287.787544 301.812075 
L 291.614719 302.336795 
L 292.519085 302.861516 
L 297.473442 303.386236 
L 302.191877 303.910957 
L 315.298641 304.435677 
L 321.091831 304.960398 
L 324.814152 305.485118 
L 336.308784 306.009839 
L 356.139318 306.534559 
L 398.487273 307.05928 
L 398.487273 307.05928 
L 398.487273 307.05928 
L 356.139318 306.534559 
L 336.308784 306.009839 
L 324.814152 305.485118 
L 321.091831 304.960398 
L 315.298641 304.435677 
L 302.191877 303.910957 
L 297.473442 303.386236 
L 292.519085 302.861516 
L 291.614719 302.336795 
L 287.787544 301.812075 
L 282.911827 301.287354 
L 280.500183 300.762634 
L 280.487076 300.237913 
L 280.211834 299.713193 
L 277.826403 299.188472 
L 274.79874 298.663752 
L 270.866711 298.139031 
L 270.801177 297.614311 
L 266.25313 297.08959 
L 266.187596 296.56487 
L 266.004102 296.040149 
L 263.199254 295.515429 
L 262.832265 294.990708 
L 262.714304 294.465988 
L 260.250232 293.941267 
L 258.624994 293.416547 
L 258.402179 292.891826 
L 256.003641 292.367106 
L 255.51869 291.317665 
L 255.046847 290.792944 
L 254.837139 290.268224 
L 254.011413 289.743503 
L 253.015299 289.218783 
L 252.084718 288.694062 
L 251.114818 288.169342 
L 248.794921 287.644621 
L 248.401718 285.545739 
L 247.641525 285.021019 
L 246.579877 284.496298 
L 245.321628 283.971578 
L 244.784251 283.446857 
L 242.634741 282.922137 
L 241.730375 282.397416 
L 240.891542 281.347975 
L 240.065816 280.298534 
L 238.545431 279.249093 
L 237.509997 278.724373 
L 237.195434 277.674932 
L 236.592523 277.150211 
L 236.343495 276.625491 
L 233.787676 275.57605 
L 231.585739 274.526609 
L 231.048362 274.001888 
L 230.484771 273.477168 
L 230.235743 272.952447 
L 229.763899 271.903006 
L 228.702251 271.378286 
L 228.374582 270.853565 
L 228.06002 270.328845 
L 226.854198 268.754683 
L 225.858083 268.229963 
L 225.281386 267.180522 
L 223.787215 266.655801 
L 223.472652 265.60636 
L 223.315371 265.08164 
L 223.276051 264.556919 
L 219.317808 264.032199 
L 218.937712 263.507478 
L 218.872178 262.982758 
L 217.954705 261.933317 
L 217.797424 261.408596 
L 216.512961 260.883876 
L 216.290146 260.359155 
L 215.726555 259.834435 
L 214.428985 259.309714 
L 213.31491 257.735553 
L 213.039668 257.210832 
L 212.227049 256.686112 
L 212.135302 256.161391 
L 211.335789 255.636671 
L 209.776084 254.58723 
L 209.461522 254.062509 
L 209.015892 253.013068 
L 208.504728 251.963627 
L 208.491621 251.438907 
L 206.748421 250.389466 
L 206.709101 249.340025 
L 206.329005 248.815304 
L 206.079977 248.290584 
L 205.726094 247.241143 
L 205.69988 246.716422 
L 205.516386 246.191702 
L 205.21493 245.666981 
L 203.943574 244.61754 
L 203.550371 243.568099 
L 202.646004 243.043379 
L 201.898919 242.518658 
L 201.859598 241.993938 
L 201.256687 241.469217 
L 201.230474 240.944497 
L 200.837271 239.895056 
L 200.116399 238.845615 
L 199.736303 237.796174 
L 199.38242 237.271453 
L 199.002324 236.746733 
L 198.635335 235.697292 
L 197.691648 235.172571 
L 196.118836 234.647851 
L 195.804273 233.59841 
L 195.280003 233.073689 
L 193.54991 232.548969 
L 192.65865 231.499528 
L 191.256226 230.974807 
L 191.033411 230.450087 
L 190.705742 229.925366 
L 190.364966 229.400646 
L 190.194578 228.351205 
L 189.526134 227.826484 
L 189.263998 227.301764 
L 189.041183 226.777043 
L 189.028076 226.252323 
L 187.966429 225.727602 
L 187.900895 225.202882 
L 186.406724 224.153441 
L 185.331969 223.62872 
L 184.676631 223.104 
L 183.601876 222.57928 
L 183.431488 222.054559 
L 182.946538 221.005118 
L 182.763043 220.480398 
L 181.740716 219.955677 
L 180.665961 218.906236 
L 180.390719 217.332075 
L 179.145576 216.807354 
L 179.053829 216.282634 
L 178.162569 215.757913 
L 176.45869 215.233193 
L 176.366942 214.708472 
L 175.764031 214.183752 
L 174.741704 213.659031 
L 174.414035 213.134311 
L 174.374714 212.60959 
L 174.086365 212.08487 
L 173.929084 211.560149 
L 172.159671 211.035429 
L 171.058703 210.510708 
L 171.032489 209.985988 
L 171.019383 208.936547 
L 170.731034 208.411826 
L 170.717927 207.887106 
L 170.691714 206.837665 
L 170.495112 206.312944 
L 170.442685 205.788224 
L 170.377151 205.263503 
L 169.892201 204.738783 
L 168.266962 204.214062 
L 167.9524 203.689342 
L 166.536869 203.164621 
L 166.340268 202.639901 
L 163.98105 202.11518 
L 163.758235 200.016298 
L 163.391246 199.491578 
L 162.880082 198.966857 
L 162.132997 198.442137 
L 162.093676 197.392696 
L 161.726687 196.867975 
L 161.451445 196.343255 
L 160.324263 195.818534 
L 159.85242 195.293814 
L 159.511644 194.769093 
L 158.253395 194.244373 
L 157.388348 193.194932 
L 156.824757 192.145491 
L 156.470875 191.09605 
L 156.431554 190.571329 
L 154.662141 190.046609 
L 154.649034 189.521888 
L 154.203404 188.997168 
L 154.111657 188.472447 
L 153.036902 187.947727 
L 152.984475 186.898286 
L 151.988361 186.373565 
L 151.909721 185.324124 
L 151.896614 184.799404 
L 151.844187 184.274683 
L 151.38545 183.749963 
L 151.215062 183.225242 
L 150.93982 182.175801 
L 150.782539 180.60164 
L 150.350016 179.552199 
L 147.414101 179.027478 
L 146.955364 178.502758 
L 146.640802 177.978037 
L 146.36556 177.453317 
L 145.801969 176.928596 
L 145.461193 176.403876 
L 142.590811 175.879155 
L 142.302463 175.354435 
L 142.092754 174.829714 
L 141.843726 174.304994 
L 141.555377 173.255553 
L 141.240815 172.730832 
L 140.834505 171.681391 
L 140.808292 171.156671 
L 139.877711 170.63195 
L 138.973345 169.582509 
L 138.475288 169.057789 
L 138.34422 168.533068 
L 137.833056 168.008348 
L 137.505387 165.909466 
L 137.085971 164.860025 
L 136.456846 164.335304 
L 135.486945 163.810584 
L 135.290344 163.285863 
L 133.573358 162.761143 
L 132.223361 162.236422 
L 131.017539 161.711702 
L 130.702976 161.186981 
L 129.379193 160.662261 
L 128.736962 160.13754 
L 127.295218 159.61282 
L 127.151043 159.088099 
L 126.836481 158.563379 
L 126.495705 158.038658 
L 126.403958 157.513938 
L 124.922894 156.989217 
L 123.546683 155.415056 
L 122.799598 154.890335 
L 122.249114 154.365615 
L 122.209793 153.840894 
L 121.475815 152.791453 
L 118.644754 152.266733 
L 118.382618 151.742012 
L 117.923882 151.217292 
L 117.661746 150.692571 
L 117.294757 150.167851 
L 116.901554 149.11841 
L 116.023401 148.593689 
L 115.931653 148.068969 
L 115.603984 147.544248 
L 114.673404 146.494807 
L 114.214667 145.970087 
L 114.201561 145.445366 
L 114.0836 144.920646 
L 113.244767 144.395925 
L 112.733603 142.821764 
L 112.694283 142.297043 
L 112.668069 141.772323 
L 112.170012 141.247602 
L 111.737489 140.722882 
L 111.396713 140.198161 
L 110.466133 139.14872 
L 110.426812 138.624 
L 110.256425 138.09928 
L 109.692834 137.574559 
L 108.77536 137.049839 
L 108.69672 136.000398 
L 108.644293 134.950957 
L 108.146236 134.426236 
L 107.870994 133.901516 
L 106.99284 133.376795 
L 105.446242 131.802634 
L 104.974399 131.277913 
L 104.384594 130.228472 
L 104.043818 129.703752 
L 104.030712 129.179031 
L 103.38848 128.654311 
L 102.720035 128.12959 
L 102.510327 127.60487 
L 101.671494 127.080149 
L 101.343825 126.555429 
L 100.478779 126.030708 
L 100.282177 125.505988 
L 100.22975 124.981267 
L 99.535092 124.456547 
L 98.919074 123.407106 
L 97.529757 122.882385 
L 97.280728 122.357665 
L 96.769564 121.832944 
L 96.494322 121.308224 
L 95.825877 120.783503 
L 95.537529 120.258783 
L 94.515201 119.734062 
L 94.384133 119.209342 
L 94.279279 118.684621 
L 94.148212 118.159901 
L 94.108891 117.11046 
L 93.95161 116.585739 
L 93.230738 116.061019 
L 92.391905 115.536298 
L 92.155983 115.011578 
L 91.867635 113.962137 
L 91.448218 113.437416 
L 91.382684 112.912696 
L 90.845307 112.387975 
L 90.779773 111.338534 
L 90.268609 110.813814 
L 90.019581 110.289093 
L 89.403563 109.764373 
L 89.102107 109.239652 
L 88.52541 108.190211 
L 88.341915 107.665491 
L 88.250168 107.14077 
L 87.948712 106.61605 
L 87.044345 106.091329 
L 86.991918 105.566609 
L 86.913278 104.517168 
L 86.808424 103.467727 
L 86.624929 102.943006 
L 86.3759 102.418286 
L 86.008911 101.893565 
L 85.89095 101.368845 
L 85.786096 100.844124 
L 85.681242 99.269963 
L 85.589495 98.745242 
L 85.563281 98.220522 
L 85.065224 97.695801 
L 84.99969 97.171081 
L 84.527847 96.64636 
L 84.173964 96.12164 
L 83.636587 94.022758 
L 82.823967 92.448596 
L 82.679793 91.399155 
L 82.496298 90.874435 
L 81.985135 90.349714 
L 81.919601 89.824994 
L 81.683679 89.300273 
L 81.670572 88.775553 
L 81.578825 88.250832 
L 81.277369 87.201391 
L 80.962807 86.676671 
L 80.726885 86.15195 
L 80.071547 85.62723 
L 80.01912 85.102509 
L 79.756985 83.003627 
L 78.983686 82.478907 
L 78.944365 81.954186 
L 78.813298 81.429466 
L 78.459415 80.904745 
L 78.27592 80.380025 
L 78.249707 79.330584 
L 78.184173 78.805863 
L 78.013785 78.281143 
L 77.908931 77.756422 
L 77.83029 77.231702 
L 77.79097 75.65754 
L 77.646796 75.13282 
L 77.607475 73.033938 
L 77.214272 72.509217 
L 76.93903 70.935056 
L 76.572041 68.836174 
L 76.362333 68.311453 
L 76.309906 67.786733 
L 76.152625 67.262012 
L 76.100197 66.737292 
L 75.995343 66.212571 
L 75.903596 63.588969 
L 75.838062 62.539528 
L 75.366219 62.014807 
L 75.313792 61.490087 
L 75.222044 60.965366 
L 74.868162 59.915925 
L 74.841948 59.391205 
L 74.645347 58.866484 
L 74.409425 58.341764 
L 74.239037 57.817043 
L 74.14729 56.767602 
L 74.016222 56.242882 
L 74.003115 55.718161 
L 73.990008 55.193441 
L 73.924475 54.66872 
L 73.832727 54.144 
z
" clip-path="url(#p0ae53e156d)" style="fill: #ff0000"/>
   </g>
   <g id="matplotlib.axis_1">
    <g id="xtick_1">
     <g id="line2d_1">
      <defs>
       <path id="md870dd04ed" d="M 0 0 
L 0 3.5 
" style="stroke: #000000; stroke-width: 0.8"/>
      </defs>
      <g>
       <use xlink:href="#md870dd04ed" x="68.576915" y="307.584" style="stroke: #000000; stroke-width: 0.8"/>
      </g>
     </g>
     <g id="text_1">
      <!-- 0 -->
      <g transform="translate(65.395665 322.182437)scale(0.1 -0.1)">
       <defs>
        <path id="DejaVuSans-30" d="M 2034 4250 
Q 1547 4250 1301 3770 
Q 1056 3291 1056 2328 
Q 1056 1369 1301 889 
Q 1547 409 2034 409 
Q 2525 409 2770 889 
Q 3016 1369 3016 2328 
Q 3016 3291 2770 3770 
Q 2525 4250 2034 4250 
z
M 2034 4750 
Q 2819 4750 3233 4129 
Q 3647 3509 3647 2328 
Q 3647 1150 3233 529 
Q 2819 -91 2034 -91 
Q 1250 -91 836 529 
Q 422 1150 422 2328 
Q 422 3509 836 4129 
Q 1250 4750 2034 4750 
z
" transform="scale(0.015625)"/>
       </defs>
       <use xlink:href="#DejaVuSans-30"/>
      </g>
     </g>
    </g>
    <g id="xtick_2">
     <g id="line2d_2">
      <g>
       <use xlink:href="#md870dd04ed" x="134.110735" y="307.584" style="stroke: #000000; stroke-width: 0.8"/>
      </g>
     </g>
     <g id="text_2">
      <!-- 50 -->
      <g transform="translate(127.748235 322.182437)scale(0.1 -0.1)">
       <defs>
        <path id="DejaVuSans-35" d="M 691 4666 
L 3169 4666 
L 3169 4134 
L 1269 4134 
L 1269 2991 
Q 1406 3038 1543 3061 
Q 1681 3084 1819 3084 
Q 2600 3084 3056 2656 
Q 3513 2228 3513 1497 
Q 3513 744 3044 326 
Q 2575 -91 1722 -91 
Q 1428 -91 1123 -41 
Q 819 9 494 109 
L 494 744 
Q 775 591 1075 516 
Q 1375 441 1709 441 
Q 2250 441 2565 725 
Q 2881 1009 2881 1497 
Q 2881 1984 2565 2268 
Q 2250 2553 1709 2553 
Q 1456 2553 1204 2497 
Q 953 2441 691 2322 
L 691 4666 
z
" transform="scale(0.015625)"/>
       </defs>
       <use xlink:href="#DejaVuSans-35"/>
       <use xlink:href="#DejaVuSans-30" x="63.623047"/>
      </g>
     </g>
    </g>
    <g id="xtick_3">
     <g id="line2d_3">
      <g>
       <use xlink:href="#md870dd04ed" x="199.644555" y="307.584" style="stroke: #000000; stroke-width: 0.8"/>
      </g>
     </g>
     <g id="text_3">
      <!-- 100 -->
      <g transform="translate(190.100805 322.182437)scale(0.1 -0.1)">
       <defs>
        <path id="DejaVuSans-31" d="M 794 531 
L 1825 531 
L 1825 4091 
L 703 3866 
L 703 4441 
L 1819 4666 
L 2450 4666 
L 2450 531 
L 3481 531 
L 3481 0 
L 794 0 
L 794 531 
z
" transform="scale(0.015625)"/>
       </defs>
       <use xlink:href="#DejaVuSans-31"/>
       <use xlink:href="#DejaVuSans-30" x="63.623047"/>
       <use xlink:href="#DejaVuSans-30" x="127.246094"/>
      </g>
     </g>
    </g>
    <g id="xtick_4">
     <g id="line2d_4">
      <g>
       <use xlink:href="#md870dd04ed" x="265.178376" y="307.584" style="stroke: #000000; stroke-width: 0.8"/>
      </g>
     </g>
     <g id="text_4">
      <!-- 150 -->
      <g transform="translate(255.634626 322.182437)scale(0.1 -0.1)">
       <use xlink:href="#DejaVuSans-31"/>
       <use xlink:href="#DejaVuSans-35" x="63.623047"/>
       <use xlink:href="#DejaVuSans-30" x="127.246094"/>
      </g>
     </g>
    </g>
    <g id="xtick_5">
     <g id="line2d_5">
      <g>
       <use xlink:href="#md870dd04ed" x="330.712196" y="307.584" style="stroke: #000000; stroke-width: 0.8"/>
      </g>
     </g>
     <g id="text_5">
      <!-- 200 -->
      <g transform="translate(321.168446 322.182437)scale(0.1 -0.1)">
       <defs>
        <path id="DejaVuSans-32" d="M 1228 531 
L 3431 531 
L 3431 0 
L 469 0 
L 469 531 
Q 828 903 1448 1529 
Q 2069 2156 2228 2338 
Q 2531 2678 2651 2914 
Q 2772 3150 2772 3378 
Q 2772 3750 2511 3984 
Q 2250 4219 1831 4219 
Q 1534 4219 1204 4116 
Q 875 4013 500 3803 
L 500 4441 
Q 881 4594 1212 4672 
Q 1544 4750 1819 4750 
Q 2544 4750 2975 4387 
Q 3406 4025 3406 3419 
Q 3406 3131 3298 2873 
Q 3191 2616 2906 2266 
Q 2828 2175 2409 1742 
Q 1991 1309 1228 531 
z
" transform="scale(0.015625)"/>
       </defs>
       <use xlink:href="#DejaVuSans-32"/>
       <use xlink:href="#DejaVuSans-30" x="63.623047"/>
       <use xlink:href="#DejaVuSans-30" x="127.246094"/>
      </g>
     </g>
    </g>
    <g id="xtick_6">
     <g id="line2d_6">
      <g>
       <use xlink:href="#md870dd04ed" x="396.246016" y="307.584" style="stroke: #000000; stroke-width: 0.8"/>
      </g>
     </g>
     <g id="text_6">
      <!-- 250 -->
      <g transform="translate(386.702266 322.182437)scale(0.1 -0.1)">
       <use xlink:href="#DejaVuSans-32"/>
       <use xlink:href="#DejaVuSans-35" x="63.623047"/>
       <use xlink:href="#DejaVuSans-30" x="127.246094"/>
      </g>
     </g>
    </g>
    <g id="text_7">
     <!-- Score -->
     <g transform="translate(222.157656 335.860562)scale(0.1 -0.1)">
      <defs>
       <path id="DejaVuSans-53" d="M 3425 4513 
L 3425 3897 
Q 3066 4069 2747 4153 
Q 2428 4238 2131 4238 
Q 1616 4238 1336 4038 
Q 1056 3838 1056 3469 
Q 1056 3159 1242 3001 
Q 1428 2844 1947 2747 
L 2328 2669 
Q 3034 2534 3370 2195 
Q 3706 1856 3706 1288 
Q 3706 609 3251 259 
Q 2797 -91 1919 -91 
Q 1588 -91 1214 -16 
Q 841 59 441 206 
L 441 856 
Q 825 641 1194 531 
Q 1563 422 1919 422 
Q 2459 422 2753 634 
Q 3047 847 3047 1241 
Q 3047 1584 2836 1778 
Q 2625 1972 2144 2069 
L 1759 2144 
Q 1053 2284 737 2584 
Q 422 2884 422 3419 
Q 422 4038 858 4394 
Q 1294 4750 2059 4750 
Q 2388 4750 2728 4690 
Q 3069 4631 3425 4513 
z
" transform="scale(0.015625)"/>
       <path id="DejaVuSans-63" d="M 3122 3366 
L 3122 2828 
Q 2878 2963 2633 3030 
Q 2388 3097 2138 3097 
Q 1578 3097 1268 2742 
Q 959 2388 959 1747 
Q 959 1106 1268 751 
Q 1578 397 2138 397 
Q 2388 397 2633 464 
Q 2878 531 3122 666 
L 3122 134 
Q 2881 22 2623 -34 
Q 2366 -91 2075 -91 
Q 1284 -91 818 406 
Q 353 903 353 1747 
Q 353 2603 823 3093 
Q 1294 3584 2113 3584 
Q 2378 3584 2631 3529 
Q 2884 3475 3122 3366 
z
" transform="scale(0.015625)"/>
       <path id="DejaVuSans-6f" d="M 1959 3097 
Q 1497 3097 1228 2736 
Q 959 2375 959 1747 
Q 959 1119 1226 758 
Q 1494 397 1959 397 
Q 2419 397 2687 759 
Q 2956 1122 2956 1747 
Q 2956 2369 2687 2733 
Q 2419 3097 1959 3097 
z
M 1959 3584 
Q 2709 3584 3137 3096 
Q 3566 2609 3566 1747 
Q 3566 888 3137 398 
Q 2709 -91 1959 -91 
Q 1206 -91 779 398 
Q 353 888 353 1747 
Q 353 2609 779 3096 
Q 1206 3584 1959 3584 
z
" transform="scale(0.015625)"/>
       <path id="DejaVuSans-72" d="M 2631 2963 
Q 2534 3019 2420 3045 
Q 2306 3072 2169 3072 
Q 1681 3072 1420 2755 
Q 1159 2438 1159 1844 
L 1159 0 
L 581 0 
L 581 3500 
L 1159 3500 
L 1159 2956 
Q 1341 3275 1631 3429 
Q 1922 3584 2338 3584 
Q 2397 3584 2469 3576 
Q 2541 3569 2628 3553 
L 2631 2963 
z
" transform="scale(0.015625)"/>
       <path id="DejaVuSans-65" d="M 3597 1894 
L 3597 1613 
L 953 1613 
Q 991 1019 1311 708 
Q 1631 397 2203 397 
Q 2534 397 2845 478 
Q 3156 559 3463 722 
L 3463 178 
Q 3153 47 2828 -22 
Q 2503 -91 2169 -91 
Q 1331 -91 842 396 
Q 353 884 353 1716 
Q 353 2575 817 3079 
Q 1281 3584 2069 3584 
Q 2775 3584 3186 3129 
Q 3597 2675 3597 1894 
z
M 3022 2063 
Q 3016 2534 2758 2815 
Q 2500 3097 2075 3097 
Q 1594 3097 1305 2825 
Q 1016 2553 972 2059 
L 3022 2063 
z
" transform="scale(0.015625)"/>
      </defs>
      <use xlink:href="#DejaVuSans-53"/>
      <use xlink:href="#DejaVuSans-63" x="63.476562"/>
      <use xlink:href="#DejaVuSans-6f" x="118.457031"/>
      <use xlink:href="#DejaVuSans-72" x="179.638672"/>
      <use xlink:href="#DejaVuSans-65" x="218.501953"/>
     </g>
    </g>
   </g>
   <g id="matplotlib.axis_2">
    <g id="ytick_1">
     <g id="line2d_7">
      <defs>
       <path id="m15aa922e5a" d="M 0 0 
L -3.5 0 
" style="stroke: #000000; stroke-width: 0.8"/>
      </defs>
      <g>
       <use xlink:href="#m15aa922e5a" x="57.6" y="307.584" style="stroke: #000000; stroke-width: 0.8"/>
      </g>
     </g>
     <g id="text_8">
      <!-- 0 -->
      <g transform="translate(44.2375 311.383219)scale(0.1 -0.1)">
       <use xlink:href="#DejaVuSans-30"/>
      </g>
     </g>
    </g>
    <g id="ytick_2">
     <g id="line2d_8">
      <g>
       <use xlink:href="#m15aa922e5a" x="57.6" y="255.11195" style="stroke: #000000; stroke-width: 0.8"/>
      </g>
     </g>
     <g id="text_9">
      <!-- 100 -->
      <g transform="translate(31.5125 258.911169)scale(0.1 -0.1)">
       <use xlink:href="#DejaVuSans-31"/>
       <use xlink:href="#DejaVuSans-30" x="63.623047"/>
       <use xlink:href="#DejaVuSans-30" x="127.246094"/>
      </g>
     </g>
    </g>
    <g id="ytick_3">
     <g id="line2d_9">
      <g>
       <use xlink:href="#m15aa922e5a" x="57.6" y="202.639901" style="stroke: #000000; stroke-width: 0.8"/>
      </g>
     </g>
     <g id="text_10">
      <!-- 200 -->
      <g transform="translate(31.5125 206.439119)scale(0.1 -0.1)">
       <use xlink:href="#DejaVuSans-32"/>
       <use xlink:href="#DejaVuSans-30" x="63.623047"/>
       <use xlink:href="#DejaVuSans-30" x="127.246094"/>
      </g>
     </g>
    </g>
    <g id="ytick_4">
     <g id="line2d_10">
      <g>
       <use xlink:href="#m15aa922e5a" x="57.6" y="150.167851" style="stroke: #000000; stroke-width: 0.8"/>
      </g>
     </g>
     <g id="text_11">
      <!-- 300 -->
      <g transform="translate(31.5125 153.96707)scale(0.1 -0.1)">
       <defs>
        <path id="DejaVuSans-33" d="M 2597 2516 
Q 3050 2419 3304 2112 
Q 3559 1806 3559 1356 
Q 3559 666 3084 287 
Q 2609 -91 1734 -91 
Q 1441 -91 1130 -33 
Q 819 25 488 141 
L 488 750 
Q 750 597 1062 519 
Q 1375 441 1716 441 
Q 2309 441 2620 675 
Q 2931 909 2931 1356 
Q 2931 1769 2642 2001 
Q 2353 2234 1838 2234 
L 1294 2234 
L 1294 2753 
L 1863 2753 
Q 2328 2753 2575 2939 
Q 2822 3125 2822 3475 
Q 2822 3834 2567 4026 
Q 2313 4219 1838 4219 
Q 1578 4219 1281 4162 
Q 984 4106 628 3988 
L 628 4550 
Q 988 4650 1302 4700 
Q 1616 4750 1894 4750 
Q 2613 4750 3031 4423 
Q 3450 4097 3450 3541 
Q 3450 3153 3228 2886 
Q 3006 2619 2597 2516 
z
" transform="scale(0.015625)"/>
       </defs>
       <use xlink:href="#DejaVuSans-33"/>
       <use xlink:href="#DejaVuSans-30" x="63.623047"/>
       <use xlink:href="#DejaVuSans-30" x="127.246094"/>
      </g>
     </g>
    </g>
    <g id="ytick_5">
     <g id="line2d_11">
      <g>
       <use xlink:href="#m15aa922e5a" x="57.6" y="97.695801" style="stroke: #000000; stroke-width: 0.8"/>
      </g>
     </g>
     <g id="text_12">
      <!-- 400 -->
      <g transform="translate(31.5125 101.49502)scale(0.1 -0.1)">
       <defs>
        <path id="DejaVuSans-34" d="M 2419 4116 
L 825 1625 
L 2419 1625 
L 2419 4116 
z
M 2253 4666 
L 3047 4666 
L 3047 1625 
L 3713 1625 
L 3713 1100 
L 3047 1100 
L 3047 0 
L 2419 0 
L 2419 1100 
L 313 1100 
L 313 1709 
L 2253 4666 
z
" transform="scale(0.015625)"/>
       </defs>
       <use xlink:href="#DejaVuSans-34"/>
       <use xlink:href="#DejaVuSans-30" x="63.623047"/>
       <use xlink:href="#DejaVuSans-30" x="127.246094"/>
      </g>
     </g>
    </g>
    <g id="ytick_6">
     <g id="line2d_12">
      <g>
       <use xlink:href="#m15aa922e5a" x="57.6" y="45.223752" style="stroke: #000000; stroke-width: 0.8"/>
      </g>
     </g>
     <g id="text_13">
      <!-- 500 -->
      <g transform="translate(31.5125 49.02297)scale(0.1 -0.1)">
       <use xlink:href="#DejaVuSans-35"/>
       <use xlink:href="#DejaVuSans-30" x="63.623047"/>
       <use xlink:href="#DejaVuSans-30" x="127.246094"/>
      </g>
     </g>
    </g>
    <g id="text_14">
     <!-- Number of crosslinks -->
     <g transform="translate(25.432812 227.019406)rotate(-90)scale(0.1 -0.1)">
      <defs>
       <path id="DejaVuSans-4e" d="M 628 4666 
L 1478 4666 
L 3547 763 
L 3547 4666 
L 4159 4666 
L 4159 0 
L 3309 0 
L 1241 3903 
L 1241 0 
L 628 0 
L 628 4666 
z
" transform="scale(0.015625)"/>
       <path id="DejaVuSans-75" d="M 544 1381 
L 544 3500 
L 1119 3500 
L 1119 1403 
Q 1119 906 1312 657 
Q 1506 409 1894 409 
Q 2359 409 2629 706 
Q 2900 1003 2900 1516 
L 2900 3500 
L 3475 3500 
L 3475 0 
L 2900 0 
L 2900 538 
Q 2691 219 2414 64 
Q 2138 -91 1772 -91 
Q 1169 -91 856 284 
Q 544 659 544 1381 
z
M 1991 3584 
L 1991 3584 
z
" transform="scale(0.015625)"/>
       <path id="DejaVuSans-6d" d="M 3328 2828 
Q 3544 3216 3844 3400 
Q 4144 3584 4550 3584 
Q 5097 3584 5394 3201 
Q 5691 2819 5691 2113 
L 5691 0 
L 5113 0 
L 5113 2094 
Q 5113 2597 4934 2840 
Q 4756 3084 4391 3084 
Q 3944 3084 3684 2787 
Q 3425 2491 3425 1978 
L 3425 0 
L 2847 0 
L 2847 2094 
Q 2847 2600 2669 2842 
Q 2491 3084 2119 3084 
Q 1678 3084 1418 2786 
Q 1159 2488 1159 1978 
L 1159 0 
L 581 0 
L 581 3500 
L 1159 3500 
L 1159 2956 
Q 1356 3278 1631 3431 
Q 1906 3584 2284 3584 
Q 2666 3584 2933 3390 
Q 3200 3197 3328 2828 
z
" transform="scale(0.015625)"/>
       <path id="DejaVuSans-62" d="M 3116 1747 
Q 3116 2381 2855 2742 
Q 2594 3103 2138 3103 
Q 1681 3103 1420 2742 
Q 1159 2381 1159 1747 
Q 1159 1113 1420 752 
Q 1681 391 2138 391 
Q 2594 391 2855 752 
Q 3116 1113 3116 1747 
z
M 1159 2969 
Q 1341 3281 1617 3432 
Q 1894 3584 2278 3584 
Q 2916 3584 3314 3078 
Q 3713 2572 3713 1747 
Q 3713 922 3314 415 
Q 2916 -91 2278 -91 
Q 1894 -91 1617 61 
Q 1341 213 1159 525 
L 1159 0 
L 581 0 
L 581 4863 
L 1159 4863 
L 1159 2969 
z
" transform="scale(0.015625)"/>
       <path id="DejaVuSans-20" transform="scale(0.015625)"/>
       <path id="DejaVuSans-66" d="M 2375 4863 
L 2375 4384 
L 1825 4384 
Q 1516 4384 1395 4259 
Q 1275 4134 1275 3809 
L 1275 3500 
L 2222 3500 
L 2222 3053 
L 1275 3053 
L 1275 0 
L 697 0 
L 697 3053 
L 147 3053 
L 147 3500 
L 697 3500 
L 697 3744 
Q 697 4328 969 4595 
Q 1241 4863 1831 4863 
L 2375 4863 
z
" transform="scale(0.015625)"/>
       <path id="DejaVuSans-73" d="M 2834 3397 
L 2834 2853 
Q 2591 2978 2328 3040 
Q 2066 3103 1784 3103 
Q 1356 3103 1142 2972 
Q 928 2841 928 2578 
Q 928 2378 1081 2264 
Q 1234 2150 1697 2047 
L 1894 2003 
Q 2506 1872 2764 1633 
Q 3022 1394 3022 966 
Q 3022 478 2636 193 
Q 2250 -91 1575 -91 
Q 1294 -91 989 -36 
Q 684 19 347 128 
L 347 722 
Q 666 556 975 473 
Q 1284 391 1588 391 
Q 1994 391 2212 530 
Q 2431 669 2431 922 
Q 2431 1156 2273 1281 
Q 2116 1406 1581 1522 
L 1381 1569 
Q 847 1681 609 1914 
Q 372 2147 372 2553 
Q 372 3047 722 3315 
Q 1072 3584 1716 3584 
Q 2034 3584 2315 3537 
Q 2597 3491 2834 3397 
z
" transform="scale(0.015625)"/>
       <path id="DejaVuSans-6c" d="M 603 4863 
L 1178 4863 
L 1178 0 
L 603 0 
L 603 4863 
z
" transform="scale(0.015625)"/>
       <path id="DejaVuSans-69" d="M 603 3500 
L 1178 3500 
L 1178 0 
L 603 0 
L 603 3500 
z
M 603 4863 
L 1178 4863 
L 1178 4134 
L 603 4134 
L 603 4863 
z
" transform="scale(0.015625)"/>
       <path id="DejaVuSans-6e" d="M 3513 2113 
L 3513 0 
L 2938 0 
L 2938 2094 
Q 2938 2591 2744 2837 
Q 2550 3084 2163 3084 
Q 1697 3084 1428 2787 
Q 1159 2491 1159 1978 
L 1159 0 
L 581 0 
L 581 3500 
L 1159 3500 
L 1159 2956 
Q 1366 3272 1645 3428 
Q 1925 3584 2291 3584 
Q 2894 3584 3203 3211 
Q 3513 2838 3513 2113 
z
" transform="scale(0.015625)"/>
       <path id="DejaVuSans-6b" d="M 581 4863 
L 1159 4863 
L 1159 1991 
L 2875 3500 
L 3609 3500 
L 1753 1863 
L 3688 0 
L 2938 0 
L 1159 1709 
L 1159 0 
L 581 0 
L 581 4863 
z
" transform="scale(0.015625)"/>
      </defs>
      <use xlink:href="#DejaVuSans-4e"/>
      <use xlink:href="#DejaVuSans-75" x="74.804688"/>
      <use xlink:href="#DejaVuSans-6d" x="138.183594"/>
      <use xlink:href="#DejaVuSans-62" x="235.595703"/>
      <use xlink:href="#DejaVuSans-65" x="299.072266"/>
      <use xlink:href="#DejaVuSans-72" x="360.595703"/>
      <use xlink:href="#DejaVuSans-20" x="401.708984"/>
      <use xlink:href="#DejaVuSans-6f" x="433.496094"/>
      <use xlink:href="#DejaVuSans-66" x="494.677734"/>
      <use xlink:href="#DejaVuSans-20" x="529.882812"/>
      <use xlink:href="#DejaVuSans-63" x="561.669922"/>
      <use xlink:href="#DejaVuSans-72" x="616.650391"/>
      <use xlink:href="#DejaVuSans-6f" x="655.513672"/>
      <use xlink:href="#DejaVuSans-73" x="716.695312"/>
      <use xlink:href="#DejaVuSans-73" x="768.794922"/>
      <use xlink:href="#DejaVuSans-6c" x="820.894531"/>
      <use xlink:href="#DejaVuSans-69" x="848.677734"/>
      <use xlink:href="#DejaVuSans-6e" x="876.460938"/>
      <use xlink:href="#DejaVuSans-6b" x="939.839844"/>
      <use xlink:href="#DejaVuSans-73" x="997.75"/>
     </g>
    </g>
   </g>
   <g id="patch_3">
    <path d="M 57.6 307.584 
L 57.6 41.472 
" style="fill: none; stroke: #000000; stroke-width: 0.8; stroke-linejoin: miter; stroke-linecap: square"/>
   </g>
   <g id="patch_4">
    <path d="M 414.72 307.584 
L 414.72 41.472 
" style="fill: none; stroke: #000000; stroke-width: 0.8; stroke-linejoin: miter; stroke-linecap: square"/>
   </g>
   <g id="patch_5">
    <path d="M 57.6 307.584 
L 414.72 307.584 
" style="fill: none; stroke: #000000; stroke-width: 0.8; stroke-linejoin: miter; stroke-linecap: square"/>
   </g>
   <g id="patch_6">
    <path d="M 57.6 41.472 
L 414.72 41.472 
" style="fill: none; stroke: #000000; stroke-width: 0.8; stroke-linejoin: miter; stroke-linecap: square"/>
   </g>
   <g id="legend_1">
    <g id="patch_7">
     <path d="M 278.598125 93.506375 
L 407.72 93.506375 
Q 409.72 93.506375 409.72 91.506375 
L 409.72 48.472 
Q 409.72 46.472 407.72 46.472 
L 278.598125 46.472 
Q 276.598125 46.472 276.598125 48.472 
L 276.598125 91.506375 
Q 276.598125 93.506375 278.598125 93.506375 
z
" style="fill: #ffffff; opacity: 0.8; stroke: #cccccc; stroke-linejoin: miter"/>
    </g>
    <g id="patch_8">
     <path d="M 280.598125 58.070438 
L 300.598125 58.070438 
L 300.598125 51.070438 
L 280.598125 51.070438 
z
" style="fill: #008000"/>
    </g>
    <g id="text_15">
     <!-- correct -->
     <g transform="translate(308.598125 58.070438)scale(0.1 -0.1)">
      <defs>
       <path id="DejaVuSans-74" d="M 1172 4494 
L 1172 3500 
L 2356 3500 
L 2356 3053 
L 1172 3053 
L 1172 1153 
Q 1172 725 1289 603 
Q 1406 481 1766 481 
L 2356 481 
L 2356 0 
L 1766 0 
Q 1100 0 847 248 
Q 594 497 594 1153 
L 594 3053 
L 172 3053 
L 172 3500 
L 594 3500 
L 594 4494 
L 1172 4494 
z
" transform="scale(0.015625)"/>
      </defs>
      <use xlink:href="#DejaVuSans-63"/>
      <use xlink:href="#DejaVuSans-6f" x="54.980469"/>
      <use xlink:href="#DejaVuSans-72" x="116.162109"/>
      <use xlink:href="#DejaVuSans-72" x="155.525391"/>
      <use xlink:href="#DejaVuSans-65" x="194.388672"/>
      <use xlink:href="#DejaVuSans-63" x="255.912109"/>
      <use xlink:href="#DejaVuSans-74" x="310.892578"/>
     </g>
    </g>
    <g id="patch_9">
     <path d="M 280.598125 72.748563 
L 300.598125 72.748563 
L 300.598125 65.748563 
L 280.598125 65.748563 
z
" style="fill: #7cfc00"/>
    </g>
    <g id="text_16">
     <!-- correct homeotypic -->
     <g transform="translate(308.598125 72.748563)scale(0.1 -0.1)">
      <defs>
       <path id="DejaVuSans-68" d="M 3513 2113 
L 3513 0 
L 2938 0 
L 2938 2094 
Q 2938 2591 2744 2837 
Q 2550 3084 2163 3084 
Q 1697 3084 1428 2787 
Q 1159 2491 1159 1978 
L 1159 0 
L 581 0 
L 581 4863 
L 1159 4863 
L 1159 2956 
Q 1366 3272 1645 3428 
Q 1925 3584 2291 3584 
Q 2894 3584 3203 3211 
Q 3513 2838 3513 2113 
z
" transform="scale(0.015625)"/>
       <path id="DejaVuSans-79" d="M 2059 -325 
Q 1816 -950 1584 -1140 
Q 1353 -1331 966 -1331 
L 506 -1331 
L 506 -850 
L 844 -850 
Q 1081 -850 1212 -737 
Q 1344 -625 1503 -206 
L 1606 56 
L 191 3500 
L 800 3500 
L 1894 763 
L 2988 3500 
L 3597 3500 
L 2059 -325 
z
" transform="scale(0.015625)"/>
       <path id="DejaVuSans-70" d="M 1159 525 
L 1159 -1331 
L 581 -1331 
L 581 3500 
L 1159 3500 
L 1159 2969 
Q 1341 3281 1617 3432 
Q 1894 3584 2278 3584 
Q 2916 3584 3314 3078 
Q 3713 2572 3713 1747 
Q 3713 922 3314 415 
Q 2916 -91 2278 -91 
Q 1894 -91 1617 61 
Q 1341 213 1159 525 
z
M 3116 1747 
Q 3116 2381 2855 2742 
Q 2594 3103 2138 3103 
Q 1681 3103 1420 2742 
Q 1159 2381 1159 1747 
Q 1159 1113 1420 752 
Q 1681 391 2138 391 
Q 2594 391 2855 752 
Q 3116 1113 3116 1747 
z
" transform="scale(0.015625)"/>
      </defs>
      <use xlink:href="#DejaVuSans-63"/>
      <use xlink:href="#DejaVuSans-6f" x="54.980469"/>
      <use xlink:href="#DejaVuSans-72" x="116.162109"/>
      <use xlink:href="#DejaVuSans-72" x="155.525391"/>
      <use xlink:href="#DejaVuSans-65" x="194.388672"/>
      <use xlink:href="#DejaVuSans-63" x="255.912109"/>
      <use xlink:href="#DejaVuSans-74" x="310.892578"/>
      <use xlink:href="#DejaVuSans-20" x="350.101562"/>
      <use xlink:href="#DejaVuSans-68" x="381.888672"/>
      <use xlink:href="#DejaVuSans-6f" x="445.267578"/>
      <use xlink:href="#DejaVuSans-6d" x="506.449219"/>
      <use xlink:href="#DejaVuSans-65" x="603.861328"/>
      <use xlink:href="#DejaVuSans-6f" x="665.384766"/>
      <use xlink:href="#DejaVuSans-74" x="726.566406"/>
      <use xlink:href="#DejaVuSans-79" x="765.775391"/>
      <use xlink:href="#DejaVuSans-70" x="824.955078"/>
      <use xlink:href="#DejaVuSans-69" x="888.431641"/>
      <use xlink:href="#DejaVuSans-63" x="916.214844"/>
     </g>
    </g>
    <g id="patch_10">
     <path d="M 280.598125 87.426688 
L 300.598125 87.426688 
L 300.598125 80.426688 
L 280.598125 80.426688 
z
" style="fill: #ff0000"/>
    </g>
    <g id="text_17">
     <!-- false -->
     <g transform="translate(308.598125 87.426688)scale(0.1 -0.1)">
      <defs>
       <path id="DejaVuSans-61" d="M 2194 1759 
Q 1497 1759 1228 1600 
Q 959 1441 959 1056 
Q 959 750 1161 570 
Q 1363 391 1709 391 
Q 2188 391 2477 730 
Q 2766 1069 2766 1631 
L 2766 1759 
L 2194 1759 
z
M 3341 1997 
L 3341 0 
L 2766 0 
L 2766 531 
Q 2569 213 2275 61 
Q 1981 -91 1556 -91 
Q 1019 -91 701 211 
Q 384 513 384 1019 
Q 384 1609 779 1909 
Q 1175 2209 1959 2209 
L 2766 2209 
L 2766 2266 
Q 2766 2663 2505 2880 
Q 2244 3097 1772 3097 
Q 1472 3097 1187 3025 
Q 903 2953 641 2809 
L 641 3341 
Q 956 3463 1253 3523 
Q 1550 3584 1831 3584 
Q 2591 3584 2966 3190 
Q 3341 2797 3341 1997 
z
" transform="scale(0.015625)"/>
      </defs>
      <use xlink:href="#DejaVuSans-66"/>
      <use xlink:href="#DejaVuSans-61" x="35.205078"/>
      <use xlink:href="#DejaVuSans-6c" x="96.484375"/>
      <use xlink:href="#DejaVuSans-73" x="124.267578"/>
      <use xlink:href="#DejaVuSans-65" x="176.367188"/>
     </g>
    </g>
   </g>
  </g>
 </g>
 <defs>
  <clipPath id="p0ae53e156d">
   <rect x="57.6" y="41.472" width="357.12" height="266.112"/>
  </clipPath>
 </defs>
</svg>
