<?xml version="1.0" encoding="utf-8" standalone="no"?>
<!DOCTYPE svg PUBLIC "-//W3C//DTD SVG 1.1//EN"
  "http://www.w3.org/Graphics/SVG/1.1/DTD/svg11.dtd">
<svg xmlns:xlink="http://www.w3.org/1999/xlink" width="460.8pt" height="345.6pt" viewBox="0 0 460.8 345.6" xmlns="http://www.w3.org/2000/svg" version="1.1">
 <metadata>
  <rdf:RDF xmlns:dc="http://purl.org/dc/elements/1.1/" xmlns:cc="http://creativecommons.org/ns#" xmlns:rdf="http://www.w3.org/1999/02/22-rdf-syntax-ns#">
   <cc:Work>
    <dc:type rdf:resource="http://purl.org/dc/dcmitype/StillImage"/>
    <dc:date>2022-07-28T11:19:32.880212</dc:date>
    <dc:format>image/svg+xml</dc:format>
    <dc:creator>
     <cc:Agent>
      <dc:title>Matplotlib v3.5.1, https://matplotlib.org/</dc:title>
     </cc:Agent>
    </dc:creator>
   </cc:Work>
  </rdf:RDF>
 </metadata>
 <defs>
  <style type="text/css">*{stroke-linejoin: round; stroke-linecap: butt}</style>
 </defs>
 <g id="figure_1">
  <g id="patch_1">
   <path d="M 0 345.6 
L 460.8 345.6 
L 460.8 0 
L 0 0 
z
" style="fill: #ffffff"/>
  </g>
  <g id="axes_1">
   <g id="patch_2">
    <path d="M 57.6 307.584 
L 414.72 307.584 
L 414.72 41.472 
L 57.6 41.472 
z
" style="fill: #ffffff"/>
   </g>
   <g id="PolyCollection_1">
    <path d="M 73.832727 64.674748 
L 73.832727 307.584 
L 74.776092 307.584 
L 75.83952 307.584 
L 75.925281 307.584 
L 77.160231 307.584 
L 77.331751 307.584 
L 77.863466 307.584 
L 78.789678 307.584 
L 79.30424 307.584 
L 79.904563 307.584 
L 79.956019 307.584 
L 80.196148 307.584 
L 80.813623 307.584 
L 81.139513 307.584 
L 81.259577 307.584 
L 81.534011 307.584 
L 81.808444 307.584 
L 82.648896 307.584 
L 83.077698 307.584 
L 83.626564 307.584 
L 84.741449 307.584 
L 85.341772 307.584 
L 85.667662 307.584 
L 86.23368 307.584 
L 86.885459 307.584 
L 87.022676 307.584 
L 87.931736 307.584 
L 89.767008 307.584 
L 90.796133 307.584 
L 91.122023 307.584 
L 91.293543 307.584 
L 91.345 307.584 
L 91.499368 307.584 
L 94.312309 307.584 
L 94.929784 307.584 
L 96.13043 307.584 
L 96.524927 307.584 
L 96.644992 307.584 
L 98.737546 307.584 
L 98.909066 307.584 
L 100.246928 307.584 
L 100.298385 307.584 
L 101.241749 307.584 
L 101.653399 307.584 
L 101.704855 307.584 
L 102.013593 307.584 
L 103.625888 307.584 
L 105.46116 307.584 
L 106.010027 307.584 
L 106.147244 307.584 
L 106.627502 307.584 
L 106.799023 307.584 
L 106.850479 307.584 
L 107.159216 307.584 
L 108.394166 307.584 
L 108.497078 307.584 
L 109.097401 307.584 
L 110.744001 307.584 
L 110.846913 307.584 
L 113.145292 307.584 
L 115.169237 307.584 
L 115.85532 307.584 
L 116.146905 307.584 
L 116.164057 307.584 
L 119.714538 307.584 
L 121.155312 307.584 
L 121.241073 307.584 
L 122.390262 307.584 
L 122.801912 307.584 
L 123.796732 307.584 
L 125.820678 307.584 
L 126.112263 307.584 
L 128.56501 307.584 
L 128.719379 307.584 
L 130.074393 307.584 
L 130.21161 307.584 
L 132.715813 307.584 
L 133.796394 307.584 
L 134.122284 307.584 
L 135.117104 307.584 
L 135.631667 307.584 
L 135.734579 307.584 
L 136.780856 307.584 
L 136.935225 307.584 
L 137.22681 307.584 
L 137.844285 307.584 
L 138.444608 307.584 
L 139.010626 307.584 
L 139.799622 307.584 
L 139.988295 307.584 
L 140.77729 307.584 
L 141.720655 307.584 
L 142.715475 307.584 
L 142.904148 307.584 
L 144.139098 307.584 
L 144.344923 307.584 
L 144.533596 307.584 
L 145.614177 307.584 
L 145.648481 307.584 
L 145.88861 307.584 
L 146.488933 307.584 
L 146.660453 307.584 
L 147.449449 307.584 
L 147.518057 307.584 
L 147.689578 307.584 
L 148.495726 307.584 
L 150.931321 307.584 
L 152.063358 307.584 
L 153.092483 307.584 
L 155.939728 307.584 
L 156.214161 307.584 
L 158.889885 307.584 
L 158.941342 307.584 
L 159.044254 307.584 
L 159.678881 307.584 
L 160.141987 307.584 
L 161.274024 307.584 
L 163.366578 307.584 
L 163.984053 307.584 
L 164.824505 307.584 
L 165.544892 307.584 
L 165.819325 307.584 
L 165.922238 307.584 
L 167.328708 307.584 
L 167.414469 307.584 
L 167.500229 307.584 
L 167.997639 307.584 
L 168.477897 307.584 
L 168.66657 307.584 
L 170.004432 307.584 
L 170.467539 307.584 
L 171.942617 307.584 
L 172.114138 307.584 
L 172.371419 307.584 
L 172.783069 307.584 
L 173.211871 307.584 
L 174.052323 307.584 
L 175.287273 307.584 
L 175.441641 307.584 
L 175.698923 307.584 
L 175.750379 307.584 
L 177.088241 307.584 
L 177.156849 307.584 
L 177.225458 307.584 
L 177.551347 307.584 
L 177.980149 307.584 
L 177.997301 307.584 
L 178.837753 307.584 
L 179.47238 307.584 
L 180.604417 307.584 
L 181.787911 307.584 
L 182.319625 307.584 
L 183.228685 307.584 
L 183.468814 307.584 
L 184.000529 307.584 
L 186.024474 307.584 
L 186.298907 307.584 
L 186.779165 307.584 
L 186.933534 307.584 
L 187.533857 307.584 
L 188.614438 307.584 
L 188.820263 307.584 
L 189.04324 307.584 
L 190.243885 307.584 
L 190.604079 307.584 
L 191.101489 307.584 
L 191.27301 307.584 
L 191.616052 307.584 
L 192.010549 307.584 
L 193.588541 307.584 
L 194.223168 307.584 
L 194.446145 307.584 
L 196.813131 307.584 
L 198.922837 307.584 
L 199.986266 307.584 
L 200.157787 307.584 
L 200.449372 307.584 
L 202.044515 307.584 
L 202.902119 307.584 
L 203.296617 307.584 
L 204.462959 307.584 
L 205.166194 307.584 
L 205.835125 307.584 
L 206.298231 307.584 
L 207.533181 307.584 
L 207.927678 307.584 
L 208.322176 307.584 
L 209.334149 307.584 
L 209.419909 307.584 
L 209.59143 307.584 
L 209.797255 307.584 
L 210.346122 307.584 
L 210.41473 307.584 
L 210.82638 307.584 
L 211.32379 307.584 
L 212.884629 307.584 
L 212.901781 307.584 
L 214.119579 307.584 
L 215.028639 307.584 
L 215.560353 307.584 
L 216.589478 307.584 
L 218.201774 307.584 
L 218.33899 307.584 
L 218.853553 307.584 
L 220.260023 307.584 
L 221.066171 307.584 
L 221.940927 307.584 
L 222.661314 307.584 
L 223.193029 307.584 
L 223.913416 307.584 
L 224.736716 307.584 
L 224.993997 307.584 
L 227.035094 307.584 
L 227.704025 307.584 
L 227.82409 307.584 
L 228.698846 307.584 
L 231.134441 307.584 
L 231.357418 307.584 
L 232.386543 307.584 
L 236.485889 307.584 
L 236.554498 307.584 
L 237.223429 307.584 
L 239.401743 307.584 
L 240.602388 307.584 
L 243.037984 307.584 
L 243.08944 307.584 
L 244.667431 307.584 
L 245.490731 307.584 
L 245.748012 307.584 
L 246.502703 307.584 
L 246.622768 307.584 
L 248.989755 307.584 
L 249.555773 307.584 
L 249.898815 307.584 
L 250.241857 307.584 
L 251.048004 307.584 
L 251.288133 307.584 
L 252.625996 307.584 
L 253.037645 307.584 
L 255.473241 307.584 
L 257.154144 307.584 
L 257.188448 307.584 
L 258.080357 307.584 
L 259.795564 307.584 
L 259.967085 307.584 
L 260.447343 307.584 
L 261.064818 307.584 
L 262.659962 307.584 
L 263.466109 307.584 
L 263.997824 307.584 
L 264.289409 307.584 
L 264.580994 307.584 
L 268.3373 307.584 
L 269.126295 307.584 
L 269.194904 307.584 
L 273.740204 307.584 
L 278.062528 307.584 
L 279.246022 307.584 
L 280.789709 307.584 
L 280.944077 307.584 
L 282.28194 307.584 
L 284.048604 307.584 
L 284.065756 307.584 
L 284.906208 307.584 
L 286.587111 307.584 
L 287.599084 307.584 
L 287.942126 307.584 
L 289.571573 307.584 
L 297.13564 307.584 
L 297.838875 307.584 
L 297.976092 307.584 
L 298.250525 307.584 
L 302.281263 307.584 
L 302.435632 307.584 
L 302.607153 307.584 
L 302.727217 307.584 
L 303.207476 307.584 
L 306.329154 307.584 
L 307.323974 307.584 
L 307.546952 307.584 
L 309.02203 307.584 
L 309.330768 307.584 
L 310.600022 307.584 
L 314.562152 307.584 
L 315.574124 307.584 
L 316.877682 307.584 
L 319.9136 307.584 
L 320.908421 307.584 
L 327.975077 307.584 
L 328.215206 307.584 
L 329.776045 307.584 
L 331.388341 307.584 
L 335.796425 307.584 
L 336.722637 307.584 
L 338.0605 307.584 
L 361.953345 307.584 
L 379.088272 307.584 
L 397.406692 307.584 
L 398.487273 307.584 
L 398.487273 306.88195 
L 398.487273 306.88195 
L 397.406692 306.1799 
L 379.088272 304.775801 
L 361.953345 304.073751 
L 338.0605 303.371701 
L 336.722637 302.669651 
L 335.796425 301.265551 
L 331.388341 300.563501 
L 329.776045 299.861452 
L 328.215206 299.159402 
L 327.975077 298.457352 
L 320.908421 297.755302 
L 319.9136 297.053252 
L 316.877682 296.351202 
L 315.574124 295.649152 
L 314.562152 294.947102 
L 310.600022 294.245053 
L 309.330768 292.840953 
L 309.02203 292.138903 
L 307.546952 291.436853 
L 307.323974 290.734803 
L 306.329154 290.032753 
L 303.207476 288.628654 
L 302.727217 287.926604 
L 302.607153 287.224554 
L 302.435632 286.522504 
L 302.281263 285.820454 
L 298.250525 285.118404 
L 297.976092 284.416355 
L 297.838875 283.714305 
L 297.13564 283.012255 
L 289.571573 282.310205 
L 287.942126 281.608155 
L 287.599084 280.906105 
L 286.587111 280.204055 
L 284.906208 279.502006 
L 284.065756 278.799956 
L 284.048604 278.097906 
L 282.28194 277.395856 
L 280.944077 276.693806 
L 280.789709 275.991756 
L 279.246022 273.885607 
L 278.062528 273.183557 
L 273.740204 271.077407 
L 269.194904 270.375357 
L 269.126295 269.673307 
L 268.3373 268.269208 
L 264.580994 267.567158 
L 264.289409 266.865108 
L 263.997824 266.163058 
L 263.466109 265.461008 
L 262.659962 264.758958 
L 261.064818 264.056909 
L 260.447343 263.354859 
L 259.967085 262.652809 
L 259.795564 261.950759 
L 258.080357 261.248709 
L 257.188448 260.546659 
L 257.154144 259.844609 
L 255.473241 259.14256 
L 253.037645 258.44051 
L 252.625996 257.03641 
L 251.288133 256.33436 
L 251.048004 255.63231 
L 250.241857 254.93026 
L 249.898815 254.228211 
L 249.555773 253.526161 
L 248.989755 252.824111 
L 246.622768 252.122061 
L 246.502703 251.420011 
L 245.748012 250.717961 
L 245.490731 250.015911 
L 244.667431 249.313861 
L 243.08944 247.207712 
L 243.037984 246.505662 
L 240.602388 245.803612 
L 239.401743 244.399512 
L 237.223429 243.697463 
L 236.554498 242.995413 
L 236.485889 241.591313 
L 232.386543 240.187213 
L 231.357418 239.485163 
L 231.134441 238.783114 
L 228.698846 236.676964 
L 227.82409 235.974914 
L 227.704025 235.272864 
L 227.035094 234.570814 
L 224.993997 233.868765 
L 224.736716 233.166715 
L 223.913416 232.464665 
L 223.193029 231.762615 
L 222.661314 231.060565 
L 221.940927 230.358515 
L 221.066171 228.954416 
L 220.260023 228.252366 
L 218.853553 226.848266 
L 218.33899 225.444166 
L 218.201774 224.040066 
L 216.589478 223.338017 
L 215.560353 222.635967 
L 215.028639 221.933917 
L 214.119579 220.529817 
L 212.901781 219.827767 
L 212.884629 219.125717 
L 211.32379 217.721618 
L 210.82638 217.019568 
L 210.41473 216.317518 
L 210.346122 215.615468 
L 209.797255 213.509319 
L 209.59143 212.807269 
L 209.419909 212.105219 
L 209.334149 211.403169 
L 208.322176 210.701119 
L 207.927678 209.999069 
L 207.533181 209.297019 
L 206.298231 208.59497 
L 205.835125 207.89292 
L 205.166194 205.78677 
L 204.462959 205.08472 
L 203.296617 204.38267 
L 202.902119 203.68062 
L 202.044515 202.978571 
L 200.449372 202.276521 
L 200.157787 201.574471 
L 199.986266 200.872421 
L 198.922837 200.170371 
L 196.813131 199.468321 
L 194.446145 198.766271 
L 194.223168 198.064222 
L 193.588541 197.362172 
L 192.010549 196.660122 
L 191.616052 195.958072 
L 191.27301 195.256022 
L 191.101489 194.553972 
L 190.604079 193.851922 
L 190.243885 193.149873 
L 189.04324 191.745773 
L 188.820263 191.043723 
L 188.614438 190.341673 
L 187.533857 189.639623 
L 186.933534 188.937573 
L 186.779165 188.235524 
L 186.298907 187.533474 
L 186.024474 186.831424 
L 184.000529 185.427324 
L 183.468814 184.725274 
L 183.228685 184.023224 
L 182.319625 183.321175 
L 181.787911 181.215025 
L 180.604417 180.512975 
L 179.47238 179.810925 
L 178.837753 178.406825 
L 177.997301 177.704776 
L 177.980149 176.300676 
L 177.551347 175.598626 
L 177.225458 174.896576 
L 177.156849 174.194526 
L 177.088241 173.492476 
L 175.750379 172.790427 
L 175.698923 172.088377 
L 175.441641 171.386327 
L 175.287273 170.684277 
L 174.052323 169.982227 
L 173.211871 169.280177 
L 172.783069 167.876078 
L 172.371419 167.174028 
L 172.114138 165.067878 
L 171.942617 164.365828 
L 170.467539 163.663778 
L 170.004432 162.961729 
L 168.66657 162.259679 
L 168.477897 161.557629 
L 167.997639 160.855579 
L 167.500229 160.153529 
L 167.414469 159.451479 
L 167.328708 158.04738 
L 165.922238 157.34533 
L 165.819325 156.64328 
L 165.544892 155.23918 
L 164.824505 154.53713 
L 163.984053 153.13303 
L 163.366578 151.728931 
L 161.274024 151.026881 
L 160.141987 150.324831 
L 159.678881 149.622781 
L 159.044254 148.920731 
L 158.941342 148.218681 
L 158.889885 147.516632 
L 156.214161 146.814582 
L 155.939728 146.112532 
L 153.092483 144.006382 
L 152.063358 143.304332 
L 150.931321 141.900233 
L 148.495726 141.198183 
L 147.689578 140.496133 
L 147.518057 139.794083 
L 147.449449 139.092033 
L 146.660453 138.389983 
L 146.488933 137.687934 
L 145.88861 136.985884 
L 145.648481 136.283834 
L 145.614177 135.581784 
L 144.533596 134.879734 
L 144.344923 133.475634 
L 144.139098 132.773584 
L 142.904148 132.773584 
L 142.715475 131.369485 
L 141.720655 130.667435 
L 140.77729 129.965385 
L 139.988295 129.263335 
L 139.799622 128.561285 
L 139.010626 127.859235 
L 138.444608 127.157186 
L 137.844285 126.455136 
L 137.22681 125.753086 
L 136.935225 125.051036 
L 136.780856 124.348986 
L 135.734579 122.242837 
L 135.631667 120.838737 
L 135.117104 120.136687 
L 134.122284 118.030537 
L 133.796394 117.328488 
L 132.715813 116.626438 
L 130.21161 115.924388 
L 130.074393 115.222338 
L 128.719379 114.520288 
L 128.56501 113.818238 
L 126.112263 113.116188 
L 125.820678 113.116188 
L 123.796732 112.414139 
L 122.801912 111.712089 
L 122.390262 111.010039 
L 121.241073 110.307989 
L 121.155312 109.605939 
L 119.714538 108.201839 
L 116.164057 107.499789 
L 116.146905 106.79774 
L 115.85532 106.09569 
L 115.169237 105.39364 
L 113.145292 104.69159 
L 110.846913 103.98954 
L 110.744001 102.58544 
L 109.097401 102.58544 
L 108.497078 101.883391 
L 108.394166 101.181341 
L 107.159216 99.777241 
L 106.850479 99.075191 
L 106.799023 98.373141 
L 106.627502 97.671091 
L 106.147244 96.969042 
L 106.010027 96.266992 
L 105.46116 95.564942 
L 103.625888 93.458792 
L 102.013593 92.054693 
L 101.704855 91.352643 
L 101.653399 90.650593 
L 101.241749 89.948543 
L 100.298385 89.246493 
L 100.246928 88.544443 
L 98.909066 87.842393 
L 98.737546 87.140343 
L 96.644992 86.438294 
L 96.524927 85.736244 
L 96.13043 84.332144 
L 94.929784 83.630094 
L 94.312309 82.928044 
L 91.499368 82.225994 
L 91.345 82.225994 
L 91.293543 81.523945 
L 91.122023 80.821895 
L 90.796133 80.119845 
L 89.767008 79.417795 
L 87.931736 79.417795 
L 87.022676 78.715745 
L 86.885459 78.013695 
L 86.23368 77.311645 
L 85.667662 77.311645 
L 85.341772 76.609596 
L 84.741449 75.907546 
L 83.626564 75.205496 
L 83.077698 74.503446 
L 82.648896 73.801396 
L 81.808444 73.099346 
L 81.534011 72.397296 
L 81.259577 71.695247 
L 81.139513 71.695247 
L 80.813623 70.993197 
L 80.196148 69.589097 
L 79.956019 68.887047 
L 79.904563 68.184997 
L 79.30424 68.184997 
L 78.789678 68.184997 
L 77.863466 68.184997 
L 77.331751 68.184997 
L 77.160231 67.482947 
L 75.925281 66.780898 
L 75.83952 66.780898 
L 74.776092 65.376798 
L 73.832727 64.674748 
z
" clip-path="url(#p33a790f1b3)" style="fill: #008000"/>
   </g>
   <g id="PolyCollection_2">
    <path d="M 73.832727 64.674748 
L 73.832727 64.674748 
L 74.776092 65.376798 
L 75.83952 66.780898 
L 75.925281 66.780898 
L 77.160231 67.482947 
L 77.331751 68.184997 
L 77.863466 68.184997 
L 78.789678 68.184997 
L 79.30424 68.184997 
L 79.904563 68.184997 
L 79.956019 68.887047 
L 80.196148 69.589097 
L 80.813623 70.993197 
L 81.139513 71.695247 
L 81.259577 71.695247 
L 81.534011 72.397296 
L 81.808444 73.099346 
L 82.648896 73.801396 
L 83.077698 74.503446 
L 83.626564 75.205496 
L 84.741449 75.907546 
L 85.341772 76.609596 
L 85.667662 77.311645 
L 86.23368 77.311645 
L 86.885459 78.013695 
L 87.022676 78.715745 
L 87.931736 79.417795 
L 89.767008 79.417795 
L 90.796133 80.119845 
L 91.122023 80.821895 
L 91.293543 81.523945 
L 91.345 82.225994 
L 91.499368 82.225994 
L 94.312309 82.928044 
L 94.929784 83.630094 
L 96.13043 84.332144 
L 96.524927 85.736244 
L 96.644992 86.438294 
L 98.737546 87.140343 
L 98.909066 87.842393 
L 100.246928 88.544443 
L 100.298385 89.246493 
L 101.241749 89.948543 
L 101.653399 90.650593 
L 101.704855 91.352643 
L 102.013593 92.054693 
L 103.625888 93.458792 
L 105.46116 95.564942 
L 106.010027 96.266992 
L 106.147244 96.969042 
L 106.627502 97.671091 
L 106.799023 98.373141 
L 106.850479 99.075191 
L 107.159216 99.777241 
L 108.394166 101.181341 
L 108.497078 101.883391 
L 109.097401 102.58544 
L 110.744001 102.58544 
L 110.846913 103.98954 
L 113.145292 104.69159 
L 115.169237 105.39364 
L 115.85532 106.09569 
L 116.146905 106.79774 
L 116.164057 107.499789 
L 119.714538 108.201839 
L 121.155312 109.605939 
L 121.241073 110.307989 
L 122.390262 111.010039 
L 122.801912 111.712089 
L 123.796732 112.414139 
L 125.820678 113.116188 
L 126.112263 113.116188 
L 128.56501 113.818238 
L 128.719379 114.520288 
L 130.074393 115.222338 
L 130.21161 115.924388 
L 132.715813 116.626438 
L 133.796394 117.328488 
L 134.122284 118.030537 
L 135.117104 120.136687 
L 135.631667 120.838737 
L 135.734579 122.242837 
L 136.780856 124.348986 
L 136.935225 125.051036 
L 137.22681 125.753086 
L 137.844285 126.455136 
L 138.444608 127.157186 
L 139.010626 127.859235 
L 139.799622 128.561285 
L 139.988295 129.263335 
L 140.77729 129.965385 
L 141.720655 130.667435 
L 142.715475 131.369485 
L 142.904148 132.773584 
L 144.139098 132.773584 
L 144.344923 133.475634 
L 144.533596 134.879734 
L 145.614177 135.581784 
L 145.648481 136.283834 
L 145.88861 136.985884 
L 146.488933 137.687934 
L 146.660453 138.389983 
L 147.449449 139.092033 
L 147.518057 139.794083 
L 147.689578 140.496133 
L 148.495726 141.198183 
L 150.931321 141.900233 
L 152.063358 143.304332 
L 153.092483 144.006382 
L 155.939728 146.112532 
L 156.214161 146.814582 
L 158.889885 147.516632 
L 158.941342 148.218681 
L 159.044254 148.920731 
L 159.678881 149.622781 
L 160.141987 150.324831 
L 161.274024 151.026881 
L 163.366578 151.728931 
L 163.984053 153.13303 
L 164.824505 154.53713 
L 165.544892 155.23918 
L 165.819325 156.64328 
L 165.922238 157.34533 
L 167.328708 158.04738 
L 167.414469 159.451479 
L 167.500229 160.153529 
L 167.997639 160.855579 
L 168.477897 161.557629 
L 168.66657 162.259679 
L 170.004432 162.961729 
L 170.467539 163.663778 
L 171.942617 164.365828 
L 172.114138 165.067878 
L 172.371419 167.174028 
L 172.783069 167.876078 
L 173.211871 169.280177 
L 174.052323 169.982227 
L 175.287273 170.684277 
L 175.441641 171.386327 
L 175.698923 172.088377 
L 175.750379 172.790427 
L 177.088241 173.492476 
L 177.156849 174.194526 
L 177.225458 174.896576 
L 177.551347 175.598626 
L 177.980149 176.300676 
L 177.997301 177.704776 
L 178.837753 178.406825 
L 179.47238 179.810925 
L 180.604417 180.512975 
L 181.787911 181.215025 
L 182.319625 183.321175 
L 183.228685 184.023224 
L 183.468814 184.725274 
L 184.000529 185.427324 
L 186.024474 186.831424 
L 186.298907 187.533474 
L 186.779165 188.235524 
L 186.933534 188.937573 
L 187.533857 189.639623 
L 188.614438 190.341673 
L 188.820263 191.043723 
L 189.04324 191.745773 
L 190.243885 193.149873 
L 190.604079 193.851922 
L 191.101489 194.553972 
L 191.27301 195.256022 
L 191.616052 195.958072 
L 192.010549 196.660122 
L 193.588541 197.362172 
L 194.223168 198.064222 
L 194.446145 198.766271 
L 196.813131 199.468321 
L 198.922837 200.170371 
L 199.986266 200.872421 
L 200.157787 201.574471 
L 200.449372 202.276521 
L 202.044515 202.978571 
L 202.902119 203.68062 
L 203.296617 204.38267 
L 204.462959 205.08472 
L 205.166194 205.78677 
L 205.835125 207.89292 
L 206.298231 208.59497 
L 207.533181 209.297019 
L 207.927678 209.999069 
L 208.322176 210.701119 
L 209.334149 211.403169 
L 209.419909 212.105219 
L 209.59143 212.807269 
L 209.797255 213.509319 
L 210.346122 215.615468 
L 210.41473 216.317518 
L 210.82638 217.019568 
L 211.32379 217.721618 
L 212.884629 219.125717 
L 212.901781 219.827767 
L 214.119579 220.529817 
L 215.028639 221.933917 
L 215.560353 222.635967 
L 216.589478 223.338017 
L 218.201774 224.040066 
L 218.33899 225.444166 
L 218.853553 226.848266 
L 220.260023 228.252366 
L 221.066171 228.954416 
L 221.940927 230.358515 
L 222.661314 231.060565 
L 223.193029 231.762615 
L 223.913416 232.464665 
L 224.736716 233.166715 
L 224.993997 233.868765 
L 227.035094 234.570814 
L 227.704025 235.272864 
L 227.82409 235.974914 
L 228.698846 236.676964 
L 231.134441 238.783114 
L 231.357418 239.485163 
L 232.386543 240.187213 
L 236.485889 241.591313 
L 236.554498 242.995413 
L 237.223429 243.697463 
L 239.401743 244.399512 
L 240.602388 245.803612 
L 243.037984 246.505662 
L 243.08944 247.207712 
L 244.667431 249.313861 
L 245.490731 250.015911 
L 245.748012 250.717961 
L 246.502703 251.420011 
L 246.622768 252.122061 
L 248.989755 252.824111 
L 249.555773 253.526161 
L 249.898815 254.228211 
L 250.241857 254.93026 
L 251.048004 255.63231 
L 251.288133 256.33436 
L 252.625996 257.03641 
L 253.037645 258.44051 
L 255.473241 259.14256 
L 257.154144 259.844609 
L 257.188448 260.546659 
L 258.080357 261.248709 
L 259.795564 261.950759 
L 259.967085 262.652809 
L 260.447343 263.354859 
L 261.064818 264.056909 
L 262.659962 264.758958 
L 263.466109 265.461008 
L 263.997824 266.163058 
L 264.289409 266.865108 
L 264.580994 267.567158 
L 268.3373 268.269208 
L 269.126295 269.673307 
L 269.194904 270.375357 
L 273.740204 271.077407 
L 278.062528 273.183557 
L 279.246022 273.885607 
L 280.789709 275.991756 
L 280.944077 276.693806 
L 282.28194 277.395856 
L 284.048604 278.097906 
L 284.065756 278.799956 
L 284.906208 279.502006 
L 286.587111 280.204055 
L 287.599084 280.906105 
L 287.942126 281.608155 
L 289.571573 282.310205 
L 297.13564 283.012255 
L 297.838875 283.714305 
L 297.976092 284.416355 
L 298.250525 285.118404 
L 302.281263 285.820454 
L 302.435632 286.522504 
L 302.607153 287.224554 
L 302.727217 287.926604 
L 303.207476 288.628654 
L 306.329154 290.032753 
L 307.323974 290.734803 
L 307.546952 291.436853 
L 309.02203 292.138903 
L 309.330768 292.840953 
L 310.600022 294.245053 
L 314.562152 294.947102 
L 315.574124 295.649152 
L 316.877682 296.351202 
L 319.9136 297.053252 
L 320.908421 297.755302 
L 327.975077 298.457352 
L 328.215206 299.159402 
L 329.776045 299.861452 
L 331.388341 300.563501 
L 335.796425 301.265551 
L 336.722637 302.669651 
L 338.0605 303.371701 
L 361.953345 304.073751 
L 379.088272 304.775801 
L 397.406692 306.1799 
L 398.487273 306.88195 
L 398.487273 306.88195 
L 398.487273 306.88195 
L 397.406692 306.1799 
L 379.088272 304.775801 
L 361.953345 304.073751 
L 338.0605 303.371701 
L 336.722637 302.669651 
L 335.796425 301.265551 
L 331.388341 300.563501 
L 329.776045 299.861452 
L 328.215206 299.159402 
L 327.975077 298.457352 
L 320.908421 297.755302 
L 319.9136 297.053252 
L 316.877682 296.351202 
L 315.574124 295.649152 
L 314.562152 294.947102 
L 310.600022 294.245053 
L 309.330768 292.840953 
L 309.02203 292.138903 
L 307.546952 291.436853 
L 307.323974 290.734803 
L 306.329154 290.032753 
L 303.207476 288.628654 
L 302.727217 287.926604 
L 302.607153 287.224554 
L 302.435632 286.522504 
L 302.281263 285.820454 
L 298.250525 285.118404 
L 297.976092 284.416355 
L 297.838875 283.714305 
L 297.13564 283.012255 
L 289.571573 282.310205 
L 287.942126 281.608155 
L 287.599084 280.906105 
L 286.587111 280.204055 
L 284.906208 279.502006 
L 284.065756 278.799956 
L 284.048604 278.097906 
L 282.28194 277.395856 
L 280.944077 276.693806 
L 280.789709 275.991756 
L 279.246022 273.885607 
L 278.062528 273.183557 
L 273.740204 271.077407 
L 269.194904 270.375357 
L 269.126295 269.673307 
L 268.3373 268.269208 
L 264.580994 267.567158 
L 264.289409 266.865108 
L 263.997824 266.163058 
L 263.466109 265.461008 
L 262.659962 264.758958 
L 261.064818 264.056909 
L 260.447343 263.354859 
L 259.967085 262.652809 
L 259.795564 261.950759 
L 258.080357 261.248709 
L 257.188448 260.546659 
L 257.154144 259.844609 
L 255.473241 259.14256 
L 253.037645 258.44051 
L 252.625996 257.03641 
L 251.288133 256.33436 
L 251.048004 255.63231 
L 250.241857 254.93026 
L 249.898815 254.228211 
L 249.555773 253.526161 
L 248.989755 252.824111 
L 246.622768 252.122061 
L 246.502703 251.420011 
L 245.748012 250.717961 
L 245.490731 250.015911 
L 244.667431 249.313861 
L 243.08944 247.207712 
L 243.037984 246.505662 
L 240.602388 245.803612 
L 239.401743 244.399512 
L 237.223429 243.697463 
L 236.554498 242.995413 
L 236.485889 241.591313 
L 232.386543 240.187213 
L 231.357418 239.485163 
L 231.134441 238.783114 
L 228.698846 236.676964 
L 227.82409 235.974914 
L 227.704025 235.272864 
L 227.035094 234.570814 
L 224.993997 233.868765 
L 224.736716 233.166715 
L 223.913416 232.464665 
L 223.193029 231.762615 
L 222.661314 231.060565 
L 221.940927 230.358515 
L 221.066171 228.954416 
L 220.260023 228.252366 
L 218.853553 226.848266 
L 218.33899 225.444166 
L 218.201774 224.040066 
L 216.589478 223.338017 
L 215.560353 222.635967 
L 215.028639 221.933917 
L 214.119579 220.529817 
L 212.901781 219.827767 
L 212.884629 219.125717 
L 211.32379 217.721618 
L 210.82638 217.019568 
L 210.41473 216.317518 
L 210.346122 215.615468 
L 209.797255 213.509319 
L 209.59143 212.807269 
L 209.419909 212.105219 
L 209.334149 211.403169 
L 208.322176 210.701119 
L 207.927678 209.999069 
L 207.533181 209.297019 
L 206.298231 208.59497 
L 205.835125 207.89292 
L 205.166194 205.78677 
L 204.462959 205.08472 
L 203.296617 204.38267 
L 202.902119 203.68062 
L 202.044515 202.978571 
L 200.449372 202.276521 
L 200.157787 201.574471 
L 199.986266 200.872421 
L 198.922837 200.170371 
L 196.813131 199.468321 
L 194.446145 198.766271 
L 194.223168 198.064222 
L 193.588541 197.362172 
L 192.010549 196.660122 
L 191.616052 195.958072 
L 191.27301 195.256022 
L 191.101489 194.553972 
L 190.604079 193.851922 
L 190.243885 193.149873 
L 189.04324 191.745773 
L 188.820263 191.043723 
L 188.614438 190.341673 
L 187.533857 189.639623 
L 186.933534 188.937573 
L 186.779165 188.235524 
L 186.298907 187.533474 
L 186.024474 186.831424 
L 184.000529 185.427324 
L 183.468814 184.725274 
L 183.228685 184.023224 
L 182.319625 183.321175 
L 181.787911 181.215025 
L 180.604417 180.512975 
L 179.47238 179.810925 
L 178.837753 178.406825 
L 177.997301 177.704776 
L 177.980149 176.300676 
L 177.551347 175.598626 
L 177.225458 174.896576 
L 177.156849 174.194526 
L 177.088241 173.492476 
L 175.750379 172.790427 
L 175.698923 172.088377 
L 175.441641 171.386327 
L 175.287273 170.684277 
L 174.052323 169.982227 
L 173.211871 169.280177 
L 172.783069 167.876078 
L 172.371419 167.174028 
L 172.114138 165.067878 
L 171.942617 164.365828 
L 170.467539 163.663778 
L 170.004432 162.961729 
L 168.66657 162.259679 
L 168.477897 161.557629 
L 167.997639 160.855579 
L 167.500229 160.153529 
L 167.414469 159.451479 
L 167.328708 158.04738 
L 165.922238 157.34533 
L 165.819325 156.64328 
L 165.544892 155.23918 
L 164.824505 154.53713 
L 163.984053 153.13303 
L 163.366578 151.728931 
L 161.274024 151.026881 
L 160.141987 150.324831 
L 159.678881 149.622781 
L 159.044254 148.920731 
L 158.941342 148.218681 
L 158.889885 147.516632 
L 156.214161 146.814582 
L 155.939728 146.112532 
L 153.092483 144.006382 
L 152.063358 143.304332 
L 150.931321 141.900233 
L 148.495726 141.198183 
L 147.689578 140.496133 
L 147.518057 139.794083 
L 147.449449 139.092033 
L 146.660453 138.389983 
L 146.488933 137.687934 
L 145.88861 136.985884 
L 145.648481 136.283834 
L 145.614177 135.581784 
L 144.533596 134.879734 
L 144.344923 133.475634 
L 144.139098 132.773584 
L 142.904148 132.773584 
L 142.715475 131.369485 
L 141.720655 130.667435 
L 140.77729 129.965385 
L 139.988295 129.263335 
L 139.799622 128.561285 
L 139.010626 127.859235 
L 138.444608 127.157186 
L 137.844285 126.455136 
L 137.22681 125.753086 
L 136.935225 125.051036 
L 136.780856 124.348986 
L 135.734579 122.242837 
L 135.631667 120.838737 
L 135.117104 120.136687 
L 134.122284 118.030537 
L 133.796394 117.328488 
L 132.715813 116.626438 
L 130.21161 115.924388 
L 130.074393 115.222338 
L 128.719379 114.520288 
L 128.56501 113.818238 
L 126.112263 113.116188 
L 125.820678 113.116188 
L 123.796732 112.414139 
L 122.801912 111.712089 
L 122.390262 111.010039 
L 121.241073 110.307989 
L 121.155312 109.605939 
L 119.714538 108.201839 
L 116.164057 107.499789 
L 116.146905 106.79774 
L 115.85532 106.09569 
L 115.169237 105.39364 
L 113.145292 104.69159 
L 110.846913 103.98954 
L 110.744001 102.58544 
L 109.097401 102.58544 
L 108.497078 101.883391 
L 108.394166 101.181341 
L 107.159216 99.777241 
L 106.850479 99.075191 
L 106.799023 98.373141 
L 106.627502 97.671091 
L 106.147244 96.969042 
L 106.010027 96.266992 
L 105.46116 95.564942 
L 103.625888 93.458792 
L 102.013593 92.054693 
L 101.704855 91.352643 
L 101.653399 90.650593 
L 101.241749 89.948543 
L 100.298385 89.246493 
L 100.246928 88.544443 
L 98.909066 87.842393 
L 98.737546 87.140343 
L 96.644992 86.438294 
L 96.524927 85.736244 
L 96.13043 84.332144 
L 94.929784 83.630094 
L 94.312309 82.928044 
L 91.499368 82.225994 
L 91.345 82.225994 
L 91.293543 81.523945 
L 91.122023 80.821895 
L 90.796133 80.119845 
L 89.767008 79.417795 
L 87.931736 79.417795 
L 87.022676 78.715745 
L 86.885459 78.013695 
L 86.23368 77.311645 
L 85.667662 77.311645 
L 85.341772 76.609596 
L 84.741449 75.907546 
L 83.626564 75.205496 
L 83.077698 74.503446 
L 82.648896 73.801396 
L 81.808444 73.099346 
L 81.534011 72.397296 
L 81.259577 71.695247 
L 81.139513 71.695247 
L 80.813623 70.993197 
L 80.196148 69.589097 
L 79.956019 68.887047 
L 79.904563 68.184997 
L 79.30424 68.184997 
L 78.789678 68.184997 
L 77.863466 68.184997 
L 77.331751 68.184997 
L 77.160231 67.482947 
L 75.925281 66.780898 
L 75.83952 66.780898 
L 74.776092 65.376798 
L 73.832727 64.674748 
z
" clip-path="url(#p33a790f1b3)" style="fill: #7cfc00"/>
   </g>
   <g id="PolyCollection_3">
    <path d="M 73.832727 54.144 
L 73.832727 64.674748 
L 74.776092 65.376798 
L 75.83952 66.780898 
L 75.925281 66.780898 
L 77.160231 67.482947 
L 77.331751 68.184997 
L 77.863466 68.184997 
L 78.789678 68.184997 
L 79.30424 68.184997 
L 79.904563 68.184997 
L 79.956019 68.887047 
L 80.196148 69.589097 
L 80.813623 70.993197 
L 81.139513 71.695247 
L 81.259577 71.695247 
L 81.534011 72.397296 
L 81.808444 73.099346 
L 82.648896 73.801396 
L 83.077698 74.503446 
L 83.626564 75.205496 
L 84.741449 75.907546 
L 85.341772 76.609596 
L 85.667662 77.311645 
L 86.23368 77.311645 
L 86.885459 78.013695 
L 87.022676 78.715745 
L 87.931736 79.417795 
L 89.767008 79.417795 
L 90.796133 80.119845 
L 91.122023 80.821895 
L 91.293543 81.523945 
L 91.345 82.225994 
L 91.499368 82.225994 
L 94.312309 82.928044 
L 94.929784 83.630094 
L 96.13043 84.332144 
L 96.524927 85.736244 
L 96.644992 86.438294 
L 98.737546 87.140343 
L 98.909066 87.842393 
L 100.246928 88.544443 
L 100.298385 89.246493 
L 101.241749 89.948543 
L 101.653399 90.650593 
L 101.704855 91.352643 
L 102.013593 92.054693 
L 103.625888 93.458792 
L 105.46116 95.564942 
L 106.010027 96.266992 
L 106.147244 96.969042 
L 106.627502 97.671091 
L 106.799023 98.373141 
L 106.850479 99.075191 
L 107.159216 99.777241 
L 108.394166 101.181341 
L 108.497078 101.883391 
L 109.097401 102.58544 
L 110.744001 102.58544 
L 110.846913 103.98954 
L 113.145292 104.69159 
L 115.169237 105.39364 
L 115.85532 106.09569 
L 116.146905 106.79774 
L 116.164057 107.499789 
L 119.714538 108.201839 
L 121.155312 109.605939 
L 121.241073 110.307989 
L 122.390262 111.010039 
L 122.801912 111.712089 
L 123.796732 112.414139 
L 125.820678 113.116188 
L 126.112263 113.116188 
L 128.56501 113.818238 
L 128.719379 114.520288 
L 130.074393 115.222338 
L 130.21161 115.924388 
L 132.715813 116.626438 
L 133.796394 117.328488 
L 134.122284 118.030537 
L 135.117104 120.136687 
L 135.631667 120.838737 
L 135.734579 122.242837 
L 136.780856 124.348986 
L 136.935225 125.051036 
L 137.22681 125.753086 
L 137.844285 126.455136 
L 138.444608 127.157186 
L 139.010626 127.859235 
L 139.799622 128.561285 
L 139.988295 129.263335 
L 140.77729 129.965385 
L 141.720655 130.667435 
L 142.715475 131.369485 
L 142.904148 132.773584 
L 144.139098 132.773584 
L 144.344923 133.475634 
L 144.533596 134.879734 
L 145.614177 135.581784 
L 145.648481 136.283834 
L 145.88861 136.985884 
L 146.488933 137.687934 
L 146.660453 138.389983 
L 147.449449 139.092033 
L 147.518057 139.794083 
L 147.689578 140.496133 
L 148.495726 141.198183 
L 150.931321 141.900233 
L 152.063358 143.304332 
L 153.092483 144.006382 
L 155.939728 146.112532 
L 156.214161 146.814582 
L 158.889885 147.516632 
L 158.941342 148.218681 
L 159.044254 148.920731 
L 159.678881 149.622781 
L 160.141987 150.324831 
L 161.274024 151.026881 
L 163.366578 151.728931 
L 163.984053 153.13303 
L 164.824505 154.53713 
L 165.544892 155.23918 
L 165.819325 156.64328 
L 165.922238 157.34533 
L 167.328708 158.04738 
L 167.414469 159.451479 
L 167.500229 160.153529 
L 167.997639 160.855579 
L 168.477897 161.557629 
L 168.66657 162.259679 
L 170.004432 162.961729 
L 170.467539 163.663778 
L 171.942617 164.365828 
L 172.114138 165.067878 
L 172.371419 167.174028 
L 172.783069 167.876078 
L 173.211871 169.280177 
L 174.052323 169.982227 
L 175.287273 170.684277 
L 175.441641 171.386327 
L 175.698923 172.088377 
L 175.750379 172.790427 
L 177.088241 173.492476 
L 177.156849 174.194526 
L 177.225458 174.896576 
L 177.551347 175.598626 
L 177.980149 176.300676 
L 177.997301 177.704776 
L 178.837753 178.406825 
L 179.47238 179.810925 
L 180.604417 180.512975 
L 181.787911 181.215025 
L 182.319625 183.321175 
L 183.228685 184.023224 
L 183.468814 184.725274 
L 184.000529 185.427324 
L 186.024474 186.831424 
L 186.298907 187.533474 
L 186.779165 188.235524 
L 186.933534 188.937573 
L 187.533857 189.639623 
L 188.614438 190.341673 
L 188.820263 191.043723 
L 189.04324 191.745773 
L 190.243885 193.149873 
L 190.604079 193.851922 
L 191.101489 194.553972 
L 191.27301 195.256022 
L 191.616052 195.958072 
L 192.010549 196.660122 
L 193.588541 197.362172 
L 194.223168 198.064222 
L 194.446145 198.766271 
L 196.813131 199.468321 
L 198.922837 200.170371 
L 199.986266 200.872421 
L 200.157787 201.574471 
L 200.449372 202.276521 
L 202.044515 202.978571 
L 202.902119 203.68062 
L 203.296617 204.38267 
L 204.462959 205.08472 
L 205.166194 205.78677 
L 205.835125 207.89292 
L 206.298231 208.59497 
L 207.533181 209.297019 
L 207.927678 209.999069 
L 208.322176 210.701119 
L 209.334149 211.403169 
L 209.419909 212.105219 
L 209.59143 212.807269 
L 209.797255 213.509319 
L 210.346122 215.615468 
L 210.41473 216.317518 
L 210.82638 217.019568 
L 211.32379 217.721618 
L 212.884629 219.125717 
L 212.901781 219.827767 
L 214.119579 220.529817 
L 215.028639 221.933917 
L 215.560353 222.635967 
L 216.589478 223.338017 
L 218.201774 224.040066 
L 218.33899 225.444166 
L 218.853553 226.848266 
L 220.260023 228.252366 
L 221.066171 228.954416 
L 221.940927 230.358515 
L 222.661314 231.060565 
L 223.193029 231.762615 
L 223.913416 232.464665 
L 224.736716 233.166715 
L 224.993997 233.868765 
L 227.035094 234.570814 
L 227.704025 235.272864 
L 227.82409 235.974914 
L 228.698846 236.676964 
L 231.134441 238.783114 
L 231.357418 239.485163 
L 232.386543 240.187213 
L 236.485889 241.591313 
L 236.554498 242.995413 
L 237.223429 243.697463 
L 239.401743 244.399512 
L 240.602388 245.803612 
L 243.037984 246.505662 
L 243.08944 247.207712 
L 244.667431 249.313861 
L 245.490731 250.015911 
L 245.748012 250.717961 
L 246.502703 251.420011 
L 246.622768 252.122061 
L 248.989755 252.824111 
L 249.555773 253.526161 
L 249.898815 254.228211 
L 250.241857 254.93026 
L 251.048004 255.63231 
L 251.288133 256.33436 
L 252.625996 257.03641 
L 253.037645 258.44051 
L 255.473241 259.14256 
L 257.154144 259.844609 
L 257.188448 260.546659 
L 258.080357 261.248709 
L 259.795564 261.950759 
L 259.967085 262.652809 
L 260.447343 263.354859 
L 261.064818 264.056909 
L 262.659962 264.758958 
L 263.466109 265.461008 
L 263.997824 266.163058 
L 264.289409 266.865108 
L 264.580994 267.567158 
L 268.3373 268.269208 
L 269.126295 269.673307 
L 269.194904 270.375357 
L 273.740204 271.077407 
L 278.062528 273.183557 
L 279.246022 273.885607 
L 280.789709 275.991756 
L 280.944077 276.693806 
L 282.28194 277.395856 
L 284.048604 278.097906 
L 284.065756 278.799956 
L 284.906208 279.502006 
L 286.587111 280.204055 
L 287.599084 280.906105 
L 287.942126 281.608155 
L 289.571573 282.310205 
L 297.13564 283.012255 
L 297.838875 283.714305 
L 297.976092 284.416355 
L 298.250525 285.118404 
L 302.281263 285.820454 
L 302.435632 286.522504 
L 302.607153 287.224554 
L 302.727217 287.926604 
L 303.207476 288.628654 
L 306.329154 290.032753 
L 307.323974 290.734803 
L 307.546952 291.436853 
L 309.02203 292.138903 
L 309.330768 292.840953 
L 310.600022 294.245053 
L 314.562152 294.947102 
L 315.574124 295.649152 
L 316.877682 296.351202 
L 319.9136 297.053252 
L 320.908421 297.755302 
L 327.975077 298.457352 
L 328.215206 299.159402 
L 329.776045 299.861452 
L 331.388341 300.563501 
L 335.796425 301.265551 
L 336.722637 302.669651 
L 338.0605 303.371701 
L 361.953345 304.073751 
L 379.088272 304.775801 
L 397.406692 306.1799 
L 398.487273 306.88195 
L 398.487273 306.88195 
L 398.487273 306.88195 
L 397.406692 306.1799 
L 379.088272 304.775801 
L 361.953345 304.073751 
L 338.0605 303.371701 
L 336.722637 302.669651 
L 335.796425 301.265551 
L 331.388341 300.563501 
L 329.776045 299.861452 
L 328.215206 299.159402 
L 327.975077 298.457352 
L 320.908421 297.755302 
L 319.9136 297.053252 
L 316.877682 296.351202 
L 315.574124 295.649152 
L 314.562152 294.947102 
L 310.600022 294.245053 
L 309.330768 292.840953 
L 309.02203 292.138903 
L 307.546952 291.436853 
L 307.323974 290.734803 
L 306.329154 290.032753 
L 303.207476 288.628654 
L 302.727217 287.926604 
L 302.607153 287.224554 
L 302.435632 286.522504 
L 302.281263 285.820454 
L 298.250525 285.118404 
L 297.976092 284.416355 
L 297.838875 283.714305 
L 297.13564 283.012255 
L 289.571573 282.310205 
L 287.942126 281.608155 
L 287.599084 280.906105 
L 286.587111 280.204055 
L 284.906208 279.502006 
L 284.065756 278.799956 
L 284.048604 278.097906 
L 282.28194 277.395856 
L 280.944077 276.693806 
L 280.789709 275.991756 
L 279.246022 273.885607 
L 278.062528 273.183557 
L 273.740204 271.077407 
L 269.194904 270.375357 
L 269.126295 269.673307 
L 268.3373 268.269208 
L 264.580994 267.567158 
L 264.289409 266.865108 
L 263.997824 266.163058 
L 263.466109 265.461008 
L 262.659962 264.758958 
L 261.064818 264.056909 
L 260.447343 263.354859 
L 259.967085 262.652809 
L 259.795564 261.950759 
L 258.080357 261.248709 
L 257.188448 260.546659 
L 257.154144 259.844609 
L 255.473241 259.14256 
L 253.037645 258.44051 
L 252.625996 257.03641 
L 251.288133 256.33436 
L 251.048004 255.63231 
L 250.241857 254.93026 
L 249.898815 254.228211 
L 249.555773 253.526161 
L 248.989755 252.824111 
L 246.622768 252.122061 
L 246.502703 251.420011 
L 245.748012 250.717961 
L 245.490731 250.015911 
L 244.667431 249.313861 
L 243.08944 247.207712 
L 243.037984 246.505662 
L 240.602388 245.803612 
L 239.401743 244.399512 
L 237.223429 243.697463 
L 236.554498 242.995413 
L 236.485889 241.591313 
L 232.386543 240.187213 
L 231.357418 239.485163 
L 231.134441 238.783114 
L 228.698846 236.676964 
L 227.82409 235.974914 
L 227.704025 235.272864 
L 227.035094 234.570814 
L 224.993997 233.868765 
L 224.736716 233.166715 
L 223.913416 232.464665 
L 223.193029 231.762615 
L 222.661314 231.060565 
L 221.940927 230.358515 
L 221.066171 228.954416 
L 220.260023 228.252366 
L 218.853553 226.848266 
L 218.33899 225.444166 
L 218.201774 224.040066 
L 216.589478 223.338017 
L 215.560353 222.635967 
L 215.028639 221.933917 
L 214.119579 220.529817 
L 212.901781 219.827767 
L 212.884629 219.125717 
L 211.32379 217.721618 
L 210.82638 217.019568 
L 210.41473 216.317518 
L 210.346122 215.615468 
L 209.797255 213.509319 
L 209.59143 212.807269 
L 209.419909 212.105219 
L 209.334149 211.403169 
L 208.322176 210.701119 
L 207.927678 209.999069 
L 207.533181 209.297019 
L 206.298231 208.59497 
L 205.835125 207.19087 
L 205.166194 205.08472 
L 204.462959 204.38267 
L 203.296617 203.68062 
L 202.902119 202.978571 
L 202.044515 202.276521 
L 200.449372 201.574471 
L 200.157787 200.872421 
L 199.986266 200.170371 
L 198.922837 199.468321 
L 196.813131 198.766271 
L 194.446145 198.064222 
L 194.223168 197.362172 
L 193.588541 196.660122 
L 192.010549 195.958072 
L 191.616052 195.256022 
L 191.27301 194.553972 
L 191.101489 193.851922 
L 190.604079 193.149873 
L 190.243885 192.447823 
L 189.04324 191.043723 
L 188.820263 190.341673 
L 188.614438 189.639623 
L 187.533857 188.937573 
L 186.933534 188.235524 
L 186.779165 187.533474 
L 186.298907 186.831424 
L 186.024474 186.129374 
L 184.000529 184.725274 
L 183.468814 184.023224 
L 183.228685 183.321175 
L 182.319625 182.619125 
L 181.787911 180.512975 
L 180.604417 179.810925 
L 179.47238 179.108875 
L 178.837753 177.704776 
L 177.997301 177.002726 
L 177.980149 175.598626 
L 177.551347 174.896576 
L 177.225458 174.194526 
L 177.156849 173.492476 
L 177.088241 172.790427 
L 175.750379 172.088377 
L 175.698923 171.386327 
L 175.441641 170.684277 
L 175.287273 169.982227 
L 174.052323 169.280177 
L 173.211871 168.578127 
L 172.783069 167.174028 
L 172.371419 166.471978 
L 172.114138 164.365828 
L 171.942617 163.663778 
L 170.467539 162.961729 
L 170.004432 162.259679 
L 168.66657 161.557629 
L 168.477897 160.855579 
L 167.997639 160.153529 
L 167.500229 159.451479 
L 167.414469 158.749429 
L 167.328708 157.34533 
L 165.922238 156.64328 
L 165.819325 155.94123 
L 165.544892 154.53713 
L 164.824505 153.83508 
L 163.984053 152.430981 
L 163.366578 151.026881 
L 161.274024 150.324831 
L 160.141987 149.622781 
L 159.678881 148.920731 
L 159.044254 148.218681 
L 158.941342 147.516632 
L 158.889885 146.814582 
L 156.214161 146.112532 
L 155.939728 145.410482 
L 153.092483 143.304332 
L 152.063358 142.602283 
L 150.931321 141.198183 
L 148.495726 140.496133 
L 147.689578 139.794083 
L 147.518057 139.092033 
L 147.449449 138.389983 
L 146.660453 137.687934 
L 146.488933 136.985884 
L 145.88861 136.283834 
L 145.648481 135.581784 
L 145.614177 134.879734 
L 144.533596 134.177684 
L 144.344923 132.773584 
L 144.139098 132.071535 
L 142.904148 131.369485 
L 142.715475 129.965385 
L 141.720655 129.263335 
L 140.77729 128.561285 
L 139.988295 127.859235 
L 139.799622 127.157186 
L 139.010626 126.455136 
L 138.444608 125.753086 
L 137.844285 125.051036 
L 137.22681 124.348986 
L 136.935225 123.646936 
L 136.780856 122.944886 
L 135.734579 120.838737 
L 135.631667 119.434637 
L 135.117104 118.732587 
L 134.122284 116.626438 
L 133.796394 115.924388 
L 132.715813 115.222338 
L 130.21161 114.520288 
L 130.074393 113.818238 
L 128.719379 113.116188 
L 128.56501 112.414139 
L 126.112263 111.712089 
L 125.820678 111.010039 
L 123.796732 110.307989 
L 122.801912 109.605939 
L 122.390262 108.903889 
L 121.241073 108.201839 
L 121.155312 107.499789 
L 119.714538 106.09569 
L 116.164057 105.39364 
L 116.146905 104.69159 
L 115.85532 103.98954 
L 115.169237 103.28749 
L 113.145292 102.58544 
L 110.846913 101.883391 
L 110.744001 100.479291 
L 109.097401 99.777241 
L 108.497078 99.075191 
L 108.394166 98.373141 
L 107.159216 96.969042 
L 106.850479 96.266992 
L 106.799023 95.564942 
L 106.627502 94.862892 
L 106.147244 94.160842 
L 106.010027 93.458792 
L 105.46116 92.756742 
L 103.625888 90.650593 
L 102.013593 89.246493 
L 101.704855 88.544443 
L 101.653399 87.842393 
L 101.241749 87.140343 
L 100.298385 86.438294 
L 100.246928 85.736244 
L 98.909066 85.034194 
L 98.737546 84.332144 
L 96.644992 83.630094 
L 96.524927 82.928044 
L 96.13043 81.523945 
L 94.929784 80.821895 
L 94.312309 80.119845 
L 91.499368 79.417795 
L 91.345 78.715745 
L 91.293543 78.013695 
L 91.122023 77.311645 
L 90.796133 76.609596 
L 89.767008 75.907546 
L 87.931736 75.205496 
L 87.022676 74.503446 
L 86.885459 73.801396 
L 86.23368 73.099346 
L 85.667662 72.397296 
L 85.341772 70.993197 
L 84.741449 70.291147 
L 83.626564 69.589097 
L 83.077698 68.887047 
L 82.648896 68.184997 
L 81.808444 67.482947 
L 81.534011 66.780898 
L 81.259577 66.078848 
L 81.139513 65.376798 
L 80.813623 64.674748 
L 80.196148 63.270648 
L 79.956019 62.568598 
L 79.904563 61.866548 
L 79.30424 61.164499 
L 78.789678 60.462449 
L 77.863466 59.760399 
L 77.331751 59.058349 
L 77.160231 58.356299 
L 75.925281 57.654249 
L 75.83952 56.952199 
L 74.776092 55.5481 
L 73.832727 54.144 
z
" clip-path="url(#p33a790f1b3)" style="fill: #ff0000"/>
   </g>
   <g id="matplotlib.axis_1">
    <g id="xtick_1">
     <g id="line2d_1">
      <defs>
       <path id="m57ab2ce4e5" d="M 0 0 
L 0 3.5 
" style="stroke: #000000; stroke-width: 0.8"/>
      </defs>
      <g>
       <use xlink:href="#m57ab2ce4e5" x="86.799699" y="307.584" style="stroke: #000000; stroke-width: 0.8"/>
      </g>
     </g>
     <g id="text_1">
      <!-- 25 -->
      <g transform="translate(80.437199 322.182437)scale(0.1 -0.1)">
       <defs>
        <path id="DejaVuSans-32" d="M 1228 531 
L 3431 531 
L 3431 0 
L 469 0 
L 469 531 
Q 828 903 1448 1529 
Q 2069 2156 2228 2338 
Q 2531 2678 2651 2914 
Q 2772 3150 2772 3378 
Q 2772 3750 2511 3984 
Q 2250 4219 1831 4219 
Q 1534 4219 1204 4116 
Q 875 4013 500 3803 
L 500 4441 
Q 881 4594 1212 4672 
Q 1544 4750 1819 4750 
Q 2544 4750 2975 4387 
Q 3406 4025 3406 3419 
Q 3406 3131 3298 2873 
Q 3191 2616 2906 2266 
Q 2828 2175 2409 1742 
Q 1991 1309 1228 531 
z
" transform="scale(0.015625)"/>
        <path id="DejaVuSans-35" d="M 691 4666 
L 3169 4666 
L 3169 4134 
L 1269 4134 
L 1269 2991 
Q 1406 3038 1543 3061 
Q 1681 3084 1819 3084 
Q 2600 3084 3056 2656 
Q 3513 2228 3513 1497 
Q 3513 744 3044 326 
Q 2575 -91 1722 -91 
Q 1428 -91 1123 -41 
Q 819 9 494 109 
L 494 744 
Q 775 591 1075 516 
Q 1375 441 1709 441 
Q 2250 441 2565 725 
Q 2881 1009 2881 1497 
Q 2881 1984 2565 2268 
Q 2250 2553 1709 2553 
Q 1456 2553 1204 2497 
Q 953 2441 691 2322 
L 691 4666 
z
" transform="scale(0.015625)"/>
       </defs>
       <use xlink:href="#DejaVuSans-32"/>
       <use xlink:href="#DejaVuSans-35" x="63.623047"/>
      </g>
     </g>
    </g>
    <g id="xtick_2">
     <g id="line2d_2">
      <g>
       <use xlink:href="#m57ab2ce4e5" x="129.679895" y="307.584" style="stroke: #000000; stroke-width: 0.8"/>
      </g>
     </g>
     <g id="text_2">
      <!-- 50 -->
      <g transform="translate(123.317395 322.182437)scale(0.1 -0.1)">
       <defs>
        <path id="DejaVuSans-30" d="M 2034 4250 
Q 1547 4250 1301 3770 
Q 1056 3291 1056 2328 
Q 1056 1369 1301 889 
Q 1547 409 2034 409 
Q 2525 409 2770 889 
Q 3016 1369 3016 2328 
Q 3016 3291 2770 3770 
Q 2525 4250 2034 4250 
z
M 2034 4750 
Q 2819 4750 3233 4129 
Q 3647 3509 3647 2328 
Q 3647 1150 3233 529 
Q 2819 -91 2034 -91 
Q 1250 -91 836 529 
Q 422 1150 422 2328 
Q 422 3509 836 4129 
Q 1250 4750 2034 4750 
z
" transform="scale(0.015625)"/>
       </defs>
       <use xlink:href="#DejaVuSans-35"/>
       <use xlink:href="#DejaVuSans-30" x="63.623047"/>
      </g>
     </g>
    </g>
    <g id="xtick_3">
     <g id="line2d_3">
      <g>
       <use xlink:href="#m57ab2ce4e5" x="172.560092" y="307.584" style="stroke: #000000; stroke-width: 0.8"/>
      </g>
     </g>
     <g id="text_3">
      <!-- 75 -->
      <g transform="translate(166.197592 322.182437)scale(0.1 -0.1)">
       <defs>
        <path id="DejaVuSans-37" d="M 525 4666 
L 3525 4666 
L 3525 4397 
L 1831 0 
L 1172 0 
L 2766 4134 
L 525 4134 
L 525 4666 
z
" transform="scale(0.015625)"/>
       </defs>
       <use xlink:href="#DejaVuSans-37"/>
       <use xlink:href="#DejaVuSans-35" x="63.623047"/>
      </g>
     </g>
    </g>
    <g id="xtick_4">
     <g id="line2d_4">
      <g>
       <use xlink:href="#m57ab2ce4e5" x="215.440289" y="307.584" style="stroke: #000000; stroke-width: 0.8"/>
      </g>
     </g>
     <g id="text_4">
      <!-- 100 -->
      <g transform="translate(205.896539 322.182437)scale(0.1 -0.1)">
       <defs>
        <path id="DejaVuSans-31" d="M 794 531 
L 1825 531 
L 1825 4091 
L 703 3866 
L 703 4441 
L 1819 4666 
L 2450 4666 
L 2450 531 
L 3481 531 
L 3481 0 
L 794 0 
L 794 531 
z
" transform="scale(0.015625)"/>
       </defs>
       <use xlink:href="#DejaVuSans-31"/>
       <use xlink:href="#DejaVuSans-30" x="63.623047"/>
       <use xlink:href="#DejaVuSans-30" x="127.246094"/>
      </g>
     </g>
    </g>
    <g id="xtick_5">
     <g id="line2d_5">
      <g>
       <use xlink:href="#m57ab2ce4e5" x="258.320486" y="307.584" style="stroke: #000000; stroke-width: 0.8"/>
      </g>
     </g>
     <g id="text_5">
      <!-- 125 -->
      <g transform="translate(248.776736 322.182437)scale(0.1 -0.1)">
       <use xlink:href="#DejaVuSans-31"/>
       <use xlink:href="#DejaVuSans-32" x="63.623047"/>
       <use xlink:href="#DejaVuSans-35" x="127.246094"/>
      </g>
     </g>
    </g>
    <g id="xtick_6">
     <g id="line2d_6">
      <g>
       <use xlink:href="#m57ab2ce4e5" x="301.200682" y="307.584" style="stroke: #000000; stroke-width: 0.8"/>
      </g>
     </g>
     <g id="text_6">
      <!-- 150 -->
      <g transform="translate(291.656932 322.182437)scale(0.1 -0.1)">
       <use xlink:href="#DejaVuSans-31"/>
       <use xlink:href="#DejaVuSans-35" x="63.623047"/>
       <use xlink:href="#DejaVuSans-30" x="127.246094"/>
      </g>
     </g>
    </g>
    <g id="xtick_7">
     <g id="line2d_7">
      <g>
       <use xlink:href="#m57ab2ce4e5" x="344.080879" y="307.584" style="stroke: #000000; stroke-width: 0.8"/>
      </g>
     </g>
     <g id="text_7">
      <!-- 175 -->
      <g transform="translate(334.537129 322.182437)scale(0.1 -0.1)">
       <use xlink:href="#DejaVuSans-31"/>
       <use xlink:href="#DejaVuSans-37" x="63.623047"/>
       <use xlink:href="#DejaVuSans-35" x="127.246094"/>
      </g>
     </g>
    </g>
    <g id="xtick_8">
     <g id="line2d_8">
      <g>
       <use xlink:href="#m57ab2ce4e5" x="386.961076" y="307.584" style="stroke: #000000; stroke-width: 0.8"/>
      </g>
     </g>
     <g id="text_8">
      <!-- 200 -->
      <g transform="translate(377.417326 322.182437)scale(0.1 -0.1)">
       <use xlink:href="#DejaVuSans-32"/>
       <use xlink:href="#DejaVuSans-30" x="63.623047"/>
       <use xlink:href="#DejaVuSans-30" x="127.246094"/>
      </g>
     </g>
    </g>
    <g id="text_9">
     <!-- Score -->
     <g transform="translate(222.157656 335.860562)scale(0.1 -0.1)">
      <defs>
       <path id="DejaVuSans-53" d="M 3425 4513 
L 3425 3897 
Q 3066 4069 2747 4153 
Q 2428 4238 2131 4238 
Q 1616 4238 1336 4038 
Q 1056 3838 1056 3469 
Q 1056 3159 1242 3001 
Q 1428 2844 1947 2747 
L 2328 2669 
Q 3034 2534 3370 2195 
Q 3706 1856 3706 1288 
Q 3706 609 3251 259 
Q 2797 -91 1919 -91 
Q 1588 -91 1214 -16 
Q 841 59 441 206 
L 441 856 
Q 825 641 1194 531 
Q 1563 422 1919 422 
Q 2459 422 2753 634 
Q 3047 847 3047 1241 
Q 3047 1584 2836 1778 
Q 2625 1972 2144 2069 
L 1759 2144 
Q 1053 2284 737 2584 
Q 422 2884 422 3419 
Q 422 4038 858 4394 
Q 1294 4750 2059 4750 
Q 2388 4750 2728 4690 
Q 3069 4631 3425 4513 
z
" transform="scale(0.015625)"/>
       <path id="DejaVuSans-63" d="M 3122 3366 
L 3122 2828 
Q 2878 2963 2633 3030 
Q 2388 3097 2138 3097 
Q 1578 3097 1268 2742 
Q 959 2388 959 1747 
Q 959 1106 1268 751 
Q 1578 397 2138 397 
Q 2388 397 2633 464 
Q 2878 531 3122 666 
L 3122 134 
Q 2881 22 2623 -34 
Q 2366 -91 2075 -91 
Q 1284 -91 818 406 
Q 353 903 353 1747 
Q 353 2603 823 3093 
Q 1294 3584 2113 3584 
Q 2378 3584 2631 3529 
Q 2884 3475 3122 3366 
z
" transform="scale(0.015625)"/>
       <path id="DejaVuSans-6f" d="M 1959 3097 
Q 1497 3097 1228 2736 
Q 959 2375 959 1747 
Q 959 1119 1226 758 
Q 1494 397 1959 397 
Q 2419 397 2687 759 
Q 2956 1122 2956 1747 
Q 2956 2369 2687 2733 
Q 2419 3097 1959 3097 
z
M 1959 3584 
Q 2709 3584 3137 3096 
Q 3566 2609 3566 1747 
Q 3566 888 3137 398 
Q 2709 -91 1959 -91 
Q 1206 -91 779 398 
Q 353 888 353 1747 
Q 353 2609 779 3096 
Q 1206 3584 1959 3584 
z
" transform="scale(0.015625)"/>
       <path id="DejaVuSans-72" d="M 2631 2963 
Q 2534 3019 2420 3045 
Q 2306 3072 2169 3072 
Q 1681 3072 1420 2755 
Q 1159 2438 1159 1844 
L 1159 0 
L 581 0 
L 581 3500 
L 1159 3500 
L 1159 2956 
Q 1341 3275 1631 3429 
Q 1922 3584 2338 3584 
Q 2397 3584 2469 3576 
Q 2541 3569 2628 3553 
L 2631 2963 
z
" transform="scale(0.015625)"/>
       <path id="DejaVuSans-65" d="M 3597 1894 
L 3597 1613 
L 953 1613 
Q 991 1019 1311 708 
Q 1631 397 2203 397 
Q 2534 397 2845 478 
Q 3156 559 3463 722 
L 3463 178 
Q 3153 47 2828 -22 
Q 2503 -91 2169 -91 
Q 1331 -91 842 396 
Q 353 884 353 1716 
Q 353 2575 817 3079 
Q 1281 3584 2069 3584 
Q 2775 3584 3186 3129 
Q 3597 2675 3597 1894 
z
M 3022 2063 
Q 3016 2534 2758 2815 
Q 2500 3097 2075 3097 
Q 1594 3097 1305 2825 
Q 1016 2553 972 2059 
L 3022 2063 
z
" transform="scale(0.015625)"/>
      </defs>
      <use xlink:href="#DejaVuSans-53"/>
      <use xlink:href="#DejaVuSans-63" x="63.476562"/>
      <use xlink:href="#DejaVuSans-6f" x="118.457031"/>
      <use xlink:href="#DejaVuSans-72" x="179.638672"/>
      <use xlink:href="#DejaVuSans-65" x="218.501953"/>
     </g>
    </g>
   </g>
   <g id="matplotlib.axis_2">
    <g id="ytick_1">
     <g id="line2d_9">
      <defs>
       <path id="ma2d580cad7" d="M 0 0 
L -3.5 0 
" style="stroke: #000000; stroke-width: 0.8"/>
      </defs>
      <g>
       <use xlink:href="#ma2d580cad7" x="57.6" y="307.584" style="stroke: #000000; stroke-width: 0.8"/>
      </g>
     </g>
     <g id="text_10">
      <!-- 0 -->
      <g transform="translate(44.2375 311.383219)scale(0.1 -0.1)">
       <use xlink:href="#DejaVuSans-30"/>
      </g>
     </g>
    </g>
    <g id="ytick_2">
     <g id="line2d_10">
      <g>
       <use xlink:href="#ma2d580cad7" x="57.6" y="272.481507" style="stroke: #000000; stroke-width: 0.8"/>
      </g>
     </g>
     <g id="text_11">
      <!-- 50 -->
      <g transform="translate(37.875 276.280726)scale(0.1 -0.1)">
       <use xlink:href="#DejaVuSans-35"/>
       <use xlink:href="#DejaVuSans-30" x="63.623047"/>
      </g>
     </g>
    </g>
    <g id="ytick_3">
     <g id="line2d_11">
      <g>
       <use xlink:href="#ma2d580cad7" x="57.6" y="237.379014" style="stroke: #000000; stroke-width: 0.8"/>
      </g>
     </g>
     <g id="text_12">
      <!-- 100 -->
      <g transform="translate(31.5125 241.178233)scale(0.1 -0.1)">
       <use xlink:href="#DejaVuSans-31"/>
       <use xlink:href="#DejaVuSans-30" x="63.623047"/>
       <use xlink:href="#DejaVuSans-30" x="127.246094"/>
      </g>
     </g>
    </g>
    <g id="ytick_4">
     <g id="line2d_12">
      <g>
       <use xlink:href="#ma2d580cad7" x="57.6" y="202.276521" style="stroke: #000000; stroke-width: 0.8"/>
      </g>
     </g>
     <g id="text_13">
      <!-- 150 -->
      <g transform="translate(31.5125 206.07574)scale(0.1 -0.1)">
       <use xlink:href="#DejaVuSans-31"/>
       <use xlink:href="#DejaVuSans-35" x="63.623047"/>
       <use xlink:href="#DejaVuSans-30" x="127.246094"/>
      </g>
     </g>
    </g>
    <g id="ytick_5">
     <g id="line2d_13">
      <g>
       <use xlink:href="#ma2d580cad7" x="57.6" y="167.174028" style="stroke: #000000; stroke-width: 0.8"/>
      </g>
     </g>
     <g id="text_14">
      <!-- 200 -->
      <g transform="translate(31.5125 170.973246)scale(0.1 -0.1)">
       <use xlink:href="#DejaVuSans-32"/>
       <use xlink:href="#DejaVuSans-30" x="63.623047"/>
       <use xlink:href="#DejaVuSans-30" x="127.246094"/>
      </g>
     </g>
    </g>
    <g id="ytick_6">
     <g id="line2d_14">
      <g>
       <use xlink:href="#ma2d580cad7" x="57.6" y="132.071535" style="stroke: #000000; stroke-width: 0.8"/>
      </g>
     </g>
     <g id="text_15">
      <!-- 250 -->
      <g transform="translate(31.5125 135.870753)scale(0.1 -0.1)">
       <use xlink:href="#DejaVuSans-32"/>
       <use xlink:href="#DejaVuSans-35" x="63.623047"/>
       <use xlink:href="#DejaVuSans-30" x="127.246094"/>
      </g>
     </g>
    </g>
    <g id="ytick_7">
     <g id="line2d_15">
      <g>
       <use xlink:href="#ma2d580cad7" x="57.6" y="96.969042" style="stroke: #000000; stroke-width: 0.8"/>
      </g>
     </g>
     <g id="text_16">
      <!-- 300 -->
      <g transform="translate(31.5125 100.76826)scale(0.1 -0.1)">
       <defs>
        <path id="DejaVuSans-33" d="M 2597 2516 
Q 3050 2419 3304 2112 
Q 3559 1806 3559 1356 
Q 3559 666 3084 287 
Q 2609 -91 1734 -91 
Q 1441 -91 1130 -33 
Q 819 25 488 141 
L 488 750 
Q 750 597 1062 519 
Q 1375 441 1716 441 
Q 2309 441 2620 675 
Q 2931 909 2931 1356 
Q 2931 1769 2642 2001 
Q 2353 2234 1838 2234 
L 1294 2234 
L 1294 2753 
L 1863 2753 
Q 2328 2753 2575 2939 
Q 2822 3125 2822 3475 
Q 2822 3834 2567 4026 
Q 2313 4219 1838 4219 
Q 1578 4219 1281 4162 
Q 984 4106 628 3988 
L 628 4550 
Q 988 4650 1302 4700 
Q 1616 4750 1894 4750 
Q 2613 4750 3031 4423 
Q 3450 4097 3450 3541 
Q 3450 3153 3228 2886 
Q 3006 2619 2597 2516 
z
" transform="scale(0.015625)"/>
       </defs>
       <use xlink:href="#DejaVuSans-33"/>
       <use xlink:href="#DejaVuSans-30" x="63.623047"/>
       <use xlink:href="#DejaVuSans-30" x="127.246094"/>
      </g>
     </g>
    </g>
    <g id="ytick_8">
     <g id="line2d_16">
      <g>
       <use xlink:href="#ma2d580cad7" x="57.6" y="61.866548" style="stroke: #000000; stroke-width: 0.8"/>
      </g>
     </g>
     <g id="text_17">
      <!-- 350 -->
      <g transform="translate(31.5125 65.665767)scale(0.1 -0.1)">
       <use xlink:href="#DejaVuSans-33"/>
       <use xlink:href="#DejaVuSans-35" x="63.623047"/>
       <use xlink:href="#DejaVuSans-30" x="127.246094"/>
      </g>
     </g>
    </g>
    <g id="text_18">
     <!-- Number of crosslinks -->
     <g transform="translate(25.432812 227.019406)rotate(-90)scale(0.1 -0.1)">
      <defs>
       <path id="DejaVuSans-4e" d="M 628 4666 
L 1478 4666 
L 3547 763 
L 3547 4666 
L 4159 4666 
L 4159 0 
L 3309 0 
L 1241 3903 
L 1241 0 
L 628 0 
L 628 4666 
z
" transform="scale(0.015625)"/>
       <path id="DejaVuSans-75" d="M 544 1381 
L 544 3500 
L 1119 3500 
L 1119 1403 
Q 1119 906 1312 657 
Q 1506 409 1894 409 
Q 2359 409 2629 706 
Q 2900 1003 2900 1516 
L 2900 3500 
L 3475 3500 
L 3475 0 
L 2900 0 
L 2900 538 
Q 2691 219 2414 64 
Q 2138 -91 1772 -91 
Q 1169 -91 856 284 
Q 544 659 544 1381 
z
M 1991 3584 
L 1991 3584 
z
" transform="scale(0.015625)"/>
       <path id="DejaVuSans-6d" d="M 3328 2828 
Q 3544 3216 3844 3400 
Q 4144 3584 4550 3584 
Q 5097 3584 5394 3201 
Q 5691 2819 5691 2113 
L 5691 0 
L 5113 0 
L 5113 2094 
Q 5113 2597 4934 2840 
Q 4756 3084 4391 3084 
Q 3944 3084 3684 2787 
Q 3425 2491 3425 1978 
L 3425 0 
L 2847 0 
L 2847 2094 
Q 2847 2600 2669 2842 
Q 2491 3084 2119 3084 
Q 1678 3084 1418 2786 
Q 1159 2488 1159 1978 
L 1159 0 
L 581 0 
L 581 3500 
L 1159 3500 
L 1159 2956 
Q 1356 3278 1631 3431 
Q 1906 3584 2284 3584 
Q 2666 3584 2933 3390 
Q 3200 3197 3328 2828 
z
" transform="scale(0.015625)"/>
       <path id="DejaVuSans-62" d="M 3116 1747 
Q 3116 2381 2855 2742 
Q 2594 3103 2138 3103 
Q 1681 3103 1420 2742 
Q 1159 2381 1159 1747 
Q 1159 1113 1420 752 
Q 1681 391 2138 391 
Q 2594 391 2855 752 
Q 3116 1113 3116 1747 
z
M 1159 2969 
Q 1341 3281 1617 3432 
Q 1894 3584 2278 3584 
Q 2916 3584 3314 3078 
Q 3713 2572 3713 1747 
Q 3713 922 3314 415 
Q 2916 -91 2278 -91 
Q 1894 -91 1617 61 
Q 1341 213 1159 525 
L 1159 0 
L 581 0 
L 581 4863 
L 1159 4863 
L 1159 2969 
z
" transform="scale(0.015625)"/>
       <path id="DejaVuSans-20" transform="scale(0.015625)"/>
       <path id="DejaVuSans-66" d="M 2375 4863 
L 2375 4384 
L 1825 4384 
Q 1516 4384 1395 4259 
Q 1275 4134 1275 3809 
L 1275 3500 
L 2222 3500 
L 2222 3053 
L 1275 3053 
L 1275 0 
L 697 0 
L 697 3053 
L 147 3053 
L 147 3500 
L 697 3500 
L 697 3744 
Q 697 4328 969 4595 
Q 1241 4863 1831 4863 
L 2375 4863 
z
" transform="scale(0.015625)"/>
       <path id="DejaVuSans-73" d="M 2834 3397 
L 2834 2853 
Q 2591 2978 2328 3040 
Q 2066 3103 1784 3103 
Q 1356 3103 1142 2972 
Q 928 2841 928 2578 
Q 928 2378 1081 2264 
Q 1234 2150 1697 2047 
L 1894 2003 
Q 2506 1872 2764 1633 
Q 3022 1394 3022 966 
Q 3022 478 2636 193 
Q 2250 -91 1575 -91 
Q 1294 -91 989 -36 
Q 684 19 347 128 
L 347 722 
Q 666 556 975 473 
Q 1284 391 1588 391 
Q 1994 391 2212 530 
Q 2431 669 2431 922 
Q 2431 1156 2273 1281 
Q 2116 1406 1581 1522 
L 1381 1569 
Q 847 1681 609 1914 
Q 372 2147 372 2553 
Q 372 3047 722 3315 
Q 1072 3584 1716 3584 
Q 2034 3584 2315 3537 
Q 2597 3491 2834 3397 
z
" transform="scale(0.015625)"/>
       <path id="DejaVuSans-6c" d="M 603 4863 
L 1178 4863 
L 1178 0 
L 603 0 
L 603 4863 
z
" transform="scale(0.015625)"/>
       <path id="DejaVuSans-69" d="M 603 3500 
L 1178 3500 
L 1178 0 
L 603 0 
L 603 3500 
z
M 603 4863 
L 1178 4863 
L 1178 4134 
L 603 4134 
L 603 4863 
z
" transform="scale(0.015625)"/>
       <path id="DejaVuSans-6e" d="M 3513 2113 
L 3513 0 
L 2938 0 
L 2938 2094 
Q 2938 2591 2744 2837 
Q 2550 3084 2163 3084 
Q 1697 3084 1428 2787 
Q 1159 2491 1159 1978 
L 1159 0 
L 581 0 
L 581 3500 
L 1159 3500 
L 1159 2956 
Q 1366 3272 1645 3428 
Q 1925 3584 2291 3584 
Q 2894 3584 3203 3211 
Q 3513 2838 3513 2113 
z
" transform="scale(0.015625)"/>
       <path id="DejaVuSans-6b" d="M 581 4863 
L 1159 4863 
L 1159 1991 
L 2875 3500 
L 3609 3500 
L 1753 1863 
L 3688 0 
L 2938 0 
L 1159 1709 
L 1159 0 
L 581 0 
L 581 4863 
z
" transform="scale(0.015625)"/>
      </defs>
      <use xlink:href="#DejaVuSans-4e"/>
      <use xlink:href="#DejaVuSans-75" x="74.804688"/>
      <use xlink:href="#DejaVuSans-6d" x="138.183594"/>
      <use xlink:href="#DejaVuSans-62" x="235.595703"/>
      <use xlink:href="#DejaVuSans-65" x="299.072266"/>
      <use xlink:href="#DejaVuSans-72" x="360.595703"/>
      <use xlink:href="#DejaVuSans-20" x="401.708984"/>
      <use xlink:href="#DejaVuSans-6f" x="433.496094"/>
      <use xlink:href="#DejaVuSans-66" x="494.677734"/>
      <use xlink:href="#DejaVuSans-20" x="529.882812"/>
      <use xlink:href="#DejaVuSans-63" x="561.669922"/>
      <use xlink:href="#DejaVuSans-72" x="616.650391"/>
      <use xlink:href="#DejaVuSans-6f" x="655.513672"/>
      <use xlink:href="#DejaVuSans-73" x="716.695312"/>
      <use xlink:href="#DejaVuSans-73" x="768.794922"/>
      <use xlink:href="#DejaVuSans-6c" x="820.894531"/>
      <use xlink:href="#DejaVuSans-69" x="848.677734"/>
      <use xlink:href="#DejaVuSans-6e" x="876.460938"/>
      <use xlink:href="#DejaVuSans-6b" x="939.839844"/>
      <use xlink:href="#DejaVuSans-73" x="997.75"/>
     </g>
    </g>
   </g>
   <g id="patch_3">
    <path d="M 57.6 307.584 
L 57.6 41.472 
" style="fill: none; stroke: #000000; stroke-width: 0.8; stroke-linejoin: miter; stroke-linecap: square"/>
   </g>
   <g id="patch_4">
    <path d="M 414.72 307.584 
L 414.72 41.472 
" style="fill: none; stroke: #000000; stroke-width: 0.8; stroke-linejoin: miter; stroke-linecap: square"/>
   </g>
   <g id="patch_5">
    <path d="M 57.6 307.584 
L 414.72 307.584 
" style="fill: none; stroke: #000000; stroke-width: 0.8; stroke-linejoin: miter; stroke-linecap: square"/>
   </g>
   <g id="patch_6">
    <path d="M 57.6 41.472 
L 414.72 41.472 
" style="fill: none; stroke: #000000; stroke-width: 0.8; stroke-linejoin: miter; stroke-linecap: square"/>
   </g>
   <g id="legend_1">
    <g id="patch_7">
     <path d="M 278.598125 93.506375 
L 407.72 93.506375 
Q 409.72 93.506375 409.72 91.506375 
L 409.72 48.472 
Q 409.72 46.472 407.72 46.472 
L 278.598125 46.472 
Q 276.598125 46.472 276.598125 48.472 
L 276.598125 91.506375 
Q 276.598125 93.506375 278.598125 93.506375 
z
" style="fill: #ffffff; opacity: 0.8; stroke: #cccccc; stroke-linejoin: miter"/>
    </g>
    <g id="patch_8">
     <path d="M 280.598125 58.070438 
L 300.598125 58.070438 
L 300.598125 51.070438 
L 280.598125 51.070438 
z
" style="fill: #008000"/>
    </g>
    <g id="text_19">
     <!-- correct -->
     <g transform="translate(308.598125 58.070438)scale(0.1 -0.1)">
      <defs>
       <path id="DejaVuSans-74" d="M 1172 4494 
L 1172 3500 
L 2356 3500 
L 2356 3053 
L 1172 3053 
L 1172 1153 
Q 1172 725 1289 603 
Q 1406 481 1766 481 
L 2356 481 
L 2356 0 
L 1766 0 
Q 1100 0 847 248 
Q 594 497 594 1153 
L 594 3053 
L 172 3053 
L 172 3500 
L 594 3500 
L 594 4494 
L 1172 4494 
z
" transform="scale(0.015625)"/>
      </defs>
      <use xlink:href="#DejaVuSans-63"/>
      <use xlink:href="#DejaVuSans-6f" x="54.980469"/>
      <use xlink:href="#DejaVuSans-72" x="116.162109"/>
      <use xlink:href="#DejaVuSans-72" x="155.525391"/>
      <use xlink:href="#DejaVuSans-65" x="194.388672"/>
      <use xlink:href="#DejaVuSans-63" x="255.912109"/>
      <use xlink:href="#DejaVuSans-74" x="310.892578"/>
     </g>
    </g>
    <g id="patch_9">
     <path d="M 280.598125 72.748563 
L 300.598125 72.748563 
L 300.598125 65.748563 
L 280.598125 65.748563 
z
" style="fill: #7cfc00"/>
    </g>
    <g id="text_20">
     <!-- correct homeotypic -->
     <g transform="translate(308.598125 72.748563)scale(0.1 -0.1)">
      <defs>
       <path id="DejaVuSans-68" d="M 3513 2113 
L 3513 0 
L 2938 0 
L 2938 2094 
Q 2938 2591 2744 2837 
Q 2550 3084 2163 3084 
Q 1697 3084 1428 2787 
Q 1159 2491 1159 1978 
L 1159 0 
L 581 0 
L 581 4863 
L 1159 4863 
L 1159 2956 
Q 1366 3272 1645 3428 
Q 1925 3584 2291 3584 
Q 2894 3584 3203 3211 
Q 3513 2838 3513 2113 
z
" transform="scale(0.015625)"/>
       <path id="DejaVuSans-79" d="M 2059 -325 
Q 1816 -950 1584 -1140 
Q 1353 -1331 966 -1331 
L 506 -1331 
L 506 -850 
L 844 -850 
Q 1081 -850 1212 -737 
Q 1344 -625 1503 -206 
L 1606 56 
L 191 3500 
L 800 3500 
L 1894 763 
L 2988 3500 
L 3597 3500 
L 2059 -325 
z
" transform="scale(0.015625)"/>
       <path id="DejaVuSans-70" d="M 1159 525 
L 1159 -1331 
L 581 -1331 
L 581 3500 
L 1159 3500 
L 1159 2969 
Q 1341 3281 1617 3432 
Q 1894 3584 2278 3584 
Q 2916 3584 3314 3078 
Q 3713 2572 3713 1747 
Q 3713 922 3314 415 
Q 2916 -91 2278 -91 
Q 1894 -91 1617 61 
Q 1341 213 1159 525 
z
M 3116 1747 
Q 3116 2381 2855 2742 
Q 2594 3103 2138 3103 
Q 1681 3103 1420 2742 
Q 1159 2381 1159 1747 
Q 1159 1113 1420 752 
Q 1681 391 2138 391 
Q 2594 391 2855 752 
Q 3116 1113 3116 1747 
z
" transform="scale(0.015625)"/>
      </defs>
      <use xlink:href="#DejaVuSans-63"/>
      <use xlink:href="#DejaVuSans-6f" x="54.980469"/>
      <use xlink:href="#DejaVuSans-72" x="116.162109"/>
      <use xlink:href="#DejaVuSans-72" x="155.525391"/>
      <use xlink:href="#DejaVuSans-65" x="194.388672"/>
      <use xlink:href="#DejaVuSans-63" x="255.912109"/>
      <use xlink:href="#DejaVuSans-74" x="310.892578"/>
      <use xlink:href="#DejaVuSans-20" x="350.101562"/>
      <use xlink:href="#DejaVuSans-68" x="381.888672"/>
      <use xlink:href="#DejaVuSans-6f" x="445.267578"/>
      <use xlink:href="#DejaVuSans-6d" x="506.449219"/>
      <use xlink:href="#DejaVuSans-65" x="603.861328"/>
      <use xlink:href="#DejaVuSans-6f" x="665.384766"/>
      <use xlink:href="#DejaVuSans-74" x="726.566406"/>
      <use xlink:href="#DejaVuSans-79" x="765.775391"/>
      <use xlink:href="#DejaVuSans-70" x="824.955078"/>
      <use xlink:href="#DejaVuSans-69" x="888.431641"/>
      <use xlink:href="#DejaVuSans-63" x="916.214844"/>
     </g>
    </g>
    <g id="patch_10">
     <path d="M 280.598125 87.426688 
L 300.598125 87.426688 
L 300.598125 80.426688 
L 280.598125 80.426688 
z
" style="fill: #ff0000"/>
    </g>
    <g id="text_21">
     <!-- false -->
     <g transform="translate(308.598125 87.426688)scale(0.1 -0.1)">
      <defs>
       <path id="DejaVuSans-61" d="M 2194 1759 
Q 1497 1759 1228 1600 
Q 959 1441 959 1056 
Q 959 750 1161 570 
Q 1363 391 1709 391 
Q 2188 391 2477 730 
Q 2766 1069 2766 1631 
L 2766 1759 
L 2194 1759 
z
M 3341 1997 
L 3341 0 
L 2766 0 
L 2766 531 
Q 2569 213 2275 61 
Q 1981 -91 1556 -91 
Q 1019 -91 701 211 
Q 384 513 384 1019 
Q 384 1609 779 1909 
Q 1175 2209 1959 2209 
L 2766 2209 
L 2766 2266 
Q 2766 2663 2505 2880 
Q 2244 3097 1772 3097 
Q 1472 3097 1187 3025 
Q 903 2953 641 2809 
L 641 3341 
Q 956 3463 1253 3523 
Q 1550 3584 1831 3584 
Q 2591 3584 2966 3190 
Q 3341 2797 3341 1997 
z
" transform="scale(0.015625)"/>
      </defs>
      <use xlink:href="#DejaVuSans-66"/>
      <use xlink:href="#DejaVuSans-61" x="35.205078"/>
      <use xlink:href="#DejaVuSans-6c" x="96.484375"/>
      <use xlink:href="#DejaVuSans-73" x="124.267578"/>
      <use xlink:href="#DejaVuSans-65" x="176.367188"/>
     </g>
    </g>
   </g>
  </g>
 </g>
 <defs>
  <clipPath id="p33a790f1b3">
   <rect x="57.6" y="41.472" width="357.12" height="266.112"/>
  </clipPath>
 </defs>
</svg>
