<?xml version="1.0" encoding="utf-8" standalone="no"?>
<!DOCTYPE svg PUBLIC "-//W3C//DTD SVG 1.1//EN"
  "http://www.w3.org/Graphics/SVG/1.1/DTD/svg11.dtd">
<svg xmlns:xlink="http://www.w3.org/1999/xlink" width="460.8pt" height="345.6pt" viewBox="0 0 460.8 345.6" xmlns="http://www.w3.org/2000/svg" version="1.1">
 <metadata>
  <rdf:RDF xmlns:dc="http://purl.org/dc/elements/1.1/" xmlns:cc="http://creativecommons.org/ns#" xmlns:rdf="http://www.w3.org/1999/02/22-rdf-syntax-ns#">
   <cc:Work>
    <dc:type rdf:resource="http://purl.org/dc/dcmitype/StillImage"/>
    <dc:date>2022-07-28T11:26:21.970174</dc:date>
    <dc:format>image/svg+xml</dc:format>
    <dc:creator>
     <cc:Agent>
      <dc:title>Matplotlib v3.5.1, https://matplotlib.org/</dc:title>
     </cc:Agent>
    </dc:creator>
   </cc:Work>
  </rdf:RDF>
 </metadata>
 <defs>
  <style type="text/css">*{stroke-linejoin: round; stroke-linecap: butt}</style>
 </defs>
 <g id="figure_1">
  <g id="patch_1">
   <path d="M 0 345.6 
L 460.8 345.6 
L 460.8 0 
L 0 0 
z
" style="fill: #ffffff"/>
  </g>
  <g id="axes_1">
   <g id="patch_2">
    <path d="M 57.6 307.584 
L 414.72 307.584 
L 414.72 41.472 
L 57.6 41.472 
z
" style="fill: #ffffff"/>
   </g>
   <g id="PolyCollection_1">
    <path d="M 73.832727 99.828464 
L 73.832727 307.584 
L 74.153215 307.584 
L 74.297435 307.584 
L 74.361533 307.584 
L 74.585875 307.584 
L 74.762143 307.584 
L 74.922387 307.584 
L 75.210827 307.584 
L 75.387095 307.584 
L 75.403119 307.584 
L 75.563364 307.584 
L 75.739632 307.584 
L 75.851803 307.584 
L 76.188316 307.584 
L 76.300486 307.584 
L 76.492779 307.584 
L 76.60495 307.584 
L 76.636999 307.584 
L 76.74917 307.584 
L 77.00556 307.584 
L 77.310024 307.584 
L 77.454244 307.584 
L 77.774732 307.584 
L 77.790757 307.584 
L 77.918952 307.584 
L 77.951001 307.584 
L 78.335586 307.584 
L 78.495831 307.584 
L 78.800294 307.584 
L 79.056685 307.584 
L 79.745735 307.584 
L 79.905979 307.584 
L 79.938027 307.584 
L 79.954052 307.584 
L 80.498882 307.584 
L 80.787321 307.584 
L 80.899492 307.584 
L 81.3642 307.584 
L 81.828908 307.584 
L 81.989152 307.584 
L 82.16542 307.584 
L 82.758324 307.584 
L 82.85447 307.584 
L 83.623642 307.584 
L 83.671715 307.584 
L 83.687739 307.584 
L 84.008228 307.584 
L 84.248594 307.584 
L 84.649204 307.584 
L 84.729326 307.584 
L 85.210058 307.584 
L 85.514522 307.584 
L 85.642717 307.584 
L 85.754888 307.584 
L 85.802962 307.584 
L 86.299718 307.584 
L 86.732377 307.584 
L 86.828524 307.584 
L 87.309256 307.584 
L 87.998306 307.584 
L 88.030354 307.584 
L 88.142525 307.584 
L 88.270721 307.584 
L 88.350843 307.584 
L 88.751453 307.584 
L 89.296283 307.584 
L 89.520625 307.584 
L 89.64882 307.584 
L 90.722455 307.584 
L 91.219212 307.584 
L 91.28331 307.584 
L 92.180677 307.584 
L 93.094068 307.584 
L 93.398532 307.584 
L 93.446605 307.584 
L 93.991435 307.584 
L 94.376021 307.584 
L 95.049046 307.584 
L 95.177241 307.584 
L 96.058584 307.584 
L 97.052097 307.584 
L 97.132219 307.584 
L 98.285977 307.584 
L 98.446221 307.584 
L 98.942978 307.584 
L 99.808296 307.584 
L 100.289028 307.584 
L 100.849882 307.584 
L 100.897956 307.584 
L 101.122297 307.584 
L 101.699176 307.584 
L 102.00364 307.584 
L 102.115811 307.584 
L 102.372201 307.584 
L 102.628592 307.584 
L 103.413788 307.584 
L 103.814398 307.584 
L 104.327179 307.584 
L 105.368766 307.584 
L 105.92962 307.584 
L 106.234084 307.584 
L 106.76289 307.584 
L 107.371817 307.584 
L 107.500013 307.584 
L 108.349306 307.584 
L 110.063918 307.584 
L 111.025383 307.584 
L 111.329847 307.584 
L 111.490091 307.584 
L 111.538164 307.584 
L 111.682384 307.584 
L 114.310387 307.584 
L 114.887266 307.584 
L 116.008974 307.584 
L 116.377536 307.584 
L 116.489707 307.584 
L 118.444685 307.584 
L 118.604929 307.584 
L 119.854833 307.584 
L 119.902906 307.584 
L 120.784248 307.584 
L 121.168834 307.584 
L 121.216907 307.584 
L 121.505347 307.584 
L 123.011641 307.584 
L 124.726253 307.584 
L 125.239034 307.584 
L 125.36723 307.584 
L 125.815913 307.584 
L 125.976157 307.584 
L 126.02423 307.584 
L 126.31267 307.584 
L 127.466427 307.584 
L 127.562574 307.584 
L 128.123428 307.584 
L 129.661772 307.584 
L 129.757918 307.584 
L 131.905189 307.584 
L 133.796069 307.584 
L 134.437046 307.584 
L 134.709461 307.584 
L 134.725485 307.584 
L 138.042538 307.584 
L 139.388588 307.584 
L 139.46871 307.584 
L 140.542346 307.584 
L 140.926932 307.584 
L 141.856347 307.584 
L 143.747228 307.584 
L 144.019643 307.584 
L 146.311133 307.584 
L 146.455353 307.584 
L 147.721282 307.584 
L 147.849477 307.584 
L 150.189041 307.584 
L 151.198578 307.584 
L 151.503042 307.584 
L 152.432458 307.584 
L 152.91319 307.584 
L 153.009337 307.584 
L 153.986826 307.584 
L 154.131045 307.584 
L 154.40346 307.584 
L 154.980339 307.584 
L 155.541194 307.584 
L 156.069999 307.584 
L 156.807122 307.584 
L 156.98339 307.584 
L 157.720513 307.584 
L 158.601856 307.584 
L 159.531272 307.584 
L 159.70754 307.584 
L 160.861298 307.584 
L 161.053591 307.584 
L 161.229859 307.584 
L 162.239397 307.584 
L 162.271446 307.584 
L 162.495787 307.584 
L 163.056642 307.584 
L 163.216886 307.584 
L 163.954009 307.584 
L 164.018106 307.584 
L 164.178351 307.584 
L 164.931498 307.584 
L 167.206964 307.584 
L 168.264575 307.584 
L 169.22604 307.584 
L 171.886092 307.584 
L 172.142482 307.584 
L 174.64229 307.584 
L 174.690363 307.584 
L 174.78651 307.584 
L 175.379413 307.584 
L 175.812072 307.584 
L 176.869683 307.584 
L 178.824661 307.584 
L 179.40154 307.584 
L 180.186736 307.584 
L 180.859761 307.584 
L 181.116152 307.584 
L 181.212298 307.584 
L 182.5263 307.584 
L 182.606422 307.584 
L 182.686544 307.584 
L 183.151252 307.584 
L 183.599935 307.584 
L 183.776204 307.584 
L 185.026108 307.584 
L 185.458767 307.584 
L 186.836866 307.584 
L 186.99711 307.584 
L 187.237476 307.584 
L 187.622062 307.584 
L 188.022673 307.584 
L 188.807869 307.584 
L 189.961626 307.584 
L 190.105846 307.584 
L 190.346212 307.584 
L 190.394285 307.584 
L 191.644189 307.584 
L 191.708287 307.584 
L 191.772384 307.584 
L 192.076848 307.584 
L 192.477458 307.584 
L 192.493483 307.584 
L 193.278679 307.584 
L 193.871582 307.584 
L 194.929193 307.584 
L 196.034878 307.584 
L 196.531634 307.584 
L 197.380928 307.584 
L 197.60527 307.584 
L 198.102026 307.584 
L 199.992907 307.584 
L 200.249297 307.584 
L 200.697981 307.584 
L 200.8422 307.584 
L 201.403055 307.584 
L 202.412593 307.584 
L 202.604886 307.584 
L 202.813203 307.584 
L 203.934912 307.584 
L 204.271424 307.584 
L 204.736132 307.584 
L 204.896376 307.584 
L 205.216864 307.584 
L 205.585426 307.584 
L 207.059672 307.584 
L 207.652575 307.584 
L 207.860892 307.584 
L 210.072261 307.584 
L 212.043263 307.584 
L 213.036776 307.584 
L 213.197021 307.584 
L 213.469436 307.584 
L 214.959706 307.584 
L 215.760926 307.584 
L 216.129488 307.584 
L 217.219147 307.584 
L 217.876148 307.584 
L 218.5011 307.584 
L 218.933759 307.584 
L 220.087517 307.584 
L 220.456078 307.584 
L 220.82464 307.584 
L 221.77008 307.584 
L 221.850202 307.584 
L 222.010446 307.584 
L 222.202739 307.584 
L 222.71552 307.584 
L 222.779618 307.584 
L 223.164204 307.584 
L 223.628911 307.584 
L 225.087133 307.584 
L 225.103157 307.584 
L 226.24089 307.584 
L 227.090184 307.584 
L 227.586941 307.584 
L 228.548405 307.584 
L 230.0547 307.584 
L 230.182895 307.584 
L 230.663627 307.584 
L 231.977629 307.584 
L 232.730776 307.584 
L 233.548021 307.584 
L 234.221046 307.584 
L 234.717803 307.584 
L 235.390828 307.584 
L 236.16 307.584 
L 236.400366 307.584 
L 238.307271 307.584 
L 238.932223 307.584 
L 239.044394 307.584 
L 239.861639 307.584 
L 242.137105 307.584 
L 242.345422 307.584 
L 243.306887 307.584 
L 247.136721 307.584 
L 247.200818 307.584 
L 247.82577 307.584 
L 249.860871 307.584 
L 250.982579 307.584 
L 253.258045 307.584 
L 253.306119 307.584 
L 254.780364 307.584 
L 255.549536 307.584 
L 255.789902 307.584 
L 256.494976 307.584 
L 256.607147 307.584 
L 258.818516 307.584 
L 259.347321 307.584 
L 259.667809 307.584 
L 259.988298 307.584 
L 260.741445 307.584 
L 260.965787 307.584 
L 262.215691 307.584 
L 262.600276 307.584 
L 264.875743 307.584 
L 266.446135 307.584 
L 266.478184 307.584 
L 267.311453 307.584 
L 268.913894 307.584 
L 269.074138 307.584 
L 269.522822 307.584 
L 270.0997 307.584 
L 271.58997 307.584 
L 272.343118 307.584 
L 272.839874 307.584 
L 273.112289 307.584 
L 273.384704 307.584 
L 276.89405 307.584 
L 277.631173 307.584 
L 277.695271 307.584 
L 281.941739 307.584 
L 285.979891 307.584 
L 287.085575 307.584 
L 288.527772 307.584 
L 288.671991 307.584 
L 289.921895 307.584 
L 291.57241 307.584 
L 291.588434 307.584 
L 292.37363 307.584 
L 293.944022 307.584 
L 294.889462 307.584 
L 295.209951 307.584 
L 296.73227 307.584 
L 303.799034 307.584 
L 304.456035 307.584 
L 304.58423 307.584 
L 304.840621 307.584 
L 308.606357 307.584 
L 308.750577 307.584 
L 308.910821 307.584 
L 309.022992 307.584 
L 309.471675 307.584 
L 312.388118 307.584 
L 313.317534 307.584 
L 313.525851 307.584 
L 314.90395 307.584 
L 315.19239 307.584 
L 316.378196 307.584 
L 320.079835 307.584 
L 321.025275 307.584 
L 322.24313 307.584 
L 325.079451 307.584 
L 326.008867 307.584 
L 332.610923 307.584 
L 332.835265 307.584 
L 334.293486 307.584 
L 335.799781 307.584 
L 339.918054 307.584 
L 340.783373 307.584 
L 342.033276 307.584 
L 364.35528 307.584 
L 380.363665 307.584 
L 397.477735 307.584 
L 398.487273 307.584 
L 398.487273 307.040137 
L 398.487273 307.040137 
L 397.477735 306.496275 
L 380.363665 305.408549 
L 364.35528 304.864687 
L 342.033276 304.320824 
L 340.783373 303.776961 
L 339.918054 302.689236 
L 335.799781 302.145373 
L 334.293486 301.601511 
L 332.835265 301.057648 
L 332.610923 300.513785 
L 326.008867 299.969923 
L 325.079451 299.42606 
L 322.24313 298.882197 
L 321.025275 298.338335 
L 320.079835 297.794472 
L 316.378196 297.250609 
L 315.19239 296.162884 
L 314.90395 295.619021 
L 313.525851 295.075159 
L 313.317534 294.531296 
L 312.388118 293.987433 
L 309.471675 292.899708 
L 309.022992 292.355845 
L 308.910821 291.811983 
L 308.750577 291.26812 
L 308.606357 290.724258 
L 304.840621 290.180395 
L 304.58423 289.636532 
L 304.456035 289.09267 
L 303.799034 288.548807 
L 296.73227 288.004944 
L 295.209951 287.461082 
L 294.889462 286.917219 
L 293.944022 286.373356 
L 292.37363 285.829494 
L 291.588434 285.285631 
L 291.57241 284.741768 
L 289.921895 284.197906 
L 288.671991 283.654043 
L 288.527772 283.11018 
L 287.085575 281.478592 
L 285.979891 280.93473 
L 281.941739 279.303142 
L 277.695271 278.759279 
L 277.631173 278.215416 
L 276.89405 277.127691 
L 273.384704 276.583828 
L 273.112289 276.039966 
L 272.839874 275.496103 
L 272.343118 274.95224 
L 271.58997 274.408378 
L 270.0997 273.864515 
L 269.522822 273.320652 
L 269.074138 272.77679 
L 268.913894 272.232927 
L 267.311453 271.689064 
L 266.478184 271.145202 
L 266.446135 270.601339 
L 264.875743 270.057476 
L 262.600276 269.513614 
L 262.215691 268.425888 
L 260.965787 267.882026 
L 260.741445 267.338163 
L 259.988298 266.7943 
L 259.667809 266.250438 
L 259.347321 265.706575 
L 258.818516 265.162712 
L 256.607147 264.61885 
L 256.494976 264.074987 
L 255.789902 263.531124 
L 255.549536 262.987262 
L 254.780364 262.443399 
L 253.306119 260.811811 
L 253.258045 260.267948 
L 250.982579 259.724086 
L 249.860871 258.636361 
L 247.82577 258.092498 
L 247.200818 257.548635 
L 247.136721 256.46091 
L 243.306887 255.373185 
L 242.345422 254.829322 
L 242.137105 254.285459 
L 239.861639 252.653871 
L 239.044394 252.110009 
L 238.932223 251.566146 
L 238.307271 251.022283 
L 236.400366 250.478421 
L 236.16 249.934558 
L 235.390828 249.390695 
L 234.717803 248.846833 
L 234.221046 248.30297 
L 233.548021 247.759107 
L 232.730776 246.671382 
L 231.977629 246.127519 
L 230.663627 245.039794 
L 230.182895 243.952069 
L 230.0547 242.864343 
L 228.548405 242.320481 
L 227.586941 241.776618 
L 227.090184 241.232755 
L 226.24089 240.14503 
L 225.103157 239.601167 
L 225.087133 239.057305 
L 223.628911 237.969579 
L 223.164204 237.425717 
L 222.779618 236.881854 
L 222.71552 236.337991 
L 222.202739 234.706403 
L 222.010446 234.162541 
L 221.850202 233.618678 
L 221.77008 233.074815 
L 220.82464 232.530953 
L 220.456078 231.98709 
L 220.087517 231.443227 
L 218.933759 230.899365 
L 218.5011 230.355502 
L 217.876148 228.723914 
L 217.219147 228.180052 
L 216.129488 227.636189 
L 215.760926 227.092326 
L 214.959706 226.548464 
L 213.469436 226.004601 
L 213.197021 225.460738 
L 213.036776 224.916876 
L 212.043263 224.373013 
L 210.072261 223.82915 
L 207.860892 223.285288 
L 207.652575 222.741425 
L 207.059672 222.197562 
L 205.585426 221.6537 
L 205.216864 221.109837 
L 204.896376 220.565974 
L 204.736132 220.022112 
L 204.271424 219.478249 
L 203.934912 218.934386 
L 202.813203 217.846661 
L 202.604886 217.302798 
L 202.412593 216.758936 
L 201.403055 216.215073 
L 200.8422 215.67121 
L 200.697981 215.127348 
L 200.249297 214.583485 
L 199.992907 214.039622 
L 198.102026 212.951897 
L 197.60527 212.408034 
L 197.380928 211.864172 
L 196.531634 211.320309 
L 196.034878 209.688721 
L 194.929193 209.144858 
L 193.871582 208.600996 
L 193.278679 207.51327 
L 192.493483 206.969408 
L 192.477458 205.881682 
L 192.076848 205.33782 
L 191.772384 204.793957 
L 191.708287 204.250094 
L 191.644189 203.706232 
L 190.394285 203.162369 
L 190.346212 202.618506 
L 190.105846 202.074644 
L 189.961626 201.530781 
L 188.807869 200.986918 
L 188.022673 200.443056 
L 187.622062 199.35533 
L 187.237476 198.811468 
L 186.99711 197.17988 
L 186.836866 196.636017 
L 185.458767 196.092155 
L 185.026108 195.548292 
L 183.776204 195.004429 
L 183.599935 194.460567 
L 183.151252 193.916704 
L 182.686544 193.372841 
L 182.606422 192.828979 
L 182.5263 191.741253 
L 181.212298 191.197391 
L 181.116152 190.653528 
L 180.859761 189.565803 
L 180.186736 189.02194 
L 179.40154 187.934215 
L 178.824661 186.846489 
L 176.869683 186.302627 
L 175.812072 185.758764 
L 175.379413 185.214901 
L 174.78651 184.671039 
L 174.690363 184.127176 
L 174.64229 183.583313 
L 172.142482 183.039451 
L 171.886092 182.495588 
L 169.22604 180.864 
L 168.264575 180.320137 
L 167.206964 179.232412 
L 164.931498 178.688549 
L 164.178351 178.144687 
L 164.018106 177.600824 
L 163.954009 177.056961 
L 163.216886 176.513099 
L 163.056642 175.969236 
L 162.495787 175.425373 
L 162.271446 174.881511 
L 162.239397 174.337648 
L 161.229859 173.793785 
L 161.053591 172.70606 
L 160.861298 172.162197 
L 159.70754 172.162197 
L 159.531272 171.074472 
L 158.601856 170.530609 
L 157.720513 169.986747 
L 156.98339 169.442884 
L 156.807122 168.899021 
L 156.069999 168.355159 
L 155.541194 167.811296 
L 154.980339 167.267433 
L 154.40346 166.723571 
L 154.131045 166.179708 
L 153.986826 165.635845 
L 153.009337 164.004258 
L 152.91319 162.916532 
L 152.432458 162.37267 
L 151.503042 160.741082 
L 151.198578 160.197219 
L 150.189041 159.653356 
L 147.849477 159.109494 
L 147.721282 158.565631 
L 146.455353 158.021768 
L 146.311133 157.477906 
L 144.019643 156.934043 
L 143.747228 156.934043 
L 141.856347 156.39018 
L 140.926932 155.846318 
L 140.542346 155.302455 
L 139.46871 154.758592 
L 139.388588 154.21473 
L 138.042538 153.127004 
L 134.725485 152.583142 
L 134.709461 152.039279 
L 134.437046 151.495416 
L 133.796069 150.951554 
L 131.905189 150.407691 
L 129.757918 149.863828 
L 129.661772 148.776103 
L 128.123428 148.776103 
L 127.562574 148.23224 
L 127.466427 147.688378 
L 126.31267 146.600652 
L 126.02423 146.05679 
L 125.976157 145.512927 
L 125.815913 144.969064 
L 125.36723 144.425202 
L 125.239034 143.881339 
L 124.726253 143.337476 
L 123.011641 141.705888 
L 121.505347 140.618163 
L 121.216907 140.0743 
L 121.168834 139.530438 
L 120.784248 138.986575 
L 119.902906 138.442712 
L 119.854833 137.89885 
L 118.604929 137.354987 
L 118.444685 136.811124 
L 116.489707 136.267262 
L 116.377536 135.723399 
L 116.008974 134.635674 
L 114.887266 134.091811 
L 114.310387 133.547948 
L 111.682384 133.004086 
L 111.538164 133.004086 
L 111.490091 132.460223 
L 111.329847 131.916361 
L 111.025383 131.372498 
L 110.063918 130.828635 
L 108.349306 130.828635 
L 107.500013 130.284773 
L 107.371817 129.74091 
L 106.76289 129.197047 
L 106.234084 129.197047 
L 105.92962 128.653185 
L 105.368766 128.109322 
L 104.327179 127.565459 
L 103.814398 127.021597 
L 103.413788 126.477734 
L 102.628592 125.933871 
L 102.372201 125.390009 
L 102.115811 124.846146 
L 102.00364 124.846146 
L 101.699176 124.302283 
L 101.122297 123.214558 
L 100.897956 122.670695 
L 100.849882 122.126833 
L 100.289028 122.126833 
L 99.808296 122.126833 
L 98.942978 122.126833 
L 98.446221 122.126833 
L 98.285977 121.58297 
L 97.132219 121.039107 
L 97.052097 121.039107 
L 96.058584 119.951382 
L 95.177241 119.407519 
L 95.049046 118.863657 
L 94.376021 118.319794 
L 93.991435 117.232069 
L 93.446605 117.232069 
L 93.398532 116.688206 
L 93.094068 116.688206 
L 92.180677 116.144343 
L 91.28331 115.600481 
L 91.219212 115.600481 
L 90.722455 115.600481 
L 89.64882 115.056618 
L 89.520625 113.42503 
L 89.296283 113.42503 
L 88.751453 113.42503 
L 88.350843 112.881167 
L 88.270721 112.881167 
L 88.142525 112.337305 
L 88.030354 112.337305 
L 87.998306 112.337305 
L 87.309256 112.337305 
L 86.828524 111.793442 
L 86.732377 111.793442 
L 86.299718 111.249579 
L 85.802962 110.705717 
L 85.754888 110.161854 
L 85.642717 110.161854 
L 85.514522 109.617991 
L 85.210058 109.074129 
L 84.729326 108.530266 
L 84.649204 108.530266 
L 84.248594 107.986403 
L 84.008228 107.986403 
L 83.687739 107.442541 
L 83.671715 106.898678 
L 83.623642 106.898678 
L 82.85447 106.354815 
L 82.758324 106.354815 
L 82.16542 105.810953 
L 81.989152 105.810953 
L 81.828908 105.26709 
L 81.3642 105.26709 
L 80.899492 105.26709 
L 80.787321 105.26709 
L 80.498882 105.26709 
L 79.954052 105.26709 
L 79.938027 104.723227 
L 79.905979 104.723227 
L 79.745735 104.723227 
L 79.056685 104.723227 
L 78.800294 104.179365 
L 78.495831 104.179365 
L 78.335586 104.179365 
L 77.951001 103.635502 
L 77.918952 103.635502 
L 77.790757 103.635502 
L 77.774732 103.635502 
L 77.454244 103.091639 
L 77.310024 102.547777 
L 77.00556 102.547777 
L 76.74917 102.547777 
L 76.636999 102.003914 
L 76.60495 102.003914 
L 76.492779 102.003914 
L 76.300486 102.003914 
L 76.188316 102.003914 
L 75.851803 102.003914 
L 75.739632 102.003914 
L 75.563364 102.003914 
L 75.403119 102.003914 
L 75.387095 101.460052 
L 75.210827 100.916189 
L 74.922387 100.916189 
L 74.762143 100.372326 
L 74.585875 99.828464 
L 74.361533 99.828464 
L 74.297435 99.828464 
L 74.153215 99.828464 
L 73.832727 99.828464 
z
" clip-path="url(#p7399bc635b)" style="fill: #008000"/>
   </g>
   <g id="PolyCollection_2">
    <path d="M 73.832727 99.828464 
L 73.832727 99.828464 
L 74.153215 99.828464 
L 74.297435 99.828464 
L 74.361533 99.828464 
L 74.585875 99.828464 
L 74.762143 100.372326 
L 74.922387 100.916189 
L 75.210827 100.916189 
L 75.387095 101.460052 
L 75.403119 102.003914 
L 75.563364 102.003914 
L 75.739632 102.003914 
L 75.851803 102.003914 
L 76.188316 102.003914 
L 76.300486 102.003914 
L 76.492779 102.003914 
L 76.60495 102.003914 
L 76.636999 102.003914 
L 76.74917 102.547777 
L 77.00556 102.547777 
L 77.310024 102.547777 
L 77.454244 103.091639 
L 77.774732 103.635502 
L 77.790757 103.635502 
L 77.918952 103.635502 
L 77.951001 103.635502 
L 78.335586 104.179365 
L 78.495831 104.179365 
L 78.800294 104.179365 
L 79.056685 104.723227 
L 79.745735 104.723227 
L 79.905979 104.723227 
L 79.938027 104.723227 
L 79.954052 105.26709 
L 80.498882 105.26709 
L 80.787321 105.26709 
L 80.899492 105.26709 
L 81.3642 105.26709 
L 81.828908 105.26709 
L 81.989152 105.810953 
L 82.16542 105.810953 
L 82.758324 106.354815 
L 82.85447 106.354815 
L 83.623642 106.898678 
L 83.671715 106.898678 
L 83.687739 107.442541 
L 84.008228 107.986403 
L 84.248594 107.986403 
L 84.649204 108.530266 
L 84.729326 108.530266 
L 85.210058 109.074129 
L 85.514522 109.617991 
L 85.642717 110.161854 
L 85.754888 110.161854 
L 85.802962 110.705717 
L 86.299718 111.249579 
L 86.732377 111.793442 
L 86.828524 111.793442 
L 87.309256 112.337305 
L 87.998306 112.337305 
L 88.030354 112.337305 
L 88.142525 112.337305 
L 88.270721 112.881167 
L 88.350843 112.881167 
L 88.751453 113.42503 
L 89.296283 113.42503 
L 89.520625 113.42503 
L 89.64882 115.056618 
L 90.722455 115.600481 
L 91.219212 115.600481 
L 91.28331 115.600481 
L 92.180677 116.144343 
L 93.094068 116.688206 
L 93.398532 116.688206 
L 93.446605 117.232069 
L 93.991435 117.232069 
L 94.376021 118.319794 
L 95.049046 118.863657 
L 95.177241 119.407519 
L 96.058584 119.951382 
L 97.052097 121.039107 
L 97.132219 121.039107 
L 98.285977 121.58297 
L 98.446221 122.126833 
L 98.942978 122.126833 
L 99.808296 122.126833 
L 100.289028 122.126833 
L 100.849882 122.126833 
L 100.897956 122.670695 
L 101.122297 123.214558 
L 101.699176 124.302283 
L 102.00364 124.846146 
L 102.115811 124.846146 
L 102.372201 125.390009 
L 102.628592 125.933871 
L 103.413788 126.477734 
L 103.814398 127.021597 
L 104.327179 127.565459 
L 105.368766 128.109322 
L 105.92962 128.653185 
L 106.234084 129.197047 
L 106.76289 129.197047 
L 107.371817 129.74091 
L 107.500013 130.284773 
L 108.349306 130.828635 
L 110.063918 130.828635 
L 111.025383 131.372498 
L 111.329847 131.916361 
L 111.490091 132.460223 
L 111.538164 133.004086 
L 111.682384 133.004086 
L 114.310387 133.547948 
L 114.887266 134.091811 
L 116.008974 134.635674 
L 116.377536 135.723399 
L 116.489707 136.267262 
L 118.444685 136.811124 
L 118.604929 137.354987 
L 119.854833 137.89885 
L 119.902906 138.442712 
L 120.784248 138.986575 
L 121.168834 139.530438 
L 121.216907 140.0743 
L 121.505347 140.618163 
L 123.011641 141.705888 
L 124.726253 143.337476 
L 125.239034 143.881339 
L 125.36723 144.425202 
L 125.815913 144.969064 
L 125.976157 145.512927 
L 126.02423 146.05679 
L 126.31267 146.600652 
L 127.466427 147.688378 
L 127.562574 148.23224 
L 128.123428 148.776103 
L 129.661772 148.776103 
L 129.757918 149.863828 
L 131.905189 150.407691 
L 133.796069 150.951554 
L 134.437046 151.495416 
L 134.709461 152.039279 
L 134.725485 152.583142 
L 138.042538 153.127004 
L 139.388588 154.21473 
L 139.46871 154.758592 
L 140.542346 155.302455 
L 140.926932 155.846318 
L 141.856347 156.39018 
L 143.747228 156.934043 
L 144.019643 156.934043 
L 146.311133 157.477906 
L 146.455353 158.021768 
L 147.721282 158.565631 
L 147.849477 159.109494 
L 150.189041 159.653356 
L 151.198578 160.197219 
L 151.503042 160.741082 
L 152.432458 162.37267 
L 152.91319 162.916532 
L 153.009337 164.004258 
L 153.986826 165.635845 
L 154.131045 166.179708 
L 154.40346 166.723571 
L 154.980339 167.267433 
L 155.541194 167.811296 
L 156.069999 168.355159 
L 156.807122 168.899021 
L 156.98339 169.442884 
L 157.720513 169.986747 
L 158.601856 170.530609 
L 159.531272 171.074472 
L 159.70754 172.162197 
L 160.861298 172.162197 
L 161.053591 172.70606 
L 161.229859 173.793785 
L 162.239397 174.337648 
L 162.271446 174.881511 
L 162.495787 175.425373 
L 163.056642 175.969236 
L 163.216886 176.513099 
L 163.954009 177.056961 
L 164.018106 177.600824 
L 164.178351 178.144687 
L 164.931498 178.688549 
L 167.206964 179.232412 
L 168.264575 180.320137 
L 169.22604 180.864 
L 171.886092 182.495588 
L 172.142482 183.039451 
L 174.64229 183.583313 
L 174.690363 184.127176 
L 174.78651 184.671039 
L 175.379413 185.214901 
L 175.812072 185.758764 
L 176.869683 186.302627 
L 178.824661 186.846489 
L 179.40154 187.934215 
L 180.186736 189.02194 
L 180.859761 189.565803 
L 181.116152 190.653528 
L 181.212298 191.197391 
L 182.5263 191.741253 
L 182.606422 192.828979 
L 182.686544 193.372841 
L 183.151252 193.916704 
L 183.599935 194.460567 
L 183.776204 195.004429 
L 185.026108 195.548292 
L 185.458767 196.092155 
L 186.836866 196.636017 
L 186.99711 197.17988 
L 187.237476 198.811468 
L 187.622062 199.35533 
L 188.022673 200.443056 
L 188.807869 200.986918 
L 189.961626 201.530781 
L 190.105846 202.074644 
L 190.346212 202.618506 
L 190.394285 203.162369 
L 191.644189 203.706232 
L 191.708287 204.250094 
L 191.772384 204.793957 
L 192.076848 205.33782 
L 192.477458 205.881682 
L 192.493483 206.969408 
L 193.278679 207.51327 
L 193.871582 208.600996 
L 194.929193 209.144858 
L 196.034878 209.688721 
L 196.531634 211.320309 
L 197.380928 211.864172 
L 197.60527 212.408034 
L 198.102026 212.951897 
L 199.992907 214.039622 
L 200.249297 214.583485 
L 200.697981 215.127348 
L 200.8422 215.67121 
L 201.403055 216.215073 
L 202.412593 216.758936 
L 202.604886 217.302798 
L 202.813203 217.846661 
L 203.934912 218.934386 
L 204.271424 219.478249 
L 204.736132 220.022112 
L 204.896376 220.565974 
L 205.216864 221.109837 
L 205.585426 221.6537 
L 207.059672 222.197562 
L 207.652575 222.741425 
L 207.860892 223.285288 
L 210.072261 223.82915 
L 212.043263 224.373013 
L 213.036776 224.916876 
L 213.197021 225.460738 
L 213.469436 226.004601 
L 214.959706 226.548464 
L 215.760926 227.092326 
L 216.129488 227.636189 
L 217.219147 228.180052 
L 217.876148 228.723914 
L 218.5011 230.355502 
L 218.933759 230.899365 
L 220.087517 231.443227 
L 220.456078 231.98709 
L 220.82464 232.530953 
L 221.77008 233.074815 
L 221.850202 233.618678 
L 222.010446 234.162541 
L 222.202739 234.706403 
L 222.71552 236.337991 
L 222.779618 236.881854 
L 223.164204 237.425717 
L 223.628911 237.969579 
L 225.087133 239.057305 
L 225.103157 239.601167 
L 226.24089 240.14503 
L 227.090184 241.232755 
L 227.586941 241.776618 
L 228.548405 242.320481 
L 230.0547 242.864343 
L 230.182895 243.952069 
L 230.663627 245.039794 
L 231.977629 246.127519 
L 232.730776 246.671382 
L 233.548021 247.759107 
L 234.221046 248.30297 
L 234.717803 248.846833 
L 235.390828 249.390695 
L 236.16 249.934558 
L 236.400366 250.478421 
L 238.307271 251.022283 
L 238.932223 251.566146 
L 239.044394 252.110009 
L 239.861639 252.653871 
L 242.137105 254.285459 
L 242.345422 254.829322 
L 243.306887 255.373185 
L 247.136721 256.46091 
L 247.200818 257.548635 
L 247.82577 258.092498 
L 249.860871 258.636361 
L 250.982579 259.724086 
L 253.258045 260.267948 
L 253.306119 260.811811 
L 254.780364 262.443399 
L 255.549536 262.987262 
L 255.789902 263.531124 
L 256.494976 264.074987 
L 256.607147 264.61885 
L 258.818516 265.162712 
L 259.347321 265.706575 
L 259.667809 266.250438 
L 259.988298 266.7943 
L 260.741445 267.338163 
L 260.965787 267.882026 
L 262.215691 268.425888 
L 262.600276 269.513614 
L 264.875743 270.057476 
L 266.446135 270.601339 
L 266.478184 271.145202 
L 267.311453 271.689064 
L 268.913894 272.232927 
L 269.074138 272.77679 
L 269.522822 273.320652 
L 270.0997 273.864515 
L 271.58997 274.408378 
L 272.343118 274.95224 
L 272.839874 275.496103 
L 273.112289 276.039966 
L 273.384704 276.583828 
L 276.89405 277.127691 
L 277.631173 278.215416 
L 277.695271 278.759279 
L 281.941739 279.303142 
L 285.979891 280.93473 
L 287.085575 281.478592 
L 288.527772 283.11018 
L 288.671991 283.654043 
L 289.921895 284.197906 
L 291.57241 284.741768 
L 291.588434 285.285631 
L 292.37363 285.829494 
L 293.944022 286.373356 
L 294.889462 286.917219 
L 295.209951 287.461082 
L 296.73227 288.004944 
L 303.799034 288.548807 
L 304.456035 289.09267 
L 304.58423 289.636532 
L 304.840621 290.180395 
L 308.606357 290.724258 
L 308.750577 291.26812 
L 308.910821 291.811983 
L 309.022992 292.355845 
L 309.471675 292.899708 
L 312.388118 293.987433 
L 313.317534 294.531296 
L 313.525851 295.075159 
L 314.90395 295.619021 
L 315.19239 296.162884 
L 316.378196 297.250609 
L 320.079835 297.794472 
L 321.025275 298.338335 
L 322.24313 298.882197 
L 325.079451 299.42606 
L 326.008867 299.969923 
L 332.610923 300.513785 
L 332.835265 301.057648 
L 334.293486 301.601511 
L 335.799781 302.145373 
L 339.918054 302.689236 
L 340.783373 303.776961 
L 342.033276 304.320824 
L 364.35528 304.864687 
L 380.363665 305.408549 
L 397.477735 306.496275 
L 398.487273 307.040137 
L 398.487273 307.040137 
L 398.487273 307.040137 
L 397.477735 306.496275 
L 380.363665 305.408549 
L 364.35528 304.864687 
L 342.033276 304.320824 
L 340.783373 303.776961 
L 339.918054 302.689236 
L 335.799781 302.145373 
L 334.293486 301.601511 
L 332.835265 301.057648 
L 332.610923 300.513785 
L 326.008867 299.969923 
L 325.079451 299.42606 
L 322.24313 298.882197 
L 321.025275 298.338335 
L 320.079835 297.794472 
L 316.378196 297.250609 
L 315.19239 296.162884 
L 314.90395 295.619021 
L 313.525851 295.075159 
L 313.317534 294.531296 
L 312.388118 293.987433 
L 309.471675 292.899708 
L 309.022992 292.355845 
L 308.910821 291.811983 
L 308.750577 291.26812 
L 308.606357 290.724258 
L 304.840621 290.180395 
L 304.58423 289.636532 
L 304.456035 289.09267 
L 303.799034 288.548807 
L 296.73227 288.004944 
L 295.209951 287.461082 
L 294.889462 286.917219 
L 293.944022 286.373356 
L 292.37363 285.829494 
L 291.588434 285.285631 
L 291.57241 284.741768 
L 289.921895 284.197906 
L 288.671991 283.654043 
L 288.527772 283.11018 
L 287.085575 281.478592 
L 285.979891 280.93473 
L 281.941739 279.303142 
L 277.695271 278.759279 
L 277.631173 278.215416 
L 276.89405 277.127691 
L 273.384704 276.583828 
L 273.112289 276.039966 
L 272.839874 275.496103 
L 272.343118 274.95224 
L 271.58997 274.408378 
L 270.0997 273.864515 
L 269.522822 273.320652 
L 269.074138 272.77679 
L 268.913894 272.232927 
L 267.311453 271.689064 
L 266.478184 271.145202 
L 266.446135 270.601339 
L 264.875743 270.057476 
L 262.600276 269.513614 
L 262.215691 268.425888 
L 260.965787 267.882026 
L 260.741445 267.338163 
L 259.988298 266.7943 
L 259.667809 266.250438 
L 259.347321 265.706575 
L 258.818516 265.162712 
L 256.607147 264.61885 
L 256.494976 264.074987 
L 255.789902 263.531124 
L 255.549536 262.987262 
L 254.780364 262.443399 
L 253.306119 260.811811 
L 253.258045 260.267948 
L 250.982579 259.724086 
L 249.860871 258.636361 
L 247.82577 258.092498 
L 247.200818 257.548635 
L 247.136721 256.46091 
L 243.306887 255.373185 
L 242.345422 254.829322 
L 242.137105 254.285459 
L 239.861639 252.653871 
L 239.044394 252.110009 
L 238.932223 251.566146 
L 238.307271 251.022283 
L 236.400366 250.478421 
L 236.16 249.934558 
L 235.390828 249.390695 
L 234.717803 248.846833 
L 234.221046 248.30297 
L 233.548021 247.759107 
L 232.730776 246.671382 
L 231.977629 246.127519 
L 230.663627 245.039794 
L 230.182895 243.952069 
L 230.0547 242.864343 
L 228.548405 242.320481 
L 227.586941 241.776618 
L 227.090184 241.232755 
L 226.24089 240.14503 
L 225.103157 239.601167 
L 225.087133 239.057305 
L 223.628911 237.969579 
L 223.164204 237.425717 
L 222.779618 236.881854 
L 222.71552 236.337991 
L 222.202739 234.706403 
L 222.010446 234.162541 
L 221.850202 233.618678 
L 221.77008 233.074815 
L 220.82464 232.530953 
L 220.456078 231.98709 
L 220.087517 231.443227 
L 218.933759 230.899365 
L 218.5011 230.355502 
L 217.876148 228.723914 
L 217.219147 228.180052 
L 216.129488 227.636189 
L 215.760926 227.092326 
L 214.959706 226.548464 
L 213.469436 226.004601 
L 213.197021 225.460738 
L 213.036776 224.916876 
L 212.043263 224.373013 
L 210.072261 223.82915 
L 207.860892 223.285288 
L 207.652575 222.741425 
L 207.059672 222.197562 
L 205.585426 221.6537 
L 205.216864 221.109837 
L 204.896376 220.565974 
L 204.736132 220.022112 
L 204.271424 219.478249 
L 203.934912 218.934386 
L 202.813203 217.846661 
L 202.604886 217.302798 
L 202.412593 216.758936 
L 201.403055 216.215073 
L 200.8422 215.67121 
L 200.697981 215.127348 
L 200.249297 214.583485 
L 199.992907 214.039622 
L 198.102026 212.951897 
L 197.60527 212.408034 
L 197.380928 211.864172 
L 196.531634 211.320309 
L 196.034878 209.688721 
L 194.929193 209.144858 
L 193.871582 208.600996 
L 193.278679 207.51327 
L 192.493483 206.969408 
L 192.477458 205.881682 
L 192.076848 205.33782 
L 191.772384 204.793957 
L 191.708287 204.250094 
L 191.644189 203.706232 
L 190.394285 203.162369 
L 190.346212 202.618506 
L 190.105846 202.074644 
L 189.961626 201.530781 
L 188.807869 200.986918 
L 188.022673 200.443056 
L 187.622062 199.35533 
L 187.237476 198.811468 
L 186.99711 197.17988 
L 186.836866 196.636017 
L 185.458767 196.092155 
L 185.026108 195.548292 
L 183.776204 195.004429 
L 183.599935 194.460567 
L 183.151252 193.916704 
L 182.686544 193.372841 
L 182.606422 192.828979 
L 182.5263 191.741253 
L 181.212298 191.197391 
L 181.116152 190.653528 
L 180.859761 189.565803 
L 180.186736 189.02194 
L 179.40154 187.934215 
L 178.824661 186.846489 
L 176.869683 186.302627 
L 175.812072 185.758764 
L 175.379413 185.214901 
L 174.78651 184.671039 
L 174.690363 184.127176 
L 174.64229 183.583313 
L 172.142482 183.039451 
L 171.886092 182.495588 
L 169.22604 180.864 
L 168.264575 180.320137 
L 167.206964 179.232412 
L 164.931498 178.688549 
L 164.178351 178.144687 
L 164.018106 177.600824 
L 163.954009 177.056961 
L 163.216886 176.513099 
L 163.056642 175.969236 
L 162.495787 175.425373 
L 162.271446 174.881511 
L 162.239397 174.337648 
L 161.229859 173.793785 
L 161.053591 172.70606 
L 160.861298 172.162197 
L 159.70754 172.162197 
L 159.531272 171.074472 
L 158.601856 170.530609 
L 157.720513 169.986747 
L 156.98339 169.442884 
L 156.807122 168.899021 
L 156.069999 168.355159 
L 155.541194 167.811296 
L 154.980339 167.267433 
L 154.40346 166.723571 
L 154.131045 166.179708 
L 153.986826 165.635845 
L 153.009337 164.004258 
L 152.91319 162.916532 
L 152.432458 162.37267 
L 151.503042 160.741082 
L 151.198578 160.197219 
L 150.189041 159.653356 
L 147.849477 159.109494 
L 147.721282 158.565631 
L 146.455353 158.021768 
L 146.311133 157.477906 
L 144.019643 156.934043 
L 143.747228 156.934043 
L 141.856347 156.39018 
L 140.926932 155.846318 
L 140.542346 155.302455 
L 139.46871 154.758592 
L 139.388588 154.21473 
L 138.042538 153.127004 
L 134.725485 152.583142 
L 134.709461 152.039279 
L 134.437046 151.495416 
L 133.796069 150.951554 
L 131.905189 150.407691 
L 129.757918 149.863828 
L 129.661772 148.776103 
L 128.123428 148.776103 
L 127.562574 148.23224 
L 127.466427 147.688378 
L 126.31267 146.600652 
L 126.02423 146.05679 
L 125.976157 145.512927 
L 125.815913 144.969064 
L 125.36723 144.425202 
L 125.239034 143.881339 
L 124.726253 143.337476 
L 123.011641 141.705888 
L 121.505347 140.618163 
L 121.216907 140.0743 
L 121.168834 139.530438 
L 120.784248 138.986575 
L 119.902906 138.442712 
L 119.854833 137.89885 
L 118.604929 137.354987 
L 118.444685 136.811124 
L 116.489707 136.267262 
L 116.377536 135.723399 
L 116.008974 134.635674 
L 114.887266 134.091811 
L 114.310387 133.547948 
L 111.682384 133.004086 
L 111.538164 133.004086 
L 111.490091 132.460223 
L 111.329847 131.916361 
L 111.025383 131.372498 
L 110.063918 130.828635 
L 108.349306 130.828635 
L 107.500013 130.284773 
L 107.371817 129.74091 
L 106.76289 129.197047 
L 106.234084 129.197047 
L 105.92962 128.653185 
L 105.368766 128.109322 
L 104.327179 127.565459 
L 103.814398 127.021597 
L 103.413788 126.477734 
L 102.628592 125.933871 
L 102.372201 125.390009 
L 102.115811 124.846146 
L 102.00364 124.846146 
L 101.699176 124.302283 
L 101.122297 123.214558 
L 100.897956 122.670695 
L 100.849882 122.126833 
L 100.289028 122.126833 
L 99.808296 122.126833 
L 98.942978 122.126833 
L 98.446221 122.126833 
L 98.285977 121.58297 
L 97.132219 121.039107 
L 97.052097 121.039107 
L 96.058584 119.951382 
L 95.177241 119.407519 
L 95.049046 118.863657 
L 94.376021 118.319794 
L 93.991435 117.232069 
L 93.446605 117.232069 
L 93.398532 116.688206 
L 93.094068 116.688206 
L 92.180677 116.144343 
L 91.28331 115.600481 
L 91.219212 115.600481 
L 90.722455 115.600481 
L 89.64882 115.056618 
L 89.520625 113.42503 
L 89.296283 113.42503 
L 88.751453 113.42503 
L 88.350843 112.881167 
L 88.270721 112.881167 
L 88.142525 112.337305 
L 88.030354 112.337305 
L 87.998306 112.337305 
L 87.309256 112.337305 
L 86.828524 111.793442 
L 86.732377 111.793442 
L 86.299718 111.249579 
L 85.802962 110.705717 
L 85.754888 110.161854 
L 85.642717 110.161854 
L 85.514522 109.617991 
L 85.210058 109.074129 
L 84.729326 108.530266 
L 84.649204 108.530266 
L 84.248594 107.986403 
L 84.008228 107.986403 
L 83.687739 107.442541 
L 83.671715 106.898678 
L 83.623642 106.898678 
L 82.85447 106.354815 
L 82.758324 106.354815 
L 82.16542 105.810953 
L 81.989152 105.810953 
L 81.828908 105.26709 
L 81.3642 105.26709 
L 80.899492 105.26709 
L 80.787321 105.26709 
L 80.498882 105.26709 
L 79.954052 105.26709 
L 79.938027 104.723227 
L 79.905979 104.723227 
L 79.745735 104.723227 
L 79.056685 104.723227 
L 78.800294 104.179365 
L 78.495831 104.179365 
L 78.335586 104.179365 
L 77.951001 103.635502 
L 77.918952 103.635502 
L 77.790757 103.635502 
L 77.774732 103.635502 
L 77.454244 103.091639 
L 77.310024 102.547777 
L 77.00556 102.547777 
L 76.74917 102.547777 
L 76.636999 102.003914 
L 76.60495 102.003914 
L 76.492779 102.003914 
L 76.300486 102.003914 
L 76.188316 102.003914 
L 75.851803 102.003914 
L 75.739632 102.003914 
L 75.563364 102.003914 
L 75.403119 102.003914 
L 75.387095 101.460052 
L 75.210827 100.916189 
L 74.922387 100.916189 
L 74.762143 100.372326 
L 74.585875 99.828464 
L 74.361533 99.828464 
L 74.297435 99.828464 
L 74.153215 99.828464 
L 73.832727 99.828464 
z
" clip-path="url(#p7399bc635b)" style="fill: #7cfc00"/>
   </g>
   <g id="PolyCollection_3">
    <path d="M 73.832727 54.144 
L 73.832727 99.828464 
L 74.153215 99.828464 
L 74.297435 99.828464 
L 74.361533 99.828464 
L 74.585875 99.828464 
L 74.762143 100.372326 
L 74.922387 100.916189 
L 75.210827 100.916189 
L 75.387095 101.460052 
L 75.403119 102.003914 
L 75.563364 102.003914 
L 75.739632 102.003914 
L 75.851803 102.003914 
L 76.188316 102.003914 
L 76.300486 102.003914 
L 76.492779 102.003914 
L 76.60495 102.003914 
L 76.636999 102.003914 
L 76.74917 102.547777 
L 77.00556 102.547777 
L 77.310024 102.547777 
L 77.454244 103.091639 
L 77.774732 103.635502 
L 77.790757 103.635502 
L 77.918952 103.635502 
L 77.951001 103.635502 
L 78.335586 104.179365 
L 78.495831 104.179365 
L 78.800294 104.179365 
L 79.056685 104.723227 
L 79.745735 104.723227 
L 79.905979 104.723227 
L 79.938027 104.723227 
L 79.954052 105.26709 
L 80.498882 105.26709 
L 80.787321 105.26709 
L 80.899492 105.26709 
L 81.3642 105.26709 
L 81.828908 105.26709 
L 81.989152 105.810953 
L 82.16542 105.810953 
L 82.758324 106.354815 
L 82.85447 106.354815 
L 83.623642 106.898678 
L 83.671715 106.898678 
L 83.687739 107.442541 
L 84.008228 107.986403 
L 84.248594 107.986403 
L 84.649204 108.530266 
L 84.729326 108.530266 
L 85.210058 109.074129 
L 85.514522 109.617991 
L 85.642717 110.161854 
L 85.754888 110.161854 
L 85.802962 110.705717 
L 86.299718 111.249579 
L 86.732377 111.793442 
L 86.828524 111.793442 
L 87.309256 112.337305 
L 87.998306 112.337305 
L 88.030354 112.337305 
L 88.142525 112.337305 
L 88.270721 112.881167 
L 88.350843 112.881167 
L 88.751453 113.42503 
L 89.296283 113.42503 
L 89.520625 113.42503 
L 89.64882 115.056618 
L 90.722455 115.600481 
L 91.219212 115.600481 
L 91.28331 115.600481 
L 92.180677 116.144343 
L 93.094068 116.688206 
L 93.398532 116.688206 
L 93.446605 117.232069 
L 93.991435 117.232069 
L 94.376021 118.319794 
L 95.049046 118.863657 
L 95.177241 119.407519 
L 96.058584 119.951382 
L 97.052097 121.039107 
L 97.132219 121.039107 
L 98.285977 121.58297 
L 98.446221 122.126833 
L 98.942978 122.126833 
L 99.808296 122.126833 
L 100.289028 122.126833 
L 100.849882 122.126833 
L 100.897956 122.670695 
L 101.122297 123.214558 
L 101.699176 124.302283 
L 102.00364 124.846146 
L 102.115811 124.846146 
L 102.372201 125.390009 
L 102.628592 125.933871 
L 103.413788 126.477734 
L 103.814398 127.021597 
L 104.327179 127.565459 
L 105.368766 128.109322 
L 105.92962 128.653185 
L 106.234084 129.197047 
L 106.76289 129.197047 
L 107.371817 129.74091 
L 107.500013 130.284773 
L 108.349306 130.828635 
L 110.063918 130.828635 
L 111.025383 131.372498 
L 111.329847 131.916361 
L 111.490091 132.460223 
L 111.538164 133.004086 
L 111.682384 133.004086 
L 114.310387 133.547948 
L 114.887266 134.091811 
L 116.008974 134.635674 
L 116.377536 135.723399 
L 116.489707 136.267262 
L 118.444685 136.811124 
L 118.604929 137.354987 
L 119.854833 137.89885 
L 119.902906 138.442712 
L 120.784248 138.986575 
L 121.168834 139.530438 
L 121.216907 140.0743 
L 121.505347 140.618163 
L 123.011641 141.705888 
L 124.726253 143.337476 
L 125.239034 143.881339 
L 125.36723 144.425202 
L 125.815913 144.969064 
L 125.976157 145.512927 
L 126.02423 146.05679 
L 126.31267 146.600652 
L 127.466427 147.688378 
L 127.562574 148.23224 
L 128.123428 148.776103 
L 129.661772 148.776103 
L 129.757918 149.863828 
L 131.905189 150.407691 
L 133.796069 150.951554 
L 134.437046 151.495416 
L 134.709461 152.039279 
L 134.725485 152.583142 
L 138.042538 153.127004 
L 139.388588 154.21473 
L 139.46871 154.758592 
L 140.542346 155.302455 
L 140.926932 155.846318 
L 141.856347 156.39018 
L 143.747228 156.934043 
L 144.019643 156.934043 
L 146.311133 157.477906 
L 146.455353 158.021768 
L 147.721282 158.565631 
L 147.849477 159.109494 
L 150.189041 159.653356 
L 151.198578 160.197219 
L 151.503042 160.741082 
L 152.432458 162.37267 
L 152.91319 162.916532 
L 153.009337 164.004258 
L 153.986826 165.635845 
L 154.131045 166.179708 
L 154.40346 166.723571 
L 154.980339 167.267433 
L 155.541194 167.811296 
L 156.069999 168.355159 
L 156.807122 168.899021 
L 156.98339 169.442884 
L 157.720513 169.986747 
L 158.601856 170.530609 
L 159.531272 171.074472 
L 159.70754 172.162197 
L 160.861298 172.162197 
L 161.053591 172.70606 
L 161.229859 173.793785 
L 162.239397 174.337648 
L 162.271446 174.881511 
L 162.495787 175.425373 
L 163.056642 175.969236 
L 163.216886 176.513099 
L 163.954009 177.056961 
L 164.018106 177.600824 
L 164.178351 178.144687 
L 164.931498 178.688549 
L 167.206964 179.232412 
L 168.264575 180.320137 
L 169.22604 180.864 
L 171.886092 182.495588 
L 172.142482 183.039451 
L 174.64229 183.583313 
L 174.690363 184.127176 
L 174.78651 184.671039 
L 175.379413 185.214901 
L 175.812072 185.758764 
L 176.869683 186.302627 
L 178.824661 186.846489 
L 179.40154 187.934215 
L 180.186736 189.02194 
L 180.859761 189.565803 
L 181.116152 190.653528 
L 181.212298 191.197391 
L 182.5263 191.741253 
L 182.606422 192.828979 
L 182.686544 193.372841 
L 183.151252 193.916704 
L 183.599935 194.460567 
L 183.776204 195.004429 
L 185.026108 195.548292 
L 185.458767 196.092155 
L 186.836866 196.636017 
L 186.99711 197.17988 
L 187.237476 198.811468 
L 187.622062 199.35533 
L 188.022673 200.443056 
L 188.807869 200.986918 
L 189.961626 201.530781 
L 190.105846 202.074644 
L 190.346212 202.618506 
L 190.394285 203.162369 
L 191.644189 203.706232 
L 191.708287 204.250094 
L 191.772384 204.793957 
L 192.076848 205.33782 
L 192.477458 205.881682 
L 192.493483 206.969408 
L 193.278679 207.51327 
L 193.871582 208.600996 
L 194.929193 209.144858 
L 196.034878 209.688721 
L 196.531634 211.320309 
L 197.380928 211.864172 
L 197.60527 212.408034 
L 198.102026 212.951897 
L 199.992907 214.039622 
L 200.249297 214.583485 
L 200.697981 215.127348 
L 200.8422 215.67121 
L 201.403055 216.215073 
L 202.412593 216.758936 
L 202.604886 217.302798 
L 202.813203 217.846661 
L 203.934912 218.934386 
L 204.271424 219.478249 
L 204.736132 220.022112 
L 204.896376 220.565974 
L 205.216864 221.109837 
L 205.585426 221.6537 
L 207.059672 222.197562 
L 207.652575 222.741425 
L 207.860892 223.285288 
L 210.072261 223.82915 
L 212.043263 224.373013 
L 213.036776 224.916876 
L 213.197021 225.460738 
L 213.469436 226.004601 
L 214.959706 226.548464 
L 215.760926 227.092326 
L 216.129488 227.636189 
L 217.219147 228.180052 
L 217.876148 228.723914 
L 218.5011 230.355502 
L 218.933759 230.899365 
L 220.087517 231.443227 
L 220.456078 231.98709 
L 220.82464 232.530953 
L 221.77008 233.074815 
L 221.850202 233.618678 
L 222.010446 234.162541 
L 222.202739 234.706403 
L 222.71552 236.337991 
L 222.779618 236.881854 
L 223.164204 237.425717 
L 223.628911 237.969579 
L 225.087133 239.057305 
L 225.103157 239.601167 
L 226.24089 240.14503 
L 227.090184 241.232755 
L 227.586941 241.776618 
L 228.548405 242.320481 
L 230.0547 242.864343 
L 230.182895 243.952069 
L 230.663627 245.039794 
L 231.977629 246.127519 
L 232.730776 246.671382 
L 233.548021 247.759107 
L 234.221046 248.30297 
L 234.717803 248.846833 
L 235.390828 249.390695 
L 236.16 249.934558 
L 236.400366 250.478421 
L 238.307271 251.022283 
L 238.932223 251.566146 
L 239.044394 252.110009 
L 239.861639 252.653871 
L 242.137105 254.285459 
L 242.345422 254.829322 
L 243.306887 255.373185 
L 247.136721 256.46091 
L 247.200818 257.548635 
L 247.82577 258.092498 
L 249.860871 258.636361 
L 250.982579 259.724086 
L 253.258045 260.267948 
L 253.306119 260.811811 
L 254.780364 262.443399 
L 255.549536 262.987262 
L 255.789902 263.531124 
L 256.494976 264.074987 
L 256.607147 264.61885 
L 258.818516 265.162712 
L 259.347321 265.706575 
L 259.667809 266.250438 
L 259.988298 266.7943 
L 260.741445 267.338163 
L 260.965787 267.882026 
L 262.215691 268.425888 
L 262.600276 269.513614 
L 264.875743 270.057476 
L 266.446135 270.601339 
L 266.478184 271.145202 
L 267.311453 271.689064 
L 268.913894 272.232927 
L 269.074138 272.77679 
L 269.522822 273.320652 
L 270.0997 273.864515 
L 271.58997 274.408378 
L 272.343118 274.95224 
L 272.839874 275.496103 
L 273.112289 276.039966 
L 273.384704 276.583828 
L 276.89405 277.127691 
L 277.631173 278.215416 
L 277.695271 278.759279 
L 281.941739 279.303142 
L 285.979891 280.93473 
L 287.085575 281.478592 
L 288.527772 283.11018 
L 288.671991 283.654043 
L 289.921895 284.197906 
L 291.57241 284.741768 
L 291.588434 285.285631 
L 292.37363 285.829494 
L 293.944022 286.373356 
L 294.889462 286.917219 
L 295.209951 287.461082 
L 296.73227 288.004944 
L 303.799034 288.548807 
L 304.456035 289.09267 
L 304.58423 289.636532 
L 304.840621 290.180395 
L 308.606357 290.724258 
L 308.750577 291.26812 
L 308.910821 291.811983 
L 309.022992 292.355845 
L 309.471675 292.899708 
L 312.388118 293.987433 
L 313.317534 294.531296 
L 313.525851 295.075159 
L 314.90395 295.619021 
L 315.19239 296.162884 
L 316.378196 297.250609 
L 320.079835 297.794472 
L 321.025275 298.338335 
L 322.24313 298.882197 
L 325.079451 299.42606 
L 326.008867 299.969923 
L 332.610923 300.513785 
L 332.835265 301.057648 
L 334.293486 301.601511 
L 335.799781 302.145373 
L 339.918054 302.689236 
L 340.783373 303.776961 
L 342.033276 304.320824 
L 364.35528 304.864687 
L 380.363665 305.408549 
L 397.477735 306.496275 
L 398.487273 307.040137 
L 398.487273 307.040137 
L 398.487273 307.040137 
L 397.477735 306.496275 
L 380.363665 305.408549 
L 364.35528 304.864687 
L 342.033276 304.320824 
L 340.783373 303.776961 
L 339.918054 302.689236 
L 335.799781 302.145373 
L 334.293486 301.601511 
L 332.835265 301.057648 
L 332.610923 300.513785 
L 326.008867 299.969923 
L 325.079451 299.42606 
L 322.24313 298.882197 
L 321.025275 298.338335 
L 320.079835 297.794472 
L 316.378196 297.250609 
L 315.19239 296.162884 
L 314.90395 295.619021 
L 313.525851 295.075159 
L 313.317534 294.531296 
L 312.388118 293.987433 
L 309.471675 292.899708 
L 309.022992 292.355845 
L 308.910821 291.811983 
L 308.750577 291.26812 
L 308.606357 290.724258 
L 304.840621 290.180395 
L 304.58423 289.636532 
L 304.456035 289.09267 
L 303.799034 288.548807 
L 296.73227 288.004944 
L 295.209951 287.461082 
L 294.889462 286.917219 
L 293.944022 286.373356 
L 292.37363 285.829494 
L 291.588434 285.285631 
L 291.57241 284.741768 
L 289.921895 284.197906 
L 288.671991 283.654043 
L 288.527772 283.11018 
L 287.085575 281.478592 
L 285.979891 280.93473 
L 281.941739 279.303142 
L 277.695271 278.759279 
L 277.631173 278.215416 
L 276.89405 277.127691 
L 273.384704 276.583828 
L 273.112289 276.039966 
L 272.839874 275.496103 
L 272.343118 274.95224 
L 271.58997 274.408378 
L 270.0997 273.864515 
L 269.522822 273.320652 
L 269.074138 272.77679 
L 268.913894 272.232927 
L 267.311453 271.689064 
L 266.478184 271.145202 
L 266.446135 270.601339 
L 264.875743 270.057476 
L 262.600276 269.513614 
L 262.215691 268.425888 
L 260.965787 267.882026 
L 260.741445 267.338163 
L 259.988298 266.7943 
L 259.667809 266.250438 
L 259.347321 265.706575 
L 258.818516 265.162712 
L 256.607147 264.61885 
L 256.494976 264.074987 
L 255.789902 263.531124 
L 255.549536 262.987262 
L 254.780364 262.443399 
L 253.306119 260.811811 
L 253.258045 260.267948 
L 250.982579 259.724086 
L 249.860871 258.636361 
L 247.82577 258.092498 
L 247.200818 257.548635 
L 247.136721 256.46091 
L 243.306887 255.373185 
L 242.345422 254.829322 
L 242.137105 254.285459 
L 239.861639 252.653871 
L 239.044394 252.110009 
L 238.932223 251.566146 
L 238.307271 251.022283 
L 236.400366 250.478421 
L 236.16 249.934558 
L 235.390828 249.390695 
L 234.717803 248.846833 
L 234.221046 248.30297 
L 233.548021 247.759107 
L 232.730776 246.671382 
L 231.977629 246.127519 
L 230.663627 245.039794 
L 230.182895 243.952069 
L 230.0547 242.864343 
L 228.548405 242.320481 
L 227.586941 241.776618 
L 227.090184 241.232755 
L 226.24089 240.14503 
L 225.103157 239.601167 
L 225.087133 239.057305 
L 223.628911 237.969579 
L 223.164204 237.425717 
L 222.779618 236.881854 
L 222.71552 236.337991 
L 222.202739 234.706403 
L 222.010446 234.162541 
L 221.850202 233.618678 
L 221.77008 233.074815 
L 220.82464 232.530953 
L 220.456078 231.98709 
L 220.087517 231.443227 
L 218.933759 230.899365 
L 218.5011 229.811639 
L 217.876148 228.180052 
L 217.219147 227.636189 
L 216.129488 227.092326 
L 215.760926 226.548464 
L 214.959706 226.004601 
L 213.469436 225.460738 
L 213.197021 224.916876 
L 213.036776 224.373013 
L 212.043263 223.82915 
L 210.072261 223.285288 
L 207.860892 222.741425 
L 207.652575 222.197562 
L 207.059672 221.6537 
L 205.585426 221.109837 
L 205.216864 220.565974 
L 204.896376 220.022112 
L 204.736132 219.478249 
L 204.271424 218.934386 
L 203.934912 218.390524 
L 202.813203 217.302798 
L 202.604886 216.758936 
L 202.412593 216.215073 
L 201.403055 215.67121 
L 200.8422 215.127348 
L 200.697981 214.583485 
L 200.249297 214.039622 
L 199.992907 213.49576 
L 198.102026 212.408034 
L 197.60527 211.864172 
L 197.380928 211.320309 
L 196.531634 210.776446 
L 196.034878 209.144858 
L 194.929193 208.600996 
L 193.871582 208.057133 
L 193.278679 206.969408 
L 192.493483 206.425545 
L 192.477458 205.33782 
L 192.076848 204.793957 
L 191.772384 204.250094 
L 191.708287 203.706232 
L 191.644189 203.162369 
L 190.394285 202.618506 
L 190.346212 202.074644 
L 190.105846 201.530781 
L 189.961626 200.986918 
L 188.807869 200.443056 
L 188.022673 199.899193 
L 187.622062 198.811468 
L 187.237476 198.267605 
L 186.99711 196.636017 
L 186.836866 196.092155 
L 185.458767 195.548292 
L 185.026108 195.004429 
L 183.776204 194.460567 
L 183.599935 193.916704 
L 183.151252 193.372841 
L 182.686544 192.828979 
L 182.606422 192.285116 
L 182.5263 191.197391 
L 181.212298 190.653528 
L 181.116152 190.109665 
L 180.859761 189.02194 
L 180.186736 188.478077 
L 179.40154 187.390352 
L 178.824661 186.302627 
L 176.869683 185.758764 
L 175.812072 185.214901 
L 175.379413 184.671039 
L 174.78651 184.127176 
L 174.690363 183.583313 
L 174.64229 183.039451 
L 172.142482 182.495588 
L 171.886092 181.951725 
L 169.22604 180.320137 
L 168.264575 179.776275 
L 167.206964 178.688549 
L 164.931498 178.144687 
L 164.178351 177.600824 
L 164.018106 177.056961 
L 163.954009 176.513099 
L 163.216886 175.969236 
L 163.056642 175.425373 
L 162.495787 174.881511 
L 162.271446 174.337648 
L 162.239397 173.793785 
L 161.229859 173.249923 
L 161.053591 172.162197 
L 160.861298 171.618335 
L 159.70754 171.074472 
L 159.531272 169.986747 
L 158.601856 169.442884 
L 157.720513 168.899021 
L 156.98339 168.355159 
L 156.807122 167.811296 
L 156.069999 167.267433 
L 155.541194 166.723571 
L 154.980339 166.179708 
L 154.40346 165.635845 
L 154.131045 165.091983 
L 153.986826 164.54812 
L 153.009337 162.916532 
L 152.91319 161.828807 
L 152.432458 161.284944 
L 151.503042 159.653356 
L 151.198578 159.109494 
L 150.189041 158.565631 
L 147.849477 158.021768 
L 147.721282 157.477906 
L 146.455353 156.934043 
L 146.311133 156.39018 
L 144.019643 155.846318 
L 143.747228 155.302455 
L 141.856347 154.758592 
L 140.926932 154.21473 
L 140.542346 153.670867 
L 139.46871 153.127004 
L 139.388588 152.583142 
L 138.042538 151.495416 
L 134.725485 150.951554 
L 134.709461 150.407691 
L 134.437046 149.863828 
L 133.796069 149.319966 
L 131.905189 148.776103 
L 129.757918 148.23224 
L 129.661772 147.144515 
L 128.123428 146.600652 
L 127.562574 146.05679 
L 127.466427 145.512927 
L 126.31267 144.425202 
L 126.02423 143.881339 
L 125.976157 143.337476 
L 125.815913 142.793614 
L 125.36723 142.249751 
L 125.239034 141.705888 
L 124.726253 141.162026 
L 123.011641 139.530438 
L 121.505347 138.442712 
L 121.216907 137.89885 
L 121.168834 137.354987 
L 120.784248 136.811124 
L 119.902906 136.267262 
L 119.854833 135.723399 
L 118.604929 135.179536 
L 118.444685 134.635674 
L 116.489707 134.091811 
L 116.377536 133.547948 
L 116.008974 132.460223 
L 114.887266 131.916361 
L 114.310387 131.372498 
L 111.682384 130.828635 
L 111.538164 130.284773 
L 111.490091 129.74091 
L 111.329847 129.197047 
L 111.025383 128.653185 
L 110.063918 128.109322 
L 108.349306 127.565459 
L 107.500013 127.021597 
L 107.371817 126.477734 
L 106.76289 125.933871 
L 106.234084 125.390009 
L 105.92962 124.302283 
L 105.368766 123.758421 
L 104.327179 123.214558 
L 103.814398 122.670695 
L 103.413788 122.126833 
L 102.628592 121.58297 
L 102.372201 121.039107 
L 102.115811 120.495245 
L 102.00364 119.951382 
L 101.699176 119.407519 
L 101.122297 118.319794 
L 100.897956 117.775931 
L 100.849882 117.232069 
L 100.289028 116.688206 
L 99.808296 116.144343 
L 98.942978 115.600481 
L 98.446221 115.056618 
L 98.285977 114.512755 
L 97.132219 113.968893 
L 97.052097 113.42503 
L 96.058584 112.337305 
L 95.177241 111.249579 
L 95.049046 110.705717 
L 94.376021 109.074129 
L 93.991435 107.986403 
L 93.446605 107.442541 
L 93.398532 106.898678 
L 93.094068 106.354815 
L 92.180677 105.810953 
L 91.28331 105.26709 
L 91.219212 104.179365 
L 90.722455 103.635502 
L 89.64882 102.003914 
L 89.520625 100.372326 
L 89.296283 99.828464 
L 88.751453 99.284601 
L 88.350843 98.740738 
L 88.270721 98.196876 
L 88.142525 97.653013 
L 88.030354 97.10915 
L 87.998306 96.565288 
L 87.309256 96.021425 
L 86.828524 95.477562 
L 86.732377 94.9337 
L 86.299718 94.389837 
L 85.802962 93.845974 
L 85.754888 93.302112 
L 85.642717 92.214386 
L 85.514522 91.670524 
L 85.210058 90.582798 
L 84.729326 90.038936 
L 84.649204 88.95121 
L 84.248594 88.407348 
L 84.008228 87.863485 
L 83.687739 87.319622 
L 83.671715 86.77576 
L 83.623642 86.231897 
L 82.85447 85.688034 
L 82.758324 85.144172 
L 82.16542 84.600309 
L 81.989152 84.056446 
L 81.828908 83.512584 
L 81.3642 82.968721 
L 80.899492 82.424858 
L 80.787321 81.880996 
L 80.498882 80.79327 
L 79.954052 80.249408 
L 79.938027 79.705545 
L 79.905979 79.161682 
L 79.745735 78.073957 
L 79.056685 76.442369 
L 78.800294 75.898506 
L 78.495831 75.354644 
L 78.335586 74.810781 
L 77.951001 73.723056 
L 77.918952 73.179193 
L 77.790757 72.091468 
L 77.774732 71.547605 
L 77.454244 70.45988 
L 77.310024 69.916017 
L 77.00556 68.284429 
L 76.74917 67.740567 
L 76.636999 67.196704 
L 76.60495 66.652841 
L 76.492779 65.565116 
L 76.300486 64.477391 
L 76.188316 63.933528 
L 75.851803 63.389665 
L 75.739632 62.30194 
L 75.563364 61.758077 
L 75.403119 60.670352 
L 75.387095 60.126489 
L 75.210827 59.582627 
L 74.922387 59.038764 
L 74.762143 57.951039 
L 74.585875 57.407176 
L 74.361533 56.319451 
L 74.297435 55.231725 
L 74.153215 54.687863 
L 73.832727 54.144 
z
" clip-path="url(#p7399bc635b)" style="fill: #ff0000"/>
   </g>
   <g id="matplotlib.axis_1">
    <g id="xtick_1">
     <g id="line2d_1">
      <defs>
       <path id="md6db9d6ade" d="M 0 0 
L 0 3.5 
" style="stroke: #000000; stroke-width: 0.8"/>
      </defs>
      <g>
       <use xlink:href="#md6db9d6ade" x="67.23067" y="307.584" style="stroke: #000000; stroke-width: 0.8"/>
      </g>
     </g>
     <g id="text_1">
      <!-- 0 -->
      <g transform="translate(64.04942 322.182437)scale(0.1 -0.1)">
       <defs>
        <path id="DejaVuSans-30" d="M 2034 4250 
Q 1547 4250 1301 3770 
Q 1056 3291 1056 2328 
Q 1056 1369 1301 889 
Q 1547 409 2034 409 
Q 2525 409 2770 889 
Q 3016 1369 3016 2328 
Q 3016 3291 2770 3770 
Q 2525 4250 2034 4250 
z
M 2034 4750 
Q 2819 4750 3233 4129 
Q 3647 3509 3647 2328 
Q 3647 1150 3233 529 
Q 2819 -91 2034 -91 
Q 1250 -91 836 529 
Q 422 1150 422 2328 
Q 422 3509 836 4129 
Q 1250 4750 2034 4750 
z
" transform="scale(0.015625)"/>
       </defs>
       <use xlink:href="#DejaVuSans-30"/>
      </g>
     </g>
    </g>
    <g id="xtick_2">
     <g id="line2d_2">
      <g>
       <use xlink:href="#md6db9d6ade" x="107.291695" y="307.584" style="stroke: #000000; stroke-width: 0.8"/>
      </g>
     </g>
     <g id="text_2">
      <!-- 25 -->
      <g transform="translate(100.929195 322.182437)scale(0.1 -0.1)">
       <defs>
        <path id="DejaVuSans-32" d="M 1228 531 
L 3431 531 
L 3431 0 
L 469 0 
L 469 531 
Q 828 903 1448 1529 
Q 2069 2156 2228 2338 
Q 2531 2678 2651 2914 
Q 2772 3150 2772 3378 
Q 2772 3750 2511 3984 
Q 2250 4219 1831 4219 
Q 1534 4219 1204 4116 
Q 875 4013 500 3803 
L 500 4441 
Q 881 4594 1212 4672 
Q 1544 4750 1819 4750 
Q 2544 4750 2975 4387 
Q 3406 4025 3406 3419 
Q 3406 3131 3298 2873 
Q 3191 2616 2906 2266 
Q 2828 2175 2409 1742 
Q 1991 1309 1228 531 
z
" transform="scale(0.015625)"/>
        <path id="DejaVuSans-35" d="M 691 4666 
L 3169 4666 
L 3169 4134 
L 1269 4134 
L 1269 2991 
Q 1406 3038 1543 3061 
Q 1681 3084 1819 3084 
Q 2600 3084 3056 2656 
Q 3513 2228 3513 1497 
Q 3513 744 3044 326 
Q 2575 -91 1722 -91 
Q 1428 -91 1123 -41 
Q 819 9 494 109 
L 494 744 
Q 775 591 1075 516 
Q 1375 441 1709 441 
Q 2250 441 2565 725 
Q 2881 1009 2881 1497 
Q 2881 1984 2565 2268 
Q 2250 2553 1709 2553 
Q 1456 2553 1204 2497 
Q 953 2441 691 2322 
L 691 4666 
z
" transform="scale(0.015625)"/>
       </defs>
       <use xlink:href="#DejaVuSans-32"/>
       <use xlink:href="#DejaVuSans-35" x="63.623047"/>
      </g>
     </g>
    </g>
    <g id="xtick_3">
     <g id="line2d_3">
      <g>
       <use xlink:href="#md6db9d6ade" x="147.35272" y="307.584" style="stroke: #000000; stroke-width: 0.8"/>
      </g>
     </g>
     <g id="text_3">
      <!-- 50 -->
      <g transform="translate(140.99022 322.182437)scale(0.1 -0.1)">
       <use xlink:href="#DejaVuSans-35"/>
       <use xlink:href="#DejaVuSans-30" x="63.623047"/>
      </g>
     </g>
    </g>
    <g id="xtick_4">
     <g id="line2d_4">
      <g>
       <use xlink:href="#md6db9d6ade" x="187.413745" y="307.584" style="stroke: #000000; stroke-width: 0.8"/>
      </g>
     </g>
     <g id="text_4">
      <!-- 75 -->
      <g transform="translate(181.051245 322.182437)scale(0.1 -0.1)">
       <defs>
        <path id="DejaVuSans-37" d="M 525 4666 
L 3525 4666 
L 3525 4397 
L 1831 0 
L 1172 0 
L 2766 4134 
L 525 4134 
L 525 4666 
z
" transform="scale(0.015625)"/>
       </defs>
       <use xlink:href="#DejaVuSans-37"/>
       <use xlink:href="#DejaVuSans-35" x="63.623047"/>
      </g>
     </g>
    </g>
    <g id="xtick_5">
     <g id="line2d_5">
      <g>
       <use xlink:href="#md6db9d6ade" x="227.47477" y="307.584" style="stroke: #000000; stroke-width: 0.8"/>
      </g>
     </g>
     <g id="text_5">
      <!-- 100 -->
      <g transform="translate(217.93102 322.182437)scale(0.1 -0.1)">
       <defs>
        <path id="DejaVuSans-31" d="M 794 531 
L 1825 531 
L 1825 4091 
L 703 3866 
L 703 4441 
L 1819 4666 
L 2450 4666 
L 2450 531 
L 3481 531 
L 3481 0 
L 794 0 
L 794 531 
z
" transform="scale(0.015625)"/>
       </defs>
       <use xlink:href="#DejaVuSans-31"/>
       <use xlink:href="#DejaVuSans-30" x="63.623047"/>
       <use xlink:href="#DejaVuSans-30" x="127.246094"/>
      </g>
     </g>
    </g>
    <g id="xtick_6">
     <g id="line2d_6">
      <g>
       <use xlink:href="#md6db9d6ade" x="267.535795" y="307.584" style="stroke: #000000; stroke-width: 0.8"/>
      </g>
     </g>
     <g id="text_6">
      <!-- 125 -->
      <g transform="translate(257.992045 322.182437)scale(0.1 -0.1)">
       <use xlink:href="#DejaVuSans-31"/>
       <use xlink:href="#DejaVuSans-32" x="63.623047"/>
       <use xlink:href="#DejaVuSans-35" x="127.246094"/>
      </g>
     </g>
    </g>
    <g id="xtick_7">
     <g id="line2d_7">
      <g>
       <use xlink:href="#md6db9d6ade" x="307.59682" y="307.584" style="stroke: #000000; stroke-width: 0.8"/>
      </g>
     </g>
     <g id="text_7">
      <!-- 150 -->
      <g transform="translate(298.05307 322.182437)scale(0.1 -0.1)">
       <use xlink:href="#DejaVuSans-31"/>
       <use xlink:href="#DejaVuSans-35" x="63.623047"/>
       <use xlink:href="#DejaVuSans-30" x="127.246094"/>
      </g>
     </g>
    </g>
    <g id="xtick_8">
     <g id="line2d_8">
      <g>
       <use xlink:href="#md6db9d6ade" x="347.657844" y="307.584" style="stroke: #000000; stroke-width: 0.8"/>
      </g>
     </g>
     <g id="text_8">
      <!-- 175 -->
      <g transform="translate(338.114094 322.182437)scale(0.1 -0.1)">
       <use xlink:href="#DejaVuSans-31"/>
       <use xlink:href="#DejaVuSans-37" x="63.623047"/>
       <use xlink:href="#DejaVuSans-35" x="127.246094"/>
      </g>
     </g>
    </g>
    <g id="xtick_9">
     <g id="line2d_9">
      <g>
       <use xlink:href="#md6db9d6ade" x="387.718869" y="307.584" style="stroke: #000000; stroke-width: 0.8"/>
      </g>
     </g>
     <g id="text_9">
      <!-- 200 -->
      <g transform="translate(378.175119 322.182437)scale(0.1 -0.1)">
       <use xlink:href="#DejaVuSans-32"/>
       <use xlink:href="#DejaVuSans-30" x="63.623047"/>
       <use xlink:href="#DejaVuSans-30" x="127.246094"/>
      </g>
     </g>
    </g>
    <g id="text_10">
     <!-- Score -->
     <g transform="translate(222.157656 335.860562)scale(0.1 -0.1)">
      <defs>
       <path id="DejaVuSans-53" d="M 3425 4513 
L 3425 3897 
Q 3066 4069 2747 4153 
Q 2428 4238 2131 4238 
Q 1616 4238 1336 4038 
Q 1056 3838 1056 3469 
Q 1056 3159 1242 3001 
Q 1428 2844 1947 2747 
L 2328 2669 
Q 3034 2534 3370 2195 
Q 3706 1856 3706 1288 
Q 3706 609 3251 259 
Q 2797 -91 1919 -91 
Q 1588 -91 1214 -16 
Q 841 59 441 206 
L 441 856 
Q 825 641 1194 531 
Q 1563 422 1919 422 
Q 2459 422 2753 634 
Q 3047 847 3047 1241 
Q 3047 1584 2836 1778 
Q 2625 1972 2144 2069 
L 1759 2144 
Q 1053 2284 737 2584 
Q 422 2884 422 3419 
Q 422 4038 858 4394 
Q 1294 4750 2059 4750 
Q 2388 4750 2728 4690 
Q 3069 4631 3425 4513 
z
" transform="scale(0.015625)"/>
       <path id="DejaVuSans-63" d="M 3122 3366 
L 3122 2828 
Q 2878 2963 2633 3030 
Q 2388 3097 2138 3097 
Q 1578 3097 1268 2742 
Q 959 2388 959 1747 
Q 959 1106 1268 751 
Q 1578 397 2138 397 
Q 2388 397 2633 464 
Q 2878 531 3122 666 
L 3122 134 
Q 2881 22 2623 -34 
Q 2366 -91 2075 -91 
Q 1284 -91 818 406 
Q 353 903 353 1747 
Q 353 2603 823 3093 
Q 1294 3584 2113 3584 
Q 2378 3584 2631 3529 
Q 2884 3475 3122 3366 
z
" transform="scale(0.015625)"/>
       <path id="DejaVuSans-6f" d="M 1959 3097 
Q 1497 3097 1228 2736 
Q 959 2375 959 1747 
Q 959 1119 1226 758 
Q 1494 397 1959 397 
Q 2419 397 2687 759 
Q 2956 1122 2956 1747 
Q 2956 2369 2687 2733 
Q 2419 3097 1959 3097 
z
M 1959 3584 
Q 2709 3584 3137 3096 
Q 3566 2609 3566 1747 
Q 3566 888 3137 398 
Q 2709 -91 1959 -91 
Q 1206 -91 779 398 
Q 353 888 353 1747 
Q 353 2609 779 3096 
Q 1206 3584 1959 3584 
z
" transform="scale(0.015625)"/>
       <path id="DejaVuSans-72" d="M 2631 2963 
Q 2534 3019 2420 3045 
Q 2306 3072 2169 3072 
Q 1681 3072 1420 2755 
Q 1159 2438 1159 1844 
L 1159 0 
L 581 0 
L 581 3500 
L 1159 3500 
L 1159 2956 
Q 1341 3275 1631 3429 
Q 1922 3584 2338 3584 
Q 2397 3584 2469 3576 
Q 2541 3569 2628 3553 
L 2631 2963 
z
" transform="scale(0.015625)"/>
       <path id="DejaVuSans-65" d="M 3597 1894 
L 3597 1613 
L 953 1613 
Q 991 1019 1311 708 
Q 1631 397 2203 397 
Q 2534 397 2845 478 
Q 3156 559 3463 722 
L 3463 178 
Q 3153 47 2828 -22 
Q 2503 -91 2169 -91 
Q 1331 -91 842 396 
Q 353 884 353 1716 
Q 353 2575 817 3079 
Q 1281 3584 2069 3584 
Q 2775 3584 3186 3129 
Q 3597 2675 3597 1894 
z
M 3022 2063 
Q 3016 2534 2758 2815 
Q 2500 3097 2075 3097 
Q 1594 3097 1305 2825 
Q 1016 2553 972 2059 
L 3022 2063 
z
" transform="scale(0.015625)"/>
      </defs>
      <use xlink:href="#DejaVuSans-53"/>
      <use xlink:href="#DejaVuSans-63" x="63.476562"/>
      <use xlink:href="#DejaVuSans-6f" x="118.457031"/>
      <use xlink:href="#DejaVuSans-72" x="179.638672"/>
      <use xlink:href="#DejaVuSans-65" x="218.501953"/>
     </g>
    </g>
   </g>
   <g id="matplotlib.axis_2">
    <g id="ytick_1">
     <g id="line2d_10">
      <defs>
       <path id="m17d4a79095" d="M 0 0 
L -3.5 0 
" style="stroke: #000000; stroke-width: 0.8"/>
      </defs>
      <g>
       <use xlink:href="#m17d4a79095" x="57.6" y="307.584" style="stroke: #000000; stroke-width: 0.8"/>
      </g>
     </g>
     <g id="text_11">
      <!-- 0 -->
      <g transform="translate(44.2375 311.383219)scale(0.1 -0.1)">
       <use xlink:href="#DejaVuSans-30"/>
      </g>
     </g>
    </g>
    <g id="ytick_2">
     <g id="line2d_11">
      <g>
       <use xlink:href="#m17d4a79095" x="57.6" y="253.197734" style="stroke: #000000; stroke-width: 0.8"/>
      </g>
     </g>
     <g id="text_12">
      <!-- 100 -->
      <g transform="translate(31.5125 256.996953)scale(0.1 -0.1)">
       <use xlink:href="#DejaVuSans-31"/>
       <use xlink:href="#DejaVuSans-30" x="63.623047"/>
       <use xlink:href="#DejaVuSans-30" x="127.246094"/>
      </g>
     </g>
    </g>
    <g id="ytick_3">
     <g id="line2d_12">
      <g>
       <use xlink:href="#m17d4a79095" x="57.6" y="198.811468" style="stroke: #000000; stroke-width: 0.8"/>
      </g>
     </g>
     <g id="text_13">
      <!-- 200 -->
      <g transform="translate(31.5125 202.610687)scale(0.1 -0.1)">
       <use xlink:href="#DejaVuSans-32"/>
       <use xlink:href="#DejaVuSans-30" x="63.623047"/>
       <use xlink:href="#DejaVuSans-30" x="127.246094"/>
      </g>
     </g>
    </g>
    <g id="ytick_4">
     <g id="line2d_13">
      <g>
       <use xlink:href="#m17d4a79095" x="57.6" y="144.425202" style="stroke: #000000; stroke-width: 0.8"/>
      </g>
     </g>
     <g id="text_14">
      <!-- 300 -->
      <g transform="translate(31.5125 148.22442)scale(0.1 -0.1)">
       <defs>
        <path id="DejaVuSans-33" d="M 2597 2516 
Q 3050 2419 3304 2112 
Q 3559 1806 3559 1356 
Q 3559 666 3084 287 
Q 2609 -91 1734 -91 
Q 1441 -91 1130 -33 
Q 819 25 488 141 
L 488 750 
Q 750 597 1062 519 
Q 1375 441 1716 441 
Q 2309 441 2620 675 
Q 2931 909 2931 1356 
Q 2931 1769 2642 2001 
Q 2353 2234 1838 2234 
L 1294 2234 
L 1294 2753 
L 1863 2753 
Q 2328 2753 2575 2939 
Q 2822 3125 2822 3475 
Q 2822 3834 2567 4026 
Q 2313 4219 1838 4219 
Q 1578 4219 1281 4162 
Q 984 4106 628 3988 
L 628 4550 
Q 988 4650 1302 4700 
Q 1616 4750 1894 4750 
Q 2613 4750 3031 4423 
Q 3450 4097 3450 3541 
Q 3450 3153 3228 2886 
Q 3006 2619 2597 2516 
z
" transform="scale(0.015625)"/>
       </defs>
       <use xlink:href="#DejaVuSans-33"/>
       <use xlink:href="#DejaVuSans-30" x="63.623047"/>
       <use xlink:href="#DejaVuSans-30" x="127.246094"/>
      </g>
     </g>
    </g>
    <g id="ytick_5">
     <g id="line2d_14">
      <g>
       <use xlink:href="#m17d4a79095" x="57.6" y="90.038936" style="stroke: #000000; stroke-width: 0.8"/>
      </g>
     </g>
     <g id="text_15">
      <!-- 400 -->
      <g transform="translate(31.5125 93.838154)scale(0.1 -0.1)">
       <defs>
        <path id="DejaVuSans-34" d="M 2419 4116 
L 825 1625 
L 2419 1625 
L 2419 4116 
z
M 2253 4666 
L 3047 4666 
L 3047 1625 
L 3713 1625 
L 3713 1100 
L 3047 1100 
L 3047 0 
L 2419 0 
L 2419 1100 
L 313 1100 
L 313 1709 
L 2253 4666 
z
" transform="scale(0.015625)"/>
       </defs>
       <use xlink:href="#DejaVuSans-34"/>
       <use xlink:href="#DejaVuSans-30" x="63.623047"/>
       <use xlink:href="#DejaVuSans-30" x="127.246094"/>
      </g>
     </g>
    </g>
    <g id="text_16">
     <!-- Number of crosslinks -->
     <g transform="translate(25.432812 227.019406)rotate(-90)scale(0.1 -0.1)">
      <defs>
       <path id="DejaVuSans-4e" d="M 628 4666 
L 1478 4666 
L 3547 763 
L 3547 4666 
L 4159 4666 
L 4159 0 
L 3309 0 
L 1241 3903 
L 1241 0 
L 628 0 
L 628 4666 
z
" transform="scale(0.015625)"/>
       <path id="DejaVuSans-75" d="M 544 1381 
L 544 3500 
L 1119 3500 
L 1119 1403 
Q 1119 906 1312 657 
Q 1506 409 1894 409 
Q 2359 409 2629 706 
Q 2900 1003 2900 1516 
L 2900 3500 
L 3475 3500 
L 3475 0 
L 2900 0 
L 2900 538 
Q 2691 219 2414 64 
Q 2138 -91 1772 -91 
Q 1169 -91 856 284 
Q 544 659 544 1381 
z
M 1991 3584 
L 1991 3584 
z
" transform="scale(0.015625)"/>
       <path id="DejaVuSans-6d" d="M 3328 2828 
Q 3544 3216 3844 3400 
Q 4144 3584 4550 3584 
Q 5097 3584 5394 3201 
Q 5691 2819 5691 2113 
L 5691 0 
L 5113 0 
L 5113 2094 
Q 5113 2597 4934 2840 
Q 4756 3084 4391 3084 
Q 3944 3084 3684 2787 
Q 3425 2491 3425 1978 
L 3425 0 
L 2847 0 
L 2847 2094 
Q 2847 2600 2669 2842 
Q 2491 3084 2119 3084 
Q 1678 3084 1418 2786 
Q 1159 2488 1159 1978 
L 1159 0 
L 581 0 
L 581 3500 
L 1159 3500 
L 1159 2956 
Q 1356 3278 1631 3431 
Q 1906 3584 2284 3584 
Q 2666 3584 2933 3390 
Q 3200 3197 3328 2828 
z
" transform="scale(0.015625)"/>
       <path id="DejaVuSans-62" d="M 3116 1747 
Q 3116 2381 2855 2742 
Q 2594 3103 2138 3103 
Q 1681 3103 1420 2742 
Q 1159 2381 1159 1747 
Q 1159 1113 1420 752 
Q 1681 391 2138 391 
Q 2594 391 2855 752 
Q 3116 1113 3116 1747 
z
M 1159 2969 
Q 1341 3281 1617 3432 
Q 1894 3584 2278 3584 
Q 2916 3584 3314 3078 
Q 3713 2572 3713 1747 
Q 3713 922 3314 415 
Q 2916 -91 2278 -91 
Q 1894 -91 1617 61 
Q 1341 213 1159 525 
L 1159 0 
L 581 0 
L 581 4863 
L 1159 4863 
L 1159 2969 
z
" transform="scale(0.015625)"/>
       <path id="DejaVuSans-20" transform="scale(0.015625)"/>
       <path id="DejaVuSans-66" d="M 2375 4863 
L 2375 4384 
L 1825 4384 
Q 1516 4384 1395 4259 
Q 1275 4134 1275 3809 
L 1275 3500 
L 2222 3500 
L 2222 3053 
L 1275 3053 
L 1275 0 
L 697 0 
L 697 3053 
L 147 3053 
L 147 3500 
L 697 3500 
L 697 3744 
Q 697 4328 969 4595 
Q 1241 4863 1831 4863 
L 2375 4863 
z
" transform="scale(0.015625)"/>
       <path id="DejaVuSans-73" d="M 2834 3397 
L 2834 2853 
Q 2591 2978 2328 3040 
Q 2066 3103 1784 3103 
Q 1356 3103 1142 2972 
Q 928 2841 928 2578 
Q 928 2378 1081 2264 
Q 1234 2150 1697 2047 
L 1894 2003 
Q 2506 1872 2764 1633 
Q 3022 1394 3022 966 
Q 3022 478 2636 193 
Q 2250 -91 1575 -91 
Q 1294 -91 989 -36 
Q 684 19 347 128 
L 347 722 
Q 666 556 975 473 
Q 1284 391 1588 391 
Q 1994 391 2212 530 
Q 2431 669 2431 922 
Q 2431 1156 2273 1281 
Q 2116 1406 1581 1522 
L 1381 1569 
Q 847 1681 609 1914 
Q 372 2147 372 2553 
Q 372 3047 722 3315 
Q 1072 3584 1716 3584 
Q 2034 3584 2315 3537 
Q 2597 3491 2834 3397 
z
" transform="scale(0.015625)"/>
       <path id="DejaVuSans-6c" d="M 603 4863 
L 1178 4863 
L 1178 0 
L 603 0 
L 603 4863 
z
" transform="scale(0.015625)"/>
       <path id="DejaVuSans-69" d="M 603 3500 
L 1178 3500 
L 1178 0 
L 603 0 
L 603 3500 
z
M 603 4863 
L 1178 4863 
L 1178 4134 
L 603 4134 
L 603 4863 
z
" transform="scale(0.015625)"/>
       <path id="DejaVuSans-6e" d="M 3513 2113 
L 3513 0 
L 2938 0 
L 2938 2094 
Q 2938 2591 2744 2837 
Q 2550 3084 2163 3084 
Q 1697 3084 1428 2787 
Q 1159 2491 1159 1978 
L 1159 0 
L 581 0 
L 581 3500 
L 1159 3500 
L 1159 2956 
Q 1366 3272 1645 3428 
Q 1925 3584 2291 3584 
Q 2894 3584 3203 3211 
Q 3513 2838 3513 2113 
z
" transform="scale(0.015625)"/>
       <path id="DejaVuSans-6b" d="M 581 4863 
L 1159 4863 
L 1159 1991 
L 2875 3500 
L 3609 3500 
L 1753 1863 
L 3688 0 
L 2938 0 
L 1159 1709 
L 1159 0 
L 581 0 
L 581 4863 
z
" transform="scale(0.015625)"/>
      </defs>
      <use xlink:href="#DejaVuSans-4e"/>
      <use xlink:href="#DejaVuSans-75" x="74.804688"/>
      <use xlink:href="#DejaVuSans-6d" x="138.183594"/>
      <use xlink:href="#DejaVuSans-62" x="235.595703"/>
      <use xlink:href="#DejaVuSans-65" x="299.072266"/>
      <use xlink:href="#DejaVuSans-72" x="360.595703"/>
      <use xlink:href="#DejaVuSans-20" x="401.708984"/>
      <use xlink:href="#DejaVuSans-6f" x="433.496094"/>
      <use xlink:href="#DejaVuSans-66" x="494.677734"/>
      <use xlink:href="#DejaVuSans-20" x="529.882812"/>
      <use xlink:href="#DejaVuSans-63" x="561.669922"/>
      <use xlink:href="#DejaVuSans-72" x="616.650391"/>
      <use xlink:href="#DejaVuSans-6f" x="655.513672"/>
      <use xlink:href="#DejaVuSans-73" x="716.695312"/>
      <use xlink:href="#DejaVuSans-73" x="768.794922"/>
      <use xlink:href="#DejaVuSans-6c" x="820.894531"/>
      <use xlink:href="#DejaVuSans-69" x="848.677734"/>
      <use xlink:href="#DejaVuSans-6e" x="876.460938"/>
      <use xlink:href="#DejaVuSans-6b" x="939.839844"/>
      <use xlink:href="#DejaVuSans-73" x="997.75"/>
     </g>
    </g>
   </g>
   <g id="patch_3">
    <path d="M 57.6 307.584 
L 57.6 41.472 
" style="fill: none; stroke: #000000; stroke-width: 0.8; stroke-linejoin: miter; stroke-linecap: square"/>
   </g>
   <g id="patch_4">
    <path d="M 414.72 307.584 
L 414.72 41.472 
" style="fill: none; stroke: #000000; stroke-width: 0.8; stroke-linejoin: miter; stroke-linecap: square"/>
   </g>
   <g id="patch_5">
    <path d="M 57.6 307.584 
L 414.72 307.584 
" style="fill: none; stroke: #000000; stroke-width: 0.8; stroke-linejoin: miter; stroke-linecap: square"/>
   </g>
   <g id="patch_6">
    <path d="M 57.6 41.472 
L 414.72 41.472 
" style="fill: none; stroke: #000000; stroke-width: 0.8; stroke-linejoin: miter; stroke-linecap: square"/>
   </g>
   <g id="legend_1">
    <g id="patch_7">
     <path d="M 278.598125 93.506375 
L 407.72 93.506375 
Q 409.72 93.506375 409.72 91.506375 
L 409.72 48.472 
Q 409.72 46.472 407.72 46.472 
L 278.598125 46.472 
Q 276.598125 46.472 276.598125 48.472 
L 276.598125 91.506375 
Q 276.598125 93.506375 278.598125 93.506375 
z
" style="fill: #ffffff; opacity: 0.8; stroke: #cccccc; stroke-linejoin: miter"/>
    </g>
    <g id="patch_8">
     <path d="M 280.598125 58.070438 
L 300.598125 58.070438 
L 300.598125 51.070438 
L 280.598125 51.070438 
z
" style="fill: #008000"/>
    </g>
    <g id="text_17">
     <!-- correct -->
     <g transform="translate(308.598125 58.070438)scale(0.1 -0.1)">
      <defs>
       <path id="DejaVuSans-74" d="M 1172 4494 
L 1172 3500 
L 2356 3500 
L 2356 3053 
L 1172 3053 
L 1172 1153 
Q 1172 725 1289 603 
Q 1406 481 1766 481 
L 2356 481 
L 2356 0 
L 1766 0 
Q 1100 0 847 248 
Q 594 497 594 1153 
L 594 3053 
L 172 3053 
L 172 3500 
L 594 3500 
L 594 4494 
L 1172 4494 
z
" transform="scale(0.015625)"/>
      </defs>
      <use xlink:href="#DejaVuSans-63"/>
      <use xlink:href="#DejaVuSans-6f" x="54.980469"/>
      <use xlink:href="#DejaVuSans-72" x="116.162109"/>
      <use xlink:href="#DejaVuSans-72" x="155.525391"/>
      <use xlink:href="#DejaVuSans-65" x="194.388672"/>
      <use xlink:href="#DejaVuSans-63" x="255.912109"/>
      <use xlink:href="#DejaVuSans-74" x="310.892578"/>
     </g>
    </g>
    <g id="patch_9">
     <path d="M 280.598125 72.748563 
L 300.598125 72.748563 
L 300.598125 65.748563 
L 280.598125 65.748563 
z
" style="fill: #7cfc00"/>
    </g>
    <g id="text_18">
     <!-- correct homeotypic -->
     <g transform="translate(308.598125 72.748563)scale(0.1 -0.1)">
      <defs>
       <path id="DejaVuSans-68" d="M 3513 2113 
L 3513 0 
L 2938 0 
L 2938 2094 
Q 2938 2591 2744 2837 
Q 2550 3084 2163 3084 
Q 1697 3084 1428 2787 
Q 1159 2491 1159 1978 
L 1159 0 
L 581 0 
L 581 4863 
L 1159 4863 
L 1159 2956 
Q 1366 3272 1645 3428 
Q 1925 3584 2291 3584 
Q 2894 3584 3203 3211 
Q 3513 2838 3513 2113 
z
" transform="scale(0.015625)"/>
       <path id="DejaVuSans-79" d="M 2059 -325 
Q 1816 -950 1584 -1140 
Q 1353 -1331 966 -1331 
L 506 -1331 
L 506 -850 
L 844 -850 
Q 1081 -850 1212 -737 
Q 1344 -625 1503 -206 
L 1606 56 
L 191 3500 
L 800 3500 
L 1894 763 
L 2988 3500 
L 3597 3500 
L 2059 -325 
z
" transform="scale(0.015625)"/>
       <path id="DejaVuSans-70" d="M 1159 525 
L 1159 -1331 
L 581 -1331 
L 581 3500 
L 1159 3500 
L 1159 2969 
Q 1341 3281 1617 3432 
Q 1894 3584 2278 3584 
Q 2916 3584 3314 3078 
Q 3713 2572 3713 1747 
Q 3713 922 3314 415 
Q 2916 -91 2278 -91 
Q 1894 -91 1617 61 
Q 1341 213 1159 525 
z
M 3116 1747 
Q 3116 2381 2855 2742 
Q 2594 3103 2138 3103 
Q 1681 3103 1420 2742 
Q 1159 2381 1159 1747 
Q 1159 1113 1420 752 
Q 1681 391 2138 391 
Q 2594 391 2855 752 
Q 3116 1113 3116 1747 
z
" transform="scale(0.015625)"/>
      </defs>
      <use xlink:href="#DejaVuSans-63"/>
      <use xlink:href="#DejaVuSans-6f" x="54.980469"/>
      <use xlink:href="#DejaVuSans-72" x="116.162109"/>
      <use xlink:href="#DejaVuSans-72" x="155.525391"/>
      <use xlink:href="#DejaVuSans-65" x="194.388672"/>
      <use xlink:href="#DejaVuSans-63" x="255.912109"/>
      <use xlink:href="#DejaVuSans-74" x="310.892578"/>
      <use xlink:href="#DejaVuSans-20" x="350.101562"/>
      <use xlink:href="#DejaVuSans-68" x="381.888672"/>
      <use xlink:href="#DejaVuSans-6f" x="445.267578"/>
      <use xlink:href="#DejaVuSans-6d" x="506.449219"/>
      <use xlink:href="#DejaVuSans-65" x="603.861328"/>
      <use xlink:href="#DejaVuSans-6f" x="665.384766"/>
      <use xlink:href="#DejaVuSans-74" x="726.566406"/>
      <use xlink:href="#DejaVuSans-79" x="765.775391"/>
      <use xlink:href="#DejaVuSans-70" x="824.955078"/>
      <use xlink:href="#DejaVuSans-69" x="888.431641"/>
      <use xlink:href="#DejaVuSans-63" x="916.214844"/>
     </g>
    </g>
    <g id="patch_10">
     <path d="M 280.598125 87.426688 
L 300.598125 87.426688 
L 300.598125 80.426688 
L 280.598125 80.426688 
z
" style="fill: #ff0000"/>
    </g>
    <g id="text_19">
     <!-- false -->
     <g transform="translate(308.598125 87.426688)scale(0.1 -0.1)">
      <defs>
       <path id="DejaVuSans-61" d="M 2194 1759 
Q 1497 1759 1228 1600 
Q 959 1441 959 1056 
Q 959 750 1161 570 
Q 1363 391 1709 391 
Q 2188 391 2477 730 
Q 2766 1069 2766 1631 
L 2766 1759 
L 2194 1759 
z
M 3341 1997 
L 3341 0 
L 2766 0 
L 2766 531 
Q 2569 213 2275 61 
Q 1981 -91 1556 -91 
Q 1019 -91 701 211 
Q 384 513 384 1019 
Q 384 1609 779 1909 
Q 1175 2209 1959 2209 
L 2766 2209 
L 2766 2266 
Q 2766 2663 2505 2880 
Q 2244 3097 1772 3097 
Q 1472 3097 1187 3025 
Q 903 2953 641 2809 
L 641 3341 
Q 956 3463 1253 3523 
Q 1550 3584 1831 3584 
Q 2591 3584 2966 3190 
Q 3341 2797 3341 1997 
z
" transform="scale(0.015625)"/>
      </defs>
      <use xlink:href="#DejaVuSans-66"/>
      <use xlink:href="#DejaVuSans-61" x="35.205078"/>
      <use xlink:href="#DejaVuSans-6c" x="96.484375"/>
      <use xlink:href="#DejaVuSans-73" x="124.267578"/>
      <use xlink:href="#DejaVuSans-65" x="176.367188"/>
     </g>
    </g>
   </g>
  </g>
 </g>
 <defs>
  <clipPath id="p7399bc635b">
   <rect x="57.6" y="41.472" width="357.12" height="266.112"/>
  </clipPath>
 </defs>
</svg>
