<?xml version="1.0" encoding="utf-8" standalone="no"?>
<!DOCTYPE svg PUBLIC "-//W3C//DTD SVG 1.1//EN"
  "http://www.w3.org/Graphics/SVG/1.1/DTD/svg11.dtd">
<svg xmlns:xlink="http://www.w3.org/1999/xlink" width="460.8pt" height="345.6pt" viewBox="0 0 460.8 345.6" xmlns="http://www.w3.org/2000/svg" version="1.1">
 <metadata>
  <rdf:RDF xmlns:dc="http://purl.org/dc/elements/1.1/" xmlns:cc="http://creativecommons.org/ns#" xmlns:rdf="http://www.w3.org/1999/02/22-rdf-syntax-ns#">
   <cc:Work>
    <dc:type rdf:resource="http://purl.org/dc/dcmitype/StillImage"/>
    <dc:date>2022-07-28T10:58:25.939977</dc:date>
    <dc:format>image/svg+xml</dc:format>
    <dc:creator>
     <cc:Agent>
      <dc:title>Matplotlib v3.5.1, https://matplotlib.org/</dc:title>
     </cc:Agent>
    </dc:creator>
   </cc:Work>
  </rdf:RDF>
 </metadata>
 <defs>
  <style type="text/css">*{stroke-linejoin: round; stroke-linecap: butt}</style>
 </defs>
 <g id="figure_1">
  <g id="patch_1">
   <path d="M 0 345.6 
L 460.8 345.6 
L 460.8 0 
L 0 0 
z
" style="fill: #ffffff"/>
  </g>
  <g id="axes_1">
   <g id="patch_2">
    <path d="M 57.6 307.584 
L 414.72 307.584 
L 414.72 41.472 
L 57.6 41.472 
z
" style="fill: #ffffff"/>
   </g>
   <g id="PathCollection_1">
    <defs>
     <path id="m00f316cf70" d="M 0 3 
C 0.795609 3 1.55874 2.683901 2.12132 2.12132 
C 2.683901 1.55874 3 0.795609 3 0 
C 3 -0.795609 2.683901 -1.55874 2.12132 -2.12132 
C 1.55874 -2.683901 0.795609 -3 0 -3 
C -0.795609 -3 -1.55874 -2.683901 -2.12132 -2.12132 
C -2.683901 -1.55874 -3 -0.795609 -3 0 
C -3 0.795609 -2.683901 1.55874 -2.12132 2.12132 
C -1.55874 2.683901 -0.795609 3 0 3 
z
" style="stroke: #1f77b4"/>
    </defs>
    <g clip-path="url(#pa455e24c2a)">
     <use xlink:href="#m00f316cf70" x="73.832727" y="53.568" style="fill: #1f77b4; stroke: #1f77b4"/>
    </g>
   </g>
   <g id="PathCollection_2">
    <defs>
     <path id="mc48c1d3b4a" d="M 0 3 
C 0.795609 3 1.55874 2.683901 2.12132 2.12132 
C 2.683901 1.55874 3 0.795609 3 0 
C 3 -0.795609 2.683901 -1.55874 2.12132 -2.12132 
C 1.55874 -2.683901 0.795609 -3 0 -3 
C -0.795609 -3 -1.55874 -2.683901 -2.12132 -2.12132 
C -2.683901 -1.55874 -3 -0.795609 -3 0 
C -3 0.795609 -2.683901 1.55874 -2.12132 2.12132 
C -1.55874 2.683901 -0.795609 3 0 3 
z
" style="stroke: #ff7f0e"/>
    </defs>
    <g clip-path="url(#pa455e24c2a)">
     <use xlink:href="#mc48c1d3b4a" x="175.716769" y="260.549735" style="fill: #ff7f0e; stroke: #ff7f0e"/>
    </g>
   </g>
   <g id="PathCollection_3">
    <defs>
     <path id="m3457c81148" d="M 0 3 
C 0.795609 3 1.55874 2.683901 2.12132 2.12132 
C 2.683901 1.55874 3 0.795609 3 0 
C 3 -0.795609 2.683901 -1.55874 2.12132 -2.12132 
C 1.55874 -2.683901 0.795609 -3 0 -3 
C -0.795609 -3 -1.55874 -2.683901 -2.12132 -2.12132 
C -2.683901 -1.55874 -3 -0.795609 -3 0 
C -3 0.795609 -2.683901 1.55874 -2.12132 2.12132 
C -1.55874 2.683901 -0.795609 3 0 3 
z
" style="stroke: #2ca02c"/>
    </defs>
    <g clip-path="url(#pa455e24c2a)">
     <use xlink:href="#m3457c81148" x="250.328156" y="288.528835" style="fill: #2ca02c; stroke: #2ca02c"/>
    </g>
   </g>
   <g id="matplotlib.axis_1">
    <g id="xtick_1">
     <g id="line2d_1">
      <defs>
       <path id="mfd135ceaa7" d="M 0 0 
L 0 3.5 
" style="stroke: #000000; stroke-width: 0.8"/>
      </defs>
      <g>
       <use xlink:href="#mfd135ceaa7" x="68.872976" y="307.584" style="stroke: #000000; stroke-width: 0.8"/>
      </g>
     </g>
     <g id="text_1">
      <!-- 0 -->
      <g transform="translate(65.691726 322.182437)scale(0.1 -0.1)">
       <defs>
        <path id="DejaVuSans-30" d="M 2034 4250 
Q 1547 4250 1301 3770 
Q 1056 3291 1056 2328 
Q 1056 1369 1301 889 
Q 1547 409 2034 409 
Q 2525 409 2770 889 
Q 3016 1369 3016 2328 
Q 3016 3291 2770 3770 
Q 2525 4250 2034 4250 
z
M 2034 4750 
Q 2819 4750 3233 4129 
Q 3647 3509 3647 2328 
Q 3647 1150 3233 529 
Q 2819 -91 2034 -91 
Q 1250 -91 836 529 
Q 422 1150 422 2328 
Q 422 3509 836 4129 
Q 1250 4750 2034 4750 
z
" transform="scale(0.015625)"/>
       </defs>
       <use xlink:href="#DejaVuSans-30"/>
      </g>
     </g>
    </g>
    <g id="xtick_2">
     <g id="line2d_2">
      <g>
       <use xlink:href="#mfd135ceaa7" x="128.629013" y="307.584" style="stroke: #000000; stroke-width: 0.8"/>
      </g>
     </g>
     <g id="text_2">
      <!-- 50 -->
      <g transform="translate(122.266513 322.182437)scale(0.1 -0.1)">
       <defs>
        <path id="DejaVuSans-35" d="M 691 4666 
L 3169 4666 
L 3169 4134 
L 1269 4134 
L 1269 2991 
Q 1406 3038 1543 3061 
Q 1681 3084 1819 3084 
Q 2600 3084 3056 2656 
Q 3513 2228 3513 1497 
Q 3513 744 3044 326 
Q 2575 -91 1722 -91 
Q 1428 -91 1123 -41 
Q 819 9 494 109 
L 494 744 
Q 775 591 1075 516 
Q 1375 441 1709 441 
Q 2250 441 2565 725 
Q 2881 1009 2881 1497 
Q 2881 1984 2565 2268 
Q 2250 2553 1709 2553 
Q 1456 2553 1204 2497 
Q 953 2441 691 2322 
L 691 4666 
z
" transform="scale(0.015625)"/>
       </defs>
       <use xlink:href="#DejaVuSans-35"/>
       <use xlink:href="#DejaVuSans-30" x="63.623047"/>
      </g>
     </g>
    </g>
    <g id="xtick_3">
     <g id="line2d_3">
      <g>
       <use xlink:href="#mfd135ceaa7" x="188.385049" y="307.584" style="stroke: #000000; stroke-width: 0.8"/>
      </g>
     </g>
     <g id="text_3">
      <!-- 100 -->
      <g transform="translate(178.841299 322.182437)scale(0.1 -0.1)">
       <defs>
        <path id="DejaVuSans-31" d="M 794 531 
L 1825 531 
L 1825 4091 
L 703 3866 
L 703 4441 
L 1819 4666 
L 2450 4666 
L 2450 531 
L 3481 531 
L 3481 0 
L 794 0 
L 794 531 
z
" transform="scale(0.015625)"/>
       </defs>
       <use xlink:href="#DejaVuSans-31"/>
       <use xlink:href="#DejaVuSans-30" x="63.623047"/>
       <use xlink:href="#DejaVuSans-30" x="127.246094"/>
      </g>
     </g>
    </g>
    <g id="xtick_4">
     <g id="line2d_4">
      <g>
       <use xlink:href="#mfd135ceaa7" x="248.141085" y="307.584" style="stroke: #000000; stroke-width: 0.8"/>
      </g>
     </g>
     <g id="text_4">
      <!-- 150 -->
      <g transform="translate(238.597335 322.182437)scale(0.1 -0.1)">
       <use xlink:href="#DejaVuSans-31"/>
       <use xlink:href="#DejaVuSans-35" x="63.623047"/>
       <use xlink:href="#DejaVuSans-30" x="127.246094"/>
      </g>
     </g>
    </g>
    <g id="xtick_5">
     <g id="line2d_5">
      <g>
       <use xlink:href="#mfd135ceaa7" x="307.897122" y="307.584" style="stroke: #000000; stroke-width: 0.8"/>
      </g>
     </g>
     <g id="text_5">
      <!-- 200 -->
      <g transform="translate(298.353372 322.182437)scale(0.1 -0.1)">
       <defs>
        <path id="DejaVuSans-32" d="M 1228 531 
L 3431 531 
L 3431 0 
L 469 0 
L 469 531 
Q 828 903 1448 1529 
Q 2069 2156 2228 2338 
Q 2531 2678 2651 2914 
Q 2772 3150 2772 3378 
Q 2772 3750 2511 3984 
Q 2250 4219 1831 4219 
Q 1534 4219 1204 4116 
Q 875 4013 500 3803 
L 500 4441 
Q 881 4594 1212 4672 
Q 1544 4750 1819 4750 
Q 2544 4750 2975 4387 
Q 3406 4025 3406 3419 
Q 3406 3131 3298 2873 
Q 3191 2616 2906 2266 
Q 2828 2175 2409 1742 
Q 1991 1309 1228 531 
z
" transform="scale(0.015625)"/>
       </defs>
       <use xlink:href="#DejaVuSans-32"/>
       <use xlink:href="#DejaVuSans-30" x="63.623047"/>
       <use xlink:href="#DejaVuSans-30" x="127.246094"/>
      </g>
     </g>
    </g>
    <g id="xtick_6">
     <g id="line2d_6">
      <g>
       <use xlink:href="#mfd135ceaa7" x="367.653158" y="307.584" style="stroke: #000000; stroke-width: 0.8"/>
      </g>
     </g>
     <g id="text_6">
      <!-- 250 -->
      <g transform="translate(358.109408 322.182437)scale(0.1 -0.1)">
       <use xlink:href="#DejaVuSans-32"/>
       <use xlink:href="#DejaVuSans-35" x="63.623047"/>
       <use xlink:href="#DejaVuSans-30" x="127.246094"/>
      </g>
     </g>
    </g>
    <g id="text_7">
     <!-- Score -->
     <g transform="translate(222.157656 335.860562)scale(0.1 -0.1)">
      <defs>
       <path id="DejaVuSans-53" d="M 3425 4513 
L 3425 3897 
Q 3066 4069 2747 4153 
Q 2428 4238 2131 4238 
Q 1616 4238 1336 4038 
Q 1056 3838 1056 3469 
Q 1056 3159 1242 3001 
Q 1428 2844 1947 2747 
L 2328 2669 
Q 3034 2534 3370 2195 
Q 3706 1856 3706 1288 
Q 3706 609 3251 259 
Q 2797 -91 1919 -91 
Q 1588 -91 1214 -16 
Q 841 59 441 206 
L 441 856 
Q 825 641 1194 531 
Q 1563 422 1919 422 
Q 2459 422 2753 634 
Q 3047 847 3047 1241 
Q 3047 1584 2836 1778 
Q 2625 1972 2144 2069 
L 1759 2144 
Q 1053 2284 737 2584 
Q 422 2884 422 3419 
Q 422 4038 858 4394 
Q 1294 4750 2059 4750 
Q 2388 4750 2728 4690 
Q 3069 4631 3425 4513 
z
" transform="scale(0.015625)"/>
       <path id="DejaVuSans-63" d="M 3122 3366 
L 3122 2828 
Q 2878 2963 2633 3030 
Q 2388 3097 2138 3097 
Q 1578 3097 1268 2742 
Q 959 2388 959 1747 
Q 959 1106 1268 751 
Q 1578 397 2138 397 
Q 2388 397 2633 464 
Q 2878 531 3122 666 
L 3122 134 
Q 2881 22 2623 -34 
Q 2366 -91 2075 -91 
Q 1284 -91 818 406 
Q 353 903 353 1747 
Q 353 2603 823 3093 
Q 1294 3584 2113 3584 
Q 2378 3584 2631 3529 
Q 2884 3475 3122 3366 
z
" transform="scale(0.015625)"/>
       <path id="DejaVuSans-6f" d="M 1959 3097 
Q 1497 3097 1228 2736 
Q 959 2375 959 1747 
Q 959 1119 1226 758 
Q 1494 397 1959 397 
Q 2419 397 2687 759 
Q 2956 1122 2956 1747 
Q 2956 2369 2687 2733 
Q 2419 3097 1959 3097 
z
M 1959 3584 
Q 2709 3584 3137 3096 
Q 3566 2609 3566 1747 
Q 3566 888 3137 398 
Q 2709 -91 1959 -91 
Q 1206 -91 779 398 
Q 353 888 353 1747 
Q 353 2609 779 3096 
Q 1206 3584 1959 3584 
z
" transform="scale(0.015625)"/>
       <path id="DejaVuSans-72" d="M 2631 2963 
Q 2534 3019 2420 3045 
Q 2306 3072 2169 3072 
Q 1681 3072 1420 2755 
Q 1159 2438 1159 1844 
L 1159 0 
L 581 0 
L 581 3500 
L 1159 3500 
L 1159 2956 
Q 1341 3275 1631 3429 
Q 1922 3584 2338 3584 
Q 2397 3584 2469 3576 
Q 2541 3569 2628 3553 
L 2631 2963 
z
" transform="scale(0.015625)"/>
       <path id="DejaVuSans-65" d="M 3597 1894 
L 3597 1613 
L 953 1613 
Q 991 1019 1311 708 
Q 1631 397 2203 397 
Q 2534 397 2845 478 
Q 3156 559 3463 722 
L 3463 178 
Q 3153 47 2828 -22 
Q 2503 -91 2169 -91 
Q 1331 -91 842 396 
Q 353 884 353 1716 
Q 353 2575 817 3079 
Q 1281 3584 2069 3584 
Q 2775 3584 3186 3129 
Q 3597 2675 3597 1894 
z
M 3022 2063 
Q 3016 2534 2758 2815 
Q 2500 3097 2075 3097 
Q 1594 3097 1305 2825 
Q 1016 2553 972 2059 
L 3022 2063 
z
" transform="scale(0.015625)"/>
      </defs>
      <use xlink:href="#DejaVuSans-53"/>
      <use xlink:href="#DejaVuSans-63" x="63.476562"/>
      <use xlink:href="#DejaVuSans-6f" x="118.457031"/>
      <use xlink:href="#DejaVuSans-72" x="179.638672"/>
      <use xlink:href="#DejaVuSans-65" x="218.501953"/>
     </g>
    </g>
   </g>
   <g id="matplotlib.axis_2">
    <g id="ytick_1">
     <g id="line2d_7">
      <defs>
       <path id="m2758bcb637" d="M 0 0 
L -3.5 0 
" style="stroke: #000000; stroke-width: 0.8"/>
      </defs>
      <g>
       <use xlink:href="#m2758bcb637" x="57.6" y="295.488" style="stroke: #000000; stroke-width: 0.8"/>
      </g>
     </g>
     <g id="text_8">
      <!-- 0.00 -->
      <g transform="translate(28.334375 299.287219)scale(0.1 -0.1)">
       <defs>
        <path id="DejaVuSans-2e" d="M 684 794 
L 1344 794 
L 1344 0 
L 684 0 
L 684 794 
z
" transform="scale(0.015625)"/>
       </defs>
       <use xlink:href="#DejaVuSans-30"/>
       <use xlink:href="#DejaVuSans-2e" x="63.623047"/>
       <use xlink:href="#DejaVuSans-30" x="95.410156"/>
       <use xlink:href="#DejaVuSans-30" x="159.033203"/>
      </g>
     </g>
    </g>
    <g id="ytick_2">
     <g id="line2d_8">
      <g>
       <use xlink:href="#m2758bcb637" x="57.6" y="260.344216" style="stroke: #000000; stroke-width: 0.8"/>
      </g>
     </g>
     <g id="text_9">
      <!-- 0.05 -->
      <g transform="translate(28.334375 264.143435)scale(0.1 -0.1)">
       <use xlink:href="#DejaVuSans-30"/>
       <use xlink:href="#DejaVuSans-2e" x="63.623047"/>
       <use xlink:href="#DejaVuSans-30" x="95.410156"/>
       <use xlink:href="#DejaVuSans-35" x="159.033203"/>
      </g>
     </g>
    </g>
    <g id="ytick_3">
     <g id="line2d_9">
      <g>
       <use xlink:href="#m2758bcb637" x="57.6" y="225.200432" style="stroke: #000000; stroke-width: 0.8"/>
      </g>
     </g>
     <g id="text_10">
      <!-- 0.10 -->
      <g transform="translate(28.334375 228.999651)scale(0.1 -0.1)">
       <use xlink:href="#DejaVuSans-30"/>
       <use xlink:href="#DejaVuSans-2e" x="63.623047"/>
       <use xlink:href="#DejaVuSans-31" x="95.410156"/>
       <use xlink:href="#DejaVuSans-30" x="159.033203"/>
      </g>
     </g>
    </g>
    <g id="ytick_4">
     <g id="line2d_10">
      <g>
       <use xlink:href="#m2758bcb637" x="57.6" y="190.056649" style="stroke: #000000; stroke-width: 0.8"/>
      </g>
     </g>
     <g id="text_11">
      <!-- 0.15 -->
      <g transform="translate(28.334375 193.855867)scale(0.1 -0.1)">
       <use xlink:href="#DejaVuSans-30"/>
       <use xlink:href="#DejaVuSans-2e" x="63.623047"/>
       <use xlink:href="#DejaVuSans-31" x="95.410156"/>
       <use xlink:href="#DejaVuSans-35" x="159.033203"/>
      </g>
     </g>
    </g>
    <g id="ytick_5">
     <g id="line2d_11">
      <g>
       <use xlink:href="#m2758bcb637" x="57.6" y="154.912865" style="stroke: #000000; stroke-width: 0.8"/>
      </g>
     </g>
     <g id="text_12">
      <!-- 0.20 -->
      <g transform="translate(28.334375 158.712084)scale(0.1 -0.1)">
       <use xlink:href="#DejaVuSans-30"/>
       <use xlink:href="#DejaVuSans-2e" x="63.623047"/>
       <use xlink:href="#DejaVuSans-32" x="95.410156"/>
       <use xlink:href="#DejaVuSans-30" x="159.033203"/>
      </g>
     </g>
    </g>
    <g id="ytick_6">
     <g id="line2d_12">
      <g>
       <use xlink:href="#m2758bcb637" x="57.6" y="119.769081" style="stroke: #000000; stroke-width: 0.8"/>
      </g>
     </g>
     <g id="text_13">
      <!-- 0.25 -->
      <g transform="translate(28.334375 123.5683)scale(0.1 -0.1)">
       <use xlink:href="#DejaVuSans-30"/>
       <use xlink:href="#DejaVuSans-2e" x="63.623047"/>
       <use xlink:href="#DejaVuSans-32" x="95.410156"/>
       <use xlink:href="#DejaVuSans-35" x="159.033203"/>
      </g>
     </g>
    </g>
    <g id="ytick_7">
     <g id="line2d_13">
      <g>
       <use xlink:href="#m2758bcb637" x="57.6" y="84.625297" style="stroke: #000000; stroke-width: 0.8"/>
      </g>
     </g>
     <g id="text_14">
      <!-- 0.30 -->
      <g transform="translate(28.334375 88.424516)scale(0.1 -0.1)">
       <defs>
        <path id="DejaVuSans-33" d="M 2597 2516 
Q 3050 2419 3304 2112 
Q 3559 1806 3559 1356 
Q 3559 666 3084 287 
Q 2609 -91 1734 -91 
Q 1441 -91 1130 -33 
Q 819 25 488 141 
L 488 750 
Q 750 597 1062 519 
Q 1375 441 1716 441 
Q 2309 441 2620 675 
Q 2931 909 2931 1356 
Q 2931 1769 2642 2001 
Q 2353 2234 1838 2234 
L 1294 2234 
L 1294 2753 
L 1863 2753 
Q 2328 2753 2575 2939 
Q 2822 3125 2822 3475 
Q 2822 3834 2567 4026 
Q 2313 4219 1838 4219 
Q 1578 4219 1281 4162 
Q 984 4106 628 3988 
L 628 4550 
Q 988 4650 1302 4700 
Q 1616 4750 1894 4750 
Q 2613 4750 3031 4423 
Q 3450 4097 3450 3541 
Q 3450 3153 3228 2886 
Q 3006 2619 2597 2516 
z
" transform="scale(0.015625)"/>
       </defs>
       <use xlink:href="#DejaVuSans-30"/>
       <use xlink:href="#DejaVuSans-2e" x="63.623047"/>
       <use xlink:href="#DejaVuSans-33" x="95.410156"/>
       <use xlink:href="#DejaVuSans-30" x="159.033203"/>
      </g>
     </g>
    </g>
    <g id="ytick_8">
     <g id="line2d_14">
      <g>
       <use xlink:href="#m2758bcb637" x="57.6" y="49.481514" style="stroke: #000000; stroke-width: 0.8"/>
      </g>
     </g>
     <g id="text_15">
      <!-- 0.35 -->
      <g transform="translate(28.334375 53.280732)scale(0.1 -0.1)">
       <use xlink:href="#DejaVuSans-30"/>
       <use xlink:href="#DejaVuSans-2e" x="63.623047"/>
       <use xlink:href="#DejaVuSans-33" x="95.410156"/>
       <use xlink:href="#DejaVuSans-35" x="159.033203"/>
      </g>
     </g>
    </g>
    <g id="text_16">
     <!-- FDR -->
     <g transform="translate(22.254688 184.728)rotate(-90)scale(0.1 -0.1)">
      <defs>
       <path id="DejaVuSans-46" d="M 628 4666 
L 3309 4666 
L 3309 4134 
L 1259 4134 
L 1259 2759 
L 3109 2759 
L 3109 2228 
L 1259 2228 
L 1259 0 
L 628 0 
L 628 4666 
z
" transform="scale(0.015625)"/>
       <path id="DejaVuSans-44" d="M 1259 4147 
L 1259 519 
L 2022 519 
Q 2988 519 3436 956 
Q 3884 1394 3884 2338 
Q 3884 3275 3436 3711 
Q 2988 4147 2022 4147 
L 1259 4147 
z
M 628 4666 
L 1925 4666 
Q 3281 4666 3915 4102 
Q 4550 3538 4550 2338 
Q 4550 1131 3912 565 
Q 3275 0 1925 0 
L 628 0 
L 628 4666 
z
" transform="scale(0.015625)"/>
       <path id="DejaVuSans-52" d="M 2841 2188 
Q 3044 2119 3236 1894 
Q 3428 1669 3622 1275 
L 4263 0 
L 3584 0 
L 2988 1197 
Q 2756 1666 2539 1819 
Q 2322 1972 1947 1972 
L 1259 1972 
L 1259 0 
L 628 0 
L 628 4666 
L 2053 4666 
Q 2853 4666 3247 4331 
Q 3641 3997 3641 3322 
Q 3641 2881 3436 2590 
Q 3231 2300 2841 2188 
z
M 1259 4147 
L 1259 2491 
L 2053 2491 
Q 2509 2491 2742 2702 
Q 2975 2913 2975 3322 
Q 2975 3731 2742 3939 
Q 2509 4147 2053 4147 
L 1259 4147 
z
" transform="scale(0.015625)"/>
      </defs>
      <use xlink:href="#DejaVuSans-46"/>
      <use xlink:href="#DejaVuSans-44" x="57.519531"/>
      <use xlink:href="#DejaVuSans-52" x="134.521484"/>
     </g>
    </g>
   </g>
   <g id="line2d_15">
    <path d="M 73.832727 53.568 
L 73.952239 55.721998 
L 74.035898 57.169216 
L 74.406385 59.357082 
L 74.741019 65.293423 
L 74.932238 66.0461 
L 74.956141 65.680163 
L 74.968092 66.435863 
L 75.219067 68.717517 
L 75.493945 69.48296 
L 75.780774 73.347389 
L 75.924189 77.274963 
L 76.163213 76.917823 
L 76.390286 77.711766 
L 76.497846 78.508317 
L 76.581505 83.343103 
L 76.844432 84.97615 
L 76.92809 91.618495 
L 77.095407 92.461411 
L 77.107358 93.30718 
L 77.274675 95.007332 
L 77.310529 101.049884 
L 77.477845 101.924991 
L 77.549553 105.455755 
L 77.692967 106.346108 
L 77.71687 109.035814 
L 78.01565 113.581795 
L 78.362235 115.422677 
L 78.792478 118.208522 
L 78.840283 120.082306 
L 79.067356 121.024216 
L 79.127112 121.969497 
L 79.569307 124.825741 
L 79.880038 124.518241 
L 80.047355 125.47836 
L 80.166867 127.409034 
L 80.453696 128.379627 
L 81.099061 132.297487 
L 81.732475 133.285921 
L 81.923695 140.307656 
L 82.879791 141.325677 
L 83.094913 142.34749 
L 83.489303 143.373115 
L 83.525156 144.402574 
L 84.15857 145.435889 
L 84.469302 148.559186 
L 84.564911 150.661065 
L 85.270033 152.778897 
L 85.497106 154.912865 
L 85.592715 155.985957 
L 85.879544 160.319601 
L 86.261983 161.413449 
L 86.273934 162.511521 
L 86.763934 164.720432 
L 87.062714 168.066094 
L 87.481006 167.817223 
L 87.588567 168.942869 
L 88.257834 171.207429 
L 88.389298 174.637834 
L 88.927102 179.275488 
L 89.118321 180.446472 
L 89.464906 185.177532 
L 90.062467 186.37222 
L 90.373198 191.199536 
L 91.114173 193.642749 
L 91.891001 194.87185 
L 91.902953 194.665669 
L 92.309294 199.641317 
L 92.404903 202.160109 
L 93.169781 201.966081 
L 94.14978 203.235568 
L 94.627828 204.510355 
L 94.807096 205.790477 
L 95.452461 207.075965 
L 96.002217 209.663181 
L 98.500019 210.964976 
L 99.99392 212.272275 
L 101.535626 211.918918 
L 101.882211 213.236591 
L 103.639038 214.559884 
L 107.033181 215.888832 
L 107.069035 217.223471 
L 109.10074 218.563838 
L 109.136594 221.101589 
L 109.148545 220.94058 
L 110.905372 220.453342 
L 111.753908 221.824174 
L 113.869272 221.501087 
L 114.287564 221.338478 
L 116.797317 222.723338 
L 118.518291 222.562709 
L 119.952436 222.076541 
L 123.047799 223.478465 
L 124.637309 224.886649 
L 124.685114 224.728704 
L 124.912187 224.570051 
L 127.254624 225.99018 
L 127.696818 225.833654 
L 129.680719 227.108692 
L 130.170718 228.547459 
L 131.341937 229.992767 
L 131.724375 229.843575 
L 131.987302 231.151554 
L 132.752179 231.003993 
L 133.027057 232.47156 
L 134.126568 235.42703 
L 134.138519 235.288 
L 134.34169 235.148325 
L 134.73608 236.642595 
L 137.329491 236.505426 
L 137.664125 238.009849 
L 140.460708 237.87524 
L 140.890951 239.389941 
L 141.739487 240.911771 
L 142.06217 240.653727 
L 143.830948 240.262054 
L 143.95046 240.13025 
L 143.998265 241.679336 
L 144.034119 241.550298 
L 144.655582 243.110245 
L 145.408508 242.729777 
L 146.854604 242.213805 
L 147.033872 241.952015 
L 147.11753 243.551374 
L 147.153384 243.423135 
L 147.60753 245.034053 
L 148.934114 244.656592 
L 149.125333 244.401798 
L 149.782649 246.03946 
L 149.854357 245.914904 
L 151.228746 245.537444 
L 152.435817 245.025131 
L 154.563132 246.702285 
L 155.662643 246.576548 
L 155.698497 246.450162 
L 156.977276 248.144043 
L 157.168496 249.727865 
L 157.527032 249.488283 
L 159.331664 251.095852 
L 159.48703 250.978722 
L 160.77776 250.742599 
L 160.968979 250.623595 
L 162.283612 254.031526 
L 164.171903 253.808041 
L 164.207757 253.695392 
L 164.375074 253.582133 
L 166.538242 253.238642 
L 166.777266 253.006503 
L 167.20751 254.825771 
L 167.530192 254.713444 
L 168.283118 256.547519 
L 169.693361 256.330581 
L 171.079701 256.111211 
L 171.330676 256.000602 
L 171.462139 255.77751 
L 172.597504 257.656165 
L 173.159211 257.548688 
L 173.601406 257.331892 
L 174.641161 257.112604 
L 174.712868 258.922213 
L 174.73677 258.816226 
L 175.597257 258.602396 
L 175.716769 260.549735 
L 178.011401 260.447277 
L 179.134815 262.313927 
L 179.158717 262.215779 
L 180.198472 261.716196 
L 181.85969 261.512137 
L 182.038958 263.539106 
L 182.827738 263.047584 
L 182.839689 265.116829 
L 183.162371 267.198886 
L 184.369443 269.212274 
L 184.453102 269.130162 
L 185.755783 268.796519 
L 186.030661 270.943135 
L 186.042612 270.864967 
L 186.604319 273.031908 
L 186.676026 272.959933 
L 187.464806 272.741214 
L 187.79944 272.518207 
L 190.440657 272.136649 
L 191.946509 271.7422 
L 194.82675 270.997558 
L 194.862603 270.825696 
L 195.72309 270.651404 
L 196.930162 270.295323 
L 196.954065 270.204702 
L 197.40821 270.113427 
L 197.910161 272.568141 
L 199.153087 272.316274 
L 199.643086 272.145265 
L 200.145037 271.883966 
L 200.790402 271.706492 
L 201.543328 271.43522 
L 202.929668 271.250908 
L 203.216497 270.969081 
L 203.622838 273.608602 
L 204.985276 273.436998 
L 205.714299 273.262682 
L 206.048933 272.814591 
L 207.734054 272.630254 
L 208.355516 272.442896 
L 209.933076 272.156027 
L 210.112344 271.861927 
L 210.745758 274.727959 
L 212.359171 274.096132 
L 213.076243 273.908484 
L 214.151852 276.909788 
L 214.199657 276.827584 
L 215.143802 276.405402 
L 215.179656 279.513553 
L 217.474287 278.988571 
L 217.510141 278.832178 
L 219.159408 278.510327 
L 219.912334 278.090087 
L 222.529648 277.827807 
L 222.912087 277.465547 
L 223.605257 277.278786 
L 224.059403 277.088113 
L 224.800377 276.893405 
L 225.02745 276.593493 
L 225.505499 276.388118 
L 227.453546 275.405838 
L 227.489399 275.290423 
L 228.815983 274.93608 
L 230.238177 274.569081 
L 230.871591 274.317046 
L 230.931347 274.188737 
L 231.421346 273.927396 
L 232.556711 273.384991 
L 232.616467 272.814591 
L 233.775734 277.231489 
L 233.811588 277.112165 
L 233.919149 276.744649 
L 234.02671 276.49136 
L 236.201829 276.098326 
L 236.727682 275.827142 
L 237.122072 275.688685 
L 237.361096 275.261362 
L 237.839145 274.966082 
L 237.958657 274.815186 
L 238.699632 274.662054 
L 239.010363 274.188737 
L 239.811094 273.861056 
L 242.165482 273.693405 
L 242.356701 273.350183 
L 242.894505 273.174486 
L 243.169383 272.814591 
L 243.551822 272.630254 
L 244.794747 272.442896 
L 245.033771 271.861927 
L 245.894258 271.458062 
L 246.001819 271.04015 
L 246.491819 270.825696 
L 246.766696 276.827584 
L 247.722793 276.660973 
L 247.806451 282.823573 
L 249.061328 282.471784 
L 249.121084 282.226195 
L 249.993522 281.97116 
L 250.280351 281.706124 
L 250.328156 288.528835 
L 252.933519 288.315799 
L 253.268153 288.089309 
L 253.33986 288.010599 
L 257.128393 287.67827 
L 257.78571 287.315027 
L 261.538389 286.59084 
L 267.370578 285.446919 
L 270.250819 285.151593 
L 270.95594 284.838369 
L 271.290574 284.505568 
L 272.174963 284.331243 
L 272.24667 284.151296 
L 273.071304 283.965448 
L 273.178865 283.574853 
L 273.585206 283.369454 
L 274.708619 283.156848 
L 275.138863 295.488 
L 398.487273 295.488 
L 398.487273 295.488 
" clip-path="url(#pa455e24c2a)" style="fill: none; stroke: #1f77b4; stroke-width: 1.5; stroke-linecap: square"/>
   </g>
   <g id="patch_3">
    <path d="M 57.6 307.584 
L 57.6 41.472 
" style="fill: none; stroke: #000000; stroke-width: 0.8; stroke-linejoin: miter; stroke-linecap: square"/>
   </g>
   <g id="patch_4">
    <path d="M 414.72 307.584 
L 414.72 41.472 
" style="fill: none; stroke: #000000; stroke-width: 0.8; stroke-linejoin: miter; stroke-linecap: square"/>
   </g>
   <g id="patch_5">
    <path d="M 57.6 307.584 
L 414.72 307.584 
" style="fill: none; stroke: #000000; stroke-width: 0.8; stroke-linejoin: miter; stroke-linecap: square"/>
   </g>
   <g id="patch_6">
    <path d="M 57.6 41.472 
L 414.72 41.472 
" style="fill: none; stroke: #000000; stroke-width: 0.8; stroke-linejoin: miter; stroke-linecap: square"/>
   </g>
   <g id="text_17">
    <!-- (4.15, 0.344) -->
    <g transform="translate(73.832727 53.568)scale(0.1 -0.1)">
     <defs>
      <path id="DejaVuSans-28" d="M 1984 4856 
Q 1566 4138 1362 3434 
Q 1159 2731 1159 2009 
Q 1159 1288 1364 580 
Q 1569 -128 1984 -844 
L 1484 -844 
Q 1016 -109 783 600 
Q 550 1309 550 2009 
Q 550 2706 781 3412 
Q 1013 4119 1484 4856 
L 1984 4856 
z
" transform="scale(0.015625)"/>
      <path id="DejaVuSans-34" d="M 2419 4116 
L 825 1625 
L 2419 1625 
L 2419 4116 
z
M 2253 4666 
L 3047 4666 
L 3047 1625 
L 3713 1625 
L 3713 1100 
L 3047 1100 
L 3047 0 
L 2419 0 
L 2419 1100 
L 313 1100 
L 313 1709 
L 2253 4666 
z
" transform="scale(0.015625)"/>
      <path id="DejaVuSans-2c" d="M 750 794 
L 1409 794 
L 1409 256 
L 897 -744 
L 494 -744 
L 750 256 
L 750 794 
z
" transform="scale(0.015625)"/>
      <path id="DejaVuSans-20" transform="scale(0.015625)"/>
      <path id="DejaVuSans-29" d="M 513 4856 
L 1013 4856 
Q 1481 4119 1714 3412 
Q 1947 2706 1947 2009 
Q 1947 1309 1714 600 
Q 1481 -109 1013 -844 
L 513 -844 
Q 928 -128 1133 580 
Q 1338 1288 1338 2009 
Q 1338 2731 1133 3434 
Q 928 4138 513 4856 
z
" transform="scale(0.015625)"/>
     </defs>
     <use xlink:href="#DejaVuSans-28"/>
     <use xlink:href="#DejaVuSans-34" x="39.013672"/>
     <use xlink:href="#DejaVuSans-2e" x="102.636719"/>
     <use xlink:href="#DejaVuSans-31" x="134.423828"/>
     <use xlink:href="#DejaVuSans-35" x="198.046875"/>
     <use xlink:href="#DejaVuSans-2c" x="261.669922"/>
     <use xlink:href="#DejaVuSans-20" x="293.457031"/>
     <use xlink:href="#DejaVuSans-30" x="325.244141"/>
     <use xlink:href="#DejaVuSans-2e" x="388.867188"/>
     <use xlink:href="#DejaVuSans-33" x="420.654297"/>
     <use xlink:href="#DejaVuSans-34" x="484.277344"/>
     <use xlink:href="#DejaVuSans-34" x="547.900391"/>
     <use xlink:href="#DejaVuSans-29" x="611.523438"/>
    </g>
   </g>
   <g id="text_18">
    <!-- (89.4, 0.05) -->
    <g transform="translate(175.716769 260.549735)scale(0.1 -0.1)">
     <defs>
      <path id="DejaVuSans-38" d="M 2034 2216 
Q 1584 2216 1326 1975 
Q 1069 1734 1069 1313 
Q 1069 891 1326 650 
Q 1584 409 2034 409 
Q 2484 409 2743 651 
Q 3003 894 3003 1313 
Q 3003 1734 2745 1975 
Q 2488 2216 2034 2216 
z
M 1403 2484 
Q 997 2584 770 2862 
Q 544 3141 544 3541 
Q 544 4100 942 4425 
Q 1341 4750 2034 4750 
Q 2731 4750 3128 4425 
Q 3525 4100 3525 3541 
Q 3525 3141 3298 2862 
Q 3072 2584 2669 2484 
Q 3125 2378 3379 2068 
Q 3634 1759 3634 1313 
Q 3634 634 3220 271 
Q 2806 -91 2034 -91 
Q 1263 -91 848 271 
Q 434 634 434 1313 
Q 434 1759 690 2068 
Q 947 2378 1403 2484 
z
M 1172 3481 
Q 1172 3119 1398 2916 
Q 1625 2713 2034 2713 
Q 2441 2713 2670 2916 
Q 2900 3119 2900 3481 
Q 2900 3844 2670 4047 
Q 2441 4250 2034 4250 
Q 1625 4250 1398 4047 
Q 1172 3844 1172 3481 
z
" transform="scale(0.015625)"/>
      <path id="DejaVuSans-39" d="M 703 97 
L 703 672 
Q 941 559 1184 500 
Q 1428 441 1663 441 
Q 2288 441 2617 861 
Q 2947 1281 2994 2138 
Q 2813 1869 2534 1725 
Q 2256 1581 1919 1581 
Q 1219 1581 811 2004 
Q 403 2428 403 3163 
Q 403 3881 828 4315 
Q 1253 4750 1959 4750 
Q 2769 4750 3195 4129 
Q 3622 3509 3622 2328 
Q 3622 1225 3098 567 
Q 2575 -91 1691 -91 
Q 1453 -91 1209 -44 
Q 966 3 703 97 
z
M 1959 2075 
Q 2384 2075 2632 2365 
Q 2881 2656 2881 3163 
Q 2881 3666 2632 3958 
Q 2384 4250 1959 4250 
Q 1534 4250 1286 3958 
Q 1038 3666 1038 3163 
Q 1038 2656 1286 2365 
Q 1534 2075 1959 2075 
z
" transform="scale(0.015625)"/>
     </defs>
     <use xlink:href="#DejaVuSans-28"/>
     <use xlink:href="#DejaVuSans-38" x="39.013672"/>
     <use xlink:href="#DejaVuSans-39" x="102.636719"/>
     <use xlink:href="#DejaVuSans-2e" x="166.259766"/>
     <use xlink:href="#DejaVuSans-34" x="198.046875"/>
     <use xlink:href="#DejaVuSans-2c" x="261.669922"/>
     <use xlink:href="#DejaVuSans-20" x="293.457031"/>
     <use xlink:href="#DejaVuSans-30" x="325.244141"/>
     <use xlink:href="#DejaVuSans-2e" x="388.867188"/>
     <use xlink:href="#DejaVuSans-30" x="420.654297"/>
     <use xlink:href="#DejaVuSans-35" x="484.277344"/>
     <use xlink:href="#DejaVuSans-29" x="547.900391"/>
    </g>
   </g>
   <g id="text_19">
    <!-- (151.83, 0.01) -->
    <g transform="translate(250.328156 288.528835)scale(0.1 -0.1)">
     <use xlink:href="#DejaVuSans-28"/>
     <use xlink:href="#DejaVuSans-31" x="39.013672"/>
     <use xlink:href="#DejaVuSans-35" x="102.636719"/>
     <use xlink:href="#DejaVuSans-31" x="166.259766"/>
     <use xlink:href="#DejaVuSans-2e" x="229.882812"/>
     <use xlink:href="#DejaVuSans-38" x="261.669922"/>
     <use xlink:href="#DejaVuSans-33" x="325.292969"/>
     <use xlink:href="#DejaVuSans-2c" x="388.916016"/>
     <use xlink:href="#DejaVuSans-20" x="420.703125"/>
     <use xlink:href="#DejaVuSans-30" x="452.490234"/>
     <use xlink:href="#DejaVuSans-2e" x="516.113281"/>
     <use xlink:href="#DejaVuSans-30" x="547.900391"/>
     <use xlink:href="#DejaVuSans-31" x="611.523438"/>
     <use xlink:href="#DejaVuSans-29" x="675.146484"/>
    </g>
   </g>
   <g id="text_20">
    <!-- Real FDR dependent on the score -->
    <g transform="translate(135.55125 35.472)scale(0.12 -0.12)">
     <defs>
      <path id="DejaVuSans-61" d="M 2194 1759 
Q 1497 1759 1228 1600 
Q 959 1441 959 1056 
Q 959 750 1161 570 
Q 1363 391 1709 391 
Q 2188 391 2477 730 
Q 2766 1069 2766 1631 
L 2766 1759 
L 2194 1759 
z
M 3341 1997 
L 3341 0 
L 2766 0 
L 2766 531 
Q 2569 213 2275 61 
Q 1981 -91 1556 -91 
Q 1019 -91 701 211 
Q 384 513 384 1019 
Q 384 1609 779 1909 
Q 1175 2209 1959 2209 
L 2766 2209 
L 2766 2266 
Q 2766 2663 2505 2880 
Q 2244 3097 1772 3097 
Q 1472 3097 1187 3025 
Q 903 2953 641 2809 
L 641 3341 
Q 956 3463 1253 3523 
Q 1550 3584 1831 3584 
Q 2591 3584 2966 3190 
Q 3341 2797 3341 1997 
z
" transform="scale(0.015625)"/>
      <path id="DejaVuSans-6c" d="M 603 4863 
L 1178 4863 
L 1178 0 
L 603 0 
L 603 4863 
z
" transform="scale(0.015625)"/>
      <path id="DejaVuSans-64" d="M 2906 2969 
L 2906 4863 
L 3481 4863 
L 3481 0 
L 2906 0 
L 2906 525 
Q 2725 213 2448 61 
Q 2172 -91 1784 -91 
Q 1150 -91 751 415 
Q 353 922 353 1747 
Q 353 2572 751 3078 
Q 1150 3584 1784 3584 
Q 2172 3584 2448 3432 
Q 2725 3281 2906 2969 
z
M 947 1747 
Q 947 1113 1208 752 
Q 1469 391 1925 391 
Q 2381 391 2643 752 
Q 2906 1113 2906 1747 
Q 2906 2381 2643 2742 
Q 2381 3103 1925 3103 
Q 1469 3103 1208 2742 
Q 947 2381 947 1747 
z
" transform="scale(0.015625)"/>
      <path id="DejaVuSans-70" d="M 1159 525 
L 1159 -1331 
L 581 -1331 
L 581 3500 
L 1159 3500 
L 1159 2969 
Q 1341 3281 1617 3432 
Q 1894 3584 2278 3584 
Q 2916 3584 3314 3078 
Q 3713 2572 3713 1747 
Q 3713 922 3314 415 
Q 2916 -91 2278 -91 
Q 1894 -91 1617 61 
Q 1341 213 1159 525 
z
M 3116 1747 
Q 3116 2381 2855 2742 
Q 2594 3103 2138 3103 
Q 1681 3103 1420 2742 
Q 1159 2381 1159 1747 
Q 1159 1113 1420 752 
Q 1681 391 2138 391 
Q 2594 391 2855 752 
Q 3116 1113 3116 1747 
z
" transform="scale(0.015625)"/>
      <path id="DejaVuSans-6e" d="M 3513 2113 
L 3513 0 
L 2938 0 
L 2938 2094 
Q 2938 2591 2744 2837 
Q 2550 3084 2163 3084 
Q 1697 3084 1428 2787 
Q 1159 2491 1159 1978 
L 1159 0 
L 581 0 
L 581 3500 
L 1159 3500 
L 1159 2956 
Q 1366 3272 1645 3428 
Q 1925 3584 2291 3584 
Q 2894 3584 3203 3211 
Q 3513 2838 3513 2113 
z
" transform="scale(0.015625)"/>
      <path id="DejaVuSans-74" d="M 1172 4494 
L 1172 3500 
L 2356 3500 
L 2356 3053 
L 1172 3053 
L 1172 1153 
Q 1172 725 1289 603 
Q 1406 481 1766 481 
L 2356 481 
L 2356 0 
L 1766 0 
Q 1100 0 847 248 
Q 594 497 594 1153 
L 594 3053 
L 172 3053 
L 172 3500 
L 594 3500 
L 594 4494 
L 1172 4494 
z
" transform="scale(0.015625)"/>
      <path id="DejaVuSans-68" d="M 3513 2113 
L 3513 0 
L 2938 0 
L 2938 2094 
Q 2938 2591 2744 2837 
Q 2550 3084 2163 3084 
Q 1697 3084 1428 2787 
Q 1159 2491 1159 1978 
L 1159 0 
L 581 0 
L 581 4863 
L 1159 4863 
L 1159 2956 
Q 1366 3272 1645 3428 
Q 1925 3584 2291 3584 
Q 2894 3584 3203 3211 
Q 3513 2838 3513 2113 
z
" transform="scale(0.015625)"/>
      <path id="DejaVuSans-73" d="M 2834 3397 
L 2834 2853 
Q 2591 2978 2328 3040 
Q 2066 3103 1784 3103 
Q 1356 3103 1142 2972 
Q 928 2841 928 2578 
Q 928 2378 1081 2264 
Q 1234 2150 1697 2047 
L 1894 2003 
Q 2506 1872 2764 1633 
Q 3022 1394 3022 966 
Q 3022 478 2636 193 
Q 2250 -91 1575 -91 
Q 1294 -91 989 -36 
Q 684 19 347 128 
L 347 722 
Q 666 556 975 473 
Q 1284 391 1588 391 
Q 1994 391 2212 530 
Q 2431 669 2431 922 
Q 2431 1156 2273 1281 
Q 2116 1406 1581 1522 
L 1381 1569 
Q 847 1681 609 1914 
Q 372 2147 372 2553 
Q 372 3047 722 3315 
Q 1072 3584 1716 3584 
Q 2034 3584 2315 3537 
Q 2597 3491 2834 3397 
z
" transform="scale(0.015625)"/>
     </defs>
     <use xlink:href="#DejaVuSans-52"/>
     <use xlink:href="#DejaVuSans-65" x="64.982422"/>
     <use xlink:href="#DejaVuSans-61" x="126.505859"/>
     <use xlink:href="#DejaVuSans-6c" x="187.785156"/>
     <use xlink:href="#DejaVuSans-20" x="215.568359"/>
     <use xlink:href="#DejaVuSans-46" x="247.355469"/>
     <use xlink:href="#DejaVuSans-44" x="304.875"/>
     <use xlink:href="#DejaVuSans-52" x="381.876953"/>
     <use xlink:href="#DejaVuSans-20" x="451.359375"/>
     <use xlink:href="#DejaVuSans-64" x="483.146484"/>
     <use xlink:href="#DejaVuSans-65" x="546.623047"/>
     <use xlink:href="#DejaVuSans-70" x="608.146484"/>
     <use xlink:href="#DejaVuSans-65" x="671.623047"/>
     <use xlink:href="#DejaVuSans-6e" x="733.146484"/>
     <use xlink:href="#DejaVuSans-64" x="796.525391"/>
     <use xlink:href="#DejaVuSans-65" x="860.001953"/>
     <use xlink:href="#DejaVuSans-6e" x="921.525391"/>
     <use xlink:href="#DejaVuSans-74" x="984.904297"/>
     <use xlink:href="#DejaVuSans-20" x="1024.113281"/>
     <use xlink:href="#DejaVuSans-6f" x="1055.900391"/>
     <use xlink:href="#DejaVuSans-6e" x="1117.082031"/>
     <use xlink:href="#DejaVuSans-20" x="1180.460938"/>
     <use xlink:href="#DejaVuSans-74" x="1212.248047"/>
     <use xlink:href="#DejaVuSans-68" x="1251.457031"/>
     <use xlink:href="#DejaVuSans-65" x="1314.835938"/>
     <use xlink:href="#DejaVuSans-20" x="1376.359375"/>
     <use xlink:href="#DejaVuSans-73" x="1408.146484"/>
     <use xlink:href="#DejaVuSans-63" x="1460.246094"/>
     <use xlink:href="#DejaVuSans-6f" x="1515.226562"/>
     <use xlink:href="#DejaVuSans-72" x="1576.408203"/>
     <use xlink:href="#DejaVuSans-65" x="1615.271484"/>
    </g>
   </g>
  </g>
 </g>
 <defs>
  <clipPath id="pa455e24c2a">
   <rect x="57.6" y="41.472" width="357.12" height="266.112"/>
  </clipPath>
 </defs>
</svg>
