<?xml version="1.0" encoding="utf-8" standalone="no"?>
<!DOCTYPE svg PUBLIC "-//W3C//DTD SVG 1.1//EN"
  "http://www.w3.org/Graphics/SVG/1.1/DTD/svg11.dtd">
<svg xmlns:xlink="http://www.w3.org/1999/xlink" width="460.8pt" height="345.6pt" viewBox="0 0 460.8 345.6" xmlns="http://www.w3.org/2000/svg" version="1.1">
 <metadata>
  <rdf:RDF xmlns:dc="http://purl.org/dc/elements/1.1/" xmlns:cc="http://creativecommons.org/ns#" xmlns:rdf="http://www.w3.org/1999/02/22-rdf-syntax-ns#">
   <cc:Work>
    <dc:type rdf:resource="http://purl.org/dc/dcmitype/StillImage"/>
    <dc:date>2022-08-24T14:30:50.247469</dc:date>
    <dc:format>image/svg+xml</dc:format>
    <dc:creator>
     <cc:Agent>
      <dc:title>Matplotlib v3.5.1, https://matplotlib.org/</dc:title>
     </cc:Agent>
    </dc:creator>
   </cc:Work>
  </rdf:RDF>
 </metadata>
 <defs>
  <style type="text/css">*{stroke-linejoin: round; stroke-linecap: butt}</style>
 </defs>
 <g id="figure_1">
  <g id="patch_1">
   <path d="M 0 345.6 
L 460.8 345.6 
L 460.8 0 
L 0 0 
z
" style="fill: #ffffff"/>
  </g>
  <g id="axes_1">
   <g id="patch_2">
    <path d="M 57.6 307.584 
L 414.72 307.584 
L 414.72 41.472 
L 57.6 41.472 
z
" style="fill: #ffffff"/>
   </g>
   <g id="PolyCollection_1">
    <path d="M 73.832727 87.382033 
L 73.832727 307.584 
L 74.190557 307.584 
L 74.772031 307.584 
L 74.874644 307.584 
L 74.993044 307.584 
L 75.237737 307.584 
L 75.253523 307.584 
L 75.632402 307.584 
L 75.76922 307.584 
L 75.966553 307.584 
L 76.490142 307.584 
L 76.858497 307.584 
L 76.971634 307.584 
L 77.500486 307.584 
L 77.708343 307.584 
L 78.442421 307.584 
L 78.981798 307.584 
L 79.355414 307.584 
L 79.436979 307.584 
L 79.744818 307.584 
L 79.831644 307.584 
L 80.055288 307.584 
L 80.365758 307.584 
L 80.707802 307.584 
L 80.739375 307.584 
L 80.810415 307.584 
L 81.015641 307.584 
L 81.202449 307.584 
L 81.526075 307.584 
L 81.647106 307.584 
L 81.715515 307.584 
L 81.82339 307.584 
L 81.826021 307.584 
L 81.902323 307.584 
L 82.107549 307.584 
L 82.173327 307.584 
L 82.307513 307.584 
L 82.536419 307.584 
L 82.817947 307.584 
L 82.820578 307.584 
L 82.836365 307.584 
L 82.881094 307.584 
L 83.052115 307.584 
L 83.259973 307.584 
L 83.320488 307.584 
L 83.488879 307.584 
L 83.788825 307.584 
L 83.841447 307.584 
L 84.054566 307.584 
L 84.109819 307.584 
L 84.704449 307.584 
L 84.714973 307.584 
L 84.767595 307.584 
L 84.888626 307.584 
L 84.938617 307.584 
L 85.06491 307.584 
L 85.133319 307.584 
L 85.217514 307.584 
L 85.251718 307.584 
L 85.254349 307.584 
L 85.270136 307.584 
L 85.491149 307.584 
L 85.646384 307.584 
L 85.651646 307.584 
L 85.82793 307.584 
L 85.841086 307.584 
L 85.848979 307.584 
L 85.951592 307.584 
L 86.059467 307.584 
L 86.417297 307.584 
L 86.693563 307.584 
L 86.78039 307.584 
L 87.240833 307.584 
L 87.288193 307.584 
L 87.453952 307.584 
L 87.895978 307.584 
L 88.406412 307.584 
L 88.553754 307.584 
L 89.56936 307.584 
L 89.774586 307.584 
L 90.16662 307.584 
L 90.219243 307.584 
L 90.266602 307.584 
L 90.292913 307.584 
L 90.753357 307.584 
L 90.932272 307.584 
L 91.066458 307.584 
L 91.271684 307.584 
L 91.282209 307.584 
L 91.558474 307.584 
L 91.692661 307.584 
L 91.774225 307.584 
L 92.182046 307.584 
L 92.360961 307.584 
L 92.363592 307.584 
L 93.008213 307.584 
L 93.039786 307.584 
L 93.226594 307.584 
L 93.271323 307.584 
L 93.471287 307.584 
L 93.726504 307.584 
L 93.83701 307.584 
L 94.381649 307.584 
L 94.55004 307.584 
L 94.584244 307.584 
L 94.686857 307.584 
L 94.781577 307.584 
L 94.810519 307.584 
L 94.97891 307.584 
L 95.126251 307.584 
L 95.152562 307.584 
L 95.431459 307.584 
L 95.581432 307.584 
L 95.681414 307.584 
L 95.847174 307.584 
L 95.920845 307.584 
L 96.070818 307.584 
L 96.273413 307.584 
L 96.297093 307.584 
L 96.383919 307.584 
L 96.465483 307.584 
L 96.639136 307.584 
L 96.98118 307.584 
L 97.381107 307.584 
L 97.412681 307.584 
L 97.636325 307.584 
L 97.752093 307.584 
L 98.209905 307.584 
L 98.386189 307.584 
L 98.551949 307.584 
L 98.854526 307.584 
L 99.251822 307.584 
L 100.306895 307.584 
L 100.377935 307.584 
L 100.691036 307.584 
L 101.001506 307.584 
L 101.264617 307.584 
L 101.511941 307.584 
L 101.743478 307.584 
L 102.051317 307.584 
L 102.209183 307.584 
L 102.427565 307.584 
L 102.490711 307.584 
L 102.638053 307.584 
L 102.703831 307.584 
L 102.809075 307.584 
L 102.866959 307.584 
L 103.693126 307.584 
L 103.72733 307.584 
L 103.785214 307.584 
L 103.879934 307.584 
L 104.245658 307.584 
L 104.664003 307.584 
L 104.913958 307.584 
L 104.995522 307.584 
L 105.103398 307.584 
L 105.416499 307.584 
L 106.474203 307.584 
L 106.534718 307.584 
L 106.561029 307.584 
L 107.203018 307.584 
L 107.292476 307.584 
L 108.008136 307.584 
L 108.076545 307.584 
L 108.121274 307.584 
L 108.192314 307.584 
L 108.352811 307.584 
L 108.950071 307.584 
L 108.9948 307.584 
L 109.239493 307.584 
L 109.749927 307.584 
L 109.941998 307.584 
L 110.070922 307.584 
L 110.386654 307.584 
L 110.847097 307.584 
L 110.85236 307.584 
L 111.144412 307.584 
L 111.352269 307.584 
L 111.602224 307.584 
L 111.699575 307.584 
L 112.288942 307.584 
L 112.541528 307.584 
L 112.702026 307.584 
L 112.980923 307.584 
L 113.036176 307.584 
L 113.149313 307.584 
L 113.57029 307.584 
L 113.651854 307.584 
L 113.901809 307.584 
L 114.217542 307.584 
L 114.730607 307.584 
L 115.267352 307.584 
L 115.422587 307.584 
L 115.506782 307.584 
L 115.66728 307.584 
L 115.811991 307.584 
L 115.856719 307.584 
L 115.901448 307.584 
L 115.927759 307.584 
L 116.09615 307.584 
L 116.588166 307.584 
L 117.445906 307.584 
L 117.52747 307.584 
L 117.577461 307.584 
L 117.722172 307.584 
L 118.09842 307.584 
L 119.071928 307.584 
L 119.448176 307.584 
L 119.669189 307.584 
L 119.769171 307.584 
L 120.134894 307.584 
L 120.382218 307.584 
L 120.390111 307.584 
L 120.408529 307.584 
L 120.497987 307.584 
L 120.629542 307.584 
L 120.676902 307.584 
L 120.808457 307.584 
L 121.253113 307.584 
L 122.263457 307.584 
L 123.208024 307.584 
L 123.22381 307.584 
L 123.421143 307.584 
L 123.976306 307.584 
L 125.302382 307.584 
L 125.523395 307.584 
L 127.491461 307.584 
L 127.51251 307.584 
L 127.983477 307.584 
L 128.51496 307.584 
L 129.604237 307.584 
L 129.883134 307.584 
L 130.290955 307.584 
L 130.469871 307.584 
L 131.217104 307.584 
L 131.274988 307.584 
L 131.403912 307.584 
L 131.409175 307.584 
L 131.532837 307.584 
L 131.543361 307.584 
L 131.624925 307.584 
L 131.638081 307.584 
L 132.087999 307.584 
L 132.353741 307.584 
L 132.435305 307.584 
L 132.451092 307.584 
L 132.490558 307.584 
L 132.790504 307.584 
L 132.943108 307.584 
L 133.022041 307.584 
L 133.577204 307.584 
L 134.045541 307.584 
L 134.969058 307.584 
L 135.119031 307.584 
L 135.142711 307.584 
L 135.376879 307.584 
L 135.713661 307.584 
L 136.818724 307.584 
L 137.181817 307.584 
L 137.216021 307.584 
L 137.447558 307.584 
L 137.979041 307.584 
L 138.207947 307.584 
L 138.326347 307.584 
L 138.392124 307.584 
L 138.684177 307.584 
L 139.176193 307.584 
L 139.510344 307.584 
L 139.54981 307.584 
L 139.93132 307.584 
L 140.194431 307.584 
L 140.428599 307.584 
L 140.494377 307.584 
L 140.604883 307.584 
L 140.665398 307.584 
L 141.278446 307.584 
L 141.412632 307.584 
L 141.502089 307.584 
L 141.941484 307.584 
L 142.015155 307.584 
L 142.299314 307.584 
L 143.506991 307.584 
L 144.248962 307.584 
L 144.38841 307.584 
L 145.432959 307.584 
L 146.08021 307.584 
L 146.727462 307.584 
L 147.130021 307.584 
L 147.401024 307.584 
L 148.027227 307.584 
L 148.308755 307.584 
L 148.411368 307.584 
L 148.850763 307.584 
L 148.879705 307.584 
L 149.645356 307.584 
L 149.658512 307.584 
L 149.771649 307.584 
L 150.113693 307.584 
L 150.229461 307.584 
L 150.453105 307.584 
L 150.855664 307.584 
L 151.021423 307.584 
L 152.326451 307.584 
L 153.321008 307.584 
L 153.37363 307.584 
L 153.51571 307.584 
L 154.657609 307.584 
L 155.281181 307.584 
L 156.323098 307.584 
L 156.454653 307.584 
L 156.657248 307.584 
L 157.788623 307.584 
L 157.87808 307.584 
L 158.222755 307.584 
L 158.349048 307.584 
L 159.767213 307.584 
L 160.109256 307.584 
L 162.245713 307.584 
L 163.627042 307.584 
L 165.563535 307.584 
L 165.779285 307.584 
L 166.842251 307.584 
L 168.184114 307.584 
L 168.570887 307.584 
L 169.349693 307.584 
L 169.475986 307.584 
L 171.180942 307.584 
L 172.443872 307.584 
L 174.198818 307.584 
L 175.572254 307.584 
L 175.680129 307.584 
L 178.655908 307.584 
L 178.753259 307.584 
L 178.903232 307.584 
L 179.732029 307.584 
L 180.276668 307.584 
L 180.992328 307.584 
L 181.647473 307.584 
L 182.242103 307.584 
L 183.597121 307.584 
L 183.965476 307.584 
L 184.102293 307.584 
L 190.193299 307.584 
L 191.158914 307.584 
L 194.513571 307.584 
L 199.686322 307.584 
L 202.919948 307.584 
L 204.224976 307.584 
L 208.092699 307.584 
L 214.441553 307.584 
L 219.603778 307.584 
L 221.066672 307.584 
L 226.418338 307.584 
L 234.532662 307.584 
L 234.748413 307.584 
L 238.376705 307.584 
L 244.738714 307.584 
L 250.198255 307.584 
L 252.408382 307.584 
L 255.081584 307.584 
L 274.635948 307.584 
L 278.866763 307.584 
L 284.434179 307.584 
L 300.420767 307.584 
L 398.487273 307.584 
L 398.487273 307.584 
L 398.487273 307.584 
L 300.420767 307.584 
L 284.434179 307.584 
L 278.866763 307.584 
L 274.635948 307.584 
L 255.081584 307.584 
L 252.408382 307.584 
L 250.198255 307.584 
L 244.738714 307.584 
L 238.376705 307.584 
L 234.748413 307.584 
L 234.532662 307.584 
L 226.418338 307.584 
L 221.066672 307.584 
L 219.603778 307.584 
L 214.441553 306.891541 
L 208.092699 306.891541 
L 204.224976 306.199082 
L 202.919948 306.199082 
L 199.686322 306.199082 
L 194.513571 306.199082 
L 191.158914 306.199082 
L 190.193299 305.506623 
L 184.102293 304.814164 
L 183.965476 304.121705 
L 183.597121 303.429246 
L 182.242103 303.429246 
L 181.647473 303.429246 
L 180.992328 302.736787 
L 180.276668 302.044328 
L 179.732029 301.351869 
L 178.903232 301.351869 
L 178.753259 300.65941 
L 178.655908 300.65941 
L 175.680129 299.966951 
L 175.572254 299.274492 
L 174.198818 298.582033 
L 172.443872 298.582033 
L 171.180942 298.582033 
L 169.475986 297.889574 
L 169.349693 297.889574 
L 168.570887 297.197115 
L 168.184114 297.197115 
L 166.842251 296.504656 
L 165.779285 296.504656 
L 165.563535 295.812197 
L 163.627042 295.119738 
L 162.245713 294.427279 
L 160.109256 293.73482 
L 159.767213 293.73482 
L 158.349048 293.042361 
L 158.222755 292.349902 
L 157.87808 291.657443 
L 157.788623 290.964984 
L 156.657248 290.272525 
L 156.454653 289.580066 
L 156.323098 289.580066 
L 155.281181 288.887607 
L 154.657609 288.195148 
L 153.51571 287.502689 
L 153.37363 287.502689 
L 153.321008 286.81023 
L 152.326451 286.11777 
L 151.021423 285.425311 
L 150.855664 285.425311 
L 150.453105 284.732852 
L 150.229461 284.040393 
L 150.113693 283.347934 
L 149.771649 283.347934 
L 149.658512 282.655475 
L 149.645356 281.963016 
L 148.879705 281.270557 
L 148.850763 280.578098 
L 148.411368 280.578098 
L 148.308755 279.885639 
L 148.027227 279.885639 
L 147.401024 279.19318 
L 147.130021 278.500721 
L 146.727462 277.808262 
L 146.08021 277.115803 
L 145.432959 276.423344 
L 144.38841 275.730885 
L 144.248962 275.038426 
L 143.506991 274.345967 
L 142.299314 273.653508 
L 142.015155 272.961049 
L 141.941484 272.26859 
L 141.502089 271.576131 
L 141.412632 270.883672 
L 141.278446 270.191213 
L 140.665398 269.498754 
L 140.604883 268.806295 
L 140.494377 268.113836 
L 140.428599 267.421377 
L 140.194431 266.728918 
L 139.93132 266.036459 
L 139.54981 265.344 
L 139.510344 264.651541 
L 139.176193 263.959082 
L 138.684177 263.266623 
L 138.392124 263.266623 
L 138.326347 262.574164 
L 138.207947 261.881705 
L 137.979041 261.881705 
L 137.447558 261.189246 
L 137.216021 260.496787 
L 137.181817 259.804328 
L 136.818724 259.111869 
L 135.713661 258.41941 
L 135.376879 257.726951 
L 135.142711 257.034492 
L 135.119031 256.342033 
L 134.969058 255.649574 
L 134.045541 254.957115 
L 133.577204 254.264656 
L 133.022041 254.264656 
L 132.943108 253.572197 
L 132.790504 252.879738 
L 132.490558 252.187279 
L 132.451092 251.49482 
L 132.435305 250.802361 
L 132.353741 250.109902 
L 132.087999 249.417443 
L 131.638081 248.724984 
L 131.624925 248.032525 
L 131.543361 247.340066 
L 131.532837 246.647607 
L 131.409175 245.955148 
L 131.403912 245.262689 
L 131.274988 244.57023 
L 131.217104 243.87777 
L 130.469871 243.185311 
L 130.290955 242.492852 
L 129.883134 241.800393 
L 129.604237 241.107934 
L 128.51496 240.415475 
L 127.983477 239.723016 
L 127.51251 239.030557 
L 127.491461 238.338098 
L 125.523395 237.645639 
L 125.302382 236.95318 
L 123.976306 236.260721 
L 123.421143 235.568262 
L 123.22381 234.875803 
L 123.208024 234.183344 
L 122.263457 233.490885 
L 121.253113 232.798426 
L 120.808457 232.105967 
L 120.676902 231.413508 
L 120.629542 230.721049 
L 120.497987 230.02859 
L 120.408529 229.336131 
L 120.390111 228.643672 
L 120.382218 227.951213 
L 120.134894 227.258754 
L 119.769171 226.566295 
L 119.669189 225.873836 
L 119.448176 225.181377 
L 119.071928 224.488918 
L 118.09842 223.796459 
L 117.722172 223.104 
L 117.577461 222.411541 
L 117.52747 221.719082 
L 117.445906 221.026623 
L 116.588166 220.334164 
L 116.09615 220.334164 
L 115.927759 218.949246 
L 115.901448 218.256787 
L 115.856719 217.564328 
L 115.811991 216.871869 
L 115.66728 216.17941 
L 115.506782 215.486951 
L 115.422587 214.794492 
L 115.267352 214.102033 
L 114.730607 213.409574 
L 114.217542 212.717115 
L 113.901809 212.024656 
L 113.651854 211.332197 
L 113.57029 210.639738 
L 113.149313 209.947279 
L 113.036176 209.25482 
L 112.980923 208.562361 
L 112.702026 207.869902 
L 112.541528 207.177443 
L 112.288942 206.484984 
L 111.699575 205.792525 
L 111.602224 205.100066 
L 111.352269 204.407607 
L 111.144412 203.715148 
L 110.85236 203.022689 
L 110.847097 202.33023 
L 110.386654 201.63777 
L 110.070922 200.945311 
L 109.941998 200.252852 
L 109.749927 199.560393 
L 109.239493 198.867934 
L 108.9948 198.867934 
L 108.950071 198.175475 
L 108.352811 198.175475 
L 108.192314 197.483016 
L 108.121274 196.790557 
L 108.076545 196.098098 
L 108.008136 195.405639 
L 107.292476 194.71318 
L 107.203018 194.020721 
L 106.561029 193.328262 
L 106.534718 192.635803 
L 106.474203 192.635803 
L 105.416499 191.943344 
L 105.103398 191.250885 
L 104.995522 190.558426 
L 104.913958 189.865967 
L 104.664003 189.173508 
L 104.245658 188.481049 
L 103.879934 187.78859 
L 103.785214 187.096131 
L 103.72733 186.403672 
L 103.693126 185.711213 
L 102.866959 185.018754 
L 102.809075 184.326295 
L 102.703831 183.633836 
L 102.638053 182.941377 
L 102.490711 182.248918 
L 102.427565 181.556459 
L 102.209183 180.864 
L 102.051317 180.171541 
L 101.743478 179.479082 
L 101.511941 178.786623 
L 101.264617 178.094164 
L 101.001506 177.401705 
L 100.691036 176.709246 
L 100.377935 176.016787 
L 100.306895 175.324328 
L 99.251822 174.631869 
L 98.854526 173.93941 
L 98.551949 173.246951 
L 98.386189 172.554492 
L 98.209905 171.862033 
L 97.752093 171.169574 
L 97.636325 170.477115 
L 97.412681 169.784656 
L 97.381107 169.092197 
L 96.98118 168.399738 
L 96.639136 167.707279 
L 96.465483 167.01482 
L 96.383919 166.322361 
L 96.297093 165.629902 
L 96.273413 164.937443 
L 96.070818 164.244984 
L 95.920845 163.552525 
L 95.847174 162.860066 
L 95.681414 162.860066 
L 95.581432 162.167607 
L 95.431459 161.475148 
L 95.152562 160.782689 
L 95.126251 160.09023 
L 94.97891 160.09023 
L 94.810519 159.39777 
L 94.781577 158.705311 
L 94.686857 158.012852 
L 94.584244 157.320393 
L 94.55004 156.627934 
L 94.381649 155.935475 
L 93.83701 155.243016 
L 93.726504 154.550557 
L 93.471287 153.858098 
L 93.271323 153.165639 
L 93.226594 152.47318 
L 93.039786 151.780721 
L 93.008213 151.088262 
L 92.363592 150.395803 
L 92.360961 149.703344 
L 92.182046 149.010885 
L 91.774225 148.318426 
L 91.692661 147.625967 
L 91.558474 146.933508 
L 91.282209 146.241049 
L 91.271684 145.54859 
L 91.066458 144.856131 
L 90.932272 144.163672 
L 90.753357 143.471213 
L 90.292913 142.778754 
L 90.266602 142.086295 
L 90.219243 141.393836 
L 90.16662 140.701377 
L 89.774586 140.008918 
L 89.56936 139.316459 
L 88.553754 138.624 
L 88.406412 137.931541 
L 87.895978 137.239082 
L 87.453952 136.546623 
L 87.288193 135.854164 
L 87.240833 135.161705 
L 86.78039 134.469246 
L 86.693563 133.776787 
L 86.417297 133.084328 
L 86.059467 132.391869 
L 85.951592 131.69941 
L 85.848979 131.006951 
L 85.841086 130.314492 
L 85.82793 129.622033 
L 85.651646 128.929574 
L 85.646384 128.237115 
L 85.491149 127.544656 
L 85.270136 126.852197 
L 85.254349 126.852197 
L 85.251718 126.159738 
L 85.217514 125.467279 
L 85.133319 124.77482 
L 85.06491 124.082361 
L 84.938617 123.389902 
L 84.888626 122.697443 
L 84.767595 122.004984 
L 84.714973 121.312525 
L 84.704449 120.620066 
L 84.109819 119.927607 
L 84.054566 119.235148 
L 83.841447 118.542689 
L 83.788825 117.85023 
L 83.488879 117.15777 
L 83.320488 116.465311 
L 83.259973 115.772852 
L 83.052115 115.080393 
L 82.881094 114.387934 
L 82.836365 113.695475 
L 82.820578 113.003016 
L 82.817947 112.310557 
L 82.536419 111.618098 
L 82.307513 111.618098 
L 82.173327 110.925639 
L 82.107549 110.23318 
L 81.902323 109.540721 
L 81.826021 108.848262 
L 81.82339 108.155803 
L 81.715515 107.463344 
L 81.647106 106.770885 
L 81.526075 106.078426 
L 81.202449 105.385967 
L 81.015641 104.693508 
L 80.810415 104.001049 
L 80.739375 103.30859 
L 80.707802 102.616131 
L 80.365758 101.923672 
L 80.055288 101.231213 
L 79.831644 100.538754 
L 79.744818 99.846295 
L 79.436979 99.153836 
L 79.355414 98.461377 
L 78.981798 97.768918 
L 78.442421 97.076459 
L 77.708343 96.384 
L 77.500486 95.691541 
L 76.971634 94.999082 
L 76.858497 94.306623 
L 76.490142 93.614164 
L 75.966553 92.921705 
L 75.76922 92.229246 
L 75.632402 91.536787 
L 75.253523 90.844328 
L 75.237737 90.151869 
L 74.993044 89.45941 
L 74.874644 88.766951 
L 74.772031 88.074492 
L 74.190557 88.074492 
L 73.832727 87.382033 
z
" clip-path="url(#p35c329265a)" style="fill: #008000"/>
   </g>
   <g id="PolyCollection_2">
    <path d="M 73.832727 56.913836 
L 73.832727 87.382033 
L 74.190557 88.074492 
L 74.772031 88.074492 
L 74.874644 88.766951 
L 74.993044 89.45941 
L 75.237737 90.151869 
L 75.253523 90.844328 
L 75.632402 91.536787 
L 75.76922 92.229246 
L 75.966553 92.921705 
L 76.490142 93.614164 
L 76.858497 94.306623 
L 76.971634 94.999082 
L 77.500486 95.691541 
L 77.708343 96.384 
L 78.442421 97.076459 
L 78.981798 97.768918 
L 79.355414 98.461377 
L 79.436979 99.153836 
L 79.744818 99.846295 
L 79.831644 100.538754 
L 80.055288 101.231213 
L 80.365758 101.923672 
L 80.707802 102.616131 
L 80.739375 103.30859 
L 80.810415 104.001049 
L 81.015641 104.693508 
L 81.202449 105.385967 
L 81.526075 106.078426 
L 81.647106 106.770885 
L 81.715515 107.463344 
L 81.82339 108.155803 
L 81.826021 108.848262 
L 81.902323 109.540721 
L 82.107549 110.23318 
L 82.173327 110.925639 
L 82.307513 111.618098 
L 82.536419 111.618098 
L 82.817947 112.310557 
L 82.820578 113.003016 
L 82.836365 113.695475 
L 82.881094 114.387934 
L 83.052115 115.080393 
L 83.259973 115.772852 
L 83.320488 116.465311 
L 83.488879 117.15777 
L 83.788825 117.85023 
L 83.841447 118.542689 
L 84.054566 119.235148 
L 84.109819 119.927607 
L 84.704449 120.620066 
L 84.714973 121.312525 
L 84.767595 122.004984 
L 84.888626 122.697443 
L 84.938617 123.389902 
L 85.06491 124.082361 
L 85.133319 124.77482 
L 85.217514 125.467279 
L 85.251718 126.159738 
L 85.254349 126.852197 
L 85.270136 126.852197 
L 85.491149 127.544656 
L 85.646384 128.237115 
L 85.651646 128.929574 
L 85.82793 129.622033 
L 85.841086 130.314492 
L 85.848979 131.006951 
L 85.951592 131.69941 
L 86.059467 132.391869 
L 86.417297 133.084328 
L 86.693563 133.776787 
L 86.78039 134.469246 
L 87.240833 135.161705 
L 87.288193 135.854164 
L 87.453952 136.546623 
L 87.895978 137.239082 
L 88.406412 137.931541 
L 88.553754 138.624 
L 89.56936 139.316459 
L 89.774586 140.008918 
L 90.16662 140.701377 
L 90.219243 141.393836 
L 90.266602 142.086295 
L 90.292913 142.778754 
L 90.753357 143.471213 
L 90.932272 144.163672 
L 91.066458 144.856131 
L 91.271684 145.54859 
L 91.282209 146.241049 
L 91.558474 146.933508 
L 91.692661 147.625967 
L 91.774225 148.318426 
L 92.182046 149.010885 
L 92.360961 149.703344 
L 92.363592 150.395803 
L 93.008213 151.088262 
L 93.039786 151.780721 
L 93.226594 152.47318 
L 93.271323 153.165639 
L 93.471287 153.858098 
L 93.726504 154.550557 
L 93.83701 155.243016 
L 94.381649 155.935475 
L 94.55004 156.627934 
L 94.584244 157.320393 
L 94.686857 158.012852 
L 94.781577 158.705311 
L 94.810519 159.39777 
L 94.97891 160.09023 
L 95.126251 160.09023 
L 95.152562 160.782689 
L 95.431459 161.475148 
L 95.581432 162.167607 
L 95.681414 162.860066 
L 95.847174 162.860066 
L 95.920845 163.552525 
L 96.070818 164.244984 
L 96.273413 164.937443 
L 96.297093 165.629902 
L 96.383919 166.322361 
L 96.465483 167.01482 
L 96.639136 167.707279 
L 96.98118 168.399738 
L 97.381107 169.092197 
L 97.412681 169.784656 
L 97.636325 170.477115 
L 97.752093 171.169574 
L 98.209905 171.862033 
L 98.386189 172.554492 
L 98.551949 173.246951 
L 98.854526 173.93941 
L 99.251822 174.631869 
L 100.306895 175.324328 
L 100.377935 176.016787 
L 100.691036 176.709246 
L 101.001506 177.401705 
L 101.264617 178.094164 
L 101.511941 178.786623 
L 101.743478 179.479082 
L 102.051317 180.171541 
L 102.209183 180.864 
L 102.427565 181.556459 
L 102.490711 182.248918 
L 102.638053 182.941377 
L 102.703831 183.633836 
L 102.809075 184.326295 
L 102.866959 185.018754 
L 103.693126 185.711213 
L 103.72733 186.403672 
L 103.785214 187.096131 
L 103.879934 187.78859 
L 104.245658 188.481049 
L 104.664003 189.173508 
L 104.913958 189.865967 
L 104.995522 190.558426 
L 105.103398 191.250885 
L 105.416499 191.943344 
L 106.474203 192.635803 
L 106.534718 192.635803 
L 106.561029 193.328262 
L 107.203018 194.020721 
L 107.292476 194.71318 
L 108.008136 195.405639 
L 108.076545 196.098098 
L 108.121274 196.790557 
L 108.192314 197.483016 
L 108.352811 198.175475 
L 108.950071 198.175475 
L 108.9948 198.867934 
L 109.239493 198.867934 
L 109.749927 199.560393 
L 109.941998 200.252852 
L 110.070922 200.945311 
L 110.386654 201.63777 
L 110.847097 202.33023 
L 110.85236 203.022689 
L 111.144412 203.715148 
L 111.352269 204.407607 
L 111.602224 205.100066 
L 111.699575 205.792525 
L 112.288942 206.484984 
L 112.541528 207.177443 
L 112.702026 207.869902 
L 112.980923 208.562361 
L 113.036176 209.25482 
L 113.149313 209.947279 
L 113.57029 210.639738 
L 113.651854 211.332197 
L 113.901809 212.024656 
L 114.217542 212.717115 
L 114.730607 213.409574 
L 115.267352 214.102033 
L 115.422587 214.794492 
L 115.506782 215.486951 
L 115.66728 216.17941 
L 115.811991 216.871869 
L 115.856719 217.564328 
L 115.901448 218.256787 
L 115.927759 218.949246 
L 116.09615 220.334164 
L 116.588166 220.334164 
L 117.445906 221.026623 
L 117.52747 221.719082 
L 117.577461 222.411541 
L 117.722172 223.104 
L 118.09842 223.796459 
L 119.071928 224.488918 
L 119.448176 225.181377 
L 119.669189 225.873836 
L 119.769171 226.566295 
L 120.134894 227.258754 
L 120.382218 227.951213 
L 120.390111 228.643672 
L 120.408529 229.336131 
L 120.497987 230.02859 
L 120.629542 230.721049 
L 120.676902 231.413508 
L 120.808457 232.105967 
L 121.253113 232.798426 
L 122.263457 233.490885 
L 123.208024 234.183344 
L 123.22381 234.875803 
L 123.421143 235.568262 
L 123.976306 236.260721 
L 125.302382 236.95318 
L 125.523395 237.645639 
L 127.491461 238.338098 
L 127.51251 239.030557 
L 127.983477 239.723016 
L 128.51496 240.415475 
L 129.604237 241.107934 
L 129.883134 241.800393 
L 130.290955 242.492852 
L 130.469871 243.185311 
L 131.217104 243.87777 
L 131.274988 244.57023 
L 131.403912 245.262689 
L 131.409175 245.955148 
L 131.532837 246.647607 
L 131.543361 247.340066 
L 131.624925 248.032525 
L 131.638081 248.724984 
L 132.087999 249.417443 
L 132.353741 250.109902 
L 132.435305 250.802361 
L 132.451092 251.49482 
L 132.490558 252.187279 
L 132.790504 252.879738 
L 132.943108 253.572197 
L 133.022041 254.264656 
L 133.577204 254.264656 
L 134.045541 254.957115 
L 134.969058 255.649574 
L 135.119031 256.342033 
L 135.142711 257.034492 
L 135.376879 257.726951 
L 135.713661 258.41941 
L 136.818724 259.111869 
L 137.181817 259.804328 
L 137.216021 260.496787 
L 137.447558 261.189246 
L 137.979041 261.881705 
L 138.207947 261.881705 
L 138.326347 262.574164 
L 138.392124 263.266623 
L 138.684177 263.266623 
L 139.176193 263.959082 
L 139.510344 264.651541 
L 139.54981 265.344 
L 139.93132 266.036459 
L 140.194431 266.728918 
L 140.428599 267.421377 
L 140.494377 268.113836 
L 140.604883 268.806295 
L 140.665398 269.498754 
L 141.278446 270.191213 
L 141.412632 270.883672 
L 141.502089 271.576131 
L 141.941484 272.26859 
L 142.015155 272.961049 
L 142.299314 273.653508 
L 143.506991 274.345967 
L 144.248962 275.038426 
L 144.38841 275.730885 
L 145.432959 276.423344 
L 146.08021 277.115803 
L 146.727462 277.808262 
L 147.130021 278.500721 
L 147.401024 279.19318 
L 148.027227 279.885639 
L 148.308755 279.885639 
L 148.411368 280.578098 
L 148.850763 280.578098 
L 148.879705 281.270557 
L 149.645356 281.963016 
L 149.658512 282.655475 
L 149.771649 283.347934 
L 150.113693 283.347934 
L 150.229461 284.040393 
L 150.453105 284.732852 
L 150.855664 285.425311 
L 151.021423 285.425311 
L 152.326451 286.11777 
L 153.321008 286.81023 
L 153.37363 287.502689 
L 153.51571 287.502689 
L 154.657609 288.195148 
L 155.281181 288.887607 
L 156.323098 289.580066 
L 156.454653 289.580066 
L 156.657248 290.272525 
L 157.788623 290.964984 
L 157.87808 291.657443 
L 158.222755 292.349902 
L 158.349048 293.042361 
L 159.767213 293.73482 
L 160.109256 293.73482 
L 162.245713 294.427279 
L 163.627042 295.119738 
L 165.563535 295.812197 
L 165.779285 296.504656 
L 166.842251 296.504656 
L 168.184114 297.197115 
L 168.570887 297.197115 
L 169.349693 297.889574 
L 169.475986 297.889574 
L 171.180942 298.582033 
L 172.443872 298.582033 
L 174.198818 298.582033 
L 175.572254 299.274492 
L 175.680129 299.966951 
L 178.655908 300.65941 
L 178.753259 300.65941 
L 178.903232 301.351869 
L 179.732029 301.351869 
L 180.276668 302.044328 
L 180.992328 302.736787 
L 181.647473 303.429246 
L 182.242103 303.429246 
L 183.597121 303.429246 
L 183.965476 304.121705 
L 184.102293 304.814164 
L 190.193299 305.506623 
L 191.158914 306.199082 
L 194.513571 306.199082 
L 199.686322 306.199082 
L 202.919948 306.199082 
L 204.224976 306.199082 
L 208.092699 306.891541 
L 214.441553 306.891541 
L 219.603778 307.584 
L 221.066672 307.584 
L 226.418338 307.584 
L 234.532662 307.584 
L 234.748413 307.584 
L 238.376705 307.584 
L 244.738714 307.584 
L 250.198255 307.584 
L 252.408382 307.584 
L 255.081584 307.584 
L 274.635948 307.584 
L 278.866763 307.584 
L 284.434179 307.584 
L 300.420767 307.584 
L 398.487273 307.584 
L 398.487273 306.891541 
L 398.487273 306.891541 
L 300.420767 306.199082 
L 284.434179 305.506623 
L 278.866763 304.814164 
L 274.635948 304.121705 
L 255.081584 303.429246 
L 252.408382 302.736787 
L 250.198255 302.044328 
L 244.738714 301.351869 
L 238.376705 300.65941 
L 234.748413 299.966951 
L 234.532662 299.274492 
L 226.418338 298.582033 
L 221.066672 297.889574 
L 219.603778 297.197115 
L 214.441553 296.504656 
L 208.092699 295.812197 
L 204.224976 295.119738 
L 202.919948 294.427279 
L 199.686322 293.73482 
L 194.513571 293.042361 
L 191.158914 292.349902 
L 190.193299 291.657443 
L 184.102293 290.964984 
L 183.965476 290.272525 
L 183.597121 289.580066 
L 182.242103 288.887607 
L 181.647473 288.195148 
L 180.992328 287.502689 
L 180.276668 286.81023 
L 179.732029 286.11777 
L 178.903232 285.425311 
L 178.753259 284.732852 
L 178.655908 284.040393 
L 175.680129 283.347934 
L 175.572254 282.655475 
L 174.198818 281.963016 
L 172.443872 281.270557 
L 171.180942 280.578098 
L 169.475986 279.885639 
L 169.349693 279.19318 
L 168.570887 278.500721 
L 168.184114 277.808262 
L 166.842251 277.115803 
L 165.779285 276.423344 
L 165.563535 275.730885 
L 163.627042 275.038426 
L 162.245713 274.345967 
L 160.109256 273.653508 
L 159.767213 272.961049 
L 158.349048 272.26859 
L 158.222755 271.576131 
L 157.87808 270.883672 
L 157.788623 270.191213 
L 156.657248 269.498754 
L 156.454653 268.806295 
L 156.323098 268.113836 
L 155.281181 267.421377 
L 154.657609 266.728918 
L 153.51571 266.036459 
L 153.37363 265.344 
L 153.321008 264.651541 
L 152.326451 263.959082 
L 151.021423 263.266623 
L 150.855664 262.574164 
L 150.453105 261.881705 
L 150.229461 261.189246 
L 150.113693 260.496787 
L 149.771649 259.804328 
L 149.658512 259.111869 
L 149.645356 258.41941 
L 148.879705 257.726951 
L 148.850763 257.034492 
L 148.411368 256.342033 
L 148.308755 255.649574 
L 148.027227 254.957115 
L 147.401024 254.264656 
L 147.130021 253.572197 
L 146.727462 252.879738 
L 146.08021 252.187279 
L 145.432959 251.49482 
L 144.38841 250.802361 
L 144.248962 250.109902 
L 143.506991 249.417443 
L 142.299314 248.724984 
L 142.015155 248.032525 
L 141.941484 247.340066 
L 141.502089 246.647607 
L 141.412632 245.955148 
L 141.278446 245.262689 
L 140.665398 244.57023 
L 140.604883 243.87777 
L 140.494377 243.185311 
L 140.428599 242.492852 
L 140.194431 241.800393 
L 139.93132 241.107934 
L 139.54981 240.415475 
L 139.510344 239.723016 
L 139.176193 239.030557 
L 138.684177 238.338098 
L 138.392124 237.645639 
L 138.326347 236.95318 
L 138.207947 236.260721 
L 137.979041 235.568262 
L 137.447558 234.875803 
L 137.216021 234.183344 
L 137.181817 233.490885 
L 136.818724 232.798426 
L 135.713661 232.105967 
L 135.376879 231.413508 
L 135.142711 230.721049 
L 135.119031 230.02859 
L 134.969058 229.336131 
L 134.045541 228.643672 
L 133.577204 227.951213 
L 133.022041 227.258754 
L 132.943108 226.566295 
L 132.790504 225.873836 
L 132.490558 225.181377 
L 132.451092 224.488918 
L 132.435305 223.796459 
L 132.353741 223.104 
L 132.087999 222.411541 
L 131.638081 221.719082 
L 131.624925 221.026623 
L 131.543361 220.334164 
L 131.532837 219.641705 
L 131.409175 218.949246 
L 131.403912 218.256787 
L 131.274988 217.564328 
L 131.217104 216.871869 
L 130.469871 216.17941 
L 130.290955 215.486951 
L 129.883134 214.794492 
L 129.604237 214.102033 
L 128.51496 213.409574 
L 127.983477 212.717115 
L 127.51251 212.024656 
L 127.491461 211.332197 
L 125.523395 210.639738 
L 125.302382 209.947279 
L 123.976306 209.25482 
L 123.421143 208.562361 
L 123.22381 207.869902 
L 123.208024 207.177443 
L 122.263457 206.484984 
L 121.253113 205.792525 
L 120.808457 205.100066 
L 120.676902 204.407607 
L 120.629542 203.715148 
L 120.497987 203.022689 
L 120.408529 202.33023 
L 120.390111 201.63777 
L 120.382218 200.945311 
L 120.134894 200.252852 
L 119.769171 199.560393 
L 119.669189 198.867934 
L 119.448176 198.175475 
L 119.071928 197.483016 
L 118.09842 196.790557 
L 117.722172 196.098098 
L 117.577461 195.405639 
L 117.52747 194.71318 
L 117.445906 194.020721 
L 116.588166 193.328262 
L 116.09615 192.635803 
L 115.927759 191.250885 
L 115.901448 190.558426 
L 115.856719 189.865967 
L 115.811991 189.173508 
L 115.66728 188.481049 
L 115.506782 187.78859 
L 115.422587 187.096131 
L 115.267352 186.403672 
L 114.730607 185.711213 
L 114.217542 185.018754 
L 113.901809 184.326295 
L 113.651854 183.633836 
L 113.57029 182.941377 
L 113.149313 182.248918 
L 113.036176 181.556459 
L 112.980923 180.864 
L 112.702026 180.171541 
L 112.541528 179.479082 
L 112.288942 178.786623 
L 111.699575 178.094164 
L 111.602224 177.401705 
L 111.352269 176.709246 
L 111.144412 176.016787 
L 110.85236 175.324328 
L 110.847097 174.631869 
L 110.386654 173.93941 
L 110.070922 173.246951 
L 109.941998 172.554492 
L 109.749927 171.862033 
L 109.239493 171.169574 
L 108.9948 170.477115 
L 108.950071 169.784656 
L 108.352811 169.092197 
L 108.192314 168.399738 
L 108.121274 167.707279 
L 108.076545 167.01482 
L 108.008136 166.322361 
L 107.292476 165.629902 
L 107.203018 164.937443 
L 106.561029 164.244984 
L 106.534718 163.552525 
L 106.474203 162.860066 
L 105.416499 162.167607 
L 105.103398 161.475148 
L 104.995522 160.782689 
L 104.913958 160.09023 
L 104.664003 159.39777 
L 104.245658 158.705311 
L 103.879934 158.012852 
L 103.785214 157.320393 
L 103.72733 156.627934 
L 103.693126 155.935475 
L 102.866959 155.243016 
L 102.809075 154.550557 
L 102.703831 153.858098 
L 102.638053 153.165639 
L 102.490711 152.47318 
L 102.427565 151.780721 
L 102.209183 151.088262 
L 102.051317 150.395803 
L 101.743478 149.703344 
L 101.511941 149.010885 
L 101.264617 148.318426 
L 101.001506 147.625967 
L 100.691036 146.933508 
L 100.377935 146.241049 
L 100.306895 145.54859 
L 99.251822 144.856131 
L 98.854526 144.163672 
L 98.551949 143.471213 
L 98.386189 142.778754 
L 98.209905 142.086295 
L 97.752093 141.393836 
L 97.636325 140.701377 
L 97.412681 140.008918 
L 97.381107 139.316459 
L 96.98118 138.624 
L 96.639136 137.931541 
L 96.465483 137.239082 
L 96.383919 136.546623 
L 96.297093 135.854164 
L 96.273413 135.161705 
L 96.070818 134.469246 
L 95.920845 133.776787 
L 95.847174 133.084328 
L 95.681414 132.391869 
L 95.581432 131.69941 
L 95.431459 131.006951 
L 95.152562 130.314492 
L 95.126251 129.622033 
L 94.97891 129.622033 
L 94.810519 128.929574 
L 94.781577 128.237115 
L 94.686857 127.544656 
L 94.584244 126.852197 
L 94.55004 126.159738 
L 94.381649 125.467279 
L 93.83701 124.77482 
L 93.726504 124.082361 
L 93.471287 123.389902 
L 93.271323 122.697443 
L 93.226594 122.004984 
L 93.039786 121.312525 
L 93.008213 120.620066 
L 92.363592 119.927607 
L 92.360961 119.235148 
L 92.182046 118.542689 
L 91.774225 117.85023 
L 91.692661 117.15777 
L 91.558474 116.465311 
L 91.282209 115.772852 
L 91.271684 115.080393 
L 91.066458 114.387934 
L 90.932272 113.695475 
L 90.753357 113.003016 
L 90.292913 112.310557 
L 90.266602 111.618098 
L 90.219243 110.925639 
L 90.16662 110.23318 
L 89.774586 109.540721 
L 89.56936 108.848262 
L 88.553754 108.155803 
L 88.406412 107.463344 
L 87.895978 106.770885 
L 87.453952 106.078426 
L 87.288193 105.385967 
L 87.240833 104.693508 
L 86.78039 104.001049 
L 86.693563 103.30859 
L 86.417297 102.616131 
L 86.059467 101.923672 
L 85.951592 101.231213 
L 85.848979 100.538754 
L 85.841086 99.846295 
L 85.82793 99.153836 
L 85.651646 98.461377 
L 85.646384 97.768918 
L 85.491149 97.076459 
L 85.270136 96.384 
L 85.254349 96.384 
L 85.251718 95.691541 
L 85.217514 94.999082 
L 85.133319 94.306623 
L 85.06491 93.614164 
L 84.938617 92.921705 
L 84.888626 92.229246 
L 84.767595 91.536787 
L 84.714973 90.844328 
L 84.704449 90.151869 
L 84.109819 89.45941 
L 84.054566 88.766951 
L 83.841447 88.074492 
L 83.788825 87.382033 
L 83.488879 86.689574 
L 83.320488 85.997115 
L 83.259973 85.304656 
L 83.052115 84.612197 
L 82.881094 83.919738 
L 82.836365 83.227279 
L 82.820578 82.53482 
L 82.817947 81.842361 
L 82.536419 81.149902 
L 82.307513 81.149902 
L 82.173327 80.457443 
L 82.107549 79.764984 
L 81.902323 79.072525 
L 81.826021 78.380066 
L 81.82339 77.687607 
L 81.715515 76.995148 
L 81.647106 76.302689 
L 81.526075 75.61023 
L 81.202449 74.91777 
L 81.015641 74.225311 
L 80.810415 73.532852 
L 80.739375 72.840393 
L 80.707802 72.147934 
L 80.365758 71.455475 
L 80.055288 70.763016 
L 79.831644 70.070557 
L 79.744818 69.378098 
L 79.436979 68.685639 
L 79.355414 67.99318 
L 78.981798 67.300721 
L 78.442421 66.608262 
L 77.708343 65.915803 
L 77.500486 65.223344 
L 76.971634 64.530885 
L 76.858497 63.838426 
L 76.490142 63.145967 
L 75.966553 62.453508 
L 75.76922 61.761049 
L 75.632402 61.06859 
L 75.253523 60.376131 
L 75.237737 59.683672 
L 74.993044 58.991213 
L 74.874644 58.298754 
L 74.772031 57.606295 
L 74.190557 57.606295 
L 73.832727 56.913836 
z
" clip-path="url(#p35c329265a)" style="fill: #7cfc00"/>
   </g>
   <g id="PolyCollection_3">
    <path d="M 73.832727 54.144 
L 73.832727 56.913836 
L 74.190557 57.606295 
L 74.772031 57.606295 
L 74.874644 58.298754 
L 74.993044 58.991213 
L 75.237737 59.683672 
L 75.253523 60.376131 
L 75.632402 61.06859 
L 75.76922 61.761049 
L 75.966553 62.453508 
L 76.490142 63.145967 
L 76.858497 63.838426 
L 76.971634 64.530885 
L 77.500486 65.223344 
L 77.708343 65.915803 
L 78.442421 66.608262 
L 78.981798 67.300721 
L 79.355414 67.99318 
L 79.436979 68.685639 
L 79.744818 69.378098 
L 79.831644 70.070557 
L 80.055288 70.763016 
L 80.365758 71.455475 
L 80.707802 72.147934 
L 80.739375 72.840393 
L 80.810415 73.532852 
L 81.015641 74.225311 
L 81.202449 74.91777 
L 81.526075 75.61023 
L 81.647106 76.302689 
L 81.715515 76.995148 
L 81.82339 77.687607 
L 81.826021 78.380066 
L 81.902323 79.072525 
L 82.107549 79.764984 
L 82.173327 80.457443 
L 82.307513 81.149902 
L 82.536419 81.149902 
L 82.817947 81.842361 
L 82.820578 82.53482 
L 82.836365 83.227279 
L 82.881094 83.919738 
L 83.052115 84.612197 
L 83.259973 85.304656 
L 83.320488 85.997115 
L 83.488879 86.689574 
L 83.788825 87.382033 
L 83.841447 88.074492 
L 84.054566 88.766951 
L 84.109819 89.45941 
L 84.704449 90.151869 
L 84.714973 90.844328 
L 84.767595 91.536787 
L 84.888626 92.229246 
L 84.938617 92.921705 
L 85.06491 93.614164 
L 85.133319 94.306623 
L 85.217514 94.999082 
L 85.251718 95.691541 
L 85.254349 96.384 
L 85.270136 96.384 
L 85.491149 97.076459 
L 85.646384 97.768918 
L 85.651646 98.461377 
L 85.82793 99.153836 
L 85.841086 99.846295 
L 85.848979 100.538754 
L 85.951592 101.231213 
L 86.059467 101.923672 
L 86.417297 102.616131 
L 86.693563 103.30859 
L 86.78039 104.001049 
L 87.240833 104.693508 
L 87.288193 105.385967 
L 87.453952 106.078426 
L 87.895978 106.770885 
L 88.406412 107.463344 
L 88.553754 108.155803 
L 89.56936 108.848262 
L 89.774586 109.540721 
L 90.16662 110.23318 
L 90.219243 110.925639 
L 90.266602 111.618098 
L 90.292913 112.310557 
L 90.753357 113.003016 
L 90.932272 113.695475 
L 91.066458 114.387934 
L 91.271684 115.080393 
L 91.282209 115.772852 
L 91.558474 116.465311 
L 91.692661 117.15777 
L 91.774225 117.85023 
L 92.182046 118.542689 
L 92.360961 119.235148 
L 92.363592 119.927607 
L 93.008213 120.620066 
L 93.039786 121.312525 
L 93.226594 122.004984 
L 93.271323 122.697443 
L 93.471287 123.389902 
L 93.726504 124.082361 
L 93.83701 124.77482 
L 94.381649 125.467279 
L 94.55004 126.159738 
L 94.584244 126.852197 
L 94.686857 127.544656 
L 94.781577 128.237115 
L 94.810519 128.929574 
L 94.97891 129.622033 
L 95.126251 129.622033 
L 95.152562 130.314492 
L 95.431459 131.006951 
L 95.581432 131.69941 
L 95.681414 132.391869 
L 95.847174 133.084328 
L 95.920845 133.776787 
L 96.070818 134.469246 
L 96.273413 135.161705 
L 96.297093 135.854164 
L 96.383919 136.546623 
L 96.465483 137.239082 
L 96.639136 137.931541 
L 96.98118 138.624 
L 97.381107 139.316459 
L 97.412681 140.008918 
L 97.636325 140.701377 
L 97.752093 141.393836 
L 98.209905 142.086295 
L 98.386189 142.778754 
L 98.551949 143.471213 
L 98.854526 144.163672 
L 99.251822 144.856131 
L 100.306895 145.54859 
L 100.377935 146.241049 
L 100.691036 146.933508 
L 101.001506 147.625967 
L 101.264617 148.318426 
L 101.511941 149.010885 
L 101.743478 149.703344 
L 102.051317 150.395803 
L 102.209183 151.088262 
L 102.427565 151.780721 
L 102.490711 152.47318 
L 102.638053 153.165639 
L 102.703831 153.858098 
L 102.809075 154.550557 
L 102.866959 155.243016 
L 103.693126 155.935475 
L 103.72733 156.627934 
L 103.785214 157.320393 
L 103.879934 158.012852 
L 104.245658 158.705311 
L 104.664003 159.39777 
L 104.913958 160.09023 
L 104.995522 160.782689 
L 105.103398 161.475148 
L 105.416499 162.167607 
L 106.474203 162.860066 
L 106.534718 163.552525 
L 106.561029 164.244984 
L 107.203018 164.937443 
L 107.292476 165.629902 
L 108.008136 166.322361 
L 108.076545 167.01482 
L 108.121274 167.707279 
L 108.192314 168.399738 
L 108.352811 169.092197 
L 108.950071 169.784656 
L 108.9948 170.477115 
L 109.239493 171.169574 
L 109.749927 171.862033 
L 109.941998 172.554492 
L 110.070922 173.246951 
L 110.386654 173.93941 
L 110.847097 174.631869 
L 110.85236 175.324328 
L 111.144412 176.016787 
L 111.352269 176.709246 
L 111.602224 177.401705 
L 111.699575 178.094164 
L 112.288942 178.786623 
L 112.541528 179.479082 
L 112.702026 180.171541 
L 112.980923 180.864 
L 113.036176 181.556459 
L 113.149313 182.248918 
L 113.57029 182.941377 
L 113.651854 183.633836 
L 113.901809 184.326295 
L 114.217542 185.018754 
L 114.730607 185.711213 
L 115.267352 186.403672 
L 115.422587 187.096131 
L 115.506782 187.78859 
L 115.66728 188.481049 
L 115.811991 189.173508 
L 115.856719 189.865967 
L 115.901448 190.558426 
L 115.927759 191.250885 
L 116.09615 192.635803 
L 116.588166 193.328262 
L 117.445906 194.020721 
L 117.52747 194.71318 
L 117.577461 195.405639 
L 117.722172 196.098098 
L 118.09842 196.790557 
L 119.071928 197.483016 
L 119.448176 198.175475 
L 119.669189 198.867934 
L 119.769171 199.560393 
L 120.134894 200.252852 
L 120.382218 200.945311 
L 120.390111 201.63777 
L 120.408529 202.33023 
L 120.497987 203.022689 
L 120.629542 203.715148 
L 120.676902 204.407607 
L 120.808457 205.100066 
L 121.253113 205.792525 
L 122.263457 206.484984 
L 123.208024 207.177443 
L 123.22381 207.869902 
L 123.421143 208.562361 
L 123.976306 209.25482 
L 125.302382 209.947279 
L 125.523395 210.639738 
L 127.491461 211.332197 
L 127.51251 212.024656 
L 127.983477 212.717115 
L 128.51496 213.409574 
L 129.604237 214.102033 
L 129.883134 214.794492 
L 130.290955 215.486951 
L 130.469871 216.17941 
L 131.217104 216.871869 
L 131.274988 217.564328 
L 131.403912 218.256787 
L 131.409175 218.949246 
L 131.532837 219.641705 
L 131.543361 220.334164 
L 131.624925 221.026623 
L 131.638081 221.719082 
L 132.087999 222.411541 
L 132.353741 223.104 
L 132.435305 223.796459 
L 132.451092 224.488918 
L 132.490558 225.181377 
L 132.790504 225.873836 
L 132.943108 226.566295 
L 133.022041 227.258754 
L 133.577204 227.951213 
L 134.045541 228.643672 
L 134.969058 229.336131 
L 135.119031 230.02859 
L 135.142711 230.721049 
L 135.376879 231.413508 
L 135.713661 232.105967 
L 136.818724 232.798426 
L 137.181817 233.490885 
L 137.216021 234.183344 
L 137.447558 234.875803 
L 137.979041 235.568262 
L 138.207947 236.260721 
L 138.326347 236.95318 
L 138.392124 237.645639 
L 138.684177 238.338098 
L 139.176193 239.030557 
L 139.510344 239.723016 
L 139.54981 240.415475 
L 139.93132 241.107934 
L 140.194431 241.800393 
L 140.428599 242.492852 
L 140.494377 243.185311 
L 140.604883 243.87777 
L 140.665398 244.57023 
L 141.278446 245.262689 
L 141.412632 245.955148 
L 141.502089 246.647607 
L 141.941484 247.340066 
L 142.015155 248.032525 
L 142.299314 248.724984 
L 143.506991 249.417443 
L 144.248962 250.109902 
L 144.38841 250.802361 
L 145.432959 251.49482 
L 146.08021 252.187279 
L 146.727462 252.879738 
L 147.130021 253.572197 
L 147.401024 254.264656 
L 148.027227 254.957115 
L 148.308755 255.649574 
L 148.411368 256.342033 
L 148.850763 257.034492 
L 148.879705 257.726951 
L 149.645356 258.41941 
L 149.658512 259.111869 
L 149.771649 259.804328 
L 150.113693 260.496787 
L 150.229461 261.189246 
L 150.453105 261.881705 
L 150.855664 262.574164 
L 151.021423 263.266623 
L 152.326451 263.959082 
L 153.321008 264.651541 
L 153.37363 265.344 
L 153.51571 266.036459 
L 154.657609 266.728918 
L 155.281181 267.421377 
L 156.323098 268.113836 
L 156.454653 268.806295 
L 156.657248 269.498754 
L 157.788623 270.191213 
L 157.87808 270.883672 
L 158.222755 271.576131 
L 158.349048 272.26859 
L 159.767213 272.961049 
L 160.109256 273.653508 
L 162.245713 274.345967 
L 163.627042 275.038426 
L 165.563535 275.730885 
L 165.779285 276.423344 
L 166.842251 277.115803 
L 168.184114 277.808262 
L 168.570887 278.500721 
L 169.349693 279.19318 
L 169.475986 279.885639 
L 171.180942 280.578098 
L 172.443872 281.270557 
L 174.198818 281.963016 
L 175.572254 282.655475 
L 175.680129 283.347934 
L 178.655908 284.040393 
L 178.753259 284.732852 
L 178.903232 285.425311 
L 179.732029 286.11777 
L 180.276668 286.81023 
L 180.992328 287.502689 
L 181.647473 288.195148 
L 182.242103 288.887607 
L 183.597121 289.580066 
L 183.965476 290.272525 
L 184.102293 290.964984 
L 190.193299 291.657443 
L 191.158914 292.349902 
L 194.513571 293.042361 
L 199.686322 293.73482 
L 202.919948 294.427279 
L 204.224976 295.119738 
L 208.092699 295.812197 
L 214.441553 296.504656 
L 219.603778 297.197115 
L 221.066672 297.889574 
L 226.418338 298.582033 
L 234.532662 299.274492 
L 234.748413 299.966951 
L 238.376705 300.65941 
L 244.738714 301.351869 
L 250.198255 302.044328 
L 252.408382 302.736787 
L 255.081584 303.429246 
L 274.635948 304.121705 
L 278.866763 304.814164 
L 284.434179 305.506623 
L 300.420767 306.199082 
L 398.487273 306.891541 
L 398.487273 306.891541 
L 398.487273 306.891541 
L 300.420767 306.199082 
L 284.434179 305.506623 
L 278.866763 304.814164 
L 274.635948 304.121705 
L 255.081584 303.429246 
L 252.408382 302.736787 
L 250.198255 302.044328 
L 244.738714 301.351869 
L 238.376705 300.65941 
L 234.748413 299.966951 
L 234.532662 299.274492 
L 226.418338 298.582033 
L 221.066672 297.889574 
L 219.603778 297.197115 
L 214.441553 296.504656 
L 208.092699 295.812197 
L 204.224976 295.119738 
L 202.919948 294.427279 
L 199.686322 293.73482 
L 194.513571 293.042361 
L 191.158914 292.349902 
L 190.193299 291.657443 
L 184.102293 290.964984 
L 183.965476 290.272525 
L 183.597121 289.580066 
L 182.242103 288.887607 
L 181.647473 288.195148 
L 180.992328 287.502689 
L 180.276668 286.81023 
L 179.732029 286.11777 
L 178.903232 285.425311 
L 178.753259 284.732852 
L 178.655908 284.040393 
L 175.680129 283.347934 
L 175.572254 282.655475 
L 174.198818 281.963016 
L 172.443872 281.270557 
L 171.180942 280.578098 
L 169.475986 279.885639 
L 169.349693 279.19318 
L 168.570887 278.500721 
L 168.184114 277.808262 
L 166.842251 277.115803 
L 165.779285 276.423344 
L 165.563535 275.730885 
L 163.627042 275.038426 
L 162.245713 274.345967 
L 160.109256 273.653508 
L 159.767213 272.961049 
L 158.349048 272.26859 
L 158.222755 271.576131 
L 157.87808 270.883672 
L 157.788623 270.191213 
L 156.657248 269.498754 
L 156.454653 268.806295 
L 156.323098 268.113836 
L 155.281181 267.421377 
L 154.657609 266.728918 
L 153.51571 266.036459 
L 153.37363 265.344 
L 153.321008 264.651541 
L 152.326451 263.959082 
L 151.021423 263.266623 
L 150.855664 262.574164 
L 150.453105 261.881705 
L 150.229461 261.189246 
L 150.113693 260.496787 
L 149.771649 259.804328 
L 149.658512 259.111869 
L 149.645356 258.41941 
L 148.879705 257.726951 
L 148.850763 257.034492 
L 148.411368 256.342033 
L 148.308755 255.649574 
L 148.027227 254.957115 
L 147.401024 254.264656 
L 147.130021 253.572197 
L 146.727462 252.879738 
L 146.08021 252.187279 
L 145.432959 251.49482 
L 144.38841 250.802361 
L 144.248962 250.109902 
L 143.506991 249.417443 
L 142.299314 248.724984 
L 142.015155 248.032525 
L 141.941484 247.340066 
L 141.502089 246.647607 
L 141.412632 245.955148 
L 141.278446 245.262689 
L 140.665398 244.57023 
L 140.604883 243.87777 
L 140.494377 243.185311 
L 140.428599 242.492852 
L 140.194431 241.800393 
L 139.93132 241.107934 
L 139.54981 240.415475 
L 139.510344 239.723016 
L 139.176193 239.030557 
L 138.684177 238.338098 
L 138.392124 237.645639 
L 138.326347 236.95318 
L 138.207947 236.260721 
L 137.979041 235.568262 
L 137.447558 234.875803 
L 137.216021 234.183344 
L 137.181817 233.490885 
L 136.818724 232.798426 
L 135.713661 232.105967 
L 135.376879 231.413508 
L 135.142711 230.721049 
L 135.119031 230.02859 
L 134.969058 229.336131 
L 134.045541 228.643672 
L 133.577204 227.951213 
L 133.022041 227.258754 
L 132.943108 226.566295 
L 132.790504 225.873836 
L 132.490558 225.181377 
L 132.451092 224.488918 
L 132.435305 223.796459 
L 132.353741 223.104 
L 132.087999 222.411541 
L 131.638081 221.719082 
L 131.624925 221.026623 
L 131.543361 220.334164 
L 131.532837 219.641705 
L 131.409175 218.949246 
L 131.403912 218.256787 
L 131.274988 217.564328 
L 131.217104 216.871869 
L 130.469871 216.17941 
L 130.290955 215.486951 
L 129.883134 214.794492 
L 129.604237 214.102033 
L 128.51496 213.409574 
L 127.983477 212.717115 
L 127.51251 212.024656 
L 127.491461 211.332197 
L 125.523395 210.639738 
L 125.302382 209.947279 
L 123.976306 209.25482 
L 123.421143 208.562361 
L 123.22381 207.869902 
L 123.208024 207.177443 
L 122.263457 206.484984 
L 121.253113 205.792525 
L 120.808457 205.100066 
L 120.676902 204.407607 
L 120.629542 203.715148 
L 120.497987 203.022689 
L 120.408529 202.33023 
L 120.390111 201.63777 
L 120.382218 200.945311 
L 120.134894 200.252852 
L 119.769171 199.560393 
L 119.669189 198.867934 
L 119.448176 198.175475 
L 119.071928 197.483016 
L 118.09842 196.790557 
L 117.722172 196.098098 
L 117.577461 195.405639 
L 117.52747 194.71318 
L 117.445906 194.020721 
L 116.588166 193.328262 
L 116.09615 192.635803 
L 115.927759 191.250885 
L 115.901448 190.558426 
L 115.856719 189.865967 
L 115.811991 189.173508 
L 115.66728 188.481049 
L 115.506782 187.78859 
L 115.422587 187.096131 
L 115.267352 186.403672 
L 114.730607 185.711213 
L 114.217542 185.018754 
L 113.901809 184.326295 
L 113.651854 183.633836 
L 113.57029 182.941377 
L 113.149313 182.248918 
L 113.036176 181.556459 
L 112.980923 180.864 
L 112.702026 180.171541 
L 112.541528 179.479082 
L 112.288942 178.786623 
L 111.699575 178.094164 
L 111.602224 177.401705 
L 111.352269 176.709246 
L 111.144412 176.016787 
L 110.85236 175.324328 
L 110.847097 174.631869 
L 110.386654 173.93941 
L 110.070922 173.246951 
L 109.941998 172.554492 
L 109.749927 171.862033 
L 109.239493 171.169574 
L 108.9948 170.477115 
L 108.950071 169.784656 
L 108.352811 169.092197 
L 108.192314 168.399738 
L 108.121274 167.707279 
L 108.076545 167.01482 
L 108.008136 166.322361 
L 107.292476 165.629902 
L 107.203018 164.937443 
L 106.561029 164.244984 
L 106.534718 163.552525 
L 106.474203 162.860066 
L 105.416499 162.167607 
L 105.103398 161.475148 
L 104.995522 160.782689 
L 104.913958 160.09023 
L 104.664003 159.39777 
L 104.245658 158.705311 
L 103.879934 158.012852 
L 103.785214 157.320393 
L 103.72733 156.627934 
L 103.693126 155.935475 
L 102.866959 155.243016 
L 102.809075 154.550557 
L 102.703831 153.858098 
L 102.638053 153.165639 
L 102.490711 152.47318 
L 102.427565 151.780721 
L 102.209183 151.088262 
L 102.051317 150.395803 
L 101.743478 149.703344 
L 101.511941 149.010885 
L 101.264617 148.318426 
L 101.001506 147.625967 
L 100.691036 146.933508 
L 100.377935 146.241049 
L 100.306895 145.54859 
L 99.251822 144.856131 
L 98.854526 144.163672 
L 98.551949 143.471213 
L 98.386189 142.778754 
L 98.209905 142.086295 
L 97.752093 141.393836 
L 97.636325 140.701377 
L 97.412681 140.008918 
L 97.381107 139.316459 
L 96.98118 138.624 
L 96.639136 137.931541 
L 96.465483 137.239082 
L 96.383919 136.546623 
L 96.297093 135.854164 
L 96.273413 135.161705 
L 96.070818 134.469246 
L 95.920845 133.776787 
L 95.847174 133.084328 
L 95.681414 132.391869 
L 95.581432 131.69941 
L 95.431459 131.006951 
L 95.152562 130.314492 
L 95.126251 129.622033 
L 94.97891 128.929574 
L 94.810519 128.237115 
L 94.781577 127.544656 
L 94.686857 126.852197 
L 94.584244 126.159738 
L 94.55004 125.467279 
L 94.381649 124.77482 
L 93.83701 124.082361 
L 93.726504 123.389902 
L 93.471287 122.697443 
L 93.271323 122.004984 
L 93.226594 121.312525 
L 93.039786 120.620066 
L 93.008213 119.927607 
L 92.363592 119.235148 
L 92.360961 118.542689 
L 92.182046 117.85023 
L 91.774225 117.15777 
L 91.692661 116.465311 
L 91.558474 115.772852 
L 91.282209 115.080393 
L 91.271684 114.387934 
L 91.066458 113.695475 
L 90.932272 113.003016 
L 90.753357 112.310557 
L 90.292913 111.618098 
L 90.266602 110.925639 
L 90.219243 110.23318 
L 90.16662 109.540721 
L 89.774586 108.848262 
L 89.56936 108.155803 
L 88.553754 107.463344 
L 88.406412 106.770885 
L 87.895978 106.078426 
L 87.453952 105.385967 
L 87.288193 104.693508 
L 87.240833 104.001049 
L 86.78039 103.30859 
L 86.693563 102.616131 
L 86.417297 101.923672 
L 86.059467 101.231213 
L 85.951592 100.538754 
L 85.848979 99.846295 
L 85.841086 99.153836 
L 85.82793 98.461377 
L 85.651646 97.768918 
L 85.646384 97.076459 
L 85.491149 96.384 
L 85.270136 95.691541 
L 85.254349 94.999082 
L 85.251718 94.306623 
L 85.217514 93.614164 
L 85.133319 92.921705 
L 85.06491 92.229246 
L 84.938617 91.536787 
L 84.888626 90.844328 
L 84.767595 90.151869 
L 84.714973 89.45941 
L 84.704449 88.766951 
L 84.109819 88.074492 
L 84.054566 87.382033 
L 83.841447 86.689574 
L 83.788825 85.997115 
L 83.488879 85.304656 
L 83.320488 84.612197 
L 83.259973 83.919738 
L 83.052115 83.227279 
L 82.881094 82.53482 
L 82.836365 81.842361 
L 82.820578 81.149902 
L 82.817947 80.457443 
L 82.536419 79.764984 
L 82.307513 79.072525 
L 82.173327 78.380066 
L 82.107549 77.687607 
L 81.902323 76.995148 
L 81.826021 76.302689 
L 81.82339 75.61023 
L 81.715515 74.91777 
L 81.647106 74.225311 
L 81.526075 73.532852 
L 81.202449 72.840393 
L 81.015641 72.147934 
L 80.810415 71.455475 
L 80.739375 70.763016 
L 80.707802 70.070557 
L 80.365758 69.378098 
L 80.055288 68.685639 
L 79.831644 67.99318 
L 79.744818 67.300721 
L 79.436979 66.608262 
L 79.355414 65.915803 
L 78.981798 65.223344 
L 78.442421 64.530885 
L 77.708343 63.838426 
L 77.500486 63.145967 
L 76.971634 62.453508 
L 76.858497 61.761049 
L 76.490142 61.06859 
L 75.966553 60.376131 
L 75.76922 59.683672 
L 75.632402 58.991213 
L 75.253523 58.298754 
L 75.237737 57.606295 
L 74.993044 56.913836 
L 74.874644 56.221377 
L 74.772031 55.528918 
L 74.190557 54.836459 
L 73.832727 54.144 
z
" clip-path="url(#p35c329265a)" style="fill: #ff0000"/>
   </g>
   <g id="matplotlib.axis_1">
    <g id="xtick_1">
     <g id="line2d_1">
      <defs>
       <path id="m7c92127c7e" d="M 0 0 
L 0 3.5 
" style="stroke: #000000; stroke-width: 0.8"/>
      </defs>
      <g>
       <use xlink:href="#m7c92127c7e" x="104.350902" y="307.584" style="stroke: #000000; stroke-width: 0.8"/>
      </g>
     </g>
     <g id="text_1">
      <!-- 200 -->
      <g transform="translate(94.807152 322.182437)scale(0.1 -0.1)">
       <defs>
        <path id="DejaVuSans-32" d="M 1228 531 
L 3431 531 
L 3431 0 
L 469 0 
L 469 531 
Q 828 903 1448 1529 
Q 2069 2156 2228 2338 
Q 2531 2678 2651 2914 
Q 2772 3150 2772 3378 
Q 2772 3750 2511 3984 
Q 2250 4219 1831 4219 
Q 1534 4219 1204 4116 
Q 875 4013 500 3803 
L 500 4441 
Q 881 4594 1212 4672 
Q 1544 4750 1819 4750 
Q 2544 4750 2975 4387 
Q 3406 4025 3406 3419 
Q 3406 3131 3298 2873 
Q 3191 2616 2906 2266 
Q 2828 2175 2409 1742 
Q 1991 1309 1228 531 
z
" transform="scale(0.015625)"/>
        <path id="DejaVuSans-30" d="M 2034 4250 
Q 1547 4250 1301 3770 
Q 1056 3291 1056 2328 
Q 1056 1369 1301 889 
Q 1547 409 2034 409 
Q 2525 409 2770 889 
Q 3016 1369 3016 2328 
Q 3016 3291 2770 3770 
Q 2525 4250 2034 4250 
z
M 2034 4750 
Q 2819 4750 3233 4129 
Q 3647 3509 3647 2328 
Q 3647 1150 3233 529 
Q 2819 -91 2034 -91 
Q 1250 -91 836 529 
Q 422 1150 422 2328 
Q 422 3509 836 4129 
Q 1250 4750 2034 4750 
z
" transform="scale(0.015625)"/>
       </defs>
       <use xlink:href="#DejaVuSans-32"/>
       <use xlink:href="#DejaVuSans-30" x="63.623047"/>
       <use xlink:href="#DejaVuSans-30" x="127.246094"/>
      </g>
     </g>
    </g>
    <g id="xtick_2">
     <g id="line2d_2">
      <g>
       <use xlink:href="#m7c92127c7e" x="156.97298" y="307.584" style="stroke: #000000; stroke-width: 0.8"/>
      </g>
     </g>
     <g id="text_2">
      <!-- 400 -->
      <g transform="translate(147.42923 322.182437)scale(0.1 -0.1)">
       <defs>
        <path id="DejaVuSans-34" d="M 2419 4116 
L 825 1625 
L 2419 1625 
L 2419 4116 
z
M 2253 4666 
L 3047 4666 
L 3047 1625 
L 3713 1625 
L 3713 1100 
L 3047 1100 
L 3047 0 
L 2419 0 
L 2419 1100 
L 313 1100 
L 313 1709 
L 2253 4666 
z
" transform="scale(0.015625)"/>
       </defs>
       <use xlink:href="#DejaVuSans-34"/>
       <use xlink:href="#DejaVuSans-30" x="63.623047"/>
       <use xlink:href="#DejaVuSans-30" x="127.246094"/>
      </g>
     </g>
    </g>
    <g id="xtick_3">
     <g id="line2d_3">
      <g>
       <use xlink:href="#m7c92127c7e" x="209.595059" y="307.584" style="stroke: #000000; stroke-width: 0.8"/>
      </g>
     </g>
     <g id="text_3">
      <!-- 600 -->
      <g transform="translate(200.051309 322.182437)scale(0.1 -0.1)">
       <defs>
        <path id="DejaVuSans-36" d="M 2113 2584 
Q 1688 2584 1439 2293 
Q 1191 2003 1191 1497 
Q 1191 994 1439 701 
Q 1688 409 2113 409 
Q 2538 409 2786 701 
Q 3034 994 3034 1497 
Q 3034 2003 2786 2293 
Q 2538 2584 2113 2584 
z
M 3366 4563 
L 3366 3988 
Q 3128 4100 2886 4159 
Q 2644 4219 2406 4219 
Q 1781 4219 1451 3797 
Q 1122 3375 1075 2522 
Q 1259 2794 1537 2939 
Q 1816 3084 2150 3084 
Q 2853 3084 3261 2657 
Q 3669 2231 3669 1497 
Q 3669 778 3244 343 
Q 2819 -91 2113 -91 
Q 1303 -91 875 529 
Q 447 1150 447 2328 
Q 447 3434 972 4092 
Q 1497 4750 2381 4750 
Q 2619 4750 2861 4703 
Q 3103 4656 3366 4563 
z
" transform="scale(0.015625)"/>
       </defs>
       <use xlink:href="#DejaVuSans-36"/>
       <use xlink:href="#DejaVuSans-30" x="63.623047"/>
       <use xlink:href="#DejaVuSans-30" x="127.246094"/>
      </g>
     </g>
    </g>
    <g id="xtick_4">
     <g id="line2d_4">
      <g>
       <use xlink:href="#m7c92127c7e" x="262.217138" y="307.584" style="stroke: #000000; stroke-width: 0.8"/>
      </g>
     </g>
     <g id="text_4">
      <!-- 800 -->
      <g transform="translate(252.673388 322.182437)scale(0.1 -0.1)">
       <defs>
        <path id="DejaVuSans-38" d="M 2034 2216 
Q 1584 2216 1326 1975 
Q 1069 1734 1069 1313 
Q 1069 891 1326 650 
Q 1584 409 2034 409 
Q 2484 409 2743 651 
Q 3003 894 3003 1313 
Q 3003 1734 2745 1975 
Q 2488 2216 2034 2216 
z
M 1403 2484 
Q 997 2584 770 2862 
Q 544 3141 544 3541 
Q 544 4100 942 4425 
Q 1341 4750 2034 4750 
Q 2731 4750 3128 4425 
Q 3525 4100 3525 3541 
Q 3525 3141 3298 2862 
Q 3072 2584 2669 2484 
Q 3125 2378 3379 2068 
Q 3634 1759 3634 1313 
Q 3634 634 3220 271 
Q 2806 -91 2034 -91 
Q 1263 -91 848 271 
Q 434 634 434 1313 
Q 434 1759 690 2068 
Q 947 2378 1403 2484 
z
M 1172 3481 
Q 1172 3119 1398 2916 
Q 1625 2713 2034 2713 
Q 2441 2713 2670 2916 
Q 2900 3119 2900 3481 
Q 2900 3844 2670 4047 
Q 2441 4250 2034 4250 
Q 1625 4250 1398 4047 
Q 1172 3844 1172 3481 
z
" transform="scale(0.015625)"/>
       </defs>
       <use xlink:href="#DejaVuSans-38"/>
       <use xlink:href="#DejaVuSans-30" x="63.623047"/>
       <use xlink:href="#DejaVuSans-30" x="127.246094"/>
      </g>
     </g>
    </g>
    <g id="xtick_5">
     <g id="line2d_5">
      <g>
       <use xlink:href="#m7c92127c7e" x="314.839216" y="307.584" style="stroke: #000000; stroke-width: 0.8"/>
      </g>
     </g>
     <g id="text_5">
      <!-- 1000 -->
      <g transform="translate(302.114216 322.182437)scale(0.1 -0.1)">
       <defs>
        <path id="DejaVuSans-31" d="M 794 531 
L 1825 531 
L 1825 4091 
L 703 3866 
L 703 4441 
L 1819 4666 
L 2450 4666 
L 2450 531 
L 3481 531 
L 3481 0 
L 794 0 
L 794 531 
z
" transform="scale(0.015625)"/>
       </defs>
       <use xlink:href="#DejaVuSans-31"/>
       <use xlink:href="#DejaVuSans-30" x="63.623047"/>
       <use xlink:href="#DejaVuSans-30" x="127.246094"/>
       <use xlink:href="#DejaVuSans-30" x="190.869141"/>
      </g>
     </g>
    </g>
    <g id="xtick_6">
     <g id="line2d_6">
      <g>
       <use xlink:href="#m7c92127c7e" x="367.461295" y="307.584" style="stroke: #000000; stroke-width: 0.8"/>
      </g>
     </g>
     <g id="text_6">
      <!-- 1200 -->
      <g transform="translate(354.736295 322.182437)scale(0.1 -0.1)">
       <use xlink:href="#DejaVuSans-31"/>
       <use xlink:href="#DejaVuSans-32" x="63.623047"/>
       <use xlink:href="#DejaVuSans-30" x="127.246094"/>
       <use xlink:href="#DejaVuSans-30" x="190.869141"/>
      </g>
     </g>
    </g>
    <g id="text_7">
     <!-- Score -->
     <g transform="translate(222.157656 335.860562)scale(0.1 -0.1)">
      <defs>
       <path id="DejaVuSans-53" d="M 3425 4513 
L 3425 3897 
Q 3066 4069 2747 4153 
Q 2428 4238 2131 4238 
Q 1616 4238 1336 4038 
Q 1056 3838 1056 3469 
Q 1056 3159 1242 3001 
Q 1428 2844 1947 2747 
L 2328 2669 
Q 3034 2534 3370 2195 
Q 3706 1856 3706 1288 
Q 3706 609 3251 259 
Q 2797 -91 1919 -91 
Q 1588 -91 1214 -16 
Q 841 59 441 206 
L 441 856 
Q 825 641 1194 531 
Q 1563 422 1919 422 
Q 2459 422 2753 634 
Q 3047 847 3047 1241 
Q 3047 1584 2836 1778 
Q 2625 1972 2144 2069 
L 1759 2144 
Q 1053 2284 737 2584 
Q 422 2884 422 3419 
Q 422 4038 858 4394 
Q 1294 4750 2059 4750 
Q 2388 4750 2728 4690 
Q 3069 4631 3425 4513 
z
" transform="scale(0.015625)"/>
       <path id="DejaVuSans-63" d="M 3122 3366 
L 3122 2828 
Q 2878 2963 2633 3030 
Q 2388 3097 2138 3097 
Q 1578 3097 1268 2742 
Q 959 2388 959 1747 
Q 959 1106 1268 751 
Q 1578 397 2138 397 
Q 2388 397 2633 464 
Q 2878 531 3122 666 
L 3122 134 
Q 2881 22 2623 -34 
Q 2366 -91 2075 -91 
Q 1284 -91 818 406 
Q 353 903 353 1747 
Q 353 2603 823 3093 
Q 1294 3584 2113 3584 
Q 2378 3584 2631 3529 
Q 2884 3475 3122 3366 
z
" transform="scale(0.015625)"/>
       <path id="DejaVuSans-6f" d="M 1959 3097 
Q 1497 3097 1228 2736 
Q 959 2375 959 1747 
Q 959 1119 1226 758 
Q 1494 397 1959 397 
Q 2419 397 2687 759 
Q 2956 1122 2956 1747 
Q 2956 2369 2687 2733 
Q 2419 3097 1959 3097 
z
M 1959 3584 
Q 2709 3584 3137 3096 
Q 3566 2609 3566 1747 
Q 3566 888 3137 398 
Q 2709 -91 1959 -91 
Q 1206 -91 779 398 
Q 353 888 353 1747 
Q 353 2609 779 3096 
Q 1206 3584 1959 3584 
z
" transform="scale(0.015625)"/>
       <path id="DejaVuSans-72" d="M 2631 2963 
Q 2534 3019 2420 3045 
Q 2306 3072 2169 3072 
Q 1681 3072 1420 2755 
Q 1159 2438 1159 1844 
L 1159 0 
L 581 0 
L 581 3500 
L 1159 3500 
L 1159 2956 
Q 1341 3275 1631 3429 
Q 1922 3584 2338 3584 
Q 2397 3584 2469 3576 
Q 2541 3569 2628 3553 
L 2631 2963 
z
" transform="scale(0.015625)"/>
       <path id="DejaVuSans-65" d="M 3597 1894 
L 3597 1613 
L 953 1613 
Q 991 1019 1311 708 
Q 1631 397 2203 397 
Q 2534 397 2845 478 
Q 3156 559 3463 722 
L 3463 178 
Q 3153 47 2828 -22 
Q 2503 -91 2169 -91 
Q 1331 -91 842 396 
Q 353 884 353 1716 
Q 353 2575 817 3079 
Q 1281 3584 2069 3584 
Q 2775 3584 3186 3129 
Q 3597 2675 3597 1894 
z
M 3022 2063 
Q 3016 2534 2758 2815 
Q 2500 3097 2075 3097 
Q 1594 3097 1305 2825 
Q 1016 2553 972 2059 
L 3022 2063 
z
" transform="scale(0.015625)"/>
      </defs>
      <use xlink:href="#DejaVuSans-53"/>
      <use xlink:href="#DejaVuSans-63" x="63.476562"/>
      <use xlink:href="#DejaVuSans-6f" x="118.457031"/>
      <use xlink:href="#DejaVuSans-72" x="179.638672"/>
      <use xlink:href="#DejaVuSans-65" x="218.501953"/>
     </g>
    </g>
   </g>
   <g id="matplotlib.axis_2">
    <g id="ytick_1">
     <g id="line2d_7">
      <defs>
       <path id="m4a986a167b" d="M 0 0 
L -3.5 0 
" style="stroke: #000000; stroke-width: 0.8"/>
      </defs>
      <g>
       <use xlink:href="#m4a986a167b" x="57.6" y="307.584" style="stroke: #000000; stroke-width: 0.8"/>
      </g>
     </g>
     <g id="text_8">
      <!-- 0 -->
      <g transform="translate(44.2375 311.383219)scale(0.1 -0.1)">
       <use xlink:href="#DejaVuSans-30"/>
      </g>
     </g>
    </g>
    <g id="ytick_2">
     <g id="line2d_8">
      <g>
       <use xlink:href="#m4a986a167b" x="57.6" y="272.961049" style="stroke: #000000; stroke-width: 0.8"/>
      </g>
     </g>
     <g id="text_9">
      <!-- 50 -->
      <g transform="translate(37.875 276.760268)scale(0.1 -0.1)">
       <defs>
        <path id="DejaVuSans-35" d="M 691 4666 
L 3169 4666 
L 3169 4134 
L 1269 4134 
L 1269 2991 
Q 1406 3038 1543 3061 
Q 1681 3084 1819 3084 
Q 2600 3084 3056 2656 
Q 3513 2228 3513 1497 
Q 3513 744 3044 326 
Q 2575 -91 1722 -91 
Q 1428 -91 1123 -41 
Q 819 9 494 109 
L 494 744 
Q 775 591 1075 516 
Q 1375 441 1709 441 
Q 2250 441 2565 725 
Q 2881 1009 2881 1497 
Q 2881 1984 2565 2268 
Q 2250 2553 1709 2553 
Q 1456 2553 1204 2497 
Q 953 2441 691 2322 
L 691 4666 
z
" transform="scale(0.015625)"/>
       </defs>
       <use xlink:href="#DejaVuSans-35"/>
       <use xlink:href="#DejaVuSans-30" x="63.623047"/>
      </g>
     </g>
    </g>
    <g id="ytick_3">
     <g id="line2d_9">
      <g>
       <use xlink:href="#m4a986a167b" x="57.6" y="238.338098" style="stroke: #000000; stroke-width: 0.8"/>
      </g>
     </g>
     <g id="text_10">
      <!-- 100 -->
      <g transform="translate(31.5125 242.137317)scale(0.1 -0.1)">
       <use xlink:href="#DejaVuSans-31"/>
       <use xlink:href="#DejaVuSans-30" x="63.623047"/>
       <use xlink:href="#DejaVuSans-30" x="127.246094"/>
      </g>
     </g>
    </g>
    <g id="ytick_4">
     <g id="line2d_10">
      <g>
       <use xlink:href="#m4a986a167b" x="57.6" y="203.715148" style="stroke: #000000; stroke-width: 0.8"/>
      </g>
     </g>
     <g id="text_11">
      <!-- 150 -->
      <g transform="translate(31.5125 207.514366)scale(0.1 -0.1)">
       <use xlink:href="#DejaVuSans-31"/>
       <use xlink:href="#DejaVuSans-35" x="63.623047"/>
       <use xlink:href="#DejaVuSans-30" x="127.246094"/>
      </g>
     </g>
    </g>
    <g id="ytick_5">
     <g id="line2d_11">
      <g>
       <use xlink:href="#m4a986a167b" x="57.6" y="169.092197" style="stroke: #000000; stroke-width: 0.8"/>
      </g>
     </g>
     <g id="text_12">
      <!-- 200 -->
      <g transform="translate(31.5125 172.891415)scale(0.1 -0.1)">
       <use xlink:href="#DejaVuSans-32"/>
       <use xlink:href="#DejaVuSans-30" x="63.623047"/>
       <use xlink:href="#DejaVuSans-30" x="127.246094"/>
      </g>
     </g>
    </g>
    <g id="ytick_6">
     <g id="line2d_12">
      <g>
       <use xlink:href="#m4a986a167b" x="57.6" y="134.469246" style="stroke: #000000; stroke-width: 0.8"/>
      </g>
     </g>
     <g id="text_13">
      <!-- 250 -->
      <g transform="translate(31.5125 138.268465)scale(0.1 -0.1)">
       <use xlink:href="#DejaVuSans-32"/>
       <use xlink:href="#DejaVuSans-35" x="63.623047"/>
       <use xlink:href="#DejaVuSans-30" x="127.246094"/>
      </g>
     </g>
    </g>
    <g id="ytick_7">
     <g id="line2d_13">
      <g>
       <use xlink:href="#m4a986a167b" x="57.6" y="99.846295" style="stroke: #000000; stroke-width: 0.8"/>
      </g>
     </g>
     <g id="text_14">
      <!-- 300 -->
      <g transform="translate(31.5125 103.645514)scale(0.1 -0.1)">
       <defs>
        <path id="DejaVuSans-33" d="M 2597 2516 
Q 3050 2419 3304 2112 
Q 3559 1806 3559 1356 
Q 3559 666 3084 287 
Q 2609 -91 1734 -91 
Q 1441 -91 1130 -33 
Q 819 25 488 141 
L 488 750 
Q 750 597 1062 519 
Q 1375 441 1716 441 
Q 2309 441 2620 675 
Q 2931 909 2931 1356 
Q 2931 1769 2642 2001 
Q 2353 2234 1838 2234 
L 1294 2234 
L 1294 2753 
L 1863 2753 
Q 2328 2753 2575 2939 
Q 2822 3125 2822 3475 
Q 2822 3834 2567 4026 
Q 2313 4219 1838 4219 
Q 1578 4219 1281 4162 
Q 984 4106 628 3988 
L 628 4550 
Q 988 4650 1302 4700 
Q 1616 4750 1894 4750 
Q 2613 4750 3031 4423 
Q 3450 4097 3450 3541 
Q 3450 3153 3228 2886 
Q 3006 2619 2597 2516 
z
" transform="scale(0.015625)"/>
       </defs>
       <use xlink:href="#DejaVuSans-33"/>
       <use xlink:href="#DejaVuSans-30" x="63.623047"/>
       <use xlink:href="#DejaVuSans-30" x="127.246094"/>
      </g>
     </g>
    </g>
    <g id="ytick_8">
     <g id="line2d_14">
      <g>
       <use xlink:href="#m4a986a167b" x="57.6" y="65.223344" style="stroke: #000000; stroke-width: 0.8"/>
      </g>
     </g>
     <g id="text_15">
      <!-- 350 -->
      <g transform="translate(31.5125 69.022563)scale(0.1 -0.1)">
       <use xlink:href="#DejaVuSans-33"/>
       <use xlink:href="#DejaVuSans-35" x="63.623047"/>
       <use xlink:href="#DejaVuSans-30" x="127.246094"/>
      </g>
     </g>
    </g>
    <g id="text_16">
     <!-- Number of crosslinks -->
     <g transform="translate(25.432812 227.019406)rotate(-90)scale(0.1 -0.1)">
      <defs>
       <path id="DejaVuSans-4e" d="M 628 4666 
L 1478 4666 
L 3547 763 
L 3547 4666 
L 4159 4666 
L 4159 0 
L 3309 0 
L 1241 3903 
L 1241 0 
L 628 0 
L 628 4666 
z
" transform="scale(0.015625)"/>
       <path id="DejaVuSans-75" d="M 544 1381 
L 544 3500 
L 1119 3500 
L 1119 1403 
Q 1119 906 1312 657 
Q 1506 409 1894 409 
Q 2359 409 2629 706 
Q 2900 1003 2900 1516 
L 2900 3500 
L 3475 3500 
L 3475 0 
L 2900 0 
L 2900 538 
Q 2691 219 2414 64 
Q 2138 -91 1772 -91 
Q 1169 -91 856 284 
Q 544 659 544 1381 
z
M 1991 3584 
L 1991 3584 
z
" transform="scale(0.015625)"/>
       <path id="DejaVuSans-6d" d="M 3328 2828 
Q 3544 3216 3844 3400 
Q 4144 3584 4550 3584 
Q 5097 3584 5394 3201 
Q 5691 2819 5691 2113 
L 5691 0 
L 5113 0 
L 5113 2094 
Q 5113 2597 4934 2840 
Q 4756 3084 4391 3084 
Q 3944 3084 3684 2787 
Q 3425 2491 3425 1978 
L 3425 0 
L 2847 0 
L 2847 2094 
Q 2847 2600 2669 2842 
Q 2491 3084 2119 3084 
Q 1678 3084 1418 2786 
Q 1159 2488 1159 1978 
L 1159 0 
L 581 0 
L 581 3500 
L 1159 3500 
L 1159 2956 
Q 1356 3278 1631 3431 
Q 1906 3584 2284 3584 
Q 2666 3584 2933 3390 
Q 3200 3197 3328 2828 
z
" transform="scale(0.015625)"/>
       <path id="DejaVuSans-62" d="M 3116 1747 
Q 3116 2381 2855 2742 
Q 2594 3103 2138 3103 
Q 1681 3103 1420 2742 
Q 1159 2381 1159 1747 
Q 1159 1113 1420 752 
Q 1681 391 2138 391 
Q 2594 391 2855 752 
Q 3116 1113 3116 1747 
z
M 1159 2969 
Q 1341 3281 1617 3432 
Q 1894 3584 2278 3584 
Q 2916 3584 3314 3078 
Q 3713 2572 3713 1747 
Q 3713 922 3314 415 
Q 2916 -91 2278 -91 
Q 1894 -91 1617 61 
Q 1341 213 1159 525 
L 1159 0 
L 581 0 
L 581 4863 
L 1159 4863 
L 1159 2969 
z
" transform="scale(0.015625)"/>
       <path id="DejaVuSans-20" transform="scale(0.015625)"/>
       <path id="DejaVuSans-66" d="M 2375 4863 
L 2375 4384 
L 1825 4384 
Q 1516 4384 1395 4259 
Q 1275 4134 1275 3809 
L 1275 3500 
L 2222 3500 
L 2222 3053 
L 1275 3053 
L 1275 0 
L 697 0 
L 697 3053 
L 147 3053 
L 147 3500 
L 697 3500 
L 697 3744 
Q 697 4328 969 4595 
Q 1241 4863 1831 4863 
L 2375 4863 
z
" transform="scale(0.015625)"/>
       <path id="DejaVuSans-73" d="M 2834 3397 
L 2834 2853 
Q 2591 2978 2328 3040 
Q 2066 3103 1784 3103 
Q 1356 3103 1142 2972 
Q 928 2841 928 2578 
Q 928 2378 1081 2264 
Q 1234 2150 1697 2047 
L 1894 2003 
Q 2506 1872 2764 1633 
Q 3022 1394 3022 966 
Q 3022 478 2636 193 
Q 2250 -91 1575 -91 
Q 1294 -91 989 -36 
Q 684 19 347 128 
L 347 722 
Q 666 556 975 473 
Q 1284 391 1588 391 
Q 1994 391 2212 530 
Q 2431 669 2431 922 
Q 2431 1156 2273 1281 
Q 2116 1406 1581 1522 
L 1381 1569 
Q 847 1681 609 1914 
Q 372 2147 372 2553 
Q 372 3047 722 3315 
Q 1072 3584 1716 3584 
Q 2034 3584 2315 3537 
Q 2597 3491 2834 3397 
z
" transform="scale(0.015625)"/>
       <path id="DejaVuSans-6c" d="M 603 4863 
L 1178 4863 
L 1178 0 
L 603 0 
L 603 4863 
z
" transform="scale(0.015625)"/>
       <path id="DejaVuSans-69" d="M 603 3500 
L 1178 3500 
L 1178 0 
L 603 0 
L 603 3500 
z
M 603 4863 
L 1178 4863 
L 1178 4134 
L 603 4134 
L 603 4863 
z
" transform="scale(0.015625)"/>
       <path id="DejaVuSans-6e" d="M 3513 2113 
L 3513 0 
L 2938 0 
L 2938 2094 
Q 2938 2591 2744 2837 
Q 2550 3084 2163 3084 
Q 1697 3084 1428 2787 
Q 1159 2491 1159 1978 
L 1159 0 
L 581 0 
L 581 3500 
L 1159 3500 
L 1159 2956 
Q 1366 3272 1645 3428 
Q 1925 3584 2291 3584 
Q 2894 3584 3203 3211 
Q 3513 2838 3513 2113 
z
" transform="scale(0.015625)"/>
       <path id="DejaVuSans-6b" d="M 581 4863 
L 1159 4863 
L 1159 1991 
L 2875 3500 
L 3609 3500 
L 1753 1863 
L 3688 0 
L 2938 0 
L 1159 1709 
L 1159 0 
L 581 0 
L 581 4863 
z
" transform="scale(0.015625)"/>
      </defs>
      <use xlink:href="#DejaVuSans-4e"/>
      <use xlink:href="#DejaVuSans-75" x="74.804688"/>
      <use xlink:href="#DejaVuSans-6d" x="138.183594"/>
      <use xlink:href="#DejaVuSans-62" x="235.595703"/>
      <use xlink:href="#DejaVuSans-65" x="299.072266"/>
      <use xlink:href="#DejaVuSans-72" x="360.595703"/>
      <use xlink:href="#DejaVuSans-20" x="401.708984"/>
      <use xlink:href="#DejaVuSans-6f" x="433.496094"/>
      <use xlink:href="#DejaVuSans-66" x="494.677734"/>
      <use xlink:href="#DejaVuSans-20" x="529.882812"/>
      <use xlink:href="#DejaVuSans-63" x="561.669922"/>
      <use xlink:href="#DejaVuSans-72" x="616.650391"/>
      <use xlink:href="#DejaVuSans-6f" x="655.513672"/>
      <use xlink:href="#DejaVuSans-73" x="716.695312"/>
      <use xlink:href="#DejaVuSans-73" x="768.794922"/>
      <use xlink:href="#DejaVuSans-6c" x="820.894531"/>
      <use xlink:href="#DejaVuSans-69" x="848.677734"/>
      <use xlink:href="#DejaVuSans-6e" x="876.460938"/>
      <use xlink:href="#DejaVuSans-6b" x="939.839844"/>
      <use xlink:href="#DejaVuSans-73" x="997.75"/>
     </g>
    </g>
   </g>
   <g id="patch_3">
    <path d="M 57.6 307.584 
L 57.6 41.472 
" style="fill: none; stroke: #000000; stroke-width: 0.8; stroke-linejoin: miter; stroke-linecap: square"/>
   </g>
   <g id="patch_4">
    <path d="M 414.72 307.584 
L 414.72 41.472 
" style="fill: none; stroke: #000000; stroke-width: 0.8; stroke-linejoin: miter; stroke-linecap: square"/>
   </g>
   <g id="patch_5">
    <path d="M 57.6 307.584 
L 414.72 307.584 
" style="fill: none; stroke: #000000; stroke-width: 0.8; stroke-linejoin: miter; stroke-linecap: square"/>
   </g>
   <g id="patch_6">
    <path d="M 57.6 41.472 
L 414.72 41.472 
" style="fill: none; stroke: #000000; stroke-width: 0.8; stroke-linejoin: miter; stroke-linecap: square"/>
   </g>
   <g id="legend_1">
    <g id="patch_7">
     <path d="M 293.087188 93.506375 
L 407.72 93.506375 
Q 409.72 93.506375 409.72 91.506375 
L 409.72 48.472 
Q 409.72 46.472 407.72 46.472 
L 293.087188 46.472 
Q 291.087188 46.472 291.087188 48.472 
L 291.087188 91.506375 
Q 291.087188 93.506375 293.087188 93.506375 
z
" style="fill: #ffffff; opacity: 0.8; stroke: #cccccc; stroke-linejoin: miter"/>
    </g>
    <g id="patch_8">
     <path d="M 295.087188 58.070438 
L 315.087188 58.070438 
L 315.087188 51.070438 
L 295.087188 51.070438 
z
" style="fill: #008000"/>
    </g>
    <g id="text_17">
     <!-- true -->
     <g transform="translate(323.087188 58.070438)scale(0.1 -0.1)">
      <defs>
       <path id="DejaVuSans-74" d="M 1172 4494 
L 1172 3500 
L 2356 3500 
L 2356 3053 
L 1172 3053 
L 1172 1153 
Q 1172 725 1289 603 
Q 1406 481 1766 481 
L 2356 481 
L 2356 0 
L 1766 0 
Q 1100 0 847 248 
Q 594 497 594 1153 
L 594 3053 
L 172 3053 
L 172 3500 
L 594 3500 
L 594 4494 
L 1172 4494 
z
" transform="scale(0.015625)"/>
      </defs>
      <use xlink:href="#DejaVuSans-74"/>
      <use xlink:href="#DejaVuSans-72" x="39.208984"/>
      <use xlink:href="#DejaVuSans-75" x="80.322266"/>
      <use xlink:href="#DejaVuSans-65" x="143.701172"/>
     </g>
    </g>
    <g id="patch_9">
     <path d="M 295.087188 72.748563 
L 315.087188 72.748563 
L 315.087188 65.748563 
L 295.087188 65.748563 
z
" style="fill: #7cfc00"/>
    </g>
    <g id="text_18">
     <!-- true homeotypic -->
     <g transform="translate(323.087188 72.748563)scale(0.1 -0.1)">
      <defs>
       <path id="DejaVuSans-68" d="M 3513 2113 
L 3513 0 
L 2938 0 
L 2938 2094 
Q 2938 2591 2744 2837 
Q 2550 3084 2163 3084 
Q 1697 3084 1428 2787 
Q 1159 2491 1159 1978 
L 1159 0 
L 581 0 
L 581 4863 
L 1159 4863 
L 1159 2956 
Q 1366 3272 1645 3428 
Q 1925 3584 2291 3584 
Q 2894 3584 3203 3211 
Q 3513 2838 3513 2113 
z
" transform="scale(0.015625)"/>
       <path id="DejaVuSans-79" d="M 2059 -325 
Q 1816 -950 1584 -1140 
Q 1353 -1331 966 -1331 
L 506 -1331 
L 506 -850 
L 844 -850 
Q 1081 -850 1212 -737 
Q 1344 -625 1503 -206 
L 1606 56 
L 191 3500 
L 800 3500 
L 1894 763 
L 2988 3500 
L 3597 3500 
L 2059 -325 
z
" transform="scale(0.015625)"/>
       <path id="DejaVuSans-70" d="M 1159 525 
L 1159 -1331 
L 581 -1331 
L 581 3500 
L 1159 3500 
L 1159 2969 
Q 1341 3281 1617 3432 
Q 1894 3584 2278 3584 
Q 2916 3584 3314 3078 
Q 3713 2572 3713 1747 
Q 3713 922 3314 415 
Q 2916 -91 2278 -91 
Q 1894 -91 1617 61 
Q 1341 213 1159 525 
z
M 3116 1747 
Q 3116 2381 2855 2742 
Q 2594 3103 2138 3103 
Q 1681 3103 1420 2742 
Q 1159 2381 1159 1747 
Q 1159 1113 1420 752 
Q 1681 391 2138 391 
Q 2594 391 2855 752 
Q 3116 1113 3116 1747 
z
" transform="scale(0.015625)"/>
      </defs>
      <use xlink:href="#DejaVuSans-74"/>
      <use xlink:href="#DejaVuSans-72" x="39.208984"/>
      <use xlink:href="#DejaVuSans-75" x="80.322266"/>
      <use xlink:href="#DejaVuSans-65" x="143.701172"/>
      <use xlink:href="#DejaVuSans-20" x="205.224609"/>
      <use xlink:href="#DejaVuSans-68" x="237.011719"/>
      <use xlink:href="#DejaVuSans-6f" x="300.390625"/>
      <use xlink:href="#DejaVuSans-6d" x="361.572266"/>
      <use xlink:href="#DejaVuSans-65" x="458.984375"/>
      <use xlink:href="#DejaVuSans-6f" x="520.507812"/>
      <use xlink:href="#DejaVuSans-74" x="581.689453"/>
      <use xlink:href="#DejaVuSans-79" x="620.898438"/>
      <use xlink:href="#DejaVuSans-70" x="680.078125"/>
      <use xlink:href="#DejaVuSans-69" x="743.554688"/>
      <use xlink:href="#DejaVuSans-63" x="771.337891"/>
     </g>
    </g>
    <g id="patch_10">
     <path d="M 295.087188 87.426688 
L 315.087188 87.426688 
L 315.087188 80.426688 
L 295.087188 80.426688 
z
" style="fill: #ff0000"/>
    </g>
    <g id="text_19">
     <!-- false -->
     <g transform="translate(323.087188 87.426688)scale(0.1 -0.1)">
      <defs>
       <path id="DejaVuSans-61" d="M 2194 1759 
Q 1497 1759 1228 1600 
Q 959 1441 959 1056 
Q 959 750 1161 570 
Q 1363 391 1709 391 
Q 2188 391 2477 730 
Q 2766 1069 2766 1631 
L 2766 1759 
L 2194 1759 
z
M 3341 1997 
L 3341 0 
L 2766 0 
L 2766 531 
Q 2569 213 2275 61 
Q 1981 -91 1556 -91 
Q 1019 -91 701 211 
Q 384 513 384 1019 
Q 384 1609 779 1909 
Q 1175 2209 1959 2209 
L 2766 2209 
L 2766 2266 
Q 2766 2663 2505 2880 
Q 2244 3097 1772 3097 
Q 1472 3097 1187 3025 
Q 903 2953 641 2809 
L 641 3341 
Q 956 3463 1253 3523 
Q 1550 3584 1831 3584 
Q 2591 3584 2966 3190 
Q 3341 2797 3341 1997 
z
" transform="scale(0.015625)"/>
      </defs>
      <use xlink:href="#DejaVuSans-66"/>
      <use xlink:href="#DejaVuSans-61" x="35.205078"/>
      <use xlink:href="#DejaVuSans-6c" x="96.484375"/>
      <use xlink:href="#DejaVuSans-73" x="124.267578"/>
      <use xlink:href="#DejaVuSans-65" x="176.367188"/>
     </g>
    </g>
   </g>
  </g>
 </g>
 <defs>
  <clipPath id="p35c329265a">
   <rect x="57.6" y="41.472" width="357.12" height="266.112"/>
  </clipPath>
 </defs>
</svg>
