<?xml version="1.0" encoding="utf-8" standalone="no"?>
<!DOCTYPE svg PUBLIC "-//W3C//DTD SVG 1.1//EN"
  "http://www.w3.org/Graphics/SVG/1.1/DTD/svg11.dtd">
<svg xmlns:xlink="http://www.w3.org/1999/xlink" width="460.8pt" height="345.6pt" viewBox="0 0 460.8 345.6" xmlns="http://www.w3.org/2000/svg" version="1.1">
 <metadata>
  <rdf:RDF xmlns:dc="http://purl.org/dc/elements/1.1/" xmlns:cc="http://creativecommons.org/ns#" xmlns:rdf="http://www.w3.org/1999/02/22-rdf-syntax-ns#">
   <cc:Work>
    <dc:type rdf:resource="http://purl.org/dc/dcmitype/StillImage"/>
    <dc:date>2022-08-24T14:34:32.103673</dc:date>
    <dc:format>image/svg+xml</dc:format>
    <dc:creator>
     <cc:Agent>
      <dc:title>Matplotlib v3.5.1, https://matplotlib.org/</dc:title>
     </cc:Agent>
    </dc:creator>
   </cc:Work>
  </rdf:RDF>
 </metadata>
 <defs>
  <style type="text/css">*{stroke-linejoin: round; stroke-linecap: butt}</style>
 </defs>
 <g id="figure_1">
  <g id="patch_1">
   <path d="M 0 345.6 
L 460.8 345.6 
L 460.8 0 
L 0 0 
z
" style="fill: #ffffff"/>
  </g>
  <g id="axes_1">
   <g id="patch_2">
    <path d="M 57.6 307.584 
L 414.72 307.584 
L 414.72 41.472 
L 57.6 41.472 
z
" style="fill: #ffffff"/>
   </g>
   <g id="PolyCollection_1">
    <path d="M 73.832727 90.447568 
L 73.832727 307.584 
L 73.856432 307.584 
L 74.438505 307.584 
L 74.541223 307.584 
L 74.659745 307.584 
L 74.90469 307.584 
L 74.920493 307.584 
L 75.299762 307.584 
L 75.43672 307.584 
L 75.634257 307.584 
L 76.158386 307.584 
L 76.52712 307.584 
L 76.640374 307.584 
L 77.169771 307.584 
L 77.377842 307.584 
L 77.483195 307.584 
L 78.112676 307.584 
L 78.652608 307.584 
L 79.02661 307.584 
L 79.108258 307.584 
L 79.416415 307.584 
L 79.458556 307.584 
L 79.503331 307.584 
L 79.727205 307.584 
L 80.037995 307.584 
L 80.380391 307.584 
L 80.411997 307.584 
L 80.48311 307.584 
L 80.688547 307.584 
L 80.875548 307.584 
L 81.199507 307.584 
L 81.320663 307.584 
L 81.389142 307.584 
L 81.497128 307.584 
L 81.499762 307.584 
L 81.576143 307.584 
L 81.78158 307.584 
L 81.847426 307.584 
L 81.98175 307.584 
L 82.210892 307.584 
L 82.49271 307.584 
L 82.495344 307.584 
L 82.511147 307.584 
L 82.555922 307.584 
L 82.72712 307.584 
L 82.935191 307.584 
L 82.995769 307.584 
L 83.164333 307.584 
L 83.464588 307.584 
L 83.517264 307.584 
L 83.730603 307.584 
L 83.785913 307.584 
L 84.381155 307.584 
L 84.386423 307.584 
L 84.391691 307.584 
L 84.444367 307.584 
L 84.565523 307.584 
L 84.615565 307.584 
L 84.741988 307.584 
L 84.810467 307.584 
L 84.894749 307.584 
L 84.928989 307.584 
L 84.931623 307.584 
L 84.947426 307.584 
L 85.168666 307.584 
L 85.324061 307.584 
L 85.329329 307.584 
L 85.505794 307.584 
L 85.518963 307.584 
L 85.526865 307.584 
L 85.629584 307.584 
L 85.73757 307.584 
L 86.095769 307.584 
L 86.372319 307.584 
L 86.459235 307.584 
L 86.920153 307.584 
L 86.967562 307.584 
L 87.133492 307.584 
L 87.575973 307.584 
L 88.086933 307.584 
L 88.234427 307.584 
L 89.251079 307.584 
L 89.456517 307.584 
L 89.848955 307.584 
L 89.901631 307.584 
L 89.94904 307.584 
L 89.975378 307.584 
L 90.436296 307.584 
L 90.615395 307.584 
L 90.74972 307.584 
L 90.955157 307.584 
L 90.965692 307.584 
L 91.242243 307.584 
L 91.376568 307.584 
L 91.458216 307.584 
L 91.866457 307.584 
L 91.900697 307.584 
L 92.045556 307.584 
L 92.04819 307.584 
L 92.693475 307.584 
L 92.725081 307.584 
L 92.912082 307.584 
L 92.956856 307.584 
L 93.157026 307.584 
L 93.412506 307.584 
L 93.523127 307.584 
L 94.068326 307.584 
L 94.23689 307.584 
L 94.27113 307.584 
L 94.373849 307.584 
L 94.468666 307.584 
L 94.497638 307.584 
L 94.666202 307.584 
L 94.813696 307.584 
L 94.840034 307.584 
L 95.119218 307.584 
L 95.269346 307.584 
L 95.369431 307.584 
L 95.535361 307.584 
L 95.609108 307.584 
L 95.759235 307.584 
L 95.962039 307.584 
L 95.985743 307.584 
L 96.072659 307.584 
L 96.154308 307.584 
L 96.328139 307.584 
L 96.670535 307.584 
L 97.070875 307.584 
L 97.102481 307.584 
L 97.326355 307.584 
L 97.442243 307.584 
L 97.900527 307.584 
L 98.076992 307.584 
L 98.242923 307.584 
L 98.545811 307.584 
L 98.943517 307.584 
L 99.999677 307.584 
L 100.07079 307.584 
L 100.384214 307.584 
L 100.695004 307.584 
L 100.958386 307.584 
L 101.205964 307.584 
L 101.43774 307.584 
L 101.745896 307.584 
L 101.903925 307.584 
L 102.122532 307.584 
L 102.185743 307.584 
L 102.333237 307.584 
L 102.399082 307.584 
L 102.504435 307.584 
L 102.562379 307.584 
L 103.389397 307.584 
L 103.423636 307.584 
L 103.48158 307.584 
L 103.576398 307.584 
L 103.942498 307.584 
L 104.361274 307.584 
L 104.611487 307.584 
L 104.693135 307.584 
L 104.801121 307.584 
L 105.114545 307.584 
L 106.173339 307.584 
L 106.233917 307.584 
L 106.260255 307.584 
L 106.902906 307.584 
L 106.992455 307.584 
L 107.708853 307.584 
L 107.777332 307.584 
L 107.822107 307.584 
L 107.89322 307.584 
L 108.053883 307.584 
L 108.651759 307.584 
L 108.696534 307.584 
L 108.941478 307.584 
L 109.452438 307.584 
L 109.644707 307.584 
L 109.773764 307.584 
L 110.089822 307.584 
L 110.550739 307.584 
L 110.556007 307.584 
L 110.84836 307.584 
L 111.056432 307.584 
L 111.306644 307.584 
L 111.404095 307.584 
L 111.99407 307.584 
L 112.246916 307.584 
L 112.407579 307.584 
L 112.686763 307.584 
L 112.742073 307.584 
L 112.855327 307.584 
L 113.276737 307.584 
L 113.358386 307.584 
L 113.608598 307.584 
L 113.924656 307.584 
L 114.43825 307.584 
L 114.975548 307.584 
L 115.130943 307.584 
L 115.215225 307.584 
L 115.375888 307.584 
L 115.520748 307.584 
L 115.565523 307.584 
L 115.610297 307.584 
L 115.636636 307.584 
L 115.8052 307.584 
L 116.297723 307.584 
L 117.156347 307.584 
L 117.237995 307.584 
L 117.288037 307.584 
L 117.432897 307.584 
L 117.809533 307.584 
L 118.784044 307.584 
L 119.16068 307.584 
L 119.38192 307.584 
L 119.482005 307.584 
L 119.848105 307.584 
L 120.095684 307.584 
L 120.103585 307.584 
L 120.122022 307.584 
L 120.211572 307.584 
L 120.343263 307.584 
L 120.390671 307.584 
L 120.522362 307.584 
L 120.967477 307.584 
L 121.978862 307.584 
L 122.924401 307.584 
L 122.940204 307.584 
L 123.13774 307.584 
L 123.693475 307.584 
L 125.020918 307.584 
L 125.242158 307.584 
L 127.212251 307.584 
L 127.233322 307.584 
L 127.704775 307.584 
L 128.236805 307.584 
L 129.327205 307.584 
L 129.606389 307.584 
L 130.01463 307.584 
L 130.19373 307.584 
L 130.941733 307.584 
L 130.999677 307.584 
L 131.128734 307.584 
L 131.134002 307.584 
L 131.257791 307.584 
L 131.268326 307.584 
L 131.349975 307.584 
L 131.363144 307.584 
L 131.813526 307.584 
L 132.079541 307.584 
L 132.161189 307.584 
L 132.176992 307.584 
L 132.2165 307.584 
L 132.516754 307.584 
L 132.669516 307.584 
L 132.74853 307.584 
L 133.304265 307.584 
L 133.773084 307.584 
L 134.697553 307.584 
L 134.847681 307.584 
L 134.871385 307.584 
L 135.105794 307.584 
L 135.442923 307.584 
L 136.549125 307.584 
L 136.912591 307.584 
L 136.946831 307.584 
L 137.178607 307.584 
L 137.710637 307.584 
L 137.939779 307.584 
L 138.058301 307.584 
L 138.124146 307.584 
L 138.4165 307.584 
L 138.909023 307.584 
L 139.243517 307.584 
L 139.283025 307.584 
L 139.664928 307.584 
L 139.928309 307.584 
L 140.162719 307.584 
L 140.228564 307.584 
L 140.339184 307.584 
L 140.399762 307.584 
L 141.013441 307.584 
L 141.147766 307.584 
L 141.237315 307.584 
L 141.677162 307.584 
L 141.750909 307.584 
L 142.035361 307.584 
L 143.244282 307.584 
L 143.987018 307.584 
L 144.12661 307.584 
L 145.172234 307.584 
L 145.820153 307.584 
L 146.468071 307.584 
L 146.871045 307.584 
L 147.142328 307.584 
L 147.769176 307.584 
L 148.050994 307.584 
L 148.153713 307.584 
L 148.59356 307.584 
L 148.622532 307.584 
L 149.388972 307.584 
L 149.402141 307.584 
L 149.515395 307.584 
L 149.857791 307.584 
L 149.973679 307.584 
L 150.197553 307.584 
L 150.600527 307.584 
L 150.766457 307.584 
L 152.072829 307.584 
L 153.068411 307.584 
L 153.121088 307.584 
L 153.263314 307.584 
L 154.406389 307.584 
L 155.030603 307.584 
L 156.073594 307.584 
L 156.205285 307.584 
L 156.408088 307.584 
L 157.540629 307.584 
L 157.630178 307.584 
L 157.975208 307.584 
L 158.101631 307.584 
L 159.521257 307.584 
L 159.863653 307.584 
L 162.002311 307.584 
L 163.385064 307.584 
L 165.323551 307.584 
L 165.539524 307.584 
L 166.603585 307.584 
L 167.946831 307.584 
L 168.334002 307.584 
L 169.113611 307.584 
L 169.240034 307.584 
L 170.946746 307.584 
L 172.210977 307.584 
L 173.967732 307.584 
L 175.342583 307.584 
L 175.450569 307.584 
L 178.429414 307.584 
L 178.526865 307.584 
L 178.676992 307.584 
L 179.506644 307.584 
L 180.051844 307.584 
L 180.768241 307.584 
L 181.424061 307.584 
L 182.019303 307.584 
L 183.375718 307.584 
L 183.744452 307.584 
L 183.88141 307.584 
L 189.978692 307.584 
L 190.945302 307.584 
L 194.303415 307.584 
L 199.481495 307.584 
L 202.718454 307.584 
L 204.024826 307.584 
L 207.896534 307.584 
L 214.251929 307.584 
L 219.419473 307.584 
L 220.883874 307.584 
L 226.241054 307.584 
L 234.363738 307.584 
L 234.579711 307.584 
L 238.211742 307.584 
L 244.580306 307.584 
L 250.045472 307.584 
L 252.257876 307.584 
L 254.933832 307.584 
L 274.508343 307.584 
L 278.743517 307.584 
L 284.316669 307.584 
L 300.319728 307.584 
L 398.487273 307.584 
L 398.487273 307.584 
L 398.487273 307.584 
L 300.319728 307.584 
L 284.316669 307.584 
L 278.743517 307.584 
L 274.508343 307.584 
L 254.933832 307.584 
L 252.257876 307.584 
L 250.045472 307.584 
L 244.580306 307.584 
L 238.211742 307.584 
L 234.579711 307.584 
L 234.363738 307.584 
L 226.241054 307.584 
L 220.883874 307.584 
L 219.419473 307.584 
L 214.251929 306.899027 
L 207.896534 306.899027 
L 204.024826 306.214054 
L 202.718454 306.214054 
L 199.481495 306.214054 
L 194.303415 306.214054 
L 190.945302 306.214054 
L 189.978692 305.529081 
L 183.88141 304.844108 
L 183.744452 304.159135 
L 183.375718 303.474162 
L 182.019303 303.474162 
L 181.424061 303.474162 
L 180.768241 302.789189 
L 180.051844 302.104216 
L 179.506644 301.419243 
L 178.676992 301.419243 
L 178.526865 300.73427 
L 178.429414 300.73427 
L 175.450569 300.049297 
L 175.342583 299.364324 
L 173.967732 298.679351 
L 172.210977 298.679351 
L 170.946746 298.679351 
L 169.240034 297.994378 
L 169.113611 297.994378 
L 168.334002 297.309405 
L 167.946831 297.309405 
L 166.603585 296.624432 
L 165.539524 296.624432 
L 165.323551 295.939459 
L 163.385064 295.254486 
L 162.002311 294.569514 
L 159.863653 293.884541 
L 159.521257 293.884541 
L 158.101631 293.199568 
L 157.975208 292.514595 
L 157.630178 291.829622 
L 157.540629 291.144649 
L 156.408088 290.459676 
L 156.205285 289.774703 
L 156.073594 289.774703 
L 155.030603 289.08973 
L 154.406389 288.404757 
L 153.263314 287.719784 
L 153.121088 287.719784 
L 153.068411 287.034811 
L 152.072829 286.349838 
L 150.766457 285.664865 
L 150.600527 285.664865 
L 150.197553 284.979892 
L 149.973679 284.294919 
L 149.857791 283.609946 
L 149.515395 283.609946 
L 149.402141 282.924973 
L 149.388972 282.24 
L 148.622532 281.555027 
L 148.59356 280.870054 
L 148.153713 280.870054 
L 148.050994 280.185081 
L 147.769176 280.185081 
L 147.142328 279.500108 
L 146.871045 278.815135 
L 146.468071 278.130162 
L 145.820153 277.445189 
L 145.172234 276.760216 
L 144.12661 276.075243 
L 143.987018 275.39027 
L 143.244282 274.705297 
L 142.035361 274.020324 
L 141.750909 273.335351 
L 141.677162 272.650378 
L 141.237315 271.965405 
L 141.147766 271.280432 
L 141.013441 270.595459 
L 140.399762 269.910486 
L 140.339184 269.225514 
L 140.228564 268.540541 
L 140.162719 267.855568 
L 139.928309 267.170595 
L 139.664928 266.485622 
L 139.283025 265.800649 
L 139.243517 265.115676 
L 138.909023 264.430703 
L 138.4165 263.74573 
L 138.124146 263.74573 
L 138.058301 263.060757 
L 137.939779 262.375784 
L 137.710637 262.375784 
L 137.178607 261.690811 
L 136.946831 261.005838 
L 136.912591 260.320865 
L 136.549125 259.635892 
L 135.442923 258.950919 
L 135.105794 258.265946 
L 134.871385 257.580973 
L 134.847681 256.896 
L 134.697553 256.211027 
L 133.773084 255.526054 
L 133.304265 254.841081 
L 132.74853 254.841081 
L 132.669516 254.156108 
L 132.516754 253.471135 
L 132.2165 252.786162 
L 132.176992 252.101189 
L 132.161189 251.416216 
L 132.079541 250.731243 
L 131.813526 250.04627 
L 131.363144 249.361297 
L 131.349975 248.676324 
L 131.268326 247.991351 
L 131.257791 247.306378 
L 131.134002 246.621405 
L 131.128734 245.936432 
L 130.999677 245.251459 
L 130.941733 244.566486 
L 130.19373 243.881514 
L 130.01463 243.196541 
L 129.606389 242.511568 
L 129.327205 241.826595 
L 128.236805 241.141622 
L 127.704775 240.456649 
L 127.233322 239.771676 
L 127.212251 239.086703 
L 125.242158 238.40173 
L 125.020918 237.716757 
L 123.693475 237.031784 
L 123.13774 236.346811 
L 122.940204 235.661838 
L 122.924401 234.976865 
L 121.978862 234.291892 
L 120.967477 233.606919 
L 120.522362 232.921946 
L 120.390671 232.236973 
L 120.343263 231.552 
L 120.211572 230.867027 
L 120.122022 230.182054 
L 120.103585 229.497081 
L 120.095684 228.812108 
L 119.848105 228.127135 
L 119.482005 227.442162 
L 119.38192 226.757189 
L 119.16068 226.072216 
L 118.784044 225.387243 
L 117.809533 224.70227 
L 117.432897 224.017297 
L 117.288037 223.332324 
L 117.237995 222.647351 
L 117.156347 221.962378 
L 116.297723 221.277405 
L 115.8052 221.277405 
L 115.636636 219.907459 
L 115.610297 219.222486 
L 115.565523 218.537514 
L 115.520748 217.852541 
L 115.375888 217.167568 
L 115.215225 216.482595 
L 115.130943 215.797622 
L 114.975548 215.112649 
L 114.43825 214.427676 
L 113.924656 213.742703 
L 113.608598 213.05773 
L 113.358386 212.372757 
L 113.276737 211.687784 
L 112.855327 211.002811 
L 112.742073 210.317838 
L 112.686763 209.632865 
L 112.407579 208.947892 
L 112.246916 208.262919 
L 111.99407 207.577946 
L 111.404095 206.892973 
L 111.306644 206.208 
L 111.056432 205.523027 
L 110.84836 204.838054 
L 110.556007 204.153081 
L 110.550739 203.468108 
L 110.089822 202.783135 
L 109.773764 202.098162 
L 109.644707 201.413189 
L 109.452438 200.728216 
L 108.941478 200.043243 
L 108.696534 200.043243 
L 108.651759 199.35827 
L 108.053883 199.35827 
L 107.89322 198.673297 
L 107.822107 197.988324 
L 107.777332 197.303351 
L 107.708853 196.618378 
L 106.992455 195.933405 
L 106.902906 195.248432 
L 106.260255 194.563459 
L 106.233917 193.878486 
L 106.173339 193.878486 
L 105.114545 193.193514 
L 104.801121 192.508541 
L 104.693135 191.823568 
L 104.611487 191.138595 
L 104.361274 190.453622 
L 103.942498 189.768649 
L 103.576398 189.083676 
L 103.48158 188.398703 
L 103.423636 187.71373 
L 103.389397 187.028757 
L 102.562379 186.343784 
L 102.504435 185.658811 
L 102.399082 184.973838 
L 102.333237 184.288865 
L 102.185743 183.603892 
L 102.122532 182.918919 
L 101.903925 182.233946 
L 101.745896 181.548973 
L 101.43774 180.864 
L 101.205964 180.179027 
L 100.958386 179.494054 
L 100.695004 178.809081 
L 100.384214 178.124108 
L 100.07079 177.439135 
L 99.999677 176.754162 
L 98.943517 176.069189 
L 98.545811 175.384216 
L 98.242923 174.699243 
L 98.076992 174.01427 
L 97.900527 173.329297 
L 97.442243 172.644324 
L 97.326355 171.959351 
L 97.102481 171.274378 
L 97.070875 170.589405 
L 96.670535 169.904432 
L 96.328139 169.219459 
L 96.154308 168.534486 
L 96.072659 167.849514 
L 95.985743 167.164541 
L 95.962039 166.479568 
L 95.759235 165.794595 
L 95.609108 165.109622 
L 95.535361 164.424649 
L 95.369431 164.424649 
L 95.269346 163.739676 
L 95.119218 163.054703 
L 94.840034 162.36973 
L 94.813696 161.684757 
L 94.666202 161.684757 
L 94.497638 160.999784 
L 94.468666 160.314811 
L 94.373849 159.629838 
L 94.27113 158.944865 
L 94.23689 158.259892 
L 94.068326 157.574919 
L 93.523127 156.889946 
L 93.412506 156.204973 
L 93.157026 155.52 
L 92.956856 154.835027 
L 92.912082 154.150054 
L 92.725081 153.465081 
L 92.693475 152.780108 
L 92.04819 152.095135 
L 92.045556 151.410162 
L 91.900697 151.410162 
L 91.866457 150.725189 
L 91.458216 150.040216 
L 91.376568 149.355243 
L 91.242243 148.67027 
L 90.965692 147.985297 
L 90.955157 147.300324 
L 90.74972 146.615351 
L 90.615395 145.930378 
L 90.436296 145.245405 
L 89.975378 144.560432 
L 89.94904 143.875459 
L 89.901631 143.190486 
L 89.848955 142.505514 
L 89.456517 141.820541 
L 89.251079 141.135568 
L 88.234427 140.450595 
L 88.086933 139.765622 
L 87.575973 139.080649 
L 87.133492 138.395676 
L 86.967562 137.710703 
L 86.920153 137.02573 
L 86.459235 136.340757 
L 86.372319 135.655784 
L 86.095769 134.970811 
L 85.73757 134.285838 
L 85.629584 133.600865 
L 85.526865 132.915892 
L 85.518963 132.230919 
L 85.505794 131.545946 
L 85.329329 130.860973 
L 85.324061 130.176 
L 85.168666 129.491027 
L 84.947426 128.806054 
L 84.931623 128.806054 
L 84.928989 128.121081 
L 84.894749 127.436108 
L 84.810467 126.751135 
L 84.741988 126.066162 
L 84.615565 125.381189 
L 84.565523 124.696216 
L 84.444367 124.011243 
L 84.391691 123.32627 
L 84.386423 123.32627 
L 84.381155 122.641297 
L 83.785913 121.956324 
L 83.730603 121.271351 
L 83.517264 120.586378 
L 83.464588 119.901405 
L 83.164333 119.216432 
L 82.995769 118.531459 
L 82.935191 117.846486 
L 82.72712 117.161514 
L 82.555922 116.476541 
L 82.511147 115.791568 
L 82.495344 115.106595 
L 82.49271 114.421622 
L 82.210892 113.736649 
L 81.98175 113.736649 
L 81.847426 113.051676 
L 81.78158 112.366703 
L 81.576143 111.68173 
L 81.499762 110.996757 
L 81.497128 110.311784 
L 81.389142 109.626811 
L 81.320663 108.941838 
L 81.199507 108.256865 
L 80.875548 107.571892 
L 80.688547 106.886919 
L 80.48311 106.201946 
L 80.411997 105.516973 
L 80.380391 104.832 
L 80.037995 104.147027 
L 79.727205 103.462054 
L 79.503331 102.777081 
L 79.458556 102.777081 
L 79.416415 102.092108 
L 79.108258 101.407135 
L 79.02661 100.722162 
L 78.652608 100.037189 
L 78.112676 99.352216 
L 77.483195 99.352216 
L 77.377842 98.667243 
L 77.169771 97.98227 
L 76.640374 97.297297 
L 76.52712 96.612324 
L 76.158386 95.927351 
L 75.634257 95.242378 
L 75.43672 94.557405 
L 75.299762 93.872432 
L 74.920493 93.187459 
L 74.90469 92.502486 
L 74.659745 91.817514 
L 74.541223 91.132541 
L 74.438505 90.447568 
L 73.856432 90.447568 
L 73.832727 90.447568 
z
" clip-path="url(#pb5b09cfd70)" style="fill: #008000"/>
   </g>
   <g id="PolyCollection_2">
    <path d="M 73.832727 60.308757 
L 73.832727 90.447568 
L 73.856432 90.447568 
L 74.438505 90.447568 
L 74.541223 91.132541 
L 74.659745 91.817514 
L 74.90469 92.502486 
L 74.920493 93.187459 
L 75.299762 93.872432 
L 75.43672 94.557405 
L 75.634257 95.242378 
L 76.158386 95.927351 
L 76.52712 96.612324 
L 76.640374 97.297297 
L 77.169771 97.98227 
L 77.377842 98.667243 
L 77.483195 99.352216 
L 78.112676 99.352216 
L 78.652608 100.037189 
L 79.02661 100.722162 
L 79.108258 101.407135 
L 79.416415 102.092108 
L 79.458556 102.777081 
L 79.503331 102.777081 
L 79.727205 103.462054 
L 80.037995 104.147027 
L 80.380391 104.832 
L 80.411997 105.516973 
L 80.48311 106.201946 
L 80.688547 106.886919 
L 80.875548 107.571892 
L 81.199507 108.256865 
L 81.320663 108.941838 
L 81.389142 109.626811 
L 81.497128 110.311784 
L 81.499762 110.996757 
L 81.576143 111.68173 
L 81.78158 112.366703 
L 81.847426 113.051676 
L 81.98175 113.736649 
L 82.210892 113.736649 
L 82.49271 114.421622 
L 82.495344 115.106595 
L 82.511147 115.791568 
L 82.555922 116.476541 
L 82.72712 117.161514 
L 82.935191 117.846486 
L 82.995769 118.531459 
L 83.164333 119.216432 
L 83.464588 119.901405 
L 83.517264 120.586378 
L 83.730603 121.271351 
L 83.785913 121.956324 
L 84.381155 122.641297 
L 84.386423 123.32627 
L 84.391691 123.32627 
L 84.444367 124.011243 
L 84.565523 124.696216 
L 84.615565 125.381189 
L 84.741988 126.066162 
L 84.810467 126.751135 
L 84.894749 127.436108 
L 84.928989 128.121081 
L 84.931623 128.806054 
L 84.947426 128.806054 
L 85.168666 129.491027 
L 85.324061 130.176 
L 85.329329 130.860973 
L 85.505794 131.545946 
L 85.518963 132.230919 
L 85.526865 132.915892 
L 85.629584 133.600865 
L 85.73757 134.285838 
L 86.095769 134.970811 
L 86.372319 135.655784 
L 86.459235 136.340757 
L 86.920153 137.02573 
L 86.967562 137.710703 
L 87.133492 138.395676 
L 87.575973 139.080649 
L 88.086933 139.765622 
L 88.234427 140.450595 
L 89.251079 141.135568 
L 89.456517 141.820541 
L 89.848955 142.505514 
L 89.901631 143.190486 
L 89.94904 143.875459 
L 89.975378 144.560432 
L 90.436296 145.245405 
L 90.615395 145.930378 
L 90.74972 146.615351 
L 90.955157 147.300324 
L 90.965692 147.985297 
L 91.242243 148.67027 
L 91.376568 149.355243 
L 91.458216 150.040216 
L 91.866457 150.725189 
L 91.900697 151.410162 
L 92.045556 151.410162 
L 92.04819 152.095135 
L 92.693475 152.780108 
L 92.725081 153.465081 
L 92.912082 154.150054 
L 92.956856 154.835027 
L 93.157026 155.52 
L 93.412506 156.204973 
L 93.523127 156.889946 
L 94.068326 157.574919 
L 94.23689 158.259892 
L 94.27113 158.944865 
L 94.373849 159.629838 
L 94.468666 160.314811 
L 94.497638 160.999784 
L 94.666202 161.684757 
L 94.813696 161.684757 
L 94.840034 162.36973 
L 95.119218 163.054703 
L 95.269346 163.739676 
L 95.369431 164.424649 
L 95.535361 164.424649 
L 95.609108 165.109622 
L 95.759235 165.794595 
L 95.962039 166.479568 
L 95.985743 167.164541 
L 96.072659 167.849514 
L 96.154308 168.534486 
L 96.328139 169.219459 
L 96.670535 169.904432 
L 97.070875 170.589405 
L 97.102481 171.274378 
L 97.326355 171.959351 
L 97.442243 172.644324 
L 97.900527 173.329297 
L 98.076992 174.01427 
L 98.242923 174.699243 
L 98.545811 175.384216 
L 98.943517 176.069189 
L 99.999677 176.754162 
L 100.07079 177.439135 
L 100.384214 178.124108 
L 100.695004 178.809081 
L 100.958386 179.494054 
L 101.205964 180.179027 
L 101.43774 180.864 
L 101.745896 181.548973 
L 101.903925 182.233946 
L 102.122532 182.918919 
L 102.185743 183.603892 
L 102.333237 184.288865 
L 102.399082 184.973838 
L 102.504435 185.658811 
L 102.562379 186.343784 
L 103.389397 187.028757 
L 103.423636 187.71373 
L 103.48158 188.398703 
L 103.576398 189.083676 
L 103.942498 189.768649 
L 104.361274 190.453622 
L 104.611487 191.138595 
L 104.693135 191.823568 
L 104.801121 192.508541 
L 105.114545 193.193514 
L 106.173339 193.878486 
L 106.233917 193.878486 
L 106.260255 194.563459 
L 106.902906 195.248432 
L 106.992455 195.933405 
L 107.708853 196.618378 
L 107.777332 197.303351 
L 107.822107 197.988324 
L 107.89322 198.673297 
L 108.053883 199.35827 
L 108.651759 199.35827 
L 108.696534 200.043243 
L 108.941478 200.043243 
L 109.452438 200.728216 
L 109.644707 201.413189 
L 109.773764 202.098162 
L 110.089822 202.783135 
L 110.550739 203.468108 
L 110.556007 204.153081 
L 110.84836 204.838054 
L 111.056432 205.523027 
L 111.306644 206.208 
L 111.404095 206.892973 
L 111.99407 207.577946 
L 112.246916 208.262919 
L 112.407579 208.947892 
L 112.686763 209.632865 
L 112.742073 210.317838 
L 112.855327 211.002811 
L 113.276737 211.687784 
L 113.358386 212.372757 
L 113.608598 213.05773 
L 113.924656 213.742703 
L 114.43825 214.427676 
L 114.975548 215.112649 
L 115.130943 215.797622 
L 115.215225 216.482595 
L 115.375888 217.167568 
L 115.520748 217.852541 
L 115.565523 218.537514 
L 115.610297 219.222486 
L 115.636636 219.907459 
L 115.8052 221.277405 
L 116.297723 221.277405 
L 117.156347 221.962378 
L 117.237995 222.647351 
L 117.288037 223.332324 
L 117.432897 224.017297 
L 117.809533 224.70227 
L 118.784044 225.387243 
L 119.16068 226.072216 
L 119.38192 226.757189 
L 119.482005 227.442162 
L 119.848105 228.127135 
L 120.095684 228.812108 
L 120.103585 229.497081 
L 120.122022 230.182054 
L 120.211572 230.867027 
L 120.343263 231.552 
L 120.390671 232.236973 
L 120.522362 232.921946 
L 120.967477 233.606919 
L 121.978862 234.291892 
L 122.924401 234.976865 
L 122.940204 235.661838 
L 123.13774 236.346811 
L 123.693475 237.031784 
L 125.020918 237.716757 
L 125.242158 238.40173 
L 127.212251 239.086703 
L 127.233322 239.771676 
L 127.704775 240.456649 
L 128.236805 241.141622 
L 129.327205 241.826595 
L 129.606389 242.511568 
L 130.01463 243.196541 
L 130.19373 243.881514 
L 130.941733 244.566486 
L 130.999677 245.251459 
L 131.128734 245.936432 
L 131.134002 246.621405 
L 131.257791 247.306378 
L 131.268326 247.991351 
L 131.349975 248.676324 
L 131.363144 249.361297 
L 131.813526 250.04627 
L 132.079541 250.731243 
L 132.161189 251.416216 
L 132.176992 252.101189 
L 132.2165 252.786162 
L 132.516754 253.471135 
L 132.669516 254.156108 
L 132.74853 254.841081 
L 133.304265 254.841081 
L 133.773084 255.526054 
L 134.697553 256.211027 
L 134.847681 256.896 
L 134.871385 257.580973 
L 135.105794 258.265946 
L 135.442923 258.950919 
L 136.549125 259.635892 
L 136.912591 260.320865 
L 136.946831 261.005838 
L 137.178607 261.690811 
L 137.710637 262.375784 
L 137.939779 262.375784 
L 138.058301 263.060757 
L 138.124146 263.74573 
L 138.4165 263.74573 
L 138.909023 264.430703 
L 139.243517 265.115676 
L 139.283025 265.800649 
L 139.664928 266.485622 
L 139.928309 267.170595 
L 140.162719 267.855568 
L 140.228564 268.540541 
L 140.339184 269.225514 
L 140.399762 269.910486 
L 141.013441 270.595459 
L 141.147766 271.280432 
L 141.237315 271.965405 
L 141.677162 272.650378 
L 141.750909 273.335351 
L 142.035361 274.020324 
L 143.244282 274.705297 
L 143.987018 275.39027 
L 144.12661 276.075243 
L 145.172234 276.760216 
L 145.820153 277.445189 
L 146.468071 278.130162 
L 146.871045 278.815135 
L 147.142328 279.500108 
L 147.769176 280.185081 
L 148.050994 280.185081 
L 148.153713 280.870054 
L 148.59356 280.870054 
L 148.622532 281.555027 
L 149.388972 282.24 
L 149.402141 282.924973 
L 149.515395 283.609946 
L 149.857791 283.609946 
L 149.973679 284.294919 
L 150.197553 284.979892 
L 150.600527 285.664865 
L 150.766457 285.664865 
L 152.072829 286.349838 
L 153.068411 287.034811 
L 153.121088 287.719784 
L 153.263314 287.719784 
L 154.406389 288.404757 
L 155.030603 289.08973 
L 156.073594 289.774703 
L 156.205285 289.774703 
L 156.408088 290.459676 
L 157.540629 291.144649 
L 157.630178 291.829622 
L 157.975208 292.514595 
L 158.101631 293.199568 
L 159.521257 293.884541 
L 159.863653 293.884541 
L 162.002311 294.569514 
L 163.385064 295.254486 
L 165.323551 295.939459 
L 165.539524 296.624432 
L 166.603585 296.624432 
L 167.946831 297.309405 
L 168.334002 297.309405 
L 169.113611 297.994378 
L 169.240034 297.994378 
L 170.946746 298.679351 
L 172.210977 298.679351 
L 173.967732 298.679351 
L 175.342583 299.364324 
L 175.450569 300.049297 
L 178.429414 300.73427 
L 178.526865 300.73427 
L 178.676992 301.419243 
L 179.506644 301.419243 
L 180.051844 302.104216 
L 180.768241 302.789189 
L 181.424061 303.474162 
L 182.019303 303.474162 
L 183.375718 303.474162 
L 183.744452 304.159135 
L 183.88141 304.844108 
L 189.978692 305.529081 
L 190.945302 306.214054 
L 194.303415 306.214054 
L 199.481495 306.214054 
L 202.718454 306.214054 
L 204.024826 306.214054 
L 207.896534 306.899027 
L 214.251929 306.899027 
L 219.419473 307.584 
L 220.883874 307.584 
L 226.241054 307.584 
L 234.363738 307.584 
L 234.579711 307.584 
L 238.211742 307.584 
L 244.580306 307.584 
L 250.045472 307.584 
L 252.257876 307.584 
L 254.933832 307.584 
L 274.508343 307.584 
L 278.743517 307.584 
L 284.316669 307.584 
L 300.319728 307.584 
L 398.487273 307.584 
L 398.487273 306.899027 
L 398.487273 306.899027 
L 300.319728 306.214054 
L 284.316669 305.529081 
L 278.743517 304.844108 
L 274.508343 304.159135 
L 254.933832 303.474162 
L 252.257876 302.789189 
L 250.045472 302.104216 
L 244.580306 301.419243 
L 238.211742 300.73427 
L 234.579711 300.049297 
L 234.363738 299.364324 
L 226.241054 298.679351 
L 220.883874 297.994378 
L 219.419473 297.309405 
L 214.251929 296.624432 
L 207.896534 295.939459 
L 204.024826 295.254486 
L 202.718454 294.569514 
L 199.481495 293.884541 
L 194.303415 293.199568 
L 190.945302 292.514595 
L 189.978692 291.829622 
L 183.88141 291.144649 
L 183.744452 290.459676 
L 183.375718 289.774703 
L 182.019303 289.08973 
L 181.424061 288.404757 
L 180.768241 287.719784 
L 180.051844 287.034811 
L 179.506644 286.349838 
L 178.676992 285.664865 
L 178.526865 284.979892 
L 178.429414 284.294919 
L 175.450569 283.609946 
L 175.342583 282.924973 
L 173.967732 282.24 
L 172.210977 281.555027 
L 170.946746 280.870054 
L 169.240034 280.185081 
L 169.113611 279.500108 
L 168.334002 278.815135 
L 167.946831 278.130162 
L 166.603585 277.445189 
L 165.539524 276.760216 
L 165.323551 276.075243 
L 163.385064 275.39027 
L 162.002311 274.705297 
L 159.863653 274.020324 
L 159.521257 273.335351 
L 158.101631 272.650378 
L 157.975208 271.965405 
L 157.630178 271.280432 
L 157.540629 270.595459 
L 156.408088 269.910486 
L 156.205285 269.225514 
L 156.073594 268.540541 
L 155.030603 267.855568 
L 154.406389 267.170595 
L 153.263314 266.485622 
L 153.121088 265.800649 
L 153.068411 265.115676 
L 152.072829 264.430703 
L 150.766457 263.74573 
L 150.600527 263.060757 
L 150.197553 262.375784 
L 149.973679 261.690811 
L 149.857791 261.005838 
L 149.515395 260.320865 
L 149.402141 259.635892 
L 149.388972 258.950919 
L 148.622532 258.265946 
L 148.59356 257.580973 
L 148.153713 256.896 
L 148.050994 256.211027 
L 147.769176 255.526054 
L 147.142328 254.841081 
L 146.871045 254.156108 
L 146.468071 253.471135 
L 145.820153 252.786162 
L 145.172234 252.101189 
L 144.12661 251.416216 
L 143.987018 250.731243 
L 143.244282 250.04627 
L 142.035361 249.361297 
L 141.750909 248.676324 
L 141.677162 247.991351 
L 141.237315 247.306378 
L 141.147766 246.621405 
L 141.013441 245.936432 
L 140.399762 245.251459 
L 140.339184 244.566486 
L 140.228564 243.881514 
L 140.162719 243.196541 
L 139.928309 242.511568 
L 139.664928 241.826595 
L 139.283025 241.141622 
L 139.243517 240.456649 
L 138.909023 239.771676 
L 138.4165 239.086703 
L 138.124146 238.40173 
L 138.058301 237.716757 
L 137.939779 237.031784 
L 137.710637 236.346811 
L 137.178607 235.661838 
L 136.946831 234.976865 
L 136.912591 234.291892 
L 136.549125 233.606919 
L 135.442923 232.921946 
L 135.105794 232.236973 
L 134.871385 231.552 
L 134.847681 230.867027 
L 134.697553 230.182054 
L 133.773084 229.497081 
L 133.304265 228.812108 
L 132.74853 228.127135 
L 132.669516 227.442162 
L 132.516754 226.757189 
L 132.2165 226.072216 
L 132.176992 225.387243 
L 132.161189 224.70227 
L 132.079541 224.017297 
L 131.813526 223.332324 
L 131.363144 222.647351 
L 131.349975 221.962378 
L 131.268326 221.277405 
L 131.257791 220.592432 
L 131.134002 219.907459 
L 131.128734 219.222486 
L 130.999677 218.537514 
L 130.941733 217.852541 
L 130.19373 217.167568 
L 130.01463 216.482595 
L 129.606389 215.797622 
L 129.327205 215.112649 
L 128.236805 214.427676 
L 127.704775 213.742703 
L 127.233322 213.05773 
L 127.212251 212.372757 
L 125.242158 211.687784 
L 125.020918 211.002811 
L 123.693475 210.317838 
L 123.13774 209.632865 
L 122.940204 208.947892 
L 122.924401 208.262919 
L 121.978862 207.577946 
L 120.967477 206.892973 
L 120.522362 206.208 
L 120.390671 205.523027 
L 120.343263 204.838054 
L 120.211572 204.153081 
L 120.122022 203.468108 
L 120.103585 202.783135 
L 120.095684 202.098162 
L 119.848105 201.413189 
L 119.482005 200.728216 
L 119.38192 200.043243 
L 119.16068 199.35827 
L 118.784044 198.673297 
L 117.809533 197.988324 
L 117.432897 197.303351 
L 117.288037 196.618378 
L 117.237995 195.933405 
L 117.156347 195.248432 
L 116.297723 194.563459 
L 115.8052 193.878486 
L 115.636636 192.508541 
L 115.610297 191.823568 
L 115.565523 191.138595 
L 115.520748 190.453622 
L 115.375888 189.768649 
L 115.215225 189.083676 
L 115.130943 188.398703 
L 114.975548 187.71373 
L 114.43825 187.028757 
L 113.924656 186.343784 
L 113.608598 185.658811 
L 113.358386 184.973838 
L 113.276737 184.288865 
L 112.855327 183.603892 
L 112.742073 182.918919 
L 112.686763 182.233946 
L 112.407579 181.548973 
L 112.246916 180.864 
L 111.99407 180.179027 
L 111.404095 179.494054 
L 111.306644 178.809081 
L 111.056432 178.124108 
L 110.84836 177.439135 
L 110.556007 176.754162 
L 110.550739 176.069189 
L 110.089822 175.384216 
L 109.773764 174.699243 
L 109.644707 174.01427 
L 109.452438 173.329297 
L 108.941478 172.644324 
L 108.696534 171.959351 
L 108.651759 171.274378 
L 108.053883 170.589405 
L 107.89322 169.904432 
L 107.822107 169.219459 
L 107.777332 168.534486 
L 107.708853 167.849514 
L 106.992455 167.164541 
L 106.902906 166.479568 
L 106.260255 165.794595 
L 106.233917 165.109622 
L 106.173339 164.424649 
L 105.114545 163.739676 
L 104.801121 163.054703 
L 104.693135 162.36973 
L 104.611487 161.684757 
L 104.361274 160.999784 
L 103.942498 160.314811 
L 103.576398 159.629838 
L 103.48158 158.944865 
L 103.423636 158.259892 
L 103.389397 157.574919 
L 102.562379 156.889946 
L 102.504435 156.204973 
L 102.399082 155.52 
L 102.333237 154.835027 
L 102.185743 154.150054 
L 102.122532 153.465081 
L 101.903925 152.780108 
L 101.745896 152.095135 
L 101.43774 151.410162 
L 101.205964 150.725189 
L 100.958386 150.040216 
L 100.695004 149.355243 
L 100.384214 148.67027 
L 100.07079 147.985297 
L 99.999677 147.300324 
L 98.943517 146.615351 
L 98.545811 145.930378 
L 98.242923 145.245405 
L 98.076992 144.560432 
L 97.900527 143.875459 
L 97.442243 143.190486 
L 97.326355 142.505514 
L 97.102481 141.820541 
L 97.070875 141.135568 
L 96.670535 140.450595 
L 96.328139 139.765622 
L 96.154308 139.080649 
L 96.072659 138.395676 
L 95.985743 137.710703 
L 95.962039 137.02573 
L 95.759235 136.340757 
L 95.609108 135.655784 
L 95.535361 134.970811 
L 95.369431 134.285838 
L 95.269346 133.600865 
L 95.119218 132.915892 
L 94.840034 132.230919 
L 94.813696 131.545946 
L 94.666202 131.545946 
L 94.497638 130.860973 
L 94.468666 130.176 
L 94.373849 129.491027 
L 94.27113 128.806054 
L 94.23689 128.121081 
L 94.068326 127.436108 
L 93.523127 126.751135 
L 93.412506 126.066162 
L 93.157026 125.381189 
L 92.956856 124.696216 
L 92.912082 124.011243 
L 92.725081 123.32627 
L 92.693475 122.641297 
L 92.04819 121.956324 
L 92.045556 121.271351 
L 91.900697 121.271351 
L 91.866457 120.586378 
L 91.458216 119.901405 
L 91.376568 119.216432 
L 91.242243 118.531459 
L 90.965692 117.846486 
L 90.955157 117.161514 
L 90.74972 116.476541 
L 90.615395 115.791568 
L 90.436296 115.106595 
L 89.975378 114.421622 
L 89.94904 113.736649 
L 89.901631 113.051676 
L 89.848955 112.366703 
L 89.456517 111.68173 
L 89.251079 110.996757 
L 88.234427 110.311784 
L 88.086933 109.626811 
L 87.575973 108.941838 
L 87.133492 108.256865 
L 86.967562 107.571892 
L 86.920153 106.886919 
L 86.459235 106.201946 
L 86.372319 105.516973 
L 86.095769 104.832 
L 85.73757 104.147027 
L 85.629584 103.462054 
L 85.526865 102.777081 
L 85.518963 102.092108 
L 85.505794 101.407135 
L 85.329329 100.722162 
L 85.324061 100.037189 
L 85.168666 99.352216 
L 84.947426 98.667243 
L 84.931623 98.667243 
L 84.928989 97.98227 
L 84.894749 97.297297 
L 84.810467 96.612324 
L 84.741988 95.927351 
L 84.615565 95.242378 
L 84.565523 94.557405 
L 84.444367 93.872432 
L 84.391691 93.187459 
L 84.386423 93.187459 
L 84.381155 92.502486 
L 83.785913 91.817514 
L 83.730603 91.132541 
L 83.517264 90.447568 
L 83.464588 89.762595 
L 83.164333 89.077622 
L 82.995769 88.392649 
L 82.935191 87.707676 
L 82.72712 87.022703 
L 82.555922 86.33773 
L 82.511147 85.652757 
L 82.495344 84.967784 
L 82.49271 84.282811 
L 82.210892 83.597838 
L 81.98175 83.597838 
L 81.847426 82.912865 
L 81.78158 82.227892 
L 81.576143 81.542919 
L 81.499762 80.857946 
L 81.497128 80.172973 
L 81.389142 79.488 
L 81.320663 78.803027 
L 81.199507 78.118054 
L 80.875548 77.433081 
L 80.688547 76.748108 
L 80.48311 76.063135 
L 80.411997 75.378162 
L 80.380391 74.693189 
L 80.037995 74.008216 
L 79.727205 73.323243 
L 79.503331 72.63827 
L 79.458556 72.63827 
L 79.416415 71.953297 
L 79.108258 71.268324 
L 79.02661 70.583351 
L 78.652608 69.898378 
L 78.112676 69.213405 
L 77.483195 69.213405 
L 77.377842 68.528432 
L 77.169771 67.843459 
L 76.640374 67.158486 
L 76.52712 66.473514 
L 76.158386 65.788541 
L 75.634257 65.103568 
L 75.43672 64.418595 
L 75.299762 63.733622 
L 74.920493 63.048649 
L 74.90469 62.363676 
L 74.659745 61.678703 
L 74.541223 60.99373 
L 74.438505 60.308757 
L 73.856432 60.308757 
L 73.832727 60.308757 
z
" clip-path="url(#pb5b09cfd70)" style="fill: #7cfc00"/>
   </g>
   <g id="PolyCollection_3">
    <path d="M 73.832727 54.144 
L 73.832727 60.308757 
L 73.856432 60.308757 
L 74.438505 60.308757 
L 74.541223 60.99373 
L 74.659745 61.678703 
L 74.90469 62.363676 
L 74.920493 63.048649 
L 75.299762 63.733622 
L 75.43672 64.418595 
L 75.634257 65.103568 
L 76.158386 65.788541 
L 76.52712 66.473514 
L 76.640374 67.158486 
L 77.169771 67.843459 
L 77.377842 68.528432 
L 77.483195 69.213405 
L 78.112676 69.213405 
L 78.652608 69.898378 
L 79.02661 70.583351 
L 79.108258 71.268324 
L 79.416415 71.953297 
L 79.458556 72.63827 
L 79.503331 72.63827 
L 79.727205 73.323243 
L 80.037995 74.008216 
L 80.380391 74.693189 
L 80.411997 75.378162 
L 80.48311 76.063135 
L 80.688547 76.748108 
L 80.875548 77.433081 
L 81.199507 78.118054 
L 81.320663 78.803027 
L 81.389142 79.488 
L 81.497128 80.172973 
L 81.499762 80.857946 
L 81.576143 81.542919 
L 81.78158 82.227892 
L 81.847426 82.912865 
L 81.98175 83.597838 
L 82.210892 83.597838 
L 82.49271 84.282811 
L 82.495344 84.967784 
L 82.511147 85.652757 
L 82.555922 86.33773 
L 82.72712 87.022703 
L 82.935191 87.707676 
L 82.995769 88.392649 
L 83.164333 89.077622 
L 83.464588 89.762595 
L 83.517264 90.447568 
L 83.730603 91.132541 
L 83.785913 91.817514 
L 84.381155 92.502486 
L 84.386423 93.187459 
L 84.391691 93.187459 
L 84.444367 93.872432 
L 84.565523 94.557405 
L 84.615565 95.242378 
L 84.741988 95.927351 
L 84.810467 96.612324 
L 84.894749 97.297297 
L 84.928989 97.98227 
L 84.931623 98.667243 
L 84.947426 98.667243 
L 85.168666 99.352216 
L 85.324061 100.037189 
L 85.329329 100.722162 
L 85.505794 101.407135 
L 85.518963 102.092108 
L 85.526865 102.777081 
L 85.629584 103.462054 
L 85.73757 104.147027 
L 86.095769 104.832 
L 86.372319 105.516973 
L 86.459235 106.201946 
L 86.920153 106.886919 
L 86.967562 107.571892 
L 87.133492 108.256865 
L 87.575973 108.941838 
L 88.086933 109.626811 
L 88.234427 110.311784 
L 89.251079 110.996757 
L 89.456517 111.68173 
L 89.848955 112.366703 
L 89.901631 113.051676 
L 89.94904 113.736649 
L 89.975378 114.421622 
L 90.436296 115.106595 
L 90.615395 115.791568 
L 90.74972 116.476541 
L 90.955157 117.161514 
L 90.965692 117.846486 
L 91.242243 118.531459 
L 91.376568 119.216432 
L 91.458216 119.901405 
L 91.866457 120.586378 
L 91.900697 121.271351 
L 92.045556 121.271351 
L 92.04819 121.956324 
L 92.693475 122.641297 
L 92.725081 123.32627 
L 92.912082 124.011243 
L 92.956856 124.696216 
L 93.157026 125.381189 
L 93.412506 126.066162 
L 93.523127 126.751135 
L 94.068326 127.436108 
L 94.23689 128.121081 
L 94.27113 128.806054 
L 94.373849 129.491027 
L 94.468666 130.176 
L 94.497638 130.860973 
L 94.666202 131.545946 
L 94.813696 131.545946 
L 94.840034 132.230919 
L 95.119218 132.915892 
L 95.269346 133.600865 
L 95.369431 134.285838 
L 95.535361 134.970811 
L 95.609108 135.655784 
L 95.759235 136.340757 
L 95.962039 137.02573 
L 95.985743 137.710703 
L 96.072659 138.395676 
L 96.154308 139.080649 
L 96.328139 139.765622 
L 96.670535 140.450595 
L 97.070875 141.135568 
L 97.102481 141.820541 
L 97.326355 142.505514 
L 97.442243 143.190486 
L 97.900527 143.875459 
L 98.076992 144.560432 
L 98.242923 145.245405 
L 98.545811 145.930378 
L 98.943517 146.615351 
L 99.999677 147.300324 
L 100.07079 147.985297 
L 100.384214 148.67027 
L 100.695004 149.355243 
L 100.958386 150.040216 
L 101.205964 150.725189 
L 101.43774 151.410162 
L 101.745896 152.095135 
L 101.903925 152.780108 
L 102.122532 153.465081 
L 102.185743 154.150054 
L 102.333237 154.835027 
L 102.399082 155.52 
L 102.504435 156.204973 
L 102.562379 156.889946 
L 103.389397 157.574919 
L 103.423636 158.259892 
L 103.48158 158.944865 
L 103.576398 159.629838 
L 103.942498 160.314811 
L 104.361274 160.999784 
L 104.611487 161.684757 
L 104.693135 162.36973 
L 104.801121 163.054703 
L 105.114545 163.739676 
L 106.173339 164.424649 
L 106.233917 165.109622 
L 106.260255 165.794595 
L 106.902906 166.479568 
L 106.992455 167.164541 
L 107.708853 167.849514 
L 107.777332 168.534486 
L 107.822107 169.219459 
L 107.89322 169.904432 
L 108.053883 170.589405 
L 108.651759 171.274378 
L 108.696534 171.959351 
L 108.941478 172.644324 
L 109.452438 173.329297 
L 109.644707 174.01427 
L 109.773764 174.699243 
L 110.089822 175.384216 
L 110.550739 176.069189 
L 110.556007 176.754162 
L 110.84836 177.439135 
L 111.056432 178.124108 
L 111.306644 178.809081 
L 111.404095 179.494054 
L 111.99407 180.179027 
L 112.246916 180.864 
L 112.407579 181.548973 
L 112.686763 182.233946 
L 112.742073 182.918919 
L 112.855327 183.603892 
L 113.276737 184.288865 
L 113.358386 184.973838 
L 113.608598 185.658811 
L 113.924656 186.343784 
L 114.43825 187.028757 
L 114.975548 187.71373 
L 115.130943 188.398703 
L 115.215225 189.083676 
L 115.375888 189.768649 
L 115.520748 190.453622 
L 115.565523 191.138595 
L 115.610297 191.823568 
L 115.636636 192.508541 
L 115.8052 193.878486 
L 116.297723 194.563459 
L 117.156347 195.248432 
L 117.237995 195.933405 
L 117.288037 196.618378 
L 117.432897 197.303351 
L 117.809533 197.988324 
L 118.784044 198.673297 
L 119.16068 199.35827 
L 119.38192 200.043243 
L 119.482005 200.728216 
L 119.848105 201.413189 
L 120.095684 202.098162 
L 120.103585 202.783135 
L 120.122022 203.468108 
L 120.211572 204.153081 
L 120.343263 204.838054 
L 120.390671 205.523027 
L 120.522362 206.208 
L 120.967477 206.892973 
L 121.978862 207.577946 
L 122.924401 208.262919 
L 122.940204 208.947892 
L 123.13774 209.632865 
L 123.693475 210.317838 
L 125.020918 211.002811 
L 125.242158 211.687784 
L 127.212251 212.372757 
L 127.233322 213.05773 
L 127.704775 213.742703 
L 128.236805 214.427676 
L 129.327205 215.112649 
L 129.606389 215.797622 
L 130.01463 216.482595 
L 130.19373 217.167568 
L 130.941733 217.852541 
L 130.999677 218.537514 
L 131.128734 219.222486 
L 131.134002 219.907459 
L 131.257791 220.592432 
L 131.268326 221.277405 
L 131.349975 221.962378 
L 131.363144 222.647351 
L 131.813526 223.332324 
L 132.079541 224.017297 
L 132.161189 224.70227 
L 132.176992 225.387243 
L 132.2165 226.072216 
L 132.516754 226.757189 
L 132.669516 227.442162 
L 132.74853 228.127135 
L 133.304265 228.812108 
L 133.773084 229.497081 
L 134.697553 230.182054 
L 134.847681 230.867027 
L 134.871385 231.552 
L 135.105794 232.236973 
L 135.442923 232.921946 
L 136.549125 233.606919 
L 136.912591 234.291892 
L 136.946831 234.976865 
L 137.178607 235.661838 
L 137.710637 236.346811 
L 137.939779 237.031784 
L 138.058301 237.716757 
L 138.124146 238.40173 
L 138.4165 239.086703 
L 138.909023 239.771676 
L 139.243517 240.456649 
L 139.283025 241.141622 
L 139.664928 241.826595 
L 139.928309 242.511568 
L 140.162719 243.196541 
L 140.228564 243.881514 
L 140.339184 244.566486 
L 140.399762 245.251459 
L 141.013441 245.936432 
L 141.147766 246.621405 
L 141.237315 247.306378 
L 141.677162 247.991351 
L 141.750909 248.676324 
L 142.035361 249.361297 
L 143.244282 250.04627 
L 143.987018 250.731243 
L 144.12661 251.416216 
L 145.172234 252.101189 
L 145.820153 252.786162 
L 146.468071 253.471135 
L 146.871045 254.156108 
L 147.142328 254.841081 
L 147.769176 255.526054 
L 148.050994 256.211027 
L 148.153713 256.896 
L 148.59356 257.580973 
L 148.622532 258.265946 
L 149.388972 258.950919 
L 149.402141 259.635892 
L 149.515395 260.320865 
L 149.857791 261.005838 
L 149.973679 261.690811 
L 150.197553 262.375784 
L 150.600527 263.060757 
L 150.766457 263.74573 
L 152.072829 264.430703 
L 153.068411 265.115676 
L 153.121088 265.800649 
L 153.263314 266.485622 
L 154.406389 267.170595 
L 155.030603 267.855568 
L 156.073594 268.540541 
L 156.205285 269.225514 
L 156.408088 269.910486 
L 157.540629 270.595459 
L 157.630178 271.280432 
L 157.975208 271.965405 
L 158.101631 272.650378 
L 159.521257 273.335351 
L 159.863653 274.020324 
L 162.002311 274.705297 
L 163.385064 275.39027 
L 165.323551 276.075243 
L 165.539524 276.760216 
L 166.603585 277.445189 
L 167.946831 278.130162 
L 168.334002 278.815135 
L 169.113611 279.500108 
L 169.240034 280.185081 
L 170.946746 280.870054 
L 172.210977 281.555027 
L 173.967732 282.24 
L 175.342583 282.924973 
L 175.450569 283.609946 
L 178.429414 284.294919 
L 178.526865 284.979892 
L 178.676992 285.664865 
L 179.506644 286.349838 
L 180.051844 287.034811 
L 180.768241 287.719784 
L 181.424061 288.404757 
L 182.019303 289.08973 
L 183.375718 289.774703 
L 183.744452 290.459676 
L 183.88141 291.144649 
L 189.978692 291.829622 
L 190.945302 292.514595 
L 194.303415 293.199568 
L 199.481495 293.884541 
L 202.718454 294.569514 
L 204.024826 295.254486 
L 207.896534 295.939459 
L 214.251929 296.624432 
L 219.419473 297.309405 
L 220.883874 297.994378 
L 226.241054 298.679351 
L 234.363738 299.364324 
L 234.579711 300.049297 
L 238.211742 300.73427 
L 244.580306 301.419243 
L 250.045472 302.104216 
L 252.257876 302.789189 
L 254.933832 303.474162 
L 274.508343 304.159135 
L 278.743517 304.844108 
L 284.316669 305.529081 
L 300.319728 306.214054 
L 398.487273 306.899027 
L 398.487273 306.899027 
L 398.487273 306.899027 
L 300.319728 306.214054 
L 284.316669 305.529081 
L 278.743517 304.844108 
L 274.508343 304.159135 
L 254.933832 303.474162 
L 252.257876 302.789189 
L 250.045472 302.104216 
L 244.580306 301.419243 
L 238.211742 300.73427 
L 234.579711 300.049297 
L 234.363738 299.364324 
L 226.241054 298.679351 
L 220.883874 297.994378 
L 219.419473 297.309405 
L 214.251929 296.624432 
L 207.896534 295.939459 
L 204.024826 295.254486 
L 202.718454 294.569514 
L 199.481495 293.884541 
L 194.303415 293.199568 
L 190.945302 292.514595 
L 189.978692 291.829622 
L 183.88141 291.144649 
L 183.744452 290.459676 
L 183.375718 289.774703 
L 182.019303 289.08973 
L 181.424061 288.404757 
L 180.768241 287.719784 
L 180.051844 287.034811 
L 179.506644 286.349838 
L 178.676992 285.664865 
L 178.526865 284.979892 
L 178.429414 284.294919 
L 175.450569 283.609946 
L 175.342583 282.924973 
L 173.967732 282.24 
L 172.210977 281.555027 
L 170.946746 280.870054 
L 169.240034 280.185081 
L 169.113611 279.500108 
L 168.334002 278.815135 
L 167.946831 278.130162 
L 166.603585 277.445189 
L 165.539524 276.760216 
L 165.323551 276.075243 
L 163.385064 275.39027 
L 162.002311 274.705297 
L 159.863653 274.020324 
L 159.521257 273.335351 
L 158.101631 272.650378 
L 157.975208 271.965405 
L 157.630178 271.280432 
L 157.540629 270.595459 
L 156.408088 269.910486 
L 156.205285 269.225514 
L 156.073594 268.540541 
L 155.030603 267.855568 
L 154.406389 267.170595 
L 153.263314 266.485622 
L 153.121088 265.800649 
L 153.068411 265.115676 
L 152.072829 264.430703 
L 150.766457 263.74573 
L 150.600527 263.060757 
L 150.197553 262.375784 
L 149.973679 261.690811 
L 149.857791 261.005838 
L 149.515395 260.320865 
L 149.402141 259.635892 
L 149.388972 258.950919 
L 148.622532 258.265946 
L 148.59356 257.580973 
L 148.153713 256.896 
L 148.050994 256.211027 
L 147.769176 255.526054 
L 147.142328 254.841081 
L 146.871045 254.156108 
L 146.468071 253.471135 
L 145.820153 252.786162 
L 145.172234 252.101189 
L 144.12661 251.416216 
L 143.987018 250.731243 
L 143.244282 250.04627 
L 142.035361 249.361297 
L 141.750909 248.676324 
L 141.677162 247.991351 
L 141.237315 247.306378 
L 141.147766 246.621405 
L 141.013441 245.936432 
L 140.399762 245.251459 
L 140.339184 244.566486 
L 140.228564 243.881514 
L 140.162719 243.196541 
L 139.928309 242.511568 
L 139.664928 241.826595 
L 139.283025 241.141622 
L 139.243517 240.456649 
L 138.909023 239.771676 
L 138.4165 239.086703 
L 138.124146 238.40173 
L 138.058301 237.716757 
L 137.939779 237.031784 
L 137.710637 236.346811 
L 137.178607 235.661838 
L 136.946831 234.976865 
L 136.912591 234.291892 
L 136.549125 233.606919 
L 135.442923 232.921946 
L 135.105794 232.236973 
L 134.871385 231.552 
L 134.847681 230.867027 
L 134.697553 230.182054 
L 133.773084 229.497081 
L 133.304265 228.812108 
L 132.74853 228.127135 
L 132.669516 227.442162 
L 132.516754 226.757189 
L 132.2165 226.072216 
L 132.176992 225.387243 
L 132.161189 224.70227 
L 132.079541 224.017297 
L 131.813526 223.332324 
L 131.363144 222.647351 
L 131.349975 221.962378 
L 131.268326 221.277405 
L 131.257791 220.592432 
L 131.134002 219.907459 
L 131.128734 219.222486 
L 130.999677 218.537514 
L 130.941733 217.852541 
L 130.19373 217.167568 
L 130.01463 216.482595 
L 129.606389 215.797622 
L 129.327205 215.112649 
L 128.236805 214.427676 
L 127.704775 213.742703 
L 127.233322 213.05773 
L 127.212251 212.372757 
L 125.242158 211.687784 
L 125.020918 211.002811 
L 123.693475 210.317838 
L 123.13774 209.632865 
L 122.940204 208.947892 
L 122.924401 208.262919 
L 121.978862 207.577946 
L 120.967477 206.892973 
L 120.522362 206.208 
L 120.390671 205.523027 
L 120.343263 204.838054 
L 120.211572 204.153081 
L 120.122022 203.468108 
L 120.103585 202.783135 
L 120.095684 202.098162 
L 119.848105 201.413189 
L 119.482005 200.728216 
L 119.38192 200.043243 
L 119.16068 199.35827 
L 118.784044 198.673297 
L 117.809533 197.988324 
L 117.432897 197.303351 
L 117.288037 196.618378 
L 117.237995 195.933405 
L 117.156347 195.248432 
L 116.297723 194.563459 
L 115.8052 193.878486 
L 115.636636 192.508541 
L 115.610297 191.823568 
L 115.565523 191.138595 
L 115.520748 190.453622 
L 115.375888 189.768649 
L 115.215225 189.083676 
L 115.130943 188.398703 
L 114.975548 187.71373 
L 114.43825 187.028757 
L 113.924656 186.343784 
L 113.608598 185.658811 
L 113.358386 184.973838 
L 113.276737 184.288865 
L 112.855327 183.603892 
L 112.742073 182.918919 
L 112.686763 182.233946 
L 112.407579 181.548973 
L 112.246916 180.864 
L 111.99407 180.179027 
L 111.404095 179.494054 
L 111.306644 178.809081 
L 111.056432 178.124108 
L 110.84836 177.439135 
L 110.556007 176.754162 
L 110.550739 176.069189 
L 110.089822 175.384216 
L 109.773764 174.699243 
L 109.644707 174.01427 
L 109.452438 173.329297 
L 108.941478 172.644324 
L 108.696534 171.959351 
L 108.651759 171.274378 
L 108.053883 170.589405 
L 107.89322 169.904432 
L 107.822107 169.219459 
L 107.777332 168.534486 
L 107.708853 167.849514 
L 106.992455 167.164541 
L 106.902906 166.479568 
L 106.260255 165.794595 
L 106.233917 165.109622 
L 106.173339 164.424649 
L 105.114545 163.739676 
L 104.801121 163.054703 
L 104.693135 162.36973 
L 104.611487 161.684757 
L 104.361274 160.999784 
L 103.942498 160.314811 
L 103.576398 159.629838 
L 103.48158 158.944865 
L 103.423636 158.259892 
L 103.389397 157.574919 
L 102.562379 156.889946 
L 102.504435 156.204973 
L 102.399082 155.52 
L 102.333237 154.835027 
L 102.185743 154.150054 
L 102.122532 153.465081 
L 101.903925 152.780108 
L 101.745896 152.095135 
L 101.43774 151.410162 
L 101.205964 150.725189 
L 100.958386 150.040216 
L 100.695004 149.355243 
L 100.384214 148.67027 
L 100.07079 147.985297 
L 99.999677 147.300324 
L 98.943517 146.615351 
L 98.545811 145.930378 
L 98.242923 145.245405 
L 98.076992 144.560432 
L 97.900527 143.875459 
L 97.442243 143.190486 
L 97.326355 142.505514 
L 97.102481 141.820541 
L 97.070875 141.135568 
L 96.670535 140.450595 
L 96.328139 139.765622 
L 96.154308 139.080649 
L 96.072659 138.395676 
L 95.985743 137.710703 
L 95.962039 137.02573 
L 95.759235 136.340757 
L 95.609108 135.655784 
L 95.535361 134.970811 
L 95.369431 134.285838 
L 95.269346 133.600865 
L 95.119218 132.915892 
L 94.840034 132.230919 
L 94.813696 131.545946 
L 94.666202 130.860973 
L 94.497638 130.176 
L 94.468666 129.491027 
L 94.373849 128.806054 
L 94.27113 128.121081 
L 94.23689 127.436108 
L 94.068326 126.751135 
L 93.523127 126.066162 
L 93.412506 125.381189 
L 93.157026 124.696216 
L 92.956856 124.011243 
L 92.912082 123.32627 
L 92.725081 122.641297 
L 92.693475 121.956324 
L 92.04819 121.271351 
L 92.045556 120.586378 
L 91.900697 119.901405 
L 91.866457 119.216432 
L 91.458216 118.531459 
L 91.376568 117.846486 
L 91.242243 117.161514 
L 90.965692 116.476541 
L 90.955157 115.791568 
L 90.74972 115.106595 
L 90.615395 114.421622 
L 90.436296 113.736649 
L 89.975378 113.051676 
L 89.94904 112.366703 
L 89.901631 111.68173 
L 89.848955 110.996757 
L 89.456517 110.311784 
L 89.251079 109.626811 
L 88.234427 108.941838 
L 88.086933 108.256865 
L 87.575973 107.571892 
L 87.133492 106.886919 
L 86.967562 106.201946 
L 86.920153 105.516973 
L 86.459235 104.832 
L 86.372319 104.147027 
L 86.095769 103.462054 
L 85.73757 102.777081 
L 85.629584 102.092108 
L 85.526865 101.407135 
L 85.518963 100.722162 
L 85.505794 100.037189 
L 85.329329 99.352216 
L 85.324061 98.667243 
L 85.168666 97.98227 
L 84.947426 97.297297 
L 84.931623 96.612324 
L 84.928989 95.927351 
L 84.894749 95.242378 
L 84.810467 94.557405 
L 84.741988 93.872432 
L 84.615565 93.187459 
L 84.565523 92.502486 
L 84.444367 91.817514 
L 84.391691 91.132541 
L 84.386423 90.447568 
L 84.381155 89.762595 
L 83.785913 89.077622 
L 83.730603 88.392649 
L 83.517264 87.707676 
L 83.464588 87.022703 
L 83.164333 86.33773 
L 82.995769 85.652757 
L 82.935191 84.967784 
L 82.72712 84.282811 
L 82.555922 83.597838 
L 82.511147 82.912865 
L 82.495344 82.227892 
L 82.49271 81.542919 
L 82.210892 80.857946 
L 81.98175 80.172973 
L 81.847426 79.488 
L 81.78158 78.803027 
L 81.576143 78.118054 
L 81.499762 77.433081 
L 81.497128 76.748108 
L 81.389142 76.063135 
L 81.320663 75.378162 
L 81.199507 74.693189 
L 80.875548 74.008216 
L 80.688547 73.323243 
L 80.48311 72.63827 
L 80.411997 71.953297 
L 80.380391 71.268324 
L 80.037995 70.583351 
L 79.727205 69.898378 
L 79.503331 69.213405 
L 79.458556 68.528432 
L 79.416415 67.843459 
L 79.108258 67.158486 
L 79.02661 66.473514 
L 78.652608 65.788541 
L 78.112676 65.103568 
L 77.483195 64.418595 
L 77.377842 63.733622 
L 77.169771 63.048649 
L 76.640374 62.363676 
L 76.52712 61.678703 
L 76.158386 60.99373 
L 75.634257 60.308757 
L 75.43672 59.623784 
L 75.299762 58.938811 
L 74.920493 58.253838 
L 74.90469 57.568865 
L 74.659745 56.883892 
L 74.541223 56.198919 
L 74.438505 55.513946 
L 73.856432 54.828973 
L 73.832727 54.144 
z
" clip-path="url(#pb5b09cfd70)" style="fill: #ff0000"/>
   </g>
   <g id="matplotlib.axis_1">
    <g id="xtick_1">
     <g id="line2d_1">
      <defs>
       <path id="md343b99c22" d="M 0 0 
L 0 3.5 
" style="stroke: #000000; stroke-width: 0.8"/>
      </defs>
      <g>
       <use xlink:href="#md343b99c22" x="104.04785" y="307.584" style="stroke: #000000; stroke-width: 0.8"/>
      </g>
     </g>
     <g id="text_1">
      <!-- 200 -->
      <g transform="translate(94.5041 322.182437)scale(0.1 -0.1)">
       <defs>
        <path id="DejaVuSans-32" d="M 1228 531 
L 3431 531 
L 3431 0 
L 469 0 
L 469 531 
Q 828 903 1448 1529 
Q 2069 2156 2228 2338 
Q 2531 2678 2651 2914 
Q 2772 3150 2772 3378 
Q 2772 3750 2511 3984 
Q 2250 4219 1831 4219 
Q 1534 4219 1204 4116 
Q 875 4013 500 3803 
L 500 4441 
Q 881 4594 1212 4672 
Q 1544 4750 1819 4750 
Q 2544 4750 2975 4387 
Q 3406 4025 3406 3419 
Q 3406 3131 3298 2873 
Q 3191 2616 2906 2266 
Q 2828 2175 2409 1742 
Q 1991 1309 1228 531 
z
" transform="scale(0.015625)"/>
        <path id="DejaVuSans-30" d="M 2034 4250 
Q 1547 4250 1301 3770 
Q 1056 3291 1056 2328 
Q 1056 1369 1301 889 
Q 1547 409 2034 409 
Q 2525 409 2770 889 
Q 3016 1369 3016 2328 
Q 3016 3291 2770 3770 
Q 2525 4250 2034 4250 
z
M 2034 4750 
Q 2819 4750 3233 4129 
Q 3647 3509 3647 2328 
Q 3647 1150 3233 529 
Q 2819 -91 2034 -91 
Q 1250 -91 836 529 
Q 422 1150 422 2328 
Q 422 3509 836 4129 
Q 1250 4750 2034 4750 
z
" transform="scale(0.015625)"/>
       </defs>
       <use xlink:href="#DejaVuSans-32"/>
       <use xlink:href="#DejaVuSans-30" x="63.623047"/>
       <use xlink:href="#DejaVuSans-30" x="127.246094"/>
      </g>
     </g>
    </g>
    <g id="xtick_2">
     <g id="line2d_2">
      <g>
       <use xlink:href="#md343b99c22" x="156.724146" y="307.584" style="stroke: #000000; stroke-width: 0.8"/>
      </g>
     </g>
     <g id="text_2">
      <!-- 400 -->
      <g transform="translate(147.180396 322.182437)scale(0.1 -0.1)">
       <defs>
        <path id="DejaVuSans-34" d="M 2419 4116 
L 825 1625 
L 2419 1625 
L 2419 4116 
z
M 2253 4666 
L 3047 4666 
L 3047 1625 
L 3713 1625 
L 3713 1100 
L 3047 1100 
L 3047 0 
L 2419 0 
L 2419 1100 
L 313 1100 
L 313 1709 
L 2253 4666 
z
" transform="scale(0.015625)"/>
       </defs>
       <use xlink:href="#DejaVuSans-34"/>
       <use xlink:href="#DejaVuSans-30" x="63.623047"/>
       <use xlink:href="#DejaVuSans-30" x="127.246094"/>
      </g>
     </g>
    </g>
    <g id="xtick_3">
     <g id="line2d_3">
      <g>
       <use xlink:href="#md343b99c22" x="209.400442" y="307.584" style="stroke: #000000; stroke-width: 0.8"/>
      </g>
     </g>
     <g id="text_3">
      <!-- 600 -->
      <g transform="translate(199.856692 322.182437)scale(0.1 -0.1)">
       <defs>
        <path id="DejaVuSans-36" d="M 2113 2584 
Q 1688 2584 1439 2293 
Q 1191 2003 1191 1497 
Q 1191 994 1439 701 
Q 1688 409 2113 409 
Q 2538 409 2786 701 
Q 3034 994 3034 1497 
Q 3034 2003 2786 2293 
Q 2538 2584 2113 2584 
z
M 3366 4563 
L 3366 3988 
Q 3128 4100 2886 4159 
Q 2644 4219 2406 4219 
Q 1781 4219 1451 3797 
Q 1122 3375 1075 2522 
Q 1259 2794 1537 2939 
Q 1816 3084 2150 3084 
Q 2853 3084 3261 2657 
Q 3669 2231 3669 1497 
Q 3669 778 3244 343 
Q 2819 -91 2113 -91 
Q 1303 -91 875 529 
Q 447 1150 447 2328 
Q 447 3434 972 4092 
Q 1497 4750 2381 4750 
Q 2619 4750 2861 4703 
Q 3103 4656 3366 4563 
z
" transform="scale(0.015625)"/>
       </defs>
       <use xlink:href="#DejaVuSans-36"/>
       <use xlink:href="#DejaVuSans-30" x="63.623047"/>
       <use xlink:href="#DejaVuSans-30" x="127.246094"/>
      </g>
     </g>
    </g>
    <g id="xtick_4">
     <g id="line2d_4">
      <g>
       <use xlink:href="#md343b99c22" x="262.076737" y="307.584" style="stroke: #000000; stroke-width: 0.8"/>
      </g>
     </g>
     <g id="text_4">
      <!-- 800 -->
      <g transform="translate(252.532987 322.182437)scale(0.1 -0.1)">
       <defs>
        <path id="DejaVuSans-38" d="M 2034 2216 
Q 1584 2216 1326 1975 
Q 1069 1734 1069 1313 
Q 1069 891 1326 650 
Q 1584 409 2034 409 
Q 2484 409 2743 651 
Q 3003 894 3003 1313 
Q 3003 1734 2745 1975 
Q 2488 2216 2034 2216 
z
M 1403 2484 
Q 997 2584 770 2862 
Q 544 3141 544 3541 
Q 544 4100 942 4425 
Q 1341 4750 2034 4750 
Q 2731 4750 3128 4425 
Q 3525 4100 3525 3541 
Q 3525 3141 3298 2862 
Q 3072 2584 2669 2484 
Q 3125 2378 3379 2068 
Q 3634 1759 3634 1313 
Q 3634 634 3220 271 
Q 2806 -91 2034 -91 
Q 1263 -91 848 271 
Q 434 634 434 1313 
Q 434 1759 690 2068 
Q 947 2378 1403 2484 
z
M 1172 3481 
Q 1172 3119 1398 2916 
Q 1625 2713 2034 2713 
Q 2441 2713 2670 2916 
Q 2900 3119 2900 3481 
Q 2900 3844 2670 4047 
Q 2441 4250 2034 4250 
Q 1625 4250 1398 4047 
Q 1172 3844 1172 3481 
z
" transform="scale(0.015625)"/>
       </defs>
       <use xlink:href="#DejaVuSans-38"/>
       <use xlink:href="#DejaVuSans-30" x="63.623047"/>
       <use xlink:href="#DejaVuSans-30" x="127.246094"/>
      </g>
     </g>
    </g>
    <g id="xtick_5">
     <g id="line2d_5">
      <g>
       <use xlink:href="#md343b99c22" x="314.753033" y="307.584" style="stroke: #000000; stroke-width: 0.8"/>
      </g>
     </g>
     <g id="text_5">
      <!-- 1000 -->
      <g transform="translate(302.028033 322.182437)scale(0.1 -0.1)">
       <defs>
        <path id="DejaVuSans-31" d="M 794 531 
L 1825 531 
L 1825 4091 
L 703 3866 
L 703 4441 
L 1819 4666 
L 2450 4666 
L 2450 531 
L 3481 531 
L 3481 0 
L 794 0 
L 794 531 
z
" transform="scale(0.015625)"/>
       </defs>
       <use xlink:href="#DejaVuSans-31"/>
       <use xlink:href="#DejaVuSans-30" x="63.623047"/>
       <use xlink:href="#DejaVuSans-30" x="127.246094"/>
       <use xlink:href="#DejaVuSans-30" x="190.869141"/>
      </g>
     </g>
    </g>
    <g id="xtick_6">
     <g id="line2d_6">
      <g>
       <use xlink:href="#md343b99c22" x="367.429329" y="307.584" style="stroke: #000000; stroke-width: 0.8"/>
      </g>
     </g>
     <g id="text_6">
      <!-- 1200 -->
      <g transform="translate(354.704329 322.182437)scale(0.1 -0.1)">
       <use xlink:href="#DejaVuSans-31"/>
       <use xlink:href="#DejaVuSans-32" x="63.623047"/>
       <use xlink:href="#DejaVuSans-30" x="127.246094"/>
       <use xlink:href="#DejaVuSans-30" x="190.869141"/>
      </g>
     </g>
    </g>
    <g id="text_7">
     <!-- Score -->
     <g transform="translate(222.157656 335.860562)scale(0.1 -0.1)">
      <defs>
       <path id="DejaVuSans-53" d="M 3425 4513 
L 3425 3897 
Q 3066 4069 2747 4153 
Q 2428 4238 2131 4238 
Q 1616 4238 1336 4038 
Q 1056 3838 1056 3469 
Q 1056 3159 1242 3001 
Q 1428 2844 1947 2747 
L 2328 2669 
Q 3034 2534 3370 2195 
Q 3706 1856 3706 1288 
Q 3706 609 3251 259 
Q 2797 -91 1919 -91 
Q 1588 -91 1214 -16 
Q 841 59 441 206 
L 441 856 
Q 825 641 1194 531 
Q 1563 422 1919 422 
Q 2459 422 2753 634 
Q 3047 847 3047 1241 
Q 3047 1584 2836 1778 
Q 2625 1972 2144 2069 
L 1759 2144 
Q 1053 2284 737 2584 
Q 422 2884 422 3419 
Q 422 4038 858 4394 
Q 1294 4750 2059 4750 
Q 2388 4750 2728 4690 
Q 3069 4631 3425 4513 
z
" transform="scale(0.015625)"/>
       <path id="DejaVuSans-63" d="M 3122 3366 
L 3122 2828 
Q 2878 2963 2633 3030 
Q 2388 3097 2138 3097 
Q 1578 3097 1268 2742 
Q 959 2388 959 1747 
Q 959 1106 1268 751 
Q 1578 397 2138 397 
Q 2388 397 2633 464 
Q 2878 531 3122 666 
L 3122 134 
Q 2881 22 2623 -34 
Q 2366 -91 2075 -91 
Q 1284 -91 818 406 
Q 353 903 353 1747 
Q 353 2603 823 3093 
Q 1294 3584 2113 3584 
Q 2378 3584 2631 3529 
Q 2884 3475 3122 3366 
z
" transform="scale(0.015625)"/>
       <path id="DejaVuSans-6f" d="M 1959 3097 
Q 1497 3097 1228 2736 
Q 959 2375 959 1747 
Q 959 1119 1226 758 
Q 1494 397 1959 397 
Q 2419 397 2687 759 
Q 2956 1122 2956 1747 
Q 2956 2369 2687 2733 
Q 2419 3097 1959 3097 
z
M 1959 3584 
Q 2709 3584 3137 3096 
Q 3566 2609 3566 1747 
Q 3566 888 3137 398 
Q 2709 -91 1959 -91 
Q 1206 -91 779 398 
Q 353 888 353 1747 
Q 353 2609 779 3096 
Q 1206 3584 1959 3584 
z
" transform="scale(0.015625)"/>
       <path id="DejaVuSans-72" d="M 2631 2963 
Q 2534 3019 2420 3045 
Q 2306 3072 2169 3072 
Q 1681 3072 1420 2755 
Q 1159 2438 1159 1844 
L 1159 0 
L 581 0 
L 581 3500 
L 1159 3500 
L 1159 2956 
Q 1341 3275 1631 3429 
Q 1922 3584 2338 3584 
Q 2397 3584 2469 3576 
Q 2541 3569 2628 3553 
L 2631 2963 
z
" transform="scale(0.015625)"/>
       <path id="DejaVuSans-65" d="M 3597 1894 
L 3597 1613 
L 953 1613 
Q 991 1019 1311 708 
Q 1631 397 2203 397 
Q 2534 397 2845 478 
Q 3156 559 3463 722 
L 3463 178 
Q 3153 47 2828 -22 
Q 2503 -91 2169 -91 
Q 1331 -91 842 396 
Q 353 884 353 1716 
Q 353 2575 817 3079 
Q 1281 3584 2069 3584 
Q 2775 3584 3186 3129 
Q 3597 2675 3597 1894 
z
M 3022 2063 
Q 3016 2534 2758 2815 
Q 2500 3097 2075 3097 
Q 1594 3097 1305 2825 
Q 1016 2553 972 2059 
L 3022 2063 
z
" transform="scale(0.015625)"/>
      </defs>
      <use xlink:href="#DejaVuSans-53"/>
      <use xlink:href="#DejaVuSans-63" x="63.476562"/>
      <use xlink:href="#DejaVuSans-6f" x="118.457031"/>
      <use xlink:href="#DejaVuSans-72" x="179.638672"/>
      <use xlink:href="#DejaVuSans-65" x="218.501953"/>
     </g>
    </g>
   </g>
   <g id="matplotlib.axis_2">
    <g id="ytick_1">
     <g id="line2d_7">
      <defs>
       <path id="m9c522f6954" d="M 0 0 
L -3.5 0 
" style="stroke: #000000; stroke-width: 0.8"/>
      </defs>
      <g>
       <use xlink:href="#m9c522f6954" x="57.6" y="307.584" style="stroke: #000000; stroke-width: 0.8"/>
      </g>
     </g>
     <g id="text_8">
      <!-- 0 -->
      <g transform="translate(44.2375 311.383219)scale(0.1 -0.1)">
       <use xlink:href="#DejaVuSans-30"/>
      </g>
     </g>
    </g>
    <g id="ytick_2">
     <g id="line2d_8">
      <g>
       <use xlink:href="#m9c522f6954" x="57.6" y="273.335351" style="stroke: #000000; stroke-width: 0.8"/>
      </g>
     </g>
     <g id="text_9">
      <!-- 50 -->
      <g transform="translate(37.875 277.13457)scale(0.1 -0.1)">
       <defs>
        <path id="DejaVuSans-35" d="M 691 4666 
L 3169 4666 
L 3169 4134 
L 1269 4134 
L 1269 2991 
Q 1406 3038 1543 3061 
Q 1681 3084 1819 3084 
Q 2600 3084 3056 2656 
Q 3513 2228 3513 1497 
Q 3513 744 3044 326 
Q 2575 -91 1722 -91 
Q 1428 -91 1123 -41 
Q 819 9 494 109 
L 494 744 
Q 775 591 1075 516 
Q 1375 441 1709 441 
Q 2250 441 2565 725 
Q 2881 1009 2881 1497 
Q 2881 1984 2565 2268 
Q 2250 2553 1709 2553 
Q 1456 2553 1204 2497 
Q 953 2441 691 2322 
L 691 4666 
z
" transform="scale(0.015625)"/>
       </defs>
       <use xlink:href="#DejaVuSans-35"/>
       <use xlink:href="#DejaVuSans-30" x="63.623047"/>
      </g>
     </g>
    </g>
    <g id="ytick_3">
     <g id="line2d_9">
      <g>
       <use xlink:href="#m9c522f6954" x="57.6" y="239.086703" style="stroke: #000000; stroke-width: 0.8"/>
      </g>
     </g>
     <g id="text_10">
      <!-- 100 -->
      <g transform="translate(31.5125 242.885921)scale(0.1 -0.1)">
       <use xlink:href="#DejaVuSans-31"/>
       <use xlink:href="#DejaVuSans-30" x="63.623047"/>
       <use xlink:href="#DejaVuSans-30" x="127.246094"/>
      </g>
     </g>
    </g>
    <g id="ytick_4">
     <g id="line2d_10">
      <g>
       <use xlink:href="#m9c522f6954" x="57.6" y="204.838054" style="stroke: #000000; stroke-width: 0.8"/>
      </g>
     </g>
     <g id="text_11">
      <!-- 150 -->
      <g transform="translate(31.5125 208.637273)scale(0.1 -0.1)">
       <use xlink:href="#DejaVuSans-31"/>
       <use xlink:href="#DejaVuSans-35" x="63.623047"/>
       <use xlink:href="#DejaVuSans-30" x="127.246094"/>
      </g>
     </g>
    </g>
    <g id="ytick_5">
     <g id="line2d_11">
      <g>
       <use xlink:href="#m9c522f6954" x="57.6" y="170.589405" style="stroke: #000000; stroke-width: 0.8"/>
      </g>
     </g>
     <g id="text_12">
      <!-- 200 -->
      <g transform="translate(31.5125 174.388624)scale(0.1 -0.1)">
       <use xlink:href="#DejaVuSans-32"/>
       <use xlink:href="#DejaVuSans-30" x="63.623047"/>
       <use xlink:href="#DejaVuSans-30" x="127.246094"/>
      </g>
     </g>
    </g>
    <g id="ytick_6">
     <g id="line2d_12">
      <g>
       <use xlink:href="#m9c522f6954" x="57.6" y="136.340757" style="stroke: #000000; stroke-width: 0.8"/>
      </g>
     </g>
     <g id="text_13">
      <!-- 250 -->
      <g transform="translate(31.5125 140.139976)scale(0.1 -0.1)">
       <use xlink:href="#DejaVuSans-32"/>
       <use xlink:href="#DejaVuSans-35" x="63.623047"/>
       <use xlink:href="#DejaVuSans-30" x="127.246094"/>
      </g>
     </g>
    </g>
    <g id="ytick_7">
     <g id="line2d_13">
      <g>
       <use xlink:href="#m9c522f6954" x="57.6" y="102.092108" style="stroke: #000000; stroke-width: 0.8"/>
      </g>
     </g>
     <g id="text_14">
      <!-- 300 -->
      <g transform="translate(31.5125 105.891327)scale(0.1 -0.1)">
       <defs>
        <path id="DejaVuSans-33" d="M 2597 2516 
Q 3050 2419 3304 2112 
Q 3559 1806 3559 1356 
Q 3559 666 3084 287 
Q 2609 -91 1734 -91 
Q 1441 -91 1130 -33 
Q 819 25 488 141 
L 488 750 
Q 750 597 1062 519 
Q 1375 441 1716 441 
Q 2309 441 2620 675 
Q 2931 909 2931 1356 
Q 2931 1769 2642 2001 
Q 2353 2234 1838 2234 
L 1294 2234 
L 1294 2753 
L 1863 2753 
Q 2328 2753 2575 2939 
Q 2822 3125 2822 3475 
Q 2822 3834 2567 4026 
Q 2313 4219 1838 4219 
Q 1578 4219 1281 4162 
Q 984 4106 628 3988 
L 628 4550 
Q 988 4650 1302 4700 
Q 1616 4750 1894 4750 
Q 2613 4750 3031 4423 
Q 3450 4097 3450 3541 
Q 3450 3153 3228 2886 
Q 3006 2619 2597 2516 
z
" transform="scale(0.015625)"/>
       </defs>
       <use xlink:href="#DejaVuSans-33"/>
       <use xlink:href="#DejaVuSans-30" x="63.623047"/>
       <use xlink:href="#DejaVuSans-30" x="127.246094"/>
      </g>
     </g>
    </g>
    <g id="ytick_8">
     <g id="line2d_14">
      <g>
       <use xlink:href="#m9c522f6954" x="57.6" y="67.843459" style="stroke: #000000; stroke-width: 0.8"/>
      </g>
     </g>
     <g id="text_15">
      <!-- 350 -->
      <g transform="translate(31.5125 71.642678)scale(0.1 -0.1)">
       <use xlink:href="#DejaVuSans-33"/>
       <use xlink:href="#DejaVuSans-35" x="63.623047"/>
       <use xlink:href="#DejaVuSans-30" x="127.246094"/>
      </g>
     </g>
    </g>
    <g id="text_16">
     <!-- Number of crosslinks -->
     <g transform="translate(25.432812 227.019406)rotate(-90)scale(0.1 -0.1)">
      <defs>
       <path id="DejaVuSans-4e" d="M 628 4666 
L 1478 4666 
L 3547 763 
L 3547 4666 
L 4159 4666 
L 4159 0 
L 3309 0 
L 1241 3903 
L 1241 0 
L 628 0 
L 628 4666 
z
" transform="scale(0.015625)"/>
       <path id="DejaVuSans-75" d="M 544 1381 
L 544 3500 
L 1119 3500 
L 1119 1403 
Q 1119 906 1312 657 
Q 1506 409 1894 409 
Q 2359 409 2629 706 
Q 2900 1003 2900 1516 
L 2900 3500 
L 3475 3500 
L 3475 0 
L 2900 0 
L 2900 538 
Q 2691 219 2414 64 
Q 2138 -91 1772 -91 
Q 1169 -91 856 284 
Q 544 659 544 1381 
z
M 1991 3584 
L 1991 3584 
z
" transform="scale(0.015625)"/>
       <path id="DejaVuSans-6d" d="M 3328 2828 
Q 3544 3216 3844 3400 
Q 4144 3584 4550 3584 
Q 5097 3584 5394 3201 
Q 5691 2819 5691 2113 
L 5691 0 
L 5113 0 
L 5113 2094 
Q 5113 2597 4934 2840 
Q 4756 3084 4391 3084 
Q 3944 3084 3684 2787 
Q 3425 2491 3425 1978 
L 3425 0 
L 2847 0 
L 2847 2094 
Q 2847 2600 2669 2842 
Q 2491 3084 2119 3084 
Q 1678 3084 1418 2786 
Q 1159 2488 1159 1978 
L 1159 0 
L 581 0 
L 581 3500 
L 1159 3500 
L 1159 2956 
Q 1356 3278 1631 3431 
Q 1906 3584 2284 3584 
Q 2666 3584 2933 3390 
Q 3200 3197 3328 2828 
z
" transform="scale(0.015625)"/>
       <path id="DejaVuSans-62" d="M 3116 1747 
Q 3116 2381 2855 2742 
Q 2594 3103 2138 3103 
Q 1681 3103 1420 2742 
Q 1159 2381 1159 1747 
Q 1159 1113 1420 752 
Q 1681 391 2138 391 
Q 2594 391 2855 752 
Q 3116 1113 3116 1747 
z
M 1159 2969 
Q 1341 3281 1617 3432 
Q 1894 3584 2278 3584 
Q 2916 3584 3314 3078 
Q 3713 2572 3713 1747 
Q 3713 922 3314 415 
Q 2916 -91 2278 -91 
Q 1894 -91 1617 61 
Q 1341 213 1159 525 
L 1159 0 
L 581 0 
L 581 4863 
L 1159 4863 
L 1159 2969 
z
" transform="scale(0.015625)"/>
       <path id="DejaVuSans-20" transform="scale(0.015625)"/>
       <path id="DejaVuSans-66" d="M 2375 4863 
L 2375 4384 
L 1825 4384 
Q 1516 4384 1395 4259 
Q 1275 4134 1275 3809 
L 1275 3500 
L 2222 3500 
L 2222 3053 
L 1275 3053 
L 1275 0 
L 697 0 
L 697 3053 
L 147 3053 
L 147 3500 
L 697 3500 
L 697 3744 
Q 697 4328 969 4595 
Q 1241 4863 1831 4863 
L 2375 4863 
z
" transform="scale(0.015625)"/>
       <path id="DejaVuSans-73" d="M 2834 3397 
L 2834 2853 
Q 2591 2978 2328 3040 
Q 2066 3103 1784 3103 
Q 1356 3103 1142 2972 
Q 928 2841 928 2578 
Q 928 2378 1081 2264 
Q 1234 2150 1697 2047 
L 1894 2003 
Q 2506 1872 2764 1633 
Q 3022 1394 3022 966 
Q 3022 478 2636 193 
Q 2250 -91 1575 -91 
Q 1294 -91 989 -36 
Q 684 19 347 128 
L 347 722 
Q 666 556 975 473 
Q 1284 391 1588 391 
Q 1994 391 2212 530 
Q 2431 669 2431 922 
Q 2431 1156 2273 1281 
Q 2116 1406 1581 1522 
L 1381 1569 
Q 847 1681 609 1914 
Q 372 2147 372 2553 
Q 372 3047 722 3315 
Q 1072 3584 1716 3584 
Q 2034 3584 2315 3537 
Q 2597 3491 2834 3397 
z
" transform="scale(0.015625)"/>
       <path id="DejaVuSans-6c" d="M 603 4863 
L 1178 4863 
L 1178 0 
L 603 0 
L 603 4863 
z
" transform="scale(0.015625)"/>
       <path id="DejaVuSans-69" d="M 603 3500 
L 1178 3500 
L 1178 0 
L 603 0 
L 603 3500 
z
M 603 4863 
L 1178 4863 
L 1178 4134 
L 603 4134 
L 603 4863 
z
" transform="scale(0.015625)"/>
       <path id="DejaVuSans-6e" d="M 3513 2113 
L 3513 0 
L 2938 0 
L 2938 2094 
Q 2938 2591 2744 2837 
Q 2550 3084 2163 3084 
Q 1697 3084 1428 2787 
Q 1159 2491 1159 1978 
L 1159 0 
L 581 0 
L 581 3500 
L 1159 3500 
L 1159 2956 
Q 1366 3272 1645 3428 
Q 1925 3584 2291 3584 
Q 2894 3584 3203 3211 
Q 3513 2838 3513 2113 
z
" transform="scale(0.015625)"/>
       <path id="DejaVuSans-6b" d="M 581 4863 
L 1159 4863 
L 1159 1991 
L 2875 3500 
L 3609 3500 
L 1753 1863 
L 3688 0 
L 2938 0 
L 1159 1709 
L 1159 0 
L 581 0 
L 581 4863 
z
" transform="scale(0.015625)"/>
      </defs>
      <use xlink:href="#DejaVuSans-4e"/>
      <use xlink:href="#DejaVuSans-75" x="74.804688"/>
      <use xlink:href="#DejaVuSans-6d" x="138.183594"/>
      <use xlink:href="#DejaVuSans-62" x="235.595703"/>
      <use xlink:href="#DejaVuSans-65" x="299.072266"/>
      <use xlink:href="#DejaVuSans-72" x="360.595703"/>
      <use xlink:href="#DejaVuSans-20" x="401.708984"/>
      <use xlink:href="#DejaVuSans-6f" x="433.496094"/>
      <use xlink:href="#DejaVuSans-66" x="494.677734"/>
      <use xlink:href="#DejaVuSans-20" x="529.882812"/>
      <use xlink:href="#DejaVuSans-63" x="561.669922"/>
      <use xlink:href="#DejaVuSans-72" x="616.650391"/>
      <use xlink:href="#DejaVuSans-6f" x="655.513672"/>
      <use xlink:href="#DejaVuSans-73" x="716.695312"/>
      <use xlink:href="#DejaVuSans-73" x="768.794922"/>
      <use xlink:href="#DejaVuSans-6c" x="820.894531"/>
      <use xlink:href="#DejaVuSans-69" x="848.677734"/>
      <use xlink:href="#DejaVuSans-6e" x="876.460938"/>
      <use xlink:href="#DejaVuSans-6b" x="939.839844"/>
      <use xlink:href="#DejaVuSans-73" x="997.75"/>
     </g>
    </g>
   </g>
   <g id="patch_3">
    <path d="M 57.6 307.584 
L 57.6 41.472 
" style="fill: none; stroke: #000000; stroke-width: 0.8; stroke-linejoin: miter; stroke-linecap: square"/>
   </g>
   <g id="patch_4">
    <path d="M 414.72 307.584 
L 414.72 41.472 
" style="fill: none; stroke: #000000; stroke-width: 0.8; stroke-linejoin: miter; stroke-linecap: square"/>
   </g>
   <g id="patch_5">
    <path d="M 57.6 307.584 
L 414.72 307.584 
" style="fill: none; stroke: #000000; stroke-width: 0.8; stroke-linejoin: miter; stroke-linecap: square"/>
   </g>
   <g id="patch_6">
    <path d="M 57.6 41.472 
L 414.72 41.472 
" style="fill: none; stroke: #000000; stroke-width: 0.8; stroke-linejoin: miter; stroke-linecap: square"/>
   </g>
   <g id="legend_1">
    <g id="patch_7">
     <path d="M 293.087188 93.506375 
L 407.72 93.506375 
Q 409.72 93.506375 409.72 91.506375 
L 409.72 48.472 
Q 409.72 46.472 407.72 46.472 
L 293.087188 46.472 
Q 291.087188 46.472 291.087188 48.472 
L 291.087188 91.506375 
Q 291.087188 93.506375 293.087188 93.506375 
z
" style="fill: #ffffff; opacity: 0.8; stroke: #cccccc; stroke-linejoin: miter"/>
    </g>
    <g id="patch_8">
     <path d="M 295.087188 58.070438 
L 315.087188 58.070438 
L 315.087188 51.070438 
L 295.087188 51.070438 
z
" style="fill: #008000"/>
    </g>
    <g id="text_17">
     <!-- true -->
     <g transform="translate(323.087188 58.070438)scale(0.1 -0.1)">
      <defs>
       <path id="DejaVuSans-74" d="M 1172 4494 
L 1172 3500 
L 2356 3500 
L 2356 3053 
L 1172 3053 
L 1172 1153 
Q 1172 725 1289 603 
Q 1406 481 1766 481 
L 2356 481 
L 2356 0 
L 1766 0 
Q 1100 0 847 248 
Q 594 497 594 1153 
L 594 3053 
L 172 3053 
L 172 3500 
L 594 3500 
L 594 4494 
L 1172 4494 
z
" transform="scale(0.015625)"/>
      </defs>
      <use xlink:href="#DejaVuSans-74"/>
      <use xlink:href="#DejaVuSans-72" x="39.208984"/>
      <use xlink:href="#DejaVuSans-75" x="80.322266"/>
      <use xlink:href="#DejaVuSans-65" x="143.701172"/>
     </g>
    </g>
    <g id="patch_9">
     <path d="M 295.087188 72.748563 
L 315.087188 72.748563 
L 315.087188 65.748563 
L 295.087188 65.748563 
z
" style="fill: #7cfc00"/>
    </g>
    <g id="text_18">
     <!-- true homeotypic -->
     <g transform="translate(323.087188 72.748563)scale(0.1 -0.1)">
      <defs>
       <path id="DejaVuSans-68" d="M 3513 2113 
L 3513 0 
L 2938 0 
L 2938 2094 
Q 2938 2591 2744 2837 
Q 2550 3084 2163 3084 
Q 1697 3084 1428 2787 
Q 1159 2491 1159 1978 
L 1159 0 
L 581 0 
L 581 4863 
L 1159 4863 
L 1159 2956 
Q 1366 3272 1645 3428 
Q 1925 3584 2291 3584 
Q 2894 3584 3203 3211 
Q 3513 2838 3513 2113 
z
" transform="scale(0.015625)"/>
       <path id="DejaVuSans-79" d="M 2059 -325 
Q 1816 -950 1584 -1140 
Q 1353 -1331 966 -1331 
L 506 -1331 
L 506 -850 
L 844 -850 
Q 1081 -850 1212 -737 
Q 1344 -625 1503 -206 
L 1606 56 
L 191 3500 
L 800 3500 
L 1894 763 
L 2988 3500 
L 3597 3500 
L 2059 -325 
z
" transform="scale(0.015625)"/>
       <path id="DejaVuSans-70" d="M 1159 525 
L 1159 -1331 
L 581 -1331 
L 581 3500 
L 1159 3500 
L 1159 2969 
Q 1341 3281 1617 3432 
Q 1894 3584 2278 3584 
Q 2916 3584 3314 3078 
Q 3713 2572 3713 1747 
Q 3713 922 3314 415 
Q 2916 -91 2278 -91 
Q 1894 -91 1617 61 
Q 1341 213 1159 525 
z
M 3116 1747 
Q 3116 2381 2855 2742 
Q 2594 3103 2138 3103 
Q 1681 3103 1420 2742 
Q 1159 2381 1159 1747 
Q 1159 1113 1420 752 
Q 1681 391 2138 391 
Q 2594 391 2855 752 
Q 3116 1113 3116 1747 
z
" transform="scale(0.015625)"/>
      </defs>
      <use xlink:href="#DejaVuSans-74"/>
      <use xlink:href="#DejaVuSans-72" x="39.208984"/>
      <use xlink:href="#DejaVuSans-75" x="80.322266"/>
      <use xlink:href="#DejaVuSans-65" x="143.701172"/>
      <use xlink:href="#DejaVuSans-20" x="205.224609"/>
      <use xlink:href="#DejaVuSans-68" x="237.011719"/>
      <use xlink:href="#DejaVuSans-6f" x="300.390625"/>
      <use xlink:href="#DejaVuSans-6d" x="361.572266"/>
      <use xlink:href="#DejaVuSans-65" x="458.984375"/>
      <use xlink:href="#DejaVuSans-6f" x="520.507812"/>
      <use xlink:href="#DejaVuSans-74" x="581.689453"/>
      <use xlink:href="#DejaVuSans-79" x="620.898438"/>
      <use xlink:href="#DejaVuSans-70" x="680.078125"/>
      <use xlink:href="#DejaVuSans-69" x="743.554688"/>
      <use xlink:href="#DejaVuSans-63" x="771.337891"/>
     </g>
    </g>
    <g id="patch_10">
     <path d="M 295.087188 87.426688 
L 315.087188 87.426688 
L 315.087188 80.426688 
L 295.087188 80.426688 
z
" style="fill: #ff0000"/>
    </g>
    <g id="text_19">
     <!-- false -->
     <g transform="translate(323.087188 87.426688)scale(0.1 -0.1)">
      <defs>
       <path id="DejaVuSans-61" d="M 2194 1759 
Q 1497 1759 1228 1600 
Q 959 1441 959 1056 
Q 959 750 1161 570 
Q 1363 391 1709 391 
Q 2188 391 2477 730 
Q 2766 1069 2766 1631 
L 2766 1759 
L 2194 1759 
z
M 3341 1997 
L 3341 0 
L 2766 0 
L 2766 531 
Q 2569 213 2275 61 
Q 1981 -91 1556 -91 
Q 1019 -91 701 211 
Q 384 513 384 1019 
Q 384 1609 779 1909 
Q 1175 2209 1959 2209 
L 2766 2209 
L 2766 2266 
Q 2766 2663 2505 2880 
Q 2244 3097 1772 3097 
Q 1472 3097 1187 3025 
Q 903 2953 641 2809 
L 641 3341 
Q 956 3463 1253 3523 
Q 1550 3584 1831 3584 
Q 2591 3584 2966 3190 
Q 3341 2797 3341 1997 
z
" transform="scale(0.015625)"/>
      </defs>
      <use xlink:href="#DejaVuSans-66"/>
      <use xlink:href="#DejaVuSans-61" x="35.205078"/>
      <use xlink:href="#DejaVuSans-6c" x="96.484375"/>
      <use xlink:href="#DejaVuSans-73" x="124.267578"/>
      <use xlink:href="#DejaVuSans-65" x="176.367188"/>
     </g>
    </g>
   </g>
  </g>
 </g>
 <defs>
  <clipPath id="pb5b09cfd70">
   <rect x="57.6" y="41.472" width="357.12" height="266.112"/>
  </clipPath>
 </defs>
</svg>
