<?xml version="1.0" encoding="utf-8" standalone="no"?>
<!DOCTYPE svg PUBLIC "-//W3C//DTD SVG 1.1//EN"
  "http://www.w3.org/Graphics/SVG/1.1/DTD/svg11.dtd">
<svg xmlns:xlink="http://www.w3.org/1999/xlink" width="460.8pt" height="345.6pt" viewBox="0 0 460.8 345.6" xmlns="http://www.w3.org/2000/svg" version="1.1">
 <metadata>
  <rdf:RDF xmlns:dc="http://purl.org/dc/elements/1.1/" xmlns:cc="http://creativecommons.org/ns#" xmlns:rdf="http://www.w3.org/1999/02/22-rdf-syntax-ns#">
   <cc:Work>
    <dc:type rdf:resource="http://purl.org/dc/dcmitype/StillImage"/>
    <dc:date>2022-08-24T14:55:18.952166</dc:date>
    <dc:format>image/svg+xml</dc:format>
    <dc:creator>
     <cc:Agent>
      <dc:title>Matplotlib v3.5.1, https://matplotlib.org/</dc:title>
     </cc:Agent>
    </dc:creator>
   </cc:Work>
  </rdf:RDF>
 </metadata>
 <defs>
  <style type="text/css">*{stroke-linejoin: round; stroke-linecap: butt}</style>
 </defs>
 <g id="figure_1">
  <g id="patch_1">
   <path d="M 0 345.6 
L 460.8 345.6 
L 460.8 0 
L 0 0 
z
" style="fill: #ffffff"/>
  </g>
  <g id="axes_1">
   <g id="patch_2">
    <path d="M 57.6 307.584 
L 414.72 307.584 
L 414.72 41.472 
L 57.6 41.472 
z
" style="fill: #ffffff"/>
   </g>
   <g id="PolyCollection_1">
    <path d="M 73.832727 89.124 
L 73.832727 307.584 
L 74.140434 307.584 
L 74.191272 307.584 
L 74.284922 307.584 
L 74.359842 307.584 
L 74.533763 307.584 
L 74.557845 307.584 
L 74.592629 307.584 
L 74.820064 307.584 
L 74.983282 307.584 
L 75.042148 307.584 
L 75.135798 307.584 
L 75.194663 307.584 
L 75.213393 307.584 
L 75.422099 307.584 
L 75.534479 307.584 
L 75.53983 307.584 
L 76.192703 307.584 
L 76.20073 307.584 
L 76.682358 307.584 
L 77.008795 307.584 
L 77.188067 307.584 
L 77.300447 307.584 
L 78.038943 307.584 
L 78.242297 307.584 
L 78.643653 307.584 
L 79.237661 307.584 
L 79.59353 307.584 
L 80.64776 307.584 
L 80.754788 307.584 
L 80.762815 307.584 
L 80.770842 307.584 
L 81.04644 307.584 
L 81.581582 307.584 
L 81.699313 307.584 
L 81.792963 307.584 
L 81.956182 307.584 
L 82.00702 307.584 
L 82.057859 307.584 
L 82.218401 307.584 
L 82.344159 307.584 
L 82.448512 307.584 
L 82.469918 307.584 
L 82.493999 307.584 
L 82.507378 307.584 
L 82.617082 307.584 
L 82.662569 307.584 
L 82.788327 307.584 
L 82.833814 307.584 
L 82.927464 307.584 
L 82.964924 307.584 
L 83.02379 307.584 
L 83.165602 307.584 
L 83.574986 307.584 
L 83.8158 307.584 
L 83.941558 307.584 
L 84.088722 307.584 
L 84.334887 307.584 
L 84.340239 307.584 
L 84.348266 307.584 
L 84.388402 307.584 
L 84.452619 307.584 
L 85.017193 307.584 
L 85.541632 307.584 
L 85.573741 307.584 
L 85.886799 307.584 
L 86.178451 307.584 
L 86.395184 307.584 
L 86.475455 307.584 
L 86.510239 307.584 
L 87.55109 307.584 
L 87.679524 307.584 
L 87.896257 307.584 
L 88.163828 307.584 
L 88.270856 307.584 
L 88.538427 307.584 
L 88.640104 307.584 
L 88.784592 307.584 
L 89.140462 307.584 
L 89.1913 307.584 
L 89.252842 307.584 
L 90.068933 307.584 
L 90.200043 307.584 
L 90.221448 307.584 
L 90.32045 307.584 
L 90.331153 307.584 
L 90.807429 307.584 
L 90.898403 307.584 
L 91.075 307.584 
L 91.396085 307.584 
L 91.479032 307.584 
L 91.84828 307.584 
L 91.86701 307.584 
L 92.110499 307.584 
L 92.225555 307.584 
L 92.675074 307.584 
L 93.004186 307.584 
L 93.453706 307.584 
L 94.010253 307.584 
L 94.285851 307.584 
L 94.625666 307.584 
L 94.644396 307.584 
L 95.326702 307.584 
L 95.364162 307.584 
L 95.431055 307.584 
L 95.433731 307.584 
L 95.588922 307.584 
L 95.671869 307.584 
L 95.800303 307.584 
L 95.869871 307.584 
L 96.71272 307.584 
L 96.822424 307.584 
L 97.526136 307.584 
L 97.63584 307.584 
L 97.809761 307.584 
L 97.839194 307.584 
L 97.981006 307.584 
L 98.133522 307.584 
L 98.580365 307.584 
L 98.853287 307.584 
L 99.08875 307.584 
L 99.361672 307.584 
L 99.508836 307.584 
L 99.527566 307.584 
L 99.685433 307.584 
L 100.736987 307.584 
L 100.905557 307.584 
L 101.306913 307.584 
L 101.716297 307.584 
L 102.278196 307.584 
L 102.553794 307.584 
L 102.559145 307.584 
L 102.572524 307.584 
L 102.95515 307.584 
L 103.246803 307.584 
L 103.262857 307.584 
L 103.313695 307.584 
L 103.407345 307.584 
L 103.977271 307.584 
L 104.322438 307.584 
L 104.664929 307.584 
L 105.090367 307.584 
L 105.339208 307.584 
L 105.609454 307.584 
L 105.708455 307.584 
L 105.839565 307.584 
L 105.858295 307.584 
L 105.967999 307.584 
L 106.163326 307.584 
L 106.203462 307.584 
L 106.227543 307.584 
L 106.4416 307.584 
L 106.49779 307.584 
L 106.524547 307.584 
L 106.644954 307.584 
L 106.936606 307.584 
L 107.04631 307.584 
L 107.073067 307.584 
L 107.386125 307.584 
L 107.546668 307.584 
L 107.602858 307.584 
L 107.642993 307.584 
L 107.883807 307.584 
L 107.974781 307.584 
L 108.097864 307.584 
L 108.253055 307.584 
L 108.266434 307.584 
L 108.330651 307.584 
L 108.485842 307.584 
L 108.670466 307.584 
L 108.694547 307.584 
L 108.793549 307.584 
L 109.063795 307.584 
L 109.189554 307.584 
L 109.277852 307.584 
L 109.387556 307.584 
L 109.433043 307.584 
L 109.949455 307.584 
L 109.954807 307.584 
L 109.960158 307.584 
L 110.425731 307.584 
L 111.236471 307.584 
L 111.723451 307.584 
L 111.763586 307.584 
L 112.156916 307.584 
L 112.221133 307.584 
L 112.290701 307.584 
L 112.469974 307.584 
L 112.606435 307.584 
L 112.94625 307.584 
L 112.956953 307.584 
L 113.157631 307.584 
L 113.227199 307.584 
L 113.732908 307.584 
L 113.786423 307.584 
L 113.79445 307.584 
L 114.179752 307.584 
L 114.535621 307.584 
L 114.677434 307.584 
L 114.862058 307.584 
L 114.918248 307.584 
L 115.09752 307.584 
L 115.193846 307.584 
L 115.30355 307.584 
L 115.324956 307.584 
L 115.442687 307.584 
L 115.656744 307.584 
L 115.977829 307.584 
L 116.007262 307.584 
L 116.232021 307.584 
L 116.237373 307.584 
L 116.577188 307.584 
L 117.77323 307.584 
L 117.816041 307.584 
L 117.824068 307.584 
L 118.34048 307.584 
L 118.749864 307.584 
L 118.811405 307.584 
L 118.864919 307.584 
L 119.127139 307.584 
L 120.756646 307.584 
L 120.877053 307.584 
L 121.596819 307.584 
L 121.730604 307.584 
L 122.091825 307.584 
L 122.204205 307.584 
L 122.527966 307.584 
L 122.830321 307.584 
L 122.926647 307.584 
L 122.998891 307.584 
L 123.344057 307.584 
L 123.421653 307.584 
L 123.659791 307.584 
L 123.852442 307.584 
L 123.994255 307.584 
L 124.24042 307.584 
L 125.110026 307.584 
L 125.88063 307.584 
L 126.164255 307.584 
L 126.180309 307.584 
L 126.394366 307.584 
L 126.423799 307.584 
L 126.76629 307.584 
L 126.774317 307.584 
L 127.124835 307.584 
L 127.646598 307.584 
L 127.657301 307.584 
L 127.705464 307.584 
L 128.082739 307.584 
L 128.16301 307.584 
L 128.35031 307.584 
L 129.201185 307.584 
L 129.541001 307.584 
L 129.811247 307.584 
L 130.078818 307.584 
L 130.662123 307.584 
L 130.921667 307.584 
L 131.234725 307.584 
L 131.248103 307.584 
L 131.430052 307.584 
L 131.628054 307.584 
L 131.767191 307.584 
L 132.377253 307.584 
L 133.629485 307.584 
L 133.854244 307.584 
L 134.416143 307.584 
L 134.820176 307.584 
L 135.026205 307.584 
L 135.267019 307.584 
L 135.363345 307.584 
L 136.267734 307.584 
L 136.53263 307.584 
L 136.917932 307.584 
L 136.998203 307.584 
L 137.407587 307.584 
L 137.434344 307.584 
L 138.212975 307.584 
L 138.330707 307.584 
L 138.424356 307.584 
L 139.216366 307.584 
L 139.304665 307.584 
L 140.214406 307.584 
L 140.629141 307.584 
L 140.69871 307.584 
L 141.897427 307.584 
L 143.09347 307.584 
L 143.422582 307.584 
L 143.864074 307.584 
L 143.965751 307.584 
L 144.757761 307.584 
L 144.982521 307.584 
L 145.464148 307.584 
L 147.342496 307.584 
L 147.436146 307.584 
L 147.484309 307.584 
L 148.171966 307.584 
L 148.819488 307.584 
L 148.835542 307.584 
L 148.915814 307.584 
L 149.164655 307.584 
L 149.228872 307.584 
L 149.346603 307.584 
L 150.141289 307.584 
L 150.435617 307.584 
L 150.95738 307.584 
L 152.134692 307.584 
L 152.362128 307.584 
L 152.536049 307.584 
L 153.130056 307.584 
L 153.65182 307.584 
L 153.881931 307.584 
L 154.042473 307.584 
L 154.855889 307.584 
L 155.281327 307.584 
L 155.570303 307.584 
L 155.714792 307.584 
L 159.867493 307.584 
L 160.078874 307.584 
L 160.185902 307.584 
L 161.071562 307.584 
L 161.111698 307.584 
L 161.644164 307.584 
L 161.64684 307.584 
L 161.917086 307.584 
L 162.278307 307.584 
L 162.283659 307.584 
L 163.086372 307.584 
L 163.270995 307.584 
L 163.514485 307.584 
L 163.594756 307.584 
L 163.677703 307.584 
L 164.084411 307.584 
L 164.421551 307.584 
L 165.34467 307.584 
L 167.942784 307.584 
L 168.087273 307.584 
L 168.520738 307.584 
L 171.295449 307.584 
L 172.785819 307.584 
L 174.987928 307.584 
L 175.161849 307.584 
L 176.933169 307.584 
L 177.024143 307.584 
L 177.647583 307.584 
L 177.78672 307.584 
L 178.621541 307.584 
L 178.891788 307.584 
L 178.966708 307.584 
L 179.001492 307.584 
L 181.476523 307.584 
L 181.59693 307.584 
L 183.873959 307.584 
L 184.042529 307.584 
L 187.363084 307.584 
L 187.518276 307.584 
L 187.55306 307.584 
L 187.72163 307.584 
L 189.123701 307.584 
L 189.410002 307.584 
L 192.32385 307.584 
L 193.798166 307.584 
L 199.45194 307.584 
L 200.634604 307.584 
L 203.077527 307.584 
L 205.44553 307.584 
L 209.57415 307.584 
L 221.866359 307.584 
L 223.570786 307.584 
L 226.869936 307.584 
L 227.228481 307.584 
L 234.040838 307.584 
L 236.861036 307.584 
L 241.650556 307.584 
L 245.7765 307.584 
L 247.170545 307.584 
L 268.980254 307.584 
L 282.527371 307.584 
L 291.881652 307.584 
L 295.654402 307.584 
L 306.210077 307.584 
L 356.283306 307.584 
L 398.487273 307.584 
L 398.487273 307.584 
L 398.487273 307.584 
L 356.283306 307.584 
L 306.210077 307.584 
L 295.654402 307.584 
L 291.881652 307.584 
L 282.527371 307.584 
L 268.980254 307.584 
L 247.170545 307.584 
L 245.7765 307.584 
L 241.650556 307.584 
L 236.861036 307.584 
L 234.040838 306.924 
L 227.228481 306.924 
L 226.869936 306.924 
L 223.570786 306.924 
L 221.866359 306.924 
L 209.57415 306.924 
L 205.44553 306.924 
L 203.077527 306.264 
L 200.634604 306.264 
L 199.45194 305.604 
L 193.798166 305.604 
L 192.32385 304.944 
L 189.410002 304.284 
L 189.123701 303.624 
L 187.72163 302.964 
L 187.55306 302.964 
L 187.518276 302.964 
L 187.363084 302.304 
L 184.042529 301.644 
L 183.873959 301.644 
L 181.59693 300.984 
L 181.476523 300.984 
L 179.001492 300.984 
L 178.966708 300.324 
L 178.891788 299.664 
L 178.621541 299.004 
L 177.78672 298.344 
L 177.647583 297.684 
L 177.024143 297.684 
L 176.933169 297.024 
L 175.161849 297.024 
L 174.987928 296.364 
L 172.785819 295.704 
L 171.295449 295.044 
L 168.520738 294.384 
L 168.087273 293.724 
L 167.942784 293.724 
L 165.34467 293.064 
L 164.421551 292.404 
L 164.084411 291.744 
L 163.677703 291.084 
L 163.594756 290.424 
L 163.514485 290.424 
L 163.270995 289.764 
L 163.086372 289.104 
L 162.283659 289.104 
L 162.278307 288.444 
L 161.917086 287.784 
L 161.64684 287.124 
L 161.644164 286.464 
L 161.111698 286.464 
L 161.071562 285.804 
L 160.185902 285.144 
L 160.078874 284.484 
L 159.867493 283.824 
L 155.714792 283.164 
L 155.570303 282.504 
L 155.281327 282.504 
L 154.855889 281.844 
L 154.042473 281.844 
L 153.881931 281.184 
L 153.65182 280.524 
L 153.130056 279.864 
L 152.536049 279.204 
L 152.362128 278.544 
L 152.134692 277.884 
L 150.95738 277.224 
L 150.435617 277.224 
L 150.141289 276.564 
L 149.346603 275.904 
L 149.228872 275.244 
L 149.164655 274.584 
L 148.915814 273.924 
L 148.835542 273.264 
L 148.819488 273.264 
L 148.171966 272.604 
L 147.484309 271.944 
L 147.436146 271.284 
L 147.342496 270.624 
L 145.464148 269.964 
L 144.982521 269.304 
L 144.757761 268.644 
L 143.965751 267.984 
L 143.864074 267.324 
L 143.422582 266.664 
L 143.09347 266.004 
L 141.897427 265.344 
L 140.69871 265.344 
L 140.629141 264.684 
L 140.214406 264.024 
L 139.304665 263.364 
L 139.216366 263.364 
L 138.424356 262.704 
L 138.330707 262.044 
L 138.212975 262.044 
L 137.434344 261.384 
L 137.407587 260.724 
L 136.998203 260.064 
L 136.917932 259.404 
L 136.53263 258.744 
L 136.267734 258.084 
L 135.363345 257.424 
L 135.267019 256.764 
L 135.026205 256.104 
L 134.820176 255.444 
L 134.416143 254.784 
L 133.854244 254.124 
L 133.629485 253.464 
L 132.377253 252.804 
L 131.767191 252.144 
L 131.628054 251.484 
L 131.430052 250.824 
L 131.248103 250.164 
L 131.234725 249.504 
L 130.921667 248.844 
L 130.662123 248.184 
L 130.078818 247.524 
L 129.811247 247.524 
L 129.541001 246.864 
L 129.201185 246.204 
L 128.35031 245.544 
L 128.16301 244.884 
L 128.082739 244.224 
L 127.705464 243.564 
L 127.657301 242.904 
L 127.646598 242.244 
L 127.124835 242.244 
L 126.774317 241.584 
L 126.76629 240.924 
L 126.423799 240.264 
L 126.394366 239.604 
L 126.180309 238.944 
L 126.164255 238.284 
L 125.88063 238.284 
L 125.110026 237.624 
L 124.24042 236.964 
L 123.994255 236.304 
L 123.852442 235.644 
L 123.659791 234.984 
L 123.421653 234.324 
L 123.344057 234.324 
L 122.998891 233.664 
L 122.926647 233.004 
L 122.830321 232.344 
L 122.527966 231.684 
L 122.204205 231.024 
L 122.091825 230.364 
L 121.730604 229.704 
L 121.596819 229.044 
L 120.877053 228.384 
L 120.756646 227.724 
L 119.127139 227.064 
L 118.864919 226.404 
L 118.811405 226.404 
L 118.749864 225.744 
L 118.34048 225.084 
L 117.824068 224.424 
L 117.816041 223.764 
L 117.77323 223.104 
L 116.577188 222.444 
L 116.237373 221.784 
L 116.232021 221.124 
L 116.007262 220.464 
L 115.977829 219.804 
L 115.656744 219.144 
L 115.442687 218.484 
L 115.324956 217.824 
L 115.30355 217.164 
L 115.193846 216.504 
L 115.09752 215.844 
L 114.918248 215.184 
L 114.862058 214.524 
L 114.677434 213.864 
L 114.535621 213.204 
L 114.179752 212.544 
L 113.79445 211.884 
L 113.786423 211.224 
L 113.732908 210.564 
L 113.227199 209.904 
L 113.157631 209.244 
L 112.956953 208.584 
L 112.94625 207.924 
L 112.606435 207.264 
L 112.469974 206.604 
L 112.290701 205.944 
L 112.221133 205.284 
L 112.156916 204.624 
L 111.763586 203.964 
L 111.723451 203.304 
L 111.236471 202.644 
L 110.425731 201.984 
L 109.960158 201.324 
L 109.954807 200.664 
L 109.949455 200.004 
L 109.433043 199.344 
L 109.387556 198.684 
L 109.277852 198.024 
L 109.189554 197.364 
L 109.063795 196.704 
L 108.793549 196.044 
L 108.694547 195.384 
L 108.670466 194.724 
L 108.485842 194.064 
L 108.330651 193.404 
L 108.266434 192.744 
L 108.253055 192.084 
L 108.097864 191.424 
L 107.974781 190.764 
L 107.883807 190.104 
L 107.642993 189.444 
L 107.602858 188.784 
L 107.546668 188.124 
L 107.386125 187.464 
L 107.073067 186.804 
L 107.04631 186.144 
L 106.936606 185.484 
L 106.644954 184.824 
L 106.524547 184.164 
L 106.49779 183.504 
L 106.4416 182.844 
L 106.227543 182.184 
L 106.203462 181.524 
L 106.163326 180.864 
L 105.967999 180.204 
L 105.858295 179.544 
L 105.839565 178.884 
L 105.708455 178.224 
L 105.609454 177.564 
L 105.339208 176.904 
L 105.090367 176.244 
L 104.664929 175.584 
L 104.322438 174.924 
L 103.977271 174.264 
L 103.407345 173.604 
L 103.313695 172.944 
L 103.262857 172.284 
L 103.246803 171.624 
L 102.95515 170.964 
L 102.572524 170.304 
L 102.559145 169.644 
L 102.553794 168.984 
L 102.278196 168.324 
L 101.716297 167.664 
L 101.306913 167.004 
L 100.905557 166.344 
L 100.736987 165.684 
L 99.685433 165.024 
L 99.527566 164.364 
L 99.508836 163.704 
L 99.361672 163.044 
L 99.08875 161.724 
L 98.853287 161.064 
L 98.580365 160.404 
L 98.133522 159.744 
L 97.981006 159.084 
L 97.839194 158.424 
L 97.809761 157.764 
L 97.63584 157.104 
L 97.526136 156.444 
L 96.822424 156.444 
L 96.71272 155.784 
L 95.869871 155.124 
L 95.800303 154.464 
L 95.671869 154.464 
L 95.588922 153.804 
L 95.433731 153.804 
L 95.431055 153.144 
L 95.364162 152.484 
L 95.326702 151.824 
L 94.644396 151.164 
L 94.625666 150.504 
L 94.285851 149.844 
L 94.010253 149.184 
L 93.453706 148.524 
L 93.004186 147.864 
L 92.675074 147.204 
L 92.225555 146.544 
L 92.110499 145.884 
L 91.86701 145.224 
L 91.84828 144.564 
L 91.479032 143.904 
L 91.396085 143.244 
L 91.075 142.584 
L 90.898403 141.924 
L 90.807429 141.264 
L 90.331153 140.604 
L 90.32045 139.944 
L 90.221448 139.284 
L 90.200043 138.624 
L 90.068933 137.964 
L 89.252842 137.304 
L 89.1913 136.644 
L 89.140462 135.984 
L 88.784592 135.984 
L 88.640104 135.324 
L 88.538427 134.664 
L 88.270856 134.004 
L 88.163828 133.344 
L 87.896257 132.684 
L 87.679524 132.024 
L 87.55109 131.364 
L 86.510239 131.364 
L 86.475455 130.704 
L 86.395184 130.044 
L 86.178451 129.384 
L 85.886799 128.724 
L 85.573741 128.064 
L 85.541632 127.404 
L 85.017193 126.744 
L 84.452619 126.084 
L 84.388402 125.424 
L 84.348266 124.764 
L 84.340239 124.104 
L 84.334887 123.444 
L 84.088722 122.784 
L 83.941558 122.124 
L 83.8158 121.464 
L 83.574986 120.804 
L 83.165602 120.144 
L 83.02379 119.484 
L 82.964924 118.824 
L 82.927464 118.164 
L 82.833814 117.504 
L 82.788327 116.844 
L 82.662569 116.184 
L 82.617082 115.524 
L 82.507378 114.864 
L 82.493999 114.204 
L 82.469918 113.544 
L 82.448512 112.884 
L 82.344159 112.224 
L 82.218401 111.564 
L 82.057859 110.904 
L 82.00702 110.244 
L 81.956182 109.584 
L 81.792963 108.924 
L 81.699313 108.924 
L 81.581582 108.264 
L 81.04644 107.604 
L 80.770842 106.944 
L 80.762815 106.284 
L 80.754788 106.284 
L 80.64776 105.624 
L 79.59353 104.964 
L 79.237661 104.304 
L 78.643653 103.644 
L 78.242297 102.984 
L 78.038943 102.324 
L 77.300447 101.664 
L 77.188067 101.004 
L 77.008795 100.344 
L 76.682358 99.684 
L 76.20073 99.024 
L 76.192703 99.024 
L 75.53983 98.364 
L 75.534479 97.704 
L 75.422099 97.044 
L 75.213393 96.384 
L 75.194663 95.724 
L 75.135798 95.724 
L 75.042148 95.724 
L 74.983282 95.064 
L 74.820064 94.404 
L 74.592629 93.744 
L 74.557845 93.744 
L 74.533763 92.424 
L 74.359842 91.764 
L 74.284922 91.104 
L 74.191272 90.444 
L 74.140434 89.784 
L 73.832727 89.124 
z
" clip-path="url(#p85d1f6a65a)" style="fill: #008000"/>
   </g>
   <g id="PolyCollection_2">
    <path d="M 73.832727 60.084 
L 73.832727 89.124 
L 74.140434 89.784 
L 74.191272 90.444 
L 74.284922 91.104 
L 74.359842 91.764 
L 74.533763 92.424 
L 74.557845 93.744 
L 74.592629 93.744 
L 74.820064 94.404 
L 74.983282 95.064 
L 75.042148 95.724 
L 75.135798 95.724 
L 75.194663 95.724 
L 75.213393 96.384 
L 75.422099 97.044 
L 75.534479 97.704 
L 75.53983 98.364 
L 76.192703 99.024 
L 76.20073 99.024 
L 76.682358 99.684 
L 77.008795 100.344 
L 77.188067 101.004 
L 77.300447 101.664 
L 78.038943 102.324 
L 78.242297 102.984 
L 78.643653 103.644 
L 79.237661 104.304 
L 79.59353 104.964 
L 80.64776 105.624 
L 80.754788 106.284 
L 80.762815 106.284 
L 80.770842 106.944 
L 81.04644 107.604 
L 81.581582 108.264 
L 81.699313 108.924 
L 81.792963 108.924 
L 81.956182 109.584 
L 82.00702 110.244 
L 82.057859 110.904 
L 82.218401 111.564 
L 82.344159 112.224 
L 82.448512 112.884 
L 82.469918 113.544 
L 82.493999 114.204 
L 82.507378 114.864 
L 82.617082 115.524 
L 82.662569 116.184 
L 82.788327 116.844 
L 82.833814 117.504 
L 82.927464 118.164 
L 82.964924 118.824 
L 83.02379 119.484 
L 83.165602 120.144 
L 83.574986 120.804 
L 83.8158 121.464 
L 83.941558 122.124 
L 84.088722 122.784 
L 84.334887 123.444 
L 84.340239 124.104 
L 84.348266 124.764 
L 84.388402 125.424 
L 84.452619 126.084 
L 85.017193 126.744 
L 85.541632 127.404 
L 85.573741 128.064 
L 85.886799 128.724 
L 86.178451 129.384 
L 86.395184 130.044 
L 86.475455 130.704 
L 86.510239 131.364 
L 87.55109 131.364 
L 87.679524 132.024 
L 87.896257 132.684 
L 88.163828 133.344 
L 88.270856 134.004 
L 88.538427 134.664 
L 88.640104 135.324 
L 88.784592 135.984 
L 89.140462 135.984 
L 89.1913 136.644 
L 89.252842 137.304 
L 90.068933 137.964 
L 90.200043 138.624 
L 90.221448 139.284 
L 90.32045 139.944 
L 90.331153 140.604 
L 90.807429 141.264 
L 90.898403 141.924 
L 91.075 142.584 
L 91.396085 143.244 
L 91.479032 143.904 
L 91.84828 144.564 
L 91.86701 145.224 
L 92.110499 145.884 
L 92.225555 146.544 
L 92.675074 147.204 
L 93.004186 147.864 
L 93.453706 148.524 
L 94.010253 149.184 
L 94.285851 149.844 
L 94.625666 150.504 
L 94.644396 151.164 
L 95.326702 151.824 
L 95.364162 152.484 
L 95.431055 153.144 
L 95.433731 153.804 
L 95.588922 153.804 
L 95.671869 154.464 
L 95.800303 154.464 
L 95.869871 155.124 
L 96.71272 155.784 
L 96.822424 156.444 
L 97.526136 156.444 
L 97.63584 157.104 
L 97.809761 157.764 
L 97.839194 158.424 
L 97.981006 159.084 
L 98.133522 159.744 
L 98.580365 160.404 
L 98.853287 161.064 
L 99.08875 161.724 
L 99.361672 163.044 
L 99.508836 163.704 
L 99.527566 164.364 
L 99.685433 165.024 
L 100.736987 165.684 
L 100.905557 166.344 
L 101.306913 167.004 
L 101.716297 167.664 
L 102.278196 168.324 
L 102.553794 168.984 
L 102.559145 169.644 
L 102.572524 170.304 
L 102.95515 170.964 
L 103.246803 171.624 
L 103.262857 172.284 
L 103.313695 172.944 
L 103.407345 173.604 
L 103.977271 174.264 
L 104.322438 174.924 
L 104.664929 175.584 
L 105.090367 176.244 
L 105.339208 176.904 
L 105.609454 177.564 
L 105.708455 178.224 
L 105.839565 178.884 
L 105.858295 179.544 
L 105.967999 180.204 
L 106.163326 180.864 
L 106.203462 181.524 
L 106.227543 182.184 
L 106.4416 182.844 
L 106.49779 183.504 
L 106.524547 184.164 
L 106.644954 184.824 
L 106.936606 185.484 
L 107.04631 186.144 
L 107.073067 186.804 
L 107.386125 187.464 
L 107.546668 188.124 
L 107.602858 188.784 
L 107.642993 189.444 
L 107.883807 190.104 
L 107.974781 190.764 
L 108.097864 191.424 
L 108.253055 192.084 
L 108.266434 192.744 
L 108.330651 193.404 
L 108.485842 194.064 
L 108.670466 194.724 
L 108.694547 195.384 
L 108.793549 196.044 
L 109.063795 196.704 
L 109.189554 197.364 
L 109.277852 198.024 
L 109.387556 198.684 
L 109.433043 199.344 
L 109.949455 200.004 
L 109.954807 200.664 
L 109.960158 201.324 
L 110.425731 201.984 
L 111.236471 202.644 
L 111.723451 203.304 
L 111.763586 203.964 
L 112.156916 204.624 
L 112.221133 205.284 
L 112.290701 205.944 
L 112.469974 206.604 
L 112.606435 207.264 
L 112.94625 207.924 
L 112.956953 208.584 
L 113.157631 209.244 
L 113.227199 209.904 
L 113.732908 210.564 
L 113.786423 211.224 
L 113.79445 211.884 
L 114.179752 212.544 
L 114.535621 213.204 
L 114.677434 213.864 
L 114.862058 214.524 
L 114.918248 215.184 
L 115.09752 215.844 
L 115.193846 216.504 
L 115.30355 217.164 
L 115.324956 217.824 
L 115.442687 218.484 
L 115.656744 219.144 
L 115.977829 219.804 
L 116.007262 220.464 
L 116.232021 221.124 
L 116.237373 221.784 
L 116.577188 222.444 
L 117.77323 223.104 
L 117.816041 223.764 
L 117.824068 224.424 
L 118.34048 225.084 
L 118.749864 225.744 
L 118.811405 226.404 
L 118.864919 226.404 
L 119.127139 227.064 
L 120.756646 227.724 
L 120.877053 228.384 
L 121.596819 229.044 
L 121.730604 229.704 
L 122.091825 230.364 
L 122.204205 231.024 
L 122.527966 231.684 
L 122.830321 232.344 
L 122.926647 233.004 
L 122.998891 233.664 
L 123.344057 234.324 
L 123.421653 234.324 
L 123.659791 234.984 
L 123.852442 235.644 
L 123.994255 236.304 
L 124.24042 236.964 
L 125.110026 237.624 
L 125.88063 238.284 
L 126.164255 238.284 
L 126.180309 238.944 
L 126.394366 239.604 
L 126.423799 240.264 
L 126.76629 240.924 
L 126.774317 241.584 
L 127.124835 242.244 
L 127.646598 242.244 
L 127.657301 242.904 
L 127.705464 243.564 
L 128.082739 244.224 
L 128.16301 244.884 
L 128.35031 245.544 
L 129.201185 246.204 
L 129.541001 246.864 
L 129.811247 247.524 
L 130.078818 247.524 
L 130.662123 248.184 
L 130.921667 248.844 
L 131.234725 249.504 
L 131.248103 250.164 
L 131.430052 250.824 
L 131.628054 251.484 
L 131.767191 252.144 
L 132.377253 252.804 
L 133.629485 253.464 
L 133.854244 254.124 
L 134.416143 254.784 
L 134.820176 255.444 
L 135.026205 256.104 
L 135.267019 256.764 
L 135.363345 257.424 
L 136.267734 258.084 
L 136.53263 258.744 
L 136.917932 259.404 
L 136.998203 260.064 
L 137.407587 260.724 
L 137.434344 261.384 
L 138.212975 262.044 
L 138.330707 262.044 
L 138.424356 262.704 
L 139.216366 263.364 
L 139.304665 263.364 
L 140.214406 264.024 
L 140.629141 264.684 
L 140.69871 265.344 
L 141.897427 265.344 
L 143.09347 266.004 
L 143.422582 266.664 
L 143.864074 267.324 
L 143.965751 267.984 
L 144.757761 268.644 
L 144.982521 269.304 
L 145.464148 269.964 
L 147.342496 270.624 
L 147.436146 271.284 
L 147.484309 271.944 
L 148.171966 272.604 
L 148.819488 273.264 
L 148.835542 273.264 
L 148.915814 273.924 
L 149.164655 274.584 
L 149.228872 275.244 
L 149.346603 275.904 
L 150.141289 276.564 
L 150.435617 277.224 
L 150.95738 277.224 
L 152.134692 277.884 
L 152.362128 278.544 
L 152.536049 279.204 
L 153.130056 279.864 
L 153.65182 280.524 
L 153.881931 281.184 
L 154.042473 281.844 
L 154.855889 281.844 
L 155.281327 282.504 
L 155.570303 282.504 
L 155.714792 283.164 
L 159.867493 283.824 
L 160.078874 284.484 
L 160.185902 285.144 
L 161.071562 285.804 
L 161.111698 286.464 
L 161.644164 286.464 
L 161.64684 287.124 
L 161.917086 287.784 
L 162.278307 288.444 
L 162.283659 289.104 
L 163.086372 289.104 
L 163.270995 289.764 
L 163.514485 290.424 
L 163.594756 290.424 
L 163.677703 291.084 
L 164.084411 291.744 
L 164.421551 292.404 
L 165.34467 293.064 
L 167.942784 293.724 
L 168.087273 293.724 
L 168.520738 294.384 
L 171.295449 295.044 
L 172.785819 295.704 
L 174.987928 296.364 
L 175.161849 297.024 
L 176.933169 297.024 
L 177.024143 297.684 
L 177.647583 297.684 
L 177.78672 298.344 
L 178.621541 299.004 
L 178.891788 299.664 
L 178.966708 300.324 
L 179.001492 300.984 
L 181.476523 300.984 
L 181.59693 300.984 
L 183.873959 301.644 
L 184.042529 301.644 
L 187.363084 302.304 
L 187.518276 302.964 
L 187.55306 302.964 
L 187.72163 302.964 
L 189.123701 303.624 
L 189.410002 304.284 
L 192.32385 304.944 
L 193.798166 305.604 
L 199.45194 305.604 
L 200.634604 306.264 
L 203.077527 306.264 
L 205.44553 306.924 
L 209.57415 306.924 
L 221.866359 306.924 
L 223.570786 306.924 
L 226.869936 306.924 
L 227.228481 306.924 
L 234.040838 306.924 
L 236.861036 307.584 
L 241.650556 307.584 
L 245.7765 307.584 
L 247.170545 307.584 
L 268.980254 307.584 
L 282.527371 307.584 
L 291.881652 307.584 
L 295.654402 307.584 
L 306.210077 307.584 
L 356.283306 307.584 
L 398.487273 307.584 
L 398.487273 306.924 
L 398.487273 306.924 
L 356.283306 306.264 
L 306.210077 305.604 
L 295.654402 304.944 
L 291.881652 304.284 
L 282.527371 303.624 
L 268.980254 302.964 
L 247.170545 302.304 
L 245.7765 301.644 
L 241.650556 300.984 
L 236.861036 300.324 
L 234.040838 299.664 
L 227.228481 299.004 
L 226.869936 298.344 
L 223.570786 297.684 
L 221.866359 297.024 
L 209.57415 296.364 
L 205.44553 295.704 
L 203.077527 295.044 
L 200.634604 294.384 
L 199.45194 293.724 
L 193.798166 293.064 
L 192.32385 292.404 
L 189.410002 291.744 
L 189.123701 291.084 
L 187.72163 290.424 
L 187.55306 289.764 
L 187.518276 289.104 
L 187.363084 288.444 
L 184.042529 287.784 
L 183.873959 287.124 
L 181.59693 286.464 
L 181.476523 285.804 
L 179.001492 285.144 
L 178.966708 284.484 
L 178.891788 283.824 
L 178.621541 283.164 
L 177.78672 282.504 
L 177.647583 281.844 
L 177.024143 281.184 
L 176.933169 280.524 
L 175.161849 279.864 
L 174.987928 279.204 
L 172.785819 278.544 
L 171.295449 277.884 
L 168.520738 277.224 
L 168.087273 276.564 
L 167.942784 275.904 
L 165.34467 275.244 
L 164.421551 274.584 
L 164.084411 273.924 
L 163.677703 273.264 
L 163.594756 272.604 
L 163.514485 271.944 
L 163.270995 271.284 
L 163.086372 270.624 
L 162.283659 269.964 
L 162.278307 269.304 
L 161.917086 268.644 
L 161.64684 267.984 
L 161.644164 267.324 
L 161.111698 266.664 
L 161.071562 266.004 
L 160.185902 265.344 
L 160.078874 264.684 
L 159.867493 264.024 
L 155.714792 263.364 
L 155.570303 262.704 
L 155.281327 262.044 
L 154.855889 261.384 
L 154.042473 260.724 
L 153.881931 260.064 
L 153.65182 259.404 
L 153.130056 258.744 
L 152.536049 258.084 
L 152.362128 257.424 
L 152.134692 256.764 
L 150.95738 256.104 
L 150.435617 255.444 
L 150.141289 254.784 
L 149.346603 254.124 
L 149.228872 253.464 
L 149.164655 252.804 
L 148.915814 252.144 
L 148.835542 251.484 
L 148.819488 250.824 
L 148.171966 250.164 
L 147.484309 249.504 
L 147.436146 248.844 
L 147.342496 248.184 
L 145.464148 247.524 
L 144.982521 246.864 
L 144.757761 246.204 
L 143.965751 245.544 
L 143.864074 244.884 
L 143.422582 244.224 
L 143.09347 243.564 
L 141.897427 242.904 
L 140.69871 242.244 
L 140.629141 241.584 
L 140.214406 240.924 
L 139.304665 240.264 
L 139.216366 239.604 
L 138.424356 238.944 
L 138.330707 238.284 
L 138.212975 237.624 
L 137.434344 236.964 
L 137.407587 236.304 
L 136.998203 235.644 
L 136.917932 234.984 
L 136.53263 234.324 
L 136.267734 233.664 
L 135.363345 233.004 
L 135.267019 232.344 
L 135.026205 231.684 
L 134.820176 231.024 
L 134.416143 230.364 
L 133.854244 229.704 
L 133.629485 229.044 
L 132.377253 228.384 
L 131.767191 227.724 
L 131.628054 227.064 
L 131.430052 226.404 
L 131.248103 225.744 
L 131.234725 225.084 
L 130.921667 224.424 
L 130.662123 223.764 
L 130.078818 223.104 
L 129.811247 222.444 
L 129.541001 221.784 
L 129.201185 221.124 
L 128.35031 220.464 
L 128.16301 219.804 
L 128.082739 219.144 
L 127.705464 218.484 
L 127.657301 217.824 
L 127.646598 217.164 
L 127.124835 216.504 
L 126.774317 215.844 
L 126.76629 215.184 
L 126.423799 214.524 
L 126.394366 213.864 
L 126.180309 213.204 
L 126.164255 212.544 
L 125.88063 211.884 
L 125.110026 211.224 
L 124.24042 210.564 
L 123.994255 209.904 
L 123.852442 209.244 
L 123.659791 208.584 
L 123.421653 207.924 
L 123.344057 207.264 
L 122.998891 206.604 
L 122.926647 205.944 
L 122.830321 205.284 
L 122.527966 204.624 
L 122.204205 203.964 
L 122.091825 203.304 
L 121.730604 202.644 
L 121.596819 201.984 
L 120.877053 201.324 
L 120.756646 200.664 
L 119.127139 200.004 
L 118.864919 199.344 
L 118.811405 198.684 
L 118.749864 198.024 
L 118.34048 197.364 
L 117.824068 196.704 
L 117.816041 196.044 
L 117.77323 195.384 
L 116.577188 194.724 
L 116.237373 194.064 
L 116.232021 193.404 
L 116.007262 192.744 
L 115.977829 192.084 
L 115.656744 191.424 
L 115.442687 190.764 
L 115.324956 190.104 
L 115.30355 189.444 
L 115.193846 188.784 
L 115.09752 188.124 
L 114.918248 187.464 
L 114.862058 186.804 
L 114.677434 186.144 
L 114.535621 185.484 
L 114.179752 184.824 
L 113.79445 184.164 
L 113.786423 183.504 
L 113.732908 182.844 
L 113.227199 182.184 
L 113.157631 181.524 
L 112.956953 180.864 
L 112.94625 180.204 
L 112.606435 179.544 
L 112.469974 178.884 
L 112.290701 178.224 
L 112.221133 177.564 
L 112.156916 176.904 
L 111.763586 176.244 
L 111.723451 175.584 
L 111.236471 174.924 
L 110.425731 174.264 
L 109.960158 173.604 
L 109.954807 172.944 
L 109.949455 172.284 
L 109.433043 171.624 
L 109.387556 170.964 
L 109.277852 170.304 
L 109.189554 169.644 
L 109.063795 168.984 
L 108.793549 168.324 
L 108.694547 167.664 
L 108.670466 167.004 
L 108.485842 166.344 
L 108.330651 165.684 
L 108.266434 165.024 
L 108.253055 164.364 
L 108.097864 163.704 
L 107.974781 163.044 
L 107.883807 162.384 
L 107.642993 161.724 
L 107.602858 161.064 
L 107.546668 160.404 
L 107.386125 159.744 
L 107.073067 159.084 
L 107.04631 158.424 
L 106.936606 157.764 
L 106.644954 157.104 
L 106.524547 156.444 
L 106.49779 155.784 
L 106.4416 155.124 
L 106.227543 154.464 
L 106.203462 153.804 
L 106.163326 153.144 
L 105.967999 152.484 
L 105.858295 151.824 
L 105.839565 151.164 
L 105.708455 150.504 
L 105.609454 149.844 
L 105.339208 149.184 
L 105.090367 148.524 
L 104.664929 147.864 
L 104.322438 147.204 
L 103.977271 146.544 
L 103.407345 145.884 
L 103.313695 145.224 
L 103.262857 144.564 
L 103.246803 143.904 
L 102.95515 143.244 
L 102.572524 142.584 
L 102.559145 141.924 
L 102.553794 141.264 
L 102.278196 140.604 
L 101.716297 139.944 
L 101.306913 139.284 
L 100.905557 138.624 
L 100.736987 137.964 
L 99.685433 137.304 
L 99.527566 136.644 
L 99.508836 135.984 
L 99.361672 135.324 
L 99.08875 134.004 
L 98.853287 133.344 
L 98.580365 132.684 
L 98.133522 132.024 
L 97.981006 131.364 
L 97.839194 130.704 
L 97.809761 130.044 
L 97.63584 129.384 
L 97.526136 128.724 
L 96.822424 128.064 
L 96.71272 127.404 
L 95.869871 126.744 
L 95.800303 126.084 
L 95.671869 126.084 
L 95.588922 125.424 
L 95.433731 125.424 
L 95.431055 124.764 
L 95.364162 124.104 
L 95.326702 123.444 
L 94.644396 122.784 
L 94.625666 122.124 
L 94.285851 121.464 
L 94.010253 120.804 
L 93.453706 120.144 
L 93.004186 119.484 
L 92.675074 118.824 
L 92.225555 118.164 
L 92.110499 117.504 
L 91.86701 116.844 
L 91.84828 116.184 
L 91.479032 115.524 
L 91.396085 114.864 
L 91.075 114.204 
L 90.898403 113.544 
L 90.807429 112.884 
L 90.331153 112.224 
L 90.32045 111.564 
L 90.221448 110.904 
L 90.200043 110.244 
L 90.068933 109.584 
L 89.252842 108.924 
L 89.1913 108.264 
L 89.140462 107.604 
L 88.784592 107.604 
L 88.640104 106.944 
L 88.538427 106.284 
L 88.270856 105.624 
L 88.163828 104.964 
L 87.896257 104.304 
L 87.679524 103.644 
L 87.55109 102.984 
L 86.510239 102.984 
L 86.475455 102.324 
L 86.395184 101.664 
L 86.178451 101.004 
L 85.886799 100.344 
L 85.573741 99.684 
L 85.541632 99.024 
L 85.017193 98.364 
L 84.452619 97.704 
L 84.388402 97.044 
L 84.348266 96.384 
L 84.340239 95.724 
L 84.334887 95.064 
L 84.088722 94.404 
L 83.941558 93.744 
L 83.8158 93.084 
L 83.574986 92.424 
L 83.165602 91.764 
L 83.02379 91.104 
L 82.964924 90.444 
L 82.927464 89.784 
L 82.833814 89.124 
L 82.788327 88.464 
L 82.662569 87.804 
L 82.617082 87.144 
L 82.507378 86.484 
L 82.493999 85.824 
L 82.469918 85.164 
L 82.448512 84.504 
L 82.344159 83.844 
L 82.218401 83.184 
L 82.057859 82.524 
L 82.00702 81.864 
L 81.956182 81.204 
L 81.792963 80.544 
L 81.699313 79.884 
L 81.581582 79.224 
L 81.04644 78.564 
L 80.770842 77.904 
L 80.762815 77.244 
L 80.754788 77.244 
L 80.64776 76.584 
L 79.59353 75.924 
L 79.237661 75.264 
L 78.643653 74.604 
L 78.242297 73.944 
L 78.038943 73.284 
L 77.300447 72.624 
L 77.188067 71.964 
L 77.008795 71.304 
L 76.682358 70.644 
L 76.20073 69.984 
L 76.192703 69.984 
L 75.53983 69.324 
L 75.534479 68.664 
L 75.422099 68.004 
L 75.213393 67.344 
L 75.194663 66.684 
L 75.135798 66.684 
L 75.042148 66.684 
L 74.983282 66.024 
L 74.820064 65.364 
L 74.592629 64.704 
L 74.557845 64.704 
L 74.533763 63.384 
L 74.359842 62.724 
L 74.284922 62.064 
L 74.191272 61.404 
L 74.140434 60.744 
L 73.832727 60.084 
z
" clip-path="url(#p85d1f6a65a)" style="fill: #7cfc00"/>
   </g>
   <g id="PolyCollection_3">
    <path d="M 73.832727 54.144 
L 73.832727 60.084 
L 74.140434 60.744 
L 74.191272 61.404 
L 74.284922 62.064 
L 74.359842 62.724 
L 74.533763 63.384 
L 74.557845 64.704 
L 74.592629 64.704 
L 74.820064 65.364 
L 74.983282 66.024 
L 75.042148 66.684 
L 75.135798 66.684 
L 75.194663 66.684 
L 75.213393 67.344 
L 75.422099 68.004 
L 75.534479 68.664 
L 75.53983 69.324 
L 76.192703 69.984 
L 76.20073 69.984 
L 76.682358 70.644 
L 77.008795 71.304 
L 77.188067 71.964 
L 77.300447 72.624 
L 78.038943 73.284 
L 78.242297 73.944 
L 78.643653 74.604 
L 79.237661 75.264 
L 79.59353 75.924 
L 80.64776 76.584 
L 80.754788 77.244 
L 80.762815 77.244 
L 80.770842 77.904 
L 81.04644 78.564 
L 81.581582 79.224 
L 81.699313 79.884 
L 81.792963 80.544 
L 81.956182 81.204 
L 82.00702 81.864 
L 82.057859 82.524 
L 82.218401 83.184 
L 82.344159 83.844 
L 82.448512 84.504 
L 82.469918 85.164 
L 82.493999 85.824 
L 82.507378 86.484 
L 82.617082 87.144 
L 82.662569 87.804 
L 82.788327 88.464 
L 82.833814 89.124 
L 82.927464 89.784 
L 82.964924 90.444 
L 83.02379 91.104 
L 83.165602 91.764 
L 83.574986 92.424 
L 83.8158 93.084 
L 83.941558 93.744 
L 84.088722 94.404 
L 84.334887 95.064 
L 84.340239 95.724 
L 84.348266 96.384 
L 84.388402 97.044 
L 84.452619 97.704 
L 85.017193 98.364 
L 85.541632 99.024 
L 85.573741 99.684 
L 85.886799 100.344 
L 86.178451 101.004 
L 86.395184 101.664 
L 86.475455 102.324 
L 86.510239 102.984 
L 87.55109 102.984 
L 87.679524 103.644 
L 87.896257 104.304 
L 88.163828 104.964 
L 88.270856 105.624 
L 88.538427 106.284 
L 88.640104 106.944 
L 88.784592 107.604 
L 89.140462 107.604 
L 89.1913 108.264 
L 89.252842 108.924 
L 90.068933 109.584 
L 90.200043 110.244 
L 90.221448 110.904 
L 90.32045 111.564 
L 90.331153 112.224 
L 90.807429 112.884 
L 90.898403 113.544 
L 91.075 114.204 
L 91.396085 114.864 
L 91.479032 115.524 
L 91.84828 116.184 
L 91.86701 116.844 
L 92.110499 117.504 
L 92.225555 118.164 
L 92.675074 118.824 
L 93.004186 119.484 
L 93.453706 120.144 
L 94.010253 120.804 
L 94.285851 121.464 
L 94.625666 122.124 
L 94.644396 122.784 
L 95.326702 123.444 
L 95.364162 124.104 
L 95.431055 124.764 
L 95.433731 125.424 
L 95.588922 125.424 
L 95.671869 126.084 
L 95.800303 126.084 
L 95.869871 126.744 
L 96.71272 127.404 
L 96.822424 128.064 
L 97.526136 128.724 
L 97.63584 129.384 
L 97.809761 130.044 
L 97.839194 130.704 
L 97.981006 131.364 
L 98.133522 132.024 
L 98.580365 132.684 
L 98.853287 133.344 
L 99.08875 134.004 
L 99.361672 135.324 
L 99.508836 135.984 
L 99.527566 136.644 
L 99.685433 137.304 
L 100.736987 137.964 
L 100.905557 138.624 
L 101.306913 139.284 
L 101.716297 139.944 
L 102.278196 140.604 
L 102.553794 141.264 
L 102.559145 141.924 
L 102.572524 142.584 
L 102.95515 143.244 
L 103.246803 143.904 
L 103.262857 144.564 
L 103.313695 145.224 
L 103.407345 145.884 
L 103.977271 146.544 
L 104.322438 147.204 
L 104.664929 147.864 
L 105.090367 148.524 
L 105.339208 149.184 
L 105.609454 149.844 
L 105.708455 150.504 
L 105.839565 151.164 
L 105.858295 151.824 
L 105.967999 152.484 
L 106.163326 153.144 
L 106.203462 153.804 
L 106.227543 154.464 
L 106.4416 155.124 
L 106.49779 155.784 
L 106.524547 156.444 
L 106.644954 157.104 
L 106.936606 157.764 
L 107.04631 158.424 
L 107.073067 159.084 
L 107.386125 159.744 
L 107.546668 160.404 
L 107.602858 161.064 
L 107.642993 161.724 
L 107.883807 162.384 
L 107.974781 163.044 
L 108.097864 163.704 
L 108.253055 164.364 
L 108.266434 165.024 
L 108.330651 165.684 
L 108.485842 166.344 
L 108.670466 167.004 
L 108.694547 167.664 
L 108.793549 168.324 
L 109.063795 168.984 
L 109.189554 169.644 
L 109.277852 170.304 
L 109.387556 170.964 
L 109.433043 171.624 
L 109.949455 172.284 
L 109.954807 172.944 
L 109.960158 173.604 
L 110.425731 174.264 
L 111.236471 174.924 
L 111.723451 175.584 
L 111.763586 176.244 
L 112.156916 176.904 
L 112.221133 177.564 
L 112.290701 178.224 
L 112.469974 178.884 
L 112.606435 179.544 
L 112.94625 180.204 
L 112.956953 180.864 
L 113.157631 181.524 
L 113.227199 182.184 
L 113.732908 182.844 
L 113.786423 183.504 
L 113.79445 184.164 
L 114.179752 184.824 
L 114.535621 185.484 
L 114.677434 186.144 
L 114.862058 186.804 
L 114.918248 187.464 
L 115.09752 188.124 
L 115.193846 188.784 
L 115.30355 189.444 
L 115.324956 190.104 
L 115.442687 190.764 
L 115.656744 191.424 
L 115.977829 192.084 
L 116.007262 192.744 
L 116.232021 193.404 
L 116.237373 194.064 
L 116.577188 194.724 
L 117.77323 195.384 
L 117.816041 196.044 
L 117.824068 196.704 
L 118.34048 197.364 
L 118.749864 198.024 
L 118.811405 198.684 
L 118.864919 199.344 
L 119.127139 200.004 
L 120.756646 200.664 
L 120.877053 201.324 
L 121.596819 201.984 
L 121.730604 202.644 
L 122.091825 203.304 
L 122.204205 203.964 
L 122.527966 204.624 
L 122.830321 205.284 
L 122.926647 205.944 
L 122.998891 206.604 
L 123.344057 207.264 
L 123.421653 207.924 
L 123.659791 208.584 
L 123.852442 209.244 
L 123.994255 209.904 
L 124.24042 210.564 
L 125.110026 211.224 
L 125.88063 211.884 
L 126.164255 212.544 
L 126.180309 213.204 
L 126.394366 213.864 
L 126.423799 214.524 
L 126.76629 215.184 
L 126.774317 215.844 
L 127.124835 216.504 
L 127.646598 217.164 
L 127.657301 217.824 
L 127.705464 218.484 
L 128.082739 219.144 
L 128.16301 219.804 
L 128.35031 220.464 
L 129.201185 221.124 
L 129.541001 221.784 
L 129.811247 222.444 
L 130.078818 223.104 
L 130.662123 223.764 
L 130.921667 224.424 
L 131.234725 225.084 
L 131.248103 225.744 
L 131.430052 226.404 
L 131.628054 227.064 
L 131.767191 227.724 
L 132.377253 228.384 
L 133.629485 229.044 
L 133.854244 229.704 
L 134.416143 230.364 
L 134.820176 231.024 
L 135.026205 231.684 
L 135.267019 232.344 
L 135.363345 233.004 
L 136.267734 233.664 
L 136.53263 234.324 
L 136.917932 234.984 
L 136.998203 235.644 
L 137.407587 236.304 
L 137.434344 236.964 
L 138.212975 237.624 
L 138.330707 238.284 
L 138.424356 238.944 
L 139.216366 239.604 
L 139.304665 240.264 
L 140.214406 240.924 
L 140.629141 241.584 
L 140.69871 242.244 
L 141.897427 242.904 
L 143.09347 243.564 
L 143.422582 244.224 
L 143.864074 244.884 
L 143.965751 245.544 
L 144.757761 246.204 
L 144.982521 246.864 
L 145.464148 247.524 
L 147.342496 248.184 
L 147.436146 248.844 
L 147.484309 249.504 
L 148.171966 250.164 
L 148.819488 250.824 
L 148.835542 251.484 
L 148.915814 252.144 
L 149.164655 252.804 
L 149.228872 253.464 
L 149.346603 254.124 
L 150.141289 254.784 
L 150.435617 255.444 
L 150.95738 256.104 
L 152.134692 256.764 
L 152.362128 257.424 
L 152.536049 258.084 
L 153.130056 258.744 
L 153.65182 259.404 
L 153.881931 260.064 
L 154.042473 260.724 
L 154.855889 261.384 
L 155.281327 262.044 
L 155.570303 262.704 
L 155.714792 263.364 
L 159.867493 264.024 
L 160.078874 264.684 
L 160.185902 265.344 
L 161.071562 266.004 
L 161.111698 266.664 
L 161.644164 267.324 
L 161.64684 267.984 
L 161.917086 268.644 
L 162.278307 269.304 
L 162.283659 269.964 
L 163.086372 270.624 
L 163.270995 271.284 
L 163.514485 271.944 
L 163.594756 272.604 
L 163.677703 273.264 
L 164.084411 273.924 
L 164.421551 274.584 
L 165.34467 275.244 
L 167.942784 275.904 
L 168.087273 276.564 
L 168.520738 277.224 
L 171.295449 277.884 
L 172.785819 278.544 
L 174.987928 279.204 
L 175.161849 279.864 
L 176.933169 280.524 
L 177.024143 281.184 
L 177.647583 281.844 
L 177.78672 282.504 
L 178.621541 283.164 
L 178.891788 283.824 
L 178.966708 284.484 
L 179.001492 285.144 
L 181.476523 285.804 
L 181.59693 286.464 
L 183.873959 287.124 
L 184.042529 287.784 
L 187.363084 288.444 
L 187.518276 289.104 
L 187.55306 289.764 
L 187.72163 290.424 
L 189.123701 291.084 
L 189.410002 291.744 
L 192.32385 292.404 
L 193.798166 293.064 
L 199.45194 293.724 
L 200.634604 294.384 
L 203.077527 295.044 
L 205.44553 295.704 
L 209.57415 296.364 
L 221.866359 297.024 
L 223.570786 297.684 
L 226.869936 298.344 
L 227.228481 299.004 
L 234.040838 299.664 
L 236.861036 300.324 
L 241.650556 300.984 
L 245.7765 301.644 
L 247.170545 302.304 
L 268.980254 302.964 
L 282.527371 303.624 
L 291.881652 304.284 
L 295.654402 304.944 
L 306.210077 305.604 
L 356.283306 306.264 
L 398.487273 306.924 
L 398.487273 306.924 
L 398.487273 306.924 
L 356.283306 306.264 
L 306.210077 305.604 
L 295.654402 304.944 
L 291.881652 304.284 
L 282.527371 303.624 
L 268.980254 302.964 
L 247.170545 302.304 
L 245.7765 301.644 
L 241.650556 300.984 
L 236.861036 300.324 
L 234.040838 299.664 
L 227.228481 299.004 
L 226.869936 298.344 
L 223.570786 297.684 
L 221.866359 297.024 
L 209.57415 296.364 
L 205.44553 295.704 
L 203.077527 295.044 
L 200.634604 294.384 
L 199.45194 293.724 
L 193.798166 293.064 
L 192.32385 292.404 
L 189.410002 291.744 
L 189.123701 291.084 
L 187.72163 290.424 
L 187.55306 289.764 
L 187.518276 289.104 
L 187.363084 288.444 
L 184.042529 287.784 
L 183.873959 287.124 
L 181.59693 286.464 
L 181.476523 285.804 
L 179.001492 285.144 
L 178.966708 284.484 
L 178.891788 283.824 
L 178.621541 283.164 
L 177.78672 282.504 
L 177.647583 281.844 
L 177.024143 281.184 
L 176.933169 280.524 
L 175.161849 279.864 
L 174.987928 279.204 
L 172.785819 278.544 
L 171.295449 277.884 
L 168.520738 277.224 
L 168.087273 276.564 
L 167.942784 275.904 
L 165.34467 275.244 
L 164.421551 274.584 
L 164.084411 273.924 
L 163.677703 273.264 
L 163.594756 272.604 
L 163.514485 271.944 
L 163.270995 271.284 
L 163.086372 270.624 
L 162.283659 269.964 
L 162.278307 269.304 
L 161.917086 268.644 
L 161.64684 267.984 
L 161.644164 267.324 
L 161.111698 266.664 
L 161.071562 266.004 
L 160.185902 265.344 
L 160.078874 264.684 
L 159.867493 264.024 
L 155.714792 263.364 
L 155.570303 262.704 
L 155.281327 262.044 
L 154.855889 261.384 
L 154.042473 260.724 
L 153.881931 260.064 
L 153.65182 259.404 
L 153.130056 258.744 
L 152.536049 258.084 
L 152.362128 257.424 
L 152.134692 256.764 
L 150.95738 256.104 
L 150.435617 255.444 
L 150.141289 254.784 
L 149.346603 254.124 
L 149.228872 253.464 
L 149.164655 252.804 
L 148.915814 252.144 
L 148.835542 251.484 
L 148.819488 250.824 
L 148.171966 250.164 
L 147.484309 249.504 
L 147.436146 248.844 
L 147.342496 248.184 
L 145.464148 247.524 
L 144.982521 246.864 
L 144.757761 246.204 
L 143.965751 245.544 
L 143.864074 244.884 
L 143.422582 244.224 
L 143.09347 243.564 
L 141.897427 242.904 
L 140.69871 242.244 
L 140.629141 241.584 
L 140.214406 240.924 
L 139.304665 240.264 
L 139.216366 239.604 
L 138.424356 238.944 
L 138.330707 238.284 
L 138.212975 237.624 
L 137.434344 236.964 
L 137.407587 236.304 
L 136.998203 235.644 
L 136.917932 234.984 
L 136.53263 234.324 
L 136.267734 233.664 
L 135.363345 233.004 
L 135.267019 232.344 
L 135.026205 231.684 
L 134.820176 231.024 
L 134.416143 230.364 
L 133.854244 229.704 
L 133.629485 229.044 
L 132.377253 228.384 
L 131.767191 227.724 
L 131.628054 227.064 
L 131.430052 226.404 
L 131.248103 225.744 
L 131.234725 225.084 
L 130.921667 224.424 
L 130.662123 223.764 
L 130.078818 223.104 
L 129.811247 222.444 
L 129.541001 221.784 
L 129.201185 221.124 
L 128.35031 220.464 
L 128.16301 219.804 
L 128.082739 219.144 
L 127.705464 218.484 
L 127.657301 217.824 
L 127.646598 217.164 
L 127.124835 216.504 
L 126.774317 215.844 
L 126.76629 215.184 
L 126.423799 214.524 
L 126.394366 213.864 
L 126.180309 213.204 
L 126.164255 212.544 
L 125.88063 211.884 
L 125.110026 211.224 
L 124.24042 210.564 
L 123.994255 209.904 
L 123.852442 209.244 
L 123.659791 208.584 
L 123.421653 207.924 
L 123.344057 207.264 
L 122.998891 206.604 
L 122.926647 205.944 
L 122.830321 205.284 
L 122.527966 204.624 
L 122.204205 203.964 
L 122.091825 203.304 
L 121.730604 202.644 
L 121.596819 201.984 
L 120.877053 201.324 
L 120.756646 200.664 
L 119.127139 200.004 
L 118.864919 199.344 
L 118.811405 198.684 
L 118.749864 198.024 
L 118.34048 197.364 
L 117.824068 196.704 
L 117.816041 196.044 
L 117.77323 195.384 
L 116.577188 194.724 
L 116.237373 194.064 
L 116.232021 193.404 
L 116.007262 192.744 
L 115.977829 192.084 
L 115.656744 191.424 
L 115.442687 190.764 
L 115.324956 190.104 
L 115.30355 189.444 
L 115.193846 188.784 
L 115.09752 188.124 
L 114.918248 187.464 
L 114.862058 186.804 
L 114.677434 186.144 
L 114.535621 185.484 
L 114.179752 184.824 
L 113.79445 184.164 
L 113.786423 183.504 
L 113.732908 182.844 
L 113.227199 182.184 
L 113.157631 181.524 
L 112.956953 180.864 
L 112.94625 180.204 
L 112.606435 179.544 
L 112.469974 178.884 
L 112.290701 178.224 
L 112.221133 177.564 
L 112.156916 176.904 
L 111.763586 176.244 
L 111.723451 175.584 
L 111.236471 174.924 
L 110.425731 174.264 
L 109.960158 173.604 
L 109.954807 172.944 
L 109.949455 172.284 
L 109.433043 171.624 
L 109.387556 170.964 
L 109.277852 170.304 
L 109.189554 169.644 
L 109.063795 168.984 
L 108.793549 168.324 
L 108.694547 167.664 
L 108.670466 167.004 
L 108.485842 166.344 
L 108.330651 165.684 
L 108.266434 165.024 
L 108.253055 164.364 
L 108.097864 163.704 
L 107.974781 163.044 
L 107.883807 162.384 
L 107.642993 161.724 
L 107.602858 161.064 
L 107.546668 160.404 
L 107.386125 159.744 
L 107.073067 159.084 
L 107.04631 158.424 
L 106.936606 157.764 
L 106.644954 157.104 
L 106.524547 156.444 
L 106.49779 155.784 
L 106.4416 155.124 
L 106.227543 154.464 
L 106.203462 153.804 
L 106.163326 153.144 
L 105.967999 152.484 
L 105.858295 151.824 
L 105.839565 151.164 
L 105.708455 150.504 
L 105.609454 149.844 
L 105.339208 149.184 
L 105.090367 148.524 
L 104.664929 147.864 
L 104.322438 147.204 
L 103.977271 146.544 
L 103.407345 145.884 
L 103.313695 145.224 
L 103.262857 144.564 
L 103.246803 143.904 
L 102.95515 143.244 
L 102.572524 142.584 
L 102.559145 141.924 
L 102.553794 141.264 
L 102.278196 140.604 
L 101.716297 139.944 
L 101.306913 139.284 
L 100.905557 138.624 
L 100.736987 137.964 
L 99.685433 137.304 
L 99.527566 136.644 
L 99.508836 135.984 
L 99.361672 135.324 
L 99.08875 134.004 
L 98.853287 133.344 
L 98.580365 132.684 
L 98.133522 132.024 
L 97.981006 131.364 
L 97.839194 130.704 
L 97.809761 130.044 
L 97.63584 129.384 
L 97.526136 128.724 
L 96.822424 128.064 
L 96.71272 127.404 
L 95.869871 126.744 
L 95.800303 126.084 
L 95.671869 125.424 
L 95.588922 124.764 
L 95.433731 124.104 
L 95.431055 123.444 
L 95.364162 122.784 
L 95.326702 122.124 
L 94.644396 121.464 
L 94.625666 120.804 
L 94.285851 120.144 
L 94.010253 119.484 
L 93.453706 118.824 
L 93.004186 118.164 
L 92.675074 117.504 
L 92.225555 116.844 
L 92.110499 116.184 
L 91.86701 115.524 
L 91.84828 114.864 
L 91.479032 114.204 
L 91.396085 113.544 
L 91.075 112.884 
L 90.898403 112.224 
L 90.807429 111.564 
L 90.331153 110.904 
L 90.32045 110.244 
L 90.221448 109.584 
L 90.200043 108.924 
L 90.068933 108.264 
L 89.252842 107.604 
L 89.1913 106.944 
L 89.140462 106.284 
L 88.784592 105.624 
L 88.640104 104.964 
L 88.538427 104.304 
L 88.270856 103.644 
L 88.163828 102.984 
L 87.896257 102.324 
L 87.679524 101.664 
L 87.55109 101.004 
L 86.510239 100.344 
L 86.475455 99.684 
L 86.395184 99.024 
L 86.178451 98.364 
L 85.886799 97.704 
L 85.573741 97.044 
L 85.541632 96.384 
L 85.017193 95.724 
L 84.452619 95.064 
L 84.388402 94.404 
L 84.348266 93.744 
L 84.340239 93.084 
L 84.334887 92.424 
L 84.088722 91.764 
L 83.941558 91.104 
L 83.8158 90.444 
L 83.574986 89.784 
L 83.165602 89.124 
L 83.02379 88.464 
L 82.964924 87.804 
L 82.927464 87.144 
L 82.833814 86.484 
L 82.788327 85.824 
L 82.662569 85.164 
L 82.617082 84.504 
L 82.507378 83.844 
L 82.493999 83.184 
L 82.469918 82.524 
L 82.448512 81.864 
L 82.344159 81.204 
L 82.218401 80.544 
L 82.057859 79.884 
L 82.00702 79.224 
L 81.956182 78.564 
L 81.792963 77.904 
L 81.699313 77.244 
L 81.581582 76.584 
L 81.04644 75.924 
L 80.770842 75.264 
L 80.762815 74.604 
L 80.754788 73.944 
L 80.64776 73.284 
L 79.59353 72.624 
L 79.237661 71.964 
L 78.643653 71.304 
L 78.242297 70.644 
L 78.038943 69.984 
L 77.300447 69.324 
L 77.188067 68.664 
L 77.008795 68.004 
L 76.682358 67.344 
L 76.20073 66.684 
L 76.192703 66.024 
L 75.53983 65.364 
L 75.534479 64.704 
L 75.422099 64.044 
L 75.213393 63.384 
L 75.194663 62.724 
L 75.135798 62.064 
L 75.042148 61.404 
L 74.983282 60.744 
L 74.820064 60.084 
L 74.592629 59.424 
L 74.557845 58.764 
L 74.533763 57.444 
L 74.359842 56.784 
L 74.284922 56.124 
L 74.191272 55.464 
L 74.140434 54.804 
L 73.832727 54.144 
z
" clip-path="url(#p85d1f6a65a)" style="fill: #ff0000"/>
   </g>
   <g id="matplotlib.axis_1">
    <g id="xtick_1">
     <g id="line2d_1">
      <defs>
       <path id="m23eae8127b" d="M 0 0 
L 0 3.5 
" style="stroke: #000000; stroke-width: 0.8"/>
      </defs>
      <g>
       <use xlink:href="#m23eae8127b" x="106.214165" y="307.584" style="stroke: #000000; stroke-width: 0.8"/>
      </g>
     </g>
     <g id="text_1">
      <!-- 200 -->
      <g transform="translate(96.670415 322.182437)scale(0.1 -0.1)">
       <defs>
        <path id="DejaVuSans-32" d="M 1228 531 
L 3431 531 
L 3431 0 
L 469 0 
L 469 531 
Q 828 903 1448 1529 
Q 2069 2156 2228 2338 
Q 2531 2678 2651 2914 
Q 2772 3150 2772 3378 
Q 2772 3750 2511 3984 
Q 2250 4219 1831 4219 
Q 1534 4219 1204 4116 
Q 875 4013 500 3803 
L 500 4441 
Q 881 4594 1212 4672 
Q 1544 4750 1819 4750 
Q 2544 4750 2975 4387 
Q 3406 4025 3406 3419 
Q 3406 3131 3298 2873 
Q 3191 2616 2906 2266 
Q 2828 2175 2409 1742 
Q 1991 1309 1228 531 
z
" transform="scale(0.015625)"/>
        <path id="DejaVuSans-30" d="M 2034 4250 
Q 1547 4250 1301 3770 
Q 1056 3291 1056 2328 
Q 1056 1369 1301 889 
Q 1547 409 2034 409 
Q 2525 409 2770 889 
Q 3016 1369 3016 2328 
Q 3016 3291 2770 3770 
Q 2525 4250 2034 4250 
z
M 2034 4750 
Q 2819 4750 3233 4129 
Q 3647 3509 3647 2328 
Q 3647 1150 3233 529 
Q 2819 -91 2034 -91 
Q 1250 -91 836 529 
Q 422 1150 422 2328 
Q 422 3509 836 4129 
Q 1250 4750 2034 4750 
z
" transform="scale(0.015625)"/>
       </defs>
       <use xlink:href="#DejaVuSans-32"/>
       <use xlink:href="#DejaVuSans-30" x="63.623047"/>
       <use xlink:href="#DejaVuSans-30" x="127.246094"/>
      </g>
     </g>
    </g>
    <g id="xtick_2">
     <g id="line2d_2">
      <g>
       <use xlink:href="#m23eae8127b" x="159.728356" y="307.584" style="stroke: #000000; stroke-width: 0.8"/>
      </g>
     </g>
     <g id="text_2">
      <!-- 400 -->
      <g transform="translate(150.184606 322.182437)scale(0.1 -0.1)">
       <defs>
        <path id="DejaVuSans-34" d="M 2419 4116 
L 825 1625 
L 2419 1625 
L 2419 4116 
z
M 2253 4666 
L 3047 4666 
L 3047 1625 
L 3713 1625 
L 3713 1100 
L 3047 1100 
L 3047 0 
L 2419 0 
L 2419 1100 
L 313 1100 
L 313 1709 
L 2253 4666 
z
" transform="scale(0.015625)"/>
       </defs>
       <use xlink:href="#DejaVuSans-34"/>
       <use xlink:href="#DejaVuSans-30" x="63.623047"/>
       <use xlink:href="#DejaVuSans-30" x="127.246094"/>
      </g>
     </g>
    </g>
    <g id="xtick_3">
     <g id="line2d_3">
      <g>
       <use xlink:href="#m23eae8127b" x="213.242547" y="307.584" style="stroke: #000000; stroke-width: 0.8"/>
      </g>
     </g>
     <g id="text_3">
      <!-- 600 -->
      <g transform="translate(203.698797 322.182437)scale(0.1 -0.1)">
       <defs>
        <path id="DejaVuSans-36" d="M 2113 2584 
Q 1688 2584 1439 2293 
Q 1191 2003 1191 1497 
Q 1191 994 1439 701 
Q 1688 409 2113 409 
Q 2538 409 2786 701 
Q 3034 994 3034 1497 
Q 3034 2003 2786 2293 
Q 2538 2584 2113 2584 
z
M 3366 4563 
L 3366 3988 
Q 3128 4100 2886 4159 
Q 2644 4219 2406 4219 
Q 1781 4219 1451 3797 
Q 1122 3375 1075 2522 
Q 1259 2794 1537 2939 
Q 1816 3084 2150 3084 
Q 2853 3084 3261 2657 
Q 3669 2231 3669 1497 
Q 3669 778 3244 343 
Q 2819 -91 2113 -91 
Q 1303 -91 875 529 
Q 447 1150 447 2328 
Q 447 3434 972 4092 
Q 1497 4750 2381 4750 
Q 2619 4750 2861 4703 
Q 3103 4656 3366 4563 
z
" transform="scale(0.015625)"/>
       </defs>
       <use xlink:href="#DejaVuSans-36"/>
       <use xlink:href="#DejaVuSans-30" x="63.623047"/>
       <use xlink:href="#DejaVuSans-30" x="127.246094"/>
      </g>
     </g>
    </g>
    <g id="xtick_4">
     <g id="line2d_4">
      <g>
       <use xlink:href="#m23eae8127b" x="266.756739" y="307.584" style="stroke: #000000; stroke-width: 0.8"/>
      </g>
     </g>
     <g id="text_4">
      <!-- 800 -->
      <g transform="translate(257.212989 322.182437)scale(0.1 -0.1)">
       <defs>
        <path id="DejaVuSans-38" d="M 2034 2216 
Q 1584 2216 1326 1975 
Q 1069 1734 1069 1313 
Q 1069 891 1326 650 
Q 1584 409 2034 409 
Q 2484 409 2743 651 
Q 3003 894 3003 1313 
Q 3003 1734 2745 1975 
Q 2488 2216 2034 2216 
z
M 1403 2484 
Q 997 2584 770 2862 
Q 544 3141 544 3541 
Q 544 4100 942 4425 
Q 1341 4750 2034 4750 
Q 2731 4750 3128 4425 
Q 3525 4100 3525 3541 
Q 3525 3141 3298 2862 
Q 3072 2584 2669 2484 
Q 3125 2378 3379 2068 
Q 3634 1759 3634 1313 
Q 3634 634 3220 271 
Q 2806 -91 2034 -91 
Q 1263 -91 848 271 
Q 434 634 434 1313 
Q 434 1759 690 2068 
Q 947 2378 1403 2484 
z
M 1172 3481 
Q 1172 3119 1398 2916 
Q 1625 2713 2034 2713 
Q 2441 2713 2670 2916 
Q 2900 3119 2900 3481 
Q 2900 3844 2670 4047 
Q 2441 4250 2034 4250 
Q 1625 4250 1398 4047 
Q 1172 3844 1172 3481 
z
" transform="scale(0.015625)"/>
       </defs>
       <use xlink:href="#DejaVuSans-38"/>
       <use xlink:href="#DejaVuSans-30" x="63.623047"/>
       <use xlink:href="#DejaVuSans-30" x="127.246094"/>
      </g>
     </g>
    </g>
    <g id="xtick_5">
     <g id="line2d_5">
      <g>
       <use xlink:href="#m23eae8127b" x="320.27093" y="307.584" style="stroke: #000000; stroke-width: 0.8"/>
      </g>
     </g>
     <g id="text_5">
      <!-- 1000 -->
      <g transform="translate(307.54593 322.182437)scale(0.1 -0.1)">
       <defs>
        <path id="DejaVuSans-31" d="M 794 531 
L 1825 531 
L 1825 4091 
L 703 3866 
L 703 4441 
L 1819 4666 
L 2450 4666 
L 2450 531 
L 3481 531 
L 3481 0 
L 794 0 
L 794 531 
z
" transform="scale(0.015625)"/>
       </defs>
       <use xlink:href="#DejaVuSans-31"/>
       <use xlink:href="#DejaVuSans-30" x="63.623047"/>
       <use xlink:href="#DejaVuSans-30" x="127.246094"/>
       <use xlink:href="#DejaVuSans-30" x="190.869141"/>
      </g>
     </g>
    </g>
    <g id="xtick_6">
     <g id="line2d_6">
      <g>
       <use xlink:href="#m23eae8127b" x="373.785122" y="307.584" style="stroke: #000000; stroke-width: 0.8"/>
      </g>
     </g>
     <g id="text_6">
      <!-- 1200 -->
      <g transform="translate(361.060122 322.182437)scale(0.1 -0.1)">
       <use xlink:href="#DejaVuSans-31"/>
       <use xlink:href="#DejaVuSans-32" x="63.623047"/>
       <use xlink:href="#DejaVuSans-30" x="127.246094"/>
       <use xlink:href="#DejaVuSans-30" x="190.869141"/>
      </g>
     </g>
    </g>
    <g id="text_7">
     <!-- Score -->
     <g transform="translate(222.157656 335.860562)scale(0.1 -0.1)">
      <defs>
       <path id="DejaVuSans-53" d="M 3425 4513 
L 3425 3897 
Q 3066 4069 2747 4153 
Q 2428 4238 2131 4238 
Q 1616 4238 1336 4038 
Q 1056 3838 1056 3469 
Q 1056 3159 1242 3001 
Q 1428 2844 1947 2747 
L 2328 2669 
Q 3034 2534 3370 2195 
Q 3706 1856 3706 1288 
Q 3706 609 3251 259 
Q 2797 -91 1919 -91 
Q 1588 -91 1214 -16 
Q 841 59 441 206 
L 441 856 
Q 825 641 1194 531 
Q 1563 422 1919 422 
Q 2459 422 2753 634 
Q 3047 847 3047 1241 
Q 3047 1584 2836 1778 
Q 2625 1972 2144 2069 
L 1759 2144 
Q 1053 2284 737 2584 
Q 422 2884 422 3419 
Q 422 4038 858 4394 
Q 1294 4750 2059 4750 
Q 2388 4750 2728 4690 
Q 3069 4631 3425 4513 
z
" transform="scale(0.015625)"/>
       <path id="DejaVuSans-63" d="M 3122 3366 
L 3122 2828 
Q 2878 2963 2633 3030 
Q 2388 3097 2138 3097 
Q 1578 3097 1268 2742 
Q 959 2388 959 1747 
Q 959 1106 1268 751 
Q 1578 397 2138 397 
Q 2388 397 2633 464 
Q 2878 531 3122 666 
L 3122 134 
Q 2881 22 2623 -34 
Q 2366 -91 2075 -91 
Q 1284 -91 818 406 
Q 353 903 353 1747 
Q 353 2603 823 3093 
Q 1294 3584 2113 3584 
Q 2378 3584 2631 3529 
Q 2884 3475 3122 3366 
z
" transform="scale(0.015625)"/>
       <path id="DejaVuSans-6f" d="M 1959 3097 
Q 1497 3097 1228 2736 
Q 959 2375 959 1747 
Q 959 1119 1226 758 
Q 1494 397 1959 397 
Q 2419 397 2687 759 
Q 2956 1122 2956 1747 
Q 2956 2369 2687 2733 
Q 2419 3097 1959 3097 
z
M 1959 3584 
Q 2709 3584 3137 3096 
Q 3566 2609 3566 1747 
Q 3566 888 3137 398 
Q 2709 -91 1959 -91 
Q 1206 -91 779 398 
Q 353 888 353 1747 
Q 353 2609 779 3096 
Q 1206 3584 1959 3584 
z
" transform="scale(0.015625)"/>
       <path id="DejaVuSans-72" d="M 2631 2963 
Q 2534 3019 2420 3045 
Q 2306 3072 2169 3072 
Q 1681 3072 1420 2755 
Q 1159 2438 1159 1844 
L 1159 0 
L 581 0 
L 581 3500 
L 1159 3500 
L 1159 2956 
Q 1341 3275 1631 3429 
Q 1922 3584 2338 3584 
Q 2397 3584 2469 3576 
Q 2541 3569 2628 3553 
L 2631 2963 
z
" transform="scale(0.015625)"/>
       <path id="DejaVuSans-65" d="M 3597 1894 
L 3597 1613 
L 953 1613 
Q 991 1019 1311 708 
Q 1631 397 2203 397 
Q 2534 397 2845 478 
Q 3156 559 3463 722 
L 3463 178 
Q 3153 47 2828 -22 
Q 2503 -91 2169 -91 
Q 1331 -91 842 396 
Q 353 884 353 1716 
Q 353 2575 817 3079 
Q 1281 3584 2069 3584 
Q 2775 3584 3186 3129 
Q 3597 2675 3597 1894 
z
M 3022 2063 
Q 3016 2534 2758 2815 
Q 2500 3097 2075 3097 
Q 1594 3097 1305 2825 
Q 1016 2553 972 2059 
L 3022 2063 
z
" transform="scale(0.015625)"/>
      </defs>
      <use xlink:href="#DejaVuSans-53"/>
      <use xlink:href="#DejaVuSans-63" x="63.476562"/>
      <use xlink:href="#DejaVuSans-6f" x="118.457031"/>
      <use xlink:href="#DejaVuSans-72" x="179.638672"/>
      <use xlink:href="#DejaVuSans-65" x="218.501953"/>
     </g>
    </g>
   </g>
   <g id="matplotlib.axis_2">
    <g id="ytick_1">
     <g id="line2d_7">
      <defs>
       <path id="m0a4caad470" d="M 0 0 
L -3.5 0 
" style="stroke: #000000; stroke-width: 0.8"/>
      </defs>
      <g>
       <use xlink:href="#m0a4caad470" x="57.6" y="307.584" style="stroke: #000000; stroke-width: 0.8"/>
      </g>
     </g>
     <g id="text_8">
      <!-- 0 -->
      <g transform="translate(44.2375 311.383219)scale(0.1 -0.1)">
       <use xlink:href="#DejaVuSans-30"/>
      </g>
     </g>
    </g>
    <g id="ytick_2">
     <g id="line2d_8">
      <g>
       <use xlink:href="#m0a4caad470" x="57.6" y="274.584" style="stroke: #000000; stroke-width: 0.8"/>
      </g>
     </g>
     <g id="text_9">
      <!-- 50 -->
      <g transform="translate(37.875 278.383219)scale(0.1 -0.1)">
       <defs>
        <path id="DejaVuSans-35" d="M 691 4666 
L 3169 4666 
L 3169 4134 
L 1269 4134 
L 1269 2991 
Q 1406 3038 1543 3061 
Q 1681 3084 1819 3084 
Q 2600 3084 3056 2656 
Q 3513 2228 3513 1497 
Q 3513 744 3044 326 
Q 2575 -91 1722 -91 
Q 1428 -91 1123 -41 
Q 819 9 494 109 
L 494 744 
Q 775 591 1075 516 
Q 1375 441 1709 441 
Q 2250 441 2565 725 
Q 2881 1009 2881 1497 
Q 2881 1984 2565 2268 
Q 2250 2553 1709 2553 
Q 1456 2553 1204 2497 
Q 953 2441 691 2322 
L 691 4666 
z
" transform="scale(0.015625)"/>
       </defs>
       <use xlink:href="#DejaVuSans-35"/>
       <use xlink:href="#DejaVuSans-30" x="63.623047"/>
      </g>
     </g>
    </g>
    <g id="ytick_3">
     <g id="line2d_9">
      <g>
       <use xlink:href="#m0a4caad470" x="57.6" y="241.584" style="stroke: #000000; stroke-width: 0.8"/>
      </g>
     </g>
     <g id="text_10">
      <!-- 100 -->
      <g transform="translate(31.5125 245.383219)scale(0.1 -0.1)">
       <use xlink:href="#DejaVuSans-31"/>
       <use xlink:href="#DejaVuSans-30" x="63.623047"/>
       <use xlink:href="#DejaVuSans-30" x="127.246094"/>
      </g>
     </g>
    </g>
    <g id="ytick_4">
     <g id="line2d_10">
      <g>
       <use xlink:href="#m0a4caad470" x="57.6" y="208.584" style="stroke: #000000; stroke-width: 0.8"/>
      </g>
     </g>
     <g id="text_11">
      <!-- 150 -->
      <g transform="translate(31.5125 212.383219)scale(0.1 -0.1)">
       <use xlink:href="#DejaVuSans-31"/>
       <use xlink:href="#DejaVuSans-35" x="63.623047"/>
       <use xlink:href="#DejaVuSans-30" x="127.246094"/>
      </g>
     </g>
    </g>
    <g id="ytick_5">
     <g id="line2d_11">
      <g>
       <use xlink:href="#m0a4caad470" x="57.6" y="175.584" style="stroke: #000000; stroke-width: 0.8"/>
      </g>
     </g>
     <g id="text_12">
      <!-- 200 -->
      <g transform="translate(31.5125 179.383219)scale(0.1 -0.1)">
       <use xlink:href="#DejaVuSans-32"/>
       <use xlink:href="#DejaVuSans-30" x="63.623047"/>
       <use xlink:href="#DejaVuSans-30" x="127.246094"/>
      </g>
     </g>
    </g>
    <g id="ytick_6">
     <g id="line2d_12">
      <g>
       <use xlink:href="#m0a4caad470" x="57.6" y="142.584" style="stroke: #000000; stroke-width: 0.8"/>
      </g>
     </g>
     <g id="text_13">
      <!-- 250 -->
      <g transform="translate(31.5125 146.383219)scale(0.1 -0.1)">
       <use xlink:href="#DejaVuSans-32"/>
       <use xlink:href="#DejaVuSans-35" x="63.623047"/>
       <use xlink:href="#DejaVuSans-30" x="127.246094"/>
      </g>
     </g>
    </g>
    <g id="ytick_7">
     <g id="line2d_13">
      <g>
       <use xlink:href="#m0a4caad470" x="57.6" y="109.584" style="stroke: #000000; stroke-width: 0.8"/>
      </g>
     </g>
     <g id="text_14">
      <!-- 300 -->
      <g transform="translate(31.5125 113.383219)scale(0.1 -0.1)">
       <defs>
        <path id="DejaVuSans-33" d="M 2597 2516 
Q 3050 2419 3304 2112 
Q 3559 1806 3559 1356 
Q 3559 666 3084 287 
Q 2609 -91 1734 -91 
Q 1441 -91 1130 -33 
Q 819 25 488 141 
L 488 750 
Q 750 597 1062 519 
Q 1375 441 1716 441 
Q 2309 441 2620 675 
Q 2931 909 2931 1356 
Q 2931 1769 2642 2001 
Q 2353 2234 1838 2234 
L 1294 2234 
L 1294 2753 
L 1863 2753 
Q 2328 2753 2575 2939 
Q 2822 3125 2822 3475 
Q 2822 3834 2567 4026 
Q 2313 4219 1838 4219 
Q 1578 4219 1281 4162 
Q 984 4106 628 3988 
L 628 4550 
Q 988 4650 1302 4700 
Q 1616 4750 1894 4750 
Q 2613 4750 3031 4423 
Q 3450 4097 3450 3541 
Q 3450 3153 3228 2886 
Q 3006 2619 2597 2516 
z
" transform="scale(0.015625)"/>
       </defs>
       <use xlink:href="#DejaVuSans-33"/>
       <use xlink:href="#DejaVuSans-30" x="63.623047"/>
       <use xlink:href="#DejaVuSans-30" x="127.246094"/>
      </g>
     </g>
    </g>
    <g id="ytick_8">
     <g id="line2d_14">
      <g>
       <use xlink:href="#m0a4caad470" x="57.6" y="76.584" style="stroke: #000000; stroke-width: 0.8"/>
      </g>
     </g>
     <g id="text_15">
      <!-- 350 -->
      <g transform="translate(31.5125 80.383219)scale(0.1 -0.1)">
       <use xlink:href="#DejaVuSans-33"/>
       <use xlink:href="#DejaVuSans-35" x="63.623047"/>
       <use xlink:href="#DejaVuSans-30" x="127.246094"/>
      </g>
     </g>
    </g>
    <g id="ytick_9">
     <g id="line2d_15">
      <g>
       <use xlink:href="#m0a4caad470" x="57.6" y="43.584" style="stroke: #000000; stroke-width: 0.8"/>
      </g>
     </g>
     <g id="text_16">
      <!-- 400 -->
      <g transform="translate(31.5125 47.383219)scale(0.1 -0.1)">
       <use xlink:href="#DejaVuSans-34"/>
       <use xlink:href="#DejaVuSans-30" x="63.623047"/>
       <use xlink:href="#DejaVuSans-30" x="127.246094"/>
      </g>
     </g>
    </g>
    <g id="text_17">
     <!-- Number of crosslinks -->
     <g transform="translate(25.432812 227.019406)rotate(-90)scale(0.1 -0.1)">
      <defs>
       <path id="DejaVuSans-4e" d="M 628 4666 
L 1478 4666 
L 3547 763 
L 3547 4666 
L 4159 4666 
L 4159 0 
L 3309 0 
L 1241 3903 
L 1241 0 
L 628 0 
L 628 4666 
z
" transform="scale(0.015625)"/>
       <path id="DejaVuSans-75" d="M 544 1381 
L 544 3500 
L 1119 3500 
L 1119 1403 
Q 1119 906 1312 657 
Q 1506 409 1894 409 
Q 2359 409 2629 706 
Q 2900 1003 2900 1516 
L 2900 3500 
L 3475 3500 
L 3475 0 
L 2900 0 
L 2900 538 
Q 2691 219 2414 64 
Q 2138 -91 1772 -91 
Q 1169 -91 856 284 
Q 544 659 544 1381 
z
M 1991 3584 
L 1991 3584 
z
" transform="scale(0.015625)"/>
       <path id="DejaVuSans-6d" d="M 3328 2828 
Q 3544 3216 3844 3400 
Q 4144 3584 4550 3584 
Q 5097 3584 5394 3201 
Q 5691 2819 5691 2113 
L 5691 0 
L 5113 0 
L 5113 2094 
Q 5113 2597 4934 2840 
Q 4756 3084 4391 3084 
Q 3944 3084 3684 2787 
Q 3425 2491 3425 1978 
L 3425 0 
L 2847 0 
L 2847 2094 
Q 2847 2600 2669 2842 
Q 2491 3084 2119 3084 
Q 1678 3084 1418 2786 
Q 1159 2488 1159 1978 
L 1159 0 
L 581 0 
L 581 3500 
L 1159 3500 
L 1159 2956 
Q 1356 3278 1631 3431 
Q 1906 3584 2284 3584 
Q 2666 3584 2933 3390 
Q 3200 3197 3328 2828 
z
" transform="scale(0.015625)"/>
       <path id="DejaVuSans-62" d="M 3116 1747 
Q 3116 2381 2855 2742 
Q 2594 3103 2138 3103 
Q 1681 3103 1420 2742 
Q 1159 2381 1159 1747 
Q 1159 1113 1420 752 
Q 1681 391 2138 391 
Q 2594 391 2855 752 
Q 3116 1113 3116 1747 
z
M 1159 2969 
Q 1341 3281 1617 3432 
Q 1894 3584 2278 3584 
Q 2916 3584 3314 3078 
Q 3713 2572 3713 1747 
Q 3713 922 3314 415 
Q 2916 -91 2278 -91 
Q 1894 -91 1617 61 
Q 1341 213 1159 525 
L 1159 0 
L 581 0 
L 581 4863 
L 1159 4863 
L 1159 2969 
z
" transform="scale(0.015625)"/>
       <path id="DejaVuSans-20" transform="scale(0.015625)"/>
       <path id="DejaVuSans-66" d="M 2375 4863 
L 2375 4384 
L 1825 4384 
Q 1516 4384 1395 4259 
Q 1275 4134 1275 3809 
L 1275 3500 
L 2222 3500 
L 2222 3053 
L 1275 3053 
L 1275 0 
L 697 0 
L 697 3053 
L 147 3053 
L 147 3500 
L 697 3500 
L 697 3744 
Q 697 4328 969 4595 
Q 1241 4863 1831 4863 
L 2375 4863 
z
" transform="scale(0.015625)"/>
       <path id="DejaVuSans-73" d="M 2834 3397 
L 2834 2853 
Q 2591 2978 2328 3040 
Q 2066 3103 1784 3103 
Q 1356 3103 1142 2972 
Q 928 2841 928 2578 
Q 928 2378 1081 2264 
Q 1234 2150 1697 2047 
L 1894 2003 
Q 2506 1872 2764 1633 
Q 3022 1394 3022 966 
Q 3022 478 2636 193 
Q 2250 -91 1575 -91 
Q 1294 -91 989 -36 
Q 684 19 347 128 
L 347 722 
Q 666 556 975 473 
Q 1284 391 1588 391 
Q 1994 391 2212 530 
Q 2431 669 2431 922 
Q 2431 1156 2273 1281 
Q 2116 1406 1581 1522 
L 1381 1569 
Q 847 1681 609 1914 
Q 372 2147 372 2553 
Q 372 3047 722 3315 
Q 1072 3584 1716 3584 
Q 2034 3584 2315 3537 
Q 2597 3491 2834 3397 
z
" transform="scale(0.015625)"/>
       <path id="DejaVuSans-6c" d="M 603 4863 
L 1178 4863 
L 1178 0 
L 603 0 
L 603 4863 
z
" transform="scale(0.015625)"/>
       <path id="DejaVuSans-69" d="M 603 3500 
L 1178 3500 
L 1178 0 
L 603 0 
L 603 3500 
z
M 603 4863 
L 1178 4863 
L 1178 4134 
L 603 4134 
L 603 4863 
z
" transform="scale(0.015625)"/>
       <path id="DejaVuSans-6e" d="M 3513 2113 
L 3513 0 
L 2938 0 
L 2938 2094 
Q 2938 2591 2744 2837 
Q 2550 3084 2163 3084 
Q 1697 3084 1428 2787 
Q 1159 2491 1159 1978 
L 1159 0 
L 581 0 
L 581 3500 
L 1159 3500 
L 1159 2956 
Q 1366 3272 1645 3428 
Q 1925 3584 2291 3584 
Q 2894 3584 3203 3211 
Q 3513 2838 3513 2113 
z
" transform="scale(0.015625)"/>
       <path id="DejaVuSans-6b" d="M 581 4863 
L 1159 4863 
L 1159 1991 
L 2875 3500 
L 3609 3500 
L 1753 1863 
L 3688 0 
L 2938 0 
L 1159 1709 
L 1159 0 
L 581 0 
L 581 4863 
z
" transform="scale(0.015625)"/>
      </defs>
      <use xlink:href="#DejaVuSans-4e"/>
      <use xlink:href="#DejaVuSans-75" x="74.804688"/>
      <use xlink:href="#DejaVuSans-6d" x="138.183594"/>
      <use xlink:href="#DejaVuSans-62" x="235.595703"/>
      <use xlink:href="#DejaVuSans-65" x="299.072266"/>
      <use xlink:href="#DejaVuSans-72" x="360.595703"/>
      <use xlink:href="#DejaVuSans-20" x="401.708984"/>
      <use xlink:href="#DejaVuSans-6f" x="433.496094"/>
      <use xlink:href="#DejaVuSans-66" x="494.677734"/>
      <use xlink:href="#DejaVuSans-20" x="529.882812"/>
      <use xlink:href="#DejaVuSans-63" x="561.669922"/>
      <use xlink:href="#DejaVuSans-72" x="616.650391"/>
      <use xlink:href="#DejaVuSans-6f" x="655.513672"/>
      <use xlink:href="#DejaVuSans-73" x="716.695312"/>
      <use xlink:href="#DejaVuSans-73" x="768.794922"/>
      <use xlink:href="#DejaVuSans-6c" x="820.894531"/>
      <use xlink:href="#DejaVuSans-69" x="848.677734"/>
      <use xlink:href="#DejaVuSans-6e" x="876.460938"/>
      <use xlink:href="#DejaVuSans-6b" x="939.839844"/>
      <use xlink:href="#DejaVuSans-73" x="997.75"/>
     </g>
    </g>
   </g>
   <g id="patch_3">
    <path d="M 57.6 307.584 
L 57.6 41.472 
" style="fill: none; stroke: #000000; stroke-width: 0.8; stroke-linejoin: miter; stroke-linecap: square"/>
   </g>
   <g id="patch_4">
    <path d="M 414.72 307.584 
L 414.72 41.472 
" style="fill: none; stroke: #000000; stroke-width: 0.8; stroke-linejoin: miter; stroke-linecap: square"/>
   </g>
   <g id="patch_5">
    <path d="M 57.6 307.584 
L 414.72 307.584 
" style="fill: none; stroke: #000000; stroke-width: 0.8; stroke-linejoin: miter; stroke-linecap: square"/>
   </g>
   <g id="patch_6">
    <path d="M 57.6 41.472 
L 414.72 41.472 
" style="fill: none; stroke: #000000; stroke-width: 0.8; stroke-linejoin: miter; stroke-linecap: square"/>
   </g>
   <g id="legend_1">
    <g id="patch_7">
     <path d="M 293.087188 93.506375 
L 407.72 93.506375 
Q 409.72 93.506375 409.72 91.506375 
L 409.72 48.472 
Q 409.72 46.472 407.72 46.472 
L 293.087188 46.472 
Q 291.087188 46.472 291.087188 48.472 
L 291.087188 91.506375 
Q 291.087188 93.506375 293.087188 93.506375 
z
" style="fill: #ffffff; opacity: 0.8; stroke: #cccccc; stroke-linejoin: miter"/>
    </g>
    <g id="patch_8">
     <path d="M 295.087188 58.070438 
L 315.087188 58.070438 
L 315.087188 51.070438 
L 295.087188 51.070438 
z
" style="fill: #008000"/>
    </g>
    <g id="text_18">
     <!-- true -->
     <g transform="translate(323.087188 58.070438)scale(0.1 -0.1)">
      <defs>
       <path id="DejaVuSans-74" d="M 1172 4494 
L 1172 3500 
L 2356 3500 
L 2356 3053 
L 1172 3053 
L 1172 1153 
Q 1172 725 1289 603 
Q 1406 481 1766 481 
L 2356 481 
L 2356 0 
L 1766 0 
Q 1100 0 847 248 
Q 594 497 594 1153 
L 594 3053 
L 172 3053 
L 172 3500 
L 594 3500 
L 594 4494 
L 1172 4494 
z
" transform="scale(0.015625)"/>
      </defs>
      <use xlink:href="#DejaVuSans-74"/>
      <use xlink:href="#DejaVuSans-72" x="39.208984"/>
      <use xlink:href="#DejaVuSans-75" x="80.322266"/>
      <use xlink:href="#DejaVuSans-65" x="143.701172"/>
     </g>
    </g>
    <g id="patch_9">
     <path d="M 295.087188 72.748563 
L 315.087188 72.748563 
L 315.087188 65.748563 
L 295.087188 65.748563 
z
" style="fill: #7cfc00"/>
    </g>
    <g id="text_19">
     <!-- true homeotypic -->
     <g transform="translate(323.087188 72.748563)scale(0.1 -0.1)">
      <defs>
       <path id="DejaVuSans-68" d="M 3513 2113 
L 3513 0 
L 2938 0 
L 2938 2094 
Q 2938 2591 2744 2837 
Q 2550 3084 2163 3084 
Q 1697 3084 1428 2787 
Q 1159 2491 1159 1978 
L 1159 0 
L 581 0 
L 581 4863 
L 1159 4863 
L 1159 2956 
Q 1366 3272 1645 3428 
Q 1925 3584 2291 3584 
Q 2894 3584 3203 3211 
Q 3513 2838 3513 2113 
z
" transform="scale(0.015625)"/>
       <path id="DejaVuSans-79" d="M 2059 -325 
Q 1816 -950 1584 -1140 
Q 1353 -1331 966 -1331 
L 506 -1331 
L 506 -850 
L 844 -850 
Q 1081 -850 1212 -737 
Q 1344 -625 1503 -206 
L 1606 56 
L 191 3500 
L 800 3500 
L 1894 763 
L 2988 3500 
L 3597 3500 
L 2059 -325 
z
" transform="scale(0.015625)"/>
       <path id="DejaVuSans-70" d="M 1159 525 
L 1159 -1331 
L 581 -1331 
L 581 3500 
L 1159 3500 
L 1159 2969 
Q 1341 3281 1617 3432 
Q 1894 3584 2278 3584 
Q 2916 3584 3314 3078 
Q 3713 2572 3713 1747 
Q 3713 922 3314 415 
Q 2916 -91 2278 -91 
Q 1894 -91 1617 61 
Q 1341 213 1159 525 
z
M 3116 1747 
Q 3116 2381 2855 2742 
Q 2594 3103 2138 3103 
Q 1681 3103 1420 2742 
Q 1159 2381 1159 1747 
Q 1159 1113 1420 752 
Q 1681 391 2138 391 
Q 2594 391 2855 752 
Q 3116 1113 3116 1747 
z
" transform="scale(0.015625)"/>
      </defs>
      <use xlink:href="#DejaVuSans-74"/>
      <use xlink:href="#DejaVuSans-72" x="39.208984"/>
      <use xlink:href="#DejaVuSans-75" x="80.322266"/>
      <use xlink:href="#DejaVuSans-65" x="143.701172"/>
      <use xlink:href="#DejaVuSans-20" x="205.224609"/>
      <use xlink:href="#DejaVuSans-68" x="237.011719"/>
      <use xlink:href="#DejaVuSans-6f" x="300.390625"/>
      <use xlink:href="#DejaVuSans-6d" x="361.572266"/>
      <use xlink:href="#DejaVuSans-65" x="458.984375"/>
      <use xlink:href="#DejaVuSans-6f" x="520.507812"/>
      <use xlink:href="#DejaVuSans-74" x="581.689453"/>
      <use xlink:href="#DejaVuSans-79" x="620.898438"/>
      <use xlink:href="#DejaVuSans-70" x="680.078125"/>
      <use xlink:href="#DejaVuSans-69" x="743.554688"/>
      <use xlink:href="#DejaVuSans-63" x="771.337891"/>
     </g>
    </g>
    <g id="patch_10">
     <path d="M 295.087188 87.426688 
L 315.087188 87.426688 
L 315.087188 80.426688 
L 295.087188 80.426688 
z
" style="fill: #ff0000"/>
    </g>
    <g id="text_20">
     <!-- false -->
     <g transform="translate(323.087188 87.426688)scale(0.1 -0.1)">
      <defs>
       <path id="DejaVuSans-61" d="M 2194 1759 
Q 1497 1759 1228 1600 
Q 959 1441 959 1056 
Q 959 750 1161 570 
Q 1363 391 1709 391 
Q 2188 391 2477 730 
Q 2766 1069 2766 1631 
L 2766 1759 
L 2194 1759 
z
M 3341 1997 
L 3341 0 
L 2766 0 
L 2766 531 
Q 2569 213 2275 61 
Q 1981 -91 1556 -91 
Q 1019 -91 701 211 
Q 384 513 384 1019 
Q 384 1609 779 1909 
Q 1175 2209 1959 2209 
L 2766 2209 
L 2766 2266 
Q 2766 2663 2505 2880 
Q 2244 3097 1772 3097 
Q 1472 3097 1187 3025 
Q 903 2953 641 2809 
L 641 3341 
Q 956 3463 1253 3523 
Q 1550 3584 1831 3584 
Q 2591 3584 2966 3190 
Q 3341 2797 3341 1997 
z
" transform="scale(0.015625)"/>
      </defs>
      <use xlink:href="#DejaVuSans-66"/>
      <use xlink:href="#DejaVuSans-61" x="35.205078"/>
      <use xlink:href="#DejaVuSans-6c" x="96.484375"/>
      <use xlink:href="#DejaVuSans-73" x="124.267578"/>
      <use xlink:href="#DejaVuSans-65" x="176.367188"/>
     </g>
    </g>
   </g>
  </g>
 </g>
 <defs>
  <clipPath id="p85d1f6a65a">
   <rect x="57.6" y="41.472" width="357.12" height="266.112"/>
  </clipPath>
 </defs>
</svg>
