<svg width="494.328px" height="587.344px" style="accent-color: auto; place-content: normal; place-items: normal; place-self: auto; alignment-baseline: auto; animation: 0s ease 0s 1 normal none running none; app-region: none; appearance: none; backdrop-filter: none; backface-visibility: visible; background: none 0% 0% / auto repeat scroll padding-box border-box rgba(0, 0, 0, 0); background-blend-mode: normal; baseline-shift: 0px; block-size: 480.344px; border-block-end: 0px none rgb(9, 29, 66); border-block-start: 0px none rgb(9, 29, 66); border-color: rgb(9, 29, 66); border-radius: 0px; border-style: none; border-width: 0px; border-collapse: separate; border-end-end-radius: 0px; border-end-start-radius: 0px; border-image: none 100% / 1 / 0 stretch; border-inline-end: 0px none rgb(9, 29, 66); border-inline-start: 0px none rgb(9, 29, 66); border-start-end-radius: 0px; border-start-start-radius: 0px; inset: auto; box-shadow: none; box-sizing: border-box; break-after: auto; break-before: auto; break-inside: auto; buffered-rendering: auto; caption-side: top; caret-color: rgb(9, 29, 66); clear: none; clip: auto; clip-path: none; clip-rule: nonzero; color: rgb(9, 29, 66); color-interpolation: srgb; color-interpolation-filters: linearrgb; color-rendering: auto; columns: auto auto; gap: normal; column-rule: 0px none rgb(9, 29, 66); column-span: none; contain-intrinsic-block-size: none; contain-intrinsic-inline-size: none; contain-intrinsic-size: none; container: none; content: normal; cursor: auto; cx: 0px; cy: 0px; d: none; direction: ltr; display: inline; dominant-baseline: auto; empty-cells: show; fill: rgb(0, 0, 0); fill-opacity: 1; fill-rule: nonzero; filter: none; flex: 0 1 auto; flex-flow: row nowrap; float: none; flood-color: rgb(0, 0, 0); flood-opacity: 1; font: 300 13.3333px / 23.3333px Lato-Regular, Helvetica, Arial, sans-serif; font-kerning: auto; font-optical-sizing: auto; font-palette: normal; font-synthesis: weight style small-caps; grid: auto-flow auto / none; grid-area: auto / auto / auto / auto; hyphenate-character: auto; hyphens: manual; image-orientation: from-image; image-rendering: auto; inline-size: 494.328px; inset-block: auto; inset-inline: auto; isolation: auto; letter-spacing: normal; lighting-color: rgb(255, 255, 255); line-break: auto; list-style: outside none disc; margin-block: 0px; margin: 0px; margin-inline: 0px; marker: none; mask-type: luminance; max-block-size: none; max-height: none; max-inline-size: none; max-width: none; min-block-size: 0px; min-height: 0px; min-inline-size: 0px; min-width: 0px; mix-blend-mode: normal; object-fit: fill; object-position: 50% 50%; object-view-box: none; offset: none 0px auto 0deg; opacity: 1; order: 0; orphans: 2; outline: rgb(9, 29, 66) none 0px; outline-offset: 0px; overflow-anchor: auto; overflow-clip-margin: 0px; overflow-wrap: normal; overflow: hidden; overscroll-behavior-block: auto; overscroll-behavior-inline: auto; padding-block: 0px; padding: 0px; padding-inline: 0px; paint-order: normal; perspective: none; perspective-origin: 247.156px 240.172px; pointer-events: all; position: static; r: 0px; resize: none; rotate: none; ruby-position: over; rx: auto; ry: auto; scale: none; scroll-behavior: auto; scroll-margin-block: 0px; scroll-margin-inline: 0px; scroll-padding-block: auto; scroll-padding-inline: auto; scrollbar-gutter: auto; shape-image-threshold: 0; shape-margin: 0px; shape-outside: none; shape-rendering: auto; speak: normal; stop-color: rgb(0, 0, 0); stop-opacity: 1; stroke: none; stroke-dasharray: none; stroke-dashoffset: 0px; stroke-linecap: butt; stroke-linejoin: miter; stroke-miterlimit: 4; stroke-opacity: 1; stroke-width: 1px; tab-size: 8; table-layout: auto; text-align: left; text-align-last: auto; text-anchor: start; text-decoration: none solid rgb(9, 29, 66); text-decoration-skip-ink: auto; text-emphasis: none rgb(9, 29, 66); text-emphasis-position: over; text-indent: 0px; text-overflow: clip; text-rendering: auto; text-shadow: none; text-size-adjust: 100%; text-transform: none; text-underline-position: auto; touch-action: auto; transform: none; transform-origin: 247.164px 240.172px; transform-style: flat; transition: all 0s ease 0s; translate: none; unicode-bidi: normal; user-select: none; vector-effect: none; vertical-align: baseline; visibility: visible; white-space: normal; widows: 2; width: 494.328px; will-change: auto; word-break: normal; word-spacing: 0px; writing-mode: horizontal-tb; x: 0px; y: 0px; z-index: auto; zoom: 1; border-spacing: 0px; -webkit-border-image: none; -webkit-box-align: stretch; -webkit-box-decoration-break: slice; -webkit-box-direction: normal; -webkit-box-flex: 0; -webkit-box-ordinal-group: 1; -webkit-box-orient: horizontal; -webkit-box-pack: start; -webkit-font-smoothing: auto; -webkit-highlight: none; -webkit-line-break: auto; -webkit-locale: &quot;en&quot;; -webkit-mask-box-image-outset: 0; -webkit-mask-box-image-repeat: stretch; -webkit-mask-box-image-slice: 0 fill; -webkit-mask-box-image-source: none; -webkit-mask-box-image-width: auto; -webkit-mask: none 0% 0% / auto repeat border-box border-box; -webkit-mask-composite: source-over; -webkit-print-color-adjust: economy; -webkit-rtl-ordering: logical; -webkit-tap-highlight-color: rgba(0, 0, 0, 0.18); -webkit-text-combine: none; -webkit-text-decorations-in-effect: none; -webkit-text-fill-color: rgb(9, 29, 66); -webkit-text-orientation: vertical-right; -webkit-text-security: none; -webkit-text-stroke: 0px rgb(9, 29, 66); -webkit-user-drag: auto; -webkit-user-modify: read-only; -webkit-writing-mode: horizontal-tb; height: 587.344px;" version="1.1" xmlns="http://www.w3.org/2000/svg" xmlns:xlink="http://www.w3.org/1999/xlink"><style  type="text/css">a, abbr, acronym, address, applet, article, aside, audio, b, big, blockquote, body, canvas, caption, center, cite, code, dd, del, details, dfn, div, dl, dt, em, embed, fieldset, figcaption, figure, footer, form, h1, h2, h3, h4, h5, h6, header, hgroup, html, i, iframe, img, ins, kbd, label, legend, li, mark, menu, nav, object, ol, output, p, pre, q, ruby, s, samp, section, small, span, strike, strong, sub, summary, sup, table, tbody, td, tfoot, th, thead, time, tr, tt, u, ul, var, video { margin: 0px; padding: 0px; border: 0px; font: inherit; vertical-align: baseline; }
*, ::after, ::before { box-sizing: border-box; }
svg.tempKey { text-transform: initial; letter-spacing: 0px; font-family: Helvetica; font-size: 12px; }
svg.tempKey text.imageOrigin { font-size: 8px; }
svg.tempKey a.imageOrigin text { fill: blue; }
svg.tempKey .keyTitle { font-style: italic; }
svg.tempKey .keyPoint rect { shape-rendering: crispedges; stroke-width: 1px; stroke: black; }
svg.tempKey text { text-anchor: start; font-family: Helvetica; font-size: 12px; }
svg { user-select: none; }
svg.circularView { width: 100%; height: 100%; }
.circleLink { fill: none; stroke-width: 1px; stroke: rgb(102, 102, 102); pointer-events: none; }
.circleGhostLink { fill: none; stroke-width: 5px; stroke-opacity: 0; stroke: rgb(255, 255, 0); pointer-events: stroke; }
.circleNode { stroke-width: 5px; fill: rgb(221, 221, 238); }
.circularView .tick text { font-size: 0.5em; stroke: none; fill: rgb(0, 0, 0); pointer-events: none; }
.circularView .tick line { stroke: rgb(0, 0, 0); stroke-width: 1px; }
.circularNodeLabel { text-anchor: middle; font-size: 0.75em; pointer-events: none; fill: rgb(68, 68, 68); }
.residueLetter { text-anchor: middle; font-size: 1em; pointer-events: none; }</style><svg class="circularView" width="100%" height="100%" y="107px"><defs><path id="circularPanelYP_009725304.1" d="M-8.999264113259539,-206.11703535850646A206.3134,206.3134 0 1,0 8.999264113259514,-206.11703535850646"/></defs><g transform="translate(240.172,240.172)"><g><g class="thinLayer"><path class="circleLink" d="M152.10811315229077,122.74241628829827L139.08901370395606,115.08847657275166C126.06991425562136,107.43453685720506,100.03171535895196,92.12665742611186,94.17356640654144,97.76935381184191C88.31541745413091,103.41205019757199,102.63731844597926,130.0053224001253,109.79826894190343,143.30195850140197L116.95921943782761,156.59859460267865" style="stroke: rgb(117, 112, 179);"/><path class="circleLink" d="M148.19335281758106,127.44139446711947L135.64728690969045,119.2196615549653C123.10122100179983,110.99792864281113,98.0090891860186,94.55446281850281,92.80340028939302,99.41399617442934C87.59771139276745,104.27352953035587,102.27846541529753,130.43606206651725,109.61884242656258,143.51732833459795L116.95921943782761,156.59859460267865" style="stroke: rgb(117, 112, 179);"/><path class="circleLink" d="M188.26076878880883,52.54009686027101L164.42358819678142,37.299594567760884C140.58640760475404,22.059092275250777,92.91204642069926,-8.42191230976945,57.575235755729345,-49.5128033206414C22.238425090759424,-90.60369433151335,-0.7608350551256375,-142.30447176823705,-12.260465128068168,-168.1548604865989L-23.7600952010107,-194.00524920496073" style="stroke: rgb(117, 112, 179);"/><path class="circleLink" d="M148.19335281758106,127.44139446711947L130.98676434433693,120.97317180198371C113.78017587109281,114.50494913684796,79.36699892460456,101.56850380657646,57.21395524487531,112.80443806075178C35.06091156514606,124.04037231492708,25.168001152175805,159.4486861535492,20.221545945690675,177.15284307286026L15.275090739205549,194.85699999217132" style="stroke: rgb(117, 112, 179);"/><path class="circleLink" d="M187.23129069721926,-56.09832998310546L165.30761806351885,-40.38883594383903C143.38394542981845,-24.679341904572603,99.53660016241764,6.739646173960253,70.87723350274868,48.56553450317305C42.21786684307973,90.39142283238584,28.74647879114264,142.62421141227858,22.010784765174094,168.74060570222497L15.275090739205549,194.85699999217132" style="stroke: rgb(117, 112, 179);"/><path class="circleLink" d="M194.41181088627843,-20.164985270461287L171.62049206306668,-8.797437050639363C148.82917323985498,2.5701111691825584,103.24653559343153,25.305207608826404,73.3904155689194,61.14220515259851C43.53429554440724,96.9792026963706,29.404693141806394,145.91810134427095,22.33989194050597,170.38755066822114L15.275090739205549,194.85699999217132" style="stroke: rgb(117, 112, 179);"/><path class="circleLink" d="M16.972323043561712,216.50777776907918L18.662705859020683,220.19590087778815C20.353088674479658,223.88402398649714,23.7338543053976,231.26027020391507,22.638821830269393,235.16674559820683C21.54378935514118,239.07322099249856,15.972958773966814,239.50992556366407,14.282575958507842,235.8218024549551C12.592193143048869,232.13367934624614,14.78225809330529,224.32072855766265,15.877290568433502,220.41425316337092L16.972323043561712,216.50777776907918" style="stroke: rgb(217, 95, 2);"/><path class="circleLink" d="M101.76470751382307,166.87277533398327L90.16824701478305,155.63992748076814C78.571786515743,144.407079627553,55.37886551766293,121.94138392112276,40.96392938856002,126.6054213641541C26.54899325945709,131.26945880718546,20.912041999331315,163.0632293996784,18.09356636926843,178.96011469592486L15.275090739205542,194.85699999217132" style="stroke: rgb(117, 112, 179);"/><path class="circleLink" d="M148.19335281758106,127.44139446711947L133.1774354132877,120.52133792907746C118.16151800899432,113.60128139103544,88.12968320040758,99.76116831495145,73.9427161350447,109.35407030401309C59.755749069681826,118.94697229307474,61.41364974754282,151.97288934728206,62.24260008647332,168.48584787438568L63.071550425403814,184.99880640148936" style="stroke: rgb(117, 112, 179);"/><path class="circleLink" d="M148.19335281758106,127.44139446711947L134.21338111525057,120.09410619389156C120.2334094129201,112.74681792066366,92.27346600825913,98.05224137420787,81.85357422276132,106.091573417139C71.43368243726351,114.13090546007012,78.55384227092885,144.90414609238817,82.11392218776153,160.2907664085472L85.6740021045942,175.67738672470622" style="stroke: rgb(117, 112, 179);"/><path class="circleLink" d="M15.275090739205542,194.85699999217132L6.637155270745738,177.15284307286026C-2.0007801977140662,159.4486861535492,-19.276651134633674,124.04037231492707,-46.52139172743145,112.80443806075175C-73.76613232022922,101.56850380657643,-110.97974256890517,114.50494913684793,-129.58654769324312,120.97317180198367L-148.19335281758111,127.44139446711942" style="stroke: rgb(117, 112, 179);"/><path class="circleLink" d="M116.95921943782761,156.59859460267865L96.03445175161764,143.51732833459792C75.10968406540768,130.43606206651725,33.26014869298773,104.27352953035586,-10.931946682913722,99.41399617442933C-55.12404205881518,94.55446281850278,-101.65869743819813,110.9979286428111,-124.92602512788963,119.21966155496526L-148.19335281758111,127.44139446711942" style="stroke: rgb(117, 112, 179);"/><path class="circleLink" d="M187.23129069721926,-56.09832998310546L169.96814062887236,-42.14234619085744C152.70499056052546,-28.186362398609425,118.17869042383168,-0.27439481411339983,106.4666785472664,35.17509261685061C94.75466667070113,70.62458004781463,105.85694305426438,113.61158732524663,111.408081246046,135.10509096396262L116.95921943782761,156.59859460267865" style="stroke: rgb(117, 112, 179);"/><path class="circleLink" d="M188.26076878880883,52.54009686027101L170.8732234510615,53.368937408944355C153.4856781133142,54.19777795761772,118.71058743781961,55.855459054964435,106.82699587932275,73.19854201203236C94.94340432082588,90.54162496910031,105.95131187932674,123.57010978588947,111.45526565857718,140.08435219428404L116.95921943782761,156.59859460267865" style="stroke: rgb(117, 112, 179);"/><path class="circleLink" d="M182.5067127452584,69.95626237843004L159.36481392516004,52.611306752475706C136.22291510506165,35.26635112652138,89.93911746486488,0.5764398746127135,55.561316140486696,-43.41714538928575C21.183514816108513,-87.41073065318422,-1.2882901924510932,-140.70798992907248,-12.524192696730895,-167.35661956701662L-23.7600952010107,-194.00524920496076" style="stroke: rgb(117, 112, 179);"/><path class="circleLink" d="M194.41181088627843,-20.164985270461287L176.2810146284202,-10.550947297657777C158.150218370562,-0.9369093248542679,121.88862585484557,18.29116662075275,108.97986061343711,47.75176326627607C96.07109537202864,77.21235991179938,106.51515740492812,116.90547725723901,111.73718842137787,136.75203592995882L116.95921943782761,156.59859460267865" style="stroke: rgb(117, 112, 179);"/><path class="circleLink" d="M194.41181088627843,-20.164985270461287L169.8313793741401,-26.62029013884125C145.25094786200182,-33.07559500722121,96.09008483772521,-45.98620474398114,59.728100489843705,-74.9595820663977C23.36611614196218,-103.93295938881428,-0.1969895295242594,-148.9691042968875,-11.978542365267478,-171.4871767509241L-23.7600952010107,-194.00524920496073" style="stroke: rgb(117, 112, 179);"/><path class="circleLink" d="M148.19335281758106,127.44139446711947L134.95087177984024,119.69056150515009C121.70839074209941,111.9397285431807,95.22342866661776,96.43806261924198,87.48532111599144,103.00995943038593C79.74721356536512,109.58185624152992,90.75596053959408,138.2273157877566,96.26033402670859,152.55004556086993L101.76470751382307,166.87277533398327" style="stroke: rgb(117, 112, 179);"/><path class="circleLink" d="M182.5067127452584,69.95626237843004L161.1539266140866,70.4341598406776C139.80114048291478,70.91205730292515,97.09556822057118,71.86785222742026,69.22363121956238,92.68464182971047C41.351694218553575,113.50143143200069,28.31339247887956,154.179215712086,21.794241609042555,174.51810785212868L15.275090739205549,194.85699999217132" style="stroke: rgb(117, 112, 179);"/><path class="circleLink" d="M116.95921943782761,156.59859460267865L103.52675541463702,146.60721025449612C90.09429139144645,136.61582590631366,63.22936334506528,116.63305720994869,46.282008561961604,123.00945810819746C29.334653778857923,129.38585900644625,22.304872259031733,162.1214294993088,18.78998149911864,178.48921474574004L15.275090739205542,194.85699999217132" style="stroke: rgb(117, 112, 179);"/><path class="circleLink" d="M116.95921943782761,156.59859460267865L107.49086285014033,145.3245999576625C98.02250626245305,134.05060531264644,79.08579308707849,111.50261602261422,76.55337443307774,113.21497947783165C74.02095577907698,114.92734293304909,87.89283164645002,140.90005913351618,94.82876958013654,153.88641723374974L101.76470751382307,166.87277533398327" style="stroke: rgb(117, 112, 179);"/><path class="circleLink" d="M162.9441819562199,107.94337594154774L143.95520162872356,103.8311638482519C124.96622130122725,99.71895175495607,86.98826064623464,91.49452756836439,62.3767454433989,105.98013157680165C37.765230240563184,120.46573558523892,26.520160489884365,157.66136778870512,20.897625614544957,176.25918389043824L15.275090739205549,194.85699999217132" style="stroke: rgb(117, 112, 179);"/><path class="circleLink" d="M85.6740021045942,175.67738672470622L76.02183517583599,163.3806483284454C66.36966824707777,151.08390993218458,47.06533438956135,126.49043313966295,35.33218249532991,129.68703535090714C23.599030601098466,132.8836375621513,19.437060670152004,163.87031877716132,17.356075704678773,179.36365938466633L15.275090739205542,194.85699999217132" style="stroke: rgb(117, 112, 179);"/><path class="circleLink" d="M116.95921943782761,156.59859460267865L96.61189931793089,144.12830714300887C76.26457919803417,131.65801968333912,35.569938958240726,106.71744476399961,-6.522347085612541,104.0796525295674C-48.614633129465815,101.44186029513519,-92.10456497737891,121.10685074561027,-113.84953090133547,130.93934597084782L-135.59449682529203,140.77184119608538" style="stroke: rgb(117, 112, 179);"/><path class="circleLink" d="M85.6740021045942,175.67738672470622L74.23272248690941,145.5577952402435C62.79144286922462,115.43820375578082,39.90888363385504,55.199020786855414,21.669867416254224,-6.414751868089077C3.43085119865341,-68.02852452303357,-10.164622001178644,-131.01688686399714,-16.96235860109467,-162.51106803447894L-23.7600952010107,-194.00524920496073" style="stroke: rgb(117, 112, 179);"/><path class="circleLink" d="M182.5067127452584,69.95626237843004L165.81444917944012,68.68064959365918C149.1221856136218,67.40503680888833,115.73765848198524,64.85381123934661,104.81307626408011,79.29419994338804C93.88849404617497,93.73458864742946,105.42385674200129,125.16659162505405,111.19153808991446,140.88259311386633L116.95921943782761,156.59859460267865" style="stroke: rgb(117, 112, 179);"/><path class="circleLink" d="M101.76470751382307,166.87277533398327L88.37913432585647,137.81707439256624C74.99356113788984,108.76137345114924,48.22241476195663,50.649971568315216,27.30161430948433,-9.496365854842118C6.380813857012035,-69.64270327799944,-8.689640671999332,-131.8239762414801,-16.224867936505017,-162.91461272322042L-23.7600952010107,-194.00524920496073" style="stroke: rgb(117, 112, 179);"/><path class="circleLink" d="M148.19335281758106,127.44139446711947L134.46338120369552,119.96730715905395C120.73340958980997,112.49321985098842,93.27346636203887,97.5450452348574,83.7626658072499,105.12328987837901C74.25186525246093,112.70153452190063,82.6902073706541,142.80619842507488,86.90937842975066,157.858530376662L91.12854948884726,172.91086232824915" style="stroke: rgb(117, 112, 179);"/><path class="circleLink" d="M15.275090739205542,194.85699999217132L12.340346244838548,162.4198719045566C9.405601750471556,129.98274381694185,3.536112761737569,65.10848764171237,-2.9697515616318046,0.2981127755237054C-9.475615885001178,-64.51226209066498,-16.617855543005938,-129.25875564781285,-20.18897537200832,-161.63200242638678L-23.7600952010107,-194.00524920496073" style="stroke: rgb(117, 112, 179);"/><path class="circleLink" d="M63.071550425403814,184.99880640148936L54.36140038562119,153.75287670608205C45.65125034583858,122.5069470106747,28.23095026627334,60.01508761986003,13.759009328537589,-3.152254981214977C-0.7129316091981615,-66.31959758228999,-12.23651340510443,-130.16242339362535,-17.998304303057566,-162.08383629929304L-23.7600952010107,-194.00524920496073" style="stroke: rgb(117, 112, 179);"/><path class="circleLink" d="M63.071550425403814,184.99880640148936L56.15051307454777,171.57572979428392C49.22947572369173,158.15265318707847,35.38740102197965,131.30649997266758,27.421324407613277,132.94953223778123C19.455247793246897,134.5925645028949,17.365169266226218,164.7247822475331,16.320130002715878,179.7908911198522L15.275090739205542,194.85699999217132" style="stroke: rgb(117, 112, 179);"/><path class="circleLink" d="M-135.59449682529203,140.77184119608538L-120.29916615561555,114.87000312966435C-105.00383548593909,88.96816506324333,-74.41317414658617,37.164488930401305,-55.77410720920595,-18.631692803106375C-37.13504027182574,-74.42787453661406,-30.447567736418215,-134.2165618707874,-27.103831468714457,-164.11090553787406L-23.7600952010107,-194.00524920496073" style="stroke: rgb(117, 112, 179);"/><path class="circleLink" d="M-148.19335281758111,127.44139446711942L-131.3756603821697,103.15031871378179C-114.55796794675831,78.85924296044415,-80.92258307593553,30.277091453768897,-60.183706806507125,-23.29734915824445C-39.44483053707873,-76.8717897702578,-31.602462869044714,-135.43851948760923,-27.681279035027707,-164.72188434628498L-23.7600952010107,-194.0052492049607" style="stroke: rgb(117, 112, 179);"/></g><g class="ghostLayer"/><g class="nodeLayer"><path class="circleNode" d="M9.47290959290475,-216.96530037737523A217.172,217.172 0 1,1 -9.472909592904779,-216.96530037737523L-8.5256186336143,-195.2687703396377A195.4548,195.4548 0 1,0 8.525618633614277,-195.2687703396377Z" style="fill: rgb(221, 221, 238);"/></g><g class="tickLayer"><g class="tickGroups"><g class="tick" transform="rotate(-86.60353535353535)translate(217.172,0)"><line x1="1" y1="0" x2="5" y2="0"/><text x="8" y="0" dy=".35em">1</text></g><g class="tick" transform="rotate(-79.43181818181819)translate(217.172,0)"><line x1="1" y1="0" x2="5" y2="0"/><text x="8" y="0" dy=".35em"/></g><g class="tick" transform="rotate(-70.46717171717171)translate(217.172,0)"><line x1="1" y1="0" x2="5" y2="0"/><text x="8" y="0" dy=".35em"/></g><g class="tick" transform="rotate(-61.50252525252525)translate(217.172,0)"><line x1="1" y1="0" x2="5" y2="0"/><text x="8" y="0" dy=".35em"/></g><g class="tick" transform="rotate(-52.53787878787879)translate(217.172,0)"><line x1="1" y1="0" x2="5" y2="0"/><text x="8" y="0" dy=".35em"/></g><g class="tick" transform="rotate(-43.57323232323232)translate(217.172,0)"><line x1="1" y1="0" x2="5" y2="0"/><text x="8" y="0" dy=".35em">25</text></g><g class="tick" transform="rotate(-34.608585858585855)translate(217.172,0)"><line x1="1" y1="0" x2="5" y2="0"/><text x="8" y="0" dy=".35em"/></g><g class="tick" transform="rotate(-25.64393939393939)translate(217.172,0)"><line x1="1" y1="0" x2="5" y2="0"/><text x="8" y="0" dy=".35em"/></g><g class="tick" transform="rotate(-16.679292929292927)translate(217.172,0)"><line x1="1" y1="0" x2="5" y2="0"/><text x="8" y="0" dy=".35em"/></g><g class="tick" transform="rotate(-7.714646464646464)translate(217.172,0)"><line x1="1" y1="0" x2="5" y2="0"/><text x="8" y="0" dy=".35em"/></g><g class="tick" transform="rotate(1.25)translate(217.172,0)"><line x1="1" y1="0" x2="5" y2="0"/><text x="8" y="0" dy=".35em">50</text></g><g class="tick" transform="rotate(10.214646464646464)translate(217.172,0)"><line x1="1" y1="0" x2="5" y2="0"/><text x="8" y="0" dy=".35em"/></g><g class="tick" transform="rotate(19.17929292929294)translate(217.172,0)"><line x1="1" y1="0" x2="5" y2="0"/><text x="8" y="0" dy=".35em"/></g><g class="tick" transform="rotate(28.143939393939405)translate(217.172,0)"><line x1="1" y1="0" x2="5" y2="0"/><text x="8" y="0" dy=".35em"/></g><g class="tick" transform="rotate(37.10858585858587)translate(217.172,0)"><line x1="1" y1="0" x2="5" y2="0"/><text x="8" y="0" dy=".35em"/></g><g class="tick" transform="rotate(46.07323232323233)translate(217.172,0)"><line x1="1" y1="0" x2="5" y2="0"/><text x="8" y="0" dy=".35em">75</text></g><g class="tick" transform="rotate(55.03787878787881)translate(217.172,0)"><line x1="1" y1="0" x2="5" y2="0"/><text x="8" y="0" dy=".35em"/></g><g class="tick" transform="rotate(64.00252525252526)translate(217.172,0)"><line x1="1" y1="0" x2="5" y2="0"/><text x="8" y="0" dy=".35em"/></g><g class="tick" transform="rotate(72.96717171717174)translate(217.172,0)"><line x1="1" y1="0" x2="5" y2="0"/><text x="8" y="0" dy=".35em"/></g><g class="tick" transform="rotate(81.93181818181819)translate(217.172,0)"><line x1="1" y1="0" x2="5" y2="0"/><text x="8" y="0" dy=".35em"/></g><g class="tick" transform="rotate(90.89646464646466)translate(217.172,0)"><line x1="1" y1="0" x2="5" y2="0"/><text x="8" y="0" dy=".35em" transform="rotate(180) translate(-16 0)" text-anchor="end">100</text></g><g class="tick" transform="rotate(99.86111111111111)translate(217.172,0)"><line x1="1" y1="0" x2="5" y2="0"/><text x="8" y="0" dy=".35em" transform="rotate(180) translate(-16 0)" text-anchor="end"/></g><g class="tick" transform="rotate(108.82575757575759)translate(217.172,0)"><line x1="1" y1="0" x2="5" y2="0"/><text x="8" y="0" dy=".35em" transform="rotate(180) translate(-16 0)" text-anchor="end"/></g><g class="tick" transform="rotate(117.79040404040404)translate(217.172,0)"><line x1="1" y1="0" x2="5" y2="0"/><text x="8" y="0" dy=".35em" transform="rotate(180) translate(-16 0)" text-anchor="end"/></g><g class="tick" transform="rotate(126.75505050505052)translate(217.172,0)"><line x1="1" y1="0" x2="5" y2="0"/><text x="8" y="0" dy=".35em" transform="rotate(180) translate(-16 0)" text-anchor="end"/></g><g class="tick" transform="rotate(135.719696969697)translate(217.172,0)"><line x1="1" y1="0" x2="5" y2="0"/><text x="8" y="0" dy=".35em" transform="rotate(180) translate(-16 0)" text-anchor="end">125</text></g><g class="tick" transform="rotate(144.68434343434345)translate(217.172,0)"><line x1="1" y1="0" x2="5" y2="0"/><text x="8" y="0" dy=".35em" transform="rotate(180) translate(-16 0)" text-anchor="end"/></g><g class="tick" transform="rotate(153.64898989898992)translate(217.172,0)"><line x1="1" y1="0" x2="5" y2="0"/><text x="8" y="0" dy=".35em" transform="rotate(180) translate(-16 0)" text-anchor="end"/></g><g class="tick" transform="rotate(162.61363636363637)translate(217.172,0)"><line x1="1" y1="0" x2="5" y2="0"/><text x="8" y="0" dy=".35em" transform="rotate(180) translate(-16 0)" text-anchor="end"/></g><g class="tick" transform="rotate(171.57828282828285)translate(217.172,0)"><line x1="1" y1="0" x2="5" y2="0"/><text x="8" y="0" dy=".35em" transform="rotate(180) translate(-16 0)" text-anchor="end"/></g><g class="tick" transform="rotate(180.54292929292933)translate(217.172,0)"><line x1="1" y1="0" x2="5" y2="0"/><text x="8" y="0" dy=".35em" transform="rotate(180) translate(-16 0)" text-anchor="end">150</text></g><g class="tick" transform="rotate(189.50757575757575)translate(217.172,0)"><line x1="1" y1="0" x2="5" y2="0"/><text x="8" y="0" dy=".35em" transform="rotate(180) translate(-16 0)" text-anchor="end"/></g><g class="tick" transform="rotate(198.47222222222223)translate(217.172,0)"><line x1="1" y1="0" x2="5" y2="0"/><text x="8" y="0" dy=".35em" transform="rotate(180) translate(-16 0)" text-anchor="end"/></g><g class="tick" transform="rotate(207.4368686868687)translate(217.172,0)"><line x1="1" y1="0" x2="5" y2="0"/><text x="8" y="0" dy=".35em" transform="rotate(180) translate(-16 0)" text-anchor="end"/></g><g class="tick" transform="rotate(216.40151515151518)translate(217.172,0)"><line x1="1" y1="0" x2="5" y2="0"/><text x="8" y="0" dy=".35em" transform="rotate(180) translate(-16 0)" text-anchor="end"/></g><g class="tick" transform="rotate(225.36616161616166)translate(217.172,0)"><line x1="1" y1="0" x2="5" y2="0"/><text x="8" y="0" dy=".35em" transform="rotate(180) translate(-16 0)" text-anchor="end">175</text></g><g class="tick" transform="rotate(234.33080808080808)translate(217.172,0)"><line x1="1" y1="0" x2="5" y2="0"/><text x="8" y="0" dy=".35em" transform="rotate(180) translate(-16 0)" text-anchor="end"/></g><g class="tick" transform="rotate(243.29545454545456)translate(217.172,0)"><line x1="1" y1="0" x2="5" y2="0"/><text x="8" y="0" dy=".35em" transform="rotate(180) translate(-16 0)" text-anchor="end"/></g><g class="tick" transform="rotate(252.26010101010104)translate(217.172,0)"><line x1="1" y1="0" x2="5" y2="0"/><text x="8" y="0" dy=".35em" transform="rotate(180) translate(-16 0)" text-anchor="end"/></g><g class="tick" transform="rotate(261.2247474747475)translate(217.172,0)"><line x1="1" y1="0" x2="5" y2="0"/><text x="8" y="0" dy=".35em" transform="rotate(180) translate(-16 0)" text-anchor="end"/></g><g class="tick" transform="rotate(266.6035353535354)translate(217.172,0)"><line x1="1" y1="0" x2="5" y2="0"/><text x="8" y="0" dy=".35em" transform="rotate(180) translate(-16 0)" text-anchor="end">198</text></g></g></g><g class="featureLayer"/><g class="nodeLabelLayer"><text class="circularNodeLabel" dy="0.3em"><textPath startOffset="50%" xlink:href="#circularPanelYP_009725304.1"/></text></g><g class="letterLayer"><text class="residueLetter" transform="rotate (308.9015151515151 152.1081131522908 122.74241628829824) translate(152.1081131522908 122.74241628829824)" dy="-0.1em">Y</text><text class="residueLetter" transform="rotate (323.24494949494954 116.95921943782764 156.59859460267862) translate(116.95921943782764 156.59859460267862)" dy="-0.1em">K</text><text class="residueLetter" transform="rotate (310.69444444444446 148.19335281758103 127.44139446711947) translate(148.19335281758103 127.44139446711947)" dy="-0.1em">K</text><text class="residueLetter" transform="rotate (285.59343434343435 188.26076878880883 52.54009686027101) translate(188.26076878880883 52.54009686027101)" dy="-0.1em">K</text><text class="residueLetter" transform="rotate (353.01767676767673 -23.760095201010696 -194.00524920496073) translate(-23.760095201010696 -194.00524920496073)" dy="0.8em">K</text><text class="residueLetter" transform="rotate (355.5176767676768 15.275090739205542 194.8569999921713) translate(15.275090739205542 194.8569999921713)" dy="-0.1em">K</text><text class="residueLetter" transform="rotate (73.32070707070706 187.23129069721924 -56.09832998310546) translate(187.23129069721924 -56.09832998310546)" dy="0.8em">K</text><text class="residueLetter" transform="rotate (84.07828282828282 194.4118108862784 -20.164985270461283) translate(194.4118108862784 -20.164985270461283)" dy="0.8em">K</text><text class="residueLetter" transform="rotate (328.62373737373736 101.76470751382303 166.87277533398327) translate(101.76470751382303 166.87277533398327)" dy="-0.1em">K</text><text class="residueLetter" transform="rotate (341.17424242424244 63.071550425403814 184.99880640148936) translate(63.071550425403814 184.99880640148936)" dy="-0.1em">T</text><text class="residueLetter" transform="rotate (334.0025252525253 85.67400210459415 175.67738672470625) translate(85.67400210459415 175.67738672470625)" dy="-0.1em">S</text><text class="residueLetter" transform="rotate (409.30555555555554 -148.193352817581 127.4413944671195) translate(-148.193352817581 127.4413944671195)" dy="-0.1em">K</text><text class="residueLetter" transform="rotate (290.9722222222222 182.5067127452584 69.95626237843004) translate(182.5067127452584 69.95626237843004)" dy="-0.1em">K</text><text class="residueLetter" transform="rotate (303.52272727272725 162.9441819562199 107.94337594154773) translate(162.9441819562199 107.94337594154773)" dy="-0.1em">T</text><text class="residueLetter" transform="rotate (403.92676767676767 -135.59449682529203 140.77184119608538) translate(-135.59449682529203 140.77184119608538)" dy="-0.1em">T</text><text class="residueLetter" transform="rotate (332.20959595959596 91.12854948884728 172.9108623282491) translate(91.12854948884728 172.9108623282491)" dy="-0.1em">T</text></g></g></g></svg><svg class="tempKey" height="200"><g class="key" transform="translate(0,20)"><text class="keyTitle" y="12">Key: Crosslink Type</text><g class="keyPoint" transform="translate(0,18)"><rect height="4" width="1em" x="1" y="5" style="stroke: none; fill: rgb(117, 112, 179);"/><text x="19" y="12">Self</text></g><g class="keyPoint" transform="translate(0,33)"><rect height="4" width="1em" x="1" y="5" style="stroke: none; fill: rgb(217, 95, 2);"/><text x="19" y="12">Homomultimeric (Overlapping Peptides)</text></g><g class="keyPoint" transform="translate(0,48)"><rect height="4" width="1em" x="1" y="5" style="stroke: none; fill: rgb(27, 158, 119);"/><text x="19" y="12">Heteromeric</text></g><g class="keyPoint" transform="translate(0,63)"><rect height="4" width="1em" x="1" y="5" style="stroke: none; fill: rgb(170, 170, 170);"/><text x="19" y="12">Unknown</text></g></g><a class="imageOrigin" xlink:href="https://xiview.org/xi3/network.php?upload=15588-44289-67158-68344-35823&amp;FmanualMode=1&amp;FfdrMode=0&amp;Flinears=0&amp;Fmonolinks=1&amp;Fcrosslinks=1&amp;FbetweenLinks=1&amp;FselfLinks=1&amp;FhomomultimericLinks=1&amp;FnotHomomult=1&amp;Fambig=0&amp;FaaApart=0&amp;FpepLength=1&amp;Fpass=1&amp;Ffail=0&amp;Fdecoys=0&amp;Ftargets=1&amp;FdistanceUndef=1&amp;FfdrThreshold=0.05&amp;FinterFdrCut=&amp;FintraFdrCut=&amp;FmultipleGroup=1&amp;FpepSeq=&amp;FprotNames=&amp;FprotDesc=&amp;FprotPDB=0&amp;FrunName=&amp;FscanNumber=&amp;FurpPpi=1&amp;FA=&amp;FB=&amp;FC=&amp;FQ=&amp;FmatchScoreCutoff=%5B0,685%5D&amp;FsearchGroups=%5B%22'NA'%22%5D&amp;FdistanceCutoff=%5Bnull,null%5D" target="_blank"><text dy="1em" class="imageOrigin">SRCH=15588--MAN.MONOLINKS.XLINKS.BTWN.SELF.HOMOM.NOTHOMOMULT.PEPLEN=1.PASS.TARGETS.DISTUNK.MGRP.URPPPI=1.MATCHSCORES=0-685.GROUPS=NA</text></a></svg></svg>