<svg width="1920px" height="888px" style="accent-color: auto; align-content: normal; align-items: normal; align-self: auto; alignment-baseline: auto; animation-delay: 0s; animation-direction: normal; animation-duration: 0s; animation-fill-mode: none; animation-iteration-count: 1; animation-name: none; animation-play-state: running; animation-timing-function: ease; app-region: none; appearance: none; backdrop-filter: none; backface-visibility: visible; background-attachment: scroll; background-blend-mode: normal; background-clip: border-box; background-color: rgba(0, 0, 0, 0); background-image: none; background-origin: padding-box; background-position: 0% 0%; background-repeat: repeat; background-size: auto; baseline-shift: 0px; block-size: 888px; border-block-end-color: rgb(136, 136, 136); border-block-end-style: none; border-block-end-width: 0px; border-block-start-color: rgb(136, 136, 136); border-block-start-style: none; border-block-start-width: 0px; border-bottom-color: rgb(136, 136, 136); border-bottom-left-radius: 0px; border-bottom-right-radius: 0px; border-bottom-style: none; border-bottom-width: 0px; border-collapse: separate; border-end-end-radius: 0px; border-end-start-radius: 0px; border-image-outset: 0; border-image-repeat: stretch; border-image-slice: 100%; border-image-source: none; border-image-width: 1; border-inline-end-color: rgb(136, 136, 136); border-inline-end-style: none; border-inline-end-width: 0px; border-inline-start-color: rgb(136, 136, 136); border-inline-start-style: none; border-inline-start-width: 0px; border-left-color: rgb(136, 136, 136); border-left-style: none; border-left-width: 0px; border-right-color: rgb(136, 136, 136); border-right-style: none; border-right-width: 0px; border-start-end-radius: 0px; border-start-start-radius: 0px; border-top-color: rgb(136, 136, 136); border-top-left-radius: 0px; border-top-right-radius: 0px; border-top-style: none; border-top-width: 0px; bottom: auto; box-shadow: none; box-sizing: border-box; break-after: auto; break-before: auto; break-inside: auto; buffered-rendering: auto; caption-side: top; caret-color: rgb(136, 136, 136); clear: none; clip: auto; clip-path: none; clip-rule: nonzero; color: rgb(136, 136, 136); color-interpolation: srgb; color-interpolation-filters: linearrgb; color-rendering: auto; column-count: auto; column-gap: normal; column-rule-color: rgb(136, 136, 136); column-rule-style: none; column-rule-width: 0px; column-span: none; column-width: auto; contain-intrinsic-block-size: none; contain-intrinsic-height: none; contain-intrinsic-inline-size: none; contain-intrinsic-size: none; contain-intrinsic-width: none; container-name: none; container-type: normal; content: normal; cursor: auto; cx: 0px; cy: 0px; d: none; direction: ltr; display: inline; dominant-baseline: auto; empty-cells: show; fill: rgb(0, 0, 0); fill-opacity: 1; fill-rule: nonzero; filter: none; flex-basis: auto; flex-direction: row; flex-grow: 0; flex-shrink: 1; flex-wrap: nowrap; float: none; flood-color: rgb(0, 0, 0); flood-opacity: 1; font-family: Lato-Regular, Helvetica, Arial, sans-serif; font-kerning: auto; font-optical-sizing: auto; font-palette: normal; font-size: 13.3333px; font-stretch: 100%; font-style: normal; font-synthesis-small-caps: auto; font-synthesis-style: auto; font-synthesis-weight: auto; font-variant: normal; font-variant-caps: normal; font-variant-east-asian: normal; font-variant-ligatures: normal; font-variant-numeric: normal; font-weight: 300; grid-auto-columns: auto; grid-auto-flow: row; grid-auto-rows: auto; grid-column-end: auto; grid-column-start: auto; grid-row-end: auto; grid-row-start: auto; grid-template-areas: none; grid-template-columns: none; grid-template-rows: none; height: 888px; hyphenate-character: auto; hyphens: manual; image-orientation: from-image; image-rendering: auto; inline-size: 1920px; inset-block-end: auto; inset-block-start: auto; inset-inline-end: auto; inset-inline-start: auto; isolation: auto; justify-content: normal; justify-items: normal; justify-self: auto; left: auto; letter-spacing: normal; lighting-color: rgb(255, 255, 255); line-break: auto; line-height: 23.3333px; list-style-image: none; list-style-position: outside; list-style-type: disc; margin-block-end: 0px; margin-block-start: 0px; margin-bottom: 0px; margin-inline-end: 0px; margin-inline-start: 0px; margin-left: 0px; margin-right: 0px; margin-top: 0px; marker-end: none; marker-mid: none; marker-start: none; mask-type: luminance; max-block-size: none; max-height: none; max-inline-size: none; max-width: none; min-block-size: 0px; min-height: 0px; min-inline-size: 0px; min-width: 0px; mix-blend-mode: normal; object-fit: fill; object-position: 50% 50%; object-view-box: none; offset-distance: 0px; offset-path: none; offset-rotate: auto 0deg; opacity: 1; order: 0; orphans: 2; outline-color: rgb(136, 136, 136); outline-offset: 0px; outline-style: none; outline-width: 0px; overflow-anchor: auto; overflow-clip-margin: 0px; overflow-wrap: normal; overflow-x: hidden; overflow-y: hidden; overscroll-behavior-block: auto; overscroll-behavior-inline: auto; padding-block-end: 0px; padding-block-start: 0px; padding-bottom: 0px; padding-inline-end: 0px; padding-inline-start: 0px; padding-left: 0px; padding-right: 0px; padding-top: 0px; paint-order: normal; perspective: none; perspective-origin: 960px 444px; pointer-events: visible; position: static; r: 0px; resize: none; right: auto; rotate: none; row-gap: normal; ruby-position: over; rx: auto; ry: auto; scale: none; scroll-behavior: auto; scroll-margin-block-end: 0px; scroll-margin-block-start: 0px; scroll-margin-inline-end: 0px; scroll-margin-inline-start: 0px; scroll-padding-block-end: auto; scroll-padding-block-start: auto; scroll-padding-inline-end: auto; scroll-padding-inline-start: auto; scrollbar-gutter: auto; shape-image-threshold: 0; shape-margin: 0px; shape-outside: none; shape-rendering: auto; speak: normal; stop-color: rgb(0, 0, 0); stop-opacity: 1; stroke: none; stroke-dasharray: none; stroke-dashoffset: 0px; stroke-linecap: butt; stroke-linejoin: miter; stroke-miterlimit: 4; stroke-opacity: 1; stroke-width: 1px; tab-size: 8; table-layout: auto; text-align: start; text-align-last: auto; text-anchor: start; text-decoration: none solid rgb(136, 136, 136); text-decoration-color: rgb(136, 136, 136); text-decoration-line: none; text-decoration-skip-ink: auto; text-decoration-style: solid; text-emphasis-color: rgb(136, 136, 136); text-emphasis-position: over; text-emphasis-style: none; text-indent: 0px; text-overflow: clip; text-rendering: auto; text-shadow: none; text-size-adjust: 100%; text-transform: none; text-underline-position: auto; top: auto; touch-action: auto; transform: none; transform-origin: 960px 444px; transform-style: flat; transition-delay: 0s; transition-duration: 0s; transition-property: all; transition-timing-function: ease; translate: none; unicode-bidi: normal; user-select: none; vector-effect: none; vertical-align: baseline; visibility: visible; white-space: normal; widows: 2; width: 1920px; will-change: auto; word-break: normal; word-spacing: 0px; writing-mode: horizontal-tb; x: 0px; y: 0px; z-index: auto; zoom: 1; -webkit-border-horizontal-spacing: 0px; -webkit-border-image: none; -webkit-border-vertical-spacing: 0px; -webkit-box-align: stretch; -webkit-box-decoration-break: slice; -webkit-box-direction: normal; -webkit-box-flex: 0; -webkit-box-ordinal-group: 1; -webkit-box-orient: horizontal; -webkit-box-pack: start; -webkit-box-reflect: none; -webkit-font-smoothing: auto; -webkit-highlight: none; -webkit-line-break: auto; -webkit-line-clamp: none; -webkit-locale: &quot;en&quot;; -webkit-mask-box-image: none; -webkit-mask-box-image-outset: 0; -webkit-mask-box-image-repeat: stretch; -webkit-mask-box-image-slice: 0 fill; -webkit-mask-box-image-source: none; -webkit-mask-box-image-width: auto; -webkit-mask-clip: border-box; -webkit-mask-composite: source-over; -webkit-mask-image: none; -webkit-mask-origin: border-box; -webkit-mask-position: 0% 0%; -webkit-mask-repeat: repeat; -webkit-mask-size: auto; -webkit-print-color-adjust: economy; -webkit-rtl-ordering: logical; -webkit-tap-highlight-color: rgba(0, 0, 0, 0.18); -webkit-text-combine: none; -webkit-text-decorations-in-effect: none; -webkit-text-fill-color: rgb(136, 136, 136); -webkit-text-orientation: vertical-right; -webkit-text-security: none; -webkit-text-stroke-color: rgb(136, 136, 136); -webkit-text-stroke-width: 0px; -webkit-user-drag: auto; -webkit-user-modify: read-only; -webkit-writing-mode: horizontal-tb; " version="1.1" xmlns="http://www.w3.org/2000/svg" xmlns:xlink="http://www.w3.org/1999/xlink"><style  type="text/css">*, ::after, ::before { box-sizing: border-box; }
.protein { cursor: crosshair; pointer-events: visible; }
.link { cursor: crosshair; pointer-events: auto; }
.highlightedLink { stroke: rgb(253, 192, 134); }
svg { user-select: none; }
.xlv_text { text-shadow: white -1px -1px 0px, white 1px -1px 0px, white -1px 1px 0px, white 1px 1px 0px; }
.xinetAxisLabel { pointer-events: none; }
.proteinLabel { font-size: 10pt; font-weight: bold; }</style><svg width="100%" height="100%" style="pointer-events:visible"><g transform="matrix(1,0,0,1,0,0)"><g id="container" transform="scale(2.128654970760234) translate(24.98901098901099 -603.510989010989)"><g id="groupsSVG"/><g id="p_pLinksWide"/><g id="proteinLower"><g class="protein lowerGroup" transform="translate(424 940) scale(0.4697802228572619) rotate(0)"><rect fill-opacity="1" fill="#ffffff" x="-394" y="-10" width="792" height="20" rx="0" ry="0" stroke-opacity="1"/><g opacity="1" transform="scale(1, 1)"/><g transform="scale(4, 1)"/></g></g><g class="highlights"/><g id="res_resLinks"/><g id="p_pLinks"/><g id="proteinUpper"><g class="protein upperGroup" transform="translate(424 940) scale(0.4697802228572619) rotate(0)"><g/><g><path stroke-width="1.7" class="link" fill="none" d=" M -112,0 Q -112,-13 -112,-13 A 16,16  0 0 1 -80,-13 Q -80,0 -80,0" stroke="#7570b3"/><path stroke-width="1.7" class="link" fill="none" d=" M -108,0 Q -108,-14 -108,-14 A 14,14  0 0 1 -80,-14 Q -80,0 -80,0" stroke="#7570b3"/><path stroke-width="1.7" class="link" fill="none" d=" M -164,0 Q -164,-13 -164,-13 A 276,276  0 0 1 388,-13 Q 388,0 388,0" stroke="#7570b3"/><path stroke-width="1.7" class="link" fill="none" d=" M -108,0 Q -108,-13 -108,-13 A 50,50  0 0 1 -8,-13 Q -8,0 -8,0" stroke="#7570b3"/><path stroke-width="1.7" class="link" fill="none" d=" M -236,0 Q -236,-13 -236,-13 A 114,114  0 0 1 -8,-13 Q -8,0 -8,0" stroke="#7570b3"/><path stroke-width="1.7" class="link" fill="none" d=" M -212,0 Q -212,-13 -212,-13 A 102,102  0 0 1 -8,-13 Q -8,0 -8,0" stroke="#7570b3"/><path stroke-width="1.7" class="link" fill="none" d=" M -8,0 Q -17.576564013118723,26.311393382005434 -8,28 A 0,0  0 0 1 -8,28 Q 1.5765640131187233,26.311393382005434 -8,0" stroke="#d95f02"/><path stroke-width="1.7" class="link" fill="none" d=" M -68,0 Q -68,-13 -68,-13 A 30,30  0 0 1 -8,-13 Q -8,0 -8,0" stroke="#7570b3"/><path stroke-width="1.7" class="link" fill="none" d=" M -108,0 Q -108,-13 -108,-13 A 34,34  0 0 1 -40,-13 Q -40,0 -40,0" stroke="#7570b3"/><path stroke-width="1.7" class="link" fill="none" d=" M -108,0 Q -108,-13 -108,-13 A 26,26  0 0 1 -56,-13 Q -56,0 -56,0" stroke="#7570b3"/><path stroke-width="1.7" class="link" fill="none" d=" M -8,0 Q -8,-13 -8,-13 A 60,60  0 0 1 112,-13 Q 112,0 112,0" stroke="#7570b3"/><path stroke-width="1.7" class="link" fill="none" d=" M -80,0 Q -80,-13 -80,-13 A 96,96  0 0 1 112,-13 Q 112,0 112,0" stroke="#7570b3"/><path stroke-width="1.7" class="link" fill="none" d=" M -236,0 Q -236,-13 -236,-13 A 78,78  0 0 1 -80,-13 Q -80,0 -80,0" stroke="#7570b3"/><path stroke-width="1.7" class="link" fill="none" d=" M -164,0 Q -164,-13 -164,-13 A 42,42  0 0 1 -80,-13 Q -80,0 -80,0" stroke="#7570b3"/><path stroke-width="1.7" class="link" fill="none" d=" M -152,0 Q -152,-13 -152,-13 A 270,270  0 0 1 388,-13 Q 388,0 388,0" stroke="#7570b3"/><path stroke-width="1.7" class="link" fill="none" d=" M -212,0 Q -212,-13 -212,-13 A 66,66  0 0 1 -80,-13 Q -80,0 -80,0" stroke="#7570b3"/><path stroke-width="1.7" class="link" fill="none" d=" M -212,0 Q -212,-13 -212,-13 A 300,300  0 0 1 388,-13 Q 388,0 388,0" stroke="#7570b3"/><path stroke-width="1.7" class="link" fill="none" d=" M -108,0 Q -108,-13 -108,-13 A 20,20  0 0 1 -68,-13 Q -68,0 -68,0" stroke="#7570b3"/><path stroke-width="1.7" class="link" fill="none" d=" M -152,0 Q -152,-13 -152,-13 A 72,72  0 0 1 -8,-13 Q -8,0 -8,0" stroke="#7570b3"/><path stroke-width="1.7" class="link" fill="none" d=" M -80,0 Q -80,-13 -80,-13 A 36,36  0 0 1 -8,-13 Q -8,0 -8,0" stroke="#7570b3"/><path stroke-width="1.7" class="link" fill="none" d=" M -80,0 Q -80,-22 -80,-22 A 6,6  0 0 1 -68,-22 Q -68,0 -68,0" stroke="#7570b3"/><path stroke-width="1.7" class="link" fill="none" d=" M -124,0 Q -124,-13 -124,-13 A 58,58  0 0 1 -8,-13 Q -8,0 -8,0" stroke="#7570b3"/><path stroke-width="1.7" class="link" fill="none" d=" M -56,0 Q -56,-13 -56,-13 A 24,24  0 0 1 -8,-13 Q -8,0 -8,0" stroke="#7570b3"/><path stroke-width="1.7" class="link" fill="none" d=" M -80,0 Q -80,-13 -80,-13 A 90,90  0 0 1 100,-13 Q 100,0 100,0" stroke="#7570b3"/><path stroke-width="1.7" class="link" fill="none" d=" M -56,0 Q -56,-13 -56,-13 A 222,222  0 0 1 388,-13 Q 388,0 388,0" stroke="#7570b3"/><path stroke-width="1.7" class="link" fill="none" d=" M -152,0 Q -152,-13 -152,-13 A 36,36  0 0 1 -80,-13 Q -80,0 -80,0" stroke="#7570b3"/><path stroke-width="1.7" class="link" fill="none" d=" M -68,0 Q -68,-13 -68,-13 A 228,228  0 0 1 388,-13 Q 388,0 388,0" stroke="#7570b3"/><path stroke-width="1.7" class="link" fill="none" d=" M -108,0 Q -108,-13 -108,-13 A 24,24  0 0 1 -60,-13 Q -60,0 -60,0" stroke="#7570b3"/><path stroke-width="1.7" class="link" fill="none" d=" M -8,0 Q -8,-13 -8,-13 A 198,198  0 0 1 388,-13 Q 388,0 388,0" stroke="#7570b3"/><path stroke-width="1.7" class="link" fill="none" d=" M -40,0 Q -40,-13 -40,-13 A 214,214  0 0 1 388,-13 Q 388,0 388,0" stroke="#7570b3"/><path stroke-width="1.7" class="link" fill="none" d=" M -40,0 Q -40,-13 -40,-13 A 16,16  0 0 1 -8,-13 Q -8,0 -8,0" stroke="#7570b3"/><path stroke-width="1.7" class="link" fill="none" d=" M 100,0 Q 100,-13 100,-13 A 144,144  0 0 1 388,-13 Q 388,0 388,0" stroke="#7570b3"/><path stroke-width="1.7" class="link" fill="none" d=" M 112,0 Q 112,-13 112,-13 A 138,138  0 0 1 388,-13 Q 388,0 388,0" stroke="#7570b3"/></g><rect stroke="black" stroke-width="1" fill="#ffffff" fill-opacity="0" x="-394" y="-10" width="792" height="20" rx="0" ry="0" stroke-opacity="1"/><g transform="scale(1,1)" opacity="1"><g transform="translate(-392 0)"><text class="xinetAxisLabel" font-family="monospace" font-size="14" text-anchor="middle" x="0" y="24">1</text></g><line x1="-356" y1="5" x2="-356" y2="10" stroke="black"/><line x1="-316" y1="5" x2="-316" y2="10" stroke="black"/><g transform="translate(-316 0)"><text class="xinetAxisLabel" font-family="monospace" font-size="14" text-anchor="middle" x="0" y="24">20</text></g><line x1="-276" y1="5" x2="-276" y2="10" stroke="black"/><line x1="-236" y1="5" x2="-236" y2="10" stroke="black"/><g transform="translate(-236 0)"><text class="xinetAxisLabel" font-family="monospace" font-size="14" text-anchor="middle" x="0" y="24">40</text></g><line x1="-196" y1="5" x2="-196" y2="10" stroke="black"/><line x1="-156" y1="5" x2="-156" y2="10" stroke="black"/><g transform="translate(-156 0)"><text class="xinetAxisLabel" font-family="monospace" font-size="14" text-anchor="middle" x="0" y="24">60</text></g><line x1="-116" y1="5" x2="-116" y2="10" stroke="black"/><line x1="-76" y1="5" x2="-76" y2="10" stroke="black"/><g transform="translate(-76 0)"><text class="xinetAxisLabel" font-family="monospace" font-size="14" text-anchor="middle" x="0" y="24">80</text></g><line x1="-36" y1="5" x2="-36" y2="10" stroke="black"/><line x1="4" y1="5" x2="4" y2="10" stroke="black"/><g transform="translate(4 0)"><text class="xinetAxisLabel" font-family="monospace" font-size="14" text-anchor="middle" x="0" y="24">100</text></g><line x1="44" y1="5" x2="44" y2="10" stroke="black"/><line x1="84" y1="5" x2="84" y2="10" stroke="black"/><g transform="translate(84 0)"><text class="xinetAxisLabel" font-family="monospace" font-size="14" text-anchor="middle" x="0" y="24">120</text></g><line x1="124" y1="5" x2="124" y2="10" stroke="black"/><line x1="164" y1="5" x2="164" y2="10" stroke="black"/><g transform="translate(164 0)"><text class="xinetAxisLabel" font-family="monospace" font-size="14" text-anchor="middle" x="0" y="24">140</text></g><line x1="204" y1="5" x2="204" y2="10" stroke="black"/><line x1="244" y1="5" x2="244" y2="10" stroke="black"/><g transform="translate(244 0)"><text class="xinetAxisLabel" font-family="monospace" font-size="14" text-anchor="middle" x="0" y="24">160</text></g><line x1="284" y1="5" x2="284" y2="10" stroke="black"/><line x1="324" y1="5" x2="324" y2="10" stroke="black"/><g transform="translate(324 0)"><text class="xinetAxisLabel" font-family="monospace" font-size="14" text-anchor="middle" x="0" y="24">180</text></g><line x1="364" y1="5" x2="364" y2="10" stroke="black"/><g transform="translate(396 0)"><text class="xinetAxisLabel" font-family="monospace" font-size="14" text-anchor="middle" x="0" y="24">198</text></g></g><text text-anchor="middle" dominant-baseline="middle" fill="black" x="0" y="0" class="protein xlv_text proteinLabel" transform="matrix(1 0 0 1 -406 0)"></text><g transform="translate(-411.5 0)"><g class="PV_rotator"/></g><g transform="translate(415.5 0)"><g class="PV_rotator"/></g></g></g></g></g></svg></svg>