<?xml version="1.0" encoding="utf-8" standalone="no"?>
<!DOCTYPE svg PUBLIC "-//W3C//DTD SVG 1.1//EN"
  "http://www.w3.org/Graphics/SVG/1.1/DTD/svg11.dtd">
<svg xmlns:xlink="http://www.w3.org/1999/xlink" width="460.8pt" height="345.6pt" viewBox="0 0 460.8 345.6" xmlns="http://www.w3.org/2000/svg" version="1.1">
 <metadata>
  <rdf:RDF xmlns:dc="http://purl.org/dc/elements/1.1/" xmlns:cc="http://creativecommons.org/ns#" xmlns:rdf="http://www.w3.org/1999/02/22-rdf-syntax-ns#">
   <cc:Work>
    <dc:type rdf:resource="http://purl.org/dc/dcmitype/StillImage"/>
    <dc:date>2022-08-11T15:18:59.704113</dc:date>
    <dc:format>image/svg+xml</dc:format>
    <dc:creator>
     <cc:Agent>
      <dc:title>Matplotlib v3.5.1, https://matplotlib.org/</dc:title>
     </cc:Agent>
    </dc:creator>
   </cc:Work>
  </rdf:RDF>
 </metadata>
 <defs>
  <style type="text/css">*{stroke-linejoin: round; stroke-linecap: butt}</style>
 </defs>
 <g id="figure_1">
  <g id="patch_1">
   <path d="M 0 345.6 
L 460.8 345.6 
L 460.8 0 
L 0 0 
z
" style="fill: #ffffff"/>
  </g>
  <g id="axes_1">
   <g id="patch_2">
    <path d="M 57.6 307.584 
L 414.72 307.584 
L 414.72 41.472 
L 57.6 41.472 
z
" style="fill: #ffffff"/>
   </g>
   <g id="PolyCollection_1">
    <path d="M 73.832727 88.488673 
L 73.832727 307.584 
L 74.048045 307.584 
L 74.237105 307.584 
L 74.289621 307.584 
L 74.483932 307.584 
L 74.783276 307.584 
L 74.841045 307.584 
L 75.523759 307.584 
L 75.641922 307.584 
L 75.886123 307.584 
L 76.046299 307.584 
L 76.279997 307.584 
L 76.411289 307.584 
L 76.41654 307.584 
L 76.419166 307.584 
L 76.71851 307.584 
L 77.075623 307.584 
L 77.503633 307.584 
L 77.558775 307.584 
L 77.716324 307.584 
L 78.144334 307.584 
L 78.551337 307.584 
L 79.097509 307.584 
L 79.622674 307.584 
L 79.995542 307.584 
L 80.066439 307.584 
L 80.076942 307.584 
L 80.336899 307.584 
L 80.641495 307.584 
L 80.694012 307.584 
L 80.730773 307.584 
L 80.809548 307.584 
L 81.003859 307.584 
L 81.061627 307.584 
L 81.106266 307.584 
L 81.187667 307.584 
L 81.376726 307.584 
L 81.447624 307.584 
L 81.836246 307.584 
L 82.161848 307.584 
L 82.282637 307.584 
L 82.461193 307.584 
L 82.807802 307.584 
L 82.813053 307.584 
L 82.941719 307.584 
L 83.451129 307.584 
L 83.453755 307.584 
L 83.952662 307.584 
L 84.120715 307.584 
L 84.207367 307.584 
L 84.330781 307.584 
L 84.74041 307.584 
L 84.871701 307.584 
L 84.876953 307.584 
L 85.123781 307.584 
L 85.333847 307.584 
L 85.34435 307.584 
L 85.396867 307.584 
L 85.517655 307.584 
L 85.567545 307.584 
L 85.693585 307.584 
L 85.761856 307.584 
L 85.845883 307.584 
L 85.882644 307.584 
L 85.898399 307.584 
L 86.118969 307.584 
L 86.279144 307.584 
L 86.455075 307.584 
L 86.476081 307.584 
L 86.578488 307.584 
L 87.127286 307.584 
L 87.177177 307.584 
L 87.405624 307.584 
L 87.641948 307.584 
L 87.865143 307.584 
L 87.972802 307.584 
L 88.077835 307.584 
L 88.518974 307.584 
L 89.175431 307.584 
L 89.185934 307.584 
L 89.417007 307.584 
L 89.613944 307.584 
L 90.189 307.584 
L 90.393814 307.584 
L 90.477841 307.584 
L 90.785062 307.584 
L 90.837579 307.584 
L 90.884844 307.584 
L 90.911102 307.584 
L 91.150052 307.584 
L 91.15793 307.584 
L 91.370622 307.584 
L 91.546552 307.584 
L 91.549178 307.584 
L 91.740863 307.584 
L 91.887909 307.584 
L 91.898413 307.584 
L 92.174124 307.584 
L 92.308042 307.584 
L 92.796445 307.584 
L 92.977627 307.584 
L 93.463405 307.584 
L 93.466031 307.584 
L 93.652465 307.584 
L 93.838898 307.584 
L 93.883537 307.584 
L 94.0831 307.584 
L 94.44809 307.584 
L 94.991636 307.584 
L 95.120302 307.584 
L 95.296232 307.584 
L 95.419646 307.584 
L 95.424897 307.584 
L 95.587699 307.584 
L 95.603454 307.584 
L 95.734745 307.584 
L 95.761003 307.584 
L 96.039341 307.584 
L 96.288794 307.584 
L 96.454221 307.584 
L 96.703675 307.584 
L 96.81396 307.584 
L 96.879605 307.584 
L 96.98989 307.584 
L 97.985078 307.584 
L 98.239783 307.584 
L 98.35532 307.584 
L 98.38683 307.584 
L 98.610025 307.584 
L 98.859478 307.584 
L 98.988144 307.584 
L 99.132564 307.584 
L 99.455541 307.584 
L 100.301057 307.584 
L 100.818345 307.584 
L 100.904997 307.584 
L 101.598215 307.584 
L 101.860798 307.584 
L 102.170645 307.584 
L 102.24942 307.584 
L 102.338698 307.584 
L 102.64592 307.584 
L 102.80347 307.584 
L 102.850734 307.584 
L 103.084433 307.584 
L 103.231479 307.584 
L 103.297125 307.584 
L 103.459926 307.584 
L 104.208287 307.584 
L 104.284436 307.584 
L 104.318571 307.584 
L 104.45774 307.584 
L 104.470869 307.584 
L 104.835859 307.584 
L 104.940892 307.584 
L 105.253366 307.584 
L 105.5212 307.584 
L 105.58422 307.584 
L 105.691879 307.584 
L 106.004352 307.584 
L 107.059934 307.584 
L 107.146586 307.584 
L 107.787288 307.584 
L 107.876566 307.584 
L 107.989477 307.584 
L 108.296698 307.584 
L 108.585539 307.584 
L 108.590791 307.584 
L 108.659062 307.584 
L 108.703701 307.584 
L 108.90589 307.584 
L 108.934774 307.584 
L 109.530837 307.584 
L 109.546592 307.584 
L 109.575476 307.584 
L 109.8118 307.584 
L 109.819678 307.584 
L 110.491889 307.584 
L 110.520773 307.584 
L 110.649439 307.584 
L 110.770227 307.584 
L 110.854253 307.584 
L 110.964538 307.584 
L 111.429309 307.584 
L 111.754912 307.584 
L 111.928216 307.584 
L 112.054256 307.584 
L 112.17767 307.584 
L 112.274825 307.584 
L 112.86301 307.584 
L 112.873514 307.584 
L 113.041566 307.584 
L 113.099335 307.584 
L 113.11509 307.584 
L 113.275265 307.584 
L 113.348788 307.584 
L 113.424937 307.584 
L 113.553603 307.584 
L 113.608745 307.584 
L 113.721656 307.584 
L 113.934347 307.584 
L 113.960606 307.584 
L 114.141788 307.584 
L 114.301963 307.584 
L 114.472642 307.584 
L 114.588178 307.584 
L 114.787741 307.584 
L 115.270893 307.584 
L 115.299777 307.584 
L 115.433694 307.584 
L 115.470456 307.584 
L 115.473082 307.584 
L 115.990369 307.584 
L 116.074396 307.584 
L 116.129538 307.584 
L 116.237197 307.584 
L 116.378992 307.584 
L 116.423631 307.584 
L 116.46827 307.584 
L 116.494528 307.584 
L 116.662581 307.584 
L 117.148359 307.584 
L 117.689279 307.584 
L 118.091031 307.584 
L 118.140921 307.584 
L 118.285342 307.584 
L 119.445957 307.584 
L 119.590377 307.584 
L 120.228453 307.584 
L 120.328235 307.584 
L 120.609198 307.584 
L 120.693225 307.584 
L 120.942678 307.584 
L 120.94793 307.584 
L 120.96631 307.584 
L 121.18688 307.584 
L 121.234145 307.584 
L 121.365436 307.584 
L 121.452088 307.584 
L 121.738303 307.584 
L 121.809201 307.584 
L 121.927363 307.584 
L 122.15581 307.584 
L 122.607452 307.584 
L 122.817518 307.584 
L 122.943558 307.584 
L 123.76019 307.584 
L 123.770693 307.584 
L 123.775945 307.584 
L 123.972882 307.584 
L 124.526931 307.584 
L 125.960632 307.584 
L 126.070917 307.584 
L 126.215337 307.584 
L 126.386016 307.584 
L 126.4149 307.584 
L 126.554069 307.584 
L 127.181641 307.584 
L 127.57289 307.584 
L 128.035035 307.584 
L 128.056042 307.584 
L 128.074422 307.584 
L 128.268734 307.584 
L 128.526065 307.584 
L 129.056481 307.584 
L 129.857359 307.584 
L 130.143574 307.584 
L 130.421911 307.584 
L 130.828914 307.584 
L 131.753205 307.584 
L 131.810973 307.584 
L 131.939639 307.584 
L 131.94489 307.584 
L 132.068304 307.584 
L 132.078808 307.584 
L 132.160208 307.584 
L 132.622354 307.584 
L 132.887562 307.584 
L 132.968963 307.584 
L 132.984718 307.584 
L 132.995221 307.584 
L 133.024105 307.584 
L 133.323449 307.584 
L 133.475747 307.584 
L 133.554522 307.584 
L 134.108571 307.584 
L 134.575968 307.584 
L 134.594349 307.584 
L 134.615356 307.584 
L 134.704634 307.584 
L 135.497634 307.584 
L 135.647306 307.584 
L 135.670938 307.584 
L 135.904637 307.584 
L 136.240742 307.584 
L 136.584726 307.584 
L 137.343589 307.584 
L 137.705954 307.584 
L 137.971162 307.584 
L 138.501579 307.584 
L 138.730026 307.584 
L 138.808801 307.584 
L 138.848188 307.584 
L 138.913834 307.584 
L 139.2053 307.584 
L 139.69633 307.584 
L 140.449942 307.584 
L 140.45782 307.584 
L 140.712525 307.584 
L 140.946223 307.584 
L 141.122154 307.584 
L 141.182548 307.584 
L 141.227187 307.584 
L 141.550163 307.584 
L 141.592177 307.584 
L 141.794365 307.584 
L 142.01756 307.584 
L 142.456073 307.584 
L 142.529597 307.584 
L 142.813186 307.584 
L 144.01844 307.584 
L 144.517347 307.584 
L 144.758923 307.584 
L 144.898092 307.584 
L 144.968989 307.584 
L 145.940545 307.584 
L 146.586498 307.584 
L 147.232452 307.584 
L 147.345362 307.584 
L 147.479279 307.584 
L 147.634203 307.584 
L 147.904663 307.584 
L 148.085845 307.584 
L 148.52961 307.584 
L 148.810573 307.584 
L 148.91298 307.584 
L 149.351493 307.584 
L 149.380378 307.584 
L 150.144493 307.584 
L 150.157622 307.584 
L 150.270533 307.584 
L 150.61189 307.584 
L 150.727426 307.584 
L 150.730052 307.584 
L 150.950622 307.584 
L 151.068784 307.584 
L 151.352373 307.584 
L 151.5178 307.584 
L 151.874913 307.584 
L 152.82021 307.584 
L 153.812772 307.584 
L 154.007084 307.584 
L 155.146692 307.584 
L 155.233344 307.584 
L 155.769013 307.584 
L 156.80884 307.584 
L 156.940132 307.584 
L 157.14232 307.584 
L 158.271426 307.584 
L 158.360704 307.584 
L 158.704687 307.584 
L 158.830727 307.584 
L 158.864862 307.584 
L 160.246047 307.584 
L 160.267054 307.584 
L 160.587404 307.584 
L 161.212351 307.584 
L 161.25699 307.584 
L 163.200102 307.584 
L 163.470562 307.584 
L 164.098134 307.584 
L 164.962031 307.584 
L 166.030742 307.584 
L 166.24606 307.584 
L 167.306894 307.584 
L 167.832059 307.584 
L 168.646066 307.584 
L 169.032062 307.584 
L 169.809307 307.584 
L 169.935346 307.584 
L 171.636882 307.584 
L 172.461391 307.584 
L 172.897278 307.584 
L 174.648705 307.584 
L 176.019386 307.584 
L 176.127045 307.584 
L 179.096854 307.584 
L 179.19401 307.584 
L 179.343682 307.584 
L 180.170817 307.584 
L 180.714363 307.584 
L 181.121367 307.584 
L 181.428588 307.584 
L 182.082419 307.584 
L 182.675856 307.584 
L 184.028156 307.584 
L 184.395772 307.584 
L 184.532315 307.584 
L 190.611103 307.584 
L 194.92271 307.584 
L 200.085085 307.584 
L 203.312225 307.584 
L 204.614635 307.584 
L 208.4746 307.584 
L 214.810719 307.584 
L 219.96259 307.584 
L 220.77397 307.584 
L 221.42255 307.584 
L 226.76348 307.584 
L 234.861529 307.584 
L 235.076847 307.584 
L 238.697861 307.584 
L 244.409034 307.584 
L 245.047109 307.584 
L 246.945582 307.584 
L 250.495699 307.584 
L 252.701393 307.584 
L 253.084764 307.584 
L 255.369233 307.584 
L 273.639733 307.584 
L 274.884374 307.584 
L 279.106703 307.584 
L 284.662952 307.584 
L 300.617473 307.584 
L 398.487273 307.584 
L 398.487273 307.584 
L 398.487273 307.584 
L 300.617473 307.584 
L 284.662952 307.584 
L 279.106703 307.584 
L 274.884374 307.584 
L 273.639733 307.584 
L 255.369233 307.584 
L 253.084764 307.584 
L 252.701393 307.584 
L 250.495699 307.584 
L 246.945582 307.584 
L 245.047109 307.584 
L 244.409034 307.584 
L 238.697861 307.584 
L 235.076847 307.584 
L 234.861529 307.584 
L 226.76348 307.584 
L 221.42255 307.584 
L 220.77397 307.584 
L 219.96259 307.584 
L 214.810719 306.99185 
L 208.4746 306.99185 
L 204.614635 306.399701 
L 203.312225 306.399701 
L 200.085085 306.399701 
L 194.92271 306.399701 
L 190.611103 305.807551 
L 184.532315 305.215402 
L 184.395772 304.623252 
L 184.028156 304.031103 
L 182.675856 304.031103 
L 182.082419 304.031103 
L 181.428588 303.438953 
L 181.121367 302.846804 
L 180.714363 302.254654 
L 180.170817 301.662505 
L 179.343682 301.662505 
L 179.19401 301.070355 
L 179.096854 301.070355 
L 176.127045 300.478206 
L 176.019386 299.886056 
L 174.648705 299.293907 
L 172.897278 299.293907 
L 172.461391 298.701757 
L 171.636882 298.701757 
L 169.935346 298.109607 
L 169.809307 298.109607 
L 169.032062 297.517458 
L 168.646066 297.517458 
L 167.832059 296.925308 
L 167.306894 296.333159 
L 166.24606 296.333159 
L 166.030742 295.741009 
L 164.962031 295.14886 
L 164.098134 294.55671 
L 163.470562 293.964561 
L 163.200102 293.372411 
L 161.25699 292.780262 
L 161.212351 292.188112 
L 160.587404 291.595963 
L 160.267054 291.003813 
L 160.246047 291.003813 
L 158.864862 290.411664 
L 158.830727 289.819514 
L 158.704687 289.227364 
L 158.360704 288.635215 
L 158.271426 288.043065 
L 157.14232 287.450916 
L 156.940132 286.858766 
L 156.80884 286.858766 
L 155.769013 286.266617 
L 155.233344 285.674467 
L 155.146692 285.082318 
L 154.007084 284.490168 
L 153.812772 283.898019 
L 152.82021 283.305869 
L 151.874913 282.71372 
L 151.5178 282.12157 
L 151.352373 282.12157 
L 151.068784 281.529421 
L 150.950622 280.937271 
L 150.730052 280.345121 
L 150.727426 279.752972 
L 150.61189 279.160822 
L 150.270533 279.160822 
L 150.157622 278.568673 
L 150.144493 277.976523 
L 149.380378 277.384374 
L 149.351493 276.792224 
L 148.91298 276.792224 
L 148.810573 276.200075 
L 148.52961 276.200075 
L 148.085845 275.607925 
L 147.904663 275.015776 
L 147.634203 274.423626 
L 147.479279 273.831477 
L 147.345362 273.239327 
L 147.232452 272.647178 
L 146.586498 272.055028 
L 145.940545 271.462879 
L 144.968989 270.870729 
L 144.898092 270.278579 
L 144.758923 269.68643 
L 144.517347 269.09428 
L 144.01844 268.502131 
L 142.813186 267.909981 
L 142.529597 267.317832 
L 142.456073 266.725682 
L 142.01756 266.133533 
L 141.794365 265.541383 
L 141.592177 264.949234 
L 141.550163 264.357084 
L 141.227187 263.764935 
L 141.182548 263.172785 
L 141.122154 262.580636 
L 140.946223 261.988486 
L 140.712525 261.396336 
L 140.45782 260.804187 
L 140.449942 260.212037 
L 139.69633 259.619888 
L 139.2053 259.027738 
L 138.913834 259.027738 
L 138.848188 258.435589 
L 138.808801 257.843439 
L 138.730026 257.25129 
L 138.501579 257.25129 
L 137.971162 256.65914 
L 137.705954 256.066991 
L 137.343589 255.474841 
L 136.584726 254.882692 
L 136.240742 254.290542 
L 135.904637 253.698393 
L 135.670938 253.106243 
L 135.647306 252.514093 
L 135.497634 251.921944 
L 134.704634 251.329794 
L 134.615356 250.737645 
L 134.594349 250.145495 
L 134.575968 249.553346 
L 134.108571 248.961196 
L 133.554522 248.961196 
L 133.475747 248.369047 
L 133.323449 247.776897 
L 133.024105 247.184748 
L 132.995221 246.592598 
L 132.984718 246.000449 
L 132.968963 245.408299 
L 132.887562 244.81615 
L 132.622354 244.224 
L 132.160208 243.63185 
L 132.078808 243.039701 
L 132.068304 242.447551 
L 131.94489 241.855402 
L 131.939639 241.263252 
L 131.810973 240.671103 
L 131.753205 240.078953 
L 130.828914 239.486804 
L 130.421911 238.894654 
L 130.143574 238.302505 
L 129.857359 237.710355 
L 129.056481 237.118206 
L 128.526065 236.526056 
L 128.268734 235.933907 
L 128.074422 235.341757 
L 128.056042 234.749607 
L 128.035035 234.157458 
L 127.57289 233.565308 
L 127.181641 232.973159 
L 126.554069 232.381009 
L 126.4149 231.78886 
L 126.386016 231.19671 
L 126.215337 230.604561 
L 126.070917 230.012411 
L 125.960632 229.420262 
L 124.526931 228.828112 
L 123.972882 228.235963 
L 123.775945 227.643813 
L 123.770693 227.051664 
L 123.76019 226.459514 
L 122.943558 225.867364 
L 122.817518 225.275215 
L 122.607452 224.683065 
L 122.15581 224.090916 
L 121.927363 223.498766 
L 121.809201 222.906617 
L 121.738303 222.314467 
L 121.452088 221.722318 
L 121.365436 221.130168 
L 121.234145 220.538019 
L 121.18688 219.945869 
L 120.96631 219.35372 
L 120.94793 218.76157 
L 120.942678 218.169421 
L 120.693225 217.577271 
L 120.609198 216.985121 
L 120.328235 216.392972 
L 120.228453 215.800822 
L 119.590377 215.208673 
L 119.445957 214.616523 
L 118.285342 214.024374 
L 118.140921 213.432224 
L 118.091031 212.840075 
L 117.689279 212.247925 
L 117.148359 211.655776 
L 116.662581 211.655776 
L 116.494528 211.063626 
L 116.46827 210.471477 
L 116.423631 209.879327 
L 116.378992 209.287178 
L 116.237197 208.695028 
L 116.129538 208.102879 
L 116.074396 207.510729 
L 115.990369 206.918579 
L 115.473082 206.32643 
L 115.470456 205.73428 
L 115.433694 205.142131 
L 115.299777 204.549981 
L 115.270893 203.957832 
L 114.787741 203.365682 
L 114.588178 202.773533 
L 114.472642 202.181383 
L 114.301963 201.589234 
L 114.141788 200.997084 
L 113.960606 200.404935 
L 113.934347 199.812785 
L 113.721656 199.220636 
L 113.608745 198.628486 
L 113.553603 198.036336 
L 113.424937 197.444187 
L 113.348788 196.852037 
L 113.275265 196.259888 
L 113.11509 195.667738 
L 113.099335 195.075589 
L 113.041566 194.483439 
L 112.873514 193.89129 
L 112.86301 193.29914 
L 112.274825 192.706991 
L 112.17767 192.114841 
L 112.054256 191.522692 
L 111.928216 190.930542 
L 111.754912 190.338393 
L 111.429309 189.746243 
L 110.964538 189.154093 
L 110.854253 188.561944 
L 110.770227 187.969794 
L 110.649439 187.377645 
L 110.520773 186.785495 
L 110.491889 186.193346 
L 109.819678 185.601196 
L 109.8118 185.009047 
L 109.575476 185.009047 
L 109.546592 184.416897 
L 109.530837 183.824748 
L 108.934774 183.824748 
L 108.90589 183.232598 
L 108.703701 182.640449 
L 108.659062 182.048299 
L 108.590791 181.45615 
L 108.585539 180.864 
L 108.296698 180.27185 
L 107.989477 179.679701 
L 107.876566 179.087551 
L 107.787288 178.495402 
L 107.146586 177.903252 
L 107.059934 177.903252 
L 106.004352 177.311103 
L 105.691879 176.718953 
L 105.58422 176.126804 
L 105.5212 175.534654 
L 105.253366 174.942505 
L 104.940892 174.350355 
L 104.835859 173.758206 
L 104.470869 173.166056 
L 104.45774 172.573907 
L 104.318571 171.981757 
L 104.284436 171.389607 
L 104.208287 170.797458 
L 103.459926 170.205308 
L 103.297125 169.613159 
L 103.231479 169.021009 
L 103.084433 168.42886 
L 102.850734 167.83671 
L 102.80347 167.244561 
L 102.64592 166.652411 
L 102.338698 166.060262 
L 102.24942 165.468112 
L 102.170645 164.875963 
L 101.860798 164.283813 
L 101.598215 163.099514 
L 100.904997 162.507364 
L 100.818345 162.507364 
L 100.301057 161.915215 
L 99.455541 161.323065 
L 99.132564 160.730916 
L 98.988144 160.138766 
L 98.859478 159.546617 
L 98.610025 158.954467 
L 98.38683 158.362318 
L 98.35532 157.770168 
L 98.239783 157.178019 
L 97.985078 156.585869 
L 96.98989 155.99372 
L 96.879605 155.40157 
L 96.81396 154.809421 
L 96.703675 154.217271 
L 96.454221 153.625121 
L 96.288794 153.625121 
L 96.039341 153.032972 
L 95.761003 152.440822 
L 95.734745 151.256523 
L 95.603454 150.664374 
L 95.587699 150.664374 
L 95.424897 150.072224 
L 95.419646 149.480075 
L 95.296232 148.887925 
L 95.120302 148.295776 
L 94.991636 147.111477 
L 94.44809 146.519327 
L 94.0831 145.927178 
L 93.883537 145.335028 
L 93.838898 144.742879 
L 93.652465 144.150729 
L 93.466031 143.558579 
L 93.463405 142.96643 
L 92.977627 142.37428 
L 92.796445 141.782131 
L 92.308042 141.189981 
L 92.174124 140.597832 
L 91.898413 140.005682 
L 91.887909 139.413533 
L 91.740863 138.821383 
L 91.549178 138.229234 
L 91.546552 137.637084 
L 91.370622 137.044935 
L 91.15793 136.452785 
L 91.150052 135.860636 
L 90.911102 135.268486 
L 90.884844 134.676336 
L 90.837579 134.084187 
L 90.785062 133.492037 
L 90.477841 132.899888 
L 90.393814 132.307738 
L 90.189 131.715589 
L 89.613944 131.123439 
L 89.417007 130.53129 
L 89.185934 129.93914 
L 89.175431 129.346991 
L 88.518974 128.754841 
L 88.077835 128.162692 
L 87.972802 127.570542 
L 87.865143 126.978393 
L 87.641948 126.386243 
L 87.405624 125.794093 
L 87.177177 125.201944 
L 87.127286 124.609794 
L 86.578488 124.017645 
L 86.476081 123.425495 
L 86.455075 122.833346 
L 86.279144 122.241196 
L 86.118969 121.649047 
L 85.898399 121.056897 
L 85.882644 121.056897 
L 85.845883 120.464748 
L 85.761856 119.872598 
L 85.693585 119.280449 
L 85.567545 118.688299 
L 85.517655 118.09615 
L 85.396867 117.504 
L 85.34435 116.91185 
L 85.333847 116.319701 
L 85.123781 115.727551 
L 84.876953 115.135402 
L 84.871701 114.543252 
L 84.74041 113.951103 
L 84.330781 113.358953 
L 84.207367 112.766804 
L 84.120715 112.174654 
L 83.952662 111.582505 
L 83.453755 110.990355 
L 83.451129 110.398206 
L 82.941719 110.398206 
L 82.813053 109.806056 
L 82.807802 109.213907 
L 82.461193 108.621757 
L 82.282637 108.029607 
L 82.161848 107.437458 
L 81.836246 106.845308 
L 81.447624 106.253159 
L 81.376726 105.661009 
L 81.187667 105.06886 
L 81.106266 105.06886 
L 81.061627 104.47671 
L 81.003859 103.884561 
L 80.809548 103.884561 
L 80.730773 103.292411 
L 80.694012 102.700262 
L 80.641495 102.700262 
L 80.336899 102.108112 
L 80.076942 101.515963 
L 80.066439 100.923813 
L 79.995542 100.331664 
L 79.622674 99.739514 
L 79.097509 99.147364 
L 78.551337 98.555215 
L 78.144334 97.963065 
L 77.716324 97.370916 
L 77.558775 96.778766 
L 77.503633 96.186617 
L 77.075623 95.594467 
L 76.71851 95.002318 
L 76.419166 94.410168 
L 76.41654 93.818019 
L 76.411289 93.225869 
L 76.279997 92.63372 
L 76.046299 92.63372 
L 75.886123 92.04157 
L 75.641922 91.449421 
L 75.523759 90.857271 
L 74.841045 90.857271 
L 74.783276 90.265121 
L 74.483932 89.672972 
L 74.289621 89.080822 
L 74.237105 88.488673 
L 74.048045 88.488673 
L 73.832727 88.488673 
z
" clip-path="url(#pefa544cd58)" style="fill: #008000"/>
   </g>
   <g id="PolyCollection_2">
    <path d="M 73.832727 60.657645 
L 73.832727 88.488673 
L 74.048045 88.488673 
L 74.237105 88.488673 
L 74.289621 89.080822 
L 74.483932 89.672972 
L 74.783276 90.265121 
L 74.841045 90.857271 
L 75.523759 90.857271 
L 75.641922 91.449421 
L 75.886123 92.04157 
L 76.046299 92.63372 
L 76.279997 92.63372 
L 76.411289 93.225869 
L 76.41654 93.818019 
L 76.419166 94.410168 
L 76.71851 95.002318 
L 77.075623 95.594467 
L 77.503633 96.186617 
L 77.558775 96.778766 
L 77.716324 97.370916 
L 78.144334 97.963065 
L 78.551337 98.555215 
L 79.097509 99.147364 
L 79.622674 99.739514 
L 79.995542 100.331664 
L 80.066439 100.923813 
L 80.076942 101.515963 
L 80.336899 102.108112 
L 80.641495 102.700262 
L 80.694012 102.700262 
L 80.730773 103.292411 
L 80.809548 103.884561 
L 81.003859 103.884561 
L 81.061627 104.47671 
L 81.106266 105.06886 
L 81.187667 105.06886 
L 81.376726 105.661009 
L 81.447624 106.253159 
L 81.836246 106.845308 
L 82.161848 107.437458 
L 82.282637 108.029607 
L 82.461193 108.621757 
L 82.807802 109.213907 
L 82.813053 109.806056 
L 82.941719 110.398206 
L 83.451129 110.398206 
L 83.453755 110.990355 
L 83.952662 111.582505 
L 84.120715 112.174654 
L 84.207367 112.766804 
L 84.330781 113.358953 
L 84.74041 113.951103 
L 84.871701 114.543252 
L 84.876953 115.135402 
L 85.123781 115.727551 
L 85.333847 116.319701 
L 85.34435 116.91185 
L 85.396867 117.504 
L 85.517655 118.09615 
L 85.567545 118.688299 
L 85.693585 119.280449 
L 85.761856 119.872598 
L 85.845883 120.464748 
L 85.882644 121.056897 
L 85.898399 121.056897 
L 86.118969 121.649047 
L 86.279144 122.241196 
L 86.455075 122.833346 
L 86.476081 123.425495 
L 86.578488 124.017645 
L 87.127286 124.609794 
L 87.177177 125.201944 
L 87.405624 125.794093 
L 87.641948 126.386243 
L 87.865143 126.978393 
L 87.972802 127.570542 
L 88.077835 128.162692 
L 88.518974 128.754841 
L 89.175431 129.346991 
L 89.185934 129.93914 
L 89.417007 130.53129 
L 89.613944 131.123439 
L 90.189 131.715589 
L 90.393814 132.307738 
L 90.477841 132.899888 
L 90.785062 133.492037 
L 90.837579 134.084187 
L 90.884844 134.676336 
L 90.911102 135.268486 
L 91.150052 135.860636 
L 91.15793 136.452785 
L 91.370622 137.044935 
L 91.546552 137.637084 
L 91.549178 138.229234 
L 91.740863 138.821383 
L 91.887909 139.413533 
L 91.898413 140.005682 
L 92.174124 140.597832 
L 92.308042 141.189981 
L 92.796445 141.782131 
L 92.977627 142.37428 
L 93.463405 142.96643 
L 93.466031 143.558579 
L 93.652465 144.150729 
L 93.838898 144.742879 
L 93.883537 145.335028 
L 94.0831 145.927178 
L 94.44809 146.519327 
L 94.991636 147.111477 
L 95.120302 148.295776 
L 95.296232 148.887925 
L 95.419646 149.480075 
L 95.424897 150.072224 
L 95.587699 150.664374 
L 95.603454 150.664374 
L 95.734745 151.256523 
L 95.761003 152.440822 
L 96.039341 153.032972 
L 96.288794 153.625121 
L 96.454221 153.625121 
L 96.703675 154.217271 
L 96.81396 154.809421 
L 96.879605 155.40157 
L 96.98989 155.99372 
L 97.985078 156.585869 
L 98.239783 157.178019 
L 98.35532 157.770168 
L 98.38683 158.362318 
L 98.610025 158.954467 
L 98.859478 159.546617 
L 98.988144 160.138766 
L 99.132564 160.730916 
L 99.455541 161.323065 
L 100.301057 161.915215 
L 100.818345 162.507364 
L 100.904997 162.507364 
L 101.598215 163.099514 
L 101.860798 164.283813 
L 102.170645 164.875963 
L 102.24942 165.468112 
L 102.338698 166.060262 
L 102.64592 166.652411 
L 102.80347 167.244561 
L 102.850734 167.83671 
L 103.084433 168.42886 
L 103.231479 169.021009 
L 103.297125 169.613159 
L 103.459926 170.205308 
L 104.208287 170.797458 
L 104.284436 171.389607 
L 104.318571 171.981757 
L 104.45774 172.573907 
L 104.470869 173.166056 
L 104.835859 173.758206 
L 104.940892 174.350355 
L 105.253366 174.942505 
L 105.5212 175.534654 
L 105.58422 176.126804 
L 105.691879 176.718953 
L 106.004352 177.311103 
L 107.059934 177.903252 
L 107.146586 177.903252 
L 107.787288 178.495402 
L 107.876566 179.087551 
L 107.989477 179.679701 
L 108.296698 180.27185 
L 108.585539 180.864 
L 108.590791 181.45615 
L 108.659062 182.048299 
L 108.703701 182.640449 
L 108.90589 183.232598 
L 108.934774 183.824748 
L 109.530837 183.824748 
L 109.546592 184.416897 
L 109.575476 185.009047 
L 109.8118 185.009047 
L 109.819678 185.601196 
L 110.491889 186.193346 
L 110.520773 186.785495 
L 110.649439 187.377645 
L 110.770227 187.969794 
L 110.854253 188.561944 
L 110.964538 189.154093 
L 111.429309 189.746243 
L 111.754912 190.338393 
L 111.928216 190.930542 
L 112.054256 191.522692 
L 112.17767 192.114841 
L 112.274825 192.706991 
L 112.86301 193.29914 
L 112.873514 193.89129 
L 113.041566 194.483439 
L 113.099335 195.075589 
L 113.11509 195.667738 
L 113.275265 196.259888 
L 113.348788 196.852037 
L 113.424937 197.444187 
L 113.553603 198.036336 
L 113.608745 198.628486 
L 113.721656 199.220636 
L 113.934347 199.812785 
L 113.960606 200.404935 
L 114.141788 200.997084 
L 114.301963 201.589234 
L 114.472642 202.181383 
L 114.588178 202.773533 
L 114.787741 203.365682 
L 115.270893 203.957832 
L 115.299777 204.549981 
L 115.433694 205.142131 
L 115.470456 205.73428 
L 115.473082 206.32643 
L 115.990369 206.918579 
L 116.074396 207.510729 
L 116.129538 208.102879 
L 116.237197 208.695028 
L 116.378992 209.287178 
L 116.423631 209.879327 
L 116.46827 210.471477 
L 116.494528 211.063626 
L 116.662581 211.655776 
L 117.148359 211.655776 
L 117.689279 212.247925 
L 118.091031 212.840075 
L 118.140921 213.432224 
L 118.285342 214.024374 
L 119.445957 214.616523 
L 119.590377 215.208673 
L 120.228453 215.800822 
L 120.328235 216.392972 
L 120.609198 216.985121 
L 120.693225 217.577271 
L 120.942678 218.169421 
L 120.94793 218.76157 
L 120.96631 219.35372 
L 121.18688 219.945869 
L 121.234145 220.538019 
L 121.365436 221.130168 
L 121.452088 221.722318 
L 121.738303 222.314467 
L 121.809201 222.906617 
L 121.927363 223.498766 
L 122.15581 224.090916 
L 122.607452 224.683065 
L 122.817518 225.275215 
L 122.943558 225.867364 
L 123.76019 226.459514 
L 123.770693 227.051664 
L 123.775945 227.643813 
L 123.972882 228.235963 
L 124.526931 228.828112 
L 125.960632 229.420262 
L 126.070917 230.012411 
L 126.215337 230.604561 
L 126.386016 231.19671 
L 126.4149 231.78886 
L 126.554069 232.381009 
L 127.181641 232.973159 
L 127.57289 233.565308 
L 128.035035 234.157458 
L 128.056042 234.749607 
L 128.074422 235.341757 
L 128.268734 235.933907 
L 128.526065 236.526056 
L 129.056481 237.118206 
L 129.857359 237.710355 
L 130.143574 238.302505 
L 130.421911 238.894654 
L 130.828914 239.486804 
L 131.753205 240.078953 
L 131.810973 240.671103 
L 131.939639 241.263252 
L 131.94489 241.855402 
L 132.068304 242.447551 
L 132.078808 243.039701 
L 132.160208 243.63185 
L 132.622354 244.224 
L 132.887562 244.81615 
L 132.968963 245.408299 
L 132.984718 246.000449 
L 132.995221 246.592598 
L 133.024105 247.184748 
L 133.323449 247.776897 
L 133.475747 248.369047 
L 133.554522 248.961196 
L 134.108571 248.961196 
L 134.575968 249.553346 
L 134.594349 250.145495 
L 134.615356 250.737645 
L 134.704634 251.329794 
L 135.497634 251.921944 
L 135.647306 252.514093 
L 135.670938 253.106243 
L 135.904637 253.698393 
L 136.240742 254.290542 
L 136.584726 254.882692 
L 137.343589 255.474841 
L 137.705954 256.066991 
L 137.971162 256.65914 
L 138.501579 257.25129 
L 138.730026 257.25129 
L 138.808801 257.843439 
L 138.848188 258.435589 
L 138.913834 259.027738 
L 139.2053 259.027738 
L 139.69633 259.619888 
L 140.449942 260.212037 
L 140.45782 260.804187 
L 140.712525 261.396336 
L 140.946223 261.988486 
L 141.122154 262.580636 
L 141.182548 263.172785 
L 141.227187 263.764935 
L 141.550163 264.357084 
L 141.592177 264.949234 
L 141.794365 265.541383 
L 142.01756 266.133533 
L 142.456073 266.725682 
L 142.529597 267.317832 
L 142.813186 267.909981 
L 144.01844 268.502131 
L 144.517347 269.09428 
L 144.758923 269.68643 
L 144.898092 270.278579 
L 144.968989 270.870729 
L 145.940545 271.462879 
L 146.586498 272.055028 
L 147.232452 272.647178 
L 147.345362 273.239327 
L 147.479279 273.831477 
L 147.634203 274.423626 
L 147.904663 275.015776 
L 148.085845 275.607925 
L 148.52961 276.200075 
L 148.810573 276.200075 
L 148.91298 276.792224 
L 149.351493 276.792224 
L 149.380378 277.384374 
L 150.144493 277.976523 
L 150.157622 278.568673 
L 150.270533 279.160822 
L 150.61189 279.160822 
L 150.727426 279.752972 
L 150.730052 280.345121 
L 150.950622 280.937271 
L 151.068784 281.529421 
L 151.352373 282.12157 
L 151.5178 282.12157 
L 151.874913 282.71372 
L 152.82021 283.305869 
L 153.812772 283.898019 
L 154.007084 284.490168 
L 155.146692 285.082318 
L 155.233344 285.674467 
L 155.769013 286.266617 
L 156.80884 286.858766 
L 156.940132 286.858766 
L 157.14232 287.450916 
L 158.271426 288.043065 
L 158.360704 288.635215 
L 158.704687 289.227364 
L 158.830727 289.819514 
L 158.864862 290.411664 
L 160.246047 291.003813 
L 160.267054 291.003813 
L 160.587404 291.595963 
L 161.212351 292.188112 
L 161.25699 292.780262 
L 163.200102 293.372411 
L 163.470562 293.964561 
L 164.098134 294.55671 
L 164.962031 295.14886 
L 166.030742 295.741009 
L 166.24606 296.333159 
L 167.306894 296.333159 
L 167.832059 296.925308 
L 168.646066 297.517458 
L 169.032062 297.517458 
L 169.809307 298.109607 
L 169.935346 298.109607 
L 171.636882 298.701757 
L 172.461391 298.701757 
L 172.897278 299.293907 
L 174.648705 299.293907 
L 176.019386 299.886056 
L 176.127045 300.478206 
L 179.096854 301.070355 
L 179.19401 301.070355 
L 179.343682 301.662505 
L 180.170817 301.662505 
L 180.714363 302.254654 
L 181.121367 302.846804 
L 181.428588 303.438953 
L 182.082419 304.031103 
L 182.675856 304.031103 
L 184.028156 304.031103 
L 184.395772 304.623252 
L 184.532315 305.215402 
L 190.611103 305.807551 
L 194.92271 306.399701 
L 200.085085 306.399701 
L 203.312225 306.399701 
L 204.614635 306.399701 
L 208.4746 306.99185 
L 214.810719 306.99185 
L 219.96259 307.584 
L 220.77397 307.584 
L 221.42255 307.584 
L 226.76348 307.584 
L 234.861529 307.584 
L 235.076847 307.584 
L 238.697861 307.584 
L 244.409034 307.584 
L 245.047109 307.584 
L 246.945582 307.584 
L 250.495699 307.584 
L 252.701393 307.584 
L 253.084764 307.584 
L 255.369233 307.584 
L 273.639733 307.584 
L 274.884374 307.584 
L 279.106703 307.584 
L 284.662952 307.584 
L 300.617473 307.584 
L 398.487273 307.584 
L 398.487273 306.99185 
L 398.487273 306.99185 
L 300.617473 306.399701 
L 284.662952 305.807551 
L 279.106703 305.215402 
L 274.884374 304.623252 
L 273.639733 304.031103 
L 255.369233 303.438953 
L 253.084764 302.846804 
L 252.701393 302.254654 
L 250.495699 301.662505 
L 246.945582 301.070355 
L 245.047109 300.478206 
L 244.409034 299.886056 
L 238.697861 299.293907 
L 235.076847 298.701757 
L 234.861529 298.109607 
L 226.76348 297.517458 
L 221.42255 296.925308 
L 220.77397 296.333159 
L 219.96259 295.741009 
L 214.810719 295.14886 
L 208.4746 294.55671 
L 204.614635 293.964561 
L 203.312225 293.372411 
L 200.085085 292.780262 
L 194.92271 292.188112 
L 190.611103 291.595963 
L 184.532315 291.003813 
L 184.395772 290.411664 
L 184.028156 289.819514 
L 182.675856 289.227364 
L 182.082419 288.635215 
L 181.428588 288.043065 
L 181.121367 287.450916 
L 180.714363 286.858766 
L 180.170817 286.266617 
L 179.343682 285.674467 
L 179.19401 285.082318 
L 179.096854 284.490168 
L 176.127045 283.898019 
L 176.019386 283.305869 
L 174.648705 282.71372 
L 172.897278 282.12157 
L 172.461391 281.529421 
L 171.636882 280.937271 
L 169.935346 280.345121 
L 169.809307 279.752972 
L 169.032062 279.160822 
L 168.646066 278.568673 
L 167.832059 277.976523 
L 167.306894 277.384374 
L 166.24606 276.792224 
L 166.030742 276.200075 
L 164.962031 275.607925 
L 164.098134 275.015776 
L 163.470562 274.423626 
L 163.200102 273.831477 
L 161.25699 273.239327 
L 161.212351 272.647178 
L 160.587404 272.055028 
L 160.267054 271.462879 
L 160.246047 270.870729 
L 158.864862 270.278579 
L 158.830727 269.68643 
L 158.704687 269.09428 
L 158.360704 268.502131 
L 158.271426 267.909981 
L 157.14232 267.317832 
L 156.940132 266.725682 
L 156.80884 266.133533 
L 155.769013 265.541383 
L 155.233344 264.949234 
L 155.146692 264.357084 
L 154.007084 263.764935 
L 153.812772 263.172785 
L 152.82021 262.580636 
L 151.874913 261.988486 
L 151.5178 261.396336 
L 151.352373 260.804187 
L 151.068784 260.212037 
L 150.950622 259.619888 
L 150.730052 259.027738 
L 150.727426 258.435589 
L 150.61189 257.843439 
L 150.270533 257.25129 
L 150.157622 256.65914 
L 150.144493 256.066991 
L 149.380378 255.474841 
L 149.351493 254.882692 
L 148.91298 254.290542 
L 148.810573 253.698393 
L 148.52961 253.106243 
L 148.085845 252.514093 
L 147.904663 251.921944 
L 147.634203 251.329794 
L 147.479279 250.737645 
L 147.345362 250.145495 
L 147.232452 249.553346 
L 146.586498 248.961196 
L 145.940545 248.369047 
L 144.968989 247.776897 
L 144.898092 247.184748 
L 144.758923 246.592598 
L 144.517347 246.000449 
L 144.01844 245.408299 
L 142.813186 244.81615 
L 142.529597 244.224 
L 142.456073 243.63185 
L 142.01756 243.039701 
L 141.794365 242.447551 
L 141.592177 241.855402 
L 141.550163 241.263252 
L 141.227187 240.671103 
L 141.182548 240.078953 
L 141.122154 239.486804 
L 140.946223 238.894654 
L 140.712525 238.302505 
L 140.45782 237.710355 
L 140.449942 237.118206 
L 139.69633 236.526056 
L 139.2053 235.933907 
L 138.913834 235.341757 
L 138.848188 234.749607 
L 138.808801 234.157458 
L 138.730026 233.565308 
L 138.501579 232.973159 
L 137.971162 232.381009 
L 137.705954 231.78886 
L 137.343589 231.19671 
L 136.584726 230.604561 
L 136.240742 230.012411 
L 135.904637 229.420262 
L 135.670938 228.828112 
L 135.647306 228.235963 
L 135.497634 227.643813 
L 134.704634 227.051664 
L 134.615356 226.459514 
L 134.594349 225.867364 
L 134.575968 225.275215 
L 134.108571 224.683065 
L 133.554522 224.090916 
L 133.475747 223.498766 
L 133.323449 222.906617 
L 133.024105 222.314467 
L 132.995221 221.722318 
L 132.984718 221.130168 
L 132.968963 220.538019 
L 132.887562 219.945869 
L 132.622354 219.35372 
L 132.160208 218.76157 
L 132.078808 218.169421 
L 132.068304 217.577271 
L 131.94489 216.985121 
L 131.939639 216.392972 
L 131.810973 215.800822 
L 131.753205 215.208673 
L 130.828914 214.616523 
L 130.421911 214.024374 
L 130.143574 213.432224 
L 129.857359 212.840075 
L 129.056481 212.247925 
L 128.526065 211.655776 
L 128.268734 211.063626 
L 128.074422 210.471477 
L 128.056042 209.879327 
L 128.035035 209.287178 
L 127.57289 208.695028 
L 127.181641 208.102879 
L 126.554069 207.510729 
L 126.4149 206.918579 
L 126.386016 206.32643 
L 126.215337 205.73428 
L 126.070917 205.142131 
L 125.960632 204.549981 
L 124.526931 203.957832 
L 123.972882 203.365682 
L 123.775945 202.773533 
L 123.770693 202.181383 
L 123.76019 201.589234 
L 122.943558 200.997084 
L 122.817518 200.404935 
L 122.607452 199.812785 
L 122.15581 199.220636 
L 121.927363 198.628486 
L 121.809201 198.036336 
L 121.738303 197.444187 
L 121.452088 196.852037 
L 121.365436 196.259888 
L 121.234145 195.667738 
L 121.18688 195.075589 
L 120.96631 194.483439 
L 120.94793 193.89129 
L 120.942678 193.29914 
L 120.693225 192.706991 
L 120.609198 192.114841 
L 120.328235 191.522692 
L 120.228453 190.930542 
L 119.590377 190.338393 
L 119.445957 189.746243 
L 118.285342 189.154093 
L 118.140921 188.561944 
L 118.091031 187.969794 
L 117.689279 187.377645 
L 117.148359 186.785495 
L 116.662581 186.193346 
L 116.494528 185.601196 
L 116.46827 185.009047 
L 116.423631 184.416897 
L 116.378992 183.824748 
L 116.237197 183.232598 
L 116.129538 182.640449 
L 116.074396 182.048299 
L 115.990369 181.45615 
L 115.473082 180.864 
L 115.470456 180.27185 
L 115.433694 179.679701 
L 115.299777 179.087551 
L 115.270893 178.495402 
L 114.787741 177.903252 
L 114.588178 177.311103 
L 114.472642 176.718953 
L 114.301963 176.126804 
L 114.141788 175.534654 
L 113.960606 174.942505 
L 113.934347 174.350355 
L 113.721656 173.758206 
L 113.608745 173.166056 
L 113.553603 172.573907 
L 113.424937 171.981757 
L 113.348788 171.389607 
L 113.275265 170.797458 
L 113.11509 170.205308 
L 113.099335 169.613159 
L 113.041566 169.021009 
L 112.873514 168.42886 
L 112.86301 167.83671 
L 112.274825 167.244561 
L 112.17767 166.652411 
L 112.054256 166.060262 
L 111.928216 165.468112 
L 111.754912 164.875963 
L 111.429309 164.283813 
L 110.964538 163.691664 
L 110.854253 163.099514 
L 110.770227 162.507364 
L 110.649439 161.915215 
L 110.520773 161.323065 
L 110.491889 160.730916 
L 109.819678 160.138766 
L 109.8118 159.546617 
L 109.575476 158.954467 
L 109.546592 158.362318 
L 109.530837 157.770168 
L 108.934774 157.178019 
L 108.90589 156.585869 
L 108.703701 155.99372 
L 108.659062 155.40157 
L 108.590791 154.809421 
L 108.585539 154.217271 
L 108.296698 153.625121 
L 107.989477 153.032972 
L 107.876566 152.440822 
L 107.787288 151.848673 
L 107.146586 151.256523 
L 107.059934 150.664374 
L 106.004352 150.072224 
L 105.691879 149.480075 
L 105.58422 148.887925 
L 105.5212 148.295776 
L 105.253366 147.703626 
L 104.940892 147.111477 
L 104.835859 146.519327 
L 104.470869 145.927178 
L 104.45774 145.335028 
L 104.318571 144.742879 
L 104.284436 144.150729 
L 104.208287 143.558579 
L 103.459926 142.96643 
L 103.297125 142.37428 
L 103.231479 141.782131 
L 103.084433 141.189981 
L 102.850734 140.597832 
L 102.80347 140.005682 
L 102.64592 139.413533 
L 102.338698 138.821383 
L 102.24942 138.229234 
L 102.170645 137.637084 
L 101.860798 137.044935 
L 101.598215 135.860636 
L 100.904997 135.268486 
L 100.818345 135.268486 
L 100.301057 134.676336 
L 99.455541 134.084187 
L 99.132564 133.492037 
L 98.988144 132.899888 
L 98.859478 132.307738 
L 98.610025 131.715589 
L 98.38683 131.123439 
L 98.35532 130.53129 
L 98.239783 129.93914 
L 97.985078 129.346991 
L 96.98989 128.754841 
L 96.879605 128.162692 
L 96.81396 127.570542 
L 96.703675 126.978393 
L 96.454221 126.386243 
L 96.288794 125.794093 
L 96.039341 125.201944 
L 95.761003 124.609794 
L 95.734745 123.425495 
L 95.603454 122.833346 
L 95.587699 122.833346 
L 95.424897 122.241196 
L 95.419646 121.649047 
L 95.296232 121.056897 
L 95.120302 120.464748 
L 94.991636 119.280449 
L 94.44809 118.688299 
L 94.0831 118.09615 
L 93.883537 117.504 
L 93.838898 116.91185 
L 93.652465 116.319701 
L 93.466031 115.727551 
L 93.463405 115.135402 
L 92.977627 114.543252 
L 92.796445 113.951103 
L 92.308042 113.358953 
L 92.174124 112.766804 
L 91.898413 112.174654 
L 91.887909 111.582505 
L 91.740863 110.990355 
L 91.549178 110.398206 
L 91.546552 109.806056 
L 91.370622 109.213907 
L 91.15793 108.621757 
L 91.150052 108.029607 
L 90.911102 107.437458 
L 90.884844 106.845308 
L 90.837579 106.253159 
L 90.785062 105.661009 
L 90.477841 105.06886 
L 90.393814 104.47671 
L 90.189 103.884561 
L 89.613944 103.292411 
L 89.417007 102.700262 
L 89.185934 102.108112 
L 89.175431 101.515963 
L 88.518974 100.923813 
L 88.077835 100.331664 
L 87.972802 99.739514 
L 87.865143 99.147364 
L 87.641948 98.555215 
L 87.405624 97.963065 
L 87.177177 97.370916 
L 87.127286 96.778766 
L 86.578488 96.186617 
L 86.476081 95.594467 
L 86.455075 95.002318 
L 86.279144 94.410168 
L 86.118969 93.818019 
L 85.898399 93.225869 
L 85.882644 93.225869 
L 85.845883 92.63372 
L 85.761856 92.04157 
L 85.693585 91.449421 
L 85.567545 90.857271 
L 85.517655 90.265121 
L 85.396867 89.672972 
L 85.34435 89.080822 
L 85.333847 88.488673 
L 85.123781 87.896523 
L 84.876953 87.304374 
L 84.871701 86.712224 
L 84.74041 86.120075 
L 84.330781 85.527925 
L 84.207367 84.935776 
L 84.120715 84.343626 
L 83.952662 83.751477 
L 83.453755 83.159327 
L 83.451129 82.567178 
L 82.941719 82.567178 
L 82.813053 81.975028 
L 82.807802 81.382879 
L 82.461193 80.790729 
L 82.282637 80.198579 
L 82.161848 79.60643 
L 81.836246 79.01428 
L 81.447624 78.422131 
L 81.376726 77.829981 
L 81.187667 77.237832 
L 81.106266 77.237832 
L 81.061627 76.645682 
L 81.003859 76.053533 
L 80.809548 76.053533 
L 80.730773 75.461383 
L 80.694012 74.869234 
L 80.641495 74.869234 
L 80.336899 74.277084 
L 80.076942 73.684935 
L 80.066439 73.092785 
L 79.995542 72.500636 
L 79.622674 71.908486 
L 79.097509 71.316336 
L 78.551337 70.724187 
L 78.144334 70.132037 
L 77.716324 69.539888 
L 77.558775 68.947738 
L 77.503633 68.355589 
L 77.075623 67.763439 
L 76.71851 67.17129 
L 76.419166 66.57914 
L 76.41654 65.986991 
L 76.411289 65.394841 
L 76.279997 64.802692 
L 76.046299 64.802692 
L 75.886123 64.210542 
L 75.641922 63.618393 
L 75.523759 63.026243 
L 74.841045 63.026243 
L 74.783276 62.434093 
L 74.483932 61.841944 
L 74.289621 61.249794 
L 74.237105 60.657645 
L 74.048045 60.657645 
L 73.832727 60.657645 
z
" clip-path="url(#pefa544cd58)" style="fill: #7cfc00"/>
   </g>
   <g id="PolyCollection_3">
    <path d="M 73.832727 54.144 
L 73.832727 60.657645 
L 74.048045 60.657645 
L 74.237105 60.657645 
L 74.289621 61.249794 
L 74.483932 61.841944 
L 74.783276 62.434093 
L 74.841045 63.026243 
L 75.523759 63.026243 
L 75.641922 63.618393 
L 75.886123 64.210542 
L 76.046299 64.802692 
L 76.279997 64.802692 
L 76.411289 65.394841 
L 76.41654 65.986991 
L 76.419166 66.57914 
L 76.71851 67.17129 
L 77.075623 67.763439 
L 77.503633 68.355589 
L 77.558775 68.947738 
L 77.716324 69.539888 
L 78.144334 70.132037 
L 78.551337 70.724187 
L 79.097509 71.316336 
L 79.622674 71.908486 
L 79.995542 72.500636 
L 80.066439 73.092785 
L 80.076942 73.684935 
L 80.336899 74.277084 
L 80.641495 74.869234 
L 80.694012 74.869234 
L 80.730773 75.461383 
L 80.809548 76.053533 
L 81.003859 76.053533 
L 81.061627 76.645682 
L 81.106266 77.237832 
L 81.187667 77.237832 
L 81.376726 77.829981 
L 81.447624 78.422131 
L 81.836246 79.01428 
L 82.161848 79.60643 
L 82.282637 80.198579 
L 82.461193 80.790729 
L 82.807802 81.382879 
L 82.813053 81.975028 
L 82.941719 82.567178 
L 83.451129 82.567178 
L 83.453755 83.159327 
L 83.952662 83.751477 
L 84.120715 84.343626 
L 84.207367 84.935776 
L 84.330781 85.527925 
L 84.74041 86.120075 
L 84.871701 86.712224 
L 84.876953 87.304374 
L 85.123781 87.896523 
L 85.333847 88.488673 
L 85.34435 89.080822 
L 85.396867 89.672972 
L 85.517655 90.265121 
L 85.567545 90.857271 
L 85.693585 91.449421 
L 85.761856 92.04157 
L 85.845883 92.63372 
L 85.882644 93.225869 
L 85.898399 93.225869 
L 86.118969 93.818019 
L 86.279144 94.410168 
L 86.455075 95.002318 
L 86.476081 95.594467 
L 86.578488 96.186617 
L 87.127286 96.778766 
L 87.177177 97.370916 
L 87.405624 97.963065 
L 87.641948 98.555215 
L 87.865143 99.147364 
L 87.972802 99.739514 
L 88.077835 100.331664 
L 88.518974 100.923813 
L 89.175431 101.515963 
L 89.185934 102.108112 
L 89.417007 102.700262 
L 89.613944 103.292411 
L 90.189 103.884561 
L 90.393814 104.47671 
L 90.477841 105.06886 
L 90.785062 105.661009 
L 90.837579 106.253159 
L 90.884844 106.845308 
L 90.911102 107.437458 
L 91.150052 108.029607 
L 91.15793 108.621757 
L 91.370622 109.213907 
L 91.546552 109.806056 
L 91.549178 110.398206 
L 91.740863 110.990355 
L 91.887909 111.582505 
L 91.898413 112.174654 
L 92.174124 112.766804 
L 92.308042 113.358953 
L 92.796445 113.951103 
L 92.977627 114.543252 
L 93.463405 115.135402 
L 93.466031 115.727551 
L 93.652465 116.319701 
L 93.838898 116.91185 
L 93.883537 117.504 
L 94.0831 118.09615 
L 94.44809 118.688299 
L 94.991636 119.280449 
L 95.120302 120.464748 
L 95.296232 121.056897 
L 95.419646 121.649047 
L 95.424897 122.241196 
L 95.587699 122.833346 
L 95.603454 122.833346 
L 95.734745 123.425495 
L 95.761003 124.609794 
L 96.039341 125.201944 
L 96.288794 125.794093 
L 96.454221 126.386243 
L 96.703675 126.978393 
L 96.81396 127.570542 
L 96.879605 128.162692 
L 96.98989 128.754841 
L 97.985078 129.346991 
L 98.239783 129.93914 
L 98.35532 130.53129 
L 98.38683 131.123439 
L 98.610025 131.715589 
L 98.859478 132.307738 
L 98.988144 132.899888 
L 99.132564 133.492037 
L 99.455541 134.084187 
L 100.301057 134.676336 
L 100.818345 135.268486 
L 100.904997 135.268486 
L 101.598215 135.860636 
L 101.860798 137.044935 
L 102.170645 137.637084 
L 102.24942 138.229234 
L 102.338698 138.821383 
L 102.64592 139.413533 
L 102.80347 140.005682 
L 102.850734 140.597832 
L 103.084433 141.189981 
L 103.231479 141.782131 
L 103.297125 142.37428 
L 103.459926 142.96643 
L 104.208287 143.558579 
L 104.284436 144.150729 
L 104.318571 144.742879 
L 104.45774 145.335028 
L 104.470869 145.927178 
L 104.835859 146.519327 
L 104.940892 147.111477 
L 105.253366 147.703626 
L 105.5212 148.295776 
L 105.58422 148.887925 
L 105.691879 149.480075 
L 106.004352 150.072224 
L 107.059934 150.664374 
L 107.146586 151.256523 
L 107.787288 151.848673 
L 107.876566 152.440822 
L 107.989477 153.032972 
L 108.296698 153.625121 
L 108.585539 154.217271 
L 108.590791 154.809421 
L 108.659062 155.40157 
L 108.703701 155.99372 
L 108.90589 156.585869 
L 108.934774 157.178019 
L 109.530837 157.770168 
L 109.546592 158.362318 
L 109.575476 158.954467 
L 109.8118 159.546617 
L 109.819678 160.138766 
L 110.491889 160.730916 
L 110.520773 161.323065 
L 110.649439 161.915215 
L 110.770227 162.507364 
L 110.854253 163.099514 
L 110.964538 163.691664 
L 111.429309 164.283813 
L 111.754912 164.875963 
L 111.928216 165.468112 
L 112.054256 166.060262 
L 112.17767 166.652411 
L 112.274825 167.244561 
L 112.86301 167.83671 
L 112.873514 168.42886 
L 113.041566 169.021009 
L 113.099335 169.613159 
L 113.11509 170.205308 
L 113.275265 170.797458 
L 113.348788 171.389607 
L 113.424937 171.981757 
L 113.553603 172.573907 
L 113.608745 173.166056 
L 113.721656 173.758206 
L 113.934347 174.350355 
L 113.960606 174.942505 
L 114.141788 175.534654 
L 114.301963 176.126804 
L 114.472642 176.718953 
L 114.588178 177.311103 
L 114.787741 177.903252 
L 115.270893 178.495402 
L 115.299777 179.087551 
L 115.433694 179.679701 
L 115.470456 180.27185 
L 115.473082 180.864 
L 115.990369 181.45615 
L 116.074396 182.048299 
L 116.129538 182.640449 
L 116.237197 183.232598 
L 116.378992 183.824748 
L 116.423631 184.416897 
L 116.46827 185.009047 
L 116.494528 185.601196 
L 116.662581 186.193346 
L 117.148359 186.785495 
L 117.689279 187.377645 
L 118.091031 187.969794 
L 118.140921 188.561944 
L 118.285342 189.154093 
L 119.445957 189.746243 
L 119.590377 190.338393 
L 120.228453 190.930542 
L 120.328235 191.522692 
L 120.609198 192.114841 
L 120.693225 192.706991 
L 120.942678 193.29914 
L 120.94793 193.89129 
L 120.96631 194.483439 
L 121.18688 195.075589 
L 121.234145 195.667738 
L 121.365436 196.259888 
L 121.452088 196.852037 
L 121.738303 197.444187 
L 121.809201 198.036336 
L 121.927363 198.628486 
L 122.15581 199.220636 
L 122.607452 199.812785 
L 122.817518 200.404935 
L 122.943558 200.997084 
L 123.76019 201.589234 
L 123.770693 202.181383 
L 123.775945 202.773533 
L 123.972882 203.365682 
L 124.526931 203.957832 
L 125.960632 204.549981 
L 126.070917 205.142131 
L 126.215337 205.73428 
L 126.386016 206.32643 
L 126.4149 206.918579 
L 126.554069 207.510729 
L 127.181641 208.102879 
L 127.57289 208.695028 
L 128.035035 209.287178 
L 128.056042 209.879327 
L 128.074422 210.471477 
L 128.268734 211.063626 
L 128.526065 211.655776 
L 129.056481 212.247925 
L 129.857359 212.840075 
L 130.143574 213.432224 
L 130.421911 214.024374 
L 130.828914 214.616523 
L 131.753205 215.208673 
L 131.810973 215.800822 
L 131.939639 216.392972 
L 131.94489 216.985121 
L 132.068304 217.577271 
L 132.078808 218.169421 
L 132.160208 218.76157 
L 132.622354 219.35372 
L 132.887562 219.945869 
L 132.968963 220.538019 
L 132.984718 221.130168 
L 132.995221 221.722318 
L 133.024105 222.314467 
L 133.323449 222.906617 
L 133.475747 223.498766 
L 133.554522 224.090916 
L 134.108571 224.683065 
L 134.575968 225.275215 
L 134.594349 225.867364 
L 134.615356 226.459514 
L 134.704634 227.051664 
L 135.497634 227.643813 
L 135.647306 228.235963 
L 135.670938 228.828112 
L 135.904637 229.420262 
L 136.240742 230.012411 
L 136.584726 230.604561 
L 137.343589 231.19671 
L 137.705954 231.78886 
L 137.971162 232.381009 
L 138.501579 232.973159 
L 138.730026 233.565308 
L 138.808801 234.157458 
L 138.848188 234.749607 
L 138.913834 235.341757 
L 139.2053 235.933907 
L 139.69633 236.526056 
L 140.449942 237.118206 
L 140.45782 237.710355 
L 140.712525 238.302505 
L 140.946223 238.894654 
L 141.122154 239.486804 
L 141.182548 240.078953 
L 141.227187 240.671103 
L 141.550163 241.263252 
L 141.592177 241.855402 
L 141.794365 242.447551 
L 142.01756 243.039701 
L 142.456073 243.63185 
L 142.529597 244.224 
L 142.813186 244.81615 
L 144.01844 245.408299 
L 144.517347 246.000449 
L 144.758923 246.592598 
L 144.898092 247.184748 
L 144.968989 247.776897 
L 145.940545 248.369047 
L 146.586498 248.961196 
L 147.232452 249.553346 
L 147.345362 250.145495 
L 147.479279 250.737645 
L 147.634203 251.329794 
L 147.904663 251.921944 
L 148.085845 252.514093 
L 148.52961 253.106243 
L 148.810573 253.698393 
L 148.91298 254.290542 
L 149.351493 254.882692 
L 149.380378 255.474841 
L 150.144493 256.066991 
L 150.157622 256.65914 
L 150.270533 257.25129 
L 150.61189 257.843439 
L 150.727426 258.435589 
L 150.730052 259.027738 
L 150.950622 259.619888 
L 151.068784 260.212037 
L 151.352373 260.804187 
L 151.5178 261.396336 
L 151.874913 261.988486 
L 152.82021 262.580636 
L 153.812772 263.172785 
L 154.007084 263.764935 
L 155.146692 264.357084 
L 155.233344 264.949234 
L 155.769013 265.541383 
L 156.80884 266.133533 
L 156.940132 266.725682 
L 157.14232 267.317832 
L 158.271426 267.909981 
L 158.360704 268.502131 
L 158.704687 269.09428 
L 158.830727 269.68643 
L 158.864862 270.278579 
L 160.246047 270.870729 
L 160.267054 271.462879 
L 160.587404 272.055028 
L 161.212351 272.647178 
L 161.25699 273.239327 
L 163.200102 273.831477 
L 163.470562 274.423626 
L 164.098134 275.015776 
L 164.962031 275.607925 
L 166.030742 276.200075 
L 166.24606 276.792224 
L 167.306894 277.384374 
L 167.832059 277.976523 
L 168.646066 278.568673 
L 169.032062 279.160822 
L 169.809307 279.752972 
L 169.935346 280.345121 
L 171.636882 280.937271 
L 172.461391 281.529421 
L 172.897278 282.12157 
L 174.648705 282.71372 
L 176.019386 283.305869 
L 176.127045 283.898019 
L 179.096854 284.490168 
L 179.19401 285.082318 
L 179.343682 285.674467 
L 180.170817 286.266617 
L 180.714363 286.858766 
L 181.121367 287.450916 
L 181.428588 288.043065 
L 182.082419 288.635215 
L 182.675856 289.227364 
L 184.028156 289.819514 
L 184.395772 290.411664 
L 184.532315 291.003813 
L 190.611103 291.595963 
L 194.92271 292.188112 
L 200.085085 292.780262 
L 203.312225 293.372411 
L 204.614635 293.964561 
L 208.4746 294.55671 
L 214.810719 295.14886 
L 219.96259 295.741009 
L 220.77397 296.333159 
L 221.42255 296.925308 
L 226.76348 297.517458 
L 234.861529 298.109607 
L 235.076847 298.701757 
L 238.697861 299.293907 
L 244.409034 299.886056 
L 245.047109 300.478206 
L 246.945582 301.070355 
L 250.495699 301.662505 
L 252.701393 302.254654 
L 253.084764 302.846804 
L 255.369233 303.438953 
L 273.639733 304.031103 
L 274.884374 304.623252 
L 279.106703 305.215402 
L 284.662952 305.807551 
L 300.617473 306.399701 
L 398.487273 306.99185 
L 398.487273 306.99185 
L 398.487273 306.99185 
L 300.617473 306.399701 
L 284.662952 305.807551 
L 279.106703 305.215402 
L 274.884374 304.623252 
L 273.639733 304.031103 
L 255.369233 303.438953 
L 253.084764 302.846804 
L 252.701393 302.254654 
L 250.495699 301.662505 
L 246.945582 301.070355 
L 245.047109 300.478206 
L 244.409034 299.886056 
L 238.697861 299.293907 
L 235.076847 298.701757 
L 234.861529 298.109607 
L 226.76348 297.517458 
L 221.42255 296.925308 
L 220.77397 296.333159 
L 219.96259 295.741009 
L 214.810719 295.14886 
L 208.4746 294.55671 
L 204.614635 293.964561 
L 203.312225 293.372411 
L 200.085085 292.780262 
L 194.92271 292.188112 
L 190.611103 291.595963 
L 184.532315 291.003813 
L 184.395772 290.411664 
L 184.028156 289.819514 
L 182.675856 289.227364 
L 182.082419 288.635215 
L 181.428588 288.043065 
L 181.121367 287.450916 
L 180.714363 286.858766 
L 180.170817 286.266617 
L 179.343682 285.674467 
L 179.19401 285.082318 
L 179.096854 284.490168 
L 176.127045 283.898019 
L 176.019386 283.305869 
L 174.648705 282.71372 
L 172.897278 282.12157 
L 172.461391 281.529421 
L 171.636882 280.937271 
L 169.935346 280.345121 
L 169.809307 279.752972 
L 169.032062 279.160822 
L 168.646066 278.568673 
L 167.832059 277.976523 
L 167.306894 277.384374 
L 166.24606 276.792224 
L 166.030742 276.200075 
L 164.962031 275.607925 
L 164.098134 275.015776 
L 163.470562 274.423626 
L 163.200102 273.831477 
L 161.25699 273.239327 
L 161.212351 272.647178 
L 160.587404 272.055028 
L 160.267054 271.462879 
L 160.246047 270.870729 
L 158.864862 270.278579 
L 158.830727 269.68643 
L 158.704687 269.09428 
L 158.360704 268.502131 
L 158.271426 267.909981 
L 157.14232 267.317832 
L 156.940132 266.725682 
L 156.80884 266.133533 
L 155.769013 265.541383 
L 155.233344 264.949234 
L 155.146692 264.357084 
L 154.007084 263.764935 
L 153.812772 263.172785 
L 152.82021 262.580636 
L 151.874913 261.988486 
L 151.5178 261.396336 
L 151.352373 260.804187 
L 151.068784 260.212037 
L 150.950622 259.619888 
L 150.730052 259.027738 
L 150.727426 258.435589 
L 150.61189 257.843439 
L 150.270533 257.25129 
L 150.157622 256.65914 
L 150.144493 256.066991 
L 149.380378 255.474841 
L 149.351493 254.882692 
L 148.91298 254.290542 
L 148.810573 253.698393 
L 148.52961 253.106243 
L 148.085845 252.514093 
L 147.904663 251.921944 
L 147.634203 251.329794 
L 147.479279 250.737645 
L 147.345362 250.145495 
L 147.232452 249.553346 
L 146.586498 248.961196 
L 145.940545 248.369047 
L 144.968989 247.776897 
L 144.898092 247.184748 
L 144.758923 246.592598 
L 144.517347 246.000449 
L 144.01844 245.408299 
L 142.813186 244.81615 
L 142.529597 244.224 
L 142.456073 243.63185 
L 142.01756 243.039701 
L 141.794365 242.447551 
L 141.592177 241.855402 
L 141.550163 241.263252 
L 141.227187 240.671103 
L 141.182548 240.078953 
L 141.122154 239.486804 
L 140.946223 238.894654 
L 140.712525 238.302505 
L 140.45782 237.710355 
L 140.449942 237.118206 
L 139.69633 236.526056 
L 139.2053 235.933907 
L 138.913834 235.341757 
L 138.848188 234.749607 
L 138.808801 234.157458 
L 138.730026 233.565308 
L 138.501579 232.973159 
L 137.971162 232.381009 
L 137.705954 231.78886 
L 137.343589 231.19671 
L 136.584726 230.604561 
L 136.240742 230.012411 
L 135.904637 229.420262 
L 135.670938 228.828112 
L 135.647306 228.235963 
L 135.497634 227.643813 
L 134.704634 227.051664 
L 134.615356 226.459514 
L 134.594349 225.867364 
L 134.575968 225.275215 
L 134.108571 224.683065 
L 133.554522 224.090916 
L 133.475747 223.498766 
L 133.323449 222.906617 
L 133.024105 222.314467 
L 132.995221 221.722318 
L 132.984718 221.130168 
L 132.968963 220.538019 
L 132.887562 219.945869 
L 132.622354 219.35372 
L 132.160208 218.76157 
L 132.078808 218.169421 
L 132.068304 217.577271 
L 131.94489 216.985121 
L 131.939639 216.392972 
L 131.810973 215.800822 
L 131.753205 215.208673 
L 130.828914 214.616523 
L 130.421911 214.024374 
L 130.143574 213.432224 
L 129.857359 212.840075 
L 129.056481 212.247925 
L 128.526065 211.655776 
L 128.268734 211.063626 
L 128.074422 210.471477 
L 128.056042 209.879327 
L 128.035035 209.287178 
L 127.57289 208.695028 
L 127.181641 208.102879 
L 126.554069 207.510729 
L 126.4149 206.918579 
L 126.386016 206.32643 
L 126.215337 205.73428 
L 126.070917 205.142131 
L 125.960632 204.549981 
L 124.526931 203.957832 
L 123.972882 203.365682 
L 123.775945 202.773533 
L 123.770693 202.181383 
L 123.76019 201.589234 
L 122.943558 200.997084 
L 122.817518 200.404935 
L 122.607452 199.812785 
L 122.15581 199.220636 
L 121.927363 198.628486 
L 121.809201 198.036336 
L 121.738303 197.444187 
L 121.452088 196.852037 
L 121.365436 196.259888 
L 121.234145 195.667738 
L 121.18688 195.075589 
L 120.96631 194.483439 
L 120.94793 193.89129 
L 120.942678 193.29914 
L 120.693225 192.706991 
L 120.609198 192.114841 
L 120.328235 191.522692 
L 120.228453 190.930542 
L 119.590377 190.338393 
L 119.445957 189.746243 
L 118.285342 189.154093 
L 118.140921 188.561944 
L 118.091031 187.969794 
L 117.689279 187.377645 
L 117.148359 186.785495 
L 116.662581 186.193346 
L 116.494528 185.601196 
L 116.46827 185.009047 
L 116.423631 184.416897 
L 116.378992 183.824748 
L 116.237197 183.232598 
L 116.129538 182.640449 
L 116.074396 182.048299 
L 115.990369 181.45615 
L 115.473082 180.864 
L 115.470456 180.27185 
L 115.433694 179.679701 
L 115.299777 179.087551 
L 115.270893 178.495402 
L 114.787741 177.903252 
L 114.588178 177.311103 
L 114.472642 176.718953 
L 114.301963 176.126804 
L 114.141788 175.534654 
L 113.960606 174.942505 
L 113.934347 174.350355 
L 113.721656 173.758206 
L 113.608745 173.166056 
L 113.553603 172.573907 
L 113.424937 171.981757 
L 113.348788 171.389607 
L 113.275265 170.797458 
L 113.11509 170.205308 
L 113.099335 169.613159 
L 113.041566 169.021009 
L 112.873514 168.42886 
L 112.86301 167.83671 
L 112.274825 167.244561 
L 112.17767 166.652411 
L 112.054256 166.060262 
L 111.928216 165.468112 
L 111.754912 164.875963 
L 111.429309 164.283813 
L 110.964538 163.691664 
L 110.854253 163.099514 
L 110.770227 162.507364 
L 110.649439 161.915215 
L 110.520773 161.323065 
L 110.491889 160.730916 
L 109.819678 160.138766 
L 109.8118 159.546617 
L 109.575476 158.954467 
L 109.546592 158.362318 
L 109.530837 157.770168 
L 108.934774 157.178019 
L 108.90589 156.585869 
L 108.703701 155.99372 
L 108.659062 155.40157 
L 108.590791 154.809421 
L 108.585539 154.217271 
L 108.296698 153.625121 
L 107.989477 153.032972 
L 107.876566 152.440822 
L 107.787288 151.848673 
L 107.146586 151.256523 
L 107.059934 150.664374 
L 106.004352 150.072224 
L 105.691879 149.480075 
L 105.58422 148.887925 
L 105.5212 148.295776 
L 105.253366 147.703626 
L 104.940892 147.111477 
L 104.835859 146.519327 
L 104.470869 145.927178 
L 104.45774 145.335028 
L 104.318571 144.742879 
L 104.284436 144.150729 
L 104.208287 143.558579 
L 103.459926 142.96643 
L 103.297125 142.37428 
L 103.231479 141.782131 
L 103.084433 141.189981 
L 102.850734 140.597832 
L 102.80347 140.005682 
L 102.64592 139.413533 
L 102.338698 138.821383 
L 102.24942 138.229234 
L 102.170645 137.637084 
L 101.860798 137.044935 
L 101.598215 135.860636 
L 100.904997 135.268486 
L 100.818345 134.676336 
L 100.301057 134.084187 
L 99.455541 133.492037 
L 99.132564 132.899888 
L 98.988144 132.307738 
L 98.859478 131.715589 
L 98.610025 131.123439 
L 98.38683 130.53129 
L 98.35532 129.93914 
L 98.239783 129.346991 
L 97.985078 128.754841 
L 96.98989 128.162692 
L 96.879605 127.570542 
L 96.81396 126.978393 
L 96.703675 126.386243 
L 96.454221 125.794093 
L 96.288794 125.201944 
L 96.039341 124.609794 
L 95.761003 124.017645 
L 95.734745 122.833346 
L 95.603454 122.241196 
L 95.587699 121.649047 
L 95.424897 121.056897 
L 95.419646 120.464748 
L 95.296232 119.872598 
L 95.120302 119.280449 
L 94.991636 118.09615 
L 94.44809 117.504 
L 94.0831 116.91185 
L 93.883537 116.319701 
L 93.838898 115.727551 
L 93.652465 115.135402 
L 93.466031 114.543252 
L 93.463405 113.951103 
L 92.977627 113.358953 
L 92.796445 112.766804 
L 92.308042 112.174654 
L 92.174124 111.582505 
L 91.898413 110.990355 
L 91.887909 110.398206 
L 91.740863 109.806056 
L 91.549178 109.213907 
L 91.546552 108.621757 
L 91.370622 108.029607 
L 91.15793 107.437458 
L 91.150052 106.845308 
L 90.911102 106.253159 
L 90.884844 105.661009 
L 90.837579 105.06886 
L 90.785062 104.47671 
L 90.477841 103.884561 
L 90.393814 103.292411 
L 90.189 102.700262 
L 89.613944 102.108112 
L 89.417007 101.515963 
L 89.185934 100.923813 
L 89.175431 100.331664 
L 88.518974 99.739514 
L 88.077835 99.147364 
L 87.972802 98.555215 
L 87.865143 97.963065 
L 87.641948 97.370916 
L 87.405624 96.778766 
L 87.177177 96.186617 
L 87.127286 95.594467 
L 86.578488 95.002318 
L 86.476081 94.410168 
L 86.455075 93.818019 
L 86.279144 93.225869 
L 86.118969 92.63372 
L 85.898399 92.04157 
L 85.882644 91.449421 
L 85.845883 90.857271 
L 85.761856 90.265121 
L 85.693585 89.672972 
L 85.567545 89.080822 
L 85.517655 88.488673 
L 85.396867 87.896523 
L 85.34435 87.304374 
L 85.333847 86.712224 
L 85.123781 86.120075 
L 84.876953 85.527925 
L 84.871701 84.935776 
L 84.74041 84.343626 
L 84.330781 83.751477 
L 84.207367 83.159327 
L 84.120715 82.567178 
L 83.952662 81.975028 
L 83.453755 81.382879 
L 83.451129 80.790729 
L 82.941719 80.198579 
L 82.813053 79.60643 
L 82.807802 79.01428 
L 82.461193 78.422131 
L 82.282637 77.829981 
L 82.161848 77.237832 
L 81.836246 76.645682 
L 81.447624 76.053533 
L 81.376726 75.461383 
L 81.187667 74.869234 
L 81.106266 74.277084 
L 81.061627 73.684935 
L 81.003859 73.092785 
L 80.809548 72.500636 
L 80.730773 71.908486 
L 80.694012 71.316336 
L 80.641495 70.724187 
L 80.336899 70.132037 
L 80.076942 69.539888 
L 80.066439 68.947738 
L 79.995542 68.355589 
L 79.622674 67.763439 
L 79.097509 67.17129 
L 78.551337 66.57914 
L 78.144334 65.986991 
L 77.716324 65.394841 
L 77.558775 64.802692 
L 77.503633 64.210542 
L 77.075623 63.618393 
L 76.71851 63.026243 
L 76.419166 62.434093 
L 76.41654 61.841944 
L 76.411289 61.249794 
L 76.279997 60.657645 
L 76.046299 60.065495 
L 75.886123 59.473346 
L 75.641922 58.881196 
L 75.523759 58.289047 
L 74.841045 57.696897 
L 74.783276 57.104748 
L 74.483932 56.512598 
L 74.289621 55.920449 
L 74.237105 55.328299 
L 74.048045 54.73615 
L 73.832727 54.144 
z
" clip-path="url(#pefa544cd58)" style="fill: #ff0000"/>
   </g>
   <g id="matplotlib.axis_1">
    <g id="xtick_1">
     <g id="line2d_1">
      <defs>
       <path id="mb9051f8803" d="M 0 0 
L 0 3.5 
" style="stroke: #000000; stroke-width: 0.8"/>
      </defs>
      <g>
       <use xlink:href="#mb9051f8803" x="104.940892" y="307.584" style="stroke: #000000; stroke-width: 0.8"/>
      </g>
     </g>
     <g id="text_1">
      <!-- 200 -->
      <g transform="translate(95.397142 322.182437)scale(0.1 -0.1)">
       <defs>
        <path id="DejaVuSans-32" d="M 1228 531 
L 3431 531 
L 3431 0 
L 469 0 
L 469 531 
Q 828 903 1448 1529 
Q 2069 2156 2228 2338 
Q 2531 2678 2651 2914 
Q 2772 3150 2772 3378 
Q 2772 3750 2511 3984 
Q 2250 4219 1831 4219 
Q 1534 4219 1204 4116 
Q 875 4013 500 3803 
L 500 4441 
Q 881 4594 1212 4672 
Q 1544 4750 1819 4750 
Q 2544 4750 2975 4387 
Q 3406 4025 3406 3419 
Q 3406 3131 3298 2873 
Q 3191 2616 2906 2266 
Q 2828 2175 2409 1742 
Q 1991 1309 1228 531 
z
" transform="scale(0.015625)"/>
        <path id="DejaVuSans-30" d="M 2034 4250 
Q 1547 4250 1301 3770 
Q 1056 3291 1056 2328 
Q 1056 1369 1301 889 
Q 1547 409 2034 409 
Q 2525 409 2770 889 
Q 3016 1369 3016 2328 
Q 3016 3291 2770 3770 
Q 2525 4250 2034 4250 
z
M 2034 4750 
Q 2819 4750 3233 4129 
Q 3647 3509 3647 2328 
Q 3647 1150 3233 529 
Q 2819 -91 2034 -91 
Q 1250 -91 836 529 
Q 422 1150 422 2328 
Q 422 3509 836 4129 
Q 1250 4750 2034 4750 
z
" transform="scale(0.015625)"/>
       </defs>
       <use xlink:href="#DejaVuSans-32"/>
       <use xlink:href="#DejaVuSans-30" x="63.623047"/>
       <use xlink:href="#DejaVuSans-30" x="127.246094"/>
      </g>
     </g>
    </g>
    <g id="xtick_2">
     <g id="line2d_2">
      <g>
       <use xlink:href="#mb9051f8803" x="157.457419" y="307.584" style="stroke: #000000; stroke-width: 0.8"/>
      </g>
     </g>
     <g id="text_2">
      <!-- 400 -->
      <g transform="translate(147.913669 322.182437)scale(0.1 -0.1)">
       <defs>
        <path id="DejaVuSans-34" d="M 2419 4116 
L 825 1625 
L 2419 1625 
L 2419 4116 
z
M 2253 4666 
L 3047 4666 
L 3047 1625 
L 3713 1625 
L 3713 1100 
L 3047 1100 
L 3047 0 
L 2419 0 
L 2419 1100 
L 313 1100 
L 313 1709 
L 2253 4666 
z
" transform="scale(0.015625)"/>
       </defs>
       <use xlink:href="#DejaVuSans-34"/>
       <use xlink:href="#DejaVuSans-30" x="63.623047"/>
       <use xlink:href="#DejaVuSans-30" x="127.246094"/>
      </g>
     </g>
    </g>
    <g id="xtick_3">
     <g id="line2d_3">
      <g>
       <use xlink:href="#mb9051f8803" x="209.973947" y="307.584" style="stroke: #000000; stroke-width: 0.8"/>
      </g>
     </g>
     <g id="text_3">
      <!-- 600 -->
      <g transform="translate(200.430197 322.182437)scale(0.1 -0.1)">
       <defs>
        <path id="DejaVuSans-36" d="M 2113 2584 
Q 1688 2584 1439 2293 
Q 1191 2003 1191 1497 
Q 1191 994 1439 701 
Q 1688 409 2113 409 
Q 2538 409 2786 701 
Q 3034 994 3034 1497 
Q 3034 2003 2786 2293 
Q 2538 2584 2113 2584 
z
M 3366 4563 
L 3366 3988 
Q 3128 4100 2886 4159 
Q 2644 4219 2406 4219 
Q 1781 4219 1451 3797 
Q 1122 3375 1075 2522 
Q 1259 2794 1537 2939 
Q 1816 3084 2150 3084 
Q 2853 3084 3261 2657 
Q 3669 2231 3669 1497 
Q 3669 778 3244 343 
Q 2819 -91 2113 -91 
Q 1303 -91 875 529 
Q 447 1150 447 2328 
Q 447 3434 972 4092 
Q 1497 4750 2381 4750 
Q 2619 4750 2861 4703 
Q 3103 4656 3366 4563 
z
" transform="scale(0.015625)"/>
       </defs>
       <use xlink:href="#DejaVuSans-36"/>
       <use xlink:href="#DejaVuSans-30" x="63.623047"/>
       <use xlink:href="#DejaVuSans-30" x="127.246094"/>
      </g>
     </g>
    </g>
    <g id="xtick_4">
     <g id="line2d_4">
      <g>
       <use xlink:href="#mb9051f8803" x="262.490474" y="307.584" style="stroke: #000000; stroke-width: 0.8"/>
      </g>
     </g>
     <g id="text_4">
      <!-- 800 -->
      <g transform="translate(252.946724 322.182437)scale(0.1 -0.1)">
       <defs>
        <path id="DejaVuSans-38" d="M 2034 2216 
Q 1584 2216 1326 1975 
Q 1069 1734 1069 1313 
Q 1069 891 1326 650 
Q 1584 409 2034 409 
Q 2484 409 2743 651 
Q 3003 894 3003 1313 
Q 3003 1734 2745 1975 
Q 2488 2216 2034 2216 
z
M 1403 2484 
Q 997 2584 770 2862 
Q 544 3141 544 3541 
Q 544 4100 942 4425 
Q 1341 4750 2034 4750 
Q 2731 4750 3128 4425 
Q 3525 4100 3525 3541 
Q 3525 3141 3298 2862 
Q 3072 2584 2669 2484 
Q 3125 2378 3379 2068 
Q 3634 1759 3634 1313 
Q 3634 634 3220 271 
Q 2806 -91 2034 -91 
Q 1263 -91 848 271 
Q 434 634 434 1313 
Q 434 1759 690 2068 
Q 947 2378 1403 2484 
z
M 1172 3481 
Q 1172 3119 1398 2916 
Q 1625 2713 2034 2713 
Q 2441 2713 2670 2916 
Q 2900 3119 2900 3481 
Q 2900 3844 2670 4047 
Q 2441 4250 2034 4250 
Q 1625 4250 1398 4047 
Q 1172 3844 1172 3481 
z
" transform="scale(0.015625)"/>
       </defs>
       <use xlink:href="#DejaVuSans-38"/>
       <use xlink:href="#DejaVuSans-30" x="63.623047"/>
       <use xlink:href="#DejaVuSans-30" x="127.246094"/>
      </g>
     </g>
    </g>
    <g id="xtick_5">
     <g id="line2d_5">
      <g>
       <use xlink:href="#mb9051f8803" x="315.007001" y="307.584" style="stroke: #000000; stroke-width: 0.8"/>
      </g>
     </g>
     <g id="text_5">
      <!-- 1000 -->
      <g transform="translate(302.282001 322.182437)scale(0.1 -0.1)">
       <defs>
        <path id="DejaVuSans-31" d="M 794 531 
L 1825 531 
L 1825 4091 
L 703 3866 
L 703 4441 
L 1819 4666 
L 2450 4666 
L 2450 531 
L 3481 531 
L 3481 0 
L 794 0 
L 794 531 
z
" transform="scale(0.015625)"/>
       </defs>
       <use xlink:href="#DejaVuSans-31"/>
       <use xlink:href="#DejaVuSans-30" x="63.623047"/>
       <use xlink:href="#DejaVuSans-30" x="127.246094"/>
       <use xlink:href="#DejaVuSans-30" x="190.869141"/>
      </g>
     </g>
    </g>
    <g id="xtick_6">
     <g id="line2d_6">
      <g>
       <use xlink:href="#mb9051f8803" x="367.523528" y="307.584" style="stroke: #000000; stroke-width: 0.8"/>
      </g>
     </g>
     <g id="text_6">
      <!-- 1200 -->
      <g transform="translate(354.798528 322.182437)scale(0.1 -0.1)">
       <use xlink:href="#DejaVuSans-31"/>
       <use xlink:href="#DejaVuSans-32" x="63.623047"/>
       <use xlink:href="#DejaVuSans-30" x="127.246094"/>
       <use xlink:href="#DejaVuSans-30" x="190.869141"/>
      </g>
     </g>
    </g>
    <g id="text_7">
     <!-- Score -->
     <g transform="translate(222.157656 335.860562)scale(0.1 -0.1)">
      <defs>
       <path id="DejaVuSans-53" d="M 3425 4513 
L 3425 3897 
Q 3066 4069 2747 4153 
Q 2428 4238 2131 4238 
Q 1616 4238 1336 4038 
Q 1056 3838 1056 3469 
Q 1056 3159 1242 3001 
Q 1428 2844 1947 2747 
L 2328 2669 
Q 3034 2534 3370 2195 
Q 3706 1856 3706 1288 
Q 3706 609 3251 259 
Q 2797 -91 1919 -91 
Q 1588 -91 1214 -16 
Q 841 59 441 206 
L 441 856 
Q 825 641 1194 531 
Q 1563 422 1919 422 
Q 2459 422 2753 634 
Q 3047 847 3047 1241 
Q 3047 1584 2836 1778 
Q 2625 1972 2144 2069 
L 1759 2144 
Q 1053 2284 737 2584 
Q 422 2884 422 3419 
Q 422 4038 858 4394 
Q 1294 4750 2059 4750 
Q 2388 4750 2728 4690 
Q 3069 4631 3425 4513 
z
" transform="scale(0.015625)"/>
       <path id="DejaVuSans-63" d="M 3122 3366 
L 3122 2828 
Q 2878 2963 2633 3030 
Q 2388 3097 2138 3097 
Q 1578 3097 1268 2742 
Q 959 2388 959 1747 
Q 959 1106 1268 751 
Q 1578 397 2138 397 
Q 2388 397 2633 464 
Q 2878 531 3122 666 
L 3122 134 
Q 2881 22 2623 -34 
Q 2366 -91 2075 -91 
Q 1284 -91 818 406 
Q 353 903 353 1747 
Q 353 2603 823 3093 
Q 1294 3584 2113 3584 
Q 2378 3584 2631 3529 
Q 2884 3475 3122 3366 
z
" transform="scale(0.015625)"/>
       <path id="DejaVuSans-6f" d="M 1959 3097 
Q 1497 3097 1228 2736 
Q 959 2375 959 1747 
Q 959 1119 1226 758 
Q 1494 397 1959 397 
Q 2419 397 2687 759 
Q 2956 1122 2956 1747 
Q 2956 2369 2687 2733 
Q 2419 3097 1959 3097 
z
M 1959 3584 
Q 2709 3584 3137 3096 
Q 3566 2609 3566 1747 
Q 3566 888 3137 398 
Q 2709 -91 1959 -91 
Q 1206 -91 779 398 
Q 353 888 353 1747 
Q 353 2609 779 3096 
Q 1206 3584 1959 3584 
z
" transform="scale(0.015625)"/>
       <path id="DejaVuSans-72" d="M 2631 2963 
Q 2534 3019 2420 3045 
Q 2306 3072 2169 3072 
Q 1681 3072 1420 2755 
Q 1159 2438 1159 1844 
L 1159 0 
L 581 0 
L 581 3500 
L 1159 3500 
L 1159 2956 
Q 1341 3275 1631 3429 
Q 1922 3584 2338 3584 
Q 2397 3584 2469 3576 
Q 2541 3569 2628 3553 
L 2631 2963 
z
" transform="scale(0.015625)"/>
       <path id="DejaVuSans-65" d="M 3597 1894 
L 3597 1613 
L 953 1613 
Q 991 1019 1311 708 
Q 1631 397 2203 397 
Q 2534 397 2845 478 
Q 3156 559 3463 722 
L 3463 178 
Q 3153 47 2828 -22 
Q 2503 -91 2169 -91 
Q 1331 -91 842 396 
Q 353 884 353 1716 
Q 353 2575 817 3079 
Q 1281 3584 2069 3584 
Q 2775 3584 3186 3129 
Q 3597 2675 3597 1894 
z
M 3022 2063 
Q 3016 2534 2758 2815 
Q 2500 3097 2075 3097 
Q 1594 3097 1305 2825 
Q 1016 2553 972 2059 
L 3022 2063 
z
" transform="scale(0.015625)"/>
      </defs>
      <use xlink:href="#DejaVuSans-53"/>
      <use xlink:href="#DejaVuSans-63" x="63.476562"/>
      <use xlink:href="#DejaVuSans-6f" x="118.457031"/>
      <use xlink:href="#DejaVuSans-72" x="179.638672"/>
      <use xlink:href="#DejaVuSans-65" x="218.501953"/>
     </g>
    </g>
   </g>
   <g id="matplotlib.axis_2">
    <g id="ytick_1">
     <g id="line2d_7">
      <defs>
       <path id="mbf4b7b8a01" d="M 0 0 
L -3.5 0 
" style="stroke: #000000; stroke-width: 0.8"/>
      </defs>
      <g>
       <use xlink:href="#mbf4b7b8a01" x="57.6" y="307.584" style="stroke: #000000; stroke-width: 0.8"/>
      </g>
     </g>
     <g id="text_8">
      <!-- 0 -->
      <g transform="translate(44.2375 311.383219)scale(0.1 -0.1)">
       <use xlink:href="#DejaVuSans-30"/>
      </g>
     </g>
    </g>
    <g id="ytick_2">
     <g id="line2d_8">
      <g>
       <use xlink:href="#mbf4b7b8a01" x="57.6" y="277.976523" style="stroke: #000000; stroke-width: 0.8"/>
      </g>
     </g>
     <g id="text_9">
      <!-- 50 -->
      <g transform="translate(37.875 281.775742)scale(0.1 -0.1)">
       <defs>
        <path id="DejaVuSans-35" d="M 691 4666 
L 3169 4666 
L 3169 4134 
L 1269 4134 
L 1269 2991 
Q 1406 3038 1543 3061 
Q 1681 3084 1819 3084 
Q 2600 3084 3056 2656 
Q 3513 2228 3513 1497 
Q 3513 744 3044 326 
Q 2575 -91 1722 -91 
Q 1428 -91 1123 -41 
Q 819 9 494 109 
L 494 744 
Q 775 591 1075 516 
Q 1375 441 1709 441 
Q 2250 441 2565 725 
Q 2881 1009 2881 1497 
Q 2881 1984 2565 2268 
Q 2250 2553 1709 2553 
Q 1456 2553 1204 2497 
Q 953 2441 691 2322 
L 691 4666 
z
" transform="scale(0.015625)"/>
       </defs>
       <use xlink:href="#DejaVuSans-35"/>
       <use xlink:href="#DejaVuSans-30" x="63.623047"/>
      </g>
     </g>
    </g>
    <g id="ytick_3">
     <g id="line2d_9">
      <g>
       <use xlink:href="#mbf4b7b8a01" x="57.6" y="248.369047" style="stroke: #000000; stroke-width: 0.8"/>
      </g>
     </g>
     <g id="text_10">
      <!-- 100 -->
      <g transform="translate(31.5125 252.168265)scale(0.1 -0.1)">
       <use xlink:href="#DejaVuSans-31"/>
       <use xlink:href="#DejaVuSans-30" x="63.623047"/>
       <use xlink:href="#DejaVuSans-30" x="127.246094"/>
      </g>
     </g>
    </g>
    <g id="ytick_4">
     <g id="line2d_10">
      <g>
       <use xlink:href="#mbf4b7b8a01" x="57.6" y="218.76157" style="stroke: #000000; stroke-width: 0.8"/>
      </g>
     </g>
     <g id="text_11">
      <!-- 150 -->
      <g transform="translate(31.5125 222.560789)scale(0.1 -0.1)">
       <use xlink:href="#DejaVuSans-31"/>
       <use xlink:href="#DejaVuSans-35" x="63.623047"/>
       <use xlink:href="#DejaVuSans-30" x="127.246094"/>
      </g>
     </g>
    </g>
    <g id="ytick_5">
     <g id="line2d_11">
      <g>
       <use xlink:href="#mbf4b7b8a01" x="57.6" y="189.154093" style="stroke: #000000; stroke-width: 0.8"/>
      </g>
     </g>
     <g id="text_12">
      <!-- 200 -->
      <g transform="translate(31.5125 192.953312)scale(0.1 -0.1)">
       <use xlink:href="#DejaVuSans-32"/>
       <use xlink:href="#DejaVuSans-30" x="63.623047"/>
       <use xlink:href="#DejaVuSans-30" x="127.246094"/>
      </g>
     </g>
    </g>
    <g id="ytick_6">
     <g id="line2d_12">
      <g>
       <use xlink:href="#mbf4b7b8a01" x="57.6" y="159.546617" style="stroke: #000000; stroke-width: 0.8"/>
      </g>
     </g>
     <g id="text_13">
      <!-- 250 -->
      <g transform="translate(31.5125 163.345836)scale(0.1 -0.1)">
       <use xlink:href="#DejaVuSans-32"/>
       <use xlink:href="#DejaVuSans-35" x="63.623047"/>
       <use xlink:href="#DejaVuSans-30" x="127.246094"/>
      </g>
     </g>
    </g>
    <g id="ytick_7">
     <g id="line2d_13">
      <g>
       <use xlink:href="#mbf4b7b8a01" x="57.6" y="129.93914" style="stroke: #000000; stroke-width: 0.8"/>
      </g>
     </g>
     <g id="text_14">
      <!-- 300 -->
      <g transform="translate(31.5125 133.738359)scale(0.1 -0.1)">
       <defs>
        <path id="DejaVuSans-33" d="M 2597 2516 
Q 3050 2419 3304 2112 
Q 3559 1806 3559 1356 
Q 3559 666 3084 287 
Q 2609 -91 1734 -91 
Q 1441 -91 1130 -33 
Q 819 25 488 141 
L 488 750 
Q 750 597 1062 519 
Q 1375 441 1716 441 
Q 2309 441 2620 675 
Q 2931 909 2931 1356 
Q 2931 1769 2642 2001 
Q 2353 2234 1838 2234 
L 1294 2234 
L 1294 2753 
L 1863 2753 
Q 2328 2753 2575 2939 
Q 2822 3125 2822 3475 
Q 2822 3834 2567 4026 
Q 2313 4219 1838 4219 
Q 1578 4219 1281 4162 
Q 984 4106 628 3988 
L 628 4550 
Q 988 4650 1302 4700 
Q 1616 4750 1894 4750 
Q 2613 4750 3031 4423 
Q 3450 4097 3450 3541 
Q 3450 3153 3228 2886 
Q 3006 2619 2597 2516 
z
" transform="scale(0.015625)"/>
       </defs>
       <use xlink:href="#DejaVuSans-33"/>
       <use xlink:href="#DejaVuSans-30" x="63.623047"/>
       <use xlink:href="#DejaVuSans-30" x="127.246094"/>
      </g>
     </g>
    </g>
    <g id="ytick_8">
     <g id="line2d_14">
      <g>
       <use xlink:href="#mbf4b7b8a01" x="57.6" y="100.331664" style="stroke: #000000; stroke-width: 0.8"/>
      </g>
     </g>
     <g id="text_15">
      <!-- 350 -->
      <g transform="translate(31.5125 104.130882)scale(0.1 -0.1)">
       <use xlink:href="#DejaVuSans-33"/>
       <use xlink:href="#DejaVuSans-35" x="63.623047"/>
       <use xlink:href="#DejaVuSans-30" x="127.246094"/>
      </g>
     </g>
    </g>
    <g id="ytick_9">
     <g id="line2d_15">
      <g>
       <use xlink:href="#mbf4b7b8a01" x="57.6" y="70.724187" style="stroke: #000000; stroke-width: 0.8"/>
      </g>
     </g>
     <g id="text_16">
      <!-- 400 -->
      <g transform="translate(31.5125 74.523406)scale(0.1 -0.1)">
       <use xlink:href="#DejaVuSans-34"/>
       <use xlink:href="#DejaVuSans-30" x="63.623047"/>
       <use xlink:href="#DejaVuSans-30" x="127.246094"/>
      </g>
     </g>
    </g>
    <g id="text_17">
     <!-- Number of crosslinks -->
     <g transform="translate(25.432812 227.019406)rotate(-90)scale(0.1 -0.1)">
      <defs>
       <path id="DejaVuSans-4e" d="M 628 4666 
L 1478 4666 
L 3547 763 
L 3547 4666 
L 4159 4666 
L 4159 0 
L 3309 0 
L 1241 3903 
L 1241 0 
L 628 0 
L 628 4666 
z
" transform="scale(0.015625)"/>
       <path id="DejaVuSans-75" d="M 544 1381 
L 544 3500 
L 1119 3500 
L 1119 1403 
Q 1119 906 1312 657 
Q 1506 409 1894 409 
Q 2359 409 2629 706 
Q 2900 1003 2900 1516 
L 2900 3500 
L 3475 3500 
L 3475 0 
L 2900 0 
L 2900 538 
Q 2691 219 2414 64 
Q 2138 -91 1772 -91 
Q 1169 -91 856 284 
Q 544 659 544 1381 
z
M 1991 3584 
L 1991 3584 
z
" transform="scale(0.015625)"/>
       <path id="DejaVuSans-6d" d="M 3328 2828 
Q 3544 3216 3844 3400 
Q 4144 3584 4550 3584 
Q 5097 3584 5394 3201 
Q 5691 2819 5691 2113 
L 5691 0 
L 5113 0 
L 5113 2094 
Q 5113 2597 4934 2840 
Q 4756 3084 4391 3084 
Q 3944 3084 3684 2787 
Q 3425 2491 3425 1978 
L 3425 0 
L 2847 0 
L 2847 2094 
Q 2847 2600 2669 2842 
Q 2491 3084 2119 3084 
Q 1678 3084 1418 2786 
Q 1159 2488 1159 1978 
L 1159 0 
L 581 0 
L 581 3500 
L 1159 3500 
L 1159 2956 
Q 1356 3278 1631 3431 
Q 1906 3584 2284 3584 
Q 2666 3584 2933 3390 
Q 3200 3197 3328 2828 
z
" transform="scale(0.015625)"/>
       <path id="DejaVuSans-62" d="M 3116 1747 
Q 3116 2381 2855 2742 
Q 2594 3103 2138 3103 
Q 1681 3103 1420 2742 
Q 1159 2381 1159 1747 
Q 1159 1113 1420 752 
Q 1681 391 2138 391 
Q 2594 391 2855 752 
Q 3116 1113 3116 1747 
z
M 1159 2969 
Q 1341 3281 1617 3432 
Q 1894 3584 2278 3584 
Q 2916 3584 3314 3078 
Q 3713 2572 3713 1747 
Q 3713 922 3314 415 
Q 2916 -91 2278 -91 
Q 1894 -91 1617 61 
Q 1341 213 1159 525 
L 1159 0 
L 581 0 
L 581 4863 
L 1159 4863 
L 1159 2969 
z
" transform="scale(0.015625)"/>
       <path id="DejaVuSans-20" transform="scale(0.015625)"/>
       <path id="DejaVuSans-66" d="M 2375 4863 
L 2375 4384 
L 1825 4384 
Q 1516 4384 1395 4259 
Q 1275 4134 1275 3809 
L 1275 3500 
L 2222 3500 
L 2222 3053 
L 1275 3053 
L 1275 0 
L 697 0 
L 697 3053 
L 147 3053 
L 147 3500 
L 697 3500 
L 697 3744 
Q 697 4328 969 4595 
Q 1241 4863 1831 4863 
L 2375 4863 
z
" transform="scale(0.015625)"/>
       <path id="DejaVuSans-73" d="M 2834 3397 
L 2834 2853 
Q 2591 2978 2328 3040 
Q 2066 3103 1784 3103 
Q 1356 3103 1142 2972 
Q 928 2841 928 2578 
Q 928 2378 1081 2264 
Q 1234 2150 1697 2047 
L 1894 2003 
Q 2506 1872 2764 1633 
Q 3022 1394 3022 966 
Q 3022 478 2636 193 
Q 2250 -91 1575 -91 
Q 1294 -91 989 -36 
Q 684 19 347 128 
L 347 722 
Q 666 556 975 473 
Q 1284 391 1588 391 
Q 1994 391 2212 530 
Q 2431 669 2431 922 
Q 2431 1156 2273 1281 
Q 2116 1406 1581 1522 
L 1381 1569 
Q 847 1681 609 1914 
Q 372 2147 372 2553 
Q 372 3047 722 3315 
Q 1072 3584 1716 3584 
Q 2034 3584 2315 3537 
Q 2597 3491 2834 3397 
z
" transform="scale(0.015625)"/>
       <path id="DejaVuSans-6c" d="M 603 4863 
L 1178 4863 
L 1178 0 
L 603 0 
L 603 4863 
z
" transform="scale(0.015625)"/>
       <path id="DejaVuSans-69" d="M 603 3500 
L 1178 3500 
L 1178 0 
L 603 0 
L 603 3500 
z
M 603 4863 
L 1178 4863 
L 1178 4134 
L 603 4134 
L 603 4863 
z
" transform="scale(0.015625)"/>
       <path id="DejaVuSans-6e" d="M 3513 2113 
L 3513 0 
L 2938 0 
L 2938 2094 
Q 2938 2591 2744 2837 
Q 2550 3084 2163 3084 
Q 1697 3084 1428 2787 
Q 1159 2491 1159 1978 
L 1159 0 
L 581 0 
L 581 3500 
L 1159 3500 
L 1159 2956 
Q 1366 3272 1645 3428 
Q 1925 3584 2291 3584 
Q 2894 3584 3203 3211 
Q 3513 2838 3513 2113 
z
" transform="scale(0.015625)"/>
       <path id="DejaVuSans-6b" d="M 581 4863 
L 1159 4863 
L 1159 1991 
L 2875 3500 
L 3609 3500 
L 1753 1863 
L 3688 0 
L 2938 0 
L 1159 1709 
L 1159 0 
L 581 0 
L 581 4863 
z
" transform="scale(0.015625)"/>
      </defs>
      <use xlink:href="#DejaVuSans-4e"/>
      <use xlink:href="#DejaVuSans-75" x="74.804688"/>
      <use xlink:href="#DejaVuSans-6d" x="138.183594"/>
      <use xlink:href="#DejaVuSans-62" x="235.595703"/>
      <use xlink:href="#DejaVuSans-65" x="299.072266"/>
      <use xlink:href="#DejaVuSans-72" x="360.595703"/>
      <use xlink:href="#DejaVuSans-20" x="401.708984"/>
      <use xlink:href="#DejaVuSans-6f" x="433.496094"/>
      <use xlink:href="#DejaVuSans-66" x="494.677734"/>
      <use xlink:href="#DejaVuSans-20" x="529.882812"/>
      <use xlink:href="#DejaVuSans-63" x="561.669922"/>
      <use xlink:href="#DejaVuSans-72" x="616.650391"/>
      <use xlink:href="#DejaVuSans-6f" x="655.513672"/>
      <use xlink:href="#DejaVuSans-73" x="716.695312"/>
      <use xlink:href="#DejaVuSans-73" x="768.794922"/>
      <use xlink:href="#DejaVuSans-6c" x="820.894531"/>
      <use xlink:href="#DejaVuSans-69" x="848.677734"/>
      <use xlink:href="#DejaVuSans-6e" x="876.460938"/>
      <use xlink:href="#DejaVuSans-6b" x="939.839844"/>
      <use xlink:href="#DejaVuSans-73" x="997.75"/>
     </g>
    </g>
   </g>
   <g id="patch_3">
    <path d="M 57.6 307.584 
L 57.6 41.472 
" style="fill: none; stroke: #000000; stroke-width: 0.8; stroke-linejoin: miter; stroke-linecap: square"/>
   </g>
   <g id="patch_4">
    <path d="M 414.72 307.584 
L 414.72 41.472 
" style="fill: none; stroke: #000000; stroke-width: 0.8; stroke-linejoin: miter; stroke-linecap: square"/>
   </g>
   <g id="patch_5">
    <path d="M 57.6 307.584 
L 414.72 307.584 
" style="fill: none; stroke: #000000; stroke-width: 0.8; stroke-linejoin: miter; stroke-linecap: square"/>
   </g>
   <g id="patch_6">
    <path d="M 57.6 41.472 
L 414.72 41.472 
" style="fill: none; stroke: #000000; stroke-width: 0.8; stroke-linejoin: miter; stroke-linecap: square"/>
   </g>
   <g id="legend_1">
    <g id="patch_7">
     <path d="M 293.087188 93.506375 
L 407.72 93.506375 
Q 409.72 93.506375 409.72 91.506375 
L 409.72 48.472 
Q 409.72 46.472 407.72 46.472 
L 293.087188 46.472 
Q 291.087188 46.472 291.087188 48.472 
L 291.087188 91.506375 
Q 291.087188 93.506375 293.087188 93.506375 
z
" style="fill: #ffffff; opacity: 0.8; stroke: #cccccc; stroke-linejoin: miter"/>
    </g>
    <g id="patch_8">
     <path d="M 295.087188 58.070438 
L 315.087188 58.070438 
L 315.087188 51.070438 
L 295.087188 51.070438 
z
" style="fill: #008000"/>
    </g>
    <g id="text_18">
     <!-- true -->
     <g transform="translate(323.087188 58.070438)scale(0.1 -0.1)">
      <defs>
       <path id="DejaVuSans-74" d="M 1172 4494 
L 1172 3500 
L 2356 3500 
L 2356 3053 
L 1172 3053 
L 1172 1153 
Q 1172 725 1289 603 
Q 1406 481 1766 481 
L 2356 481 
L 2356 0 
L 1766 0 
Q 1100 0 847 248 
Q 594 497 594 1153 
L 594 3053 
L 172 3053 
L 172 3500 
L 594 3500 
L 594 4494 
L 1172 4494 
z
" transform="scale(0.015625)"/>
      </defs>
      <use xlink:href="#DejaVuSans-74"/>
      <use xlink:href="#DejaVuSans-72" x="39.208984"/>
      <use xlink:href="#DejaVuSans-75" x="80.322266"/>
      <use xlink:href="#DejaVuSans-65" x="143.701172"/>
     </g>
    </g>
    <g id="patch_9">
     <path d="M 295.087188 72.748563 
L 315.087188 72.748563 
L 315.087188 65.748563 
L 295.087188 65.748563 
z
" style="fill: #7cfc00"/>
    </g>
    <g id="text_19">
     <!-- true homeotypic -->
     <g transform="translate(323.087188 72.748563)scale(0.1 -0.1)">
      <defs>
       <path id="DejaVuSans-68" d="M 3513 2113 
L 3513 0 
L 2938 0 
L 2938 2094 
Q 2938 2591 2744 2837 
Q 2550 3084 2163 3084 
Q 1697 3084 1428 2787 
Q 1159 2491 1159 1978 
L 1159 0 
L 581 0 
L 581 4863 
L 1159 4863 
L 1159 2956 
Q 1366 3272 1645 3428 
Q 1925 3584 2291 3584 
Q 2894 3584 3203 3211 
Q 3513 2838 3513 2113 
z
" transform="scale(0.015625)"/>
       <path id="DejaVuSans-79" d="M 2059 -325 
Q 1816 -950 1584 -1140 
Q 1353 -1331 966 -1331 
L 506 -1331 
L 506 -850 
L 844 -850 
Q 1081 -850 1212 -737 
Q 1344 -625 1503 -206 
L 1606 56 
L 191 3500 
L 800 3500 
L 1894 763 
L 2988 3500 
L 3597 3500 
L 2059 -325 
z
" transform="scale(0.015625)"/>
       <path id="DejaVuSans-70" d="M 1159 525 
L 1159 -1331 
L 581 -1331 
L 581 3500 
L 1159 3500 
L 1159 2969 
Q 1341 3281 1617 3432 
Q 1894 3584 2278 3584 
Q 2916 3584 3314 3078 
Q 3713 2572 3713 1747 
Q 3713 922 3314 415 
Q 2916 -91 2278 -91 
Q 1894 -91 1617 61 
Q 1341 213 1159 525 
z
M 3116 1747 
Q 3116 2381 2855 2742 
Q 2594 3103 2138 3103 
Q 1681 3103 1420 2742 
Q 1159 2381 1159 1747 
Q 1159 1113 1420 752 
Q 1681 391 2138 391 
Q 2594 391 2855 752 
Q 3116 1113 3116 1747 
z
" transform="scale(0.015625)"/>
      </defs>
      <use xlink:href="#DejaVuSans-74"/>
      <use xlink:href="#DejaVuSans-72" x="39.208984"/>
      <use xlink:href="#DejaVuSans-75" x="80.322266"/>
      <use xlink:href="#DejaVuSans-65" x="143.701172"/>
      <use xlink:href="#DejaVuSans-20" x="205.224609"/>
      <use xlink:href="#DejaVuSans-68" x="237.011719"/>
      <use xlink:href="#DejaVuSans-6f" x="300.390625"/>
      <use xlink:href="#DejaVuSans-6d" x="361.572266"/>
      <use xlink:href="#DejaVuSans-65" x="458.984375"/>
      <use xlink:href="#DejaVuSans-6f" x="520.507812"/>
      <use xlink:href="#DejaVuSans-74" x="581.689453"/>
      <use xlink:href="#DejaVuSans-79" x="620.898438"/>
      <use xlink:href="#DejaVuSans-70" x="680.078125"/>
      <use xlink:href="#DejaVuSans-69" x="743.554688"/>
      <use xlink:href="#DejaVuSans-63" x="771.337891"/>
     </g>
    </g>
    <g id="patch_10">
     <path d="M 295.087188 87.426688 
L 315.087188 87.426688 
L 315.087188 80.426688 
L 295.087188 80.426688 
z
" style="fill: #ff0000"/>
    </g>
    <g id="text_20">
     <!-- false -->
     <g transform="translate(323.087188 87.426688)scale(0.1 -0.1)">
      <defs>
       <path id="DejaVuSans-61" d="M 2194 1759 
Q 1497 1759 1228 1600 
Q 959 1441 959 1056 
Q 959 750 1161 570 
Q 1363 391 1709 391 
Q 2188 391 2477 730 
Q 2766 1069 2766 1631 
L 2766 1759 
L 2194 1759 
z
M 3341 1997 
L 3341 0 
L 2766 0 
L 2766 531 
Q 2569 213 2275 61 
Q 1981 -91 1556 -91 
Q 1019 -91 701 211 
Q 384 513 384 1019 
Q 384 1609 779 1909 
Q 1175 2209 1959 2209 
L 2766 2209 
L 2766 2266 
Q 2766 2663 2505 2880 
Q 2244 3097 1772 3097 
Q 1472 3097 1187 3025 
Q 903 2953 641 2809 
L 641 3341 
Q 956 3463 1253 3523 
Q 1550 3584 1831 3584 
Q 2591 3584 2966 3190 
Q 3341 2797 3341 1997 
z
" transform="scale(0.015625)"/>
      </defs>
      <use xlink:href="#DejaVuSans-66"/>
      <use xlink:href="#DejaVuSans-61" x="35.205078"/>
      <use xlink:href="#DejaVuSans-6c" x="96.484375"/>
      <use xlink:href="#DejaVuSans-73" x="124.267578"/>
      <use xlink:href="#DejaVuSans-65" x="176.367188"/>
     </g>
    </g>
   </g>
  </g>
 </g>
 <defs>
  <clipPath id="pefa544cd58">
   <rect x="57.6" y="41.472" width="357.12" height="266.112"/>
  </clipPath>
 </defs>
</svg>
