<?xml version="1.0" encoding="utf-8" standalone="no"?>
<!DOCTYPE svg PUBLIC "-//W3C//DTD SVG 1.1//EN"
  "http://www.w3.org/Graphics/SVG/1.1/DTD/svg11.dtd">
<svg xmlns:xlink="http://www.w3.org/1999/xlink" width="460.8pt" height="345.6pt" viewBox="0 0 460.8 345.6" xmlns="http://www.w3.org/2000/svg" version="1.1">
 <metadata>
  <rdf:RDF xmlns:dc="http://purl.org/dc/elements/1.1/" xmlns:cc="http://creativecommons.org/ns#" xmlns:rdf="http://www.w3.org/1999/02/22-rdf-syntax-ns#">
   <cc:Work>
    <dc:type rdf:resource="http://purl.org/dc/dcmitype/StillImage"/>
    <dc:date>2022-08-25T15:13:41.598578</dc:date>
    <dc:format>image/svg+xml</dc:format>
    <dc:creator>
     <cc:Agent>
      <dc:title>Matplotlib v3.5.1, https://matplotlib.org/</dc:title>
     </cc:Agent>
    </dc:creator>
   </cc:Work>
  </rdf:RDF>
 </metadata>
 <defs>
  <style type="text/css">*{stroke-linejoin: round; stroke-linecap: butt}</style>
 </defs>
 <g id="figure_1">
  <g id="patch_1">
   <path d="M 0 345.6 
L 460.8 345.6 
L 460.8 0 
L 0 0 
z
" style="fill: #ffffff"/>
  </g>
  <g id="axes_1">
   <g id="patch_2">
    <path d="M 57.6 307.584 
L 414.72 307.584 
L 414.72 41.472 
L 57.6 41.472 
z
" style="fill: #ffffff"/>
   </g>
   <g id="PolyCollection_1">
    <path d="M 73.832727 112.028444 
L 73.832727 307.584 
L 73.97022 307.584 
L 74.210832 307.584 
L 74.245205 307.584 
L 74.279578 307.584 
L 74.313952 307.584 
L 74.588937 307.584 
L 74.62331 307.584 
L 74.657683 307.584 
L 74.760803 307.584 
L 74.898295 307.584 
L 74.932669 307.584 
L 74.967042 307.584 
L 75.001415 307.584 
L 75.035788 307.584 
L 103.153037 307.584 
L 104.046739 307.584 
L 108.137146 307.584 
L 108.412131 307.584 
L 108.583997 307.584 
L 109.099595 307.584 
L 109.271461 307.584 
L 142.750924 307.584 
L 143.232148 307.584 
L 143.47276 307.584 
L 143.541506 307.584 
L 143.575879 307.584 
L 143.644626 307.584 
L 143.713372 307.584 
L 143.747745 307.584 
L 143.782118 307.584 
L 143.850865 307.584 
L 143.885238 307.584 
L 143.919611 307.584 
L 143.988357 307.584 
L 144.022731 307.584 
L 144.057104 307.584 
L 144.091477 307.584 
L 144.12585 307.584 
L 147.49442 307.584 
L 147.528793 307.584 
L 147.563167 307.584 
L 151.000483 307.584 
L 206.100667 307.584 
L 208.438042 307.584 
L 210.019208 307.584 
L 211.566 307.584 
L 211.875359 307.584 
L 212.287837 307.584 
L 212.390956 307.584 
L 212.425329 307.584 
L 212.562822 307.584 
L 212.700315 307.584 
L 212.734688 307.584 
L 212.769061 307.584 
L 212.803434 307.584 
L 212.837807 307.584 
L 212.872181 307.584 
L 214.659585 307.584 
L 215.897019 307.584 
L 216.034512 307.584 
L 216.206378 307.584 
L 216.240751 307.584 
L 216.275124 307.584 
L 216.309497 307.584 
L 219.609321 307.584 
L 219.71244 307.584 
L 219.746814 307.584 
L 222.668533 307.584 
L 226.621447 307.584 
L 233.461707 307.584 
L 233.49608 307.584 
L 240.370713 307.584 
L 243.773656 307.584 
L 274.743878 307.584 
L 281.343526 307.584 
L 281.377899 307.584 
L 281.446645 307.584 
L 284.677723 307.584 
L 284.815215 307.584 
L 288.390025 307.584 
L 291.758595 307.584 
L 291.930461 307.584 
L 302.208037 307.584 
L 304.923517 307.584 
L 305.645353 307.584 
L 322.866309 307.584 
L 329.740942 307.584 
L 340.052892 307.584 
L 398.487273 307.584 
L 398.487273 306.019556 
L 398.487273 306.019556 
L 340.052892 304.455111 
L 329.740942 302.890667 
L 322.866309 301.326222 
L 305.645353 301.326222 
L 304.923517 299.761778 
L 302.208037 299.761778 
L 291.930461 299.761778 
L 291.758595 298.197333 
L 288.390025 298.197333 
L 284.815215 298.197333 
L 284.677723 296.632889 
L 281.446645 293.504 
L 281.377899 293.504 
L 281.343526 291.939556 
L 274.743878 290.375111 
L 243.773656 288.810667 
L 240.370713 285.681778 
L 233.49608 284.117333 
L 233.461707 282.552889 
L 226.621447 280.988444 
L 222.668533 279.424 
L 219.746814 274.730667 
L 219.71244 273.166222 
L 219.609321 271.601778 
L 216.309497 270.037333 
L 216.275124 268.472889 
L 216.240751 266.908444 
L 216.206378 265.344 
L 216.034512 263.779556 
L 215.897019 262.215111 
L 214.659585 260.650667 
L 212.872181 259.086222 
L 212.837807 251.264 
L 212.803434 249.699556 
L 212.769061 246.570667 
L 212.734688 245.006222 
L 212.700315 243.441778 
L 212.562822 241.877333 
L 212.425329 240.312889 
L 212.390956 237.184 
L 212.287837 237.184 
L 211.875359 235.619556 
L 211.566 235.619556 
L 210.019208 234.055111 
L 208.438042 232.490667 
L 206.100667 230.926222 
L 151.000483 229.361778 
L 147.563167 218.410667 
L 147.528793 216.846222 
L 147.49442 215.281778 
L 144.12585 198.072889 
L 144.091477 182.428444 
L 144.057104 171.477333 
L 144.022731 162.090667 
L 143.988357 155.832889 
L 143.919611 155.832889 
L 143.885238 155.832889 
L 143.850865 152.704 
L 143.782118 144.881778 
L 143.747745 143.317333 
L 143.713372 141.752889 
L 143.644626 141.752889 
L 143.575879 138.624 
L 143.541506 137.059556 
L 143.47276 135.495111 
L 143.232148 133.930667 
L 142.750924 133.930667 
L 109.271461 132.366222 
L 109.099595 130.801778 
L 108.583997 130.801778 
L 108.412131 129.237333 
L 108.137146 129.237333 
L 104.046739 129.237333 
L 103.153037 127.672889 
L 75.035788 126.108444 
L 75.001415 124.544 
L 74.967042 124.544 
L 74.932669 121.415111 
L 74.898295 121.415111 
L 74.760803 121.415111 
L 74.657683 121.415111 
L 74.62331 119.850667 
L 74.588937 118.286222 
L 74.313952 116.721778 
L 74.279578 115.157333 
L 74.245205 113.592889 
L 74.210832 112.028444 
L 73.97022 112.028444 
L 73.832727 112.028444 
z
" clip-path="url(#pfc48b40eac)" style="fill: #008000"/>
   </g>
   <g id="PolyCollection_2">
    <path d="M 73.832727 74.481778 
L 73.832727 112.028444 
L 73.97022 112.028444 
L 74.210832 112.028444 
L 74.245205 113.592889 
L 74.279578 115.157333 
L 74.313952 116.721778 
L 74.588937 118.286222 
L 74.62331 119.850667 
L 74.657683 121.415111 
L 74.760803 121.415111 
L 74.898295 121.415111 
L 74.932669 121.415111 
L 74.967042 124.544 
L 75.001415 124.544 
L 75.035788 126.108444 
L 103.153037 127.672889 
L 104.046739 129.237333 
L 108.137146 129.237333 
L 108.412131 129.237333 
L 108.583997 130.801778 
L 109.099595 130.801778 
L 109.271461 132.366222 
L 142.750924 133.930667 
L 143.232148 133.930667 
L 143.47276 135.495111 
L 143.541506 137.059556 
L 143.575879 138.624 
L 143.644626 141.752889 
L 143.713372 141.752889 
L 143.747745 143.317333 
L 143.782118 144.881778 
L 143.850865 152.704 
L 143.885238 155.832889 
L 143.919611 155.832889 
L 143.988357 155.832889 
L 144.022731 162.090667 
L 144.057104 171.477333 
L 144.091477 182.428444 
L 144.12585 198.072889 
L 147.49442 215.281778 
L 147.528793 216.846222 
L 147.563167 218.410667 
L 151.000483 229.361778 
L 206.100667 230.926222 
L 208.438042 232.490667 
L 210.019208 234.055111 
L 211.566 235.619556 
L 211.875359 235.619556 
L 212.287837 237.184 
L 212.390956 237.184 
L 212.425329 240.312889 
L 212.562822 241.877333 
L 212.700315 243.441778 
L 212.734688 245.006222 
L 212.769061 246.570667 
L 212.803434 249.699556 
L 212.837807 251.264 
L 212.872181 259.086222 
L 214.659585 260.650667 
L 215.897019 262.215111 
L 216.034512 263.779556 
L 216.206378 265.344 
L 216.240751 266.908444 
L 216.275124 268.472889 
L 216.309497 270.037333 
L 219.609321 271.601778 
L 219.71244 273.166222 
L 219.746814 274.730667 
L 222.668533 279.424 
L 226.621447 280.988444 
L 233.461707 282.552889 
L 233.49608 284.117333 
L 240.370713 285.681778 
L 243.773656 288.810667 
L 274.743878 290.375111 
L 281.343526 291.939556 
L 281.377899 293.504 
L 281.446645 293.504 
L 284.677723 296.632889 
L 284.815215 298.197333 
L 288.390025 298.197333 
L 291.758595 298.197333 
L 291.930461 299.761778 
L 302.208037 299.761778 
L 304.923517 299.761778 
L 305.645353 301.326222 
L 322.866309 301.326222 
L 329.740942 302.890667 
L 340.052892 304.455111 
L 398.487273 306.019556 
L 398.487273 306.019556 
L 398.487273 306.019556 
L 340.052892 304.455111 
L 329.740942 302.890667 
L 322.866309 301.326222 
L 305.645353 299.761778 
L 304.923517 298.197333 
L 302.208037 296.632889 
L 291.930461 295.068444 
L 291.758595 291.939556 
L 288.390025 290.375111 
L 284.815215 288.810667 
L 284.677723 287.246222 
L 281.446645 284.117333 
L 281.377899 282.552889 
L 281.343526 280.988444 
L 274.743878 279.424 
L 243.773656 277.859556 
L 240.370713 274.730667 
L 233.49608 273.166222 
L 233.461707 271.601778 
L 226.621447 270.037333 
L 222.668533 268.472889 
L 219.746814 263.779556 
L 219.71244 262.215111 
L 219.609321 260.650667 
L 216.309497 259.086222 
L 216.275124 255.957333 
L 216.240751 254.392889 
L 216.206378 252.828444 
L 216.034512 251.264 
L 215.897019 249.699556 
L 214.659585 248.135111 
L 212.872181 245.006222 
L 212.837807 234.055111 
L 212.803434 232.490667 
L 212.769061 227.797333 
L 212.734688 226.232889 
L 212.700315 224.668444 
L 212.562822 223.104 
L 212.425329 221.539556 
L 212.390956 218.410667 
L 212.287837 216.846222 
L 211.875359 215.281778 
L 211.566 215.281778 
L 210.019208 213.717333 
L 208.438042 212.152889 
L 206.100667 210.588444 
L 151.000483 209.024 
L 147.563167 196.508444 
L 147.528793 193.379556 
L 147.49442 191.815111 
L 144.12585 171.477333 
L 144.091477 154.268444 
L 144.057104 143.317333 
L 144.022731 133.930667 
L 143.988357 126.108444 
L 143.919611 126.108444 
L 143.885238 124.544 
L 143.850865 121.415111 
L 143.782118 113.592889 
L 143.747745 112.028444 
L 143.713372 110.464 
L 143.644626 110.464 
L 143.575879 107.335111 
L 143.541506 105.770667 
L 143.47276 104.206222 
L 143.232148 102.641778 
L 142.750924 101.077333 
L 109.271461 99.512889 
L 109.099595 96.384 
L 108.583997 94.819556 
L 108.412131 93.255111 
L 108.137146 93.255111 
L 104.046739 93.255111 
L 103.153037 91.690667 
L 75.035788 90.126222 
L 75.001415 88.561778 
L 74.967042 88.561778 
L 74.932669 85.432889 
L 74.898295 83.868444 
L 74.760803 83.868444 
L 74.657683 83.868444 
L 74.62331 82.304 
L 74.588937 80.739556 
L 74.313952 79.175111 
L 74.279578 77.610667 
L 74.245205 76.046222 
L 74.210832 74.481778 
L 73.97022 74.481778 
L 73.832727 74.481778 
z
" clip-path="url(#pfc48b40eac)" style="fill: #7cfc00"/>
   </g>
   <g id="PolyCollection_3">
    <path d="M 73.832727 54.144 
L 73.832727 74.481778 
L 73.97022 74.481778 
L 74.210832 74.481778 
L 74.245205 76.046222 
L 74.279578 77.610667 
L 74.313952 79.175111 
L 74.588937 80.739556 
L 74.62331 82.304 
L 74.657683 83.868444 
L 74.760803 83.868444 
L 74.898295 83.868444 
L 74.932669 85.432889 
L 74.967042 88.561778 
L 75.001415 88.561778 
L 75.035788 90.126222 
L 103.153037 91.690667 
L 104.046739 93.255111 
L 108.137146 93.255111 
L 108.412131 93.255111 
L 108.583997 94.819556 
L 109.099595 96.384 
L 109.271461 99.512889 
L 142.750924 101.077333 
L 143.232148 102.641778 
L 143.47276 104.206222 
L 143.541506 105.770667 
L 143.575879 107.335111 
L 143.644626 110.464 
L 143.713372 110.464 
L 143.747745 112.028444 
L 143.782118 113.592889 
L 143.850865 121.415111 
L 143.885238 124.544 
L 143.919611 126.108444 
L 143.988357 126.108444 
L 144.022731 133.930667 
L 144.057104 143.317333 
L 144.091477 154.268444 
L 144.12585 171.477333 
L 147.49442 191.815111 
L 147.528793 193.379556 
L 147.563167 196.508444 
L 151.000483 209.024 
L 206.100667 210.588444 
L 208.438042 212.152889 
L 210.019208 213.717333 
L 211.566 215.281778 
L 211.875359 215.281778 
L 212.287837 216.846222 
L 212.390956 218.410667 
L 212.425329 221.539556 
L 212.562822 223.104 
L 212.700315 224.668444 
L 212.734688 226.232889 
L 212.769061 227.797333 
L 212.803434 232.490667 
L 212.837807 234.055111 
L 212.872181 245.006222 
L 214.659585 248.135111 
L 215.897019 249.699556 
L 216.034512 251.264 
L 216.206378 252.828444 
L 216.240751 254.392889 
L 216.275124 255.957333 
L 216.309497 259.086222 
L 219.609321 260.650667 
L 219.71244 262.215111 
L 219.746814 263.779556 
L 222.668533 268.472889 
L 226.621447 270.037333 
L 233.461707 271.601778 
L 233.49608 273.166222 
L 240.370713 274.730667 
L 243.773656 277.859556 
L 274.743878 279.424 
L 281.343526 280.988444 
L 281.377899 282.552889 
L 281.446645 284.117333 
L 284.677723 287.246222 
L 284.815215 288.810667 
L 288.390025 290.375111 
L 291.758595 291.939556 
L 291.930461 295.068444 
L 302.208037 296.632889 
L 304.923517 298.197333 
L 305.645353 299.761778 
L 322.866309 301.326222 
L 329.740942 302.890667 
L 340.052892 304.455111 
L 398.487273 306.019556 
L 398.487273 306.019556 
L 398.487273 306.019556 
L 340.052892 304.455111 
L 329.740942 302.890667 
L 322.866309 301.326222 
L 305.645353 299.761778 
L 304.923517 298.197333 
L 302.208037 296.632889 
L 291.930461 295.068444 
L 291.758595 291.939556 
L 288.390025 290.375111 
L 284.815215 288.810667 
L 284.677723 287.246222 
L 281.446645 284.117333 
L 281.377899 282.552889 
L 281.343526 280.988444 
L 274.743878 279.424 
L 243.773656 277.859556 
L 240.370713 274.730667 
L 233.49608 273.166222 
L 233.461707 271.601778 
L 226.621447 270.037333 
L 222.668533 268.472889 
L 219.746814 263.779556 
L 219.71244 262.215111 
L 219.609321 260.650667 
L 216.309497 259.086222 
L 216.275124 255.957333 
L 216.240751 254.392889 
L 216.206378 252.828444 
L 216.034512 251.264 
L 215.897019 249.699556 
L 214.659585 248.135111 
L 212.872181 245.006222 
L 212.837807 234.055111 
L 212.803434 232.490667 
L 212.769061 227.797333 
L 212.734688 226.232889 
L 212.700315 224.668444 
L 212.562822 223.104 
L 212.425329 221.539556 
L 212.390956 218.410667 
L 212.287837 216.846222 
L 211.875359 215.281778 
L 211.566 213.717333 
L 210.019208 212.152889 
L 208.438042 210.588444 
L 206.100667 209.024 
L 151.000483 207.459556 
L 147.563167 194.944 
L 147.528793 191.815111 
L 147.49442 190.250667 
L 144.12585 169.912889 
L 144.091477 151.139556 
L 144.057104 140.188444 
L 144.022731 130.801778 
L 143.988357 122.979556 
L 143.919611 121.415111 
L 143.885238 119.850667 
L 143.850865 116.721778 
L 143.782118 108.899556 
L 143.747745 107.335111 
L 143.713372 105.770667 
L 143.644626 104.206222 
L 143.575879 101.077333 
L 143.541506 99.512889 
L 143.47276 97.948444 
L 143.232148 96.384 
L 142.750924 94.819556 
L 109.271461 93.255111 
L 109.099595 90.126222 
L 108.583997 88.561778 
L 108.412131 86.997333 
L 108.137146 85.432889 
L 104.046739 83.868444 
L 103.153037 82.304 
L 75.035788 80.739556 
L 75.001415 79.175111 
L 74.967042 77.610667 
L 74.932669 74.481778 
L 74.898295 72.917333 
L 74.760803 71.352889 
L 74.657683 69.788444 
L 74.62331 68.224 
L 74.588937 66.659556 
L 74.313952 63.530667 
L 74.279578 61.966222 
L 74.245205 60.401778 
L 74.210832 57.272889 
L 73.97022 55.708444 
L 73.832727 54.144 
z
" clip-path="url(#pfc48b40eac)" style="fill: #ff0000"/>
   </g>
   <g id="matplotlib.axis_1">
    <g id="xtick_1">
     <g id="line2d_1">
      <defs>
       <path id="m987b2b8b48" d="M 0 0 
L 0 3.5 
" style="stroke: #000000; stroke-width: 0.8"/>
      </defs>
      <g>
       <use xlink:href="#m987b2b8b48" x="75.413893" y="307.584" style="stroke: #000000; stroke-width: 0.8"/>
      </g>
     </g>
     <g id="text_1">
      <!-- 20 -->
      <g transform="translate(69.051393 322.182437)scale(0.1 -0.1)">
       <defs>
        <path id="DejaVuSans-32" d="M 1228 531 
L 3431 531 
L 3431 0 
L 469 0 
L 469 531 
Q 828 903 1448 1529 
Q 2069 2156 2228 2338 
Q 2531 2678 2651 2914 
Q 2772 3150 2772 3378 
Q 2772 3750 2511 3984 
Q 2250 4219 1831 4219 
Q 1534 4219 1204 4116 
Q 875 4013 500 3803 
L 500 4441 
Q 881 4594 1212 4672 
Q 1544 4750 1819 4750 
Q 2544 4750 2975 4387 
Q 3406 4025 3406 3419 
Q 3406 3131 3298 2873 
Q 3191 2616 2906 2266 
Q 2828 2175 2409 1742 
Q 1991 1309 1228 531 
z
" transform="scale(0.015625)"/>
        <path id="DejaVuSans-30" d="M 2034 4250 
Q 1547 4250 1301 3770 
Q 1056 3291 1056 2328 
Q 1056 1369 1301 889 
Q 1547 409 2034 409 
Q 2525 409 2770 889 
Q 3016 1369 3016 2328 
Q 3016 3291 2770 3770 
Q 2525 4250 2034 4250 
z
M 2034 4750 
Q 2819 4750 3233 4129 
Q 3647 3509 3647 2328 
Q 3647 1150 3233 529 
Q 2819 -91 2034 -91 
Q 1250 -91 836 529 
Q 422 1150 422 2328 
Q 422 3509 836 4129 
Q 1250 4750 2034 4750 
z
" transform="scale(0.015625)"/>
       </defs>
       <use xlink:href="#DejaVuSans-32"/>
       <use xlink:href="#DejaVuSans-30" x="63.623047"/>
      </g>
     </g>
    </g>
    <g id="xtick_2">
     <g id="line2d_2">
      <g>
       <use xlink:href="#m987b2b8b48" x="144.160223" y="307.584" style="stroke: #000000; stroke-width: 0.8"/>
      </g>
     </g>
     <g id="text_2">
      <!-- 40 -->
      <g transform="translate(137.797723 322.182437)scale(0.1 -0.1)">
       <defs>
        <path id="DejaVuSans-34" d="M 2419 4116 
L 825 1625 
L 2419 1625 
L 2419 4116 
z
M 2253 4666 
L 3047 4666 
L 3047 1625 
L 3713 1625 
L 3713 1100 
L 3047 1100 
L 3047 0 
L 2419 0 
L 2419 1100 
L 313 1100 
L 313 1709 
L 2253 4666 
z
" transform="scale(0.015625)"/>
       </defs>
       <use xlink:href="#DejaVuSans-34"/>
       <use xlink:href="#DejaVuSans-30" x="63.623047"/>
      </g>
     </g>
    </g>
    <g id="xtick_3">
     <g id="line2d_3">
      <g>
       <use xlink:href="#m987b2b8b48" x="212.906554" y="307.584" style="stroke: #000000; stroke-width: 0.8"/>
      </g>
     </g>
     <g id="text_3">
      <!-- 60 -->
      <g transform="translate(206.544054 322.182437)scale(0.1 -0.1)">
       <defs>
        <path id="DejaVuSans-36" d="M 2113 2584 
Q 1688 2584 1439 2293 
Q 1191 2003 1191 1497 
Q 1191 994 1439 701 
Q 1688 409 2113 409 
Q 2538 409 2786 701 
Q 3034 994 3034 1497 
Q 3034 2003 2786 2293 
Q 2538 2584 2113 2584 
z
M 3366 4563 
L 3366 3988 
Q 3128 4100 2886 4159 
Q 2644 4219 2406 4219 
Q 1781 4219 1451 3797 
Q 1122 3375 1075 2522 
Q 1259 2794 1537 2939 
Q 1816 3084 2150 3084 
Q 2853 3084 3261 2657 
Q 3669 2231 3669 1497 
Q 3669 778 3244 343 
Q 2819 -91 2113 -91 
Q 1303 -91 875 529 
Q 447 1150 447 2328 
Q 447 3434 972 4092 
Q 1497 4750 2381 4750 
Q 2619 4750 2861 4703 
Q 3103 4656 3366 4563 
z
" transform="scale(0.015625)"/>
       </defs>
       <use xlink:href="#DejaVuSans-36"/>
       <use xlink:href="#DejaVuSans-30" x="63.623047"/>
      </g>
     </g>
    </g>
    <g id="xtick_4">
     <g id="line2d_4">
      <g>
       <use xlink:href="#m987b2b8b48" x="281.652884" y="307.584" style="stroke: #000000; stroke-width: 0.8"/>
      </g>
     </g>
     <g id="text_4">
      <!-- 80 -->
      <g transform="translate(275.290384 322.182437)scale(0.1 -0.1)">
       <defs>
        <path id="DejaVuSans-38" d="M 2034 2216 
Q 1584 2216 1326 1975 
Q 1069 1734 1069 1313 
Q 1069 891 1326 650 
Q 1584 409 2034 409 
Q 2484 409 2743 651 
Q 3003 894 3003 1313 
Q 3003 1734 2745 1975 
Q 2488 2216 2034 2216 
z
M 1403 2484 
Q 997 2584 770 2862 
Q 544 3141 544 3541 
Q 544 4100 942 4425 
Q 1341 4750 2034 4750 
Q 2731 4750 3128 4425 
Q 3525 4100 3525 3541 
Q 3525 3141 3298 2862 
Q 3072 2584 2669 2484 
Q 3125 2378 3379 2068 
Q 3634 1759 3634 1313 
Q 3634 634 3220 271 
Q 2806 -91 2034 -91 
Q 1263 -91 848 271 
Q 434 634 434 1313 
Q 434 1759 690 2068 
Q 947 2378 1403 2484 
z
M 1172 3481 
Q 1172 3119 1398 2916 
Q 1625 2713 2034 2713 
Q 2441 2713 2670 2916 
Q 2900 3119 2900 3481 
Q 2900 3844 2670 4047 
Q 2441 4250 2034 4250 
Q 1625 4250 1398 4047 
Q 1172 3844 1172 3481 
z
" transform="scale(0.015625)"/>
       </defs>
       <use xlink:href="#DejaVuSans-38"/>
       <use xlink:href="#DejaVuSans-30" x="63.623047"/>
      </g>
     </g>
    </g>
    <g id="xtick_5">
     <g id="line2d_5">
      <g>
       <use xlink:href="#m987b2b8b48" x="350.399215" y="307.584" style="stroke: #000000; stroke-width: 0.8"/>
      </g>
     </g>
     <g id="text_5">
      <!-- 100 -->
      <g transform="translate(340.855465 322.182437)scale(0.1 -0.1)">
       <defs>
        <path id="DejaVuSans-31" d="M 794 531 
L 1825 531 
L 1825 4091 
L 703 3866 
L 703 4441 
L 1819 4666 
L 2450 4666 
L 2450 531 
L 3481 531 
L 3481 0 
L 794 0 
L 794 531 
z
" transform="scale(0.015625)"/>
       </defs>
       <use xlink:href="#DejaVuSans-31"/>
       <use xlink:href="#DejaVuSans-30" x="63.623047"/>
       <use xlink:href="#DejaVuSans-30" x="127.246094"/>
      </g>
     </g>
    </g>
    <g id="text_6">
     <!-- Score -->
     <g transform="translate(222.157656 335.860562)scale(0.1 -0.1)">
      <defs>
       <path id="DejaVuSans-53" d="M 3425 4513 
L 3425 3897 
Q 3066 4069 2747 4153 
Q 2428 4238 2131 4238 
Q 1616 4238 1336 4038 
Q 1056 3838 1056 3469 
Q 1056 3159 1242 3001 
Q 1428 2844 1947 2747 
L 2328 2669 
Q 3034 2534 3370 2195 
Q 3706 1856 3706 1288 
Q 3706 609 3251 259 
Q 2797 -91 1919 -91 
Q 1588 -91 1214 -16 
Q 841 59 441 206 
L 441 856 
Q 825 641 1194 531 
Q 1563 422 1919 422 
Q 2459 422 2753 634 
Q 3047 847 3047 1241 
Q 3047 1584 2836 1778 
Q 2625 1972 2144 2069 
L 1759 2144 
Q 1053 2284 737 2584 
Q 422 2884 422 3419 
Q 422 4038 858 4394 
Q 1294 4750 2059 4750 
Q 2388 4750 2728 4690 
Q 3069 4631 3425 4513 
z
" transform="scale(0.015625)"/>
       <path id="DejaVuSans-63" d="M 3122 3366 
L 3122 2828 
Q 2878 2963 2633 3030 
Q 2388 3097 2138 3097 
Q 1578 3097 1268 2742 
Q 959 2388 959 1747 
Q 959 1106 1268 751 
Q 1578 397 2138 397 
Q 2388 397 2633 464 
Q 2878 531 3122 666 
L 3122 134 
Q 2881 22 2623 -34 
Q 2366 -91 2075 -91 
Q 1284 -91 818 406 
Q 353 903 353 1747 
Q 353 2603 823 3093 
Q 1294 3584 2113 3584 
Q 2378 3584 2631 3529 
Q 2884 3475 3122 3366 
z
" transform="scale(0.015625)"/>
       <path id="DejaVuSans-6f" d="M 1959 3097 
Q 1497 3097 1228 2736 
Q 959 2375 959 1747 
Q 959 1119 1226 758 
Q 1494 397 1959 397 
Q 2419 397 2687 759 
Q 2956 1122 2956 1747 
Q 2956 2369 2687 2733 
Q 2419 3097 1959 3097 
z
M 1959 3584 
Q 2709 3584 3137 3096 
Q 3566 2609 3566 1747 
Q 3566 888 3137 398 
Q 2709 -91 1959 -91 
Q 1206 -91 779 398 
Q 353 888 353 1747 
Q 353 2609 779 3096 
Q 1206 3584 1959 3584 
z
" transform="scale(0.015625)"/>
       <path id="DejaVuSans-72" d="M 2631 2963 
Q 2534 3019 2420 3045 
Q 2306 3072 2169 3072 
Q 1681 3072 1420 2755 
Q 1159 2438 1159 1844 
L 1159 0 
L 581 0 
L 581 3500 
L 1159 3500 
L 1159 2956 
Q 1341 3275 1631 3429 
Q 1922 3584 2338 3584 
Q 2397 3584 2469 3576 
Q 2541 3569 2628 3553 
L 2631 2963 
z
" transform="scale(0.015625)"/>
       <path id="DejaVuSans-65" d="M 3597 1894 
L 3597 1613 
L 953 1613 
Q 991 1019 1311 708 
Q 1631 397 2203 397 
Q 2534 397 2845 478 
Q 3156 559 3463 722 
L 3463 178 
Q 3153 47 2828 -22 
Q 2503 -91 2169 -91 
Q 1331 -91 842 396 
Q 353 884 353 1716 
Q 353 2575 817 3079 
Q 1281 3584 2069 3584 
Q 2775 3584 3186 3129 
Q 3597 2675 3597 1894 
z
M 3022 2063 
Q 3016 2534 2758 2815 
Q 2500 3097 2075 3097 
Q 1594 3097 1305 2825 
Q 1016 2553 972 2059 
L 3022 2063 
z
" transform="scale(0.015625)"/>
      </defs>
      <use xlink:href="#DejaVuSans-53"/>
      <use xlink:href="#DejaVuSans-63" x="63.476562"/>
      <use xlink:href="#DejaVuSans-6f" x="118.457031"/>
      <use xlink:href="#DejaVuSans-72" x="179.638672"/>
      <use xlink:href="#DejaVuSans-65" x="218.501953"/>
     </g>
    </g>
   </g>
   <g id="matplotlib.axis_2">
    <g id="ytick_1">
     <g id="line2d_6">
      <defs>
       <path id="mf56c1aa573" d="M 0 0 
L -3.5 0 
" style="stroke: #000000; stroke-width: 0.8"/>
      </defs>
      <g>
       <use xlink:href="#mf56c1aa573" x="57.6" y="307.584" style="stroke: #000000; stroke-width: 0.8"/>
      </g>
     </g>
     <g id="text_7">
      <!-- 0 -->
      <g transform="translate(44.2375 311.383219)scale(0.1 -0.1)">
       <use xlink:href="#DejaVuSans-30"/>
      </g>
     </g>
    </g>
    <g id="ytick_2">
     <g id="line2d_7">
      <g>
       <use xlink:href="#mf56c1aa573" x="57.6" y="276.295111" style="stroke: #000000; stroke-width: 0.8"/>
      </g>
     </g>
     <g id="text_8">
      <!-- 20 -->
      <g transform="translate(37.875 280.09433)scale(0.1 -0.1)">
       <use xlink:href="#DejaVuSans-32"/>
       <use xlink:href="#DejaVuSans-30" x="63.623047"/>
      </g>
     </g>
    </g>
    <g id="ytick_3">
     <g id="line2d_8">
      <g>
       <use xlink:href="#mf56c1aa573" x="57.6" y="245.006222" style="stroke: #000000; stroke-width: 0.8"/>
      </g>
     </g>
     <g id="text_9">
      <!-- 40 -->
      <g transform="translate(37.875 248.805441)scale(0.1 -0.1)">
       <use xlink:href="#DejaVuSans-34"/>
       <use xlink:href="#DejaVuSans-30" x="63.623047"/>
      </g>
     </g>
    </g>
    <g id="ytick_4">
     <g id="line2d_9">
      <g>
       <use xlink:href="#mf56c1aa573" x="57.6" y="213.717333" style="stroke: #000000; stroke-width: 0.8"/>
      </g>
     </g>
     <g id="text_10">
      <!-- 60 -->
      <g transform="translate(37.875 217.516552)scale(0.1 -0.1)">
       <use xlink:href="#DejaVuSans-36"/>
       <use xlink:href="#DejaVuSans-30" x="63.623047"/>
      </g>
     </g>
    </g>
    <g id="ytick_5">
     <g id="line2d_10">
      <g>
       <use xlink:href="#mf56c1aa573" x="57.6" y="182.428444" style="stroke: #000000; stroke-width: 0.8"/>
      </g>
     </g>
     <g id="text_11">
      <!-- 80 -->
      <g transform="translate(37.875 186.227663)scale(0.1 -0.1)">
       <use xlink:href="#DejaVuSans-38"/>
       <use xlink:href="#DejaVuSans-30" x="63.623047"/>
      </g>
     </g>
    </g>
    <g id="ytick_6">
     <g id="line2d_11">
      <g>
       <use xlink:href="#mf56c1aa573" x="57.6" y="151.139556" style="stroke: #000000; stroke-width: 0.8"/>
      </g>
     </g>
     <g id="text_12">
      <!-- 100 -->
      <g transform="translate(31.5125 154.938774)scale(0.1 -0.1)">
       <use xlink:href="#DejaVuSans-31"/>
       <use xlink:href="#DejaVuSans-30" x="63.623047"/>
       <use xlink:href="#DejaVuSans-30" x="127.246094"/>
      </g>
     </g>
    </g>
    <g id="ytick_7">
     <g id="line2d_12">
      <g>
       <use xlink:href="#mf56c1aa573" x="57.6" y="119.850667" style="stroke: #000000; stroke-width: 0.8"/>
      </g>
     </g>
     <g id="text_13">
      <!-- 120 -->
      <g transform="translate(31.5125 123.649885)scale(0.1 -0.1)">
       <use xlink:href="#DejaVuSans-31"/>
       <use xlink:href="#DejaVuSans-32" x="63.623047"/>
       <use xlink:href="#DejaVuSans-30" x="127.246094"/>
      </g>
     </g>
    </g>
    <g id="ytick_8">
     <g id="line2d_13">
      <g>
       <use xlink:href="#mf56c1aa573" x="57.6" y="88.561778" style="stroke: #000000; stroke-width: 0.8"/>
      </g>
     </g>
     <g id="text_14">
      <!-- 140 -->
      <g transform="translate(31.5125 92.360997)scale(0.1 -0.1)">
       <use xlink:href="#DejaVuSans-31"/>
       <use xlink:href="#DejaVuSans-34" x="63.623047"/>
       <use xlink:href="#DejaVuSans-30" x="127.246094"/>
      </g>
     </g>
    </g>
    <g id="ytick_9">
     <g id="line2d_14">
      <g>
       <use xlink:href="#mf56c1aa573" x="57.6" y="57.272889" style="stroke: #000000; stroke-width: 0.8"/>
      </g>
     </g>
     <g id="text_15">
      <!-- 160 -->
      <g transform="translate(31.5125 61.072108)scale(0.1 -0.1)">
       <use xlink:href="#DejaVuSans-31"/>
       <use xlink:href="#DejaVuSans-36" x="63.623047"/>
       <use xlink:href="#DejaVuSans-30" x="127.246094"/>
      </g>
     </g>
    </g>
    <g id="text_16">
     <!-- Number of crosslinks -->
     <g transform="translate(25.432812 227.019406)rotate(-90)scale(0.1 -0.1)">
      <defs>
       <path id="DejaVuSans-4e" d="M 628 4666 
L 1478 4666 
L 3547 763 
L 3547 4666 
L 4159 4666 
L 4159 0 
L 3309 0 
L 1241 3903 
L 1241 0 
L 628 0 
L 628 4666 
z
" transform="scale(0.015625)"/>
       <path id="DejaVuSans-75" d="M 544 1381 
L 544 3500 
L 1119 3500 
L 1119 1403 
Q 1119 906 1312 657 
Q 1506 409 1894 409 
Q 2359 409 2629 706 
Q 2900 1003 2900 1516 
L 2900 3500 
L 3475 3500 
L 3475 0 
L 2900 0 
L 2900 538 
Q 2691 219 2414 64 
Q 2138 -91 1772 -91 
Q 1169 -91 856 284 
Q 544 659 544 1381 
z
M 1991 3584 
L 1991 3584 
z
" transform="scale(0.015625)"/>
       <path id="DejaVuSans-6d" d="M 3328 2828 
Q 3544 3216 3844 3400 
Q 4144 3584 4550 3584 
Q 5097 3584 5394 3201 
Q 5691 2819 5691 2113 
L 5691 0 
L 5113 0 
L 5113 2094 
Q 5113 2597 4934 2840 
Q 4756 3084 4391 3084 
Q 3944 3084 3684 2787 
Q 3425 2491 3425 1978 
L 3425 0 
L 2847 0 
L 2847 2094 
Q 2847 2600 2669 2842 
Q 2491 3084 2119 3084 
Q 1678 3084 1418 2786 
Q 1159 2488 1159 1978 
L 1159 0 
L 581 0 
L 581 3500 
L 1159 3500 
L 1159 2956 
Q 1356 3278 1631 3431 
Q 1906 3584 2284 3584 
Q 2666 3584 2933 3390 
Q 3200 3197 3328 2828 
z
" transform="scale(0.015625)"/>
       <path id="DejaVuSans-62" d="M 3116 1747 
Q 3116 2381 2855 2742 
Q 2594 3103 2138 3103 
Q 1681 3103 1420 2742 
Q 1159 2381 1159 1747 
Q 1159 1113 1420 752 
Q 1681 391 2138 391 
Q 2594 391 2855 752 
Q 3116 1113 3116 1747 
z
M 1159 2969 
Q 1341 3281 1617 3432 
Q 1894 3584 2278 3584 
Q 2916 3584 3314 3078 
Q 3713 2572 3713 1747 
Q 3713 922 3314 415 
Q 2916 -91 2278 -91 
Q 1894 -91 1617 61 
Q 1341 213 1159 525 
L 1159 0 
L 581 0 
L 581 4863 
L 1159 4863 
L 1159 2969 
z
" transform="scale(0.015625)"/>
       <path id="DejaVuSans-20" transform="scale(0.015625)"/>
       <path id="DejaVuSans-66" d="M 2375 4863 
L 2375 4384 
L 1825 4384 
Q 1516 4384 1395 4259 
Q 1275 4134 1275 3809 
L 1275 3500 
L 2222 3500 
L 2222 3053 
L 1275 3053 
L 1275 0 
L 697 0 
L 697 3053 
L 147 3053 
L 147 3500 
L 697 3500 
L 697 3744 
Q 697 4328 969 4595 
Q 1241 4863 1831 4863 
L 2375 4863 
z
" transform="scale(0.015625)"/>
       <path id="DejaVuSans-73" d="M 2834 3397 
L 2834 2853 
Q 2591 2978 2328 3040 
Q 2066 3103 1784 3103 
Q 1356 3103 1142 2972 
Q 928 2841 928 2578 
Q 928 2378 1081 2264 
Q 1234 2150 1697 2047 
L 1894 2003 
Q 2506 1872 2764 1633 
Q 3022 1394 3022 966 
Q 3022 478 2636 193 
Q 2250 -91 1575 -91 
Q 1294 -91 989 -36 
Q 684 19 347 128 
L 347 722 
Q 666 556 975 473 
Q 1284 391 1588 391 
Q 1994 391 2212 530 
Q 2431 669 2431 922 
Q 2431 1156 2273 1281 
Q 2116 1406 1581 1522 
L 1381 1569 
Q 847 1681 609 1914 
Q 372 2147 372 2553 
Q 372 3047 722 3315 
Q 1072 3584 1716 3584 
Q 2034 3584 2315 3537 
Q 2597 3491 2834 3397 
z
" transform="scale(0.015625)"/>
       <path id="DejaVuSans-6c" d="M 603 4863 
L 1178 4863 
L 1178 0 
L 603 0 
L 603 4863 
z
" transform="scale(0.015625)"/>
       <path id="DejaVuSans-69" d="M 603 3500 
L 1178 3500 
L 1178 0 
L 603 0 
L 603 3500 
z
M 603 4863 
L 1178 4863 
L 1178 4134 
L 603 4134 
L 603 4863 
z
" transform="scale(0.015625)"/>
       <path id="DejaVuSans-6e" d="M 3513 2113 
L 3513 0 
L 2938 0 
L 2938 2094 
Q 2938 2591 2744 2837 
Q 2550 3084 2163 3084 
Q 1697 3084 1428 2787 
Q 1159 2491 1159 1978 
L 1159 0 
L 581 0 
L 581 3500 
L 1159 3500 
L 1159 2956 
Q 1366 3272 1645 3428 
Q 1925 3584 2291 3584 
Q 2894 3584 3203 3211 
Q 3513 2838 3513 2113 
z
" transform="scale(0.015625)"/>
       <path id="DejaVuSans-6b" d="M 581 4863 
L 1159 4863 
L 1159 1991 
L 2875 3500 
L 3609 3500 
L 1753 1863 
L 3688 0 
L 2938 0 
L 1159 1709 
L 1159 0 
L 581 0 
L 581 4863 
z
" transform="scale(0.015625)"/>
      </defs>
      <use xlink:href="#DejaVuSans-4e"/>
      <use xlink:href="#DejaVuSans-75" x="74.804688"/>
      <use xlink:href="#DejaVuSans-6d" x="138.183594"/>
      <use xlink:href="#DejaVuSans-62" x="235.595703"/>
      <use xlink:href="#DejaVuSans-65" x="299.072266"/>
      <use xlink:href="#DejaVuSans-72" x="360.595703"/>
      <use xlink:href="#DejaVuSans-20" x="401.708984"/>
      <use xlink:href="#DejaVuSans-6f" x="433.496094"/>
      <use xlink:href="#DejaVuSans-66" x="494.677734"/>
      <use xlink:href="#DejaVuSans-20" x="529.882812"/>
      <use xlink:href="#DejaVuSans-63" x="561.669922"/>
      <use xlink:href="#DejaVuSans-72" x="616.650391"/>
      <use xlink:href="#DejaVuSans-6f" x="655.513672"/>
      <use xlink:href="#DejaVuSans-73" x="716.695312"/>
      <use xlink:href="#DejaVuSans-73" x="768.794922"/>
      <use xlink:href="#DejaVuSans-6c" x="820.894531"/>
      <use xlink:href="#DejaVuSans-69" x="848.677734"/>
      <use xlink:href="#DejaVuSans-6e" x="876.460938"/>
      <use xlink:href="#DejaVuSans-6b" x="939.839844"/>
      <use xlink:href="#DejaVuSans-73" x="997.75"/>
     </g>
    </g>
   </g>
   <g id="patch_3">
    <path d="M 57.6 307.584 
L 57.6 41.472 
" style="fill: none; stroke: #000000; stroke-width: 0.8; stroke-linejoin: miter; stroke-linecap: square"/>
   </g>
   <g id="patch_4">
    <path d="M 414.72 307.584 
L 414.72 41.472 
" style="fill: none; stroke: #000000; stroke-width: 0.8; stroke-linejoin: miter; stroke-linecap: square"/>
   </g>
   <g id="patch_5">
    <path d="M 57.6 307.584 
L 414.72 307.584 
" style="fill: none; stroke: #000000; stroke-width: 0.8; stroke-linejoin: miter; stroke-linecap: square"/>
   </g>
   <g id="patch_6">
    <path d="M 57.6 41.472 
L 414.72 41.472 
" style="fill: none; stroke: #000000; stroke-width: 0.8; stroke-linejoin: miter; stroke-linecap: square"/>
   </g>
   <g id="legend_1">
    <g id="patch_7">
     <path d="M 293.087188 93.506375 
L 407.72 93.506375 
Q 409.72 93.506375 409.72 91.506375 
L 409.72 48.472 
Q 409.72 46.472 407.72 46.472 
L 293.087188 46.472 
Q 291.087188 46.472 291.087188 48.472 
L 291.087188 91.506375 
Q 291.087188 93.506375 293.087188 93.506375 
z
" style="fill: #ffffff; opacity: 0.8; stroke: #cccccc; stroke-linejoin: miter"/>
    </g>
    <g id="patch_8">
     <path d="M 295.087188 58.070438 
L 315.087188 58.070438 
L 315.087188 51.070438 
L 295.087188 51.070438 
z
" style="fill: #008000"/>
    </g>
    <g id="text_17">
     <!-- true -->
     <g transform="translate(323.087188 58.070438)scale(0.1 -0.1)">
      <defs>
       <path id="DejaVuSans-74" d="M 1172 4494 
L 1172 3500 
L 2356 3500 
L 2356 3053 
L 1172 3053 
L 1172 1153 
Q 1172 725 1289 603 
Q 1406 481 1766 481 
L 2356 481 
L 2356 0 
L 1766 0 
Q 1100 0 847 248 
Q 594 497 594 1153 
L 594 3053 
L 172 3053 
L 172 3500 
L 594 3500 
L 594 4494 
L 1172 4494 
z
" transform="scale(0.015625)"/>
      </defs>
      <use xlink:href="#DejaVuSans-74"/>
      <use xlink:href="#DejaVuSans-72" x="39.208984"/>
      <use xlink:href="#DejaVuSans-75" x="80.322266"/>
      <use xlink:href="#DejaVuSans-65" x="143.701172"/>
     </g>
    </g>
    <g id="patch_9">
     <path d="M 295.087188 72.748563 
L 315.087188 72.748563 
L 315.087188 65.748563 
L 295.087188 65.748563 
z
" style="fill: #7cfc00"/>
    </g>
    <g id="text_18">
     <!-- true homeotypic -->
     <g transform="translate(323.087188 72.748563)scale(0.1 -0.1)">
      <defs>
       <path id="DejaVuSans-68" d="M 3513 2113 
L 3513 0 
L 2938 0 
L 2938 2094 
Q 2938 2591 2744 2837 
Q 2550 3084 2163 3084 
Q 1697 3084 1428 2787 
Q 1159 2491 1159 1978 
L 1159 0 
L 581 0 
L 581 4863 
L 1159 4863 
L 1159 2956 
Q 1366 3272 1645 3428 
Q 1925 3584 2291 3584 
Q 2894 3584 3203 3211 
Q 3513 2838 3513 2113 
z
" transform="scale(0.015625)"/>
       <path id="DejaVuSans-79" d="M 2059 -325 
Q 1816 -950 1584 -1140 
Q 1353 -1331 966 -1331 
L 506 -1331 
L 506 -850 
L 844 -850 
Q 1081 -850 1212 -737 
Q 1344 -625 1503 -206 
L 1606 56 
L 191 3500 
L 800 3500 
L 1894 763 
L 2988 3500 
L 3597 3500 
L 2059 -325 
z
" transform="scale(0.015625)"/>
       <path id="DejaVuSans-70" d="M 1159 525 
L 1159 -1331 
L 581 -1331 
L 581 3500 
L 1159 3500 
L 1159 2969 
Q 1341 3281 1617 3432 
Q 1894 3584 2278 3584 
Q 2916 3584 3314 3078 
Q 3713 2572 3713 1747 
Q 3713 922 3314 415 
Q 2916 -91 2278 -91 
Q 1894 -91 1617 61 
Q 1341 213 1159 525 
z
M 3116 1747 
Q 3116 2381 2855 2742 
Q 2594 3103 2138 3103 
Q 1681 3103 1420 2742 
Q 1159 2381 1159 1747 
Q 1159 1113 1420 752 
Q 1681 391 2138 391 
Q 2594 391 2855 752 
Q 3116 1113 3116 1747 
z
" transform="scale(0.015625)"/>
      </defs>
      <use xlink:href="#DejaVuSans-74"/>
      <use xlink:href="#DejaVuSans-72" x="39.208984"/>
      <use xlink:href="#DejaVuSans-75" x="80.322266"/>
      <use xlink:href="#DejaVuSans-65" x="143.701172"/>
      <use xlink:href="#DejaVuSans-20" x="205.224609"/>
      <use xlink:href="#DejaVuSans-68" x="237.011719"/>
      <use xlink:href="#DejaVuSans-6f" x="300.390625"/>
      <use xlink:href="#DejaVuSans-6d" x="361.572266"/>
      <use xlink:href="#DejaVuSans-65" x="458.984375"/>
      <use xlink:href="#DejaVuSans-6f" x="520.507812"/>
      <use xlink:href="#DejaVuSans-74" x="581.689453"/>
      <use xlink:href="#DejaVuSans-79" x="620.898438"/>
      <use xlink:href="#DejaVuSans-70" x="680.078125"/>
      <use xlink:href="#DejaVuSans-69" x="743.554688"/>
      <use xlink:href="#DejaVuSans-63" x="771.337891"/>
     </g>
    </g>
    <g id="patch_10">
     <path d="M 295.087188 87.426688 
L 315.087188 87.426688 
L 315.087188 80.426688 
L 295.087188 80.426688 
z
" style="fill: #ff0000"/>
    </g>
    <g id="text_19">
     <!-- false -->
     <g transform="translate(323.087188 87.426688)scale(0.1 -0.1)">
      <defs>
       <path id="DejaVuSans-61" d="M 2194 1759 
Q 1497 1759 1228 1600 
Q 959 1441 959 1056 
Q 959 750 1161 570 
Q 1363 391 1709 391 
Q 2188 391 2477 730 
Q 2766 1069 2766 1631 
L 2766 1759 
L 2194 1759 
z
M 3341 1997 
L 3341 0 
L 2766 0 
L 2766 531 
Q 2569 213 2275 61 
Q 1981 -91 1556 -91 
Q 1019 -91 701 211 
Q 384 513 384 1019 
Q 384 1609 779 1909 
Q 1175 2209 1959 2209 
L 2766 2209 
L 2766 2266 
Q 2766 2663 2505 2880 
Q 2244 3097 1772 3097 
Q 1472 3097 1187 3025 
Q 903 2953 641 2809 
L 641 3341 
Q 956 3463 1253 3523 
Q 1550 3584 1831 3584 
Q 2591 3584 2966 3190 
Q 3341 2797 3341 1997 
z
" transform="scale(0.015625)"/>
      </defs>
      <use xlink:href="#DejaVuSans-66"/>
      <use xlink:href="#DejaVuSans-61" x="35.205078"/>
      <use xlink:href="#DejaVuSans-6c" x="96.484375"/>
      <use xlink:href="#DejaVuSans-73" x="124.267578"/>
      <use xlink:href="#DejaVuSans-65" x="176.367188"/>
     </g>
    </g>
   </g>
  </g>
 </g>
 <defs>
  <clipPath id="pfc48b40eac">
   <rect x="57.6" y="41.472" width="357.12" height="266.112"/>
  </clipPath>
 </defs>
</svg>
