<?xml version="1.0" encoding="utf-8" standalone="no"?>
<!DOCTYPE svg PUBLIC "-//W3C//DTD SVG 1.1//EN"
  "http://www.w3.org/Graphics/SVG/1.1/DTD/svg11.dtd">
<svg xmlns:xlink="http://www.w3.org/1999/xlink" width="460.8pt" height="345.6pt" viewBox="0 0 460.8 345.6" xmlns="http://www.w3.org/2000/svg" version="1.1">
 <metadata>
  <rdf:RDF xmlns:dc="http://purl.org/dc/elements/1.1/" xmlns:cc="http://creativecommons.org/ns#" xmlns:rdf="http://www.w3.org/1999/02/22-rdf-syntax-ns#">
   <cc:Work>
    <dc:type rdf:resource="http://purl.org/dc/dcmitype/StillImage"/>
    <dc:date>2022-07-21T14:03:09.610547</dc:date>
    <dc:format>image/svg+xml</dc:format>
    <dc:creator>
     <cc:Agent>
      <dc:title>Matplotlib v3.5.1, https://matplotlib.org/</dc:title>
     </cc:Agent>
    </dc:creator>
   </cc:Work>
  </rdf:RDF>
 </metadata>
 <defs>
  <style type="text/css">*{stroke-linejoin: round; stroke-linecap: butt}</style>
 </defs>
 <g id="figure_1">
  <g id="patch_1">
   <path d="M 0 345.6 
L 460.8 345.6 
L 460.8 0 
L 0 0 
z
" style="fill: #ffffff"/>
  </g>
  <g id="axes_1">
   <g id="patch_2">
    <path d="M 57.6 307.584 
L 414.72 307.584 
L 414.72 41.472 
L 57.6 41.472 
z
" style="fill: #ffffff"/>
   </g>
   <g id="PolyCollection_1">
    <path d="M 73.832727 101.588929 
L 73.832727 307.584 
L 74.043683 307.584 
L 74.069253 307.584 
L 74.088431 307.584 
L 74.321761 307.584 
L 74.340939 307.584 
L 74.41765 307.584 
L 75.076088 307.584 
L 75.267866 307.584 
L 75.411699 307.584 
L 75.440466 307.584 
L 75.577907 307.584 
L 75.587496 307.584 
L 75.849592 307.584 
L 76.217167 307.584 
L 76.345019 307.584 
L 76.348215 307.584 
L 76.450497 307.584 
L 76.456889 307.584 
L 76.907568 307.584 
L 77.025831 307.584 
L 77.035419 307.584 
L 77.083364 307.584 
L 77.415779 307.584 
L 77.450938 307.584 
L 77.460527 307.584 
L 77.534042 307.584 
L 77.818513 307.584 
L 78.035861 307.584 
L 78.048646 307.584 
L 78.16691 307.584 
L 78.419417 307.584 
L 79.068266 307.584 
L 79.266437 307.584 
L 79.656385 307.584 
L 79.828985 307.584 
L 80.014371 307.584 
L 80.100671 307.584 
L 80.123045 307.584 
L 80.206149 307.584 
L 80.289253 307.584 
L 80.487423 307.584 
L 80.612079 307.584 
L 80.902942 307.584 
L 81.129879 307.584 
L 81.650876 307.584 
L 81.785121 307.584 
L 81.858636 307.584 
L 82.044021 307.584 
L 82.325295 307.584 
L 82.360455 307.584 
L 82.494699 307.584 
L 82.945378 307.584 
L 82.948574 307.584 
L 82.996518 307.584 
L 83.444 307.584 
L 83.488748 307.584 
L 83.73806 307.584 
L 84.054493 307.584 
L 84.227094 307.584 
L 84.521153 307.584 
L 84.530742 307.584 
L 84.556313 307.584 
L 85.106076 307.584 
L 85.345799 307.584 
L 85.502417 307.584 
L 85.662232 307.584 
L 85.754925 307.584 
L 85.774103 307.584 
L 85.959488 307.584 
L 85.972273 307.584 
L 86.077751 307.584 
L 86.876826 307.584 
L 87.516086 307.584 
L 87.784575 307.584 
L 87.969961 307.584 
L 88.187309 307.584 
L 88.209683 307.584 
L 88.32475 307.584 
L 88.446209 307.584 
L 88.701913 307.584 
L 88.890495 307.584 
L 89.005562 307.584 
L 89.056702 307.584 
L 89.111039 307.584 
L 89.264462 307.584 
L 89.561718 307.584 
L 90.041163 307.584 
L 91.300505 307.584 
L 91.322879 307.584 
L 91.428357 307.584 
L 91.533835 307.584 
L 91.610546 307.584 
L 91.751183 307.584 
L 92.310535 307.584 
L 92.50551 307.584 
L 92.521491 307.584 
L 93.192714 307.584 
L 93.224677 307.584 
L 93.227873 307.584 
L 93.387688 307.584 
L 93.445222 307.584 
L 93.521933 307.584 
L 93.525129 307.584 
L 94.094071 307.584 
L 94.736527 307.584 
L 94.797257 307.584 
L 94.864379 307.584 
L 95.033783 307.584 
L 95.158438 307.584 
L 95.238346 307.584 
L 95.698613 307.584 
L 96.091758 307.584 
L 96.318695 307.584 
L 96.833299 307.584 
L 96.836496 307.584 
L 96.910011 307.584 
L 97.271192 307.584 
L 97.980771 307.584 
L 98.01593 307.584 
L 98.415468 307.584 
L 98.747883 307.584 
L 98.754275 307.584 
L 98.850164 307.584 
L 98.920483 307.584 
L 99.172991 307.584 
L 99.652436 307.584 
L 99.920925 307.584 
L 99.949692 307.584 
L 100.751963 307.584 
L 101.519075 307.584 
L 102.25742 307.584 
L 102.500339 307.584 
L 102.704902 307.584 
L 102.813576 307.584 
L 103.066084 307.584 
L 103.149187 307.584 
L 103.666988 307.584 
L 103.849177 307.584 
L 103.871551 307.584 
L 104.251911 307.584 
L 104.389352 307.584 
L 104.414922 307.584 
L 104.597111 307.584 
L 104.6067 307.584 
L 104.635467 307.584 
L 104.670626 307.584 
L 105.162856 307.584 
L 105.24596 307.584 
L 105.367419 307.584 
L 105.607142 307.584 
L 106.479732 307.584 
L 106.617173 307.584 
L 106.770595 307.584 
L 106.949588 307.584 
L 107.16374 307.584 
L 107.633596 307.584 
L 108.212126 307.584 
L 108.2345 307.584 
L 108.349567 307.584 
L 108.876956 307.584 
L 108.976042 307.584 
L 109.094305 307.584 
L 109.161427 307.584 
L 109.334027 307.584 
L 110.369628 307.584 
L 110.580584 307.584 
L 111.008888 307.584 
L 112.00933 307.584 
L 112.207501 307.584 
L 112.284212 307.584 
L 112.945846 307.584 
L 113.22712 307.584 
L 113.43488 307.584 
L 114.032588 307.584 
L 114.048569 307.584 
L 114.326647 307.584 
L 114.365003 307.584 
L 114.403358 307.584 
L 114.575959 307.584 
L 114.623903 307.584 
L 114.914766 307.584 
L 115.199237 307.584 
L 115.243985 307.584 
L 115.263163 307.584 
L 115.499689 307.584 
L 115.557223 307.584 
L 116.27639 307.584 
L 116.608805 307.584 
L 116.695105 307.584 
L 116.864509 307.584 
L 117.085054 307.584 
L 117.107428 307.584 
L 117.449432 307.584 
L 117.976821 307.584 
L 118.248507 307.584 
L 118.475444 307.584 
L 118.568137 307.584 
L 118.648044 307.584 
L 118.689596 307.584 
L 118.737541 307.584 
L 119.220182 307.584 
L 120.696872 307.584 
L 120.86308 307.584 
L 121.160336 307.584 
L 121.61421 307.584 
L 121.949822 307.584 
L 122.074478 307.584 
L 122.269452 307.584 
L 122.279041 307.584 
L 122.416482 307.584 
L 122.617848 307.584 
L 122.857571 307.584 
L 123.068527 307.584 
L 123.071723 307.584 
L 123.886779 307.584 
L 124.065772 307.584 
L 124.305495 307.584 
L 124.66348 307.584 
L 124.823295 307.584 
L 125.571229 307.584 
L 125.689492 307.584 
L 126.168937 307.584 
L 126.370304 307.584 
L 126.638793 307.584 
L 126.657971 307.584 
L 127.226912 307.584 
L 127.514579 307.584 
L 127.926902 307.584 
L 128.297673 307.584 
L 128.722781 307.584 
L 128.898577 307.584 
L 129.183048 307.584 
L 129.230992 307.584 
L 129.438752 307.584 
L 129.445144 307.584 
L 129.521856 307.584 
L 129.572996 307.584 
L 130.212256 307.584 
L 130.285771 307.584 
L 130.288968 307.584 
L 130.867498 307.584 
L 131.66018 307.584 
L 132.555144 307.584 
L 132.846007 307.584 
L 132.967467 307.584 
L 132.986644 307.584 
L 133.782523 307.584 
L 134.166079 307.584 
L 134.281146 307.584 
L 134.645524 307.584 
L 134.715843 307.584 
L 134.914013 307.584 
L 135.403047 307.584 
L 135.585236 307.584 
L 135.975185 307.584 
L 136.716726 307.584 
L 136.914897 307.584 
L 137.18019 307.584 
L 137.873787 307.584 
L 138.081546 307.584 
L 138.318072 307.584 
L 139.459151 307.584 
L 139.471936 307.584 
L 139.612574 307.584 
L 139.868278 307.584 
L 140.165533 307.584 
L 141.450446 307.584 
L 142.271895 307.584 
L 142.441299 307.584 
L 142.546777 307.584 
L 142.991062 307.584 
L 143.048596 307.584 
L 143.160466 307.584 
L 143.412974 307.584 
L 143.812511 307.584 
L 144.659531 307.584 
L 145.10062 307.584 
L 145.116601 307.584 
L 145.362717 307.584 
L 145.915676 307.584 
L 146.142614 307.584 
L 146.570918 307.584 
L 147.229356 307.584 
L 147.453097 307.584 
L 147.475471 307.584 
L 147.593734 307.584 
L 147.993271 307.584 
L 148.709242 307.584 
L 148.805131 307.584 
L 149.42841 307.584 
L 150.281822 307.584 
L 150.978615 307.584 
L 151.506004 307.584 
L 151.633856 307.584 
L 152.004627 307.584 
L 152.829272 307.584 
L 153.011462 307.584 
L 153.74661 307.584 
L 153.947977 307.584 
L 155.053897 307.584 
L 155.459827 307.584 
L 155.741101 307.584 
L 155.942468 307.584 
L 156.888573 307.584 
L 156.965284 307.584 
L 157.26254 307.584 
L 157.49587 307.584 
L 157.984904 307.584 
L 158.30773 307.584 
L 158.358871 307.584 
L 158.362067 307.584 
L 158.371656 307.584 
L 158.470741 307.584 
L 159.790813 307.584 
L 160.05291 307.584 
L 160.148799 307.584 
L 160.369343 307.584 
L 160.714544 307.584 
L 161.216363 307.584 
L 161.852426 307.584 
L 162.788942 307.584 
L 163.316332 307.584 
L 164.006732 307.584 
L 164.144173 307.584 
L 164.799415 307.584 
L 165.681593 307.584 
L 165.898942 307.584 
L 166.60852 307.584 
L 166.873813 307.584 
L 166.969702 307.584 
L 167.637729 307.584 
L 168.618993 307.584 
L 168.9578 307.584 
L 169.229486 307.584 
L 170.332209 307.584 
L 170.543165 307.584 
L 171.450914 307.584 
L 171.57557 307.584 
L 173.180112 307.584 
L 174.554521 307.584 
L 175.165014 307.584 
L 175.765919 307.584 
L 176.210204 307.584 
L 176.587368 307.584 
L 177.622969 307.584 
L 177.782784 307.584 
L 178.195106 307.584 
L 178.275014 307.584 
L 178.703318 307.584 
L 182.017881 307.584 
L 183.063071 307.584 
L 183.699134 307.584 
L 185.195002 307.584 
L 185.613718 307.584 
L 185.664859 307.584 
L 185.696822 307.584 
L 185.808692 307.584 
L 185.869422 307.584 
L 186.189052 307.584 
L 187.905465 307.584 
L 188.06528 307.584 
L 188.944262 307.584 
L 189.855207 307.584 
L 189.976667 307.584 
L 190.373008 307.584 
L 190.890808 307.584 
L 190.945146 307.584 
L 191.77938 307.584 
L 193.95606 307.584 
L 196.487529 307.584 
L 197.865134 307.584 
L 198.552339 307.584 
L 199.661455 307.584 
L 200.412585 307.584 
L 200.51167 307.584 
L 200.959152 307.584 
L 201.815761 307.584 
L 202.205709 307.584 
L 204.283304 307.584 
L 206.750847 307.584 
L 207.473211 307.584 
L 208.748534 307.584 
L 210.183673 307.584 
L 211.177722 307.584 
L 211.769038 307.584 
L 211.893693 307.584 
L 213.670836 307.584 
L 215.125152 307.584 
L 215.179489 307.584 
L 215.774001 307.584 
L 219.49769 307.584 
L 223.659272 307.584 
L 228.955541 307.584 
L 233.315293 307.584 
L 234.24222 307.584 
L 242.945744 307.584 
L 244.428827 307.584 
L 252.147891 307.584 
L 253.359288 307.584 
L 257.217222 307.584 
L 257.268363 307.584 
L 258.649164 307.584 
L 260.627674 307.584 
L 260.63087 307.584 
L 260.662833 307.584 
L 262.871476 307.584 
L 265.818464 307.584 
L 271.536644 307.584 
L 272.1791 307.584 
L 273.109224 307.584 
L 274.151217 307.584 
L 276.784968 307.584 
L 280.240168 307.584 
L 286.217248 307.584 
L 286.75103 307.584 
L 345.818648 307.584 
L 368.387719 307.584 
L 398.487273 307.584 
L 398.487273 307.584 
L 398.487273 307.584 
L 368.387719 307.584 
L 345.818648 307.584 
L 286.75103 307.584 
L 286.217248 307.584 
L 280.240168 307.584 
L 276.784968 306.983431 
L 274.151217 306.983431 
L 273.109224 306.983431 
L 272.1791 306.983431 
L 271.536644 306.983431 
L 265.818464 306.983431 
L 262.871476 306.983431 
L 260.662833 306.983431 
L 260.63087 306.983431 
L 260.627674 306.983431 
L 258.649164 306.983431 
L 257.268363 306.382863 
L 257.217222 305.782294 
L 253.359288 305.782294 
L 252.147891 305.782294 
L 244.428827 305.782294 
L 242.945744 305.782294 
L 234.24222 305.782294 
L 233.315293 305.782294 
L 228.955541 305.782294 
L 223.659272 305.782294 
L 219.49769 305.181725 
L 215.774001 305.181725 
L 215.179489 305.181725 
L 215.125152 305.181725 
L 213.670836 304.581156 
L 211.893693 304.581156 
L 211.769038 303.980588 
L 211.177722 303.380019 
L 210.183673 302.77945 
L 208.748534 302.178882 
L 207.473211 302.178882 
L 206.750847 301.578313 
L 204.283304 300.977744 
L 202.205709 300.377175 
L 201.815761 299.776607 
L 200.959152 299.776607 
L 200.51167 299.176038 
L 200.412585 298.575469 
L 199.661455 297.9749 
L 198.552339 297.9749 
L 197.865134 297.374332 
L 196.487529 296.773763 
L 193.95606 296.173194 
L 191.77938 295.572626 
L 190.945146 294.972057 
L 190.890808 294.972057 
L 190.373008 294.371488 
L 189.976667 294.371488 
L 189.855207 293.770919 
L 188.944262 293.770919 
L 188.06528 293.170351 
L 187.905465 292.569782 
L 186.189052 292.569782 
L 185.869422 291.969213 
L 185.808692 291.368645 
L 185.696822 290.768076 
L 185.664859 290.167507 
L 185.613718 289.566938 
L 185.195002 288.96637 
L 183.699134 288.96637 
L 183.063071 288.365801 
L 182.017881 288.365801 
L 178.703318 287.765232 
L 178.275014 287.164664 
L 178.195106 286.564095 
L 177.782784 285.963526 
L 177.622969 285.362957 
L 176.587368 284.762389 
L 176.210204 284.16182 
L 175.765919 283.561251 
L 175.165014 282.960682 
L 174.554521 282.360114 
L 173.180112 281.759545 
L 171.57557 281.158976 
L 171.450914 280.558408 
L 170.543165 279.957839 
L 170.332209 279.35727 
L 169.229486 278.756701 
L 168.9578 278.156133 
L 168.618993 277.555564 
L 167.637729 276.954995 
L 166.969702 276.354427 
L 166.873813 275.753858 
L 166.60852 275.153289 
L 165.898942 274.55272 
L 165.681593 274.55272 
L 164.799415 273.952152 
L 164.144173 273.351583 
L 164.006732 272.751014 
L 163.316332 272.150445 
L 162.788942 271.549877 
L 161.852426 270.949308 
L 161.216363 270.348739 
L 160.714544 269.748171 
L 160.369343 269.147602 
L 160.148799 268.547033 
L 160.05291 267.946464 
L 159.790813 267.345896 
L 158.470741 266.745327 
L 158.371656 266.144758 
L 158.362067 265.54419 
L 158.358871 265.54419 
L 158.30773 264.943621 
L 157.984904 264.343052 
L 157.49587 263.742483 
L 157.26254 263.141915 
L 156.965284 263.141915 
L 156.888573 262.541346 
L 155.942468 262.541346 
L 155.741101 262.541346 
L 155.459827 261.940777 
L 155.053897 261.340209 
L 153.947977 260.73964 
L 153.74661 260.139071 
L 153.011462 259.538502 
L 152.829272 258.937934 
L 152.004627 258.337365 
L 151.633856 258.337365 
L 151.506004 257.736796 
L 150.978615 257.136227 
L 150.281822 256.535659 
L 149.42841 255.93509 
L 148.805131 255.334521 
L 148.709242 254.733953 
L 147.993271 254.133384 
L 147.593734 253.532815 
L 147.475471 252.932246 
L 147.453097 252.331678 
L 147.229356 251.731109 
L 146.570918 251.13054 
L 146.142614 250.529972 
L 145.915676 249.929403 
L 145.362717 249.328834 
L 145.116601 248.728265 
L 145.10062 248.127697 
L 144.659531 247.527128 
L 143.812511 246.926559 
L 143.412974 246.325991 
L 143.160466 245.725422 
L 143.048596 245.124853 
L 142.991062 244.524284 
L 142.546777 243.923716 
L 142.441299 243.323147 
L 142.271895 242.722578 
L 141.450446 242.122009 
L 140.165533 241.521441 
L 139.868278 240.920872 
L 139.612574 240.320303 
L 139.471936 240.320303 
L 139.459151 239.719735 
L 138.318072 239.119166 
L 138.081546 238.518597 
L 137.873787 237.918028 
L 137.18019 237.31746 
L 136.914897 236.716891 
L 136.716726 236.116322 
L 135.975185 235.515754 
L 135.585236 234.915185 
L 135.403047 234.314616 
L 134.914013 233.714047 
L 134.715843 233.113479 
L 134.645524 232.51291 
L 134.281146 231.912341 
L 134.166079 231.311773 
L 133.782523 230.711204 
L 132.986644 230.110635 
L 132.967467 229.510066 
L 132.846007 228.909498 
L 132.555144 228.308929 
L 131.66018 227.70836 
L 130.867498 227.107791 
L 130.288968 226.507223 
L 130.285771 225.906654 
L 130.212256 225.306085 
L 129.572996 224.705517 
L 129.521856 224.104948 
L 129.445144 223.504379 
L 129.438752 222.90381 
L 129.230992 222.303242 
L 129.183048 221.702673 
L 128.898577 221.102104 
L 128.722781 220.501536 
L 128.297673 219.900967 
L 127.926902 219.300398 
L 127.514579 218.699829 
L 127.226912 218.099261 
L 126.657971 217.498692 
L 126.638793 216.898123 
L 126.370304 216.297555 
L 126.168937 215.696986 
L 125.689492 215.096417 
L 125.571229 214.495848 
L 124.823295 213.89528 
L 124.66348 213.294711 
L 124.305495 212.694142 
L 124.065772 212.093573 
L 123.886779 211.493005 
L 123.071723 210.892436 
L 123.068527 210.291867 
L 122.857571 209.691299 
L 122.617848 209.09073 
L 122.416482 208.490161 
L 122.279041 207.889592 
L 122.269452 207.289024 
L 122.074478 206.688455 
L 121.949822 206.087886 
L 121.61421 205.487318 
L 121.160336 204.886749 
L 120.86308 204.28618 
L 120.696872 203.685611 
L 119.220182 203.085043 
L 118.737541 202.484474 
L 118.689596 201.883905 
L 118.648044 201.283336 
L 118.568137 200.682768 
L 118.475444 200.082199 
L 118.248507 199.48163 
L 117.976821 198.881062 
L 117.449432 198.280493 
L 117.107428 197.679924 
L 117.085054 197.079355 
L 116.864509 196.478787 
L 116.695105 195.878218 
L 116.608805 195.277649 
L 116.27639 194.677081 
L 115.557223 194.076512 
L 115.499689 193.475943 
L 115.263163 192.875374 
L 115.243985 192.274806 
L 115.199237 192.274806 
L 114.914766 191.674237 
L 114.623903 191.073668 
L 114.575959 190.4731 
L 114.403358 189.872531 
L 114.365003 189.271962 
L 114.326647 188.671393 
L 114.048569 188.070825 
L 114.032588 187.470256 
L 113.43488 186.869687 
L 113.22712 186.269118 
L 112.945846 185.66855 
L 112.284212 185.067981 
L 112.207501 184.467412 
L 112.00933 183.866844 
L 111.008888 183.266275 
L 110.580584 182.665706 
L 110.369628 182.065137 
L 109.334027 181.464569 
L 109.161427 180.864 
L 109.094305 180.864 
L 108.976042 180.263431 
L 108.876956 179.662863 
L 108.349567 179.062294 
L 108.2345 178.461725 
L 108.212126 177.861156 
L 107.633596 177.260588 
L 107.16374 176.660019 
L 106.949588 176.05945 
L 106.770595 175.458882 
L 106.617173 174.858313 
L 106.479732 174.257744 
L 105.607142 173.657175 
L 105.367419 173.056607 
L 105.24596 172.456038 
L 105.162856 171.855469 
L 104.670626 171.2549 
L 104.635467 170.654332 
L 104.6067 170.053763 
L 104.597111 169.453194 
L 104.414922 168.852626 
L 104.389352 168.252057 
L 104.251911 167.651488 
L 103.871551 167.050919 
L 103.849177 166.450351 
L 103.666988 165.849782 
L 103.149187 165.249213 
L 103.066084 164.648645 
L 102.813576 164.048076 
L 102.704902 163.447507 
L 102.500339 162.846938 
L 102.25742 162.24637 
L 101.519075 161.645801 
L 100.751963 161.045232 
L 99.949692 160.444664 
L 99.920925 159.844095 
L 99.652436 159.243526 
L 99.172991 158.642957 
L 98.920483 158.042389 
L 98.850164 157.44182 
L 98.754275 156.841251 
L 98.747883 156.240682 
L 98.415468 155.640114 
L 98.01593 155.039545 
L 97.980771 154.438976 
L 97.271192 153.838408 
L 96.910011 153.237839 
L 96.836496 152.63727 
L 96.833299 152.036701 
L 96.318695 151.436133 
L 96.091758 150.835564 
L 95.698613 150.234995 
L 95.238346 149.634427 
L 95.158438 149.033858 
L 95.033783 148.433289 
L 94.864379 147.83272 
L 94.797257 147.232152 
L 94.736527 146.631583 
L 94.094071 146.031014 
L 93.525129 145.430445 
L 93.521933 144.829877 
L 93.445222 144.229308 
L 93.387688 143.628739 
L 93.227873 143.028171 
L 93.224677 142.427602 
L 93.192714 141.827033 
L 92.521491 141.226464 
L 92.50551 140.625896 
L 92.310535 140.025327 
L 91.751183 139.424758 
L 91.610546 139.424758 
L 91.533835 138.82419 
L 91.428357 138.223621 
L 91.322879 137.623052 
L 91.300505 137.022483 
L 90.041163 136.421915 
L 89.561718 136.421915 
L 89.264462 135.821346 
L 89.111039 135.821346 
L 89.056702 135.220777 
L 89.005562 134.620209 
L 88.890495 134.620209 
L 88.701913 134.01964 
L 88.446209 133.419071 
L 88.32475 132.818502 
L 88.209683 132.217934 
L 88.187309 131.617365 
L 87.969961 131.016796 
L 87.784575 130.416227 
L 87.516086 129.815659 
L 86.876826 129.21509 
L 86.077751 128.614521 
L 85.972273 128.013953 
L 85.959488 127.413384 
L 85.774103 126.812815 
L 85.754925 126.212246 
L 85.662232 125.611678 
L 85.502417 125.011109 
L 85.345799 124.41054 
L 85.106076 123.809972 
L 84.556313 123.809972 
L 84.530742 123.809972 
L 84.521153 123.209403 
L 84.227094 122.608834 
L 84.054493 122.008265 
L 83.73806 122.008265 
L 83.488748 121.407697 
L 83.444 120.807128 
L 82.996518 120.807128 
L 82.948574 120.206559 
L 82.945378 120.206559 
L 82.494699 119.605991 
L 82.360455 119.005422 
L 82.325295 119.005422 
L 82.044021 118.404853 
L 81.858636 117.804284 
L 81.785121 117.804284 
L 81.650876 117.203716 
L 81.129879 117.203716 
L 80.902942 117.203716 
L 80.612079 117.203716 
L 80.487423 116.603147 
L 80.289253 116.002578 
L 80.206149 116.002578 
L 80.123045 115.402009 
L 80.100671 114.801441 
L 80.014371 114.200872 
L 79.828985 113.600303 
L 79.656385 113.600303 
L 79.266437 113.600303 
L 79.068266 112.999735 
L 78.419417 112.999735 
L 78.16691 112.999735 
L 78.048646 112.399166 
L 78.035861 112.399166 
L 77.818513 112.399166 
L 77.534042 111.798597 
L 77.460527 111.198028 
L 77.450938 111.198028 
L 77.415779 110.59746 
L 77.083364 109.996891 
L 77.035419 109.396322 
L 77.025831 108.795754 
L 76.907568 108.795754 
L 76.456889 108.795754 
L 76.450497 108.195185 
L 76.348215 107.594616 
L 76.345019 107.594616 
L 76.217167 106.994047 
L 75.849592 106.393479 
L 75.587496 105.192341 
L 75.577907 104.591773 
L 75.440466 103.991204 
L 75.411699 103.390635 
L 75.267866 103.390635 
L 75.076088 103.390635 
L 74.41765 102.790066 
L 74.340939 102.189498 
L 74.321761 101.588929 
L 74.088431 101.588929 
L 74.069253 101.588929 
L 74.043683 101.588929 
L 73.832727 101.588929 
z
" clip-path="url(#p1daf87a575)" style="fill: #008000"/>
   </g>
   <g id="PolyCollection_2">
    <path d="M 73.832727 73.362199 
L 73.832727 101.588929 
L 74.043683 101.588929 
L 74.069253 101.588929 
L 74.088431 101.588929 
L 74.321761 101.588929 
L 74.340939 102.189498 
L 74.41765 102.790066 
L 75.076088 103.390635 
L 75.267866 103.390635 
L 75.411699 103.390635 
L 75.440466 103.991204 
L 75.577907 104.591773 
L 75.587496 105.192341 
L 75.849592 106.393479 
L 76.217167 106.994047 
L 76.345019 107.594616 
L 76.348215 107.594616 
L 76.450497 108.195185 
L 76.456889 108.795754 
L 76.907568 108.795754 
L 77.025831 108.795754 
L 77.035419 109.396322 
L 77.083364 109.996891 
L 77.415779 110.59746 
L 77.450938 111.198028 
L 77.460527 111.198028 
L 77.534042 111.798597 
L 77.818513 112.399166 
L 78.035861 112.399166 
L 78.048646 112.399166 
L 78.16691 112.999735 
L 78.419417 112.999735 
L 79.068266 112.999735 
L 79.266437 113.600303 
L 79.656385 113.600303 
L 79.828985 113.600303 
L 80.014371 114.200872 
L 80.100671 114.801441 
L 80.123045 115.402009 
L 80.206149 116.002578 
L 80.289253 116.002578 
L 80.487423 116.603147 
L 80.612079 117.203716 
L 80.902942 117.203716 
L 81.129879 117.203716 
L 81.650876 117.203716 
L 81.785121 117.804284 
L 81.858636 117.804284 
L 82.044021 118.404853 
L 82.325295 119.005422 
L 82.360455 119.005422 
L 82.494699 119.605991 
L 82.945378 120.206559 
L 82.948574 120.206559 
L 82.996518 120.807128 
L 83.444 120.807128 
L 83.488748 121.407697 
L 83.73806 122.008265 
L 84.054493 122.008265 
L 84.227094 122.608834 
L 84.521153 123.209403 
L 84.530742 123.809972 
L 84.556313 123.809972 
L 85.106076 123.809972 
L 85.345799 124.41054 
L 85.502417 125.011109 
L 85.662232 125.611678 
L 85.754925 126.212246 
L 85.774103 126.812815 
L 85.959488 127.413384 
L 85.972273 128.013953 
L 86.077751 128.614521 
L 86.876826 129.21509 
L 87.516086 129.815659 
L 87.784575 130.416227 
L 87.969961 131.016796 
L 88.187309 131.617365 
L 88.209683 132.217934 
L 88.32475 132.818502 
L 88.446209 133.419071 
L 88.701913 134.01964 
L 88.890495 134.620209 
L 89.005562 134.620209 
L 89.056702 135.220777 
L 89.111039 135.821346 
L 89.264462 135.821346 
L 89.561718 136.421915 
L 90.041163 136.421915 
L 91.300505 137.022483 
L 91.322879 137.623052 
L 91.428357 138.223621 
L 91.533835 138.82419 
L 91.610546 139.424758 
L 91.751183 139.424758 
L 92.310535 140.025327 
L 92.50551 140.625896 
L 92.521491 141.226464 
L 93.192714 141.827033 
L 93.224677 142.427602 
L 93.227873 143.028171 
L 93.387688 143.628739 
L 93.445222 144.229308 
L 93.521933 144.829877 
L 93.525129 145.430445 
L 94.094071 146.031014 
L 94.736527 146.631583 
L 94.797257 147.232152 
L 94.864379 147.83272 
L 95.033783 148.433289 
L 95.158438 149.033858 
L 95.238346 149.634427 
L 95.698613 150.234995 
L 96.091758 150.835564 
L 96.318695 151.436133 
L 96.833299 152.036701 
L 96.836496 152.63727 
L 96.910011 153.237839 
L 97.271192 153.838408 
L 97.980771 154.438976 
L 98.01593 155.039545 
L 98.415468 155.640114 
L 98.747883 156.240682 
L 98.754275 156.841251 
L 98.850164 157.44182 
L 98.920483 158.042389 
L 99.172991 158.642957 
L 99.652436 159.243526 
L 99.920925 159.844095 
L 99.949692 160.444664 
L 100.751963 161.045232 
L 101.519075 161.645801 
L 102.25742 162.24637 
L 102.500339 162.846938 
L 102.704902 163.447507 
L 102.813576 164.048076 
L 103.066084 164.648645 
L 103.149187 165.249213 
L 103.666988 165.849782 
L 103.849177 166.450351 
L 103.871551 167.050919 
L 104.251911 167.651488 
L 104.389352 168.252057 
L 104.414922 168.852626 
L 104.597111 169.453194 
L 104.6067 170.053763 
L 104.635467 170.654332 
L 104.670626 171.2549 
L 105.162856 171.855469 
L 105.24596 172.456038 
L 105.367419 173.056607 
L 105.607142 173.657175 
L 106.479732 174.257744 
L 106.617173 174.858313 
L 106.770595 175.458882 
L 106.949588 176.05945 
L 107.16374 176.660019 
L 107.633596 177.260588 
L 108.212126 177.861156 
L 108.2345 178.461725 
L 108.349567 179.062294 
L 108.876956 179.662863 
L 108.976042 180.263431 
L 109.094305 180.864 
L 109.161427 180.864 
L 109.334027 181.464569 
L 110.369628 182.065137 
L 110.580584 182.665706 
L 111.008888 183.266275 
L 112.00933 183.866844 
L 112.207501 184.467412 
L 112.284212 185.067981 
L 112.945846 185.66855 
L 113.22712 186.269118 
L 113.43488 186.869687 
L 114.032588 187.470256 
L 114.048569 188.070825 
L 114.326647 188.671393 
L 114.365003 189.271962 
L 114.403358 189.872531 
L 114.575959 190.4731 
L 114.623903 191.073668 
L 114.914766 191.674237 
L 115.199237 192.274806 
L 115.243985 192.274806 
L 115.263163 192.875374 
L 115.499689 193.475943 
L 115.557223 194.076512 
L 116.27639 194.677081 
L 116.608805 195.277649 
L 116.695105 195.878218 
L 116.864509 196.478787 
L 117.085054 197.079355 
L 117.107428 197.679924 
L 117.449432 198.280493 
L 117.976821 198.881062 
L 118.248507 199.48163 
L 118.475444 200.082199 
L 118.568137 200.682768 
L 118.648044 201.283336 
L 118.689596 201.883905 
L 118.737541 202.484474 
L 119.220182 203.085043 
L 120.696872 203.685611 
L 120.86308 204.28618 
L 121.160336 204.886749 
L 121.61421 205.487318 
L 121.949822 206.087886 
L 122.074478 206.688455 
L 122.269452 207.289024 
L 122.279041 207.889592 
L 122.416482 208.490161 
L 122.617848 209.09073 
L 122.857571 209.691299 
L 123.068527 210.291867 
L 123.071723 210.892436 
L 123.886779 211.493005 
L 124.065772 212.093573 
L 124.305495 212.694142 
L 124.66348 213.294711 
L 124.823295 213.89528 
L 125.571229 214.495848 
L 125.689492 215.096417 
L 126.168937 215.696986 
L 126.370304 216.297555 
L 126.638793 216.898123 
L 126.657971 217.498692 
L 127.226912 218.099261 
L 127.514579 218.699829 
L 127.926902 219.300398 
L 128.297673 219.900967 
L 128.722781 220.501536 
L 128.898577 221.102104 
L 129.183048 221.702673 
L 129.230992 222.303242 
L 129.438752 222.90381 
L 129.445144 223.504379 
L 129.521856 224.104948 
L 129.572996 224.705517 
L 130.212256 225.306085 
L 130.285771 225.906654 
L 130.288968 226.507223 
L 130.867498 227.107791 
L 131.66018 227.70836 
L 132.555144 228.308929 
L 132.846007 228.909498 
L 132.967467 229.510066 
L 132.986644 230.110635 
L 133.782523 230.711204 
L 134.166079 231.311773 
L 134.281146 231.912341 
L 134.645524 232.51291 
L 134.715843 233.113479 
L 134.914013 233.714047 
L 135.403047 234.314616 
L 135.585236 234.915185 
L 135.975185 235.515754 
L 136.716726 236.116322 
L 136.914897 236.716891 
L 137.18019 237.31746 
L 137.873787 237.918028 
L 138.081546 238.518597 
L 138.318072 239.119166 
L 139.459151 239.719735 
L 139.471936 240.320303 
L 139.612574 240.320303 
L 139.868278 240.920872 
L 140.165533 241.521441 
L 141.450446 242.122009 
L 142.271895 242.722578 
L 142.441299 243.323147 
L 142.546777 243.923716 
L 142.991062 244.524284 
L 143.048596 245.124853 
L 143.160466 245.725422 
L 143.412974 246.325991 
L 143.812511 246.926559 
L 144.659531 247.527128 
L 145.10062 248.127697 
L 145.116601 248.728265 
L 145.362717 249.328834 
L 145.915676 249.929403 
L 146.142614 250.529972 
L 146.570918 251.13054 
L 147.229356 251.731109 
L 147.453097 252.331678 
L 147.475471 252.932246 
L 147.593734 253.532815 
L 147.993271 254.133384 
L 148.709242 254.733953 
L 148.805131 255.334521 
L 149.42841 255.93509 
L 150.281822 256.535659 
L 150.978615 257.136227 
L 151.506004 257.736796 
L 151.633856 258.337365 
L 152.004627 258.337365 
L 152.829272 258.937934 
L 153.011462 259.538502 
L 153.74661 260.139071 
L 153.947977 260.73964 
L 155.053897 261.340209 
L 155.459827 261.940777 
L 155.741101 262.541346 
L 155.942468 262.541346 
L 156.888573 262.541346 
L 156.965284 263.141915 
L 157.26254 263.141915 
L 157.49587 263.742483 
L 157.984904 264.343052 
L 158.30773 264.943621 
L 158.358871 265.54419 
L 158.362067 265.54419 
L 158.371656 266.144758 
L 158.470741 266.745327 
L 159.790813 267.345896 
L 160.05291 267.946464 
L 160.148799 268.547033 
L 160.369343 269.147602 
L 160.714544 269.748171 
L 161.216363 270.348739 
L 161.852426 270.949308 
L 162.788942 271.549877 
L 163.316332 272.150445 
L 164.006732 272.751014 
L 164.144173 273.351583 
L 164.799415 273.952152 
L 165.681593 274.55272 
L 165.898942 274.55272 
L 166.60852 275.153289 
L 166.873813 275.753858 
L 166.969702 276.354427 
L 167.637729 276.954995 
L 168.618993 277.555564 
L 168.9578 278.156133 
L 169.229486 278.756701 
L 170.332209 279.35727 
L 170.543165 279.957839 
L 171.450914 280.558408 
L 171.57557 281.158976 
L 173.180112 281.759545 
L 174.554521 282.360114 
L 175.165014 282.960682 
L 175.765919 283.561251 
L 176.210204 284.16182 
L 176.587368 284.762389 
L 177.622969 285.362957 
L 177.782784 285.963526 
L 178.195106 286.564095 
L 178.275014 287.164664 
L 178.703318 287.765232 
L 182.017881 288.365801 
L 183.063071 288.365801 
L 183.699134 288.96637 
L 185.195002 288.96637 
L 185.613718 289.566938 
L 185.664859 290.167507 
L 185.696822 290.768076 
L 185.808692 291.368645 
L 185.869422 291.969213 
L 186.189052 292.569782 
L 187.905465 292.569782 
L 188.06528 293.170351 
L 188.944262 293.770919 
L 189.855207 293.770919 
L 189.976667 294.371488 
L 190.373008 294.371488 
L 190.890808 294.972057 
L 190.945146 294.972057 
L 191.77938 295.572626 
L 193.95606 296.173194 
L 196.487529 296.773763 
L 197.865134 297.374332 
L 198.552339 297.9749 
L 199.661455 297.9749 
L 200.412585 298.575469 
L 200.51167 299.176038 
L 200.959152 299.776607 
L 201.815761 299.776607 
L 202.205709 300.377175 
L 204.283304 300.977744 
L 206.750847 301.578313 
L 207.473211 302.178882 
L 208.748534 302.178882 
L 210.183673 302.77945 
L 211.177722 303.380019 
L 211.769038 303.980588 
L 211.893693 304.581156 
L 213.670836 304.581156 
L 215.125152 305.181725 
L 215.179489 305.181725 
L 215.774001 305.181725 
L 219.49769 305.181725 
L 223.659272 305.782294 
L 228.955541 305.782294 
L 233.315293 305.782294 
L 234.24222 305.782294 
L 242.945744 305.782294 
L 244.428827 305.782294 
L 252.147891 305.782294 
L 253.359288 305.782294 
L 257.217222 305.782294 
L 257.268363 306.382863 
L 258.649164 306.983431 
L 260.627674 306.983431 
L 260.63087 306.983431 
L 260.662833 306.983431 
L 262.871476 306.983431 
L 265.818464 306.983431 
L 271.536644 306.983431 
L 272.1791 306.983431 
L 273.109224 306.983431 
L 274.151217 306.983431 
L 276.784968 306.983431 
L 280.240168 307.584 
L 286.217248 307.584 
L 286.75103 307.584 
L 345.818648 307.584 
L 368.387719 307.584 
L 398.487273 307.584 
L 398.487273 306.983431 
L 398.487273 306.983431 
L 368.387719 306.382863 
L 345.818648 305.782294 
L 286.75103 305.181725 
L 286.217248 304.581156 
L 280.240168 303.980588 
L 276.784968 303.380019 
L 274.151217 302.77945 
L 273.109224 302.178882 
L 272.1791 301.578313 
L 271.536644 300.977744 
L 265.818464 300.377175 
L 262.871476 299.776607 
L 260.662833 299.176038 
L 260.63087 298.575469 
L 260.627674 297.9749 
L 258.649164 297.374332 
L 257.268363 296.773763 
L 257.217222 296.173194 
L 253.359288 295.572626 
L 252.147891 294.972057 
L 244.428827 294.371488 
L 242.945744 293.770919 
L 234.24222 293.170351 
L 233.315293 292.569782 
L 228.955541 291.969213 
L 223.659272 291.368645 
L 219.49769 290.768076 
L 215.774001 290.167507 
L 215.179489 289.566938 
L 215.125152 288.96637 
L 213.670836 288.365801 
L 211.893693 287.765232 
L 211.769038 287.164664 
L 211.177722 286.564095 
L 210.183673 285.963526 
L 208.748534 285.362957 
L 207.473211 284.762389 
L 206.750847 284.16182 
L 204.283304 283.561251 
L 202.205709 282.960682 
L 201.815761 282.360114 
L 200.959152 281.759545 
L 200.51167 281.158976 
L 200.412585 280.558408 
L 199.661455 279.957839 
L 198.552339 279.35727 
L 197.865134 278.756701 
L 196.487529 278.156133 
L 193.95606 277.555564 
L 191.77938 276.954995 
L 190.945146 276.354427 
L 190.890808 275.753858 
L 190.373008 275.153289 
L 189.976667 274.55272 
L 189.855207 273.952152 
L 188.944262 273.351583 
L 188.06528 272.751014 
L 187.905465 272.150445 
L 186.189052 271.549877 
L 185.869422 270.949308 
L 185.808692 270.348739 
L 185.696822 269.748171 
L 185.664859 269.147602 
L 185.613718 268.547033 
L 185.195002 267.946464 
L 183.699134 267.345896 
L 183.063071 266.745327 
L 182.017881 266.144758 
L 178.703318 265.54419 
L 178.275014 264.943621 
L 178.195106 264.343052 
L 177.782784 263.742483 
L 177.622969 263.141915 
L 176.587368 262.541346 
L 176.210204 261.940777 
L 175.765919 261.340209 
L 175.165014 260.73964 
L 174.554521 260.139071 
L 173.180112 259.538502 
L 171.57557 258.937934 
L 171.450914 258.337365 
L 170.543165 257.736796 
L 170.332209 257.136227 
L 169.229486 256.535659 
L 168.9578 255.93509 
L 168.618993 255.334521 
L 167.637729 254.733953 
L 166.969702 254.133384 
L 166.873813 253.532815 
L 166.60852 252.932246 
L 165.898942 252.331678 
L 165.681593 251.731109 
L 164.799415 251.13054 
L 164.144173 250.529972 
L 164.006732 249.929403 
L 163.316332 249.328834 
L 162.788942 248.728265 
L 161.852426 248.127697 
L 161.216363 247.527128 
L 160.714544 246.926559 
L 160.369343 246.325991 
L 160.148799 245.725422 
L 160.05291 245.124853 
L 159.790813 244.524284 
L 158.470741 243.923716 
L 158.371656 243.323147 
L 158.362067 242.722578 
L 158.358871 242.122009 
L 158.30773 241.521441 
L 157.984904 240.920872 
L 157.49587 240.320303 
L 157.26254 239.719735 
L 156.965284 239.119166 
L 156.888573 238.518597 
L 155.942468 237.918028 
L 155.741101 237.31746 
L 155.459827 236.716891 
L 155.053897 236.116322 
L 153.947977 235.515754 
L 153.74661 234.915185 
L 153.011462 234.314616 
L 152.829272 233.714047 
L 152.004627 233.113479 
L 151.633856 232.51291 
L 151.506004 231.912341 
L 150.978615 231.311773 
L 150.281822 230.711204 
L 149.42841 230.110635 
L 148.805131 229.510066 
L 148.709242 228.909498 
L 147.993271 228.308929 
L 147.593734 227.70836 
L 147.475471 227.107791 
L 147.453097 226.507223 
L 147.229356 225.906654 
L 146.570918 225.306085 
L 146.142614 224.705517 
L 145.915676 224.104948 
L 145.362717 223.504379 
L 145.116601 222.90381 
L 145.10062 222.303242 
L 144.659531 221.702673 
L 143.812511 221.102104 
L 143.412974 220.501536 
L 143.160466 219.900967 
L 143.048596 219.300398 
L 142.991062 218.699829 
L 142.546777 218.099261 
L 142.441299 217.498692 
L 142.271895 216.898123 
L 141.450446 216.297555 
L 140.165533 215.696986 
L 139.868278 215.096417 
L 139.612574 214.495848 
L 139.471936 213.89528 
L 139.459151 213.294711 
L 138.318072 212.694142 
L 138.081546 212.093573 
L 137.873787 211.493005 
L 137.18019 210.892436 
L 136.914897 210.291867 
L 136.716726 209.691299 
L 135.975185 209.09073 
L 135.585236 208.490161 
L 135.403047 207.889592 
L 134.914013 207.289024 
L 134.715843 206.688455 
L 134.645524 206.087886 
L 134.281146 205.487318 
L 134.166079 204.886749 
L 133.782523 204.28618 
L 132.986644 203.685611 
L 132.967467 203.085043 
L 132.846007 202.484474 
L 132.555144 201.883905 
L 131.66018 201.283336 
L 130.867498 200.682768 
L 130.288968 200.082199 
L 130.285771 199.48163 
L 130.212256 198.881062 
L 129.572996 198.280493 
L 129.521856 197.679924 
L 129.445144 197.079355 
L 129.438752 196.478787 
L 129.230992 195.878218 
L 129.183048 195.277649 
L 128.898577 194.677081 
L 128.722781 194.076512 
L 128.297673 193.475943 
L 127.926902 192.875374 
L 127.514579 192.274806 
L 127.226912 191.674237 
L 126.657971 191.073668 
L 126.638793 190.4731 
L 126.370304 189.872531 
L 126.168937 189.271962 
L 125.689492 188.671393 
L 125.571229 188.070825 
L 124.823295 187.470256 
L 124.66348 186.869687 
L 124.305495 186.269118 
L 124.065772 185.66855 
L 123.886779 185.067981 
L 123.071723 184.467412 
L 123.068527 183.866844 
L 122.857571 183.266275 
L 122.617848 182.665706 
L 122.416482 182.065137 
L 122.279041 181.464569 
L 122.269452 180.864 
L 122.074478 180.263431 
L 121.949822 179.662863 
L 121.61421 179.062294 
L 121.160336 178.461725 
L 120.86308 177.861156 
L 120.696872 177.260588 
L 119.220182 176.660019 
L 118.737541 176.05945 
L 118.689596 175.458882 
L 118.648044 174.858313 
L 118.568137 174.257744 
L 118.475444 173.657175 
L 118.248507 173.056607 
L 117.976821 172.456038 
L 117.449432 171.855469 
L 117.107428 171.2549 
L 117.085054 170.654332 
L 116.864509 170.053763 
L 116.695105 169.453194 
L 116.608805 168.852626 
L 116.27639 168.252057 
L 115.557223 167.651488 
L 115.499689 167.050919 
L 115.263163 166.450351 
L 115.243985 165.849782 
L 115.199237 165.249213 
L 114.914766 164.648645 
L 114.623903 164.048076 
L 114.575959 163.447507 
L 114.403358 162.846938 
L 114.365003 162.24637 
L 114.326647 161.645801 
L 114.048569 161.045232 
L 114.032588 160.444664 
L 113.43488 159.844095 
L 113.22712 159.243526 
L 112.945846 158.642957 
L 112.284212 158.042389 
L 112.207501 157.44182 
L 112.00933 156.841251 
L 111.008888 156.240682 
L 110.580584 155.640114 
L 110.369628 155.039545 
L 109.334027 154.438976 
L 109.161427 153.838408 
L 109.094305 153.838408 
L 108.976042 153.237839 
L 108.876956 152.63727 
L 108.349567 152.036701 
L 108.2345 151.436133 
L 108.212126 150.835564 
L 107.633596 150.234995 
L 107.16374 149.634427 
L 106.949588 149.033858 
L 106.770595 148.433289 
L 106.617173 147.83272 
L 106.479732 147.232152 
L 105.607142 146.631583 
L 105.367419 146.031014 
L 105.24596 145.430445 
L 105.162856 144.829877 
L 104.670626 144.229308 
L 104.635467 143.628739 
L 104.6067 143.028171 
L 104.597111 142.427602 
L 104.414922 141.827033 
L 104.389352 141.226464 
L 104.251911 140.625896 
L 103.871551 140.025327 
L 103.849177 139.424758 
L 103.666988 138.82419 
L 103.149187 138.223621 
L 103.066084 137.623052 
L 102.813576 137.022483 
L 102.704902 136.421915 
L 102.500339 135.821346 
L 102.25742 135.220777 
L 101.519075 134.620209 
L 100.751963 134.01964 
L 99.949692 133.419071 
L 99.920925 132.818502 
L 99.652436 132.217934 
L 99.172991 131.617365 
L 98.920483 131.016796 
L 98.850164 130.416227 
L 98.754275 129.815659 
L 98.747883 129.21509 
L 98.415468 128.614521 
L 98.01593 128.013953 
L 97.980771 127.413384 
L 97.271192 126.812815 
L 96.910011 126.212246 
L 96.836496 125.611678 
L 96.833299 125.011109 
L 96.318695 124.41054 
L 96.091758 123.809972 
L 95.698613 123.209403 
L 95.238346 122.608834 
L 95.158438 122.008265 
L 95.033783 121.407697 
L 94.864379 120.807128 
L 94.797257 120.206559 
L 94.736527 119.605991 
L 94.094071 119.005422 
L 93.525129 118.404853 
L 93.521933 117.804284 
L 93.445222 117.203716 
L 93.387688 116.603147 
L 93.227873 116.002578 
L 93.224677 115.402009 
L 93.192714 114.801441 
L 92.521491 114.200872 
L 92.50551 113.600303 
L 92.310535 112.999735 
L 91.751183 112.399166 
L 91.610546 112.399166 
L 91.533835 111.798597 
L 91.428357 111.198028 
L 91.322879 110.59746 
L 91.300505 109.996891 
L 90.041163 109.396322 
L 89.561718 108.795754 
L 89.264462 108.195185 
L 89.111039 108.195185 
L 89.056702 107.594616 
L 89.005562 106.994047 
L 88.890495 106.994047 
L 88.701913 106.393479 
L 88.446209 105.79291 
L 88.32475 105.192341 
L 88.209683 104.591773 
L 88.187309 103.991204 
L 87.969961 103.390635 
L 87.784575 102.790066 
L 87.516086 102.189498 
L 86.876826 101.588929 
L 86.077751 100.98836 
L 85.972273 100.387791 
L 85.959488 99.787223 
L 85.774103 99.186654 
L 85.754925 98.586085 
L 85.662232 97.985517 
L 85.502417 97.384948 
L 85.345799 96.784379 
L 85.106076 96.18381 
L 84.556313 96.18381 
L 84.530742 96.18381 
L 84.521153 95.583242 
L 84.227094 94.982673 
L 84.054493 94.382104 
L 83.73806 94.382104 
L 83.488748 93.781536 
L 83.444 93.180967 
L 82.996518 93.180967 
L 82.948574 92.580398 
L 82.945378 92.580398 
L 82.494699 91.979829 
L 82.360455 91.379261 
L 82.325295 91.379261 
L 82.044021 90.778692 
L 81.858636 90.178123 
L 81.785121 90.178123 
L 81.650876 89.577555 
L 81.129879 89.577555 
L 80.902942 89.577555 
L 80.612079 89.577555 
L 80.487423 88.976986 
L 80.289253 88.376417 
L 80.206149 88.376417 
L 80.123045 87.775848 
L 80.100671 87.17528 
L 80.014371 86.574711 
L 79.828985 85.974142 
L 79.656385 85.974142 
L 79.266437 85.974142 
L 79.068266 85.373573 
L 78.419417 85.373573 
L 78.16691 85.373573 
L 78.048646 84.773005 
L 78.035861 84.773005 
L 77.818513 84.773005 
L 77.534042 84.172436 
L 77.460527 83.571867 
L 77.450938 82.971299 
L 77.415779 82.37073 
L 77.083364 81.770161 
L 77.035419 81.169592 
L 77.025831 80.569024 
L 76.907568 80.569024 
L 76.456889 80.569024 
L 76.450497 79.968455 
L 76.348215 79.367886 
L 76.345019 79.367886 
L 76.217167 78.767318 
L 75.849592 78.166749 
L 75.587496 76.965611 
L 75.577907 76.365043 
L 75.440466 75.764474 
L 75.411699 75.163905 
L 75.267866 75.163905 
L 75.076088 75.163905 
L 74.41765 74.563336 
L 74.340939 73.962768 
L 74.321761 73.362199 
L 74.088431 73.362199 
L 74.069253 73.362199 
L 74.043683 73.362199 
L 73.832727 73.362199 
z
" clip-path="url(#p1daf87a575)" style="fill: #7cfc00"/>
   </g>
   <g id="PolyCollection_3">
    <path d="M 73.832727 54.144 
L 73.832727 73.362199 
L 74.043683 73.362199 
L 74.069253 73.362199 
L 74.088431 73.362199 
L 74.321761 73.362199 
L 74.340939 73.962768 
L 74.41765 74.563336 
L 75.076088 75.163905 
L 75.267866 75.163905 
L 75.411699 75.163905 
L 75.440466 75.764474 
L 75.577907 76.365043 
L 75.587496 76.965611 
L 75.849592 78.166749 
L 76.217167 78.767318 
L 76.345019 79.367886 
L 76.348215 79.367886 
L 76.450497 79.968455 
L 76.456889 80.569024 
L 76.907568 80.569024 
L 77.025831 80.569024 
L 77.035419 81.169592 
L 77.083364 81.770161 
L 77.415779 82.37073 
L 77.450938 82.971299 
L 77.460527 83.571867 
L 77.534042 84.172436 
L 77.818513 84.773005 
L 78.035861 84.773005 
L 78.048646 84.773005 
L 78.16691 85.373573 
L 78.419417 85.373573 
L 79.068266 85.373573 
L 79.266437 85.974142 
L 79.656385 85.974142 
L 79.828985 85.974142 
L 80.014371 86.574711 
L 80.100671 87.17528 
L 80.123045 87.775848 
L 80.206149 88.376417 
L 80.289253 88.376417 
L 80.487423 88.976986 
L 80.612079 89.577555 
L 80.902942 89.577555 
L 81.129879 89.577555 
L 81.650876 89.577555 
L 81.785121 90.178123 
L 81.858636 90.178123 
L 82.044021 90.778692 
L 82.325295 91.379261 
L 82.360455 91.379261 
L 82.494699 91.979829 
L 82.945378 92.580398 
L 82.948574 92.580398 
L 82.996518 93.180967 
L 83.444 93.180967 
L 83.488748 93.781536 
L 83.73806 94.382104 
L 84.054493 94.382104 
L 84.227094 94.982673 
L 84.521153 95.583242 
L 84.530742 96.18381 
L 84.556313 96.18381 
L 85.106076 96.18381 
L 85.345799 96.784379 
L 85.502417 97.384948 
L 85.662232 97.985517 
L 85.754925 98.586085 
L 85.774103 99.186654 
L 85.959488 99.787223 
L 85.972273 100.387791 
L 86.077751 100.98836 
L 86.876826 101.588929 
L 87.516086 102.189498 
L 87.784575 102.790066 
L 87.969961 103.390635 
L 88.187309 103.991204 
L 88.209683 104.591773 
L 88.32475 105.192341 
L 88.446209 105.79291 
L 88.701913 106.393479 
L 88.890495 106.994047 
L 89.005562 106.994047 
L 89.056702 107.594616 
L 89.111039 108.195185 
L 89.264462 108.195185 
L 89.561718 108.795754 
L 90.041163 109.396322 
L 91.300505 109.996891 
L 91.322879 110.59746 
L 91.428357 111.198028 
L 91.533835 111.798597 
L 91.610546 112.399166 
L 91.751183 112.399166 
L 92.310535 112.999735 
L 92.50551 113.600303 
L 92.521491 114.200872 
L 93.192714 114.801441 
L 93.224677 115.402009 
L 93.227873 116.002578 
L 93.387688 116.603147 
L 93.445222 117.203716 
L 93.521933 117.804284 
L 93.525129 118.404853 
L 94.094071 119.005422 
L 94.736527 119.605991 
L 94.797257 120.206559 
L 94.864379 120.807128 
L 95.033783 121.407697 
L 95.158438 122.008265 
L 95.238346 122.608834 
L 95.698613 123.209403 
L 96.091758 123.809972 
L 96.318695 124.41054 
L 96.833299 125.011109 
L 96.836496 125.611678 
L 96.910011 126.212246 
L 97.271192 126.812815 
L 97.980771 127.413384 
L 98.01593 128.013953 
L 98.415468 128.614521 
L 98.747883 129.21509 
L 98.754275 129.815659 
L 98.850164 130.416227 
L 98.920483 131.016796 
L 99.172991 131.617365 
L 99.652436 132.217934 
L 99.920925 132.818502 
L 99.949692 133.419071 
L 100.751963 134.01964 
L 101.519075 134.620209 
L 102.25742 135.220777 
L 102.500339 135.821346 
L 102.704902 136.421915 
L 102.813576 137.022483 
L 103.066084 137.623052 
L 103.149187 138.223621 
L 103.666988 138.82419 
L 103.849177 139.424758 
L 103.871551 140.025327 
L 104.251911 140.625896 
L 104.389352 141.226464 
L 104.414922 141.827033 
L 104.597111 142.427602 
L 104.6067 143.028171 
L 104.635467 143.628739 
L 104.670626 144.229308 
L 105.162856 144.829877 
L 105.24596 145.430445 
L 105.367419 146.031014 
L 105.607142 146.631583 
L 106.479732 147.232152 
L 106.617173 147.83272 
L 106.770595 148.433289 
L 106.949588 149.033858 
L 107.16374 149.634427 
L 107.633596 150.234995 
L 108.212126 150.835564 
L 108.2345 151.436133 
L 108.349567 152.036701 
L 108.876956 152.63727 
L 108.976042 153.237839 
L 109.094305 153.838408 
L 109.161427 153.838408 
L 109.334027 154.438976 
L 110.369628 155.039545 
L 110.580584 155.640114 
L 111.008888 156.240682 
L 112.00933 156.841251 
L 112.207501 157.44182 
L 112.284212 158.042389 
L 112.945846 158.642957 
L 113.22712 159.243526 
L 113.43488 159.844095 
L 114.032588 160.444664 
L 114.048569 161.045232 
L 114.326647 161.645801 
L 114.365003 162.24637 
L 114.403358 162.846938 
L 114.575959 163.447507 
L 114.623903 164.048076 
L 114.914766 164.648645 
L 115.199237 165.249213 
L 115.243985 165.849782 
L 115.263163 166.450351 
L 115.499689 167.050919 
L 115.557223 167.651488 
L 116.27639 168.252057 
L 116.608805 168.852626 
L 116.695105 169.453194 
L 116.864509 170.053763 
L 117.085054 170.654332 
L 117.107428 171.2549 
L 117.449432 171.855469 
L 117.976821 172.456038 
L 118.248507 173.056607 
L 118.475444 173.657175 
L 118.568137 174.257744 
L 118.648044 174.858313 
L 118.689596 175.458882 
L 118.737541 176.05945 
L 119.220182 176.660019 
L 120.696872 177.260588 
L 120.86308 177.861156 
L 121.160336 178.461725 
L 121.61421 179.062294 
L 121.949822 179.662863 
L 122.074478 180.263431 
L 122.269452 180.864 
L 122.279041 181.464569 
L 122.416482 182.065137 
L 122.617848 182.665706 
L 122.857571 183.266275 
L 123.068527 183.866844 
L 123.071723 184.467412 
L 123.886779 185.067981 
L 124.065772 185.66855 
L 124.305495 186.269118 
L 124.66348 186.869687 
L 124.823295 187.470256 
L 125.571229 188.070825 
L 125.689492 188.671393 
L 126.168937 189.271962 
L 126.370304 189.872531 
L 126.638793 190.4731 
L 126.657971 191.073668 
L 127.226912 191.674237 
L 127.514579 192.274806 
L 127.926902 192.875374 
L 128.297673 193.475943 
L 128.722781 194.076512 
L 128.898577 194.677081 
L 129.183048 195.277649 
L 129.230992 195.878218 
L 129.438752 196.478787 
L 129.445144 197.079355 
L 129.521856 197.679924 
L 129.572996 198.280493 
L 130.212256 198.881062 
L 130.285771 199.48163 
L 130.288968 200.082199 
L 130.867498 200.682768 
L 131.66018 201.283336 
L 132.555144 201.883905 
L 132.846007 202.484474 
L 132.967467 203.085043 
L 132.986644 203.685611 
L 133.782523 204.28618 
L 134.166079 204.886749 
L 134.281146 205.487318 
L 134.645524 206.087886 
L 134.715843 206.688455 
L 134.914013 207.289024 
L 135.403047 207.889592 
L 135.585236 208.490161 
L 135.975185 209.09073 
L 136.716726 209.691299 
L 136.914897 210.291867 
L 137.18019 210.892436 
L 137.873787 211.493005 
L 138.081546 212.093573 
L 138.318072 212.694142 
L 139.459151 213.294711 
L 139.471936 213.89528 
L 139.612574 214.495848 
L 139.868278 215.096417 
L 140.165533 215.696986 
L 141.450446 216.297555 
L 142.271895 216.898123 
L 142.441299 217.498692 
L 142.546777 218.099261 
L 142.991062 218.699829 
L 143.048596 219.300398 
L 143.160466 219.900967 
L 143.412974 220.501536 
L 143.812511 221.102104 
L 144.659531 221.702673 
L 145.10062 222.303242 
L 145.116601 222.90381 
L 145.362717 223.504379 
L 145.915676 224.104948 
L 146.142614 224.705517 
L 146.570918 225.306085 
L 147.229356 225.906654 
L 147.453097 226.507223 
L 147.475471 227.107791 
L 147.593734 227.70836 
L 147.993271 228.308929 
L 148.709242 228.909498 
L 148.805131 229.510066 
L 149.42841 230.110635 
L 150.281822 230.711204 
L 150.978615 231.311773 
L 151.506004 231.912341 
L 151.633856 232.51291 
L 152.004627 233.113479 
L 152.829272 233.714047 
L 153.011462 234.314616 
L 153.74661 234.915185 
L 153.947977 235.515754 
L 155.053897 236.116322 
L 155.459827 236.716891 
L 155.741101 237.31746 
L 155.942468 237.918028 
L 156.888573 238.518597 
L 156.965284 239.119166 
L 157.26254 239.719735 
L 157.49587 240.320303 
L 157.984904 240.920872 
L 158.30773 241.521441 
L 158.358871 242.122009 
L 158.362067 242.722578 
L 158.371656 243.323147 
L 158.470741 243.923716 
L 159.790813 244.524284 
L 160.05291 245.124853 
L 160.148799 245.725422 
L 160.369343 246.325991 
L 160.714544 246.926559 
L 161.216363 247.527128 
L 161.852426 248.127697 
L 162.788942 248.728265 
L 163.316332 249.328834 
L 164.006732 249.929403 
L 164.144173 250.529972 
L 164.799415 251.13054 
L 165.681593 251.731109 
L 165.898942 252.331678 
L 166.60852 252.932246 
L 166.873813 253.532815 
L 166.969702 254.133384 
L 167.637729 254.733953 
L 168.618993 255.334521 
L 168.9578 255.93509 
L 169.229486 256.535659 
L 170.332209 257.136227 
L 170.543165 257.736796 
L 171.450914 258.337365 
L 171.57557 258.937934 
L 173.180112 259.538502 
L 174.554521 260.139071 
L 175.165014 260.73964 
L 175.765919 261.340209 
L 176.210204 261.940777 
L 176.587368 262.541346 
L 177.622969 263.141915 
L 177.782784 263.742483 
L 178.195106 264.343052 
L 178.275014 264.943621 
L 178.703318 265.54419 
L 182.017881 266.144758 
L 183.063071 266.745327 
L 183.699134 267.345896 
L 185.195002 267.946464 
L 185.613718 268.547033 
L 185.664859 269.147602 
L 185.696822 269.748171 
L 185.808692 270.348739 
L 185.869422 270.949308 
L 186.189052 271.549877 
L 187.905465 272.150445 
L 188.06528 272.751014 
L 188.944262 273.351583 
L 189.855207 273.952152 
L 189.976667 274.55272 
L 190.373008 275.153289 
L 190.890808 275.753858 
L 190.945146 276.354427 
L 191.77938 276.954995 
L 193.95606 277.555564 
L 196.487529 278.156133 
L 197.865134 278.756701 
L 198.552339 279.35727 
L 199.661455 279.957839 
L 200.412585 280.558408 
L 200.51167 281.158976 
L 200.959152 281.759545 
L 201.815761 282.360114 
L 202.205709 282.960682 
L 204.283304 283.561251 
L 206.750847 284.16182 
L 207.473211 284.762389 
L 208.748534 285.362957 
L 210.183673 285.963526 
L 211.177722 286.564095 
L 211.769038 287.164664 
L 211.893693 287.765232 
L 213.670836 288.365801 
L 215.125152 288.96637 
L 215.179489 289.566938 
L 215.774001 290.167507 
L 219.49769 290.768076 
L 223.659272 291.368645 
L 228.955541 291.969213 
L 233.315293 292.569782 
L 234.24222 293.170351 
L 242.945744 293.770919 
L 244.428827 294.371488 
L 252.147891 294.972057 
L 253.359288 295.572626 
L 257.217222 296.173194 
L 257.268363 296.773763 
L 258.649164 297.374332 
L 260.627674 297.9749 
L 260.63087 298.575469 
L 260.662833 299.176038 
L 262.871476 299.776607 
L 265.818464 300.377175 
L 271.536644 300.977744 
L 272.1791 301.578313 
L 273.109224 302.178882 
L 274.151217 302.77945 
L 276.784968 303.380019 
L 280.240168 303.980588 
L 286.217248 304.581156 
L 286.75103 305.181725 
L 345.818648 305.782294 
L 368.387719 306.382863 
L 398.487273 306.983431 
L 398.487273 306.983431 
L 398.487273 306.983431 
L 368.387719 306.382863 
L 345.818648 305.782294 
L 286.75103 305.181725 
L 286.217248 304.581156 
L 280.240168 303.980588 
L 276.784968 303.380019 
L 274.151217 302.77945 
L 273.109224 302.178882 
L 272.1791 301.578313 
L 271.536644 300.977744 
L 265.818464 300.377175 
L 262.871476 299.776607 
L 260.662833 299.176038 
L 260.63087 298.575469 
L 260.627674 297.9749 
L 258.649164 297.374332 
L 257.268363 296.773763 
L 257.217222 296.173194 
L 253.359288 295.572626 
L 252.147891 294.972057 
L 244.428827 294.371488 
L 242.945744 293.770919 
L 234.24222 293.170351 
L 233.315293 292.569782 
L 228.955541 291.969213 
L 223.659272 291.368645 
L 219.49769 290.768076 
L 215.774001 290.167507 
L 215.179489 289.566938 
L 215.125152 288.96637 
L 213.670836 288.365801 
L 211.893693 287.765232 
L 211.769038 287.164664 
L 211.177722 286.564095 
L 210.183673 285.963526 
L 208.748534 285.362957 
L 207.473211 284.762389 
L 206.750847 284.16182 
L 204.283304 283.561251 
L 202.205709 282.960682 
L 201.815761 282.360114 
L 200.959152 281.759545 
L 200.51167 281.158976 
L 200.412585 280.558408 
L 199.661455 279.957839 
L 198.552339 279.35727 
L 197.865134 278.756701 
L 196.487529 278.156133 
L 193.95606 277.555564 
L 191.77938 276.954995 
L 190.945146 276.354427 
L 190.890808 275.753858 
L 190.373008 275.153289 
L 189.976667 274.55272 
L 189.855207 273.952152 
L 188.944262 273.351583 
L 188.06528 272.751014 
L 187.905465 272.150445 
L 186.189052 271.549877 
L 185.869422 270.949308 
L 185.808692 270.348739 
L 185.696822 269.748171 
L 185.664859 269.147602 
L 185.613718 268.547033 
L 185.195002 267.946464 
L 183.699134 267.345896 
L 183.063071 266.745327 
L 182.017881 266.144758 
L 178.703318 265.54419 
L 178.275014 264.943621 
L 178.195106 264.343052 
L 177.782784 263.742483 
L 177.622969 263.141915 
L 176.587368 262.541346 
L 176.210204 261.940777 
L 175.765919 261.340209 
L 175.165014 260.73964 
L 174.554521 260.139071 
L 173.180112 259.538502 
L 171.57557 258.937934 
L 171.450914 258.337365 
L 170.543165 257.736796 
L 170.332209 257.136227 
L 169.229486 256.535659 
L 168.9578 255.93509 
L 168.618993 255.334521 
L 167.637729 254.733953 
L 166.969702 254.133384 
L 166.873813 253.532815 
L 166.60852 252.932246 
L 165.898942 252.331678 
L 165.681593 251.731109 
L 164.799415 251.13054 
L 164.144173 250.529972 
L 164.006732 249.929403 
L 163.316332 249.328834 
L 162.788942 248.728265 
L 161.852426 248.127697 
L 161.216363 247.527128 
L 160.714544 246.926559 
L 160.369343 246.325991 
L 160.148799 245.725422 
L 160.05291 245.124853 
L 159.790813 244.524284 
L 158.470741 243.923716 
L 158.371656 243.323147 
L 158.362067 242.722578 
L 158.358871 242.122009 
L 158.30773 241.521441 
L 157.984904 240.920872 
L 157.49587 240.320303 
L 157.26254 239.719735 
L 156.965284 239.119166 
L 156.888573 238.518597 
L 155.942468 237.918028 
L 155.741101 237.31746 
L 155.459827 236.716891 
L 155.053897 236.116322 
L 153.947977 235.515754 
L 153.74661 234.915185 
L 153.011462 234.314616 
L 152.829272 233.714047 
L 152.004627 233.113479 
L 151.633856 232.51291 
L 151.506004 231.912341 
L 150.978615 231.311773 
L 150.281822 230.711204 
L 149.42841 230.110635 
L 148.805131 229.510066 
L 148.709242 228.909498 
L 147.993271 228.308929 
L 147.593734 227.70836 
L 147.475471 227.107791 
L 147.453097 226.507223 
L 147.229356 225.906654 
L 146.570918 225.306085 
L 146.142614 224.705517 
L 145.915676 224.104948 
L 145.362717 223.504379 
L 145.116601 222.90381 
L 145.10062 222.303242 
L 144.659531 221.702673 
L 143.812511 221.102104 
L 143.412974 220.501536 
L 143.160466 219.900967 
L 143.048596 219.300398 
L 142.991062 218.699829 
L 142.546777 218.099261 
L 142.441299 217.498692 
L 142.271895 216.898123 
L 141.450446 216.297555 
L 140.165533 215.696986 
L 139.868278 215.096417 
L 139.612574 214.495848 
L 139.471936 213.89528 
L 139.459151 213.294711 
L 138.318072 212.694142 
L 138.081546 212.093573 
L 137.873787 211.493005 
L 137.18019 210.892436 
L 136.914897 210.291867 
L 136.716726 209.691299 
L 135.975185 209.09073 
L 135.585236 208.490161 
L 135.403047 207.889592 
L 134.914013 207.289024 
L 134.715843 206.688455 
L 134.645524 206.087886 
L 134.281146 205.487318 
L 134.166079 204.886749 
L 133.782523 204.28618 
L 132.986644 203.685611 
L 132.967467 203.085043 
L 132.846007 202.484474 
L 132.555144 201.883905 
L 131.66018 201.283336 
L 130.867498 200.682768 
L 130.288968 200.082199 
L 130.285771 199.48163 
L 130.212256 198.881062 
L 129.572996 198.280493 
L 129.521856 197.679924 
L 129.445144 197.079355 
L 129.438752 196.478787 
L 129.230992 195.878218 
L 129.183048 195.277649 
L 128.898577 194.677081 
L 128.722781 194.076512 
L 128.297673 193.475943 
L 127.926902 192.875374 
L 127.514579 192.274806 
L 127.226912 191.674237 
L 126.657971 191.073668 
L 126.638793 190.4731 
L 126.370304 189.872531 
L 126.168937 189.271962 
L 125.689492 188.671393 
L 125.571229 188.070825 
L 124.823295 187.470256 
L 124.66348 186.869687 
L 124.305495 186.269118 
L 124.065772 185.66855 
L 123.886779 185.067981 
L 123.071723 184.467412 
L 123.068527 183.866844 
L 122.857571 183.266275 
L 122.617848 182.665706 
L 122.416482 182.065137 
L 122.279041 181.464569 
L 122.269452 180.864 
L 122.074478 180.263431 
L 121.949822 179.662863 
L 121.61421 179.062294 
L 121.160336 178.461725 
L 120.86308 177.861156 
L 120.696872 177.260588 
L 119.220182 176.660019 
L 118.737541 176.05945 
L 118.689596 175.458882 
L 118.648044 174.858313 
L 118.568137 174.257744 
L 118.475444 173.657175 
L 118.248507 173.056607 
L 117.976821 172.456038 
L 117.449432 171.855469 
L 117.107428 171.2549 
L 117.085054 170.654332 
L 116.864509 170.053763 
L 116.695105 169.453194 
L 116.608805 168.852626 
L 116.27639 168.252057 
L 115.557223 167.651488 
L 115.499689 167.050919 
L 115.263163 166.450351 
L 115.243985 165.849782 
L 115.199237 165.249213 
L 114.914766 164.648645 
L 114.623903 164.048076 
L 114.575959 163.447507 
L 114.403358 162.846938 
L 114.365003 162.24637 
L 114.326647 161.645801 
L 114.048569 161.045232 
L 114.032588 160.444664 
L 113.43488 159.844095 
L 113.22712 159.243526 
L 112.945846 158.642957 
L 112.284212 158.042389 
L 112.207501 157.44182 
L 112.00933 156.841251 
L 111.008888 156.240682 
L 110.580584 155.640114 
L 110.369628 155.039545 
L 109.334027 154.438976 
L 109.161427 153.838408 
L 109.094305 153.237839 
L 108.976042 152.63727 
L 108.876956 152.036701 
L 108.349567 151.436133 
L 108.2345 150.835564 
L 108.212126 150.234995 
L 107.633596 149.634427 
L 107.16374 149.033858 
L 106.949588 148.433289 
L 106.770595 147.83272 
L 106.617173 147.232152 
L 106.479732 146.631583 
L 105.607142 146.031014 
L 105.367419 145.430445 
L 105.24596 144.829877 
L 105.162856 144.229308 
L 104.670626 143.628739 
L 104.635467 143.028171 
L 104.6067 142.427602 
L 104.597111 141.827033 
L 104.414922 141.226464 
L 104.389352 140.625896 
L 104.251911 140.025327 
L 103.871551 139.424758 
L 103.849177 138.82419 
L 103.666988 138.223621 
L 103.149187 137.623052 
L 103.066084 137.022483 
L 102.813576 136.421915 
L 102.704902 135.821346 
L 102.500339 135.220777 
L 102.25742 134.620209 
L 101.519075 134.01964 
L 100.751963 133.419071 
L 99.949692 132.818502 
L 99.920925 132.217934 
L 99.652436 131.617365 
L 99.172991 131.016796 
L 98.920483 130.416227 
L 98.850164 129.815659 
L 98.754275 129.21509 
L 98.747883 128.614521 
L 98.415468 128.013953 
L 98.01593 127.413384 
L 97.980771 126.812815 
L 97.271192 126.212246 
L 96.910011 125.611678 
L 96.836496 125.011109 
L 96.833299 124.41054 
L 96.318695 123.809972 
L 96.091758 123.209403 
L 95.698613 122.608834 
L 95.238346 122.008265 
L 95.158438 121.407697 
L 95.033783 120.807128 
L 94.864379 120.206559 
L 94.797257 119.605991 
L 94.736527 119.005422 
L 94.094071 118.404853 
L 93.525129 117.804284 
L 93.521933 117.203716 
L 93.445222 116.603147 
L 93.387688 116.002578 
L 93.227873 115.402009 
L 93.224677 114.801441 
L 93.192714 114.200872 
L 92.521491 113.600303 
L 92.50551 112.999735 
L 92.310535 112.399166 
L 91.751183 111.798597 
L 91.610546 111.198028 
L 91.533835 110.59746 
L 91.428357 109.996891 
L 91.322879 109.396322 
L 91.300505 108.795754 
L 90.041163 108.195185 
L 89.561718 107.594616 
L 89.264462 106.994047 
L 89.111039 106.393479 
L 89.056702 105.79291 
L 89.005562 105.192341 
L 88.890495 104.591773 
L 88.701913 103.991204 
L 88.446209 103.390635 
L 88.32475 102.790066 
L 88.209683 102.189498 
L 88.187309 101.588929 
L 87.969961 100.98836 
L 87.784575 100.387791 
L 87.516086 99.787223 
L 86.876826 99.186654 
L 86.077751 98.586085 
L 85.972273 97.985517 
L 85.959488 97.384948 
L 85.774103 96.784379 
L 85.754925 96.18381 
L 85.662232 95.583242 
L 85.502417 94.982673 
L 85.345799 94.382104 
L 85.106076 93.781536 
L 84.556313 93.180967 
L 84.530742 92.580398 
L 84.521153 91.979829 
L 84.227094 91.379261 
L 84.054493 90.778692 
L 83.73806 90.178123 
L 83.488748 89.577555 
L 83.444 88.976986 
L 82.996518 88.376417 
L 82.948574 87.775848 
L 82.945378 87.17528 
L 82.494699 85.974142 
L 82.360455 85.373573 
L 82.325295 84.773005 
L 82.044021 84.172436 
L 81.858636 83.571867 
L 81.785121 82.971299 
L 81.650876 82.37073 
L 81.129879 81.770161 
L 80.902942 81.169592 
L 80.612079 80.569024 
L 80.487423 79.968455 
L 80.289253 79.367886 
L 80.206149 78.767318 
L 80.123045 78.166749 
L 80.100671 77.56618 
L 80.014371 76.965611 
L 79.828985 76.365043 
L 79.656385 75.764474 
L 79.266437 75.163905 
L 79.068266 73.962768 
L 78.419417 73.362199 
L 78.16691 72.76163 
L 78.048646 72.161062 
L 78.035861 71.560493 
L 77.818513 70.959924 
L 77.534042 70.359355 
L 77.460527 69.758787 
L 77.450938 69.158218 
L 77.415779 68.557649 
L 77.083364 67.957081 
L 77.035419 67.356512 
L 77.025831 66.755943 
L 76.907568 66.155374 
L 76.456889 65.554806 
L 76.450497 64.954237 
L 76.348215 64.353668 
L 76.345019 63.7531 
L 76.217167 63.152531 
L 75.849592 62.551962 
L 75.587496 61.350825 
L 75.577907 60.750256 
L 75.440466 60.149687 
L 75.411699 59.549118 
L 75.267866 58.94855 
L 75.076088 58.347981 
L 74.41765 57.747412 
L 74.340939 57.146844 
L 74.321761 56.546275 
L 74.088431 55.945706 
L 74.069253 55.345137 
L 74.043683 54.744569 
L 73.832727 54.144 
z
" clip-path="url(#p1daf87a575)" style="fill: #ff0000"/>
   </g>
   <g id="matplotlib.axis_1">
    <g id="xtick_1">
     <g id="line2d_1">
      <defs>
       <path id="ma6df62a0aa" d="M 0 0 
L 0 3.5 
" style="stroke: #000000; stroke-width: 0.8"/>
      </defs>
      <g>
       <use xlink:href="#ma6df62a0aa" x="58.07497" y="307.584" style="stroke: #000000; stroke-width: 0.8"/>
      </g>
     </g>
     <g id="text_1">
      <!-- 0 -->
      <g transform="translate(54.89372 322.182437)scale(0.1 -0.1)">
       <defs>
        <path id="DejaVuSans-30" d="M 2034 4250 
Q 1547 4250 1301 3770 
Q 1056 3291 1056 2328 
Q 1056 1369 1301 889 
Q 1547 409 2034 409 
Q 2525 409 2770 889 
Q 3016 1369 3016 2328 
Q 3016 3291 2770 3770 
Q 2525 4250 2034 4250 
z
M 2034 4750 
Q 2819 4750 3233 4129 
Q 3647 3509 3647 2328 
Q 3647 1150 3233 529 
Q 2819 -91 2034 -91 
Q 1250 -91 836 529 
Q 422 1150 422 2328 
Q 422 3509 836 4129 
Q 1250 4750 2034 4750 
z
" transform="scale(0.015625)"/>
       </defs>
       <use xlink:href="#DejaVuSans-30"/>
      </g>
     </g>
    </g>
    <g id="xtick_2">
     <g id="line2d_2">
      <g>
       <use xlink:href="#ma6df62a0aa" x="122.000963" y="307.584" style="stroke: #000000; stroke-width: 0.8"/>
      </g>
     </g>
     <g id="text_2">
      <!-- 200 -->
      <g transform="translate(112.457213 322.182437)scale(0.1 -0.1)">
       <defs>
        <path id="DejaVuSans-32" d="M 1228 531 
L 3431 531 
L 3431 0 
L 469 0 
L 469 531 
Q 828 903 1448 1529 
Q 2069 2156 2228 2338 
Q 2531 2678 2651 2914 
Q 2772 3150 2772 3378 
Q 2772 3750 2511 3984 
Q 2250 4219 1831 4219 
Q 1534 4219 1204 4116 
Q 875 4013 500 3803 
L 500 4441 
Q 881 4594 1212 4672 
Q 1544 4750 1819 4750 
Q 2544 4750 2975 4387 
Q 3406 4025 3406 3419 
Q 3406 3131 3298 2873 
Q 3191 2616 2906 2266 
Q 2828 2175 2409 1742 
Q 1991 1309 1228 531 
z
" transform="scale(0.015625)"/>
       </defs>
       <use xlink:href="#DejaVuSans-32"/>
       <use xlink:href="#DejaVuSans-30" x="63.623047"/>
       <use xlink:href="#DejaVuSans-30" x="127.246094"/>
      </g>
     </g>
    </g>
    <g id="xtick_3">
     <g id="line2d_3">
      <g>
       <use xlink:href="#ma6df62a0aa" x="185.926955" y="307.584" style="stroke: #000000; stroke-width: 0.8"/>
      </g>
     </g>
     <g id="text_3">
      <!-- 400 -->
      <g transform="translate(176.383205 322.182437)scale(0.1 -0.1)">
       <defs>
        <path id="DejaVuSans-34" d="M 2419 4116 
L 825 1625 
L 2419 1625 
L 2419 4116 
z
M 2253 4666 
L 3047 4666 
L 3047 1625 
L 3713 1625 
L 3713 1100 
L 3047 1100 
L 3047 0 
L 2419 0 
L 2419 1100 
L 313 1100 
L 313 1709 
L 2253 4666 
z
" transform="scale(0.015625)"/>
       </defs>
       <use xlink:href="#DejaVuSans-34"/>
       <use xlink:href="#DejaVuSans-30" x="63.623047"/>
       <use xlink:href="#DejaVuSans-30" x="127.246094"/>
      </g>
     </g>
    </g>
    <g id="xtick_4">
     <g id="line2d_4">
      <g>
       <use xlink:href="#ma6df62a0aa" x="249.852948" y="307.584" style="stroke: #000000; stroke-width: 0.8"/>
      </g>
     </g>
     <g id="text_4">
      <!-- 600 -->
      <g transform="translate(240.309198 322.182437)scale(0.1 -0.1)">
       <defs>
        <path id="DejaVuSans-36" d="M 2113 2584 
Q 1688 2584 1439 2293 
Q 1191 2003 1191 1497 
Q 1191 994 1439 701 
Q 1688 409 2113 409 
Q 2538 409 2786 701 
Q 3034 994 3034 1497 
Q 3034 2003 2786 2293 
Q 2538 2584 2113 2584 
z
M 3366 4563 
L 3366 3988 
Q 3128 4100 2886 4159 
Q 2644 4219 2406 4219 
Q 1781 4219 1451 3797 
Q 1122 3375 1075 2522 
Q 1259 2794 1537 2939 
Q 1816 3084 2150 3084 
Q 2853 3084 3261 2657 
Q 3669 2231 3669 1497 
Q 3669 778 3244 343 
Q 2819 -91 2113 -91 
Q 1303 -91 875 529 
Q 447 1150 447 2328 
Q 447 3434 972 4092 
Q 1497 4750 2381 4750 
Q 2619 4750 2861 4703 
Q 3103 4656 3366 4563 
z
" transform="scale(0.015625)"/>
       </defs>
       <use xlink:href="#DejaVuSans-36"/>
       <use xlink:href="#DejaVuSans-30" x="63.623047"/>
       <use xlink:href="#DejaVuSans-30" x="127.246094"/>
      </g>
     </g>
    </g>
    <g id="xtick_5">
     <g id="line2d_5">
      <g>
       <use xlink:href="#ma6df62a0aa" x="313.77894" y="307.584" style="stroke: #000000; stroke-width: 0.8"/>
      </g>
     </g>
     <g id="text_5">
      <!-- 800 -->
      <g transform="translate(304.23519 322.182437)scale(0.1 -0.1)">
       <defs>
        <path id="DejaVuSans-38" d="M 2034 2216 
Q 1584 2216 1326 1975 
Q 1069 1734 1069 1313 
Q 1069 891 1326 650 
Q 1584 409 2034 409 
Q 2484 409 2743 651 
Q 3003 894 3003 1313 
Q 3003 1734 2745 1975 
Q 2488 2216 2034 2216 
z
M 1403 2484 
Q 997 2584 770 2862 
Q 544 3141 544 3541 
Q 544 4100 942 4425 
Q 1341 4750 2034 4750 
Q 2731 4750 3128 4425 
Q 3525 4100 3525 3541 
Q 3525 3141 3298 2862 
Q 3072 2584 2669 2484 
Q 3125 2378 3379 2068 
Q 3634 1759 3634 1313 
Q 3634 634 3220 271 
Q 2806 -91 2034 -91 
Q 1263 -91 848 271 
Q 434 634 434 1313 
Q 434 1759 690 2068 
Q 947 2378 1403 2484 
z
M 1172 3481 
Q 1172 3119 1398 2916 
Q 1625 2713 2034 2713 
Q 2441 2713 2670 2916 
Q 2900 3119 2900 3481 
Q 2900 3844 2670 4047 
Q 2441 4250 2034 4250 
Q 1625 4250 1398 4047 
Q 1172 3844 1172 3481 
z
" transform="scale(0.015625)"/>
       </defs>
       <use xlink:href="#DejaVuSans-38"/>
       <use xlink:href="#DejaVuSans-30" x="63.623047"/>
       <use xlink:href="#DejaVuSans-30" x="127.246094"/>
      </g>
     </g>
    </g>
    <g id="xtick_6">
     <g id="line2d_6">
      <g>
       <use xlink:href="#ma6df62a0aa" x="377.704933" y="307.584" style="stroke: #000000; stroke-width: 0.8"/>
      </g>
     </g>
     <g id="text_6">
      <!-- 1000 -->
      <g transform="translate(364.979933 322.182437)scale(0.1 -0.1)">
       <defs>
        <path id="DejaVuSans-31" d="M 794 531 
L 1825 531 
L 1825 4091 
L 703 3866 
L 703 4441 
L 1819 4666 
L 2450 4666 
L 2450 531 
L 3481 531 
L 3481 0 
L 794 0 
L 794 531 
z
" transform="scale(0.015625)"/>
       </defs>
       <use xlink:href="#DejaVuSans-31"/>
       <use xlink:href="#DejaVuSans-30" x="63.623047"/>
       <use xlink:href="#DejaVuSans-30" x="127.246094"/>
       <use xlink:href="#DejaVuSans-30" x="190.869141"/>
      </g>
     </g>
    </g>
    <g id="text_7">
     <!-- Score -->
     <g transform="translate(222.157656 335.860562)scale(0.1 -0.1)">
      <defs>
       <path id="DejaVuSans-53" d="M 3425 4513 
L 3425 3897 
Q 3066 4069 2747 4153 
Q 2428 4238 2131 4238 
Q 1616 4238 1336 4038 
Q 1056 3838 1056 3469 
Q 1056 3159 1242 3001 
Q 1428 2844 1947 2747 
L 2328 2669 
Q 3034 2534 3370 2195 
Q 3706 1856 3706 1288 
Q 3706 609 3251 259 
Q 2797 -91 1919 -91 
Q 1588 -91 1214 -16 
Q 841 59 441 206 
L 441 856 
Q 825 641 1194 531 
Q 1563 422 1919 422 
Q 2459 422 2753 634 
Q 3047 847 3047 1241 
Q 3047 1584 2836 1778 
Q 2625 1972 2144 2069 
L 1759 2144 
Q 1053 2284 737 2584 
Q 422 2884 422 3419 
Q 422 4038 858 4394 
Q 1294 4750 2059 4750 
Q 2388 4750 2728 4690 
Q 3069 4631 3425 4513 
z
" transform="scale(0.015625)"/>
       <path id="DejaVuSans-63" d="M 3122 3366 
L 3122 2828 
Q 2878 2963 2633 3030 
Q 2388 3097 2138 3097 
Q 1578 3097 1268 2742 
Q 959 2388 959 1747 
Q 959 1106 1268 751 
Q 1578 397 2138 397 
Q 2388 397 2633 464 
Q 2878 531 3122 666 
L 3122 134 
Q 2881 22 2623 -34 
Q 2366 -91 2075 -91 
Q 1284 -91 818 406 
Q 353 903 353 1747 
Q 353 2603 823 3093 
Q 1294 3584 2113 3584 
Q 2378 3584 2631 3529 
Q 2884 3475 3122 3366 
z
" transform="scale(0.015625)"/>
       <path id="DejaVuSans-6f" d="M 1959 3097 
Q 1497 3097 1228 2736 
Q 959 2375 959 1747 
Q 959 1119 1226 758 
Q 1494 397 1959 397 
Q 2419 397 2687 759 
Q 2956 1122 2956 1747 
Q 2956 2369 2687 2733 
Q 2419 3097 1959 3097 
z
M 1959 3584 
Q 2709 3584 3137 3096 
Q 3566 2609 3566 1747 
Q 3566 888 3137 398 
Q 2709 -91 1959 -91 
Q 1206 -91 779 398 
Q 353 888 353 1747 
Q 353 2609 779 3096 
Q 1206 3584 1959 3584 
z
" transform="scale(0.015625)"/>
       <path id="DejaVuSans-72" d="M 2631 2963 
Q 2534 3019 2420 3045 
Q 2306 3072 2169 3072 
Q 1681 3072 1420 2755 
Q 1159 2438 1159 1844 
L 1159 0 
L 581 0 
L 581 3500 
L 1159 3500 
L 1159 2956 
Q 1341 3275 1631 3429 
Q 1922 3584 2338 3584 
Q 2397 3584 2469 3576 
Q 2541 3569 2628 3553 
L 2631 2963 
z
" transform="scale(0.015625)"/>
       <path id="DejaVuSans-65" d="M 3597 1894 
L 3597 1613 
L 953 1613 
Q 991 1019 1311 708 
Q 1631 397 2203 397 
Q 2534 397 2845 478 
Q 3156 559 3463 722 
L 3463 178 
Q 3153 47 2828 -22 
Q 2503 -91 2169 -91 
Q 1331 -91 842 396 
Q 353 884 353 1716 
Q 353 2575 817 3079 
Q 1281 3584 2069 3584 
Q 2775 3584 3186 3129 
Q 3597 2675 3597 1894 
z
M 3022 2063 
Q 3016 2534 2758 2815 
Q 2500 3097 2075 3097 
Q 1594 3097 1305 2825 
Q 1016 2553 972 2059 
L 3022 2063 
z
" transform="scale(0.015625)"/>
      </defs>
      <use xlink:href="#DejaVuSans-53"/>
      <use xlink:href="#DejaVuSans-63" x="63.476562"/>
      <use xlink:href="#DejaVuSans-6f" x="118.457031"/>
      <use xlink:href="#DejaVuSans-72" x="179.638672"/>
      <use xlink:href="#DejaVuSans-65" x="218.501953"/>
     </g>
    </g>
   </g>
   <g id="matplotlib.axis_2">
    <g id="ytick_1">
     <g id="line2d_7">
      <defs>
       <path id="m9f6aba77c3" d="M 0 0 
L -3.5 0 
" style="stroke: #000000; stroke-width: 0.8"/>
      </defs>
      <g>
       <use xlink:href="#m9f6aba77c3" x="57.6" y="307.584" style="stroke: #000000; stroke-width: 0.8"/>
      </g>
     </g>
     <g id="text_8">
      <!-- 0 -->
      <g transform="translate(44.2375 311.383219)scale(0.1 -0.1)">
       <use xlink:href="#DejaVuSans-30"/>
      </g>
     </g>
    </g>
    <g id="ytick_2">
     <g id="line2d_8">
      <g>
       <use xlink:href="#m9f6aba77c3" x="57.6" y="277.555564" style="stroke: #000000; stroke-width: 0.8"/>
      </g>
     </g>
     <g id="text_9">
      <!-- 50 -->
      <g transform="translate(37.875 281.354783)scale(0.1 -0.1)">
       <defs>
        <path id="DejaVuSans-35" d="M 691 4666 
L 3169 4666 
L 3169 4134 
L 1269 4134 
L 1269 2991 
Q 1406 3038 1543 3061 
Q 1681 3084 1819 3084 
Q 2600 3084 3056 2656 
Q 3513 2228 3513 1497 
Q 3513 744 3044 326 
Q 2575 -91 1722 -91 
Q 1428 -91 1123 -41 
Q 819 9 494 109 
L 494 744 
Q 775 591 1075 516 
Q 1375 441 1709 441 
Q 2250 441 2565 725 
Q 2881 1009 2881 1497 
Q 2881 1984 2565 2268 
Q 2250 2553 1709 2553 
Q 1456 2553 1204 2497 
Q 953 2441 691 2322 
L 691 4666 
z
" transform="scale(0.015625)"/>
       </defs>
       <use xlink:href="#DejaVuSans-35"/>
       <use xlink:href="#DejaVuSans-30" x="63.623047"/>
      </g>
     </g>
    </g>
    <g id="ytick_3">
     <g id="line2d_9">
      <g>
       <use xlink:href="#m9f6aba77c3" x="57.6" y="247.527128" style="stroke: #000000; stroke-width: 0.8"/>
      </g>
     </g>
     <g id="text_10">
      <!-- 100 -->
      <g transform="translate(31.5125 251.326347)scale(0.1 -0.1)">
       <use xlink:href="#DejaVuSans-31"/>
       <use xlink:href="#DejaVuSans-30" x="63.623047"/>
       <use xlink:href="#DejaVuSans-30" x="127.246094"/>
      </g>
     </g>
    </g>
    <g id="ytick_4">
     <g id="line2d_10">
      <g>
       <use xlink:href="#m9f6aba77c3" x="57.6" y="217.498692" style="stroke: #000000; stroke-width: 0.8"/>
      </g>
     </g>
     <g id="text_11">
      <!-- 150 -->
      <g transform="translate(31.5125 221.297911)scale(0.1 -0.1)">
       <use xlink:href="#DejaVuSans-31"/>
       <use xlink:href="#DejaVuSans-35" x="63.623047"/>
       <use xlink:href="#DejaVuSans-30" x="127.246094"/>
      </g>
     </g>
    </g>
    <g id="ytick_5">
     <g id="line2d_11">
      <g>
       <use xlink:href="#m9f6aba77c3" x="57.6" y="187.470256" style="stroke: #000000; stroke-width: 0.8"/>
      </g>
     </g>
     <g id="text_12">
      <!-- 200 -->
      <g transform="translate(31.5125 191.269475)scale(0.1 -0.1)">
       <use xlink:href="#DejaVuSans-32"/>
       <use xlink:href="#DejaVuSans-30" x="63.623047"/>
       <use xlink:href="#DejaVuSans-30" x="127.246094"/>
      </g>
     </g>
    </g>
    <g id="ytick_6">
     <g id="line2d_12">
      <g>
       <use xlink:href="#m9f6aba77c3" x="57.6" y="157.44182" style="stroke: #000000; stroke-width: 0.8"/>
      </g>
     </g>
     <g id="text_13">
      <!-- 250 -->
      <g transform="translate(31.5125 161.241039)scale(0.1 -0.1)">
       <use xlink:href="#DejaVuSans-32"/>
       <use xlink:href="#DejaVuSans-35" x="63.623047"/>
       <use xlink:href="#DejaVuSans-30" x="127.246094"/>
      </g>
     </g>
    </g>
    <g id="ytick_7">
     <g id="line2d_13">
      <g>
       <use xlink:href="#m9f6aba77c3" x="57.6" y="127.413384" style="stroke: #000000; stroke-width: 0.8"/>
      </g>
     </g>
     <g id="text_14">
      <!-- 300 -->
      <g transform="translate(31.5125 131.212603)scale(0.1 -0.1)">
       <defs>
        <path id="DejaVuSans-33" d="M 2597 2516 
Q 3050 2419 3304 2112 
Q 3559 1806 3559 1356 
Q 3559 666 3084 287 
Q 2609 -91 1734 -91 
Q 1441 -91 1130 -33 
Q 819 25 488 141 
L 488 750 
Q 750 597 1062 519 
Q 1375 441 1716 441 
Q 2309 441 2620 675 
Q 2931 909 2931 1356 
Q 2931 1769 2642 2001 
Q 2353 2234 1838 2234 
L 1294 2234 
L 1294 2753 
L 1863 2753 
Q 2328 2753 2575 2939 
Q 2822 3125 2822 3475 
Q 2822 3834 2567 4026 
Q 2313 4219 1838 4219 
Q 1578 4219 1281 4162 
Q 984 4106 628 3988 
L 628 4550 
Q 988 4650 1302 4700 
Q 1616 4750 1894 4750 
Q 2613 4750 3031 4423 
Q 3450 4097 3450 3541 
Q 3450 3153 3228 2886 
Q 3006 2619 2597 2516 
z
" transform="scale(0.015625)"/>
       </defs>
       <use xlink:href="#DejaVuSans-33"/>
       <use xlink:href="#DejaVuSans-30" x="63.623047"/>
       <use xlink:href="#DejaVuSans-30" x="127.246094"/>
      </g>
     </g>
    </g>
    <g id="ytick_8">
     <g id="line2d_14">
      <g>
       <use xlink:href="#m9f6aba77c3" x="57.6" y="97.384948" style="stroke: #000000; stroke-width: 0.8"/>
      </g>
     </g>
     <g id="text_15">
      <!-- 350 -->
      <g transform="translate(31.5125 101.184167)scale(0.1 -0.1)">
       <use xlink:href="#DejaVuSans-33"/>
       <use xlink:href="#DejaVuSans-35" x="63.623047"/>
       <use xlink:href="#DejaVuSans-30" x="127.246094"/>
      </g>
     </g>
    </g>
    <g id="ytick_9">
     <g id="line2d_15">
      <g>
       <use xlink:href="#m9f6aba77c3" x="57.6" y="67.356512" style="stroke: #000000; stroke-width: 0.8"/>
      </g>
     </g>
     <g id="text_16">
      <!-- 400 -->
      <g transform="translate(31.5125 71.155731)scale(0.1 -0.1)">
       <use xlink:href="#DejaVuSans-34"/>
       <use xlink:href="#DejaVuSans-30" x="63.623047"/>
       <use xlink:href="#DejaVuSans-30" x="127.246094"/>
      </g>
     </g>
    </g>
    <g id="text_17">
     <!-- Number of crosslinks -->
     <g transform="translate(25.432812 227.019406)rotate(-90)scale(0.1 -0.1)">
      <defs>
       <path id="DejaVuSans-4e" d="M 628 4666 
L 1478 4666 
L 3547 763 
L 3547 4666 
L 4159 4666 
L 4159 0 
L 3309 0 
L 1241 3903 
L 1241 0 
L 628 0 
L 628 4666 
z
" transform="scale(0.015625)"/>
       <path id="DejaVuSans-75" d="M 544 1381 
L 544 3500 
L 1119 3500 
L 1119 1403 
Q 1119 906 1312 657 
Q 1506 409 1894 409 
Q 2359 409 2629 706 
Q 2900 1003 2900 1516 
L 2900 3500 
L 3475 3500 
L 3475 0 
L 2900 0 
L 2900 538 
Q 2691 219 2414 64 
Q 2138 -91 1772 -91 
Q 1169 -91 856 284 
Q 544 659 544 1381 
z
M 1991 3584 
L 1991 3584 
z
" transform="scale(0.015625)"/>
       <path id="DejaVuSans-6d" d="M 3328 2828 
Q 3544 3216 3844 3400 
Q 4144 3584 4550 3584 
Q 5097 3584 5394 3201 
Q 5691 2819 5691 2113 
L 5691 0 
L 5113 0 
L 5113 2094 
Q 5113 2597 4934 2840 
Q 4756 3084 4391 3084 
Q 3944 3084 3684 2787 
Q 3425 2491 3425 1978 
L 3425 0 
L 2847 0 
L 2847 2094 
Q 2847 2600 2669 2842 
Q 2491 3084 2119 3084 
Q 1678 3084 1418 2786 
Q 1159 2488 1159 1978 
L 1159 0 
L 581 0 
L 581 3500 
L 1159 3500 
L 1159 2956 
Q 1356 3278 1631 3431 
Q 1906 3584 2284 3584 
Q 2666 3584 2933 3390 
Q 3200 3197 3328 2828 
z
" transform="scale(0.015625)"/>
       <path id="DejaVuSans-62" d="M 3116 1747 
Q 3116 2381 2855 2742 
Q 2594 3103 2138 3103 
Q 1681 3103 1420 2742 
Q 1159 2381 1159 1747 
Q 1159 1113 1420 752 
Q 1681 391 2138 391 
Q 2594 391 2855 752 
Q 3116 1113 3116 1747 
z
M 1159 2969 
Q 1341 3281 1617 3432 
Q 1894 3584 2278 3584 
Q 2916 3584 3314 3078 
Q 3713 2572 3713 1747 
Q 3713 922 3314 415 
Q 2916 -91 2278 -91 
Q 1894 -91 1617 61 
Q 1341 213 1159 525 
L 1159 0 
L 581 0 
L 581 4863 
L 1159 4863 
L 1159 2969 
z
" transform="scale(0.015625)"/>
       <path id="DejaVuSans-20" transform="scale(0.015625)"/>
       <path id="DejaVuSans-66" d="M 2375 4863 
L 2375 4384 
L 1825 4384 
Q 1516 4384 1395 4259 
Q 1275 4134 1275 3809 
L 1275 3500 
L 2222 3500 
L 2222 3053 
L 1275 3053 
L 1275 0 
L 697 0 
L 697 3053 
L 147 3053 
L 147 3500 
L 697 3500 
L 697 3744 
Q 697 4328 969 4595 
Q 1241 4863 1831 4863 
L 2375 4863 
z
" transform="scale(0.015625)"/>
       <path id="DejaVuSans-73" d="M 2834 3397 
L 2834 2853 
Q 2591 2978 2328 3040 
Q 2066 3103 1784 3103 
Q 1356 3103 1142 2972 
Q 928 2841 928 2578 
Q 928 2378 1081 2264 
Q 1234 2150 1697 2047 
L 1894 2003 
Q 2506 1872 2764 1633 
Q 3022 1394 3022 966 
Q 3022 478 2636 193 
Q 2250 -91 1575 -91 
Q 1294 -91 989 -36 
Q 684 19 347 128 
L 347 722 
Q 666 556 975 473 
Q 1284 391 1588 391 
Q 1994 391 2212 530 
Q 2431 669 2431 922 
Q 2431 1156 2273 1281 
Q 2116 1406 1581 1522 
L 1381 1569 
Q 847 1681 609 1914 
Q 372 2147 372 2553 
Q 372 3047 722 3315 
Q 1072 3584 1716 3584 
Q 2034 3584 2315 3537 
Q 2597 3491 2834 3397 
z
" transform="scale(0.015625)"/>
       <path id="DejaVuSans-6c" d="M 603 4863 
L 1178 4863 
L 1178 0 
L 603 0 
L 603 4863 
z
" transform="scale(0.015625)"/>
       <path id="DejaVuSans-69" d="M 603 3500 
L 1178 3500 
L 1178 0 
L 603 0 
L 603 3500 
z
M 603 4863 
L 1178 4863 
L 1178 4134 
L 603 4134 
L 603 4863 
z
" transform="scale(0.015625)"/>
       <path id="DejaVuSans-6e" d="M 3513 2113 
L 3513 0 
L 2938 0 
L 2938 2094 
Q 2938 2591 2744 2837 
Q 2550 3084 2163 3084 
Q 1697 3084 1428 2787 
Q 1159 2491 1159 1978 
L 1159 0 
L 581 0 
L 581 3500 
L 1159 3500 
L 1159 2956 
Q 1366 3272 1645 3428 
Q 1925 3584 2291 3584 
Q 2894 3584 3203 3211 
Q 3513 2838 3513 2113 
z
" transform="scale(0.015625)"/>
       <path id="DejaVuSans-6b" d="M 581 4863 
L 1159 4863 
L 1159 1991 
L 2875 3500 
L 3609 3500 
L 1753 1863 
L 3688 0 
L 2938 0 
L 1159 1709 
L 1159 0 
L 581 0 
L 581 4863 
z
" transform="scale(0.015625)"/>
      </defs>
      <use xlink:href="#DejaVuSans-4e"/>
      <use xlink:href="#DejaVuSans-75" x="74.804688"/>
      <use xlink:href="#DejaVuSans-6d" x="138.183594"/>
      <use xlink:href="#DejaVuSans-62" x="235.595703"/>
      <use xlink:href="#DejaVuSans-65" x="299.072266"/>
      <use xlink:href="#DejaVuSans-72" x="360.595703"/>
      <use xlink:href="#DejaVuSans-20" x="401.708984"/>
      <use xlink:href="#DejaVuSans-6f" x="433.496094"/>
      <use xlink:href="#DejaVuSans-66" x="494.677734"/>
      <use xlink:href="#DejaVuSans-20" x="529.882812"/>
      <use xlink:href="#DejaVuSans-63" x="561.669922"/>
      <use xlink:href="#DejaVuSans-72" x="616.650391"/>
      <use xlink:href="#DejaVuSans-6f" x="655.513672"/>
      <use xlink:href="#DejaVuSans-73" x="716.695312"/>
      <use xlink:href="#DejaVuSans-73" x="768.794922"/>
      <use xlink:href="#DejaVuSans-6c" x="820.894531"/>
      <use xlink:href="#DejaVuSans-69" x="848.677734"/>
      <use xlink:href="#DejaVuSans-6e" x="876.460938"/>
      <use xlink:href="#DejaVuSans-6b" x="939.839844"/>
      <use xlink:href="#DejaVuSans-73" x="997.75"/>
     </g>
    </g>
   </g>
   <g id="patch_3">
    <path d="M 57.6 307.584 
L 57.6 41.472 
" style="fill: none; stroke: #000000; stroke-width: 0.8; stroke-linejoin: miter; stroke-linecap: square"/>
   </g>
   <g id="patch_4">
    <path d="M 414.72 307.584 
L 414.72 41.472 
" style="fill: none; stroke: #000000; stroke-width: 0.8; stroke-linejoin: miter; stroke-linecap: square"/>
   </g>
   <g id="patch_5">
    <path d="M 57.6 307.584 
L 414.72 307.584 
" style="fill: none; stroke: #000000; stroke-width: 0.8; stroke-linejoin: miter; stroke-linecap: square"/>
   </g>
   <g id="patch_6">
    <path d="M 57.6 41.472 
L 414.72 41.472 
" style="fill: none; stroke: #000000; stroke-width: 0.8; stroke-linejoin: miter; stroke-linecap: square"/>
   </g>
   <g id="legend_1">
    <g id="patch_7">
     <path d="M 293.087188 93.506375 
L 407.72 93.506375 
Q 409.72 93.506375 409.72 91.506375 
L 409.72 48.472 
Q 409.72 46.472 407.72 46.472 
L 293.087188 46.472 
Q 291.087188 46.472 291.087188 48.472 
L 291.087188 91.506375 
Q 291.087188 93.506375 293.087188 93.506375 
z
" style="fill: #ffffff; opacity: 0.8; stroke: #cccccc; stroke-linejoin: miter"/>
    </g>
    <g id="patch_8">
     <path d="M 295.087188 58.070438 
L 315.087188 58.070438 
L 315.087188 51.070438 
L 295.087188 51.070438 
z
" style="fill: #008000"/>
    </g>
    <g id="text_18">
     <!-- true -->
     <g transform="translate(323.087188 58.070438)scale(0.1 -0.1)">
      <defs>
       <path id="DejaVuSans-74" d="M 1172 4494 
L 1172 3500 
L 2356 3500 
L 2356 3053 
L 1172 3053 
L 1172 1153 
Q 1172 725 1289 603 
Q 1406 481 1766 481 
L 2356 481 
L 2356 0 
L 1766 0 
Q 1100 0 847 248 
Q 594 497 594 1153 
L 594 3053 
L 172 3053 
L 172 3500 
L 594 3500 
L 594 4494 
L 1172 4494 
z
" transform="scale(0.015625)"/>
      </defs>
      <use xlink:href="#DejaVuSans-74"/>
      <use xlink:href="#DejaVuSans-72" x="39.208984"/>
      <use xlink:href="#DejaVuSans-75" x="80.322266"/>
      <use xlink:href="#DejaVuSans-65" x="143.701172"/>
     </g>
    </g>
    <g id="patch_9">
     <path d="M 295.087188 72.748563 
L 315.087188 72.748563 
L 315.087188 65.748563 
L 295.087188 65.748563 
z
" style="fill: #7cfc00"/>
    </g>
    <g id="text_19">
     <!-- true homeotypic -->
     <g transform="translate(323.087188 72.748563)scale(0.1 -0.1)">
      <defs>
       <path id="DejaVuSans-68" d="M 3513 2113 
L 3513 0 
L 2938 0 
L 2938 2094 
Q 2938 2591 2744 2837 
Q 2550 3084 2163 3084 
Q 1697 3084 1428 2787 
Q 1159 2491 1159 1978 
L 1159 0 
L 581 0 
L 581 4863 
L 1159 4863 
L 1159 2956 
Q 1366 3272 1645 3428 
Q 1925 3584 2291 3584 
Q 2894 3584 3203 3211 
Q 3513 2838 3513 2113 
z
" transform="scale(0.015625)"/>
       <path id="DejaVuSans-79" d="M 2059 -325 
Q 1816 -950 1584 -1140 
Q 1353 -1331 966 -1331 
L 506 -1331 
L 506 -850 
L 844 -850 
Q 1081 -850 1212 -737 
Q 1344 -625 1503 -206 
L 1606 56 
L 191 3500 
L 800 3500 
L 1894 763 
L 2988 3500 
L 3597 3500 
L 2059 -325 
z
" transform="scale(0.015625)"/>
       <path id="DejaVuSans-70" d="M 1159 525 
L 1159 -1331 
L 581 -1331 
L 581 3500 
L 1159 3500 
L 1159 2969 
Q 1341 3281 1617 3432 
Q 1894 3584 2278 3584 
Q 2916 3584 3314 3078 
Q 3713 2572 3713 1747 
Q 3713 922 3314 415 
Q 2916 -91 2278 -91 
Q 1894 -91 1617 61 
Q 1341 213 1159 525 
z
M 3116 1747 
Q 3116 2381 2855 2742 
Q 2594 3103 2138 3103 
Q 1681 3103 1420 2742 
Q 1159 2381 1159 1747 
Q 1159 1113 1420 752 
Q 1681 391 2138 391 
Q 2594 391 2855 752 
Q 3116 1113 3116 1747 
z
" transform="scale(0.015625)"/>
      </defs>
      <use xlink:href="#DejaVuSans-74"/>
      <use xlink:href="#DejaVuSans-72" x="39.208984"/>
      <use xlink:href="#DejaVuSans-75" x="80.322266"/>
      <use xlink:href="#DejaVuSans-65" x="143.701172"/>
      <use xlink:href="#DejaVuSans-20" x="205.224609"/>
      <use xlink:href="#DejaVuSans-68" x="237.011719"/>
      <use xlink:href="#DejaVuSans-6f" x="300.390625"/>
      <use xlink:href="#DejaVuSans-6d" x="361.572266"/>
      <use xlink:href="#DejaVuSans-65" x="458.984375"/>
      <use xlink:href="#DejaVuSans-6f" x="520.507812"/>
      <use xlink:href="#DejaVuSans-74" x="581.689453"/>
      <use xlink:href="#DejaVuSans-79" x="620.898438"/>
      <use xlink:href="#DejaVuSans-70" x="680.078125"/>
      <use xlink:href="#DejaVuSans-69" x="743.554688"/>
      <use xlink:href="#DejaVuSans-63" x="771.337891"/>
     </g>
    </g>
    <g id="patch_10">
     <path d="M 295.087188 87.426688 
L 315.087188 87.426688 
L 315.087188 80.426688 
L 295.087188 80.426688 
z
" style="fill: #ff0000"/>
    </g>
    <g id="text_20">
     <!-- false -->
     <g transform="translate(323.087188 87.426688)scale(0.1 -0.1)">
      <defs>
       <path id="DejaVuSans-61" d="M 2194 1759 
Q 1497 1759 1228 1600 
Q 959 1441 959 1056 
Q 959 750 1161 570 
Q 1363 391 1709 391 
Q 2188 391 2477 730 
Q 2766 1069 2766 1631 
L 2766 1759 
L 2194 1759 
z
M 3341 1997 
L 3341 0 
L 2766 0 
L 2766 531 
Q 2569 213 2275 61 
Q 1981 -91 1556 -91 
Q 1019 -91 701 211 
Q 384 513 384 1019 
Q 384 1609 779 1909 
Q 1175 2209 1959 2209 
L 2766 2209 
L 2766 2266 
Q 2766 2663 2505 2880 
Q 2244 3097 1772 3097 
Q 1472 3097 1187 3025 
Q 903 2953 641 2809 
L 641 3341 
Q 956 3463 1253 3523 
Q 1550 3584 1831 3584 
Q 2591 3584 2966 3190 
Q 3341 2797 3341 1997 
z
" transform="scale(0.015625)"/>
      </defs>
      <use xlink:href="#DejaVuSans-66"/>
      <use xlink:href="#DejaVuSans-61" x="35.205078"/>
      <use xlink:href="#DejaVuSans-6c" x="96.484375"/>
      <use xlink:href="#DejaVuSans-73" x="124.267578"/>
      <use xlink:href="#DejaVuSans-65" x="176.367188"/>
     </g>
    </g>
   </g>
  </g>
 </g>
 <defs>
  <clipPath id="p1daf87a575">
   <rect x="57.6" y="41.472" width="357.12" height="266.112"/>
  </clipPath>
 </defs>
</svg>
