<?xml version="1.0" encoding="utf-8" standalone="no"?>
<!DOCTYPE svg PUBLIC "-//W3C//DTD SVG 1.1//EN"
  "http://www.w3.org/Graphics/SVG/1.1/DTD/svg11.dtd">
<svg xmlns:xlink="http://www.w3.org/1999/xlink" width="460.8pt" height="345.6pt" viewBox="0 0 460.8 345.6" xmlns="http://www.w3.org/2000/svg" version="1.1">
 <metadata>
  <rdf:RDF xmlns:dc="http://purl.org/dc/elements/1.1/" xmlns:cc="http://creativecommons.org/ns#" xmlns:rdf="http://www.w3.org/1999/02/22-rdf-syntax-ns#">
   <cc:Work>
    <dc:type rdf:resource="http://purl.org/dc/dcmitype/StillImage"/>
    <dc:date>2022-07-21T14:08:58.929347</dc:date>
    <dc:format>image/svg+xml</dc:format>
    <dc:creator>
     <cc:Agent>
      <dc:title>Matplotlib v3.5.1, https://matplotlib.org/</dc:title>
     </cc:Agent>
    </dc:creator>
   </cc:Work>
  </rdf:RDF>
 </metadata>
 <defs>
  <style type="text/css">*{stroke-linejoin: round; stroke-linecap: butt}</style>
 </defs>
 <g id="figure_1">
  <g id="patch_1">
   <path d="M 0 345.6 
L 460.8 345.6 
L 460.8 0 
L 0 0 
z
" style="fill: #ffffff"/>
  </g>
  <g id="axes_1">
   <g id="patch_2">
    <path d="M 57.6 307.584 
L 414.72 307.584 
L 414.72 41.472 
L 57.6 41.472 
z
" style="fill: #ffffff"/>
   </g>
   <g id="PolyCollection_1">
    <path d="M 73.832727 102.250667 
L 73.832727 307.584 
L 74.043683 307.584 
L 74.069253 307.584 
L 74.088431 307.584 
L 74.321761 307.584 
L 74.340939 307.584 
L 74.41765 307.584 
L 75.076088 307.584 
L 75.267866 307.584 
L 75.411699 307.584 
L 75.440466 307.584 
L 75.587496 307.584 
L 75.849592 307.584 
L 76.217167 307.584 
L 76.345019 307.584 
L 76.348215 307.584 
L 76.450497 307.584 
L 76.456889 307.584 
L 76.907568 307.584 
L 77.025831 307.584 
L 77.035419 307.584 
L 77.083364 307.584 
L 77.415779 307.584 
L 77.450938 307.584 
L 77.722624 307.584 
L 77.818513 307.584 
L 78.035861 307.584 
L 78.048646 307.584 
L 78.16691 307.584 
L 78.419417 307.584 
L 79.001144 307.584 
L 79.068266 307.584 
L 79.266437 307.584 
L 79.656385 307.584 
L 79.828985 307.584 
L 80.014371 307.584 
L 80.100671 307.584 
L 80.123045 307.584 
L 80.206149 307.584 
L 80.289253 307.584 
L 80.487423 307.584 
L 80.612079 307.584 
L 80.902942 307.584 
L 81.129879 307.584 
L 81.650876 307.584 
L 81.785121 307.584 
L 81.858636 307.584 
L 82.044021 307.584 
L 82.325295 307.584 
L 82.360455 307.584 
L 82.494699 307.584 
L 82.945378 307.584 
L 82.948574 307.584 
L 82.996518 307.584 
L 83.444 307.584 
L 83.488748 307.584 
L 83.73806 307.584 
L 84.227094 307.584 
L 84.521153 307.584 
L 84.530742 307.584 
L 84.556313 307.584 
L 85.106076 307.584 
L 85.345799 307.584 
L 85.502417 307.584 
L 85.662232 307.584 
L 85.754925 307.584 
L 85.774103 307.584 
L 85.959488 307.584 
L 85.972273 307.584 
L 86.077751 307.584 
L 86.876826 307.584 
L 87.516086 307.584 
L 87.784575 307.584 
L 87.969961 307.584 
L 88.187309 307.584 
L 88.209683 307.584 
L 88.32475 307.584 
L 88.446209 307.584 
L 88.701913 307.584 
L 88.890495 307.584 
L 89.005562 307.584 
L 89.056702 307.584 
L 89.111039 307.584 
L 89.264462 307.584 
L 89.561718 307.584 
L 90.041163 307.584 
L 91.300505 307.584 
L 91.322879 307.584 
L 91.428357 307.584 
L 91.533835 307.584 
L 91.610546 307.584 
L 91.751183 307.584 
L 92.310535 307.584 
L 92.50551 307.584 
L 92.521491 307.584 
L 93.192714 307.584 
L 93.224677 307.584 
L 93.227873 307.584 
L 93.387688 307.584 
L 93.445222 307.584 
L 93.525129 307.584 
L 93.605037 307.584 
L 94.062108 307.584 
L 94.094071 307.584 
L 94.736527 307.584 
L 94.797257 307.584 
L 94.864379 307.584 
L 95.033783 307.584 
L 95.158438 307.584 
L 95.238346 307.584 
L 95.698613 307.584 
L 96.091758 307.584 
L 96.318695 307.584 
L 96.833299 307.584 
L 96.836496 307.584 
L 96.910011 307.584 
L 97.271192 307.584 
L 97.980771 307.584 
L 98.01593 307.584 
L 98.415468 307.584 
L 98.747883 307.584 
L 98.754275 307.584 
L 98.850164 307.584 
L 98.920483 307.584 
L 99.172991 307.584 
L 99.652436 307.584 
L 99.920925 307.584 
L 99.949692 307.584 
L 100.751963 307.584 
L 102.25742 307.584 
L 102.500339 307.584 
L 102.704902 307.584 
L 102.813576 307.584 
L 103.066084 307.584 
L 103.149187 307.584 
L 103.666988 307.584 
L 103.849177 307.584 
L 103.871551 307.584 
L 104.389352 307.584 
L 104.414922 307.584 
L 104.597111 307.584 
L 104.6067 307.584 
L 104.635467 307.584 
L 104.670626 307.584 
L 105.162856 307.584 
L 105.24596 307.584 
L 105.367419 307.584 
L 105.607142 307.584 
L 106.479732 307.584 
L 106.617173 307.584 
L 106.770595 307.584 
L 106.949588 307.584 
L 107.16374 307.584 
L 107.633596 307.584 
L 108.212126 307.584 
L 108.2345 307.584 
L 108.349567 307.584 
L 108.876956 307.584 
L 108.976042 307.584 
L 109.094305 307.584 
L 109.161427 307.584 
L 109.334027 307.584 
L 110.369628 307.584 
L 110.580584 307.584 
L 110.746792 307.584 
L 111.008888 307.584 
L 112.00933 307.584 
L 112.207501 307.584 
L 112.284212 307.584 
L 112.945846 307.584 
L 113.22712 307.584 
L 113.43488 307.584 
L 114.032588 307.584 
L 114.048569 307.584 
L 114.326647 307.584 
L 114.365003 307.584 
L 114.403358 307.584 
L 114.575959 307.584 
L 114.623903 307.584 
L 114.914766 307.584 
L 115.199237 307.584 
L 115.243985 307.584 
L 115.263163 307.584 
L 115.499689 307.584 
L 115.557223 307.584 
L 116.27639 307.584 
L 116.608805 307.584 
L 116.695105 307.584 
L 116.864509 307.584 
L 117.085054 307.584 
L 117.107428 307.584 
L 117.190532 307.584 
L 117.449432 307.584 
L 117.976821 307.584 
L 118.248507 307.584 
L 118.568137 307.584 
L 118.648044 307.584 
L 118.689596 307.584 
L 118.737541 307.584 
L 119.220182 307.584 
L 120.696872 307.584 
L 120.86308 307.584 
L 121.160336 307.584 
L 121.61421 307.584 
L 121.949822 307.584 
L 122.074478 307.584 
L 122.269452 307.584 
L 122.279041 307.584 
L 122.416482 307.584 
L 122.617848 307.584 
L 122.857571 307.584 
L 123.068527 307.584 
L 123.071723 307.584 
L 123.886779 307.584 
L 124.065772 307.584 
L 124.305495 307.584 
L 124.66348 307.584 
L 124.823295 307.584 
L 125.571229 307.584 
L 125.689492 307.584 
L 126.168937 307.584 
L 126.370304 307.584 
L 126.638793 307.584 
L 126.657971 307.584 
L 127.226912 307.584 
L 127.514579 307.584 
L 127.926902 307.584 
L 128.297673 307.584 
L 128.722781 307.584 
L 128.898577 307.584 
L 129.183048 307.584 
L 129.230992 307.584 
L 129.438752 307.584 
L 129.445144 307.584 
L 129.521856 307.584 
L 129.572996 307.584 
L 129.636922 307.584 
L 130.212256 307.584 
L 130.285771 307.584 
L 130.288968 307.584 
L 130.867498 307.584 
L 131.66018 307.584 
L 132.555144 307.584 
L 132.846007 307.584 
L 132.967467 307.584 
L 132.986644 307.584 
L 133.782523 307.584 
L 134.166079 307.584 
L 134.281146 307.584 
L 134.520868 307.584 
L 134.645524 307.584 
L 134.715843 307.584 
L 134.914013 307.584 
L 135.403047 307.584 
L 135.479758 307.584 
L 135.585236 307.584 
L 135.975185 307.584 
L 136.716726 307.584 
L 136.914897 307.584 
L 136.966037 307.584 
L 137.18019 307.584 
L 137.873787 307.584 
L 138.081546 307.584 
L 138.318072 307.584 
L 139.459151 307.584 
L 139.471936 307.584 
L 139.612574 307.584 
L 139.868278 307.584 
L 140.165533 307.584 
L 141.450446 307.584 
L 142.271895 307.584 
L 142.441299 307.584 
L 142.546777 307.584 
L 142.991062 307.584 
L 143.048596 307.584 
L 143.160466 307.584 
L 143.412974 307.584 
L 143.812511 307.584 
L 143.940363 307.584 
L 144.659531 307.584 
L 145.10062 307.584 
L 145.116601 307.584 
L 145.362717 307.584 
L 145.915676 307.584 
L 146.142614 307.584 
L 146.570918 307.584 
L 147.229356 307.584 
L 147.453097 307.584 
L 147.475471 307.584 
L 147.593734 307.584 
L 147.993271 307.584 
L 148.709242 307.584 
L 148.792346 307.584 
L 148.805131 307.584 
L 149.42841 307.584 
L 150.281822 307.584 
L 151.506004 307.584 
L 151.633856 307.584 
L 152.004627 307.584 
L 152.829272 307.584 
L 153.011462 307.584 
L 153.74661 307.584 
L 153.947977 307.584 
L 154.670341 307.584 
L 155.053897 307.584 
L 155.459827 307.584 
L 155.741101 307.584 
L 155.942468 307.584 
L 156.888573 307.584 
L 156.965284 307.584 
L 157.26254 307.584 
L 157.49587 307.584 
L 157.984904 307.584 
L 158.30773 307.584 
L 158.358871 307.584 
L 158.362067 307.584 
L 158.371656 307.584 
L 158.470741 307.584 
L 158.905438 307.584 
L 159.790813 307.584 
L 160.05291 307.584 
L 160.148799 307.584 
L 160.369343 307.584 
L 160.714544 307.584 
L 161.216363 307.584 
L 161.852426 307.584 
L 162.788942 307.584 
L 163.316332 307.584 
L 164.006732 307.584 
L 164.144173 307.584 
L 164.799415 307.584 
L 165.681593 307.584 
L 165.898942 307.584 
L 166.544594 307.584 
L 166.60852 307.584 
L 166.873813 307.584 
L 166.969702 307.584 
L 167.637729 307.584 
L 168.618993 307.584 
L 168.9578 307.584 
L 169.229486 307.584 
L 170.332209 307.584 
L 170.543165 307.584 
L 171.450914 307.584 
L 171.57557 307.584 
L 173.180112 307.584 
L 174.554521 307.584 
L 175.165014 307.584 
L 175.765919 307.584 
L 176.210204 307.584 
L 176.587368 307.584 
L 177.622969 307.584 
L 177.782784 307.584 
L 177.977758 307.584 
L 178.195106 307.584 
L 178.275014 307.584 
L 178.703318 307.584 
L 182.017881 307.584 
L 183.063071 307.584 
L 183.699134 307.584 
L 185.195002 307.584 
L 185.613718 307.584 
L 185.664859 307.584 
L 185.696822 307.584 
L 185.808692 307.584 
L 185.869422 307.584 
L 186.189052 307.584 
L 187.905465 307.584 
L 188.06528 307.584 
L 188.944262 307.584 
L 189.855207 307.584 
L 189.976667 307.584 
L 190.373008 307.584 
L 190.890808 307.584 
L 190.945146 307.584 
L 191.77938 307.584 
L 193.95606 307.584 
L 196.487529 307.584 
L 197.865134 307.584 
L 198.552339 307.584 
L 199.661455 307.584 
L 200.412585 307.584 
L 200.51167 307.584 
L 200.738608 307.584 
L 200.959152 307.584 
L 201.815761 307.584 
L 202.205709 307.584 
L 204.283304 307.584 
L 206.750847 307.584 
L 207.473211 307.584 
L 208.748534 307.584 
L 210.183673 307.584 
L 211.177722 307.584 
L 211.769038 307.584 
L 213.670836 307.584 
L 215.125152 307.584 
L 215.179489 307.584 
L 215.774001 307.584 
L 217.535162 307.584 
L 219.49769 307.584 
L 223.659272 307.584 
L 228.955541 307.584 
L 229.185674 307.584 
L 233.315293 307.584 
L 234.24222 307.584 
L 242.945744 307.584 
L 244.428827 307.584 
L 248.743832 307.584 
L 252.147891 307.584 
L 257.217222 307.584 
L 257.268363 307.584 
L 258.649164 307.584 
L 260.627674 307.584 
L 260.63087 307.584 
L 260.662833 307.584 
L 262.871476 307.584 
L 265.818464 307.584 
L 271.536644 307.584 
L 272.019285 307.584 
L 272.1791 307.584 
L 273.109224 307.584 
L 276.784968 307.584 
L 280.240168 307.584 
L 282.381689 307.584 
L 286.217248 307.584 
L 286.75103 307.584 
L 345.818648 307.584 
L 368.387719 307.584 
L 398.487273 307.584 
L 398.487273 307.584 
L 398.487273 307.584 
L 368.387719 307.584 
L 345.818648 307.584 
L 286.75103 307.584 
L 286.217248 307.584 
L 282.381689 307.584 
L 280.240168 307.584 
L 276.784968 306.997333 
L 273.109224 306.997333 
L 272.1791 306.997333 
L 272.019285 306.997333 
L 271.536644 306.997333 
L 265.818464 306.997333 
L 262.871476 306.997333 
L 260.662833 306.997333 
L 260.63087 306.997333 
L 260.627674 306.997333 
L 258.649164 306.997333 
L 257.268363 306.410667 
L 257.217222 305.824 
L 252.147891 305.824 
L 248.743832 305.824 
L 244.428827 305.824 
L 242.945744 305.824 
L 234.24222 305.824 
L 233.315293 305.824 
L 229.185674 305.824 
L 228.955541 305.824 
L 223.659272 305.824 
L 219.49769 305.237333 
L 217.535162 305.237333 
L 215.774001 305.237333 
L 215.179489 305.237333 
L 215.125152 305.237333 
L 213.670836 304.650667 
L 211.769038 304.064 
L 211.177722 303.477333 
L 210.183673 302.890667 
L 208.748534 302.304 
L 207.473211 302.304 
L 206.750847 301.717333 
L 204.283304 301.130667 
L 202.205709 300.544 
L 201.815761 299.957333 
L 200.959152 299.957333 
L 200.738608 299.370667 
L 200.51167 298.784 
L 200.412585 298.197333 
L 199.661455 297.610667 
L 198.552339 297.610667 
L 197.865134 297.024 
L 196.487529 296.437333 
L 193.95606 295.850667 
L 191.77938 295.264 
L 190.945146 294.677333 
L 190.890808 294.677333 
L 190.373008 294.090667 
L 189.976667 294.090667 
L 189.855207 293.504 
L 188.944262 293.504 
L 188.06528 292.917333 
L 187.905465 292.330667 
L 186.189052 292.330667 
L 185.869422 291.744 
L 185.808692 291.157333 
L 185.696822 290.570667 
L 185.664859 289.984 
L 185.613718 289.397333 
L 185.195002 288.810667 
L 183.699134 288.810667 
L 183.063071 288.224 
L 182.017881 288.224 
L 178.703318 287.637333 
L 178.275014 287.050667 
L 178.195106 286.464 
L 177.977758 285.877333 
L 177.782784 285.290667 
L 177.622969 284.704 
L 176.587368 284.117333 
L 176.210204 283.530667 
L 175.765919 282.944 
L 175.165014 282.357333 
L 174.554521 281.770667 
L 173.180112 281.184 
L 171.57557 280.597333 
L 171.450914 280.010667 
L 170.543165 279.424 
L 170.332209 278.837333 
L 169.229486 278.250667 
L 168.9578 277.664 
L 168.618993 277.077333 
L 167.637729 276.490667 
L 166.969702 275.904 
L 166.873813 275.317333 
L 166.60852 274.730667 
L 166.544594 274.144 
L 165.898942 273.557333 
L 165.681593 273.557333 
L 164.799415 272.970667 
L 164.144173 272.384 
L 164.006732 271.797333 
L 163.316332 271.210667 
L 162.788942 270.624 
L 161.852426 270.037333 
L 161.216363 269.450667 
L 160.714544 268.864 
L 160.369343 268.277333 
L 160.148799 267.690667 
L 160.05291 267.104 
L 159.790813 266.517333 
L 158.905438 265.930667 
L 158.470741 265.344 
L 158.371656 264.757333 
L 158.362067 264.170667 
L 158.358871 264.170667 
L 158.30773 263.584 
L 157.984904 262.997333 
L 157.49587 262.410667 
L 157.26254 261.824 
L 156.965284 261.824 
L 156.888573 261.237333 
L 155.942468 261.237333 
L 155.741101 261.237333 
L 155.459827 260.650667 
L 155.053897 260.064 
L 154.670341 259.477333 
L 153.947977 258.890667 
L 153.74661 258.304 
L 153.011462 257.717333 
L 152.829272 257.130667 
L 152.004627 256.544 
L 151.633856 256.544 
L 151.506004 255.957333 
L 150.281822 255.370667 
L 149.42841 254.784 
L 148.805131 254.197333 
L 148.792346 253.610667 
L 148.709242 253.024 
L 147.993271 252.437333 
L 147.593734 251.850667 
L 147.475471 251.264 
L 147.453097 250.677333 
L 147.229356 250.090667 
L 146.570918 249.504 
L 146.142614 248.917333 
L 145.915676 248.330667 
L 145.362717 247.744 
L 145.116601 247.157333 
L 145.10062 246.570667 
L 144.659531 245.984 
L 143.940363 245.397333 
L 143.812511 244.810667 
L 143.412974 244.224 
L 143.160466 243.637333 
L 143.048596 243.050667 
L 142.991062 242.464 
L 142.546777 241.877333 
L 142.441299 241.290667 
L 142.271895 240.704 
L 141.450446 240.117333 
L 140.165533 239.530667 
L 139.868278 238.944 
L 139.612574 238.357333 
L 139.471936 238.357333 
L 139.459151 237.770667 
L 138.318072 237.184 
L 138.081546 236.597333 
L 137.873787 236.010667 
L 137.18019 235.424 
L 136.966037 234.837333 
L 136.914897 234.250667 
L 136.716726 233.664 
L 135.975185 233.077333 
L 135.585236 232.490667 
L 135.479758 231.904 
L 135.403047 231.317333 
L 134.914013 230.730667 
L 134.715843 230.144 
L 134.645524 229.557333 
L 134.520868 228.970667 
L 134.281146 228.384 
L 134.166079 227.797333 
L 133.782523 227.210667 
L 132.986644 226.624 
L 132.967467 226.037333 
L 132.846007 225.450667 
L 132.555144 224.864 
L 131.66018 224.277333 
L 130.867498 223.690667 
L 130.288968 223.104 
L 130.285771 222.517333 
L 130.212256 221.930667 
L 129.636922 221.930667 
L 129.572996 221.344 
L 129.521856 220.757333 
L 129.445144 220.170667 
L 129.438752 219.584 
L 129.230992 218.997333 
L 129.183048 218.410667 
L 128.898577 217.824 
L 128.722781 217.237333 
L 128.297673 216.650667 
L 127.926902 216.064 
L 127.514579 215.477333 
L 127.226912 214.890667 
L 126.657971 214.304 
L 126.638793 213.717333 
L 126.370304 213.130667 
L 126.168937 212.544 
L 125.689492 211.957333 
L 125.571229 211.370667 
L 124.823295 210.784 
L 124.66348 210.197333 
L 124.305495 209.610667 
L 124.065772 209.024 
L 123.886779 208.437333 
L 123.071723 207.850667 
L 123.068527 207.264 
L 122.857571 206.677333 
L 122.617848 206.090667 
L 122.416482 205.504 
L 122.279041 204.917333 
L 122.269452 204.330667 
L 122.074478 203.744 
L 121.949822 203.157333 
L 121.61421 202.570667 
L 121.160336 201.984 
L 120.86308 201.397333 
L 120.696872 200.810667 
L 119.220182 200.224 
L 118.737541 199.637333 
L 118.689596 199.050667 
L 118.648044 198.464 
L 118.568137 197.877333 
L 118.248507 197.290667 
L 117.976821 196.704 
L 117.449432 196.117333 
L 117.190532 195.530667 
L 117.107428 194.944 
L 117.085054 194.357333 
L 116.864509 193.770667 
L 116.695105 193.184 
L 116.608805 192.597333 
L 116.27639 192.010667 
L 115.557223 191.424 
L 115.499689 190.837333 
L 115.263163 190.250667 
L 115.243985 189.664 
L 115.199237 189.664 
L 114.914766 189.077333 
L 114.623903 188.490667 
L 114.575959 187.904 
L 114.403358 187.317333 
L 114.365003 186.730667 
L 114.326647 186.144 
L 114.048569 185.557333 
L 114.032588 184.970667 
L 113.43488 184.384 
L 113.22712 183.797333 
L 112.945846 183.210667 
L 112.284212 182.624 
L 112.207501 182.037333 
L 112.00933 181.450667 
L 111.008888 180.864 
L 110.746792 180.277333 
L 110.580584 179.690667 
L 110.369628 179.104 
L 109.334027 178.517333 
L 109.161427 177.930667 
L 109.094305 177.930667 
L 108.976042 177.344 
L 108.876956 176.757333 
L 108.349567 176.170667 
L 108.2345 175.584 
L 108.212126 174.997333 
L 107.633596 174.410667 
L 107.16374 173.824 
L 106.949588 173.237333 
L 106.770595 172.650667 
L 106.617173 172.064 
L 106.479732 171.477333 
L 105.607142 170.890667 
L 105.367419 170.304 
L 105.24596 169.717333 
L 105.162856 169.130667 
L 104.670626 168.544 
L 104.635467 167.957333 
L 104.6067 167.370667 
L 104.597111 166.784 
L 104.414922 166.197333 
L 104.389352 165.610667 
L 103.871551 165.024 
L 103.849177 164.437333 
L 103.666988 163.850667 
L 103.149187 163.264 
L 103.066084 162.677333 
L 102.813576 162.090667 
L 102.704902 161.504 
L 102.500339 160.917333 
L 102.25742 160.330667 
L 100.751963 159.744 
L 99.949692 159.157333 
L 99.920925 158.570667 
L 99.652436 157.984 
L 99.172991 157.397333 
L 98.920483 156.810667 
L 98.850164 156.224 
L 98.754275 155.637333 
L 98.747883 155.050667 
L 98.415468 154.464 
L 98.01593 153.877333 
L 97.980771 153.290667 
L 97.271192 152.704 
L 96.910011 152.117333 
L 96.836496 151.530667 
L 96.833299 150.944 
L 96.318695 150.357333 
L 96.091758 149.770667 
L 95.698613 149.184 
L 95.238346 148.597333 
L 95.158438 148.010667 
L 95.033783 147.424 
L 94.864379 146.837333 
L 94.797257 146.250667 
L 94.736527 145.664 
L 94.094071 145.077333 
L 94.062108 144.490667 
L 93.605037 143.904 
L 93.525129 143.317333 
L 93.445222 142.730667 
L 93.387688 142.144 
L 93.227873 141.557333 
L 93.224677 140.970667 
L 93.192714 140.384 
L 92.521491 139.797333 
L 92.50551 139.210667 
L 92.310535 138.624 
L 91.751183 138.037333 
L 91.610546 138.037333 
L 91.533835 137.450667 
L 91.428357 136.864 
L 91.322879 136.277333 
L 91.300505 135.690667 
L 90.041163 135.104 
L 89.561718 135.104 
L 89.264462 134.517333 
L 89.111039 134.517333 
L 89.056702 133.930667 
L 89.005562 133.344 
L 88.890495 133.344 
L 88.701913 132.757333 
L 88.446209 132.170667 
L 88.32475 131.584 
L 88.209683 130.997333 
L 88.187309 130.410667 
L 87.969961 129.824 
L 87.784575 129.237333 
L 87.516086 128.650667 
L 86.876826 128.064 
L 86.077751 127.477333 
L 85.972273 126.890667 
L 85.959488 126.304 
L 85.774103 125.717333 
L 85.754925 125.130667 
L 85.662232 124.544 
L 85.502417 123.957333 
L 85.345799 123.370667 
L 85.106076 122.784 
L 84.556313 122.784 
L 84.530742 122.784 
L 84.521153 122.197333 
L 84.227094 121.610667 
L 83.73806 121.610667 
L 83.488748 121.024 
L 83.444 120.437333 
L 82.996518 120.437333 
L 82.948574 119.850667 
L 82.945378 119.850667 
L 82.494699 119.264 
L 82.360455 118.677333 
L 82.325295 118.677333 
L 82.044021 118.090667 
L 81.858636 117.504 
L 81.785121 117.504 
L 81.650876 116.917333 
L 81.129879 116.917333 
L 80.902942 116.917333 
L 80.612079 116.917333 
L 80.487423 116.330667 
L 80.289253 115.744 
L 80.206149 115.744 
L 80.123045 115.157333 
L 80.100671 114.570667 
L 80.014371 113.984 
L 79.828985 113.397333 
L 79.656385 113.397333 
L 79.266437 113.397333 
L 79.068266 112.810667 
L 79.001144 112.224 
L 78.419417 112.224 
L 78.16691 112.224 
L 78.048646 111.637333 
L 78.035861 111.637333 
L 77.818513 111.637333 
L 77.722624 111.050667 
L 77.450938 111.050667 
L 77.415779 110.464 
L 77.083364 109.877333 
L 77.035419 109.290667 
L 77.025831 108.704 
L 76.907568 108.704 
L 76.456889 108.704 
L 76.450497 108.117333 
L 76.348215 107.530667 
L 76.345019 107.530667 
L 76.217167 106.944 
L 75.849592 106.357333 
L 75.587496 105.184 
L 75.440466 104.597333 
L 75.411699 104.010667 
L 75.267866 104.010667 
L 75.076088 104.010667 
L 74.41765 103.424 
L 74.340939 102.837333 
L 74.321761 102.250667 
L 74.088431 102.250667 
L 74.069253 102.250667 
L 74.043683 102.250667 
L 73.832727 102.250667 
z
" clip-path="url(#p384780993a)" style="fill: #008000"/>
   </g>
   <g id="PolyCollection_2">
    <path d="M 73.832727 72.917333 
L 73.832727 102.250667 
L 74.043683 102.250667 
L 74.069253 102.250667 
L 74.088431 102.250667 
L 74.321761 102.250667 
L 74.340939 102.837333 
L 74.41765 103.424 
L 75.076088 104.010667 
L 75.267866 104.010667 
L 75.411699 104.010667 
L 75.440466 104.597333 
L 75.587496 105.184 
L 75.849592 106.357333 
L 76.217167 106.944 
L 76.345019 107.530667 
L 76.348215 107.530667 
L 76.450497 108.117333 
L 76.456889 108.704 
L 76.907568 108.704 
L 77.025831 108.704 
L 77.035419 109.290667 
L 77.083364 109.877333 
L 77.415779 110.464 
L 77.450938 111.050667 
L 77.722624 111.050667 
L 77.818513 111.637333 
L 78.035861 111.637333 
L 78.048646 111.637333 
L 78.16691 112.224 
L 78.419417 112.224 
L 79.001144 112.224 
L 79.068266 112.810667 
L 79.266437 113.397333 
L 79.656385 113.397333 
L 79.828985 113.397333 
L 80.014371 113.984 
L 80.100671 114.570667 
L 80.123045 115.157333 
L 80.206149 115.744 
L 80.289253 115.744 
L 80.487423 116.330667 
L 80.612079 116.917333 
L 80.902942 116.917333 
L 81.129879 116.917333 
L 81.650876 116.917333 
L 81.785121 117.504 
L 81.858636 117.504 
L 82.044021 118.090667 
L 82.325295 118.677333 
L 82.360455 118.677333 
L 82.494699 119.264 
L 82.945378 119.850667 
L 82.948574 119.850667 
L 82.996518 120.437333 
L 83.444 120.437333 
L 83.488748 121.024 
L 83.73806 121.610667 
L 84.227094 121.610667 
L 84.521153 122.197333 
L 84.530742 122.784 
L 84.556313 122.784 
L 85.106076 122.784 
L 85.345799 123.370667 
L 85.502417 123.957333 
L 85.662232 124.544 
L 85.754925 125.130667 
L 85.774103 125.717333 
L 85.959488 126.304 
L 85.972273 126.890667 
L 86.077751 127.477333 
L 86.876826 128.064 
L 87.516086 128.650667 
L 87.784575 129.237333 
L 87.969961 129.824 
L 88.187309 130.410667 
L 88.209683 130.997333 
L 88.32475 131.584 
L 88.446209 132.170667 
L 88.701913 132.757333 
L 88.890495 133.344 
L 89.005562 133.344 
L 89.056702 133.930667 
L 89.111039 134.517333 
L 89.264462 134.517333 
L 89.561718 135.104 
L 90.041163 135.104 
L 91.300505 135.690667 
L 91.322879 136.277333 
L 91.428357 136.864 
L 91.533835 137.450667 
L 91.610546 138.037333 
L 91.751183 138.037333 
L 92.310535 138.624 
L 92.50551 139.210667 
L 92.521491 139.797333 
L 93.192714 140.384 
L 93.224677 140.970667 
L 93.227873 141.557333 
L 93.387688 142.144 
L 93.445222 142.730667 
L 93.525129 143.317333 
L 93.605037 143.904 
L 94.062108 144.490667 
L 94.094071 145.077333 
L 94.736527 145.664 
L 94.797257 146.250667 
L 94.864379 146.837333 
L 95.033783 147.424 
L 95.158438 148.010667 
L 95.238346 148.597333 
L 95.698613 149.184 
L 96.091758 149.770667 
L 96.318695 150.357333 
L 96.833299 150.944 
L 96.836496 151.530667 
L 96.910011 152.117333 
L 97.271192 152.704 
L 97.980771 153.290667 
L 98.01593 153.877333 
L 98.415468 154.464 
L 98.747883 155.050667 
L 98.754275 155.637333 
L 98.850164 156.224 
L 98.920483 156.810667 
L 99.172991 157.397333 
L 99.652436 157.984 
L 99.920925 158.570667 
L 99.949692 159.157333 
L 100.751963 159.744 
L 102.25742 160.330667 
L 102.500339 160.917333 
L 102.704902 161.504 
L 102.813576 162.090667 
L 103.066084 162.677333 
L 103.149187 163.264 
L 103.666988 163.850667 
L 103.849177 164.437333 
L 103.871551 165.024 
L 104.389352 165.610667 
L 104.414922 166.197333 
L 104.597111 166.784 
L 104.6067 167.370667 
L 104.635467 167.957333 
L 104.670626 168.544 
L 105.162856 169.130667 
L 105.24596 169.717333 
L 105.367419 170.304 
L 105.607142 170.890667 
L 106.479732 171.477333 
L 106.617173 172.064 
L 106.770595 172.650667 
L 106.949588 173.237333 
L 107.16374 173.824 
L 107.633596 174.410667 
L 108.212126 174.997333 
L 108.2345 175.584 
L 108.349567 176.170667 
L 108.876956 176.757333 
L 108.976042 177.344 
L 109.094305 177.930667 
L 109.161427 177.930667 
L 109.334027 178.517333 
L 110.369628 179.104 
L 110.580584 179.690667 
L 110.746792 180.277333 
L 111.008888 180.864 
L 112.00933 181.450667 
L 112.207501 182.037333 
L 112.284212 182.624 
L 112.945846 183.210667 
L 113.22712 183.797333 
L 113.43488 184.384 
L 114.032588 184.970667 
L 114.048569 185.557333 
L 114.326647 186.144 
L 114.365003 186.730667 
L 114.403358 187.317333 
L 114.575959 187.904 
L 114.623903 188.490667 
L 114.914766 189.077333 
L 115.199237 189.664 
L 115.243985 189.664 
L 115.263163 190.250667 
L 115.499689 190.837333 
L 115.557223 191.424 
L 116.27639 192.010667 
L 116.608805 192.597333 
L 116.695105 193.184 
L 116.864509 193.770667 
L 117.085054 194.357333 
L 117.107428 194.944 
L 117.190532 195.530667 
L 117.449432 196.117333 
L 117.976821 196.704 
L 118.248507 197.290667 
L 118.568137 197.877333 
L 118.648044 198.464 
L 118.689596 199.050667 
L 118.737541 199.637333 
L 119.220182 200.224 
L 120.696872 200.810667 
L 120.86308 201.397333 
L 121.160336 201.984 
L 121.61421 202.570667 
L 121.949822 203.157333 
L 122.074478 203.744 
L 122.269452 204.330667 
L 122.279041 204.917333 
L 122.416482 205.504 
L 122.617848 206.090667 
L 122.857571 206.677333 
L 123.068527 207.264 
L 123.071723 207.850667 
L 123.886779 208.437333 
L 124.065772 209.024 
L 124.305495 209.610667 
L 124.66348 210.197333 
L 124.823295 210.784 
L 125.571229 211.370667 
L 125.689492 211.957333 
L 126.168937 212.544 
L 126.370304 213.130667 
L 126.638793 213.717333 
L 126.657971 214.304 
L 127.226912 214.890667 
L 127.514579 215.477333 
L 127.926902 216.064 
L 128.297673 216.650667 
L 128.722781 217.237333 
L 128.898577 217.824 
L 129.183048 218.410667 
L 129.230992 218.997333 
L 129.438752 219.584 
L 129.445144 220.170667 
L 129.521856 220.757333 
L 129.572996 221.344 
L 129.636922 221.930667 
L 130.212256 221.930667 
L 130.285771 222.517333 
L 130.288968 223.104 
L 130.867498 223.690667 
L 131.66018 224.277333 
L 132.555144 224.864 
L 132.846007 225.450667 
L 132.967467 226.037333 
L 132.986644 226.624 
L 133.782523 227.210667 
L 134.166079 227.797333 
L 134.281146 228.384 
L 134.520868 228.970667 
L 134.645524 229.557333 
L 134.715843 230.144 
L 134.914013 230.730667 
L 135.403047 231.317333 
L 135.479758 231.904 
L 135.585236 232.490667 
L 135.975185 233.077333 
L 136.716726 233.664 
L 136.914897 234.250667 
L 136.966037 234.837333 
L 137.18019 235.424 
L 137.873787 236.010667 
L 138.081546 236.597333 
L 138.318072 237.184 
L 139.459151 237.770667 
L 139.471936 238.357333 
L 139.612574 238.357333 
L 139.868278 238.944 
L 140.165533 239.530667 
L 141.450446 240.117333 
L 142.271895 240.704 
L 142.441299 241.290667 
L 142.546777 241.877333 
L 142.991062 242.464 
L 143.048596 243.050667 
L 143.160466 243.637333 
L 143.412974 244.224 
L 143.812511 244.810667 
L 143.940363 245.397333 
L 144.659531 245.984 
L 145.10062 246.570667 
L 145.116601 247.157333 
L 145.362717 247.744 
L 145.915676 248.330667 
L 146.142614 248.917333 
L 146.570918 249.504 
L 147.229356 250.090667 
L 147.453097 250.677333 
L 147.475471 251.264 
L 147.593734 251.850667 
L 147.993271 252.437333 
L 148.709242 253.024 
L 148.792346 253.610667 
L 148.805131 254.197333 
L 149.42841 254.784 
L 150.281822 255.370667 
L 151.506004 255.957333 
L 151.633856 256.544 
L 152.004627 256.544 
L 152.829272 257.130667 
L 153.011462 257.717333 
L 153.74661 258.304 
L 153.947977 258.890667 
L 154.670341 259.477333 
L 155.053897 260.064 
L 155.459827 260.650667 
L 155.741101 261.237333 
L 155.942468 261.237333 
L 156.888573 261.237333 
L 156.965284 261.824 
L 157.26254 261.824 
L 157.49587 262.410667 
L 157.984904 262.997333 
L 158.30773 263.584 
L 158.358871 264.170667 
L 158.362067 264.170667 
L 158.371656 264.757333 
L 158.470741 265.344 
L 158.905438 265.930667 
L 159.790813 266.517333 
L 160.05291 267.104 
L 160.148799 267.690667 
L 160.369343 268.277333 
L 160.714544 268.864 
L 161.216363 269.450667 
L 161.852426 270.037333 
L 162.788942 270.624 
L 163.316332 271.210667 
L 164.006732 271.797333 
L 164.144173 272.384 
L 164.799415 272.970667 
L 165.681593 273.557333 
L 165.898942 273.557333 
L 166.544594 274.144 
L 166.60852 274.730667 
L 166.873813 275.317333 
L 166.969702 275.904 
L 167.637729 276.490667 
L 168.618993 277.077333 
L 168.9578 277.664 
L 169.229486 278.250667 
L 170.332209 278.837333 
L 170.543165 279.424 
L 171.450914 280.010667 
L 171.57557 280.597333 
L 173.180112 281.184 
L 174.554521 281.770667 
L 175.165014 282.357333 
L 175.765919 282.944 
L 176.210204 283.530667 
L 176.587368 284.117333 
L 177.622969 284.704 
L 177.782784 285.290667 
L 177.977758 285.877333 
L 178.195106 286.464 
L 178.275014 287.050667 
L 178.703318 287.637333 
L 182.017881 288.224 
L 183.063071 288.224 
L 183.699134 288.810667 
L 185.195002 288.810667 
L 185.613718 289.397333 
L 185.664859 289.984 
L 185.696822 290.570667 
L 185.808692 291.157333 
L 185.869422 291.744 
L 186.189052 292.330667 
L 187.905465 292.330667 
L 188.06528 292.917333 
L 188.944262 293.504 
L 189.855207 293.504 
L 189.976667 294.090667 
L 190.373008 294.090667 
L 190.890808 294.677333 
L 190.945146 294.677333 
L 191.77938 295.264 
L 193.95606 295.850667 
L 196.487529 296.437333 
L 197.865134 297.024 
L 198.552339 297.610667 
L 199.661455 297.610667 
L 200.412585 298.197333 
L 200.51167 298.784 
L 200.738608 299.370667 
L 200.959152 299.957333 
L 201.815761 299.957333 
L 202.205709 300.544 
L 204.283304 301.130667 
L 206.750847 301.717333 
L 207.473211 302.304 
L 208.748534 302.304 
L 210.183673 302.890667 
L 211.177722 303.477333 
L 211.769038 304.064 
L 213.670836 304.650667 
L 215.125152 305.237333 
L 215.179489 305.237333 
L 215.774001 305.237333 
L 217.535162 305.237333 
L 219.49769 305.237333 
L 223.659272 305.824 
L 228.955541 305.824 
L 229.185674 305.824 
L 233.315293 305.824 
L 234.24222 305.824 
L 242.945744 305.824 
L 244.428827 305.824 
L 248.743832 305.824 
L 252.147891 305.824 
L 257.217222 305.824 
L 257.268363 306.410667 
L 258.649164 306.997333 
L 260.627674 306.997333 
L 260.63087 306.997333 
L 260.662833 306.997333 
L 262.871476 306.997333 
L 265.818464 306.997333 
L 271.536644 306.997333 
L 272.019285 306.997333 
L 272.1791 306.997333 
L 273.109224 306.997333 
L 276.784968 306.997333 
L 280.240168 307.584 
L 282.381689 307.584 
L 286.217248 307.584 
L 286.75103 307.584 
L 345.818648 307.584 
L 368.387719 307.584 
L 398.487273 307.584 
L 398.487273 306.997333 
L 398.487273 306.997333 
L 368.387719 306.410667 
L 345.818648 305.824 
L 286.75103 305.237333 
L 286.217248 304.650667 
L 282.381689 304.064 
L 280.240168 303.477333 
L 276.784968 302.890667 
L 273.109224 302.304 
L 272.1791 301.717333 
L 272.019285 301.130667 
L 271.536644 300.544 
L 265.818464 299.957333 
L 262.871476 299.370667 
L 260.662833 298.784 
L 260.63087 298.197333 
L 260.627674 297.610667 
L 258.649164 297.024 
L 257.268363 296.437333 
L 257.217222 295.850667 
L 252.147891 295.264 
L 248.743832 294.677333 
L 244.428827 294.090667 
L 242.945744 293.504 
L 234.24222 292.917333 
L 233.315293 292.330667 
L 229.185674 291.744 
L 228.955541 291.157333 
L 223.659272 290.570667 
L 219.49769 289.984 
L 217.535162 289.397333 
L 215.774001 288.810667 
L 215.179489 288.224 
L 215.125152 287.637333 
L 213.670836 287.050667 
L 211.769038 286.464 
L 211.177722 285.877333 
L 210.183673 285.290667 
L 208.748534 284.704 
L 207.473211 284.117333 
L 206.750847 283.530667 
L 204.283304 282.944 
L 202.205709 282.357333 
L 201.815761 281.770667 
L 200.959152 281.184 
L 200.738608 280.597333 
L 200.51167 280.010667 
L 200.412585 279.424 
L 199.661455 278.837333 
L 198.552339 278.250667 
L 197.865134 277.664 
L 196.487529 277.077333 
L 193.95606 276.490667 
L 191.77938 275.904 
L 190.945146 275.317333 
L 190.890808 274.730667 
L 190.373008 274.144 
L 189.976667 273.557333 
L 189.855207 272.970667 
L 188.944262 272.384 
L 188.06528 271.797333 
L 187.905465 271.210667 
L 186.189052 270.624 
L 185.869422 270.037333 
L 185.808692 269.450667 
L 185.696822 268.864 
L 185.664859 268.277333 
L 185.613718 267.690667 
L 185.195002 267.104 
L 183.699134 266.517333 
L 183.063071 265.930667 
L 182.017881 265.344 
L 178.703318 264.757333 
L 178.275014 264.170667 
L 178.195106 263.584 
L 177.977758 262.997333 
L 177.782784 262.410667 
L 177.622969 261.824 
L 176.587368 261.237333 
L 176.210204 260.650667 
L 175.765919 260.064 
L 175.165014 259.477333 
L 174.554521 258.890667 
L 173.180112 258.304 
L 171.57557 257.717333 
L 171.450914 257.130667 
L 170.543165 256.544 
L 170.332209 255.957333 
L 169.229486 255.370667 
L 168.9578 254.784 
L 168.618993 254.197333 
L 167.637729 253.610667 
L 166.969702 253.024 
L 166.873813 252.437333 
L 166.60852 251.850667 
L 166.544594 251.264 
L 165.898942 250.677333 
L 165.681593 250.090667 
L 164.799415 249.504 
L 164.144173 248.917333 
L 164.006732 248.330667 
L 163.316332 247.744 
L 162.788942 247.157333 
L 161.852426 246.570667 
L 161.216363 245.984 
L 160.714544 245.397333 
L 160.369343 244.810667 
L 160.148799 244.224 
L 160.05291 243.637333 
L 159.790813 243.050667 
L 158.905438 242.464 
L 158.470741 241.877333 
L 158.371656 241.290667 
L 158.362067 240.704 
L 158.358871 240.117333 
L 158.30773 239.530667 
L 157.984904 238.944 
L 157.49587 238.357333 
L 157.26254 237.770667 
L 156.965284 237.184 
L 156.888573 236.597333 
L 155.942468 236.010667 
L 155.741101 235.424 
L 155.459827 234.837333 
L 155.053897 234.250667 
L 154.670341 233.664 
L 153.947977 233.077333 
L 153.74661 232.490667 
L 153.011462 231.904 
L 152.829272 231.317333 
L 152.004627 230.730667 
L 151.633856 230.144 
L 151.506004 229.557333 
L 150.281822 228.970667 
L 149.42841 228.384 
L 148.805131 227.797333 
L 148.792346 227.210667 
L 148.709242 226.624 
L 147.993271 226.037333 
L 147.593734 225.450667 
L 147.475471 224.864 
L 147.453097 224.277333 
L 147.229356 223.690667 
L 146.570918 223.104 
L 146.142614 222.517333 
L 145.915676 221.930667 
L 145.362717 221.344 
L 145.116601 220.757333 
L 145.10062 220.170667 
L 144.659531 219.584 
L 143.940363 218.997333 
L 143.812511 218.410667 
L 143.412974 217.824 
L 143.160466 217.237333 
L 143.048596 216.650667 
L 142.991062 216.064 
L 142.546777 215.477333 
L 142.441299 214.890667 
L 142.271895 214.304 
L 141.450446 213.717333 
L 140.165533 213.130667 
L 139.868278 212.544 
L 139.612574 211.957333 
L 139.471936 211.370667 
L 139.459151 210.784 
L 138.318072 210.197333 
L 138.081546 209.610667 
L 137.873787 209.024 
L 137.18019 208.437333 
L 136.966037 207.850667 
L 136.914897 207.264 
L 136.716726 206.677333 
L 135.975185 206.090667 
L 135.585236 205.504 
L 135.479758 204.917333 
L 135.403047 204.330667 
L 134.914013 203.744 
L 134.715843 203.157333 
L 134.645524 202.570667 
L 134.520868 201.984 
L 134.281146 201.397333 
L 134.166079 200.810667 
L 133.782523 200.224 
L 132.986644 199.637333 
L 132.967467 199.050667 
L 132.846007 198.464 
L 132.555144 197.877333 
L 131.66018 197.290667 
L 130.867498 196.704 
L 130.288968 196.117333 
L 130.285771 195.530667 
L 130.212256 194.944 
L 129.636922 194.357333 
L 129.572996 193.770667 
L 129.521856 193.184 
L 129.445144 192.597333 
L 129.438752 192.010667 
L 129.230992 191.424 
L 129.183048 190.837333 
L 128.898577 190.250667 
L 128.722781 189.664 
L 128.297673 189.077333 
L 127.926902 188.490667 
L 127.514579 187.904 
L 127.226912 187.317333 
L 126.657971 186.730667 
L 126.638793 186.144 
L 126.370304 185.557333 
L 126.168937 184.970667 
L 125.689492 184.384 
L 125.571229 183.797333 
L 124.823295 183.210667 
L 124.66348 182.624 
L 124.305495 182.037333 
L 124.065772 181.450667 
L 123.886779 180.864 
L 123.071723 180.277333 
L 123.068527 179.690667 
L 122.857571 179.104 
L 122.617848 178.517333 
L 122.416482 177.930667 
L 122.279041 177.344 
L 122.269452 176.757333 
L 122.074478 176.170667 
L 121.949822 175.584 
L 121.61421 174.997333 
L 121.160336 174.410667 
L 120.86308 173.824 
L 120.696872 173.237333 
L 119.220182 172.650667 
L 118.737541 172.064 
L 118.689596 171.477333 
L 118.648044 170.890667 
L 118.568137 170.304 
L 118.248507 169.717333 
L 117.976821 169.130667 
L 117.449432 168.544 
L 117.190532 167.957333 
L 117.107428 167.370667 
L 117.085054 166.784 
L 116.864509 166.197333 
L 116.695105 165.610667 
L 116.608805 165.024 
L 116.27639 164.437333 
L 115.557223 163.850667 
L 115.499689 163.264 
L 115.263163 162.677333 
L 115.243985 162.090667 
L 115.199237 161.504 
L 114.914766 160.917333 
L 114.623903 160.330667 
L 114.575959 159.744 
L 114.403358 159.157333 
L 114.365003 158.570667 
L 114.326647 157.984 
L 114.048569 157.397333 
L 114.032588 156.810667 
L 113.43488 156.224 
L 113.22712 155.637333 
L 112.945846 155.050667 
L 112.284212 154.464 
L 112.207501 153.877333 
L 112.00933 153.290667 
L 111.008888 152.704 
L 110.746792 152.117333 
L 110.580584 151.530667 
L 110.369628 150.944 
L 109.334027 150.357333 
L 109.161427 149.770667 
L 109.094305 149.770667 
L 108.976042 149.184 
L 108.876956 148.597333 
L 108.349567 148.010667 
L 108.2345 147.424 
L 108.212126 146.837333 
L 107.633596 146.250667 
L 107.16374 145.664 
L 106.949588 145.077333 
L 106.770595 144.490667 
L 106.617173 143.904 
L 106.479732 143.317333 
L 105.607142 142.730667 
L 105.367419 142.144 
L 105.24596 141.557333 
L 105.162856 140.970667 
L 104.670626 140.384 
L 104.635467 139.797333 
L 104.6067 139.210667 
L 104.597111 138.624 
L 104.414922 138.037333 
L 104.389352 137.450667 
L 103.871551 136.864 
L 103.849177 136.277333 
L 103.666988 135.690667 
L 103.149187 135.104 
L 103.066084 134.517333 
L 102.813576 133.930667 
L 102.704902 133.344 
L 102.500339 132.757333 
L 102.25742 132.170667 
L 100.751963 131.584 
L 99.949692 130.997333 
L 99.920925 130.410667 
L 99.652436 129.824 
L 99.172991 129.237333 
L 98.920483 128.650667 
L 98.850164 128.064 
L 98.754275 127.477333 
L 98.747883 126.890667 
L 98.415468 126.304 
L 98.01593 125.717333 
L 97.980771 125.130667 
L 97.271192 124.544 
L 96.910011 123.957333 
L 96.836496 123.370667 
L 96.833299 122.784 
L 96.318695 122.197333 
L 96.091758 121.610667 
L 95.698613 121.024 
L 95.238346 120.437333 
L 95.158438 119.850667 
L 95.033783 119.264 
L 94.864379 118.677333 
L 94.797257 118.090667 
L 94.736527 117.504 
L 94.094071 116.917333 
L 94.062108 116.330667 
L 93.605037 115.744 
L 93.525129 115.157333 
L 93.445222 114.570667 
L 93.387688 113.984 
L 93.227873 113.397333 
L 93.224677 112.810667 
L 93.192714 112.224 
L 92.521491 111.637333 
L 92.50551 111.050667 
L 92.310535 110.464 
L 91.751183 109.877333 
L 91.610546 109.877333 
L 91.533835 109.290667 
L 91.428357 108.704 
L 91.322879 108.117333 
L 91.300505 107.530667 
L 90.041163 106.944 
L 89.561718 106.357333 
L 89.264462 105.770667 
L 89.111039 105.770667 
L 89.056702 105.184 
L 89.005562 104.597333 
L 88.890495 104.597333 
L 88.701913 104.010667 
L 88.446209 103.424 
L 88.32475 102.837333 
L 88.209683 102.250667 
L 88.187309 101.664 
L 87.969961 101.077333 
L 87.784575 100.490667 
L 87.516086 99.904 
L 86.876826 99.317333 
L 86.077751 98.730667 
L 85.972273 98.144 
L 85.959488 97.557333 
L 85.774103 96.970667 
L 85.754925 96.384 
L 85.662232 95.797333 
L 85.502417 95.210667 
L 85.345799 94.624 
L 85.106076 94.037333 
L 84.556313 94.037333 
L 84.530742 94.037333 
L 84.521153 93.450667 
L 84.227094 92.864 
L 83.73806 92.864 
L 83.488748 92.277333 
L 83.444 91.690667 
L 82.996518 91.690667 
L 82.948574 91.104 
L 82.945378 91.104 
L 82.494699 90.517333 
L 82.360455 89.930667 
L 82.325295 89.930667 
L 82.044021 89.344 
L 81.858636 88.757333 
L 81.785121 88.757333 
L 81.650876 88.170667 
L 81.129879 88.170667 
L 80.902942 88.170667 
L 80.612079 88.170667 
L 80.487423 87.584 
L 80.289253 86.997333 
L 80.206149 86.997333 
L 80.123045 86.410667 
L 80.100671 85.824 
L 80.014371 85.237333 
L 79.828985 84.650667 
L 79.656385 84.650667 
L 79.266437 84.650667 
L 79.068266 84.064 
L 79.001144 83.477333 
L 78.419417 83.477333 
L 78.16691 83.477333 
L 78.048646 82.890667 
L 78.035861 82.890667 
L 77.818513 82.890667 
L 77.722624 82.304 
L 77.450938 81.717333 
L 77.415779 81.130667 
L 77.083364 80.544 
L 77.035419 79.957333 
L 77.025831 79.370667 
L 76.907568 79.370667 
L 76.456889 79.370667 
L 76.450497 78.784 
L 76.348215 78.197333 
L 76.345019 78.197333 
L 76.217167 77.610667 
L 75.849592 77.024 
L 75.587496 75.850667 
L 75.440466 75.264 
L 75.411699 74.677333 
L 75.267866 74.677333 
L 75.076088 74.677333 
L 74.41765 74.090667 
L 74.340939 73.504 
L 74.321761 72.917333 
L 74.088431 72.917333 
L 74.069253 72.917333 
L 74.043683 72.917333 
L 73.832727 72.917333 
z
" clip-path="url(#p384780993a)" style="fill: #7cfc00"/>
   </g>
   <g id="PolyCollection_3">
    <path d="M 73.832727 54.144 
L 73.832727 72.917333 
L 74.043683 72.917333 
L 74.069253 72.917333 
L 74.088431 72.917333 
L 74.321761 72.917333 
L 74.340939 73.504 
L 74.41765 74.090667 
L 75.076088 74.677333 
L 75.267866 74.677333 
L 75.411699 74.677333 
L 75.440466 75.264 
L 75.587496 75.850667 
L 75.849592 77.024 
L 76.217167 77.610667 
L 76.345019 78.197333 
L 76.348215 78.197333 
L 76.450497 78.784 
L 76.456889 79.370667 
L 76.907568 79.370667 
L 77.025831 79.370667 
L 77.035419 79.957333 
L 77.083364 80.544 
L 77.415779 81.130667 
L 77.450938 81.717333 
L 77.722624 82.304 
L 77.818513 82.890667 
L 78.035861 82.890667 
L 78.048646 82.890667 
L 78.16691 83.477333 
L 78.419417 83.477333 
L 79.001144 83.477333 
L 79.068266 84.064 
L 79.266437 84.650667 
L 79.656385 84.650667 
L 79.828985 84.650667 
L 80.014371 85.237333 
L 80.100671 85.824 
L 80.123045 86.410667 
L 80.206149 86.997333 
L 80.289253 86.997333 
L 80.487423 87.584 
L 80.612079 88.170667 
L 80.902942 88.170667 
L 81.129879 88.170667 
L 81.650876 88.170667 
L 81.785121 88.757333 
L 81.858636 88.757333 
L 82.044021 89.344 
L 82.325295 89.930667 
L 82.360455 89.930667 
L 82.494699 90.517333 
L 82.945378 91.104 
L 82.948574 91.104 
L 82.996518 91.690667 
L 83.444 91.690667 
L 83.488748 92.277333 
L 83.73806 92.864 
L 84.227094 92.864 
L 84.521153 93.450667 
L 84.530742 94.037333 
L 84.556313 94.037333 
L 85.106076 94.037333 
L 85.345799 94.624 
L 85.502417 95.210667 
L 85.662232 95.797333 
L 85.754925 96.384 
L 85.774103 96.970667 
L 85.959488 97.557333 
L 85.972273 98.144 
L 86.077751 98.730667 
L 86.876826 99.317333 
L 87.516086 99.904 
L 87.784575 100.490667 
L 87.969961 101.077333 
L 88.187309 101.664 
L 88.209683 102.250667 
L 88.32475 102.837333 
L 88.446209 103.424 
L 88.701913 104.010667 
L 88.890495 104.597333 
L 89.005562 104.597333 
L 89.056702 105.184 
L 89.111039 105.770667 
L 89.264462 105.770667 
L 89.561718 106.357333 
L 90.041163 106.944 
L 91.300505 107.530667 
L 91.322879 108.117333 
L 91.428357 108.704 
L 91.533835 109.290667 
L 91.610546 109.877333 
L 91.751183 109.877333 
L 92.310535 110.464 
L 92.50551 111.050667 
L 92.521491 111.637333 
L 93.192714 112.224 
L 93.224677 112.810667 
L 93.227873 113.397333 
L 93.387688 113.984 
L 93.445222 114.570667 
L 93.525129 115.157333 
L 93.605037 115.744 
L 94.062108 116.330667 
L 94.094071 116.917333 
L 94.736527 117.504 
L 94.797257 118.090667 
L 94.864379 118.677333 
L 95.033783 119.264 
L 95.158438 119.850667 
L 95.238346 120.437333 
L 95.698613 121.024 
L 96.091758 121.610667 
L 96.318695 122.197333 
L 96.833299 122.784 
L 96.836496 123.370667 
L 96.910011 123.957333 
L 97.271192 124.544 
L 97.980771 125.130667 
L 98.01593 125.717333 
L 98.415468 126.304 
L 98.747883 126.890667 
L 98.754275 127.477333 
L 98.850164 128.064 
L 98.920483 128.650667 
L 99.172991 129.237333 
L 99.652436 129.824 
L 99.920925 130.410667 
L 99.949692 130.997333 
L 100.751963 131.584 
L 102.25742 132.170667 
L 102.500339 132.757333 
L 102.704902 133.344 
L 102.813576 133.930667 
L 103.066084 134.517333 
L 103.149187 135.104 
L 103.666988 135.690667 
L 103.849177 136.277333 
L 103.871551 136.864 
L 104.389352 137.450667 
L 104.414922 138.037333 
L 104.597111 138.624 
L 104.6067 139.210667 
L 104.635467 139.797333 
L 104.670626 140.384 
L 105.162856 140.970667 
L 105.24596 141.557333 
L 105.367419 142.144 
L 105.607142 142.730667 
L 106.479732 143.317333 
L 106.617173 143.904 
L 106.770595 144.490667 
L 106.949588 145.077333 
L 107.16374 145.664 
L 107.633596 146.250667 
L 108.212126 146.837333 
L 108.2345 147.424 
L 108.349567 148.010667 
L 108.876956 148.597333 
L 108.976042 149.184 
L 109.094305 149.770667 
L 109.161427 149.770667 
L 109.334027 150.357333 
L 110.369628 150.944 
L 110.580584 151.530667 
L 110.746792 152.117333 
L 111.008888 152.704 
L 112.00933 153.290667 
L 112.207501 153.877333 
L 112.284212 154.464 
L 112.945846 155.050667 
L 113.22712 155.637333 
L 113.43488 156.224 
L 114.032588 156.810667 
L 114.048569 157.397333 
L 114.326647 157.984 
L 114.365003 158.570667 
L 114.403358 159.157333 
L 114.575959 159.744 
L 114.623903 160.330667 
L 114.914766 160.917333 
L 115.199237 161.504 
L 115.243985 162.090667 
L 115.263163 162.677333 
L 115.499689 163.264 
L 115.557223 163.850667 
L 116.27639 164.437333 
L 116.608805 165.024 
L 116.695105 165.610667 
L 116.864509 166.197333 
L 117.085054 166.784 
L 117.107428 167.370667 
L 117.190532 167.957333 
L 117.449432 168.544 
L 117.976821 169.130667 
L 118.248507 169.717333 
L 118.568137 170.304 
L 118.648044 170.890667 
L 118.689596 171.477333 
L 118.737541 172.064 
L 119.220182 172.650667 
L 120.696872 173.237333 
L 120.86308 173.824 
L 121.160336 174.410667 
L 121.61421 174.997333 
L 121.949822 175.584 
L 122.074478 176.170667 
L 122.269452 176.757333 
L 122.279041 177.344 
L 122.416482 177.930667 
L 122.617848 178.517333 
L 122.857571 179.104 
L 123.068527 179.690667 
L 123.071723 180.277333 
L 123.886779 180.864 
L 124.065772 181.450667 
L 124.305495 182.037333 
L 124.66348 182.624 
L 124.823295 183.210667 
L 125.571229 183.797333 
L 125.689492 184.384 
L 126.168937 184.970667 
L 126.370304 185.557333 
L 126.638793 186.144 
L 126.657971 186.730667 
L 127.226912 187.317333 
L 127.514579 187.904 
L 127.926902 188.490667 
L 128.297673 189.077333 
L 128.722781 189.664 
L 128.898577 190.250667 
L 129.183048 190.837333 
L 129.230992 191.424 
L 129.438752 192.010667 
L 129.445144 192.597333 
L 129.521856 193.184 
L 129.572996 193.770667 
L 129.636922 194.357333 
L 130.212256 194.944 
L 130.285771 195.530667 
L 130.288968 196.117333 
L 130.867498 196.704 
L 131.66018 197.290667 
L 132.555144 197.877333 
L 132.846007 198.464 
L 132.967467 199.050667 
L 132.986644 199.637333 
L 133.782523 200.224 
L 134.166079 200.810667 
L 134.281146 201.397333 
L 134.520868 201.984 
L 134.645524 202.570667 
L 134.715843 203.157333 
L 134.914013 203.744 
L 135.403047 204.330667 
L 135.479758 204.917333 
L 135.585236 205.504 
L 135.975185 206.090667 
L 136.716726 206.677333 
L 136.914897 207.264 
L 136.966037 207.850667 
L 137.18019 208.437333 
L 137.873787 209.024 
L 138.081546 209.610667 
L 138.318072 210.197333 
L 139.459151 210.784 
L 139.471936 211.370667 
L 139.612574 211.957333 
L 139.868278 212.544 
L 140.165533 213.130667 
L 141.450446 213.717333 
L 142.271895 214.304 
L 142.441299 214.890667 
L 142.546777 215.477333 
L 142.991062 216.064 
L 143.048596 216.650667 
L 143.160466 217.237333 
L 143.412974 217.824 
L 143.812511 218.410667 
L 143.940363 218.997333 
L 144.659531 219.584 
L 145.10062 220.170667 
L 145.116601 220.757333 
L 145.362717 221.344 
L 145.915676 221.930667 
L 146.142614 222.517333 
L 146.570918 223.104 
L 147.229356 223.690667 
L 147.453097 224.277333 
L 147.475471 224.864 
L 147.593734 225.450667 
L 147.993271 226.037333 
L 148.709242 226.624 
L 148.792346 227.210667 
L 148.805131 227.797333 
L 149.42841 228.384 
L 150.281822 228.970667 
L 151.506004 229.557333 
L 151.633856 230.144 
L 152.004627 230.730667 
L 152.829272 231.317333 
L 153.011462 231.904 
L 153.74661 232.490667 
L 153.947977 233.077333 
L 154.670341 233.664 
L 155.053897 234.250667 
L 155.459827 234.837333 
L 155.741101 235.424 
L 155.942468 236.010667 
L 156.888573 236.597333 
L 156.965284 237.184 
L 157.26254 237.770667 
L 157.49587 238.357333 
L 157.984904 238.944 
L 158.30773 239.530667 
L 158.358871 240.117333 
L 158.362067 240.704 
L 158.371656 241.290667 
L 158.470741 241.877333 
L 158.905438 242.464 
L 159.790813 243.050667 
L 160.05291 243.637333 
L 160.148799 244.224 
L 160.369343 244.810667 
L 160.714544 245.397333 
L 161.216363 245.984 
L 161.852426 246.570667 
L 162.788942 247.157333 
L 163.316332 247.744 
L 164.006732 248.330667 
L 164.144173 248.917333 
L 164.799415 249.504 
L 165.681593 250.090667 
L 165.898942 250.677333 
L 166.544594 251.264 
L 166.60852 251.850667 
L 166.873813 252.437333 
L 166.969702 253.024 
L 167.637729 253.610667 
L 168.618993 254.197333 
L 168.9578 254.784 
L 169.229486 255.370667 
L 170.332209 255.957333 
L 170.543165 256.544 
L 171.450914 257.130667 
L 171.57557 257.717333 
L 173.180112 258.304 
L 174.554521 258.890667 
L 175.165014 259.477333 
L 175.765919 260.064 
L 176.210204 260.650667 
L 176.587368 261.237333 
L 177.622969 261.824 
L 177.782784 262.410667 
L 177.977758 262.997333 
L 178.195106 263.584 
L 178.275014 264.170667 
L 178.703318 264.757333 
L 182.017881 265.344 
L 183.063071 265.930667 
L 183.699134 266.517333 
L 185.195002 267.104 
L 185.613718 267.690667 
L 185.664859 268.277333 
L 185.696822 268.864 
L 185.808692 269.450667 
L 185.869422 270.037333 
L 186.189052 270.624 
L 187.905465 271.210667 
L 188.06528 271.797333 
L 188.944262 272.384 
L 189.855207 272.970667 
L 189.976667 273.557333 
L 190.373008 274.144 
L 190.890808 274.730667 
L 190.945146 275.317333 
L 191.77938 275.904 
L 193.95606 276.490667 
L 196.487529 277.077333 
L 197.865134 277.664 
L 198.552339 278.250667 
L 199.661455 278.837333 
L 200.412585 279.424 
L 200.51167 280.010667 
L 200.738608 280.597333 
L 200.959152 281.184 
L 201.815761 281.770667 
L 202.205709 282.357333 
L 204.283304 282.944 
L 206.750847 283.530667 
L 207.473211 284.117333 
L 208.748534 284.704 
L 210.183673 285.290667 
L 211.177722 285.877333 
L 211.769038 286.464 
L 213.670836 287.050667 
L 215.125152 287.637333 
L 215.179489 288.224 
L 215.774001 288.810667 
L 217.535162 289.397333 
L 219.49769 289.984 
L 223.659272 290.570667 
L 228.955541 291.157333 
L 229.185674 291.744 
L 233.315293 292.330667 
L 234.24222 292.917333 
L 242.945744 293.504 
L 244.428827 294.090667 
L 248.743832 294.677333 
L 252.147891 295.264 
L 257.217222 295.850667 
L 257.268363 296.437333 
L 258.649164 297.024 
L 260.627674 297.610667 
L 260.63087 298.197333 
L 260.662833 298.784 
L 262.871476 299.370667 
L 265.818464 299.957333 
L 271.536644 300.544 
L 272.019285 301.130667 
L 272.1791 301.717333 
L 273.109224 302.304 
L 276.784968 302.890667 
L 280.240168 303.477333 
L 282.381689 304.064 
L 286.217248 304.650667 
L 286.75103 305.237333 
L 345.818648 305.824 
L 368.387719 306.410667 
L 398.487273 306.997333 
L 398.487273 306.997333 
L 398.487273 306.997333 
L 368.387719 306.410667 
L 345.818648 305.824 
L 286.75103 305.237333 
L 286.217248 304.650667 
L 282.381689 304.064 
L 280.240168 303.477333 
L 276.784968 302.890667 
L 273.109224 302.304 
L 272.1791 301.717333 
L 272.019285 301.130667 
L 271.536644 300.544 
L 265.818464 299.957333 
L 262.871476 299.370667 
L 260.662833 298.784 
L 260.63087 298.197333 
L 260.627674 297.610667 
L 258.649164 297.024 
L 257.268363 296.437333 
L 257.217222 295.850667 
L 252.147891 295.264 
L 248.743832 294.677333 
L 244.428827 294.090667 
L 242.945744 293.504 
L 234.24222 292.917333 
L 233.315293 292.330667 
L 229.185674 291.744 
L 228.955541 291.157333 
L 223.659272 290.570667 
L 219.49769 289.984 
L 217.535162 289.397333 
L 215.774001 288.810667 
L 215.179489 288.224 
L 215.125152 287.637333 
L 213.670836 287.050667 
L 211.769038 286.464 
L 211.177722 285.877333 
L 210.183673 285.290667 
L 208.748534 284.704 
L 207.473211 284.117333 
L 206.750847 283.530667 
L 204.283304 282.944 
L 202.205709 282.357333 
L 201.815761 281.770667 
L 200.959152 281.184 
L 200.738608 280.597333 
L 200.51167 280.010667 
L 200.412585 279.424 
L 199.661455 278.837333 
L 198.552339 278.250667 
L 197.865134 277.664 
L 196.487529 277.077333 
L 193.95606 276.490667 
L 191.77938 275.904 
L 190.945146 275.317333 
L 190.890808 274.730667 
L 190.373008 274.144 
L 189.976667 273.557333 
L 189.855207 272.970667 
L 188.944262 272.384 
L 188.06528 271.797333 
L 187.905465 271.210667 
L 186.189052 270.624 
L 185.869422 270.037333 
L 185.808692 269.450667 
L 185.696822 268.864 
L 185.664859 268.277333 
L 185.613718 267.690667 
L 185.195002 267.104 
L 183.699134 266.517333 
L 183.063071 265.930667 
L 182.017881 265.344 
L 178.703318 264.757333 
L 178.275014 264.170667 
L 178.195106 263.584 
L 177.977758 262.997333 
L 177.782784 262.410667 
L 177.622969 261.824 
L 176.587368 261.237333 
L 176.210204 260.650667 
L 175.765919 260.064 
L 175.165014 259.477333 
L 174.554521 258.890667 
L 173.180112 258.304 
L 171.57557 257.717333 
L 171.450914 257.130667 
L 170.543165 256.544 
L 170.332209 255.957333 
L 169.229486 255.370667 
L 168.9578 254.784 
L 168.618993 254.197333 
L 167.637729 253.610667 
L 166.969702 253.024 
L 166.873813 252.437333 
L 166.60852 251.850667 
L 166.544594 251.264 
L 165.898942 250.677333 
L 165.681593 250.090667 
L 164.799415 249.504 
L 164.144173 248.917333 
L 164.006732 248.330667 
L 163.316332 247.744 
L 162.788942 247.157333 
L 161.852426 246.570667 
L 161.216363 245.984 
L 160.714544 245.397333 
L 160.369343 244.810667 
L 160.148799 244.224 
L 160.05291 243.637333 
L 159.790813 243.050667 
L 158.905438 242.464 
L 158.470741 241.877333 
L 158.371656 241.290667 
L 158.362067 240.704 
L 158.358871 240.117333 
L 158.30773 239.530667 
L 157.984904 238.944 
L 157.49587 238.357333 
L 157.26254 237.770667 
L 156.965284 237.184 
L 156.888573 236.597333 
L 155.942468 236.010667 
L 155.741101 235.424 
L 155.459827 234.837333 
L 155.053897 234.250667 
L 154.670341 233.664 
L 153.947977 233.077333 
L 153.74661 232.490667 
L 153.011462 231.904 
L 152.829272 231.317333 
L 152.004627 230.730667 
L 151.633856 230.144 
L 151.506004 229.557333 
L 150.281822 228.970667 
L 149.42841 228.384 
L 148.805131 227.797333 
L 148.792346 227.210667 
L 148.709242 226.624 
L 147.993271 226.037333 
L 147.593734 225.450667 
L 147.475471 224.864 
L 147.453097 224.277333 
L 147.229356 223.690667 
L 146.570918 223.104 
L 146.142614 222.517333 
L 145.915676 221.930667 
L 145.362717 221.344 
L 145.116601 220.757333 
L 145.10062 220.170667 
L 144.659531 219.584 
L 143.940363 218.997333 
L 143.812511 218.410667 
L 143.412974 217.824 
L 143.160466 217.237333 
L 143.048596 216.650667 
L 142.991062 216.064 
L 142.546777 215.477333 
L 142.441299 214.890667 
L 142.271895 214.304 
L 141.450446 213.717333 
L 140.165533 213.130667 
L 139.868278 212.544 
L 139.612574 211.957333 
L 139.471936 211.370667 
L 139.459151 210.784 
L 138.318072 210.197333 
L 138.081546 209.610667 
L 137.873787 209.024 
L 137.18019 208.437333 
L 136.966037 207.850667 
L 136.914897 207.264 
L 136.716726 206.677333 
L 135.975185 206.090667 
L 135.585236 205.504 
L 135.479758 204.917333 
L 135.403047 204.330667 
L 134.914013 203.744 
L 134.715843 203.157333 
L 134.645524 202.570667 
L 134.520868 201.984 
L 134.281146 201.397333 
L 134.166079 200.810667 
L 133.782523 200.224 
L 132.986644 199.637333 
L 132.967467 199.050667 
L 132.846007 198.464 
L 132.555144 197.877333 
L 131.66018 197.290667 
L 130.867498 196.704 
L 130.288968 196.117333 
L 130.285771 195.530667 
L 130.212256 194.944 
L 129.636922 194.357333 
L 129.572996 193.770667 
L 129.521856 193.184 
L 129.445144 192.597333 
L 129.438752 192.010667 
L 129.230992 191.424 
L 129.183048 190.837333 
L 128.898577 190.250667 
L 128.722781 189.664 
L 128.297673 189.077333 
L 127.926902 188.490667 
L 127.514579 187.904 
L 127.226912 187.317333 
L 126.657971 186.730667 
L 126.638793 186.144 
L 126.370304 185.557333 
L 126.168937 184.970667 
L 125.689492 184.384 
L 125.571229 183.797333 
L 124.823295 183.210667 
L 124.66348 182.624 
L 124.305495 182.037333 
L 124.065772 181.450667 
L 123.886779 180.864 
L 123.071723 180.277333 
L 123.068527 179.690667 
L 122.857571 179.104 
L 122.617848 178.517333 
L 122.416482 177.930667 
L 122.279041 177.344 
L 122.269452 176.757333 
L 122.074478 176.170667 
L 121.949822 175.584 
L 121.61421 174.997333 
L 121.160336 174.410667 
L 120.86308 173.824 
L 120.696872 173.237333 
L 119.220182 172.650667 
L 118.737541 172.064 
L 118.689596 171.477333 
L 118.648044 170.890667 
L 118.568137 170.304 
L 118.248507 169.717333 
L 117.976821 169.130667 
L 117.449432 168.544 
L 117.190532 167.957333 
L 117.107428 167.370667 
L 117.085054 166.784 
L 116.864509 166.197333 
L 116.695105 165.610667 
L 116.608805 165.024 
L 116.27639 164.437333 
L 115.557223 163.850667 
L 115.499689 163.264 
L 115.263163 162.677333 
L 115.243985 162.090667 
L 115.199237 161.504 
L 114.914766 160.917333 
L 114.623903 160.330667 
L 114.575959 159.744 
L 114.403358 159.157333 
L 114.365003 158.570667 
L 114.326647 157.984 
L 114.048569 157.397333 
L 114.032588 156.810667 
L 113.43488 156.224 
L 113.22712 155.637333 
L 112.945846 155.050667 
L 112.284212 154.464 
L 112.207501 153.877333 
L 112.00933 153.290667 
L 111.008888 152.704 
L 110.746792 152.117333 
L 110.580584 151.530667 
L 110.369628 150.944 
L 109.334027 150.357333 
L 109.161427 149.770667 
L 109.094305 149.184 
L 108.976042 148.597333 
L 108.876956 148.010667 
L 108.349567 147.424 
L 108.2345 146.837333 
L 108.212126 146.250667 
L 107.633596 145.664 
L 107.16374 145.077333 
L 106.949588 144.490667 
L 106.770595 143.904 
L 106.617173 143.317333 
L 106.479732 142.730667 
L 105.607142 142.144 
L 105.367419 141.557333 
L 105.24596 140.970667 
L 105.162856 140.384 
L 104.670626 139.797333 
L 104.635467 139.210667 
L 104.6067 138.624 
L 104.597111 138.037333 
L 104.414922 137.450667 
L 104.389352 136.864 
L 103.871551 136.277333 
L 103.849177 135.690667 
L 103.666988 135.104 
L 103.149187 134.517333 
L 103.066084 133.930667 
L 102.813576 133.344 
L 102.704902 132.757333 
L 102.500339 132.170667 
L 102.25742 131.584 
L 100.751963 130.997333 
L 99.949692 130.410667 
L 99.920925 129.824 
L 99.652436 129.237333 
L 99.172991 128.650667 
L 98.920483 128.064 
L 98.850164 127.477333 
L 98.754275 126.890667 
L 98.747883 126.304 
L 98.415468 125.717333 
L 98.01593 125.130667 
L 97.980771 124.544 
L 97.271192 123.957333 
L 96.910011 123.370667 
L 96.836496 122.784 
L 96.833299 122.197333 
L 96.318695 121.610667 
L 96.091758 121.024 
L 95.698613 120.437333 
L 95.238346 119.850667 
L 95.158438 119.264 
L 95.033783 118.677333 
L 94.864379 118.090667 
L 94.797257 117.504 
L 94.736527 116.917333 
L 94.094071 116.330667 
L 94.062108 115.744 
L 93.605037 115.157333 
L 93.525129 114.570667 
L 93.445222 113.984 
L 93.387688 113.397333 
L 93.227873 112.810667 
L 93.224677 112.224 
L 93.192714 111.637333 
L 92.521491 111.050667 
L 92.50551 110.464 
L 92.310535 109.877333 
L 91.751183 109.290667 
L 91.610546 108.704 
L 91.533835 108.117333 
L 91.428357 107.530667 
L 91.322879 106.944 
L 91.300505 106.357333 
L 90.041163 105.770667 
L 89.561718 105.184 
L 89.264462 104.597333 
L 89.111039 104.010667 
L 89.056702 103.424 
L 89.005562 102.837333 
L 88.890495 102.250667 
L 88.701913 101.664 
L 88.446209 101.077333 
L 88.32475 100.490667 
L 88.209683 99.904 
L 88.187309 99.317333 
L 87.969961 98.730667 
L 87.784575 98.144 
L 87.516086 97.557333 
L 86.876826 96.970667 
L 86.077751 96.384 
L 85.972273 95.797333 
L 85.959488 95.210667 
L 85.774103 94.624 
L 85.754925 94.037333 
L 85.662232 93.450667 
L 85.502417 92.864 
L 85.345799 92.277333 
L 85.106076 91.690667 
L 84.556313 91.104 
L 84.530742 90.517333 
L 84.521153 89.930667 
L 84.227094 89.344 
L 83.73806 88.757333 
L 83.488748 88.170667 
L 83.444 87.584 
L 82.996518 86.997333 
L 82.948574 86.410667 
L 82.945378 85.824 
L 82.494699 84.650667 
L 82.360455 84.064 
L 82.325295 83.477333 
L 82.044021 82.890667 
L 81.858636 82.304 
L 81.785121 81.717333 
L 81.650876 81.130667 
L 81.129879 80.544 
L 80.902942 79.957333 
L 80.612079 79.370667 
L 80.487423 78.784 
L 80.289253 78.197333 
L 80.206149 77.610667 
L 80.123045 77.024 
L 80.100671 76.437333 
L 80.014371 75.850667 
L 79.828985 75.264 
L 79.656385 74.677333 
L 79.266437 74.090667 
L 79.068266 72.917333 
L 79.001144 72.330667 
L 78.419417 71.744 
L 78.16691 71.157333 
L 78.048646 70.570667 
L 78.035861 69.984 
L 77.818513 69.397333 
L 77.722624 68.810667 
L 77.450938 68.224 
L 77.415779 67.637333 
L 77.083364 67.050667 
L 77.035419 66.464 
L 77.025831 65.877333 
L 76.907568 65.290667 
L 76.456889 64.704 
L 76.450497 64.117333 
L 76.348215 63.530667 
L 76.345019 62.944 
L 76.217167 62.357333 
L 75.849592 61.770667 
L 75.587496 60.597333 
L 75.440466 60.010667 
L 75.411699 59.424 
L 75.267866 58.837333 
L 75.076088 58.250667 
L 74.41765 57.664 
L 74.340939 57.077333 
L 74.321761 56.490667 
L 74.088431 55.904 
L 74.069253 55.317333 
L 74.043683 54.730667 
L 73.832727 54.144 
z
" clip-path="url(#p384780993a)" style="fill: #ff0000"/>
   </g>
   <g id="matplotlib.axis_1">
    <g id="xtick_1">
     <g id="line2d_1">
      <defs>
       <path id="mcef8ddb9c6" d="M 0 0 
L 0 3.5 
" style="stroke: #000000; stroke-width: 0.8"/>
      </defs>
      <g>
       <use xlink:href="#mcef8ddb9c6" x="58.07497" y="307.584" style="stroke: #000000; stroke-width: 0.8"/>
      </g>
     </g>
     <g id="text_1">
      <!-- 0 -->
      <g transform="translate(54.89372 322.182437)scale(0.1 -0.1)">
       <defs>
        <path id="DejaVuSans-30" d="M 2034 4250 
Q 1547 4250 1301 3770 
Q 1056 3291 1056 2328 
Q 1056 1369 1301 889 
Q 1547 409 2034 409 
Q 2525 409 2770 889 
Q 3016 1369 3016 2328 
Q 3016 3291 2770 3770 
Q 2525 4250 2034 4250 
z
M 2034 4750 
Q 2819 4750 3233 4129 
Q 3647 3509 3647 2328 
Q 3647 1150 3233 529 
Q 2819 -91 2034 -91 
Q 1250 -91 836 529 
Q 422 1150 422 2328 
Q 422 3509 836 4129 
Q 1250 4750 2034 4750 
z
" transform="scale(0.015625)"/>
       </defs>
       <use xlink:href="#DejaVuSans-30"/>
      </g>
     </g>
    </g>
    <g id="xtick_2">
     <g id="line2d_2">
      <g>
       <use xlink:href="#mcef8ddb9c6" x="122.000963" y="307.584" style="stroke: #000000; stroke-width: 0.8"/>
      </g>
     </g>
     <g id="text_2">
      <!-- 200 -->
      <g transform="translate(112.457213 322.182437)scale(0.1 -0.1)">
       <defs>
        <path id="DejaVuSans-32" d="M 1228 531 
L 3431 531 
L 3431 0 
L 469 0 
L 469 531 
Q 828 903 1448 1529 
Q 2069 2156 2228 2338 
Q 2531 2678 2651 2914 
Q 2772 3150 2772 3378 
Q 2772 3750 2511 3984 
Q 2250 4219 1831 4219 
Q 1534 4219 1204 4116 
Q 875 4013 500 3803 
L 500 4441 
Q 881 4594 1212 4672 
Q 1544 4750 1819 4750 
Q 2544 4750 2975 4387 
Q 3406 4025 3406 3419 
Q 3406 3131 3298 2873 
Q 3191 2616 2906 2266 
Q 2828 2175 2409 1742 
Q 1991 1309 1228 531 
z
" transform="scale(0.015625)"/>
       </defs>
       <use xlink:href="#DejaVuSans-32"/>
       <use xlink:href="#DejaVuSans-30" x="63.623047"/>
       <use xlink:href="#DejaVuSans-30" x="127.246094"/>
      </g>
     </g>
    </g>
    <g id="xtick_3">
     <g id="line2d_3">
      <g>
       <use xlink:href="#mcef8ddb9c6" x="185.926955" y="307.584" style="stroke: #000000; stroke-width: 0.8"/>
      </g>
     </g>
     <g id="text_3">
      <!-- 400 -->
      <g transform="translate(176.383205 322.182437)scale(0.1 -0.1)">
       <defs>
        <path id="DejaVuSans-34" d="M 2419 4116 
L 825 1625 
L 2419 1625 
L 2419 4116 
z
M 2253 4666 
L 3047 4666 
L 3047 1625 
L 3713 1625 
L 3713 1100 
L 3047 1100 
L 3047 0 
L 2419 0 
L 2419 1100 
L 313 1100 
L 313 1709 
L 2253 4666 
z
" transform="scale(0.015625)"/>
       </defs>
       <use xlink:href="#DejaVuSans-34"/>
       <use xlink:href="#DejaVuSans-30" x="63.623047"/>
       <use xlink:href="#DejaVuSans-30" x="127.246094"/>
      </g>
     </g>
    </g>
    <g id="xtick_4">
     <g id="line2d_4">
      <g>
       <use xlink:href="#mcef8ddb9c6" x="249.852948" y="307.584" style="stroke: #000000; stroke-width: 0.8"/>
      </g>
     </g>
     <g id="text_4">
      <!-- 600 -->
      <g transform="translate(240.309198 322.182437)scale(0.1 -0.1)">
       <defs>
        <path id="DejaVuSans-36" d="M 2113 2584 
Q 1688 2584 1439 2293 
Q 1191 2003 1191 1497 
Q 1191 994 1439 701 
Q 1688 409 2113 409 
Q 2538 409 2786 701 
Q 3034 994 3034 1497 
Q 3034 2003 2786 2293 
Q 2538 2584 2113 2584 
z
M 3366 4563 
L 3366 3988 
Q 3128 4100 2886 4159 
Q 2644 4219 2406 4219 
Q 1781 4219 1451 3797 
Q 1122 3375 1075 2522 
Q 1259 2794 1537 2939 
Q 1816 3084 2150 3084 
Q 2853 3084 3261 2657 
Q 3669 2231 3669 1497 
Q 3669 778 3244 343 
Q 2819 -91 2113 -91 
Q 1303 -91 875 529 
Q 447 1150 447 2328 
Q 447 3434 972 4092 
Q 1497 4750 2381 4750 
Q 2619 4750 2861 4703 
Q 3103 4656 3366 4563 
z
" transform="scale(0.015625)"/>
       </defs>
       <use xlink:href="#DejaVuSans-36"/>
       <use xlink:href="#DejaVuSans-30" x="63.623047"/>
       <use xlink:href="#DejaVuSans-30" x="127.246094"/>
      </g>
     </g>
    </g>
    <g id="xtick_5">
     <g id="line2d_5">
      <g>
       <use xlink:href="#mcef8ddb9c6" x="313.77894" y="307.584" style="stroke: #000000; stroke-width: 0.8"/>
      </g>
     </g>
     <g id="text_5">
      <!-- 800 -->
      <g transform="translate(304.23519 322.182437)scale(0.1 -0.1)">
       <defs>
        <path id="DejaVuSans-38" d="M 2034 2216 
Q 1584 2216 1326 1975 
Q 1069 1734 1069 1313 
Q 1069 891 1326 650 
Q 1584 409 2034 409 
Q 2484 409 2743 651 
Q 3003 894 3003 1313 
Q 3003 1734 2745 1975 
Q 2488 2216 2034 2216 
z
M 1403 2484 
Q 997 2584 770 2862 
Q 544 3141 544 3541 
Q 544 4100 942 4425 
Q 1341 4750 2034 4750 
Q 2731 4750 3128 4425 
Q 3525 4100 3525 3541 
Q 3525 3141 3298 2862 
Q 3072 2584 2669 2484 
Q 3125 2378 3379 2068 
Q 3634 1759 3634 1313 
Q 3634 634 3220 271 
Q 2806 -91 2034 -91 
Q 1263 -91 848 271 
Q 434 634 434 1313 
Q 434 1759 690 2068 
Q 947 2378 1403 2484 
z
M 1172 3481 
Q 1172 3119 1398 2916 
Q 1625 2713 2034 2713 
Q 2441 2713 2670 2916 
Q 2900 3119 2900 3481 
Q 2900 3844 2670 4047 
Q 2441 4250 2034 4250 
Q 1625 4250 1398 4047 
Q 1172 3844 1172 3481 
z
" transform="scale(0.015625)"/>
       </defs>
       <use xlink:href="#DejaVuSans-38"/>
       <use xlink:href="#DejaVuSans-30" x="63.623047"/>
       <use xlink:href="#DejaVuSans-30" x="127.246094"/>
      </g>
     </g>
    </g>
    <g id="xtick_6">
     <g id="line2d_6">
      <g>
       <use xlink:href="#mcef8ddb9c6" x="377.704933" y="307.584" style="stroke: #000000; stroke-width: 0.8"/>
      </g>
     </g>
     <g id="text_6">
      <!-- 1000 -->
      <g transform="translate(364.979933 322.182437)scale(0.1 -0.1)">
       <defs>
        <path id="DejaVuSans-31" d="M 794 531 
L 1825 531 
L 1825 4091 
L 703 3866 
L 703 4441 
L 1819 4666 
L 2450 4666 
L 2450 531 
L 3481 531 
L 3481 0 
L 794 0 
L 794 531 
z
" transform="scale(0.015625)"/>
       </defs>
       <use xlink:href="#DejaVuSans-31"/>
       <use xlink:href="#DejaVuSans-30" x="63.623047"/>
       <use xlink:href="#DejaVuSans-30" x="127.246094"/>
       <use xlink:href="#DejaVuSans-30" x="190.869141"/>
      </g>
     </g>
    </g>
    <g id="text_7">
     <!-- Score -->
     <g transform="translate(222.157656 335.860562)scale(0.1 -0.1)">
      <defs>
       <path id="DejaVuSans-53" d="M 3425 4513 
L 3425 3897 
Q 3066 4069 2747 4153 
Q 2428 4238 2131 4238 
Q 1616 4238 1336 4038 
Q 1056 3838 1056 3469 
Q 1056 3159 1242 3001 
Q 1428 2844 1947 2747 
L 2328 2669 
Q 3034 2534 3370 2195 
Q 3706 1856 3706 1288 
Q 3706 609 3251 259 
Q 2797 -91 1919 -91 
Q 1588 -91 1214 -16 
Q 841 59 441 206 
L 441 856 
Q 825 641 1194 531 
Q 1563 422 1919 422 
Q 2459 422 2753 634 
Q 3047 847 3047 1241 
Q 3047 1584 2836 1778 
Q 2625 1972 2144 2069 
L 1759 2144 
Q 1053 2284 737 2584 
Q 422 2884 422 3419 
Q 422 4038 858 4394 
Q 1294 4750 2059 4750 
Q 2388 4750 2728 4690 
Q 3069 4631 3425 4513 
z
" transform="scale(0.015625)"/>
       <path id="DejaVuSans-63" d="M 3122 3366 
L 3122 2828 
Q 2878 2963 2633 3030 
Q 2388 3097 2138 3097 
Q 1578 3097 1268 2742 
Q 959 2388 959 1747 
Q 959 1106 1268 751 
Q 1578 397 2138 397 
Q 2388 397 2633 464 
Q 2878 531 3122 666 
L 3122 134 
Q 2881 22 2623 -34 
Q 2366 -91 2075 -91 
Q 1284 -91 818 406 
Q 353 903 353 1747 
Q 353 2603 823 3093 
Q 1294 3584 2113 3584 
Q 2378 3584 2631 3529 
Q 2884 3475 3122 3366 
z
" transform="scale(0.015625)"/>
       <path id="DejaVuSans-6f" d="M 1959 3097 
Q 1497 3097 1228 2736 
Q 959 2375 959 1747 
Q 959 1119 1226 758 
Q 1494 397 1959 397 
Q 2419 397 2687 759 
Q 2956 1122 2956 1747 
Q 2956 2369 2687 2733 
Q 2419 3097 1959 3097 
z
M 1959 3584 
Q 2709 3584 3137 3096 
Q 3566 2609 3566 1747 
Q 3566 888 3137 398 
Q 2709 -91 1959 -91 
Q 1206 -91 779 398 
Q 353 888 353 1747 
Q 353 2609 779 3096 
Q 1206 3584 1959 3584 
z
" transform="scale(0.015625)"/>
       <path id="DejaVuSans-72" d="M 2631 2963 
Q 2534 3019 2420 3045 
Q 2306 3072 2169 3072 
Q 1681 3072 1420 2755 
Q 1159 2438 1159 1844 
L 1159 0 
L 581 0 
L 581 3500 
L 1159 3500 
L 1159 2956 
Q 1341 3275 1631 3429 
Q 1922 3584 2338 3584 
Q 2397 3584 2469 3576 
Q 2541 3569 2628 3553 
L 2631 2963 
z
" transform="scale(0.015625)"/>
       <path id="DejaVuSans-65" d="M 3597 1894 
L 3597 1613 
L 953 1613 
Q 991 1019 1311 708 
Q 1631 397 2203 397 
Q 2534 397 2845 478 
Q 3156 559 3463 722 
L 3463 178 
Q 3153 47 2828 -22 
Q 2503 -91 2169 -91 
Q 1331 -91 842 396 
Q 353 884 353 1716 
Q 353 2575 817 3079 
Q 1281 3584 2069 3584 
Q 2775 3584 3186 3129 
Q 3597 2675 3597 1894 
z
M 3022 2063 
Q 3016 2534 2758 2815 
Q 2500 3097 2075 3097 
Q 1594 3097 1305 2825 
Q 1016 2553 972 2059 
L 3022 2063 
z
" transform="scale(0.015625)"/>
      </defs>
      <use xlink:href="#DejaVuSans-53"/>
      <use xlink:href="#DejaVuSans-63" x="63.476562"/>
      <use xlink:href="#DejaVuSans-6f" x="118.457031"/>
      <use xlink:href="#DejaVuSans-72" x="179.638672"/>
      <use xlink:href="#DejaVuSans-65" x="218.501953"/>
     </g>
    </g>
   </g>
   <g id="matplotlib.axis_2">
    <g id="ytick_1">
     <g id="line2d_7">
      <defs>
       <path id="meb3197f6f0" d="M 0 0 
L -3.5 0 
" style="stroke: #000000; stroke-width: 0.8"/>
      </defs>
      <g>
       <use xlink:href="#meb3197f6f0" x="57.6" y="307.584" style="stroke: #000000; stroke-width: 0.8"/>
      </g>
     </g>
     <g id="text_8">
      <!-- 0 -->
      <g transform="translate(44.2375 311.383219)scale(0.1 -0.1)">
       <use xlink:href="#DejaVuSans-30"/>
      </g>
     </g>
    </g>
    <g id="ytick_2">
     <g id="line2d_8">
      <g>
       <use xlink:href="#meb3197f6f0" x="57.6" y="248.917333" style="stroke: #000000; stroke-width: 0.8"/>
      </g>
     </g>
     <g id="text_9">
      <!-- 100 -->
      <g transform="translate(31.5125 252.716552)scale(0.1 -0.1)">
       <use xlink:href="#DejaVuSans-31"/>
       <use xlink:href="#DejaVuSans-30" x="63.623047"/>
       <use xlink:href="#DejaVuSans-30" x="127.246094"/>
      </g>
     </g>
    </g>
    <g id="ytick_3">
     <g id="line2d_9">
      <g>
       <use xlink:href="#meb3197f6f0" x="57.6" y="190.250667" style="stroke: #000000; stroke-width: 0.8"/>
      </g>
     </g>
     <g id="text_10">
      <!-- 200 -->
      <g transform="translate(31.5125 194.049885)scale(0.1 -0.1)">
       <use xlink:href="#DejaVuSans-32"/>
       <use xlink:href="#DejaVuSans-30" x="63.623047"/>
       <use xlink:href="#DejaVuSans-30" x="127.246094"/>
      </g>
     </g>
    </g>
    <g id="ytick_4">
     <g id="line2d_10">
      <g>
       <use xlink:href="#meb3197f6f0" x="57.6" y="131.584" style="stroke: #000000; stroke-width: 0.8"/>
      </g>
     </g>
     <g id="text_11">
      <!-- 300 -->
      <g transform="translate(31.5125 135.383219)scale(0.1 -0.1)">
       <defs>
        <path id="DejaVuSans-33" d="M 2597 2516 
Q 3050 2419 3304 2112 
Q 3559 1806 3559 1356 
Q 3559 666 3084 287 
Q 2609 -91 1734 -91 
Q 1441 -91 1130 -33 
Q 819 25 488 141 
L 488 750 
Q 750 597 1062 519 
Q 1375 441 1716 441 
Q 2309 441 2620 675 
Q 2931 909 2931 1356 
Q 2931 1769 2642 2001 
Q 2353 2234 1838 2234 
L 1294 2234 
L 1294 2753 
L 1863 2753 
Q 2328 2753 2575 2939 
Q 2822 3125 2822 3475 
Q 2822 3834 2567 4026 
Q 2313 4219 1838 4219 
Q 1578 4219 1281 4162 
Q 984 4106 628 3988 
L 628 4550 
Q 988 4650 1302 4700 
Q 1616 4750 1894 4750 
Q 2613 4750 3031 4423 
Q 3450 4097 3450 3541 
Q 3450 3153 3228 2886 
Q 3006 2619 2597 2516 
z
" transform="scale(0.015625)"/>
       </defs>
       <use xlink:href="#DejaVuSans-33"/>
       <use xlink:href="#DejaVuSans-30" x="63.623047"/>
       <use xlink:href="#DejaVuSans-30" x="127.246094"/>
      </g>
     </g>
    </g>
    <g id="ytick_5">
     <g id="line2d_11">
      <g>
       <use xlink:href="#meb3197f6f0" x="57.6" y="72.917333" style="stroke: #000000; stroke-width: 0.8"/>
      </g>
     </g>
     <g id="text_12">
      <!-- 400 -->
      <g transform="translate(31.5125 76.716552)scale(0.1 -0.1)">
       <use xlink:href="#DejaVuSans-34"/>
       <use xlink:href="#DejaVuSans-30" x="63.623047"/>
       <use xlink:href="#DejaVuSans-30" x="127.246094"/>
      </g>
     </g>
    </g>
    <g id="text_13">
     <!-- Number of crosslinks -->
     <g transform="translate(25.432812 227.019406)rotate(-90)scale(0.1 -0.1)">
      <defs>
       <path id="DejaVuSans-4e" d="M 628 4666 
L 1478 4666 
L 3547 763 
L 3547 4666 
L 4159 4666 
L 4159 0 
L 3309 0 
L 1241 3903 
L 1241 0 
L 628 0 
L 628 4666 
z
" transform="scale(0.015625)"/>
       <path id="DejaVuSans-75" d="M 544 1381 
L 544 3500 
L 1119 3500 
L 1119 1403 
Q 1119 906 1312 657 
Q 1506 409 1894 409 
Q 2359 409 2629 706 
Q 2900 1003 2900 1516 
L 2900 3500 
L 3475 3500 
L 3475 0 
L 2900 0 
L 2900 538 
Q 2691 219 2414 64 
Q 2138 -91 1772 -91 
Q 1169 -91 856 284 
Q 544 659 544 1381 
z
M 1991 3584 
L 1991 3584 
z
" transform="scale(0.015625)"/>
       <path id="DejaVuSans-6d" d="M 3328 2828 
Q 3544 3216 3844 3400 
Q 4144 3584 4550 3584 
Q 5097 3584 5394 3201 
Q 5691 2819 5691 2113 
L 5691 0 
L 5113 0 
L 5113 2094 
Q 5113 2597 4934 2840 
Q 4756 3084 4391 3084 
Q 3944 3084 3684 2787 
Q 3425 2491 3425 1978 
L 3425 0 
L 2847 0 
L 2847 2094 
Q 2847 2600 2669 2842 
Q 2491 3084 2119 3084 
Q 1678 3084 1418 2786 
Q 1159 2488 1159 1978 
L 1159 0 
L 581 0 
L 581 3500 
L 1159 3500 
L 1159 2956 
Q 1356 3278 1631 3431 
Q 1906 3584 2284 3584 
Q 2666 3584 2933 3390 
Q 3200 3197 3328 2828 
z
" transform="scale(0.015625)"/>
       <path id="DejaVuSans-62" d="M 3116 1747 
Q 3116 2381 2855 2742 
Q 2594 3103 2138 3103 
Q 1681 3103 1420 2742 
Q 1159 2381 1159 1747 
Q 1159 1113 1420 752 
Q 1681 391 2138 391 
Q 2594 391 2855 752 
Q 3116 1113 3116 1747 
z
M 1159 2969 
Q 1341 3281 1617 3432 
Q 1894 3584 2278 3584 
Q 2916 3584 3314 3078 
Q 3713 2572 3713 1747 
Q 3713 922 3314 415 
Q 2916 -91 2278 -91 
Q 1894 -91 1617 61 
Q 1341 213 1159 525 
L 1159 0 
L 581 0 
L 581 4863 
L 1159 4863 
L 1159 2969 
z
" transform="scale(0.015625)"/>
       <path id="DejaVuSans-20" transform="scale(0.015625)"/>
       <path id="DejaVuSans-66" d="M 2375 4863 
L 2375 4384 
L 1825 4384 
Q 1516 4384 1395 4259 
Q 1275 4134 1275 3809 
L 1275 3500 
L 2222 3500 
L 2222 3053 
L 1275 3053 
L 1275 0 
L 697 0 
L 697 3053 
L 147 3053 
L 147 3500 
L 697 3500 
L 697 3744 
Q 697 4328 969 4595 
Q 1241 4863 1831 4863 
L 2375 4863 
z
" transform="scale(0.015625)"/>
       <path id="DejaVuSans-73" d="M 2834 3397 
L 2834 2853 
Q 2591 2978 2328 3040 
Q 2066 3103 1784 3103 
Q 1356 3103 1142 2972 
Q 928 2841 928 2578 
Q 928 2378 1081 2264 
Q 1234 2150 1697 2047 
L 1894 2003 
Q 2506 1872 2764 1633 
Q 3022 1394 3022 966 
Q 3022 478 2636 193 
Q 2250 -91 1575 -91 
Q 1294 -91 989 -36 
Q 684 19 347 128 
L 347 722 
Q 666 556 975 473 
Q 1284 391 1588 391 
Q 1994 391 2212 530 
Q 2431 669 2431 922 
Q 2431 1156 2273 1281 
Q 2116 1406 1581 1522 
L 1381 1569 
Q 847 1681 609 1914 
Q 372 2147 372 2553 
Q 372 3047 722 3315 
Q 1072 3584 1716 3584 
Q 2034 3584 2315 3537 
Q 2597 3491 2834 3397 
z
" transform="scale(0.015625)"/>
       <path id="DejaVuSans-6c" d="M 603 4863 
L 1178 4863 
L 1178 0 
L 603 0 
L 603 4863 
z
" transform="scale(0.015625)"/>
       <path id="DejaVuSans-69" d="M 603 3500 
L 1178 3500 
L 1178 0 
L 603 0 
L 603 3500 
z
M 603 4863 
L 1178 4863 
L 1178 4134 
L 603 4134 
L 603 4863 
z
" transform="scale(0.015625)"/>
       <path id="DejaVuSans-6e" d="M 3513 2113 
L 3513 0 
L 2938 0 
L 2938 2094 
Q 2938 2591 2744 2837 
Q 2550 3084 2163 3084 
Q 1697 3084 1428 2787 
Q 1159 2491 1159 1978 
L 1159 0 
L 581 0 
L 581 3500 
L 1159 3500 
L 1159 2956 
Q 1366 3272 1645 3428 
Q 1925 3584 2291 3584 
Q 2894 3584 3203 3211 
Q 3513 2838 3513 2113 
z
" transform="scale(0.015625)"/>
       <path id="DejaVuSans-6b" d="M 581 4863 
L 1159 4863 
L 1159 1991 
L 2875 3500 
L 3609 3500 
L 1753 1863 
L 3688 0 
L 2938 0 
L 1159 1709 
L 1159 0 
L 581 0 
L 581 4863 
z
" transform="scale(0.015625)"/>
      </defs>
      <use xlink:href="#DejaVuSans-4e"/>
      <use xlink:href="#DejaVuSans-75" x="74.804688"/>
      <use xlink:href="#DejaVuSans-6d" x="138.183594"/>
      <use xlink:href="#DejaVuSans-62" x="235.595703"/>
      <use xlink:href="#DejaVuSans-65" x="299.072266"/>
      <use xlink:href="#DejaVuSans-72" x="360.595703"/>
      <use xlink:href="#DejaVuSans-20" x="401.708984"/>
      <use xlink:href="#DejaVuSans-6f" x="433.496094"/>
      <use xlink:href="#DejaVuSans-66" x="494.677734"/>
      <use xlink:href="#DejaVuSans-20" x="529.882812"/>
      <use xlink:href="#DejaVuSans-63" x="561.669922"/>
      <use xlink:href="#DejaVuSans-72" x="616.650391"/>
      <use xlink:href="#DejaVuSans-6f" x="655.513672"/>
      <use xlink:href="#DejaVuSans-73" x="716.695312"/>
      <use xlink:href="#DejaVuSans-73" x="768.794922"/>
      <use xlink:href="#DejaVuSans-6c" x="820.894531"/>
      <use xlink:href="#DejaVuSans-69" x="848.677734"/>
      <use xlink:href="#DejaVuSans-6e" x="876.460938"/>
      <use xlink:href="#DejaVuSans-6b" x="939.839844"/>
      <use xlink:href="#DejaVuSans-73" x="997.75"/>
     </g>
    </g>
   </g>
   <g id="patch_3">
    <path d="M 57.6 307.584 
L 57.6 41.472 
" style="fill: none; stroke: #000000; stroke-width: 0.8; stroke-linejoin: miter; stroke-linecap: square"/>
   </g>
   <g id="patch_4">
    <path d="M 414.72 307.584 
L 414.72 41.472 
" style="fill: none; stroke: #000000; stroke-width: 0.8; stroke-linejoin: miter; stroke-linecap: square"/>
   </g>
   <g id="patch_5">
    <path d="M 57.6 307.584 
L 414.72 307.584 
" style="fill: none; stroke: #000000; stroke-width: 0.8; stroke-linejoin: miter; stroke-linecap: square"/>
   </g>
   <g id="patch_6">
    <path d="M 57.6 41.472 
L 414.72 41.472 
" style="fill: none; stroke: #000000; stroke-width: 0.8; stroke-linejoin: miter; stroke-linecap: square"/>
   </g>
   <g id="legend_1">
    <g id="patch_7">
     <path d="M 293.087188 93.506375 
L 407.72 93.506375 
Q 409.72 93.506375 409.72 91.506375 
L 409.72 48.472 
Q 409.72 46.472 407.72 46.472 
L 293.087188 46.472 
Q 291.087188 46.472 291.087188 48.472 
L 291.087188 91.506375 
Q 291.087188 93.506375 293.087188 93.506375 
z
" style="fill: #ffffff; opacity: 0.8; stroke: #cccccc; stroke-linejoin: miter"/>
    </g>
    <g id="patch_8">
     <path d="M 295.087188 58.070438 
L 315.087188 58.070438 
L 315.087188 51.070438 
L 295.087188 51.070438 
z
" style="fill: #008000"/>
    </g>
    <g id="text_14">
     <!-- true -->
     <g transform="translate(323.087188 58.070438)scale(0.1 -0.1)">
      <defs>
       <path id="DejaVuSans-74" d="M 1172 4494 
L 1172 3500 
L 2356 3500 
L 2356 3053 
L 1172 3053 
L 1172 1153 
Q 1172 725 1289 603 
Q 1406 481 1766 481 
L 2356 481 
L 2356 0 
L 1766 0 
Q 1100 0 847 248 
Q 594 497 594 1153 
L 594 3053 
L 172 3053 
L 172 3500 
L 594 3500 
L 594 4494 
L 1172 4494 
z
" transform="scale(0.015625)"/>
      </defs>
      <use xlink:href="#DejaVuSans-74"/>
      <use xlink:href="#DejaVuSans-72" x="39.208984"/>
      <use xlink:href="#DejaVuSans-75" x="80.322266"/>
      <use xlink:href="#DejaVuSans-65" x="143.701172"/>
     </g>
    </g>
    <g id="patch_9">
     <path d="M 295.087188 72.748563 
L 315.087188 72.748563 
L 315.087188 65.748563 
L 295.087188 65.748563 
z
" style="fill: #7cfc00"/>
    </g>
    <g id="text_15">
     <!-- true homeotypic -->
     <g transform="translate(323.087188 72.748563)scale(0.1 -0.1)">
      <defs>
       <path id="DejaVuSans-68" d="M 3513 2113 
L 3513 0 
L 2938 0 
L 2938 2094 
Q 2938 2591 2744 2837 
Q 2550 3084 2163 3084 
Q 1697 3084 1428 2787 
Q 1159 2491 1159 1978 
L 1159 0 
L 581 0 
L 581 4863 
L 1159 4863 
L 1159 2956 
Q 1366 3272 1645 3428 
Q 1925 3584 2291 3584 
Q 2894 3584 3203 3211 
Q 3513 2838 3513 2113 
z
" transform="scale(0.015625)"/>
       <path id="DejaVuSans-79" d="M 2059 -325 
Q 1816 -950 1584 -1140 
Q 1353 -1331 966 -1331 
L 506 -1331 
L 506 -850 
L 844 -850 
Q 1081 -850 1212 -737 
Q 1344 -625 1503 -206 
L 1606 56 
L 191 3500 
L 800 3500 
L 1894 763 
L 2988 3500 
L 3597 3500 
L 2059 -325 
z
" transform="scale(0.015625)"/>
       <path id="DejaVuSans-70" d="M 1159 525 
L 1159 -1331 
L 581 -1331 
L 581 3500 
L 1159 3500 
L 1159 2969 
Q 1341 3281 1617 3432 
Q 1894 3584 2278 3584 
Q 2916 3584 3314 3078 
Q 3713 2572 3713 1747 
Q 3713 922 3314 415 
Q 2916 -91 2278 -91 
Q 1894 -91 1617 61 
Q 1341 213 1159 525 
z
M 3116 1747 
Q 3116 2381 2855 2742 
Q 2594 3103 2138 3103 
Q 1681 3103 1420 2742 
Q 1159 2381 1159 1747 
Q 1159 1113 1420 752 
Q 1681 391 2138 391 
Q 2594 391 2855 752 
Q 3116 1113 3116 1747 
z
" transform="scale(0.015625)"/>
      </defs>
      <use xlink:href="#DejaVuSans-74"/>
      <use xlink:href="#DejaVuSans-72" x="39.208984"/>
      <use xlink:href="#DejaVuSans-75" x="80.322266"/>
      <use xlink:href="#DejaVuSans-65" x="143.701172"/>
      <use xlink:href="#DejaVuSans-20" x="205.224609"/>
      <use xlink:href="#DejaVuSans-68" x="237.011719"/>
      <use xlink:href="#DejaVuSans-6f" x="300.390625"/>
      <use xlink:href="#DejaVuSans-6d" x="361.572266"/>
      <use xlink:href="#DejaVuSans-65" x="458.984375"/>
      <use xlink:href="#DejaVuSans-6f" x="520.507812"/>
      <use xlink:href="#DejaVuSans-74" x="581.689453"/>
      <use xlink:href="#DejaVuSans-79" x="620.898438"/>
      <use xlink:href="#DejaVuSans-70" x="680.078125"/>
      <use xlink:href="#DejaVuSans-69" x="743.554688"/>
      <use xlink:href="#DejaVuSans-63" x="771.337891"/>
     </g>
    </g>
    <g id="patch_10">
     <path d="M 295.087188 87.426688 
L 315.087188 87.426688 
L 315.087188 80.426688 
L 295.087188 80.426688 
z
" style="fill: #ff0000"/>
    </g>
    <g id="text_16">
     <!-- false -->
     <g transform="translate(323.087188 87.426688)scale(0.1 -0.1)">
      <defs>
       <path id="DejaVuSans-61" d="M 2194 1759 
Q 1497 1759 1228 1600 
Q 959 1441 959 1056 
Q 959 750 1161 570 
Q 1363 391 1709 391 
Q 2188 391 2477 730 
Q 2766 1069 2766 1631 
L 2766 1759 
L 2194 1759 
z
M 3341 1997 
L 3341 0 
L 2766 0 
L 2766 531 
Q 2569 213 2275 61 
Q 1981 -91 1556 -91 
Q 1019 -91 701 211 
Q 384 513 384 1019 
Q 384 1609 779 1909 
Q 1175 2209 1959 2209 
L 2766 2209 
L 2766 2266 
Q 2766 2663 2505 2880 
Q 2244 3097 1772 3097 
Q 1472 3097 1187 3025 
Q 903 2953 641 2809 
L 641 3341 
Q 956 3463 1253 3523 
Q 1550 3584 1831 3584 
Q 2591 3584 2966 3190 
Q 3341 2797 3341 1997 
z
" transform="scale(0.015625)"/>
      </defs>
      <use xlink:href="#DejaVuSans-66"/>
      <use xlink:href="#DejaVuSans-61" x="35.205078"/>
      <use xlink:href="#DejaVuSans-6c" x="96.484375"/>
      <use xlink:href="#DejaVuSans-73" x="124.267578"/>
      <use xlink:href="#DejaVuSans-65" x="176.367188"/>
     </g>
    </g>
   </g>
  </g>
 </g>
 <defs>
  <clipPath id="p384780993a">
   <rect x="57.6" y="41.472" width="357.12" height="266.112"/>
  </clipPath>
 </defs>
</svg>
