<?xml version="1.0" encoding="utf-8" standalone="no"?>
<!DOCTYPE svg PUBLIC "-//W3C//DTD SVG 1.1//EN"
  "http://www.w3.org/Graphics/SVG/1.1/DTD/svg11.dtd">
<svg xmlns:xlink="http://www.w3.org/1999/xlink" width="460.8pt" height="345.6pt" viewBox="0 0 460.8 345.6" xmlns="http://www.w3.org/2000/svg" version="1.1">
 <metadata>
  <rdf:RDF xmlns:dc="http://purl.org/dc/elements/1.1/" xmlns:cc="http://creativecommons.org/ns#" xmlns:rdf="http://www.w3.org/1999/02/22-rdf-syntax-ns#">
   <cc:Work>
    <dc:type rdf:resource="http://purl.org/dc/dcmitype/StillImage"/>
    <dc:date>2022-07-21T14:15:00.256021</dc:date>
    <dc:format>image/svg+xml</dc:format>
    <dc:creator>
     <cc:Agent>
      <dc:title>Matplotlib v3.5.1, https://matplotlib.org/</dc:title>
     </cc:Agent>
    </dc:creator>
   </cc:Work>
  </rdf:RDF>
 </metadata>
 <defs>
  <style type="text/css">*{stroke-linejoin: round; stroke-linecap: butt}</style>
 </defs>
 <g id="figure_1">
  <g id="patch_1">
   <path d="M 0 345.6 
L 460.8 345.6 
L 460.8 0 
L 0 0 
z
" style="fill: #ffffff"/>
  </g>
  <g id="axes_1">
   <g id="patch_2">
    <path d="M 57.6 307.584 
L 414.72 307.584 
L 414.72 41.472 
L 57.6 41.472 
z
" style="fill: #ffffff"/>
   </g>
   <g id="PolyCollection_1">
    <path d="M 73.832727 87.936 
L 73.832727 307.584 
L 74.026437 307.584 
L 74.17005 307.584 
L 74.250206 307.584 
L 74.253545 307.584 
L 74.276924 307.584 
L 74.343721 307.584 
L 74.427216 307.584 
L 74.524071 307.584 
L 74.848035 307.584 
L 74.988307 307.584 
L 75.108541 307.584 
L 75.161978 307.584 
L 75.218755 307.584 
L 75.262173 307.584 
L 75.689671 307.584 
L 75.9101 307.584 
L 75.993595 307.584 
L 76.053712 307.584 
L 76.190645 307.584 
L 77.266069 307.584 
L 77.529916 307.584 
L 77.64013 307.584 
L 77.750344 307.584 
L 77.8305 307.584 
L 77.977452 307.584 
L 78.561922 307.584 
L 78.615359 307.584 
L 78.782351 307.584 
L 78.9794 307.584 
L 79.102974 307.584 
L 79.406898 307.584 
L 79.483714 307.584 
L 79.517113 307.584 
L 79.520452 307.584 
L 79.747561 307.584 
L 79.831056 307.584 
L 80.352069 307.584 
L 81.096851 307.584 
L 81.160307 307.584 
L 81.230444 307.584 
L 81.407454 307.584 
L 81.537708 307.584 
L 81.621203 307.584 
L 82.102138 307.584 
L 82.158916 307.584 
L 82.512937 307.584 
L 82.750065 307.584 
L 83.231 307.584 
L 83.287777 307.584 
L 83.291117 307.584 
L 83.367933 307.584 
L 83.745333 307.584 
L 84.136093 307.584 
L 84.486775 307.584 
L 84.523513 307.584 
L 84.637067 307.584 
L 84.947671 307.584 
L 85.288333 307.584 
L 85.295013 307.584 
L 85.395208 307.584 
L 85.468684 307.584 
L 85.73253 307.584 
L 86.51405 307.584 
L 86.567487 307.584 
L 87.252151 307.584 
L 87.295569 307.584 
L 87.382405 307.584 
L 87.459221 307.584 
L 87.639571 307.584 
L 88.955463 307.584 
L 89.20929 307.584 
L 89.40634 307.584 
L 89.423039 307.584 
L 89.536593 307.584 
L 89.800439 307.584 
L 89.887275 307.584 
L 90.428327 307.584 
L 90.458385 307.584 
L 90.618697 307.584 
L 90.642076 307.584 
L 90.75229 307.584 
L 91.039515 307.584 
L 91.183128 307.584 
L 91.209846 307.584 
L 91.400216 307.584 
L 91.440294 307.584 
L 91.477032 307.584 
L 91.593926 307.584 
L 91.991366 307.584 
L 92.078201 307.584 
L 92.118279 307.584 
L 92.205115 307.584 
L 92.455602 307.584 
L 92.589195 307.584 
L 93.367374 307.584 
L 93.510987 307.584 
L 93.631221 307.584 
L 93.671299 307.584 
L 93.858329 307.584 
L 94.02198 307.584 
L 94.082097 307.584 
L 94.573052 307.584 
L 95.17756 307.584 
L 95.200939 307.584 
L 95.321173 307.584 
L 95.778729 307.584 
L 95.872244 307.584 
L 95.975779 307.584 
L 96.099353 307.584 
L 96.329801 307.584 
L 96.34984 307.584 
L 96.53687 307.584 
L 97.431944 307.584 
L 97.652372 307.584 
L 98.099909 307.584 
L 98.103249 307.584 
L 98.644301 307.584 
L 98.774554 307.584 
L 99.068459 307.584 
L 99.145275 307.584 
L 99.352344 307.584 
L 99.4325 307.584 
L 100.110485 307.584 
L 100.123844 307.584 
L 100.290835 307.584 
L 100.417749 307.584 
L 100.634837 307.584 
L 101.259385 307.584 
L 101.276084 307.584 
L 101.566649 307.584 
L 101.606727 307.584 
L 101.646805 307.584 
L 101.827156 307.584 
L 101.877253 307.584 
L 102.181177 307.584 
L 102.478422 307.584 
L 102.525179 307.584 
L 102.545218 307.584 
L 102.792366 307.584 
L 102.852482 307.584 
L 103.603944 307.584 
L 103.951286 307.584 
L 104.041461 307.584 
L 104.218472 307.584 
L 104.472298 307.584 
L 104.82966 307.584 
L 105.380731 307.584 
L 105.901744 307.584 
L 105.998599 307.584 
L 106.082095 307.584 
L 106.095454 307.584 
L 106.125513 307.584 
L 106.17561 307.584 
L 106.679924 307.584 
L 107.822145 307.584 
L 108.222924 307.584 
L 108.396595 307.584 
L 108.707199 307.584 
L 109.181454 307.584 
L 109.532136 307.584 
L 109.662389 307.584 
L 109.866119 307.584 
L 109.876138 307.584 
L 110.019751 307.584 
L 110.23016 307.584 
L 110.480647 307.584 
L 110.701076 307.584 
L 110.704415 307.584 
L 111.556071 307.584 
L 111.743101 307.584 
L 111.993588 307.584 
L 112.367649 307.584 
L 112.53464 307.584 
L 113.31616 307.584 
L 113.439734 307.584 
L 113.940708 307.584 
L 114.151117 307.584 
L 114.431662 307.584 
L 114.451701 307.584 
L 115.04619 307.584 
L 115.346775 307.584 
L 115.777612 307.584 
L 116.165032 307.584 
L 116.609229 307.584 
L 116.79292 307.584 
L 117.090164 307.584 
L 117.140262 307.584 
L 117.35735 307.584 
L 117.36403 307.584 
L 117.444186 307.584 
L 117.497623 307.584 
L 118.165588 307.584 
L 118.242404 307.584 
L 118.245744 307.584 
L 118.679922 307.584 
L 118.850253 307.584 
L 118.947108 307.584 
L 119.67853 307.584 
L 120.613682 307.584 
L 120.917606 307.584 
L 121.044519 307.584 
L 121.064558 307.584 
L 121.896175 307.584 
L 122.296954 307.584 
L 122.417188 307.584 
L 122.797928 307.584 
L 122.871404 307.584 
L 123.078474 307.584 
L 123.589467 307.584 
L 123.779837 307.584 
L 124.187296 307.584 
L 124.962136 307.584 
L 125.169205 307.584 
L 125.446411 307.584 
L 126.171153 307.584 
L 126.388242 307.584 
L 126.635389 307.584 
L 127.827707 307.584 
L 127.841067 307.584 
L 127.988019 307.584 
L 128.255205 307.584 
L 128.565809 307.584 
L 129.90842 307.584 
L 130.766755 307.584 
L 130.943766 307.584 
L 131.05398 307.584 
L 131.518216 307.584 
L 131.578333 307.584 
L 131.695227 307.584 
L 131.959073 307.584 
L 132.376552 307.584 
L 133.261606 307.584 
L 133.722502 307.584 
L 133.739201 307.584 
L 133.996368 307.584 
L 134.574158 307.584 
L 134.811285 307.584 
L 135.258822 307.584 
L 135.946826 307.584 
L 136.180614 307.584 
L 136.203993 307.584 
L 136.327567 307.584 
L 136.745045 307.584 
L 137.493166 307.584 
L 137.593361 307.584 
L 138.244627 307.584 
L 139.136361 307.584 
L 139.864443 307.584 
L 140.415515 307.584 
L 140.549108 307.584 
L 140.936528 307.584 
L 141.798203 307.584 
L 141.988573 307.584 
L 142.756733 307.584 
L 142.967142 307.584 
L 144.122722 307.584 
L 144.54688 307.584 
L 144.840785 307.584 
L 145.051194 307.584 
L 146.039783 307.584 
L 146.119939 307.584 
L 146.430543 307.584 
L 146.67435 307.584 
L 147.185344 307.584 
L 147.522666 307.584 
L 147.576103 307.584 
L 147.579443 307.584 
L 147.589463 307.584 
L 147.692997 307.584 
L 149.072346 307.584 
L 149.346212 307.584 
L 149.446406 307.584 
L 149.676854 307.584 
L 150.037556 307.584 
L 150.561909 307.584 
L 151.226534 307.584 
L 152.205103 307.584 
L 152.756175 307.584 
L 153.477577 307.584 
L 153.62119 307.584 
L 154.305854 307.584 
L 155.227647 307.584 
L 155.454755 307.584 
L 156.196196 307.584 
L 156.473402 307.584 
L 156.573597 307.584 
L 157.271621 307.584 
L 158.296947 307.584 
L 158.650969 307.584 
L 158.934854 307.584 
L 160.087095 307.584 
L 160.307523 307.584 
L 161.256034 307.584 
L 161.386287 307.584 
L 163.06288 307.584 
L 164.499006 307.584 
L 165.136913 307.584 
L 165.7648 307.584 
L 166.229036 307.584 
L 166.623136 307.584 
L 167.70524 307.584 
L 167.872231 307.584 
L 168.303069 307.584 
L 168.386564 307.584 
L 168.834101 307.584 
L 172.297502 307.584 
L 173.389625 307.584 
L 174.05425 307.584 
L 175.617289 307.584 
L 176.054807 307.584 
L 176.108244 307.584 
L 176.141642 307.584 
L 176.258536 307.584 
L 176.321993 307.584 
L 176.655976 307.584 
L 178.449463 307.584 
L 178.616454 307.584 
L 179.534906 307.584 
L 180.486757 307.584 
L 180.61367 307.584 
L 181.027809 307.584 
L 181.568861 307.584 
L 181.625638 307.584 
L 182.497333 307.584 
L 184.771755 307.584 
L 187.416898 307.584 
L 188.856363 307.584 
L 189.574426 307.584 
L 190.733346 307.584 
L 191.518205 307.584 
L 191.621739 307.584 
L 192.089315 307.584 
L 192.984389 307.584 
L 193.391848 307.584 
L 195.562735 307.584 
L 198.141081 307.584 
L 198.895882 307.584 
L 200.228473 307.584 
L 201.728055 307.584 
L 202.766742 307.584 
L 203.38461 307.584 
L 203.514863 307.584 
L 205.371806 307.584 
L 206.891428 307.584 
L 206.948205 307.584 
L 207.569413 307.584 
L 211.460311 307.584 
L 215.808765 307.584 
L 221.342858 307.584 
L 225.898382 307.584 
L 226.866932 307.584 
L 235.96128 307.584 
L 237.51096 307.584 
L 245.576642 307.584 
L 246.842436 307.584 
L 250.873607 307.584 
L 250.927044 307.584 
L 252.369849 307.584 
L 254.437202 307.584 
L 254.440542 307.584 
L 254.47394 307.584 
L 256.781761 307.584 
L 259.861081 307.584 
L 265.836031 307.584 
L 266.507336 307.584 
L 267.479226 307.584 
L 268.56801 307.584 
L 271.320027 307.584 
L 274.93038 307.584 
L 281.175856 307.584 
L 281.733607 307.584 
L 343.453606 307.584 
L 367.036124 307.584 
L 398.487273 307.584 
L 398.487273 307.584 
L 398.487273 307.584 
L 367.036124 307.584 
L 343.453606 307.584 
L 281.733607 307.584 
L 281.175856 307.584 
L 274.93038 307.584 
L 271.320027 306.90816 
L 268.56801 306.90816 
L 267.479226 306.90816 
L 266.507336 306.90816 
L 265.836031 306.90816 
L 259.861081 306.90816 
L 256.781761 306.90816 
L 254.47394 306.90816 
L 254.440542 306.90816 
L 254.437202 306.90816 
L 252.369849 306.90816 
L 250.927044 306.23232 
L 250.873607 305.55648 
L 246.842436 305.55648 
L 245.576642 305.55648 
L 237.51096 305.55648 
L 235.96128 305.55648 
L 226.866932 305.55648 
L 225.898382 305.55648 
L 221.342858 305.55648 
L 215.808765 305.55648 
L 211.460311 304.88064 
L 207.569413 304.88064 
L 206.948205 304.88064 
L 206.891428 304.88064 
L 205.371806 304.2048 
L 203.514863 304.2048 
L 203.38461 303.52896 
L 202.766742 302.85312 
L 201.728055 302.17728 
L 200.228473 301.50144 
L 198.895882 301.50144 
L 198.141081 300.8256 
L 195.562735 300.14976 
L 193.391848 299.47392 
L 192.984389 298.79808 
L 192.089315 298.79808 
L 191.621739 298.12224 
L 191.518205 297.4464 
L 190.733346 296.77056 
L 189.574426 296.77056 
L 188.856363 296.09472 
L 187.416898 295.41888 
L 184.771755 294.74304 
L 182.497333 294.0672 
L 181.625638 293.39136 
L 181.568861 293.39136 
L 181.027809 292.71552 
L 180.61367 292.71552 
L 180.486757 292.03968 
L 179.534906 292.03968 
L 178.616454 291.36384 
L 178.449463 290.688 
L 176.655976 290.688 
L 176.321993 290.01216 
L 176.258536 289.33632 
L 176.141642 288.66048 
L 176.108244 287.98464 
L 176.054807 287.3088 
L 175.617289 286.63296 
L 174.05425 286.63296 
L 173.389625 285.95712 
L 172.297502 285.95712 
L 168.834101 285.28128 
L 168.386564 284.60544 
L 168.303069 283.9296 
L 167.872231 283.25376 
L 167.70524 282.57792 
L 166.623136 281.90208 
L 166.229036 281.22624 
L 165.7648 280.5504 
L 165.136913 279.87456 
L 164.499006 279.19872 
L 163.06288 278.52288 
L 161.386287 277.84704 
L 161.256034 277.1712 
L 160.307523 276.49536 
L 160.087095 275.81952 
L 158.934854 275.14368 
L 158.650969 274.46784 
L 158.296947 273.792 
L 157.271621 273.11616 
L 156.573597 272.44032 
L 156.473402 271.76448 
L 156.196196 271.08864 
L 155.454755 270.4128 
L 155.227647 270.4128 
L 154.305854 269.73696 
L 153.62119 269.06112 
L 153.477577 268.38528 
L 152.756175 267.70944 
L 152.205103 267.0336 
L 151.226534 266.35776 
L 150.561909 265.68192 
L 150.037556 265.00608 
L 149.676854 264.33024 
L 149.446406 263.6544 
L 149.346212 262.97856 
L 149.072346 262.30272 
L 147.692997 261.62688 
L 147.589463 260.95104 
L 147.579443 260.2752 
L 147.576103 260.2752 
L 147.522666 259.59936 
L 147.185344 258.92352 
L 146.67435 258.24768 
L 146.430543 257.57184 
L 146.119939 257.57184 
L 146.039783 256.896 
L 145.051194 256.896 
L 144.840785 256.896 
L 144.54688 256.22016 
L 144.122722 255.54432 
L 142.967142 254.86848 
L 142.756733 254.19264 
L 141.988573 253.5168 
L 141.798203 252.84096 
L 140.936528 252.16512 
L 140.549108 252.16512 
L 140.415515 251.48928 
L 139.864443 250.81344 
L 139.136361 250.1376 
L 138.244627 249.46176 
L 137.593361 248.78592 
L 137.493166 248.11008 
L 136.745045 247.43424 
L 136.327567 246.7584 
L 136.203993 246.08256 
L 136.180614 245.40672 
L 135.946826 244.73088 
L 135.258822 244.05504 
L 134.811285 243.3792 
L 134.574158 242.70336 
L 133.996368 242.02752 
L 133.739201 241.35168 
L 133.722502 240.67584 
L 133.261606 240 
L 132.376552 239.32416 
L 131.959073 238.64832 
L 131.695227 237.97248 
L 131.578333 237.29664 
L 131.518216 236.6208 
L 131.05398 235.94496 
L 130.943766 235.26912 
L 130.766755 234.59328 
L 129.90842 233.91744 
L 128.565809 233.2416 
L 128.255205 232.56576 
L 127.988019 231.88992 
L 127.841067 231.88992 
L 127.827707 231.21408 
L 126.635389 230.53824 
L 126.388242 229.8624 
L 126.171153 229.18656 
L 125.446411 228.51072 
L 125.169205 227.83488 
L 124.962136 227.15904 
L 124.187296 226.4832 
L 123.779837 225.80736 
L 123.589467 225.13152 
L 123.078474 224.45568 
L 122.871404 223.77984 
L 122.797928 223.104 
L 122.417188 222.42816 
L 122.296954 221.75232 
L 121.896175 221.07648 
L 121.064558 220.40064 
L 121.044519 219.7248 
L 120.917606 219.04896 
L 120.613682 218.37312 
L 119.67853 217.69728 
L 118.947108 217.02144 
L 118.850253 216.3456 
L 118.679922 215.66976 
L 118.245744 214.99392 
L 118.242404 214.31808 
L 118.165588 213.64224 
L 117.497623 212.9664 
L 117.444186 212.29056 
L 117.36403 211.61472 
L 117.35735 210.93888 
L 117.140262 210.26304 
L 117.090164 209.5872 
L 116.79292 208.91136 
L 116.609229 208.23552 
L 116.165032 207.55968 
L 115.777612 206.88384 
L 115.346775 206.208 
L 115.04619 205.53216 
L 114.451701 204.85632 
L 114.431662 204.18048 
L 114.151117 203.50464 
L 113.940708 202.8288 
L 113.439734 202.15296 
L 113.31616 201.47712 
L 112.53464 200.80128 
L 112.367649 200.12544 
L 111.993588 199.4496 
L 111.743101 198.77376 
L 111.556071 198.09792 
L 110.704415 197.42208 
L 110.701076 196.74624 
L 110.480647 196.0704 
L 110.23016 195.39456 
L 110.019751 194.71872 
L 109.876138 194.04288 
L 109.866119 193.36704 
L 109.662389 192.6912 
L 109.532136 192.01536 
L 109.181454 191.33952 
L 108.707199 190.66368 
L 108.396595 189.98784 
L 108.222924 189.312 
L 107.822145 188.63616 
L 106.679924 187.96032 
L 106.17561 187.28448 
L 106.125513 186.60864 
L 106.095454 185.9328 
L 106.082095 185.25696 
L 105.998599 184.58112 
L 105.901744 183.90528 
L 105.380731 183.22944 
L 104.82966 182.5536 
L 104.472298 181.87776 
L 104.218472 181.20192 
L 104.041461 180.52608 
L 103.951286 179.85024 
L 103.603944 179.1744 
L 102.852482 178.49856 
L 102.792366 177.82272 
L 102.545218 177.14688 
L 102.525179 176.47104 
L 102.478422 176.47104 
L 102.181177 175.7952 
L 101.877253 175.11936 
L 101.827156 174.44352 
L 101.646805 173.76768 
L 101.606727 173.09184 
L 101.566649 172.416 
L 101.276084 171.74016 
L 101.259385 171.06432 
L 100.634837 170.38848 
L 100.417749 169.71264 
L 100.290835 169.0368 
L 100.123844 168.36096 
L 100.110485 167.68512 
L 99.4325 167.00928 
L 99.352344 166.33344 
L 99.145275 165.6576 
L 99.068459 164.98176 
L 98.774554 164.30592 
L 98.644301 163.63008 
L 98.103249 162.95424 
L 98.099909 162.2784 
L 97.652372 161.60256 
L 97.431944 160.92672 
L 96.53687 160.25088 
L 96.34984 159.57504 
L 96.329801 158.8992 
L 96.099353 158.8992 
L 95.975779 158.22336 
L 95.872244 157.54752 
L 95.778729 156.87168 
L 95.321173 156.19584 
L 95.200939 155.52 
L 95.17756 154.84416 
L 94.573052 154.16832 
L 94.082097 153.49248 
L 94.02198 152.81664 
L 93.858329 152.1408 
L 93.671299 151.46496 
L 93.631221 150.78912 
L 93.510987 150.11328 
L 93.367374 149.43744 
L 92.589195 148.7616 
L 92.455602 148.08576 
L 92.205115 147.40992 
L 92.118279 146.73408 
L 92.078201 146.05824 
L 91.991366 145.3824 
L 91.593926 144.70656 
L 91.477032 144.03072 
L 91.440294 143.35488 
L 91.400216 142.67904 
L 91.209846 142.0032 
L 91.183128 141.32736 
L 91.039515 140.65152 
L 90.75229 139.97568 
L 90.642076 139.29984 
L 90.618697 138.624 
L 90.458385 137.94816 
L 90.428327 137.27232 
L 89.887275 136.59648 
L 89.800439 135.92064 
L 89.536593 135.2448 
L 89.423039 134.56896 
L 89.40634 133.89312 
L 89.20929 133.21728 
L 88.955463 132.54144 
L 87.639571 131.8656 
L 87.459221 131.18976 
L 87.382405 130.51392 
L 87.295569 129.83808 
L 87.252151 129.16224 
L 86.567487 128.4864 
L 86.51405 127.81056 
L 85.73253 127.13472 
L 85.468684 126.45888 
L 85.395208 125.78304 
L 85.295013 125.1072 
L 85.288333 124.43136 
L 84.947671 123.75552 
L 84.637067 123.07968 
L 84.523513 122.40384 
L 84.486775 121.728 
L 84.136093 121.05216 
L 83.745333 120.37632 
L 83.367933 119.70048 
L 83.291117 119.02464 
L 83.287777 118.3488 
L 83.231 117.67296 
L 82.750065 116.99712 
L 82.512937 116.32128 
L 82.158916 115.64544 
L 82.102138 114.9696 
L 81.621203 114.29376 
L 81.537708 113.61792 
L 81.407454 112.94208 
L 81.230444 112.26624 
L 81.160307 111.5904 
L 81.096851 110.91456 
L 80.352069 110.23872 
L 79.831056 109.56288 
L 79.747561 108.88704 
L 79.520452 108.2112 
L 79.517113 107.53536 
L 79.483714 106.85952 
L 79.406898 106.18368 
L 79.102974 105.50784 
L 78.9794 104.832 
L 78.782351 104.15616 
L 78.615359 103.48032 
L 78.561922 102.80448 
L 77.977452 102.12864 
L 77.8305 102.12864 
L 77.750344 101.4528 
L 77.64013 100.77696 
L 77.529916 100.10112 
L 77.266069 99.42528 
L 76.190645 98.74944 
L 76.053712 98.0736 
L 75.993595 97.39776 
L 75.9101 96.72192 
L 75.689671 96.72192 
L 75.262173 96.04608 
L 75.218755 96.04608 
L 75.161978 95.37024 
L 75.108541 94.6944 
L 74.988307 94.6944 
L 74.848035 94.01856 
L 74.524071 93.34272 
L 74.427216 92.66688 
L 74.343721 91.99104 
L 74.276924 91.3152 
L 74.253545 90.63936 
L 74.250206 89.96352 
L 74.17005 89.28768 
L 74.026437 88.61184 
L 73.832727 87.936 
z
" clip-path="url(#pced368bab1)" style="fill: #008000"/>
   </g>
   <g id="PolyCollection_2">
    <path d="M 73.832727 56.84736 
L 73.832727 87.936 
L 74.026437 88.61184 
L 74.17005 89.28768 
L 74.250206 89.96352 
L 74.253545 90.63936 
L 74.276924 91.3152 
L 74.343721 91.99104 
L 74.427216 92.66688 
L 74.524071 93.34272 
L 74.848035 94.01856 
L 74.988307 94.6944 
L 75.108541 94.6944 
L 75.161978 95.37024 
L 75.218755 96.04608 
L 75.262173 96.04608 
L 75.689671 96.72192 
L 75.9101 96.72192 
L 75.993595 97.39776 
L 76.053712 98.0736 
L 76.190645 98.74944 
L 77.266069 99.42528 
L 77.529916 100.10112 
L 77.64013 100.77696 
L 77.750344 101.4528 
L 77.8305 102.12864 
L 77.977452 102.12864 
L 78.561922 102.80448 
L 78.615359 103.48032 
L 78.782351 104.15616 
L 78.9794 104.832 
L 79.102974 105.50784 
L 79.406898 106.18368 
L 79.483714 106.85952 
L 79.517113 107.53536 
L 79.520452 108.2112 
L 79.747561 108.88704 
L 79.831056 109.56288 
L 80.352069 110.23872 
L 81.096851 110.91456 
L 81.160307 111.5904 
L 81.230444 112.26624 
L 81.407454 112.94208 
L 81.537708 113.61792 
L 81.621203 114.29376 
L 82.102138 114.9696 
L 82.158916 115.64544 
L 82.512937 116.32128 
L 82.750065 116.99712 
L 83.231 117.67296 
L 83.287777 118.3488 
L 83.291117 119.02464 
L 83.367933 119.70048 
L 83.745333 120.37632 
L 84.136093 121.05216 
L 84.486775 121.728 
L 84.523513 122.40384 
L 84.637067 123.07968 
L 84.947671 123.75552 
L 85.288333 124.43136 
L 85.295013 125.1072 
L 85.395208 125.78304 
L 85.468684 126.45888 
L 85.73253 127.13472 
L 86.51405 127.81056 
L 86.567487 128.4864 
L 87.252151 129.16224 
L 87.295569 129.83808 
L 87.382405 130.51392 
L 87.459221 131.18976 
L 87.639571 131.8656 
L 88.955463 132.54144 
L 89.20929 133.21728 
L 89.40634 133.89312 
L 89.423039 134.56896 
L 89.536593 135.2448 
L 89.800439 135.92064 
L 89.887275 136.59648 
L 90.428327 137.27232 
L 90.458385 137.94816 
L 90.618697 138.624 
L 90.642076 139.29984 
L 90.75229 139.97568 
L 91.039515 140.65152 
L 91.183128 141.32736 
L 91.209846 142.0032 
L 91.400216 142.67904 
L 91.440294 143.35488 
L 91.477032 144.03072 
L 91.593926 144.70656 
L 91.991366 145.3824 
L 92.078201 146.05824 
L 92.118279 146.73408 
L 92.205115 147.40992 
L 92.455602 148.08576 
L 92.589195 148.7616 
L 93.367374 149.43744 
L 93.510987 150.11328 
L 93.631221 150.78912 
L 93.671299 151.46496 
L 93.858329 152.1408 
L 94.02198 152.81664 
L 94.082097 153.49248 
L 94.573052 154.16832 
L 95.17756 154.84416 
L 95.200939 155.52 
L 95.321173 156.19584 
L 95.778729 156.87168 
L 95.872244 157.54752 
L 95.975779 158.22336 
L 96.099353 158.8992 
L 96.329801 158.8992 
L 96.34984 159.57504 
L 96.53687 160.25088 
L 97.431944 160.92672 
L 97.652372 161.60256 
L 98.099909 162.2784 
L 98.103249 162.95424 
L 98.644301 163.63008 
L 98.774554 164.30592 
L 99.068459 164.98176 
L 99.145275 165.6576 
L 99.352344 166.33344 
L 99.4325 167.00928 
L 100.110485 167.68512 
L 100.123844 168.36096 
L 100.290835 169.0368 
L 100.417749 169.71264 
L 100.634837 170.38848 
L 101.259385 171.06432 
L 101.276084 171.74016 
L 101.566649 172.416 
L 101.606727 173.09184 
L 101.646805 173.76768 
L 101.827156 174.44352 
L 101.877253 175.11936 
L 102.181177 175.7952 
L 102.478422 176.47104 
L 102.525179 176.47104 
L 102.545218 177.14688 
L 102.792366 177.82272 
L 102.852482 178.49856 
L 103.603944 179.1744 
L 103.951286 179.85024 
L 104.041461 180.52608 
L 104.218472 181.20192 
L 104.472298 181.87776 
L 104.82966 182.5536 
L 105.380731 183.22944 
L 105.901744 183.90528 
L 105.998599 184.58112 
L 106.082095 185.25696 
L 106.095454 185.9328 
L 106.125513 186.60864 
L 106.17561 187.28448 
L 106.679924 187.96032 
L 107.822145 188.63616 
L 108.222924 189.312 
L 108.396595 189.98784 
L 108.707199 190.66368 
L 109.181454 191.33952 
L 109.532136 192.01536 
L 109.662389 192.6912 
L 109.866119 193.36704 
L 109.876138 194.04288 
L 110.019751 194.71872 
L 110.23016 195.39456 
L 110.480647 196.0704 
L 110.701076 196.74624 
L 110.704415 197.42208 
L 111.556071 198.09792 
L 111.743101 198.77376 
L 111.993588 199.4496 
L 112.367649 200.12544 
L 112.53464 200.80128 
L 113.31616 201.47712 
L 113.439734 202.15296 
L 113.940708 202.8288 
L 114.151117 203.50464 
L 114.431662 204.18048 
L 114.451701 204.85632 
L 115.04619 205.53216 
L 115.346775 206.208 
L 115.777612 206.88384 
L 116.165032 207.55968 
L 116.609229 208.23552 
L 116.79292 208.91136 
L 117.090164 209.5872 
L 117.140262 210.26304 
L 117.35735 210.93888 
L 117.36403 211.61472 
L 117.444186 212.29056 
L 117.497623 212.9664 
L 118.165588 213.64224 
L 118.242404 214.31808 
L 118.245744 214.99392 
L 118.679922 215.66976 
L 118.850253 216.3456 
L 118.947108 217.02144 
L 119.67853 217.69728 
L 120.613682 218.37312 
L 120.917606 219.04896 
L 121.044519 219.7248 
L 121.064558 220.40064 
L 121.896175 221.07648 
L 122.296954 221.75232 
L 122.417188 222.42816 
L 122.797928 223.104 
L 122.871404 223.77984 
L 123.078474 224.45568 
L 123.589467 225.13152 
L 123.779837 225.80736 
L 124.187296 226.4832 
L 124.962136 227.15904 
L 125.169205 227.83488 
L 125.446411 228.51072 
L 126.171153 229.18656 
L 126.388242 229.8624 
L 126.635389 230.53824 
L 127.827707 231.21408 
L 127.841067 231.88992 
L 127.988019 231.88992 
L 128.255205 232.56576 
L 128.565809 233.2416 
L 129.90842 233.91744 
L 130.766755 234.59328 
L 130.943766 235.26912 
L 131.05398 235.94496 
L 131.518216 236.6208 
L 131.578333 237.29664 
L 131.695227 237.97248 
L 131.959073 238.64832 
L 132.376552 239.32416 
L 133.261606 240 
L 133.722502 240.67584 
L 133.739201 241.35168 
L 133.996368 242.02752 
L 134.574158 242.70336 
L 134.811285 243.3792 
L 135.258822 244.05504 
L 135.946826 244.73088 
L 136.180614 245.40672 
L 136.203993 246.08256 
L 136.327567 246.7584 
L 136.745045 247.43424 
L 137.493166 248.11008 
L 137.593361 248.78592 
L 138.244627 249.46176 
L 139.136361 250.1376 
L 139.864443 250.81344 
L 140.415515 251.48928 
L 140.549108 252.16512 
L 140.936528 252.16512 
L 141.798203 252.84096 
L 141.988573 253.5168 
L 142.756733 254.19264 
L 142.967142 254.86848 
L 144.122722 255.54432 
L 144.54688 256.22016 
L 144.840785 256.896 
L 145.051194 256.896 
L 146.039783 256.896 
L 146.119939 257.57184 
L 146.430543 257.57184 
L 146.67435 258.24768 
L 147.185344 258.92352 
L 147.522666 259.59936 
L 147.576103 260.2752 
L 147.579443 260.2752 
L 147.589463 260.95104 
L 147.692997 261.62688 
L 149.072346 262.30272 
L 149.346212 262.97856 
L 149.446406 263.6544 
L 149.676854 264.33024 
L 150.037556 265.00608 
L 150.561909 265.68192 
L 151.226534 266.35776 
L 152.205103 267.0336 
L 152.756175 267.70944 
L 153.477577 268.38528 
L 153.62119 269.06112 
L 154.305854 269.73696 
L 155.227647 270.4128 
L 155.454755 270.4128 
L 156.196196 271.08864 
L 156.473402 271.76448 
L 156.573597 272.44032 
L 157.271621 273.11616 
L 158.296947 273.792 
L 158.650969 274.46784 
L 158.934854 275.14368 
L 160.087095 275.81952 
L 160.307523 276.49536 
L 161.256034 277.1712 
L 161.386287 277.84704 
L 163.06288 278.52288 
L 164.499006 279.19872 
L 165.136913 279.87456 
L 165.7648 280.5504 
L 166.229036 281.22624 
L 166.623136 281.90208 
L 167.70524 282.57792 
L 167.872231 283.25376 
L 168.303069 283.9296 
L 168.386564 284.60544 
L 168.834101 285.28128 
L 172.297502 285.95712 
L 173.389625 285.95712 
L 174.05425 286.63296 
L 175.617289 286.63296 
L 176.054807 287.3088 
L 176.108244 287.98464 
L 176.141642 288.66048 
L 176.258536 289.33632 
L 176.321993 290.01216 
L 176.655976 290.688 
L 178.449463 290.688 
L 178.616454 291.36384 
L 179.534906 292.03968 
L 180.486757 292.03968 
L 180.61367 292.71552 
L 181.027809 292.71552 
L 181.568861 293.39136 
L 181.625638 293.39136 
L 182.497333 294.0672 
L 184.771755 294.74304 
L 187.416898 295.41888 
L 188.856363 296.09472 
L 189.574426 296.77056 
L 190.733346 296.77056 
L 191.518205 297.4464 
L 191.621739 298.12224 
L 192.089315 298.79808 
L 192.984389 298.79808 
L 193.391848 299.47392 
L 195.562735 300.14976 
L 198.141081 300.8256 
L 198.895882 301.50144 
L 200.228473 301.50144 
L 201.728055 302.17728 
L 202.766742 302.85312 
L 203.38461 303.52896 
L 203.514863 304.2048 
L 205.371806 304.2048 
L 206.891428 304.88064 
L 206.948205 304.88064 
L 207.569413 304.88064 
L 211.460311 304.88064 
L 215.808765 305.55648 
L 221.342858 305.55648 
L 225.898382 305.55648 
L 226.866932 305.55648 
L 235.96128 305.55648 
L 237.51096 305.55648 
L 245.576642 305.55648 
L 246.842436 305.55648 
L 250.873607 305.55648 
L 250.927044 306.23232 
L 252.369849 306.90816 
L 254.437202 306.90816 
L 254.440542 306.90816 
L 254.47394 306.90816 
L 256.781761 306.90816 
L 259.861081 306.90816 
L 265.836031 306.90816 
L 266.507336 306.90816 
L 267.479226 306.90816 
L 268.56801 306.90816 
L 271.320027 306.90816 
L 274.93038 307.584 
L 281.175856 307.584 
L 281.733607 307.584 
L 343.453606 307.584 
L 367.036124 307.584 
L 398.487273 307.584 
L 398.487273 306.90816 
L 398.487273 306.90816 
L 367.036124 306.23232 
L 343.453606 305.55648 
L 281.733607 304.88064 
L 281.175856 304.2048 
L 274.93038 303.52896 
L 271.320027 302.85312 
L 268.56801 302.17728 
L 267.479226 301.50144 
L 266.507336 300.8256 
L 265.836031 300.14976 
L 259.861081 299.47392 
L 256.781761 298.79808 
L 254.47394 298.12224 
L 254.440542 297.4464 
L 254.437202 296.77056 
L 252.369849 296.09472 
L 250.927044 295.41888 
L 250.873607 294.74304 
L 246.842436 294.0672 
L 245.576642 293.39136 
L 237.51096 292.71552 
L 235.96128 292.03968 
L 226.866932 291.36384 
L 225.898382 290.688 
L 221.342858 290.01216 
L 215.808765 289.33632 
L 211.460311 288.66048 
L 207.569413 287.98464 
L 206.948205 287.3088 
L 206.891428 286.63296 
L 205.371806 285.95712 
L 203.514863 285.28128 
L 203.38461 284.60544 
L 202.766742 283.9296 
L 201.728055 283.25376 
L 200.228473 282.57792 
L 198.895882 281.90208 
L 198.141081 281.22624 
L 195.562735 280.5504 
L 193.391848 279.87456 
L 192.984389 279.19872 
L 192.089315 278.52288 
L 191.621739 277.84704 
L 191.518205 277.1712 
L 190.733346 276.49536 
L 189.574426 275.81952 
L 188.856363 275.14368 
L 187.416898 274.46784 
L 184.771755 273.792 
L 182.497333 273.11616 
L 181.625638 272.44032 
L 181.568861 271.76448 
L 181.027809 271.08864 
L 180.61367 270.4128 
L 180.486757 269.73696 
L 179.534906 269.06112 
L 178.616454 268.38528 
L 178.449463 267.70944 
L 176.655976 267.0336 
L 176.321993 266.35776 
L 176.258536 265.68192 
L 176.141642 265.00608 
L 176.108244 264.33024 
L 176.054807 263.6544 
L 175.617289 262.97856 
L 174.05425 262.30272 
L 173.389625 261.62688 
L 172.297502 260.95104 
L 168.834101 260.2752 
L 168.386564 259.59936 
L 168.303069 258.92352 
L 167.872231 258.24768 
L 167.70524 257.57184 
L 166.623136 256.896 
L 166.229036 256.22016 
L 165.7648 255.54432 
L 165.136913 254.86848 
L 164.499006 254.19264 
L 163.06288 253.5168 
L 161.386287 252.84096 
L 161.256034 252.16512 
L 160.307523 251.48928 
L 160.087095 250.81344 
L 158.934854 250.1376 
L 158.650969 249.46176 
L 158.296947 248.78592 
L 157.271621 248.11008 
L 156.573597 247.43424 
L 156.473402 246.7584 
L 156.196196 246.08256 
L 155.454755 245.40672 
L 155.227647 244.73088 
L 154.305854 244.05504 
L 153.62119 243.3792 
L 153.477577 242.70336 
L 152.756175 242.02752 
L 152.205103 241.35168 
L 151.226534 240.67584 
L 150.561909 240 
L 150.037556 239.32416 
L 149.676854 238.64832 
L 149.446406 237.97248 
L 149.346212 237.29664 
L 149.072346 236.6208 
L 147.692997 235.94496 
L 147.589463 235.26912 
L 147.579443 234.59328 
L 147.576103 233.91744 
L 147.522666 233.2416 
L 147.185344 232.56576 
L 146.67435 231.88992 
L 146.430543 231.21408 
L 146.119939 230.53824 
L 146.039783 229.8624 
L 145.051194 229.18656 
L 144.840785 228.51072 
L 144.54688 227.83488 
L 144.122722 227.15904 
L 142.967142 226.4832 
L 142.756733 225.80736 
L 141.988573 225.13152 
L 141.798203 224.45568 
L 140.936528 223.77984 
L 140.549108 223.104 
L 140.415515 222.42816 
L 139.864443 221.75232 
L 139.136361 221.07648 
L 138.244627 220.40064 
L 137.593361 219.7248 
L 137.493166 219.04896 
L 136.745045 218.37312 
L 136.327567 217.69728 
L 136.203993 217.02144 
L 136.180614 216.3456 
L 135.946826 215.66976 
L 135.258822 214.99392 
L 134.811285 214.31808 
L 134.574158 213.64224 
L 133.996368 212.9664 
L 133.739201 212.29056 
L 133.722502 211.61472 
L 133.261606 210.93888 
L 132.376552 210.26304 
L 131.959073 209.5872 
L 131.695227 208.91136 
L 131.578333 208.23552 
L 131.518216 207.55968 
L 131.05398 206.88384 
L 130.943766 206.208 
L 130.766755 205.53216 
L 129.90842 204.85632 
L 128.565809 204.18048 
L 128.255205 203.50464 
L 127.988019 202.8288 
L 127.841067 202.15296 
L 127.827707 201.47712 
L 126.635389 200.80128 
L 126.388242 200.12544 
L 126.171153 199.4496 
L 125.446411 198.77376 
L 125.169205 198.09792 
L 124.962136 197.42208 
L 124.187296 196.74624 
L 123.779837 196.0704 
L 123.589467 195.39456 
L 123.078474 194.71872 
L 122.871404 194.04288 
L 122.797928 193.36704 
L 122.417188 192.6912 
L 122.296954 192.01536 
L 121.896175 191.33952 
L 121.064558 190.66368 
L 121.044519 189.98784 
L 120.917606 189.312 
L 120.613682 188.63616 
L 119.67853 187.96032 
L 118.947108 187.28448 
L 118.850253 186.60864 
L 118.679922 185.9328 
L 118.245744 185.25696 
L 118.242404 184.58112 
L 118.165588 183.90528 
L 117.497623 183.22944 
L 117.444186 182.5536 
L 117.36403 181.87776 
L 117.35735 181.20192 
L 117.140262 180.52608 
L 117.090164 179.85024 
L 116.79292 179.1744 
L 116.609229 178.49856 
L 116.165032 177.82272 
L 115.777612 177.14688 
L 115.346775 176.47104 
L 115.04619 175.7952 
L 114.451701 175.11936 
L 114.431662 174.44352 
L 114.151117 173.76768 
L 113.940708 173.09184 
L 113.439734 172.416 
L 113.31616 171.74016 
L 112.53464 171.06432 
L 112.367649 170.38848 
L 111.993588 169.71264 
L 111.743101 169.0368 
L 111.556071 168.36096 
L 110.704415 167.68512 
L 110.701076 167.00928 
L 110.480647 166.33344 
L 110.23016 165.6576 
L 110.019751 164.98176 
L 109.876138 164.30592 
L 109.866119 163.63008 
L 109.662389 162.95424 
L 109.532136 162.2784 
L 109.181454 161.60256 
L 108.707199 160.92672 
L 108.396595 160.25088 
L 108.222924 159.57504 
L 107.822145 158.8992 
L 106.679924 158.22336 
L 106.17561 157.54752 
L 106.125513 156.87168 
L 106.095454 156.19584 
L 106.082095 155.52 
L 105.998599 154.84416 
L 105.901744 154.16832 
L 105.380731 153.49248 
L 104.82966 152.81664 
L 104.472298 152.1408 
L 104.218472 151.46496 
L 104.041461 150.78912 
L 103.951286 150.11328 
L 103.603944 149.43744 
L 102.852482 148.7616 
L 102.792366 148.08576 
L 102.545218 147.40992 
L 102.525179 146.73408 
L 102.478422 146.05824 
L 102.181177 145.3824 
L 101.877253 144.70656 
L 101.827156 144.03072 
L 101.646805 143.35488 
L 101.606727 142.67904 
L 101.566649 142.0032 
L 101.276084 141.32736 
L 101.259385 140.65152 
L 100.634837 139.97568 
L 100.417749 139.29984 
L 100.290835 138.624 
L 100.123844 137.94816 
L 100.110485 137.27232 
L 99.4325 136.59648 
L 99.352344 135.92064 
L 99.145275 135.2448 
L 99.068459 134.56896 
L 98.774554 133.89312 
L 98.644301 133.21728 
L 98.103249 132.54144 
L 98.099909 131.8656 
L 97.652372 131.18976 
L 97.431944 130.51392 
L 96.53687 129.83808 
L 96.34984 129.16224 
L 96.329801 128.4864 
L 96.099353 128.4864 
L 95.975779 127.81056 
L 95.872244 127.13472 
L 95.778729 126.45888 
L 95.321173 125.78304 
L 95.200939 125.1072 
L 95.17756 124.43136 
L 94.573052 123.75552 
L 94.082097 123.07968 
L 94.02198 122.40384 
L 93.858329 121.728 
L 93.671299 121.05216 
L 93.631221 120.37632 
L 93.510987 119.70048 
L 93.367374 119.02464 
L 92.589195 118.3488 
L 92.455602 117.67296 
L 92.205115 116.99712 
L 92.118279 116.32128 
L 92.078201 115.64544 
L 91.991366 114.9696 
L 91.593926 114.29376 
L 91.477032 113.61792 
L 91.440294 112.94208 
L 91.400216 112.26624 
L 91.209846 111.5904 
L 91.183128 110.91456 
L 91.039515 110.23872 
L 90.75229 109.56288 
L 90.642076 108.88704 
L 90.618697 108.2112 
L 90.458385 107.53536 
L 90.428327 106.85952 
L 89.887275 106.18368 
L 89.800439 105.50784 
L 89.536593 104.832 
L 89.423039 104.15616 
L 89.40634 103.48032 
L 89.20929 102.80448 
L 88.955463 102.12864 
L 87.639571 101.4528 
L 87.459221 100.77696 
L 87.382405 100.10112 
L 87.295569 99.42528 
L 87.252151 98.74944 
L 86.567487 98.0736 
L 86.51405 97.39776 
L 85.73253 96.72192 
L 85.468684 96.04608 
L 85.395208 95.37024 
L 85.295013 94.6944 
L 85.288333 94.01856 
L 84.947671 93.34272 
L 84.637067 92.66688 
L 84.523513 91.99104 
L 84.486775 91.3152 
L 84.136093 90.63936 
L 83.745333 89.96352 
L 83.367933 89.28768 
L 83.291117 88.61184 
L 83.287777 87.936 
L 83.231 87.26016 
L 82.750065 86.58432 
L 82.512937 85.90848 
L 82.158916 85.23264 
L 82.102138 84.5568 
L 81.621203 83.88096 
L 81.537708 83.20512 
L 81.407454 82.52928 
L 81.230444 81.85344 
L 81.160307 81.1776 
L 81.096851 80.50176 
L 80.352069 79.82592 
L 79.831056 79.15008 
L 79.747561 78.47424 
L 79.520452 77.7984 
L 79.517113 77.12256 
L 79.483714 76.44672 
L 79.406898 75.77088 
L 79.102974 75.09504 
L 78.9794 74.4192 
L 78.782351 73.74336 
L 78.615359 73.06752 
L 78.561922 72.39168 
L 77.977452 71.71584 
L 77.8305 71.71584 
L 77.750344 71.04 
L 77.64013 70.36416 
L 77.529916 69.68832 
L 77.266069 69.01248 
L 76.190645 68.33664 
L 76.053712 67.6608 
L 75.993595 66.98496 
L 75.9101 66.30912 
L 75.689671 65.63328 
L 75.262173 64.95744 
L 75.218755 64.95744 
L 75.161978 64.2816 
L 75.108541 63.60576 
L 74.988307 63.60576 
L 74.848035 62.92992 
L 74.524071 62.25408 
L 74.427216 61.57824 
L 74.343721 60.9024 
L 74.276924 60.22656 
L 74.253545 59.55072 
L 74.250206 58.87488 
L 74.17005 58.19904 
L 74.026437 57.5232 
L 73.832727 56.84736 
z
" clip-path="url(#pced368bab1)" style="fill: #7cfc00"/>
   </g>
   <g id="PolyCollection_3">
    <path d="M 73.832727 54.144 
L 73.832727 56.84736 
L 74.026437 57.5232 
L 74.17005 58.19904 
L 74.250206 58.87488 
L 74.253545 59.55072 
L 74.276924 60.22656 
L 74.343721 60.9024 
L 74.427216 61.57824 
L 74.524071 62.25408 
L 74.848035 62.92992 
L 74.988307 63.60576 
L 75.108541 63.60576 
L 75.161978 64.2816 
L 75.218755 64.95744 
L 75.262173 64.95744 
L 75.689671 65.63328 
L 75.9101 66.30912 
L 75.993595 66.98496 
L 76.053712 67.6608 
L 76.190645 68.33664 
L 77.266069 69.01248 
L 77.529916 69.68832 
L 77.64013 70.36416 
L 77.750344 71.04 
L 77.8305 71.71584 
L 77.977452 71.71584 
L 78.561922 72.39168 
L 78.615359 73.06752 
L 78.782351 73.74336 
L 78.9794 74.4192 
L 79.102974 75.09504 
L 79.406898 75.77088 
L 79.483714 76.44672 
L 79.517113 77.12256 
L 79.520452 77.7984 
L 79.747561 78.47424 
L 79.831056 79.15008 
L 80.352069 79.82592 
L 81.096851 80.50176 
L 81.160307 81.1776 
L 81.230444 81.85344 
L 81.407454 82.52928 
L 81.537708 83.20512 
L 81.621203 83.88096 
L 82.102138 84.5568 
L 82.158916 85.23264 
L 82.512937 85.90848 
L 82.750065 86.58432 
L 83.231 87.26016 
L 83.287777 87.936 
L 83.291117 88.61184 
L 83.367933 89.28768 
L 83.745333 89.96352 
L 84.136093 90.63936 
L 84.486775 91.3152 
L 84.523513 91.99104 
L 84.637067 92.66688 
L 84.947671 93.34272 
L 85.288333 94.01856 
L 85.295013 94.6944 
L 85.395208 95.37024 
L 85.468684 96.04608 
L 85.73253 96.72192 
L 86.51405 97.39776 
L 86.567487 98.0736 
L 87.252151 98.74944 
L 87.295569 99.42528 
L 87.382405 100.10112 
L 87.459221 100.77696 
L 87.639571 101.4528 
L 88.955463 102.12864 
L 89.20929 102.80448 
L 89.40634 103.48032 
L 89.423039 104.15616 
L 89.536593 104.832 
L 89.800439 105.50784 
L 89.887275 106.18368 
L 90.428327 106.85952 
L 90.458385 107.53536 
L 90.618697 108.2112 
L 90.642076 108.88704 
L 90.75229 109.56288 
L 91.039515 110.23872 
L 91.183128 110.91456 
L 91.209846 111.5904 
L 91.400216 112.26624 
L 91.440294 112.94208 
L 91.477032 113.61792 
L 91.593926 114.29376 
L 91.991366 114.9696 
L 92.078201 115.64544 
L 92.118279 116.32128 
L 92.205115 116.99712 
L 92.455602 117.67296 
L 92.589195 118.3488 
L 93.367374 119.02464 
L 93.510987 119.70048 
L 93.631221 120.37632 
L 93.671299 121.05216 
L 93.858329 121.728 
L 94.02198 122.40384 
L 94.082097 123.07968 
L 94.573052 123.75552 
L 95.17756 124.43136 
L 95.200939 125.1072 
L 95.321173 125.78304 
L 95.778729 126.45888 
L 95.872244 127.13472 
L 95.975779 127.81056 
L 96.099353 128.4864 
L 96.329801 128.4864 
L 96.34984 129.16224 
L 96.53687 129.83808 
L 97.431944 130.51392 
L 97.652372 131.18976 
L 98.099909 131.8656 
L 98.103249 132.54144 
L 98.644301 133.21728 
L 98.774554 133.89312 
L 99.068459 134.56896 
L 99.145275 135.2448 
L 99.352344 135.92064 
L 99.4325 136.59648 
L 100.110485 137.27232 
L 100.123844 137.94816 
L 100.290835 138.624 
L 100.417749 139.29984 
L 100.634837 139.97568 
L 101.259385 140.65152 
L 101.276084 141.32736 
L 101.566649 142.0032 
L 101.606727 142.67904 
L 101.646805 143.35488 
L 101.827156 144.03072 
L 101.877253 144.70656 
L 102.181177 145.3824 
L 102.478422 146.05824 
L 102.525179 146.73408 
L 102.545218 147.40992 
L 102.792366 148.08576 
L 102.852482 148.7616 
L 103.603944 149.43744 
L 103.951286 150.11328 
L 104.041461 150.78912 
L 104.218472 151.46496 
L 104.472298 152.1408 
L 104.82966 152.81664 
L 105.380731 153.49248 
L 105.901744 154.16832 
L 105.998599 154.84416 
L 106.082095 155.52 
L 106.095454 156.19584 
L 106.125513 156.87168 
L 106.17561 157.54752 
L 106.679924 158.22336 
L 107.822145 158.8992 
L 108.222924 159.57504 
L 108.396595 160.25088 
L 108.707199 160.92672 
L 109.181454 161.60256 
L 109.532136 162.2784 
L 109.662389 162.95424 
L 109.866119 163.63008 
L 109.876138 164.30592 
L 110.019751 164.98176 
L 110.23016 165.6576 
L 110.480647 166.33344 
L 110.701076 167.00928 
L 110.704415 167.68512 
L 111.556071 168.36096 
L 111.743101 169.0368 
L 111.993588 169.71264 
L 112.367649 170.38848 
L 112.53464 171.06432 
L 113.31616 171.74016 
L 113.439734 172.416 
L 113.940708 173.09184 
L 114.151117 173.76768 
L 114.431662 174.44352 
L 114.451701 175.11936 
L 115.04619 175.7952 
L 115.346775 176.47104 
L 115.777612 177.14688 
L 116.165032 177.82272 
L 116.609229 178.49856 
L 116.79292 179.1744 
L 117.090164 179.85024 
L 117.140262 180.52608 
L 117.35735 181.20192 
L 117.36403 181.87776 
L 117.444186 182.5536 
L 117.497623 183.22944 
L 118.165588 183.90528 
L 118.242404 184.58112 
L 118.245744 185.25696 
L 118.679922 185.9328 
L 118.850253 186.60864 
L 118.947108 187.28448 
L 119.67853 187.96032 
L 120.613682 188.63616 
L 120.917606 189.312 
L 121.044519 189.98784 
L 121.064558 190.66368 
L 121.896175 191.33952 
L 122.296954 192.01536 
L 122.417188 192.6912 
L 122.797928 193.36704 
L 122.871404 194.04288 
L 123.078474 194.71872 
L 123.589467 195.39456 
L 123.779837 196.0704 
L 124.187296 196.74624 
L 124.962136 197.42208 
L 125.169205 198.09792 
L 125.446411 198.77376 
L 126.171153 199.4496 
L 126.388242 200.12544 
L 126.635389 200.80128 
L 127.827707 201.47712 
L 127.841067 202.15296 
L 127.988019 202.8288 
L 128.255205 203.50464 
L 128.565809 204.18048 
L 129.90842 204.85632 
L 130.766755 205.53216 
L 130.943766 206.208 
L 131.05398 206.88384 
L 131.518216 207.55968 
L 131.578333 208.23552 
L 131.695227 208.91136 
L 131.959073 209.5872 
L 132.376552 210.26304 
L 133.261606 210.93888 
L 133.722502 211.61472 
L 133.739201 212.29056 
L 133.996368 212.9664 
L 134.574158 213.64224 
L 134.811285 214.31808 
L 135.258822 214.99392 
L 135.946826 215.66976 
L 136.180614 216.3456 
L 136.203993 217.02144 
L 136.327567 217.69728 
L 136.745045 218.37312 
L 137.493166 219.04896 
L 137.593361 219.7248 
L 138.244627 220.40064 
L 139.136361 221.07648 
L 139.864443 221.75232 
L 140.415515 222.42816 
L 140.549108 223.104 
L 140.936528 223.77984 
L 141.798203 224.45568 
L 141.988573 225.13152 
L 142.756733 225.80736 
L 142.967142 226.4832 
L 144.122722 227.15904 
L 144.54688 227.83488 
L 144.840785 228.51072 
L 145.051194 229.18656 
L 146.039783 229.8624 
L 146.119939 230.53824 
L 146.430543 231.21408 
L 146.67435 231.88992 
L 147.185344 232.56576 
L 147.522666 233.2416 
L 147.576103 233.91744 
L 147.579443 234.59328 
L 147.589463 235.26912 
L 147.692997 235.94496 
L 149.072346 236.6208 
L 149.346212 237.29664 
L 149.446406 237.97248 
L 149.676854 238.64832 
L 150.037556 239.32416 
L 150.561909 240 
L 151.226534 240.67584 
L 152.205103 241.35168 
L 152.756175 242.02752 
L 153.477577 242.70336 
L 153.62119 243.3792 
L 154.305854 244.05504 
L 155.227647 244.73088 
L 155.454755 245.40672 
L 156.196196 246.08256 
L 156.473402 246.7584 
L 156.573597 247.43424 
L 157.271621 248.11008 
L 158.296947 248.78592 
L 158.650969 249.46176 
L 158.934854 250.1376 
L 160.087095 250.81344 
L 160.307523 251.48928 
L 161.256034 252.16512 
L 161.386287 252.84096 
L 163.06288 253.5168 
L 164.499006 254.19264 
L 165.136913 254.86848 
L 165.7648 255.54432 
L 166.229036 256.22016 
L 166.623136 256.896 
L 167.70524 257.57184 
L 167.872231 258.24768 
L 168.303069 258.92352 
L 168.386564 259.59936 
L 168.834101 260.2752 
L 172.297502 260.95104 
L 173.389625 261.62688 
L 174.05425 262.30272 
L 175.617289 262.97856 
L 176.054807 263.6544 
L 176.108244 264.33024 
L 176.141642 265.00608 
L 176.258536 265.68192 
L 176.321993 266.35776 
L 176.655976 267.0336 
L 178.449463 267.70944 
L 178.616454 268.38528 
L 179.534906 269.06112 
L 180.486757 269.73696 
L 180.61367 270.4128 
L 181.027809 271.08864 
L 181.568861 271.76448 
L 181.625638 272.44032 
L 182.497333 273.11616 
L 184.771755 273.792 
L 187.416898 274.46784 
L 188.856363 275.14368 
L 189.574426 275.81952 
L 190.733346 276.49536 
L 191.518205 277.1712 
L 191.621739 277.84704 
L 192.089315 278.52288 
L 192.984389 279.19872 
L 193.391848 279.87456 
L 195.562735 280.5504 
L 198.141081 281.22624 
L 198.895882 281.90208 
L 200.228473 282.57792 
L 201.728055 283.25376 
L 202.766742 283.9296 
L 203.38461 284.60544 
L 203.514863 285.28128 
L 205.371806 285.95712 
L 206.891428 286.63296 
L 206.948205 287.3088 
L 207.569413 287.98464 
L 211.460311 288.66048 
L 215.808765 289.33632 
L 221.342858 290.01216 
L 225.898382 290.688 
L 226.866932 291.36384 
L 235.96128 292.03968 
L 237.51096 292.71552 
L 245.576642 293.39136 
L 246.842436 294.0672 
L 250.873607 294.74304 
L 250.927044 295.41888 
L 252.369849 296.09472 
L 254.437202 296.77056 
L 254.440542 297.4464 
L 254.47394 298.12224 
L 256.781761 298.79808 
L 259.861081 299.47392 
L 265.836031 300.14976 
L 266.507336 300.8256 
L 267.479226 301.50144 
L 268.56801 302.17728 
L 271.320027 302.85312 
L 274.93038 303.52896 
L 281.175856 304.2048 
L 281.733607 304.88064 
L 343.453606 305.55648 
L 367.036124 306.23232 
L 398.487273 306.90816 
L 398.487273 306.90816 
L 398.487273 306.90816 
L 367.036124 306.23232 
L 343.453606 305.55648 
L 281.733607 304.88064 
L 281.175856 304.2048 
L 274.93038 303.52896 
L 271.320027 302.85312 
L 268.56801 302.17728 
L 267.479226 301.50144 
L 266.507336 300.8256 
L 265.836031 300.14976 
L 259.861081 299.47392 
L 256.781761 298.79808 
L 254.47394 298.12224 
L 254.440542 297.4464 
L 254.437202 296.77056 
L 252.369849 296.09472 
L 250.927044 295.41888 
L 250.873607 294.74304 
L 246.842436 294.0672 
L 245.576642 293.39136 
L 237.51096 292.71552 
L 235.96128 292.03968 
L 226.866932 291.36384 
L 225.898382 290.688 
L 221.342858 290.01216 
L 215.808765 289.33632 
L 211.460311 288.66048 
L 207.569413 287.98464 
L 206.948205 287.3088 
L 206.891428 286.63296 
L 205.371806 285.95712 
L 203.514863 285.28128 
L 203.38461 284.60544 
L 202.766742 283.9296 
L 201.728055 283.25376 
L 200.228473 282.57792 
L 198.895882 281.90208 
L 198.141081 281.22624 
L 195.562735 280.5504 
L 193.391848 279.87456 
L 192.984389 279.19872 
L 192.089315 278.52288 
L 191.621739 277.84704 
L 191.518205 277.1712 
L 190.733346 276.49536 
L 189.574426 275.81952 
L 188.856363 275.14368 
L 187.416898 274.46784 
L 184.771755 273.792 
L 182.497333 273.11616 
L 181.625638 272.44032 
L 181.568861 271.76448 
L 181.027809 271.08864 
L 180.61367 270.4128 
L 180.486757 269.73696 
L 179.534906 269.06112 
L 178.616454 268.38528 
L 178.449463 267.70944 
L 176.655976 267.0336 
L 176.321993 266.35776 
L 176.258536 265.68192 
L 176.141642 265.00608 
L 176.108244 264.33024 
L 176.054807 263.6544 
L 175.617289 262.97856 
L 174.05425 262.30272 
L 173.389625 261.62688 
L 172.297502 260.95104 
L 168.834101 260.2752 
L 168.386564 259.59936 
L 168.303069 258.92352 
L 167.872231 258.24768 
L 167.70524 257.57184 
L 166.623136 256.896 
L 166.229036 256.22016 
L 165.7648 255.54432 
L 165.136913 254.86848 
L 164.499006 254.19264 
L 163.06288 253.5168 
L 161.386287 252.84096 
L 161.256034 252.16512 
L 160.307523 251.48928 
L 160.087095 250.81344 
L 158.934854 250.1376 
L 158.650969 249.46176 
L 158.296947 248.78592 
L 157.271621 248.11008 
L 156.573597 247.43424 
L 156.473402 246.7584 
L 156.196196 246.08256 
L 155.454755 245.40672 
L 155.227647 244.73088 
L 154.305854 244.05504 
L 153.62119 243.3792 
L 153.477577 242.70336 
L 152.756175 242.02752 
L 152.205103 241.35168 
L 151.226534 240.67584 
L 150.561909 240 
L 150.037556 239.32416 
L 149.676854 238.64832 
L 149.446406 237.97248 
L 149.346212 237.29664 
L 149.072346 236.6208 
L 147.692997 235.94496 
L 147.589463 235.26912 
L 147.579443 234.59328 
L 147.576103 233.91744 
L 147.522666 233.2416 
L 147.185344 232.56576 
L 146.67435 231.88992 
L 146.430543 231.21408 
L 146.119939 230.53824 
L 146.039783 229.8624 
L 145.051194 229.18656 
L 144.840785 228.51072 
L 144.54688 227.83488 
L 144.122722 227.15904 
L 142.967142 226.4832 
L 142.756733 225.80736 
L 141.988573 225.13152 
L 141.798203 224.45568 
L 140.936528 223.77984 
L 140.549108 223.104 
L 140.415515 222.42816 
L 139.864443 221.75232 
L 139.136361 221.07648 
L 138.244627 220.40064 
L 137.593361 219.7248 
L 137.493166 219.04896 
L 136.745045 218.37312 
L 136.327567 217.69728 
L 136.203993 217.02144 
L 136.180614 216.3456 
L 135.946826 215.66976 
L 135.258822 214.99392 
L 134.811285 214.31808 
L 134.574158 213.64224 
L 133.996368 212.9664 
L 133.739201 212.29056 
L 133.722502 211.61472 
L 133.261606 210.93888 
L 132.376552 210.26304 
L 131.959073 209.5872 
L 131.695227 208.91136 
L 131.578333 208.23552 
L 131.518216 207.55968 
L 131.05398 206.88384 
L 130.943766 206.208 
L 130.766755 205.53216 
L 129.90842 204.85632 
L 128.565809 204.18048 
L 128.255205 203.50464 
L 127.988019 202.8288 
L 127.841067 202.15296 
L 127.827707 201.47712 
L 126.635389 200.80128 
L 126.388242 200.12544 
L 126.171153 199.4496 
L 125.446411 198.77376 
L 125.169205 198.09792 
L 124.962136 197.42208 
L 124.187296 196.74624 
L 123.779837 196.0704 
L 123.589467 195.39456 
L 123.078474 194.71872 
L 122.871404 194.04288 
L 122.797928 193.36704 
L 122.417188 192.6912 
L 122.296954 192.01536 
L 121.896175 191.33952 
L 121.064558 190.66368 
L 121.044519 189.98784 
L 120.917606 189.312 
L 120.613682 188.63616 
L 119.67853 187.96032 
L 118.947108 187.28448 
L 118.850253 186.60864 
L 118.679922 185.9328 
L 118.245744 185.25696 
L 118.242404 184.58112 
L 118.165588 183.90528 
L 117.497623 183.22944 
L 117.444186 182.5536 
L 117.36403 181.87776 
L 117.35735 181.20192 
L 117.140262 180.52608 
L 117.090164 179.85024 
L 116.79292 179.1744 
L 116.609229 178.49856 
L 116.165032 177.82272 
L 115.777612 177.14688 
L 115.346775 176.47104 
L 115.04619 175.7952 
L 114.451701 175.11936 
L 114.431662 174.44352 
L 114.151117 173.76768 
L 113.940708 173.09184 
L 113.439734 172.416 
L 113.31616 171.74016 
L 112.53464 171.06432 
L 112.367649 170.38848 
L 111.993588 169.71264 
L 111.743101 169.0368 
L 111.556071 168.36096 
L 110.704415 167.68512 
L 110.701076 167.00928 
L 110.480647 166.33344 
L 110.23016 165.6576 
L 110.019751 164.98176 
L 109.876138 164.30592 
L 109.866119 163.63008 
L 109.662389 162.95424 
L 109.532136 162.2784 
L 109.181454 161.60256 
L 108.707199 160.92672 
L 108.396595 160.25088 
L 108.222924 159.57504 
L 107.822145 158.8992 
L 106.679924 158.22336 
L 106.17561 157.54752 
L 106.125513 156.87168 
L 106.095454 156.19584 
L 106.082095 155.52 
L 105.998599 154.84416 
L 105.901744 154.16832 
L 105.380731 153.49248 
L 104.82966 152.81664 
L 104.472298 152.1408 
L 104.218472 151.46496 
L 104.041461 150.78912 
L 103.951286 150.11328 
L 103.603944 149.43744 
L 102.852482 148.7616 
L 102.792366 148.08576 
L 102.545218 147.40992 
L 102.525179 146.73408 
L 102.478422 146.05824 
L 102.181177 145.3824 
L 101.877253 144.70656 
L 101.827156 144.03072 
L 101.646805 143.35488 
L 101.606727 142.67904 
L 101.566649 142.0032 
L 101.276084 141.32736 
L 101.259385 140.65152 
L 100.634837 139.97568 
L 100.417749 139.29984 
L 100.290835 138.624 
L 100.123844 137.94816 
L 100.110485 137.27232 
L 99.4325 136.59648 
L 99.352344 135.92064 
L 99.145275 135.2448 
L 99.068459 134.56896 
L 98.774554 133.89312 
L 98.644301 133.21728 
L 98.103249 132.54144 
L 98.099909 131.8656 
L 97.652372 131.18976 
L 97.431944 130.51392 
L 96.53687 129.83808 
L 96.34984 129.16224 
L 96.329801 128.4864 
L 96.099353 127.81056 
L 95.975779 127.13472 
L 95.872244 126.45888 
L 95.778729 125.78304 
L 95.321173 125.1072 
L 95.200939 124.43136 
L 95.17756 123.75552 
L 94.573052 123.07968 
L 94.082097 122.40384 
L 94.02198 121.728 
L 93.858329 121.05216 
L 93.671299 120.37632 
L 93.631221 119.70048 
L 93.510987 119.02464 
L 93.367374 118.3488 
L 92.589195 117.67296 
L 92.455602 116.99712 
L 92.205115 116.32128 
L 92.118279 115.64544 
L 92.078201 114.9696 
L 91.991366 114.29376 
L 91.593926 113.61792 
L 91.477032 112.94208 
L 91.440294 112.26624 
L 91.400216 111.5904 
L 91.209846 110.91456 
L 91.183128 110.23872 
L 91.039515 109.56288 
L 90.75229 108.88704 
L 90.642076 108.2112 
L 90.618697 107.53536 
L 90.458385 106.85952 
L 90.428327 106.18368 
L 89.887275 105.50784 
L 89.800439 104.832 
L 89.536593 104.15616 
L 89.423039 103.48032 
L 89.40634 102.80448 
L 89.20929 102.12864 
L 88.955463 101.4528 
L 87.639571 100.77696 
L 87.459221 100.10112 
L 87.382405 99.42528 
L 87.295569 98.74944 
L 87.252151 98.0736 
L 86.567487 97.39776 
L 86.51405 96.72192 
L 85.73253 96.04608 
L 85.468684 95.37024 
L 85.395208 94.6944 
L 85.295013 94.01856 
L 85.288333 93.34272 
L 84.947671 92.66688 
L 84.637067 91.99104 
L 84.523513 91.3152 
L 84.486775 90.63936 
L 84.136093 89.96352 
L 83.745333 89.28768 
L 83.367933 88.61184 
L 83.291117 87.936 
L 83.287777 87.26016 
L 83.231 86.58432 
L 82.750065 85.90848 
L 82.512937 85.23264 
L 82.158916 84.5568 
L 82.102138 83.88096 
L 81.621203 83.20512 
L 81.537708 82.52928 
L 81.407454 81.85344 
L 81.230444 81.1776 
L 81.160307 80.50176 
L 81.096851 79.82592 
L 80.352069 79.15008 
L 79.831056 78.47424 
L 79.747561 77.7984 
L 79.520452 77.12256 
L 79.517113 76.44672 
L 79.483714 75.77088 
L 79.406898 75.09504 
L 79.102974 74.4192 
L 78.9794 73.74336 
L 78.782351 73.06752 
L 78.615359 72.39168 
L 78.561922 71.71584 
L 77.977452 71.04 
L 77.8305 70.36416 
L 77.750344 69.68832 
L 77.64013 69.01248 
L 77.529916 68.33664 
L 77.266069 67.6608 
L 76.190645 66.98496 
L 76.053712 66.30912 
L 75.993595 65.63328 
L 75.9101 64.95744 
L 75.689671 64.2816 
L 75.262173 63.60576 
L 75.218755 62.92992 
L 75.161978 62.25408 
L 75.108541 61.57824 
L 74.988307 60.9024 
L 74.848035 60.22656 
L 74.524071 59.55072 
L 74.427216 58.87488 
L 74.343721 58.19904 
L 74.276924 57.5232 
L 74.253545 56.84736 
L 74.250206 56.17152 
L 74.17005 55.49568 
L 74.026437 54.81984 
L 73.832727 54.144 
z
" clip-path="url(#pced368bab1)" style="fill: #ff0000"/>
   </g>
   <g id="matplotlib.axis_1">
    <g id="xtick_1">
     <g id="line2d_1">
      <defs>
       <path id="m76eecc0944" d="M 0 0 
L 0 3.5 
" style="stroke: #000000; stroke-width: 0.8"/>
      </defs>
      <g>
       <use xlink:href="#m76eecc0944" x="109.585573" y="307.584" style="stroke: #000000; stroke-width: 0.8"/>
      </g>
     </g>
     <g id="text_1">
      <!-- 200 -->
      <g transform="translate(100.041823 322.182437)scale(0.1 -0.1)">
       <defs>
        <path id="DejaVuSans-32" d="M 1228 531 
L 3431 531 
L 3431 0 
L 469 0 
L 469 531 
Q 828 903 1448 1529 
Q 2069 2156 2228 2338 
Q 2531 2678 2651 2914 
Q 2772 3150 2772 3378 
Q 2772 3750 2511 3984 
Q 2250 4219 1831 4219 
Q 1534 4219 1204 4116 
Q 875 4013 500 3803 
L 500 4441 
Q 881 4594 1212 4672 
Q 1544 4750 1819 4750 
Q 2544 4750 2975 4387 
Q 3406 4025 3406 3419 
Q 3406 3131 3298 2873 
Q 3191 2616 2906 2266 
Q 2828 2175 2409 1742 
Q 1991 1309 1228 531 
z
" transform="scale(0.015625)"/>
        <path id="DejaVuSans-30" d="M 2034 4250 
Q 1547 4250 1301 3770 
Q 1056 3291 1056 2328 
Q 1056 1369 1301 889 
Q 1547 409 2034 409 
Q 2525 409 2770 889 
Q 3016 1369 3016 2328 
Q 3016 3291 2770 3770 
Q 2525 4250 2034 4250 
z
M 2034 4750 
Q 2819 4750 3233 4129 
Q 3647 3509 3647 2328 
Q 3647 1150 3233 529 
Q 2819 -91 2034 -91 
Q 1250 -91 836 529 
Q 422 1150 422 2328 
Q 422 3509 836 4129 
Q 1250 4750 2034 4750 
z
" transform="scale(0.015625)"/>
       </defs>
       <use xlink:href="#DejaVuSans-32"/>
       <use xlink:href="#DejaVuSans-30" x="63.623047"/>
       <use xlink:href="#DejaVuSans-30" x="127.246094"/>
      </g>
     </g>
    </g>
    <g id="xtick_2">
     <g id="line2d_2">
      <g>
       <use xlink:href="#m76eecc0944" x="176.38211" y="307.584" style="stroke: #000000; stroke-width: 0.8"/>
      </g>
     </g>
     <g id="text_2">
      <!-- 400 -->
      <g transform="translate(166.83836 322.182437)scale(0.1 -0.1)">
       <defs>
        <path id="DejaVuSans-34" d="M 2419 4116 
L 825 1625 
L 2419 1625 
L 2419 4116 
z
M 2253 4666 
L 3047 4666 
L 3047 1625 
L 3713 1625 
L 3713 1100 
L 3047 1100 
L 3047 0 
L 2419 0 
L 2419 1100 
L 313 1100 
L 313 1709 
L 2253 4666 
z
" transform="scale(0.015625)"/>
       </defs>
       <use xlink:href="#DejaVuSans-34"/>
       <use xlink:href="#DejaVuSans-30" x="63.623047"/>
       <use xlink:href="#DejaVuSans-30" x="127.246094"/>
      </g>
     </g>
    </g>
    <g id="xtick_3">
     <g id="line2d_3">
      <g>
       <use xlink:href="#m76eecc0944" x="243.178646" y="307.584" style="stroke: #000000; stroke-width: 0.8"/>
      </g>
     </g>
     <g id="text_3">
      <!-- 600 -->
      <g transform="translate(233.634896 322.182437)scale(0.1 -0.1)">
       <defs>
        <path id="DejaVuSans-36" d="M 2113 2584 
Q 1688 2584 1439 2293 
Q 1191 2003 1191 1497 
Q 1191 994 1439 701 
Q 1688 409 2113 409 
Q 2538 409 2786 701 
Q 3034 994 3034 1497 
Q 3034 2003 2786 2293 
Q 2538 2584 2113 2584 
z
M 3366 4563 
L 3366 3988 
Q 3128 4100 2886 4159 
Q 2644 4219 2406 4219 
Q 1781 4219 1451 3797 
Q 1122 3375 1075 2522 
Q 1259 2794 1537 2939 
Q 1816 3084 2150 3084 
Q 2853 3084 3261 2657 
Q 3669 2231 3669 1497 
Q 3669 778 3244 343 
Q 2819 -91 2113 -91 
Q 1303 -91 875 529 
Q 447 1150 447 2328 
Q 447 3434 972 4092 
Q 1497 4750 2381 4750 
Q 2619 4750 2861 4703 
Q 3103 4656 3366 4563 
z
" transform="scale(0.015625)"/>
       </defs>
       <use xlink:href="#DejaVuSans-36"/>
       <use xlink:href="#DejaVuSans-30" x="63.623047"/>
       <use xlink:href="#DejaVuSans-30" x="127.246094"/>
      </g>
     </g>
    </g>
    <g id="xtick_4">
     <g id="line2d_4">
      <g>
       <use xlink:href="#m76eecc0944" x="309.975182" y="307.584" style="stroke: #000000; stroke-width: 0.8"/>
      </g>
     </g>
     <g id="text_4">
      <!-- 800 -->
      <g transform="translate(300.431432 322.182437)scale(0.1 -0.1)">
       <defs>
        <path id="DejaVuSans-38" d="M 2034 2216 
Q 1584 2216 1326 1975 
Q 1069 1734 1069 1313 
Q 1069 891 1326 650 
Q 1584 409 2034 409 
Q 2484 409 2743 651 
Q 3003 894 3003 1313 
Q 3003 1734 2745 1975 
Q 2488 2216 2034 2216 
z
M 1403 2484 
Q 997 2584 770 2862 
Q 544 3141 544 3541 
Q 544 4100 942 4425 
Q 1341 4750 2034 4750 
Q 2731 4750 3128 4425 
Q 3525 4100 3525 3541 
Q 3525 3141 3298 2862 
Q 3072 2584 2669 2484 
Q 3125 2378 3379 2068 
Q 3634 1759 3634 1313 
Q 3634 634 3220 271 
Q 2806 -91 2034 -91 
Q 1263 -91 848 271 
Q 434 634 434 1313 
Q 434 1759 690 2068 
Q 947 2378 1403 2484 
z
M 1172 3481 
Q 1172 3119 1398 2916 
Q 1625 2713 2034 2713 
Q 2441 2713 2670 2916 
Q 2900 3119 2900 3481 
Q 2900 3844 2670 4047 
Q 2441 4250 2034 4250 
Q 1625 4250 1398 4047 
Q 1172 3844 1172 3481 
z
" transform="scale(0.015625)"/>
       </defs>
       <use xlink:href="#DejaVuSans-38"/>
       <use xlink:href="#DejaVuSans-30" x="63.623047"/>
       <use xlink:href="#DejaVuSans-30" x="127.246094"/>
      </g>
     </g>
    </g>
    <g id="xtick_5">
     <g id="line2d_5">
      <g>
       <use xlink:href="#m76eecc0944" x="376.771719" y="307.584" style="stroke: #000000; stroke-width: 0.8"/>
      </g>
     </g>
     <g id="text_5">
      <!-- 1000 -->
      <g transform="translate(364.046719 322.182437)scale(0.1 -0.1)">
       <defs>
        <path id="DejaVuSans-31" d="M 794 531 
L 1825 531 
L 1825 4091 
L 703 3866 
L 703 4441 
L 1819 4666 
L 2450 4666 
L 2450 531 
L 3481 531 
L 3481 0 
L 794 0 
L 794 531 
z
" transform="scale(0.015625)"/>
       </defs>
       <use xlink:href="#DejaVuSans-31"/>
       <use xlink:href="#DejaVuSans-30" x="63.623047"/>
       <use xlink:href="#DejaVuSans-30" x="127.246094"/>
       <use xlink:href="#DejaVuSans-30" x="190.869141"/>
      </g>
     </g>
    </g>
    <g id="text_6">
     <!-- Score -->
     <g transform="translate(222.157656 335.860562)scale(0.1 -0.1)">
      <defs>
       <path id="DejaVuSans-53" d="M 3425 4513 
L 3425 3897 
Q 3066 4069 2747 4153 
Q 2428 4238 2131 4238 
Q 1616 4238 1336 4038 
Q 1056 3838 1056 3469 
Q 1056 3159 1242 3001 
Q 1428 2844 1947 2747 
L 2328 2669 
Q 3034 2534 3370 2195 
Q 3706 1856 3706 1288 
Q 3706 609 3251 259 
Q 2797 -91 1919 -91 
Q 1588 -91 1214 -16 
Q 841 59 441 206 
L 441 856 
Q 825 641 1194 531 
Q 1563 422 1919 422 
Q 2459 422 2753 634 
Q 3047 847 3047 1241 
Q 3047 1584 2836 1778 
Q 2625 1972 2144 2069 
L 1759 2144 
Q 1053 2284 737 2584 
Q 422 2884 422 3419 
Q 422 4038 858 4394 
Q 1294 4750 2059 4750 
Q 2388 4750 2728 4690 
Q 3069 4631 3425 4513 
z
" transform="scale(0.015625)"/>
       <path id="DejaVuSans-63" d="M 3122 3366 
L 3122 2828 
Q 2878 2963 2633 3030 
Q 2388 3097 2138 3097 
Q 1578 3097 1268 2742 
Q 959 2388 959 1747 
Q 959 1106 1268 751 
Q 1578 397 2138 397 
Q 2388 397 2633 464 
Q 2878 531 3122 666 
L 3122 134 
Q 2881 22 2623 -34 
Q 2366 -91 2075 -91 
Q 1284 -91 818 406 
Q 353 903 353 1747 
Q 353 2603 823 3093 
Q 1294 3584 2113 3584 
Q 2378 3584 2631 3529 
Q 2884 3475 3122 3366 
z
" transform="scale(0.015625)"/>
       <path id="DejaVuSans-6f" d="M 1959 3097 
Q 1497 3097 1228 2736 
Q 959 2375 959 1747 
Q 959 1119 1226 758 
Q 1494 397 1959 397 
Q 2419 397 2687 759 
Q 2956 1122 2956 1747 
Q 2956 2369 2687 2733 
Q 2419 3097 1959 3097 
z
M 1959 3584 
Q 2709 3584 3137 3096 
Q 3566 2609 3566 1747 
Q 3566 888 3137 398 
Q 2709 -91 1959 -91 
Q 1206 -91 779 398 
Q 353 888 353 1747 
Q 353 2609 779 3096 
Q 1206 3584 1959 3584 
z
" transform="scale(0.015625)"/>
       <path id="DejaVuSans-72" d="M 2631 2963 
Q 2534 3019 2420 3045 
Q 2306 3072 2169 3072 
Q 1681 3072 1420 2755 
Q 1159 2438 1159 1844 
L 1159 0 
L 581 0 
L 581 3500 
L 1159 3500 
L 1159 2956 
Q 1341 3275 1631 3429 
Q 1922 3584 2338 3584 
Q 2397 3584 2469 3576 
Q 2541 3569 2628 3553 
L 2631 2963 
z
" transform="scale(0.015625)"/>
       <path id="DejaVuSans-65" d="M 3597 1894 
L 3597 1613 
L 953 1613 
Q 991 1019 1311 708 
Q 1631 397 2203 397 
Q 2534 397 2845 478 
Q 3156 559 3463 722 
L 3463 178 
Q 3153 47 2828 -22 
Q 2503 -91 2169 -91 
Q 1331 -91 842 396 
Q 353 884 353 1716 
Q 353 2575 817 3079 
Q 1281 3584 2069 3584 
Q 2775 3584 3186 3129 
Q 3597 2675 3597 1894 
z
M 3022 2063 
Q 3016 2534 2758 2815 
Q 2500 3097 2075 3097 
Q 1594 3097 1305 2825 
Q 1016 2553 972 2059 
L 3022 2063 
z
" transform="scale(0.015625)"/>
      </defs>
      <use xlink:href="#DejaVuSans-53"/>
      <use xlink:href="#DejaVuSans-63" x="63.476562"/>
      <use xlink:href="#DejaVuSans-6f" x="118.457031"/>
      <use xlink:href="#DejaVuSans-72" x="179.638672"/>
      <use xlink:href="#DejaVuSans-65" x="218.501953"/>
     </g>
    </g>
   </g>
   <g id="matplotlib.axis_2">
    <g id="ytick_1">
     <g id="line2d_6">
      <defs>
       <path id="ma31352fb40" d="M 0 0 
L -3.5 0 
" style="stroke: #000000; stroke-width: 0.8"/>
      </defs>
      <g>
       <use xlink:href="#ma31352fb40" x="57.6" y="307.584" style="stroke: #000000; stroke-width: 0.8"/>
      </g>
     </g>
     <g id="text_7">
      <!-- 0 -->
      <g transform="translate(44.2375 311.383219)scale(0.1 -0.1)">
       <use xlink:href="#DejaVuSans-30"/>
      </g>
     </g>
    </g>
    <g id="ytick_2">
     <g id="line2d_7">
      <g>
       <use xlink:href="#ma31352fb40" x="57.6" y="273.792" style="stroke: #000000; stroke-width: 0.8"/>
      </g>
     </g>
     <g id="text_8">
      <!-- 50 -->
      <g transform="translate(37.875 277.591219)scale(0.1 -0.1)">
       <defs>
        <path id="DejaVuSans-35" d="M 691 4666 
L 3169 4666 
L 3169 4134 
L 1269 4134 
L 1269 2991 
Q 1406 3038 1543 3061 
Q 1681 3084 1819 3084 
Q 2600 3084 3056 2656 
Q 3513 2228 3513 1497 
Q 3513 744 3044 326 
Q 2575 -91 1722 -91 
Q 1428 -91 1123 -41 
Q 819 9 494 109 
L 494 744 
Q 775 591 1075 516 
Q 1375 441 1709 441 
Q 2250 441 2565 725 
Q 2881 1009 2881 1497 
Q 2881 1984 2565 2268 
Q 2250 2553 1709 2553 
Q 1456 2553 1204 2497 
Q 953 2441 691 2322 
L 691 4666 
z
" transform="scale(0.015625)"/>
       </defs>
       <use xlink:href="#DejaVuSans-35"/>
       <use xlink:href="#DejaVuSans-30" x="63.623047"/>
      </g>
     </g>
    </g>
    <g id="ytick_3">
     <g id="line2d_8">
      <g>
       <use xlink:href="#ma31352fb40" x="57.6" y="240" style="stroke: #000000; stroke-width: 0.8"/>
      </g>
     </g>
     <g id="text_9">
      <!-- 100 -->
      <g transform="translate(31.5125 243.799219)scale(0.1 -0.1)">
       <use xlink:href="#DejaVuSans-31"/>
       <use xlink:href="#DejaVuSans-30" x="63.623047"/>
       <use xlink:href="#DejaVuSans-30" x="127.246094"/>
      </g>
     </g>
    </g>
    <g id="ytick_4">
     <g id="line2d_9">
      <g>
       <use xlink:href="#ma31352fb40" x="57.6" y="206.208" style="stroke: #000000; stroke-width: 0.8"/>
      </g>
     </g>
     <g id="text_10">
      <!-- 150 -->
      <g transform="translate(31.5125 210.007219)scale(0.1 -0.1)">
       <use xlink:href="#DejaVuSans-31"/>
       <use xlink:href="#DejaVuSans-35" x="63.623047"/>
       <use xlink:href="#DejaVuSans-30" x="127.246094"/>
      </g>
     </g>
    </g>
    <g id="ytick_5">
     <g id="line2d_10">
      <g>
       <use xlink:href="#ma31352fb40" x="57.6" y="172.416" style="stroke: #000000; stroke-width: 0.8"/>
      </g>
     </g>
     <g id="text_11">
      <!-- 200 -->
      <g transform="translate(31.5125 176.215219)scale(0.1 -0.1)">
       <use xlink:href="#DejaVuSans-32"/>
       <use xlink:href="#DejaVuSans-30" x="63.623047"/>
       <use xlink:href="#DejaVuSans-30" x="127.246094"/>
      </g>
     </g>
    </g>
    <g id="ytick_6">
     <g id="line2d_11">
      <g>
       <use xlink:href="#ma31352fb40" x="57.6" y="138.624" style="stroke: #000000; stroke-width: 0.8"/>
      </g>
     </g>
     <g id="text_12">
      <!-- 250 -->
      <g transform="translate(31.5125 142.423219)scale(0.1 -0.1)">
       <use xlink:href="#DejaVuSans-32"/>
       <use xlink:href="#DejaVuSans-35" x="63.623047"/>
       <use xlink:href="#DejaVuSans-30" x="127.246094"/>
      </g>
     </g>
    </g>
    <g id="ytick_7">
     <g id="line2d_12">
      <g>
       <use xlink:href="#ma31352fb40" x="57.6" y="104.832" style="stroke: #000000; stroke-width: 0.8"/>
      </g>
     </g>
     <g id="text_13">
      <!-- 300 -->
      <g transform="translate(31.5125 108.631219)scale(0.1 -0.1)">
       <defs>
        <path id="DejaVuSans-33" d="M 2597 2516 
Q 3050 2419 3304 2112 
Q 3559 1806 3559 1356 
Q 3559 666 3084 287 
Q 2609 -91 1734 -91 
Q 1441 -91 1130 -33 
Q 819 25 488 141 
L 488 750 
Q 750 597 1062 519 
Q 1375 441 1716 441 
Q 2309 441 2620 675 
Q 2931 909 2931 1356 
Q 2931 1769 2642 2001 
Q 2353 2234 1838 2234 
L 1294 2234 
L 1294 2753 
L 1863 2753 
Q 2328 2753 2575 2939 
Q 2822 3125 2822 3475 
Q 2822 3834 2567 4026 
Q 2313 4219 1838 4219 
Q 1578 4219 1281 4162 
Q 984 4106 628 3988 
L 628 4550 
Q 988 4650 1302 4700 
Q 1616 4750 1894 4750 
Q 2613 4750 3031 4423 
Q 3450 4097 3450 3541 
Q 3450 3153 3228 2886 
Q 3006 2619 2597 2516 
z
" transform="scale(0.015625)"/>
       </defs>
       <use xlink:href="#DejaVuSans-33"/>
       <use xlink:href="#DejaVuSans-30" x="63.623047"/>
       <use xlink:href="#DejaVuSans-30" x="127.246094"/>
      </g>
     </g>
    </g>
    <g id="ytick_8">
     <g id="line2d_13">
      <g>
       <use xlink:href="#ma31352fb40" x="57.6" y="71.04" style="stroke: #000000; stroke-width: 0.8"/>
      </g>
     </g>
     <g id="text_14">
      <!-- 350 -->
      <g transform="translate(31.5125 74.839219)scale(0.1 -0.1)">
       <use xlink:href="#DejaVuSans-33"/>
       <use xlink:href="#DejaVuSans-35" x="63.623047"/>
       <use xlink:href="#DejaVuSans-30" x="127.246094"/>
      </g>
     </g>
    </g>
    <g id="text_15">
     <!-- Number of crosslinks -->
     <g transform="translate(25.432812 227.019406)rotate(-90)scale(0.1 -0.1)">
      <defs>
       <path id="DejaVuSans-4e" d="M 628 4666 
L 1478 4666 
L 3547 763 
L 3547 4666 
L 4159 4666 
L 4159 0 
L 3309 0 
L 1241 3903 
L 1241 0 
L 628 0 
L 628 4666 
z
" transform="scale(0.015625)"/>
       <path id="DejaVuSans-75" d="M 544 1381 
L 544 3500 
L 1119 3500 
L 1119 1403 
Q 1119 906 1312 657 
Q 1506 409 1894 409 
Q 2359 409 2629 706 
Q 2900 1003 2900 1516 
L 2900 3500 
L 3475 3500 
L 3475 0 
L 2900 0 
L 2900 538 
Q 2691 219 2414 64 
Q 2138 -91 1772 -91 
Q 1169 -91 856 284 
Q 544 659 544 1381 
z
M 1991 3584 
L 1991 3584 
z
" transform="scale(0.015625)"/>
       <path id="DejaVuSans-6d" d="M 3328 2828 
Q 3544 3216 3844 3400 
Q 4144 3584 4550 3584 
Q 5097 3584 5394 3201 
Q 5691 2819 5691 2113 
L 5691 0 
L 5113 0 
L 5113 2094 
Q 5113 2597 4934 2840 
Q 4756 3084 4391 3084 
Q 3944 3084 3684 2787 
Q 3425 2491 3425 1978 
L 3425 0 
L 2847 0 
L 2847 2094 
Q 2847 2600 2669 2842 
Q 2491 3084 2119 3084 
Q 1678 3084 1418 2786 
Q 1159 2488 1159 1978 
L 1159 0 
L 581 0 
L 581 3500 
L 1159 3500 
L 1159 2956 
Q 1356 3278 1631 3431 
Q 1906 3584 2284 3584 
Q 2666 3584 2933 3390 
Q 3200 3197 3328 2828 
z
" transform="scale(0.015625)"/>
       <path id="DejaVuSans-62" d="M 3116 1747 
Q 3116 2381 2855 2742 
Q 2594 3103 2138 3103 
Q 1681 3103 1420 2742 
Q 1159 2381 1159 1747 
Q 1159 1113 1420 752 
Q 1681 391 2138 391 
Q 2594 391 2855 752 
Q 3116 1113 3116 1747 
z
M 1159 2969 
Q 1341 3281 1617 3432 
Q 1894 3584 2278 3584 
Q 2916 3584 3314 3078 
Q 3713 2572 3713 1747 
Q 3713 922 3314 415 
Q 2916 -91 2278 -91 
Q 1894 -91 1617 61 
Q 1341 213 1159 525 
L 1159 0 
L 581 0 
L 581 4863 
L 1159 4863 
L 1159 2969 
z
" transform="scale(0.015625)"/>
       <path id="DejaVuSans-20" transform="scale(0.015625)"/>
       <path id="DejaVuSans-66" d="M 2375 4863 
L 2375 4384 
L 1825 4384 
Q 1516 4384 1395 4259 
Q 1275 4134 1275 3809 
L 1275 3500 
L 2222 3500 
L 2222 3053 
L 1275 3053 
L 1275 0 
L 697 0 
L 697 3053 
L 147 3053 
L 147 3500 
L 697 3500 
L 697 3744 
Q 697 4328 969 4595 
Q 1241 4863 1831 4863 
L 2375 4863 
z
" transform="scale(0.015625)"/>
       <path id="DejaVuSans-73" d="M 2834 3397 
L 2834 2853 
Q 2591 2978 2328 3040 
Q 2066 3103 1784 3103 
Q 1356 3103 1142 2972 
Q 928 2841 928 2578 
Q 928 2378 1081 2264 
Q 1234 2150 1697 2047 
L 1894 2003 
Q 2506 1872 2764 1633 
Q 3022 1394 3022 966 
Q 3022 478 2636 193 
Q 2250 -91 1575 -91 
Q 1294 -91 989 -36 
Q 684 19 347 128 
L 347 722 
Q 666 556 975 473 
Q 1284 391 1588 391 
Q 1994 391 2212 530 
Q 2431 669 2431 922 
Q 2431 1156 2273 1281 
Q 2116 1406 1581 1522 
L 1381 1569 
Q 847 1681 609 1914 
Q 372 2147 372 2553 
Q 372 3047 722 3315 
Q 1072 3584 1716 3584 
Q 2034 3584 2315 3537 
Q 2597 3491 2834 3397 
z
" transform="scale(0.015625)"/>
       <path id="DejaVuSans-6c" d="M 603 4863 
L 1178 4863 
L 1178 0 
L 603 0 
L 603 4863 
z
" transform="scale(0.015625)"/>
       <path id="DejaVuSans-69" d="M 603 3500 
L 1178 3500 
L 1178 0 
L 603 0 
L 603 3500 
z
M 603 4863 
L 1178 4863 
L 1178 4134 
L 603 4134 
L 603 4863 
z
" transform="scale(0.015625)"/>
       <path id="DejaVuSans-6e" d="M 3513 2113 
L 3513 0 
L 2938 0 
L 2938 2094 
Q 2938 2591 2744 2837 
Q 2550 3084 2163 3084 
Q 1697 3084 1428 2787 
Q 1159 2491 1159 1978 
L 1159 0 
L 581 0 
L 581 3500 
L 1159 3500 
L 1159 2956 
Q 1366 3272 1645 3428 
Q 1925 3584 2291 3584 
Q 2894 3584 3203 3211 
Q 3513 2838 3513 2113 
z
" transform="scale(0.015625)"/>
       <path id="DejaVuSans-6b" d="M 581 4863 
L 1159 4863 
L 1159 1991 
L 2875 3500 
L 3609 3500 
L 1753 1863 
L 3688 0 
L 2938 0 
L 1159 1709 
L 1159 0 
L 581 0 
L 581 4863 
z
" transform="scale(0.015625)"/>
      </defs>
      <use xlink:href="#DejaVuSans-4e"/>
      <use xlink:href="#DejaVuSans-75" x="74.804688"/>
      <use xlink:href="#DejaVuSans-6d" x="138.183594"/>
      <use xlink:href="#DejaVuSans-62" x="235.595703"/>
      <use xlink:href="#DejaVuSans-65" x="299.072266"/>
      <use xlink:href="#DejaVuSans-72" x="360.595703"/>
      <use xlink:href="#DejaVuSans-20" x="401.708984"/>
      <use xlink:href="#DejaVuSans-6f" x="433.496094"/>
      <use xlink:href="#DejaVuSans-66" x="494.677734"/>
      <use xlink:href="#DejaVuSans-20" x="529.882812"/>
      <use xlink:href="#DejaVuSans-63" x="561.669922"/>
      <use xlink:href="#DejaVuSans-72" x="616.650391"/>
      <use xlink:href="#DejaVuSans-6f" x="655.513672"/>
      <use xlink:href="#DejaVuSans-73" x="716.695312"/>
      <use xlink:href="#DejaVuSans-73" x="768.794922"/>
      <use xlink:href="#DejaVuSans-6c" x="820.894531"/>
      <use xlink:href="#DejaVuSans-69" x="848.677734"/>
      <use xlink:href="#DejaVuSans-6e" x="876.460938"/>
      <use xlink:href="#DejaVuSans-6b" x="939.839844"/>
      <use xlink:href="#DejaVuSans-73" x="997.75"/>
     </g>
    </g>
   </g>
   <g id="patch_3">
    <path d="M 57.6 307.584 
L 57.6 41.472 
" style="fill: none; stroke: #000000; stroke-width: 0.8; stroke-linejoin: miter; stroke-linecap: square"/>
   </g>
   <g id="patch_4">
    <path d="M 414.72 307.584 
L 414.72 41.472 
" style="fill: none; stroke: #000000; stroke-width: 0.8; stroke-linejoin: miter; stroke-linecap: square"/>
   </g>
   <g id="patch_5">
    <path d="M 57.6 307.584 
L 414.72 307.584 
" style="fill: none; stroke: #000000; stroke-width: 0.8; stroke-linejoin: miter; stroke-linecap: square"/>
   </g>
   <g id="patch_6">
    <path d="M 57.6 41.472 
L 414.72 41.472 
" style="fill: none; stroke: #000000; stroke-width: 0.8; stroke-linejoin: miter; stroke-linecap: square"/>
   </g>
   <g id="legend_1">
    <g id="patch_7">
     <path d="M 293.087188 93.506375 
L 407.72 93.506375 
Q 409.72 93.506375 409.72 91.506375 
L 409.72 48.472 
Q 409.72 46.472 407.72 46.472 
L 293.087188 46.472 
Q 291.087188 46.472 291.087188 48.472 
L 291.087188 91.506375 
Q 291.087188 93.506375 293.087188 93.506375 
z
" style="fill: #ffffff; opacity: 0.8; stroke: #cccccc; stroke-linejoin: miter"/>
    </g>
    <g id="patch_8">
     <path d="M 295.087188 58.070438 
L 315.087188 58.070438 
L 315.087188 51.070438 
L 295.087188 51.070438 
z
" style="fill: #008000"/>
    </g>
    <g id="text_16">
     <!-- true -->
     <g transform="translate(323.087188 58.070438)scale(0.1 -0.1)">
      <defs>
       <path id="DejaVuSans-74" d="M 1172 4494 
L 1172 3500 
L 2356 3500 
L 2356 3053 
L 1172 3053 
L 1172 1153 
Q 1172 725 1289 603 
Q 1406 481 1766 481 
L 2356 481 
L 2356 0 
L 1766 0 
Q 1100 0 847 248 
Q 594 497 594 1153 
L 594 3053 
L 172 3053 
L 172 3500 
L 594 3500 
L 594 4494 
L 1172 4494 
z
" transform="scale(0.015625)"/>
      </defs>
      <use xlink:href="#DejaVuSans-74"/>
      <use xlink:href="#DejaVuSans-72" x="39.208984"/>
      <use xlink:href="#DejaVuSans-75" x="80.322266"/>
      <use xlink:href="#DejaVuSans-65" x="143.701172"/>
     </g>
    </g>
    <g id="patch_9">
     <path d="M 295.087188 72.748563 
L 315.087188 72.748563 
L 315.087188 65.748563 
L 295.087188 65.748563 
z
" style="fill: #7cfc00"/>
    </g>
    <g id="text_17">
     <!-- true homeotypic -->
     <g transform="translate(323.087188 72.748563)scale(0.1 -0.1)">
      <defs>
       <path id="DejaVuSans-68" d="M 3513 2113 
L 3513 0 
L 2938 0 
L 2938 2094 
Q 2938 2591 2744 2837 
Q 2550 3084 2163 3084 
Q 1697 3084 1428 2787 
Q 1159 2491 1159 1978 
L 1159 0 
L 581 0 
L 581 4863 
L 1159 4863 
L 1159 2956 
Q 1366 3272 1645 3428 
Q 1925 3584 2291 3584 
Q 2894 3584 3203 3211 
Q 3513 2838 3513 2113 
z
" transform="scale(0.015625)"/>
       <path id="DejaVuSans-79" d="M 2059 -325 
Q 1816 -950 1584 -1140 
Q 1353 -1331 966 -1331 
L 506 -1331 
L 506 -850 
L 844 -850 
Q 1081 -850 1212 -737 
Q 1344 -625 1503 -206 
L 1606 56 
L 191 3500 
L 800 3500 
L 1894 763 
L 2988 3500 
L 3597 3500 
L 2059 -325 
z
" transform="scale(0.015625)"/>
       <path id="DejaVuSans-70" d="M 1159 525 
L 1159 -1331 
L 581 -1331 
L 581 3500 
L 1159 3500 
L 1159 2969 
Q 1341 3281 1617 3432 
Q 1894 3584 2278 3584 
Q 2916 3584 3314 3078 
Q 3713 2572 3713 1747 
Q 3713 922 3314 415 
Q 2916 -91 2278 -91 
Q 1894 -91 1617 61 
Q 1341 213 1159 525 
z
M 3116 1747 
Q 3116 2381 2855 2742 
Q 2594 3103 2138 3103 
Q 1681 3103 1420 2742 
Q 1159 2381 1159 1747 
Q 1159 1113 1420 752 
Q 1681 391 2138 391 
Q 2594 391 2855 752 
Q 3116 1113 3116 1747 
z
" transform="scale(0.015625)"/>
      </defs>
      <use xlink:href="#DejaVuSans-74"/>
      <use xlink:href="#DejaVuSans-72" x="39.208984"/>
      <use xlink:href="#DejaVuSans-75" x="80.322266"/>
      <use xlink:href="#DejaVuSans-65" x="143.701172"/>
      <use xlink:href="#DejaVuSans-20" x="205.224609"/>
      <use xlink:href="#DejaVuSans-68" x="237.011719"/>
      <use xlink:href="#DejaVuSans-6f" x="300.390625"/>
      <use xlink:href="#DejaVuSans-6d" x="361.572266"/>
      <use xlink:href="#DejaVuSans-65" x="458.984375"/>
      <use xlink:href="#DejaVuSans-6f" x="520.507812"/>
      <use xlink:href="#DejaVuSans-74" x="581.689453"/>
      <use xlink:href="#DejaVuSans-79" x="620.898438"/>
      <use xlink:href="#DejaVuSans-70" x="680.078125"/>
      <use xlink:href="#DejaVuSans-69" x="743.554688"/>
      <use xlink:href="#DejaVuSans-63" x="771.337891"/>
     </g>
    </g>
    <g id="patch_10">
     <path d="M 295.087188 87.426688 
L 315.087188 87.426688 
L 315.087188 80.426688 
L 295.087188 80.426688 
z
" style="fill: #ff0000"/>
    </g>
    <g id="text_18">
     <!-- false -->
     <g transform="translate(323.087188 87.426688)scale(0.1 -0.1)">
      <defs>
       <path id="DejaVuSans-61" d="M 2194 1759 
Q 1497 1759 1228 1600 
Q 959 1441 959 1056 
Q 959 750 1161 570 
Q 1363 391 1709 391 
Q 2188 391 2477 730 
Q 2766 1069 2766 1631 
L 2766 1759 
L 2194 1759 
z
M 3341 1997 
L 3341 0 
L 2766 0 
L 2766 531 
Q 2569 213 2275 61 
Q 1981 -91 1556 -91 
Q 1019 -91 701 211 
Q 384 513 384 1019 
Q 384 1609 779 1909 
Q 1175 2209 1959 2209 
L 2766 2209 
L 2766 2266 
Q 2766 2663 2505 2880 
Q 2244 3097 1772 3097 
Q 1472 3097 1187 3025 
Q 903 2953 641 2809 
L 641 3341 
Q 956 3463 1253 3523 
Q 1550 3584 1831 3584 
Q 2591 3584 2966 3190 
Q 3341 2797 3341 1997 
z
" transform="scale(0.015625)"/>
      </defs>
      <use xlink:href="#DejaVuSans-66"/>
      <use xlink:href="#DejaVuSans-61" x="35.205078"/>
      <use xlink:href="#DejaVuSans-6c" x="96.484375"/>
      <use xlink:href="#DejaVuSans-73" x="124.267578"/>
      <use xlink:href="#DejaVuSans-65" x="176.367188"/>
     </g>
    </g>
   </g>
  </g>
 </g>
 <defs>
  <clipPath id="pced368bab1">
   <rect x="57.6" y="41.472" width="357.12" height="266.112"/>
  </clipPath>
 </defs>
</svg>
