<?xml version="1.0" encoding="utf-8" standalone="no"?>
<!DOCTYPE svg PUBLIC "-//W3C//DTD SVG 1.1//EN"
  "http://www.w3.org/Graphics/SVG/1.1/DTD/svg11.dtd">
<svg xmlns:xlink="http://www.w3.org/1999/xlink" width="460.8pt" height="345.6pt" viewBox="0 0 460.8 345.6" xmlns="http://www.w3.org/2000/svg" version="1.1">
 <metadata>
  <rdf:RDF xmlns:dc="http://purl.org/dc/elements/1.1/" xmlns:cc="http://creativecommons.org/ns#" xmlns:rdf="http://www.w3.org/1999/02/22-rdf-syntax-ns#">
   <cc:Work>
    <dc:type rdf:resource="http://purl.org/dc/dcmitype/StillImage"/>
    <dc:date>2022-08-10T16:21:48.712941</dc:date>
    <dc:format>image/svg+xml</dc:format>
    <dc:creator>
     <cc:Agent>
      <dc:title>Matplotlib v3.5.1, https://matplotlib.org/</dc:title>
     </cc:Agent>
    </dc:creator>
   </cc:Work>
  </rdf:RDF>
 </metadata>
 <defs>
  <style type="text/css">*{stroke-linejoin: round; stroke-linecap: butt}</style>
 </defs>
 <g id="figure_1">
  <g id="patch_1">
   <path d="M 0 345.6 
L 460.8 345.6 
L 460.8 0 
L 0 0 
z
" style="fill: #ffffff"/>
  </g>
  <g id="axes_1">
   <g id="patch_2">
    <path d="M 57.6 307.584 
L 414.72 307.584 
L 414.72 41.472 
L 57.6 41.472 
z
" style="fill: #ffffff"/>
   </g>
   <g id="PolyCollection_1">
    <path d="M 73.832727 70.184506 
L 73.832727 307.584 
L 77.770652 307.584 
L 78.064161 307.584 
L 89.837169 307.584 
L 90.799229 307.584 
L 90.929678 307.584 
L 94.484409 307.584 
L 103.689205 307.584 
L 106.632457 307.584 
L 107.04011 307.584 
L 113.440256 307.584 
L 115.502978 307.584 
L 123.973999 307.584 
L 127.275986 307.584 
L 128.719076 307.584 
L 132.257501 307.584 
L 134.075631 307.584 
L 137.01073 307.584 
L 139.269126 307.584 
L 147.903208 307.584 
L 148.090728 307.584 
L 149.158778 307.584 
L 149.21585 307.584 
L 149.794716 307.584 
L 150.44696 307.584 
L 154.662088 307.584 
L 155.762751 307.584 
L 159.439777 307.584 
L 160.524133 307.584 
L 160.939939 307.584 
L 161.559571 307.584 
L 162.700998 307.584 
L 162.806988 307.584 
L 166.272035 307.584 
L 167.250401 307.584 
L 168.628267 307.584 
L 168.987002 307.584 
L 169.484338 307.584 
L 169.680011 307.584 
L 171.163866 307.584 
L 171.530754 307.584 
L 176.830238 307.584 
L 177.841216 307.584 
L 179.325072 307.584 
L 180.425734 307.584 
L 181.501937 307.584 
L 182.088957 307.584 
L 182.47215 307.584 
L 182.586293 307.584 
L 182.700436 307.584 
L 183.132547 307.584 
L 185.121892 307.584 
L 185.162657 307.584 
L 185.692606 307.584 
L 188.105909 307.584 
L 194.832178 307.584 
L 194.938167 307.584 
L 195.761625 307.584 
L 196.291574 307.584 
L 199.438652 307.584 
L 200.84913 307.584 
L 202.871087 307.584 
L 203.670086 307.584 
L 205.259932 307.584 
L 206.409512 307.584 
L 206.947613 307.584 
L 209.132631 307.584 
L 212.271557 307.584 
L 212.589526 307.584 
L 213.592351 307.584 
L 214.562564 307.584 
L 214.921299 307.584 
L 214.97837 307.584 
L 215.320798 307.584 
L 215.850747 307.584 
L 216.356236 307.584 
L 217.155235 307.584 
L 219.095661 307.584 
L 221.598648 307.584 
L 223.245565 307.584 
L 223.57984 307.584 
L 225.226757 307.584 
L 226.351878 307.584 
L 226.718765 307.584 
L 227.697132 307.584 
L 228.22708 307.584 
L 228.969008 307.584 
L 229.034232 307.584 
L 230.493629 307.584 
L 230.860516 307.584 
L 230.884975 307.584 
L 231.496454 307.584 
L 233.616248 307.584 
L 234.700604 307.584 
L 234.773981 307.584 
L 234.920736 307.584 
L 236.168153 307.584 
L 237.456335 307.584 
L 237.839529 307.584 
L 239.576129 307.584 
L 239.763649 307.584 
L 240.301751 307.584 
L 242.984105 307.584 
L 243.864634 307.584 
L 244.296746 307.584 
L 245.258806 307.584 
L 245.397408 307.584 
L 245.805061 307.584 
L 246.033346 307.584 
L 246.530683 307.584 
L 246.962794 307.584 
L 247.019866 307.584 
L 247.492743 307.584 
L 248.006385 307.584 
L 248.161293 307.584 
L 250.313699 307.584 
L 250.501219 307.584 
L 250.517525 307.584 
L 251.911697 307.584 
L 252.270431 307.584 
L 254.773419 307.584 
L 255.759938 307.584 
L 256.526325 307.584 
L 256.738304 307.584 
L 260.015831 307.584 
L 261.255095 307.584 
L 262.902012 307.584 
L 263.171063 307.584 
L 264.214653 307.584 
L 264.663071 307.584 
L 264.964734 307.584 
L 265.046265 307.584 
L 265.27455 307.584 
L 265.388693 307.584 
L 265.519142 307.584 
L 267.744925 307.584 
L 268.397169 307.584 
L 269.065719 307.584 
L 271.152901 307.584 
L 274.405969 307.584 
L 275.677845 307.584 
L 279.183657 307.584 
L 282.10245 307.584 
L 283.798285 307.584 
L 284.303774 307.584 
L 287.81774 307.584 
L 288.812412 307.584 
L 288.959167 307.584 
L 318.302003 307.584 
L 334.493965 307.584 
L 347.644838 307.584 
L 349.259143 307.584 
L 366.437624 307.584 
L 398.487273 307.584 
L 398.487273 305.979949 
L 398.487273 305.979949 
L 366.437624 304.375899 
L 349.259143 302.771848 
L 347.644838 301.167797 
L 334.493965 299.563747 
L 318.302003 297.959696 
L 288.959167 296.355646 
L 288.812412 294.751595 
L 287.81774 293.147544 
L 284.303774 291.543494 
L 283.798285 289.939443 
L 282.10245 288.335392 
L 279.183657 286.731342 
L 275.677845 285.127291 
L 274.405969 283.523241 
L 271.152901 281.91919 
L 269.065719 280.315139 
L 268.397169 278.711089 
L 267.744925 277.107038 
L 265.519142 275.502987 
L 265.388693 273.898937 
L 265.27455 272.294886 
L 265.046265 270.690835 
L 264.964734 269.086785 
L 264.663071 267.482734 
L 264.214653 265.878684 
L 263.171063 264.274633 
L 262.902012 262.670582 
L 261.255095 261.066532 
L 260.015831 259.462481 
L 256.738304 257.85843 
L 256.526325 256.25438 
L 255.759938 254.650329 
L 254.773419 253.046278 
L 252.270431 251.442228 
L 251.911697 249.838177 
L 250.517525 248.234127 
L 250.501219 246.630076 
L 250.313699 245.026025 
L 248.161293 243.421975 
L 248.006385 241.817924 
L 247.492743 240.213873 
L 247.019866 238.609823 
L 246.962794 237.005772 
L 246.530683 235.401722 
L 246.033346 233.797671 
L 245.805061 232.19362 
L 245.397408 230.58957 
L 245.258806 228.985519 
L 244.296746 227.381468 
L 243.864634 225.777418 
L 242.984105 224.173367 
L 240.301751 222.569316 
L 239.763649 220.965266 
L 239.576129 219.361215 
L 237.839529 217.757165 
L 237.456335 216.153114 
L 236.168153 214.549063 
L 234.920736 212.945013 
L 234.773981 211.340962 
L 234.700604 209.736911 
L 233.616248 208.132861 
L 231.496454 206.52881 
L 230.884975 204.924759 
L 230.860516 203.320709 
L 230.493629 201.716658 
L 229.034232 200.112608 
L 228.969008 198.508557 
L 228.22708 196.904506 
L 227.697132 195.300456 
L 226.718765 193.696405 
L 226.351878 190.488304 
L 225.226757 188.884253 
L 223.57984 187.280203 
L 223.245565 184.072101 
L 221.598648 182.468051 
L 219.095661 180.864 
L 217.155235 180.864 
L 216.356236 179.259949 
L 215.850747 177.655899 
L 215.320798 176.051848 
L 214.97837 174.447797 
L 214.921299 172.843747 
L 214.562564 171.239696 
L 213.592351 169.635646 
L 212.589526 168.031595 
L 212.271557 166.427544 
L 209.132631 164.823494 
L 206.947613 163.219443 
L 206.409512 161.615392 
L 205.259932 160.011342 
L 203.670086 158.407291 
L 202.871087 156.803241 
L 200.84913 153.595139 
L 199.438652 151.991089 
L 196.291574 150.387038 
L 195.761625 148.782987 
L 194.938167 147.178937 
L 194.832178 145.574886 
L 188.105909 143.970835 
L 185.692606 142.366785 
L 185.162657 140.762734 
L 185.121892 139.158684 
L 183.132547 137.554633 
L 182.700436 135.950582 
L 182.586293 134.346532 
L 182.47215 132.742481 
L 182.088957 131.13843 
L 181.501937 129.53438 
L 180.425734 127.930329 
L 179.325072 126.326278 
L 177.841216 124.722228 
L 176.830238 123.118177 
L 171.530754 121.514127 
L 171.163866 119.910076 
L 169.680011 119.910076 
L 169.484338 118.306025 
L 168.987002 116.701975 
L 168.628267 115.097924 
L 167.250401 113.493873 
L 166.272035 111.889823 
L 162.806988 110.285772 
L 162.700998 108.681722 
L 161.559571 107.077671 
L 160.939939 105.47362 
L 160.524133 103.86957 
L 159.439777 102.265519 
L 155.762751 100.661468 
L 154.662088 99.057418 
L 150.44696 97.453367 
L 149.794716 97.453367 
L 149.21585 97.453367 
L 149.158778 95.849316 
L 148.090728 94.245266 
L 147.903208 94.245266 
L 139.269126 92.641215 
L 137.01073 91.037165 
L 134.075631 89.433114 
L 132.257501 87.829063 
L 128.719076 86.225013 
L 127.275986 84.620962 
L 123.973999 84.620962 
L 115.502978 83.016911 
L 113.440256 81.412861 
L 107.04011 81.412861 
L 106.632457 79.80881 
L 103.689205 79.80881 
L 94.484409 78.204759 
L 90.929678 76.600709 
L 90.799229 76.600709 
L 89.837169 74.996658 
L 78.064161 73.392608 
L 77.770652 71.788557 
L 73.832727 70.184506 
z
" clip-path="url(#p1ffae644fe)" style="fill: #008000"/>
   </g>
   <g id="PolyCollection_2">
    <path d="M 73.832727 70.184506 
L 73.832727 70.184506 
L 77.770652 71.788557 
L 78.064161 73.392608 
L 89.837169 74.996658 
L 90.799229 76.600709 
L 90.929678 76.600709 
L 94.484409 78.204759 
L 103.689205 79.80881 
L 106.632457 79.80881 
L 107.04011 81.412861 
L 113.440256 81.412861 
L 115.502978 83.016911 
L 123.973999 84.620962 
L 127.275986 84.620962 
L 128.719076 86.225013 
L 132.257501 87.829063 
L 134.075631 89.433114 
L 137.01073 91.037165 
L 139.269126 92.641215 
L 147.903208 94.245266 
L 148.090728 94.245266 
L 149.158778 95.849316 
L 149.21585 97.453367 
L 149.794716 97.453367 
L 150.44696 97.453367 
L 154.662088 99.057418 
L 155.762751 100.661468 
L 159.439777 102.265519 
L 160.524133 103.86957 
L 160.939939 105.47362 
L 161.559571 107.077671 
L 162.700998 108.681722 
L 162.806988 110.285772 
L 166.272035 111.889823 
L 167.250401 113.493873 
L 168.628267 115.097924 
L 168.987002 116.701975 
L 169.484338 118.306025 
L 169.680011 119.910076 
L 171.163866 119.910076 
L 171.530754 121.514127 
L 176.830238 123.118177 
L 177.841216 124.722228 
L 179.325072 126.326278 
L 180.425734 127.930329 
L 181.501937 129.53438 
L 182.088957 131.13843 
L 182.47215 132.742481 
L 182.586293 134.346532 
L 182.700436 135.950582 
L 183.132547 137.554633 
L 185.121892 139.158684 
L 185.162657 140.762734 
L 185.692606 142.366785 
L 188.105909 143.970835 
L 194.832178 145.574886 
L 194.938167 147.178937 
L 195.761625 148.782987 
L 196.291574 150.387038 
L 199.438652 151.991089 
L 200.84913 153.595139 
L 202.871087 156.803241 
L 203.670086 158.407291 
L 205.259932 160.011342 
L 206.409512 161.615392 
L 206.947613 163.219443 
L 209.132631 164.823494 
L 212.271557 166.427544 
L 212.589526 168.031595 
L 213.592351 169.635646 
L 214.562564 171.239696 
L 214.921299 172.843747 
L 214.97837 174.447797 
L 215.320798 176.051848 
L 215.850747 177.655899 
L 216.356236 179.259949 
L 217.155235 180.864 
L 219.095661 180.864 
L 221.598648 182.468051 
L 223.245565 184.072101 
L 223.57984 187.280203 
L 225.226757 188.884253 
L 226.351878 190.488304 
L 226.718765 193.696405 
L 227.697132 195.300456 
L 228.22708 196.904506 
L 228.969008 198.508557 
L 229.034232 200.112608 
L 230.493629 201.716658 
L 230.860516 203.320709 
L 230.884975 204.924759 
L 231.496454 206.52881 
L 233.616248 208.132861 
L 234.700604 209.736911 
L 234.773981 211.340962 
L 234.920736 212.945013 
L 236.168153 214.549063 
L 237.456335 216.153114 
L 237.839529 217.757165 
L 239.576129 219.361215 
L 239.763649 220.965266 
L 240.301751 222.569316 
L 242.984105 224.173367 
L 243.864634 225.777418 
L 244.296746 227.381468 
L 245.258806 228.985519 
L 245.397408 230.58957 
L 245.805061 232.19362 
L 246.033346 233.797671 
L 246.530683 235.401722 
L 246.962794 237.005772 
L 247.019866 238.609823 
L 247.492743 240.213873 
L 248.006385 241.817924 
L 248.161293 243.421975 
L 250.313699 245.026025 
L 250.501219 246.630076 
L 250.517525 248.234127 
L 251.911697 249.838177 
L 252.270431 251.442228 
L 254.773419 253.046278 
L 255.759938 254.650329 
L 256.526325 256.25438 
L 256.738304 257.85843 
L 260.015831 259.462481 
L 261.255095 261.066532 
L 262.902012 262.670582 
L 263.171063 264.274633 
L 264.214653 265.878684 
L 264.663071 267.482734 
L 264.964734 269.086785 
L 265.046265 270.690835 
L 265.27455 272.294886 
L 265.388693 273.898937 
L 265.519142 275.502987 
L 267.744925 277.107038 
L 268.397169 278.711089 
L 269.065719 280.315139 
L 271.152901 281.91919 
L 274.405969 283.523241 
L 275.677845 285.127291 
L 279.183657 286.731342 
L 282.10245 288.335392 
L 283.798285 289.939443 
L 284.303774 291.543494 
L 287.81774 293.147544 
L 288.812412 294.751595 
L 288.959167 296.355646 
L 318.302003 297.959696 
L 334.493965 299.563747 
L 347.644838 301.167797 
L 349.259143 302.771848 
L 366.437624 304.375899 
L 398.487273 305.979949 
L 398.487273 305.979949 
L 398.487273 305.979949 
L 366.437624 304.375899 
L 349.259143 302.771848 
L 347.644838 301.167797 
L 334.493965 299.563747 
L 318.302003 297.959696 
L 288.959167 296.355646 
L 288.812412 294.751595 
L 287.81774 293.147544 
L 284.303774 291.543494 
L 283.798285 289.939443 
L 282.10245 288.335392 
L 279.183657 286.731342 
L 275.677845 285.127291 
L 274.405969 283.523241 
L 271.152901 281.91919 
L 269.065719 280.315139 
L 268.397169 278.711089 
L 267.744925 277.107038 
L 265.519142 275.502987 
L 265.388693 273.898937 
L 265.27455 272.294886 
L 265.046265 270.690835 
L 264.964734 269.086785 
L 264.663071 267.482734 
L 264.214653 265.878684 
L 263.171063 264.274633 
L 262.902012 262.670582 
L 261.255095 261.066532 
L 260.015831 259.462481 
L 256.738304 257.85843 
L 256.526325 256.25438 
L 255.759938 254.650329 
L 254.773419 253.046278 
L 252.270431 251.442228 
L 251.911697 249.838177 
L 250.517525 248.234127 
L 250.501219 246.630076 
L 250.313699 245.026025 
L 248.161293 243.421975 
L 248.006385 241.817924 
L 247.492743 240.213873 
L 247.019866 238.609823 
L 246.962794 237.005772 
L 246.530683 235.401722 
L 246.033346 233.797671 
L 245.805061 232.19362 
L 245.397408 230.58957 
L 245.258806 228.985519 
L 244.296746 227.381468 
L 243.864634 225.777418 
L 242.984105 224.173367 
L 240.301751 222.569316 
L 239.763649 220.965266 
L 239.576129 219.361215 
L 237.839529 217.757165 
L 237.456335 216.153114 
L 236.168153 214.549063 
L 234.920736 212.945013 
L 234.773981 211.340962 
L 234.700604 209.736911 
L 233.616248 208.132861 
L 231.496454 206.52881 
L 230.884975 204.924759 
L 230.860516 203.320709 
L 230.493629 201.716658 
L 229.034232 200.112608 
L 228.969008 198.508557 
L 228.22708 196.904506 
L 227.697132 195.300456 
L 226.718765 193.696405 
L 226.351878 190.488304 
L 225.226757 188.884253 
L 223.57984 187.280203 
L 223.245565 184.072101 
L 221.598648 182.468051 
L 219.095661 180.864 
L 217.155235 180.864 
L 216.356236 179.259949 
L 215.850747 177.655899 
L 215.320798 176.051848 
L 214.97837 174.447797 
L 214.921299 172.843747 
L 214.562564 171.239696 
L 213.592351 169.635646 
L 212.589526 168.031595 
L 212.271557 166.427544 
L 209.132631 164.823494 
L 206.947613 163.219443 
L 206.409512 161.615392 
L 205.259932 160.011342 
L 203.670086 158.407291 
L 202.871087 156.803241 
L 200.84913 153.595139 
L 199.438652 151.991089 
L 196.291574 150.387038 
L 195.761625 148.782987 
L 194.938167 147.178937 
L 194.832178 145.574886 
L 188.105909 143.970835 
L 185.692606 142.366785 
L 185.162657 140.762734 
L 185.121892 139.158684 
L 183.132547 137.554633 
L 182.700436 135.950582 
L 182.586293 134.346532 
L 182.47215 132.742481 
L 182.088957 131.13843 
L 181.501937 129.53438 
L 180.425734 127.930329 
L 179.325072 126.326278 
L 177.841216 124.722228 
L 176.830238 123.118177 
L 171.530754 121.514127 
L 171.163866 119.910076 
L 169.680011 119.910076 
L 169.484338 118.306025 
L 168.987002 116.701975 
L 168.628267 115.097924 
L 167.250401 113.493873 
L 166.272035 111.889823 
L 162.806988 110.285772 
L 162.700998 108.681722 
L 161.559571 107.077671 
L 160.939939 105.47362 
L 160.524133 103.86957 
L 159.439777 102.265519 
L 155.762751 100.661468 
L 154.662088 99.057418 
L 150.44696 97.453367 
L 149.794716 97.453367 
L 149.21585 97.453367 
L 149.158778 95.849316 
L 148.090728 94.245266 
L 147.903208 94.245266 
L 139.269126 92.641215 
L 137.01073 91.037165 
L 134.075631 89.433114 
L 132.257501 87.829063 
L 128.719076 86.225013 
L 127.275986 84.620962 
L 123.973999 84.620962 
L 115.502978 83.016911 
L 113.440256 81.412861 
L 107.04011 81.412861 
L 106.632457 79.80881 
L 103.689205 79.80881 
L 94.484409 78.204759 
L 90.929678 76.600709 
L 90.799229 76.600709 
L 89.837169 74.996658 
L 78.064161 73.392608 
L 77.770652 71.788557 
L 73.832727 70.184506 
z
" clip-path="url(#p1ffae644fe)" style="fill: #7cfc00"/>
   </g>
   <g id="PolyCollection_3">
    <path d="M 73.832727 54.144 
L 73.832727 70.184506 
L 77.770652 71.788557 
L 78.064161 73.392608 
L 89.837169 74.996658 
L 90.799229 76.600709 
L 90.929678 76.600709 
L 94.484409 78.204759 
L 103.689205 79.80881 
L 106.632457 79.80881 
L 107.04011 81.412861 
L 113.440256 81.412861 
L 115.502978 83.016911 
L 123.973999 84.620962 
L 127.275986 84.620962 
L 128.719076 86.225013 
L 132.257501 87.829063 
L 134.075631 89.433114 
L 137.01073 91.037165 
L 139.269126 92.641215 
L 147.903208 94.245266 
L 148.090728 94.245266 
L 149.158778 95.849316 
L 149.21585 97.453367 
L 149.794716 97.453367 
L 150.44696 97.453367 
L 154.662088 99.057418 
L 155.762751 100.661468 
L 159.439777 102.265519 
L 160.524133 103.86957 
L 160.939939 105.47362 
L 161.559571 107.077671 
L 162.700998 108.681722 
L 162.806988 110.285772 
L 166.272035 111.889823 
L 167.250401 113.493873 
L 168.628267 115.097924 
L 168.987002 116.701975 
L 169.484338 118.306025 
L 169.680011 119.910076 
L 171.163866 119.910076 
L 171.530754 121.514127 
L 176.830238 123.118177 
L 177.841216 124.722228 
L 179.325072 126.326278 
L 180.425734 127.930329 
L 181.501937 129.53438 
L 182.088957 131.13843 
L 182.47215 132.742481 
L 182.586293 134.346532 
L 182.700436 135.950582 
L 183.132547 137.554633 
L 185.121892 139.158684 
L 185.162657 140.762734 
L 185.692606 142.366785 
L 188.105909 143.970835 
L 194.832178 145.574886 
L 194.938167 147.178937 
L 195.761625 148.782987 
L 196.291574 150.387038 
L 199.438652 151.991089 
L 200.84913 153.595139 
L 202.871087 156.803241 
L 203.670086 158.407291 
L 205.259932 160.011342 
L 206.409512 161.615392 
L 206.947613 163.219443 
L 209.132631 164.823494 
L 212.271557 166.427544 
L 212.589526 168.031595 
L 213.592351 169.635646 
L 214.562564 171.239696 
L 214.921299 172.843747 
L 214.97837 174.447797 
L 215.320798 176.051848 
L 215.850747 177.655899 
L 216.356236 179.259949 
L 217.155235 180.864 
L 219.095661 180.864 
L 221.598648 182.468051 
L 223.245565 184.072101 
L 223.57984 187.280203 
L 225.226757 188.884253 
L 226.351878 190.488304 
L 226.718765 193.696405 
L 227.697132 195.300456 
L 228.22708 196.904506 
L 228.969008 198.508557 
L 229.034232 200.112608 
L 230.493629 201.716658 
L 230.860516 203.320709 
L 230.884975 204.924759 
L 231.496454 206.52881 
L 233.616248 208.132861 
L 234.700604 209.736911 
L 234.773981 211.340962 
L 234.920736 212.945013 
L 236.168153 214.549063 
L 237.456335 216.153114 
L 237.839529 217.757165 
L 239.576129 219.361215 
L 239.763649 220.965266 
L 240.301751 222.569316 
L 242.984105 224.173367 
L 243.864634 225.777418 
L 244.296746 227.381468 
L 245.258806 228.985519 
L 245.397408 230.58957 
L 245.805061 232.19362 
L 246.033346 233.797671 
L 246.530683 235.401722 
L 246.962794 237.005772 
L 247.019866 238.609823 
L 247.492743 240.213873 
L 248.006385 241.817924 
L 248.161293 243.421975 
L 250.313699 245.026025 
L 250.501219 246.630076 
L 250.517525 248.234127 
L 251.911697 249.838177 
L 252.270431 251.442228 
L 254.773419 253.046278 
L 255.759938 254.650329 
L 256.526325 256.25438 
L 256.738304 257.85843 
L 260.015831 259.462481 
L 261.255095 261.066532 
L 262.902012 262.670582 
L 263.171063 264.274633 
L 264.214653 265.878684 
L 264.663071 267.482734 
L 264.964734 269.086785 
L 265.046265 270.690835 
L 265.27455 272.294886 
L 265.388693 273.898937 
L 265.519142 275.502987 
L 267.744925 277.107038 
L 268.397169 278.711089 
L 269.065719 280.315139 
L 271.152901 281.91919 
L 274.405969 283.523241 
L 275.677845 285.127291 
L 279.183657 286.731342 
L 282.10245 288.335392 
L 283.798285 289.939443 
L 284.303774 291.543494 
L 287.81774 293.147544 
L 288.812412 294.751595 
L 288.959167 296.355646 
L 318.302003 297.959696 
L 334.493965 299.563747 
L 347.644838 301.167797 
L 349.259143 302.771848 
L 366.437624 304.375899 
L 398.487273 305.979949 
L 398.487273 305.979949 
L 398.487273 305.979949 
L 366.437624 304.375899 
L 349.259143 302.771848 
L 347.644838 301.167797 
L 334.493965 299.563747 
L 318.302003 297.959696 
L 288.959167 296.355646 
L 288.812412 294.751595 
L 287.81774 293.147544 
L 284.303774 291.543494 
L 283.798285 289.939443 
L 282.10245 288.335392 
L 279.183657 286.731342 
L 275.677845 285.127291 
L 274.405969 283.523241 
L 271.152901 281.91919 
L 269.065719 280.315139 
L 268.397169 278.711089 
L 267.744925 277.107038 
L 265.519142 275.502987 
L 265.388693 273.898937 
L 265.27455 272.294886 
L 265.046265 270.690835 
L 264.964734 269.086785 
L 264.663071 267.482734 
L 264.214653 265.878684 
L 263.171063 264.274633 
L 262.902012 262.670582 
L 261.255095 261.066532 
L 260.015831 259.462481 
L 256.738304 257.85843 
L 256.526325 256.25438 
L 255.759938 254.650329 
L 254.773419 253.046278 
L 252.270431 251.442228 
L 251.911697 249.838177 
L 250.517525 248.234127 
L 250.501219 246.630076 
L 250.313699 245.026025 
L 248.161293 243.421975 
L 248.006385 241.817924 
L 247.492743 238.609823 
L 247.019866 237.005772 
L 246.962794 235.401722 
L 246.530683 233.797671 
L 246.033346 232.19362 
L 245.805061 230.58957 
L 245.397408 228.985519 
L 245.258806 227.381468 
L 244.296746 225.777418 
L 243.864634 224.173367 
L 242.984105 222.569316 
L 240.301751 220.965266 
L 239.763649 219.361215 
L 239.576129 217.757165 
L 237.839529 216.153114 
L 237.456335 214.549063 
L 236.168153 212.945013 
L 234.920736 211.340962 
L 234.773981 209.736911 
L 234.700604 208.132861 
L 233.616248 206.52881 
L 231.496454 204.924759 
L 230.884975 203.320709 
L 230.860516 201.716658 
L 230.493629 200.112608 
L 229.034232 198.508557 
L 228.969008 196.904506 
L 228.22708 195.300456 
L 227.697132 193.696405 
L 226.718765 192.092354 
L 226.351878 188.884253 
L 225.226757 187.280203 
L 223.57984 185.676152 
L 223.245565 182.468051 
L 221.598648 180.864 
L 219.095661 179.259949 
L 217.155235 177.655899 
L 216.356236 176.051848 
L 215.850747 174.447797 
L 215.320798 172.843747 
L 214.97837 171.239696 
L 214.921299 169.635646 
L 214.562564 168.031595 
L 213.592351 166.427544 
L 212.589526 164.823494 
L 212.271557 163.219443 
L 209.132631 161.615392 
L 206.947613 160.011342 
L 206.409512 158.407291 
L 205.259932 156.803241 
L 203.670086 155.19919 
L 202.871087 153.595139 
L 200.84913 150.387038 
L 199.438652 148.782987 
L 196.291574 147.178937 
L 195.761625 145.574886 
L 194.938167 143.970835 
L 194.832178 142.366785 
L 188.105909 140.762734 
L 185.692606 139.158684 
L 185.162657 137.554633 
L 185.121892 135.950582 
L 183.132547 134.346532 
L 182.700436 132.742481 
L 182.586293 131.13843 
L 182.47215 129.53438 
L 182.088957 127.930329 
L 181.501937 126.326278 
L 180.425734 124.722228 
L 179.325072 123.118177 
L 177.841216 121.514127 
L 176.830238 119.910076 
L 171.530754 118.306025 
L 171.163866 116.701975 
L 169.680011 115.097924 
L 169.484338 113.493873 
L 168.987002 111.889823 
L 168.628267 110.285772 
L 167.250401 108.681722 
L 166.272035 107.077671 
L 162.806988 105.47362 
L 162.700998 103.86957 
L 161.559571 102.265519 
L 160.939939 100.661468 
L 160.524133 99.057418 
L 159.439777 97.453367 
L 155.762751 95.849316 
L 154.662088 94.245266 
L 150.44696 92.641215 
L 149.794716 91.037165 
L 149.21585 89.433114 
L 149.158778 87.829063 
L 148.090728 86.225013 
L 147.903208 84.620962 
L 139.269126 83.016911 
L 137.01073 81.412861 
L 134.075631 79.80881 
L 132.257501 78.204759 
L 128.719076 76.600709 
L 127.275986 74.996658 
L 123.973999 73.392608 
L 115.502978 71.788557 
L 113.440256 70.184506 
L 107.04011 68.580456 
L 106.632457 66.976405 
L 103.689205 65.372354 
L 94.484409 63.768304 
L 90.929678 62.164253 
L 90.799229 60.560203 
L 89.837169 58.956152 
L 78.064161 57.352101 
L 77.770652 55.748051 
L 73.832727 54.144 
z
" clip-path="url(#p1ffae644fe)" style="fill: #ff0000"/>
   </g>
   <g id="matplotlib.axis_1">
    <g id="xtick_1">
     <g id="line2d_1">
      <defs>
       <path id="mbf6533b5a9" d="M 0 0 
L 0 3.5 
" style="stroke: #000000; stroke-width: 0.8"/>
      </defs>
      <g>
       <use xlink:href="#mbf6533b5a9" x="75.952521" y="307.584" style="stroke: #000000; stroke-width: 0.8"/>
      </g>
     </g>
     <g id="text_1">
      <!-- 50 -->
      <g transform="translate(69.590021 322.182437)scale(0.1 -0.1)">
       <defs>
        <path id="DejaVuSans-35" d="M 691 4666 
L 3169 4666 
L 3169 4134 
L 1269 4134 
L 1269 2991 
Q 1406 3038 1543 3061 
Q 1681 3084 1819 3084 
Q 2600 3084 3056 2656 
Q 3513 2228 3513 1497 
Q 3513 744 3044 326 
Q 2575 -91 1722 -91 
Q 1428 -91 1123 -41 
Q 819 9 494 109 
L 494 744 
Q 775 591 1075 516 
Q 1375 441 1709 441 
Q 2250 441 2565 725 
Q 2881 1009 2881 1497 
Q 2881 1984 2565 2268 
Q 2250 2553 1709 2553 
Q 1456 2553 1204 2497 
Q 953 2441 691 2322 
L 691 4666 
z
" transform="scale(0.015625)"/>
        <path id="DejaVuSans-30" d="M 2034 4250 
Q 1547 4250 1301 3770 
Q 1056 3291 1056 2328 
Q 1056 1369 1301 889 
Q 1547 409 2034 409 
Q 2525 409 2770 889 
Q 3016 1369 3016 2328 
Q 3016 3291 2770 3770 
Q 2525 4250 2034 4250 
z
M 2034 4750 
Q 2819 4750 3233 4129 
Q 3647 3509 3647 2328 
Q 3647 1150 3233 529 
Q 2819 -91 2034 -91 
Q 1250 -91 836 529 
Q 422 1150 422 2328 
Q 422 3509 836 4129 
Q 1250 4750 2034 4750 
z
" transform="scale(0.015625)"/>
       </defs>
       <use xlink:href="#DejaVuSans-35"/>
       <use xlink:href="#DejaVuSans-30" x="63.623047"/>
      </g>
     </g>
    </g>
    <g id="xtick_2">
     <g id="line2d_2">
      <g>
       <use xlink:href="#mbf6533b5a9" x="116.717783" y="307.584" style="stroke: #000000; stroke-width: 0.8"/>
      </g>
     </g>
     <g id="text_2">
      <!-- 100 -->
      <g transform="translate(107.174033 322.182437)scale(0.1 -0.1)">
       <defs>
        <path id="DejaVuSans-31" d="M 794 531 
L 1825 531 
L 1825 4091 
L 703 3866 
L 703 4441 
L 1819 4666 
L 2450 4666 
L 2450 531 
L 3481 531 
L 3481 0 
L 794 0 
L 794 531 
z
" transform="scale(0.015625)"/>
       </defs>
       <use xlink:href="#DejaVuSans-31"/>
       <use xlink:href="#DejaVuSans-30" x="63.623047"/>
       <use xlink:href="#DejaVuSans-30" x="127.246094"/>
      </g>
     </g>
    </g>
    <g id="xtick_3">
     <g id="line2d_3">
      <g>
       <use xlink:href="#mbf6533b5a9" x="157.483045" y="307.584" style="stroke: #000000; stroke-width: 0.8"/>
      </g>
     </g>
     <g id="text_3">
      <!-- 150 -->
      <g transform="translate(147.939295 322.182437)scale(0.1 -0.1)">
       <use xlink:href="#DejaVuSans-31"/>
       <use xlink:href="#DejaVuSans-35" x="63.623047"/>
       <use xlink:href="#DejaVuSans-30" x="127.246094"/>
      </g>
     </g>
    </g>
    <g id="xtick_4">
     <g id="line2d_4">
      <g>
       <use xlink:href="#mbf6533b5a9" x="198.248306" y="307.584" style="stroke: #000000; stroke-width: 0.8"/>
      </g>
     </g>
     <g id="text_4">
      <!-- 200 -->
      <g transform="translate(188.704556 322.182437)scale(0.1 -0.1)">
       <defs>
        <path id="DejaVuSans-32" d="M 1228 531 
L 3431 531 
L 3431 0 
L 469 0 
L 469 531 
Q 828 903 1448 1529 
Q 2069 2156 2228 2338 
Q 2531 2678 2651 2914 
Q 2772 3150 2772 3378 
Q 2772 3750 2511 3984 
Q 2250 4219 1831 4219 
Q 1534 4219 1204 4116 
Q 875 4013 500 3803 
L 500 4441 
Q 881 4594 1212 4672 
Q 1544 4750 1819 4750 
Q 2544 4750 2975 4387 
Q 3406 4025 3406 3419 
Q 3406 3131 3298 2873 
Q 3191 2616 2906 2266 
Q 2828 2175 2409 1742 
Q 1991 1309 1228 531 
z
" transform="scale(0.015625)"/>
       </defs>
       <use xlink:href="#DejaVuSans-32"/>
       <use xlink:href="#DejaVuSans-30" x="63.623047"/>
       <use xlink:href="#DejaVuSans-30" x="127.246094"/>
      </g>
     </g>
    </g>
    <g id="xtick_5">
     <g id="line2d_5">
      <g>
       <use xlink:href="#mbf6533b5a9" x="239.013568" y="307.584" style="stroke: #000000; stroke-width: 0.8"/>
      </g>
     </g>
     <g id="text_5">
      <!-- 250 -->
      <g transform="translate(229.469818 322.182437)scale(0.1 -0.1)">
       <use xlink:href="#DejaVuSans-32"/>
       <use xlink:href="#DejaVuSans-35" x="63.623047"/>
       <use xlink:href="#DejaVuSans-30" x="127.246094"/>
      </g>
     </g>
    </g>
    <g id="xtick_6">
     <g id="line2d_6">
      <g>
       <use xlink:href="#mbf6533b5a9" x="279.77883" y="307.584" style="stroke: #000000; stroke-width: 0.8"/>
      </g>
     </g>
     <g id="text_6">
      <!-- 300 -->
      <g transform="translate(270.23508 322.182437)scale(0.1 -0.1)">
       <defs>
        <path id="DejaVuSans-33" d="M 2597 2516 
Q 3050 2419 3304 2112 
Q 3559 1806 3559 1356 
Q 3559 666 3084 287 
Q 2609 -91 1734 -91 
Q 1441 -91 1130 -33 
Q 819 25 488 141 
L 488 750 
Q 750 597 1062 519 
Q 1375 441 1716 441 
Q 2309 441 2620 675 
Q 2931 909 2931 1356 
Q 2931 1769 2642 2001 
Q 2353 2234 1838 2234 
L 1294 2234 
L 1294 2753 
L 1863 2753 
Q 2328 2753 2575 2939 
Q 2822 3125 2822 3475 
Q 2822 3834 2567 4026 
Q 2313 4219 1838 4219 
Q 1578 4219 1281 4162 
Q 984 4106 628 3988 
L 628 4550 
Q 988 4650 1302 4700 
Q 1616 4750 1894 4750 
Q 2613 4750 3031 4423 
Q 3450 4097 3450 3541 
Q 3450 3153 3228 2886 
Q 3006 2619 2597 2516 
z
" transform="scale(0.015625)"/>
       </defs>
       <use xlink:href="#DejaVuSans-33"/>
       <use xlink:href="#DejaVuSans-30" x="63.623047"/>
       <use xlink:href="#DejaVuSans-30" x="127.246094"/>
      </g>
     </g>
    </g>
    <g id="xtick_7">
     <g id="line2d_7">
      <g>
       <use xlink:href="#mbf6533b5a9" x="320.544092" y="307.584" style="stroke: #000000; stroke-width: 0.8"/>
      </g>
     </g>
     <g id="text_7">
      <!-- 350 -->
      <g transform="translate(311.000342 322.182437)scale(0.1 -0.1)">
       <use xlink:href="#DejaVuSans-33"/>
       <use xlink:href="#DejaVuSans-35" x="63.623047"/>
       <use xlink:href="#DejaVuSans-30" x="127.246094"/>
      </g>
     </g>
    </g>
    <g id="xtick_8">
     <g id="line2d_8">
      <g>
       <use xlink:href="#mbf6533b5a9" x="361.309354" y="307.584" style="stroke: #000000; stroke-width: 0.8"/>
      </g>
     </g>
     <g id="text_8">
      <!-- 400 -->
      <g transform="translate(351.765604 322.182437)scale(0.1 -0.1)">
       <defs>
        <path id="DejaVuSans-34" d="M 2419 4116 
L 825 1625 
L 2419 1625 
L 2419 4116 
z
M 2253 4666 
L 3047 4666 
L 3047 1625 
L 3713 1625 
L 3713 1100 
L 3047 1100 
L 3047 0 
L 2419 0 
L 2419 1100 
L 313 1100 
L 313 1709 
L 2253 4666 
z
" transform="scale(0.015625)"/>
       </defs>
       <use xlink:href="#DejaVuSans-34"/>
       <use xlink:href="#DejaVuSans-30" x="63.623047"/>
       <use xlink:href="#DejaVuSans-30" x="127.246094"/>
      </g>
     </g>
    </g>
    <g id="xtick_9">
     <g id="line2d_9">
      <g>
       <use xlink:href="#mbf6533b5a9" x="402.074616" y="307.584" style="stroke: #000000; stroke-width: 0.8"/>
      </g>
     </g>
     <g id="text_9">
      <!-- 450 -->
      <g transform="translate(392.530866 322.182437)scale(0.1 -0.1)">
       <use xlink:href="#DejaVuSans-34"/>
       <use xlink:href="#DejaVuSans-35" x="63.623047"/>
       <use xlink:href="#DejaVuSans-30" x="127.246094"/>
      </g>
     </g>
    </g>
    <g id="text_10">
     <!-- Score -->
     <g transform="translate(222.157656 335.860562)scale(0.1 -0.1)">
      <defs>
       <path id="DejaVuSans-53" d="M 3425 4513 
L 3425 3897 
Q 3066 4069 2747 4153 
Q 2428 4238 2131 4238 
Q 1616 4238 1336 4038 
Q 1056 3838 1056 3469 
Q 1056 3159 1242 3001 
Q 1428 2844 1947 2747 
L 2328 2669 
Q 3034 2534 3370 2195 
Q 3706 1856 3706 1288 
Q 3706 609 3251 259 
Q 2797 -91 1919 -91 
Q 1588 -91 1214 -16 
Q 841 59 441 206 
L 441 856 
Q 825 641 1194 531 
Q 1563 422 1919 422 
Q 2459 422 2753 634 
Q 3047 847 3047 1241 
Q 3047 1584 2836 1778 
Q 2625 1972 2144 2069 
L 1759 2144 
Q 1053 2284 737 2584 
Q 422 2884 422 3419 
Q 422 4038 858 4394 
Q 1294 4750 2059 4750 
Q 2388 4750 2728 4690 
Q 3069 4631 3425 4513 
z
" transform="scale(0.015625)"/>
       <path id="DejaVuSans-63" d="M 3122 3366 
L 3122 2828 
Q 2878 2963 2633 3030 
Q 2388 3097 2138 3097 
Q 1578 3097 1268 2742 
Q 959 2388 959 1747 
Q 959 1106 1268 751 
Q 1578 397 2138 397 
Q 2388 397 2633 464 
Q 2878 531 3122 666 
L 3122 134 
Q 2881 22 2623 -34 
Q 2366 -91 2075 -91 
Q 1284 -91 818 406 
Q 353 903 353 1747 
Q 353 2603 823 3093 
Q 1294 3584 2113 3584 
Q 2378 3584 2631 3529 
Q 2884 3475 3122 3366 
z
" transform="scale(0.015625)"/>
       <path id="DejaVuSans-6f" d="M 1959 3097 
Q 1497 3097 1228 2736 
Q 959 2375 959 1747 
Q 959 1119 1226 758 
Q 1494 397 1959 397 
Q 2419 397 2687 759 
Q 2956 1122 2956 1747 
Q 2956 2369 2687 2733 
Q 2419 3097 1959 3097 
z
M 1959 3584 
Q 2709 3584 3137 3096 
Q 3566 2609 3566 1747 
Q 3566 888 3137 398 
Q 2709 -91 1959 -91 
Q 1206 -91 779 398 
Q 353 888 353 1747 
Q 353 2609 779 3096 
Q 1206 3584 1959 3584 
z
" transform="scale(0.015625)"/>
       <path id="DejaVuSans-72" d="M 2631 2963 
Q 2534 3019 2420 3045 
Q 2306 3072 2169 3072 
Q 1681 3072 1420 2755 
Q 1159 2438 1159 1844 
L 1159 0 
L 581 0 
L 581 3500 
L 1159 3500 
L 1159 2956 
Q 1341 3275 1631 3429 
Q 1922 3584 2338 3584 
Q 2397 3584 2469 3576 
Q 2541 3569 2628 3553 
L 2631 2963 
z
" transform="scale(0.015625)"/>
       <path id="DejaVuSans-65" d="M 3597 1894 
L 3597 1613 
L 953 1613 
Q 991 1019 1311 708 
Q 1631 397 2203 397 
Q 2534 397 2845 478 
Q 3156 559 3463 722 
L 3463 178 
Q 3153 47 2828 -22 
Q 2503 -91 2169 -91 
Q 1331 -91 842 396 
Q 353 884 353 1716 
Q 353 2575 817 3079 
Q 1281 3584 2069 3584 
Q 2775 3584 3186 3129 
Q 3597 2675 3597 1894 
z
M 3022 2063 
Q 3016 2534 2758 2815 
Q 2500 3097 2075 3097 
Q 1594 3097 1305 2825 
Q 1016 2553 972 2059 
L 3022 2063 
z
" transform="scale(0.015625)"/>
      </defs>
      <use xlink:href="#DejaVuSans-53"/>
      <use xlink:href="#DejaVuSans-63" x="63.476562"/>
      <use xlink:href="#DejaVuSans-6f" x="118.457031"/>
      <use xlink:href="#DejaVuSans-72" x="179.638672"/>
      <use xlink:href="#DejaVuSans-65" x="218.501953"/>
     </g>
    </g>
   </g>
   <g id="matplotlib.axis_2">
    <g id="ytick_1">
     <g id="line2d_10">
      <defs>
       <path id="m4da4d76089" d="M 0 0 
L -3.5 0 
" style="stroke: #000000; stroke-width: 0.8"/>
      </defs>
      <g>
       <use xlink:href="#m4da4d76089" x="57.6" y="307.584" style="stroke: #000000; stroke-width: 0.8"/>
      </g>
     </g>
     <g id="text_11">
      <!-- 0 -->
      <g transform="translate(44.2375 311.383219)scale(0.1 -0.1)">
       <use xlink:href="#DejaVuSans-30"/>
      </g>
     </g>
    </g>
    <g id="ytick_2">
     <g id="line2d_11">
      <g>
       <use xlink:href="#m4da4d76089" x="57.6" y="275.502987" style="stroke: #000000; stroke-width: 0.8"/>
      </g>
     </g>
     <g id="text_12">
      <!-- 20 -->
      <g transform="translate(37.875 279.302206)scale(0.1 -0.1)">
       <use xlink:href="#DejaVuSans-32"/>
       <use xlink:href="#DejaVuSans-30" x="63.623047"/>
      </g>
     </g>
    </g>
    <g id="ytick_3">
     <g id="line2d_12">
      <g>
       <use xlink:href="#m4da4d76089" x="57.6" y="243.421975" style="stroke: #000000; stroke-width: 0.8"/>
      </g>
     </g>
     <g id="text_13">
      <!-- 40 -->
      <g transform="translate(37.875 247.221193)scale(0.1 -0.1)">
       <use xlink:href="#DejaVuSans-34"/>
       <use xlink:href="#DejaVuSans-30" x="63.623047"/>
      </g>
     </g>
    </g>
    <g id="ytick_4">
     <g id="line2d_13">
      <g>
       <use xlink:href="#m4da4d76089" x="57.6" y="211.340962" style="stroke: #000000; stroke-width: 0.8"/>
      </g>
     </g>
     <g id="text_14">
      <!-- 60 -->
      <g transform="translate(37.875 215.140181)scale(0.1 -0.1)">
       <defs>
        <path id="DejaVuSans-36" d="M 2113 2584 
Q 1688 2584 1439 2293 
Q 1191 2003 1191 1497 
Q 1191 994 1439 701 
Q 1688 409 2113 409 
Q 2538 409 2786 701 
Q 3034 994 3034 1497 
Q 3034 2003 2786 2293 
Q 2538 2584 2113 2584 
z
M 3366 4563 
L 3366 3988 
Q 3128 4100 2886 4159 
Q 2644 4219 2406 4219 
Q 1781 4219 1451 3797 
Q 1122 3375 1075 2522 
Q 1259 2794 1537 2939 
Q 1816 3084 2150 3084 
Q 2853 3084 3261 2657 
Q 3669 2231 3669 1497 
Q 3669 778 3244 343 
Q 2819 -91 2113 -91 
Q 1303 -91 875 529 
Q 447 1150 447 2328 
Q 447 3434 972 4092 
Q 1497 4750 2381 4750 
Q 2619 4750 2861 4703 
Q 3103 4656 3366 4563 
z
" transform="scale(0.015625)"/>
       </defs>
       <use xlink:href="#DejaVuSans-36"/>
       <use xlink:href="#DejaVuSans-30" x="63.623047"/>
      </g>
     </g>
    </g>
    <g id="ytick_5">
     <g id="line2d_14">
      <g>
       <use xlink:href="#m4da4d76089" x="57.6" y="179.259949" style="stroke: #000000; stroke-width: 0.8"/>
      </g>
     </g>
     <g id="text_15">
      <!-- 80 -->
      <g transform="translate(37.875 183.059168)scale(0.1 -0.1)">
       <defs>
        <path id="DejaVuSans-38" d="M 2034 2216 
Q 1584 2216 1326 1975 
Q 1069 1734 1069 1313 
Q 1069 891 1326 650 
Q 1584 409 2034 409 
Q 2484 409 2743 651 
Q 3003 894 3003 1313 
Q 3003 1734 2745 1975 
Q 2488 2216 2034 2216 
z
M 1403 2484 
Q 997 2584 770 2862 
Q 544 3141 544 3541 
Q 544 4100 942 4425 
Q 1341 4750 2034 4750 
Q 2731 4750 3128 4425 
Q 3525 4100 3525 3541 
Q 3525 3141 3298 2862 
Q 3072 2584 2669 2484 
Q 3125 2378 3379 2068 
Q 3634 1759 3634 1313 
Q 3634 634 3220 271 
Q 2806 -91 2034 -91 
Q 1263 -91 848 271 
Q 434 634 434 1313 
Q 434 1759 690 2068 
Q 947 2378 1403 2484 
z
M 1172 3481 
Q 1172 3119 1398 2916 
Q 1625 2713 2034 2713 
Q 2441 2713 2670 2916 
Q 2900 3119 2900 3481 
Q 2900 3844 2670 4047 
Q 2441 4250 2034 4250 
Q 1625 4250 1398 4047 
Q 1172 3844 1172 3481 
z
" transform="scale(0.015625)"/>
       </defs>
       <use xlink:href="#DejaVuSans-38"/>
       <use xlink:href="#DejaVuSans-30" x="63.623047"/>
      </g>
     </g>
    </g>
    <g id="ytick_6">
     <g id="line2d_15">
      <g>
       <use xlink:href="#m4da4d76089" x="57.6" y="147.178937" style="stroke: #000000; stroke-width: 0.8"/>
      </g>
     </g>
     <g id="text_16">
      <!-- 100 -->
      <g transform="translate(31.5125 150.978155)scale(0.1 -0.1)">
       <use xlink:href="#DejaVuSans-31"/>
       <use xlink:href="#DejaVuSans-30" x="63.623047"/>
       <use xlink:href="#DejaVuSans-30" x="127.246094"/>
      </g>
     </g>
    </g>
    <g id="ytick_7">
     <g id="line2d_16">
      <g>
       <use xlink:href="#m4da4d76089" x="57.6" y="115.097924" style="stroke: #000000; stroke-width: 0.8"/>
      </g>
     </g>
     <g id="text_17">
      <!-- 120 -->
      <g transform="translate(31.5125 118.897143)scale(0.1 -0.1)">
       <use xlink:href="#DejaVuSans-31"/>
       <use xlink:href="#DejaVuSans-32" x="63.623047"/>
       <use xlink:href="#DejaVuSans-30" x="127.246094"/>
      </g>
     </g>
    </g>
    <g id="ytick_8">
     <g id="line2d_17">
      <g>
       <use xlink:href="#m4da4d76089" x="57.6" y="83.016911" style="stroke: #000000; stroke-width: 0.8"/>
      </g>
     </g>
     <g id="text_18">
      <!-- 140 -->
      <g transform="translate(31.5125 86.81613)scale(0.1 -0.1)">
       <use xlink:href="#DejaVuSans-31"/>
       <use xlink:href="#DejaVuSans-34" x="63.623047"/>
       <use xlink:href="#DejaVuSans-30" x="127.246094"/>
      </g>
     </g>
    </g>
    <g id="ytick_9">
     <g id="line2d_18">
      <g>
       <use xlink:href="#m4da4d76089" x="57.6" y="50.935899" style="stroke: #000000; stroke-width: 0.8"/>
      </g>
     </g>
     <g id="text_19">
      <!-- 160 -->
      <g transform="translate(31.5125 54.735117)scale(0.1 -0.1)">
       <use xlink:href="#DejaVuSans-31"/>
       <use xlink:href="#DejaVuSans-36" x="63.623047"/>
       <use xlink:href="#DejaVuSans-30" x="127.246094"/>
      </g>
     </g>
    </g>
    <g id="text_20">
     <!-- Number of crosslinks -->
     <g transform="translate(25.432812 227.019406)rotate(-90)scale(0.1 -0.1)">
      <defs>
       <path id="DejaVuSans-4e" d="M 628 4666 
L 1478 4666 
L 3547 763 
L 3547 4666 
L 4159 4666 
L 4159 0 
L 3309 0 
L 1241 3903 
L 1241 0 
L 628 0 
L 628 4666 
z
" transform="scale(0.015625)"/>
       <path id="DejaVuSans-75" d="M 544 1381 
L 544 3500 
L 1119 3500 
L 1119 1403 
Q 1119 906 1312 657 
Q 1506 409 1894 409 
Q 2359 409 2629 706 
Q 2900 1003 2900 1516 
L 2900 3500 
L 3475 3500 
L 3475 0 
L 2900 0 
L 2900 538 
Q 2691 219 2414 64 
Q 2138 -91 1772 -91 
Q 1169 -91 856 284 
Q 544 659 544 1381 
z
M 1991 3584 
L 1991 3584 
z
" transform="scale(0.015625)"/>
       <path id="DejaVuSans-6d" d="M 3328 2828 
Q 3544 3216 3844 3400 
Q 4144 3584 4550 3584 
Q 5097 3584 5394 3201 
Q 5691 2819 5691 2113 
L 5691 0 
L 5113 0 
L 5113 2094 
Q 5113 2597 4934 2840 
Q 4756 3084 4391 3084 
Q 3944 3084 3684 2787 
Q 3425 2491 3425 1978 
L 3425 0 
L 2847 0 
L 2847 2094 
Q 2847 2600 2669 2842 
Q 2491 3084 2119 3084 
Q 1678 3084 1418 2786 
Q 1159 2488 1159 1978 
L 1159 0 
L 581 0 
L 581 3500 
L 1159 3500 
L 1159 2956 
Q 1356 3278 1631 3431 
Q 1906 3584 2284 3584 
Q 2666 3584 2933 3390 
Q 3200 3197 3328 2828 
z
" transform="scale(0.015625)"/>
       <path id="DejaVuSans-62" d="M 3116 1747 
Q 3116 2381 2855 2742 
Q 2594 3103 2138 3103 
Q 1681 3103 1420 2742 
Q 1159 2381 1159 1747 
Q 1159 1113 1420 752 
Q 1681 391 2138 391 
Q 2594 391 2855 752 
Q 3116 1113 3116 1747 
z
M 1159 2969 
Q 1341 3281 1617 3432 
Q 1894 3584 2278 3584 
Q 2916 3584 3314 3078 
Q 3713 2572 3713 1747 
Q 3713 922 3314 415 
Q 2916 -91 2278 -91 
Q 1894 -91 1617 61 
Q 1341 213 1159 525 
L 1159 0 
L 581 0 
L 581 4863 
L 1159 4863 
L 1159 2969 
z
" transform="scale(0.015625)"/>
       <path id="DejaVuSans-20" transform="scale(0.015625)"/>
       <path id="DejaVuSans-66" d="M 2375 4863 
L 2375 4384 
L 1825 4384 
Q 1516 4384 1395 4259 
Q 1275 4134 1275 3809 
L 1275 3500 
L 2222 3500 
L 2222 3053 
L 1275 3053 
L 1275 0 
L 697 0 
L 697 3053 
L 147 3053 
L 147 3500 
L 697 3500 
L 697 3744 
Q 697 4328 969 4595 
Q 1241 4863 1831 4863 
L 2375 4863 
z
" transform="scale(0.015625)"/>
       <path id="DejaVuSans-73" d="M 2834 3397 
L 2834 2853 
Q 2591 2978 2328 3040 
Q 2066 3103 1784 3103 
Q 1356 3103 1142 2972 
Q 928 2841 928 2578 
Q 928 2378 1081 2264 
Q 1234 2150 1697 2047 
L 1894 2003 
Q 2506 1872 2764 1633 
Q 3022 1394 3022 966 
Q 3022 478 2636 193 
Q 2250 -91 1575 -91 
Q 1294 -91 989 -36 
Q 684 19 347 128 
L 347 722 
Q 666 556 975 473 
Q 1284 391 1588 391 
Q 1994 391 2212 530 
Q 2431 669 2431 922 
Q 2431 1156 2273 1281 
Q 2116 1406 1581 1522 
L 1381 1569 
Q 847 1681 609 1914 
Q 372 2147 372 2553 
Q 372 3047 722 3315 
Q 1072 3584 1716 3584 
Q 2034 3584 2315 3537 
Q 2597 3491 2834 3397 
z
" transform="scale(0.015625)"/>
       <path id="DejaVuSans-6c" d="M 603 4863 
L 1178 4863 
L 1178 0 
L 603 0 
L 603 4863 
z
" transform="scale(0.015625)"/>
       <path id="DejaVuSans-69" d="M 603 3500 
L 1178 3500 
L 1178 0 
L 603 0 
L 603 3500 
z
M 603 4863 
L 1178 4863 
L 1178 4134 
L 603 4134 
L 603 4863 
z
" transform="scale(0.015625)"/>
       <path id="DejaVuSans-6e" d="M 3513 2113 
L 3513 0 
L 2938 0 
L 2938 2094 
Q 2938 2591 2744 2837 
Q 2550 3084 2163 3084 
Q 1697 3084 1428 2787 
Q 1159 2491 1159 1978 
L 1159 0 
L 581 0 
L 581 3500 
L 1159 3500 
L 1159 2956 
Q 1366 3272 1645 3428 
Q 1925 3584 2291 3584 
Q 2894 3584 3203 3211 
Q 3513 2838 3513 2113 
z
" transform="scale(0.015625)"/>
       <path id="DejaVuSans-6b" d="M 581 4863 
L 1159 4863 
L 1159 1991 
L 2875 3500 
L 3609 3500 
L 1753 1863 
L 3688 0 
L 2938 0 
L 1159 1709 
L 1159 0 
L 581 0 
L 581 4863 
z
" transform="scale(0.015625)"/>
      </defs>
      <use xlink:href="#DejaVuSans-4e"/>
      <use xlink:href="#DejaVuSans-75" x="74.804688"/>
      <use xlink:href="#DejaVuSans-6d" x="138.183594"/>
      <use xlink:href="#DejaVuSans-62" x="235.595703"/>
      <use xlink:href="#DejaVuSans-65" x="299.072266"/>
      <use xlink:href="#DejaVuSans-72" x="360.595703"/>
      <use xlink:href="#DejaVuSans-20" x="401.708984"/>
      <use xlink:href="#DejaVuSans-6f" x="433.496094"/>
      <use xlink:href="#DejaVuSans-66" x="494.677734"/>
      <use xlink:href="#DejaVuSans-20" x="529.882812"/>
      <use xlink:href="#DejaVuSans-63" x="561.669922"/>
      <use xlink:href="#DejaVuSans-72" x="616.650391"/>
      <use xlink:href="#DejaVuSans-6f" x="655.513672"/>
      <use xlink:href="#DejaVuSans-73" x="716.695312"/>
      <use xlink:href="#DejaVuSans-73" x="768.794922"/>
      <use xlink:href="#DejaVuSans-6c" x="820.894531"/>
      <use xlink:href="#DejaVuSans-69" x="848.677734"/>
      <use xlink:href="#DejaVuSans-6e" x="876.460938"/>
      <use xlink:href="#DejaVuSans-6b" x="939.839844"/>
      <use xlink:href="#DejaVuSans-73" x="997.75"/>
     </g>
    </g>
   </g>
   <g id="patch_3">
    <path d="M 57.6 307.584 
L 57.6 41.472 
" style="fill: none; stroke: #000000; stroke-width: 0.8; stroke-linejoin: miter; stroke-linecap: square"/>
   </g>
   <g id="patch_4">
    <path d="M 414.72 307.584 
L 414.72 41.472 
" style="fill: none; stroke: #000000; stroke-width: 0.8; stroke-linejoin: miter; stroke-linecap: square"/>
   </g>
   <g id="patch_5">
    <path d="M 57.6 307.584 
L 414.72 307.584 
" style="fill: none; stroke: #000000; stroke-width: 0.8; stroke-linejoin: miter; stroke-linecap: square"/>
   </g>
   <g id="patch_6">
    <path d="M 57.6 41.472 
L 414.72 41.472 
" style="fill: none; stroke: #000000; stroke-width: 0.8; stroke-linejoin: miter; stroke-linecap: square"/>
   </g>
   <g id="legend_1">
    <g id="patch_7">
     <path d="M 278.598125 93.506375 
L 407.72 93.506375 
Q 409.72 93.506375 409.72 91.506375 
L 409.72 48.472 
Q 409.72 46.472 407.72 46.472 
L 278.598125 46.472 
Q 276.598125 46.472 276.598125 48.472 
L 276.598125 91.506375 
Q 276.598125 93.506375 278.598125 93.506375 
z
" style="fill: #ffffff; opacity: 0.8; stroke: #cccccc; stroke-linejoin: miter"/>
    </g>
    <g id="patch_8">
     <path d="M 280.598125 58.070438 
L 300.598125 58.070438 
L 300.598125 51.070438 
L 280.598125 51.070438 
z
" style="fill: #008000"/>
    </g>
    <g id="text_21">
     <!-- correct -->
     <g transform="translate(308.598125 58.070438)scale(0.1 -0.1)">
      <defs>
       <path id="DejaVuSans-74" d="M 1172 4494 
L 1172 3500 
L 2356 3500 
L 2356 3053 
L 1172 3053 
L 1172 1153 
Q 1172 725 1289 603 
Q 1406 481 1766 481 
L 2356 481 
L 2356 0 
L 1766 0 
Q 1100 0 847 248 
Q 594 497 594 1153 
L 594 3053 
L 172 3053 
L 172 3500 
L 594 3500 
L 594 4494 
L 1172 4494 
z
" transform="scale(0.015625)"/>
      </defs>
      <use xlink:href="#DejaVuSans-63"/>
      <use xlink:href="#DejaVuSans-6f" x="54.980469"/>
      <use xlink:href="#DejaVuSans-72" x="116.162109"/>
      <use xlink:href="#DejaVuSans-72" x="155.525391"/>
      <use xlink:href="#DejaVuSans-65" x="194.388672"/>
      <use xlink:href="#DejaVuSans-63" x="255.912109"/>
      <use xlink:href="#DejaVuSans-74" x="310.892578"/>
     </g>
    </g>
    <g id="patch_9">
     <path d="M 280.598125 72.748563 
L 300.598125 72.748563 
L 300.598125 65.748563 
L 280.598125 65.748563 
z
" style="fill: #7cfc00"/>
    </g>
    <g id="text_22">
     <!-- correct homeotypic -->
     <g transform="translate(308.598125 72.748563)scale(0.1 -0.1)">
      <defs>
       <path id="DejaVuSans-68" d="M 3513 2113 
L 3513 0 
L 2938 0 
L 2938 2094 
Q 2938 2591 2744 2837 
Q 2550 3084 2163 3084 
Q 1697 3084 1428 2787 
Q 1159 2491 1159 1978 
L 1159 0 
L 581 0 
L 581 4863 
L 1159 4863 
L 1159 2956 
Q 1366 3272 1645 3428 
Q 1925 3584 2291 3584 
Q 2894 3584 3203 3211 
Q 3513 2838 3513 2113 
z
" transform="scale(0.015625)"/>
       <path id="DejaVuSans-79" d="M 2059 -325 
Q 1816 -950 1584 -1140 
Q 1353 -1331 966 -1331 
L 506 -1331 
L 506 -850 
L 844 -850 
Q 1081 -850 1212 -737 
Q 1344 -625 1503 -206 
L 1606 56 
L 191 3500 
L 800 3500 
L 1894 763 
L 2988 3500 
L 3597 3500 
L 2059 -325 
z
" transform="scale(0.015625)"/>
       <path id="DejaVuSans-70" d="M 1159 525 
L 1159 -1331 
L 581 -1331 
L 581 3500 
L 1159 3500 
L 1159 2969 
Q 1341 3281 1617 3432 
Q 1894 3584 2278 3584 
Q 2916 3584 3314 3078 
Q 3713 2572 3713 1747 
Q 3713 922 3314 415 
Q 2916 -91 2278 -91 
Q 1894 -91 1617 61 
Q 1341 213 1159 525 
z
M 3116 1747 
Q 3116 2381 2855 2742 
Q 2594 3103 2138 3103 
Q 1681 3103 1420 2742 
Q 1159 2381 1159 1747 
Q 1159 1113 1420 752 
Q 1681 391 2138 391 
Q 2594 391 2855 752 
Q 3116 1113 3116 1747 
z
" transform="scale(0.015625)"/>
      </defs>
      <use xlink:href="#DejaVuSans-63"/>
      <use xlink:href="#DejaVuSans-6f" x="54.980469"/>
      <use xlink:href="#DejaVuSans-72" x="116.162109"/>
      <use xlink:href="#DejaVuSans-72" x="155.525391"/>
      <use xlink:href="#DejaVuSans-65" x="194.388672"/>
      <use xlink:href="#DejaVuSans-63" x="255.912109"/>
      <use xlink:href="#DejaVuSans-74" x="310.892578"/>
      <use xlink:href="#DejaVuSans-20" x="350.101562"/>
      <use xlink:href="#DejaVuSans-68" x="381.888672"/>
      <use xlink:href="#DejaVuSans-6f" x="445.267578"/>
      <use xlink:href="#DejaVuSans-6d" x="506.449219"/>
      <use xlink:href="#DejaVuSans-65" x="603.861328"/>
      <use xlink:href="#DejaVuSans-6f" x="665.384766"/>
      <use xlink:href="#DejaVuSans-74" x="726.566406"/>
      <use xlink:href="#DejaVuSans-79" x="765.775391"/>
      <use xlink:href="#DejaVuSans-70" x="824.955078"/>
      <use xlink:href="#DejaVuSans-69" x="888.431641"/>
      <use xlink:href="#DejaVuSans-63" x="916.214844"/>
     </g>
    </g>
    <g id="patch_10">
     <path d="M 280.598125 87.426688 
L 300.598125 87.426688 
L 300.598125 80.426688 
L 280.598125 80.426688 
z
" style="fill: #ff0000"/>
    </g>
    <g id="text_23">
     <!-- false -->
     <g transform="translate(308.598125 87.426688)scale(0.1 -0.1)">
      <defs>
       <path id="DejaVuSans-61" d="M 2194 1759 
Q 1497 1759 1228 1600 
Q 959 1441 959 1056 
Q 959 750 1161 570 
Q 1363 391 1709 391 
Q 2188 391 2477 730 
Q 2766 1069 2766 1631 
L 2766 1759 
L 2194 1759 
z
M 3341 1997 
L 3341 0 
L 2766 0 
L 2766 531 
Q 2569 213 2275 61 
Q 1981 -91 1556 -91 
Q 1019 -91 701 211 
Q 384 513 384 1019 
Q 384 1609 779 1909 
Q 1175 2209 1959 2209 
L 2766 2209 
L 2766 2266 
Q 2766 2663 2505 2880 
Q 2244 3097 1772 3097 
Q 1472 3097 1187 3025 
Q 903 2953 641 2809 
L 641 3341 
Q 956 3463 1253 3523 
Q 1550 3584 1831 3584 
Q 2591 3584 2966 3190 
Q 3341 2797 3341 1997 
z
" transform="scale(0.015625)"/>
      </defs>
      <use xlink:href="#DejaVuSans-66"/>
      <use xlink:href="#DejaVuSans-61" x="35.205078"/>
      <use xlink:href="#DejaVuSans-6c" x="96.484375"/>
      <use xlink:href="#DejaVuSans-73" x="124.267578"/>
      <use xlink:href="#DejaVuSans-65" x="176.367188"/>
     </g>
    </g>
   </g>
  </g>
 </g>
 <defs>
  <clipPath id="p1ffae644fe">
   <rect x="57.6" y="41.472" width="357.12" height="266.112"/>
  </clipPath>
 </defs>
</svg>
