<?xml version="1.0" encoding="utf-8" standalone="no"?>
<!DOCTYPE svg PUBLIC "-//W3C//DTD SVG 1.1//EN"
  "http://www.w3.org/Graphics/SVG/1.1/DTD/svg11.dtd">
<svg xmlns:xlink="http://www.w3.org/1999/xlink" width="460.8pt" height="345.6pt" viewBox="0 0 460.8 345.6" xmlns="http://www.w3.org/2000/svg" version="1.1">
 <metadata>
  <rdf:RDF xmlns:dc="http://purl.org/dc/elements/1.1/" xmlns:cc="http://creativecommons.org/ns#" xmlns:rdf="http://www.w3.org/1999/02/22-rdf-syntax-ns#">
   <cc:Work>
    <dc:type rdf:resource="http://purl.org/dc/dcmitype/StillImage"/>
    <dc:date>2022-08-10T16:04:19.530560</dc:date>
    <dc:format>image/svg+xml</dc:format>
    <dc:creator>
     <cc:Agent>
      <dc:title>Matplotlib v3.5.1, https://matplotlib.org/</dc:title>
     </cc:Agent>
    </dc:creator>
   </cc:Work>
  </rdf:RDF>
 </metadata>
 <defs>
  <style type="text/css">*{stroke-linejoin: round; stroke-linecap: butt}</style>
 </defs>
 <g id="figure_1">
  <g id="patch_1">
   <path d="M 0 345.6 
L 460.8 345.6 
L 460.8 0 
L 0 0 
z
" style="fill: #ffffff"/>
  </g>
  <g id="axes_1">
   <g id="patch_2">
    <path d="M 57.6 307.584 
L 414.72 307.584 
L 414.72 41.472 
L 57.6 41.472 
z
" style="fill: #ffffff"/>
   </g>
   <g id="PolyCollection_1">
    <path d="M 73.832727 96.16514 
L 73.832727 307.584 
L 73.933256 307.584 
L 74.567362 307.584 
L 74.722022 307.584 
L 75.642249 307.584 
L 75.936103 307.584 
L 77.157917 307.584 
L 77.590965 307.584 
L 77.598698 307.584 
L 78.936507 307.584 
L 79.168497 307.584 
L 79.740739 307.584 
L 82.903536 307.584 
L 85.579155 307.584 
L 91.015454 307.584 
L 91.216512 307.584 
L 91.4949 307.584 
L 92.013011 307.584 
L 93.026034 307.584 
L 95.075279 307.584 
L 96.98533 307.584 
L 100.92916 307.584 
L 101.85712 307.584 
L 103.71304 307.584 
L 105.669489 307.584 
L 109.729314 307.584 
L 110.966594 307.584 
L 111.105788 307.584 
L 116.271432 307.584 
L 117.748435 307.584 
L 119.828612 307.584 
L 122.187177 307.584 
L 132.572596 307.584 
L 133.980002 307.584 
L 143.081744 307.584 
L 144.960863 307.584 
L 146.631191 307.584 
L 146.870914 307.584 
L 150.567288 307.584 
L 150.652351 307.584 
L 153.22744 307.584 
L 153.900211 307.584 
L 154.240463 307.584 
L 157.070741 307.584 
L 159.212782 307.584 
L 159.375175 307.584 
L 159.514369 307.584 
L 160.944974 307.584 
L 161.981196 307.584 
L 163.790718 307.584 
L 164.022708 307.584 
L 164.625882 307.584 
L 166.14155 307.584 
L 166.466336 307.584 
L 167.881475 307.584 
L 168.879032 307.584 
L 170.3947 307.584 
L 171.693844 307.584 
L 171.879436 307.584 
L 172.01863 307.584 
L 172.699134 307.584 
L 173.789487 307.584 
L 174.80251 307.584 
L 178.429287 307.584 
L 178.684476 307.584 
L 181.104905 307.584 
L 181.878205 307.584 
L 184.445561 307.584 
L 185.497249 307.584 
L 185.96123 307.584 
L 186.417477 307.584 
L 187.73982 307.584 
L 187.886747 307.584 
L 189.100828 307.584 
L 190.83302 307.584 
L 192.76627 307.584 
L 197.181813 307.584 
L 197.351939 307.584 
L 198.620151 307.584 
L 202.192797 307.584 
L 203.994586 307.584 
L 206.329952 307.584 
L 206.415015 307.584 
L 208.062144 307.584 
L 208.131741 307.584 
L 208.417862 307.584 
L 209.910331 307.584 
L 210.188719 307.584 
L 211.101213 307.584 
L 213.529375 307.584 
L 213.95469 307.584 
L 218.045447 307.584 
L 220.666934 307.584 
L 222.236733 307.584 
L 223.141494 307.584 
L 223.7756 307.584 
L 224.448371 307.584 
L 225.136608 307.584 
L 226.729606 307.584 
L 227.069858 307.584 
L 227.626634 307.584 
L 228.678322 307.584 
L 228.902579 307.584 
L 229.621748 307.584 
L 231.361673 307.584 
L 233.843966 307.584 
L 235.034848 307.584 
L 235.552959 307.584 
L 235.576158 307.584 
L 237.138225 307.584 
L 237.625404 307.584 
L 238.924548 307.584 
L 239.41946 307.584 
L 240.208226 307.584 
L 240.679939 307.584 
L 240.919662 307.584 
L 241.863088 307.584 
L 244.716565 307.584 
L 244.770696 307.584 
L 246.363694 307.584 
L 246.618883 307.584 
L 246.897271 307.584 
L 248.443871 307.584 
L 248.583065 307.584 
L 249.449161 307.584 
L 249.634753 307.584 
L 250.55498 307.584 
L 250.616844 307.584 
L 251.622134 307.584 
L 252.457298 307.584 
L 252.805283 307.584 
L 253.26153 307.584 
L 256.107274 307.584 
L 256.377929 307.584 
L 257.622942 307.584 
L 257.66934 307.584 
L 259.795915 307.584 
L 259.973774 307.584 
L 260.136167 307.584 
L 260.414555 307.584 
L 260.499618 307.584 
L 260.870802 307.584 
L 261.30385 307.584 
L 262.688057 307.584 
L 263.00511 307.584 
L 265.216748 307.584 
L 266.036446 307.584 
L 266.856144 307.584 
L 267.126799 307.584 
L 267.41292 307.584 
L 268.603802 307.584 
L 269.168311 307.584 
L 270.165868 307.584 
L 270.946901 307.584 
L 271.12476 307.584 
L 271.20209 307.584 
L 271.642871 307.584 
L 273.862242 307.584 
L 274.016902 307.584 
L 274.890731 307.584 
L 274.944862 307.584 
L 275.37791 307.584 
L 277.23383 307.584 
L 281.301388 307.584 
L 281.734436 307.584 
L 281.7963 307.584 
L 281.858164 307.584 
L 283.969273 307.584 
L 286.12678 307.584 
L 287.77391 307.584 
L 287.858973 307.584 
L 288.539477 307.584 
L 289.823155 307.584 
L 291.980662 307.584 
L 292.119856 307.584 
L 295.545575 307.584 
L 299.017692 307.584 
L 302.574872 307.584 
L 303.178046 307.584 
L 304.330263 307.584 
L 306.224848 307.584 
L 312.063263 307.584 
L 318.388857 307.584 
L 324.389665 307.584 
L 345.87194 307.584 
L 345.895139 307.584 
L 382.549559 307.584 
L 398.487273 307.584 
L 398.487273 306.270839 
L 398.487273 306.270839 
L 382.549559 304.957679 
L 345.895139 303.644518 
L 345.87194 302.331358 
L 324.389665 301.018197 
L 318.388857 299.705036 
L 312.063263 298.391876 
L 306.224848 297.078715 
L 304.330263 295.765554 
L 303.178046 294.452394 
L 302.574872 293.139233 
L 299.017692 291.826073 
L 295.545575 290.512912 
L 292.119856 289.199751 
L 291.980662 287.886591 
L 289.823155 285.260269 
L 288.539477 283.947109 
L 287.858973 282.633948 
L 287.77391 281.320788 
L 286.12678 280.007627 
L 283.969273 278.694466 
L 281.858164 277.381306 
L 281.7963 277.381306 
L 281.734436 276.068145 
L 281.301388 274.754984 
L 277.23383 273.441824 
L 275.37791 272.128663 
L 274.944862 270.815503 
L 274.890731 269.502342 
L 274.016902 268.189181 
L 273.862242 266.876021 
L 271.642871 265.56286 
L 271.20209 262.936539 
L 271.12476 261.623378 
L 270.946901 260.310218 
L 270.165868 258.997057 
L 269.168311 257.683896 
L 268.603802 256.370736 
L 267.41292 255.057575 
L 267.126799 253.744415 
L 266.856144 252.431254 
L 266.036446 251.118093 
L 265.216748 249.804933 
L 263.00511 248.491772 
L 262.688057 247.178611 
L 261.30385 245.865451 
L 260.870802 245.865451 
L 260.499618 244.55229 
L 260.414555 243.23913 
L 260.136167 241.925969 
L 259.973774 240.612808 
L 259.795915 239.299648 
L 257.66934 237.986487 
L 257.622942 236.673326 
L 256.377929 235.360166 
L 256.107274 234.047005 
L 253.26153 232.733845 
L 252.805283 230.107523 
L 252.457298 230.107523 
L 251.622134 228.794363 
L 250.616844 227.481202 
L 250.55498 226.168041 
L 249.634753 224.854881 
L 249.449161 223.54172 
L 248.583065 222.22856 
L 248.443871 220.915399 
L 246.897271 219.602238 
L 246.618883 218.289078 
L 246.363694 216.975917 
L 244.770696 215.662756 
L 244.716565 214.349596 
L 241.863088 211.723275 
L 240.919662 210.410114 
L 240.679939 209.096953 
L 240.208226 207.783793 
L 239.41946 206.470632 
L 238.924548 205.157472 
L 237.625404 203.844311 
L 237.138225 203.844311 
L 235.576158 202.53115 
L 235.552959 201.21799 
L 235.034848 199.904829 
L 233.843966 198.591668 
L 231.361673 197.278508 
L 229.621748 195.965347 
L 228.902579 194.652187 
L 228.678322 193.339026 
L 227.626634 192.025865 
L 227.069858 190.712705 
L 226.729606 189.399544 
L 225.136608 188.086383 
L 224.448371 186.773223 
L 223.7756 185.460062 
L 223.141494 184.146902 
L 222.236733 182.833741 
L 220.666934 182.833741 
L 218.045447 181.52058 
L 213.95469 180.20742 
L 213.529375 178.894259 
L 211.101213 177.581098 
L 210.188719 176.267938 
L 209.910331 174.954777 
L 208.417862 173.641617 
L 208.131741 172.328456 
L 208.062144 171.015295 
L 206.415015 169.702135 
L 206.329952 168.388974 
L 203.994586 167.075813 
L 202.192797 165.762653 
L 198.620151 165.762653 
L 197.351939 164.449492 
L 197.181813 163.136332 
L 192.76627 161.823171 
L 190.83302 160.51001 
L 189.100828 159.19685 
L 187.886747 157.883689 
L 187.73982 156.570528 
L 186.417477 155.257368 
L 185.96123 153.944207 
L 185.497249 153.944207 
L 184.445561 152.631047 
L 181.878205 151.317886 
L 181.104905 150.004725 
L 178.684476 150.004725 
L 178.429287 148.691565 
L 174.80251 147.378404 
L 173.789487 146.065244 
L 172.699134 144.752083 
L 172.01863 143.438922 
L 171.879436 142.125762 
L 171.693844 140.812601 
L 170.3947 139.49944 
L 168.879032 138.18628 
L 167.881475 138.18628 
L 166.466336 136.873119 
L 166.14155 135.559959 
L 164.625882 134.246798 
L 164.022708 132.933637 
L 163.790718 131.620477 
L 161.981196 130.307316 
L 160.944974 128.994155 
L 159.514369 127.680995 
L 159.375175 126.367834 
L 159.212782 125.054674 
L 157.070741 123.741513 
L 154.240463 122.428352 
L 153.900211 122.428352 
L 153.22744 122.428352 
L 150.652351 121.115192 
L 150.567288 119.802031 
L 146.870914 119.802031 
L 146.631191 118.48887 
L 144.960863 118.48887 
L 143.081744 117.17571 
L 133.980002 115.862549 
L 132.572596 114.549389 
L 122.187177 113.236228 
L 119.828612 111.923067 
L 117.748435 110.609907 
L 116.271432 109.296746 
L 111.105788 107.983585 
L 110.966594 106.670425 
L 109.729314 106.670425 
L 105.669489 106.670425 
L 103.71304 106.670425 
L 101.85712 105.357264 
L 100.92916 104.044104 
L 96.98533 104.044104 
L 95.075279 102.730943 
L 93.026034 101.417782 
L 92.013011 100.104622 
L 91.4949 98.791461 
L 91.216512 97.478301 
L 91.015454 97.478301 
L 85.579155 97.478301 
L 82.903536 97.478301 
L 79.740739 97.478301 
L 79.168497 96.16514 
L 78.936507 96.16514 
L 77.598698 96.16514 
L 77.590965 96.16514 
L 77.157917 96.16514 
L 75.936103 96.16514 
L 75.642249 96.16514 
L 74.722022 96.16514 
L 74.567362 96.16514 
L 73.933256 96.16514 
L 73.832727 96.16514 
z
" clip-path="url(#p177354c1f0)" style="fill: #008000"/>
   </g>
   <g id="PolyCollection_2">
    <path d="M 73.832727 96.16514 
L 73.832727 96.16514 
L 73.933256 96.16514 
L 74.567362 96.16514 
L 74.722022 96.16514 
L 75.642249 96.16514 
L 75.936103 96.16514 
L 77.157917 96.16514 
L 77.590965 96.16514 
L 77.598698 96.16514 
L 78.936507 96.16514 
L 79.168497 96.16514 
L 79.740739 97.478301 
L 82.903536 97.478301 
L 85.579155 97.478301 
L 91.015454 97.478301 
L 91.216512 97.478301 
L 91.4949 98.791461 
L 92.013011 100.104622 
L 93.026034 101.417782 
L 95.075279 102.730943 
L 96.98533 104.044104 
L 100.92916 104.044104 
L 101.85712 105.357264 
L 103.71304 106.670425 
L 105.669489 106.670425 
L 109.729314 106.670425 
L 110.966594 106.670425 
L 111.105788 107.983585 
L 116.271432 109.296746 
L 117.748435 110.609907 
L 119.828612 111.923067 
L 122.187177 113.236228 
L 132.572596 114.549389 
L 133.980002 115.862549 
L 143.081744 117.17571 
L 144.960863 118.48887 
L 146.631191 118.48887 
L 146.870914 119.802031 
L 150.567288 119.802031 
L 150.652351 121.115192 
L 153.22744 122.428352 
L 153.900211 122.428352 
L 154.240463 122.428352 
L 157.070741 123.741513 
L 159.212782 125.054674 
L 159.375175 126.367834 
L 159.514369 127.680995 
L 160.944974 128.994155 
L 161.981196 130.307316 
L 163.790718 131.620477 
L 164.022708 132.933637 
L 164.625882 134.246798 
L 166.14155 135.559959 
L 166.466336 136.873119 
L 167.881475 138.18628 
L 168.879032 138.18628 
L 170.3947 139.49944 
L 171.693844 140.812601 
L 171.879436 142.125762 
L 172.01863 143.438922 
L 172.699134 144.752083 
L 173.789487 146.065244 
L 174.80251 147.378404 
L 178.429287 148.691565 
L 178.684476 150.004725 
L 181.104905 150.004725 
L 181.878205 151.317886 
L 184.445561 152.631047 
L 185.497249 153.944207 
L 185.96123 153.944207 
L 186.417477 155.257368 
L 187.73982 156.570528 
L 187.886747 157.883689 
L 189.100828 159.19685 
L 190.83302 160.51001 
L 192.76627 161.823171 
L 197.181813 163.136332 
L 197.351939 164.449492 
L 198.620151 165.762653 
L 202.192797 165.762653 
L 203.994586 167.075813 
L 206.329952 168.388974 
L 206.415015 169.702135 
L 208.062144 171.015295 
L 208.131741 172.328456 
L 208.417862 173.641617 
L 209.910331 174.954777 
L 210.188719 176.267938 
L 211.101213 177.581098 
L 213.529375 178.894259 
L 213.95469 180.20742 
L 218.045447 181.52058 
L 220.666934 182.833741 
L 222.236733 182.833741 
L 223.141494 184.146902 
L 223.7756 185.460062 
L 224.448371 186.773223 
L 225.136608 188.086383 
L 226.729606 189.399544 
L 227.069858 190.712705 
L 227.626634 192.025865 
L 228.678322 193.339026 
L 228.902579 194.652187 
L 229.621748 195.965347 
L 231.361673 197.278508 
L 233.843966 198.591668 
L 235.034848 199.904829 
L 235.552959 201.21799 
L 235.576158 202.53115 
L 237.138225 203.844311 
L 237.625404 203.844311 
L 238.924548 205.157472 
L 239.41946 206.470632 
L 240.208226 207.783793 
L 240.679939 209.096953 
L 240.919662 210.410114 
L 241.863088 211.723275 
L 244.716565 214.349596 
L 244.770696 215.662756 
L 246.363694 216.975917 
L 246.618883 218.289078 
L 246.897271 219.602238 
L 248.443871 220.915399 
L 248.583065 222.22856 
L 249.449161 223.54172 
L 249.634753 224.854881 
L 250.55498 226.168041 
L 250.616844 227.481202 
L 251.622134 228.794363 
L 252.457298 230.107523 
L 252.805283 230.107523 
L 253.26153 232.733845 
L 256.107274 234.047005 
L 256.377929 235.360166 
L 257.622942 236.673326 
L 257.66934 237.986487 
L 259.795915 239.299648 
L 259.973774 240.612808 
L 260.136167 241.925969 
L 260.414555 243.23913 
L 260.499618 244.55229 
L 260.870802 245.865451 
L 261.30385 245.865451 
L 262.688057 247.178611 
L 263.00511 248.491772 
L 265.216748 249.804933 
L 266.036446 251.118093 
L 266.856144 252.431254 
L 267.126799 253.744415 
L 267.41292 255.057575 
L 268.603802 256.370736 
L 269.168311 257.683896 
L 270.165868 258.997057 
L 270.946901 260.310218 
L 271.12476 261.623378 
L 271.20209 262.936539 
L 271.642871 265.56286 
L 273.862242 266.876021 
L 274.016902 268.189181 
L 274.890731 269.502342 
L 274.944862 270.815503 
L 275.37791 272.128663 
L 277.23383 273.441824 
L 281.301388 274.754984 
L 281.734436 276.068145 
L 281.7963 277.381306 
L 281.858164 277.381306 
L 283.969273 278.694466 
L 286.12678 280.007627 
L 287.77391 281.320788 
L 287.858973 282.633948 
L 288.539477 283.947109 
L 289.823155 285.260269 
L 291.980662 287.886591 
L 292.119856 289.199751 
L 295.545575 290.512912 
L 299.017692 291.826073 
L 302.574872 293.139233 
L 303.178046 294.452394 
L 304.330263 295.765554 
L 306.224848 297.078715 
L 312.063263 298.391876 
L 318.388857 299.705036 
L 324.389665 301.018197 
L 345.87194 302.331358 
L 345.895139 303.644518 
L 382.549559 304.957679 
L 398.487273 306.270839 
L 398.487273 306.270839 
L 398.487273 306.270839 
L 382.549559 304.957679 
L 345.895139 303.644518 
L 345.87194 302.331358 
L 324.389665 301.018197 
L 318.388857 299.705036 
L 312.063263 298.391876 
L 306.224848 297.078715 
L 304.330263 295.765554 
L 303.178046 294.452394 
L 302.574872 293.139233 
L 299.017692 291.826073 
L 295.545575 290.512912 
L 292.119856 289.199751 
L 291.980662 287.886591 
L 289.823155 285.260269 
L 288.539477 283.947109 
L 287.858973 282.633948 
L 287.77391 281.320788 
L 286.12678 280.007627 
L 283.969273 278.694466 
L 281.858164 277.381306 
L 281.7963 277.381306 
L 281.734436 276.068145 
L 281.301388 274.754984 
L 277.23383 273.441824 
L 275.37791 272.128663 
L 274.944862 270.815503 
L 274.890731 269.502342 
L 274.016902 268.189181 
L 273.862242 266.876021 
L 271.642871 265.56286 
L 271.20209 262.936539 
L 271.12476 261.623378 
L 270.946901 260.310218 
L 270.165868 258.997057 
L 269.168311 257.683896 
L 268.603802 256.370736 
L 267.41292 255.057575 
L 267.126799 253.744415 
L 266.856144 252.431254 
L 266.036446 251.118093 
L 265.216748 249.804933 
L 263.00511 248.491772 
L 262.688057 247.178611 
L 261.30385 245.865451 
L 260.870802 245.865451 
L 260.499618 244.55229 
L 260.414555 243.23913 
L 260.136167 241.925969 
L 259.973774 240.612808 
L 259.795915 239.299648 
L 257.66934 237.986487 
L 257.622942 236.673326 
L 256.377929 235.360166 
L 256.107274 234.047005 
L 253.26153 232.733845 
L 252.805283 230.107523 
L 252.457298 230.107523 
L 251.622134 228.794363 
L 250.616844 227.481202 
L 250.55498 226.168041 
L 249.634753 224.854881 
L 249.449161 223.54172 
L 248.583065 222.22856 
L 248.443871 220.915399 
L 246.897271 219.602238 
L 246.618883 218.289078 
L 246.363694 216.975917 
L 244.770696 215.662756 
L 244.716565 214.349596 
L 241.863088 211.723275 
L 240.919662 210.410114 
L 240.679939 209.096953 
L 240.208226 207.783793 
L 239.41946 206.470632 
L 238.924548 205.157472 
L 237.625404 203.844311 
L 237.138225 203.844311 
L 235.576158 202.53115 
L 235.552959 201.21799 
L 235.034848 199.904829 
L 233.843966 198.591668 
L 231.361673 197.278508 
L 229.621748 195.965347 
L 228.902579 194.652187 
L 228.678322 193.339026 
L 227.626634 192.025865 
L 227.069858 190.712705 
L 226.729606 189.399544 
L 225.136608 188.086383 
L 224.448371 186.773223 
L 223.7756 185.460062 
L 223.141494 184.146902 
L 222.236733 182.833741 
L 220.666934 182.833741 
L 218.045447 181.52058 
L 213.95469 180.20742 
L 213.529375 178.894259 
L 211.101213 177.581098 
L 210.188719 176.267938 
L 209.910331 174.954777 
L 208.417862 173.641617 
L 208.131741 172.328456 
L 208.062144 171.015295 
L 206.415015 169.702135 
L 206.329952 168.388974 
L 203.994586 167.075813 
L 202.192797 165.762653 
L 198.620151 165.762653 
L 197.351939 164.449492 
L 197.181813 163.136332 
L 192.76627 161.823171 
L 190.83302 160.51001 
L 189.100828 159.19685 
L 187.886747 157.883689 
L 187.73982 156.570528 
L 186.417477 155.257368 
L 185.96123 153.944207 
L 185.497249 153.944207 
L 184.445561 152.631047 
L 181.878205 151.317886 
L 181.104905 150.004725 
L 178.684476 150.004725 
L 178.429287 148.691565 
L 174.80251 147.378404 
L 173.789487 146.065244 
L 172.699134 144.752083 
L 172.01863 143.438922 
L 171.879436 142.125762 
L 171.693844 140.812601 
L 170.3947 139.49944 
L 168.879032 138.18628 
L 167.881475 138.18628 
L 166.466336 136.873119 
L 166.14155 135.559959 
L 164.625882 134.246798 
L 164.022708 132.933637 
L 163.790718 131.620477 
L 161.981196 130.307316 
L 160.944974 128.994155 
L 159.514369 127.680995 
L 159.375175 126.367834 
L 159.212782 125.054674 
L 157.070741 123.741513 
L 154.240463 122.428352 
L 153.900211 122.428352 
L 153.22744 122.428352 
L 150.652351 121.115192 
L 150.567288 119.802031 
L 146.870914 119.802031 
L 146.631191 118.48887 
L 144.960863 118.48887 
L 143.081744 117.17571 
L 133.980002 115.862549 
L 132.572596 114.549389 
L 122.187177 113.236228 
L 119.828612 111.923067 
L 117.748435 110.609907 
L 116.271432 109.296746 
L 111.105788 107.983585 
L 110.966594 106.670425 
L 109.729314 106.670425 
L 105.669489 106.670425 
L 103.71304 106.670425 
L 101.85712 105.357264 
L 100.92916 104.044104 
L 96.98533 104.044104 
L 95.075279 102.730943 
L 93.026034 101.417782 
L 92.013011 100.104622 
L 91.4949 98.791461 
L 91.216512 97.478301 
L 91.015454 97.478301 
L 85.579155 97.478301 
L 82.903536 97.478301 
L 79.740739 97.478301 
L 79.168497 96.16514 
L 78.936507 96.16514 
L 77.598698 96.16514 
L 77.590965 96.16514 
L 77.157917 96.16514 
L 75.936103 96.16514 
L 75.642249 96.16514 
L 74.722022 96.16514 
L 74.567362 96.16514 
L 73.933256 96.16514 
L 73.832727 96.16514 
z
" clip-path="url(#p177354c1f0)" style="fill: #7cfc00"/>
   </g>
   <g id="PolyCollection_3">
    <path d="M 73.832727 54.144 
L 73.832727 96.16514 
L 73.933256 96.16514 
L 74.567362 96.16514 
L 74.722022 96.16514 
L 75.642249 96.16514 
L 75.936103 96.16514 
L 77.157917 96.16514 
L 77.590965 96.16514 
L 77.598698 96.16514 
L 78.936507 96.16514 
L 79.168497 96.16514 
L 79.740739 97.478301 
L 82.903536 97.478301 
L 85.579155 97.478301 
L 91.015454 97.478301 
L 91.216512 97.478301 
L 91.4949 98.791461 
L 92.013011 100.104622 
L 93.026034 101.417782 
L 95.075279 102.730943 
L 96.98533 104.044104 
L 100.92916 104.044104 
L 101.85712 105.357264 
L 103.71304 106.670425 
L 105.669489 106.670425 
L 109.729314 106.670425 
L 110.966594 106.670425 
L 111.105788 107.983585 
L 116.271432 109.296746 
L 117.748435 110.609907 
L 119.828612 111.923067 
L 122.187177 113.236228 
L 132.572596 114.549389 
L 133.980002 115.862549 
L 143.081744 117.17571 
L 144.960863 118.48887 
L 146.631191 118.48887 
L 146.870914 119.802031 
L 150.567288 119.802031 
L 150.652351 121.115192 
L 153.22744 122.428352 
L 153.900211 122.428352 
L 154.240463 122.428352 
L 157.070741 123.741513 
L 159.212782 125.054674 
L 159.375175 126.367834 
L 159.514369 127.680995 
L 160.944974 128.994155 
L 161.981196 130.307316 
L 163.790718 131.620477 
L 164.022708 132.933637 
L 164.625882 134.246798 
L 166.14155 135.559959 
L 166.466336 136.873119 
L 167.881475 138.18628 
L 168.879032 138.18628 
L 170.3947 139.49944 
L 171.693844 140.812601 
L 171.879436 142.125762 
L 172.01863 143.438922 
L 172.699134 144.752083 
L 173.789487 146.065244 
L 174.80251 147.378404 
L 178.429287 148.691565 
L 178.684476 150.004725 
L 181.104905 150.004725 
L 181.878205 151.317886 
L 184.445561 152.631047 
L 185.497249 153.944207 
L 185.96123 153.944207 
L 186.417477 155.257368 
L 187.73982 156.570528 
L 187.886747 157.883689 
L 189.100828 159.19685 
L 190.83302 160.51001 
L 192.76627 161.823171 
L 197.181813 163.136332 
L 197.351939 164.449492 
L 198.620151 165.762653 
L 202.192797 165.762653 
L 203.994586 167.075813 
L 206.329952 168.388974 
L 206.415015 169.702135 
L 208.062144 171.015295 
L 208.131741 172.328456 
L 208.417862 173.641617 
L 209.910331 174.954777 
L 210.188719 176.267938 
L 211.101213 177.581098 
L 213.529375 178.894259 
L 213.95469 180.20742 
L 218.045447 181.52058 
L 220.666934 182.833741 
L 222.236733 182.833741 
L 223.141494 184.146902 
L 223.7756 185.460062 
L 224.448371 186.773223 
L 225.136608 188.086383 
L 226.729606 189.399544 
L 227.069858 190.712705 
L 227.626634 192.025865 
L 228.678322 193.339026 
L 228.902579 194.652187 
L 229.621748 195.965347 
L 231.361673 197.278508 
L 233.843966 198.591668 
L 235.034848 199.904829 
L 235.552959 201.21799 
L 235.576158 202.53115 
L 237.138225 203.844311 
L 237.625404 203.844311 
L 238.924548 205.157472 
L 239.41946 206.470632 
L 240.208226 207.783793 
L 240.679939 209.096953 
L 240.919662 210.410114 
L 241.863088 211.723275 
L 244.716565 214.349596 
L 244.770696 215.662756 
L 246.363694 216.975917 
L 246.618883 218.289078 
L 246.897271 219.602238 
L 248.443871 220.915399 
L 248.583065 222.22856 
L 249.449161 223.54172 
L 249.634753 224.854881 
L 250.55498 226.168041 
L 250.616844 227.481202 
L 251.622134 228.794363 
L 252.457298 230.107523 
L 252.805283 230.107523 
L 253.26153 232.733845 
L 256.107274 234.047005 
L 256.377929 235.360166 
L 257.622942 236.673326 
L 257.66934 237.986487 
L 259.795915 239.299648 
L 259.973774 240.612808 
L 260.136167 241.925969 
L 260.414555 243.23913 
L 260.499618 244.55229 
L 260.870802 245.865451 
L 261.30385 245.865451 
L 262.688057 247.178611 
L 263.00511 248.491772 
L 265.216748 249.804933 
L 266.036446 251.118093 
L 266.856144 252.431254 
L 267.126799 253.744415 
L 267.41292 255.057575 
L 268.603802 256.370736 
L 269.168311 257.683896 
L 270.165868 258.997057 
L 270.946901 260.310218 
L 271.12476 261.623378 
L 271.20209 262.936539 
L 271.642871 265.56286 
L 273.862242 266.876021 
L 274.016902 268.189181 
L 274.890731 269.502342 
L 274.944862 270.815503 
L 275.37791 272.128663 
L 277.23383 273.441824 
L 281.301388 274.754984 
L 281.734436 276.068145 
L 281.7963 277.381306 
L 281.858164 277.381306 
L 283.969273 278.694466 
L 286.12678 280.007627 
L 287.77391 281.320788 
L 287.858973 282.633948 
L 288.539477 283.947109 
L 289.823155 285.260269 
L 291.980662 287.886591 
L 292.119856 289.199751 
L 295.545575 290.512912 
L 299.017692 291.826073 
L 302.574872 293.139233 
L 303.178046 294.452394 
L 304.330263 295.765554 
L 306.224848 297.078715 
L 312.063263 298.391876 
L 318.388857 299.705036 
L 324.389665 301.018197 
L 345.87194 302.331358 
L 345.895139 303.644518 
L 382.549559 304.957679 
L 398.487273 306.270839 
L 398.487273 306.270839 
L 398.487273 306.270839 
L 382.549559 304.957679 
L 345.895139 303.644518 
L 345.87194 302.331358 
L 324.389665 301.018197 
L 318.388857 299.705036 
L 312.063263 298.391876 
L 306.224848 297.078715 
L 304.330263 295.765554 
L 303.178046 294.452394 
L 302.574872 293.139233 
L 299.017692 291.826073 
L 295.545575 290.512912 
L 292.119856 289.199751 
L 291.980662 287.886591 
L 289.823155 285.260269 
L 288.539477 283.947109 
L 287.858973 282.633948 
L 287.77391 281.320788 
L 286.12678 280.007627 
L 283.969273 278.694466 
L 281.858164 277.381306 
L 281.7963 276.068145 
L 281.734436 274.754984 
L 281.301388 273.441824 
L 277.23383 272.128663 
L 275.37791 270.815503 
L 274.944862 269.502342 
L 274.890731 268.189181 
L 274.016902 266.876021 
L 273.862242 265.56286 
L 271.642871 264.249699 
L 271.20209 261.623378 
L 271.12476 260.310218 
L 270.946901 258.997057 
L 270.165868 257.683896 
L 269.168311 256.370736 
L 268.603802 255.057575 
L 267.41292 253.744415 
L 267.126799 252.431254 
L 266.856144 251.118093 
L 266.036446 249.804933 
L 265.216748 248.491772 
L 263.00511 247.178611 
L 262.688057 245.865451 
L 261.30385 244.55229 
L 260.870802 243.23913 
L 260.499618 241.925969 
L 260.414555 240.612808 
L 260.136167 239.299648 
L 259.973774 237.986487 
L 259.795915 236.673326 
L 257.66934 235.360166 
L 257.622942 234.047005 
L 256.377929 232.733845 
L 256.107274 231.420684 
L 253.26153 230.107523 
L 252.805283 227.481202 
L 252.457298 226.168041 
L 251.622134 224.854881 
L 250.616844 223.54172 
L 250.55498 222.22856 
L 249.634753 220.915399 
L 249.449161 219.602238 
L 248.583065 218.289078 
L 248.443871 216.975917 
L 246.897271 215.662756 
L 246.618883 214.349596 
L 246.363694 213.036435 
L 244.770696 211.723275 
L 244.716565 210.410114 
L 241.863088 207.783793 
L 240.919662 206.470632 
L 240.679939 205.157472 
L 240.208226 203.844311 
L 239.41946 202.53115 
L 238.924548 201.21799 
L 237.625404 199.904829 
L 237.138225 198.591668 
L 235.576158 197.278508 
L 235.552959 195.965347 
L 235.034848 194.652187 
L 233.843966 193.339026 
L 231.361673 192.025865 
L 229.621748 190.712705 
L 228.902579 189.399544 
L 228.678322 188.086383 
L 227.626634 186.773223 
L 227.069858 185.460062 
L 226.729606 184.146902 
L 225.136608 182.833741 
L 224.448371 181.52058 
L 223.7756 180.20742 
L 223.141494 178.894259 
L 222.236733 177.581098 
L 220.666934 176.267938 
L 218.045447 174.954777 
L 213.95469 173.641617 
L 213.529375 172.328456 
L 211.101213 171.015295 
L 210.188719 169.702135 
L 209.910331 168.388974 
L 208.417862 167.075813 
L 208.131741 165.762653 
L 208.062144 164.449492 
L 206.415015 163.136332 
L 206.329952 161.823171 
L 203.994586 160.51001 
L 202.192797 159.19685 
L 198.620151 157.883689 
L 197.351939 156.570528 
L 197.181813 155.257368 
L 192.76627 153.944207 
L 190.83302 152.631047 
L 189.100828 151.317886 
L 187.886747 150.004725 
L 187.73982 148.691565 
L 186.417477 147.378404 
L 185.96123 146.065244 
L 185.497249 144.752083 
L 184.445561 143.438922 
L 181.878205 142.125762 
L 181.104905 140.812601 
L 178.684476 139.49944 
L 178.429287 138.18628 
L 174.80251 136.873119 
L 173.789487 135.559959 
L 172.699134 134.246798 
L 172.01863 132.933637 
L 171.879436 131.620477 
L 171.693844 130.307316 
L 170.3947 128.994155 
L 168.879032 127.680995 
L 167.881475 126.367834 
L 166.466336 125.054674 
L 166.14155 123.741513 
L 164.625882 122.428352 
L 164.022708 121.115192 
L 163.790718 119.802031 
L 161.981196 118.48887 
L 160.944974 117.17571 
L 159.514369 115.862549 
L 159.375175 114.549389 
L 159.212782 113.236228 
L 157.070741 111.923067 
L 154.240463 110.609907 
L 153.900211 109.296746 
L 153.22744 107.983585 
L 150.652351 106.670425 
L 150.567288 105.357264 
L 146.870914 104.044104 
L 146.631191 102.730943 
L 144.960863 101.417782 
L 143.081744 100.104622 
L 133.980002 98.791461 
L 132.572596 97.478301 
L 122.187177 96.16514 
L 119.828612 94.851979 
L 117.748435 93.538819 
L 116.271432 92.225658 
L 111.105788 90.912497 
L 110.966594 89.599337 
L 109.729314 88.286176 
L 105.669489 86.973016 
L 103.71304 85.659855 
L 101.85712 84.346694 
L 100.92916 83.033534 
L 96.98533 81.720373 
L 95.075279 80.407212 
L 93.026034 79.094052 
L 92.013011 77.780891 
L 91.4949 76.467731 
L 91.216512 75.15457 
L 91.015454 73.841409 
L 85.579155 72.528249 
L 82.903536 71.215088 
L 79.740739 69.901927 
L 79.168497 68.588767 
L 78.936507 67.275606 
L 77.598698 65.962446 
L 77.590965 63.336124 
L 77.157917 62.022964 
L 75.936103 60.709803 
L 75.642249 59.396642 
L 74.722022 58.083482 
L 74.567362 56.770321 
L 73.933256 55.457161 
L 73.832727 54.144 
z
" clip-path="url(#p177354c1f0)" style="fill: #ff0000"/>
   </g>
   <g id="matplotlib.axis_1">
    <g id="xtick_1">
     <g id="line2d_1">
      <defs>
       <path id="mc4be0e5cef" d="M 0 0 
L 0 3.5 
" style="stroke: #000000; stroke-width: 0.8"/>
      </defs>
      <g>
       <use xlink:href="#mc4be0e5cef" x="58.768843" y="307.584" style="stroke: #000000; stroke-width: 0.8"/>
      </g>
     </g>
     <g id="text_1">
      <!-- 0 -->
      <g transform="translate(55.587593 322.182437)scale(0.1 -0.1)">
       <defs>
        <path id="DejaVuSans-30" d="M 2034 4250 
Q 1547 4250 1301 3770 
Q 1056 3291 1056 2328 
Q 1056 1369 1301 889 
Q 1547 409 2034 409 
Q 2525 409 2770 889 
Q 3016 1369 3016 2328 
Q 3016 3291 2770 3770 
Q 2525 4250 2034 4250 
z
M 2034 4750 
Q 2819 4750 3233 4129 
Q 3647 3509 3647 2328 
Q 3647 1150 3233 529 
Q 2819 -91 2034 -91 
Q 1250 -91 836 529 
Q 422 1150 422 2328 
Q 422 3509 836 4129 
Q 1250 4750 2034 4750 
z
" transform="scale(0.015625)"/>
       </defs>
       <use xlink:href="#DejaVuSans-30"/>
      </g>
     </g>
    </g>
    <g id="xtick_2">
     <g id="line2d_2">
      <g>
       <use xlink:href="#mc4be0e5cef" x="136.098845" y="307.584" style="stroke: #000000; stroke-width: 0.8"/>
      </g>
     </g>
     <g id="text_2">
      <!-- 100 -->
      <g transform="translate(126.555095 322.182437)scale(0.1 -0.1)">
       <defs>
        <path id="DejaVuSans-31" d="M 794 531 
L 1825 531 
L 1825 4091 
L 703 3866 
L 703 4441 
L 1819 4666 
L 2450 4666 
L 2450 531 
L 3481 531 
L 3481 0 
L 794 0 
L 794 531 
z
" transform="scale(0.015625)"/>
       </defs>
       <use xlink:href="#DejaVuSans-31"/>
       <use xlink:href="#DejaVuSans-30" x="63.623047"/>
       <use xlink:href="#DejaVuSans-30" x="127.246094"/>
      </g>
     </g>
    </g>
    <g id="xtick_3">
     <g id="line2d_3">
      <g>
       <use xlink:href="#mc4be0e5cef" x="213.428846" y="307.584" style="stroke: #000000; stroke-width: 0.8"/>
      </g>
     </g>
     <g id="text_3">
      <!-- 200 -->
      <g transform="translate(203.885096 322.182437)scale(0.1 -0.1)">
       <defs>
        <path id="DejaVuSans-32" d="M 1228 531 
L 3431 531 
L 3431 0 
L 469 0 
L 469 531 
Q 828 903 1448 1529 
Q 2069 2156 2228 2338 
Q 2531 2678 2651 2914 
Q 2772 3150 2772 3378 
Q 2772 3750 2511 3984 
Q 2250 4219 1831 4219 
Q 1534 4219 1204 4116 
Q 875 4013 500 3803 
L 500 4441 
Q 881 4594 1212 4672 
Q 1544 4750 1819 4750 
Q 2544 4750 2975 4387 
Q 3406 4025 3406 3419 
Q 3406 3131 3298 2873 
Q 3191 2616 2906 2266 
Q 2828 2175 2409 1742 
Q 1991 1309 1228 531 
z
" transform="scale(0.015625)"/>
       </defs>
       <use xlink:href="#DejaVuSans-32"/>
       <use xlink:href="#DejaVuSans-30" x="63.623047"/>
       <use xlink:href="#DejaVuSans-30" x="127.246094"/>
      </g>
     </g>
    </g>
    <g id="xtick_4">
     <g id="line2d_4">
      <g>
       <use xlink:href="#mc4be0e5cef" x="290.758848" y="307.584" style="stroke: #000000; stroke-width: 0.8"/>
      </g>
     </g>
     <g id="text_4">
      <!-- 300 -->
      <g transform="translate(281.215098 322.182437)scale(0.1 -0.1)">
       <defs>
        <path id="DejaVuSans-33" d="M 2597 2516 
Q 3050 2419 3304 2112 
Q 3559 1806 3559 1356 
Q 3559 666 3084 287 
Q 2609 -91 1734 -91 
Q 1441 -91 1130 -33 
Q 819 25 488 141 
L 488 750 
Q 750 597 1062 519 
Q 1375 441 1716 441 
Q 2309 441 2620 675 
Q 2931 909 2931 1356 
Q 2931 1769 2642 2001 
Q 2353 2234 1838 2234 
L 1294 2234 
L 1294 2753 
L 1863 2753 
Q 2328 2753 2575 2939 
Q 2822 3125 2822 3475 
Q 2822 3834 2567 4026 
Q 2313 4219 1838 4219 
Q 1578 4219 1281 4162 
Q 984 4106 628 3988 
L 628 4550 
Q 988 4650 1302 4700 
Q 1616 4750 1894 4750 
Q 2613 4750 3031 4423 
Q 3450 4097 3450 3541 
Q 3450 3153 3228 2886 
Q 3006 2619 2597 2516 
z
" transform="scale(0.015625)"/>
       </defs>
       <use xlink:href="#DejaVuSans-33"/>
       <use xlink:href="#DejaVuSans-30" x="63.623047"/>
       <use xlink:href="#DejaVuSans-30" x="127.246094"/>
      </g>
     </g>
    </g>
    <g id="xtick_5">
     <g id="line2d_5">
      <g>
       <use xlink:href="#mc4be0e5cef" x="368.088849" y="307.584" style="stroke: #000000; stroke-width: 0.8"/>
      </g>
     </g>
     <g id="text_5">
      <!-- 400 -->
      <g transform="translate(358.545099 322.182437)scale(0.1 -0.1)">
       <defs>
        <path id="DejaVuSans-34" d="M 2419 4116 
L 825 1625 
L 2419 1625 
L 2419 4116 
z
M 2253 4666 
L 3047 4666 
L 3047 1625 
L 3713 1625 
L 3713 1100 
L 3047 1100 
L 3047 0 
L 2419 0 
L 2419 1100 
L 313 1100 
L 313 1709 
L 2253 4666 
z
" transform="scale(0.015625)"/>
       </defs>
       <use xlink:href="#DejaVuSans-34"/>
       <use xlink:href="#DejaVuSans-30" x="63.623047"/>
       <use xlink:href="#DejaVuSans-30" x="127.246094"/>
      </g>
     </g>
    </g>
    <g id="text_6">
     <!-- Score -->
     <g transform="translate(222.157656 335.860562)scale(0.1 -0.1)">
      <defs>
       <path id="DejaVuSans-53" d="M 3425 4513 
L 3425 3897 
Q 3066 4069 2747 4153 
Q 2428 4238 2131 4238 
Q 1616 4238 1336 4038 
Q 1056 3838 1056 3469 
Q 1056 3159 1242 3001 
Q 1428 2844 1947 2747 
L 2328 2669 
Q 3034 2534 3370 2195 
Q 3706 1856 3706 1288 
Q 3706 609 3251 259 
Q 2797 -91 1919 -91 
Q 1588 -91 1214 -16 
Q 841 59 441 206 
L 441 856 
Q 825 641 1194 531 
Q 1563 422 1919 422 
Q 2459 422 2753 634 
Q 3047 847 3047 1241 
Q 3047 1584 2836 1778 
Q 2625 1972 2144 2069 
L 1759 2144 
Q 1053 2284 737 2584 
Q 422 2884 422 3419 
Q 422 4038 858 4394 
Q 1294 4750 2059 4750 
Q 2388 4750 2728 4690 
Q 3069 4631 3425 4513 
z
" transform="scale(0.015625)"/>
       <path id="DejaVuSans-63" d="M 3122 3366 
L 3122 2828 
Q 2878 2963 2633 3030 
Q 2388 3097 2138 3097 
Q 1578 3097 1268 2742 
Q 959 2388 959 1747 
Q 959 1106 1268 751 
Q 1578 397 2138 397 
Q 2388 397 2633 464 
Q 2878 531 3122 666 
L 3122 134 
Q 2881 22 2623 -34 
Q 2366 -91 2075 -91 
Q 1284 -91 818 406 
Q 353 903 353 1747 
Q 353 2603 823 3093 
Q 1294 3584 2113 3584 
Q 2378 3584 2631 3529 
Q 2884 3475 3122 3366 
z
" transform="scale(0.015625)"/>
       <path id="DejaVuSans-6f" d="M 1959 3097 
Q 1497 3097 1228 2736 
Q 959 2375 959 1747 
Q 959 1119 1226 758 
Q 1494 397 1959 397 
Q 2419 397 2687 759 
Q 2956 1122 2956 1747 
Q 2956 2369 2687 2733 
Q 2419 3097 1959 3097 
z
M 1959 3584 
Q 2709 3584 3137 3096 
Q 3566 2609 3566 1747 
Q 3566 888 3137 398 
Q 2709 -91 1959 -91 
Q 1206 -91 779 398 
Q 353 888 353 1747 
Q 353 2609 779 3096 
Q 1206 3584 1959 3584 
z
" transform="scale(0.015625)"/>
       <path id="DejaVuSans-72" d="M 2631 2963 
Q 2534 3019 2420 3045 
Q 2306 3072 2169 3072 
Q 1681 3072 1420 2755 
Q 1159 2438 1159 1844 
L 1159 0 
L 581 0 
L 581 3500 
L 1159 3500 
L 1159 2956 
Q 1341 3275 1631 3429 
Q 1922 3584 2338 3584 
Q 2397 3584 2469 3576 
Q 2541 3569 2628 3553 
L 2631 2963 
z
" transform="scale(0.015625)"/>
       <path id="DejaVuSans-65" d="M 3597 1894 
L 3597 1613 
L 953 1613 
Q 991 1019 1311 708 
Q 1631 397 2203 397 
Q 2534 397 2845 478 
Q 3156 559 3463 722 
L 3463 178 
Q 3153 47 2828 -22 
Q 2503 -91 2169 -91 
Q 1331 -91 842 396 
Q 353 884 353 1716 
Q 353 2575 817 3079 
Q 1281 3584 2069 3584 
Q 2775 3584 3186 3129 
Q 3597 2675 3597 1894 
z
M 3022 2063 
Q 3016 2534 2758 2815 
Q 2500 3097 2075 3097 
Q 1594 3097 1305 2825 
Q 1016 2553 972 2059 
L 3022 2063 
z
" transform="scale(0.015625)"/>
      </defs>
      <use xlink:href="#DejaVuSans-53"/>
      <use xlink:href="#DejaVuSans-63" x="63.476562"/>
      <use xlink:href="#DejaVuSans-6f" x="118.457031"/>
      <use xlink:href="#DejaVuSans-72" x="179.638672"/>
      <use xlink:href="#DejaVuSans-65" x="218.501953"/>
     </g>
    </g>
   </g>
   <g id="matplotlib.axis_2">
    <g id="ytick_1">
     <g id="line2d_6">
      <defs>
       <path id="m72a6af3778" d="M 0 0 
L -3.5 0 
" style="stroke: #000000; stroke-width: 0.8"/>
      </defs>
      <g>
       <use xlink:href="#m72a6af3778" x="57.6" y="307.584" style="stroke: #000000; stroke-width: 0.8"/>
      </g>
     </g>
     <g id="text_7">
      <!-- 0 -->
      <g transform="translate(44.2375 311.383219)scale(0.1 -0.1)">
       <use xlink:href="#DejaVuSans-30"/>
      </g>
     </g>
    </g>
    <g id="ytick_2">
     <g id="line2d_7">
      <g>
       <use xlink:href="#m72a6af3778" x="57.6" y="274.754984" style="stroke: #000000; stroke-width: 0.8"/>
      </g>
     </g>
     <g id="text_8">
      <!-- 25 -->
      <g transform="translate(37.875 278.554203)scale(0.1 -0.1)">
       <defs>
        <path id="DejaVuSans-35" d="M 691 4666 
L 3169 4666 
L 3169 4134 
L 1269 4134 
L 1269 2991 
Q 1406 3038 1543 3061 
Q 1681 3084 1819 3084 
Q 2600 3084 3056 2656 
Q 3513 2228 3513 1497 
Q 3513 744 3044 326 
Q 2575 -91 1722 -91 
Q 1428 -91 1123 -41 
Q 819 9 494 109 
L 494 744 
Q 775 591 1075 516 
Q 1375 441 1709 441 
Q 2250 441 2565 725 
Q 2881 1009 2881 1497 
Q 2881 1984 2565 2268 
Q 2250 2553 1709 2553 
Q 1456 2553 1204 2497 
Q 953 2441 691 2322 
L 691 4666 
z
" transform="scale(0.015625)"/>
       </defs>
       <use xlink:href="#DejaVuSans-32"/>
       <use xlink:href="#DejaVuSans-35" x="63.623047"/>
      </g>
     </g>
    </g>
    <g id="ytick_3">
     <g id="line2d_8">
      <g>
       <use xlink:href="#m72a6af3778" x="57.6" y="241.925969" style="stroke: #000000; stroke-width: 0.8"/>
      </g>
     </g>
     <g id="text_9">
      <!-- 50 -->
      <g transform="translate(37.875 245.725188)scale(0.1 -0.1)">
       <use xlink:href="#DejaVuSans-35"/>
       <use xlink:href="#DejaVuSans-30" x="63.623047"/>
      </g>
     </g>
    </g>
    <g id="ytick_4">
     <g id="line2d_9">
      <g>
       <use xlink:href="#m72a6af3778" x="57.6" y="209.096953" style="stroke: #000000; stroke-width: 0.8"/>
      </g>
     </g>
     <g id="text_10">
      <!-- 75 -->
      <g transform="translate(37.875 212.896172)scale(0.1 -0.1)">
       <defs>
        <path id="DejaVuSans-37" d="M 525 4666 
L 3525 4666 
L 3525 4397 
L 1831 0 
L 1172 0 
L 2766 4134 
L 525 4134 
L 525 4666 
z
" transform="scale(0.015625)"/>
       </defs>
       <use xlink:href="#DejaVuSans-37"/>
       <use xlink:href="#DejaVuSans-35" x="63.623047"/>
      </g>
     </g>
    </g>
    <g id="ytick_5">
     <g id="line2d_10">
      <g>
       <use xlink:href="#m72a6af3778" x="57.6" y="176.267938" style="stroke: #000000; stroke-width: 0.8"/>
      </g>
     </g>
     <g id="text_11">
      <!-- 100 -->
      <g transform="translate(31.5125 180.067157)scale(0.1 -0.1)">
       <use xlink:href="#DejaVuSans-31"/>
       <use xlink:href="#DejaVuSans-30" x="63.623047"/>
       <use xlink:href="#DejaVuSans-30" x="127.246094"/>
      </g>
     </g>
    </g>
    <g id="ytick_6">
     <g id="line2d_11">
      <g>
       <use xlink:href="#m72a6af3778" x="57.6" y="143.438922" style="stroke: #000000; stroke-width: 0.8"/>
      </g>
     </g>
     <g id="text_12">
      <!-- 125 -->
      <g transform="translate(31.5125 147.238141)scale(0.1 -0.1)">
       <use xlink:href="#DejaVuSans-31"/>
       <use xlink:href="#DejaVuSans-32" x="63.623047"/>
       <use xlink:href="#DejaVuSans-35" x="127.246094"/>
      </g>
     </g>
    </g>
    <g id="ytick_7">
     <g id="line2d_12">
      <g>
       <use xlink:href="#m72a6af3778" x="57.6" y="110.609907" style="stroke: #000000; stroke-width: 0.8"/>
      </g>
     </g>
     <g id="text_13">
      <!-- 150 -->
      <g transform="translate(31.5125 114.409125)scale(0.1 -0.1)">
       <use xlink:href="#DejaVuSans-31"/>
       <use xlink:href="#DejaVuSans-35" x="63.623047"/>
       <use xlink:href="#DejaVuSans-30" x="127.246094"/>
      </g>
     </g>
    </g>
    <g id="ytick_8">
     <g id="line2d_13">
      <g>
       <use xlink:href="#m72a6af3778" x="57.6" y="77.780891" style="stroke: #000000; stroke-width: 0.8"/>
      </g>
     </g>
     <g id="text_14">
      <!-- 175 -->
      <g transform="translate(31.5125 81.58011)scale(0.1 -0.1)">
       <use xlink:href="#DejaVuSans-31"/>
       <use xlink:href="#DejaVuSans-37" x="63.623047"/>
       <use xlink:href="#DejaVuSans-35" x="127.246094"/>
      </g>
     </g>
    </g>
    <g id="ytick_9">
     <g id="line2d_14">
      <g>
       <use xlink:href="#m72a6af3778" x="57.6" y="44.951876" style="stroke: #000000; stroke-width: 0.8"/>
      </g>
     </g>
     <g id="text_15">
      <!-- 200 -->
      <g transform="translate(31.5125 48.751094)scale(0.1 -0.1)">
       <use xlink:href="#DejaVuSans-32"/>
       <use xlink:href="#DejaVuSans-30" x="63.623047"/>
       <use xlink:href="#DejaVuSans-30" x="127.246094"/>
      </g>
     </g>
    </g>
    <g id="text_16">
     <!-- Number of crosslinks -->
     <g transform="translate(25.432812 227.019406)rotate(-90)scale(0.1 -0.1)">
      <defs>
       <path id="DejaVuSans-4e" d="M 628 4666 
L 1478 4666 
L 3547 763 
L 3547 4666 
L 4159 4666 
L 4159 0 
L 3309 0 
L 1241 3903 
L 1241 0 
L 628 0 
L 628 4666 
z
" transform="scale(0.015625)"/>
       <path id="DejaVuSans-75" d="M 544 1381 
L 544 3500 
L 1119 3500 
L 1119 1403 
Q 1119 906 1312 657 
Q 1506 409 1894 409 
Q 2359 409 2629 706 
Q 2900 1003 2900 1516 
L 2900 3500 
L 3475 3500 
L 3475 0 
L 2900 0 
L 2900 538 
Q 2691 219 2414 64 
Q 2138 -91 1772 -91 
Q 1169 -91 856 284 
Q 544 659 544 1381 
z
M 1991 3584 
L 1991 3584 
z
" transform="scale(0.015625)"/>
       <path id="DejaVuSans-6d" d="M 3328 2828 
Q 3544 3216 3844 3400 
Q 4144 3584 4550 3584 
Q 5097 3584 5394 3201 
Q 5691 2819 5691 2113 
L 5691 0 
L 5113 0 
L 5113 2094 
Q 5113 2597 4934 2840 
Q 4756 3084 4391 3084 
Q 3944 3084 3684 2787 
Q 3425 2491 3425 1978 
L 3425 0 
L 2847 0 
L 2847 2094 
Q 2847 2600 2669 2842 
Q 2491 3084 2119 3084 
Q 1678 3084 1418 2786 
Q 1159 2488 1159 1978 
L 1159 0 
L 581 0 
L 581 3500 
L 1159 3500 
L 1159 2956 
Q 1356 3278 1631 3431 
Q 1906 3584 2284 3584 
Q 2666 3584 2933 3390 
Q 3200 3197 3328 2828 
z
" transform="scale(0.015625)"/>
       <path id="DejaVuSans-62" d="M 3116 1747 
Q 3116 2381 2855 2742 
Q 2594 3103 2138 3103 
Q 1681 3103 1420 2742 
Q 1159 2381 1159 1747 
Q 1159 1113 1420 752 
Q 1681 391 2138 391 
Q 2594 391 2855 752 
Q 3116 1113 3116 1747 
z
M 1159 2969 
Q 1341 3281 1617 3432 
Q 1894 3584 2278 3584 
Q 2916 3584 3314 3078 
Q 3713 2572 3713 1747 
Q 3713 922 3314 415 
Q 2916 -91 2278 -91 
Q 1894 -91 1617 61 
Q 1341 213 1159 525 
L 1159 0 
L 581 0 
L 581 4863 
L 1159 4863 
L 1159 2969 
z
" transform="scale(0.015625)"/>
       <path id="DejaVuSans-20" transform="scale(0.015625)"/>
       <path id="DejaVuSans-66" d="M 2375 4863 
L 2375 4384 
L 1825 4384 
Q 1516 4384 1395 4259 
Q 1275 4134 1275 3809 
L 1275 3500 
L 2222 3500 
L 2222 3053 
L 1275 3053 
L 1275 0 
L 697 0 
L 697 3053 
L 147 3053 
L 147 3500 
L 697 3500 
L 697 3744 
Q 697 4328 969 4595 
Q 1241 4863 1831 4863 
L 2375 4863 
z
" transform="scale(0.015625)"/>
       <path id="DejaVuSans-73" d="M 2834 3397 
L 2834 2853 
Q 2591 2978 2328 3040 
Q 2066 3103 1784 3103 
Q 1356 3103 1142 2972 
Q 928 2841 928 2578 
Q 928 2378 1081 2264 
Q 1234 2150 1697 2047 
L 1894 2003 
Q 2506 1872 2764 1633 
Q 3022 1394 3022 966 
Q 3022 478 2636 193 
Q 2250 -91 1575 -91 
Q 1294 -91 989 -36 
Q 684 19 347 128 
L 347 722 
Q 666 556 975 473 
Q 1284 391 1588 391 
Q 1994 391 2212 530 
Q 2431 669 2431 922 
Q 2431 1156 2273 1281 
Q 2116 1406 1581 1522 
L 1381 1569 
Q 847 1681 609 1914 
Q 372 2147 372 2553 
Q 372 3047 722 3315 
Q 1072 3584 1716 3584 
Q 2034 3584 2315 3537 
Q 2597 3491 2834 3397 
z
" transform="scale(0.015625)"/>
       <path id="DejaVuSans-6c" d="M 603 4863 
L 1178 4863 
L 1178 0 
L 603 0 
L 603 4863 
z
" transform="scale(0.015625)"/>
       <path id="DejaVuSans-69" d="M 603 3500 
L 1178 3500 
L 1178 0 
L 603 0 
L 603 3500 
z
M 603 4863 
L 1178 4863 
L 1178 4134 
L 603 4134 
L 603 4863 
z
" transform="scale(0.015625)"/>
       <path id="DejaVuSans-6e" d="M 3513 2113 
L 3513 0 
L 2938 0 
L 2938 2094 
Q 2938 2591 2744 2837 
Q 2550 3084 2163 3084 
Q 1697 3084 1428 2787 
Q 1159 2491 1159 1978 
L 1159 0 
L 581 0 
L 581 3500 
L 1159 3500 
L 1159 2956 
Q 1366 3272 1645 3428 
Q 1925 3584 2291 3584 
Q 2894 3584 3203 3211 
Q 3513 2838 3513 2113 
z
" transform="scale(0.015625)"/>
       <path id="DejaVuSans-6b" d="M 581 4863 
L 1159 4863 
L 1159 1991 
L 2875 3500 
L 3609 3500 
L 1753 1863 
L 3688 0 
L 2938 0 
L 1159 1709 
L 1159 0 
L 581 0 
L 581 4863 
z
" transform="scale(0.015625)"/>
      </defs>
      <use xlink:href="#DejaVuSans-4e"/>
      <use xlink:href="#DejaVuSans-75" x="74.804688"/>
      <use xlink:href="#DejaVuSans-6d" x="138.183594"/>
      <use xlink:href="#DejaVuSans-62" x="235.595703"/>
      <use xlink:href="#DejaVuSans-65" x="299.072266"/>
      <use xlink:href="#DejaVuSans-72" x="360.595703"/>
      <use xlink:href="#DejaVuSans-20" x="401.708984"/>
      <use xlink:href="#DejaVuSans-6f" x="433.496094"/>
      <use xlink:href="#DejaVuSans-66" x="494.677734"/>
      <use xlink:href="#DejaVuSans-20" x="529.882812"/>
      <use xlink:href="#DejaVuSans-63" x="561.669922"/>
      <use xlink:href="#DejaVuSans-72" x="616.650391"/>
      <use xlink:href="#DejaVuSans-6f" x="655.513672"/>
      <use xlink:href="#DejaVuSans-73" x="716.695312"/>
      <use xlink:href="#DejaVuSans-73" x="768.794922"/>
      <use xlink:href="#DejaVuSans-6c" x="820.894531"/>
      <use xlink:href="#DejaVuSans-69" x="848.677734"/>
      <use xlink:href="#DejaVuSans-6e" x="876.460938"/>
      <use xlink:href="#DejaVuSans-6b" x="939.839844"/>
      <use xlink:href="#DejaVuSans-73" x="997.75"/>
     </g>
    </g>
   </g>
   <g id="patch_3">
    <path d="M 57.6 307.584 
L 57.6 41.472 
" style="fill: none; stroke: #000000; stroke-width: 0.8; stroke-linejoin: miter; stroke-linecap: square"/>
   </g>
   <g id="patch_4">
    <path d="M 414.72 307.584 
L 414.72 41.472 
" style="fill: none; stroke: #000000; stroke-width: 0.8; stroke-linejoin: miter; stroke-linecap: square"/>
   </g>
   <g id="patch_5">
    <path d="M 57.6 307.584 
L 414.72 307.584 
" style="fill: none; stroke: #000000; stroke-width: 0.8; stroke-linejoin: miter; stroke-linecap: square"/>
   </g>
   <g id="patch_6">
    <path d="M 57.6 41.472 
L 414.72 41.472 
" style="fill: none; stroke: #000000; stroke-width: 0.8; stroke-linejoin: miter; stroke-linecap: square"/>
   </g>
   <g id="legend_1">
    <g id="patch_7">
     <path d="M 278.598125 93.506375 
L 407.72 93.506375 
Q 409.72 93.506375 409.72 91.506375 
L 409.72 48.472 
Q 409.72 46.472 407.72 46.472 
L 278.598125 46.472 
Q 276.598125 46.472 276.598125 48.472 
L 276.598125 91.506375 
Q 276.598125 93.506375 278.598125 93.506375 
z
" style="fill: #ffffff; opacity: 0.8; stroke: #cccccc; stroke-linejoin: miter"/>
    </g>
    <g id="patch_8">
     <path d="M 280.598125 58.070438 
L 300.598125 58.070438 
L 300.598125 51.070438 
L 280.598125 51.070438 
z
" style="fill: #008000"/>
    </g>
    <g id="text_17">
     <!-- correct -->
     <g transform="translate(308.598125 58.070438)scale(0.1 -0.1)">
      <defs>
       <path id="DejaVuSans-74" d="M 1172 4494 
L 1172 3500 
L 2356 3500 
L 2356 3053 
L 1172 3053 
L 1172 1153 
Q 1172 725 1289 603 
Q 1406 481 1766 481 
L 2356 481 
L 2356 0 
L 1766 0 
Q 1100 0 847 248 
Q 594 497 594 1153 
L 594 3053 
L 172 3053 
L 172 3500 
L 594 3500 
L 594 4494 
L 1172 4494 
z
" transform="scale(0.015625)"/>
      </defs>
      <use xlink:href="#DejaVuSans-63"/>
      <use xlink:href="#DejaVuSans-6f" x="54.980469"/>
      <use xlink:href="#DejaVuSans-72" x="116.162109"/>
      <use xlink:href="#DejaVuSans-72" x="155.525391"/>
      <use xlink:href="#DejaVuSans-65" x="194.388672"/>
      <use xlink:href="#DejaVuSans-63" x="255.912109"/>
      <use xlink:href="#DejaVuSans-74" x="310.892578"/>
     </g>
    </g>
    <g id="patch_9">
     <path d="M 280.598125 72.748563 
L 300.598125 72.748563 
L 300.598125 65.748563 
L 280.598125 65.748563 
z
" style="fill: #7cfc00"/>
    </g>
    <g id="text_18">
     <!-- correct homeotypic -->
     <g transform="translate(308.598125 72.748563)scale(0.1 -0.1)">
      <defs>
       <path id="DejaVuSans-68" d="M 3513 2113 
L 3513 0 
L 2938 0 
L 2938 2094 
Q 2938 2591 2744 2837 
Q 2550 3084 2163 3084 
Q 1697 3084 1428 2787 
Q 1159 2491 1159 1978 
L 1159 0 
L 581 0 
L 581 4863 
L 1159 4863 
L 1159 2956 
Q 1366 3272 1645 3428 
Q 1925 3584 2291 3584 
Q 2894 3584 3203 3211 
Q 3513 2838 3513 2113 
z
" transform="scale(0.015625)"/>
       <path id="DejaVuSans-79" d="M 2059 -325 
Q 1816 -950 1584 -1140 
Q 1353 -1331 966 -1331 
L 506 -1331 
L 506 -850 
L 844 -850 
Q 1081 -850 1212 -737 
Q 1344 -625 1503 -206 
L 1606 56 
L 191 3500 
L 800 3500 
L 1894 763 
L 2988 3500 
L 3597 3500 
L 2059 -325 
z
" transform="scale(0.015625)"/>
       <path id="DejaVuSans-70" d="M 1159 525 
L 1159 -1331 
L 581 -1331 
L 581 3500 
L 1159 3500 
L 1159 2969 
Q 1341 3281 1617 3432 
Q 1894 3584 2278 3584 
Q 2916 3584 3314 3078 
Q 3713 2572 3713 1747 
Q 3713 922 3314 415 
Q 2916 -91 2278 -91 
Q 1894 -91 1617 61 
Q 1341 213 1159 525 
z
M 3116 1747 
Q 3116 2381 2855 2742 
Q 2594 3103 2138 3103 
Q 1681 3103 1420 2742 
Q 1159 2381 1159 1747 
Q 1159 1113 1420 752 
Q 1681 391 2138 391 
Q 2594 391 2855 752 
Q 3116 1113 3116 1747 
z
" transform="scale(0.015625)"/>
      </defs>
      <use xlink:href="#DejaVuSans-63"/>
      <use xlink:href="#DejaVuSans-6f" x="54.980469"/>
      <use xlink:href="#DejaVuSans-72" x="116.162109"/>
      <use xlink:href="#DejaVuSans-72" x="155.525391"/>
      <use xlink:href="#DejaVuSans-65" x="194.388672"/>
      <use xlink:href="#DejaVuSans-63" x="255.912109"/>
      <use xlink:href="#DejaVuSans-74" x="310.892578"/>
      <use xlink:href="#DejaVuSans-20" x="350.101562"/>
      <use xlink:href="#DejaVuSans-68" x="381.888672"/>
      <use xlink:href="#DejaVuSans-6f" x="445.267578"/>
      <use xlink:href="#DejaVuSans-6d" x="506.449219"/>
      <use xlink:href="#DejaVuSans-65" x="603.861328"/>
      <use xlink:href="#DejaVuSans-6f" x="665.384766"/>
      <use xlink:href="#DejaVuSans-74" x="726.566406"/>
      <use xlink:href="#DejaVuSans-79" x="765.775391"/>
      <use xlink:href="#DejaVuSans-70" x="824.955078"/>
      <use xlink:href="#DejaVuSans-69" x="888.431641"/>
      <use xlink:href="#DejaVuSans-63" x="916.214844"/>
     </g>
    </g>
    <g id="patch_10">
     <path d="M 280.598125 87.426688 
L 300.598125 87.426688 
L 300.598125 80.426688 
L 280.598125 80.426688 
z
" style="fill: #ff0000"/>
    </g>
    <g id="text_19">
     <!-- false -->
     <g transform="translate(308.598125 87.426688)scale(0.1 -0.1)">
      <defs>
       <path id="DejaVuSans-61" d="M 2194 1759 
Q 1497 1759 1228 1600 
Q 959 1441 959 1056 
Q 959 750 1161 570 
Q 1363 391 1709 391 
Q 2188 391 2477 730 
Q 2766 1069 2766 1631 
L 2766 1759 
L 2194 1759 
z
M 3341 1997 
L 3341 0 
L 2766 0 
L 2766 531 
Q 2569 213 2275 61 
Q 1981 -91 1556 -91 
Q 1019 -91 701 211 
Q 384 513 384 1019 
Q 384 1609 779 1909 
Q 1175 2209 1959 2209 
L 2766 2209 
L 2766 2266 
Q 2766 2663 2505 2880 
Q 2244 3097 1772 3097 
Q 1472 3097 1187 3025 
Q 903 2953 641 2809 
L 641 3341 
Q 956 3463 1253 3523 
Q 1550 3584 1831 3584 
Q 2591 3584 2966 3190 
Q 3341 2797 3341 1997 
z
" transform="scale(0.015625)"/>
      </defs>
      <use xlink:href="#DejaVuSans-66"/>
      <use xlink:href="#DejaVuSans-61" x="35.205078"/>
      <use xlink:href="#DejaVuSans-6c" x="96.484375"/>
      <use xlink:href="#DejaVuSans-73" x="124.267578"/>
      <use xlink:href="#DejaVuSans-65" x="176.367188"/>
     </g>
    </g>
   </g>
  </g>
 </g>
 <defs>
  <clipPath id="p177354c1f0">
   <rect x="57.6" y="41.472" width="357.12" height="266.112"/>
  </clipPath>
 </defs>
</svg>
