<?xml version="1.0" encoding="utf-8" standalone="no"?>
<!DOCTYPE svg PUBLIC "-//W3C//DTD SVG 1.1//EN"
  "http://www.w3.org/Graphics/SVG/1.1/DTD/svg11.dtd">
<svg xmlns:xlink="http://www.w3.org/1999/xlink" width="460.8pt" height="345.6pt" viewBox="0 0 460.8 345.6" xmlns="http://www.w3.org/2000/svg" version="1.1">
 <metadata>
  <rdf:RDF xmlns:dc="http://purl.org/dc/elements/1.1/" xmlns:cc="http://creativecommons.org/ns#" xmlns:rdf="http://www.w3.org/1999/02/22-rdf-syntax-ns#">
   <cc:Work>
    <dc:type rdf:resource="http://purl.org/dc/dcmitype/StillImage"/>
    <dc:date>2022-07-21T12:36:00.794019</dc:date>
    <dc:format>image/svg+xml</dc:format>
    <dc:creator>
     <cc:Agent>
      <dc:title>Matplotlib v3.5.1, https://matplotlib.org/</dc:title>
     </cc:Agent>
    </dc:creator>
   </cc:Work>
  </rdf:RDF>
 </metadata>
 <defs>
  <style type="text/css">*{stroke-linejoin: round; stroke-linecap: butt}</style>
 </defs>
 <g id="figure_1">
  <g id="patch_1">
   <path d="M 0 345.6 
L 460.8 345.6 
L 460.8 0 
L 0 0 
z
" style="fill: #ffffff"/>
  </g>
  <g id="axes_1">
   <g id="patch_2">
    <path d="M 57.6 307.584 
L 414.72 307.584 
L 414.72 41.472 
L 57.6 41.472 
z
" style="fill: #ffffff"/>
   </g>
   <g id="PolyCollection_1">
    <path d="M 73.832727 101.77634 
L 73.832727 307.584 
L 73.852664 307.584 
L 73.969435 307.584 
L 74.032092 307.584 
L 74.103294 307.584 
L 74.296963 307.584 
L 74.504872 307.584 
L 74.695693 307.584 
L 74.994741 307.584 
L 75.037462 307.584 
L 75.06879 307.584 
L 75.134296 307.584 
L 75.336509 307.584 
L 75.441888 307.584 
L 75.504545 307.584 
L 75.681126 307.584 
L 75.968781 307.584 
L 76.279221 307.584 
L 76.321942 307.584 
L 76.789026 307.584 
L 77.170667 307.584 
L 77.694713 307.584 
L 77.865597 307.584 
L 77.953887 307.584 
L 78.3042 307.584 
L 78.344073 307.584 
L 78.398186 307.584 
L 78.429515 307.584 
L 78.438059 307.584 
L 78.563374 307.584 
L 79.070331 307.584 
L 79.711147 307.584 
L 79.776653 307.584 
L 80.78487 307.584 
L 80.964299 307.584 
L 81.212081 307.584 
L 81.363029 307.584 
L 81.684861 307.584 
L 81.813024 307.584 
L 81.969668 307.584 
L 82.27726 307.584 
L 82.422512 307.584 
L 82.878203 307.584 
L 83.046239 307.584 
L 83.667119 307.584 
L 83.704144 307.584 
L 83.818067 307.584 
L 84.045913 307.584 
L 84.760779 307.584 
L 84.988624 307.584 
L 85.042738 307.584 
L 85.344633 307.584 
L 85.729123 307.584 
L 86.025322 307.584 
L 86.213295 307.584 
L 86.233232 307.584 
L 86.301585 307.584 
L 86.657594 307.584 
L 86.720252 307.584 
L 86.834175 307.584 
L 86.919617 307.584 
L 86.94525 307.584 
L 87.215816 307.584 
L 87.258537 307.584 
L 87.35822 307.584 
L 87.472143 307.584 
L 87.486383 307.584 
L 87.739862 307.584 
L 87.899354 307.584 
L 88.018973 307.584 
L 88.343653 307.584 
L 88.730991 307.584 
L 88.762319 307.584 
L 89.058519 307.584 
L 89.067063 307.584 
L 89.417376 307.584 
L 89.955661 307.584 
L 90.442682 307.584 
L 90.676224 307.584 
L 90.758818 307.584 
L 90.847108 307.584 
L 90.884133 307.584 
L 90.895525 307.584 
L 92.510382 307.584 
L 92.789493 307.584 
L 92.806581 307.584 
L 93.028731 307.584 
L 93.099933 307.584 
L 93.359107 307.584 
L 93.370499 307.584 
L 93.527143 307.584 
L 93.643914 307.584 
L 93.766381 307.584 
L 94.136631 307.584 
L 94.1822 307.584 
L 94.242009 307.584 
L 94.865737 307.584 
L 95.187569 307.584 
L 95.247379 307.584 
L 95.70307 307.584 
L 95.705918 307.584 
L 96.446417 307.584 
L 96.734072 307.584 
L 97.326471 307.584 
L 97.491659 307.584 
L 97.522988 307.584 
L 97.611278 307.584 
L 97.77077 307.584 
L 97.975831 307.584 
L 98.833101 307.584 
L 99.089427 307.584 
L 99.753028 307.584 
L 100.111885 307.584 
L 100.225808 307.584 
L 101.023268 307.584 
L 101.174216 307.584 
L 101.319468 307.584 
L 101.47896 307.584 
L 101.590034 307.584 
L 101.678325 307.584 
L 101.886234 307.584 
L 102.082751 307.584 
L 102.105535 307.584 
L 103.085272 307.584 
L 103.08812 307.584 
L 103.962478 307.584 
L 104.013743 307.584 
L 104.398233 307.584 
L 104.549181 307.584 
L 104.589054 307.584 
L 104.677344 307.584 
L 104.893798 307.584 
L 104.913734 307.584 
L 105.147276 307.584 
L 106.403276 307.584 
L 106.702323 307.584 
L 106.782069 307.584 
L 106.867511 307.584 
L 106.881752 307.584 
L 107.516872 307.584 
L 107.986804 307.584 
L 108.052309 307.584 
L 108.171928 307.584 
L 108.579202 307.584 
L 108.621924 307.584 
L 109.348182 307.584 
L 109.726975 307.584 
L 109.889315 307.584 
L 109.895012 307.584 
L 109.917796 307.584 
L 110.097225 307.584 
L 110.498803 307.584 
L 110.666839 307.584 
L 111.227909 307.584 
L 111.694993 307.584 
L 112.079483 307.584 
L 112.14214 307.584 
L 112.418403 307.584 
L 112.603528 307.584 
L 112.694666 307.584 
L 112.802893 307.584 
L 112.913968 307.584 
L 113.178838 307.584 
L 113.999083 307.584 
L 115.030085 307.584 
L 115.163944 307.584 
L 115.955708 307.584 
L 116.135137 307.584 
L 116.767409 307.584 
L 116.830066 307.584 
L 117.479427 307.584 
L 117.641767 307.584 
L 117.926574 307.584 
L 118.017712 307.584 
L 118.464859 307.584 
L 118.798084 307.584 
L 119.504406 307.584 
L 119.737948 307.584 
L 119.786365 307.584 
L 120.261993 307.584 
L 120.281929 307.584 
L 120.327498 307.584 
L 120.982555 307.584 
L 121.016732 307.584 
L 121.398373 307.584 
L 121.503752 307.584 
L 122.984749 307.584 
L 123.665438 307.584 
L 124.77049 307.584 
L 124.787579 307.584 
L 125.197701 307.584 
L 125.382826 307.584 
L 126.299905 307.584 
L 127.51888 307.584 
L 127.672675 307.584 
L 127.980267 307.584 
L 128.128367 307.584 
L 128.843233 307.584 
L 129.27614 307.584 
L 129.766008 307.584 
L 129.928348 307.584 
L 130.127713 307.584 
L 130.170434 307.584 
L 130.238788 307.584 
L 130.307142 307.584 
L 131.659976 307.584 
L 131.768203 307.584 
L 132.249527 307.584 
L 132.312184 307.584 
L 133.286225 307.584 
L 133.656474 307.584 
L 134.983676 307.584 
L 135.835249 307.584 
L 136.490306 307.584 
L 136.501698 307.584 
L 136.806441 307.584 
L 138.219085 307.584 
L 138.464019 307.584 
L 138.740282 307.584 
L 139.181733 307.584 
L 139.788373 307.584 
L 140.124445 307.584 
L 141.101334 307.584 
L 141.89025 307.584 
L 142.291828 307.584 
L 144.265541 307.584 
L 144.812371 307.584 
L 146.618049 307.584 
L 146.888615 307.584 
L 146.948425 307.584 
L 150.021494 307.584 
L 150.753449 307.584 
L 152.262927 307.584 
L 153.487598 307.584 
L 153.926201 307.584 
L 154.114173 307.584 
L 156.090735 307.584 
L 158.363496 307.584 
L 158.554317 307.584 
L 161.596058 307.584 
L 162.308076 307.584 
L 162.906171 307.584 
L 167.289353 307.584 
L 167.736501 307.584 
L 167.839031 307.584 
L 172.649424 307.584 
L 173.834222 307.584 
L 174.682948 307.584 
L 175.340852 307.584 
L 175.793695 307.584 
L 178.50506 307.584 
L 180.544279 307.584 
L 185.696441 307.584 
L 188.564449 307.584 
L 191.347015 307.584 
L 191.953655 307.584 
L 192.677065 307.584 
L 197.852011 307.584 
L 200.272872 307.584 
L 200.338378 307.584 
L 204.075048 307.584 
L 206.601287 307.584 
L 206.991473 307.584 
L 216.025557 307.584 
L 216.236314 307.584 
L 221.106517 307.584 
L 228.135558 307.584 
L 228.574161 307.584 
L 231.22002 307.584 
L 233.07981 307.584 
L 238.126594 307.584 
L 238.909813 307.584 
L 247.707507 307.584 
L 248.30845 307.584 
L 269.409814 307.584 
L 284.721047 307.584 
L 296.480735 307.584 
L 315.041619 307.584 
L 328.17123 307.584 
L 398.487273 307.584 
L 398.487273 307.584 
L 398.487273 307.584 
L 328.17123 307.584 
L 315.041619 307.584 
L 296.480735 307.584 
L 284.721047 307.584 
L 269.409814 307.584 
L 248.30845 307.584 
L 247.707507 306.685277 
L 238.909813 306.685277 
L 238.126594 305.786553 
L 233.07981 305.786553 
L 231.22002 305.786553 
L 228.574161 305.786553 
L 228.135558 304.88783 
L 221.106517 304.88783 
L 216.236314 303.989106 
L 216.025557 303.989106 
L 206.991473 303.989106 
L 206.601287 303.989106 
L 204.075048 303.989106 
L 200.338378 303.989106 
L 200.272872 303.090383 
L 197.852011 303.090383 
L 192.677065 303.090383 
L 191.953655 303.090383 
L 191.347015 302.19166 
L 188.564449 302.19166 
L 185.696441 301.292936 
L 180.544279 300.394213 
L 178.50506 299.495489 
L 175.793695 299.495489 
L 175.340852 299.495489 
L 174.682948 299.495489 
L 173.834222 298.596766 
L 172.649424 297.698043 
L 167.839031 296.799319 
L 167.736501 295.900596 
L 167.289353 295.900596 
L 162.906171 295.001872 
L 162.308076 294.103149 
L 161.596058 293.204426 
L 158.554317 293.204426 
L 158.363496 293.204426 
L 156.090735 293.204426 
L 154.114173 292.305702 
L 153.926201 291.406979 
L 153.487598 291.406979 
L 152.262927 290.508255 
L 150.753449 289.609532 
L 150.021494 288.710809 
L 146.948425 287.812085 
L 146.888615 286.913362 
L 146.618049 286.014638 
L 144.812371 285.115915 
L 144.265541 284.217191 
L 142.291828 283.318468 
L 141.89025 282.419745 
L 141.101334 281.521021 
L 140.124445 280.622298 
L 139.788373 279.723574 
L 139.181733 278.824851 
L 138.740282 277.926128 
L 138.464019 277.027404 
L 138.219085 276.128681 
L 136.806441 275.229957 
L 136.501698 274.331234 
L 136.490306 273.432511 
L 135.835249 272.533787 
L 134.983676 272.533787 
L 133.656474 271.635064 
L 133.286225 270.73634 
L 132.312184 269.837617 
L 132.249527 268.938894 
L 131.768203 268.04017 
L 131.659976 267.141447 
L 130.307142 266.242723 
L 130.238788 265.344 
L 130.170434 265.344 
L 130.127713 264.445277 
L 129.928348 263.546553 
L 129.766008 262.64783 
L 129.27614 261.749106 
L 128.843233 260.850383 
L 128.128367 259.95166 
L 127.980267 259.052936 
L 127.672675 258.154213 
L 127.51888 257.255489 
L 126.299905 256.356766 
L 125.382826 255.458043 
L 125.197701 254.559319 
L 124.787579 253.660596 
L 124.77049 252.761872 
L 123.665438 251.863149 
L 122.984749 250.964426 
L 121.503752 250.065702 
L 121.398373 249.166979 
L 121.016732 248.268255 
L 120.982555 247.369532 
L 120.327498 246.470809 
L 120.281929 245.572085 
L 120.261993 244.673362 
L 119.786365 243.774638 
L 119.737948 242.875915 
L 119.504406 241.977191 
L 118.798084 241.078468 
L 118.464859 240.179745 
L 118.017712 240.179745 
L 117.926574 239.281021 
L 117.641767 238.382298 
L 117.479427 238.382298 
L 116.830066 237.483574 
L 116.767409 236.584851 
L 116.135137 235.686128 
L 115.955708 234.787404 
L 115.163944 233.888681 
L 115.030085 232.989957 
L 113.999083 232.091234 
L 113.178838 231.192511 
L 112.913968 230.293787 
L 112.802893 230.293787 
L 112.694666 229.395064 
L 112.603528 228.49634 
L 112.418403 227.597617 
L 112.14214 226.698894 
L 112.079483 225.80017 
L 111.694993 224.901447 
L 111.227909 224.002723 
L 110.666839 223.104 
L 110.498803 222.205277 
L 110.097225 221.306553 
L 109.917796 220.40783 
L 109.895012 219.509106 
L 109.889315 218.610383 
L 109.726975 217.71166 
L 109.348182 216.812936 
L 108.621924 215.914213 
L 108.579202 215.015489 
L 108.171928 214.116766 
L 108.052309 213.218043 
L 107.986804 212.319319 
L 107.516872 211.420596 
L 106.881752 210.521872 
L 106.867511 209.623149 
L 106.782069 208.724426 
L 106.702323 207.825702 
L 106.403276 206.926979 
L 105.147276 206.028255 
L 104.913734 205.129532 
L 104.893798 204.230809 
L 104.677344 203.332085 
L 104.589054 202.433362 
L 104.549181 201.534638 
L 104.398233 200.635915 
L 104.013743 199.737191 
L 103.962478 198.838468 
L 103.08812 197.939745 
L 103.085272 197.041021 
L 102.105535 196.142298 
L 102.082751 195.243574 
L 101.886234 194.344851 
L 101.678325 193.446128 
L 101.590034 192.547404 
L 101.47896 191.648681 
L 101.319468 191.648681 
L 101.174216 190.749957 
L 101.023268 189.851234 
L 100.225808 188.952511 
L 100.111885 188.053787 
L 99.753028 187.155064 
L 99.089427 186.25634 
L 98.833101 185.357617 
L 97.975831 184.458894 
L 97.77077 183.56017 
L 97.611278 182.661447 
L 97.522988 181.762723 
L 97.491659 180.864 
L 97.326471 179.965277 
L 96.734072 179.066553 
L 96.446417 178.16783 
L 95.705918 177.269106 
L 95.70307 176.370383 
L 95.247379 175.47166 
L 95.187569 175.47166 
L 94.865737 174.572936 
L 94.242009 173.674213 
L 94.1822 172.775489 
L 94.136631 171.876766 
L 93.766381 170.978043 
L 93.643914 170.978043 
L 93.527143 170.978043 
L 93.370499 170.978043 
L 93.359107 170.079319 
L 93.099933 169.180596 
L 93.028731 168.281872 
L 92.806581 167.383149 
L 92.789493 166.484426 
L 92.510382 164.686979 
L 90.895525 163.788255 
L 90.884133 162.889532 
L 90.847108 161.990809 
L 90.758818 161.092085 
L 90.676224 160.193362 
L 90.442682 159.294638 
L 89.955661 158.395915 
L 89.417376 157.497191 
L 89.067063 156.598468 
L 89.058519 155.699745 
L 88.762319 154.801021 
L 88.730991 153.902298 
L 88.343653 153.003574 
L 88.018973 151.206128 
L 87.899354 150.307404 
L 87.739862 149.408681 
L 87.486383 148.509957 
L 87.472143 147.611234 
L 87.35822 146.712511 
L 87.258537 145.813787 
L 87.215816 144.915064 
L 86.94525 144.01634 
L 86.919617 143.117617 
L 86.834175 143.117617 
L 86.720252 142.218894 
L 86.657594 141.32017 
L 86.301585 140.421447 
L 86.233232 139.522723 
L 86.213295 138.624 
L 86.025322 137.725277 
L 85.729123 136.826553 
L 85.344633 135.92783 
L 85.042738 135.029106 
L 84.988624 134.130383 
L 84.760779 133.23166 
L 84.045913 133.23166 
L 83.818067 133.23166 
L 83.704144 132.332936 
L 83.667119 131.434213 
L 83.046239 130.535489 
L 82.878203 130.535489 
L 82.422512 130.535489 
L 82.27726 129.636766 
L 81.969668 129.636766 
L 81.813024 128.738043 
L 81.684861 127.839319 
L 81.363029 126.940596 
L 81.212081 126.041872 
L 80.964299 125.143149 
L 80.78487 124.244426 
L 79.776653 123.345702 
L 79.711147 122.446979 
L 79.070331 121.548255 
L 78.563374 121.548255 
L 78.438059 120.649532 
L 78.429515 119.750809 
L 78.398186 118.852085 
L 78.344073 118.852085 
L 78.3042 118.852085 
L 77.953887 117.953362 
L 77.865597 117.054638 
L 77.694713 116.155915 
L 77.170667 115.257191 
L 76.789026 114.358468 
L 76.321942 113.459745 
L 76.279221 112.561021 
L 75.968781 111.662298 
L 75.681126 111.662298 
L 75.504545 110.763574 
L 75.441888 109.864851 
L 75.336509 109.864851 
L 75.134296 108.966128 
L 75.06879 108.067404 
L 75.037462 107.168681 
L 74.994741 107.168681 
L 74.695693 106.269957 
L 74.504872 106.269957 
L 74.296963 105.371234 
L 74.103294 104.472511 
L 74.032092 104.472511 
L 73.969435 103.573787 
L 73.852664 102.675064 
L 73.832727 101.77634 
z
" clip-path="url(#p84681b0ff6)" style="fill: #008000"/>
   </g>
   <g id="PolyCollection_2">
    <path d="M 73.832727 64.029957 
L 73.832727 101.77634 
L 73.852664 102.675064 
L 73.969435 103.573787 
L 74.032092 104.472511 
L 74.103294 104.472511 
L 74.296963 105.371234 
L 74.504872 106.269957 
L 74.695693 106.269957 
L 74.994741 107.168681 
L 75.037462 107.168681 
L 75.06879 108.067404 
L 75.134296 108.966128 
L 75.336509 109.864851 
L 75.441888 109.864851 
L 75.504545 110.763574 
L 75.681126 111.662298 
L 75.968781 111.662298 
L 76.279221 112.561021 
L 76.321942 113.459745 
L 76.789026 114.358468 
L 77.170667 115.257191 
L 77.694713 116.155915 
L 77.865597 117.054638 
L 77.953887 117.953362 
L 78.3042 118.852085 
L 78.344073 118.852085 
L 78.398186 118.852085 
L 78.429515 119.750809 
L 78.438059 120.649532 
L 78.563374 121.548255 
L 79.070331 121.548255 
L 79.711147 122.446979 
L 79.776653 123.345702 
L 80.78487 124.244426 
L 80.964299 125.143149 
L 81.212081 126.041872 
L 81.363029 126.940596 
L 81.684861 127.839319 
L 81.813024 128.738043 
L 81.969668 129.636766 
L 82.27726 129.636766 
L 82.422512 130.535489 
L 82.878203 130.535489 
L 83.046239 130.535489 
L 83.667119 131.434213 
L 83.704144 132.332936 
L 83.818067 133.23166 
L 84.045913 133.23166 
L 84.760779 133.23166 
L 84.988624 134.130383 
L 85.042738 135.029106 
L 85.344633 135.92783 
L 85.729123 136.826553 
L 86.025322 137.725277 
L 86.213295 138.624 
L 86.233232 139.522723 
L 86.301585 140.421447 
L 86.657594 141.32017 
L 86.720252 142.218894 
L 86.834175 143.117617 
L 86.919617 143.117617 
L 86.94525 144.01634 
L 87.215816 144.915064 
L 87.258537 145.813787 
L 87.35822 146.712511 
L 87.472143 147.611234 
L 87.486383 148.509957 
L 87.739862 149.408681 
L 87.899354 150.307404 
L 88.018973 151.206128 
L 88.343653 153.003574 
L 88.730991 153.902298 
L 88.762319 154.801021 
L 89.058519 155.699745 
L 89.067063 156.598468 
L 89.417376 157.497191 
L 89.955661 158.395915 
L 90.442682 159.294638 
L 90.676224 160.193362 
L 90.758818 161.092085 
L 90.847108 161.990809 
L 90.884133 162.889532 
L 90.895525 163.788255 
L 92.510382 164.686979 
L 92.789493 166.484426 
L 92.806581 167.383149 
L 93.028731 168.281872 
L 93.099933 169.180596 
L 93.359107 170.079319 
L 93.370499 170.978043 
L 93.527143 170.978043 
L 93.643914 170.978043 
L 93.766381 170.978043 
L 94.136631 171.876766 
L 94.1822 172.775489 
L 94.242009 173.674213 
L 94.865737 174.572936 
L 95.187569 175.47166 
L 95.247379 175.47166 
L 95.70307 176.370383 
L 95.705918 177.269106 
L 96.446417 178.16783 
L 96.734072 179.066553 
L 97.326471 179.965277 
L 97.491659 180.864 
L 97.522988 181.762723 
L 97.611278 182.661447 
L 97.77077 183.56017 
L 97.975831 184.458894 
L 98.833101 185.357617 
L 99.089427 186.25634 
L 99.753028 187.155064 
L 100.111885 188.053787 
L 100.225808 188.952511 
L 101.023268 189.851234 
L 101.174216 190.749957 
L 101.319468 191.648681 
L 101.47896 191.648681 
L 101.590034 192.547404 
L 101.678325 193.446128 
L 101.886234 194.344851 
L 102.082751 195.243574 
L 102.105535 196.142298 
L 103.085272 197.041021 
L 103.08812 197.939745 
L 103.962478 198.838468 
L 104.013743 199.737191 
L 104.398233 200.635915 
L 104.549181 201.534638 
L 104.589054 202.433362 
L 104.677344 203.332085 
L 104.893798 204.230809 
L 104.913734 205.129532 
L 105.147276 206.028255 
L 106.403276 206.926979 
L 106.702323 207.825702 
L 106.782069 208.724426 
L 106.867511 209.623149 
L 106.881752 210.521872 
L 107.516872 211.420596 
L 107.986804 212.319319 
L 108.052309 213.218043 
L 108.171928 214.116766 
L 108.579202 215.015489 
L 108.621924 215.914213 
L 109.348182 216.812936 
L 109.726975 217.71166 
L 109.889315 218.610383 
L 109.895012 219.509106 
L 109.917796 220.40783 
L 110.097225 221.306553 
L 110.498803 222.205277 
L 110.666839 223.104 
L 111.227909 224.002723 
L 111.694993 224.901447 
L 112.079483 225.80017 
L 112.14214 226.698894 
L 112.418403 227.597617 
L 112.603528 228.49634 
L 112.694666 229.395064 
L 112.802893 230.293787 
L 112.913968 230.293787 
L 113.178838 231.192511 
L 113.999083 232.091234 
L 115.030085 232.989957 
L 115.163944 233.888681 
L 115.955708 234.787404 
L 116.135137 235.686128 
L 116.767409 236.584851 
L 116.830066 237.483574 
L 117.479427 238.382298 
L 117.641767 238.382298 
L 117.926574 239.281021 
L 118.017712 240.179745 
L 118.464859 240.179745 
L 118.798084 241.078468 
L 119.504406 241.977191 
L 119.737948 242.875915 
L 119.786365 243.774638 
L 120.261993 244.673362 
L 120.281929 245.572085 
L 120.327498 246.470809 
L 120.982555 247.369532 
L 121.016732 248.268255 
L 121.398373 249.166979 
L 121.503752 250.065702 
L 122.984749 250.964426 
L 123.665438 251.863149 
L 124.77049 252.761872 
L 124.787579 253.660596 
L 125.197701 254.559319 
L 125.382826 255.458043 
L 126.299905 256.356766 
L 127.51888 257.255489 
L 127.672675 258.154213 
L 127.980267 259.052936 
L 128.128367 259.95166 
L 128.843233 260.850383 
L 129.27614 261.749106 
L 129.766008 262.64783 
L 129.928348 263.546553 
L 130.127713 264.445277 
L 130.170434 265.344 
L 130.238788 265.344 
L 130.307142 266.242723 
L 131.659976 267.141447 
L 131.768203 268.04017 
L 132.249527 268.938894 
L 132.312184 269.837617 
L 133.286225 270.73634 
L 133.656474 271.635064 
L 134.983676 272.533787 
L 135.835249 272.533787 
L 136.490306 273.432511 
L 136.501698 274.331234 
L 136.806441 275.229957 
L 138.219085 276.128681 
L 138.464019 277.027404 
L 138.740282 277.926128 
L 139.181733 278.824851 
L 139.788373 279.723574 
L 140.124445 280.622298 
L 141.101334 281.521021 
L 141.89025 282.419745 
L 142.291828 283.318468 
L 144.265541 284.217191 
L 144.812371 285.115915 
L 146.618049 286.014638 
L 146.888615 286.913362 
L 146.948425 287.812085 
L 150.021494 288.710809 
L 150.753449 289.609532 
L 152.262927 290.508255 
L 153.487598 291.406979 
L 153.926201 291.406979 
L 154.114173 292.305702 
L 156.090735 293.204426 
L 158.363496 293.204426 
L 158.554317 293.204426 
L 161.596058 293.204426 
L 162.308076 294.103149 
L 162.906171 295.001872 
L 167.289353 295.900596 
L 167.736501 295.900596 
L 167.839031 296.799319 
L 172.649424 297.698043 
L 173.834222 298.596766 
L 174.682948 299.495489 
L 175.340852 299.495489 
L 175.793695 299.495489 
L 178.50506 299.495489 
L 180.544279 300.394213 
L 185.696441 301.292936 
L 188.564449 302.19166 
L 191.347015 302.19166 
L 191.953655 303.090383 
L 192.677065 303.090383 
L 197.852011 303.090383 
L 200.272872 303.090383 
L 200.338378 303.989106 
L 204.075048 303.989106 
L 206.601287 303.989106 
L 206.991473 303.989106 
L 216.025557 303.989106 
L 216.236314 303.989106 
L 221.106517 304.88783 
L 228.135558 304.88783 
L 228.574161 305.786553 
L 231.22002 305.786553 
L 233.07981 305.786553 
L 238.126594 305.786553 
L 238.909813 306.685277 
L 247.707507 306.685277 
L 248.30845 307.584 
L 269.409814 307.584 
L 284.721047 307.584 
L 296.480735 307.584 
L 315.041619 307.584 
L 328.17123 307.584 
L 398.487273 307.584 
L 398.487273 306.685277 
L 398.487273 306.685277 
L 328.17123 305.786553 
L 315.041619 304.88783 
L 296.480735 303.989106 
L 284.721047 303.090383 
L 269.409814 302.19166 
L 248.30845 301.292936 
L 247.707507 300.394213 
L 238.909813 299.495489 
L 238.126594 298.596766 
L 233.07981 297.698043 
L 231.22002 296.799319 
L 228.574161 295.900596 
L 228.135558 295.001872 
L 221.106517 294.103149 
L 216.236314 293.204426 
L 216.025557 292.305702 
L 206.991473 291.406979 
L 206.601287 290.508255 
L 204.075048 289.609532 
L 200.338378 288.710809 
L 200.272872 287.812085 
L 197.852011 286.913362 
L 192.677065 286.014638 
L 191.953655 285.115915 
L 191.347015 284.217191 
L 188.564449 283.318468 
L 185.696441 282.419745 
L 180.544279 281.521021 
L 178.50506 280.622298 
L 175.793695 279.723574 
L 175.340852 278.824851 
L 174.682948 277.926128 
L 173.834222 277.027404 
L 172.649424 276.128681 
L 167.839031 275.229957 
L 167.736501 274.331234 
L 167.289353 273.432511 
L 162.906171 272.533787 
L 162.308076 271.635064 
L 161.596058 270.73634 
L 158.554317 269.837617 
L 158.363496 268.938894 
L 156.090735 268.04017 
L 154.114173 267.141447 
L 153.926201 266.242723 
L 153.487598 265.344 
L 152.262927 264.445277 
L 150.753449 263.546553 
L 150.021494 262.64783 
L 146.948425 261.749106 
L 146.888615 260.850383 
L 146.618049 259.95166 
L 144.812371 259.052936 
L 144.265541 258.154213 
L 142.291828 257.255489 
L 141.89025 256.356766 
L 141.101334 255.458043 
L 140.124445 254.559319 
L 139.788373 253.660596 
L 139.181733 252.761872 
L 138.740282 251.863149 
L 138.464019 250.964426 
L 138.219085 250.065702 
L 136.806441 249.166979 
L 136.501698 248.268255 
L 136.490306 247.369532 
L 135.835249 246.470809 
L 134.983676 245.572085 
L 133.656474 244.673362 
L 133.286225 243.774638 
L 132.312184 242.875915 
L 132.249527 241.977191 
L 131.768203 241.078468 
L 131.659976 240.179745 
L 130.307142 239.281021 
L 130.238788 238.382298 
L 130.170434 237.483574 
L 130.127713 236.584851 
L 129.928348 235.686128 
L 129.766008 234.787404 
L 129.27614 233.888681 
L 128.843233 232.989957 
L 128.128367 232.091234 
L 127.980267 231.192511 
L 127.672675 230.293787 
L 127.51888 229.395064 
L 126.299905 228.49634 
L 125.382826 227.597617 
L 125.197701 226.698894 
L 124.787579 225.80017 
L 124.77049 224.901447 
L 123.665438 224.002723 
L 122.984749 223.104 
L 121.503752 222.205277 
L 121.398373 221.306553 
L 121.016732 220.40783 
L 120.982555 219.509106 
L 120.327498 218.610383 
L 120.281929 217.71166 
L 120.261993 216.812936 
L 119.786365 215.914213 
L 119.737948 215.015489 
L 119.504406 214.116766 
L 118.798084 213.218043 
L 118.464859 212.319319 
L 118.017712 211.420596 
L 117.926574 210.521872 
L 117.641767 209.623149 
L 117.479427 208.724426 
L 116.830066 207.825702 
L 116.767409 206.926979 
L 116.135137 206.028255 
L 115.955708 205.129532 
L 115.163944 204.230809 
L 115.030085 203.332085 
L 113.999083 202.433362 
L 113.178838 201.534638 
L 112.913968 200.635915 
L 112.802893 199.737191 
L 112.694666 198.838468 
L 112.603528 197.939745 
L 112.418403 197.041021 
L 112.14214 196.142298 
L 112.079483 195.243574 
L 111.694993 194.344851 
L 111.227909 193.446128 
L 110.666839 192.547404 
L 110.498803 191.648681 
L 110.097225 190.749957 
L 109.917796 189.851234 
L 109.895012 188.952511 
L 109.889315 188.053787 
L 109.726975 187.155064 
L 109.348182 186.25634 
L 108.621924 185.357617 
L 108.579202 184.458894 
L 108.171928 183.56017 
L 108.052309 182.661447 
L 107.986804 181.762723 
L 107.516872 180.864 
L 106.881752 179.965277 
L 106.867511 179.066553 
L 106.782069 178.16783 
L 106.702323 177.269106 
L 106.403276 176.370383 
L 105.147276 175.47166 
L 104.913734 174.572936 
L 104.893798 173.674213 
L 104.677344 172.775489 
L 104.589054 171.876766 
L 104.549181 170.978043 
L 104.398233 170.079319 
L 104.013743 169.180596 
L 103.962478 168.281872 
L 103.08812 167.383149 
L 103.085272 166.484426 
L 102.105535 165.585702 
L 102.082751 164.686979 
L 101.886234 163.788255 
L 101.678325 162.889532 
L 101.590034 161.990809 
L 101.47896 161.092085 
L 101.319468 161.092085 
L 101.174216 160.193362 
L 101.023268 159.294638 
L 100.225808 158.395915 
L 100.111885 157.497191 
L 99.753028 156.598468 
L 99.089427 155.699745 
L 98.833101 154.801021 
L 97.975831 153.902298 
L 97.77077 153.003574 
L 97.611278 152.104851 
L 97.522988 151.206128 
L 97.491659 150.307404 
L 97.326471 149.408681 
L 96.734072 148.509957 
L 96.446417 147.611234 
L 95.705918 146.712511 
L 95.70307 145.813787 
L 95.247379 144.915064 
L 95.187569 144.915064 
L 94.865737 144.01634 
L 94.242009 143.117617 
L 94.1822 142.218894 
L 94.136631 141.32017 
L 93.766381 140.421447 
L 93.643914 139.522723 
L 93.527143 138.624 
L 93.370499 137.725277 
L 93.359107 136.826553 
L 93.099933 135.92783 
L 93.028731 135.029106 
L 92.806581 134.130383 
L 92.789493 133.23166 
L 92.510382 131.434213 
L 90.895525 130.535489 
L 90.884133 129.636766 
L 90.847108 128.738043 
L 90.758818 127.839319 
L 90.676224 126.940596 
L 90.442682 126.041872 
L 89.955661 125.143149 
L 89.417376 124.244426 
L 89.067063 123.345702 
L 89.058519 122.446979 
L 88.762319 121.548255 
L 88.730991 120.649532 
L 88.343653 119.750809 
L 88.018973 117.953362 
L 87.899354 117.054638 
L 87.739862 116.155915 
L 87.486383 115.257191 
L 87.472143 114.358468 
L 87.35822 113.459745 
L 87.258537 112.561021 
L 87.215816 111.662298 
L 86.94525 110.763574 
L 86.919617 109.864851 
L 86.834175 109.864851 
L 86.720252 108.966128 
L 86.657594 108.067404 
L 86.301585 107.168681 
L 86.233232 106.269957 
L 86.213295 105.371234 
L 86.025322 104.472511 
L 85.729123 103.573787 
L 85.344633 102.675064 
L 85.042738 101.77634 
L 84.988624 100.877617 
L 84.760779 99.978894 
L 84.045913 99.08017 
L 83.818067 98.181447 
L 83.704144 97.282723 
L 83.667119 96.384 
L 83.046239 95.485277 
L 82.878203 94.586553 
L 82.422512 94.586553 
L 82.27726 93.68783 
L 81.969668 92.789106 
L 81.813024 91.890383 
L 81.684861 90.99166 
L 81.363029 90.092936 
L 81.212081 89.194213 
L 80.964299 88.295489 
L 80.78487 87.396766 
L 79.776653 86.498043 
L 79.711147 85.599319 
L 79.070331 84.700596 
L 78.563374 84.700596 
L 78.438059 83.801872 
L 78.429515 82.903149 
L 78.398186 82.004426 
L 78.344073 82.004426 
L 78.3042 82.004426 
L 77.953887 81.105702 
L 77.865597 80.206979 
L 77.694713 79.308255 
L 77.170667 78.409532 
L 76.789026 77.510809 
L 76.321942 76.612085 
L 76.279221 75.713362 
L 75.968781 74.814638 
L 75.681126 74.814638 
L 75.504545 73.915915 
L 75.441888 73.017191 
L 75.336509 73.017191 
L 75.134296 72.118468 
L 75.06879 71.219745 
L 75.037462 70.321021 
L 74.994741 69.422298 
L 74.695693 68.523574 
L 74.504872 68.523574 
L 74.296963 67.624851 
L 74.103294 66.726128 
L 74.032092 66.726128 
L 73.969435 65.827404 
L 73.852664 64.928681 
L 73.832727 64.029957 
z
" clip-path="url(#p84681b0ff6)" style="fill: #7cfc00"/>
   </g>
   <g id="PolyCollection_3">
    <path d="M 73.832727 54.144 
L 73.832727 64.029957 
L 73.852664 64.928681 
L 73.969435 65.827404 
L 74.032092 66.726128 
L 74.103294 66.726128 
L 74.296963 67.624851 
L 74.504872 68.523574 
L 74.695693 68.523574 
L 74.994741 69.422298 
L 75.037462 70.321021 
L 75.06879 71.219745 
L 75.134296 72.118468 
L 75.336509 73.017191 
L 75.441888 73.017191 
L 75.504545 73.915915 
L 75.681126 74.814638 
L 75.968781 74.814638 
L 76.279221 75.713362 
L 76.321942 76.612085 
L 76.789026 77.510809 
L 77.170667 78.409532 
L 77.694713 79.308255 
L 77.865597 80.206979 
L 77.953887 81.105702 
L 78.3042 82.004426 
L 78.344073 82.004426 
L 78.398186 82.004426 
L 78.429515 82.903149 
L 78.438059 83.801872 
L 78.563374 84.700596 
L 79.070331 84.700596 
L 79.711147 85.599319 
L 79.776653 86.498043 
L 80.78487 87.396766 
L 80.964299 88.295489 
L 81.212081 89.194213 
L 81.363029 90.092936 
L 81.684861 90.99166 
L 81.813024 91.890383 
L 81.969668 92.789106 
L 82.27726 93.68783 
L 82.422512 94.586553 
L 82.878203 94.586553 
L 83.046239 95.485277 
L 83.667119 96.384 
L 83.704144 97.282723 
L 83.818067 98.181447 
L 84.045913 99.08017 
L 84.760779 99.978894 
L 84.988624 100.877617 
L 85.042738 101.77634 
L 85.344633 102.675064 
L 85.729123 103.573787 
L 86.025322 104.472511 
L 86.213295 105.371234 
L 86.233232 106.269957 
L 86.301585 107.168681 
L 86.657594 108.067404 
L 86.720252 108.966128 
L 86.834175 109.864851 
L 86.919617 109.864851 
L 86.94525 110.763574 
L 87.215816 111.662298 
L 87.258537 112.561021 
L 87.35822 113.459745 
L 87.472143 114.358468 
L 87.486383 115.257191 
L 87.739862 116.155915 
L 87.899354 117.054638 
L 88.018973 117.953362 
L 88.343653 119.750809 
L 88.730991 120.649532 
L 88.762319 121.548255 
L 89.058519 122.446979 
L 89.067063 123.345702 
L 89.417376 124.244426 
L 89.955661 125.143149 
L 90.442682 126.041872 
L 90.676224 126.940596 
L 90.758818 127.839319 
L 90.847108 128.738043 
L 90.884133 129.636766 
L 90.895525 130.535489 
L 92.510382 131.434213 
L 92.789493 133.23166 
L 92.806581 134.130383 
L 93.028731 135.029106 
L 93.099933 135.92783 
L 93.359107 136.826553 
L 93.370499 137.725277 
L 93.527143 138.624 
L 93.643914 139.522723 
L 93.766381 140.421447 
L 94.136631 141.32017 
L 94.1822 142.218894 
L 94.242009 143.117617 
L 94.865737 144.01634 
L 95.187569 144.915064 
L 95.247379 144.915064 
L 95.70307 145.813787 
L 95.705918 146.712511 
L 96.446417 147.611234 
L 96.734072 148.509957 
L 97.326471 149.408681 
L 97.491659 150.307404 
L 97.522988 151.206128 
L 97.611278 152.104851 
L 97.77077 153.003574 
L 97.975831 153.902298 
L 98.833101 154.801021 
L 99.089427 155.699745 
L 99.753028 156.598468 
L 100.111885 157.497191 
L 100.225808 158.395915 
L 101.023268 159.294638 
L 101.174216 160.193362 
L 101.319468 161.092085 
L 101.47896 161.092085 
L 101.590034 161.990809 
L 101.678325 162.889532 
L 101.886234 163.788255 
L 102.082751 164.686979 
L 102.105535 165.585702 
L 103.085272 166.484426 
L 103.08812 167.383149 
L 103.962478 168.281872 
L 104.013743 169.180596 
L 104.398233 170.079319 
L 104.549181 170.978043 
L 104.589054 171.876766 
L 104.677344 172.775489 
L 104.893798 173.674213 
L 104.913734 174.572936 
L 105.147276 175.47166 
L 106.403276 176.370383 
L 106.702323 177.269106 
L 106.782069 178.16783 
L 106.867511 179.066553 
L 106.881752 179.965277 
L 107.516872 180.864 
L 107.986804 181.762723 
L 108.052309 182.661447 
L 108.171928 183.56017 
L 108.579202 184.458894 
L 108.621924 185.357617 
L 109.348182 186.25634 
L 109.726975 187.155064 
L 109.889315 188.053787 
L 109.895012 188.952511 
L 109.917796 189.851234 
L 110.097225 190.749957 
L 110.498803 191.648681 
L 110.666839 192.547404 
L 111.227909 193.446128 
L 111.694993 194.344851 
L 112.079483 195.243574 
L 112.14214 196.142298 
L 112.418403 197.041021 
L 112.603528 197.939745 
L 112.694666 198.838468 
L 112.802893 199.737191 
L 112.913968 200.635915 
L 113.178838 201.534638 
L 113.999083 202.433362 
L 115.030085 203.332085 
L 115.163944 204.230809 
L 115.955708 205.129532 
L 116.135137 206.028255 
L 116.767409 206.926979 
L 116.830066 207.825702 
L 117.479427 208.724426 
L 117.641767 209.623149 
L 117.926574 210.521872 
L 118.017712 211.420596 
L 118.464859 212.319319 
L 118.798084 213.218043 
L 119.504406 214.116766 
L 119.737948 215.015489 
L 119.786365 215.914213 
L 120.261993 216.812936 
L 120.281929 217.71166 
L 120.327498 218.610383 
L 120.982555 219.509106 
L 121.016732 220.40783 
L 121.398373 221.306553 
L 121.503752 222.205277 
L 122.984749 223.104 
L 123.665438 224.002723 
L 124.77049 224.901447 
L 124.787579 225.80017 
L 125.197701 226.698894 
L 125.382826 227.597617 
L 126.299905 228.49634 
L 127.51888 229.395064 
L 127.672675 230.293787 
L 127.980267 231.192511 
L 128.128367 232.091234 
L 128.843233 232.989957 
L 129.27614 233.888681 
L 129.766008 234.787404 
L 129.928348 235.686128 
L 130.127713 236.584851 
L 130.170434 237.483574 
L 130.238788 238.382298 
L 130.307142 239.281021 
L 131.659976 240.179745 
L 131.768203 241.078468 
L 132.249527 241.977191 
L 132.312184 242.875915 
L 133.286225 243.774638 
L 133.656474 244.673362 
L 134.983676 245.572085 
L 135.835249 246.470809 
L 136.490306 247.369532 
L 136.501698 248.268255 
L 136.806441 249.166979 
L 138.219085 250.065702 
L 138.464019 250.964426 
L 138.740282 251.863149 
L 139.181733 252.761872 
L 139.788373 253.660596 
L 140.124445 254.559319 
L 141.101334 255.458043 
L 141.89025 256.356766 
L 142.291828 257.255489 
L 144.265541 258.154213 
L 144.812371 259.052936 
L 146.618049 259.95166 
L 146.888615 260.850383 
L 146.948425 261.749106 
L 150.021494 262.64783 
L 150.753449 263.546553 
L 152.262927 264.445277 
L 153.487598 265.344 
L 153.926201 266.242723 
L 154.114173 267.141447 
L 156.090735 268.04017 
L 158.363496 268.938894 
L 158.554317 269.837617 
L 161.596058 270.73634 
L 162.308076 271.635064 
L 162.906171 272.533787 
L 167.289353 273.432511 
L 167.736501 274.331234 
L 167.839031 275.229957 
L 172.649424 276.128681 
L 173.834222 277.027404 
L 174.682948 277.926128 
L 175.340852 278.824851 
L 175.793695 279.723574 
L 178.50506 280.622298 
L 180.544279 281.521021 
L 185.696441 282.419745 
L 188.564449 283.318468 
L 191.347015 284.217191 
L 191.953655 285.115915 
L 192.677065 286.014638 
L 197.852011 286.913362 
L 200.272872 287.812085 
L 200.338378 288.710809 
L 204.075048 289.609532 
L 206.601287 290.508255 
L 206.991473 291.406979 
L 216.025557 292.305702 
L 216.236314 293.204426 
L 221.106517 294.103149 
L 228.135558 295.001872 
L 228.574161 295.900596 
L 231.22002 296.799319 
L 233.07981 297.698043 
L 238.126594 298.596766 
L 238.909813 299.495489 
L 247.707507 300.394213 
L 248.30845 301.292936 
L 269.409814 302.19166 
L 284.721047 303.090383 
L 296.480735 303.989106 
L 315.041619 304.88783 
L 328.17123 305.786553 
L 398.487273 306.685277 
L 398.487273 306.685277 
L 398.487273 306.685277 
L 328.17123 305.786553 
L 315.041619 304.88783 
L 296.480735 303.989106 
L 284.721047 303.090383 
L 269.409814 302.19166 
L 248.30845 301.292936 
L 247.707507 300.394213 
L 238.909813 299.495489 
L 238.126594 298.596766 
L 233.07981 297.698043 
L 231.22002 296.799319 
L 228.574161 295.900596 
L 228.135558 295.001872 
L 221.106517 294.103149 
L 216.236314 293.204426 
L 216.025557 292.305702 
L 206.991473 291.406979 
L 206.601287 290.508255 
L 204.075048 289.609532 
L 200.338378 288.710809 
L 200.272872 287.812085 
L 197.852011 286.913362 
L 192.677065 286.014638 
L 191.953655 285.115915 
L 191.347015 284.217191 
L 188.564449 283.318468 
L 185.696441 282.419745 
L 180.544279 281.521021 
L 178.50506 280.622298 
L 175.793695 279.723574 
L 175.340852 278.824851 
L 174.682948 277.926128 
L 173.834222 277.027404 
L 172.649424 276.128681 
L 167.839031 275.229957 
L 167.736501 274.331234 
L 167.289353 273.432511 
L 162.906171 272.533787 
L 162.308076 271.635064 
L 161.596058 270.73634 
L 158.554317 269.837617 
L 158.363496 268.938894 
L 156.090735 268.04017 
L 154.114173 267.141447 
L 153.926201 266.242723 
L 153.487598 265.344 
L 152.262927 264.445277 
L 150.753449 263.546553 
L 150.021494 262.64783 
L 146.948425 261.749106 
L 146.888615 260.850383 
L 146.618049 259.95166 
L 144.812371 259.052936 
L 144.265541 258.154213 
L 142.291828 257.255489 
L 141.89025 256.356766 
L 141.101334 255.458043 
L 140.124445 254.559319 
L 139.788373 253.660596 
L 139.181733 252.761872 
L 138.740282 251.863149 
L 138.464019 250.964426 
L 138.219085 250.065702 
L 136.806441 249.166979 
L 136.501698 248.268255 
L 136.490306 247.369532 
L 135.835249 246.470809 
L 134.983676 245.572085 
L 133.656474 244.673362 
L 133.286225 243.774638 
L 132.312184 242.875915 
L 132.249527 241.977191 
L 131.768203 241.078468 
L 131.659976 240.179745 
L 130.307142 239.281021 
L 130.238788 238.382298 
L 130.170434 237.483574 
L 130.127713 236.584851 
L 129.928348 235.686128 
L 129.766008 234.787404 
L 129.27614 233.888681 
L 128.843233 232.989957 
L 128.128367 232.091234 
L 127.980267 231.192511 
L 127.672675 230.293787 
L 127.51888 229.395064 
L 126.299905 228.49634 
L 125.382826 227.597617 
L 125.197701 226.698894 
L 124.787579 225.80017 
L 124.77049 224.901447 
L 123.665438 224.002723 
L 122.984749 223.104 
L 121.503752 222.205277 
L 121.398373 221.306553 
L 121.016732 220.40783 
L 120.982555 219.509106 
L 120.327498 218.610383 
L 120.281929 217.71166 
L 120.261993 216.812936 
L 119.786365 215.914213 
L 119.737948 215.015489 
L 119.504406 214.116766 
L 118.798084 213.218043 
L 118.464859 212.319319 
L 118.017712 211.420596 
L 117.926574 210.521872 
L 117.641767 209.623149 
L 117.479427 208.724426 
L 116.830066 207.825702 
L 116.767409 206.926979 
L 116.135137 206.028255 
L 115.955708 205.129532 
L 115.163944 204.230809 
L 115.030085 203.332085 
L 113.999083 202.433362 
L 113.178838 201.534638 
L 112.913968 200.635915 
L 112.802893 199.737191 
L 112.694666 198.838468 
L 112.603528 197.939745 
L 112.418403 197.041021 
L 112.14214 196.142298 
L 112.079483 195.243574 
L 111.694993 194.344851 
L 111.227909 193.446128 
L 110.666839 192.547404 
L 110.498803 191.648681 
L 110.097225 190.749957 
L 109.917796 189.851234 
L 109.895012 188.952511 
L 109.889315 188.053787 
L 109.726975 187.155064 
L 109.348182 186.25634 
L 108.621924 185.357617 
L 108.579202 184.458894 
L 108.171928 183.56017 
L 108.052309 182.661447 
L 107.986804 181.762723 
L 107.516872 180.864 
L 106.881752 179.965277 
L 106.867511 179.066553 
L 106.782069 178.16783 
L 106.702323 177.269106 
L 106.403276 176.370383 
L 105.147276 175.47166 
L 104.913734 174.572936 
L 104.893798 173.674213 
L 104.677344 172.775489 
L 104.589054 171.876766 
L 104.549181 170.978043 
L 104.398233 170.079319 
L 104.013743 169.180596 
L 103.962478 168.281872 
L 103.08812 167.383149 
L 103.085272 166.484426 
L 102.105535 165.585702 
L 102.082751 164.686979 
L 101.886234 163.788255 
L 101.678325 162.889532 
L 101.590034 161.990809 
L 101.47896 161.092085 
L 101.319468 160.193362 
L 101.174216 159.294638 
L 101.023268 158.395915 
L 100.225808 157.497191 
L 100.111885 156.598468 
L 99.753028 155.699745 
L 99.089427 154.801021 
L 98.833101 153.902298 
L 97.975831 153.003574 
L 97.77077 152.104851 
L 97.611278 151.206128 
L 97.522988 150.307404 
L 97.491659 149.408681 
L 97.326471 148.509957 
L 96.734072 147.611234 
L 96.446417 146.712511 
L 95.705918 145.813787 
L 95.70307 144.915064 
L 95.247379 144.01634 
L 95.187569 143.117617 
L 94.865737 142.218894 
L 94.242009 141.32017 
L 94.1822 140.421447 
L 94.136631 139.522723 
L 93.766381 138.624 
L 93.643914 137.725277 
L 93.527143 136.826553 
L 93.370499 135.92783 
L 93.359107 135.029106 
L 93.099933 134.130383 
L 93.028731 133.23166 
L 92.806581 132.332936 
L 92.789493 131.434213 
L 92.510382 129.636766 
L 90.895525 128.738043 
L 90.884133 127.839319 
L 90.847108 126.940596 
L 90.758818 126.041872 
L 90.676224 125.143149 
L 90.442682 124.244426 
L 89.955661 123.345702 
L 89.417376 122.446979 
L 89.067063 121.548255 
L 89.058519 120.649532 
L 88.762319 119.750809 
L 88.730991 118.852085 
L 88.343653 117.953362 
L 88.018973 116.155915 
L 87.899354 115.257191 
L 87.739862 114.358468 
L 87.486383 113.459745 
L 87.472143 112.561021 
L 87.35822 111.662298 
L 87.258537 110.763574 
L 87.215816 109.864851 
L 86.94525 108.966128 
L 86.919617 108.067404 
L 86.834175 107.168681 
L 86.720252 106.269957 
L 86.657594 105.371234 
L 86.301585 104.472511 
L 86.233232 103.573787 
L 86.213295 102.675064 
L 86.025322 101.77634 
L 85.729123 100.877617 
L 85.344633 99.978894 
L 85.042738 99.08017 
L 84.988624 98.181447 
L 84.760779 97.282723 
L 84.045913 96.384 
L 83.818067 95.485277 
L 83.704144 94.586553 
L 83.667119 93.68783 
L 83.046239 92.789106 
L 82.878203 91.890383 
L 82.422512 90.99166 
L 82.27726 90.092936 
L 81.969668 89.194213 
L 81.813024 88.295489 
L 81.684861 87.396766 
L 81.363029 86.498043 
L 81.212081 85.599319 
L 80.964299 84.700596 
L 80.78487 83.801872 
L 79.776653 82.903149 
L 79.711147 82.004426 
L 79.070331 81.105702 
L 78.563374 80.206979 
L 78.438059 79.308255 
L 78.429515 78.409532 
L 78.398186 77.510809 
L 78.344073 76.612085 
L 78.3042 75.713362 
L 77.953887 74.814638 
L 77.865597 73.915915 
L 77.694713 73.017191 
L 77.170667 72.118468 
L 76.789026 71.219745 
L 76.321942 70.321021 
L 76.279221 69.422298 
L 75.968781 68.523574 
L 75.681126 67.624851 
L 75.504545 66.726128 
L 75.441888 65.827404 
L 75.336509 64.928681 
L 75.134296 64.029957 
L 75.06879 63.131234 
L 75.037462 62.232511 
L 74.994741 61.333787 
L 74.695693 60.435064 
L 74.504872 59.53634 
L 74.296963 58.637617 
L 74.103294 57.738894 
L 74.032092 56.84017 
L 73.969435 55.941447 
L 73.852664 55.042723 
L 73.832727 54.144 
z
" clip-path="url(#p84681b0ff6)" style="fill: #ff0000"/>
   </g>
   <g id="matplotlib.axis_1">
    <g id="xtick_1">
     <g id="line2d_1">
      <defs>
       <path id="m2768fc82a4" d="M 0 0 
L 0 3.5 
" style="stroke: #000000; stroke-width: 0.8"/>
      </defs>
      <g>
       <use xlink:href="#m2768fc82a4" x="102.971349" y="307.584" style="stroke: #000000; stroke-width: 0.8"/>
      </g>
     </g>
     <g id="text_1">
      <!-- 200 -->
      <g transform="translate(93.427599 322.182437)scale(0.1 -0.1)">
       <defs>
        <path id="DejaVuSans-32" d="M 1228 531 
L 3431 531 
L 3431 0 
L 469 0 
L 469 531 
Q 828 903 1448 1529 
Q 2069 2156 2228 2338 
Q 2531 2678 2651 2914 
Q 2772 3150 2772 3378 
Q 2772 3750 2511 3984 
Q 2250 4219 1831 4219 
Q 1534 4219 1204 4116 
Q 875 4013 500 3803 
L 500 4441 
Q 881 4594 1212 4672 
Q 1544 4750 1819 4750 
Q 2544 4750 2975 4387 
Q 3406 4025 3406 3419 
Q 3406 3131 3298 2873 
Q 3191 2616 2906 2266 
Q 2828 2175 2409 1742 
Q 1991 1309 1228 531 
z
" transform="scale(0.015625)"/>
        <path id="DejaVuSans-30" d="M 2034 4250 
Q 1547 4250 1301 3770 
Q 1056 3291 1056 2328 
Q 1056 1369 1301 889 
Q 1547 409 2034 409 
Q 2525 409 2770 889 
Q 3016 1369 3016 2328 
Q 3016 3291 2770 3770 
Q 2525 4250 2034 4250 
z
M 2034 4750 
Q 2819 4750 3233 4129 
Q 3647 3509 3647 2328 
Q 3647 1150 3233 529 
Q 2819 -91 2034 -91 
Q 1250 -91 836 529 
Q 422 1150 422 2328 
Q 422 3509 836 4129 
Q 1250 4750 2034 4750 
z
" transform="scale(0.015625)"/>
       </defs>
       <use xlink:href="#DejaVuSans-32"/>
       <use xlink:href="#DejaVuSans-30" x="63.623047"/>
       <use xlink:href="#DejaVuSans-30" x="127.246094"/>
      </g>
     </g>
    </g>
    <g id="xtick_2">
     <g id="line2d_2">
      <g>
       <use xlink:href="#m2768fc82a4" x="159.932784" y="307.584" style="stroke: #000000; stroke-width: 0.8"/>
      </g>
     </g>
     <g id="text_2">
      <!-- 400 -->
      <g transform="translate(150.389034 322.182437)scale(0.1 -0.1)">
       <defs>
        <path id="DejaVuSans-34" d="M 2419 4116 
L 825 1625 
L 2419 1625 
L 2419 4116 
z
M 2253 4666 
L 3047 4666 
L 3047 1625 
L 3713 1625 
L 3713 1100 
L 3047 1100 
L 3047 0 
L 2419 0 
L 2419 1100 
L 313 1100 
L 313 1709 
L 2253 4666 
z
" transform="scale(0.015625)"/>
       </defs>
       <use xlink:href="#DejaVuSans-34"/>
       <use xlink:href="#DejaVuSans-30" x="63.623047"/>
       <use xlink:href="#DejaVuSans-30" x="127.246094"/>
      </g>
     </g>
    </g>
    <g id="xtick_3">
     <g id="line2d_3">
      <g>
       <use xlink:href="#m2768fc82a4" x="216.894219" y="307.584" style="stroke: #000000; stroke-width: 0.8"/>
      </g>
     </g>
     <g id="text_3">
      <!-- 600 -->
      <g transform="translate(207.350469 322.182437)scale(0.1 -0.1)">
       <defs>
        <path id="DejaVuSans-36" d="M 2113 2584 
Q 1688 2584 1439 2293 
Q 1191 2003 1191 1497 
Q 1191 994 1439 701 
Q 1688 409 2113 409 
Q 2538 409 2786 701 
Q 3034 994 3034 1497 
Q 3034 2003 2786 2293 
Q 2538 2584 2113 2584 
z
M 3366 4563 
L 3366 3988 
Q 3128 4100 2886 4159 
Q 2644 4219 2406 4219 
Q 1781 4219 1451 3797 
Q 1122 3375 1075 2522 
Q 1259 2794 1537 2939 
Q 1816 3084 2150 3084 
Q 2853 3084 3261 2657 
Q 3669 2231 3669 1497 
Q 3669 778 3244 343 
Q 2819 -91 2113 -91 
Q 1303 -91 875 529 
Q 447 1150 447 2328 
Q 447 3434 972 4092 
Q 1497 4750 2381 4750 
Q 2619 4750 2861 4703 
Q 3103 4656 3366 4563 
z
" transform="scale(0.015625)"/>
       </defs>
       <use xlink:href="#DejaVuSans-36"/>
       <use xlink:href="#DejaVuSans-30" x="63.623047"/>
       <use xlink:href="#DejaVuSans-30" x="127.246094"/>
      </g>
     </g>
    </g>
    <g id="xtick_4">
     <g id="line2d_4">
      <g>
       <use xlink:href="#m2768fc82a4" x="273.855653" y="307.584" style="stroke: #000000; stroke-width: 0.8"/>
      </g>
     </g>
     <g id="text_4">
      <!-- 800 -->
      <g transform="translate(264.311903 322.182437)scale(0.1 -0.1)">
       <defs>
        <path id="DejaVuSans-38" d="M 2034 2216 
Q 1584 2216 1326 1975 
Q 1069 1734 1069 1313 
Q 1069 891 1326 650 
Q 1584 409 2034 409 
Q 2484 409 2743 651 
Q 3003 894 3003 1313 
Q 3003 1734 2745 1975 
Q 2488 2216 2034 2216 
z
M 1403 2484 
Q 997 2584 770 2862 
Q 544 3141 544 3541 
Q 544 4100 942 4425 
Q 1341 4750 2034 4750 
Q 2731 4750 3128 4425 
Q 3525 4100 3525 3541 
Q 3525 3141 3298 2862 
Q 3072 2584 2669 2484 
Q 3125 2378 3379 2068 
Q 3634 1759 3634 1313 
Q 3634 634 3220 271 
Q 2806 -91 2034 -91 
Q 1263 -91 848 271 
Q 434 634 434 1313 
Q 434 1759 690 2068 
Q 947 2378 1403 2484 
z
M 1172 3481 
Q 1172 3119 1398 2916 
Q 1625 2713 2034 2713 
Q 2441 2713 2670 2916 
Q 2900 3119 2900 3481 
Q 2900 3844 2670 4047 
Q 2441 4250 2034 4250 
Q 1625 4250 1398 4047 
Q 1172 3844 1172 3481 
z
" transform="scale(0.015625)"/>
       </defs>
       <use xlink:href="#DejaVuSans-38"/>
       <use xlink:href="#DejaVuSans-30" x="63.623047"/>
       <use xlink:href="#DejaVuSans-30" x="127.246094"/>
      </g>
     </g>
    </g>
    <g id="xtick_5">
     <g id="line2d_5">
      <g>
       <use xlink:href="#m2768fc82a4" x="330.817088" y="307.584" style="stroke: #000000; stroke-width: 0.8"/>
      </g>
     </g>
     <g id="text_5">
      <!-- 1000 -->
      <g transform="translate(318.092088 322.182437)scale(0.1 -0.1)">
       <defs>
        <path id="DejaVuSans-31" d="M 794 531 
L 1825 531 
L 1825 4091 
L 703 3866 
L 703 4441 
L 1819 4666 
L 2450 4666 
L 2450 531 
L 3481 531 
L 3481 0 
L 794 0 
L 794 531 
z
" transform="scale(0.015625)"/>
       </defs>
       <use xlink:href="#DejaVuSans-31"/>
       <use xlink:href="#DejaVuSans-30" x="63.623047"/>
       <use xlink:href="#DejaVuSans-30" x="127.246094"/>
       <use xlink:href="#DejaVuSans-30" x="190.869141"/>
      </g>
     </g>
    </g>
    <g id="xtick_6">
     <g id="line2d_6">
      <g>
       <use xlink:href="#m2768fc82a4" x="387.778523" y="307.584" style="stroke: #000000; stroke-width: 0.8"/>
      </g>
     </g>
     <g id="text_6">
      <!-- 1200 -->
      <g transform="translate(375.053523 322.182437)scale(0.1 -0.1)">
       <use xlink:href="#DejaVuSans-31"/>
       <use xlink:href="#DejaVuSans-32" x="63.623047"/>
       <use xlink:href="#DejaVuSans-30" x="127.246094"/>
       <use xlink:href="#DejaVuSans-30" x="190.869141"/>
      </g>
     </g>
    </g>
    <g id="text_7">
     <!-- Score -->
     <g transform="translate(222.157656 335.860562)scale(0.1 -0.1)">
      <defs>
       <path id="DejaVuSans-53" d="M 3425 4513 
L 3425 3897 
Q 3066 4069 2747 4153 
Q 2428 4238 2131 4238 
Q 1616 4238 1336 4038 
Q 1056 3838 1056 3469 
Q 1056 3159 1242 3001 
Q 1428 2844 1947 2747 
L 2328 2669 
Q 3034 2534 3370 2195 
Q 3706 1856 3706 1288 
Q 3706 609 3251 259 
Q 2797 -91 1919 -91 
Q 1588 -91 1214 -16 
Q 841 59 441 206 
L 441 856 
Q 825 641 1194 531 
Q 1563 422 1919 422 
Q 2459 422 2753 634 
Q 3047 847 3047 1241 
Q 3047 1584 2836 1778 
Q 2625 1972 2144 2069 
L 1759 2144 
Q 1053 2284 737 2584 
Q 422 2884 422 3419 
Q 422 4038 858 4394 
Q 1294 4750 2059 4750 
Q 2388 4750 2728 4690 
Q 3069 4631 3425 4513 
z
" transform="scale(0.015625)"/>
       <path id="DejaVuSans-63" d="M 3122 3366 
L 3122 2828 
Q 2878 2963 2633 3030 
Q 2388 3097 2138 3097 
Q 1578 3097 1268 2742 
Q 959 2388 959 1747 
Q 959 1106 1268 751 
Q 1578 397 2138 397 
Q 2388 397 2633 464 
Q 2878 531 3122 666 
L 3122 134 
Q 2881 22 2623 -34 
Q 2366 -91 2075 -91 
Q 1284 -91 818 406 
Q 353 903 353 1747 
Q 353 2603 823 3093 
Q 1294 3584 2113 3584 
Q 2378 3584 2631 3529 
Q 2884 3475 3122 3366 
z
" transform="scale(0.015625)"/>
       <path id="DejaVuSans-6f" d="M 1959 3097 
Q 1497 3097 1228 2736 
Q 959 2375 959 1747 
Q 959 1119 1226 758 
Q 1494 397 1959 397 
Q 2419 397 2687 759 
Q 2956 1122 2956 1747 
Q 2956 2369 2687 2733 
Q 2419 3097 1959 3097 
z
M 1959 3584 
Q 2709 3584 3137 3096 
Q 3566 2609 3566 1747 
Q 3566 888 3137 398 
Q 2709 -91 1959 -91 
Q 1206 -91 779 398 
Q 353 888 353 1747 
Q 353 2609 779 3096 
Q 1206 3584 1959 3584 
z
" transform="scale(0.015625)"/>
       <path id="DejaVuSans-72" d="M 2631 2963 
Q 2534 3019 2420 3045 
Q 2306 3072 2169 3072 
Q 1681 3072 1420 2755 
Q 1159 2438 1159 1844 
L 1159 0 
L 581 0 
L 581 3500 
L 1159 3500 
L 1159 2956 
Q 1341 3275 1631 3429 
Q 1922 3584 2338 3584 
Q 2397 3584 2469 3576 
Q 2541 3569 2628 3553 
L 2631 2963 
z
" transform="scale(0.015625)"/>
       <path id="DejaVuSans-65" d="M 3597 1894 
L 3597 1613 
L 953 1613 
Q 991 1019 1311 708 
Q 1631 397 2203 397 
Q 2534 397 2845 478 
Q 3156 559 3463 722 
L 3463 178 
Q 3153 47 2828 -22 
Q 2503 -91 2169 -91 
Q 1331 -91 842 396 
Q 353 884 353 1716 
Q 353 2575 817 3079 
Q 1281 3584 2069 3584 
Q 2775 3584 3186 3129 
Q 3597 2675 3597 1894 
z
M 3022 2063 
Q 3016 2534 2758 2815 
Q 2500 3097 2075 3097 
Q 1594 3097 1305 2825 
Q 1016 2553 972 2059 
L 3022 2063 
z
" transform="scale(0.015625)"/>
      </defs>
      <use xlink:href="#DejaVuSans-53"/>
      <use xlink:href="#DejaVuSans-63" x="63.476562"/>
      <use xlink:href="#DejaVuSans-6f" x="118.457031"/>
      <use xlink:href="#DejaVuSans-72" x="179.638672"/>
      <use xlink:href="#DejaVuSans-65" x="218.501953"/>
     </g>
    </g>
   </g>
   <g id="matplotlib.axis_2">
    <g id="ytick_1">
     <g id="line2d_7">
      <defs>
       <path id="ma18168181a" d="M 0 0 
L -3.5 0 
" style="stroke: #000000; stroke-width: 0.8"/>
      </defs>
      <g>
       <use xlink:href="#ma18168181a" x="57.6" y="307.584" style="stroke: #000000; stroke-width: 0.8"/>
      </g>
     </g>
     <g id="text_8">
      <!-- 0 -->
      <g transform="translate(44.2375 311.383219)scale(0.1 -0.1)">
       <use xlink:href="#DejaVuSans-30"/>
      </g>
     </g>
    </g>
    <g id="ytick_2">
     <g id="line2d_8">
      <g>
       <use xlink:href="#ma18168181a" x="57.6" y="262.64783" style="stroke: #000000; stroke-width: 0.8"/>
      </g>
     </g>
     <g id="text_9">
      <!-- 50 -->
      <g transform="translate(37.875 266.447049)scale(0.1 -0.1)">
       <defs>
        <path id="DejaVuSans-35" d="M 691 4666 
L 3169 4666 
L 3169 4134 
L 1269 4134 
L 1269 2991 
Q 1406 3038 1543 3061 
Q 1681 3084 1819 3084 
Q 2600 3084 3056 2656 
Q 3513 2228 3513 1497 
Q 3513 744 3044 326 
Q 2575 -91 1722 -91 
Q 1428 -91 1123 -41 
Q 819 9 494 109 
L 494 744 
Q 775 591 1075 516 
Q 1375 441 1709 441 
Q 2250 441 2565 725 
Q 2881 1009 2881 1497 
Q 2881 1984 2565 2268 
Q 2250 2553 1709 2553 
Q 1456 2553 1204 2497 
Q 953 2441 691 2322 
L 691 4666 
z
" transform="scale(0.015625)"/>
       </defs>
       <use xlink:href="#DejaVuSans-35"/>
       <use xlink:href="#DejaVuSans-30" x="63.623047"/>
      </g>
     </g>
    </g>
    <g id="ytick_3">
     <g id="line2d_9">
      <g>
       <use xlink:href="#ma18168181a" x="57.6" y="217.71166" style="stroke: #000000; stroke-width: 0.8"/>
      </g>
     </g>
     <g id="text_10">
      <!-- 100 -->
      <g transform="translate(31.5125 221.510878)scale(0.1 -0.1)">
       <use xlink:href="#DejaVuSans-31"/>
       <use xlink:href="#DejaVuSans-30" x="63.623047"/>
       <use xlink:href="#DejaVuSans-30" x="127.246094"/>
      </g>
     </g>
    </g>
    <g id="ytick_4">
     <g id="line2d_10">
      <g>
       <use xlink:href="#ma18168181a" x="57.6" y="172.775489" style="stroke: #000000; stroke-width: 0.8"/>
      </g>
     </g>
     <g id="text_11">
      <!-- 150 -->
      <g transform="translate(31.5125 176.574708)scale(0.1 -0.1)">
       <use xlink:href="#DejaVuSans-31"/>
       <use xlink:href="#DejaVuSans-35" x="63.623047"/>
       <use xlink:href="#DejaVuSans-30" x="127.246094"/>
      </g>
     </g>
    </g>
    <g id="ytick_5">
     <g id="line2d_11">
      <g>
       <use xlink:href="#ma18168181a" x="57.6" y="127.839319" style="stroke: #000000; stroke-width: 0.8"/>
      </g>
     </g>
     <g id="text_12">
      <!-- 200 -->
      <g transform="translate(31.5125 131.638538)scale(0.1 -0.1)">
       <use xlink:href="#DejaVuSans-32"/>
       <use xlink:href="#DejaVuSans-30" x="63.623047"/>
       <use xlink:href="#DejaVuSans-30" x="127.246094"/>
      </g>
     </g>
    </g>
    <g id="ytick_6">
     <g id="line2d_12">
      <g>
       <use xlink:href="#ma18168181a" x="57.6" y="82.903149" style="stroke: #000000; stroke-width: 0.8"/>
      </g>
     </g>
     <g id="text_13">
      <!-- 250 -->
      <g transform="translate(31.5125 86.702368)scale(0.1 -0.1)">
       <use xlink:href="#DejaVuSans-32"/>
       <use xlink:href="#DejaVuSans-35" x="63.623047"/>
       <use xlink:href="#DejaVuSans-30" x="127.246094"/>
      </g>
     </g>
    </g>
    <g id="text_14">
     <!-- Number of crosslinks -->
     <g transform="translate(25.432812 227.019406)rotate(-90)scale(0.1 -0.1)">
      <defs>
       <path id="DejaVuSans-4e" d="M 628 4666 
L 1478 4666 
L 3547 763 
L 3547 4666 
L 4159 4666 
L 4159 0 
L 3309 0 
L 1241 3903 
L 1241 0 
L 628 0 
L 628 4666 
z
" transform="scale(0.015625)"/>
       <path id="DejaVuSans-75" d="M 544 1381 
L 544 3500 
L 1119 3500 
L 1119 1403 
Q 1119 906 1312 657 
Q 1506 409 1894 409 
Q 2359 409 2629 706 
Q 2900 1003 2900 1516 
L 2900 3500 
L 3475 3500 
L 3475 0 
L 2900 0 
L 2900 538 
Q 2691 219 2414 64 
Q 2138 -91 1772 -91 
Q 1169 -91 856 284 
Q 544 659 544 1381 
z
M 1991 3584 
L 1991 3584 
z
" transform="scale(0.015625)"/>
       <path id="DejaVuSans-6d" d="M 3328 2828 
Q 3544 3216 3844 3400 
Q 4144 3584 4550 3584 
Q 5097 3584 5394 3201 
Q 5691 2819 5691 2113 
L 5691 0 
L 5113 0 
L 5113 2094 
Q 5113 2597 4934 2840 
Q 4756 3084 4391 3084 
Q 3944 3084 3684 2787 
Q 3425 2491 3425 1978 
L 3425 0 
L 2847 0 
L 2847 2094 
Q 2847 2600 2669 2842 
Q 2491 3084 2119 3084 
Q 1678 3084 1418 2786 
Q 1159 2488 1159 1978 
L 1159 0 
L 581 0 
L 581 3500 
L 1159 3500 
L 1159 2956 
Q 1356 3278 1631 3431 
Q 1906 3584 2284 3584 
Q 2666 3584 2933 3390 
Q 3200 3197 3328 2828 
z
" transform="scale(0.015625)"/>
       <path id="DejaVuSans-62" d="M 3116 1747 
Q 3116 2381 2855 2742 
Q 2594 3103 2138 3103 
Q 1681 3103 1420 2742 
Q 1159 2381 1159 1747 
Q 1159 1113 1420 752 
Q 1681 391 2138 391 
Q 2594 391 2855 752 
Q 3116 1113 3116 1747 
z
M 1159 2969 
Q 1341 3281 1617 3432 
Q 1894 3584 2278 3584 
Q 2916 3584 3314 3078 
Q 3713 2572 3713 1747 
Q 3713 922 3314 415 
Q 2916 -91 2278 -91 
Q 1894 -91 1617 61 
Q 1341 213 1159 525 
L 1159 0 
L 581 0 
L 581 4863 
L 1159 4863 
L 1159 2969 
z
" transform="scale(0.015625)"/>
       <path id="DejaVuSans-20" transform="scale(0.015625)"/>
       <path id="DejaVuSans-66" d="M 2375 4863 
L 2375 4384 
L 1825 4384 
Q 1516 4384 1395 4259 
Q 1275 4134 1275 3809 
L 1275 3500 
L 2222 3500 
L 2222 3053 
L 1275 3053 
L 1275 0 
L 697 0 
L 697 3053 
L 147 3053 
L 147 3500 
L 697 3500 
L 697 3744 
Q 697 4328 969 4595 
Q 1241 4863 1831 4863 
L 2375 4863 
z
" transform="scale(0.015625)"/>
       <path id="DejaVuSans-73" d="M 2834 3397 
L 2834 2853 
Q 2591 2978 2328 3040 
Q 2066 3103 1784 3103 
Q 1356 3103 1142 2972 
Q 928 2841 928 2578 
Q 928 2378 1081 2264 
Q 1234 2150 1697 2047 
L 1894 2003 
Q 2506 1872 2764 1633 
Q 3022 1394 3022 966 
Q 3022 478 2636 193 
Q 2250 -91 1575 -91 
Q 1294 -91 989 -36 
Q 684 19 347 128 
L 347 722 
Q 666 556 975 473 
Q 1284 391 1588 391 
Q 1994 391 2212 530 
Q 2431 669 2431 922 
Q 2431 1156 2273 1281 
Q 2116 1406 1581 1522 
L 1381 1569 
Q 847 1681 609 1914 
Q 372 2147 372 2553 
Q 372 3047 722 3315 
Q 1072 3584 1716 3584 
Q 2034 3584 2315 3537 
Q 2597 3491 2834 3397 
z
" transform="scale(0.015625)"/>
       <path id="DejaVuSans-6c" d="M 603 4863 
L 1178 4863 
L 1178 0 
L 603 0 
L 603 4863 
z
" transform="scale(0.015625)"/>
       <path id="DejaVuSans-69" d="M 603 3500 
L 1178 3500 
L 1178 0 
L 603 0 
L 603 3500 
z
M 603 4863 
L 1178 4863 
L 1178 4134 
L 603 4134 
L 603 4863 
z
" transform="scale(0.015625)"/>
       <path id="DejaVuSans-6e" d="M 3513 2113 
L 3513 0 
L 2938 0 
L 2938 2094 
Q 2938 2591 2744 2837 
Q 2550 3084 2163 3084 
Q 1697 3084 1428 2787 
Q 1159 2491 1159 1978 
L 1159 0 
L 581 0 
L 581 3500 
L 1159 3500 
L 1159 2956 
Q 1366 3272 1645 3428 
Q 1925 3584 2291 3584 
Q 2894 3584 3203 3211 
Q 3513 2838 3513 2113 
z
" transform="scale(0.015625)"/>
       <path id="DejaVuSans-6b" d="M 581 4863 
L 1159 4863 
L 1159 1991 
L 2875 3500 
L 3609 3500 
L 1753 1863 
L 3688 0 
L 2938 0 
L 1159 1709 
L 1159 0 
L 581 0 
L 581 4863 
z
" transform="scale(0.015625)"/>
      </defs>
      <use xlink:href="#DejaVuSans-4e"/>
      <use xlink:href="#DejaVuSans-75" x="74.804688"/>
      <use xlink:href="#DejaVuSans-6d" x="138.183594"/>
      <use xlink:href="#DejaVuSans-62" x="235.595703"/>
      <use xlink:href="#DejaVuSans-65" x="299.072266"/>
      <use xlink:href="#DejaVuSans-72" x="360.595703"/>
      <use xlink:href="#DejaVuSans-20" x="401.708984"/>
      <use xlink:href="#DejaVuSans-6f" x="433.496094"/>
      <use xlink:href="#DejaVuSans-66" x="494.677734"/>
      <use xlink:href="#DejaVuSans-20" x="529.882812"/>
      <use xlink:href="#DejaVuSans-63" x="561.669922"/>
      <use xlink:href="#DejaVuSans-72" x="616.650391"/>
      <use xlink:href="#DejaVuSans-6f" x="655.513672"/>
      <use xlink:href="#DejaVuSans-73" x="716.695312"/>
      <use xlink:href="#DejaVuSans-73" x="768.794922"/>
      <use xlink:href="#DejaVuSans-6c" x="820.894531"/>
      <use xlink:href="#DejaVuSans-69" x="848.677734"/>
      <use xlink:href="#DejaVuSans-6e" x="876.460938"/>
      <use xlink:href="#DejaVuSans-6b" x="939.839844"/>
      <use xlink:href="#DejaVuSans-73" x="997.75"/>
     </g>
    </g>
   </g>
   <g id="patch_3">
    <path d="M 57.6 307.584 
L 57.6 41.472 
" style="fill: none; stroke: #000000; stroke-width: 0.8; stroke-linejoin: miter; stroke-linecap: square"/>
   </g>
   <g id="patch_4">
    <path d="M 414.72 307.584 
L 414.72 41.472 
" style="fill: none; stroke: #000000; stroke-width: 0.8; stroke-linejoin: miter; stroke-linecap: square"/>
   </g>
   <g id="patch_5">
    <path d="M 57.6 307.584 
L 414.72 307.584 
" style="fill: none; stroke: #000000; stroke-width: 0.8; stroke-linejoin: miter; stroke-linecap: square"/>
   </g>
   <g id="patch_6">
    <path d="M 57.6 41.472 
L 414.72 41.472 
" style="fill: none; stroke: #000000; stroke-width: 0.8; stroke-linejoin: miter; stroke-linecap: square"/>
   </g>
   <g id="legend_1">
    <g id="patch_7">
     <path d="M 293.087188 93.506375 
L 407.72 93.506375 
Q 409.72 93.506375 409.72 91.506375 
L 409.72 48.472 
Q 409.72 46.472 407.72 46.472 
L 293.087188 46.472 
Q 291.087188 46.472 291.087188 48.472 
L 291.087188 91.506375 
Q 291.087188 93.506375 293.087188 93.506375 
z
" style="fill: #ffffff; opacity: 0.8; stroke: #cccccc; stroke-linejoin: miter"/>
    </g>
    <g id="patch_8">
     <path d="M 295.087188 58.070438 
L 315.087188 58.070438 
L 315.087188 51.070438 
L 295.087188 51.070438 
z
" style="fill: #008000"/>
    </g>
    <g id="text_15">
     <!-- true -->
     <g transform="translate(323.087188 58.070438)scale(0.1 -0.1)">
      <defs>
       <path id="DejaVuSans-74" d="M 1172 4494 
L 1172 3500 
L 2356 3500 
L 2356 3053 
L 1172 3053 
L 1172 1153 
Q 1172 725 1289 603 
Q 1406 481 1766 481 
L 2356 481 
L 2356 0 
L 1766 0 
Q 1100 0 847 248 
Q 594 497 594 1153 
L 594 3053 
L 172 3053 
L 172 3500 
L 594 3500 
L 594 4494 
L 1172 4494 
z
" transform="scale(0.015625)"/>
      </defs>
      <use xlink:href="#DejaVuSans-74"/>
      <use xlink:href="#DejaVuSans-72" x="39.208984"/>
      <use xlink:href="#DejaVuSans-75" x="80.322266"/>
      <use xlink:href="#DejaVuSans-65" x="143.701172"/>
     </g>
    </g>
    <g id="patch_9">
     <path d="M 295.087188 72.748563 
L 315.087188 72.748563 
L 315.087188 65.748563 
L 295.087188 65.748563 
z
" style="fill: #7cfc00"/>
    </g>
    <g id="text_16">
     <!-- true homeotypic -->
     <g transform="translate(323.087188 72.748563)scale(0.1 -0.1)">
      <defs>
       <path id="DejaVuSans-68" d="M 3513 2113 
L 3513 0 
L 2938 0 
L 2938 2094 
Q 2938 2591 2744 2837 
Q 2550 3084 2163 3084 
Q 1697 3084 1428 2787 
Q 1159 2491 1159 1978 
L 1159 0 
L 581 0 
L 581 4863 
L 1159 4863 
L 1159 2956 
Q 1366 3272 1645 3428 
Q 1925 3584 2291 3584 
Q 2894 3584 3203 3211 
Q 3513 2838 3513 2113 
z
" transform="scale(0.015625)"/>
       <path id="DejaVuSans-79" d="M 2059 -325 
Q 1816 -950 1584 -1140 
Q 1353 -1331 966 -1331 
L 506 -1331 
L 506 -850 
L 844 -850 
Q 1081 -850 1212 -737 
Q 1344 -625 1503 -206 
L 1606 56 
L 191 3500 
L 800 3500 
L 1894 763 
L 2988 3500 
L 3597 3500 
L 2059 -325 
z
" transform="scale(0.015625)"/>
       <path id="DejaVuSans-70" d="M 1159 525 
L 1159 -1331 
L 581 -1331 
L 581 3500 
L 1159 3500 
L 1159 2969 
Q 1341 3281 1617 3432 
Q 1894 3584 2278 3584 
Q 2916 3584 3314 3078 
Q 3713 2572 3713 1747 
Q 3713 922 3314 415 
Q 2916 -91 2278 -91 
Q 1894 -91 1617 61 
Q 1341 213 1159 525 
z
M 3116 1747 
Q 3116 2381 2855 2742 
Q 2594 3103 2138 3103 
Q 1681 3103 1420 2742 
Q 1159 2381 1159 1747 
Q 1159 1113 1420 752 
Q 1681 391 2138 391 
Q 2594 391 2855 752 
Q 3116 1113 3116 1747 
z
" transform="scale(0.015625)"/>
      </defs>
      <use xlink:href="#DejaVuSans-74"/>
      <use xlink:href="#DejaVuSans-72" x="39.208984"/>
      <use xlink:href="#DejaVuSans-75" x="80.322266"/>
      <use xlink:href="#DejaVuSans-65" x="143.701172"/>
      <use xlink:href="#DejaVuSans-20" x="205.224609"/>
      <use xlink:href="#DejaVuSans-68" x="237.011719"/>
      <use xlink:href="#DejaVuSans-6f" x="300.390625"/>
      <use xlink:href="#DejaVuSans-6d" x="361.572266"/>
      <use xlink:href="#DejaVuSans-65" x="458.984375"/>
      <use xlink:href="#DejaVuSans-6f" x="520.507812"/>
      <use xlink:href="#DejaVuSans-74" x="581.689453"/>
      <use xlink:href="#DejaVuSans-79" x="620.898438"/>
      <use xlink:href="#DejaVuSans-70" x="680.078125"/>
      <use xlink:href="#DejaVuSans-69" x="743.554688"/>
      <use xlink:href="#DejaVuSans-63" x="771.337891"/>
     </g>
    </g>
    <g id="patch_10">
     <path d="M 295.087188 87.426688 
L 315.087188 87.426688 
L 315.087188 80.426688 
L 295.087188 80.426688 
z
" style="fill: #ff0000"/>
    </g>
    <g id="text_17">
     <!-- false -->
     <g transform="translate(323.087188 87.426688)scale(0.1 -0.1)">
      <defs>
       <path id="DejaVuSans-61" d="M 2194 1759 
Q 1497 1759 1228 1600 
Q 959 1441 959 1056 
Q 959 750 1161 570 
Q 1363 391 1709 391 
Q 2188 391 2477 730 
Q 2766 1069 2766 1631 
L 2766 1759 
L 2194 1759 
z
M 3341 1997 
L 3341 0 
L 2766 0 
L 2766 531 
Q 2569 213 2275 61 
Q 1981 -91 1556 -91 
Q 1019 -91 701 211 
Q 384 513 384 1019 
Q 384 1609 779 1909 
Q 1175 2209 1959 2209 
L 2766 2209 
L 2766 2266 
Q 2766 2663 2505 2880 
Q 2244 3097 1772 3097 
Q 1472 3097 1187 3025 
Q 903 2953 641 2809 
L 641 3341 
Q 956 3463 1253 3523 
Q 1550 3584 1831 3584 
Q 2591 3584 2966 3190 
Q 3341 2797 3341 1997 
z
" transform="scale(0.015625)"/>
      </defs>
      <use xlink:href="#DejaVuSans-66"/>
      <use xlink:href="#DejaVuSans-61" x="35.205078"/>
      <use xlink:href="#DejaVuSans-6c" x="96.484375"/>
      <use xlink:href="#DejaVuSans-73" x="124.267578"/>
      <use xlink:href="#DejaVuSans-65" x="176.367188"/>
     </g>
    </g>
   </g>
  </g>
 </g>
 <defs>
  <clipPath id="p84681b0ff6">
   <rect x="57.6" y="41.472" width="357.12" height="266.112"/>
  </clipPath>
 </defs>
</svg>
