<?xml version="1.0" encoding="utf-8" standalone="no"?>
<!DOCTYPE svg PUBLIC "-//W3C//DTD SVG 1.1//EN"
  "http://www.w3.org/Graphics/SVG/1.1/DTD/svg11.dtd">
<svg xmlns:xlink="http://www.w3.org/1999/xlink" width="460.8pt" height="345.6pt" viewBox="0 0 460.8 345.6" xmlns="http://www.w3.org/2000/svg" version="1.1">
 <metadata>
  <rdf:RDF xmlns:dc="http://purl.org/dc/elements/1.1/" xmlns:cc="http://creativecommons.org/ns#" xmlns:rdf="http://www.w3.org/1999/02/22-rdf-syntax-ns#">
   <cc:Work>
    <dc:type rdf:resource="http://purl.org/dc/dcmitype/StillImage"/>
    <dc:date>2022-07-21T12:31:43.248684</dc:date>
    <dc:format>image/svg+xml</dc:format>
    <dc:creator>
     <cc:Agent>
      <dc:title>Matplotlib v3.5.1, https://matplotlib.org/</dc:title>
     </cc:Agent>
    </dc:creator>
   </cc:Work>
  </rdf:RDF>
 </metadata>
 <defs>
  <style type="text/css">*{stroke-linejoin: round; stroke-linecap: butt}</style>
 </defs>
 <g id="figure_1">
  <g id="patch_1">
   <path d="M 0 345.6 
L 460.8 345.6 
L 460.8 0 
L 0 0 
z
" style="fill: #ffffff"/>
  </g>
  <g id="axes_1">
   <g id="patch_2">
    <path d="M 57.6 307.584 
L 414.72 307.584 
L 414.72 41.472 
L 57.6 41.472 
z
" style="fill: #ffffff"/>
   </g>
   <g id="PolyCollection_1">
    <path d="M 73.832727 108.515211 
L 73.832727 307.584 
L 74.926785 307.584 
L 75.140598 307.584 
L 75.196134 307.584 
L 75.19891 307.584 
L 75.443268 307.584 
L 75.473813 307.584 
L 75.948645 307.584 
L 76.359611 307.584 
L 76.945515 307.584 
L 77.498097 307.584 
L 78.00625 307.584 
L 78.034018 307.584 
L 78.311698 307.584 
L 78.783753 307.584 
L 78.994789 307.584 
L 79.030888 307.584 
L 79.133629 307.584 
L 79.372433 307.584 
L 79.972221 307.584 
L 80.15549 307.584 
L 80.177704 307.584 
L 80.38874 307.584 
L 80.477598 307.584 
L 80.563678 307.584 
L 81.110707 307.584 
L 81.135698 307.584 
L 81.327297 307.584 
L 81.380056 307.584 
L 81.95763 307.584 
L 82.152005 307.584 
L 82.324166 307.584 
L 82.410247 307.584 
L 82.674043 307.584 
L 82.91007 307.584 
L 83.090562 307.584 
L 83.132214 307.584 
L 83.162759 307.584 
L 83.226625 307.584 
L 83.423777 307.584 
L 83.526519 307.584 
L 83.587608 307.584 
L 83.75977 307.584 
L 84.342896 307.584 
L 84.839943 307.584 
L 84.903809 307.584 
L 85.212033 307.584 
L 85.722964 307.584 
L 85.889571 307.584 
L 85.975652 307.584 
L 86.233894 307.584 
L 86.317198 307.584 
L 86.356073 307.584 
L 86.408832 307.584 
L 86.447707 307.584 
L 86.569886 307.584 
L 87.064156 307.584 
L 87.130799 307.584 
L 87.72781 307.584 
L 88.072132 307.584 
L 88.910724 307.584 
L 89.152305 307.584 
L 89.738209 307.584 
L 89.890933 307.584 
L 90.190827 307.584 
L 90.201934 307.584 
L 90.776731 307.584 
L 91.545903 307.584 
L 91.582001 307.584 
L 91.693073 307.584 
L 91.915217 307.584 
L 92.209557 307.584 
L 92.612192 307.584 
L 92.834336 307.584 
L 92.837113 307.584 
L 93.181435 307.584 
L 93.556302 307.584 
L 93.845089 307.584 
L 94.047795 307.584 
L 94.114438 307.584 
L 94.633699 307.584 
L 94.741994 307.584 
L 95.047441 307.584 
L 95.144629 307.584 
L 95.269585 307.584 
L 95.51672 307.584 
L 95.67222 307.584 
L 95.683327 307.584 
L 95.788846 307.584 
L 95.944346 307.584 
L 96.069302 307.584 
L 96.1054 307.584 
L 96.483044 307.584 
L 96.513589 307.584 
L 96.641322 307.584 
L 96.802376 307.584 
L 96.810706 307.584 
L 96.999528 307.584 
L 97.152252 307.584 
L 97.677066 307.584 
L 98.379595 307.584 
L 98.460122 307.584 
L 98.593409 307.584 
L 99.812422 307.584 
L 100.167851 307.584 
L 100.456638 307.584 
L 100.673228 307.584 
L 100.884265 307.584 
L 100.995336 307.584 
L 101.006444 307.584 
L 101.159167 307.584 
L 101.273016 307.584 
L 101.753401 307.584 
L 101.856143 307.584 
L 102.464261 307.584 
L 102.778039 307.584 
L 102.836351 307.584 
L 103.280639 307.584 
L 103.283415 307.584 
L 104.285838 307.584 
L 105.024466 307.584 
L 105.055011 307.584 
L 105.141091 307.584 
L 105.296592 307.584 
L 105.496521 307.584 
L 105.829736 307.584 
L 105.89638 307.584 
L 106.332336 307.584 
L 106.582248 307.584 
L 107.229241 307.584 
L 107.579117 307.584 
L 107.690189 307.584 
L 108.467692 307.584 
L 108.614862 307.584 
L 108.742594 307.584 
L 108.756478 307.584 
L 108.911979 307.584 
L 109.020274 307.584 
L 109.106355 307.584 
L 109.309061 307.584 
L 110.117108 307.584 
L 110.480868 307.584 
L 110.919602 307.584 
L 111.333344 307.584 
L 111.383327 307.584 
L 111.758194 307.584 
L 111.905364 307.584 
L 111.944239 307.584 
L 112.03032 307.584 
L 112.241356 307.584 
L 112.260794 307.584 
L 112.488491 307.584 
L 114.004621 307.584 
L 114.165675 307.584 
L 114.798784 307.584 
L 115.256956 307.584 
L 115.320822 307.584 
L 115.834529 307.584 
L 116.564826 307.584 
L 116.953577 307.584 
L 117.111855 307.584 
L 117.117408 307.584 
L 117.139623 307.584 
L 117.314561 307.584 
L 117.706089 307.584 
L 117.86992 307.584 
L 118.416948 307.584 
L 118.872343 307.584 
L 119.24721 307.584 
L 119.3083 307.584 
L 119.577649 307.584 
L 119.75814 307.584 
L 119.846998 307.584 
L 119.952516 307.584 
L 120.319053 307.584 
L 121.11877 307.584 
L 122.254479 307.584 
L 123.026428 307.584 
L 123.201366 307.584 
L 123.817815 307.584 
L 123.878904 307.584 
L 124.512014 307.584 
L 124.670291 307.584 
L 124.94797 307.584 
L 125.036828 307.584 
L 125.472785 307.584 
L 125.79767 307.584 
L 126.486315 307.584 
L 126.714012 307.584 
L 126.761217 307.584 
L 127.224942 307.584 
L 127.24438 307.584 
L 127.288809 307.584 
L 127.927471 307.584 
L 127.960793 307.584 
L 128.332883 307.584 
L 128.435625 307.584 
L 129.879558 307.584 
L 130.543212 307.584 
L 131.620609 307.584 
L 131.63727 307.584 
L 132.037128 307.584 
L 132.21762 307.584 
L 133.111748 307.584 
L 134.300216 307.584 
L 134.450163 307.584 
L 134.89445 307.584 
L 135.591426 307.584 
L 136.013499 307.584 
L 136.491107 307.584 
L 136.649385 307.584 
L 136.84376 307.584 
L 136.885412 307.584 
L 136.952055 307.584 
L 137.018698 307.584 
L 138.337676 307.584 
L 138.443194 307.584 
L 138.912473 307.584 
L 138.973562 307.584 
L 139.923226 307.584 
L 140.284209 307.584 
L 141.578196 307.584 
L 142.408458 307.584 
L 143.058228 307.584 
L 143.355345 307.584 
L 144.732635 307.584 
L 144.971439 307.584 
L 145.240788 307.584 
L 145.671192 307.584 
L 146.262649 307.584 
L 146.590311 307.584 
L 147.542752 307.584 
L 148.311924 307.584 
L 148.703452 307.584 
L 150.627771 307.584 
L 151.160915 307.584 
L 152.921404 307.584 
L 153.185199 307.584 
L 153.243512 307.584 
L 156.239674 307.584 
L 156.95331 307.584 
L 158.425011 307.584 
L 159.619033 307.584 
L 160.04666 307.584 
L 160.824162 307.584 
L 162.157024 307.584 
L 164.372906 307.584 
L 164.558952 307.584 
L 167.524569 307.584 
L 168.218767 307.584 
L 168.801894 307.584 
L 173.075382 307.584 
L 173.511339 307.584 
L 173.611303 307.584 
L 178.30131 307.584 
L 179.456457 307.584 
L 180.283942 307.584 
L 180.925382 307.584 
L 181.366892 307.584 
L 184.010401 307.584 
L 185.998586 307.584 
L 191.021808 307.584 
L 193.818041 307.584 
L 196.53097 307.584 
L 197.122427 307.584 
L 197.827733 307.584 
L 202.873169 307.584 
L 205.233445 307.584 
L 205.297312 307.584 
L 208.940467 307.584 
L 211.403484 307.584 
L 211.783905 307.584 
L 220.591899 307.584 
L 220.797381 307.584 
L 225.545701 307.584 
L 232.398831 307.584 
L 232.826458 307.584 
L 235.4061 307.584 
L 237.219347 307.584 
L 242.139828 307.584 
L 242.903447 307.584 
L 251.480967 307.584 
L 252.06687 307.584 
L 272.640145 307.584 
L 287.568195 307.584 
L 299.033582 307.584 
L 317.129955 307.584 
L 329.93098 307.584 
L 398.487273 307.584 
L 398.487273 307.584 
L 398.487273 307.584 
L 329.93098 307.584 
L 317.129955 307.584 
L 299.033582 307.584 
L 287.568195 307.584 
L 272.640145 307.584 
L 252.06687 307.584 
L 251.480967 306.707045 
L 242.903447 306.707045 
L 242.139828 305.83009 
L 237.219347 305.83009 
L 235.4061 305.83009 
L 232.826458 305.83009 
L 232.398831 304.953135 
L 225.545701 304.953135 
L 220.797381 304.07618 
L 220.591899 304.07618 
L 211.783905 304.07618 
L 211.403484 304.07618 
L 208.940467 304.07618 
L 205.297312 304.07618 
L 205.233445 303.199225 
L 202.873169 303.199225 
L 197.827733 303.199225 
L 197.122427 303.199225 
L 196.53097 302.32227 
L 193.818041 302.32227 
L 191.021808 301.445315 
L 185.998586 300.56836 
L 184.010401 299.691405 
L 181.366892 299.691405 
L 180.925382 299.691405 
L 180.283942 299.691405 
L 179.456457 298.81445 
L 178.30131 297.937495 
L 173.611303 297.06054 
L 173.511339 296.183585 
L 173.075382 296.183585 
L 168.801894 295.30663 
L 168.218767 294.429675 
L 167.524569 293.55272 
L 164.558952 293.55272 
L 164.372906 293.55272 
L 162.157024 293.55272 
L 160.824162 292.675765 
L 160.04666 291.79881 
L 159.619033 291.79881 
L 158.425011 290.921855 
L 156.95331 290.0449 
L 156.239674 289.167945 
L 153.243512 288.29099 
L 153.185199 287.414035 
L 152.921404 286.53708 
L 151.160915 285.660125 
L 150.627771 284.78317 
L 148.703452 283.906215 
L 148.311924 283.02926 
L 147.542752 282.152304 
L 146.590311 281.275349 
L 146.262649 280.398394 
L 145.671192 279.521439 
L 145.240788 278.644484 
L 144.971439 277.767529 
L 144.732635 276.890574 
L 143.355345 276.013619 
L 143.058228 275.136664 
L 142.408458 274.259709 
L 141.578196 274.259709 
L 140.284209 273.382754 
L 139.923226 272.505799 
L 138.973562 271.628844 
L 138.912473 270.751889 
L 138.443194 269.874934 
L 138.337676 268.997979 
L 137.018698 268.121024 
L 136.952055 267.244069 
L 136.885412 267.244069 
L 136.84376 266.367114 
L 136.649385 265.490159 
L 136.491107 264.613204 
L 136.013499 263.736249 
L 135.591426 262.859294 
L 134.89445 261.982339 
L 134.450163 261.105384 
L 134.300216 260.228429 
L 133.111748 259.351474 
L 132.21762 258.474519 
L 132.037128 257.597564 
L 131.63727 256.720609 
L 131.620609 255.843654 
L 130.543212 254.966699 
L 129.879558 254.089744 
L 128.435625 253.212789 
L 128.332883 252.335834 
L 127.960793 251.458879 
L 127.927471 250.581924 
L 127.288809 249.704969 
L 127.24438 248.828014 
L 127.224942 247.951059 
L 126.761217 247.074104 
L 126.714012 246.197149 
L 126.486315 245.320194 
L 125.79767 244.443239 
L 125.472785 243.566284 
L 125.036828 243.566284 
L 124.94797 242.689329 
L 124.670291 241.812374 
L 124.512014 241.812374 
L 123.878904 240.935419 
L 123.817815 240.058464 
L 123.201366 239.181509 
L 123.026428 238.304554 
L 122.254479 237.427599 
L 121.11877 236.550644 
L 120.319053 235.673689 
L 119.952516 235.673689 
L 119.846998 234.796734 
L 119.75814 233.919779 
L 119.577649 233.042824 
L 119.3083 232.165869 
L 119.24721 231.288913 
L 118.872343 230.411958 
L 118.416948 229.535003 
L 117.86992 228.658048 
L 117.706089 227.781093 
L 117.314561 226.904138 
L 117.139623 226.027183 
L 117.117408 225.150228 
L 117.111855 224.273273 
L 116.953577 223.396318 
L 116.564826 222.519363 
L 115.834529 221.642408 
L 115.320822 220.765453 
L 115.256956 219.888498 
L 114.798784 219.011543 
L 114.165675 218.134588 
L 114.004621 217.257633 
L 112.488491 216.380678 
L 112.260794 215.503723 
L 112.241356 214.626768 
L 112.03032 213.749813 
L 111.944239 212.872858 
L 111.905364 211.995903 
L 111.758194 211.118948 
L 111.383327 210.241993 
L 111.333344 209.365038 
L 110.919602 208.488083 
L 110.480868 207.611128 
L 110.117108 206.734173 
L 109.309061 205.857218 
L 109.106355 204.980263 
L 109.020274 204.103308 
L 108.911979 203.226353 
L 108.756478 203.226353 
L 108.742594 202.349398 
L 108.614862 201.472443 
L 108.467692 200.595488 
L 107.690189 199.718533 
L 107.579117 198.841578 
L 107.229241 197.964623 
L 106.582248 197.087668 
L 106.332336 196.210713 
L 105.89638 195.333758 
L 105.829736 194.456803 
L 105.496521 193.579848 
L 105.296592 192.702893 
L 105.141091 191.825938 
L 105.055011 190.948983 
L 105.024466 190.072028 
L 104.285838 189.195073 
L 103.283415 188.318118 
L 103.280639 187.441163 
L 102.836351 186.564208 
L 102.778039 186.564208 
L 102.464261 185.687253 
L 101.856143 184.810298 
L 101.753401 183.933343 
L 101.273016 183.933343 
L 101.159167 183.933343 
L 101.006444 183.933343 
L 100.995336 183.056388 
L 100.884265 182.179433 
L 100.673228 181.302478 
L 100.456638 180.425522 
L 100.167851 179.548567 
L 99.812422 178.671612 
L 98.593409 177.794657 
L 98.460122 176.917702 
L 98.379595 176.040747 
L 97.677066 175.163792 
L 97.152252 174.286837 
L 96.999528 173.409882 
L 96.810706 172.532927 
L 96.802376 171.655972 
L 96.641322 170.779017 
L 96.513589 169.902062 
L 96.483044 169.025107 
L 96.1054 168.148152 
L 96.069302 167.271197 
L 95.944346 166.394242 
L 95.788846 165.517287 
L 95.683327 164.640332 
L 95.67222 163.763377 
L 95.51672 162.886422 
L 95.269585 162.009467 
L 95.144629 161.132512 
L 95.047441 160.255557 
L 94.741994 159.378602 
L 94.633699 159.378602 
L 94.114438 158.501647 
L 94.047795 157.624692 
L 93.845089 156.747737 
L 93.556302 155.870782 
L 93.181435 154.993827 
L 92.837113 154.116872 
L 92.834336 153.239917 
L 92.612192 152.362962 
L 92.209557 151.486007 
L 91.915217 151.486007 
L 91.693073 151.486007 
L 91.582001 150.609052 
L 91.545903 149.732097 
L 90.776731 149.732097 
L 90.201934 148.855142 
L 90.190827 147.978187 
L 89.890933 147.978187 
L 89.738209 147.101232 
L 89.152305 146.224277 
L 88.910724 145.347322 
L 88.072132 144.470367 
L 87.72781 143.593412 
L 87.130799 142.716457 
L 87.064156 141.839502 
L 86.569886 141.839502 
L 86.447707 140.962547 
L 86.408832 140.085592 
L 86.356073 140.085592 
L 86.317198 140.085592 
L 86.233894 139.208637 
L 85.975652 138.331682 
L 85.889571 137.454727 
L 85.722964 136.577772 
L 85.212033 135.700817 
L 84.903809 134.823862 
L 84.839943 133.946907 
L 84.342896 133.069952 
L 83.75977 133.069952 
L 83.587608 132.192997 
L 83.526519 131.316042 
L 83.423777 131.316042 
L 83.226625 130.439087 
L 83.162759 129.562131 
L 83.132214 128.685176 
L 83.090562 128.685176 
L 82.91007 127.808221 
L 82.674043 126.931266 
L 82.410247 126.054311 
L 82.324166 125.177356 
L 82.152005 125.177356 
L 81.95763 124.300401 
L 81.380056 123.423446 
L 81.327297 122.546491 
L 81.135698 121.669536 
L 81.110707 120.792581 
L 80.563678 119.915626 
L 80.477598 119.038671 
L 80.38874 119.038671 
L 80.177704 118.161716 
L 80.15549 118.161716 
L 79.972221 118.161716 
L 79.372433 117.284761 
L 79.133629 116.407806 
L 79.030888 115.530851 
L 78.994789 114.653896 
L 78.783753 113.776941 
L 78.311698 113.776941 
L 78.034018 113.776941 
L 78.00625 112.899986 
L 77.498097 112.899986 
L 76.945515 112.023031 
L 76.359611 111.146076 
L 75.948645 111.146076 
L 75.473813 111.146076 
L 75.443268 111.146076 
L 75.19891 111.146076 
L 75.196134 110.269121 
L 75.140598 109.392166 
L 74.926785 108.515211 
L 73.832727 108.515211 
z
" clip-path="url(#pe945974db7)" style="fill: #008000"/>
   </g>
   <g id="PolyCollection_2">
    <path d="M 73.832727 71.6831 
L 73.832727 108.515211 
L 74.926785 108.515211 
L 75.140598 109.392166 
L 75.196134 110.269121 
L 75.19891 111.146076 
L 75.443268 111.146076 
L 75.473813 111.146076 
L 75.948645 111.146076 
L 76.359611 111.146076 
L 76.945515 112.023031 
L 77.498097 112.899986 
L 78.00625 112.899986 
L 78.034018 113.776941 
L 78.311698 113.776941 
L 78.783753 113.776941 
L 78.994789 114.653896 
L 79.030888 115.530851 
L 79.133629 116.407806 
L 79.372433 117.284761 
L 79.972221 118.161716 
L 80.15549 118.161716 
L 80.177704 118.161716 
L 80.38874 119.038671 
L 80.477598 119.038671 
L 80.563678 119.915626 
L 81.110707 120.792581 
L 81.135698 121.669536 
L 81.327297 122.546491 
L 81.380056 123.423446 
L 81.95763 124.300401 
L 82.152005 125.177356 
L 82.324166 125.177356 
L 82.410247 126.054311 
L 82.674043 126.931266 
L 82.91007 127.808221 
L 83.090562 128.685176 
L 83.132214 128.685176 
L 83.162759 129.562131 
L 83.226625 130.439087 
L 83.423777 131.316042 
L 83.526519 131.316042 
L 83.587608 132.192997 
L 83.75977 133.069952 
L 84.342896 133.069952 
L 84.839943 133.946907 
L 84.903809 134.823862 
L 85.212033 135.700817 
L 85.722964 136.577772 
L 85.889571 137.454727 
L 85.975652 138.331682 
L 86.233894 139.208637 
L 86.317198 140.085592 
L 86.356073 140.085592 
L 86.408832 140.085592 
L 86.447707 140.962547 
L 86.569886 141.839502 
L 87.064156 141.839502 
L 87.130799 142.716457 
L 87.72781 143.593412 
L 88.072132 144.470367 
L 88.910724 145.347322 
L 89.152305 146.224277 
L 89.738209 147.101232 
L 89.890933 147.978187 
L 90.190827 147.978187 
L 90.201934 148.855142 
L 90.776731 149.732097 
L 91.545903 149.732097 
L 91.582001 150.609052 
L 91.693073 151.486007 
L 91.915217 151.486007 
L 92.209557 151.486007 
L 92.612192 152.362962 
L 92.834336 153.239917 
L 92.837113 154.116872 
L 93.181435 154.993827 
L 93.556302 155.870782 
L 93.845089 156.747737 
L 94.047795 157.624692 
L 94.114438 158.501647 
L 94.633699 159.378602 
L 94.741994 159.378602 
L 95.047441 160.255557 
L 95.144629 161.132512 
L 95.269585 162.009467 
L 95.51672 162.886422 
L 95.67222 163.763377 
L 95.683327 164.640332 
L 95.788846 165.517287 
L 95.944346 166.394242 
L 96.069302 167.271197 
L 96.1054 168.148152 
L 96.483044 169.025107 
L 96.513589 169.902062 
L 96.641322 170.779017 
L 96.802376 171.655972 
L 96.810706 172.532927 
L 96.999528 173.409882 
L 97.152252 174.286837 
L 97.677066 175.163792 
L 98.379595 176.040747 
L 98.460122 176.917702 
L 98.593409 177.794657 
L 99.812422 178.671612 
L 100.167851 179.548567 
L 100.456638 180.425522 
L 100.673228 181.302478 
L 100.884265 182.179433 
L 100.995336 183.056388 
L 101.006444 183.933343 
L 101.159167 183.933343 
L 101.273016 183.933343 
L 101.753401 183.933343 
L 101.856143 184.810298 
L 102.464261 185.687253 
L 102.778039 186.564208 
L 102.836351 186.564208 
L 103.280639 187.441163 
L 103.283415 188.318118 
L 104.285838 189.195073 
L 105.024466 190.072028 
L 105.055011 190.948983 
L 105.141091 191.825938 
L 105.296592 192.702893 
L 105.496521 193.579848 
L 105.829736 194.456803 
L 105.89638 195.333758 
L 106.332336 196.210713 
L 106.582248 197.087668 
L 107.229241 197.964623 
L 107.579117 198.841578 
L 107.690189 199.718533 
L 108.467692 200.595488 
L 108.614862 201.472443 
L 108.742594 202.349398 
L 108.756478 203.226353 
L 108.911979 203.226353 
L 109.020274 204.103308 
L 109.106355 204.980263 
L 109.309061 205.857218 
L 110.117108 206.734173 
L 110.480868 207.611128 
L 110.919602 208.488083 
L 111.333344 209.365038 
L 111.383327 210.241993 
L 111.758194 211.118948 
L 111.905364 211.995903 
L 111.944239 212.872858 
L 112.03032 213.749813 
L 112.241356 214.626768 
L 112.260794 215.503723 
L 112.488491 216.380678 
L 114.004621 217.257633 
L 114.165675 218.134588 
L 114.798784 219.011543 
L 115.256956 219.888498 
L 115.320822 220.765453 
L 115.834529 221.642408 
L 116.564826 222.519363 
L 116.953577 223.396318 
L 117.111855 224.273273 
L 117.117408 225.150228 
L 117.139623 226.027183 
L 117.314561 226.904138 
L 117.706089 227.781093 
L 117.86992 228.658048 
L 118.416948 229.535003 
L 118.872343 230.411958 
L 119.24721 231.288913 
L 119.3083 232.165869 
L 119.577649 233.042824 
L 119.75814 233.919779 
L 119.846998 234.796734 
L 119.952516 235.673689 
L 120.319053 235.673689 
L 121.11877 236.550644 
L 122.254479 237.427599 
L 123.026428 238.304554 
L 123.201366 239.181509 
L 123.817815 240.058464 
L 123.878904 240.935419 
L 124.512014 241.812374 
L 124.670291 241.812374 
L 124.94797 242.689329 
L 125.036828 243.566284 
L 125.472785 243.566284 
L 125.79767 244.443239 
L 126.486315 245.320194 
L 126.714012 246.197149 
L 126.761217 247.074104 
L 127.224942 247.951059 
L 127.24438 248.828014 
L 127.288809 249.704969 
L 127.927471 250.581924 
L 127.960793 251.458879 
L 128.332883 252.335834 
L 128.435625 253.212789 
L 129.879558 254.089744 
L 130.543212 254.966699 
L 131.620609 255.843654 
L 131.63727 256.720609 
L 132.037128 257.597564 
L 132.21762 258.474519 
L 133.111748 259.351474 
L 134.300216 260.228429 
L 134.450163 261.105384 
L 134.89445 261.982339 
L 135.591426 262.859294 
L 136.013499 263.736249 
L 136.491107 264.613204 
L 136.649385 265.490159 
L 136.84376 266.367114 
L 136.885412 267.244069 
L 136.952055 267.244069 
L 137.018698 268.121024 
L 138.337676 268.997979 
L 138.443194 269.874934 
L 138.912473 270.751889 
L 138.973562 271.628844 
L 139.923226 272.505799 
L 140.284209 273.382754 
L 141.578196 274.259709 
L 142.408458 274.259709 
L 143.058228 275.136664 
L 143.355345 276.013619 
L 144.732635 276.890574 
L 144.971439 277.767529 
L 145.240788 278.644484 
L 145.671192 279.521439 
L 146.262649 280.398394 
L 146.590311 281.275349 
L 147.542752 282.152304 
L 148.311924 283.02926 
L 148.703452 283.906215 
L 150.627771 284.78317 
L 151.160915 285.660125 
L 152.921404 286.53708 
L 153.185199 287.414035 
L 153.243512 288.29099 
L 156.239674 289.167945 
L 156.95331 290.0449 
L 158.425011 290.921855 
L 159.619033 291.79881 
L 160.04666 291.79881 
L 160.824162 292.675765 
L 162.157024 293.55272 
L 164.372906 293.55272 
L 164.558952 293.55272 
L 167.524569 293.55272 
L 168.218767 294.429675 
L 168.801894 295.30663 
L 173.075382 296.183585 
L 173.511339 296.183585 
L 173.611303 297.06054 
L 178.30131 297.937495 
L 179.456457 298.81445 
L 180.283942 299.691405 
L 180.925382 299.691405 
L 181.366892 299.691405 
L 184.010401 299.691405 
L 185.998586 300.56836 
L 191.021808 301.445315 
L 193.818041 302.32227 
L 196.53097 302.32227 
L 197.122427 303.199225 
L 197.827733 303.199225 
L 202.873169 303.199225 
L 205.233445 303.199225 
L 205.297312 304.07618 
L 208.940467 304.07618 
L 211.403484 304.07618 
L 211.783905 304.07618 
L 220.591899 304.07618 
L 220.797381 304.07618 
L 225.545701 304.953135 
L 232.398831 304.953135 
L 232.826458 305.83009 
L 235.4061 305.83009 
L 237.219347 305.83009 
L 242.139828 305.83009 
L 242.903447 306.707045 
L 251.480967 306.707045 
L 252.06687 307.584 
L 272.640145 307.584 
L 287.568195 307.584 
L 299.033582 307.584 
L 317.129955 307.584 
L 329.93098 307.584 
L 398.487273 307.584 
L 398.487273 306.707045 
L 398.487273 306.707045 
L 329.93098 305.83009 
L 317.129955 304.953135 
L 299.033582 304.07618 
L 287.568195 303.199225 
L 272.640145 302.32227 
L 252.06687 301.445315 
L 251.480967 300.56836 
L 242.903447 299.691405 
L 242.139828 298.81445 
L 237.219347 297.937495 
L 235.4061 297.06054 
L 232.826458 296.183585 
L 232.398831 295.30663 
L 225.545701 294.429675 
L 220.797381 293.55272 
L 220.591899 292.675765 
L 211.783905 291.79881 
L 211.403484 290.921855 
L 208.940467 290.0449 
L 205.297312 289.167945 
L 205.233445 288.29099 
L 202.873169 287.414035 
L 197.827733 286.53708 
L 197.122427 285.660125 
L 196.53097 284.78317 
L 193.818041 283.906215 
L 191.021808 283.02926 
L 185.998586 282.152304 
L 184.010401 281.275349 
L 181.366892 280.398394 
L 180.925382 279.521439 
L 180.283942 278.644484 
L 179.456457 277.767529 
L 178.30131 276.890574 
L 173.611303 276.013619 
L 173.511339 275.136664 
L 173.075382 274.259709 
L 168.801894 273.382754 
L 168.218767 272.505799 
L 167.524569 271.628844 
L 164.558952 270.751889 
L 164.372906 269.874934 
L 162.157024 268.997979 
L 160.824162 268.121024 
L 160.04666 267.244069 
L 159.619033 266.367114 
L 158.425011 265.490159 
L 156.95331 264.613204 
L 156.239674 263.736249 
L 153.243512 262.859294 
L 153.185199 261.982339 
L 152.921404 261.105384 
L 151.160915 260.228429 
L 150.627771 259.351474 
L 148.703452 258.474519 
L 148.311924 257.597564 
L 147.542752 256.720609 
L 146.590311 255.843654 
L 146.262649 254.966699 
L 145.671192 254.089744 
L 145.240788 253.212789 
L 144.971439 252.335834 
L 144.732635 251.458879 
L 143.355345 250.581924 
L 143.058228 249.704969 
L 142.408458 248.828014 
L 141.578196 247.951059 
L 140.284209 247.074104 
L 139.923226 246.197149 
L 138.973562 245.320194 
L 138.912473 244.443239 
L 138.443194 243.566284 
L 138.337676 242.689329 
L 137.018698 241.812374 
L 136.952055 240.935419 
L 136.885412 240.058464 
L 136.84376 239.181509 
L 136.649385 238.304554 
L 136.491107 237.427599 
L 136.013499 236.550644 
L 135.591426 235.673689 
L 134.89445 234.796734 
L 134.450163 233.919779 
L 134.300216 233.042824 
L 133.111748 232.165869 
L 132.21762 231.288913 
L 132.037128 230.411958 
L 131.63727 229.535003 
L 131.620609 228.658048 
L 130.543212 227.781093 
L 129.879558 226.904138 
L 128.435625 226.027183 
L 128.332883 225.150228 
L 127.960793 224.273273 
L 127.927471 223.396318 
L 127.288809 222.519363 
L 127.24438 221.642408 
L 127.224942 220.765453 
L 126.761217 219.888498 
L 126.714012 219.011543 
L 126.486315 218.134588 
L 125.79767 217.257633 
L 125.472785 216.380678 
L 125.036828 215.503723 
L 124.94797 214.626768 
L 124.670291 213.749813 
L 124.512014 212.872858 
L 123.878904 211.995903 
L 123.817815 211.118948 
L 123.201366 210.241993 
L 123.026428 209.365038 
L 122.254479 208.488083 
L 121.11877 207.611128 
L 120.319053 206.734173 
L 119.952516 205.857218 
L 119.846998 204.980263 
L 119.75814 204.103308 
L 119.577649 203.226353 
L 119.3083 202.349398 
L 119.24721 201.472443 
L 118.872343 200.595488 
L 118.416948 199.718533 
L 117.86992 198.841578 
L 117.706089 197.964623 
L 117.314561 197.087668 
L 117.139623 196.210713 
L 117.117408 195.333758 
L 117.111855 194.456803 
L 116.953577 193.579848 
L 116.564826 192.702893 
L 115.834529 191.825938 
L 115.320822 190.948983 
L 115.256956 190.072028 
L 114.798784 189.195073 
L 114.165675 188.318118 
L 114.004621 187.441163 
L 112.488491 186.564208 
L 112.260794 185.687253 
L 112.241356 184.810298 
L 112.03032 183.933343 
L 111.944239 183.056388 
L 111.905364 182.179433 
L 111.758194 181.302478 
L 111.383327 180.425522 
L 111.333344 179.548567 
L 110.919602 178.671612 
L 110.480868 177.794657 
L 110.117108 176.917702 
L 109.309061 176.040747 
L 109.106355 175.163792 
L 109.020274 174.286837 
L 108.911979 173.409882 
L 108.756478 173.409882 
L 108.742594 172.532927 
L 108.614862 171.655972 
L 108.467692 170.779017 
L 107.690189 169.902062 
L 107.579117 169.025107 
L 107.229241 168.148152 
L 106.582248 167.271197 
L 106.332336 166.394242 
L 105.89638 165.517287 
L 105.829736 164.640332 
L 105.496521 163.763377 
L 105.296592 162.886422 
L 105.141091 162.009467 
L 105.055011 161.132512 
L 105.024466 160.255557 
L 104.285838 159.378602 
L 103.283415 158.501647 
L 103.280639 157.624692 
L 102.836351 156.747737 
L 102.778039 156.747737 
L 102.464261 155.870782 
L 101.856143 154.993827 
L 101.753401 154.116872 
L 101.273016 153.239917 
L 101.159167 152.362962 
L 101.006444 151.486007 
L 100.995336 150.609052 
L 100.884265 149.732097 
L 100.673228 148.855142 
L 100.456638 147.978187 
L 100.167851 147.101232 
L 99.812422 146.224277 
L 98.593409 145.347322 
L 98.460122 144.470367 
L 98.379595 143.593412 
L 97.677066 142.716457 
L 97.152252 141.839502 
L 96.999528 140.962547 
L 96.810706 140.085592 
L 96.802376 139.208637 
L 96.641322 138.331682 
L 96.513589 137.454727 
L 96.483044 136.577772 
L 96.1054 135.700817 
L 96.069302 134.823862 
L 95.944346 133.946907 
L 95.788846 133.069952 
L 95.683327 132.192997 
L 95.67222 131.316042 
L 95.51672 130.439087 
L 95.269585 129.562131 
L 95.144629 128.685176 
L 95.047441 127.808221 
L 94.741994 126.931266 
L 94.633699 126.931266 
L 94.114438 126.054311 
L 94.047795 125.177356 
L 93.845089 124.300401 
L 93.556302 123.423446 
L 93.181435 122.546491 
L 92.837113 121.669536 
L 92.834336 120.792581 
L 92.612192 119.915626 
L 92.209557 119.038671 
L 91.915217 118.161716 
L 91.693073 117.284761 
L 91.582001 116.407806 
L 91.545903 115.530851 
L 90.776731 114.653896 
L 90.201934 113.776941 
L 90.190827 112.899986 
L 89.890933 112.023031 
L 89.738209 111.146076 
L 89.152305 110.269121 
L 88.910724 109.392166 
L 88.072132 108.515211 
L 87.72781 107.638256 
L 87.130799 106.761301 
L 87.064156 105.884346 
L 86.569886 105.884346 
L 86.447707 105.007391 
L 86.408832 104.130436 
L 86.356073 104.130436 
L 86.317198 104.130436 
L 86.233894 103.253481 
L 85.975652 102.376526 
L 85.889571 101.499571 
L 85.722964 100.622616 
L 85.212033 99.745661 
L 84.903809 98.868706 
L 84.839943 97.991751 
L 84.342896 97.114796 
L 83.75977 97.114796 
L 83.587608 96.237841 
L 83.526519 95.360886 
L 83.423777 95.360886 
L 83.226625 94.483931 
L 83.162759 93.606976 
L 83.132214 92.730021 
L 83.090562 91.853066 
L 82.91007 90.976111 
L 82.674043 90.099156 
L 82.410247 89.222201 
L 82.324166 88.345246 
L 82.152005 88.345246 
L 81.95763 87.468291 
L 81.380056 86.591336 
L 81.327297 85.714381 
L 81.135698 84.837426 
L 81.110707 83.960471 
L 80.563678 83.083516 
L 80.477598 82.206561 
L 80.38874 82.206561 
L 80.177704 81.329606 
L 80.15549 81.329606 
L 79.972221 81.329606 
L 79.372433 80.452651 
L 79.133629 79.575696 
L 79.030888 78.69874 
L 78.994789 77.821785 
L 78.783753 76.94483 
L 78.311698 76.94483 
L 78.034018 76.94483 
L 78.00625 76.067875 
L 77.498097 76.067875 
L 76.945515 75.19092 
L 76.359611 74.313965 
L 75.948645 74.313965 
L 75.473813 74.313965 
L 75.443268 74.313965 
L 75.19891 74.313965 
L 75.196134 73.43701 
L 75.140598 72.560055 
L 74.926785 71.6831 
L 73.832727 71.6831 
z
" clip-path="url(#pe945974db7)" style="fill: #7cfc00"/>
   </g>
   <g id="PolyCollection_3">
    <path d="M 73.832727 54.144 
L 73.832727 71.6831 
L 74.926785 71.6831 
L 75.140598 72.560055 
L 75.196134 73.43701 
L 75.19891 74.313965 
L 75.443268 74.313965 
L 75.473813 74.313965 
L 75.948645 74.313965 
L 76.359611 74.313965 
L 76.945515 75.19092 
L 77.498097 76.067875 
L 78.00625 76.067875 
L 78.034018 76.94483 
L 78.311698 76.94483 
L 78.783753 76.94483 
L 78.994789 77.821785 
L 79.030888 78.69874 
L 79.133629 79.575696 
L 79.372433 80.452651 
L 79.972221 81.329606 
L 80.15549 81.329606 
L 80.177704 81.329606 
L 80.38874 82.206561 
L 80.477598 82.206561 
L 80.563678 83.083516 
L 81.110707 83.960471 
L 81.135698 84.837426 
L 81.327297 85.714381 
L 81.380056 86.591336 
L 81.95763 87.468291 
L 82.152005 88.345246 
L 82.324166 88.345246 
L 82.410247 89.222201 
L 82.674043 90.099156 
L 82.91007 90.976111 
L 83.090562 91.853066 
L 83.132214 92.730021 
L 83.162759 93.606976 
L 83.226625 94.483931 
L 83.423777 95.360886 
L 83.526519 95.360886 
L 83.587608 96.237841 
L 83.75977 97.114796 
L 84.342896 97.114796 
L 84.839943 97.991751 
L 84.903809 98.868706 
L 85.212033 99.745661 
L 85.722964 100.622616 
L 85.889571 101.499571 
L 85.975652 102.376526 
L 86.233894 103.253481 
L 86.317198 104.130436 
L 86.356073 104.130436 
L 86.408832 104.130436 
L 86.447707 105.007391 
L 86.569886 105.884346 
L 87.064156 105.884346 
L 87.130799 106.761301 
L 87.72781 107.638256 
L 88.072132 108.515211 
L 88.910724 109.392166 
L 89.152305 110.269121 
L 89.738209 111.146076 
L 89.890933 112.023031 
L 90.190827 112.899986 
L 90.201934 113.776941 
L 90.776731 114.653896 
L 91.545903 115.530851 
L 91.582001 116.407806 
L 91.693073 117.284761 
L 91.915217 118.161716 
L 92.209557 119.038671 
L 92.612192 119.915626 
L 92.834336 120.792581 
L 92.837113 121.669536 
L 93.181435 122.546491 
L 93.556302 123.423446 
L 93.845089 124.300401 
L 94.047795 125.177356 
L 94.114438 126.054311 
L 94.633699 126.931266 
L 94.741994 126.931266 
L 95.047441 127.808221 
L 95.144629 128.685176 
L 95.269585 129.562131 
L 95.51672 130.439087 
L 95.67222 131.316042 
L 95.683327 132.192997 
L 95.788846 133.069952 
L 95.944346 133.946907 
L 96.069302 134.823862 
L 96.1054 135.700817 
L 96.483044 136.577772 
L 96.513589 137.454727 
L 96.641322 138.331682 
L 96.802376 139.208637 
L 96.810706 140.085592 
L 96.999528 140.962547 
L 97.152252 141.839502 
L 97.677066 142.716457 
L 98.379595 143.593412 
L 98.460122 144.470367 
L 98.593409 145.347322 
L 99.812422 146.224277 
L 100.167851 147.101232 
L 100.456638 147.978187 
L 100.673228 148.855142 
L 100.884265 149.732097 
L 100.995336 150.609052 
L 101.006444 151.486007 
L 101.159167 152.362962 
L 101.273016 153.239917 
L 101.753401 154.116872 
L 101.856143 154.993827 
L 102.464261 155.870782 
L 102.778039 156.747737 
L 102.836351 156.747737 
L 103.280639 157.624692 
L 103.283415 158.501647 
L 104.285838 159.378602 
L 105.024466 160.255557 
L 105.055011 161.132512 
L 105.141091 162.009467 
L 105.296592 162.886422 
L 105.496521 163.763377 
L 105.829736 164.640332 
L 105.89638 165.517287 
L 106.332336 166.394242 
L 106.582248 167.271197 
L 107.229241 168.148152 
L 107.579117 169.025107 
L 107.690189 169.902062 
L 108.467692 170.779017 
L 108.614862 171.655972 
L 108.742594 172.532927 
L 108.756478 173.409882 
L 108.911979 173.409882 
L 109.020274 174.286837 
L 109.106355 175.163792 
L 109.309061 176.040747 
L 110.117108 176.917702 
L 110.480868 177.794657 
L 110.919602 178.671612 
L 111.333344 179.548567 
L 111.383327 180.425522 
L 111.758194 181.302478 
L 111.905364 182.179433 
L 111.944239 183.056388 
L 112.03032 183.933343 
L 112.241356 184.810298 
L 112.260794 185.687253 
L 112.488491 186.564208 
L 114.004621 187.441163 
L 114.165675 188.318118 
L 114.798784 189.195073 
L 115.256956 190.072028 
L 115.320822 190.948983 
L 115.834529 191.825938 
L 116.564826 192.702893 
L 116.953577 193.579848 
L 117.111855 194.456803 
L 117.117408 195.333758 
L 117.139623 196.210713 
L 117.314561 197.087668 
L 117.706089 197.964623 
L 117.86992 198.841578 
L 118.416948 199.718533 
L 118.872343 200.595488 
L 119.24721 201.472443 
L 119.3083 202.349398 
L 119.577649 203.226353 
L 119.75814 204.103308 
L 119.846998 204.980263 
L 119.952516 205.857218 
L 120.319053 206.734173 
L 121.11877 207.611128 
L 122.254479 208.488083 
L 123.026428 209.365038 
L 123.201366 210.241993 
L 123.817815 211.118948 
L 123.878904 211.995903 
L 124.512014 212.872858 
L 124.670291 213.749813 
L 124.94797 214.626768 
L 125.036828 215.503723 
L 125.472785 216.380678 
L 125.79767 217.257633 
L 126.486315 218.134588 
L 126.714012 219.011543 
L 126.761217 219.888498 
L 127.224942 220.765453 
L 127.24438 221.642408 
L 127.288809 222.519363 
L 127.927471 223.396318 
L 127.960793 224.273273 
L 128.332883 225.150228 
L 128.435625 226.027183 
L 129.879558 226.904138 
L 130.543212 227.781093 
L 131.620609 228.658048 
L 131.63727 229.535003 
L 132.037128 230.411958 
L 132.21762 231.288913 
L 133.111748 232.165869 
L 134.300216 233.042824 
L 134.450163 233.919779 
L 134.89445 234.796734 
L 135.591426 235.673689 
L 136.013499 236.550644 
L 136.491107 237.427599 
L 136.649385 238.304554 
L 136.84376 239.181509 
L 136.885412 240.058464 
L 136.952055 240.935419 
L 137.018698 241.812374 
L 138.337676 242.689329 
L 138.443194 243.566284 
L 138.912473 244.443239 
L 138.973562 245.320194 
L 139.923226 246.197149 
L 140.284209 247.074104 
L 141.578196 247.951059 
L 142.408458 248.828014 
L 143.058228 249.704969 
L 143.355345 250.581924 
L 144.732635 251.458879 
L 144.971439 252.335834 
L 145.240788 253.212789 
L 145.671192 254.089744 
L 146.262649 254.966699 
L 146.590311 255.843654 
L 147.542752 256.720609 
L 148.311924 257.597564 
L 148.703452 258.474519 
L 150.627771 259.351474 
L 151.160915 260.228429 
L 152.921404 261.105384 
L 153.185199 261.982339 
L 153.243512 262.859294 
L 156.239674 263.736249 
L 156.95331 264.613204 
L 158.425011 265.490159 
L 159.619033 266.367114 
L 160.04666 267.244069 
L 160.824162 268.121024 
L 162.157024 268.997979 
L 164.372906 269.874934 
L 164.558952 270.751889 
L 167.524569 271.628844 
L 168.218767 272.505799 
L 168.801894 273.382754 
L 173.075382 274.259709 
L 173.511339 275.136664 
L 173.611303 276.013619 
L 178.30131 276.890574 
L 179.456457 277.767529 
L 180.283942 278.644484 
L 180.925382 279.521439 
L 181.366892 280.398394 
L 184.010401 281.275349 
L 185.998586 282.152304 
L 191.021808 283.02926 
L 193.818041 283.906215 
L 196.53097 284.78317 
L 197.122427 285.660125 
L 197.827733 286.53708 
L 202.873169 287.414035 
L 205.233445 288.29099 
L 205.297312 289.167945 
L 208.940467 290.0449 
L 211.403484 290.921855 
L 211.783905 291.79881 
L 220.591899 292.675765 
L 220.797381 293.55272 
L 225.545701 294.429675 
L 232.398831 295.30663 
L 232.826458 296.183585 
L 235.4061 297.06054 
L 237.219347 297.937495 
L 242.139828 298.81445 
L 242.903447 299.691405 
L 251.480967 300.56836 
L 252.06687 301.445315 
L 272.640145 302.32227 
L 287.568195 303.199225 
L 299.033582 304.07618 
L 317.129955 304.953135 
L 329.93098 305.83009 
L 398.487273 306.707045 
L 398.487273 306.707045 
L 398.487273 306.707045 
L 329.93098 305.83009 
L 317.129955 304.953135 
L 299.033582 304.07618 
L 287.568195 303.199225 
L 272.640145 302.32227 
L 252.06687 301.445315 
L 251.480967 300.56836 
L 242.903447 299.691405 
L 242.139828 298.81445 
L 237.219347 297.937495 
L 235.4061 297.06054 
L 232.826458 296.183585 
L 232.398831 295.30663 
L 225.545701 294.429675 
L 220.797381 293.55272 
L 220.591899 292.675765 
L 211.783905 291.79881 
L 211.403484 290.921855 
L 208.940467 290.0449 
L 205.297312 289.167945 
L 205.233445 288.29099 
L 202.873169 287.414035 
L 197.827733 286.53708 
L 197.122427 285.660125 
L 196.53097 284.78317 
L 193.818041 283.906215 
L 191.021808 283.02926 
L 185.998586 282.152304 
L 184.010401 281.275349 
L 181.366892 280.398394 
L 180.925382 279.521439 
L 180.283942 278.644484 
L 179.456457 277.767529 
L 178.30131 276.890574 
L 173.611303 276.013619 
L 173.511339 275.136664 
L 173.075382 274.259709 
L 168.801894 273.382754 
L 168.218767 272.505799 
L 167.524569 271.628844 
L 164.558952 270.751889 
L 164.372906 269.874934 
L 162.157024 268.997979 
L 160.824162 268.121024 
L 160.04666 267.244069 
L 159.619033 266.367114 
L 158.425011 265.490159 
L 156.95331 264.613204 
L 156.239674 263.736249 
L 153.243512 262.859294 
L 153.185199 261.982339 
L 152.921404 261.105384 
L 151.160915 260.228429 
L 150.627771 259.351474 
L 148.703452 258.474519 
L 148.311924 257.597564 
L 147.542752 256.720609 
L 146.590311 255.843654 
L 146.262649 254.966699 
L 145.671192 254.089744 
L 145.240788 253.212789 
L 144.971439 252.335834 
L 144.732635 251.458879 
L 143.355345 250.581924 
L 143.058228 249.704969 
L 142.408458 248.828014 
L 141.578196 247.951059 
L 140.284209 247.074104 
L 139.923226 246.197149 
L 138.973562 245.320194 
L 138.912473 244.443239 
L 138.443194 243.566284 
L 138.337676 242.689329 
L 137.018698 241.812374 
L 136.952055 240.935419 
L 136.885412 240.058464 
L 136.84376 239.181509 
L 136.649385 238.304554 
L 136.491107 237.427599 
L 136.013499 236.550644 
L 135.591426 235.673689 
L 134.89445 234.796734 
L 134.450163 233.919779 
L 134.300216 233.042824 
L 133.111748 232.165869 
L 132.21762 231.288913 
L 132.037128 230.411958 
L 131.63727 229.535003 
L 131.620609 228.658048 
L 130.543212 227.781093 
L 129.879558 226.904138 
L 128.435625 226.027183 
L 128.332883 225.150228 
L 127.960793 224.273273 
L 127.927471 223.396318 
L 127.288809 222.519363 
L 127.24438 221.642408 
L 127.224942 220.765453 
L 126.761217 219.888498 
L 126.714012 219.011543 
L 126.486315 218.134588 
L 125.79767 217.257633 
L 125.472785 216.380678 
L 125.036828 215.503723 
L 124.94797 214.626768 
L 124.670291 213.749813 
L 124.512014 212.872858 
L 123.878904 211.995903 
L 123.817815 211.118948 
L 123.201366 210.241993 
L 123.026428 209.365038 
L 122.254479 208.488083 
L 121.11877 207.611128 
L 120.319053 206.734173 
L 119.952516 205.857218 
L 119.846998 204.980263 
L 119.75814 204.103308 
L 119.577649 203.226353 
L 119.3083 202.349398 
L 119.24721 201.472443 
L 118.872343 200.595488 
L 118.416948 199.718533 
L 117.86992 198.841578 
L 117.706089 197.964623 
L 117.314561 197.087668 
L 117.139623 196.210713 
L 117.117408 195.333758 
L 117.111855 194.456803 
L 116.953577 193.579848 
L 116.564826 192.702893 
L 115.834529 191.825938 
L 115.320822 190.948983 
L 115.256956 190.072028 
L 114.798784 189.195073 
L 114.165675 188.318118 
L 114.004621 187.441163 
L 112.488491 186.564208 
L 112.260794 185.687253 
L 112.241356 184.810298 
L 112.03032 183.933343 
L 111.944239 183.056388 
L 111.905364 182.179433 
L 111.758194 181.302478 
L 111.383327 180.425522 
L 111.333344 179.548567 
L 110.919602 178.671612 
L 110.480868 177.794657 
L 110.117108 176.917702 
L 109.309061 176.040747 
L 109.106355 175.163792 
L 109.020274 174.286837 
L 108.911979 173.409882 
L 108.756478 172.532927 
L 108.742594 171.655972 
L 108.614862 170.779017 
L 108.467692 169.902062 
L 107.690189 169.025107 
L 107.579117 168.148152 
L 107.229241 167.271197 
L 106.582248 166.394242 
L 106.332336 165.517287 
L 105.89638 164.640332 
L 105.829736 163.763377 
L 105.496521 162.886422 
L 105.296592 162.009467 
L 105.141091 161.132512 
L 105.055011 160.255557 
L 105.024466 159.378602 
L 104.285838 158.501647 
L 103.283415 157.624692 
L 103.280639 156.747737 
L 102.836351 155.870782 
L 102.778039 154.993827 
L 102.464261 154.116872 
L 101.856143 153.239917 
L 101.753401 152.362962 
L 101.273016 151.486007 
L 101.159167 150.609052 
L 101.006444 149.732097 
L 100.995336 148.855142 
L 100.884265 147.978187 
L 100.673228 147.101232 
L 100.456638 146.224277 
L 100.167851 145.347322 
L 99.812422 144.470367 
L 98.593409 143.593412 
L 98.460122 142.716457 
L 98.379595 141.839502 
L 97.677066 140.962547 
L 97.152252 140.085592 
L 96.999528 139.208637 
L 96.810706 138.331682 
L 96.802376 137.454727 
L 96.641322 136.577772 
L 96.513589 135.700817 
L 96.483044 134.823862 
L 96.1054 133.946907 
L 96.069302 133.069952 
L 95.944346 132.192997 
L 95.788846 131.316042 
L 95.683327 130.439087 
L 95.67222 129.562131 
L 95.51672 128.685176 
L 95.269585 127.808221 
L 95.144629 126.931266 
L 95.047441 126.054311 
L 94.741994 125.177356 
L 94.633699 124.300401 
L 94.114438 123.423446 
L 94.047795 122.546491 
L 93.845089 121.669536 
L 93.556302 120.792581 
L 93.181435 119.915626 
L 92.837113 119.038671 
L 92.834336 118.161716 
L 92.612192 117.284761 
L 92.209557 116.407806 
L 91.915217 115.530851 
L 91.693073 114.653896 
L 91.582001 113.776941 
L 91.545903 112.899986 
L 90.776731 112.023031 
L 90.201934 111.146076 
L 90.190827 110.269121 
L 89.890933 109.392166 
L 89.738209 108.515211 
L 89.152305 107.638256 
L 88.910724 106.761301 
L 88.072132 105.884346 
L 87.72781 105.007391 
L 87.130799 104.130436 
L 87.064156 103.253481 
L 86.569886 102.376526 
L 86.447707 101.499571 
L 86.408832 100.622616 
L 86.356073 99.745661 
L 86.317198 98.868706 
L 86.233894 97.991751 
L 85.975652 97.114796 
L 85.889571 96.237841 
L 85.722964 95.360886 
L 85.212033 94.483931 
L 84.903809 93.606976 
L 84.839943 92.730021 
L 84.342896 91.853066 
L 83.75977 90.976111 
L 83.587608 90.099156 
L 83.526519 89.222201 
L 83.423777 88.345246 
L 83.226625 87.468291 
L 83.162759 86.591336 
L 83.132214 85.714381 
L 83.090562 84.837426 
L 82.91007 83.960471 
L 82.674043 83.083516 
L 82.410247 82.206561 
L 82.324166 81.329606 
L 82.152005 80.452651 
L 81.95763 79.575696 
L 81.380056 78.69874 
L 81.327297 77.821785 
L 81.135698 76.94483 
L 81.110707 76.067875 
L 80.563678 75.19092 
L 80.477598 74.313965 
L 80.38874 73.43701 
L 80.177704 72.560055 
L 80.15549 71.6831 
L 79.972221 70.806145 
L 79.372433 69.92919 
L 79.133629 69.052235 
L 79.030888 68.17528 
L 78.994789 67.298325 
L 78.783753 66.42137 
L 78.311698 65.544415 
L 78.034018 64.66746 
L 78.00625 63.790505 
L 77.498097 62.91355 
L 76.945515 62.036595 
L 76.359611 61.15964 
L 75.948645 60.282685 
L 75.473813 59.40573 
L 75.443268 58.528775 
L 75.19891 57.65182 
L 75.196134 56.774865 
L 75.140598 55.89791 
L 74.926785 55.020955 
L 73.832727 54.144 
z
" clip-path="url(#pe945974db7)" style="fill: #ff0000"/>
   </g>
   <g id="matplotlib.axis_1">
    <g id="xtick_1">
     <g id="line2d_1">
      <defs>
       <path id="m33deab4ade" d="M 0 0 
L 0 3.5 
" style="stroke: #000000; stroke-width: 0.8"/>
      </defs>
      <g>
       <use xlink:href="#m33deab4ade" x="110.36702" y="307.584" style="stroke: #000000; stroke-width: 0.8"/>
      </g>
     </g>
     <g id="text_1">
      <!-- 200 -->
      <g transform="translate(100.82327 322.182437)scale(0.1 -0.1)">
       <defs>
        <path id="DejaVuSans-32" d="M 1228 531 
L 3431 531 
L 3431 0 
L 469 0 
L 469 531 
Q 828 903 1448 1529 
Q 2069 2156 2228 2338 
Q 2531 2678 2651 2914 
Q 2772 3150 2772 3378 
Q 2772 3750 2511 3984 
Q 2250 4219 1831 4219 
Q 1534 4219 1204 4116 
Q 875 4013 500 3803 
L 500 4441 
Q 881 4594 1212 4672 
Q 1544 4750 1819 4750 
Q 2544 4750 2975 4387 
Q 3406 4025 3406 3419 
Q 3406 3131 3298 2873 
Q 3191 2616 2906 2266 
Q 2828 2175 2409 1742 
Q 1991 1309 1228 531 
z
" transform="scale(0.015625)"/>
        <path id="DejaVuSans-30" d="M 2034 4250 
Q 1547 4250 1301 3770 
Q 1056 3291 1056 2328 
Q 1056 1369 1301 889 
Q 1547 409 2034 409 
Q 2525 409 2770 889 
Q 3016 1369 3016 2328 
Q 3016 3291 2770 3770 
Q 2525 4250 2034 4250 
z
M 2034 4750 
Q 2819 4750 3233 4129 
Q 3647 3509 3647 2328 
Q 3647 1150 3233 529 
Q 2819 -91 2034 -91 
Q 1250 -91 836 529 
Q 422 1150 422 2328 
Q 422 3509 836 4129 
Q 1250 4750 2034 4750 
z
" transform="scale(0.015625)"/>
       </defs>
       <use xlink:href="#DejaVuSans-32"/>
       <use xlink:href="#DejaVuSans-30" x="63.623047"/>
       <use xlink:href="#DejaVuSans-30" x="127.246094"/>
      </g>
     </g>
    </g>
    <g id="xtick_2">
     <g id="line2d_2">
      <g>
       <use xlink:href="#m33deab4ade" x="165.90292" y="307.584" style="stroke: #000000; stroke-width: 0.8"/>
      </g>
     </g>
     <g id="text_2">
      <!-- 400 -->
      <g transform="translate(156.35917 322.182437)scale(0.1 -0.1)">
       <defs>
        <path id="DejaVuSans-34" d="M 2419 4116 
L 825 1625 
L 2419 1625 
L 2419 4116 
z
M 2253 4666 
L 3047 4666 
L 3047 1625 
L 3713 1625 
L 3713 1100 
L 3047 1100 
L 3047 0 
L 2419 0 
L 2419 1100 
L 313 1100 
L 313 1709 
L 2253 4666 
z
" transform="scale(0.015625)"/>
       </defs>
       <use xlink:href="#DejaVuSans-34"/>
       <use xlink:href="#DejaVuSans-30" x="63.623047"/>
       <use xlink:href="#DejaVuSans-30" x="127.246094"/>
      </g>
     </g>
    </g>
    <g id="xtick_3">
     <g id="line2d_3">
      <g>
       <use xlink:href="#m33deab4ade" x="221.438821" y="307.584" style="stroke: #000000; stroke-width: 0.8"/>
      </g>
     </g>
     <g id="text_3">
      <!-- 600 -->
      <g transform="translate(211.895071 322.182437)scale(0.1 -0.1)">
       <defs>
        <path id="DejaVuSans-36" d="M 2113 2584 
Q 1688 2584 1439 2293 
Q 1191 2003 1191 1497 
Q 1191 994 1439 701 
Q 1688 409 2113 409 
Q 2538 409 2786 701 
Q 3034 994 3034 1497 
Q 3034 2003 2786 2293 
Q 2538 2584 2113 2584 
z
M 3366 4563 
L 3366 3988 
Q 3128 4100 2886 4159 
Q 2644 4219 2406 4219 
Q 1781 4219 1451 3797 
Q 1122 3375 1075 2522 
Q 1259 2794 1537 2939 
Q 1816 3084 2150 3084 
Q 2853 3084 3261 2657 
Q 3669 2231 3669 1497 
Q 3669 778 3244 343 
Q 2819 -91 2113 -91 
Q 1303 -91 875 529 
Q 447 1150 447 2328 
Q 447 3434 972 4092 
Q 1497 4750 2381 4750 
Q 2619 4750 2861 4703 
Q 3103 4656 3366 4563 
z
" transform="scale(0.015625)"/>
       </defs>
       <use xlink:href="#DejaVuSans-36"/>
       <use xlink:href="#DejaVuSans-30" x="63.623047"/>
       <use xlink:href="#DejaVuSans-30" x="127.246094"/>
      </g>
     </g>
    </g>
    <g id="xtick_4">
     <g id="line2d_4">
      <g>
       <use xlink:href="#m33deab4ade" x="276.974722" y="307.584" style="stroke: #000000; stroke-width: 0.8"/>
      </g>
     </g>
     <g id="text_4">
      <!-- 800 -->
      <g transform="translate(267.430972 322.182437)scale(0.1 -0.1)">
       <defs>
        <path id="DejaVuSans-38" d="M 2034 2216 
Q 1584 2216 1326 1975 
Q 1069 1734 1069 1313 
Q 1069 891 1326 650 
Q 1584 409 2034 409 
Q 2484 409 2743 651 
Q 3003 894 3003 1313 
Q 3003 1734 2745 1975 
Q 2488 2216 2034 2216 
z
M 1403 2484 
Q 997 2584 770 2862 
Q 544 3141 544 3541 
Q 544 4100 942 4425 
Q 1341 4750 2034 4750 
Q 2731 4750 3128 4425 
Q 3525 4100 3525 3541 
Q 3525 3141 3298 2862 
Q 3072 2584 2669 2484 
Q 3125 2378 3379 2068 
Q 3634 1759 3634 1313 
Q 3634 634 3220 271 
Q 2806 -91 2034 -91 
Q 1263 -91 848 271 
Q 434 634 434 1313 
Q 434 1759 690 2068 
Q 947 2378 1403 2484 
z
M 1172 3481 
Q 1172 3119 1398 2916 
Q 1625 2713 2034 2713 
Q 2441 2713 2670 2916 
Q 2900 3119 2900 3481 
Q 2900 3844 2670 4047 
Q 2441 4250 2034 4250 
Q 1625 4250 1398 4047 
Q 1172 3844 1172 3481 
z
" transform="scale(0.015625)"/>
       </defs>
       <use xlink:href="#DejaVuSans-38"/>
       <use xlink:href="#DejaVuSans-30" x="63.623047"/>
       <use xlink:href="#DejaVuSans-30" x="127.246094"/>
      </g>
     </g>
    </g>
    <g id="xtick_5">
     <g id="line2d_5">
      <g>
       <use xlink:href="#m33deab4ade" x="332.510623" y="307.584" style="stroke: #000000; stroke-width: 0.8"/>
      </g>
     </g>
     <g id="text_5">
      <!-- 1000 -->
      <g transform="translate(319.785623 322.182437)scale(0.1 -0.1)">
       <defs>
        <path id="DejaVuSans-31" d="M 794 531 
L 1825 531 
L 1825 4091 
L 703 3866 
L 703 4441 
L 1819 4666 
L 2450 4666 
L 2450 531 
L 3481 531 
L 3481 0 
L 794 0 
L 794 531 
z
" transform="scale(0.015625)"/>
       </defs>
       <use xlink:href="#DejaVuSans-31"/>
       <use xlink:href="#DejaVuSans-30" x="63.623047"/>
       <use xlink:href="#DejaVuSans-30" x="127.246094"/>
       <use xlink:href="#DejaVuSans-30" x="190.869141"/>
      </g>
     </g>
    </g>
    <g id="xtick_6">
     <g id="line2d_6">
      <g>
       <use xlink:href="#m33deab4ade" x="388.046523" y="307.584" style="stroke: #000000; stroke-width: 0.8"/>
      </g>
     </g>
     <g id="text_6">
      <!-- 1200 -->
      <g transform="translate(375.321523 322.182437)scale(0.1 -0.1)">
       <use xlink:href="#DejaVuSans-31"/>
       <use xlink:href="#DejaVuSans-32" x="63.623047"/>
       <use xlink:href="#DejaVuSans-30" x="127.246094"/>
       <use xlink:href="#DejaVuSans-30" x="190.869141"/>
      </g>
     </g>
    </g>
    <g id="text_7">
     <!-- Score -->
     <g transform="translate(222.157656 335.860562)scale(0.1 -0.1)">
      <defs>
       <path id="DejaVuSans-53" d="M 3425 4513 
L 3425 3897 
Q 3066 4069 2747 4153 
Q 2428 4238 2131 4238 
Q 1616 4238 1336 4038 
Q 1056 3838 1056 3469 
Q 1056 3159 1242 3001 
Q 1428 2844 1947 2747 
L 2328 2669 
Q 3034 2534 3370 2195 
Q 3706 1856 3706 1288 
Q 3706 609 3251 259 
Q 2797 -91 1919 -91 
Q 1588 -91 1214 -16 
Q 841 59 441 206 
L 441 856 
Q 825 641 1194 531 
Q 1563 422 1919 422 
Q 2459 422 2753 634 
Q 3047 847 3047 1241 
Q 3047 1584 2836 1778 
Q 2625 1972 2144 2069 
L 1759 2144 
Q 1053 2284 737 2584 
Q 422 2884 422 3419 
Q 422 4038 858 4394 
Q 1294 4750 2059 4750 
Q 2388 4750 2728 4690 
Q 3069 4631 3425 4513 
z
" transform="scale(0.015625)"/>
       <path id="DejaVuSans-63" d="M 3122 3366 
L 3122 2828 
Q 2878 2963 2633 3030 
Q 2388 3097 2138 3097 
Q 1578 3097 1268 2742 
Q 959 2388 959 1747 
Q 959 1106 1268 751 
Q 1578 397 2138 397 
Q 2388 397 2633 464 
Q 2878 531 3122 666 
L 3122 134 
Q 2881 22 2623 -34 
Q 2366 -91 2075 -91 
Q 1284 -91 818 406 
Q 353 903 353 1747 
Q 353 2603 823 3093 
Q 1294 3584 2113 3584 
Q 2378 3584 2631 3529 
Q 2884 3475 3122 3366 
z
" transform="scale(0.015625)"/>
       <path id="DejaVuSans-6f" d="M 1959 3097 
Q 1497 3097 1228 2736 
Q 959 2375 959 1747 
Q 959 1119 1226 758 
Q 1494 397 1959 397 
Q 2419 397 2687 759 
Q 2956 1122 2956 1747 
Q 2956 2369 2687 2733 
Q 2419 3097 1959 3097 
z
M 1959 3584 
Q 2709 3584 3137 3096 
Q 3566 2609 3566 1747 
Q 3566 888 3137 398 
Q 2709 -91 1959 -91 
Q 1206 -91 779 398 
Q 353 888 353 1747 
Q 353 2609 779 3096 
Q 1206 3584 1959 3584 
z
" transform="scale(0.015625)"/>
       <path id="DejaVuSans-72" d="M 2631 2963 
Q 2534 3019 2420 3045 
Q 2306 3072 2169 3072 
Q 1681 3072 1420 2755 
Q 1159 2438 1159 1844 
L 1159 0 
L 581 0 
L 581 3500 
L 1159 3500 
L 1159 2956 
Q 1341 3275 1631 3429 
Q 1922 3584 2338 3584 
Q 2397 3584 2469 3576 
Q 2541 3569 2628 3553 
L 2631 2963 
z
" transform="scale(0.015625)"/>
       <path id="DejaVuSans-65" d="M 3597 1894 
L 3597 1613 
L 953 1613 
Q 991 1019 1311 708 
Q 1631 397 2203 397 
Q 2534 397 2845 478 
Q 3156 559 3463 722 
L 3463 178 
Q 3153 47 2828 -22 
Q 2503 -91 2169 -91 
Q 1331 -91 842 396 
Q 353 884 353 1716 
Q 353 2575 817 3079 
Q 1281 3584 2069 3584 
Q 2775 3584 3186 3129 
Q 3597 2675 3597 1894 
z
M 3022 2063 
Q 3016 2534 2758 2815 
Q 2500 3097 2075 3097 
Q 1594 3097 1305 2825 
Q 1016 2553 972 2059 
L 3022 2063 
z
" transform="scale(0.015625)"/>
      </defs>
      <use xlink:href="#DejaVuSans-53"/>
      <use xlink:href="#DejaVuSans-63" x="63.476562"/>
      <use xlink:href="#DejaVuSans-6f" x="118.457031"/>
      <use xlink:href="#DejaVuSans-72" x="179.638672"/>
      <use xlink:href="#DejaVuSans-65" x="218.501953"/>
     </g>
    </g>
   </g>
   <g id="matplotlib.axis_2">
    <g id="ytick_1">
     <g id="line2d_7">
      <defs>
       <path id="mf77d7ba99c" d="M 0 0 
L -3.5 0 
" style="stroke: #000000; stroke-width: 0.8"/>
      </defs>
      <g>
       <use xlink:href="#mf77d7ba99c" x="57.6" y="307.584" style="stroke: #000000; stroke-width: 0.8"/>
      </g>
     </g>
     <g id="text_8">
      <!-- 0 -->
      <g transform="translate(44.2375 311.383219)scale(0.1 -0.1)">
       <use xlink:href="#DejaVuSans-30"/>
      </g>
     </g>
    </g>
    <g id="ytick_2">
     <g id="line2d_8">
      <g>
       <use xlink:href="#mf77d7ba99c" x="57.6" y="263.736249" style="stroke: #000000; stroke-width: 0.8"/>
      </g>
     </g>
     <g id="text_9">
      <!-- 50 -->
      <g transform="translate(37.875 267.535468)scale(0.1 -0.1)">
       <defs>
        <path id="DejaVuSans-35" d="M 691 4666 
L 3169 4666 
L 3169 4134 
L 1269 4134 
L 1269 2991 
Q 1406 3038 1543 3061 
Q 1681 3084 1819 3084 
Q 2600 3084 3056 2656 
Q 3513 2228 3513 1497 
Q 3513 744 3044 326 
Q 2575 -91 1722 -91 
Q 1428 -91 1123 -41 
Q 819 9 494 109 
L 494 744 
Q 775 591 1075 516 
Q 1375 441 1709 441 
Q 2250 441 2565 725 
Q 2881 1009 2881 1497 
Q 2881 1984 2565 2268 
Q 2250 2553 1709 2553 
Q 1456 2553 1204 2497 
Q 953 2441 691 2322 
L 691 4666 
z
" transform="scale(0.015625)"/>
       </defs>
       <use xlink:href="#DejaVuSans-35"/>
       <use xlink:href="#DejaVuSans-30" x="63.623047"/>
      </g>
     </g>
    </g>
    <g id="ytick_3">
     <g id="line2d_9">
      <g>
       <use xlink:href="#mf77d7ba99c" x="57.6" y="219.888498" style="stroke: #000000; stroke-width: 0.8"/>
      </g>
     </g>
     <g id="text_10">
      <!-- 100 -->
      <g transform="translate(31.5125 223.687717)scale(0.1 -0.1)">
       <use xlink:href="#DejaVuSans-31"/>
       <use xlink:href="#DejaVuSans-30" x="63.623047"/>
       <use xlink:href="#DejaVuSans-30" x="127.246094"/>
      </g>
     </g>
    </g>
    <g id="ytick_4">
     <g id="line2d_10">
      <g>
       <use xlink:href="#mf77d7ba99c" x="57.6" y="176.040747" style="stroke: #000000; stroke-width: 0.8"/>
      </g>
     </g>
     <g id="text_11">
      <!-- 150 -->
      <g transform="translate(31.5125 179.839966)scale(0.1 -0.1)">
       <use xlink:href="#DejaVuSans-31"/>
       <use xlink:href="#DejaVuSans-35" x="63.623047"/>
       <use xlink:href="#DejaVuSans-30" x="127.246094"/>
      </g>
     </g>
    </g>
    <g id="ytick_5">
     <g id="line2d_11">
      <g>
       <use xlink:href="#mf77d7ba99c" x="57.6" y="132.192997" style="stroke: #000000; stroke-width: 0.8"/>
      </g>
     </g>
     <g id="text_12">
      <!-- 200 -->
      <g transform="translate(31.5125 135.992215)scale(0.1 -0.1)">
       <use xlink:href="#DejaVuSans-32"/>
       <use xlink:href="#DejaVuSans-30" x="63.623047"/>
       <use xlink:href="#DejaVuSans-30" x="127.246094"/>
      </g>
     </g>
    </g>
    <g id="ytick_6">
     <g id="line2d_12">
      <g>
       <use xlink:href="#mf77d7ba99c" x="57.6" y="88.345246" style="stroke: #000000; stroke-width: 0.8"/>
      </g>
     </g>
     <g id="text_13">
      <!-- 250 -->
      <g transform="translate(31.5125 92.144464)scale(0.1 -0.1)">
       <use xlink:href="#DejaVuSans-32"/>
       <use xlink:href="#DejaVuSans-35" x="63.623047"/>
       <use xlink:href="#DejaVuSans-30" x="127.246094"/>
      </g>
     </g>
    </g>
    <g id="ytick_7">
     <g id="line2d_13">
      <g>
       <use xlink:href="#mf77d7ba99c" x="57.6" y="44.497495" style="stroke: #000000; stroke-width: 0.8"/>
      </g>
     </g>
     <g id="text_14">
      <!-- 300 -->
      <g transform="translate(31.5125 48.296714)scale(0.1 -0.1)">
       <defs>
        <path id="DejaVuSans-33" d="M 2597 2516 
Q 3050 2419 3304 2112 
Q 3559 1806 3559 1356 
Q 3559 666 3084 287 
Q 2609 -91 1734 -91 
Q 1441 -91 1130 -33 
Q 819 25 488 141 
L 488 750 
Q 750 597 1062 519 
Q 1375 441 1716 441 
Q 2309 441 2620 675 
Q 2931 909 2931 1356 
Q 2931 1769 2642 2001 
Q 2353 2234 1838 2234 
L 1294 2234 
L 1294 2753 
L 1863 2753 
Q 2328 2753 2575 2939 
Q 2822 3125 2822 3475 
Q 2822 3834 2567 4026 
Q 2313 4219 1838 4219 
Q 1578 4219 1281 4162 
Q 984 4106 628 3988 
L 628 4550 
Q 988 4650 1302 4700 
Q 1616 4750 1894 4750 
Q 2613 4750 3031 4423 
Q 3450 4097 3450 3541 
Q 3450 3153 3228 2886 
Q 3006 2619 2597 2516 
z
" transform="scale(0.015625)"/>
       </defs>
       <use xlink:href="#DejaVuSans-33"/>
       <use xlink:href="#DejaVuSans-30" x="63.623047"/>
       <use xlink:href="#DejaVuSans-30" x="127.246094"/>
      </g>
     </g>
    </g>
    <g id="text_15">
     <!-- Number of crosslinks -->
     <g transform="translate(25.432812 227.019406)rotate(-90)scale(0.1 -0.1)">
      <defs>
       <path id="DejaVuSans-4e" d="M 628 4666 
L 1478 4666 
L 3547 763 
L 3547 4666 
L 4159 4666 
L 4159 0 
L 3309 0 
L 1241 3903 
L 1241 0 
L 628 0 
L 628 4666 
z
" transform="scale(0.015625)"/>
       <path id="DejaVuSans-75" d="M 544 1381 
L 544 3500 
L 1119 3500 
L 1119 1403 
Q 1119 906 1312 657 
Q 1506 409 1894 409 
Q 2359 409 2629 706 
Q 2900 1003 2900 1516 
L 2900 3500 
L 3475 3500 
L 3475 0 
L 2900 0 
L 2900 538 
Q 2691 219 2414 64 
Q 2138 -91 1772 -91 
Q 1169 -91 856 284 
Q 544 659 544 1381 
z
M 1991 3584 
L 1991 3584 
z
" transform="scale(0.015625)"/>
       <path id="DejaVuSans-6d" d="M 3328 2828 
Q 3544 3216 3844 3400 
Q 4144 3584 4550 3584 
Q 5097 3584 5394 3201 
Q 5691 2819 5691 2113 
L 5691 0 
L 5113 0 
L 5113 2094 
Q 5113 2597 4934 2840 
Q 4756 3084 4391 3084 
Q 3944 3084 3684 2787 
Q 3425 2491 3425 1978 
L 3425 0 
L 2847 0 
L 2847 2094 
Q 2847 2600 2669 2842 
Q 2491 3084 2119 3084 
Q 1678 3084 1418 2786 
Q 1159 2488 1159 1978 
L 1159 0 
L 581 0 
L 581 3500 
L 1159 3500 
L 1159 2956 
Q 1356 3278 1631 3431 
Q 1906 3584 2284 3584 
Q 2666 3584 2933 3390 
Q 3200 3197 3328 2828 
z
" transform="scale(0.015625)"/>
       <path id="DejaVuSans-62" d="M 3116 1747 
Q 3116 2381 2855 2742 
Q 2594 3103 2138 3103 
Q 1681 3103 1420 2742 
Q 1159 2381 1159 1747 
Q 1159 1113 1420 752 
Q 1681 391 2138 391 
Q 2594 391 2855 752 
Q 3116 1113 3116 1747 
z
M 1159 2969 
Q 1341 3281 1617 3432 
Q 1894 3584 2278 3584 
Q 2916 3584 3314 3078 
Q 3713 2572 3713 1747 
Q 3713 922 3314 415 
Q 2916 -91 2278 -91 
Q 1894 -91 1617 61 
Q 1341 213 1159 525 
L 1159 0 
L 581 0 
L 581 4863 
L 1159 4863 
L 1159 2969 
z
" transform="scale(0.015625)"/>
       <path id="DejaVuSans-20" transform="scale(0.015625)"/>
       <path id="DejaVuSans-66" d="M 2375 4863 
L 2375 4384 
L 1825 4384 
Q 1516 4384 1395 4259 
Q 1275 4134 1275 3809 
L 1275 3500 
L 2222 3500 
L 2222 3053 
L 1275 3053 
L 1275 0 
L 697 0 
L 697 3053 
L 147 3053 
L 147 3500 
L 697 3500 
L 697 3744 
Q 697 4328 969 4595 
Q 1241 4863 1831 4863 
L 2375 4863 
z
" transform="scale(0.015625)"/>
       <path id="DejaVuSans-73" d="M 2834 3397 
L 2834 2853 
Q 2591 2978 2328 3040 
Q 2066 3103 1784 3103 
Q 1356 3103 1142 2972 
Q 928 2841 928 2578 
Q 928 2378 1081 2264 
Q 1234 2150 1697 2047 
L 1894 2003 
Q 2506 1872 2764 1633 
Q 3022 1394 3022 966 
Q 3022 478 2636 193 
Q 2250 -91 1575 -91 
Q 1294 -91 989 -36 
Q 684 19 347 128 
L 347 722 
Q 666 556 975 473 
Q 1284 391 1588 391 
Q 1994 391 2212 530 
Q 2431 669 2431 922 
Q 2431 1156 2273 1281 
Q 2116 1406 1581 1522 
L 1381 1569 
Q 847 1681 609 1914 
Q 372 2147 372 2553 
Q 372 3047 722 3315 
Q 1072 3584 1716 3584 
Q 2034 3584 2315 3537 
Q 2597 3491 2834 3397 
z
" transform="scale(0.015625)"/>
       <path id="DejaVuSans-6c" d="M 603 4863 
L 1178 4863 
L 1178 0 
L 603 0 
L 603 4863 
z
" transform="scale(0.015625)"/>
       <path id="DejaVuSans-69" d="M 603 3500 
L 1178 3500 
L 1178 0 
L 603 0 
L 603 3500 
z
M 603 4863 
L 1178 4863 
L 1178 4134 
L 603 4134 
L 603 4863 
z
" transform="scale(0.015625)"/>
       <path id="DejaVuSans-6e" d="M 3513 2113 
L 3513 0 
L 2938 0 
L 2938 2094 
Q 2938 2591 2744 2837 
Q 2550 3084 2163 3084 
Q 1697 3084 1428 2787 
Q 1159 2491 1159 1978 
L 1159 0 
L 581 0 
L 581 3500 
L 1159 3500 
L 1159 2956 
Q 1366 3272 1645 3428 
Q 1925 3584 2291 3584 
Q 2894 3584 3203 3211 
Q 3513 2838 3513 2113 
z
" transform="scale(0.015625)"/>
       <path id="DejaVuSans-6b" d="M 581 4863 
L 1159 4863 
L 1159 1991 
L 2875 3500 
L 3609 3500 
L 1753 1863 
L 3688 0 
L 2938 0 
L 1159 1709 
L 1159 0 
L 581 0 
L 581 4863 
z
" transform="scale(0.015625)"/>
      </defs>
      <use xlink:href="#DejaVuSans-4e"/>
      <use xlink:href="#DejaVuSans-75" x="74.804688"/>
      <use xlink:href="#DejaVuSans-6d" x="138.183594"/>
      <use xlink:href="#DejaVuSans-62" x="235.595703"/>
      <use xlink:href="#DejaVuSans-65" x="299.072266"/>
      <use xlink:href="#DejaVuSans-72" x="360.595703"/>
      <use xlink:href="#DejaVuSans-20" x="401.708984"/>
      <use xlink:href="#DejaVuSans-6f" x="433.496094"/>
      <use xlink:href="#DejaVuSans-66" x="494.677734"/>
      <use xlink:href="#DejaVuSans-20" x="529.882812"/>
      <use xlink:href="#DejaVuSans-63" x="561.669922"/>
      <use xlink:href="#DejaVuSans-72" x="616.650391"/>
      <use xlink:href="#DejaVuSans-6f" x="655.513672"/>
      <use xlink:href="#DejaVuSans-73" x="716.695312"/>
      <use xlink:href="#DejaVuSans-73" x="768.794922"/>
      <use xlink:href="#DejaVuSans-6c" x="820.894531"/>
      <use xlink:href="#DejaVuSans-69" x="848.677734"/>
      <use xlink:href="#DejaVuSans-6e" x="876.460938"/>
      <use xlink:href="#DejaVuSans-6b" x="939.839844"/>
      <use xlink:href="#DejaVuSans-73" x="997.75"/>
     </g>
    </g>
   </g>
   <g id="patch_3">
    <path d="M 57.6 307.584 
L 57.6 41.472 
" style="fill: none; stroke: #000000; stroke-width: 0.8; stroke-linejoin: miter; stroke-linecap: square"/>
   </g>
   <g id="patch_4">
    <path d="M 414.72 307.584 
L 414.72 41.472 
" style="fill: none; stroke: #000000; stroke-width: 0.8; stroke-linejoin: miter; stroke-linecap: square"/>
   </g>
   <g id="patch_5">
    <path d="M 57.6 307.584 
L 414.72 307.584 
" style="fill: none; stroke: #000000; stroke-width: 0.8; stroke-linejoin: miter; stroke-linecap: square"/>
   </g>
   <g id="patch_6">
    <path d="M 57.6 41.472 
L 414.72 41.472 
" style="fill: none; stroke: #000000; stroke-width: 0.8; stroke-linejoin: miter; stroke-linecap: square"/>
   </g>
   <g id="legend_1">
    <g id="patch_7">
     <path d="M 293.087188 93.506375 
L 407.72 93.506375 
Q 409.72 93.506375 409.72 91.506375 
L 409.72 48.472 
Q 409.72 46.472 407.72 46.472 
L 293.087188 46.472 
Q 291.087188 46.472 291.087188 48.472 
L 291.087188 91.506375 
Q 291.087188 93.506375 293.087188 93.506375 
z
" style="fill: #ffffff; opacity: 0.8; stroke: #cccccc; stroke-linejoin: miter"/>
    </g>
    <g id="patch_8">
     <path d="M 295.087188 58.070438 
L 315.087188 58.070438 
L 315.087188 51.070438 
L 295.087188 51.070438 
z
" style="fill: #008000"/>
    </g>
    <g id="text_16">
     <!-- true -->
     <g transform="translate(323.087188 58.070438)scale(0.1 -0.1)">
      <defs>
       <path id="DejaVuSans-74" d="M 1172 4494 
L 1172 3500 
L 2356 3500 
L 2356 3053 
L 1172 3053 
L 1172 1153 
Q 1172 725 1289 603 
Q 1406 481 1766 481 
L 2356 481 
L 2356 0 
L 1766 0 
Q 1100 0 847 248 
Q 594 497 594 1153 
L 594 3053 
L 172 3053 
L 172 3500 
L 594 3500 
L 594 4494 
L 1172 4494 
z
" transform="scale(0.015625)"/>
      </defs>
      <use xlink:href="#DejaVuSans-74"/>
      <use xlink:href="#DejaVuSans-72" x="39.208984"/>
      <use xlink:href="#DejaVuSans-75" x="80.322266"/>
      <use xlink:href="#DejaVuSans-65" x="143.701172"/>
     </g>
    </g>
    <g id="patch_9">
     <path d="M 295.087188 72.748563 
L 315.087188 72.748563 
L 315.087188 65.748563 
L 295.087188 65.748563 
z
" style="fill: #7cfc00"/>
    </g>
    <g id="text_17">
     <!-- true homeotypic -->
     <g transform="translate(323.087188 72.748563)scale(0.1 -0.1)">
      <defs>
       <path id="DejaVuSans-68" d="M 3513 2113 
L 3513 0 
L 2938 0 
L 2938 2094 
Q 2938 2591 2744 2837 
Q 2550 3084 2163 3084 
Q 1697 3084 1428 2787 
Q 1159 2491 1159 1978 
L 1159 0 
L 581 0 
L 581 4863 
L 1159 4863 
L 1159 2956 
Q 1366 3272 1645 3428 
Q 1925 3584 2291 3584 
Q 2894 3584 3203 3211 
Q 3513 2838 3513 2113 
z
" transform="scale(0.015625)"/>
       <path id="DejaVuSans-79" d="M 2059 -325 
Q 1816 -950 1584 -1140 
Q 1353 -1331 966 -1331 
L 506 -1331 
L 506 -850 
L 844 -850 
Q 1081 -850 1212 -737 
Q 1344 -625 1503 -206 
L 1606 56 
L 191 3500 
L 800 3500 
L 1894 763 
L 2988 3500 
L 3597 3500 
L 2059 -325 
z
" transform="scale(0.015625)"/>
       <path id="DejaVuSans-70" d="M 1159 525 
L 1159 -1331 
L 581 -1331 
L 581 3500 
L 1159 3500 
L 1159 2969 
Q 1341 3281 1617 3432 
Q 1894 3584 2278 3584 
Q 2916 3584 3314 3078 
Q 3713 2572 3713 1747 
Q 3713 922 3314 415 
Q 2916 -91 2278 -91 
Q 1894 -91 1617 61 
Q 1341 213 1159 525 
z
M 3116 1747 
Q 3116 2381 2855 2742 
Q 2594 3103 2138 3103 
Q 1681 3103 1420 2742 
Q 1159 2381 1159 1747 
Q 1159 1113 1420 752 
Q 1681 391 2138 391 
Q 2594 391 2855 752 
Q 3116 1113 3116 1747 
z
" transform="scale(0.015625)"/>
      </defs>
      <use xlink:href="#DejaVuSans-74"/>
      <use xlink:href="#DejaVuSans-72" x="39.208984"/>
      <use xlink:href="#DejaVuSans-75" x="80.322266"/>
      <use xlink:href="#DejaVuSans-65" x="143.701172"/>
      <use xlink:href="#DejaVuSans-20" x="205.224609"/>
      <use xlink:href="#DejaVuSans-68" x="237.011719"/>
      <use xlink:href="#DejaVuSans-6f" x="300.390625"/>
      <use xlink:href="#DejaVuSans-6d" x="361.572266"/>
      <use xlink:href="#DejaVuSans-65" x="458.984375"/>
      <use xlink:href="#DejaVuSans-6f" x="520.507812"/>
      <use xlink:href="#DejaVuSans-74" x="581.689453"/>
      <use xlink:href="#DejaVuSans-79" x="620.898438"/>
      <use xlink:href="#DejaVuSans-70" x="680.078125"/>
      <use xlink:href="#DejaVuSans-69" x="743.554688"/>
      <use xlink:href="#DejaVuSans-63" x="771.337891"/>
     </g>
    </g>
    <g id="patch_10">
     <path d="M 295.087188 87.426688 
L 315.087188 87.426688 
L 315.087188 80.426688 
L 295.087188 80.426688 
z
" style="fill: #ff0000"/>
    </g>
    <g id="text_18">
     <!-- false -->
     <g transform="translate(323.087188 87.426688)scale(0.1 -0.1)">
      <defs>
       <path id="DejaVuSans-61" d="M 2194 1759 
Q 1497 1759 1228 1600 
Q 959 1441 959 1056 
Q 959 750 1161 570 
Q 1363 391 1709 391 
Q 2188 391 2477 730 
Q 2766 1069 2766 1631 
L 2766 1759 
L 2194 1759 
z
M 3341 1997 
L 3341 0 
L 2766 0 
L 2766 531 
Q 2569 213 2275 61 
Q 1981 -91 1556 -91 
Q 1019 -91 701 211 
Q 384 513 384 1019 
Q 384 1609 779 1909 
Q 1175 2209 1959 2209 
L 2766 2209 
L 2766 2266 
Q 2766 2663 2505 2880 
Q 2244 3097 1772 3097 
Q 1472 3097 1187 3025 
Q 903 2953 641 2809 
L 641 3341 
Q 956 3463 1253 3523 
Q 1550 3584 1831 3584 
Q 2591 3584 2966 3190 
Q 3341 2797 3341 1997 
z
" transform="scale(0.015625)"/>
      </defs>
      <use xlink:href="#DejaVuSans-66"/>
      <use xlink:href="#DejaVuSans-61" x="35.205078"/>
      <use xlink:href="#DejaVuSans-6c" x="96.484375"/>
      <use xlink:href="#DejaVuSans-73" x="124.267578"/>
      <use xlink:href="#DejaVuSans-65" x="176.367188"/>
     </g>
    </g>
   </g>
  </g>
 </g>
 <defs>
  <clipPath id="pe945974db7">
   <rect x="57.6" y="41.472" width="357.12" height="266.112"/>
  </clipPath>
 </defs>
</svg>
